<?xml version="1.0" encoding="utf-8"?>
<svg version="1.1" xmlns:xlink="http://www.w3.org/1999/xlink" width="30px" height="30px" xmlns="http://www.w3.org/2000/svg">
  <defs>
    <pattern id="BGPattern" patternUnits="userSpaceOnUse" alignment="0 0" imageRepeat="None" />
    <mask fill="white" id="Clip1244">
      <path d="M 14.455645161290324 5.8790322580645205  L 14.993951612903226 6.828629032258065  L 15.544354838709678 5.879032258064517  C 15.883064516129036 5.286290322580645  16.639112903225808 5.086693548387098  17.231854838709676 5.425403225806452  C 17.824596774193548 5.764112903225806  18.024193548387096 6.520161290322582  17.68548387096774 7.112903225806451  L 12.39314516129032 16.276209677419356  L 16.221774193548384 16.276209677419356  C 17.461693548387096 16.276209677419356  18.157258064516128 17.733870967741936  17.618951612903224 18.743951612903228  L 6.399193548387096 18.743951612903228  C 5.715725806451613 18.743951612903228  5.165322580645161 18.193548387096776  5.165322580645161 17.510080645161292  C 5.165322580645161 16.82661290322581  5.715725806451613 16.27620967741936  6.399193548387097 16.27620967741936  L 9.544354838709678 16.27620967741936  L 13.572580645161292 9.29637096774194  L 12.314516129032258 7.112903225806456  C 11.975806451612902 6.520161290322585  12.17540322580645 5.770161290322585  12.768145161290322 5.4254032258064555  C 13.360887096774194 5.086693548387101  14.110887096774192 5.28629032258065  14.455645161290324 5.8790322580645205  Z M 7.79032258064516 19.3125  C 8.782258064516128 19.004032258064516  9.592741935483872 19.23991935483871  10.233870967741936 20.014112903225804  L 9.048387096774192 22.07056451612903  C 8.70967741935484 22.6633064516129  7.953629032258065 22.862903225806452  7.360887096774193 22.524193548387096  C 6.768145161290322 22.185483870967737  6.568548387096774 21.429435483870964  6.907258064516128 20.836693548387096  L 7.79032258064516 19.3125  Z M 16.814516129032263 9.991935483870963  C 17.625 11.383064516129028  18.83467741935484 13.481854838709673  20.44959677419355 16.282258064516128  L 23.661290322580648 16.282258064516128  C 24.34475806451613 16.282258064516128  24.89516129032258 16.832661290322584  24.89516129032258 17.51612903225806  C 24.89516129032258 18.199596774193544  24.344758064516128 18.749999999999996  23.661290322580648 18.749999999999996  L 21.877016129032263 18.749999999999996  L 23.080645161290324 20.836693548387093  C 23.41935483870968 21.429435483870964  23.21975806451613 22.179435483870964  22.62701612903226 22.524193548387093  C 22.034274193548388 22.86290322580645  21.28427419354839 22.663306451612897  20.939516129032263 22.070564516129025  C 18.913306451612904 18.556451612903217  17.389112903225808 15.925403225806448  16.37903225806452 14.17137096774193  C 15.344758064516132 12.387096774193543  16.082661290322584 10.596774193548383  16.814516129032263 9.991935483870963  Z M 30 15  C 30 6.713709677419355  23.286290322580648 0  15 0  C 6.713709677419355 0  0 6.713709677419355  0 15  C 0 23.286290322580648  6.713709677419355 30  15 30  C 23.286290322580648 30  30 23.286290322580648  30 15  Z M 15 1.935483870967742  C 22.179435483870968 1.935483870967742  28.064516129032256 7.747983870967741  28.064516129032256 15  C 28.064516129032256 22.179435483870968  22.252016129032256 28.064516129032256  15 28.064516129032256  C 7.820564516129032 28.064516129032256  1.935483870967742 22.252016129032256  1.935483870967742 15  C 1.935483870967742 7.820564516129032  7.747983870967741 1.935483870967742  15 1.935483870967742  Z " fill-rule="evenodd" />
    </mask>
  </defs>
  <g transform="matrix(1 0 0 1 -10 -15 )">
    <path d="M 14.455645161290324 5.8790322580645205  L 14.993951612903226 6.828629032258065  L 15.544354838709678 5.879032258064517  C 15.883064516129036 5.286290322580645  16.639112903225808 5.086693548387098  17.231854838709676 5.425403225806452  C 17.824596774193548 5.764112903225806  18.024193548387096 6.520161290322582  17.68548387096774 7.112903225806451  L 12.39314516129032 16.276209677419356  L 16.221774193548384 16.276209677419356  C 17.461693548387096 16.276209677419356  18.157258064516128 17.733870967741936  17.618951612903224 18.743951612903228  L 6.399193548387096 18.743951612903228  C 5.715725806451613 18.743951612903228  5.165322580645161 18.193548387096776  5.165322580645161 17.510080645161292  C 5.165322580645161 16.82661290322581  5.715725806451613 16.27620967741936  6.399193548387097 16.27620967741936  L 9.544354838709678 16.27620967741936  L 13.572580645161292 9.29637096774194  L 12.314516129032258 7.112903225806456  C 11.975806451612902 6.520161290322585  12.17540322580645 5.770161290322585  12.768145161290322 5.4254032258064555  C 13.360887096774194 5.086693548387101  14.110887096774192 5.28629032258065  14.455645161290324 5.8790322580645205  Z M 7.79032258064516 19.3125  C 8.782258064516128 19.004032258064516  9.592741935483872 19.23991935483871  10.233870967741936 20.014112903225804  L 9.048387096774192 22.07056451612903  C 8.70967741935484 22.6633064516129  7.953629032258065 22.862903225806452  7.360887096774193 22.524193548387096  C 6.768145161290322 22.185483870967737  6.568548387096774 21.429435483870964  6.907258064516128 20.836693548387096  L 7.79032258064516 19.3125  Z M 16.814516129032263 9.991935483870963  C 17.625 11.383064516129028  18.83467741935484 13.481854838709673  20.44959677419355 16.282258064516128  L 23.661290322580648 16.282258064516128  C 24.34475806451613 16.282258064516128  24.89516129032258 16.832661290322584  24.89516129032258 17.51612903225806  C 24.89516129032258 18.199596774193544  24.344758064516128 18.749999999999996  23.661290322580648 18.749999999999996  L 21.877016129032263 18.749999999999996  L 23.080645161290324 20.836693548387093  C 23.41935483870968 21.429435483870964  23.21975806451613 22.179435483870964  22.62701612903226 22.524193548387093  C 22.034274193548388 22.86290322580645  21.28427419354839 22.663306451612897  20.939516129032263 22.070564516129025  C 18.913306451612904 18.556451612903217  17.389112903225808 15.925403225806448  16.37903225806452 14.17137096774193  C 15.344758064516132 12.387096774193543  16.082661290322584 10.596774193548383  16.814516129032263 9.991935483870963  Z M 30 15  C 30 6.713709677419355  23.286290322580648 0  15 0  C 6.713709677419355 0  0 6.713709677419355  0 15  C 0 23.286290322580648  6.713709677419355 30  15 30  C 23.286290322580648 30  30 23.286290322580648  30 15  Z M 15 1.935483870967742  C 22.179435483870968 1.935483870967742  28.064516129032256 7.747983870967741  28.064516129032256 15  C 28.064516129032256 22.179435483870968  22.252016129032256 28.064516129032256  15 28.064516129032256  C 7.820564516129032 28.064516129032256  1.935483870967742 22.252016129032256  1.935483870967742 15  C 1.935483870967742 7.820564516129032  7.747983870967741 1.935483870967742  15 1.935483870967742  Z " fill-rule="nonzero" fill="rgba(255, 255, 255, 1)" stroke="none" transform="matrix(1 0 0 1 10 15 )" class="fill" />
    <path d="M 14.455645161290324 5.8790322580645205  L 14.993951612903226 6.828629032258065  L 15.544354838709678 5.879032258064517  C 15.883064516129036 5.286290322580645  16.639112903225808 5.086693548387098  17.231854838709676 5.425403225806452  C 17.824596774193548 5.764112903225806  18.024193548387096 6.520161290322582  17.68548387096774 7.112903225806451  L 12.39314516129032 16.276209677419356  L 16.221774193548384 16.276209677419356  C 17.461693548387096 16.276209677419356  18.157258064516128 17.733870967741936  17.618951612903224 18.743951612903228  L 6.399193548387096 18.743951612903228  C 5.715725806451613 18.743951612903228  5.165322580645161 18.193548387096776  5.165322580645161 17.510080645161292  C 5.165322580645161 16.82661290322581  5.715725806451613 16.27620967741936  6.399193548387097 16.27620967741936  L 9.544354838709678 16.27620967741936  L 13.572580645161292 9.29637096774194  L 12.314516129032258 7.112903225806456  C 11.975806451612902 6.520161290322585  12.17540322580645 5.770161290322585  12.768145161290322 5.4254032258064555  C 13.360887096774194 5.086693548387101  14.110887096774192 5.28629032258065  14.455645161290324 5.8790322580645205  Z " stroke-width="0" stroke-dasharray="0" stroke="rgba(255, 255, 255, 0)" fill="none" transform="matrix(1 0 0 1 10 15 )" class="stroke" mask="url(#Clip1244)" />
    <path d="M 7.79032258064516 19.3125  C 8.782258064516128 19.004032258064516  9.592741935483872 19.23991935483871  10.233870967741936 20.014112903225804  L 9.048387096774192 22.07056451612903  C 8.70967741935484 22.6633064516129  7.953629032258065 22.862903225806452  7.360887096774193 22.524193548387096  C 6.768145161290322 22.185483870967737  6.568548387096774 21.429435483870964  6.907258064516128 20.836693548387096  L 7.79032258064516 19.3125  Z " stroke-width="0" stroke-dasharray="0" stroke="rgba(255, 255, 255, 0)" fill="none" transform="matrix(1 0 0 1 10 15 )" class="stroke" mask="url(#Clip1244)" />
    <path d="M 16.814516129032263 9.991935483870963  C 17.625 11.383064516129028  18.83467741935484 13.481854838709673  20.44959677419355 16.282258064516128  L 23.661290322580648 16.282258064516128  C 24.34475806451613 16.282258064516128  24.89516129032258 16.832661290322584  24.89516129032258 17.51612903225806  C 24.89516129032258 18.199596774193544  24.344758064516128 18.749999999999996  23.661290322580648 18.749999999999996  L 21.877016129032263 18.749999999999996  L 23.080645161290324 20.836693548387093  C 23.41935483870968 21.429435483870964  23.21975806451613 22.179435483870964  22.62701612903226 22.524193548387093  C 22.034274193548388 22.86290322580645  21.28427419354839 22.663306451612897  20.939516129032263 22.070564516129025  C 18.913306451612904 18.556451612903217  17.389112903225808 15.925403225806448  16.37903225806452 14.17137096774193  C 15.344758064516132 12.387096774193543  16.082661290322584 10.596774193548383  16.814516129032263 9.991935483870963  Z " stroke-width="0" stroke-dasharray="0" stroke="rgba(255, 255, 255, 0)" fill="none" transform="matrix(1 0 0 1 10 15 )" class="stroke" mask="url(#Clip1244)" />
    <path d="M 30 15  C 30 6.713709677419355  23.286290322580648 0  15 0  C 6.713709677419355 0  0 6.713709677419355  0 15  C 0 23.286290322580648  6.713709677419355 30  15 30  C 23.286290322580648 30  30 23.286290322580648  30 15  Z " stroke-width="0" stroke-dasharray="0" stroke="rgba(255, 255, 255, 0)" fill="none" transform="matrix(1 0 0 1 10 15 )" class="stroke" mask="url(#Clip1244)" />
    <path d="M 15 1.935483870967742  C 22.179435483870968 1.935483870967742  28.064516129032256 7.747983870967741  28.064516129032256 15  C 28.064516129032256 22.179435483870968  22.252016129032256 28.064516129032256  15 28.064516129032256  C 7.820564516129032 28.064516129032256  1.935483870967742 22.252016129032256  1.935483870967742 15  C 1.935483870967742 7.820564516129032  7.747983870967741 1.935483870967742  15 1.935483870967742  Z " stroke-width="0" stroke-dasharray="0" stroke="rgba(255, 255, 255, 0)" fill="none" transform="matrix(1 0 0 1 10 15 )" class="stroke" mask="url(#Clip1244)" />
  </g>
</svg>