<?xml version="1.0" encoding="utf-8"?>
<svg version="1.1" xmlns:xlink="http://www.w3.org/1999/xlink" width="27px" height="23px" xmlns="http://www.w3.org/2000/svg">
  <g transform="matrix(1 0 0 1 -1550 -19 )">
    <path d="M 27 9.692857142857143  C 27 7.377506696428573  24.990767578125 5.4214285714285735  22.6125 5.421428571428572  L 18.068009765625003 5.421428571428572  C 18.144614925129044 5.042644881460302  18.183047260120542 4.6574842257720706  18.182759765625 4.271428571428571  C 18.182759765625 1.8115580357142858  16.333259765624998 0  13.331197265624999 0  C 10.941591796874999 0  10.325232421874999 2.4918549107142853  9.338835937499999 4.044714285714286  C 8.930935546874998 4.681988839285714  8.44266796875 5.241792410714287  7.975599609374999 5.751899553571428  L 7.96869140625 5.7593950892857135  L 7.961888671875 5.766993303571427  C 7.1540507812500005 6.664198660714287  6.737554687499999 6.982142857142857  6.3703125 6.982142857142857  L 6.229037109375 6.982142857142857  C 5.92597265625 6.727910714285715  5.515224609374999 6.571428571428571  5.062552734374999 6.571428571428571  L 1.6875 6.571428571428571  C 0.7555253906250001 6.571428571428571  0 7.233397321428572  0 8.05  L 0 19.878571428571433  C 0 20.695174107142854  0.755525390625 21.357142857142858  1.6875 21.357142857142858  L 5.0625 21.357142857142858  C 5.515171875 21.357142857142858  5.925919921875 21.200660714285714  6.2289843750000005 20.94642857142857  L 6.370259765625001 20.94642857142857  C 7.883103515625 20.94642857142857  9.9106875 23  13.078072265625002 23  L 14.20126171875 23  C 17.499375 23  19.41141796875 21.015325892857142  19.47153515625 18.320680803571427  C 20.129765625 17.406174107142856  20.446646484374998 16.22680803571429  20.314494140625 15.097035714285717  C 20.50231996019383 14.738104195900208  20.642809492499175 14.357506796424007  20.732625 13.964285714285714  L 22.6125 13.964285714285714  C 25.008486328125002 13.964285714285714  27 12.034749999999999  27 9.692857142857143  Z M 24.468750000000004 9.692857142857143  C 24.468750000000004 10.667020089285716  23.613134765625002 11.5  22.6125 11.5  L 17.81230078125 11.5  C 18.489251953125 12.253095982142856  18.572466796875002 13.698604910714284  17.551265625 14.634263392857145  C 18.143314453125 15.642875000000002  17.640228515625 16.976566964285716  16.869673828125 17.387332589285716  C 17.213712890625 19.396136160714285  16.338322265625 20.53571428571429  14.201314453124999 20.53571428571429  L 13.078125 20.53571428571429  C 10.679185546875 20.53571428571429  9.006503906250002 18.691966517857143  6.75 18.498776785714288  L 6.75 9.424404017857144  C 8.080962890625 9.272234375000002  9.01578515625 8.334881696428571  9.865283203125 7.391573660714287  C 10.45986328125 6.7421316964285705  11.010937499999999 6.0926897321428575  11.48944921875 5.344419642857143  C 12.253095703125 4.143696428571429  12.86750390625 2.4642857142857153  13.33125 2.4642857142857153  C 14.563916015625 2.4642857142857153  15.6515625 2.916071428571429  15.6515625 4.271428571428572  C 15.6515625 6.07857142857143  14.259375000000002 6.996261160714288  14.259375000000002 7.885714285714287  L 22.612500000000004 7.885714285714287  C 23.584130859375005 7.885714285714287  24.468750000000004 8.732812500000001  24.468750000000004 9.692857142857143  Z M 3.375 16.83928571428571  C 4.0739941406249995 16.83928571428571  4.640625 17.390926339285713  4.640625 18.07142857142857  C 4.640625 18.751930803571426  4.0739941406249995 19.30357142857143  3.375 19.30357142857143  C 2.6760058593750005 19.30357142857143  2.109375 18.751930803571426  2.109375 18.07142857142857  C 2.109375 17.390926339285713  2.676005859375 16.83928571428571  3.375 16.83928571428571  Z " fill-rule="nonzero" fill="#fc9f9f" stroke="none" transform="matrix(1 0 0 1 1550 19 )" />
  </g>
</svg>