<?xml version="1.0" encoding="utf-8"?>
<svg version="1.1" xmlns:xlink="http://www.w3.org/1999/xlink" width="20px" height="20px" xmlns="http://www.w3.org/2000/svg">
  <g transform="matrix(1 0 0 1 -489 -34 )">
    <path d="M 20 10  C 20 4.476923076923185  15.523076923076928 0  10 0  C 4.476923076923072 0  0 4.476923076923185  0 10  C 0 15.523076923076815  4.476923076923072 20  10 20  C 15.523076923076928 20  20 15.523076923076815  20 10  Z M 18.461538461538453 10  C 18.461538461538453 14.676923076923003  14.676923076923117 18.461538461538566  10 18.461538461538566  C 5.323076923076883 18.461538461538566  1.5384615384615472 14.676923076923003  1.5384615384615472 10  C 1.5384615384615472 5.3230769230769965  5.323076923076883 1.5384615384614335  10 1.5384615384614335  C 14.676923076923117 1.5384615384614335  18.461538461538453 5.3230769230769965  18.461538461538453 10  Z " fill-rule="nonzero" fill="#aaaaaa" stroke="none" fill-opacity="0.9921568627450981" transform="matrix(1 0 0 1 489 34 )" />
  </g>
</svg>