<?xml version="1.0" encoding="utf-8"?>
<svg version="1.1" xmlns:xlink="http://www.w3.org/1999/xlink" width="12px" height="12px" xmlns="http://www.w3.org/2000/svg">
  <g transform="matrix(1 0 0 1 -9 -45 )">
    <path d="M 15 47  C 17.240000000000002 47  19 48.76  19 51  C 19 53.24  17.240000000000002 55  15 55  C 12.76 55  11 53.24  11 51  C 11 48.76  12.76 47  15 47  Z " fill-rule="nonzero" fill="#ffffff" stroke="none" />
    <path d="M 15 46.5  C 17.52 46.5  19.5 48.48  19.5 51  C 19.5 53.52  17.52 55.5  15 55.5  C 12.48 55.5  10.5 53.52  10.5 51  C 10.5 48.48  12.48 46.5  15 46.5  Z " stroke-width="3" stroke="#409eff" fill="none" />
  </g>
</svg>