<?xml version="1.0" encoding="utf-8"?>
<svg version="1.1" xmlns:xlink="http://www.w3.org/1999/xlink" width="12px" height="12px" xmlns="http://www.w3.org/2000/svg">
  <g transform="matrix(1 0 0 1 -9 -45 )">
    <path d="M 15 45  C 18.36 45  21 47.64  21 51  C 21 54.36  18.36 57  15 57  C 11.64 57  9 54.36  9 51  C 9 47.64  11.64 45  15 45  Z " fill-rule="nonzero" fill="#f5f7fa" stroke="none" />
    <path d="M 15 45.5  C 18.08 45.5  20.5 47.92  20.5 51  C 20.5 54.08  18.08 56.5  15 56.5  C 11.92 56.5  9.5 54.08  9.5 51  C 9.5 47.92  11.92 45.5  15 45.5  Z " stroke-width="1" stroke="#e4e7ed" fill="none" />
  </g>
</svg>