<?xml version="1.0" encoding="utf-8"?>
<svg version="1.1" xmlns:xlink="http://www.w3.org/1999/xlink" width="24px" height="16px" xmlns="http://www.w3.org/2000/svg">
  <defs>
    <pattern id="BGPattern" patternUnits="userSpaceOnUse" alignment="0 0" imageRepeat="None" />
    <mask fill="white" id="Clip1618">
      <path d="M 16.854690899999998 1.9971973414634143  C 17.19283848547096 1.7430578152674163  17.6102266156616 1.6099938057554812  18.03694545 1.6202926829268296  C 18.037850493305104 1.6202914220650197  18.038755537417607 1.6202907916338742  18.039660581645464 1.6202907916338742  C 19.089764767198403 1.6202907916338742  19.94104240664546 2.4508055618261255  19.94104240664546 3.4752974501704594  C 19.94104240664546 4.499789338514794  19.089764767198403 5.330304108707045  18.039660581645464 5.330304108707045  C 17.347455321065684 5.330304108707045  16.709938150785543 4.9632987883654485  16.375272725 4.372150780487805  L 15.237236375000005 4.992000000000001  C 15.80517768629552 5.975300702980561  16.87225584359935 6.583627409474738  18.02914214715409 6.583627409474738  C 19.799023983594953 6.583627409474738  21.233796697154087 5.183849152343874  21.233796697154087 3.457135165572298  C 21.233796697154087 1.7307341529884253  19.799524604759835 0.33108556824727103  18.029963624999997 0.33064302439024257  C 17.310149496678527 0.3272682903944408  16.610688556321037 0.5635456034121576  16.047127274999998 1.0004434634146333  L 16.854690899999998 1.9971973414634143  Z M 5.786181825 6.59725056097561  L 5.793163624999999 6.588168512195122  C 6.953541541103947 6.586659325252652  8.022158743225804 5.972421630605473  8.585890899999999 4.9829179512195125  L 7.4478545500000015 4.365339243902442  C 7.112394885048295 4.949660685667314  6.479494574322841 5.31153974253934  5.793018277428282 5.31153974253934  C 4.745484728857665 5.31153974253934  3.896291002428283 4.483058058217992  3.896291002428283 3.4610741083929994  C 3.896291002428283 2.439090158568006  4.745484728857665 1.6106084742466575  5.793018277428282 1.6106084742466575  C 6.116496254920267 1.6106084742466575  6.4345994528238 1.6913207125768075  6.7170909000000005 1.8450731707317078  C 6.80254747783305 1.8919474276126078  6.88423637701536 1.9450784189506944  6.961454549999999 2.0040088780487815  L 7.77134545 1.0095254878048796  C 7.205833443070587 0.575556582520965  6.505643696839314 0.3425137057680676  5.786181825000002 0.34880709756097666  C 5.7597301244945065 0.34816774577232346  5.733271322029473 0.3478480331005527  5.706811504865342 0.3478480331005527  C 3.936929668424477 0.3478480331005527  2.5021569548653413 1.7476262902314181  2.5021569548653413 3.474340277002991  C 2.5021569548653413 5.142888618292671  3.845151913365141 6.51740311137584  5.5534545500000005 6.59725056097561  L 5.786181825 6.59725056097561  Z M 18.081163625000002 15.175237243902437  L 23.983127275 15.175237243902437  L 21.45105455 7.723423512195121  L 17.192145449999998 7.723423512195121  L 17.192145449999998 9.00399112195122  L 20.5085091 9.00399112195122  L 22.1632 13.912833707317072  L 17.741381825 13.912833707317072  L 16.005236375 7.282944560975609  L 8.064581825000001 7.282944560975609  L 6.4354909000000005 13.903751658536581  L 1.8507636250000006 13.903751658536581  L 3.6357818250000005 9.00399112195122  L 6.9661091 9.00399112195122  L 6.9661091 7.732505536585366  L 2.7141818250000003 7.732505536585366  L 0.01687272499999999 15.175237243902437  L 6.139927275 15.175237243902437  L 5.9490909 16  L 18.283636375 16  L 18.081163625000002 15.175237243902437  Z M 16.605672724999998 14.662101999999999  L 7.589818175000001 14.666643024390243  L 9.093236375 8.549889146341462  L 14.976581825 8.549889146341462  L 16.605672724999998 14.662101999999999  Z " fill-rule="evenodd" />
    </mask>
  </defs>
  <g transform="matrix(1 0 0 1 -46 -133 )">
    <path d="M 16.854690899999998 1.9971973414634143  C 17.19283848547096 1.7430578152674163  17.6102266156616 1.6099938057554812  18.03694545 1.6202926829268296  C 18.037850493305104 1.6202914220650197  18.038755537417607 1.6202907916338742  18.039660581645464 1.6202907916338742  C 19.089764767198403 1.6202907916338742  19.94104240664546 2.4508055618261255  19.94104240664546 3.4752974501704594  C 19.94104240664546 4.499789338514794  19.089764767198403 5.330304108707045  18.039660581645464 5.330304108707045  C 17.347455321065684 5.330304108707045  16.709938150785543 4.9632987883654485  16.375272725 4.372150780487805  L 15.237236375000005 4.992000000000001  C 15.80517768629552 5.975300702980561  16.87225584359935 6.583627409474738  18.02914214715409 6.583627409474738  C 19.799023983594953 6.583627409474738  21.233796697154087 5.183849152343874  21.233796697154087 3.457135165572298  C 21.233796697154087 1.7307341529884253  19.799524604759835 0.33108556824727103  18.029963624999997 0.33064302439024257  C 17.310149496678527 0.3272682903944408  16.610688556321037 0.5635456034121576  16.047127274999998 1.0004434634146333  L 16.854690899999998 1.9971973414634143  Z M 5.786181825 6.59725056097561  L 5.793163624999999 6.588168512195122  C 6.953541541103947 6.586659325252652  8.022158743225804 5.972421630605473  8.585890899999999 4.9829179512195125  L 7.4478545500000015 4.365339243902442  C 7.112394885048295 4.949660685667314  6.479494574322841 5.31153974253934  5.793018277428282 5.31153974253934  C 4.745484728857665 5.31153974253934  3.896291002428283 4.483058058217992  3.896291002428283 3.4610741083929994  C 3.896291002428283 2.439090158568006  4.745484728857665 1.6106084742466575  5.793018277428282 1.6106084742466575  C 6.116496254920267 1.6106084742466575  6.4345994528238 1.6913207125768075  6.7170909000000005 1.8450731707317078  C 6.80254747783305 1.8919474276126078  6.88423637701536 1.9450784189506944  6.961454549999999 2.0040088780487815  L 7.77134545 1.0095254878048796  C 7.205833443070587 0.575556582520965  6.505643696839314 0.3425137057680676  5.786181825000002 0.34880709756097666  C 5.7597301244945065 0.34816774577232346  5.733271322029473 0.3478480331005527  5.706811504865342 0.3478480331005527  C 3.936929668424477 0.3478480331005527  2.5021569548653413 1.7476262902314181  2.5021569548653413 3.474340277002991  C 2.5021569548653413 5.142888618292671  3.845151913365141 6.51740311137584  5.5534545500000005 6.59725056097561  L 5.786181825 6.59725056097561  Z M 18.081163625000002 15.175237243902437  L 23.983127275 15.175237243902437  L 21.45105455 7.723423512195121  L 17.192145449999998 7.723423512195121  L 17.192145449999998 9.00399112195122  L 20.5085091 9.00399112195122  L 22.1632 13.912833707317072  L 17.741381825 13.912833707317072  L 16.005236375 7.282944560975609  L 8.064581825000001 7.282944560975609  L 6.4354909000000005 13.903751658536581  L 1.8507636250000006 13.903751658536581  L 3.6357818250000005 9.00399112195122  L 6.9661091 9.00399112195122  L 6.9661091 7.732505536585366  L 2.7141818250000003 7.732505536585366  L 0.01687272499999999 15.175237243902437  L 6.139927275 15.175237243902437  L 5.9490909 16  L 18.283636375 16  L 18.081163625000002 15.175237243902437  Z M 16.605672724999998 14.662101999999999  L 7.589818175000001 14.666643024390243  L 9.093236375 8.549889146341462  L 14.976581825 8.549889146341462  L 16.605672724999998 14.662101999999999  Z " fill-rule="nonzero" fill="rgba(64, 158, 255, 1)" stroke="none" transform="matrix(1 0 0 1 46 133 )" class="fill" />
    <path d="M 16.854690899999998 1.9971973414634143  C 17.19283848547096 1.7430578152674163  17.6102266156616 1.6099938057554812  18.03694545 1.6202926829268296  C 18.037850493305104 1.6202914220650197  18.038755537417607 1.6202907916338742  18.039660581645464 1.6202907916338742  C 19.089764767198403 1.6202907916338742  19.94104240664546 2.4508055618261255  19.94104240664546 3.4752974501704594  C 19.94104240664546 4.499789338514794  19.089764767198403 5.330304108707045  18.039660581645464 5.330304108707045  C 17.347455321065684 5.330304108707045  16.709938150785543 4.9632987883654485  16.375272725 4.372150780487805  L 15.237236375000005 4.992000000000001  C 15.80517768629552 5.975300702980561  16.87225584359935 6.583627409474738  18.02914214715409 6.583627409474738  C 19.799023983594953 6.583627409474738  21.233796697154087 5.183849152343874  21.233796697154087 3.457135165572298  C 21.233796697154087 1.7307341529884253  19.799524604759835 0.33108556824727103  18.029963624999997 0.33064302439024257  C 17.310149496678527 0.3272682903944408  16.610688556321037 0.5635456034121576  16.047127274999998 1.0004434634146333  L 16.854690899999998 1.9971973414634143  Z " stroke-width="0" stroke-dasharray="0" stroke="rgba(255, 255, 255, 0)" fill="none" transform="matrix(1 0 0 1 46 133 )" class="stroke" mask="url(#Clip1618)" />
    <path d="M 5.786181825 6.59725056097561  L 5.793163624999999 6.588168512195122  C 6.953541541103947 6.586659325252652  8.022158743225804 5.972421630605473  8.585890899999999 4.9829179512195125  L 7.4478545500000015 4.365339243902442  C 7.112394885048295 4.949660685667314  6.479494574322841 5.31153974253934  5.793018277428282 5.31153974253934  C 4.745484728857665 5.31153974253934  3.896291002428283 4.483058058217992  3.896291002428283 3.4610741083929994  C 3.896291002428283 2.439090158568006  4.745484728857665 1.6106084742466575  5.793018277428282 1.6106084742466575  C 6.116496254920267 1.6106084742466575  6.4345994528238 1.6913207125768075  6.7170909000000005 1.8450731707317078  C 6.80254747783305 1.8919474276126078  6.88423637701536 1.9450784189506944  6.961454549999999 2.0040088780487815  L 7.77134545 1.0095254878048796  C 7.205833443070587 0.575556582520965  6.505643696839314 0.3425137057680676  5.786181825000002 0.34880709756097666  C 5.7597301244945065 0.34816774577232346  5.733271322029473 0.3478480331005527  5.706811504865342 0.3478480331005527  C 3.936929668424477 0.3478480331005527  2.5021569548653413 1.7476262902314181  2.5021569548653413 3.474340277002991  C 2.5021569548653413 5.142888618292671  3.845151913365141 6.51740311137584  5.5534545500000005 6.59725056097561  L 5.786181825 6.59725056097561  Z " stroke-width="0" stroke-dasharray="0" stroke="rgba(255, 255, 255, 0)" fill="none" transform="matrix(1 0 0 1 46 133 )" class="stroke" mask="url(#Clip1618)" />
    <path d="M 18.081163625000002 15.175237243902437  L 23.983127275 15.175237243902437  L 21.45105455 7.723423512195121  L 17.192145449999998 7.723423512195121  L 17.192145449999998 9.00399112195122  L 20.5085091 9.00399112195122  L 22.1632 13.912833707317072  L 17.741381825 13.912833707317072  L 16.005236375 7.282944560975609  L 8.064581825000001 7.282944560975609  L 6.4354909000000005 13.903751658536581  L 1.8507636250000006 13.903751658536581  L 3.6357818250000005 9.00399112195122  L 6.9661091 9.00399112195122  L 6.9661091 7.732505536585366  L 2.7141818250000003 7.732505536585366  L 0.01687272499999999 15.175237243902437  L 6.139927275 15.175237243902437  L 5.9490909 16  L 18.283636375 16  L 18.081163625000002 15.175237243902437  Z " stroke-width="0" stroke-dasharray="0" stroke="rgba(255, 255, 255, 0)" fill="none" transform="matrix(1 0 0 1 46 133 )" class="stroke" mask="url(#Clip1618)" />
    <path d="M 16.605672724999998 14.662101999999999  L 7.589818175000001 14.666643024390243  L 9.093236375 8.549889146341462  L 14.976581825 8.549889146341462  L 16.605672724999998 14.662101999999999  Z " stroke-width="0" stroke-dasharray="0" stroke="rgba(255, 255, 255, 0)" fill="none" transform="matrix(1 0 0 1 46 133 )" class="stroke" mask="url(#Clip1618)" />
  </g>
</svg>