<?xml version="1.0" encoding="utf-8"?>
<svg version="1.1" xmlns:xlink="http://www.w3.org/1999/xlink" width="11px" height="6px" xmlns="http://www.w3.org/2000/svg">
  <defs>
    <pattern id="BGPattern" patternUnits="userSpaceOnUse" alignment="0 0" imageRepeat="None" />
    <mask fill="white" id="Clip1933">
      <path d="M 10.503625 4.953960937500001  C 10.503625 5.324390625000002  10.198669642857144 5.615484375000001  9.81060044642857 5.615484375000001  L 1.189399553571428 5.615484375000001  C 0.8013058035714283 5.615484375000001  0.49637499999999884 5.324414062500002  0.49637499999999884 4.953960937500001  C 0.49637499999999884 4.5835078125  0.8013303571428563 4.2924375  1.189399553571428 4.2924375  L 9.81060044642857 4.2924375  C 10.198694196428573 4.2924375  10.503625 4.583531249999999  10.503625 4.953960937500001  Z M 10.503625 1.143609375000001  C 10.503625 1.5140625000000019  10.198669642857144 1.8051328125000015  9.81060044642857 1.8051328125000015  L 1.189399553571428 1.8051328125000015  C 0.8013058035714283 1.8051328125000015  0.49637499999999884 1.514039062500001  0.49637499999999884 1.143609375000001  C 0.49637499999999884 0.7731796875000008  0.8013303571428563 0.4820859375000004  1.189399553571428 0.4820859375000004  L 9.81060044642857 0.4820859375000004  C 10.198694196428573 0.4820859375000004  10.503625 0.77315625  10.503625 1.143609375000001  Z " fill-rule="evenodd" />
    </mask>
  </defs>
  <g transform="matrix(1 0 0 1 -423 -137 )">
    <path d="M 10.503625 4.953960937500001  C 10.503625 5.324390625000002  10.198669642857144 5.615484375000001  9.81060044642857 5.615484375000001  L 1.189399553571428 5.615484375000001  C 0.8013058035714283 5.615484375000001  0.49637499999999884 5.324414062500002  0.49637499999999884 4.953960937500001  C 0.49637499999999884 4.5835078125  0.8013303571428563 4.2924375  1.189399553571428 4.2924375  L 9.81060044642857 4.2924375  C 10.198694196428573 4.2924375  10.503625 4.583531249999999  10.503625 4.953960937500001  Z M 10.503625 1.143609375000001  C 10.503625 1.5140625000000019  10.198669642857144 1.8051328125000015  9.81060044642857 1.8051328125000015  L 1.189399553571428 1.8051328125000015  C 0.8013058035714283 1.8051328125000015  0.49637499999999884 1.514039062500001  0.49637499999999884 1.143609375000001  C 0.49637499999999884 0.7731796875000008  0.8013303571428563 0.4820859375000004  1.189399553571428 0.4820859375000004  L 9.81060044642857 0.4820859375000004  C 10.198694196428573 0.4820859375000004  10.503625 0.77315625  10.503625 1.143609375000001  Z " fill-rule="nonzero" fill="rgba(230, 162, 60, 1)" stroke="none" transform="matrix(1 0 0 1 423 137 )" class="fill" />
    <path d="M 10.503625 4.953960937500001  C 10.503625 5.324390625000002  10.198669642857144 5.615484375000001  9.81060044642857 5.615484375000001  L 1.189399553571428 5.615484375000001  C 0.8013058035714283 5.615484375000001  0.49637499999999884 5.324414062500002  0.49637499999999884 4.953960937500001  C 0.49637499999999884 4.5835078125  0.8013303571428563 4.2924375  1.189399553571428 4.2924375  L 9.81060044642857 4.2924375  C 10.198694196428573 4.2924375  10.503625 4.583531249999999  10.503625 4.953960937500001  Z " stroke-width="0" stroke-dasharray="0" stroke="rgba(255, 255, 255, 0)" fill="none" transform="matrix(1 0 0 1 423 137 )" class="stroke" mask="url(#Clip1933)" />
    <path d="M 10.503625 1.143609375000001  C 10.503625 1.5140625000000019  10.198669642857144 1.8051328125000015  9.81060044642857 1.8051328125000015  L 1.189399553571428 1.8051328125000015  C 0.8013058035714283 1.8051328125000015  0.49637499999999884 1.514039062500001  0.49637499999999884 1.143609375000001  C 0.49637499999999884 0.7731796875000008  0.8013303571428563 0.4820859375000004  1.189399553571428 0.4820859375000004  L 9.81060044642857 0.4820859375000004  C 10.198694196428573 0.4820859375000004  10.503625 0.77315625  10.503625 1.143609375000001  Z " stroke-width="0" stroke-dasharray="0" stroke="rgba(255, 255, 255, 0)" fill="none" transform="matrix(1 0 0 1 423 137 )" class="stroke" mask="url(#Clip1933)" />
  </g>
</svg>