<?xml version="1.0" encoding="utf-8"?>
<svg version="1.1" xmlns:xlink="http://www.w3.org/1999/xlink" width="24px" height="23px" xmlns="http://www.w3.org/2000/svg">
  <defs>
    <pattern id="BGPattern" patternUnits="userSpaceOnUse" alignment="0 0" imageRepeat="None" />
    <mask fill="white" id="Clip1622">
      <path d="M 23.388749999999998 11.602756465517242  C 23.388749999999998 17.842646551724137  18.28005 22.907306034482758  12.0141 22.907306034482758  C 5.71995 22.907306034482758  0.6112499999999997 17.84264655172414  0.6112499999999997 11.630738146551723  C 0.6112499999999997 5.390823275862068  5.71995 0.3261637931034475  12.0141 0.3261637931034475  C 18.28005 0.3261637931034475  23.388749999999998 5.390823275862068  23.388749999999998 11.602756465517242  Z M 21.94925 11.630738146551723  C 21.977525 6.174310344827587  17.48975 1.725247844827586  12.0141 1.7252478448275863  C 6.51025 1.725247844827586  2.0225 6.174310344827587  2.0225 11.630738146551723  C 2.0225 17.08716594827586  6.51025 21.50822198275862  11.985899999999999 21.50822198275862  C 17.46155 21.50822198275862  21.94925 17.05915948275862  21.94925 11.630738146551723  Z " fill-rule="evenodd" />
    </mask>
  </defs>
  <g transform="matrix(1 0 0 1 -417 -129 )">
    <path d="M 23.388749999999998 11.602756465517242  C 23.388749999999998 17.842646551724137  18.28005 22.907306034482758  12.0141 22.907306034482758  C 5.71995 22.907306034482758  0.6112499999999997 17.84264655172414  0.6112499999999997 11.630738146551723  C 0.6112499999999997 5.390823275862068  5.71995 0.3261637931034475  12.0141 0.3261637931034475  C 18.28005 0.3261637931034475  23.388749999999998 5.390823275862068  23.388749999999998 11.602756465517242  Z M 21.94925 11.630738146551723  C 21.977525 6.174310344827587  17.48975 1.725247844827586  12.0141 1.7252478448275863  C 6.51025 1.725247844827586  2.0225 6.174310344827587  2.0225 11.630738146551723  C 2.0225 17.08716594827586  6.51025 21.50822198275862  11.985899999999999 21.50822198275862  C 17.46155 21.50822198275862  21.94925 17.05915948275862  21.94925 11.630738146551723  Z " fill-rule="nonzero" fill="rgba(230, 162, 60, 1)" stroke="none" transform="matrix(1 0 0 1 417 129 )" class="fill" />
    <path d="M 23.388749999999998 11.602756465517242  C 23.388749999999998 17.842646551724137  18.28005 22.907306034482758  12.0141 22.907306034482758  C 5.71995 22.907306034482758  0.6112499999999997 17.84264655172414  0.6112499999999997 11.630738146551723  C 0.6112499999999997 5.390823275862068  5.71995 0.3261637931034475  12.0141 0.3261637931034475  C 18.28005 0.3261637931034475  23.388749999999998 5.390823275862068  23.388749999999998 11.602756465517242  Z " stroke-width="0" stroke-dasharray="0" stroke="rgba(255, 255, 255, 0)" fill="none" transform="matrix(1 0 0 1 417 129 )" class="stroke" mask="url(#Clip1622)" />
    <path d="M 21.94925 11.630738146551723  C 21.977525 6.174310344827587  17.48975 1.725247844827586  12.0141 1.7252478448275863  C 6.51025 1.725247844827586  2.0225 6.174310344827587  2.0225 11.630738146551723  C 2.0225 17.08716594827586  6.51025 21.50822198275862  11.985899999999999 21.50822198275862  C 17.46155 21.50822198275862  21.94925 17.05915948275862  21.94925 11.630738146551723  Z " stroke-width="0" stroke-dasharray="0" stroke="rgba(255, 255, 255, 0)" fill="none" transform="matrix(1 0 0 1 417 129 )" class="stroke" mask="url(#Clip1622)" />
  </g>
</svg>