<?xml version="1.0" encoding="utf-8"?>
<svg version="1.1" xmlns:xlink="http://www.w3.org/1999/xlink" width="24px" height="24px" xmlns="http://www.w3.org/2000/svg">
  <defs>
    <pattern id="BGPattern" patternUnits="userSpaceOnUse" alignment="0 0" imageRepeat="None" />
    <mask fill="white" id="Clip1633">
      <path d="M 23.6124 16.834800008254454  L 23.6124 16.83600000825307  C 24.080059132593014 17.30446209887685  24.080059132593014 18.063137915675924  23.6124 18.5316000062997  L 18.522 23.62320000043408  C 18.34877812438821 23.796811129447896  18.126296981518596 23.912870030585164  17.8848 23.955600000051145  L 17.7444 23.972400000031794  L 17.601599999999998 23.972400000031794  C 17.308454026379458 23.955850344293275  17.03165631452449 23.83197482524163  16.823999999999998 23.624400000432697  L 14.28 21.0780000033662  C 14.038086729629207 20.85114858770126  13.900840515011357 20.534297332199202  13.900840515011357 20.202659585499827  C 13.900840515011357 19.539917886466363  14.438098815214406 19.002659586882245  15.100840515011356 19.002659586882245  C 15.4321831297048 19.002659586882245  15.748779528770827 19.139662426445856  15.9756 19.38120000532095  L 17.6724 21.076800003367584  L 21.915599999999998 16.834800008254454  C 22.384199821782975 16.36634168279469  23.143800178217024 16.36634168279469  23.6124 16.834800008254454  Z M 4.8010198866988985 6.599999941244469  C 4.8010198866988985 2.955318880719202  7.755318978791641 0.000563233972012301  11.399999999999999 0  C 15.045683467942208 0  18.000604119058977 2.9549206477126364  18.000604119058977 6.599999992396669  C 18.000604119058977 8.537096897333287  17.149620050814647 10.376395126823386  15.673200000000001 11.630400014250021  C 16.340400000000002 11.89800001394174  16.9812 12.231600013557426  17.5908 12.62640001310261  C 17.931831903573418 12.847725247049933  18.13764072585461 13.226644212366878  18.13764072585461 13.633200011942758  C 18.13764072585461 14.296074660194453  17.600274649015343 14.833440736414664  16.9374 14.833440736414664  C 16.70548540119663 14.833440736414664  16.478537323259868 14.766252182884177  16.284 14.640000010782899  C 14.828605356616054 13.699710821599707  13.132719621690438 13.199533323554087  11.399999987900083 13.199533323554087  C 6.429437239422942 13.199533323554087  2.3999999879000824 17.228970570434953  2.3999999879000824 22.19953331318591  C 2.4000000000000004 22.862741701107094  1.8627416997969521 23.40000000069121  1.2000000000000002 23.40000000069121  C 0.5372583002030479 23.40000000069121  0 22.862741701107094  0 22.200000002073633  C 0 17.415600007585358  2.9472 13.32000001230357  7.1256 11.62800001425279  C 5.650871014572692 10.374005279625104  4.8010198866988985 8.53580167952309  4.8010198866988985 6.599999941244469  Z M 11.399999911491618 2.400000024883625  C 9.080403962202285 2.400000024883625  7.199999911491618 4.28040407342803  7.199999911491618 6.60000002004514  C 7.199999911491618 8.919595966662254  9.080403962202285 10.800000015206656  11.399999911491618 10.800000015206656  C 13.719595949289332 10.800000015206656  15.600000000000001 8.919595966662252  15.600000000000001 6.600000020045139  C 15.600000000000001 4.280404073428029  13.719595949289332 2.400000024883624  11.399999999999999 2.400000024883624  Z " fill-rule="evenodd" />
    </mask>
  </defs>
  <g transform="matrix(1 0 0 1 -973 -129 )">
    <path d="M 23.6124 16.834800008254454  L 23.6124 16.83600000825307  C 24.080059132593014 17.30446209887685  24.080059132593014 18.063137915675924  23.6124 18.5316000062997  L 18.522 23.62320000043408  C 18.34877812438821 23.796811129447896  18.126296981518596 23.912870030585164  17.8848 23.955600000051145  L 17.7444 23.972400000031794  L 17.601599999999998 23.972400000031794  C 17.308454026379458 23.955850344293275  17.03165631452449 23.83197482524163  16.823999999999998 23.624400000432697  L 14.28 21.0780000033662  C 14.038086729629207 20.85114858770126  13.900840515011357 20.534297332199202  13.900840515011357 20.202659585499827  C 13.900840515011357 19.539917886466363  14.438098815214406 19.002659586882245  15.100840515011356 19.002659586882245  C 15.4321831297048 19.002659586882245  15.748779528770827 19.139662426445856  15.9756 19.38120000532095  L 17.6724 21.076800003367584  L 21.915599999999998 16.834800008254454  C 22.384199821782975 16.36634168279469  23.143800178217024 16.36634168279469  23.6124 16.834800008254454  Z M 4.8010198866988985 6.599999941244469  C 4.8010198866988985 2.955318880719202  7.755318978791641 0.000563233972012301  11.399999999999999 0  C 15.045683467942208 0  18.000604119058977 2.9549206477126364  18.000604119058977 6.599999992396669  C 18.000604119058977 8.537096897333287  17.149620050814647 10.376395126823386  15.673200000000001 11.630400014250021  C 16.340400000000002 11.89800001394174  16.9812 12.231600013557426  17.5908 12.62640001310261  C 17.931831903573418 12.847725247049933  18.13764072585461 13.226644212366878  18.13764072585461 13.633200011942758  C 18.13764072585461 14.296074660194453  17.600274649015343 14.833440736414664  16.9374 14.833440736414664  C 16.70548540119663 14.833440736414664  16.478537323259868 14.766252182884177  16.284 14.640000010782899  C 14.828605356616054 13.699710821599707  13.132719621690438 13.199533323554087  11.399999987900083 13.199533323554087  C 6.429437239422942 13.199533323554087  2.3999999879000824 17.228970570434953  2.3999999879000824 22.19953331318591  C 2.4000000000000004 22.862741701107094  1.8627416997969521 23.40000000069121  1.2000000000000002 23.40000000069121  C 0.5372583002030479 23.40000000069121  0 22.862741701107094  0 22.200000002073633  C 0 17.415600007585358  2.9472 13.32000001230357  7.1256 11.62800001425279  C 5.650871014572692 10.374005279625104  4.8010198866988985 8.53580167952309  4.8010198866988985 6.599999941244469  Z M 11.399999911491618 2.400000024883625  C 9.080403962202285 2.400000024883625  7.199999911491618 4.28040407342803  7.199999911491618 6.60000002004514  C 7.199999911491618 8.919595966662254  9.080403962202285 10.800000015206656  11.399999911491618 10.800000015206656  C 13.719595949289332 10.800000015206656  15.600000000000001 8.919595966662252  15.600000000000001 6.600000020045139  C 15.600000000000001 4.280404073428029  13.719595949289332 2.400000024883624  11.399999999999999 2.400000024883624  Z " fill-rule="nonzero" fill="rgba(54, 179, 126, 1)" stroke="none" transform="matrix(1 0 0 1 973 129 )" class="fill" />
    <path d="M 23.6124 16.834800008254454  L 23.6124 16.83600000825307  C 24.080059132593014 17.30446209887685  24.080059132593014 18.063137915675924  23.6124 18.5316000062997  L 18.522 23.62320000043408  C 18.34877812438821 23.796811129447896  18.126296981518596 23.912870030585164  17.8848 23.955600000051145  L 17.7444 23.972400000031794  L 17.601599999999998 23.972400000031794  C 17.308454026379458 23.955850344293275  17.03165631452449 23.83197482524163  16.823999999999998 23.624400000432697  L 14.28 21.0780000033662  C 14.038086729629207 20.85114858770126  13.900840515011357 20.534297332199202  13.900840515011357 20.202659585499827  C 13.900840515011357 19.539917886466363  14.438098815214406 19.002659586882245  15.100840515011356 19.002659586882245  C 15.4321831297048 19.002659586882245  15.748779528770827 19.139662426445856  15.9756 19.38120000532095  L 17.6724 21.076800003367584  L 21.915599999999998 16.834800008254454  C 22.384199821782975 16.36634168279469  23.143800178217024 16.36634168279469  23.6124 16.834800008254454  Z " stroke-width="0" stroke-dasharray="0" stroke="rgba(255, 255, 255, 0)" fill="none" transform="matrix(1 0 0 1 973 129 )" class="stroke" mask="url(#Clip1633)" />
    <path d="M 4.8010198866988985 6.599999941244469  C 4.8010198866988985 2.955318880719202  7.755318978791641 0.000563233972012301  11.399999999999999 0  C 15.045683467942208 0  18.000604119058977 2.9549206477126364  18.000604119058977 6.599999992396669  C 18.000604119058977 8.537096897333287  17.149620050814647 10.376395126823386  15.673200000000001 11.630400014250021  C 16.340400000000002 11.89800001394174  16.9812 12.231600013557426  17.5908 12.62640001310261  C 17.931831903573418 12.847725247049933  18.13764072585461 13.226644212366878  18.13764072585461 13.633200011942758  C 18.13764072585461 14.296074660194453  17.600274649015343 14.833440736414664  16.9374 14.833440736414664  C 16.70548540119663 14.833440736414664  16.478537323259868 14.766252182884177  16.284 14.640000010782899  C 14.828605356616054 13.699710821599707  13.132719621690438 13.199533323554087  11.399999987900083 13.199533323554087  C 6.429437239422942 13.199533323554087  2.3999999879000824 17.228970570434953  2.3999999879000824 22.19953331318591  C 2.4000000000000004 22.862741701107094  1.8627416997969521 23.40000000069121  1.2000000000000002 23.40000000069121  C 0.5372583002030479 23.40000000069121  0 22.862741701107094  0 22.200000002073633  C 0 17.415600007585358  2.9472 13.32000001230357  7.1256 11.62800001425279  C 5.650871014572692 10.374005279625104  4.8010198866988985 8.53580167952309  4.8010198866988985 6.599999941244469  Z " stroke-width="0" stroke-dasharray="0" stroke="rgba(255, 255, 255, 0)" fill="none" transform="matrix(1 0 0 1 973 129 )" class="stroke" mask="url(#Clip1633)" />
    <path d="M 11.399999911491618 2.400000024883625  C 9.080403962202285 2.400000024883625  7.199999911491618 4.28040407342803  7.199999911491618 6.60000002004514  C 7.199999911491618 8.919595966662254  9.080403962202285 10.800000015206656  11.399999911491618 10.800000015206656  C 13.719595949289332 10.800000015206656  15.600000000000001 8.919595966662252  15.600000000000001 6.600000020045139  C 15.600000000000001 4.280404073428029  13.719595949289332 2.400000024883624  11.399999999999999 2.400000024883624  Z " stroke-width="0" stroke-dasharray="0" stroke="rgba(255, 255, 255, 0)" fill="none" transform="matrix(1 0 0 1 973 129 )" class="stroke" mask="url(#Clip1633)" />
  </g>
</svg>