<?xml version="1.0" encoding="utf-8"?>
<svg version="1.1" xmlns:xlink="http://www.w3.org/1999/xlink" width="15px" height="12px" xmlns="http://www.w3.org/2000/svg">
  <defs>
    <pattern id="BGPattern" patternUnits="userSpaceOnUse" alignment="0 0" imageRepeat="None" />
    <mask fill="white" id="Clip1640">
      <path d="M 14.710400000000002 10.690304000000003  L 8.440266666666664 0.4648960000000003  C 8.2985410845714 0.23335279577795948  8.03970496847517 0.0911571968054119  7.75995658005128 0.0911571968054119  C 7.487426540882929 0.0911571968054119  7.234188604287137 0.22616440135515742  7.090133333333333 0.44825600000000065  L 0.4512000000000027 10.670976000000005  C 0.2974095420073179 10.907678413572636  0.2895474134638339 11.205859338612916  0.4306666666666666 11.449727999999999  C 0.5713864380358584 11.693882660899149  0.8392042834681801 11.845331507496942  1.1298666666666688 11.845120000000003  L 14.022800000000005 11.845120000000003  C 14.309157334319709 11.845337031018202  14.573606007164457 11.697999160242102  14.715466666666671 11.459200000000003  C 14.857862786694024 11.220657940789877  14.855928360182372 10.927097518334808  14.710400000000002 10.690304000000003  Z M 6.844266666666667 8.205184  L 6.844266666666667 3.422847999999999  L 8.4308 3.422847999999999  L 8.4308 8.205184  L 6.844266666666667 8.205184  Z M 8.494266666666666 9.240704000000001  L 8.494266666666666 10.763775999999998  L 6.749200000000002 10.763775999999998  L 6.749200000000002 9.240704000000001  L 8.494266666666666 9.240704000000001  Z " fill-rule="evenodd" />
    </mask>
  </defs>
  <g transform="matrix(1 0 0 1 -1538 -139 )">
    <path d="M 14.710400000000002 10.690304000000003  L 8.440266666666664 0.4648960000000003  C 8.2985410845714 0.23335279577795948  8.03970496847517 0.0911571968054119  7.75995658005128 0.0911571968054119  C 7.487426540882929 0.0911571968054119  7.234188604287137 0.22616440135515742  7.090133333333333 0.44825600000000065  L 0.4512000000000027 10.670976000000005  C 0.2974095420073179 10.907678413572636  0.2895474134638339 11.205859338612916  0.4306666666666666 11.449727999999999  C 0.5713864380358584 11.693882660899149  0.8392042834681801 11.845331507496942  1.1298666666666688 11.845120000000003  L 14.022800000000005 11.845120000000003  C 14.309157334319709 11.845337031018202  14.573606007164457 11.697999160242102  14.715466666666671 11.459200000000003  C 14.857862786694024 11.220657940789877  14.855928360182372 10.927097518334808  14.710400000000002 10.690304000000003  Z M 6.844266666666667 8.205184  L 6.844266666666667 3.422847999999999  L 8.4308 3.422847999999999  L 8.4308 8.205184  L 6.844266666666667 8.205184  Z M 8.494266666666666 9.240704000000001  L 8.494266666666666 10.763775999999998  L 6.749200000000002 10.763775999999998  L 6.749200000000002 9.240704000000001  L 8.494266666666666 9.240704000000001  Z " fill-rule="nonzero" fill="rgba(48, 49, 51, 1)" stroke="none" transform="matrix(1 0 0 1 1538 139 )" class="fill" />
    <path d="M 14.710400000000002 10.690304000000003  L 8.440266666666664 0.4648960000000003  C 8.2985410845714 0.23335279577795948  8.03970496847517 0.0911571968054119  7.75995658005128 0.0911571968054119  C 7.487426540882929 0.0911571968054119  7.234188604287137 0.22616440135515742  7.090133333333333 0.44825600000000065  L 0.4512000000000027 10.670976000000005  C 0.2974095420073179 10.907678413572636  0.2895474134638339 11.205859338612916  0.4306666666666666 11.449727999999999  C 0.5713864380358584 11.693882660899149  0.8392042834681801 11.845331507496942  1.1298666666666688 11.845120000000003  L 14.022800000000005 11.845120000000003  C 14.309157334319709 11.845337031018202  14.573606007164457 11.697999160242102  14.715466666666671 11.459200000000003  C 14.857862786694024 11.220657940789877  14.855928360182372 10.927097518334808  14.710400000000002 10.690304000000003  Z " stroke-width="0" stroke-dasharray="0" stroke="rgba(255, 255, 255, 0)" fill="none" transform="matrix(1 0 0 1 1538 139 )" class="stroke" mask="url(#Clip1640)" />
    <path d="M 6.844266666666667 8.205184  L 6.844266666666667 3.422847999999999  L 8.4308 3.422847999999999  L 8.4308 8.205184  L 6.844266666666667 8.205184  Z " stroke-width="0" stroke-dasharray="0" stroke="rgba(255, 255, 255, 0)" fill="none" transform="matrix(1 0 0 1 1538 139 )" class="stroke" mask="url(#Clip1640)" />
    <path d="M 8.494266666666666 9.240704000000001  L 8.494266666666666 10.763775999999998  L 6.749200000000002 10.763775999999998  L 6.749200000000002 9.240704000000001  L 8.494266666666666 9.240704000000001  Z " stroke-width="0" stroke-dasharray="0" stroke="rgba(255, 255, 255, 0)" fill="none" transform="matrix(1 0 0 1 1538 139 )" class="stroke" mask="url(#Clip1640)" />
  </g>
</svg>