<?xml version="1.0" encoding="utf-8"?>
<svg version="1.1" xmlns:xlink="http://www.w3.org/1999/xlink" width="8px" height="8px" xmlns="http://www.w3.org/2000/svg">
  <defs>
    <pattern id="BGPattern" patternUnits="userSpaceOnUse" alignment="0 0" imageRepeat="None" />
    <mask fill="white" id="Clip1426">
      <path d="M 3.878981824994446 7.601461018611317  C 3.881309093161066 7.601461018611317  3.8836363608288096 7.601458862406619  3.885963625000001 7.60145455  C 5.966358212140636 7.598885775575431  7.6514902084774805 5.911671772078293  7.6514902084774805 3.8312755990367036  C 7.6514902084774805 1.7490616729999744  5.963522309514209 0.061093774036703505  3.8813083834774815 0.061093774036703505  C 1.7990944574407521 0.061093774036703505  0.11112655847748129 1.7490616729999744  0.11112655847748129 3.8312755990367036  C 0.11112655847748129 3.832050399412327  0.11112679731833168 3.832825199771628  0.11112727499999835 3.8336000000000015  C 0.11112727499444616 5.914535076156885  1.7980532174488801 7.601461018611317  3.878981824994446 7.601461018611317  Z M 3.878980716829743 1.3666810076312672  C 3.881308356389771 1.3666810076312672  3.8836359947826806 1.3666843050908206  3.8859636249999996 1.366690899999999  C 5.246580127061639 1.3692580942278874  6.348218199996088 2.4729766850195816  6.348218199996088 3.833595608954076  C 6.348218199996088 5.196031884102882  5.243745375144897 6.300504708954075  3.881309099996089 6.300504708954075  C 2.518874539657065 6.300504708954075  1.414402425104646 5.196034560336864  1.4143999999999977 3.8335999999999997  C 1.4143992612198701 3.8328209444293178  1.4143988918297439 3.8320418885522427  1.4143988918297439 3.8312628326312677  C 1.4143988918297439 2.4701118759736205  2.5178297601720985 1.3666810076312672  3.878980716829743 1.3666810076312672  Z " fill-rule="evenodd" />
    </mask>
  </defs>
  <g transform="matrix(1 0 0 1 -54 -132 )">
    <path d="M 3.878981824994446 7.601461018611317  C 3.881309093161066 7.601461018611317  3.8836363608288096 7.601458862406619  3.885963625000001 7.60145455  C 5.966358212140636 7.598885775575431  7.6514902084774805 5.911671772078293  7.6514902084774805 3.8312755990367036  C 7.6514902084774805 1.7490616729999744  5.963522309514209 0.061093774036703505  3.8813083834774815 0.061093774036703505  C 1.7990944574407521 0.061093774036703505  0.11112655847748129 1.7490616729999744  0.11112655847748129 3.8312755990367036  C 0.11112655847748129 3.832050399412327  0.11112679731833168 3.832825199771628  0.11112727499999835 3.8336000000000015  C 0.11112727499444616 5.914535076156885  1.7980532174488801 7.601461018611317  3.878981824994446 7.601461018611317  Z M 3.878980716829743 1.3666810076312672  C 3.881308356389771 1.3666810076312672  3.8836359947826806 1.3666843050908206  3.8859636249999996 1.366690899999999  C 5.246580127061639 1.3692580942278874  6.348218199996088 2.4729766850195816  6.348218199996088 3.833595608954076  C 6.348218199996088 5.196031884102882  5.243745375144897 6.300504708954075  3.881309099996089 6.300504708954075  C 2.518874539657065 6.300504708954075  1.414402425104646 5.196034560336864  1.4143999999999977 3.8335999999999997  C 1.4143992612198701 3.8328209444293178  1.4143988918297439 3.8320418885522427  1.4143988918297439 3.8312628326312677  C 1.4143988918297439 2.4701118759736205  2.5178297601720985 1.3666810076312672  3.878980716829743 1.3666810076312672  Z " fill-rule="nonzero" fill="rgba(64, 158, 255, 1)" stroke="none" transform="matrix(1 0 0 1 54 132 )" class="fill" />
    <path d="M 3.878981824994446 7.601461018611317  C 3.881309093161066 7.601461018611317  3.8836363608288096 7.601458862406619  3.885963625000001 7.60145455  C 5.966358212140636 7.598885775575431  7.6514902084774805 5.911671772078293  7.6514902084774805 3.8312755990367036  C 7.6514902084774805 1.7490616729999744  5.963522309514209 0.061093774036703505  3.8813083834774815 0.061093774036703505  C 1.7990944574407521 0.061093774036703505  0.11112655847748129 1.7490616729999744  0.11112655847748129 3.8312755990367036  C 0.11112655847748129 3.832050399412327  0.11112679731833168 3.832825199771628  0.11112727499999835 3.8336000000000015  C 0.11112727499444616 5.914535076156885  1.7980532174488801 7.601461018611317  3.878981824994446 7.601461018611317  Z " stroke-width="0" stroke-dasharray="0" stroke="rgba(255, 255, 255, 0)" fill="none" transform="matrix(1 0 0 1 54 132 )" class="stroke" mask="url(#Clip1426)" />
    <path d="M 3.878980716829743 1.3666810076312672  C 3.881308356389771 1.3666810076312672  3.8836359947826806 1.3666843050908206  3.8859636249999996 1.366690899999999  C 5.246580127061639 1.3692580942278874  6.348218199996088 2.4729766850195816  6.348218199996088 3.833595608954076  C 6.348218199996088 5.196031884102882  5.243745375144897 6.300504708954075  3.881309099996089 6.300504708954075  C 2.518874539657065 6.300504708954075  1.414402425104646 5.196034560336864  1.4143999999999977 3.8335999999999997  C 1.4143992612198701 3.8328209444293178  1.4143988918297439 3.8320418885522427  1.4143988918297439 3.8312628326312677  C 1.4143988918297439 2.4701118759736205  2.5178297601720985 1.3666810076312672  3.878980716829743 1.3666810076312672  Z " stroke-width="0" stroke-dasharray="0" stroke="rgba(255, 255, 255, 0)" fill="none" transform="matrix(1 0 0 1 54 132 )" class="stroke" mask="url(#Clip1426)" />
  </g>
</svg>