<?xml version="1.0" encoding="utf-8"?>
<svg version="1.1" xmlns:xlink="http://www.w3.org/1999/xlink" width="22px" height="24px" xmlns="http://www.w3.org/2000/svg">
  <defs>
    <pattern id="BGPattern" patternUnits="userSpaceOnUse" alignment="0 0" imageRepeat="None" />
    <mask fill="white" id="Clip918">
      <path d="M 12.268666605301975 0.5035471698113209  L 12.268666605301975 0.5011320849056602  L 13.693777699591969 1.3584905660377353  C 15.337812028062746 2.344476945367249  17.18298572260566 2.9573742719521707  19.09599990379464 3.1529056698113207  L 20.904888793001174 3.3388679150943403  C 21.527496422955767 3.4031904057606743  22.000264501948674 3.9218914927961634  21.999999888975196 4.5403773679245285  L 21.999999888975196 12.786716971698112  C 22.000061355020726 16.605933852111285  19.722680717970604 20.066654636338388  16.189555483730732 21.61630188679245  L 10.999999945109462 23.89132075471698  L 5.810444406488196 21.61509433018868  C 2.277319181743066 20.065447083898853  -6.145347662455907E-05 16.60472631354608  0 12.78550944339623  L 0 4.537962254716983  C 0.0004265294811754603 3.919521991037758  0.4737063795268016 3.4013596094994996  1.0963333289823478 3.3376603867924537  L 2.905222218188879 3.151698113207547  C 4.817718460135118 2.956360744346222  6.662449961558386 2.343884079333236  8.306222190626954 1.358490566037736  L 9.731333284916946 0.5035471698113209  C 10.510888054443502 0.03590195050703926  11.489111835775423 0.03590195050703926  12.268666605301975 0.5035471698113209  Z M 11.01466661170128 13.250415084905656  C 9.811807825865435 13.25289285916115  8.660873936021844 12.766431315037908  7.831999961276131 11.905207556603774  C 7.650347128121569 11.750029217487093  7.418230340388161 11.664632905003531  7.178090984231225 11.664632905003531  C 6.887597572939738 11.664632905003531  6.611467949994078 11.789463419566989  6.421555533577959 12.006641518867927  L 6.240666636063557 12.23124529245283  C 5.76888438628076 12.863257941114316  5.51444973410681 13.62797696368142  5.51466663976842 14.413283009433961  L 5.51466663976842 15.733132075471698  C 5.51466663976842 16.483018867924528  6.1306666366249 17.091622641509435  6.889666632751636 17.091622641509435  L 15.139666590650933 17.091622641509435  C 15.899888818542268 17.091622641509435  16.514666583634153 16.483018867924528  16.514666583634153 15.733132075471698  L 16.514666583634153 14.413283009433961  C 16.514666583634153 13.547471688679245  16.20911102008927 12.732377349056602  15.678666587900356 12.09116980188679  L 15.62366658818103 12.029584896226416  L 15.56499992181374 11.97162263207547  C 15.362370214787697 11.78990580231914  15.098518213750111 11.68923847297658  14.824862819477215 11.68923847297658  C 14.51349157730065 11.68923847297658  14.216673655352219 11.819471802129309  14.00788882819736 12.047698103773584  L 13.940666596769567 12.121358490566035  C 13.890422268621496 12.177454181948896  13.837394226080846 12.231054555325045  13.781777699142898 12.281962273584906  C 12.999555698674467 12.909529676089882  12.022308143994815 13.251553581809139  11.01466661170128 13.250415084905656  Z M 14.314666594861002 7.762113198113205  C 14.314666594861002 5.961456504325262  12.837206276842274 4.50173583962264  11.014666611701285 4.50173583962264  C 9.192126946560295 4.50173583962264  7.714666628541567 5.961456504325262  7.714666628541567 7.762113198113207  L 7.714666628541567 8.903245273584904  C 7.714666628541567 10.703901967372849  9.192126946560295 12.163622632075473  11.014666611701285 12.163622632075473  C 12.837206276842275 12.163622632075473  14.314666594861002 10.70390196737285  14.314666594861002 8.903245273584904  L 14.314666594861002 7.762113198113205  Z " fill-rule="evenodd" />
    </mask>
  </defs>
  <g transform="matrix(1 0 0 1 -232 -129 )">
    <path d="M 12.268666605301975 0.5035471698113209  L 12.268666605301975 0.5011320849056602  L 13.693777699591969 1.3584905660377353  C 15.337812028062746 2.344476945367249  17.18298572260566 2.9573742719521707  19.09599990379464 3.1529056698113207  L 20.904888793001174 3.3388679150943403  C 21.527496422955767 3.4031904057606743  22.000264501948674 3.9218914927961634  21.999999888975196 4.5403773679245285  L 21.999999888975196 12.786716971698112  C 22.000061355020726 16.605933852111285  19.722680717970604 20.066654636338388  16.189555483730732 21.61630188679245  L 10.999999945109462 23.89132075471698  L 5.810444406488196 21.61509433018868  C 2.277319181743066 20.065447083898853  -6.145347662455907E-05 16.60472631354608  0 12.78550944339623  L 0 4.537962254716983  C 0.0004265294811754603 3.919521991037758  0.4737063795268016 3.4013596094994996  1.0963333289823478 3.3376603867924537  L 2.905222218188879 3.151698113207547  C 4.817718460135118 2.956360744346222  6.662449961558386 2.343884079333236  8.306222190626954 1.358490566037736  L 9.731333284916946 0.5035471698113209  C 10.510888054443502 0.03590195050703926  11.489111835775423 0.03590195050703926  12.268666605301975 0.5035471698113209  Z M 11.01466661170128 13.250415084905656  C 9.811807825865435 13.25289285916115  8.660873936021844 12.766431315037908  7.831999961276131 11.905207556603774  C 7.650347128121569 11.750029217487093  7.418230340388161 11.664632905003531  7.178090984231225 11.664632905003531  C 6.887597572939738 11.664632905003531  6.611467949994078 11.789463419566989  6.421555533577959 12.006641518867927  L 6.240666636063557 12.23124529245283  C 5.76888438628076 12.863257941114316  5.51444973410681 13.62797696368142  5.51466663976842 14.413283009433961  L 5.51466663976842 15.733132075471698  C 5.51466663976842 16.483018867924528  6.1306666366249 17.091622641509435  6.889666632751636 17.091622641509435  L 15.139666590650933 17.091622641509435  C 15.899888818542268 17.091622641509435  16.514666583634153 16.483018867924528  16.514666583634153 15.733132075471698  L 16.514666583634153 14.413283009433961  C 16.514666583634153 13.547471688679245  16.20911102008927 12.732377349056602  15.678666587900356 12.09116980188679  L 15.62366658818103 12.029584896226416  L 15.56499992181374 11.97162263207547  C 15.362370214787697 11.78990580231914  15.098518213750111 11.68923847297658  14.824862819477215 11.68923847297658  C 14.51349157730065 11.68923847297658  14.216673655352219 11.819471802129309  14.00788882819736 12.047698103773584  L 13.940666596769567 12.121358490566035  C 13.890422268621496 12.177454181948896  13.837394226080846 12.231054555325045  13.781777699142898 12.281962273584906  C 12.999555698674467 12.909529676089882  12.022308143994815 13.251553581809139  11.01466661170128 13.250415084905656  Z M 14.314666594861002 7.762113198113205  C 14.314666594861002 5.961456504325262  12.837206276842274 4.50173583962264  11.014666611701285 4.50173583962264  C 9.192126946560295 4.50173583962264  7.714666628541567 5.961456504325262  7.714666628541567 7.762113198113207  L 7.714666628541567 8.903245273584904  C 7.714666628541567 10.703901967372849  9.192126946560295 12.163622632075473  11.014666611701285 12.163622632075473  C 12.837206276842275 12.163622632075473  14.314666594861002 10.70390196737285  14.314666594861002 8.903245273584904  L 14.314666594861002 7.762113198113205  Z " fill-rule="nonzero" fill="rgba(103, 194, 58, 1)" stroke="none" transform="matrix(1 0 0 1 232 129 )" class="fill" />
    <path d="M 12.268666605301975 0.5035471698113209  L 12.268666605301975 0.5011320849056602  L 13.693777699591969 1.3584905660377353  C 15.337812028062746 2.344476945367249  17.18298572260566 2.9573742719521707  19.09599990379464 3.1529056698113207  L 20.904888793001174 3.3388679150943403  C 21.527496422955767 3.4031904057606743  22.000264501948674 3.9218914927961634  21.999999888975196 4.5403773679245285  L 21.999999888975196 12.786716971698112  C 22.000061355020726 16.605933852111285  19.722680717970604 20.066654636338388  16.189555483730732 21.61630188679245  L 10.999999945109462 23.89132075471698  L 5.810444406488196 21.61509433018868  C 2.277319181743066 20.065447083898853  -6.145347662455907E-05 16.60472631354608  0 12.78550944339623  L 0 4.537962254716983  C 0.0004265294811754603 3.919521991037758  0.4737063795268016 3.4013596094994996  1.0963333289823478 3.3376603867924537  L 2.905222218188879 3.151698113207547  C 4.817718460135118 2.956360744346222  6.662449961558386 2.343884079333236  8.306222190626954 1.358490566037736  L 9.731333284916946 0.5035471698113209  C 10.510888054443502 0.03590195050703926  11.489111835775423 0.03590195050703926  12.268666605301975 0.5035471698113209  Z " stroke-width="0" stroke-dasharray="0" stroke="rgba(255, 255, 255, 0)" fill="none" transform="matrix(1 0 0 1 232 129 )" class="stroke" mask="url(#Clip918)" />
    <path d="M 11.01466661170128 13.250415084905656  C 9.811807825865435 13.25289285916115  8.660873936021844 12.766431315037908  7.831999961276131 11.905207556603774  C 7.650347128121569 11.750029217487093  7.418230340388161 11.664632905003531  7.178090984231225 11.664632905003531  C 6.887597572939738 11.664632905003531  6.611467949994078 11.789463419566989  6.421555533577959 12.006641518867927  L 6.240666636063557 12.23124529245283  C 5.76888438628076 12.863257941114316  5.51444973410681 13.62797696368142  5.51466663976842 14.413283009433961  L 5.51466663976842 15.733132075471698  C 5.51466663976842 16.483018867924528  6.1306666366249 17.091622641509435  6.889666632751636 17.091622641509435  L 15.139666590650933 17.091622641509435  C 15.899888818542268 17.091622641509435  16.514666583634153 16.483018867924528  16.514666583634153 15.733132075471698  L 16.514666583634153 14.413283009433961  C 16.514666583634153 13.547471688679245  16.20911102008927 12.732377349056602  15.678666587900356 12.09116980188679  L 15.62366658818103 12.029584896226416  L 15.56499992181374 11.97162263207547  C 15.362370214787697 11.78990580231914  15.098518213750111 11.68923847297658  14.824862819477215 11.68923847297658  C 14.51349157730065 11.68923847297658  14.216673655352219 11.819471802129309  14.00788882819736 12.047698103773584  L 13.940666596769567 12.121358490566035  C 13.890422268621496 12.177454181948896  13.837394226080846 12.231054555325045  13.781777699142898 12.281962273584906  C 12.999555698674467 12.909529676089882  12.022308143994815 13.251553581809139  11.01466661170128 13.250415084905656  Z " stroke-width="0" stroke-dasharray="0" stroke="rgba(255, 255, 255, 0)" fill="none" transform="matrix(1 0 0 1 232 129 )" class="stroke" mask="url(#Clip918)" />
    <path d="M 14.314666594861002 7.762113198113205  C 14.314666594861002 5.961456504325262  12.837206276842274 4.50173583962264  11.014666611701285 4.50173583962264  C 9.192126946560295 4.50173583962264  7.714666628541567 5.961456504325262  7.714666628541567 7.762113198113207  L 7.714666628541567 8.903245273584904  C 7.714666628541567 10.703901967372849  9.192126946560295 12.163622632075473  11.014666611701285 12.163622632075473  C 12.837206276842275 12.163622632075473  14.314666594861002 10.70390196737285  14.314666594861002 8.903245273584904  L 14.314666594861002 7.762113198113205  Z " stroke-width="0" stroke-dasharray="0" stroke="rgba(255, 255, 255, 0)" fill="none" transform="matrix(1 0 0 1 232 129 )" class="stroke" mask="url(#Clip918)" />
  </g>
</svg>