<?xml version="1.0" encoding="utf-8"?>
<svg version="1.1" xmlns:xlink="http://www.w3.org/1999/xlink" width="8px" height="5px" xmlns="http://www.w3.org/2000/svg">
  <defs>
    <pattern id="BGPattern" patternUnits="userSpaceOnUse" alignment="0 0" imageRepeat="None" />
    <mask fill="white" id="Clip1434">
      <path d="M 2.6875500000000003 4.986197916666668  C 2.4335250000000004 4.986197916666668  2.1795 4.839218750000001  2.0665999999999998 4.5746093750000005  L 0.65535 1.6933072916666672  C 0.48599999999999993 1.3404947916666674  0.6271000000000001 0.8994791666666673  0.9658249999999995 0.6936718750000008  C 1.3045249999999995 0.5172656250000007  1.7278999999999995 0.6642708333333343  1.925475 1.0171093750000004  L 3.336725 3.898359375  C 3.506075 4.2511979166666665  3.3649500000000003 4.692213541666666  3.0262249999999993 4.898020833333334  C 2.8851249999999995 4.956822916666666  2.800449999999999 4.986223958333333  2.687549999999999 4.986223958333333  Z M 5.6793749999999985 4.986197916666668  C 5.566475 4.986197916666668  5.453574999999998 4.956822916666668  5.368899999999999 4.898020833333334  C 5.030199999999999 4.721614583333333  4.889075 4.280572916666667  5.058425 3.898385416666666  L 6.4696750000000005 1.017083333333333  C 6.639025000000001 0.6642708333333329  7.062425000000002 0.5172656249999993  7.429325 0.6936718749999993  C 7.768025 0.8700781249999985  7.9091499999999995 1.3111197916666661  7.739824999999999 1.6933072916666658  L 6.328574999999998 4.574609374999999  C 6.1591999999999985 4.839192708333333  5.933399999999997 4.986223958333332  5.6793749999999985 4.986223958333332  Z " fill-rule="evenodd" />
    </mask>
  </defs>
  <g transform="matrix(1 0 0 1 -425 -134 )">
    <path d="M 2.6875500000000003 4.986197916666668  C 2.4335250000000004 4.986197916666668  2.1795 4.839218750000001  2.0665999999999998 4.5746093750000005  L 0.65535 1.6933072916666672  C 0.48599999999999993 1.3404947916666674  0.6271000000000001 0.8994791666666673  0.9658249999999995 0.6936718750000008  C 1.3045249999999995 0.5172656250000007  1.7278999999999995 0.6642708333333343  1.925475 1.0171093750000004  L 3.336725 3.898359375  C 3.506075 4.2511979166666665  3.3649500000000003 4.692213541666666  3.0262249999999993 4.898020833333334  C 2.8851249999999995 4.956822916666666  2.800449999999999 4.986223958333333  2.687549999999999 4.986223958333333  Z M 5.6793749999999985 4.986197916666668  C 5.566475 4.986197916666668  5.453574999999998 4.956822916666668  5.368899999999999 4.898020833333334  C 5.030199999999999 4.721614583333333  4.889075 4.280572916666667  5.058425 3.898385416666666  L 6.4696750000000005 1.017083333333333  C 6.639025000000001 0.6642708333333329  7.062425000000002 0.5172656249999993  7.429325 0.6936718749999993  C 7.768025 0.8700781249999985  7.9091499999999995 1.3111197916666661  7.739824999999999 1.6933072916666658  L 6.328574999999998 4.574609374999999  C 6.1591999999999985 4.839192708333333  5.933399999999997 4.986223958333332  5.6793749999999985 4.986223958333332  Z " fill-rule="nonzero" fill="rgba(230, 162, 60, 1)" stroke="none" transform="matrix(1 0 0 1 425 134 )" class="fill" />
    <path d="M 2.6875500000000003 4.986197916666668  C 2.4335250000000004 4.986197916666668  2.1795 4.839218750000001  2.0665999999999998 4.5746093750000005  L 0.65535 1.6933072916666672  C 0.48599999999999993 1.3404947916666674  0.6271000000000001 0.8994791666666673  0.9658249999999995 0.6936718750000008  C 1.3045249999999995 0.5172656250000007  1.7278999999999995 0.6642708333333343  1.925475 1.0171093750000004  L 3.336725 3.898359375  C 3.506075 4.2511979166666665  3.3649500000000003 4.692213541666666  3.0262249999999993 4.898020833333334  C 2.8851249999999995 4.956822916666666  2.800449999999999 4.986223958333333  2.687549999999999 4.986223958333333  Z " stroke-width="0" stroke-dasharray="0" stroke="rgba(255, 255, 255, 0)" fill="none" transform="matrix(1 0 0 1 425 134 )" class="stroke" mask="url(#Clip1434)" />
    <path d="M 5.6793749999999985 4.986197916666668  C 5.566475 4.986197916666668  5.453574999999998 4.956822916666668  5.368899999999999 4.898020833333334  C 5.030199999999999 4.721614583333333  4.889075 4.280572916666667  5.058425 3.898385416666666  L 6.4696750000000005 1.017083333333333  C 6.639025000000001 0.6642708333333329  7.062425000000002 0.5172656249999993  7.429325 0.6936718749999993  C 7.768025 0.8700781249999985  7.9091499999999995 1.3111197916666661  7.739824999999999 1.6933072916666658  L 6.328574999999998 4.574609374999999  C 6.1591999999999985 4.839192708333333  5.933399999999997 4.986223958333332  5.6793749999999985 4.986223958333332  Z " stroke-width="0" stroke-dasharray="0" stroke="rgba(255, 255, 255, 0)" fill="none" transform="matrix(1 0 0 1 425 134 )" class="stroke" mask="url(#Clip1434)" />
  </g>
</svg>