<?xml version="1.0" encoding="utf-8"?>
<svg version="1.1" xmlns:xlink="http://www.w3.org/1999/xlink" width="2px" height="11px" xmlns="http://www.w3.org/2000/svg">
  <defs>
    <pattern id="BGPattern" patternUnits="userSpaceOnUse" alignment="0 0" imageRepeat="None" />
    <mask fill="white" id="Clip399">
      <path d="M 1.017624999999999 10.67859375  C 0.5237187499999987 10.67859375  0.13562499999999922 10.373687499999999  0.13562499999999922 9.985593749999998  L 0.13562499999999922 1.3643928571428567  C 0.13562499999999922 0.9762991071428572  0.5237187499999987 0.6713683035714276  1.017624999999999 0.6713683035714276  C 1.5115312499999973 0.6713683035714276  1.8996562499999996 0.9762991071428558  1.8996562499999996 1.3643928571428567  L 1.8996562499999996 9.985593749999998  C 1.8996562499999996 10.373687499999999  1.4762812499999995 10.678618303571428  1.017624999999999 10.678618303571428  Z " fill-rule="evenodd" />
    </mask>
  </defs>
  <g transform="matrix(1 0 0 1 -428 -137 )">
    <path d="M 1.017624999999999 10.67859375  C 0.5237187499999987 10.67859375  0.13562499999999922 10.373687499999999  0.13562499999999922 9.985593749999998  L 0.13562499999999922 1.3643928571428567  C 0.13562499999999922 0.9762991071428572  0.5237187499999987 0.6713683035714276  1.017624999999999 0.6713683035714276  C 1.5115312499999973 0.6713683035714276  1.8996562499999996 0.9762991071428558  1.8996562499999996 1.3643928571428567  L 1.8996562499999996 9.985593749999998  C 1.8996562499999996 10.373687499999999  1.4762812499999995 10.678618303571428  1.017624999999999 10.678618303571428  Z " fill-rule="nonzero" fill="rgba(230, 162, 60, 1)" stroke="none" transform="matrix(1 0 0 1 428 137 )" class="fill" />
    <path d="M 1.017624999999999 10.67859375  C 0.5237187499999987 10.67859375  0.13562499999999922 10.373687499999999  0.13562499999999922 9.985593749999998  L 0.13562499999999922 1.3643928571428567  C 0.13562499999999922 0.9762991071428572  0.5237187499999987 0.6713683035714276  1.017624999999999 0.6713683035714276  C 1.5115312499999973 0.6713683035714276  1.8996562499999996 0.9762991071428558  1.8996562499999996 1.3643928571428567  L 1.8996562499999996 9.985593749999998  C 1.8996562499999996 10.373687499999999  1.4762812499999995 10.678618303571428  1.017624999999999 10.678618303571428  Z " stroke-width="0" stroke-dasharray="0" stroke="rgba(255, 255, 255, 0)" fill="none" transform="matrix(1 0 0 1 428 137 )" class="stroke" mask="url(#Clip399)" />
  </g>
</svg>