<?xml version="1.0" encoding="utf-8"?>
<svg version="1.1" xmlns:xlink="http://www.w3.org/1999/xlink" width="18px" height="24px" xmlns="http://www.w3.org/2000/svg">
  <defs>
    <pattern id="BGPattern" patternUnits="userSpaceOnUse" alignment="0 0" imageRepeat="None" />
    <mask fill="white" id="Clip1232">
      <path d="M 2.288936178191489 0  L 11.348936162234041 0  C 12.481531898936169 0  13.406680843085105 0.8734999921875001  13.465148936170213 1.9727500078125  L 13.4680851143617 2.0833750078124997  L 13.4680851143617 4.5833749921875  C 13.4680851143617 5.8489999921875  12.424340417553191 6.874999992187499  11.137021276595744 6.874999992187499  L 2.3948936090425534 6.874999992187499  C 1.107702119680851 6.874999992187499  0.06382979521276572 5.8489999921875  0.06382979521276572 4.5833749921875  L 0.06382979521276572 2.1874999921875  C 0.06382979521276572 0.9793750078125001  1.060085106382979 0  2.288936178191489 0  Z M 11.137021276595744 4.5833749921875  L 11.137021276595744 2.291625  L 2.3948936090425534 2.291625  L 2.3948936090425534 4.5833749921875  L 11.137021276595744 4.5833749921875  Z M 10.914893617021278 11.5843750078125  C 10.914893617021278 10.571250000000001  10.075659582446809 9.75  9.040340417553193 9.75  L 4.654595752659574 9.75  C 3.5997446728723412 9.75  2.7446808590425533 10.5867499921875  2.7446808590425533 11.6188750078125  L 2.7446808590425533 12.925500000000001  C 2.7446808590425533 14.4162499921875  3.9797872420212763 15.625000007812499  5.50340425531915 15.625000007812499  L 8.120808502659575 15.625000007812499  C 9.66382977925532 15.625000007812499  10.914893617021278 14.4008749921875  10.914893617021278 12.8908750078125  L 10.914893617021278 11.5843750078125  Z M 5.079063829787236 12.925500000000001  L 5.079063829787234 12.0342499921875  L 8.580510646276595 12.0342499921875  L 8.580510646276595 12.8908750078125  C 8.580510646276597 13.139403162601809  8.374752148326493 13.34087502517795  8.12093617819149 13.34087502517795  L 5.50340425531915 13.340875007812501  L 5.445957446808513 13.3369999921875  C 5.235820924726632 13.308885771137163  5.079153090621504 13.13317049695578  5.079063829787236 12.925500000000001  Z M 12.595531906914893 16.891000007812497  C 12.199914885638297 16.442125007812496  12.218553191489361 15.764750015625  12.652085106382978 15.340000007812499  C 13.10642552393617 14.8952500078125  13.844170220744683 14.8965  14.299914901595745 15.34275  L 17.600936170212766 18.5749999921875  L 17.660297872340426 18.637500000000003  C 18.05591489361702 19.086250007812502  18.03727658776596 19.7637499921875  17.603617021276595 20.1883750078125  L 14.313574460106382 23.4100000078125  L 14.249872340425531 23.467875  C 13.79285107180851 23.853749999999998  13.100936170212766 23.8332499921875  12.665744688829786 23.407249992187502  L 12.606382986702126 23.3447500078125  C 12.210893617021277 22.896  12.229404271276596 22.218500015625004  12.663063837765957 21.793875  L 13.965702127659576 20.5176250078125  L 8.252170204787234 20.517750000000003  C 7.620800383566376 20.517739292292525  7.103918584449267 20.026081500320718  7.085617013297873 19.408125  L 7.085106382978724 19.375000007812496  C 7.085106382978724 18.743876590820587  7.607618653923151 18.2322499921875  8.252170204787234 18.2322499921875  L 13.961234034574467 18.232249992187498  L 12.654893609042553 16.953499992187496  L 12.595531906914893 16.891000007812497  Z " fill-rule="evenodd" />
    </mask>
  </defs>
  <g transform="matrix(1 0 0 1 -608 -128 )">
    <path d="M 2.288936178191489 0  L 11.348936162234041 0  C 12.481531898936169 0  13.406680843085105 0.8734999921875001  13.465148936170213 1.9727500078125  L 13.4680851143617 2.0833750078124997  L 13.4680851143617 4.5833749921875  C 13.4680851143617 5.8489999921875  12.424340417553191 6.874999992187499  11.137021276595744 6.874999992187499  L 2.3948936090425534 6.874999992187499  C 1.107702119680851 6.874999992187499  0.06382979521276572 5.8489999921875  0.06382979521276572 4.5833749921875  L 0.06382979521276572 2.1874999921875  C 0.06382979521276572 0.9793750078125001  1.060085106382979 0  2.288936178191489 0  Z M 11.137021276595744 4.5833749921875  L 11.137021276595744 2.291625  L 2.3948936090425534 2.291625  L 2.3948936090425534 4.5833749921875  L 11.137021276595744 4.5833749921875  Z M 10.914893617021278 11.5843750078125  C 10.914893617021278 10.571250000000001  10.075659582446809 9.75  9.040340417553193 9.75  L 4.654595752659574 9.75  C 3.5997446728723412 9.75  2.7446808590425533 10.5867499921875  2.7446808590425533 11.6188750078125  L 2.7446808590425533 12.925500000000001  C 2.7446808590425533 14.4162499921875  3.9797872420212763 15.625000007812499  5.50340425531915 15.625000007812499  L 8.120808502659575 15.625000007812499  C 9.66382977925532 15.625000007812499  10.914893617021278 14.4008749921875  10.914893617021278 12.8908750078125  L 10.914893617021278 11.5843750078125  Z M 5.079063829787236 12.925500000000001  L 5.079063829787234 12.0342499921875  L 8.580510646276595 12.0342499921875  L 8.580510646276595 12.8908750078125  C 8.580510646276597 13.139403162601809  8.374752148326493 13.34087502517795  8.12093617819149 13.34087502517795  L 5.50340425531915 13.340875007812501  L 5.445957446808513 13.3369999921875  C 5.235820924726632 13.308885771137163  5.079153090621504 13.13317049695578  5.079063829787236 12.925500000000001  Z M 12.595531906914893 16.891000007812497  C 12.199914885638297 16.442125007812496  12.218553191489361 15.764750015625  12.652085106382978 15.340000007812499  C 13.10642552393617 14.8952500078125  13.844170220744683 14.8965  14.299914901595745 15.34275  L 17.600936170212766 18.5749999921875  L 17.660297872340426 18.637500000000003  C 18.05591489361702 19.086250007812502  18.03727658776596 19.7637499921875  17.603617021276595 20.1883750078125  L 14.313574460106382 23.4100000078125  L 14.249872340425531 23.467875  C 13.79285107180851 23.853749999999998  13.100936170212766 23.8332499921875  12.665744688829786 23.407249992187502  L 12.606382986702126 23.3447500078125  C 12.210893617021277 22.896  12.229404271276596 22.218500015625004  12.663063837765957 21.793875  L 13.965702127659576 20.5176250078125  L 8.252170204787234 20.517750000000003  C 7.620800383566376 20.517739292292525  7.103918584449267 20.026081500320718  7.085617013297873 19.408125  L 7.085106382978724 19.375000007812496  C 7.085106382978724 18.743876590820587  7.607618653923151 18.2322499921875  8.252170204787234 18.2322499921875  L 13.961234034574467 18.232249992187498  L 12.654893609042553 16.953499992187496  L 12.595531906914893 16.891000007812497  Z " fill-rule="nonzero" fill="rgba(245, 108, 108, 1)" stroke="none" transform="matrix(1 0 0 1 608 128 )" class="fill" />
    <path d="M 2.288936178191489 0  L 11.348936162234041 0  C 12.481531898936169 0  13.406680843085105 0.8734999921875001  13.465148936170213 1.9727500078125  L 13.4680851143617 2.0833750078124997  L 13.4680851143617 4.5833749921875  C 13.4680851143617 5.8489999921875  12.424340417553191 6.874999992187499  11.137021276595744 6.874999992187499  L 2.3948936090425534 6.874999992187499  C 1.107702119680851 6.874999992187499  0.06382979521276572 5.8489999921875  0.06382979521276572 4.5833749921875  L 0.06382979521276572 2.1874999921875  C 0.06382979521276572 0.9793750078125001  1.060085106382979 0  2.288936178191489 0  Z " stroke-width="0" stroke-dasharray="0" stroke="rgba(255, 255, 255, 0)" fill="none" transform="matrix(1 0 0 1 608 128 )" class="stroke" mask="url(#Clip1232)" />
    <path d="M 11.137021276595744 4.5833749921875  L 11.137021276595744 2.291625  L 2.3948936090425534 2.291625  L 2.3948936090425534 4.5833749921875  L 11.137021276595744 4.5833749921875  Z " stroke-width="0" stroke-dasharray="0" stroke="rgba(255, 255, 255, 0)" fill="none" transform="matrix(1 0 0 1 608 128 )" class="stroke" mask="url(#Clip1232)" />
    <path d="M 10.914893617021278 11.5843750078125  C 10.914893617021278 10.571250000000001  10.075659582446809 9.75  9.040340417553193 9.75  L 4.654595752659574 9.75  C 3.5997446728723412 9.75  2.7446808590425533 10.5867499921875  2.7446808590425533 11.6188750078125  L 2.7446808590425533 12.925500000000001  C 2.7446808590425533 14.4162499921875  3.9797872420212763 15.625000007812499  5.50340425531915 15.625000007812499  L 8.120808502659575 15.625000007812499  C 9.66382977925532 15.625000007812499  10.914893617021278 14.4008749921875  10.914893617021278 12.8908750078125  L 10.914893617021278 11.5843750078125  Z " stroke-width="0" stroke-dasharray="0" stroke="rgba(255, 255, 255, 0)" fill="none" transform="matrix(1 0 0 1 608 128 )" class="stroke" mask="url(#Clip1232)" />
    <path d="M 5.079063829787236 12.925500000000001  L 5.079063829787234 12.0342499921875  L 8.580510646276595 12.0342499921875  L 8.580510646276595 12.8908750078125  C 8.580510646276597 13.139403162601809  8.374752148326493 13.34087502517795  8.12093617819149 13.34087502517795  L 5.50340425531915 13.340875007812501  L 5.445957446808513 13.3369999921875  C 5.235820924726632 13.308885771137163  5.079153090621504 13.13317049695578  5.079063829787236 12.925500000000001  Z " stroke-width="0" stroke-dasharray="0" stroke="rgba(255, 255, 255, 0)" fill="none" transform="matrix(1 0 0 1 608 128 )" class="stroke" mask="url(#Clip1232)" />
    <path d="M 12.595531906914893 16.891000007812497  C 12.199914885638297 16.442125007812496  12.218553191489361 15.764750015625  12.652085106382978 15.340000007812499  C 13.10642552393617 14.8952500078125  13.844170220744683 14.8965  14.299914901595745 15.34275  L 17.600936170212766 18.5749999921875  L 17.660297872340426 18.637500000000003  C 18.05591489361702 19.086250007812502  18.03727658776596 19.7637499921875  17.603617021276595 20.1883750078125  L 14.313574460106382 23.4100000078125  L 14.249872340425531 23.467875  C 13.79285107180851 23.853749999999998  13.100936170212766 23.8332499921875  12.665744688829786 23.407249992187502  L 12.606382986702126 23.3447500078125  C 12.210893617021277 22.896  12.229404271276596 22.218500015625004  12.663063837765957 21.793875  L 13.965702127659576 20.5176250078125  L 8.252170204787234 20.517750000000003  C 7.620800383566376 20.517739292292525  7.103918584449267 20.026081500320718  7.085617013297873 19.408125  L 7.085106382978724 19.375000007812496  C 7.085106382978724 18.743876590820587  7.607618653923151 18.2322499921875  8.252170204787234 18.2322499921875  L 13.961234034574467 18.232249992187498  L 12.654893609042553 16.953499992187496  L 12.595531906914893 16.891000007812497  Z " stroke-width="0" stroke-dasharray="0" stroke="rgba(255, 255, 255, 0)" fill="none" transform="matrix(1 0 0 1 608 128 )" class="stroke" mask="url(#Clip1232)" />
  </g>
</svg>