<?xml version="1.0" encoding="utf-8"?>
<svg version="1.1" xmlns:xlink="http://www.w3.org/1999/xlink" width="23px" height="20px" xmlns="http://www.w3.org/2000/svg">
  <defs>
    <pattern id="BGPattern" patternUnits="userSpaceOnUse" alignment="0 0" imageRepeat="None" />
    <mask fill="white" id="Clip403">
      <path d="M 2.4483870967741934 0.12820512019230793  L 20.551612903225806 0.12820512019230793  C 21.80140322580645 0.12820512019230793  22.81451612903226 1.1748717788461542  22.81451612903226 2.466025649038462  L 22.81451612903226 9.4755128125  C 22.81451612903226 10.123385307493816  22.30794798710694 10.648589735576925  21.683064516129033 10.648589735576925  C 21.058181045151127 10.648589735576925  20.551612903225806 10.123385307493816  20.551612903225806 9.4755128125  L 20.551612903225806 2.466025649038461  L 2.4483870967741934 2.466025649038461  L 2.4483870967741934 17.662179495192305  L 9.80677957762097 17.66217949519231  C 10.424837688040482 17.668890295435713  10.92246704142838 18.19025857458366  10.92246704142838 18.831089747596153  C 10.92246704142838 19.471920920608646  10.424837688040482 19.993289199756592  9.806779577620969 19.999999999999996  L 2.4483870967741934 19.999999999999996  C 1.1985967741935484 20  0.18548387096774194 18.953333341346156  0.18548387096774194 17.66217949519231  L 0.18548387096774194 2.466025649038461  C 0.18548387096774194 1.1749999999999998  1.1985967741935484 0.12820512019230793  2.4483870967741934 0.12820512019230793  Z " fill-rule="evenodd" />
    </mask>
  </defs>
  <g transform="matrix(1 0 0 1 -603 -133 )">
    <path d="M 2.4483870967741934 0.12820512019230793  L 20.551612903225806 0.12820512019230793  C 21.80140322580645 0.12820512019230793  22.81451612903226 1.1748717788461542  22.81451612903226 2.466025649038462  L 22.81451612903226 9.4755128125  C 22.81451612903226 10.123385307493816  22.30794798710694 10.648589735576925  21.683064516129033 10.648589735576925  C 21.058181045151127 10.648589735576925  20.551612903225806 10.123385307493816  20.551612903225806 9.4755128125  L 20.551612903225806 2.466025649038461  L 2.4483870967741934 2.466025649038461  L 2.4483870967741934 17.662179495192305  L 9.80677957762097 17.66217949519231  C 10.424837688040482 17.668890295435713  10.92246704142838 18.19025857458366  10.92246704142838 18.831089747596153  C 10.92246704142838 19.471920920608646  10.424837688040482 19.993289199756592  9.806779577620969 19.999999999999996  L 2.4483870967741934 19.999999999999996  C 1.1985967741935484 20  0.18548387096774194 18.953333341346156  0.18548387096774194 17.66217949519231  L 0.18548387096774194 2.466025649038461  C 0.18548387096774194 1.1749999999999998  1.1985967741935484 0.12820512019230793  2.4483870967741934 0.12820512019230793  Z " fill-rule="nonzero" fill="rgba(245, 108, 108, 1)" stroke="none" transform="matrix(1 0 0 1 603 133 )" class="fill" />
    <path d="M 2.4483870967741934 0.12820512019230793  L 20.551612903225806 0.12820512019230793  C 21.80140322580645 0.12820512019230793  22.81451612903226 1.1748717788461542  22.81451612903226 2.466025649038462  L 22.81451612903226 9.4755128125  C 22.81451612903226 10.123385307493816  22.30794798710694 10.648589735576925  21.683064516129033 10.648589735576925  C 21.058181045151127 10.648589735576925  20.551612903225806 10.123385307493816  20.551612903225806 9.4755128125  L 20.551612903225806 2.466025649038461  L 2.4483870967741934 2.466025649038461  L 2.4483870967741934 17.662179495192305  L 9.80677957762097 17.66217949519231  C 10.424837688040482 17.668890295435713  10.92246704142838 18.19025857458366  10.92246704142838 18.831089747596153  C 10.92246704142838 19.471920920608646  10.424837688040482 19.993289199756592  9.806779577620969 19.999999999999996  L 2.4483870967741934 19.999999999999996  C 1.1985967741935484 20  0.18548387096774194 18.953333341346156  0.18548387096774194 17.66217949519231  L 0.18548387096774194 2.466025649038461  C 0.18548387096774194 1.1749999999999998  1.1985967741935484 0.12820512019230793  2.4483870967741934 0.12820512019230793  Z " stroke-width="0" stroke-dasharray="0" stroke="rgba(255, 255, 255, 0)" fill="none" transform="matrix(1 0 0 1 603 133 )" class="stroke" mask="url(#Clip403)" />
  </g>
</svg>