<svg t="1750995975282" class="icon" viewBox="0 0 1024 1024" version="1.1" xmlns="http://www.w3.org/2000/svg" p-id="14102" width="24" height="24"><path d="M290.585191 124.524085H235.231489c-60.888765 0-110.707404 49.818639-110.707404 110.707404v608.890724c0 60.888765 49.818639 110.707404 110.707404 110.707405h553.537022c60.888765 0 110.707404-49.818639 110.707404-110.707405V235.231489c0-60.888765-49.818639-110.707404-110.707404-110.707404h-49.818639v55.353702h49.818639c33.212426 0 55.353702 22.141276 55.353702 55.353702v608.890724c0 27.676339-22.141276 55.353702-55.353702 55.353702H235.231489c-33.212426 0-55.353702-22.141276-55.353702-55.353702V235.231489c0-27.676339 22.141276-55.353702 55.353702-55.353702h55.353702v-55.353702z m110.707405 55.353702h221.414808v-55.353702H401.292596v55.353702z m-55.353703-55.353702c0-33.212426 27.676339-55.353702 55.353703-55.353703h221.414808c27.677363 0 55.353702 22.141276 55.353703 55.353703v55.353702c0 33.212426-27.676339 55.353702-55.353703 55.353702H401.292596c-27.676339 0-55.353702-22.141276-55.353703-55.353702v-55.353702z m252.256235 445.821765c23.64656-22.672372 38.370913-54.577013 38.370912-89.923033 0-68.795852-55.770188-124.56604-124.56604-124.56604s-124.56604 55.770188-124.56604 124.56604c0 35.346019 14.724353 67.25066 38.370912 89.923033-61.243853 31.364335-103.160521 95.110171-103.160521 168.644954h55.353702c0-74.007551 59.994396-134.001947 134.001947-134.001946s134.001947 59.994396 134.001947 134.001946h55.353702c0-73.534783-41.916668-137.28062-103.160521-168.644954z m-155.407466-89.923033c0-38.22458 30.987758-69.212338 69.212338-69.212338s69.212338 30.987758 69.212338 69.212338-30.987758 69.212338-69.212338 69.212338-69.212338-30.987758-69.212338-69.212338z" p-id="14103" fill="#1296db"></path></svg>