<?xml version="1.0" encoding="utf-8"?>
<svg version="1.1" xmlns:xlink="http://www.w3.org/1999/xlink" width="24px" height="24px" xmlns="http://www.w3.org/2000/svg">
  <defs>
    <pattern id="BGPattern" patternUnits="userSpaceOnUse" alignment="0 0" imageRepeat="None" />
    <mask fill="white" id="Clip929">
      <path d="M 19.571999999999996 16.451999999999998  C 19.56 16.247999999999998  19.488 16.008  19.404 15.912  C 18.156 14.496000000000002  16.584000000000003 13.368000000000002  14.723999999999998 12.732  C 17.904 10.751999999999999  18.875999999999998 6.563999999999999  16.896 3.383999999999999  C 16.884 3.359999999999999  16.872 3.335999999999999  16.848 3.311999999999999  C 14.796000000000001 0.10799999999999998  10.56 -0.8400000000000001  7.343999999999999 1.1880000000000002  C 4.151999999999999 3.18  3.192 7.368  5.184 10.56  C 5.736 11.436  6.468 12.180000000000001  7.343999999999999 12.72  C 2.964 14.244  0.024 18.36  0 22.991999999999997  C 0 23.52  0.43199999999999994 23.951999999999998  0.96 23.951999999999998  C 1.488 23.951999999999998  1.92 23.52  1.92 22.991999999999997  C 1.92 17.951999999999998  6 13.872  11.040000000000001 13.872  C 13.752000000000002 13.872  16.200000000000003 15.059999999999999  17.868 16.955999999999996  C 18.035999999999998 17.208  18.323999999999998 17.375999999999998  18.647999999999996 17.375999999999998  C 19.163999999999998 17.375999999999998  19.571999999999996 16.955999999999996  19.571999999999996 16.451999999999998  Z M 15.995999999999999 6.876000000000001  C 16.031999999999996 9.624  13.836 11.868000000000002  11.076 11.904  L 11.028 11.904  C 8.292000000000002 11.916  6.072 9.707999999999998  6.048 6.984000000000001  C 6.024 4.236000000000001  8.22 1.980000000000001  10.968 1.956000000000001  C 13.716000000000001 1.932000000000001  15.972 4.128000000000001  15.995999999999999 6.876000000000001  Z M 23.748 21.323999999999998  C 24.107999999999997 20.928  24.072000000000003 20.339999999999996  23.676000000000002 19.968  L 21.084000000000003 17.688  L 21.012 17.628  L 21.000000000000004 17.616000000000003  C 20.592000000000002 17.328000000000003  20.040000000000003 17.388000000000005  19.704 17.748  C 19.524 17.94  19.44 18.192  19.452 18.456  C 19.464000000000002 18.72  19.572000000000003 18.96  19.776000000000003 19.14  L 20.46 19.716  L 15.3 19.716  L 15.192000000000004 19.727999999999998  C 14.700000000000003 19.787999999999997  14.328000000000003 20.208  14.328000000000003 20.7  C 14.328000000000003 20.964  14.424000000000003 21.204  14.616000000000003 21.396  C 14.796000000000001 21.575999999999997  15.048000000000002 21.683999999999997  15.312000000000003 21.683999999999997  L 20.460000000000004 21.683999999999997  L 19.788000000000004 22.236  L 19.692000000000004 22.332  C 19.368000000000002 22.716  19.380000000000003 23.268  19.716 23.64  C 19.908 23.843999999999998  20.172000000000004 23.951999999999998  20.436000000000003 23.951999999999998  C 20.676000000000002 23.951999999999998  20.916000000000004 23.868000000000002  21.096000000000004 23.688  L 23.664 21.419999999999998  L 23.748 21.323999999999998  Z " fill-rule="evenodd" />
    </mask>
  </defs>
  <g transform="matrix(1 0 0 1 -788 -129 )">
    <path d="M 19.571999999999996 16.451999999999998  C 19.56 16.247999999999998  19.488 16.008  19.404 15.912  C 18.156 14.496000000000002  16.584000000000003 13.368000000000002  14.723999999999998 12.732  C 17.904 10.751999999999999  18.875999999999998 6.563999999999999  16.896 3.383999999999999  C 16.884 3.359999999999999  16.872 3.335999999999999  16.848 3.311999999999999  C 14.796000000000001 0.10799999999999998  10.56 -0.8400000000000001  7.343999999999999 1.1880000000000002  C 4.151999999999999 3.18  3.192 7.368  5.184 10.56  C 5.736 11.436  6.468 12.180000000000001  7.343999999999999 12.72  C 2.964 14.244  0.024 18.36  0 22.991999999999997  C 0 23.52  0.43199999999999994 23.951999999999998  0.96 23.951999999999998  C 1.488 23.951999999999998  1.92 23.52  1.92 22.991999999999997  C 1.92 17.951999999999998  6 13.872  11.040000000000001 13.872  C 13.752000000000002 13.872  16.200000000000003 15.059999999999999  17.868 16.955999999999996  C 18.035999999999998 17.208  18.323999999999998 17.375999999999998  18.647999999999996 17.375999999999998  C 19.163999999999998 17.375999999999998  19.571999999999996 16.955999999999996  19.571999999999996 16.451999999999998  Z M 15.995999999999999 6.876000000000001  C 16.031999999999996 9.624  13.836 11.868000000000002  11.076 11.904  L 11.028 11.904  C 8.292000000000002 11.916  6.072 9.707999999999998  6.048 6.984000000000001  C 6.024 4.236000000000001  8.22 1.980000000000001  10.968 1.956000000000001  C 13.716000000000001 1.932000000000001  15.972 4.128000000000001  15.995999999999999 6.876000000000001  Z M 23.748 21.323999999999998  C 24.107999999999997 20.928  24.072000000000003 20.339999999999996  23.676000000000002 19.968  L 21.084000000000003 17.688  L 21.012 17.628  L 21.000000000000004 17.616000000000003  C 20.592000000000002 17.328000000000003  20.040000000000003 17.388000000000005  19.704 17.748  C 19.524 17.94  19.44 18.192  19.452 18.456  C 19.464000000000002 18.72  19.572000000000003 18.96  19.776000000000003 19.14  L 20.46 19.716  L 15.3 19.716  L 15.192000000000004 19.727999999999998  C 14.700000000000003 19.787999999999997  14.328000000000003 20.208  14.328000000000003 20.7  C 14.328000000000003 20.964  14.424000000000003 21.204  14.616000000000003 21.396  C 14.796000000000001 21.575999999999997  15.048000000000002 21.683999999999997  15.312000000000003 21.683999999999997  L 20.460000000000004 21.683999999999997  L 19.788000000000004 22.236  L 19.692000000000004 22.332  C 19.368000000000002 22.716  19.380000000000003 23.268  19.716 23.64  C 19.908 23.843999999999998  20.172000000000004 23.951999999999998  20.436000000000003 23.951999999999998  C 20.676000000000002 23.951999999999998  20.916000000000004 23.868000000000002  21.096000000000004 23.688  L 23.664 21.419999999999998  L 23.748 21.323999999999998  Z " fill-rule="nonzero" fill="rgba(144, 147, 153, 1)" stroke="none" transform="matrix(1 0 0 1 788 129 )" class="fill" />
    <path d="M 19.571999999999996 16.451999999999998  C 19.56 16.247999999999998  19.488 16.008  19.404 15.912  C 18.156 14.496000000000002  16.584000000000003 13.368000000000002  14.723999999999998 12.732  C 17.904 10.751999999999999  18.875999999999998 6.563999999999999  16.896 3.383999999999999  C 16.884 3.359999999999999  16.872 3.335999999999999  16.848 3.311999999999999  C 14.796000000000001 0.10799999999999998  10.56 -0.8400000000000001  7.343999999999999 1.1880000000000002  C 4.151999999999999 3.18  3.192 7.368  5.184 10.56  C 5.736 11.436  6.468 12.180000000000001  7.343999999999999 12.72  C 2.964 14.244  0.024 18.36  0 22.991999999999997  C 0 23.52  0.43199999999999994 23.951999999999998  0.96 23.951999999999998  C 1.488 23.951999999999998  1.92 23.52  1.92 22.991999999999997  C 1.92 17.951999999999998  6 13.872  11.040000000000001 13.872  C 13.752000000000002 13.872  16.200000000000003 15.059999999999999  17.868 16.955999999999996  C 18.035999999999998 17.208  18.323999999999998 17.375999999999998  18.647999999999996 17.375999999999998  C 19.163999999999998 17.375999999999998  19.571999999999996 16.955999999999996  19.571999999999996 16.451999999999998  Z " stroke-width="0" stroke-dasharray="0" stroke="rgba(255, 255, 255, 0)" fill="none" transform="matrix(1 0 0 1 788 129 )" class="stroke" mask="url(#Clip929)" />
    <path d="M 15.995999999999999 6.876000000000001  C 16.031999999999996 9.624  13.836 11.868000000000002  11.076 11.904  L 11.028 11.904  C 8.292000000000002 11.916  6.072 9.707999999999998  6.048 6.984000000000001  C 6.024 4.236000000000001  8.22 1.980000000000001  10.968 1.956000000000001  C 13.716000000000001 1.932000000000001  15.972 4.128000000000001  15.995999999999999 6.876000000000001  Z " stroke-width="0" stroke-dasharray="0" stroke="rgba(255, 255, 255, 0)" fill="none" transform="matrix(1 0 0 1 788 129 )" class="stroke" mask="url(#Clip929)" />
    <path d="M 23.748 21.323999999999998  C 24.107999999999997 20.928  24.072000000000003 20.339999999999996  23.676000000000002 19.968  L 21.084000000000003 17.688  L 21.012 17.628  L 21.000000000000004 17.616000000000003  C 20.592000000000002 17.328000000000003  20.040000000000003 17.388000000000005  19.704 17.748  C 19.524 17.94  19.44 18.192  19.452 18.456  C 19.464000000000002 18.72  19.572000000000003 18.96  19.776000000000003 19.14  L 20.46 19.716  L 15.3 19.716  L 15.192000000000004 19.727999999999998  C 14.700000000000003 19.787999999999997  14.328000000000003 20.208  14.328000000000003 20.7  C 14.328000000000003 20.964  14.424000000000003 21.204  14.616000000000003 21.396  C 14.796000000000001 21.575999999999997  15.048000000000002 21.683999999999997  15.312000000000003 21.683999999999997  L 20.460000000000004 21.683999999999997  L 19.788000000000004 22.236  L 19.692000000000004 22.332  C 19.368000000000002 22.716  19.380000000000003 23.268  19.716 23.64  C 19.908 23.843999999999998  20.172000000000004 23.951999999999998  20.436000000000003 23.951999999999998  C 20.676000000000002 23.951999999999998  20.916000000000004 23.868000000000002  21.096000000000004 23.688  L 23.664 21.419999999999998  L 23.748 21.323999999999998  Z " stroke-width="0" stroke-dasharray="0" stroke="rgba(255, 255, 255, 0)" fill="none" transform="matrix(1 0 0 1 788 129 )" class="stroke" mask="url(#Clip929)" />
  </g>
</svg>