<?xml version="1.0" encoding="utf-8"?>
<svg version="1.1" xmlns:xlink="http://www.w3.org/1999/xlink" width="7px" height="7px" xmlns="http://www.w3.org/2000/svg">
  <defs>
    <pattern id="BGPattern" patternUnits="userSpaceOnUse" alignment="0 0" imageRepeat="None" />
    <mask fill="white" id="Clip1448">
      <path d="M 0.012195555555555317 2.5667911111111126  L 0.012195555555555317 0.16837333333333387  L 6.847431111111112 0.16837333333333387  L 6.847431111111112 2.5667911111111126  L 0.012195555555555317 2.5667911111111126  Z M 0.021777777777778146 6.895715555555558  L 0.021777777777778146 4.497422222222223  L 6.857386666666667 4.497422222222223  L 6.857386666666667 6.895715555555558  L 0.021777777777778146 6.895715555555558  Z " fill-rule="evenodd" />
    </mask>
  </defs>
  <g transform="matrix(1 0 0 1 -1534 -136 )">
    <path d="M 0.012195555555555317 2.5667911111111126  L 0.012195555555555317 0.16837333333333387  L 6.847431111111112 0.16837333333333387  L 6.847431111111112 2.5667911111111126  L 0.012195555555555317 2.5667911111111126  Z M 0.021777777777778146 6.895715555555558  L 0.021777777777778146 4.497422222222223  L 6.857386666666667 4.497422222222223  L 6.857386666666667 6.895715555555558  L 0.021777777777778146 6.895715555555558  Z " fill-rule="nonzero" fill="rgba(48, 49, 51, 1)" stroke="none" transform="matrix(1 0 0 1 1534 136 )" class="fill" />
    <path d="M 0.012195555555555317 2.5667911111111126  L 0.012195555555555317 0.16837333333333387  L 6.847431111111112 0.16837333333333387  L 6.847431111111112 2.5667911111111126  L 0.012195555555555317 2.5667911111111126  Z " stroke-width="0" stroke-dasharray="0" stroke="rgba(255, 255, 255, 0)" fill="none" transform="matrix(1 0 0 1 1534 136 )" class="stroke" mask="url(#Clip1448)" />
    <path d="M 0.021777777777778146 6.895715555555558  L 0.021777777777778146 4.497422222222223  L 6.857386666666667 4.497422222222223  L 6.857386666666667 6.895715555555558  L 0.021777777777778146 6.895715555555558  Z " stroke-width="0" stroke-dasharray="0" stroke="rgba(255, 255, 255, 0)" fill="none" transform="matrix(1 0 0 1 1534 136 )" class="stroke" mask="url(#Clip1448)" />
  </g>
</svg>