<?xml version="1.0" encoding="utf-8"?>
<svg version="1.1" xmlns:xlink="http://www.w3.org/1999/xlink" width="19px" height="20px" xmlns="http://www.w3.org/2000/svg">
  <defs>
    <pattern id="BGPattern" patternUnits="userSpaceOnUse" alignment="0 0" imageRepeat="None" />
    <mask fill="white" id="Clip1447">
      <path d="M 6.150502127659573 17.28130612244898  L 6.150502127659576 19.798726530612246  L 1.7179234042553189 19.798726530612246  C 0.8778485106382976 19.798726530612246  0.19455999999999962 19.098514285714288  0.19455999999999962 18.23804081632653  L 0.19455999999999962 1.6623020408163263  C 0.19455999999999962 0.8016979591836733  0.8778485106382976 0.10148571428571426  1.7179234042553189 0.10148571428571426  L 17.107826382978725 0.10148571428571426  C 17.947642553191493 0.10148571428571426  18.631060425531917 0.8016979591836733  18.631060425531917 1.6623020408163263  L 18.631060425531917 7.325257142857144  L 16.13787234042553 7.346938775510204  L 16.13787234042553 3  L 3 3  L 3 17.28130612244898  L 6.150502127659573 17.28130612244898  Z " fill-rule="evenodd" />
    </mask>
  </defs>
  <g transform="matrix(1 0 0 1 -1529 -130 )">
    <path d="M 6.150502127659573 17.28130612244898  L 6.150502127659576 19.798726530612246  L 1.7179234042553189 19.798726530612246  C 0.8778485106382976 19.798726530612246  0.19455999999999962 19.098514285714288  0.19455999999999962 18.23804081632653  L 0.19455999999999962 1.6623020408163263  C 0.19455999999999962 0.8016979591836733  0.8778485106382976 0.10148571428571426  1.7179234042553189 0.10148571428571426  L 17.107826382978725 0.10148571428571426  C 17.947642553191493 0.10148571428571426  18.631060425531917 0.8016979591836733  18.631060425531917 1.6623020408163263  L 18.631060425531917 7.325257142857144  L 16.13787234042553 7.346938775510204  L 16.13787234042553 3  L 3 3  L 3 17.28130612244898  L 6.150502127659573 17.28130612244898  Z " fill-rule="nonzero" fill="rgba(48, 49, 51, 1)" stroke="none" transform="matrix(1 0 0 1 1529 130 )" class="fill" />
    <path d="M 6.150502127659573 17.28130612244898  L 6.150502127659576 19.798726530612246  L 1.7179234042553189 19.798726530612246  C 0.8778485106382976 19.798726530612246  0.19455999999999962 19.098514285714288  0.19455999999999962 18.23804081632653  L 0.19455999999999962 1.6623020408163263  C 0.19455999999999962 0.8016979591836733  0.8778485106382976 0.10148571428571426  1.7179234042553189 0.10148571428571426  L 17.107826382978725 0.10148571428571426  C 17.947642553191493 0.10148571428571426  18.631060425531917 0.8016979591836733  18.631060425531917 1.6623020408163263  L 18.631060425531917 7.325257142857144  L 16.13787234042553 7.346938775510204  L 16.13787234042553 3  L 3 3  L 3 17.28130612244898  L 6.150502127659573 17.28130612244898  Z " stroke-width="0" stroke-dasharray="0" stroke="rgba(255, 255, 255, 0)" fill="none" transform="matrix(1 0 0 1 1529 130 )" class="stroke" mask="url(#Clip1447)" />
  </g>
</svg>