<?xml version="1.0" encoding="utf-8"?>
<svg version="1.1" xmlns:xlink="http://www.w3.org/1999/xlink" width="24px" height="24px" xmlns="http://www.w3.org/2000/svg">
  <g transform="matrix(1 0 0 1 -1158 -129 )">
    <path d="M 19.380000000000003 16.425  C 19.395000000000003 16.065  19.080000000000005 15.750000000000004  18.69 15.75  C 18.3 15.75  18 16.065  18 16.44  L 18 19.545  C 18 19.935000000000002  18.315 20.235000000000003  18.69 20.235000000000003  L 21.48 20.235000000000003  C 21.87 20.235000000000003  22.17 19.92  22.17 19.545  L 22.155 19.44  L 22.125000000000004 19.335  C 22.03915622560358 19.041866318862155  21.770444590723333 18.84033259270197  21.465000000000003 18.84  L 19.380000000000003 18.84  L 19.380000000000003 16.425  Z M 13.5 18.75  C 13.5 15.855  15.855 13.5  18.75 13.5  C 21.645 13.5  24 15.855  24 18.75  C 24 21.645  21.645 24  18.75 24  C 15.855 24  13.5 21.645  13.5 18.75  Z M 5.67 2.1000000000000014  C 7.455 -0.9750000000000001  11.295 -0.09  11.925 1.1099999999999999  C 15.57 0.43499999999999994  15.420000000000002 6  14.924999999999999 7.485  C 14.924999999999999 7.485  15.254999999999999 7.545  15.18 8.865  C 15.075 9.765  14.625 10.575  13.934999999999999 11.145  C 13.665 12.059999999999999  13.229999999999997 12.915  12.645 13.649999999999999  C 12.51 13.875  12.45 14.129999999999999  12.495000000000001 14.399999999999999  C 11.76 15.495000000000001  11.370000000000001 16.785  11.385 18.105  L 11.355 18.09  C 11.370000000000001 20.310000000000002  12.435000000000002 22.395  14.235 23.685000000000002  C 12.825000000000001 23.880000000000003  11.4 23.985  9.975000000000001 24  C 5.25 24  0 23.535  0 21.345  L 0 19.785000000000004  C 0 17.745000000000005  3.165 15.870000000000003  6.645 15.240000000000002  C 7.229999999999999 14.955000000000004  7.544999999999999 14.310000000000004  7.4399999999999995 13.680000000000001  C 6.795 12.885000000000002  6.345000000000001 11.985000000000001  6.12 10.995000000000001  C 5.88 10.905000000000001  5.655 10.740000000000002  5.49 10.545000000000002  C 5.010000000000001 9.855000000000002  4.785 9.015000000000002  4.83 8.160000000000002  C 4.905 7.365000000000002  5.1450000000000005 7.620000000000001  5.1450000000000005 7.500000000000002  C 4.5 5.700000000000001  4.695 3.7350000000000017  5.67 2.1000000000000014  Z " fill-rule="nonzero" fill="#ff8d00" stroke="none" transform="matrix(1 0 0 1 1158 129 )" />
  </g>
</svg>