<?xml version="1.0" encoding="utf-8"?>
<svg version="1.1" xmlns:xlink="http://www.w3.org/1999/xlink" width="144px" height="144px" xmlns="http://www.w3.org/2000/svg">
  <g>
    <path d="M 36.68388660425584 9.830697272705892  C 47.446951858138654 3.7165668692966474  59.615835208283656 0.5  72 0.5  C 111.48835961290173 0.5  143.5 32.51164038709827  143.5 72  C 143.5 111.48835961290173  111.48835961290173 143.5  72 143.5  C 32.51164038709827 143.5  0.5 111.48835961290173  0.5 72  C 0.5 59.61583520828367  3.716566869296628 47.446951858138725  9.830697272705851 36.68388660425592  L 71.75 72.43301270189222  A 0.5 0.5 0 0 0 72.43301270189222 71.75 L 36.68388660425518 9.830697272706267  Z " fill-rule="nonzero" fill="#1ec695" stroke="none" />
    <path d="M 36.68388660425584 9.830697272705892  C 47.446951858138654 3.7165668692966474  59.615835208283656 0.5  72 0.5  C 111.48835961290173 0.5  143.5 32.51164038709827  143.5 72  C 143.5 111.48835961290173  111.48835961290173 143.5  72 143.5  C 32.51164038709827 143.5  0.5 111.48835961290173  0.5 72  C 0.5 59.61583520828367  3.716566869296628 47.446951858138725  9.830697272705851 36.68388660425592  L 71.75 72.43301270189222  A 0.5 0.5 0 0 0 72.43301270189222 71.75 L 36.68388660425518 9.830697272706267  Z " stroke-width="1" stroke="#ffffff" fill="none" />
  </g>
</svg>