<?xml version="1.0" encoding="utf-8"?>
<svg version="1.1" xmlns:xlink="http://www.w3.org/1999/xlink" width="144px" height="144px" xmlns="http://www.w3.org/2000/svg">
  <g>
    <path d="M 70.36403857286385 143.48131690132672  C 31.556414200295333 142.59854675442276  0.5 110.87861259298295  0.5 72  C 0.5 32.51164038709827  32.51164038709827 0.5  72 0.5  C 74.27546545577317 0.5  76.54953869772024 0.6086239331535619  78.81445694108032 0.8254738219651523  L 71.50262145231994 71.94886703306398  A 0.5 0.5 0 0 0 71.50006311773579 71.99205558359988 L 70.36403879100035 143.48131690628873  Z " fill-rule="nonzero" fill="#bc8dee" stroke="none" />
    <path d="M 70.36403857286385 143.48131690132672  C 31.556414200295333 142.59854675442276  0.5 110.87861259298295  0.5 72  C 0.5 32.51164038709827  32.51164038709827 0.5  72 0.5  C 74.27546545577317 0.5  76.54953869772024 0.6086239331535619  78.81445694108032 0.8254738219651523  L 71.50262145231994 71.94886703306398  A 0.5 0.5 0 0 0 71.50006311773579 71.99205558359988 L 70.36403879100035 143.48131690628873  Z " stroke-width="1" stroke="#ffffff" fill="none" />
  </g>
</svg>