<?xml version="1.0" encoding="utf-8"?>
<svg version="1.1" xmlns:xlink="http://www.w3.org/1999/xlink" width="143px" height="143px" xmlns="http://www.w3.org/2000/svg">
  <g>
    <path d="M 36.43389275878441 9.763720634554328  C 47.12094309499293 3.693467691832167  59.20360382855185 0.5  71.5 0.5  C 110.71221723798634 0.5  142.5 32.28778276201366  142.5 71.5  C 142.5 110.71221723798634  110.71221723798634 142.5  71.5 142.5  C 32.28778276201366 142.5  0.5 110.71221723798634  0.5 71.5  C 0.5 59.20360382855185  3.6934676918321507 47.12094309499298  9.76372063455431 36.433892758784445  L 71.25 71.93301270189222  A 0.5 0.5 0 0 0 71.93301270189222 71.25 L 36.43389275878377 9.76372063455469  Z " fill-rule="nonzero" fill="#bc8dee" stroke="none" />
    <path d="M 36.43389275878441 9.763720634554328  C 47.12094309499293 3.693467691832167  59.20360382855185 0.5  71.5 0.5  C 110.71221723798634 0.5  142.5 32.28778276201366  142.5 71.5  C 142.5 110.71221723798634  110.71221723798634 142.5  71.5 142.5  C 32.28778276201366 142.5  0.5 110.71221723798634  0.5 71.5  C 0.5 59.20360382855185  3.6934676918321507 47.12094309499298  9.76372063455431 36.433892758784445  L 71.25 71.93301270189222  A 0.5 0.5 0 0 0 71.93301270189222 71.25 L 36.43389275878377 9.76372063455469  Z " stroke-width="1" stroke="#ffffff" fill="none" />
  </g>
</svg>