<?xml version="1.0" encoding="utf-8"?>
<svg version="1.1" xmlns:xlink="http://www.w3.org/1999/xlink" width="143px" height="143px" xmlns="http://www.w3.org/2000/svg">
  <g>
    <path d="M 69.87198414706155 142.48136797246727  C 31.337372028028252 141.60294630344058  0.5 110.10556714014378  0.5 71.5  C 0.5 32.28778276201366  32.28778276201366 0.5  71.5 0.5  C 73.75838748072283 0.5  76.01539390936269 0.6077530666117142  78.26332270989863 0.8228646166870413  L 71.00262145231994 71.44886703306398  A 0.5 0.5 0 0 0 71.00006311773579 71.49205558359988 L 69.87198436242349 142.48136797737658  Z " fill-rule="nonzero" fill="#1ec695" stroke="none" />
    <path d="M 69.87198414706155 142.48136797246727  C 31.337372028028252 141.60294630344058  0.5 110.10556714014378  0.5 71.5  C 0.5 32.28778276201366  32.28778276201366 0.5  71.5 0.5  C 73.75838748072283 0.5  76.01539390936269 0.6077530666117142  78.26332270989863 0.8228646166870413  L 71.00262145231994 71.44886703306398  A 0.5 0.5 0 0 0 71.00006311773579 71.49205558359988 L 69.87198436242349 142.48136797737658  Z " stroke-width="1" stroke="#ffffff" fill="none" />
  </g>
</svg>