<?xml version="1.0" encoding="utf-8"?>
<svg version="1.1" xmlns:xlink="http://www.w3.org/1999/xlink" width="5px" height="5px" xmlns="http://www.w3.org/2000/svg">
  <defs>
    <mask fill="white" id="clip317">
      <path d="M 0.6976744186047199 3.888888888888914  L 0 3.2222222222221717  L 0.6976744186047199 2.2222222222221717  L 0.6976744186047199 1.2222222222222854  L 1.744186046511686 0  L 4.069767441860449 1.2222222222222854  L 5 2.7777777777778283  L 5 3.888888888888914  L 3.255813953488314 3.888888888888914  L 2.325581395348763 5  L 0.6976744186047199 3.888888888888914  Z " fill-rule="evenodd" />
    </mask>
  </defs>
  <g transform="matrix(1 0 0 1 -1335 -695 )">
    <path d="M 0.6976744186047199 3.888888888888914  L 0 3.2222222222221717  L 0.6976744186047199 2.2222222222221717  L 0.6976744186047199 1.2222222222222854  L 1.744186046511686 0  L 4.069767441860449 1.2222222222222854  L 5 2.7777777777778283  L 5 3.888888888888914  L 3.255813953488314 3.888888888888914  L 2.325581395348763 5  L 0.6976744186047199 3.888888888888914  Z " fill-rule="nonzero" fill="#ffffff" stroke="none" fill-opacity="0" transform="matrix(1 0 0 1 1335 695 )" />
    <path d="M 0.6976744186047199 3.888888888888914  L 0 3.2222222222221717  L 0.6976744186047199 2.2222222222221717  L 0.6976744186047199 1.2222222222222854  L 1.744186046511686 0  L 4.069767441860449 1.2222222222222854  L 5 2.7777777777778283  L 5 3.888888888888914  L 3.255813953488314 3.888888888888914  L 2.325581395348763 5  L 0.6976744186047199 3.888888888888914  Z " stroke-width="2" stroke="#ffa897" fill="none" transform="matrix(1 0 0 1 1335 695 )" mask="url(#clip317)" />
  </g>
</svg>