<?xml version="1.0" encoding="utf-8"?>
<svg version="1.1" xmlns:xlink="http://www.w3.org/1999/xlink" width="43px" height="45px" xmlns="http://www.w3.org/2000/svg">
  <defs>
    <mask fill="white" id="clip767">
      <path d="M 9.314079422382747 2.3275862068965125  L 10.55595667870034 0  L 10.55595667870034 2.3275862068965125  L 10.55595667870034 4.344827586206975  L 11.176895306859251 5.27586206896558  L 11.176895306859251 4.344827586206975  L 12.7292418772563 2.3275862068965125  L 15.212996389891714 4.344827586206975  L 14.12635379061362 6.36206896551721  L 15.212996389891714 8.379310344827559  L 17.69675090252713 8.379310344827559  L 18.938628158844722 11.793103448275815  L 20.646209386281498 14.896551724137908  L 21.26714801444041 16.758620689655118  L 22.19855595667877 18.931034482758605  L 25.768953068592058 16.758620689655118  L 26.38989169675097 17.534482758620697  L 28.563176895306928 16.13793103448279  L 27.787003610108286 13.965517241379303  L 27.010830324909648 11.793103448275815  L 30.115523465703973 9.775862068965466  L 30.736462093862887 8.379310344827559  L 30.736462093862887 7.293103448275929  L 32.28880866425993 6.36206896551721  L 32.28880866425993 5.27586206896558  L 33.22021660649807 5.27586206896558  L 35.39350180505426 5.27586206896558  L 35.39350180505426 7.293103448275929  L 34.772563176895346 8.379310344827559  L 36.16967509025267 9.775862068965466  L 38.1877256317689 8.379310344827559  L 39.27436823104699 9.775862068965466  L 39.27436823104699 11.793103448275815  L 36.16967509025267 12.568965517241395  L 35.39350180505426 11.793103448275815  L 34.151624548736436 12.568965517241395  L 33.22021660649807 11.017241379310349  L 31.66787003610102 12.568965517241395  L 32.28880866425993 13.965517241379303  L 31.66787003610102 16.13793103448279  L 32.28880866425993 16.758620689655118  L 33.22021660649807 16.13793103448279  L 34.772563176895346 16.13793103448279  L 36.16967509025267 17.534482758620697  L 35.39350180505426 18.465517241379303  L 34.772563176895346 21.103448275862092  L 36.16967509025267 23.74137931034477  L 35.39350180505426 26.534482758620697  L 35.39350180505426 28.396551724137908  L 37.56678700360999 28.396551724137908  L 38.1877256317689 29.793103448275925  L 39.27436823104699 30.568965517241395  L 39.895306859205675 30.568965517241395  L 41.137184115523496 30.568965517241395  L 42.06859205776186 30.568965517241395  L 43 31.810344827586164  L 42.06859205776186 33.51724137931035  L 39.895306859205675 34.75862068965512  L 38.1877256317689 33.51724137931035  L 36.16967509025267 34.75862068965512  L 36.16967509025267 36.15517241379314  L 33.22021660649807 36.931034482758605  L 32.28880866425993 36.931034482758605  L 31.66787003610102 37.86206896551721  L 30.115523465703973 36.931034482758605  L 28.563176895306928 36.931034482758605  L 27.010830324909648 37.86206896551721  L 24.68231046931396 36.15517241379314  L 23.129963898916913 36.931034482758605  L 23.129963898916913 37.86206896551721  L 20.025270758122815 37.86206896551721  L 18.938628158844722 38.79310344827593  L 20.025270758122815 41.27586206896558  L 20.025270758122815 43.293103448275815  L 20.025270758122815 45  L 18.938628158844722 44.224137931034534  L 17.69675090252713 44.224137931034534  L 17.69675090252713 43.293103448275815  L 16.92057761732849 41.27586206896558  L 15.212996389891714 42.206896551724185  L 11.953068592057662 42.206896551724185  L 11.176895306859251 40.5  L 11.176895306859251 38.79310344827593  L 9.314079422382747 38.79310344827593  L 6.98555956678706 37.86206896551721  L 7.9169675090251985 36.931034482758605  L 7.9169675090251985 35.37931034482767  L 9.93501805054143 33.51724137931035  L 7.9169675090251985 32.89655172413791  L 6.36462093862815 31.810344827586164  L 6.36462093862815 30.568965517241395  L 5.588447653429512 28.396551724137908  L 6.36462093862815 27.620689655172438  L 4.6570397111913735 27.620689655172438  L 3.8808664259927355 26.534482758620697  L 1.2418772563178209 28.396551724137908  L 0 27.620689655172438  L 1.2418772563178209 26.534482758620697  L 0.6209386281589104 23.74137931034477  L 0.6209386281589104 22.65517241379314  L 1.8628158844765037 22.65517241379314  L 1.8628158844765037 21.103448275862092  L 4.6570397111913735 18.931034482758605  L 6.98555956678706 18.465517241379303  L 6.98555956678706 16.13793103448279  L 7.9169675090251985 12.568965517241395  L 7.9169675090251985 8.379310344827559  L 6.36462093862815 8.379310344827559  L 4.6570397111913735 5.27586206896558  L 5.588447653429512 4.344827586206975  L 6.98555956678706 5.27586206896558  L 8.537906137184109 5.27586206896558  L 7.9169675090251985 3.72413793103442  L 8.537906137184109 1.0862068965517437  L 9.314079422382747 2.3275862068965125  Z " fill-rule="evenodd" />
    </mask>
  </defs>
  <g transform="matrix(1 0 0 1 -1225 -708 )">
    <path d="M 9.314079422382747 2.3275862068965125  L 10.55595667870034 0  L 10.55595667870034 2.3275862068965125  L 10.55595667870034 4.344827586206975  L 11.176895306859251 5.27586206896558  L 11.176895306859251 4.344827586206975  L 12.7292418772563 2.3275862068965125  L 15.212996389891714 4.344827586206975  L 14.12635379061362 6.36206896551721  L 15.212996389891714 8.379310344827559  L 17.69675090252713 8.379310344827559  L 18.938628158844722 11.793103448275815  L 20.646209386281498 14.896551724137908  L 21.26714801444041 16.758620689655118  L 22.19855595667877 18.931034482758605  L 25.768953068592058 16.758620689655118  L 26.38989169675097 17.534482758620697  L 28.563176895306928 16.13793103448279  L 27.787003610108286 13.965517241379303  L 27.010830324909648 11.793103448275815  L 30.115523465703973 9.775862068965466  L 30.736462093862887 8.379310344827559  L 30.736462093862887 7.293103448275929  L 32.28880866425993 6.36206896551721  L 32.28880866425993 5.27586206896558  L 33.22021660649807 5.27586206896558  L 35.39350180505426 5.27586206896558  L 35.39350180505426 7.293103448275929  L 34.772563176895346 8.379310344827559  L 36.16967509025267 9.775862068965466  L 38.1877256317689 8.379310344827559  L 39.27436823104699 9.775862068965466  L 39.27436823104699 11.793103448275815  L 36.16967509025267 12.568965517241395  L 35.39350180505426 11.793103448275815  L 34.151624548736436 12.568965517241395  L 33.22021660649807 11.017241379310349  L 31.66787003610102 12.568965517241395  L 32.28880866425993 13.965517241379303  L 31.66787003610102 16.13793103448279  L 32.28880866425993 16.758620689655118  L 33.22021660649807 16.13793103448279  L 34.772563176895346 16.13793103448279  L 36.16967509025267 17.534482758620697  L 35.39350180505426 18.465517241379303  L 34.772563176895346 21.103448275862092  L 36.16967509025267 23.74137931034477  L 35.39350180505426 26.534482758620697  L 35.39350180505426 28.396551724137908  L 37.56678700360999 28.396551724137908  L 38.1877256317689 29.793103448275925  L 39.27436823104699 30.568965517241395  L 39.895306859205675 30.568965517241395  L 41.137184115523496 30.568965517241395  L 42.06859205776186 30.568965517241395  L 43 31.810344827586164  L 42.06859205776186 33.51724137931035  L 39.895306859205675 34.75862068965512  L 38.1877256317689 33.51724137931035  L 36.16967509025267 34.75862068965512  L 36.16967509025267 36.15517241379314  L 33.22021660649807 36.931034482758605  L 32.28880866425993 36.931034482758605  L 31.66787003610102 37.86206896551721  L 30.115523465703973 36.931034482758605  L 28.563176895306928 36.931034482758605  L 27.010830324909648 37.86206896551721  L 24.68231046931396 36.15517241379314  L 23.129963898916913 36.931034482758605  L 23.129963898916913 37.86206896551721  L 20.025270758122815 37.86206896551721  L 18.938628158844722 38.79310344827593  L 20.025270758122815 41.27586206896558  L 20.025270758122815 43.293103448275815  L 20.025270758122815 45  L 18.938628158844722 44.224137931034534  L 17.69675090252713 44.224137931034534  L 17.69675090252713 43.293103448275815  L 16.92057761732849 41.27586206896558  L 15.212996389891714 42.206896551724185  L 11.953068592057662 42.206896551724185  L 11.176895306859251 40.5  L 11.176895306859251 38.79310344827593  L 9.314079422382747 38.79310344827593  L 6.98555956678706 37.86206896551721  L 7.9169675090251985 36.931034482758605  L 7.9169675090251985 35.37931034482767  L 9.93501805054143 33.51724137931035  L 7.9169675090251985 32.89655172413791  L 6.36462093862815 31.810344827586164  L 6.36462093862815 30.568965517241395  L 5.588447653429512 28.396551724137908  L 6.36462093862815 27.620689655172438  L 4.6570397111913735 27.620689655172438  L 3.8808664259927355 26.534482758620697  L 1.2418772563178209 28.396551724137908  L 0 27.620689655172438  L 1.2418772563178209 26.534482758620697  L 0.6209386281589104 23.74137931034477  L 0.6209386281589104 22.65517241379314  L 1.8628158844765037 22.65517241379314  L 1.8628158844765037 21.103448275862092  L 4.6570397111913735 18.931034482758605  L 6.98555956678706 18.465517241379303  L 6.98555956678706 16.13793103448279  L 7.9169675090251985 12.568965517241395  L 7.9169675090251985 8.379310344827559  L 6.36462093862815 8.379310344827559  L 4.6570397111913735 5.27586206896558  L 5.588447653429512 4.344827586206975  L 6.98555956678706 5.27586206896558  L 8.537906137184109 5.27586206896558  L 7.9169675090251985 3.72413793103442  L 8.537906137184109 1.0862068965517437  L 9.314079422382747 2.3275862068965125  Z " fill-rule="nonzero" fill="#ffffff" stroke="none" fill-opacity="0" transform="matrix(1 0 0 1 1225 708 )" />
    <path d="M 9.314079422382747 2.3275862068965125  L 10.55595667870034 0  L 10.55595667870034 2.3275862068965125  L 10.55595667870034 4.344827586206975  L 11.176895306859251 5.27586206896558  L 11.176895306859251 4.344827586206975  L 12.7292418772563 2.3275862068965125  L 15.212996389891714 4.344827586206975  L 14.12635379061362 6.36206896551721  L 15.212996389891714 8.379310344827559  L 17.69675090252713 8.379310344827559  L 18.938628158844722 11.793103448275815  L 20.646209386281498 14.896551724137908  L 21.26714801444041 16.758620689655118  L 22.19855595667877 18.931034482758605  L 25.768953068592058 16.758620689655118  L 26.38989169675097 17.534482758620697  L 28.563176895306928 16.13793103448279  L 27.787003610108286 13.965517241379303  L 27.010830324909648 11.793103448275815  L 30.115523465703973 9.775862068965466  L 30.736462093862887 8.379310344827559  L 30.736462093862887 7.293103448275929  L 32.28880866425993 6.36206896551721  L 32.28880866425993 5.27586206896558  L 33.22021660649807 5.27586206896558  L 35.39350180505426 5.27586206896558  L 35.39350180505426 7.293103448275929  L 34.772563176895346 8.379310344827559  L 36.16967509025267 9.775862068965466  L 38.1877256317689 8.379310344827559  L 39.27436823104699 9.775862068965466  L 39.27436823104699 11.793103448275815  L 36.16967509025267 12.568965517241395  L 35.39350180505426 11.793103448275815  L 34.151624548736436 12.568965517241395  L 33.22021660649807 11.017241379310349  L 31.66787003610102 12.568965517241395  L 32.28880866425993 13.965517241379303  L 31.66787003610102 16.13793103448279  L 32.28880866425993 16.758620689655118  L 33.22021660649807 16.13793103448279  L 34.772563176895346 16.13793103448279  L 36.16967509025267 17.534482758620697  L 35.39350180505426 18.465517241379303  L 34.772563176895346 21.103448275862092  L 36.16967509025267 23.74137931034477  L 35.39350180505426 26.534482758620697  L 35.39350180505426 28.396551724137908  L 37.56678700360999 28.396551724137908  L 38.1877256317689 29.793103448275925  L 39.27436823104699 30.568965517241395  L 39.895306859205675 30.568965517241395  L 41.137184115523496 30.568965517241395  L 42.06859205776186 30.568965517241395  L 43 31.810344827586164  L 42.06859205776186 33.51724137931035  L 39.895306859205675 34.75862068965512  L 38.1877256317689 33.51724137931035  L 36.16967509025267 34.75862068965512  L 36.16967509025267 36.15517241379314  L 33.22021660649807 36.931034482758605  L 32.28880866425993 36.931034482758605  L 31.66787003610102 37.86206896551721  L 30.115523465703973 36.931034482758605  L 28.563176895306928 36.931034482758605  L 27.010830324909648 37.86206896551721  L 24.68231046931396 36.15517241379314  L 23.129963898916913 36.931034482758605  L 23.129963898916913 37.86206896551721  L 20.025270758122815 37.86206896551721  L 18.938628158844722 38.79310344827593  L 20.025270758122815 41.27586206896558  L 20.025270758122815 43.293103448275815  L 20.025270758122815 45  L 18.938628158844722 44.224137931034534  L 17.69675090252713 44.224137931034534  L 17.69675090252713 43.293103448275815  L 16.92057761732849 41.27586206896558  L 15.212996389891714 42.206896551724185  L 11.953068592057662 42.206896551724185  L 11.176895306859251 40.5  L 11.176895306859251 38.79310344827593  L 9.314079422382747 38.79310344827593  L 6.98555956678706 37.86206896551721  L 7.9169675090251985 36.931034482758605  L 7.9169675090251985 35.37931034482767  L 9.93501805054143 33.51724137931035  L 7.9169675090251985 32.89655172413791  L 6.36462093862815 31.810344827586164  L 6.36462093862815 30.568965517241395  L 5.588447653429512 28.396551724137908  L 6.36462093862815 27.620689655172438  L 4.6570397111913735 27.620689655172438  L 3.8808664259927355 26.534482758620697  L 1.2418772563178209 28.396551724137908  L 0 27.620689655172438  L 1.2418772563178209 26.534482758620697  L 0.6209386281589104 23.74137931034477  L 0.6209386281589104 22.65517241379314  L 1.8628158844765037 22.65517241379314  L 1.8628158844765037 21.103448275862092  L 4.6570397111913735 18.931034482758605  L 6.98555956678706 18.465517241379303  L 6.98555956678706 16.13793103448279  L 7.9169675090251985 12.568965517241395  L 7.9169675090251985 8.379310344827559  L 6.36462093862815 8.379310344827559  L 4.6570397111913735 5.27586206896558  L 5.588447653429512 4.344827586206975  L 6.98555956678706 5.27586206896558  L 8.537906137184109 5.27586206896558  L 7.9169675090251985 3.72413793103442  L 8.537906137184109 1.0862068965517437  L 9.314079422382747 2.3275862068965125  Z " stroke-width="2" stroke="#ffa897" fill="none" transform="matrix(1 0 0 1 1225 708 )" mask="url(#clip767)" />
  </g>
</svg>