<?xml version="1.0" encoding="utf-8"?>
<svg version="1.1" xmlns:xlink="http://www.w3.org/1999/xlink" width="105px" height="88px" xmlns="http://www.w3.org/2000/svg">
  <defs>
    <mask fill="white" id="clip286">
      <path d="M 0.7686676427524617 58.51228070175432  L 0 56.04210526315785  L 1.3836017569547039 56.04210526315785  L 5.841874084919482 57.74035087719301  L 10.30014641288426 57.74035087719301  L 15.219619326500835 58.51228070175432  L 18.448023426061354 60.67368421052629  L 22.752562225475913 62.68070175438596  L 26.903367496339797 64.0701754385965  L 28.286969253294274 63.29824561403507  L 29.824304538799428 64.99649122807011  L 34.28257686676443 63.29824561403507  L 38.58711566617853 61.445614035087715  L 42.89165446559309 61.445614035087715  L 47.50366032210832 61.445614035087715  L 51.6544655929722 59.43859649122805  L 54.11420204978049 56.04210526315785  L 57.95754026354325 53.41754385964918  L 55.03660322108339 49.866666666666674  L 55.805270863836085 48.16842105263163  L 57.95754026354325 46.16140350877197  L 60.26354319180087 47.705263157894706  L 62.56954612005847 48.16842105263163  L 66.41288433382147 46.16140350877197  L 67.48901903367505 43.6912280701755  L 69.94875549048311 44.3087719298245  L 73.3308931185943 41.83859649122803  L 73.3308931185943 39.831578947368484  L 76.25183016105416 38.287719298245634  L 79.4802342606149 36.89824561403509  L 83.78477306002924 36.126315789473665  L 85.78330893118596 36.126315789473665  L 86.70571010248909 34.73684210526312  L 83.78477306002924 31.49473684210534  L 79.4802342606149 29.178947368421063  L 76.25183016105416 31.49473684210534  L 74.56076134699856 30.259649122807108  L 72.25475841874072 30.259649122807108  L 71.6398243045387 31.49473684210534  L 69.94875549048311 30.259649122807108  L 70.87115666178624 28.098245614035136  L 71.6398243045387 24.084210526315815  L 73.3308931185943 19.76140350877199  L 77.1742313323573 21.150877192982534  L 81.1713030746705 18.68070175438595  L 82.8623718887261 17.291228070175407  L 81.9399707174232 15.747368421052556  L 83.78477306002924 11.57894736842104  L 84.3668122270742 8.954385964912262  L 85.78330893118596 7.873684210526335  L 86.70571010248909 6.021052631578982  L 85.78330893118596 4.477192982456131  L 83.78477306002924 4.014035087719208  L 83.78477306002924 2.4701754385964705  L 84.86090775988282 1.698245614035045  L 88.39677891654469 0  L 89.0117130307467 0.9263157894737334  L 88.39677891654469 1.698245614035045  L 87.47437774524155 4.014035087719208  L 89.62664714494872 5.094736842105249  L 91.16398243045387 3.3964912280702038  L 92.70131771595902 4.477192982456131  L 92.70131771595902 7.1017543859649095  L 94.0849194729135 9.880701754385882  L 95.77598828696932 9.880701754385882  L 99.31185944363096 8.954385964912262  L 101.77159590043925 7.1017543859649095  L 104.07759882869686 8.954385964912262  L 105 9.880701754385882  L 105 12.196491228070157  L 103.15519765739396 16.364912280701787  L 104.07759882869686 18.68070175438595  L 104.07759882869686 19.76140350877199  L 102.38653001464127 20.533333333333303  L 102.38653001464127 22.077192982456154  L 101.77159590043925 24.084210526315815  L 102.38653001464127 25.473684210526244  L 101.77159590043925 26.24561403508767  L 100.56768558951967 24.701754385964932  L 99.31185944363096 26.70877192982448  L 96.69838945827223 29.178947368421063  L 95.77598828696932 31.031578947368416  L 97.62079062957537 34.27368421052631  L 99.31185944363096 32.42105263157896  L 100.08052708638365 33.656140350877195  L 97.62079062957537 35.50877192982455  L 98.5431918008785 36.89824561403509  L 97.62079062957537 38.287719298245634  L 97.62079062957537 39.831578947368484  L 96.69838945827223 38.287719298245634  L 95.77598828696932 39.21403508771925  L 94.0849194729135 38.287719298245634  L 94.0849194729135 39.831578947368484  L 95.16105417276708 41.37543859649122  L 95.77598828696932 45.54385964912274  L 97.62079062957537 48.16842105263163  L 100.08052708638365 46.77894736842097  L 101.77159590043925 49.866666666666674  L 101.15666178623724 51.41052631578941  L 102.38653001464127 52.18245614035095  L 103.15519765739396 53.41754385964918  L 101.77159590043925 54.34385964912281  L 101.15666178623724 55.11578947368412  L 99.31185944363096 56.04210526315785  L 96.69838945827223 56.814035087719276  L 94.0849194729135 58.51228070175432  L 91.16398243045387 60.056140350877286  L 89.62664714494872 62.68070175438596  L 87.47437774524155 59.43859649122805  L 87.47437774524155 61.445614035087715  L 86.70571010248909 64.99649122807011  L 84.86090775988282 64.99649122807011  L 83.78477306002924 65.61403508771923  L 81.9399707174232 63.29824561403507  L 82.8623718887261 62.68070175438596  L 81.9399707174232 60.67368421052629  L 80.40263543191804 58.51228070175432  L 79.4802342606149 58.51228070175432  L 77.1742313323573 60.67368421052629  L 77.1742313323573 62.06315789473683  L 75.63689604685214 62.68070175438596  L 73.94582723279655 63.29824561403507  L 73.3308931185943 62.68070175438596  L 70.87115666178624 64.99649122807011  L 69.02635431917997 64.99649122807011  L 69.02635431917997 62.68070175438596  L 69.02635431917997 62.06315789473683  L 67.48901903367505 62.68070175438596  L 66.41288433382147 65.61403508771923  L 65.49048316251833 66.38596491228077  L 65.49048316251833 68.54736842105262  L 66.41288433382147 69.93684210526317  L 65.49048316251833 71.32631578947371  L 62.56954612005847 72.87017543859645  L 59.18740849194728 72.25263157894733  L 57.95754026354325 75.34035087719303  L 57.95754026354325 77.03859649122808  L 55.805270863836085 77.03859649122808  L 55.03660322108339 77.8105263157895  L 54.11420204978049 77.03859649122808  L 52.57686676427533 77.8105263157895  L 50.42459736456817 77.8105263157895  L 48.42606149341145 80.89824561403509  L 46.12005856515384 83.36842105263156  L 46.12005856515384 85.83859649122803  L 44.73645680819914 85.06666666666672  L 44.73645680819914 87.6912280701755  L 42.1229868228404 87.6912280701755  L 40.124450951683684 85.83859649122803  L 36.896046852122936 84.6035087719298  L 35.666178623718906 83.36842105263156  L 35.666178623718906 81.67017543859652  L 38.125915080526966 79.97192982456136  L 36.896046852122936 77.8105263157895  L 34.28257686676443 78.89122807017543  L 33.05270863836017 80.89824561403509  L 33.05270863836017 82.90526315789475  L 32.591508052708605 84.14035087719299  L 32.591508052708605 86.45614035087726  L 28.90190336749629 87.22807017543857  L 26.749633967789126 88  L 24.597364568081957 87.6912280701755  L 22.137628111273898 85.06666666666672  L 22.752562225475913 84.14035087719299  L 22.752562225475913 82.90526315789475  L 25.212298682283972 79.97192982456136  L 26.134699853587108 78.89122807017543  L 25.212298682283972 77.8105263157895  L 22.752562225475913 77.03859649122808  L 21.215226939970762 78.42807017543862  L 19.37042459736449 77.8105263157895  L 16.756954612005984 78.42807017543862  L 16.756954612005984 79.97192982456136  L 15.219619326500835 80.89824561403509  L 13.221083455344115 78.89122807017543  L 11.83748169838941 78.42807017543862  L 11.83748169838941 75.95789473684215  L 9.531478770131798 74.10526315789468  L 7.686676427525526 72.87017543859645  L 10.30014641288426 70.55438596491229  L 10.915080527086502 68.54736842105262  L 9.531478770131798 66.38596491228077  L 6.918008784773065 67.7754385964912  L 4.765739385065899 67.7754385964912  L 3.3821376281111952 68.54736842105262  L 3.3821376281111952 67.1578947368422  L 1.3836017569547039 64.99649122807011  L 0.7686676427524617 64.0701754385965  L 2.3060029282576124 62.68070175438596  L 0.7686676427524617 58.51228070175432  Z " fill-rule="evenodd" />
    </mask>
  </defs>
  <g transform="matrix(1 0 0 1 -1236 -579 )">
    <path d="M 0.7686676427524617 58.51228070175432  L 0 56.04210526315785  L 1.3836017569547039 56.04210526315785  L 5.841874084919482 57.74035087719301  L 10.30014641288426 57.74035087719301  L 15.219619326500835 58.51228070175432  L 18.448023426061354 60.67368421052629  L 22.752562225475913 62.68070175438596  L 26.903367496339797 64.0701754385965  L 28.286969253294274 63.29824561403507  L 29.824304538799428 64.99649122807011  L 34.28257686676443 63.29824561403507  L 38.58711566617853 61.445614035087715  L 42.89165446559309 61.445614035087715  L 47.50366032210832 61.445614035087715  L 51.6544655929722 59.43859649122805  L 54.11420204978049 56.04210526315785  L 57.95754026354325 53.41754385964918  L 55.03660322108339 49.866666666666674  L 55.805270863836085 48.16842105263163  L 57.95754026354325 46.16140350877197  L 60.26354319180087 47.705263157894706  L 62.56954612005847 48.16842105263163  L 66.41288433382147 46.16140350877197  L 67.48901903367505 43.6912280701755  L 69.94875549048311 44.3087719298245  L 73.3308931185943 41.83859649122803  L 73.3308931185943 39.831578947368484  L 76.25183016105416 38.287719298245634  L 79.4802342606149 36.89824561403509  L 83.78477306002924 36.126315789473665  L 85.78330893118596 36.126315789473665  L 86.70571010248909 34.73684210526312  L 83.78477306002924 31.49473684210534  L 79.4802342606149 29.178947368421063  L 76.25183016105416 31.49473684210534  L 74.56076134699856 30.259649122807108  L 72.25475841874072 30.259649122807108  L 71.6398243045387 31.49473684210534  L 69.94875549048311 30.259649122807108  L 70.87115666178624 28.098245614035136  L 71.6398243045387 24.084210526315815  L 73.3308931185943 19.76140350877199  L 77.1742313323573 21.150877192982534  L 81.1713030746705 18.68070175438595  L 82.8623718887261 17.291228070175407  L 81.9399707174232 15.747368421052556  L 83.78477306002924 11.57894736842104  L 84.3668122270742 8.954385964912262  L 85.78330893118596 7.873684210526335  L 86.70571010248909 6.021052631578982  L 85.78330893118596 4.477192982456131  L 83.78477306002924 4.014035087719208  L 83.78477306002924 2.4701754385964705  L 84.86090775988282 1.698245614035045  L 88.39677891654469 0  L 89.0117130307467 0.9263157894737334  L 88.39677891654469 1.698245614035045  L 87.47437774524155 4.014035087719208  L 89.62664714494872 5.094736842105249  L 91.16398243045387 3.3964912280702038  L 92.70131771595902 4.477192982456131  L 92.70131771595902 7.1017543859649095  L 94.0849194729135 9.880701754385882  L 95.77598828696932 9.880701754385882  L 99.31185944363096 8.954385964912262  L 101.77159590043925 7.1017543859649095  L 104.07759882869686 8.954385964912262  L 105 9.880701754385882  L 105 12.196491228070157  L 103.15519765739396 16.364912280701787  L 104.07759882869686 18.68070175438595  L 104.07759882869686 19.76140350877199  L 102.38653001464127 20.533333333333303  L 102.38653001464127 22.077192982456154  L 101.77159590043925 24.084210526315815  L 102.38653001464127 25.473684210526244  L 101.77159590043925 26.24561403508767  L 100.56768558951967 24.701754385964932  L 99.31185944363096 26.70877192982448  L 96.69838945827223 29.178947368421063  L 95.77598828696932 31.031578947368416  L 97.62079062957537 34.27368421052631  L 99.31185944363096 32.42105263157896  L 100.08052708638365 33.656140350877195  L 97.62079062957537 35.50877192982455  L 98.5431918008785 36.89824561403509  L 97.62079062957537 38.287719298245634  L 97.62079062957537 39.831578947368484  L 96.69838945827223 38.287719298245634  L 95.77598828696932 39.21403508771925  L 94.0849194729135 38.287719298245634  L 94.0849194729135 39.831578947368484  L 95.16105417276708 41.37543859649122  L 95.77598828696932 45.54385964912274  L 97.62079062957537 48.16842105263163  L 100.08052708638365 46.77894736842097  L 101.77159590043925 49.866666666666674  L 101.15666178623724 51.41052631578941  L 102.38653001464127 52.18245614035095  L 103.15519765739396 53.41754385964918  L 101.77159590043925 54.34385964912281  L 101.15666178623724 55.11578947368412  L 99.31185944363096 56.04210526315785  L 96.69838945827223 56.814035087719276  L 94.0849194729135 58.51228070175432  L 91.16398243045387 60.056140350877286  L 89.62664714494872 62.68070175438596  L 87.47437774524155 59.43859649122805  L 87.47437774524155 61.445614035087715  L 86.70571010248909 64.99649122807011  L 84.86090775988282 64.99649122807011  L 83.78477306002924 65.61403508771923  L 81.9399707174232 63.29824561403507  L 82.8623718887261 62.68070175438596  L 81.9399707174232 60.67368421052629  L 80.40263543191804 58.51228070175432  L 79.4802342606149 58.51228070175432  L 77.1742313323573 60.67368421052629  L 77.1742313323573 62.06315789473683  L 75.63689604685214 62.68070175438596  L 73.94582723279655 63.29824561403507  L 73.3308931185943 62.68070175438596  L 70.87115666178624 64.99649122807011  L 69.02635431917997 64.99649122807011  L 69.02635431917997 62.68070175438596  L 69.02635431917997 62.06315789473683  L 67.48901903367505 62.68070175438596  L 66.41288433382147 65.61403508771923  L 65.49048316251833 66.38596491228077  L 65.49048316251833 68.54736842105262  L 66.41288433382147 69.93684210526317  L 65.49048316251833 71.32631578947371  L 62.56954612005847 72.87017543859645  L 59.18740849194728 72.25263157894733  L 57.95754026354325 75.34035087719303  L 57.95754026354325 77.03859649122808  L 55.805270863836085 77.03859649122808  L 55.03660322108339 77.8105263157895  L 54.11420204978049 77.03859649122808  L 52.57686676427533 77.8105263157895  L 50.42459736456817 77.8105263157895  L 48.42606149341145 80.89824561403509  L 46.12005856515384 83.36842105263156  L 46.12005856515384 85.83859649122803  L 44.73645680819914 85.06666666666672  L 44.73645680819914 87.6912280701755  L 42.1229868228404 87.6912280701755  L 40.124450951683684 85.83859649122803  L 36.896046852122936 84.6035087719298  L 35.666178623718906 83.36842105263156  L 35.666178623718906 81.67017543859652  L 38.125915080526966 79.97192982456136  L 36.896046852122936 77.8105263157895  L 34.28257686676443 78.89122807017543  L 33.05270863836017 80.89824561403509  L 33.05270863836017 82.90526315789475  L 32.591508052708605 84.14035087719299  L 32.591508052708605 86.45614035087726  L 28.90190336749629 87.22807017543857  L 26.749633967789126 88  L 24.597364568081957 87.6912280701755  L 22.137628111273898 85.06666666666672  L 22.752562225475913 84.14035087719299  L 22.752562225475913 82.90526315789475  L 25.212298682283972 79.97192982456136  L 26.134699853587108 78.89122807017543  L 25.212298682283972 77.8105263157895  L 22.752562225475913 77.03859649122808  L 21.215226939970762 78.42807017543862  L 19.37042459736449 77.8105263157895  L 16.756954612005984 78.42807017543862  L 16.756954612005984 79.97192982456136  L 15.219619326500835 80.89824561403509  L 13.221083455344115 78.89122807017543  L 11.83748169838941 78.42807017543862  L 11.83748169838941 75.95789473684215  L 9.531478770131798 74.10526315789468  L 7.686676427525526 72.87017543859645  L 10.30014641288426 70.55438596491229  L 10.915080527086502 68.54736842105262  L 9.531478770131798 66.38596491228077  L 6.918008784773065 67.7754385964912  L 4.765739385065899 67.7754385964912  L 3.3821376281111952 68.54736842105262  L 3.3821376281111952 67.1578947368422  L 1.3836017569547039 64.99649122807011  L 0.7686676427524617 64.0701754385965  L 2.3060029282576124 62.68070175438596  L 0.7686676427524617 58.51228070175432  Z " fill-rule="nonzero" fill="#ffffff" stroke="none" fill-opacity="0" transform="matrix(1 0 0 1 1236 579 )" />
    <path d="M 0.7686676427524617 58.51228070175432  L 0 56.04210526315785  L 1.3836017569547039 56.04210526315785  L 5.841874084919482 57.74035087719301  L 10.30014641288426 57.74035087719301  L 15.219619326500835 58.51228070175432  L 18.448023426061354 60.67368421052629  L 22.752562225475913 62.68070175438596  L 26.903367496339797 64.0701754385965  L 28.286969253294274 63.29824561403507  L 29.824304538799428 64.99649122807011  L 34.28257686676443 63.29824561403507  L 38.58711566617853 61.445614035087715  L 42.89165446559309 61.445614035087715  L 47.50366032210832 61.445614035087715  L 51.6544655929722 59.43859649122805  L 54.11420204978049 56.04210526315785  L 57.95754026354325 53.41754385964918  L 55.03660322108339 49.866666666666674  L 55.805270863836085 48.16842105263163  L 57.95754026354325 46.16140350877197  L 60.26354319180087 47.705263157894706  L 62.56954612005847 48.16842105263163  L 66.41288433382147 46.16140350877197  L 67.48901903367505 43.6912280701755  L 69.94875549048311 44.3087719298245  L 73.3308931185943 41.83859649122803  L 73.3308931185943 39.831578947368484  L 76.25183016105416 38.287719298245634  L 79.4802342606149 36.89824561403509  L 83.78477306002924 36.126315789473665  L 85.78330893118596 36.126315789473665  L 86.70571010248909 34.73684210526312  L 83.78477306002924 31.49473684210534  L 79.4802342606149 29.178947368421063  L 76.25183016105416 31.49473684210534  L 74.56076134699856 30.259649122807108  L 72.25475841874072 30.259649122807108  L 71.6398243045387 31.49473684210534  L 69.94875549048311 30.259649122807108  L 70.87115666178624 28.098245614035136  L 71.6398243045387 24.084210526315815  L 73.3308931185943 19.76140350877199  L 77.1742313323573 21.150877192982534  L 81.1713030746705 18.68070175438595  L 82.8623718887261 17.291228070175407  L 81.9399707174232 15.747368421052556  L 83.78477306002924 11.57894736842104  L 84.3668122270742 8.954385964912262  L 85.78330893118596 7.873684210526335  L 86.70571010248909 6.021052631578982  L 85.78330893118596 4.477192982456131  L 83.78477306002924 4.014035087719208  L 83.78477306002924 2.4701754385964705  L 84.86090775988282 1.698245614035045  L 88.39677891654469 0  L 89.0117130307467 0.9263157894737334  L 88.39677891654469 1.698245614035045  L 87.47437774524155 4.014035087719208  L 89.62664714494872 5.094736842105249  L 91.16398243045387 3.3964912280702038  L 92.70131771595902 4.477192982456131  L 92.70131771595902 7.1017543859649095  L 94.0849194729135 9.880701754385882  L 95.77598828696932 9.880701754385882  L 99.31185944363096 8.954385964912262  L 101.77159590043925 7.1017543859649095  L 104.07759882869686 8.954385964912262  L 105 9.880701754385882  L 105 12.196491228070157  L 103.15519765739396 16.364912280701787  L 104.07759882869686 18.68070175438595  L 104.07759882869686 19.76140350877199  L 102.38653001464127 20.533333333333303  L 102.38653001464127 22.077192982456154  L 101.77159590043925 24.084210526315815  L 102.38653001464127 25.473684210526244  L 101.77159590043925 26.24561403508767  L 100.56768558951967 24.701754385964932  L 99.31185944363096 26.70877192982448  L 96.69838945827223 29.178947368421063  L 95.77598828696932 31.031578947368416  L 97.62079062957537 34.27368421052631  L 99.31185944363096 32.42105263157896  L 100.08052708638365 33.656140350877195  L 97.62079062957537 35.50877192982455  L 98.5431918008785 36.89824561403509  L 97.62079062957537 38.287719298245634  L 97.62079062957537 39.831578947368484  L 96.69838945827223 38.287719298245634  L 95.77598828696932 39.21403508771925  L 94.0849194729135 38.287719298245634  L 94.0849194729135 39.831578947368484  L 95.16105417276708 41.37543859649122  L 95.77598828696932 45.54385964912274  L 97.62079062957537 48.16842105263163  L 100.08052708638365 46.77894736842097  L 101.77159590043925 49.866666666666674  L 101.15666178623724 51.41052631578941  L 102.38653001464127 52.18245614035095  L 103.15519765739396 53.41754385964918  L 101.77159590043925 54.34385964912281  L 101.15666178623724 55.11578947368412  L 99.31185944363096 56.04210526315785  L 96.69838945827223 56.814035087719276  L 94.0849194729135 58.51228070175432  L 91.16398243045387 60.056140350877286  L 89.62664714494872 62.68070175438596  L 87.47437774524155 59.43859649122805  L 87.47437774524155 61.445614035087715  L 86.70571010248909 64.99649122807011  L 84.86090775988282 64.99649122807011  L 83.78477306002924 65.61403508771923  L 81.9399707174232 63.29824561403507  L 82.8623718887261 62.68070175438596  L 81.9399707174232 60.67368421052629  L 80.40263543191804 58.51228070175432  L 79.4802342606149 58.51228070175432  L 77.1742313323573 60.67368421052629  L 77.1742313323573 62.06315789473683  L 75.63689604685214 62.68070175438596  L 73.94582723279655 63.29824561403507  L 73.3308931185943 62.68070175438596  L 70.87115666178624 64.99649122807011  L 69.02635431917997 64.99649122807011  L 69.02635431917997 62.68070175438596  L 69.02635431917997 62.06315789473683  L 67.48901903367505 62.68070175438596  L 66.41288433382147 65.61403508771923  L 65.49048316251833 66.38596491228077  L 65.49048316251833 68.54736842105262  L 66.41288433382147 69.93684210526317  L 65.49048316251833 71.32631578947371  L 62.56954612005847 72.87017543859645  L 59.18740849194728 72.25263157894733  L 57.95754026354325 75.34035087719303  L 57.95754026354325 77.03859649122808  L 55.805270863836085 77.03859649122808  L 55.03660322108339 77.8105263157895  L 54.11420204978049 77.03859649122808  L 52.57686676427533 77.8105263157895  L 50.42459736456817 77.8105263157895  L 48.42606149341145 80.89824561403509  L 46.12005856515384 83.36842105263156  L 46.12005856515384 85.83859649122803  L 44.73645680819914 85.06666666666672  L 44.73645680819914 87.6912280701755  L 42.1229868228404 87.6912280701755  L 40.124450951683684 85.83859649122803  L 36.896046852122936 84.6035087719298  L 35.666178623718906 83.36842105263156  L 35.666178623718906 81.67017543859652  L 38.125915080526966 79.97192982456136  L 36.896046852122936 77.8105263157895  L 34.28257686676443 78.89122807017543  L 33.05270863836017 80.89824561403509  L 33.05270863836017 82.90526315789475  L 32.591508052708605 84.14035087719299  L 32.591508052708605 86.45614035087726  L 28.90190336749629 87.22807017543857  L 26.749633967789126 88  L 24.597364568081957 87.6912280701755  L 22.137628111273898 85.06666666666672  L 22.752562225475913 84.14035087719299  L 22.752562225475913 82.90526315789475  L 25.212298682283972 79.97192982456136  L 26.134699853587108 78.89122807017543  L 25.212298682283972 77.8105263157895  L 22.752562225475913 77.03859649122808  L 21.215226939970762 78.42807017543862  L 19.37042459736449 77.8105263157895  L 16.756954612005984 78.42807017543862  L 16.756954612005984 79.97192982456136  L 15.219619326500835 80.89824561403509  L 13.221083455344115 78.89122807017543  L 11.83748169838941 78.42807017543862  L 11.83748169838941 75.95789473684215  L 9.531478770131798 74.10526315789468  L 7.686676427525526 72.87017543859645  L 10.30014641288426 70.55438596491229  L 10.915080527086502 68.54736842105262  L 9.531478770131798 66.38596491228077  L 6.918008784773065 67.7754385964912  L 4.765739385065899 67.7754385964912  L 3.3821376281111952 68.54736842105262  L 3.3821376281111952 67.1578947368422  L 1.3836017569547039 64.99649122807011  L 0.7686676427524617 64.0701754385965  L 2.3060029282576124 62.68070175438596  L 0.7686676427524617 58.51228070175432  Z " stroke-width="2" stroke="#ffa897" fill="none" transform="matrix(1 0 0 1 1236 579 )" mask="url(#clip286)" />
  </g>
</svg>