<?xml version="1.0" encoding="utf-8"?>
<svg version="1.1" xmlns:xlink="http://www.w3.org/1999/xlink" width="9px" height="9px" xmlns="http://www.w3.org/2000/svg">
  <defs>
    <mask fill="white" id="clip168">
      <path d="M 9 3.5  L 9 4.5  L 7.9714285714285325 5.375  L 6.2999999999999545 5.375  L 6.2999999999999545 6.5  L 6.942857142857065 8  L 4.371428571428623 9  L 3.342857142857156 8  L 1.9285714285713311 9  L 1.1571428571428442 8  L 0 8  L 1.1571428571428442 6.5  L 0 6.5  L 1.1571428571428442 5.375  L 2.7000000000000455 5.375  L 1.9285714285713311 3.5  L 1.9285714285713311 2  L 4.371428571428623 0.875  L 4.371428571428623 0  L 5.5285714285714675 0  L 6.2999999999999545 0.875  L 9 0.875  L 7.9714285714285325 2.875  L 9 3.5  Z " fill-rule="evenodd" />
    </mask>
  </defs>
  <g transform="matrix(1 0 0 1 -1307 -646 )">
    <path d="M 9 3.5  L 9 4.5  L 7.9714285714285325 5.375  L 6.2999999999999545 5.375  L 6.2999999999999545 6.5  L 6.942857142857065 8  L 4.371428571428623 9  L 3.342857142857156 8  L 1.9285714285713311 9  L 1.1571428571428442 8  L 0 8  L 1.1571428571428442 6.5  L 0 6.5  L 1.1571428571428442 5.375  L 2.7000000000000455 5.375  L 1.9285714285713311 3.5  L 1.9285714285713311 2  L 4.371428571428623 0.875  L 4.371428571428623 0  L 5.5285714285714675 0  L 6.2999999999999545 0.875  L 9 0.875  L 7.9714285714285325 2.875  L 9 3.5  Z " fill-rule="nonzero" fill="#ffffff" stroke="none" fill-opacity="0" transform="matrix(1 0 0 1 1307 646 )" />
    <path d="M 9 3.5  L 9 4.5  L 7.9714285714285325 5.375  L 6.2999999999999545 5.375  L 6.2999999999999545 6.5  L 6.942857142857065 8  L 4.371428571428623 9  L 3.342857142857156 8  L 1.9285714285713311 9  L 1.1571428571428442 8  L 0 8  L 1.1571428571428442 6.5  L 0 6.5  L 1.1571428571428442 5.375  L 2.7000000000000455 5.375  L 1.9285714285713311 3.5  L 1.9285714285713311 2  L 4.371428571428623 0.875  L 4.371428571428623 0  L 5.5285714285714675 0  L 6.2999999999999545 0.875  L 9 0.875  L 7.9714285714285325 2.875  L 9 3.5  Z " stroke-width="2" stroke="#ffa897" fill="none" transform="matrix(1 0 0 1 1307 646 )" mask="url(#clip168)" />
  </g>
</svg>