<?xml version="1.0" encoding="utf-8"?>
<svg version="1.1" xmlns:xlink="http://www.w3.org/1999/xlink" width="32px" height="43px" xmlns="http://www.w3.org/2000/svg">
  <defs>
    <mask fill="white" id="clip795">
      <path d="M 1.9176029962548 2.0591549295775167  L 0 0  L 32 0  L 32 4.723943661971816  L 30.0823970037452 6.54084507042262  L 28.76404494382018 9.932394366197173  L 27.445692883895163 12.112676056338046  L 27.08614232209743 15.988732394366252  L 27.08614232209743 19.259154929577562  L 27.445692883895163 24.830985915492988  L 21.93258426966281 33.55211267605637  L 14.741573033707937 42.27323943661975  L 10.42696629213492 43  L 7.430711610486924 40.21408450704223  L 5.033707865168708 37.18591549295786  L 5.033707865168708 32.340845070422574  L 8.749063670411942 26.769014084507035  L 9.588014981273545 21.68169014084504  L 8.749063670411942 17.684507042253472  L 6.591760299625321 14.777464788732459  L 6.112359550561678 10.780281690140896  L 5.513108614232351 8.478873239436666  L 8.149812734082388 7.3887323943662295  L 7.430711610486924 5.329577464788713  L 6.112359550561678 4.723943661971816  L 4.314606741573016 4.723943661971816  L 1.9176029962548 3.6338028169014933  L 1.9176029962548 2.0591549295775167  Z " fill-rule="evenodd" />
    </mask>
  </defs>
  <g transform="matrix(1 0 0 1 -1363 -738 )">
    <path d="M 1.9176029962548 2.0591549295775167  L 0 0  L 32 0  L 32 4.723943661971816  L 30.0823970037452 6.54084507042262  L 28.76404494382018 9.932394366197173  L 27.445692883895163 12.112676056338046  L 27.08614232209743 15.988732394366252  L 27.08614232209743 19.259154929577562  L 27.445692883895163 24.830985915492988  L 21.93258426966281 33.55211267605637  L 14.741573033707937 42.27323943661975  L 10.42696629213492 43  L 7.430711610486924 40.21408450704223  L 5.033707865168708 37.18591549295786  L 5.033707865168708 32.340845070422574  L 8.749063670411942 26.769014084507035  L 9.588014981273545 21.68169014084504  L 8.749063670411942 17.684507042253472  L 6.591760299625321 14.777464788732459  L 6.112359550561678 10.780281690140896  L 5.513108614232351 8.478873239436666  L 8.149812734082388 7.3887323943662295  L 7.430711610486924 5.329577464788713  L 6.112359550561678 4.723943661971816  L 4.314606741573016 4.723943661971816  L 1.9176029962548 3.6338028169014933  L 1.9176029962548 2.0591549295775167  Z " fill-rule="nonzero" fill="#ffffff" stroke="none" fill-opacity="0" transform="matrix(1 0 0 1 1363 738 )" />
    <path d="M 1.9176029962548 2.0591549295775167  L 0 0  L 32 0  L 32 4.723943661971816  L 30.0823970037452 6.54084507042262  L 28.76404494382018 9.932394366197173  L 27.445692883895163 12.112676056338046  L 27.08614232209743 15.988732394366252  L 27.08614232209743 19.259154929577562  L 27.445692883895163 24.830985915492988  L 21.93258426966281 33.55211267605637  L 14.741573033707937 42.27323943661975  L 10.42696629213492 43  L 7.430711610486924 40.21408450704223  L 5.033707865168708 37.18591549295786  L 5.033707865168708 32.340845070422574  L 8.749063670411942 26.769014084507035  L 9.588014981273545 21.68169014084504  L 8.749063670411942 17.684507042253472  L 6.591760299625321 14.777464788732459  L 6.112359550561678 10.780281690140896  L 5.513108614232351 8.478873239436666  L 8.149812734082388 7.3887323943662295  L 7.430711610486924 5.329577464788713  L 6.112359550561678 4.723943661971816  L 4.314606741573016 4.723943661971816  L 1.9176029962548 3.6338028169014933  L 1.9176029962548 2.0591549295775167  Z " stroke-width="2" stroke="#ffa897" fill="none" transform="matrix(1 0 0 1 1363 738 )" mask="url(#clip795)" />
  </g>
</svg>