<?xml version="1.0" encoding="utf-8"?>
<svg version="1.1" xmlns:xlink="http://www.w3.org/1999/xlink" width="9px" height="18px" xmlns="http://www.w3.org/2000/svg">
  <defs>
    <mask fill="white" id="clip289">
      <path d="M 5.7735849056603 0  L 7.132075471698045 0  L 9 0  L 9 0.931034482758605  L 9 2.0172413793103487  L 9 3.1034482758620925  L 8.320754716981128 5.741379310344769  L 8.320754716981128 9.465517241379303  L 7.132075471698045 11.793103448275815  L 7.132075471698045 13.189655172413836  L 5.7735849056603 14.27586206896558  L 5.7735849056603 15.827586206896513  L 5.7735849056603 18  L 4.415094339622556 18  L 4.415094339622556 15.827586206896513  L 2.377358490565939 15.051724137931046  L 0.8490566037737608 13.189655172413836  L 0 11.793103448275815  L 0 10.706896551724185  L 0.8490566037737608 9.465517241379303  L 1.5283018867924056 7.6034482758620925  L 2.377358490565939 4.810344827586164  L 3.0566037735848113 3.1034482758620925  L 4.415094339622556 2.0172413793103487  L 4.415094339622556 0.931034482758605  L 5.7735849056603 0  Z " fill-rule="evenodd" />
    </mask>
  </defs>
  <g transform="matrix(1 0 0 1 -1336 -729 )">
    <path d="M 5.7735849056603 0  L 7.132075471698045 0  L 9 0  L 9 0.931034482758605  L 9 2.0172413793103487  L 9 3.1034482758620925  L 8.320754716981128 5.741379310344769  L 8.320754716981128 9.465517241379303  L 7.132075471698045 11.793103448275815  L 7.132075471698045 13.189655172413836  L 5.7735849056603 14.27586206896558  L 5.7735849056603 15.827586206896513  L 5.7735849056603 18  L 4.415094339622556 18  L 4.415094339622556 15.827586206896513  L 2.377358490565939 15.051724137931046  L 0.8490566037737608 13.189655172413836  L 0 11.793103448275815  L 0 10.706896551724185  L 0.8490566037737608 9.465517241379303  L 1.5283018867924056 7.6034482758620925  L 2.377358490565939 4.810344827586164  L 3.0566037735848113 3.1034482758620925  L 4.415094339622556 2.0172413793103487  L 4.415094339622556 0.931034482758605  L 5.7735849056603 0  Z " fill-rule="nonzero" fill="#ffffff" stroke="none" fill-opacity="0" transform="matrix(1 0 0 1 1336 729 )" />
    <path d="M 5.7735849056603 0  L 7.132075471698045 0  L 9 0  L 9 0.931034482758605  L 9 2.0172413793103487  L 9 3.1034482758620925  L 8.320754716981128 5.741379310344769  L 8.320754716981128 9.465517241379303  L 7.132075471698045 11.793103448275815  L 7.132075471698045 13.189655172413836  L 5.7735849056603 14.27586206896558  L 5.7735849056603 15.827586206896513  L 5.7735849056603 18  L 4.415094339622556 18  L 4.415094339622556 15.827586206896513  L 2.377358490565939 15.051724137931046  L 0.8490566037737608 13.189655172413836  L 0 11.793103448275815  L 0 10.706896551724185  L 0.8490566037737608 9.465517241379303  L 1.5283018867924056 7.6034482758620925  L 2.377358490565939 4.810344827586164  L 3.0566037735848113 3.1034482758620925  L 4.415094339622556 2.0172413793103487  L 4.415094339622556 0.931034482758605  L 5.7735849056603 0  Z " stroke-width="2" stroke="#ffa897" fill="none" transform="matrix(1 0 0 1 1336 729 )" mask="url(#clip289)" />
  </g>
</svg>