<?xml version="1.0" encoding="utf-8"?>
<svg version="1.1" xmlns:xlink="http://www.w3.org/1999/xlink" width="38px" height="28px" xmlns="http://www.w3.org/2000/svg">
  <defs>
    <mask fill="white" id="clip297">
      <path d="M 3.951999999999998 1.2375690607734668  L 4.711999999999989 0  L 7.448000000000093 0  L 8.3599999999999 0  L 9.271999999999935 2.939226519337012  L 10.183999999999969 4.022099447513824  L 12.463999999999942 3.5580110497237456  L 13.52800000000002 4.022099447513824  L 14.288000000000011 2.939226519337012  L 16.263999999999896 4.7955801104972124  L 17.935999999999922 4.022099447513824  L 19.607999999999947 4.022099447513824  L 20.216000000000122 4.7955801104972124  L 20.216000000000122 5.878453038674024  L 20.216000000000122 6.806629834254181  L 22.192000000000007 6.806629834254181  L 23.71199999999999 9.281767955801115  L 24.624000000000024 8.662983425414382  L 24.624000000000024 6.806629834254181  L 25.687999999999874 6.806629834254181  L 27.05600000000004 9.281767955801115  L 28.271999999999938 11.292817679558084  L 29.336000000000013 11.292817679558084  L 29.336000000000013 9.281767955801115  L 31.160000000000082 9.281767955801115  L 31.920000000000076 7.734806629834225  L 31.920000000000076 8.662983425414382  L 32.983999999999924 7.734806629834225  L 35.11200000000008 9.281767955801115  L 35.72000000000003 10.674033149171237  L 36.48000000000002 9.900552486187848  L 38 10.674033149171237  L 37.24000000000001 11.292817679558084  L 37.24000000000001 12.83977900552486  L 35.72000000000003 13.767955801105018  L 36.48000000000002 15.93370165745853  L 35.11200000000008 14.541436464088408  L 32.983999999999924 12.83977900552486  L 32.983999999999924 14.541436464088408  L 32.983999999999924 15.93370165745853  L 31.920000000000076 17.01657458563534  L 30.40000000000009 19.33701657458562  L 28.271999999999938 19.955801104972352  L 26.448000000000093 20.41988950276243  L 28.271999999999938 22.27624309392263  L 28.271999999999938 23.204419889502674  L 24.624000000000024 24.441988950276254  L 23.104000000000042 22.27624309392263  L 21.58400000000006 23.204419889502674  L 21.58400000000006 24.90607734806622  L 20.216000000000122 26.607734806629878  L 20.216000000000122 28  L 18.544000000000096 28  L 18.544000000000096 26.607734806629878  L 17.023999999999887 23.82320441988952  L 16.263999999999896 22.27624309392263  L 16.263999999999896 21.19337016574582  L 14.288000000000011 18.40883977900546  L 13.52800000000002 17.01657458563534  L 12.463999999999942 18.40883977900546  L 11.855999999999995 15.93370165745853  L 9.271999999999935 15.93370165745853  L 8.3599999999999 15.93370165745853  L 7.448000000000093 14.541436464088408  L 8.3599999999999 13.767955801105018  L 7.448000000000093 11.292817679558084  L 6.3840000000000146 9.900552486187848  L 5.319999999999936 9.900552486187848  L 3.951999999999998 11.292817679558084  L 2.7360000000001037 11.292817679558084  L 1.6720000000000255 9.281767955801115  L 1.6720000000000255 7.734806629834225  L 1.6720000000000255 5.878453038674024  L 0.9120000000000346 4.022099447513824  L 0 4.022099447513824  L 0 2.011049723756969  L 1.6720000000000255 2.939226519337012  L 2.7360000000001037 2.939226519337012  L 3.951999999999998 2.939226519337012  L 3.344000000000051 2.011049723756969  L 3.951999999999998 1.2375690607734668  Z " fill-rule="evenodd" />
    </mask>
  </defs>
  <g transform="matrix(1 0 0 1 -1330 -614 )">
    <path d="M 3.951999999999998 1.2375690607734668  L 4.711999999999989 0  L 7.448000000000093 0  L 8.3599999999999 0  L 9.271999999999935 2.939226519337012  L 10.183999999999969 4.022099447513824  L 12.463999999999942 3.5580110497237456  L 13.52800000000002 4.022099447513824  L 14.288000000000011 2.939226519337012  L 16.263999999999896 4.7955801104972124  L 17.935999999999922 4.022099447513824  L 19.607999999999947 4.022099447513824  L 20.216000000000122 4.7955801104972124  L 20.216000000000122 5.878453038674024  L 20.216000000000122 6.806629834254181  L 22.192000000000007 6.806629834254181  L 23.71199999999999 9.281767955801115  L 24.624000000000024 8.662983425414382  L 24.624000000000024 6.806629834254181  L 25.687999999999874 6.806629834254181  L 27.05600000000004 9.281767955801115  L 28.271999999999938 11.292817679558084  L 29.336000000000013 11.292817679558084  L 29.336000000000013 9.281767955801115  L 31.160000000000082 9.281767955801115  L 31.920000000000076 7.734806629834225  L 31.920000000000076 8.662983425414382  L 32.983999999999924 7.734806629834225  L 35.11200000000008 9.281767955801115  L 35.72000000000003 10.674033149171237  L 36.48000000000002 9.900552486187848  L 38 10.674033149171237  L 37.24000000000001 11.292817679558084  L 37.24000000000001 12.83977900552486  L 35.72000000000003 13.767955801105018  L 36.48000000000002 15.93370165745853  L 35.11200000000008 14.541436464088408  L 32.983999999999924 12.83977900552486  L 32.983999999999924 14.541436464088408  L 32.983999999999924 15.93370165745853  L 31.920000000000076 17.01657458563534  L 30.40000000000009 19.33701657458562  L 28.271999999999938 19.955801104972352  L 26.448000000000093 20.41988950276243  L 28.271999999999938 22.27624309392263  L 28.271999999999938 23.204419889502674  L 24.624000000000024 24.441988950276254  L 23.104000000000042 22.27624309392263  L 21.58400000000006 23.204419889502674  L 21.58400000000006 24.90607734806622  L 20.216000000000122 26.607734806629878  L 20.216000000000122 28  L 18.544000000000096 28  L 18.544000000000096 26.607734806629878  L 17.023999999999887 23.82320441988952  L 16.263999999999896 22.27624309392263  L 16.263999999999896 21.19337016574582  L 14.288000000000011 18.40883977900546  L 13.52800000000002 17.01657458563534  L 12.463999999999942 18.40883977900546  L 11.855999999999995 15.93370165745853  L 9.271999999999935 15.93370165745853  L 8.3599999999999 15.93370165745853  L 7.448000000000093 14.541436464088408  L 8.3599999999999 13.767955801105018  L 7.448000000000093 11.292817679558084  L 6.3840000000000146 9.900552486187848  L 5.319999999999936 9.900552486187848  L 3.951999999999998 11.292817679558084  L 2.7360000000001037 11.292817679558084  L 1.6720000000000255 9.281767955801115  L 1.6720000000000255 7.734806629834225  L 1.6720000000000255 5.878453038674024  L 0.9120000000000346 4.022099447513824  L 0 4.022099447513824  L 0 2.011049723756969  L 1.6720000000000255 2.939226519337012  L 2.7360000000001037 2.939226519337012  L 3.951999999999998 2.939226519337012  L 3.344000000000051 2.011049723756969  L 3.951999999999998 1.2375690607734668  Z " fill-rule="nonzero" fill="#ffffff" stroke="none" fill-opacity="0" transform="matrix(1 0 0 1 1330 614 )" />
    <path d="M 3.951999999999998 1.2375690607734668  L 4.711999999999989 0  L 7.448000000000093 0  L 8.3599999999999 0  L 9.271999999999935 2.939226519337012  L 10.183999999999969 4.022099447513824  L 12.463999999999942 3.5580110497237456  L 13.52800000000002 4.022099447513824  L 14.288000000000011 2.939226519337012  L 16.263999999999896 4.7955801104972124  L 17.935999999999922 4.022099447513824  L 19.607999999999947 4.022099447513824  L 20.216000000000122 4.7955801104972124  L 20.216000000000122 5.878453038674024  L 20.216000000000122 6.806629834254181  L 22.192000000000007 6.806629834254181  L 23.71199999999999 9.281767955801115  L 24.624000000000024 8.662983425414382  L 24.624000000000024 6.806629834254181  L 25.687999999999874 6.806629834254181  L 27.05600000000004 9.281767955801115  L 28.271999999999938 11.292817679558084  L 29.336000000000013 11.292817679558084  L 29.336000000000013 9.281767955801115  L 31.160000000000082 9.281767955801115  L 31.920000000000076 7.734806629834225  L 31.920000000000076 8.662983425414382  L 32.983999999999924 7.734806629834225  L 35.11200000000008 9.281767955801115  L 35.72000000000003 10.674033149171237  L 36.48000000000002 9.900552486187848  L 38 10.674033149171237  L 37.24000000000001 11.292817679558084  L 37.24000000000001 12.83977900552486  L 35.72000000000003 13.767955801105018  L 36.48000000000002 15.93370165745853  L 35.11200000000008 14.541436464088408  L 32.983999999999924 12.83977900552486  L 32.983999999999924 14.541436464088408  L 32.983999999999924 15.93370165745853  L 31.920000000000076 17.01657458563534  L 30.40000000000009 19.33701657458562  L 28.271999999999938 19.955801104972352  L 26.448000000000093 20.41988950276243  L 28.271999999999938 22.27624309392263  L 28.271999999999938 23.204419889502674  L 24.624000000000024 24.441988950276254  L 23.104000000000042 22.27624309392263  L 21.58400000000006 23.204419889502674  L 21.58400000000006 24.90607734806622  L 20.216000000000122 26.607734806629878  L 20.216000000000122 28  L 18.544000000000096 28  L 18.544000000000096 26.607734806629878  L 17.023999999999887 23.82320441988952  L 16.263999999999896 22.27624309392263  L 16.263999999999896 21.19337016574582  L 14.288000000000011 18.40883977900546  L 13.52800000000002 17.01657458563534  L 12.463999999999942 18.40883977900546  L 11.855999999999995 15.93370165745853  L 9.271999999999935 15.93370165745853  L 8.3599999999999 15.93370165745853  L 7.448000000000093 14.541436464088408  L 8.3599999999999 13.767955801105018  L 7.448000000000093 11.292817679558084  L 6.3840000000000146 9.900552486187848  L 5.319999999999936 9.900552486187848  L 3.951999999999998 11.292817679558084  L 2.7360000000001037 11.292817679558084  L 1.6720000000000255 9.281767955801115  L 1.6720000000000255 7.734806629834225  L 1.6720000000000255 5.878453038674024  L 0.9120000000000346 4.022099447513824  L 0 4.022099447513824  L 0 2.011049723756969  L 1.6720000000000255 2.939226519337012  L 2.7360000000001037 2.939226519337012  L 3.951999999999998 2.939226519337012  L 3.344000000000051 2.011049723756969  L 3.951999999999998 1.2375690607734668  Z " stroke-width="2" stroke="#ffa897" fill="none" transform="matrix(1 0 0 1 1330 614 )" mask="url(#clip297)" />
  </g>
</svg>