<?xml version="1.0" encoding="utf-8"?>
<svg version="1.1" xmlns:xlink="http://www.w3.org/1999/xlink" width="48px" height="46px" xmlns="http://www.w3.org/2000/svg">
  <defs>
    <mask fill="white" id="clip310">
      <path d="M 0.611464968152859 2.647692307692296  L 0.611464968152859 0.47230769230770875  L 2.4380952380952294 0  L 4.891719745222872 0.47230769230770875  L 5.656050955414003 2.18153846153848  L 6.267515923566862 4.978461538461602  L 9.01910828025484 7.4646153846154  L 11.312101910828005 7.4646153846154  L 12.99363057324831 8.396923076923144  L 15.74522292993629 9.329230769230776  L 16.50955414012742 5.600000000000023  L 19.414012738853444 6.221538461538444  L 21.554140127388564 6.221538461538444  L 22.318471337579695 4.978461538461602  L 21.554140127388564 2.647692307692296  L 22.929936305732554 2.18153846153848  L 24.15286624203827 0.47230769230770875  L 25.681528662420305 2.18153846153848  L 25.681528662420305 3.8907692307691377  L 27.057324840764295 3.8907692307691377  L 29.044585987261144 4.978461538461602  L 30.420382165605133 6.843076923076865  L 31.49044585987258 10.106153846153802  L 34.547770700636875 10.106153846153802  L 36.076433121019136 9.329230769230776  L 37.75796178343944 9.329230769230776  L 40.815286624203964 10.106153846153802  L 42.802547770700585 12.28153846153839  L 45.70700636942661 12.903076923076924  L 48 12.903076923076924  L 48 15.389230769230721  L 47.23566878980887 17.720000000000027  L 45.70700636942661 20.827692307692246  L 44.0254777070063 22.226153846153807  L 42.038216560509454 25.178461538461537  L 39.74522292993629 23.935384615384578  L 36.076433121019136 23.15846153846155  L 36.076433121019136 25.178461538461537  L 34.547770700636875 27.819999999999936  L 36.076433121019136 29.995384615384637  L 38.67515923566884 32.947692307692364  L 36.99363057324831 32.947692307692364  L 35.312101910828005 34.19076923076932  L 36.99363057324831 35.278461538461556  L 38.67515923566884 37.14307692307693  L 35.312101910828005 37.764615384615354  L 33.32484076433116 37.764615384615354  L 33.32484076433116 36.52153846153851  L 30.420382165605133 36.52153846153851  L 29.044585987261144 35.278461538461556  L 29.808917197452274 32.170769230769224  L 27.057324840764295 32.170769230769224  L 27.057324840764295 34.19076923076932  L 24.15286624203827 34.19076923076932  L 25.681528662420305 36.52153846153851  L 22.318471337579695 38.6969230769231  L 22.318471337579695 41.1830769230769  L 22.929936305732554 43.66923076923081  L 20.484076433121118 45.06769230769237  L 17.27388535031855 46  L 15.74522292993629 43.66923076923081  L 14.675159235668843 41.1830769230769  L 13.757961783439441 39.31846153846152  L 12.382165605095452 35.278461538461556  L 9.783439490445744 35.278461538461556  L 9.01910828025484 34.19076923076932  L 9.783439490445744 32.170769230769224  L 7.184713375796264 29.995384615384637  L 5.656050955414003 32.170769230769224  L 4.891719745222872 29.995384615384637  L 5.656050955414003 27.819999999999936  L 4.891719745222872 25.178461538461537  L 5.656050955414003 23.15846153846155  L 4.891719745222872 20.827692307692246  L 5.656050955414003 18.496923076923053  L 3.974522292993697 15.389230769230721  L 6.267515923566862 15.389230769230721  L 4.891719745222872 13.680000000000064  L 3.2101910828025666 11.659999999999968  L 3.2101910828025666 9.329230769230776  L 0.611464968152859 8.396923076923144  L 0 5.600000000000023  L 1.6815286624203054 3.8907692307691377  L 0.611464968152859 2.647692307692296  Z " fill-rule="evenodd" />
    </mask>
  </defs>
  <g transform="matrix(1 0 0 1 -1230 -681 )">
    <path d="M 0.611464968152859 2.647692307692296  L 0.611464968152859 0.47230769230770875  L 2.4380952380952294 0  L 4.891719745222872 0.47230769230770875  L 5.656050955414003 2.18153846153848  L 6.267515923566862 4.978461538461602  L 9.01910828025484 7.4646153846154  L 11.312101910828005 7.4646153846154  L 12.99363057324831 8.396923076923144  L 15.74522292993629 9.329230769230776  L 16.50955414012742 5.600000000000023  L 19.414012738853444 6.221538461538444  L 21.554140127388564 6.221538461538444  L 22.318471337579695 4.978461538461602  L 21.554140127388564 2.647692307692296  L 22.929936305732554 2.18153846153848  L 24.15286624203827 0.47230769230770875  L 25.681528662420305 2.18153846153848  L 25.681528662420305 3.8907692307691377  L 27.057324840764295 3.8907692307691377  L 29.044585987261144 4.978461538461602  L 30.420382165605133 6.843076923076865  L 31.49044585987258 10.106153846153802  L 34.547770700636875 10.106153846153802  L 36.076433121019136 9.329230769230776  L 37.75796178343944 9.329230769230776  L 40.815286624203964 10.106153846153802  L 42.802547770700585 12.28153846153839  L 45.70700636942661 12.903076923076924  L 48 12.903076923076924  L 48 15.389230769230721  L 47.23566878980887 17.720000000000027  L 45.70700636942661 20.827692307692246  L 44.0254777070063 22.226153846153807  L 42.038216560509454 25.178461538461537  L 39.74522292993629 23.935384615384578  L 36.076433121019136 23.15846153846155  L 36.076433121019136 25.178461538461537  L 34.547770700636875 27.819999999999936  L 36.076433121019136 29.995384615384637  L 38.67515923566884 32.947692307692364  L 36.99363057324831 32.947692307692364  L 35.312101910828005 34.19076923076932  L 36.99363057324831 35.278461538461556  L 38.67515923566884 37.14307692307693  L 35.312101910828005 37.764615384615354  L 33.32484076433116 37.764615384615354  L 33.32484076433116 36.52153846153851  L 30.420382165605133 36.52153846153851  L 29.044585987261144 35.278461538461556  L 29.808917197452274 32.170769230769224  L 27.057324840764295 32.170769230769224  L 27.057324840764295 34.19076923076932  L 24.15286624203827 34.19076923076932  L 25.681528662420305 36.52153846153851  L 22.318471337579695 38.6969230769231  L 22.318471337579695 41.1830769230769  L 22.929936305732554 43.66923076923081  L 20.484076433121118 45.06769230769237  L 17.27388535031855 46  L 15.74522292993629 43.66923076923081  L 14.675159235668843 41.1830769230769  L 13.757961783439441 39.31846153846152  L 12.382165605095452 35.278461538461556  L 9.783439490445744 35.278461538461556  L 9.01910828025484 34.19076923076932  L 9.783439490445744 32.170769230769224  L 7.184713375796264 29.995384615384637  L 5.656050955414003 32.170769230769224  L 4.891719745222872 29.995384615384637  L 5.656050955414003 27.819999999999936  L 4.891719745222872 25.178461538461537  L 5.656050955414003 23.15846153846155  L 4.891719745222872 20.827692307692246  L 5.656050955414003 18.496923076923053  L 3.974522292993697 15.389230769230721  L 6.267515923566862 15.389230769230721  L 4.891719745222872 13.680000000000064  L 3.2101910828025666 11.659999999999968  L 3.2101910828025666 9.329230769230776  L 0.611464968152859 8.396923076923144  L 0 5.600000000000023  L 1.6815286624203054 3.8907692307691377  L 0.611464968152859 2.647692307692296  Z " fill-rule="nonzero" fill="#ffffff" stroke="none" fill-opacity="0" transform="matrix(1 0 0 1 1230 681 )" />
    <path d="M 0.611464968152859 2.647692307692296  L 0.611464968152859 0.47230769230770875  L 2.4380952380952294 0  L 4.891719745222872 0.47230769230770875  L 5.656050955414003 2.18153846153848  L 6.267515923566862 4.978461538461602  L 9.01910828025484 7.4646153846154  L 11.312101910828005 7.4646153846154  L 12.99363057324831 8.396923076923144  L 15.74522292993629 9.329230769230776  L 16.50955414012742 5.600000000000023  L 19.414012738853444 6.221538461538444  L 21.554140127388564 6.221538461538444  L 22.318471337579695 4.978461538461602  L 21.554140127388564 2.647692307692296  L 22.929936305732554 2.18153846153848  L 24.15286624203827 0.47230769230770875  L 25.681528662420305 2.18153846153848  L 25.681528662420305 3.8907692307691377  L 27.057324840764295 3.8907692307691377  L 29.044585987261144 4.978461538461602  L 30.420382165605133 6.843076923076865  L 31.49044585987258 10.106153846153802  L 34.547770700636875 10.106153846153802  L 36.076433121019136 9.329230769230776  L 37.75796178343944 9.329230769230776  L 40.815286624203964 10.106153846153802  L 42.802547770700585 12.28153846153839  L 45.70700636942661 12.903076923076924  L 48 12.903076923076924  L 48 15.389230769230721  L 47.23566878980887 17.720000000000027  L 45.70700636942661 20.827692307692246  L 44.0254777070063 22.226153846153807  L 42.038216560509454 25.178461538461537  L 39.74522292993629 23.935384615384578  L 36.076433121019136 23.15846153846155  L 36.076433121019136 25.178461538461537  L 34.547770700636875 27.819999999999936  L 36.076433121019136 29.995384615384637  L 38.67515923566884 32.947692307692364  L 36.99363057324831 32.947692307692364  L 35.312101910828005 34.19076923076932  L 36.99363057324831 35.278461538461556  L 38.67515923566884 37.14307692307693  L 35.312101910828005 37.764615384615354  L 33.32484076433116 37.764615384615354  L 33.32484076433116 36.52153846153851  L 30.420382165605133 36.52153846153851  L 29.044585987261144 35.278461538461556  L 29.808917197452274 32.170769230769224  L 27.057324840764295 32.170769230769224  L 27.057324840764295 34.19076923076932  L 24.15286624203827 34.19076923076932  L 25.681528662420305 36.52153846153851  L 22.318471337579695 38.6969230769231  L 22.318471337579695 41.1830769230769  L 22.929936305732554 43.66923076923081  L 20.484076433121118 45.06769230769237  L 17.27388535031855 46  L 15.74522292993629 43.66923076923081  L 14.675159235668843 41.1830769230769  L 13.757961783439441 39.31846153846152  L 12.382165605095452 35.278461538461556  L 9.783439490445744 35.278461538461556  L 9.01910828025484 34.19076923076932  L 9.783439490445744 32.170769230769224  L 7.184713375796264 29.995384615384637  L 5.656050955414003 32.170769230769224  L 4.891719745222872 29.995384615384637  L 5.656050955414003 27.819999999999936  L 4.891719745222872 25.178461538461537  L 5.656050955414003 23.15846153846155  L 4.891719745222872 20.827692307692246  L 5.656050955414003 18.496923076923053  L 3.974522292993697 15.389230769230721  L 6.267515923566862 15.389230769230721  L 4.891719745222872 13.680000000000064  L 3.2101910828025666 11.659999999999968  L 3.2101910828025666 9.329230769230776  L 0.611464968152859 8.396923076923144  L 0 5.600000000000023  L 1.6815286624203054 3.8907692307691377  L 0.611464968152859 2.647692307692296  Z " stroke-width="2" stroke="#ffa897" fill="none" transform="matrix(1 0 0 1 1230 681 )" mask="url(#clip310)" />
  </g>
</svg>