<?xml version="1.0" encoding="utf-8"?>
<svg version="1.1" xmlns:xlink="http://www.w3.org/1999/xlink" width="6px" height="9px" xmlns="http://www.w3.org/2000/svg">
  <defs>
    <mask fill="white" id="clip1277">
      <path d="M 1.125 2.111111111111086  L 2 0.7777777777777146  L 2.875 0  L 4 0.7777777777777146  L 2.875 2.111111111111086  L 4.625 3.444444444444457  L 6 5.111111111111086  L 4.625 5.888888888888914  L 4.625 7.111111111111086  L 4.625 8.222222222222285  L 2 9  L 1.125 8.222222222222285  L 0 8.222222222222285  L 0 6.555555555555543  L 1.125 6.555555555555543  L 0 4.444444444444457  L 0 3.444444444444457  L 1.125 2.6666666666666288  L 1.125 2.111111111111086  Z " fill-rule="evenodd" />
    </mask>
  </defs>
  <g transform="matrix(1 0 0 1 -1313 -650 )">
    <path d="M 1.125 2.111111111111086  L 2 0.7777777777777146  L 2.875 0  L 4 0.7777777777777146  L 2.875 2.111111111111086  L 4.625 3.444444444444457  L 6 5.111111111111086  L 4.625 5.888888888888914  L 4.625 7.111111111111086  L 4.625 8.222222222222285  L 2 9  L 1.125 8.222222222222285  L 0 8.222222222222285  L 0 6.555555555555543  L 1.125 6.555555555555543  L 0 4.444444444444457  L 0 3.444444444444457  L 1.125 2.6666666666666288  L 1.125 2.111111111111086  Z " fill-rule="nonzero" fill="#ffffff" stroke="none" fill-opacity="0" transform="matrix(1 0 0 1 1313 650 )" />
    <path d="M 1.125 2.111111111111086  L 2 0.7777777777777146  L 2.875 0  L 4 0.7777777777777146  L 2.875 2.111111111111086  L 4.625 3.444444444444457  L 6 5.111111111111086  L 4.625 5.888888888888914  L 4.625 7.111111111111086  L 4.625 8.222222222222285  L 2 9  L 1.125 8.222222222222285  L 0 8.222222222222285  L 0 6.555555555555543  L 1.125 6.555555555555543  L 0 4.444444444444457  L 0 3.444444444444457  L 1.125 2.6666666666666288  L 1.125 2.111111111111086  Z " stroke-width="2" stroke="#ffa897" fill="none" transform="matrix(1 0 0 1 1313 650 )" mask="url(#clip1277)" />
  </g>
</svg>