<?xml version="1.0" encoding="utf-8"?>
<svg version="1.1" xmlns:xlink="http://www.w3.org/1999/xlink" width="13px" height="22px" xmlns="http://www.w3.org/2000/svg">
  <defs>
    <mask fill="white" id="clip161">
      <path d="M 5.504504504504439 3.1428571428571104  L 5.504504504504439 2.3571428571428896  L 6.558558558558616 1.6836734693877133  L 7.6126126126125655 0.7857142857143343  L 8.900900900900979 0  L 9.837837837837924 0  L 9.837837837837924 1.6836734693877133  L 8.900900900900979 3.1428571428571104  L 7.6126126126125655 4.377551020408077  L 8.315315315315274 4.377551020408077  L 8.315315315315274 5.5  L 9.837837837837924 6.510204081632651  L 11.009009009009105 6.510204081632651  L 13 8.193877551020364  L 11.009009009009105 10.102040816326507  L 11.594594594594582 12.346938775510239  L 8.900900900900979 12.346938775510239  L 8.315315315315274 13.35714285714289  L 8.315315315315274 14.14285714285711  L 7.144144144144093 15.040816326530603  L 7.6126126126125655 16.72448979591843  L 9.837837837837924 17.51020408163265  L 8.900900900900979 19.418367346938794  L 7.6126126126125655 19.418367346938794  L 7.6126126126125655 21.438775510204096  L 7.144144144144093 22  L 5.504504504504439 21.438775510204096  L 4.450450450450489 20.65306122448976  L 4.450450450450489 19.418367346938794  L 3.5135135135135442 19.9795918367347  L 2.4594594594595947 18.408163265306143  L 3.5135135135135442 17.51020408163265  L 2.4594594594595947 15.040816326530603  L 2.4594594594595947 14.14285714285711  L 3.0450450450450717 14.14285714285711  L 2.4594594594595947 12.908163265306143  L 0.7027027027027088 11.448979591836748  L 0 11.448979591836748  L 0 10.102040816326507  L 1.639639639639654 9.204081632653129  L 3.0450450450450717 9.204081632653129  L 4.450450450450489 8.193877551020364  L 5.504504504504439 7.5204081632653015  L 5.504504504504439 6.510204081632651  L 5.504504504504439 5.5  L 5.504504504504439 4.377551020408077  L 5.504504504504439 3.1428571428571104  Z " fill-rule="evenodd" />
    </mask>
  </defs>
  <g transform="matrix(1 0 0 1 -1263 -655 )">
    <path d="M 5.504504504504439 3.1428571428571104  L 5.504504504504439 2.3571428571428896  L 6.558558558558616 1.6836734693877133  L 7.6126126126125655 0.7857142857143343  L 8.900900900900979 0  L 9.837837837837924 0  L 9.837837837837924 1.6836734693877133  L 8.900900900900979 3.1428571428571104  L 7.6126126126125655 4.377551020408077  L 8.315315315315274 4.377551020408077  L 8.315315315315274 5.5  L 9.837837837837924 6.510204081632651  L 11.009009009009105 6.510204081632651  L 13 8.193877551020364  L 11.009009009009105 10.102040816326507  L 11.594594594594582 12.346938775510239  L 8.900900900900979 12.346938775510239  L 8.315315315315274 13.35714285714289  L 8.315315315315274 14.14285714285711  L 7.144144144144093 15.040816326530603  L 7.6126126126125655 16.72448979591843  L 9.837837837837924 17.51020408163265  L 8.900900900900979 19.418367346938794  L 7.6126126126125655 19.418367346938794  L 7.6126126126125655 21.438775510204096  L 7.144144144144093 22  L 5.504504504504439 21.438775510204096  L 4.450450450450489 20.65306122448976  L 4.450450450450489 19.418367346938794  L 3.5135135135135442 19.9795918367347  L 2.4594594594595947 18.408163265306143  L 3.5135135135135442 17.51020408163265  L 2.4594594594595947 15.040816326530603  L 2.4594594594595947 14.14285714285711  L 3.0450450450450717 14.14285714285711  L 2.4594594594595947 12.908163265306143  L 0.7027027027027088 11.448979591836748  L 0 11.448979591836748  L 0 10.102040816326507  L 1.639639639639654 9.204081632653129  L 3.0450450450450717 9.204081632653129  L 4.450450450450489 8.193877551020364  L 5.504504504504439 7.5204081632653015  L 5.504504504504439 6.510204081632651  L 5.504504504504439 5.5  L 5.504504504504439 4.377551020408077  L 5.504504504504439 3.1428571428571104  Z " fill-rule="nonzero" fill="#ffffff" stroke="none" fill-opacity="0" transform="matrix(1 0 0 1 1263 655 )" />
    <path d="M 5.504504504504439 3.1428571428571104  L 5.504504504504439 2.3571428571428896  L 6.558558558558616 1.6836734693877133  L 7.6126126126125655 0.7857142857143343  L 8.900900900900979 0  L 9.837837837837924 0  L 9.837837837837924 1.6836734693877133  L 8.900900900900979 3.1428571428571104  L 7.6126126126125655 4.377551020408077  L 8.315315315315274 4.377551020408077  L 8.315315315315274 5.5  L 9.837837837837924 6.510204081632651  L 11.009009009009105 6.510204081632651  L 13 8.193877551020364  L 11.009009009009105 10.102040816326507  L 11.594594594594582 12.346938775510239  L 8.900900900900979 12.346938775510239  L 8.315315315315274 13.35714285714289  L 8.315315315315274 14.14285714285711  L 7.144144144144093 15.040816326530603  L 7.6126126126125655 16.72448979591843  L 9.837837837837924 17.51020408163265  L 8.900900900900979 19.418367346938794  L 7.6126126126125655 19.418367346938794  L 7.6126126126125655 21.438775510204096  L 7.144144144144093 22  L 5.504504504504439 21.438775510204096  L 4.450450450450489 20.65306122448976  L 4.450450450450489 19.418367346938794  L 3.5135135135135442 19.9795918367347  L 2.4594594594595947 18.408163265306143  L 3.5135135135135442 17.51020408163265  L 2.4594594594595947 15.040816326530603  L 2.4594594594595947 14.14285714285711  L 3.0450450450450717 14.14285714285711  L 2.4594594594595947 12.908163265306143  L 0.7027027027027088 11.448979591836748  L 0 11.448979591836748  L 0 10.102040816326507  L 1.639639639639654 9.204081632653129  L 3.0450450450450717 9.204081632653129  L 4.450450450450489 8.193877551020364  L 5.504504504504439 7.5204081632653015  L 5.504504504504439 6.510204081632651  L 5.504504504504439 5.5  L 5.504504504504439 4.377551020408077  L 5.504504504504439 3.1428571428571104  Z " stroke-width="2" stroke="#ffa897" fill="none" transform="matrix(1 0 0 1 1263 655 )" mask="url(#clip161)" />
  </g>
</svg>