<?xml version="1.0" encoding="utf-8"?>
<svg version="1.1" xmlns:xlink="http://www.w3.org/1999/xlink" width="22px" height="28px" xmlns="http://www.w3.org/2000/svg">
  <defs>
    <mask fill="white" id="clip1263">
      <path d="M 2.764397905759097 3.4426229508196684  L 4.0314136125655295 3.4426229508196684  L 5.413612565444964 5.278688524590166  L 7.486910994764457 3.4426229508196684  L 6.910994764397856 2.180327868852487  L 4.0314136125655295 0.6885245901638655  L 6.3350785340314815 0  L 7.486910994764457 1.2622950819672951  L 8.523560209423977 1.2622950819672951  L 9.445026178010494 2.9836065573771293  L 12.094240837696361 3.4426229508196684  L 12.094240837696361 4.360655737704974  L 14.282722513089084 4.360655737704974  L 14.282722513089084 5.278688524590166  L 13.476439790576025 6.196721311475471  L 13.476439790576025 7.2295081967213255  L 15.204188481675374 7.9180327868853055  L 15.204188481675374 9.4098360655737  L 17.16230366492141 9.4098360655737  L 17.85340314136124 7.9180327868853055  L 19.120418848167446 9.4098360655737  L 19.120418848167446 10.901639344262321  L 17.16230366492141 10.901639344262321  L 16.586387434555036 10.901639344262321  L 17.16230366492141 12.04918032786884  L 16.586387434555036 12.967213114754031  L 16.010471204188434 14.229508196721326  L 17.16230366492141 15.147540983606634  L 18.429319371727615 15.147540983606634  L 18.429319371727615 16.4098360655737  L 18.429319371727615 17.44262295081967  L 19.120418848167446 17.44262295081967  L 20.848167539267024 17.44262295081967  L 22 18.131147540983534  L 22 20.426229508196798  L 20.848167539267024 21.229508196721326  L 20.848167539267024 21.918032786885306  L 20.848167539267024 22.721311475409834  L 19.120418848167446 22.721311475409834  L 19.120418848167446 25.934426229508176  L 16.586387434555036 28  L 15.204188481675374 26.96721311475403  L 13.476439790576025 26.96721311475403  L 12.094240837696361 25.934426229508176  L 11.40314136125653 25.360655737704974  L 10.251308900523554 28  L 9.445026178010494 26.96721311475403  L 10.251308900523554 25.934426229508176  L 9.445026178010494 24.55737704918033  L 7.486910994764457 25.360655737704974  L 6.910994764397856 25.934426229508176  L 5.413612565444964 23.4098360655737  L 5.413612565444964 22.721311475409834  L 4.722513089005133 21.918032786885306  L 5.413612565444964 20.426229508196798  L 5.413612565444964 19.39344262295083  L 4.0314136125655295 19.39344262295083  L 2.764397905759097 17.44262295081967  L 4.0314136125655295 15.721311475409834  L 4.722513089005133 15.721311475409834  L 4.722513089005133 12.967213114754031  L 4.722513089005133 12.04918032786884  L 3.3403141361256985 12.04918032786884  L 1.151832460732976 11.5901639344263  L 1.151832460732976 9.4098360655737  L 0 9.4098360655737  L 0 8.721311475409834  L 1.151832460732976 8.721311475409834  L 1.9581151832460364 7.9180327868853055  L 1.9581151832460364 6.196721311475471  L 2.764397905759097 6.196721311475471  L 2.764397905759097 4.360655737704974  L 2.764397905759097 3.4426229508196684  Z " fill-rule="evenodd" />
    </mask>
  </defs>
  <g transform="matrix(1 0 0 1 -1307 -681 )">
    <path d="M 2.764397905759097 3.4426229508196684  L 4.0314136125655295 3.4426229508196684  L 5.413612565444964 5.278688524590166  L 7.486910994764457 3.4426229508196684  L 6.910994764397856 2.180327868852487  L 4.0314136125655295 0.6885245901638655  L 6.3350785340314815 0  L 7.486910994764457 1.2622950819672951  L 8.523560209423977 1.2622950819672951  L 9.445026178010494 2.9836065573771293  L 12.094240837696361 3.4426229508196684  L 12.094240837696361 4.360655737704974  L 14.282722513089084 4.360655737704974  L 14.282722513089084 5.278688524590166  L 13.476439790576025 6.196721311475471  L 13.476439790576025 7.2295081967213255  L 15.204188481675374 7.9180327868853055  L 15.204188481675374 9.4098360655737  L 17.16230366492141 9.4098360655737  L 17.85340314136124 7.9180327868853055  L 19.120418848167446 9.4098360655737  L 19.120418848167446 10.901639344262321  L 17.16230366492141 10.901639344262321  L 16.586387434555036 10.901639344262321  L 17.16230366492141 12.04918032786884  L 16.586387434555036 12.967213114754031  L 16.010471204188434 14.229508196721326  L 17.16230366492141 15.147540983606634  L 18.429319371727615 15.147540983606634  L 18.429319371727615 16.4098360655737  L 18.429319371727615 17.44262295081967  L 19.120418848167446 17.44262295081967  L 20.848167539267024 17.44262295081967  L 22 18.131147540983534  L 22 20.426229508196798  L 20.848167539267024 21.229508196721326  L 20.848167539267024 21.918032786885306  L 20.848167539267024 22.721311475409834  L 19.120418848167446 22.721311475409834  L 19.120418848167446 25.934426229508176  L 16.586387434555036 28  L 15.204188481675374 26.96721311475403  L 13.476439790576025 26.96721311475403  L 12.094240837696361 25.934426229508176  L 11.40314136125653 25.360655737704974  L 10.251308900523554 28  L 9.445026178010494 26.96721311475403  L 10.251308900523554 25.934426229508176  L 9.445026178010494 24.55737704918033  L 7.486910994764457 25.360655737704974  L 6.910994764397856 25.934426229508176  L 5.413612565444964 23.4098360655737  L 5.413612565444964 22.721311475409834  L 4.722513089005133 21.918032786885306  L 5.413612565444964 20.426229508196798  L 5.413612565444964 19.39344262295083  L 4.0314136125655295 19.39344262295083  L 2.764397905759097 17.44262295081967  L 4.0314136125655295 15.721311475409834  L 4.722513089005133 15.721311475409834  L 4.722513089005133 12.967213114754031  L 4.722513089005133 12.04918032786884  L 3.3403141361256985 12.04918032786884  L 1.151832460732976 11.5901639344263  L 1.151832460732976 9.4098360655737  L 0 9.4098360655737  L 0 8.721311475409834  L 1.151832460732976 8.721311475409834  L 1.9581151832460364 7.9180327868853055  L 1.9581151832460364 6.196721311475471  L 2.764397905759097 6.196721311475471  L 2.764397905759097 4.360655737704974  L 2.764397905759097 3.4426229508196684  Z " fill-rule="nonzero" fill="#ffffff" stroke="none" fill-opacity="0" transform="matrix(1 0 0 1 1307 681 )" />
    <path d="M 2.764397905759097 3.4426229508196684  L 4.0314136125655295 3.4426229508196684  L 5.413612565444964 5.278688524590166  L 7.486910994764457 3.4426229508196684  L 6.910994764397856 2.180327868852487  L 4.0314136125655295 0.6885245901638655  L 6.3350785340314815 0  L 7.486910994764457 1.2622950819672951  L 8.523560209423977 1.2622950819672951  L 9.445026178010494 2.9836065573771293  L 12.094240837696361 3.4426229508196684  L 12.094240837696361 4.360655737704974  L 14.282722513089084 4.360655737704974  L 14.282722513089084 5.278688524590166  L 13.476439790576025 6.196721311475471  L 13.476439790576025 7.2295081967213255  L 15.204188481675374 7.9180327868853055  L 15.204188481675374 9.4098360655737  L 17.16230366492141 9.4098360655737  L 17.85340314136124 7.9180327868853055  L 19.120418848167446 9.4098360655737  L 19.120418848167446 10.901639344262321  L 17.16230366492141 10.901639344262321  L 16.586387434555036 10.901639344262321  L 17.16230366492141 12.04918032786884  L 16.586387434555036 12.967213114754031  L 16.010471204188434 14.229508196721326  L 17.16230366492141 15.147540983606634  L 18.429319371727615 15.147540983606634  L 18.429319371727615 16.4098360655737  L 18.429319371727615 17.44262295081967  L 19.120418848167446 17.44262295081967  L 20.848167539267024 17.44262295081967  L 22 18.131147540983534  L 22 20.426229508196798  L 20.848167539267024 21.229508196721326  L 20.848167539267024 21.918032786885306  L 20.848167539267024 22.721311475409834  L 19.120418848167446 22.721311475409834  L 19.120418848167446 25.934426229508176  L 16.586387434555036 28  L 15.204188481675374 26.96721311475403  L 13.476439790576025 26.96721311475403  L 12.094240837696361 25.934426229508176  L 11.40314136125653 25.360655737704974  L 10.251308900523554 28  L 9.445026178010494 26.96721311475403  L 10.251308900523554 25.934426229508176  L 9.445026178010494 24.55737704918033  L 7.486910994764457 25.360655737704974  L 6.910994764397856 25.934426229508176  L 5.413612565444964 23.4098360655737  L 5.413612565444964 22.721311475409834  L 4.722513089005133 21.918032786885306  L 5.413612565444964 20.426229508196798  L 5.413612565444964 19.39344262295083  L 4.0314136125655295 19.39344262295083  L 2.764397905759097 17.44262295081967  L 4.0314136125655295 15.721311475409834  L 4.722513089005133 15.721311475409834  L 4.722513089005133 12.967213114754031  L 4.722513089005133 12.04918032786884  L 3.3403141361256985 12.04918032786884  L 1.151832460732976 11.5901639344263  L 1.151832460732976 9.4098360655737  L 0 9.4098360655737  L 0 8.721311475409834  L 1.151832460732976 8.721311475409834  L 1.9581151832460364 7.9180327868853055  L 1.9581151832460364 6.196721311475471  L 2.764397905759097 6.196721311475471  L 2.764397905759097 4.360655737704974  L 2.764397905759097 3.4426229508196684  Z " stroke-width="2" stroke="#ffa897" fill="none" transform="matrix(1 0 0 1 1307 681 )" mask="url(#clip1263)" />
  </g>
</svg>