<?xml version="1.0" encoding="utf-8"?>
<svg version="1.1" xmlns:xlink="http://www.w3.org/1999/xlink" width="32px" height="20px" xmlns="http://www.w3.org/2000/svg">
  <defs>
    <mask fill="white" id="clip481">
      <path d="M 10.093189964157546 0.8988764044944446  L 11.354838709677324 0  L 12.50179211469549 0.8988764044944446  L 12.50179211469549 1.7977528089887755  L 13.419354838709523 0  L 14.56630824372769 0.8988764044944446  L 15.59856630824379 0  L 17.20430107526886 1.7977528089887755  L 16.63082437275989 2.4719101123596374  L 16.63082437275989 3.820224719101134  L 17.77777777777783 5.393258426966213  L 19.842293906810028 4.83146067415737  L 20.645161290322676 3.820224719101134  L 20.645161290322676 3.258426966292177  L 22.136200716845906 2.4719101123596374  L 22.136200716845906 1.7977528089887755  L 23.741935483870975 0.8988764044944446  L 25.806451612903174 1.7977528089887755  L 26.838709677419274 1.7977528089887755  L 27.756272401433762 2.4719101123596374  L 29.24731182795699 2.4719101123596374  L 29.24731182795699 1.7977528089887755  L 30.73835125448022 2.4719101123596374  L 32 2.4719101123596374  L 32 3.258426966292177  L 31.31182795698919 3.820224719101134  L 32 4.83146067415737  L 31.31182795698919 5.393258426966213  L 30.050179211469413 4.83146067415737  L 29.24731182795699 4.83146067415737  L 27.756272401433762 5.393258426966213  L 25.806451612903174 7.078651685393197  L 25.232974910394205 8.539325842696599  L 24.430107526881784 9.662921348314626  L 23.741935483870975 10.674157303370748  L 23.168458781362006 9.662921348314626  L 22.136200716845906 9.662921348314626  L 22.709677419354875 10.674157303370748  L 22.136200716845906 12.022471910112358  L 21.218637992831646 13.033707865168594  L 20.645161290322676 13.820224719101134  L 19.842293906810028 15.16853932584263  L 19.268817204301058 16.62921348314603  L 17.77777777777783 17.19101123595499  L 17.20430107526886 17.86516853932585  L 17.20430107526886 18.76404494382018  L 16.63082437275989 18.76404494382018  L 15.59856630824379 20  L 13.99283154121872 18.76404494382018  L 13.419354838709523 18.76404494382018  L 12.50179211469549 20  L 11.354838709677324 20  L 10.093189964157546 20  L 8.831541218637994 17.86516853932585  L 7.569892473118216 17.86516853932585  L 6.881720430107407 18.76404494382018  L 6.881720430107407 19.325842696629252  L 5.849462365591535 20  L 3.2114695340501385 20  L 2.523297491039557 19.325842696629252  L 1.146953405017939 17.86516853932585  L 0 18.76404494382018  L 0 16.62921348314603  L 1.9498207885305874 15.16853932584263  L 1.9498207885305874 13.820224719101134  L 2.523297491039557 12.022471910112358  L 1.9498207885305874 10.674157303370748  L 1.9498207885305874 9.662921348314626  L 1.9498207885305874 8.539325842696599  L 3.2114695340501385 7.078651685393197  L 3.8996415770609474 6.067415730337075  L 3.8996415770609474 4.83146067415737  L 4.931899641577047 4.83146067415737  L 5.849462365591535 3.820224719101134  L 7.569892473118216 2.4719101123596374  L 10.093189964157546 1.7977528089887755  L 10.093189964157546 0.8988764044944446  Z " fill-rule="evenodd" />
    </mask>
  </defs>
  <g transform="matrix(1 0 0 1 -1307 -660 )">
    <path d="M 10.093189964157546 0.8988764044944446  L 11.354838709677324 0  L 12.50179211469549 0.8988764044944446  L 12.50179211469549 1.7977528089887755  L 13.419354838709523 0  L 14.56630824372769 0.8988764044944446  L 15.59856630824379 0  L 17.20430107526886 1.7977528089887755  L 16.63082437275989 2.4719101123596374  L 16.63082437275989 3.820224719101134  L 17.77777777777783 5.393258426966213  L 19.842293906810028 4.83146067415737  L 20.645161290322676 3.820224719101134  L 20.645161290322676 3.258426966292177  L 22.136200716845906 2.4719101123596374  L 22.136200716845906 1.7977528089887755  L 23.741935483870975 0.8988764044944446  L 25.806451612903174 1.7977528089887755  L 26.838709677419274 1.7977528089887755  L 27.756272401433762 2.4719101123596374  L 29.24731182795699 2.4719101123596374  L 29.24731182795699 1.7977528089887755  L 30.73835125448022 2.4719101123596374  L 32 2.4719101123596374  L 32 3.258426966292177  L 31.31182795698919 3.820224719101134  L 32 4.83146067415737  L 31.31182795698919 5.393258426966213  L 30.050179211469413 4.83146067415737  L 29.24731182795699 4.83146067415737  L 27.756272401433762 5.393258426966213  L 25.806451612903174 7.078651685393197  L 25.232974910394205 8.539325842696599  L 24.430107526881784 9.662921348314626  L 23.741935483870975 10.674157303370748  L 23.168458781362006 9.662921348314626  L 22.136200716845906 9.662921348314626  L 22.709677419354875 10.674157303370748  L 22.136200716845906 12.022471910112358  L 21.218637992831646 13.033707865168594  L 20.645161290322676 13.820224719101134  L 19.842293906810028 15.16853932584263  L 19.268817204301058 16.62921348314603  L 17.77777777777783 17.19101123595499  L 17.20430107526886 17.86516853932585  L 17.20430107526886 18.76404494382018  L 16.63082437275989 18.76404494382018  L 15.59856630824379 20  L 13.99283154121872 18.76404494382018  L 13.419354838709523 18.76404494382018  L 12.50179211469549 20  L 11.354838709677324 20  L 10.093189964157546 20  L 8.831541218637994 17.86516853932585  L 7.569892473118216 17.86516853932585  L 6.881720430107407 18.76404494382018  L 6.881720430107407 19.325842696629252  L 5.849462365591535 20  L 3.2114695340501385 20  L 2.523297491039557 19.325842696629252  L 1.146953405017939 17.86516853932585  L 0 18.76404494382018  L 0 16.62921348314603  L 1.9498207885305874 15.16853932584263  L 1.9498207885305874 13.820224719101134  L 2.523297491039557 12.022471910112358  L 1.9498207885305874 10.674157303370748  L 1.9498207885305874 9.662921348314626  L 1.9498207885305874 8.539325842696599  L 3.2114695340501385 7.078651685393197  L 3.8996415770609474 6.067415730337075  L 3.8996415770609474 4.83146067415737  L 4.931899641577047 4.83146067415737  L 5.849462365591535 3.820224719101134  L 7.569892473118216 2.4719101123596374  L 10.093189964157546 1.7977528089887755  L 10.093189964157546 0.8988764044944446  Z " fill-rule="nonzero" fill="#ffffff" stroke="none" fill-opacity="0" transform="matrix(1 0 0 1 1307 660 )" />
    <path d="M 10.093189964157546 0.8988764044944446  L 11.354838709677324 0  L 12.50179211469549 0.8988764044944446  L 12.50179211469549 1.7977528089887755  L 13.419354838709523 0  L 14.56630824372769 0.8988764044944446  L 15.59856630824379 0  L 17.20430107526886 1.7977528089887755  L 16.63082437275989 2.4719101123596374  L 16.63082437275989 3.820224719101134  L 17.77777777777783 5.393258426966213  L 19.842293906810028 4.83146067415737  L 20.645161290322676 3.820224719101134  L 20.645161290322676 3.258426966292177  L 22.136200716845906 2.4719101123596374  L 22.136200716845906 1.7977528089887755  L 23.741935483870975 0.8988764044944446  L 25.806451612903174 1.7977528089887755  L 26.838709677419274 1.7977528089887755  L 27.756272401433762 2.4719101123596374  L 29.24731182795699 2.4719101123596374  L 29.24731182795699 1.7977528089887755  L 30.73835125448022 2.4719101123596374  L 32 2.4719101123596374  L 32 3.258426966292177  L 31.31182795698919 3.820224719101134  L 32 4.83146067415737  L 31.31182795698919 5.393258426966213  L 30.050179211469413 4.83146067415737  L 29.24731182795699 4.83146067415737  L 27.756272401433762 5.393258426966213  L 25.806451612903174 7.078651685393197  L 25.232974910394205 8.539325842696599  L 24.430107526881784 9.662921348314626  L 23.741935483870975 10.674157303370748  L 23.168458781362006 9.662921348314626  L 22.136200716845906 9.662921348314626  L 22.709677419354875 10.674157303370748  L 22.136200716845906 12.022471910112358  L 21.218637992831646 13.033707865168594  L 20.645161290322676 13.820224719101134  L 19.842293906810028 15.16853932584263  L 19.268817204301058 16.62921348314603  L 17.77777777777783 17.19101123595499  L 17.20430107526886 17.86516853932585  L 17.20430107526886 18.76404494382018  L 16.63082437275989 18.76404494382018  L 15.59856630824379 20  L 13.99283154121872 18.76404494382018  L 13.419354838709523 18.76404494382018  L 12.50179211469549 20  L 11.354838709677324 20  L 10.093189964157546 20  L 8.831541218637994 17.86516853932585  L 7.569892473118216 17.86516853932585  L 6.881720430107407 18.76404494382018  L 6.881720430107407 19.325842696629252  L 5.849462365591535 20  L 3.2114695340501385 20  L 2.523297491039557 19.325842696629252  L 1.146953405017939 17.86516853932585  L 0 18.76404494382018  L 0 16.62921348314603  L 1.9498207885305874 15.16853932584263  L 1.9498207885305874 13.820224719101134  L 2.523297491039557 12.022471910112358  L 1.9498207885305874 10.674157303370748  L 1.9498207885305874 9.662921348314626  L 1.9498207885305874 8.539325842696599  L 3.2114695340501385 7.078651685393197  L 3.8996415770609474 6.067415730337075  L 3.8996415770609474 4.83146067415737  L 4.931899641577047 4.83146067415737  L 5.849462365591535 3.820224719101134  L 7.569892473118216 2.4719101123596374  L 10.093189964157546 1.7977528089887755  L 10.093189964157546 0.8988764044944446  Z " stroke-width="2" stroke="#ffa897" fill="none" transform="matrix(1 0 0 1 1307 660 )" mask="url(#clip481)" />
  </g>
</svg>