<?xml version="1.0" encoding="utf-8"?>
<svg version="1.1" xmlns:xlink="http://www.w3.org/1999/xlink" width="17px" height="35px" xmlns="http://www.w3.org/2000/svg">
  <defs>
    <mask fill="white" id="clip300">
      <path d="M 14.787671232876619 1.381578947368439  L 14.787671232876619 0  L 16.068493150684844 1.381578947368439  L 16.068493150684844 2.3026315789473983  L 17 3.1085526315789593  L 14.787671232876619 4.029605263157919  L 14.787671232876619 4.950657894736764  L 16.068493150684844 5.526315789473756  L 17 6.447368421052602  L 17 7.713815789473756  L 16.068493150684844 8.75  L 16.068493150684844 9.67105263157896  L 14.787671232876619 9.67105263157896  L 14.787671232876619 10.361842105263236  L 14.787671232876619 11.513157894736764  L 13.390410958904113 13.355263157894797  L 13.390410958904113 14.736842105263236  L 14.787671232876619 14.736842105263236  L 14.787671232876619 16.348684210526244  L 16.068493150684844 17.730263157894797  L 14.787671232876619 19.22697368421052  L 14.787671232876619 20.60855263157896  L 14.787671232876619 22.22039473684208  L 13.390410958904113 23.026315789473756  L 14.321917808219268 24.52302631578948  L 14.787671232876619 27.055921052631557  L 14.787671232876619 28.667763157894797  L 12.575342465753465 30.049342105263236  L 10.828767123287662 31.315789473684276  L 8.150684931506703 31.315789473684276  L 7.4520547945205635 31.89144736842104  L 6.171232876712338 31.89144736842104  L 5.123287671232902 33.388157894736764  L 3.726027397260168 33.388157894736764  L 1.7465753424658033 35  L 0 34.53947368421052  L 0 31.89144736842104  L 0.6986301369863668 30.049342105263236  L 1.7465753424658033 30.049342105263236  L 0.6986301369863668 27.055921052631557  L 0.6986301369863668 23.71710526315792  L 0.6986301369863668 21.644736842105203  L 1.7465753424658033 20.14802631578948  L 1.7465753424658033 19.22697368421052  L 1.7465753424658033 17.730263157894797  L 0.6986301369863668 16.348684210526244  L 0.6986301369863668 14.736842105263236  L 2.328767123287662 13.355263157894797  L 3.726027397260168 8.75  L 2.910958904109748 8.75  L 3.726027397260168 7.713815789473756  L 5.123287671232902 7.713815789473756  L 6.869863013698705 7.713815789473756  L 6.869863013698705 5.526315789473756  L 6.869863013698705 4.029605263157919  L 8.150684931506703 3.1085526315789593  L 11.527397260274029 3.1085526315789593  L 13.390410958904113 3.1085526315789593  L 14.321917808219268 2.3026315789473983  L 14.787671232876619 1.381578947368439  Z " fill-rule="evenodd" />
    </mask>
  </defs>
  <g transform="matrix(1 0 0 1 -1288 -647 )">
    <path d="M 14.787671232876619 1.381578947368439  L 14.787671232876619 0  L 16.068493150684844 1.381578947368439  L 16.068493150684844 2.3026315789473983  L 17 3.1085526315789593  L 14.787671232876619 4.029605263157919  L 14.787671232876619 4.950657894736764  L 16.068493150684844 5.526315789473756  L 17 6.447368421052602  L 17 7.713815789473756  L 16.068493150684844 8.75  L 16.068493150684844 9.67105263157896  L 14.787671232876619 9.67105263157896  L 14.787671232876619 10.361842105263236  L 14.787671232876619 11.513157894736764  L 13.390410958904113 13.355263157894797  L 13.390410958904113 14.736842105263236  L 14.787671232876619 14.736842105263236  L 14.787671232876619 16.348684210526244  L 16.068493150684844 17.730263157894797  L 14.787671232876619 19.22697368421052  L 14.787671232876619 20.60855263157896  L 14.787671232876619 22.22039473684208  L 13.390410958904113 23.026315789473756  L 14.321917808219268 24.52302631578948  L 14.787671232876619 27.055921052631557  L 14.787671232876619 28.667763157894797  L 12.575342465753465 30.049342105263236  L 10.828767123287662 31.315789473684276  L 8.150684931506703 31.315789473684276  L 7.4520547945205635 31.89144736842104  L 6.171232876712338 31.89144736842104  L 5.123287671232902 33.388157894736764  L 3.726027397260168 33.388157894736764  L 1.7465753424658033 35  L 0 34.53947368421052  L 0 31.89144736842104  L 0.6986301369863668 30.049342105263236  L 1.7465753424658033 30.049342105263236  L 0.6986301369863668 27.055921052631557  L 0.6986301369863668 23.71710526315792  L 0.6986301369863668 21.644736842105203  L 1.7465753424658033 20.14802631578948  L 1.7465753424658033 19.22697368421052  L 1.7465753424658033 17.730263157894797  L 0.6986301369863668 16.348684210526244  L 0.6986301369863668 14.736842105263236  L 2.328767123287662 13.355263157894797  L 3.726027397260168 8.75  L 2.910958904109748 8.75  L 3.726027397260168 7.713815789473756  L 5.123287671232902 7.713815789473756  L 6.869863013698705 7.713815789473756  L 6.869863013698705 5.526315789473756  L 6.869863013698705 4.029605263157919  L 8.150684931506703 3.1085526315789593  L 11.527397260274029 3.1085526315789593  L 13.390410958904113 3.1085526315789593  L 14.321917808219268 2.3026315789473983  L 14.787671232876619 1.381578947368439  Z " fill-rule="nonzero" fill="#ffffff" stroke="none" fill-opacity="0" transform="matrix(1 0 0 1 1288 647 )" />
    <path d="M 14.787671232876619 1.381578947368439  L 14.787671232876619 0  L 16.068493150684844 1.381578947368439  L 16.068493150684844 2.3026315789473983  L 17 3.1085526315789593  L 14.787671232876619 4.029605263157919  L 14.787671232876619 4.950657894736764  L 16.068493150684844 5.526315789473756  L 17 6.447368421052602  L 17 7.713815789473756  L 16.068493150684844 8.75  L 16.068493150684844 9.67105263157896  L 14.787671232876619 9.67105263157896  L 14.787671232876619 10.361842105263236  L 14.787671232876619 11.513157894736764  L 13.390410958904113 13.355263157894797  L 13.390410958904113 14.736842105263236  L 14.787671232876619 14.736842105263236  L 14.787671232876619 16.348684210526244  L 16.068493150684844 17.730263157894797  L 14.787671232876619 19.22697368421052  L 14.787671232876619 20.60855263157896  L 14.787671232876619 22.22039473684208  L 13.390410958904113 23.026315789473756  L 14.321917808219268 24.52302631578948  L 14.787671232876619 27.055921052631557  L 14.787671232876619 28.667763157894797  L 12.575342465753465 30.049342105263236  L 10.828767123287662 31.315789473684276  L 8.150684931506703 31.315789473684276  L 7.4520547945205635 31.89144736842104  L 6.171232876712338 31.89144736842104  L 5.123287671232902 33.388157894736764  L 3.726027397260168 33.388157894736764  L 1.7465753424658033 35  L 0 34.53947368421052  L 0 31.89144736842104  L 0.6986301369863668 30.049342105263236  L 1.7465753424658033 30.049342105263236  L 0.6986301369863668 27.055921052631557  L 0.6986301369863668 23.71710526315792  L 0.6986301369863668 21.644736842105203  L 1.7465753424658033 20.14802631578948  L 1.7465753424658033 19.22697368421052  L 1.7465753424658033 17.730263157894797  L 0.6986301369863668 16.348684210526244  L 0.6986301369863668 14.736842105263236  L 2.328767123287662 13.355263157894797  L 3.726027397260168 8.75  L 2.910958904109748 8.75  L 3.726027397260168 7.713815789473756  L 5.123287671232902 7.713815789473756  L 6.869863013698705 7.713815789473756  L 6.869863013698705 5.526315789473756  L 6.869863013698705 4.029605263157919  L 8.150684931506703 3.1085526315789593  L 11.527397260274029 3.1085526315789593  L 13.390410958904113 3.1085526315789593  L 14.321917808219268 2.3026315789473983  L 14.787671232876619 1.381578947368439  Z " stroke-width="2" stroke="#ffa897" fill="none" transform="matrix(1 0 0 1 1288 647 )" mask="url(#clip300)" />
  </g>
</svg>