<?xml version="1.0" encoding="utf-8"?>
<svg version="1.1" xmlns:xlink="http://www.w3.org/1999/xlink" width="37px" height="28px" xmlns="http://www.w3.org/2000/svg">
  <defs>
    <mask fill="white" id="clip489">
      <path d="M 12.102803738317789 7.085714285714288  L 12.102803738317789 5.028571428571354  L 12.909657320872384 3.885714285714357  L 12.909657320872384 2.3999999999999773  L 14.29283489096565 2.3999999999999773  L 15.56074766355141 3.428571428571445  L 16.13707165109031 3.885714285714357  L 16.943925233644904 3.428571428571445  L 16.13707165109031 1.142857142857224  L 17.866043613707234 0  L 19.133956386292766 1.142857142857224  L 20.862928348909694 1.142857142857224  L 21.78504672897202 1.142857142857224  L 22.476635514018653 1.142857142857224  L 24.205607476635578 1.142857142857224  L 25.127725856697907 1.8285714285713084  L 24.205607476635578 2.971428571428646  L 23.514018691588717 4.457142857142799  L 23.514018691588717 5.028571428571354  L 24.205607476635578 5.714285714285779  L 26.97196261682234 5.028571428571354  L 28.700934579439263 3.885714285714357  L 30.199376947040488 4.457142857142799  L 30.199376947040488 3.885714285714357  L 31.12149532710282 3.428571428571445  L 32.96573208722748 3.428571428571445  L 34.00311526479754 3.885714285714357  L 35.50155763239877 3.885714285714357  L 36.193146417445405 5.714285714285779  L 36.193146417445405 7.085714285714288  L 37 8.685714285714312  L 37 10.057142857142821  L 35.50155763239877 10.857142857142776  L 35.50155763239877 11.885714285714357  L 34.00311526479754 12.571428571428555  L 32.96573208722748 13.714285714285666  L 31.12149532710282 13.714285714285666  L 30.199376947040488 13.714285714285666  L 30.199376947040488 14.514285714285734  L 28.700934579439263 13.714285714285666  L 27.6635514018692 14.514285714285734  L 26.97196261682234 15.31428571428569  L 25.127725856697907 15.31428571428569  L 25.127725856697907 16  L 24.205607476635578 17.371428571428623  L 22.476635514018653 17.371428571428623  L 21.78504672897202 16  L 20.862928348909694 14.514285714285734  L 20.171339563863057 14.514285714285734  L 20.171339563863057 15.31428571428569  L 20.171339563863057 16  L 20.862928348909694 17.371428571428623  L 20.586292834886763 17.462857142858525  L 19.133956386292766 17.94285714285718  L 19.133956386292766 18.857142857142776  L 17.866043613707234 17.94285714285718  L 17.866043613707234 18.857142857142776  L 17.866043613707234 20  L 16.943925233644904 19.428571428571445  L 16.13707165109031 20  L 15.56074766355141 21.257142857142867  L 14.29283489096565 20  L 13.485981308411283 20.68571428571431  L 12.909657320872384 20  L 11.411214953271154 20.68571428571431  L 10.719626168224295 21.828571428571422  L 9.566978193146497 21.828571428571422  L 8.068535825545041 21.828571428571422  L 6.570093457943813 22.399999999999977  L 5.763239875389445 23.428571428571445  L 5.763239875389445 25.37142857142851  L 4.8411214953271156 25.37142857142851  L 3.919003115264786 25.37142857142851  L 4.8411214953271156 25.37142857142851  L 4.8411214953271156 26.40000000000009  L 4.8411214953271156 27.24731182795699  L 3.1121495327101916 28  L 1.8442367601246588 28  L 1.8442367601246588 26.40000000000009  L 1.152647975077798 25.37142857142851  L 0 24.342857142857042  L 1.152647975077798 22.399999999999977  L 1.152647975077798 21.828571428571422  L 3.1121495327101916 20  L 3.919003115264786 20  L 4.8411214953271156 19.428571428571445  L 4.8411214953271156 17.94285714285718  L 5.763239875389445 17.94285714285718  L 5.763239875389445 17.371428571428623  L 7.492211838006142 15.31428571428569  L 8.644859813084167 15.31428571428569  L 9.566978193146497 13.714285714285666  L 8.644859813084167 11.885714285714357  L 9.566978193146497 10.857142857142776  L 10.719626168224295 10.057142857142821  L 11.411214953271154 8.685714285714312  L 11.411214953271154 7.771428571428487  L 12.102803738317789 7.085714285714288  Z " fill-rule="evenodd" />
    </mask>
  </defs>
  <g transform="matrix(1 0 0 1 -1284 -730 )">
    <path d="M 12.102803738317789 7.085714285714288  L 12.102803738317789 5.028571428571354  L 12.909657320872384 3.885714285714357  L 12.909657320872384 2.3999999999999773  L 14.29283489096565 2.3999999999999773  L 15.56074766355141 3.428571428571445  L 16.13707165109031 3.885714285714357  L 16.943925233644904 3.428571428571445  L 16.13707165109031 1.142857142857224  L 17.866043613707234 0  L 19.133956386292766 1.142857142857224  L 20.862928348909694 1.142857142857224  L 21.78504672897202 1.142857142857224  L 22.476635514018653 1.142857142857224  L 24.205607476635578 1.142857142857224  L 25.127725856697907 1.8285714285713084  L 24.205607476635578 2.971428571428646  L 23.514018691588717 4.457142857142799  L 23.514018691588717 5.028571428571354  L 24.205607476635578 5.714285714285779  L 26.97196261682234 5.028571428571354  L 28.700934579439263 3.885714285714357  L 30.199376947040488 4.457142857142799  L 30.199376947040488 3.885714285714357  L 31.12149532710282 3.428571428571445  L 32.96573208722748 3.428571428571445  L 34.00311526479754 3.885714285714357  L 35.50155763239877 3.885714285714357  L 36.193146417445405 5.714285714285779  L 36.193146417445405 7.085714285714288  L 37 8.685714285714312  L 37 10.057142857142821  L 35.50155763239877 10.857142857142776  L 35.50155763239877 11.885714285714357  L 34.00311526479754 12.571428571428555  L 32.96573208722748 13.714285714285666  L 31.12149532710282 13.714285714285666  L 30.199376947040488 13.714285714285666  L 30.199376947040488 14.514285714285734  L 28.700934579439263 13.714285714285666  L 27.6635514018692 14.514285714285734  L 26.97196261682234 15.31428571428569  L 25.127725856697907 15.31428571428569  L 25.127725856697907 16  L 24.205607476635578 17.371428571428623  L 22.476635514018653 17.371428571428623  L 21.78504672897202 16  L 20.862928348909694 14.514285714285734  L 20.171339563863057 14.514285714285734  L 20.171339563863057 15.31428571428569  L 20.171339563863057 16  L 20.862928348909694 17.371428571428623  L 20.586292834886763 17.462857142858525  L 19.133956386292766 17.94285714285718  L 19.133956386292766 18.857142857142776  L 17.866043613707234 17.94285714285718  L 17.866043613707234 18.857142857142776  L 17.866043613707234 20  L 16.943925233644904 19.428571428571445  L 16.13707165109031 20  L 15.56074766355141 21.257142857142867  L 14.29283489096565 20  L 13.485981308411283 20.68571428571431  L 12.909657320872384 20  L 11.411214953271154 20.68571428571431  L 10.719626168224295 21.828571428571422  L 9.566978193146497 21.828571428571422  L 8.068535825545041 21.828571428571422  L 6.570093457943813 22.399999999999977  L 5.763239875389445 23.428571428571445  L 5.763239875389445 25.37142857142851  L 4.8411214953271156 25.37142857142851  L 3.919003115264786 25.37142857142851  L 4.8411214953271156 25.37142857142851  L 4.8411214953271156 26.40000000000009  L 4.8411214953271156 27.24731182795699  L 3.1121495327101916 28  L 1.8442367601246588 28  L 1.8442367601246588 26.40000000000009  L 1.152647975077798 25.37142857142851  L 0 24.342857142857042  L 1.152647975077798 22.399999999999977  L 1.152647975077798 21.828571428571422  L 3.1121495327101916 20  L 3.919003115264786 20  L 4.8411214953271156 19.428571428571445  L 4.8411214953271156 17.94285714285718  L 5.763239875389445 17.94285714285718  L 5.763239875389445 17.371428571428623  L 7.492211838006142 15.31428571428569  L 8.644859813084167 15.31428571428569  L 9.566978193146497 13.714285714285666  L 8.644859813084167 11.885714285714357  L 9.566978193146497 10.857142857142776  L 10.719626168224295 10.057142857142821  L 11.411214953271154 8.685714285714312  L 11.411214953271154 7.771428571428487  L 12.102803738317789 7.085714285714288  Z " fill-rule="nonzero" fill="#ffffff" stroke="none" fill-opacity="0" transform="matrix(1 0 0 1 1284 730 )" />
    <path d="M 12.102803738317789 7.085714285714288  L 12.102803738317789 5.028571428571354  L 12.909657320872384 3.885714285714357  L 12.909657320872384 2.3999999999999773  L 14.29283489096565 2.3999999999999773  L 15.56074766355141 3.428571428571445  L 16.13707165109031 3.885714285714357  L 16.943925233644904 3.428571428571445  L 16.13707165109031 1.142857142857224  L 17.866043613707234 0  L 19.133956386292766 1.142857142857224  L 20.862928348909694 1.142857142857224  L 21.78504672897202 1.142857142857224  L 22.476635514018653 1.142857142857224  L 24.205607476635578 1.142857142857224  L 25.127725856697907 1.8285714285713084  L 24.205607476635578 2.971428571428646  L 23.514018691588717 4.457142857142799  L 23.514018691588717 5.028571428571354  L 24.205607476635578 5.714285714285779  L 26.97196261682234 5.028571428571354  L 28.700934579439263 3.885714285714357  L 30.199376947040488 4.457142857142799  L 30.199376947040488 3.885714285714357  L 31.12149532710282 3.428571428571445  L 32.96573208722748 3.428571428571445  L 34.00311526479754 3.885714285714357  L 35.50155763239877 3.885714285714357  L 36.193146417445405 5.714285714285779  L 36.193146417445405 7.085714285714288  L 37 8.685714285714312  L 37 10.057142857142821  L 35.50155763239877 10.857142857142776  L 35.50155763239877 11.885714285714357  L 34.00311526479754 12.571428571428555  L 32.96573208722748 13.714285714285666  L 31.12149532710282 13.714285714285666  L 30.199376947040488 13.714285714285666  L 30.199376947040488 14.514285714285734  L 28.700934579439263 13.714285714285666  L 27.6635514018692 14.514285714285734  L 26.97196261682234 15.31428571428569  L 25.127725856697907 15.31428571428569  L 25.127725856697907 16  L 24.205607476635578 17.371428571428623  L 22.476635514018653 17.371428571428623  L 21.78504672897202 16  L 20.862928348909694 14.514285714285734  L 20.171339563863057 14.514285714285734  L 20.171339563863057 15.31428571428569  L 20.171339563863057 16  L 20.862928348909694 17.371428571428623  L 20.586292834886763 17.462857142858525  L 19.133956386292766 17.94285714285718  L 19.133956386292766 18.857142857142776  L 17.866043613707234 17.94285714285718  L 17.866043613707234 18.857142857142776  L 17.866043613707234 20  L 16.943925233644904 19.428571428571445  L 16.13707165109031 20  L 15.56074766355141 21.257142857142867  L 14.29283489096565 20  L 13.485981308411283 20.68571428571431  L 12.909657320872384 20  L 11.411214953271154 20.68571428571431  L 10.719626168224295 21.828571428571422  L 9.566978193146497 21.828571428571422  L 8.068535825545041 21.828571428571422  L 6.570093457943813 22.399999999999977  L 5.763239875389445 23.428571428571445  L 5.763239875389445 25.37142857142851  L 4.8411214953271156 25.37142857142851  L 3.919003115264786 25.37142857142851  L 4.8411214953271156 25.37142857142851  L 4.8411214953271156 26.40000000000009  L 4.8411214953271156 27.24731182795699  L 3.1121495327101916 28  L 1.8442367601246588 28  L 1.8442367601246588 26.40000000000009  L 1.152647975077798 25.37142857142851  L 0 24.342857142857042  L 1.152647975077798 22.399999999999977  L 1.152647975077798 21.828571428571422  L 3.1121495327101916 20  L 3.919003115264786 20  L 4.8411214953271156 19.428571428571445  L 4.8411214953271156 17.94285714285718  L 5.763239875389445 17.94285714285718  L 5.763239875389445 17.371428571428623  L 7.492211838006142 15.31428571428569  L 8.644859813084167 15.31428571428569  L 9.566978193146497 13.714285714285666  L 8.644859813084167 11.885714285714357  L 9.566978193146497 10.857142857142776  L 10.719626168224295 10.057142857142821  L 11.411214953271154 8.685714285714312  L 11.411214953271154 7.771428571428487  L 12.102803738317789 7.085714285714288  Z " stroke-width="2" stroke="#ffa897" fill="none" transform="matrix(1 0 0 1 1284 730 )" mask="url(#clip489)" />
  </g>
</svg>