<?xml version="1.0" encoding="utf-8"?>
<svg version="1.1" xmlns:xlink="http://www.w3.org/1999/xlink" width="37px" height="26px" xmlns="http://www.w3.org/2000/svg">
  <defs>
    <mask fill="white" id="clip295">
      <path d="M 0.7773109243696581 9.883040935672625  L 0 8.818713450292421  L 2.176470588235361 6.538011695906448  L 5.5966386554621295 7.6023391812865375  L 7.306722689075514 8.21052631578948  L 8.861344537815057 6.538011695906448  L 12.126050420167985 5.473684210526358  L 12.126050420167985 4.561403508771946  L 13.058823529411713 3.8011695906432124  L 13.836134453781597 5.473684210526358  L 15.079831932773004 5.473684210526358  L 16.1680672268908 6.538011695906448  L 17.567226890756274 5.473684210526358  L 18.34453781512616 4.561403508771946  L 19.588235294117567 5.473684210526358  L 19.588235294117567 3.8011695906432124  L 21.609243697479087 4.561403508771946  L 21.609243697479087 3.192982456140271  L 23.163865546218403 3.192982456140271  L 24.563025210084106 1.82456140350871  L 25.806722689075514 2.5847953216374435  L 26.428571428571555 1.064327485380204  L 27.516806722689125 1.064327485380204  L 27.516806722689125 2.5847953216374435  L 29.848739495798327 0  L 31.71428571428578 0  L 32.95798319327719 1.064327485380204  L 32.95798319327719 2.5847953216374435  L 33.89075630252091 2.5847953216374435  L 32.95798319327719 3.8011695906432124  L 32.95798319327719 5.473684210526358  L 31.092436974789962 6.538011695906448  L 31.092436974789962 7.6023391812865375  L 32.95798319327719 6.538011695906448  L 33.89075630252091 7.6023391812865375  L 33.89075630252091 8.818713450292421  L 36.22268907563034 8.21052631578948  L 36.22268907563034 8.818713450292421  L 37 11.099415204678394  L 36.22268907563034 11.099415204678394  L 36.22268907563034 12.619883040935633  L 34.82352941176464 14.140350877192986  L 33.89075630252091 15.812865497076016  L 33.89075630252091 17.637426900584842  L 32.95798319327719 19.309941520467873  L 31.71428571428578 19.309941520467873  L 30.470588235294144 20.982456140350905  L 30.470588235294144 21.894736842105203  L 28.9159663865546 22.350877192982466  L 28.9159663865546 23.111111111111086  L 27.516806722689125 23.871345029239706  L 26.428571428571555 24.93567251461991  L 25.806722689075514 24.93567251461991  L 23.163865546218403 26  L 22.231092436974677 24.93567251461991  L 20.67647058823536 24.93567251461991  L 19.588235294117567 23.871345029239706  L 18.34453781512616 24.93567251461991  L 16.1680672268908 24.93567251461991  L 13.836134453781597 24.93567251461991  L 12.126050420167985 23.871345029239706  L 11.348739495798327 23.111111111111086  L 9.638655462184943 21.894736842105203  L 9.638655462184943 20.374269005847964  L 10.260504201680762 19.309941520467873  L 10.260504201680762 18.24561403508767  L 9.638655462184943 17.637426900584842  L 7.306722689075514 18.24561403508767  L 6.5294117647058565 17.637426900584842  L 4.197478991596654 16.42105263157896  L 5.5966386554621295 14.140350877192986  L 7.306722689075514 14.748538011695928  L 7.928571428571332 13.380116959064367  L 7.306722689075514 11.859649122807014  L 5.5966386554621295 11.859649122807014  L 4.197478991596654 11.859649122807014  L 3.109243697479087 11.099415204678394  L 3.109243697479087 10.491228070175453  L 0.7773109243696581 9.883040935672625  Z " fill-rule="evenodd" />
    </mask>
  </defs>
  <g transform="matrix(1 0 0 1 -1260 -726 )">
    <path d="M 0.7773109243696581 9.883040935672625  L 0 8.818713450292421  L 2.176470588235361 6.538011695906448  L 5.5966386554621295 7.6023391812865375  L 7.306722689075514 8.21052631578948  L 8.861344537815057 6.538011695906448  L 12.126050420167985 5.473684210526358  L 12.126050420167985 4.561403508771946  L 13.058823529411713 3.8011695906432124  L 13.836134453781597 5.473684210526358  L 15.079831932773004 5.473684210526358  L 16.1680672268908 6.538011695906448  L 17.567226890756274 5.473684210526358  L 18.34453781512616 4.561403508771946  L 19.588235294117567 5.473684210526358  L 19.588235294117567 3.8011695906432124  L 21.609243697479087 4.561403508771946  L 21.609243697479087 3.192982456140271  L 23.163865546218403 3.192982456140271  L 24.563025210084106 1.82456140350871  L 25.806722689075514 2.5847953216374435  L 26.428571428571555 1.064327485380204  L 27.516806722689125 1.064327485380204  L 27.516806722689125 2.5847953216374435  L 29.848739495798327 0  L 31.71428571428578 0  L 32.95798319327719 1.064327485380204  L 32.95798319327719 2.5847953216374435  L 33.89075630252091 2.5847953216374435  L 32.95798319327719 3.8011695906432124  L 32.95798319327719 5.473684210526358  L 31.092436974789962 6.538011695906448  L 31.092436974789962 7.6023391812865375  L 32.95798319327719 6.538011695906448  L 33.89075630252091 7.6023391812865375  L 33.89075630252091 8.818713450292421  L 36.22268907563034 8.21052631578948  L 36.22268907563034 8.818713450292421  L 37 11.099415204678394  L 36.22268907563034 11.099415204678394  L 36.22268907563034 12.619883040935633  L 34.82352941176464 14.140350877192986  L 33.89075630252091 15.812865497076016  L 33.89075630252091 17.637426900584842  L 32.95798319327719 19.309941520467873  L 31.71428571428578 19.309941520467873  L 30.470588235294144 20.982456140350905  L 30.470588235294144 21.894736842105203  L 28.9159663865546 22.350877192982466  L 28.9159663865546 23.111111111111086  L 27.516806722689125 23.871345029239706  L 26.428571428571555 24.93567251461991  L 25.806722689075514 24.93567251461991  L 23.163865546218403 26  L 22.231092436974677 24.93567251461991  L 20.67647058823536 24.93567251461991  L 19.588235294117567 23.871345029239706  L 18.34453781512616 24.93567251461991  L 16.1680672268908 24.93567251461991  L 13.836134453781597 24.93567251461991  L 12.126050420167985 23.871345029239706  L 11.348739495798327 23.111111111111086  L 9.638655462184943 21.894736842105203  L 9.638655462184943 20.374269005847964  L 10.260504201680762 19.309941520467873  L 10.260504201680762 18.24561403508767  L 9.638655462184943 17.637426900584842  L 7.306722689075514 18.24561403508767  L 6.5294117647058565 17.637426900584842  L 4.197478991596654 16.42105263157896  L 5.5966386554621295 14.140350877192986  L 7.306722689075514 14.748538011695928  L 7.928571428571332 13.380116959064367  L 7.306722689075514 11.859649122807014  L 5.5966386554621295 11.859649122807014  L 4.197478991596654 11.859649122807014  L 3.109243697479087 11.099415204678394  L 3.109243697479087 10.491228070175453  L 0.7773109243696581 9.883040935672625  Z " fill-rule="nonzero" fill="#ffffff" stroke="none" fill-opacity="0" transform="matrix(1 0 0 1 1260 726 )" />
    <path d="M 0.7773109243696581 9.883040935672625  L 0 8.818713450292421  L 2.176470588235361 6.538011695906448  L 5.5966386554621295 7.6023391812865375  L 7.306722689075514 8.21052631578948  L 8.861344537815057 6.538011695906448  L 12.126050420167985 5.473684210526358  L 12.126050420167985 4.561403508771946  L 13.058823529411713 3.8011695906432124  L 13.836134453781597 5.473684210526358  L 15.079831932773004 5.473684210526358  L 16.1680672268908 6.538011695906448  L 17.567226890756274 5.473684210526358  L 18.34453781512616 4.561403508771946  L 19.588235294117567 5.473684210526358  L 19.588235294117567 3.8011695906432124  L 21.609243697479087 4.561403508771946  L 21.609243697479087 3.192982456140271  L 23.163865546218403 3.192982456140271  L 24.563025210084106 1.82456140350871  L 25.806722689075514 2.5847953216374435  L 26.428571428571555 1.064327485380204  L 27.516806722689125 1.064327485380204  L 27.516806722689125 2.5847953216374435  L 29.848739495798327 0  L 31.71428571428578 0  L 32.95798319327719 1.064327485380204  L 32.95798319327719 2.5847953216374435  L 33.89075630252091 2.5847953216374435  L 32.95798319327719 3.8011695906432124  L 32.95798319327719 5.473684210526358  L 31.092436974789962 6.538011695906448  L 31.092436974789962 7.6023391812865375  L 32.95798319327719 6.538011695906448  L 33.89075630252091 7.6023391812865375  L 33.89075630252091 8.818713450292421  L 36.22268907563034 8.21052631578948  L 36.22268907563034 8.818713450292421  L 37 11.099415204678394  L 36.22268907563034 11.099415204678394  L 36.22268907563034 12.619883040935633  L 34.82352941176464 14.140350877192986  L 33.89075630252091 15.812865497076016  L 33.89075630252091 17.637426900584842  L 32.95798319327719 19.309941520467873  L 31.71428571428578 19.309941520467873  L 30.470588235294144 20.982456140350905  L 30.470588235294144 21.894736842105203  L 28.9159663865546 22.350877192982466  L 28.9159663865546 23.111111111111086  L 27.516806722689125 23.871345029239706  L 26.428571428571555 24.93567251461991  L 25.806722689075514 24.93567251461991  L 23.163865546218403 26  L 22.231092436974677 24.93567251461991  L 20.67647058823536 24.93567251461991  L 19.588235294117567 23.871345029239706  L 18.34453781512616 24.93567251461991  L 16.1680672268908 24.93567251461991  L 13.836134453781597 24.93567251461991  L 12.126050420167985 23.871345029239706  L 11.348739495798327 23.111111111111086  L 9.638655462184943 21.894736842105203  L 9.638655462184943 20.374269005847964  L 10.260504201680762 19.309941520467873  L 10.260504201680762 18.24561403508767  L 9.638655462184943 17.637426900584842  L 7.306722689075514 18.24561403508767  L 6.5294117647058565 17.637426900584842  L 4.197478991596654 16.42105263157896  L 5.5966386554621295 14.140350877192986  L 7.306722689075514 14.748538011695928  L 7.928571428571332 13.380116959064367  L 7.306722689075514 11.859649122807014  L 5.5966386554621295 11.859649122807014  L 4.197478991596654 11.859649122807014  L 3.109243697479087 11.099415204678394  L 3.109243697479087 10.491228070175453  L 0.7773109243696581 9.883040935672625  Z " stroke-width="2" stroke="#ffa897" fill="none" transform="matrix(1 0 0 1 1260 726 )" mask="url(#clip295)" />
  </g>
</svg>