<?xml version="1.0" encoding="utf-8"?>
<svg version="1.1" xmlns:xlink="http://www.w3.org/1999/xlink" width="94px" height="73px" xmlns="http://www.w3.org/2000/svg">
  <defs>
    <mask fill="white" id="clip283">
      <path d="M 17.50980392156862 69.30379746835445  L 13.593137254901876 69.30379746835445  L 11.058823529411711 66.76265822784819  L 11.058823529411711 62.14240506329122  L 8.75490196078431 60.52531645569628  L 6.68137254901967 59.13924050632909  L 5.9901960784313815 57.9841772151899  L 4.607843137254804 57.9841772151899  L 4.607843137254804 55.443037974683534  L 5.299019607843093 54.287974683544235  L 5.299019607843093 52.439873417721515  L 3.6862745098039795 51.74683544303798  L 3.6862745098039795 51.28481012658232  L 2.534313725490165 49.89873417721526  L 0.6911764705882888 49.205696202531726  L 0.6911764705882888 48.05063291139243  L 2.534313725490165 48.74367088607596  L 3.2254901960784537 48.05063291139243  L 3.2254901960784537 46.895569620253134  L 3.6862745098039795 43.66139240506334  L 4.607843137254804 41.813291139240505  L 3.2254901960784537 40.196202531645554  L 0.6911764705882888 40.196202531645554  L 0 39.04113924050637  L 0.6911764705882888 37.88607594936707  L 0.6911764705882888 36.037974683544235  L 0.6911764705882888 35.11392405063293  L 2.534313725490165 35.11392405063293  L 3.6862745098039795 33.2658227848101  L 6.68137254901967 33.2658227848101  L 8.06372549019602 31.87974683544303  L 10.137254901960887 31.87974683544303  L 11.75 33.2658227848101  L 13.593137254901876 33.2658227848101  L 15.66666666666674 33.2658227848101  L 15.66666666666674 31.87974683544303  L 18.892156862745196 31.87974683544303  L 22.348039215686185 31.87974683544303  L 28.107843137254804 30.72468354430373  L 31.333333333333258 29.33860759493666  L 32.48529411764707 26.79746835443041  L 33.86764705882342 25.41139240506334  L 35.01960784313724 25.41139240506334  L 35.01960784313724 19.4050632911393  L 35.01960784313724 17.325949367088697  L 35.01960784313724 15.939873417721628  L 35.01960784313724 14.784810126582329  L 38.24509803921569 14.784810126582329  L 41.470588235294144 14.784810126582329  L 43.54411764705878 15.939873417721628  L 44.465686274509835 14.091772151898795  L 47.23039215686276 9.471518987341824  L 49.995098039215684 6.237341772151922  L 52.99019607843138 8.547468354430407  L 56.67647058823536 9.471518987341824  L 57.82843137254895 8.547468354430407  L 58.98039215686276 5.082278481012622  L 60.59313725490188 2.3101265822784853  L 62.20588235294122 2.3101265822784853  L 64.04901960784309 2.3101265822784853  L 64.74019607843138 0  L 66.58333333333326 0  L 67.96568627450984 0  L 67.96568627450984 2.3101265822784853  L 69.80882352941171 5.082278481012622  L 71.19117647058829 7.161392405063339  L 73.49509803921569 7.161392405063339  L 74.6470588235295 9.471518987341824  L 75.79901960784309 10.395569620253127  L 75.79901960784309 12.705696202531726  L 77.41176470588243 15.477848101265863  L 77.41176470588243 17.325949367088697  L 76.49019607843138 18.943037974683534  L 74.6470588235295 21.484177215189902  L 75.79901960784309 23.794303797468388  L 78.33333333333326 25.41139240506334  L 81.32843137254895 26.335443037974642  L 85.01470588235293 26.79746835443041  L 88.00980392156862 30.031645569620196  L 91.00490196078431 31.87974683544303  L 91.6960784313726 34.651898734177166  L 91.6960784313726 37.193037974683534  L 94 39.7341772151899  L 91.6960784313726 41.813291139240505  L 92.38725490196089 43.66139240506334  L 91.00490196078431 45.278481012658176  L 88.00980392156862 45.278481012658176  L 85.01470588235293 46.895569620253134  L 82.25 49.89873417721526  L 79.25490196078431 49.89873417721526  L 77.41176470588243 51.74683544303798  L 76.49019607843138 55.443037974683534  L 74.6470588235295 57.9841772151899  L 71.19117647058829 59.13924050632909  L 67.27450980392155 59.13924050632909  L 64.74019607843138 60.063291139240505  L 64.74019607843138 60.52531645569628  L 66.58333333333326 61.218354430379804  L 65.8921568627452 62.83544303797465  L 67.27450980392155 65.14556962025313  L 67.96568627450984 67.91772151898726  L 66.58333333333326 70.22784810126586  L 66.58333333333326 73  L 63.58823529411757 71.8449367088607  L 60.59313725490188 72.53797468354423  L 57.82843137254895 70.22784810126586  L 55.06372549019602 69.30379746835445  L 51.83823529411757 68.61075949367091  L 48.38235294117658 68.61075949367091  L 45.848039215686185 69.30379746835445  L 42.852941176470495 70.22784810126586  L 39.857843137254804 69.30379746835445  L 35.94117647058829 70.22784810126586  L 33.86764705882342 69.30379746835445  L 31.333333333333258 67.45569620253173  L 28.107843137254804 67.91772151898726  L 25.343137254901876 67.45569620253173  L 22.348039215686185 66.76265822784819  L 20.044117647058783 66.76265822784819  L 17.50980392156862 69.30379746835445  Z " fill-rule="evenodd" />
    </mask>
  </defs>
  <g transform="matrix(1 0 0 1 -1140 -593 )">
    <path d="M 17.50980392156862 69.30379746835445  L 13.593137254901876 69.30379746835445  L 11.058823529411711 66.76265822784819  L 11.058823529411711 62.14240506329122  L 8.75490196078431 60.52531645569628  L 6.68137254901967 59.13924050632909  L 5.9901960784313815 57.9841772151899  L 4.607843137254804 57.9841772151899  L 4.607843137254804 55.443037974683534  L 5.299019607843093 54.287974683544235  L 5.299019607843093 52.439873417721515  L 3.6862745098039795 51.74683544303798  L 3.6862745098039795 51.28481012658232  L 2.534313725490165 49.89873417721526  L 0.6911764705882888 49.205696202531726  L 0.6911764705882888 48.05063291139243  L 2.534313725490165 48.74367088607596  L 3.2254901960784537 48.05063291139243  L 3.2254901960784537 46.895569620253134  L 3.6862745098039795 43.66139240506334  L 4.607843137254804 41.813291139240505  L 3.2254901960784537 40.196202531645554  L 0.6911764705882888 40.196202531645554  L 0 39.04113924050637  L 0.6911764705882888 37.88607594936707  L 0.6911764705882888 36.037974683544235  L 0.6911764705882888 35.11392405063293  L 2.534313725490165 35.11392405063293  L 3.6862745098039795 33.2658227848101  L 6.68137254901967 33.2658227848101  L 8.06372549019602 31.87974683544303  L 10.137254901960887 31.87974683544303  L 11.75 33.2658227848101  L 13.593137254901876 33.2658227848101  L 15.66666666666674 33.2658227848101  L 15.66666666666674 31.87974683544303  L 18.892156862745196 31.87974683544303  L 22.348039215686185 31.87974683544303  L 28.107843137254804 30.72468354430373  L 31.333333333333258 29.33860759493666  L 32.48529411764707 26.79746835443041  L 33.86764705882342 25.41139240506334  L 35.01960784313724 25.41139240506334  L 35.01960784313724 19.4050632911393  L 35.01960784313724 17.325949367088697  L 35.01960784313724 15.939873417721628  L 35.01960784313724 14.784810126582329  L 38.24509803921569 14.784810126582329  L 41.470588235294144 14.784810126582329  L 43.54411764705878 15.939873417721628  L 44.465686274509835 14.091772151898795  L 47.23039215686276 9.471518987341824  L 49.995098039215684 6.237341772151922  L 52.99019607843138 8.547468354430407  L 56.67647058823536 9.471518987341824  L 57.82843137254895 8.547468354430407  L 58.98039215686276 5.082278481012622  L 60.59313725490188 2.3101265822784853  L 62.20588235294122 2.3101265822784853  L 64.04901960784309 2.3101265822784853  L 64.74019607843138 0  L 66.58333333333326 0  L 67.96568627450984 0  L 67.96568627450984 2.3101265822784853  L 69.80882352941171 5.082278481012622  L 71.19117647058829 7.161392405063339  L 73.49509803921569 7.161392405063339  L 74.6470588235295 9.471518987341824  L 75.79901960784309 10.395569620253127  L 75.79901960784309 12.705696202531726  L 77.41176470588243 15.477848101265863  L 77.41176470588243 17.325949367088697  L 76.49019607843138 18.943037974683534  L 74.6470588235295 21.484177215189902  L 75.79901960784309 23.794303797468388  L 78.33333333333326 25.41139240506334  L 81.32843137254895 26.335443037974642  L 85.01470588235293 26.79746835443041  L 88.00980392156862 30.031645569620196  L 91.00490196078431 31.87974683544303  L 91.6960784313726 34.651898734177166  L 91.6960784313726 37.193037974683534  L 94 39.7341772151899  L 91.6960784313726 41.813291139240505  L 92.38725490196089 43.66139240506334  L 91.00490196078431 45.278481012658176  L 88.00980392156862 45.278481012658176  L 85.01470588235293 46.895569620253134  L 82.25 49.89873417721526  L 79.25490196078431 49.89873417721526  L 77.41176470588243 51.74683544303798  L 76.49019607843138 55.443037974683534  L 74.6470588235295 57.9841772151899  L 71.19117647058829 59.13924050632909  L 67.27450980392155 59.13924050632909  L 64.74019607843138 60.063291139240505  L 64.74019607843138 60.52531645569628  L 66.58333333333326 61.218354430379804  L 65.8921568627452 62.83544303797465  L 67.27450980392155 65.14556962025313  L 67.96568627450984 67.91772151898726  L 66.58333333333326 70.22784810126586  L 66.58333333333326 73  L 63.58823529411757 71.8449367088607  L 60.59313725490188 72.53797468354423  L 57.82843137254895 70.22784810126586  L 55.06372549019602 69.30379746835445  L 51.83823529411757 68.61075949367091  L 48.38235294117658 68.61075949367091  L 45.848039215686185 69.30379746835445  L 42.852941176470495 70.22784810126586  L 39.857843137254804 69.30379746835445  L 35.94117647058829 70.22784810126586  L 33.86764705882342 69.30379746835445  L 31.333333333333258 67.45569620253173  L 28.107843137254804 67.91772151898726  L 25.343137254901876 67.45569620253173  L 22.348039215686185 66.76265822784819  L 20.044117647058783 66.76265822784819  L 17.50980392156862 69.30379746835445  Z " fill-rule="nonzero" fill="#ffffff" stroke="none" fill-opacity="0" transform="matrix(1 0 0 1 1140 593 )" />
    <path d="M 17.50980392156862 69.30379746835445  L 13.593137254901876 69.30379746835445  L 11.058823529411711 66.76265822784819  L 11.058823529411711 62.14240506329122  L 8.75490196078431 60.52531645569628  L 6.68137254901967 59.13924050632909  L 5.9901960784313815 57.9841772151899  L 4.607843137254804 57.9841772151899  L 4.607843137254804 55.443037974683534  L 5.299019607843093 54.287974683544235  L 5.299019607843093 52.439873417721515  L 3.6862745098039795 51.74683544303798  L 3.6862745098039795 51.28481012658232  L 2.534313725490165 49.89873417721526  L 0.6911764705882888 49.205696202531726  L 0.6911764705882888 48.05063291139243  L 2.534313725490165 48.74367088607596  L 3.2254901960784537 48.05063291139243  L 3.2254901960784537 46.895569620253134  L 3.6862745098039795 43.66139240506334  L 4.607843137254804 41.813291139240505  L 3.2254901960784537 40.196202531645554  L 0.6911764705882888 40.196202531645554  L 0 39.04113924050637  L 0.6911764705882888 37.88607594936707  L 0.6911764705882888 36.037974683544235  L 0.6911764705882888 35.11392405063293  L 2.534313725490165 35.11392405063293  L 3.6862745098039795 33.2658227848101  L 6.68137254901967 33.2658227848101  L 8.06372549019602 31.87974683544303  L 10.137254901960887 31.87974683544303  L 11.75 33.2658227848101  L 13.593137254901876 33.2658227848101  L 15.66666666666674 33.2658227848101  L 15.66666666666674 31.87974683544303  L 18.892156862745196 31.87974683544303  L 22.348039215686185 31.87974683544303  L 28.107843137254804 30.72468354430373  L 31.333333333333258 29.33860759493666  L 32.48529411764707 26.79746835443041  L 33.86764705882342 25.41139240506334  L 35.01960784313724 25.41139240506334  L 35.01960784313724 19.4050632911393  L 35.01960784313724 17.325949367088697  L 35.01960784313724 15.939873417721628  L 35.01960784313724 14.784810126582329  L 38.24509803921569 14.784810126582329  L 41.470588235294144 14.784810126582329  L 43.54411764705878 15.939873417721628  L 44.465686274509835 14.091772151898795  L 47.23039215686276 9.471518987341824  L 49.995098039215684 6.237341772151922  L 52.99019607843138 8.547468354430407  L 56.67647058823536 9.471518987341824  L 57.82843137254895 8.547468354430407  L 58.98039215686276 5.082278481012622  L 60.59313725490188 2.3101265822784853  L 62.20588235294122 2.3101265822784853  L 64.04901960784309 2.3101265822784853  L 64.74019607843138 0  L 66.58333333333326 0  L 67.96568627450984 0  L 67.96568627450984 2.3101265822784853  L 69.80882352941171 5.082278481012622  L 71.19117647058829 7.161392405063339  L 73.49509803921569 7.161392405063339  L 74.6470588235295 9.471518987341824  L 75.79901960784309 10.395569620253127  L 75.79901960784309 12.705696202531726  L 77.41176470588243 15.477848101265863  L 77.41176470588243 17.325949367088697  L 76.49019607843138 18.943037974683534  L 74.6470588235295 21.484177215189902  L 75.79901960784309 23.794303797468388  L 78.33333333333326 25.41139240506334  L 81.32843137254895 26.335443037974642  L 85.01470588235293 26.79746835443041  L 88.00980392156862 30.031645569620196  L 91.00490196078431 31.87974683544303  L 91.6960784313726 34.651898734177166  L 91.6960784313726 37.193037974683534  L 94 39.7341772151899  L 91.6960784313726 41.813291139240505  L 92.38725490196089 43.66139240506334  L 91.00490196078431 45.278481012658176  L 88.00980392156862 45.278481012658176  L 85.01470588235293 46.895569620253134  L 82.25 49.89873417721526  L 79.25490196078431 49.89873417721526  L 77.41176470588243 51.74683544303798  L 76.49019607843138 55.443037974683534  L 74.6470588235295 57.9841772151899  L 71.19117647058829 59.13924050632909  L 67.27450980392155 59.13924050632909  L 64.74019607843138 60.063291139240505  L 64.74019607843138 60.52531645569628  L 66.58333333333326 61.218354430379804  L 65.8921568627452 62.83544303797465  L 67.27450980392155 65.14556962025313  L 67.96568627450984 67.91772151898726  L 66.58333333333326 70.22784810126586  L 66.58333333333326 73  L 63.58823529411757 71.8449367088607  L 60.59313725490188 72.53797468354423  L 57.82843137254895 70.22784810126586  L 55.06372549019602 69.30379746835445  L 51.83823529411757 68.61075949367091  L 48.38235294117658 68.61075949367091  L 45.848039215686185 69.30379746835445  L 42.852941176470495 70.22784810126586  L 39.857843137254804 69.30379746835445  L 35.94117647058829 70.22784810126586  L 33.86764705882342 69.30379746835445  L 31.333333333333258 67.45569620253173  L 28.107843137254804 67.91772151898726  L 25.343137254901876 67.45569620253173  L 22.348039215686185 66.76265822784819  L 20.044117647058783 66.76265822784819  L 17.50980392156862 69.30379746835445  Z " stroke-width="2" stroke="#ffa897" fill="none" transform="matrix(1 0 0 1 1140 593 )" mask="url(#clip283)" />
  </g>
</svg>