<?xml version="1.0" encoding="utf-8"?>
<svg version="1.1" xmlns:xlink="http://www.w3.org/1999/xlink" width="22px" height="31px" xmlns="http://www.w3.org/2000/svg">
  <defs>
    <mask fill="white" id="clip157">
      <path d="M 2.041237113402076 7.198501872659108  L 1.4742268041236457 6.3857677902620935  L 2.8350515463916963 4.528089887640476  L 4.195876288659747 4.528089887640476  L 5.89690721649481 3.4831460674157597  L 6.804123711340253 3.4831460674157597  L 6.804123711340253 2.205992509363341  L 8.391752577319494 1.2771535580524187  L 10.43298969072157 2.205992509363341  L 11.907216494845443 1.2771535580524187  L 13.494845360824684 0  L 14.288659793814304 0  L 13.494845360824684 2.205992509363341  L 14.288659793814304 2.7865168539325396  L 15.649484536082355 1.2771535580524187  L 15.649484536082355 0  L 18.030927835051443 2.205992509363341  L 19.84536082474233 2.205992509363341  L 20.525773195876354 2.7865168539325396  L 20.525773195876354 4.528089887640476  L 21.20618556701038 5.224719101123583  L 22 6.3857677902620935  L 22 8.823970037453137  L 22 10.333333333333258  L 19.164948453608304 11.726591760299584  L 18.030927835051443 10.91385767790257  L 16.32989690721638 13.003745318352117  L 16.32989690721638 15.209737827715344  L 15.649484536082355 16.83520599250926  L 14.288659793814304 17.996254681647883  L 14.288659793814304 19.970037453183522  L 13.494845360824684 21.01498127340824  L 14.288659793814304 21.711610486891345  L 12.701030927835063 23.104868913857672  L 12.701030927835063 24.84644194756561  L 11.907216494845443 26.704119850187226  L 11.907216494845443 28.44569288389505  L 11 28.44569288389505  L 11 30.30337078651678  L 9.525773195876354 29.258426966292063  L 8.391752577319494 29.258426966292063  L 5.32989690721638 31  L 4.195876288659747 31  L 4.195876288659747 30.30337078651678  L 4.876288659793772 29.258426966292063  L 5.32989690721638 28.44569288389505  L 5.89690721649481 27.400749063670332  L 5.32989690721638 25.891385767790325  L 3.742268041237139 26.704119850187226  L 2.8350515463916963 26.704119850187226  L 2.041237113402076 25.891385767790325  L 2.041237113402076 24.033707865168594  L 2.8350515463916963 23.104868913857672  L 3.742268041237139 21.711610486891345  L 2.041237113402076 21.711610486891345  L 2.8350515463916963 19.970037453183522  L 1.4742268041236457 18.925093632958806  L 1.4742268041236457 16.83520599250926  L 0.7938144329896204 16.83520599250926  L 1.4742268041236457 15.790262172284656  L 0.7938144329896204 15.209737827715344  L 0 14.048689138576833  L 0.7938144329896204 12.423220973782804  L 1.4742268041236457 11.726591760299584  L 2.041237113402076 10.91385767790257  L 2.8350515463916963 10.333333333333258  L 2.8350515463916963 8.823970037453137  L 2.041237113402076 8.823970037453137  L 2.041237113402076 7.198501872659108  Z " fill-rule="evenodd" />
    </mask>
  </defs>
  <g transform="matrix(1 0 0 1 -1303 -705 )">
    <path d="M 2.041237113402076 7.198501872659108  L 1.4742268041236457 6.3857677902620935  L 2.8350515463916963 4.528089887640476  L 4.195876288659747 4.528089887640476  L 5.89690721649481 3.4831460674157597  L 6.804123711340253 3.4831460674157597  L 6.804123711340253 2.205992509363341  L 8.391752577319494 1.2771535580524187  L 10.43298969072157 2.205992509363341  L 11.907216494845443 1.2771535580524187  L 13.494845360824684 0  L 14.288659793814304 0  L 13.494845360824684 2.205992509363341  L 14.288659793814304 2.7865168539325396  L 15.649484536082355 1.2771535580524187  L 15.649484536082355 0  L 18.030927835051443 2.205992509363341  L 19.84536082474233 2.205992509363341  L 20.525773195876354 2.7865168539325396  L 20.525773195876354 4.528089887640476  L 21.20618556701038 5.224719101123583  L 22 6.3857677902620935  L 22 8.823970037453137  L 22 10.333333333333258  L 19.164948453608304 11.726591760299584  L 18.030927835051443 10.91385767790257  L 16.32989690721638 13.003745318352117  L 16.32989690721638 15.209737827715344  L 15.649484536082355 16.83520599250926  L 14.288659793814304 17.996254681647883  L 14.288659793814304 19.970037453183522  L 13.494845360824684 21.01498127340824  L 14.288659793814304 21.711610486891345  L 12.701030927835063 23.104868913857672  L 12.701030927835063 24.84644194756561  L 11.907216494845443 26.704119850187226  L 11.907216494845443 28.44569288389505  L 11 28.44569288389505  L 11 30.30337078651678  L 9.525773195876354 29.258426966292063  L 8.391752577319494 29.258426966292063  L 5.32989690721638 31  L 4.195876288659747 31  L 4.195876288659747 30.30337078651678  L 4.876288659793772 29.258426966292063  L 5.32989690721638 28.44569288389505  L 5.89690721649481 27.400749063670332  L 5.32989690721638 25.891385767790325  L 3.742268041237139 26.704119850187226  L 2.8350515463916963 26.704119850187226  L 2.041237113402076 25.891385767790325  L 2.041237113402076 24.033707865168594  L 2.8350515463916963 23.104868913857672  L 3.742268041237139 21.711610486891345  L 2.041237113402076 21.711610486891345  L 2.8350515463916963 19.970037453183522  L 1.4742268041236457 18.925093632958806  L 1.4742268041236457 16.83520599250926  L 0.7938144329896204 16.83520599250926  L 1.4742268041236457 15.790262172284656  L 0.7938144329896204 15.209737827715344  L 0 14.048689138576833  L 0.7938144329896204 12.423220973782804  L 1.4742268041236457 11.726591760299584  L 2.041237113402076 10.91385767790257  L 2.8350515463916963 10.333333333333258  L 2.8350515463916963 8.823970037453137  L 2.041237113402076 8.823970037453137  L 2.041237113402076 7.198501872659108  Z " fill-rule="nonzero" fill="#ffffff" stroke="none" fill-opacity="0" transform="matrix(1 0 0 1 1303 705 )" />
    <path d="M 2.041237113402076 7.198501872659108  L 1.4742268041236457 6.3857677902620935  L 2.8350515463916963 4.528089887640476  L 4.195876288659747 4.528089887640476  L 5.89690721649481 3.4831460674157597  L 6.804123711340253 3.4831460674157597  L 6.804123711340253 2.205992509363341  L 8.391752577319494 1.2771535580524187  L 10.43298969072157 2.205992509363341  L 11.907216494845443 1.2771535580524187  L 13.494845360824684 0  L 14.288659793814304 0  L 13.494845360824684 2.205992509363341  L 14.288659793814304 2.7865168539325396  L 15.649484536082355 1.2771535580524187  L 15.649484536082355 0  L 18.030927835051443 2.205992509363341  L 19.84536082474233 2.205992509363341  L 20.525773195876354 2.7865168539325396  L 20.525773195876354 4.528089887640476  L 21.20618556701038 5.224719101123583  L 22 6.3857677902620935  L 22 8.823970037453137  L 22 10.333333333333258  L 19.164948453608304 11.726591760299584  L 18.030927835051443 10.91385767790257  L 16.32989690721638 13.003745318352117  L 16.32989690721638 15.209737827715344  L 15.649484536082355 16.83520599250926  L 14.288659793814304 17.996254681647883  L 14.288659793814304 19.970037453183522  L 13.494845360824684 21.01498127340824  L 14.288659793814304 21.711610486891345  L 12.701030927835063 23.104868913857672  L 12.701030927835063 24.84644194756561  L 11.907216494845443 26.704119850187226  L 11.907216494845443 28.44569288389505  L 11 28.44569288389505  L 11 30.30337078651678  L 9.525773195876354 29.258426966292063  L 8.391752577319494 29.258426966292063  L 5.32989690721638 31  L 4.195876288659747 31  L 4.195876288659747 30.30337078651678  L 4.876288659793772 29.258426966292063  L 5.32989690721638 28.44569288389505  L 5.89690721649481 27.400749063670332  L 5.32989690721638 25.891385767790325  L 3.742268041237139 26.704119850187226  L 2.8350515463916963 26.704119850187226  L 2.041237113402076 25.891385767790325  L 2.041237113402076 24.033707865168594  L 2.8350515463916963 23.104868913857672  L 3.742268041237139 21.711610486891345  L 2.041237113402076 21.711610486891345  L 2.8350515463916963 19.970037453183522  L 1.4742268041236457 18.925093632958806  L 1.4742268041236457 16.83520599250926  L 0.7938144329896204 16.83520599250926  L 1.4742268041236457 15.790262172284656  L 0.7938144329896204 15.209737827715344  L 0 14.048689138576833  L 0.7938144329896204 12.423220973782804  L 1.4742268041236457 11.726591760299584  L 2.041237113402076 10.91385767790257  L 2.8350515463916963 10.333333333333258  L 2.8350515463916963 8.823970037453137  L 2.041237113402076 8.823970037453137  L 2.041237113402076 7.198501872659108  Z " stroke-width="2" stroke="#ffa897" fill="none" transform="matrix(1 0 0 1 1303 705 )" mask="url(#clip157)" />
  </g>
</svg>