<?xml version="1.0" encoding="utf-8"?>
<svg version="1.1" xmlns:xlink="http://www.w3.org/1999/xlink" width="26px" height="24px" xmlns="http://www.w3.org/2000/svg">
  <defs>
    <mask fill="white" id="clip1270">
      <path d="M 11.175438596491176 0  L 12.087719298245474 0  L 12.771929824561312 1.8181818181818699  L 13.57017543859638 1.8181818181818699  L 14.482456140350905 2.545454545454618  L 17.561403508771946 3.636363636363626  L 18.359649122807014 5.818181818181756  L 19.5 8.969696969696884  L 20.868421052631675 11.030303030303003  L 20.868421052631675 12.606060606060623  L 20.868421052631675 13.333333333333371  L 23.03508771929819 14.06060606060612  L 23.03508771929819 15.393939393939377  L 25.315789473684163 16.121212121212125  L 26 17.212121212121247  L 26 18.90909090909099  L 23.03508771929819 17.212121212121247  L 22.00877192982466 17.212121212121247  L 23.03508771929819 18.90909090909099  L 23.03508771929819 19.75757575757575  L 22.00877192982466 21.81818181818187  L 22.00877192982466 22.66666666666663  L 20.298245614035068 24  L 18.92982456140362 22.66666666666663  L 17.561403508771946 22.66666666666663  L 15.736842105263124 22.66666666666663  L 14.482456140350905 21.81818181818187  L 13.57017543859638 21.81818181818187  L 12.087719298245474 21.81818181818187  L 12.771929824561312 19.75757575757575  L 11.175438596491176 18.90909090909099  L 10.263157894736878 17.212121212121247  L 11.175438596491176 16.121212121212125  L 11.175438596491176 14.06060606060612  L 12.087719298245474 14.06060606060612  L 12.771929824561312 14.909090909090878  L 13.57017543859638 14.06060606060612  L 13.57017543859638 12.606060606060623  L 12.087719298245474 12.606060606060623  L 11.175438596491176 12.606060606060623  L 10.263157894736878 13.333333333333371  L 9.008771929824661 13.333333333333371  L 9.008771929824661 11.030303030303003  L 7.868421052631674 11.030303030303003  L 7.868421052631674 8.969696969696884  L 8.438596491228054 8.969696969696884  L 8.438596491228054 8.121212121212125  L 6.95614035087715 8.121212121212125  L 6.271929824561312 6.909090909090992  L 3.7631578947368785 6.909090909090992  L 2.9649122807018102 4.969696969696997  L 1.3684210526316747 3.636363636363626  L 0 3.636363636363626  L 0 2.545454545454618  L 2.1666666666667425 1.8181818181818699  L 3.7631578947368785 3.636363636363626  L 4.675438596491176 3.636363636363626  L 5.473684210526244 4.242424242424249  L 6.271929824561312 3.636363636363626  L 6.271929824561312 2.545454545454618  L 7.868421052631674 2.545454545454618  L 7.868421052631674 3.636363636363626  L 9.008771929824661 3.636363636363626  L 9.008771929824661 2.545454545454618  L 10.263157894736878 2.545454545454618  L 11.175438596491176 1.2121212121212466  L 11.175438596491176 0  Z " fill-rule="evenodd" />
    </mask>
  </defs>
  <g transform="matrix(1 0 0 1 -1313 -676 )">
    <path d="M 11.175438596491176 0  L 12.087719298245474 0  L 12.771929824561312 1.8181818181818699  L 13.57017543859638 1.8181818181818699  L 14.482456140350905 2.545454545454618  L 17.561403508771946 3.636363636363626  L 18.359649122807014 5.818181818181756  L 19.5 8.969696969696884  L 20.868421052631675 11.030303030303003  L 20.868421052631675 12.606060606060623  L 20.868421052631675 13.333333333333371  L 23.03508771929819 14.06060606060612  L 23.03508771929819 15.393939393939377  L 25.315789473684163 16.121212121212125  L 26 17.212121212121247  L 26 18.90909090909099  L 23.03508771929819 17.212121212121247  L 22.00877192982466 17.212121212121247  L 23.03508771929819 18.90909090909099  L 23.03508771929819 19.75757575757575  L 22.00877192982466 21.81818181818187  L 22.00877192982466 22.66666666666663  L 20.298245614035068 24  L 18.92982456140362 22.66666666666663  L 17.561403508771946 22.66666666666663  L 15.736842105263124 22.66666666666663  L 14.482456140350905 21.81818181818187  L 13.57017543859638 21.81818181818187  L 12.087719298245474 21.81818181818187  L 12.771929824561312 19.75757575757575  L 11.175438596491176 18.90909090909099  L 10.263157894736878 17.212121212121247  L 11.175438596491176 16.121212121212125  L 11.175438596491176 14.06060606060612  L 12.087719298245474 14.06060606060612  L 12.771929824561312 14.909090909090878  L 13.57017543859638 14.06060606060612  L 13.57017543859638 12.606060606060623  L 12.087719298245474 12.606060606060623  L 11.175438596491176 12.606060606060623  L 10.263157894736878 13.333333333333371  L 9.008771929824661 13.333333333333371  L 9.008771929824661 11.030303030303003  L 7.868421052631674 11.030303030303003  L 7.868421052631674 8.969696969696884  L 8.438596491228054 8.969696969696884  L 8.438596491228054 8.121212121212125  L 6.95614035087715 8.121212121212125  L 6.271929824561312 6.909090909090992  L 3.7631578947368785 6.909090909090992  L 2.9649122807018102 4.969696969696997  L 1.3684210526316747 3.636363636363626  L 0 3.636363636363626  L 0 2.545454545454618  L 2.1666666666667425 1.8181818181818699  L 3.7631578947368785 3.636363636363626  L 4.675438596491176 3.636363636363626  L 5.473684210526244 4.242424242424249  L 6.271929824561312 3.636363636363626  L 6.271929824561312 2.545454545454618  L 7.868421052631674 2.545454545454618  L 7.868421052631674 3.636363636363626  L 9.008771929824661 3.636363636363626  L 9.008771929824661 2.545454545454618  L 10.263157894736878 2.545454545454618  L 11.175438596491176 1.2121212121212466  L 11.175438596491176 0  Z " fill-rule="nonzero" fill="#ffffff" stroke="none" fill-opacity="0" transform="matrix(1 0 0 1 1313 676 )" />
    <path d="M 11.175438596491176 0  L 12.087719298245474 0  L 12.771929824561312 1.8181818181818699  L 13.57017543859638 1.8181818181818699  L 14.482456140350905 2.545454545454618  L 17.561403508771946 3.636363636363626  L 18.359649122807014 5.818181818181756  L 19.5 8.969696969696884  L 20.868421052631675 11.030303030303003  L 20.868421052631675 12.606060606060623  L 20.868421052631675 13.333333333333371  L 23.03508771929819 14.06060606060612  L 23.03508771929819 15.393939393939377  L 25.315789473684163 16.121212121212125  L 26 17.212121212121247  L 26 18.90909090909099  L 23.03508771929819 17.212121212121247  L 22.00877192982466 17.212121212121247  L 23.03508771929819 18.90909090909099  L 23.03508771929819 19.75757575757575  L 22.00877192982466 21.81818181818187  L 22.00877192982466 22.66666666666663  L 20.298245614035068 24  L 18.92982456140362 22.66666666666663  L 17.561403508771946 22.66666666666663  L 15.736842105263124 22.66666666666663  L 14.482456140350905 21.81818181818187  L 13.57017543859638 21.81818181818187  L 12.087719298245474 21.81818181818187  L 12.771929824561312 19.75757575757575  L 11.175438596491176 18.90909090909099  L 10.263157894736878 17.212121212121247  L 11.175438596491176 16.121212121212125  L 11.175438596491176 14.06060606060612  L 12.087719298245474 14.06060606060612  L 12.771929824561312 14.909090909090878  L 13.57017543859638 14.06060606060612  L 13.57017543859638 12.606060606060623  L 12.087719298245474 12.606060606060623  L 11.175438596491176 12.606060606060623  L 10.263157894736878 13.333333333333371  L 9.008771929824661 13.333333333333371  L 9.008771929824661 11.030303030303003  L 7.868421052631674 11.030303030303003  L 7.868421052631674 8.969696969696884  L 8.438596491228054 8.969696969696884  L 8.438596491228054 8.121212121212125  L 6.95614035087715 8.121212121212125  L 6.271929824561312 6.909090909090992  L 3.7631578947368785 6.909090909090992  L 2.9649122807018102 4.969696969696997  L 1.3684210526316747 3.636363636363626  L 0 3.636363636363626  L 0 2.545454545454618  L 2.1666666666667425 1.8181818181818699  L 3.7631578947368785 3.636363636363626  L 4.675438596491176 3.636363636363626  L 5.473684210526244 4.242424242424249  L 6.271929824561312 3.636363636363626  L 6.271929824561312 2.545454545454618  L 7.868421052631674 2.545454545454618  L 7.868421052631674 3.636363636363626  L 9.008771929824661 3.636363636363626  L 9.008771929824661 2.545454545454618  L 10.263157894736878 2.545454545454618  L 11.175438596491176 1.2121212121212466  L 11.175438596491176 0  Z " stroke-width="2" stroke="#ffa897" fill="none" transform="matrix(1 0 0 1 1313 676 )" mask="url(#clip1270)" />
  </g>
</svg>