<?xml version="1.0" encoding="utf-8"?>
<svg version="1.1" xmlns:xlink="http://www.w3.org/1999/xlink" width="28px" height="26px" xmlns="http://www.w3.org/2000/svg">
  <defs>
    <mask fill="white" id="clip303">
      <path d="M 14.462809917355342 2.6113537117903434  L 14.462809917355342 0  L 16.89256198347107 0  L 20.24793388429748 1.362445414847116  L 21.520661157024733 0.681222707423558  L 21.520661157024733 3.1790393013101266  L 21.520661157024733 4.2008733624454635  L 20.24793388429748 5.336244541484689  L 19.553719008264352 7.379912663755363  L 20.94214876033061 7.379912663755363  L 22.793388429751985 8.969432314410483  L 24.52892561983458 8.969432314410483  L 25.80165289256206 9.76419213973793  L 27.421487603305877 11.126637554585159  L 28 12.716157205240165  L 25.80165289256206 13.510917030567725  L 24.52892561983458 12.034934497816607  L 22.793388429751985 12.716157205240165  L 23.371900826446335 14.192139737991281  L 22.099173553719083 14.873362445414841  L 22.099173553719083 16.803493449781627  L 21.520661157024733 17.711790393013075  L 20.94214876033061 16.803493449781627  L 20.24793388429748 17.711790393013075  L 20.94214876033061 18.847161572052414  L 21.520661157024733 20.20960698689953  L 24.066115702479237 20.20960698689953  L 24.52892561983458 20.20960698689953  L 25.10743801652893 22.480349344978094  L 25.10743801652893 24.183406113537217  L 24.52892561983458 24.751091703056773  L 22.793388429751985 26  L 22.099173553719083 24.751091703056773  L 20.94214876033061 26  L 18.85950413223145 25.318777292576442  L 17.47107438016542 24.751091703056773  L 16.89256198347107 24.751091703056773  L 15.619834710743818 23.275109170305655  L 15.619834710743818 21.23144104803498  L 14.462809917355342 22.480349344978094  L 13.074380165289313 21.799126637554537  L 11.685950413223054 21.799126637554537  L 8.793388429751985 21.799126637554537  L 5.206611570248015 20.20960698689953  L 4.165289256198321 19.528384279475972  L 3.1239669421488543 17.711790393013075  L 3.1239669421488543 16.00873362445418  L 1.7355371900825958 14.192139737991281  L 1.157024793388473 13.510917030567725  L 1.157024793388473 12.716157205240165  L 0 11.126637554585159  L 0 9.76419213973793  L 2.661157024793283 9.76419213973793  L 5.206611570248015 8.288209606986925  L 6.595041322314046 6.812227074235807  L 7.867768595041298 6.812227074235807  L 7.867768595041298 5.903930131004358  L 10.876033057851146 5.903930131004358  L 12.495867768594962 4.8820960698690214  L 13.652892561983435 4.2008733624454635  L 14.462809917355342 2.6113537117903434  Z " fill-rule="evenodd" />
    </mask>
  </defs>
  <g transform="matrix(1 0 0 1 -1288 -672 )">
    <path d="M 14.462809917355342 2.6113537117903434  L 14.462809917355342 0  L 16.89256198347107 0  L 20.24793388429748 1.362445414847116  L 21.520661157024733 0.681222707423558  L 21.520661157024733 3.1790393013101266  L 21.520661157024733 4.2008733624454635  L 20.24793388429748 5.336244541484689  L 19.553719008264352 7.379912663755363  L 20.94214876033061 7.379912663755363  L 22.793388429751985 8.969432314410483  L 24.52892561983458 8.969432314410483  L 25.80165289256206 9.76419213973793  L 27.421487603305877 11.126637554585159  L 28 12.716157205240165  L 25.80165289256206 13.510917030567725  L 24.52892561983458 12.034934497816607  L 22.793388429751985 12.716157205240165  L 23.371900826446335 14.192139737991281  L 22.099173553719083 14.873362445414841  L 22.099173553719083 16.803493449781627  L 21.520661157024733 17.711790393013075  L 20.94214876033061 16.803493449781627  L 20.24793388429748 17.711790393013075  L 20.94214876033061 18.847161572052414  L 21.520661157024733 20.20960698689953  L 24.066115702479237 20.20960698689953  L 24.52892561983458 20.20960698689953  L 25.10743801652893 22.480349344978094  L 25.10743801652893 24.183406113537217  L 24.52892561983458 24.751091703056773  L 22.793388429751985 26  L 22.099173553719083 24.751091703056773  L 20.94214876033061 26  L 18.85950413223145 25.318777292576442  L 17.47107438016542 24.751091703056773  L 16.89256198347107 24.751091703056773  L 15.619834710743818 23.275109170305655  L 15.619834710743818 21.23144104803498  L 14.462809917355342 22.480349344978094  L 13.074380165289313 21.799126637554537  L 11.685950413223054 21.799126637554537  L 8.793388429751985 21.799126637554537  L 5.206611570248015 20.20960698689953  L 4.165289256198321 19.528384279475972  L 3.1239669421488543 17.711790393013075  L 3.1239669421488543 16.00873362445418  L 1.7355371900825958 14.192139737991281  L 1.157024793388473 13.510917030567725  L 1.157024793388473 12.716157205240165  L 0 11.126637554585159  L 0 9.76419213973793  L 2.661157024793283 9.76419213973793  L 5.206611570248015 8.288209606986925  L 6.595041322314046 6.812227074235807  L 7.867768595041298 6.812227074235807  L 7.867768595041298 5.903930131004358  L 10.876033057851146 5.903930131004358  L 12.495867768594962 4.8820960698690214  L 13.652892561983435 4.2008733624454635  L 14.462809917355342 2.6113537117903434  Z " fill-rule="nonzero" fill="#ffffff" stroke="none" fill-opacity="0" transform="matrix(1 0 0 1 1288 672 )" />
    <path d="M 14.462809917355342 2.6113537117903434  L 14.462809917355342 0  L 16.89256198347107 0  L 20.24793388429748 1.362445414847116  L 21.520661157024733 0.681222707423558  L 21.520661157024733 3.1790393013101266  L 21.520661157024733 4.2008733624454635  L 20.24793388429748 5.336244541484689  L 19.553719008264352 7.379912663755363  L 20.94214876033061 7.379912663755363  L 22.793388429751985 8.969432314410483  L 24.52892561983458 8.969432314410483  L 25.80165289256206 9.76419213973793  L 27.421487603305877 11.126637554585159  L 28 12.716157205240165  L 25.80165289256206 13.510917030567725  L 24.52892561983458 12.034934497816607  L 22.793388429751985 12.716157205240165  L 23.371900826446335 14.192139737991281  L 22.099173553719083 14.873362445414841  L 22.099173553719083 16.803493449781627  L 21.520661157024733 17.711790393013075  L 20.94214876033061 16.803493449781627  L 20.24793388429748 17.711790393013075  L 20.94214876033061 18.847161572052414  L 21.520661157024733 20.20960698689953  L 24.066115702479237 20.20960698689953  L 24.52892561983458 20.20960698689953  L 25.10743801652893 22.480349344978094  L 25.10743801652893 24.183406113537217  L 24.52892561983458 24.751091703056773  L 22.793388429751985 26  L 22.099173553719083 24.751091703056773  L 20.94214876033061 26  L 18.85950413223145 25.318777292576442  L 17.47107438016542 24.751091703056773  L 16.89256198347107 24.751091703056773  L 15.619834710743818 23.275109170305655  L 15.619834710743818 21.23144104803498  L 14.462809917355342 22.480349344978094  L 13.074380165289313 21.799126637554537  L 11.685950413223054 21.799126637554537  L 8.793388429751985 21.799126637554537  L 5.206611570248015 20.20960698689953  L 4.165289256198321 19.528384279475972  L 3.1239669421488543 17.711790393013075  L 3.1239669421488543 16.00873362445418  L 1.7355371900825958 14.192139737991281  L 1.157024793388473 13.510917030567725  L 1.157024793388473 12.716157205240165  L 0 11.126637554585159  L 0 9.76419213973793  L 2.661157024793283 9.76419213973793  L 5.206611570248015 8.288209606986925  L 6.595041322314046 6.812227074235807  L 7.867768595041298 6.812227074235807  L 7.867768595041298 5.903930131004358  L 10.876033057851146 5.903930131004358  L 12.495867768594962 4.8820960698690214  L 13.652892561983435 4.2008733624454635  L 14.462809917355342 2.6113537117903434  Z " stroke-width="2" stroke="#ffa897" fill="none" transform="matrix(1 0 0 1 1288 672 )" mask="url(#clip303)" />
  </g>
</svg>