<?xml version="1.0" encoding="utf-8"?>
<svg version="1.1" xmlns:xlink="http://www.w3.org/1999/xlink" width="25px" height="37px" xmlns="http://www.w3.org/2000/svg">
  <defs>
    <mask fill="white" id="clip774">
      <path d="M 0.8139534883721353 35.70793650793655  L 0 34.06349206349205  L 0.8139534883721353 33.241269841269855  L 1.3953488372092124 31.596825396825352  L 2.4418604651161786 28.895238095238028  L 1.3953488372092124 27.133333333333326  L 1.3953488372092124 25.60634920634925  L 0 25.60634920634925  L 0 23.844444444444434  L 0.8139534883721353 22.434920634920676  L 0.8139534883721353 21.14285714285711  L 1.3953488372092124 20.320634920634916  L 2.4418604651161786 20.320634920634916  L 3.1395348837208985 19.733333333333235  L 3.7209302325582034 17.384126984126965  L 3.1395348837208985 16.796825396825398  L 2.4418604651161786 15.739682539682462  L 1.3953488372092124 15.739682539682462  L 1.3953488372092124 14.565079365079441  L 3.1395348837208985 13.27301587301588  L 2.4418604651161786 11.74603174603169  L 1.3953488372092124 9.866666666666674  L 0 9.04444444444448  L 0.8139534883721353 8.104761904761972  L 0.8139534883721353 6.577777777777783  L 1.3953488372092124 6.577777777777783  L 2.4418604651161786 4.463492063492026  L 3.1395348837208985 3.2888888888888914  L 3.7209302325582034 2.701587301587324  L 4.4186046511626955 4.463492063492026  L 4.4186046511626955 5.638095238095275  L 5.232558139534831 5.638095238095275  L 6.511627906976855 5.638095238095275  L 8.488372093023372 3.2888888888888914  L 9.06976744186045 4.463492063492026  L 10.23255813953483 3.2888888888888914  L 11.162790697674382 3.2888888888888914  L 11.744186046511686 3.876190476190459  L 12.325581395348763 3.2888888888888914  L 11.744186046511686 2.1142857142857565  L 12.325581395348763 1.4095238095238756  L 12.90697674418607 0.5873015873015675  L 14.186046511627865 0.5873015873015675  L 14.186046511627865 0  L 15.46511627906989 0  L 16.744186046511686 0.5873015873015675  L 16.744186046511686 1.4095238095238756  L 16.744186046511686 2.1142857142857565  L 17.558139534883594 2.701587301587324  L 17.558139534883594 3.2888888888888914  L 17.558139534883594 4.463492063492026  L 18.1395348837209 5.638095238095275  L 18.1395348837209 6.577777777777783  L 20.46511627906966 6.577777777777783  L 22.093023255813932 6.577777777777783  L 21.046511627906966 8.104761904761972  L 21.046511627906966 9.04444444444448  L 21.046511627906966 9.866666666666674  L 22.906976744186068 10.688888888888869  L 23.83720930232562 10.688888888888869  L 25 13.27301587301588  L 23.83720930232562 14.565079365079441  L 22.906976744186068 15.739682539682462  L 22.906976744186068 16.796825396825398  L 22.093023255813932 18.08888888888896  L 21.046511627906966 18.08888888888896  L 19.53488372093011 19.733333333333235  L 18.1395348837209 18.08888888888896  L 17.558139534883594 16.796825396825398  L 16.744186046511686 16.796825396825398  L 16.046511627906966 15.739682539682462  L 16.046511627906966 14.565079365079441  L 16.744186046511686 14.565079365079441  L 16.046511627906966 12.685714285714312  L 15.46511627906989 12.685714285714312  L 14.186046511627865 11.74603174603169  L 15.46511627906989 10.688888888888869  L 12.90697674418607 9.866666666666674  L 11.744186046511686 9.04444444444448  L 10.23255813953483 9.866666666666674  L 9.06976744186045 12.685714285714312  L 9.06976744186045 13.27301587301588  L 7.674418604651237 14.565079365079441  L 7.093023255813932 15.26984126984121  L 7.674418604651237 15.739682539682462  L 7.674418604651237 16.796825396825398  L 8.488372093023372 17.384126984126965  L 10.23255813953483 16.796825396825398  L 11.162790697674382 18.08888888888896  L 11.744186046511686 16.796825396825398  L 12.90697674418607 16.796825396825398  L 12.90697674418607 18.08888888888896  L 13.48837209302337 19.733333333333235  L 12.90697674418607 21.14285714285711  L 14.186046511627865 21.84761904761899  L 14.186046511627865 22.434920634920676  L 15.46511627906989 22.434920634920676  L 16.046511627906966 22.434920634920676  L 16.744186046511686 22.434920634920676  L 17.558139534883594 23.844444444444434  L 17.558139534883594 24.901587301587256  L 16.046511627906966 26.54603174603176  L 14.186046511627865 26.54603174603176  L 12.325581395348763 28.895238095238028  L 11.744186046511686 28.895238095238028  L 10.23255813953483 29.600000000000023  L 9.651162790697754 32.30158730158735  L 7.674418604651237 34.06349206349205  L 7.674418604651237 35.70793650793655  L 8.488372093023372 36.41269841269843  L 6.511627906976855 37  L 3.7209302325582034 36.41269841269843  L 0.8139534883721353 35.70793650793655  Z " fill-rule="evenodd" />
    </mask>
  </defs>
  <g transform="matrix(1 0 0 1 -1302 -636 )">
    <path d="M 0.8139534883721353 35.70793650793655  L 0 34.06349206349205  L 0.8139534883721353 33.241269841269855  L 1.3953488372092124 31.596825396825352  L 2.4418604651161786 28.895238095238028  L 1.3953488372092124 27.133333333333326  L 1.3953488372092124 25.60634920634925  L 0 25.60634920634925  L 0 23.844444444444434  L 0.8139534883721353 22.434920634920676  L 0.8139534883721353 21.14285714285711  L 1.3953488372092124 20.320634920634916  L 2.4418604651161786 20.320634920634916  L 3.1395348837208985 19.733333333333235  L 3.7209302325582034 17.384126984126965  L 3.1395348837208985 16.796825396825398  L 2.4418604651161786 15.739682539682462  L 1.3953488372092124 15.739682539682462  L 1.3953488372092124 14.565079365079441  L 3.1395348837208985 13.27301587301588  L 2.4418604651161786 11.74603174603169  L 1.3953488372092124 9.866666666666674  L 0 9.04444444444448  L 0.8139534883721353 8.104761904761972  L 0.8139534883721353 6.577777777777783  L 1.3953488372092124 6.577777777777783  L 2.4418604651161786 4.463492063492026  L 3.1395348837208985 3.2888888888888914  L 3.7209302325582034 2.701587301587324  L 4.4186046511626955 4.463492063492026  L 4.4186046511626955 5.638095238095275  L 5.232558139534831 5.638095238095275  L 6.511627906976855 5.638095238095275  L 8.488372093023372 3.2888888888888914  L 9.06976744186045 4.463492063492026  L 10.23255813953483 3.2888888888888914  L 11.162790697674382 3.2888888888888914  L 11.744186046511686 3.876190476190459  L 12.325581395348763 3.2888888888888914  L 11.744186046511686 2.1142857142857565  L 12.325581395348763 1.4095238095238756  L 12.90697674418607 0.5873015873015675  L 14.186046511627865 0.5873015873015675  L 14.186046511627865 0  L 15.46511627906989 0  L 16.744186046511686 0.5873015873015675  L 16.744186046511686 1.4095238095238756  L 16.744186046511686 2.1142857142857565  L 17.558139534883594 2.701587301587324  L 17.558139534883594 3.2888888888888914  L 17.558139534883594 4.463492063492026  L 18.1395348837209 5.638095238095275  L 18.1395348837209 6.577777777777783  L 20.46511627906966 6.577777777777783  L 22.093023255813932 6.577777777777783  L 21.046511627906966 8.104761904761972  L 21.046511627906966 9.04444444444448  L 21.046511627906966 9.866666666666674  L 22.906976744186068 10.688888888888869  L 23.83720930232562 10.688888888888869  L 25 13.27301587301588  L 23.83720930232562 14.565079365079441  L 22.906976744186068 15.739682539682462  L 22.906976744186068 16.796825396825398  L 22.093023255813932 18.08888888888896  L 21.046511627906966 18.08888888888896  L 19.53488372093011 19.733333333333235  L 18.1395348837209 18.08888888888896  L 17.558139534883594 16.796825396825398  L 16.744186046511686 16.796825396825398  L 16.046511627906966 15.739682539682462  L 16.046511627906966 14.565079365079441  L 16.744186046511686 14.565079365079441  L 16.046511627906966 12.685714285714312  L 15.46511627906989 12.685714285714312  L 14.186046511627865 11.74603174603169  L 15.46511627906989 10.688888888888869  L 12.90697674418607 9.866666666666674  L 11.744186046511686 9.04444444444448  L 10.23255813953483 9.866666666666674  L 9.06976744186045 12.685714285714312  L 9.06976744186045 13.27301587301588  L 7.674418604651237 14.565079365079441  L 7.093023255813932 15.26984126984121  L 7.674418604651237 15.739682539682462  L 7.674418604651237 16.796825396825398  L 8.488372093023372 17.384126984126965  L 10.23255813953483 16.796825396825398  L 11.162790697674382 18.08888888888896  L 11.744186046511686 16.796825396825398  L 12.90697674418607 16.796825396825398  L 12.90697674418607 18.08888888888896  L 13.48837209302337 19.733333333333235  L 12.90697674418607 21.14285714285711  L 14.186046511627865 21.84761904761899  L 14.186046511627865 22.434920634920676  L 15.46511627906989 22.434920634920676  L 16.046511627906966 22.434920634920676  L 16.744186046511686 22.434920634920676  L 17.558139534883594 23.844444444444434  L 17.558139534883594 24.901587301587256  L 16.046511627906966 26.54603174603176  L 14.186046511627865 26.54603174603176  L 12.325581395348763 28.895238095238028  L 11.744186046511686 28.895238095238028  L 10.23255813953483 29.600000000000023  L 9.651162790697754 32.30158730158735  L 7.674418604651237 34.06349206349205  L 7.674418604651237 35.70793650793655  L 8.488372093023372 36.41269841269843  L 6.511627906976855 37  L 3.7209302325582034 36.41269841269843  L 0.8139534883721353 35.70793650793655  Z " fill-rule="nonzero" fill="#ffffff" stroke="none" fill-opacity="0" transform="matrix(1 0 0 1 1302 636 )" />
    <path d="M 0.8139534883721353 35.70793650793655  L 0 34.06349206349205  L 0.8139534883721353 33.241269841269855  L 1.3953488372092124 31.596825396825352  L 2.4418604651161786 28.895238095238028  L 1.3953488372092124 27.133333333333326  L 1.3953488372092124 25.60634920634925  L 0 25.60634920634925  L 0 23.844444444444434  L 0.8139534883721353 22.434920634920676  L 0.8139534883721353 21.14285714285711  L 1.3953488372092124 20.320634920634916  L 2.4418604651161786 20.320634920634916  L 3.1395348837208985 19.733333333333235  L 3.7209302325582034 17.384126984126965  L 3.1395348837208985 16.796825396825398  L 2.4418604651161786 15.739682539682462  L 1.3953488372092124 15.739682539682462  L 1.3953488372092124 14.565079365079441  L 3.1395348837208985 13.27301587301588  L 2.4418604651161786 11.74603174603169  L 1.3953488372092124 9.866666666666674  L 0 9.04444444444448  L 0.8139534883721353 8.104761904761972  L 0.8139534883721353 6.577777777777783  L 1.3953488372092124 6.577777777777783  L 2.4418604651161786 4.463492063492026  L 3.1395348837208985 3.2888888888888914  L 3.7209302325582034 2.701587301587324  L 4.4186046511626955 4.463492063492026  L 4.4186046511626955 5.638095238095275  L 5.232558139534831 5.638095238095275  L 6.511627906976855 5.638095238095275  L 8.488372093023372 3.2888888888888914  L 9.06976744186045 4.463492063492026  L 10.23255813953483 3.2888888888888914  L 11.162790697674382 3.2888888888888914  L 11.744186046511686 3.876190476190459  L 12.325581395348763 3.2888888888888914  L 11.744186046511686 2.1142857142857565  L 12.325581395348763 1.4095238095238756  L 12.90697674418607 0.5873015873015675  L 14.186046511627865 0.5873015873015675  L 14.186046511627865 0  L 15.46511627906989 0  L 16.744186046511686 0.5873015873015675  L 16.744186046511686 1.4095238095238756  L 16.744186046511686 2.1142857142857565  L 17.558139534883594 2.701587301587324  L 17.558139534883594 3.2888888888888914  L 17.558139534883594 4.463492063492026  L 18.1395348837209 5.638095238095275  L 18.1395348837209 6.577777777777783  L 20.46511627906966 6.577777777777783  L 22.093023255813932 6.577777777777783  L 21.046511627906966 8.104761904761972  L 21.046511627906966 9.04444444444448  L 21.046511627906966 9.866666666666674  L 22.906976744186068 10.688888888888869  L 23.83720930232562 10.688888888888869  L 25 13.27301587301588  L 23.83720930232562 14.565079365079441  L 22.906976744186068 15.739682539682462  L 22.906976744186068 16.796825396825398  L 22.093023255813932 18.08888888888896  L 21.046511627906966 18.08888888888896  L 19.53488372093011 19.733333333333235  L 18.1395348837209 18.08888888888896  L 17.558139534883594 16.796825396825398  L 16.744186046511686 16.796825396825398  L 16.046511627906966 15.739682539682462  L 16.046511627906966 14.565079365079441  L 16.744186046511686 14.565079365079441  L 16.046511627906966 12.685714285714312  L 15.46511627906989 12.685714285714312  L 14.186046511627865 11.74603174603169  L 15.46511627906989 10.688888888888869  L 12.90697674418607 9.866666666666674  L 11.744186046511686 9.04444444444448  L 10.23255813953483 9.866666666666674  L 9.06976744186045 12.685714285714312  L 9.06976744186045 13.27301587301588  L 7.674418604651237 14.565079365079441  L 7.093023255813932 15.26984126984121  L 7.674418604651237 15.739682539682462  L 7.674418604651237 16.796825396825398  L 8.488372093023372 17.384126984126965  L 10.23255813953483 16.796825396825398  L 11.162790697674382 18.08888888888896  L 11.744186046511686 16.796825396825398  L 12.90697674418607 16.796825396825398  L 12.90697674418607 18.08888888888896  L 13.48837209302337 19.733333333333235  L 12.90697674418607 21.14285714285711  L 14.186046511627865 21.84761904761899  L 14.186046511627865 22.434920634920676  L 15.46511627906989 22.434920634920676  L 16.046511627906966 22.434920634920676  L 16.744186046511686 22.434920634920676  L 17.558139534883594 23.844444444444434  L 17.558139534883594 24.901587301587256  L 16.046511627906966 26.54603174603176  L 14.186046511627865 26.54603174603176  L 12.325581395348763 28.895238095238028  L 11.744186046511686 28.895238095238028  L 10.23255813953483 29.600000000000023  L 9.651162790697754 32.30158730158735  L 7.674418604651237 34.06349206349205  L 7.674418604651237 35.70793650793655  L 8.488372093023372 36.41269841269843  L 6.511627906976855 37  L 3.7209302325582034 36.41269841269843  L 0.8139534883721353 35.70793650793655  Z " stroke-width="2" stroke="#ffa897" fill="none" transform="matrix(1 0 0 1 1302 636 )" mask="url(#clip774)" />
  </g>
</svg>