<?xml version="1.0" encoding="utf-8"?>
<svg version="1.1" xmlns:xlink="http://www.w3.org/1999/xlink" width="20px" height="22px" xmlns="http://www.w3.org/2000/svg">
  <defs>
    <mask fill="white" id="clip154">
      <path d="M 10.120481927710898 2  L 12.168674698795257 0.5882352941175668  L 13.01204819277109 2  L 13.97590361445782 2  L 13.01204819277109 2.8235294117647527  L 12.168674698795257 4.352941176470608  L 10.843373493975832 4.352941176470608  L 11.445783132530096 4.941176470588289  L 13.01204819277109 4.941176470588289  L 13.97590361445782 4.352941176470608  L 15.060240963855449 4.352941176470608  L 16.385542168674647 5.529411764705856  L 17.831325301204743 4.941176470588289  L 18.433734939759006 4.352941176470608  L 18.433734939759006 2.8235294117647527  L 20 2.8235294117647527  L 20 4.352941176470608  L 20 5.529411764705856  L 20 6.588235294117567  L 18.433734939759006 7.294117647058783  L 18.433734939759006 6.588235294117567  L 17.228915662650707 8.58823529411768  L 17.831325301204743 8.58823529411768  L 17.831325301204743 9.529411764705856  L 18.433734939759006 10.470588235294144  L 18.433734939759006 11.215686274509835  L 17.228915662650707 11.764705882352928  L 17.831325301204743 12.58823529411768  L 17.228915662650707 13.294117647058783  L 17.831325301204743 15.529411764705856  L 16.385542168674647 16.47058823529403  L 15.060240963855449 17.294117647058897  L 13.97590361445782 17.882352941176464  L 13.01204819277109 19.294117647058783  L 13.01204819277109 20.470588235294144  L 13.01204819277109 22  L 12.168674698795257 22  L 11.445783132530096 21.294117647058783  L 9.518072289156635 22  L 7.590361445783174 19.294117647058783  L 6.144578313253078 21.294117647058783  L 4.939759036144551 21.294117647058783  L 3.6144578313253533 19.294117647058783  L 3.6144578313253533 17.294117647058897  L 1.8072289156627903 16.47058823529403  L 1.8072289156627903 14.823529411764639  L 0.8433734939758324 13.294117647058783  L 0 12.58823529411768  L 0 11.764705882352928  L 3.01204819277109 8.58823529411768  L 3.01204819277109 5.529411764705856  L 4.939759036144551 5.529411764705856  L 5.6626506024097125 4.352941176470608  L 4.939759036144551 4.352941176470608  L 5.6626506024097125 2.8235294117647527  L 5.6626506024097125 2  L 5.6626506024097125 0.5882352941175668  L 7.590361445783174 0  L 8.554216867469904 1.2941176470587834  L 10.120481927710898 2  Z " fill-rule="evenodd" />
    </mask>
  </defs>
  <g transform="matrix(1 0 0 1 -1324 -698 )">
    <path d="M 10.120481927710898 2  L 12.168674698795257 0.5882352941175668  L 13.01204819277109 2  L 13.97590361445782 2  L 13.01204819277109 2.8235294117647527  L 12.168674698795257 4.352941176470608  L 10.843373493975832 4.352941176470608  L 11.445783132530096 4.941176470588289  L 13.01204819277109 4.941176470588289  L 13.97590361445782 4.352941176470608  L 15.060240963855449 4.352941176470608  L 16.385542168674647 5.529411764705856  L 17.831325301204743 4.941176470588289  L 18.433734939759006 4.352941176470608  L 18.433734939759006 2.8235294117647527  L 20 2.8235294117647527  L 20 4.352941176470608  L 20 5.529411764705856  L 20 6.588235294117567  L 18.433734939759006 7.294117647058783  L 18.433734939759006 6.588235294117567  L 17.228915662650707 8.58823529411768  L 17.831325301204743 8.58823529411768  L 17.831325301204743 9.529411764705856  L 18.433734939759006 10.470588235294144  L 18.433734939759006 11.215686274509835  L 17.228915662650707 11.764705882352928  L 17.831325301204743 12.58823529411768  L 17.228915662650707 13.294117647058783  L 17.831325301204743 15.529411764705856  L 16.385542168674647 16.47058823529403  L 15.060240963855449 17.294117647058897  L 13.97590361445782 17.882352941176464  L 13.01204819277109 19.294117647058783  L 13.01204819277109 20.470588235294144  L 13.01204819277109 22  L 12.168674698795257 22  L 11.445783132530096 21.294117647058783  L 9.518072289156635 22  L 7.590361445783174 19.294117647058783  L 6.144578313253078 21.294117647058783  L 4.939759036144551 21.294117647058783  L 3.6144578313253533 19.294117647058783  L 3.6144578313253533 17.294117647058897  L 1.8072289156627903 16.47058823529403  L 1.8072289156627903 14.823529411764639  L 0.8433734939758324 13.294117647058783  L 0 12.58823529411768  L 0 11.764705882352928  L 3.01204819277109 8.58823529411768  L 3.01204819277109 5.529411764705856  L 4.939759036144551 5.529411764705856  L 5.6626506024097125 4.352941176470608  L 4.939759036144551 4.352941176470608  L 5.6626506024097125 2.8235294117647527  L 5.6626506024097125 2  L 5.6626506024097125 0.5882352941175668  L 7.590361445783174 0  L 8.554216867469904 1.2941176470587834  L 10.120481927710898 2  Z " fill-rule="nonzero" fill="#ffffff" stroke="none" fill-opacity="0" transform="matrix(1 0 0 1 1324 698 )" />
    <path d="M 10.120481927710898 2  L 12.168674698795257 0.5882352941175668  L 13.01204819277109 2  L 13.97590361445782 2  L 13.01204819277109 2.8235294117647527  L 12.168674698795257 4.352941176470608  L 10.843373493975832 4.352941176470608  L 11.445783132530096 4.941176470588289  L 13.01204819277109 4.941176470588289  L 13.97590361445782 4.352941176470608  L 15.060240963855449 4.352941176470608  L 16.385542168674647 5.529411764705856  L 17.831325301204743 4.941176470588289  L 18.433734939759006 4.352941176470608  L 18.433734939759006 2.8235294117647527  L 20 2.8235294117647527  L 20 4.352941176470608  L 20 5.529411764705856  L 20 6.588235294117567  L 18.433734939759006 7.294117647058783  L 18.433734939759006 6.588235294117567  L 17.228915662650707 8.58823529411768  L 17.831325301204743 8.58823529411768  L 17.831325301204743 9.529411764705856  L 18.433734939759006 10.470588235294144  L 18.433734939759006 11.215686274509835  L 17.228915662650707 11.764705882352928  L 17.831325301204743 12.58823529411768  L 17.228915662650707 13.294117647058783  L 17.831325301204743 15.529411764705856  L 16.385542168674647 16.47058823529403  L 15.060240963855449 17.294117647058897  L 13.97590361445782 17.882352941176464  L 13.01204819277109 19.294117647058783  L 13.01204819277109 20.470588235294144  L 13.01204819277109 22  L 12.168674698795257 22  L 11.445783132530096 21.294117647058783  L 9.518072289156635 22  L 7.590361445783174 19.294117647058783  L 6.144578313253078 21.294117647058783  L 4.939759036144551 21.294117647058783  L 3.6144578313253533 19.294117647058783  L 3.6144578313253533 17.294117647058897  L 1.8072289156627903 16.47058823529403  L 1.8072289156627903 14.823529411764639  L 0.8433734939758324 13.294117647058783  L 0 12.58823529411768  L 0 11.764705882352928  L 3.01204819277109 8.58823529411768  L 3.01204819277109 5.529411764705856  L 4.939759036144551 5.529411764705856  L 5.6626506024097125 4.352941176470608  L 4.939759036144551 4.352941176470608  L 5.6626506024097125 2.8235294117647527  L 5.6626506024097125 2  L 5.6626506024097125 0.5882352941175668  L 7.590361445783174 0  L 8.554216867469904 1.2941176470587834  L 10.120481927710898 2  Z " stroke-width="2" stroke="#ffa897" fill="none" transform="matrix(1 0 0 1 1324 698 )" mask="url(#clip154)" />
  </g>
</svg>