<?xml version="1.0" encoding="utf-8"?>
<svg version="1.1" xmlns:xlink="http://www.w3.org/1999/xlink" width="13px" height="10px" xmlns="http://www.w3.org/2000/svg">
  <defs>
    <mask fill="white" id="clip288">
      <path d="M 7.1666666666667425 0.6060606060606233  L 9.833333333333258 0  L 11.833333333333258 0  L 13 0.6060606060606233  L 13 2.4242424242423795  L 11.833333333333258 4.393939393939377  L 10.5 6.515151515151501  L 9.833333333333258 7.121212121212125  L 8.166666666666742 8.333333333333371  L 6.5 8.333333333333371  L 5.3333333333332575 10  L 3.5 8.939393939393995  L 2.1666666666667425 8.939393939393995  L 0 7.727272727272748  L 0 5.151515151515241  L 0 3.4848484848484986  L 2.1666666666667425 2.4242424242423795  L 3.5 1.363636363636374  L 3.5 0.6060606060606233  L 5.3333333333332575 0.6060606060606233  L 5.3333333333332575 0  L 7.1666666666667425 0.6060606060606233  Z " fill-rule="evenodd" />
    </mask>
  </defs>
  <g transform="matrix(1 0 0 1 -1279 -760 )">
    <path d="M 7.1666666666667425 0.6060606060606233  L 9.833333333333258 0  L 11.833333333333258 0  L 13 0.6060606060606233  L 13 2.4242424242423795  L 11.833333333333258 4.393939393939377  L 10.5 6.515151515151501  L 9.833333333333258 7.121212121212125  L 8.166666666666742 8.333333333333371  L 6.5 8.333333333333371  L 5.3333333333332575 10  L 3.5 8.939393939393995  L 2.1666666666667425 8.939393939393995  L 0 7.727272727272748  L 0 5.151515151515241  L 0 3.4848484848484986  L 2.1666666666667425 2.4242424242423795  L 3.5 1.363636363636374  L 3.5 0.6060606060606233  L 5.3333333333332575 0.6060606060606233  L 5.3333333333332575 0  L 7.1666666666667425 0.6060606060606233  Z " fill-rule="nonzero" fill="#ffffff" stroke="none" fill-opacity="0" transform="matrix(1 0 0 1 1279 760 )" />
    <path d="M 7.1666666666667425 0.6060606060606233  L 9.833333333333258 0  L 11.833333333333258 0  L 13 0.6060606060606233  L 13 2.4242424242423795  L 11.833333333333258 4.393939393939377  L 10.5 6.515151515151501  L 9.833333333333258 7.121212121212125  L 8.166666666666742 8.333333333333371  L 6.5 8.333333333333371  L 5.3333333333332575 10  L 3.5 8.939393939393995  L 2.1666666666667425 8.939393939393995  L 0 7.727272727272748  L 0 5.151515151515241  L 0 3.4848484848484986  L 2.1666666666667425 2.4242424242423795  L 3.5 1.363636363636374  L 3.5 0.6060606060606233  L 5.3333333333332575 0.6060606060606233  L 5.3333333333332575 0  L 7.1666666666667425 0.6060606060606233  Z " stroke-width="2" stroke="#ffa897" fill="none" transform="matrix(1 0 0 1 1279 760 )" mask="url(#clip288)" />
  </g>
</svg>