<?xml version="1.0" encoding="utf-8"?>
<svg version="1.1" xmlns:xlink="http://www.w3.org/1999/xlink" width="36px" height="22px" xmlns="http://www.w3.org/2000/svg">
  <defs>
    <mask fill="white" id="clip301">
      <path d="M 10.402597402597394 0.5670103092783165  L 11.805194805194787 0  L 12.974025974026063 1.4742268041237596  L 14.025974025973937 2.7216494845361012  L 16.831168831168725 4.762886597938177  L 20.22077922077915 4.762886597938177  L 21.974025974026063 4.195876288659747  L 22.90909090909099 4.762886597938177  L 24.07792207792204 4.195876288659747  L 24.07792207792204 6.577319587628949  L 25.597402597402606 7.5979381443298735  L 26.415584415584362 6.577319587628949  L 27 7.5979381443298735  L 28.402597402597394 8.505154639175316  L 29.688311688311614 9.072164948453633  L 30.974025974026063 8.505154639175316  L 32.02597402597394 9.072164948453633  L 32.84415584415592 10.319587628865975  L 34.246753246753315 10.319587628865975  L 34.831168831168725 11.226804123711302  L 34.246753246753315 12.36082474226805  L 34.246753246753315 13.721649484536101  L 34.831168831168725 15.309278350515342  L 36 16.89690721649481  L 34.831168831168725 17.804123711340253  L 33.42857142857133 17.804123711340253  L 30.974025974026063 18.938144329896886  L 28.402597402597394 20.979381443298962  L 27 20.979381443298962  L 25.597402597402606 22  L 24.662337662337677 20.979381443298962  L 24.662337662337677 19.958762886597924  L 24.662337662337677 18.938144329896886  L 24.07792207792204 17.804123711340253  L 21.974025974026063 19.958762886597924  L 21.155844155844306 18.938144329896886  L 18.93506493506493 18.938144329896886  L 17.883116883116827 19.958762886597924  L 16.246753246753087 17.804123711340253  L 14.610389610389575 17.804123711340253  L 11.805194805194787 16.89690721649481  L 9.467532467532465 17.804123711340253  L 9.467532467532465 18.938144329896886  L 8.649350649350481 18.938144329896886  L 7.480519480519433 18.938144329896886  L 5.14285714285711 19.958762886597924  L 3.7402597402597166 22  L 2.454545454545496 20.979381443298962  L 1.7532467532466853 19.958762886597924  L 0 17.804123711340253  L 0 15.989690721649481  L 0 14.62886597938143  L 1.7532467532466853 14.62886597938143  L 3.155844155844079 14.62886597938143  L 4.324675324675354 14.62886597938143  L 6.662337662337677 12.36082474226805  L 7.480519480519433 12.927835051546367  L 8.181818181818244 10.319587628865975  L 6.662337662337677 9.63917525773195  L 5.14285714285711 8.505154639175316  L 5.14285714285711 6.577319587628949  L 5.14285714285711 4.762886597938177  L 4.324675324675354 4.762886597938177  L 5.727272727272748 3.4020618556701265  L 7.480519480519433 3.4020618556701265  L 7.480519480519433 1.4742268041237596  L 6.662337662337677 2.041237113402076  L 5.14285714285711 0.5670103092783165  L 5.727272727272748 0  L 8.181818181818244 0  L 9.467532467532465 0  L 10.402597402597394 0.5670103092783165  Z " fill-rule="evenodd" />
    </mask>
  </defs>
  <g transform="matrix(1 0 0 1 -1279 -689 )">
    <path d="M 10.402597402597394 0.5670103092783165  L 11.805194805194787 0  L 12.974025974026063 1.4742268041237596  L 14.025974025973937 2.7216494845361012  L 16.831168831168725 4.762886597938177  L 20.22077922077915 4.762886597938177  L 21.974025974026063 4.195876288659747  L 22.90909090909099 4.762886597938177  L 24.07792207792204 4.195876288659747  L 24.07792207792204 6.577319587628949  L 25.597402597402606 7.5979381443298735  L 26.415584415584362 6.577319587628949  L 27 7.5979381443298735  L 28.402597402597394 8.505154639175316  L 29.688311688311614 9.072164948453633  L 30.974025974026063 8.505154639175316  L 32.02597402597394 9.072164948453633  L 32.84415584415592 10.319587628865975  L 34.246753246753315 10.319587628865975  L 34.831168831168725 11.226804123711302  L 34.246753246753315 12.36082474226805  L 34.246753246753315 13.721649484536101  L 34.831168831168725 15.309278350515342  L 36 16.89690721649481  L 34.831168831168725 17.804123711340253  L 33.42857142857133 17.804123711340253  L 30.974025974026063 18.938144329896886  L 28.402597402597394 20.979381443298962  L 27 20.979381443298962  L 25.597402597402606 22  L 24.662337662337677 20.979381443298962  L 24.662337662337677 19.958762886597924  L 24.662337662337677 18.938144329896886  L 24.07792207792204 17.804123711340253  L 21.974025974026063 19.958762886597924  L 21.155844155844306 18.938144329896886  L 18.93506493506493 18.938144329896886  L 17.883116883116827 19.958762886597924  L 16.246753246753087 17.804123711340253  L 14.610389610389575 17.804123711340253  L 11.805194805194787 16.89690721649481  L 9.467532467532465 17.804123711340253  L 9.467532467532465 18.938144329896886  L 8.649350649350481 18.938144329896886  L 7.480519480519433 18.938144329896886  L 5.14285714285711 19.958762886597924  L 3.7402597402597166 22  L 2.454545454545496 20.979381443298962  L 1.7532467532466853 19.958762886597924  L 0 17.804123711340253  L 0 15.989690721649481  L 0 14.62886597938143  L 1.7532467532466853 14.62886597938143  L 3.155844155844079 14.62886597938143  L 4.324675324675354 14.62886597938143  L 6.662337662337677 12.36082474226805  L 7.480519480519433 12.927835051546367  L 8.181818181818244 10.319587628865975  L 6.662337662337677 9.63917525773195  L 5.14285714285711 8.505154639175316  L 5.14285714285711 6.577319587628949  L 5.14285714285711 4.762886597938177  L 4.324675324675354 4.762886597938177  L 5.727272727272748 3.4020618556701265  L 7.480519480519433 3.4020618556701265  L 7.480519480519433 1.4742268041237596  L 6.662337662337677 2.041237113402076  L 5.14285714285711 0.5670103092783165  L 5.727272727272748 0  L 8.181818181818244 0  L 9.467532467532465 0  L 10.402597402597394 0.5670103092783165  Z " fill-rule="nonzero" fill="#ffffff" stroke="none" fill-opacity="0" transform="matrix(1 0 0 1 1279 689 )" />
    <path d="M 10.402597402597394 0.5670103092783165  L 11.805194805194787 0  L 12.974025974026063 1.4742268041237596  L 14.025974025973937 2.7216494845361012  L 16.831168831168725 4.762886597938177  L 20.22077922077915 4.762886597938177  L 21.974025974026063 4.195876288659747  L 22.90909090909099 4.762886597938177  L 24.07792207792204 4.195876288659747  L 24.07792207792204 6.577319587628949  L 25.597402597402606 7.5979381443298735  L 26.415584415584362 6.577319587628949  L 27 7.5979381443298735  L 28.402597402597394 8.505154639175316  L 29.688311688311614 9.072164948453633  L 30.974025974026063 8.505154639175316  L 32.02597402597394 9.072164948453633  L 32.84415584415592 10.319587628865975  L 34.246753246753315 10.319587628865975  L 34.831168831168725 11.226804123711302  L 34.246753246753315 12.36082474226805  L 34.246753246753315 13.721649484536101  L 34.831168831168725 15.309278350515342  L 36 16.89690721649481  L 34.831168831168725 17.804123711340253  L 33.42857142857133 17.804123711340253  L 30.974025974026063 18.938144329896886  L 28.402597402597394 20.979381443298962  L 27 20.979381443298962  L 25.597402597402606 22  L 24.662337662337677 20.979381443298962  L 24.662337662337677 19.958762886597924  L 24.662337662337677 18.938144329896886  L 24.07792207792204 17.804123711340253  L 21.974025974026063 19.958762886597924  L 21.155844155844306 18.938144329896886  L 18.93506493506493 18.938144329896886  L 17.883116883116827 19.958762886597924  L 16.246753246753087 17.804123711340253  L 14.610389610389575 17.804123711340253  L 11.805194805194787 16.89690721649481  L 9.467532467532465 17.804123711340253  L 9.467532467532465 18.938144329896886  L 8.649350649350481 18.938144329896886  L 7.480519480519433 18.938144329896886  L 5.14285714285711 19.958762886597924  L 3.7402597402597166 22  L 2.454545454545496 20.979381443298962  L 1.7532467532466853 19.958762886597924  L 0 17.804123711340253  L 0 15.989690721649481  L 0 14.62886597938143  L 1.7532467532466853 14.62886597938143  L 3.155844155844079 14.62886597938143  L 4.324675324675354 14.62886597938143  L 6.662337662337677 12.36082474226805  L 7.480519480519433 12.927835051546367  L 8.181818181818244 10.319587628865975  L 6.662337662337677 9.63917525773195  L 5.14285714285711 8.505154639175316  L 5.14285714285711 6.577319587628949  L 5.14285714285711 4.762886597938177  L 4.324675324675354 4.762886597938177  L 5.727272727272748 3.4020618556701265  L 7.480519480519433 3.4020618556701265  L 7.480519480519433 1.4742268041237596  L 6.662337662337677 2.041237113402076  L 5.14285714285711 0.5670103092783165  L 5.727272727272748 0  L 8.181818181818244 0  L 9.467532467532465 0  L 10.402597402597394 0.5670103092783165  Z " stroke-width="2" stroke="#ffa897" fill="none" transform="matrix(1 0 0 1 1279 689 )" mask="url(#clip301)" />
  </g>
</svg>