<?xml version="1.0" encoding="utf-8"?>
<svg version="1.1" xmlns:xlink="http://www.w3.org/1999/xlink" width="26px" height="29px" xmlns="http://www.w3.org/2000/svg">
  <defs>
    <mask fill="white" id="clip486">
      <path d="M 2.3111111111111313 6.172690763052174  L 1.7333333333333485 5.124497991967928  L 2.888888888888914 3.6104417670683233  L 2.888888888888914 2.3293172690763413  L 5.777777777777828 1.1646586345381138  L 6.933333333333394 2.3293172690763413  L 7.857777777777756 1.1646586345381138  L 7.857777777777756 0  L 9.706666666666706 0  L 12.711111111111222 0.5823293172690001  L 13.751111111111186 0.5823293172690001  L 15.831111111111111 2.3293172690763413  L 17.680000000000064 1.1646586345381138  L 19.182222222222208 1.863453815260982  L 19.182222222222208 2.3293172690763413  L 21.724444444444543 1.1646586345381138  L 22.764444444444507 1.863453815260982  L 22.764444444444507 3.6104417670683233  L 23.457777777777665 4.425702811244946  L 25.07555555555541 7.337349397590401  L 25.07555555555541 8.61847389558227  L 23.457777777777665 10.831325301204743  L 22.764444444444507 13.510040160642575  L 23.457777777777665 13.510040160642575  L 24.15111111111105 14.791164658634559  L 23.457777777777665 16.53815261044167  L 24.15111111111105 18.05220883534139  L 25.07555555555541 18.751004016064257  L 25.07555555555541 20.497991967871485  L 26 21.0803212851406  L 24.15111111111105 23.176706827309204  L 25.07555555555541 24.92369477911643  L 22.764444444444507 25.622489959839413  L 21.724444444444543 24.10843373493981  L 19.991111111110968 25.622489959839413  L 19.991111111110968 27.602409638554263  L 19.182222222222208 28.184738955823263  L 18.37333333333322 26.67068273092366  L 15.831111111111111 26.67068273092366  L 15.831111111111111 27.602409638554263  L 15.137777777777728 29  L 13.751111111111186 29  L 12.711111111111222 29  L 12.711111111111222 28.184738955823263  L 12.13333333333344 26.67068273092366  L 11.324444444444453 26.67068273092366  L 11.324444444444453 27.602409638554263  L 10.284444444444489 27.602409638554263  L 10.284444444444489 26.67068273092366  L 11.324444444444453 25.622489959839413  L 11.324444444444453 24.92369477911643  L 12.711111111111222 23.176706827309204  L 11.324444444444453 22.594377510040204  L 12.13333333333344 20.497991967871485  L 10.284444444444489 19.682730923694862  L 9.706666666666706 21.0803212851406  L 7.857777777777756 20.497991967871485  L 6.933333333333394 21.89558232931722  L 5.777777777777828 21.89558232931722  L 5.777777777777828 21.0803212851406  L 4.622222222222263 21.89558232931722  L 4.622222222222263 23.176706827309204  L 3.6977777777776737 22.594377510040204  L 2.888888888888914 21.89558232931722  L 2.3111111111111313 21.0803212851406  L 2.3111111111111313 19.682730923694862  L 2.3111111111111313 18.751004016064257  L 3.6977777777776737 17.35341365461852  L 2.888888888888914 15.95582329317267  L 0.924444444444589 16.53815261044167  L 0 16.53815261044167  L 0.924444444444589 14.791164658634559  L 2.888888888888914 13.510040160642575  L 1.7333333333333485 11.99598393574297  L 2.3111111111111313 10.831325301204743  L 2.3111111111111313 10.01606425702812  L 1.7333333333333485 8.61847389558227  L 1.7333333333333485 7.919678714859401  L 1.7333333333333485 7.337349397590401  L 2.3111111111111313 6.172690763052174  Z " fill-rule="evenodd" />
    </mask>
  </defs>
  <g transform="matrix(1 0 0 1 -1281 -707 )">
    <path d="M 2.3111111111111313 6.172690763052174  L 1.7333333333333485 5.124497991967928  L 2.888888888888914 3.6104417670683233  L 2.888888888888914 2.3293172690763413  L 5.777777777777828 1.1646586345381138  L 6.933333333333394 2.3293172690763413  L 7.857777777777756 1.1646586345381138  L 7.857777777777756 0  L 9.706666666666706 0  L 12.711111111111222 0.5823293172690001  L 13.751111111111186 0.5823293172690001  L 15.831111111111111 2.3293172690763413  L 17.680000000000064 1.1646586345381138  L 19.182222222222208 1.863453815260982  L 19.182222222222208 2.3293172690763413  L 21.724444444444543 1.1646586345381138  L 22.764444444444507 1.863453815260982  L 22.764444444444507 3.6104417670683233  L 23.457777777777665 4.425702811244946  L 25.07555555555541 7.337349397590401  L 25.07555555555541 8.61847389558227  L 23.457777777777665 10.831325301204743  L 22.764444444444507 13.510040160642575  L 23.457777777777665 13.510040160642575  L 24.15111111111105 14.791164658634559  L 23.457777777777665 16.53815261044167  L 24.15111111111105 18.05220883534139  L 25.07555555555541 18.751004016064257  L 25.07555555555541 20.497991967871485  L 26 21.0803212851406  L 24.15111111111105 23.176706827309204  L 25.07555555555541 24.92369477911643  L 22.764444444444507 25.622489959839413  L 21.724444444444543 24.10843373493981  L 19.991111111110968 25.622489959839413  L 19.991111111110968 27.602409638554263  L 19.182222222222208 28.184738955823263  L 18.37333333333322 26.67068273092366  L 15.831111111111111 26.67068273092366  L 15.831111111111111 27.602409638554263  L 15.137777777777728 29  L 13.751111111111186 29  L 12.711111111111222 29  L 12.711111111111222 28.184738955823263  L 12.13333333333344 26.67068273092366  L 11.324444444444453 26.67068273092366  L 11.324444444444453 27.602409638554263  L 10.284444444444489 27.602409638554263  L 10.284444444444489 26.67068273092366  L 11.324444444444453 25.622489959839413  L 11.324444444444453 24.92369477911643  L 12.711111111111222 23.176706827309204  L 11.324444444444453 22.594377510040204  L 12.13333333333344 20.497991967871485  L 10.284444444444489 19.682730923694862  L 9.706666666666706 21.0803212851406  L 7.857777777777756 20.497991967871485  L 6.933333333333394 21.89558232931722  L 5.777777777777828 21.89558232931722  L 5.777777777777828 21.0803212851406  L 4.622222222222263 21.89558232931722  L 4.622222222222263 23.176706827309204  L 3.6977777777776737 22.594377510040204  L 2.888888888888914 21.89558232931722  L 2.3111111111111313 21.0803212851406  L 2.3111111111111313 19.682730923694862  L 2.3111111111111313 18.751004016064257  L 3.6977777777776737 17.35341365461852  L 2.888888888888914 15.95582329317267  L 0.924444444444589 16.53815261044167  L 0 16.53815261044167  L 0.924444444444589 14.791164658634559  L 2.888888888888914 13.510040160642575  L 1.7333333333333485 11.99598393574297  L 2.3111111111111313 10.831325301204743  L 2.3111111111111313 10.01606425702812  L 1.7333333333333485 8.61847389558227  L 1.7333333333333485 7.919678714859401  L 1.7333333333333485 7.337349397590401  L 2.3111111111111313 6.172690763052174  Z " fill-rule="nonzero" fill="#ffffff" stroke="none" fill-opacity="0" transform="matrix(1 0 0 1 1281 707 )" />
    <path d="M 2.3111111111111313 6.172690763052174  L 1.7333333333333485 5.124497991967928  L 2.888888888888914 3.6104417670683233  L 2.888888888888914 2.3293172690763413  L 5.777777777777828 1.1646586345381138  L 6.933333333333394 2.3293172690763413  L 7.857777777777756 1.1646586345381138  L 7.857777777777756 0  L 9.706666666666706 0  L 12.711111111111222 0.5823293172690001  L 13.751111111111186 0.5823293172690001  L 15.831111111111111 2.3293172690763413  L 17.680000000000064 1.1646586345381138  L 19.182222222222208 1.863453815260982  L 19.182222222222208 2.3293172690763413  L 21.724444444444543 1.1646586345381138  L 22.764444444444507 1.863453815260982  L 22.764444444444507 3.6104417670683233  L 23.457777777777665 4.425702811244946  L 25.07555555555541 7.337349397590401  L 25.07555555555541 8.61847389558227  L 23.457777777777665 10.831325301204743  L 22.764444444444507 13.510040160642575  L 23.457777777777665 13.510040160642575  L 24.15111111111105 14.791164658634559  L 23.457777777777665 16.53815261044167  L 24.15111111111105 18.05220883534139  L 25.07555555555541 18.751004016064257  L 25.07555555555541 20.497991967871485  L 26 21.0803212851406  L 24.15111111111105 23.176706827309204  L 25.07555555555541 24.92369477911643  L 22.764444444444507 25.622489959839413  L 21.724444444444543 24.10843373493981  L 19.991111111110968 25.622489959839413  L 19.991111111110968 27.602409638554263  L 19.182222222222208 28.184738955823263  L 18.37333333333322 26.67068273092366  L 15.831111111111111 26.67068273092366  L 15.831111111111111 27.602409638554263  L 15.137777777777728 29  L 13.751111111111186 29  L 12.711111111111222 29  L 12.711111111111222 28.184738955823263  L 12.13333333333344 26.67068273092366  L 11.324444444444453 26.67068273092366  L 11.324444444444453 27.602409638554263  L 10.284444444444489 27.602409638554263  L 10.284444444444489 26.67068273092366  L 11.324444444444453 25.622489959839413  L 11.324444444444453 24.92369477911643  L 12.711111111111222 23.176706827309204  L 11.324444444444453 22.594377510040204  L 12.13333333333344 20.497991967871485  L 10.284444444444489 19.682730923694862  L 9.706666666666706 21.0803212851406  L 7.857777777777756 20.497991967871485  L 6.933333333333394 21.89558232931722  L 5.777777777777828 21.89558232931722  L 5.777777777777828 21.0803212851406  L 4.622222222222263 21.89558232931722  L 4.622222222222263 23.176706827309204  L 3.6977777777776737 22.594377510040204  L 2.888888888888914 21.89558232931722  L 2.3111111111111313 21.0803212851406  L 2.3111111111111313 19.682730923694862  L 2.3111111111111313 18.751004016064257  L 3.6977777777776737 17.35341365461852  L 2.888888888888914 15.95582329317267  L 0.924444444444589 16.53815261044167  L 0 16.53815261044167  L 0.924444444444589 14.791164658634559  L 2.888888888888914 13.510040160642575  L 1.7333333333333485 11.99598393574297  L 2.3111111111111313 10.831325301204743  L 2.3111111111111313 10.01606425702812  L 1.7333333333333485 8.61847389558227  L 1.7333333333333485 7.919678714859401  L 1.7333333333333485 7.337349397590401  L 2.3111111111111313 6.172690763052174  Z " stroke-width="2" stroke="#ffa897" fill="none" transform="matrix(1 0 0 1 1281 707 )" mask="url(#clip486)" />
  </g>
</svg>