<?xml version="1.0" encoding="utf-8"?>
<svg version="1.1" xmlns:xlink="http://www.w3.org/1999/xlink" width="66px" height="59px" xmlns="http://www.w3.org/2000/svg">
  <defs>
    <mask fill="white" id="clip1249">
      <path d="M 3.2009237875288363 18.225130890052355  L 0 18.225130890052355  L 0 16.680628272251283  L 1.3718244803694688 15.290575916230296  L 2.591224018475714 12.201570680628265  L 4.267898383371858 10.19371727748694  L 7.468822170900694 9.421465968586404  L 10.060046189376408 7.104712041884795  L 12.803695150115345 5.09685863874347  L 15.394919168591287 5.09685863874347  L 17.5288683602771 2.934554973821946  L 16.91916859122398 1.9973958333333712  L 19.35796766743647 0  L 22.254041570438858 0.7722513089005361  L 23.016166281755204 3.5523560209423977  L 24.083140877598225 7.104712041884795  L 23.016166281755204 9.421465968586404  L 25.454965357967694 11.583769633507814  L 25.454965357967694 13.282722513089084  L 26.67436489607394 12.201570680628265  L 28.960739030022978 12.201570680628265  L 31.704387990762143 11.583769633507814  L 33.07621247113161 13.282722513089084  L 32.46651270207849 14.827225130890042  L 30.344827586206975 17.20833333333337  L 31.704387990762143 18.842931937172807  L 33.07621247113161 20.696335078534048  L 34.60046189376453 20.696335078534048  L 34.60046189376453 23.16753926701574  L 35.36258660508088 23.939790575916277  L 37.191685912240246 25.32984293193715  L 39.17321016166284 23.939790575916277  L 38.563510392609714 23.16753926701574  L 41.61200923787533 22.395287958115205  L 43.28868360277124 23.16753926701574  L 44.66050808314071 22.395287958115205  L 47.25173210161665 21.62303664921467  L 48.013856812933 23.939790575916277  L 47.25173210161665 25.32984293193715  L 44.66050808314071 27.04166666666663  L 44.66050808314071 28.109947643979012  L 44.05080831408782 29.5  L 46.337182448036856 31.662303664921414  L 48.62355658198612 33.0523560209424  L 49.99538106235559 34.2879581151833  L 51.214780600461836 35.52356020942409  L 51.82448036951496 37.53141361256553  L 52.89145496535798 40.62041884816756  L 51.82448036951496 41.701570680628265  L 52.89145496535798 43.24607329842934  L 55.93995381062359 45.09947643979058  L 57.31177829099306 43.24607329842934  L 58.836027713625754 40.00261780104711  L 56.549653579676715 38.14921465968587  L 57.921478060046184 35.52356020942409  L 60.360277136258674 35.52356020942409  L 62.64665127020771 37.53141361256553  L 65.39030023094688 38.9214659685864  L 66 41.701570680628265  L 66 45.09947643979058  L 62.03695150115459 45.09947643979058  L 62.64665127020771 47.10732984293202  L 60.360277136258674 47.10732984293202  L 58.836027713625754 46.18062827225128  L 56.549653579676715 46.18062827225128  L 57.31177829099306 47.87958115183244  L 56.549653579676715 48.96073298429326  L 57.921478060046184 50.35078534031413  L 56.549653579676715 52.66753926701574  L 57.31177829099306 54.675392670157066  L 55.93995381062359 54.675392670157066  L 54.110854503464225 54.675392670157066  L 52.89145496535798 55.75654450261777  L 54.110854503464225 56.37434554973822  L 52.89145496535798 58.073298429319266  L 51.214780600461836 59  L 48.013856812933 58.073298429319266  L 46.337182448036856 58.073298429319266  L 47.25173210161665 56.37434554973822  L 46.337182448036856 53.748691099476446  L 43.28868360277124 52.66753926701574  L 41.61200923787533 49.732984293193795  L 39.17321016166284 50.96858638743447  L 38.563510392609714 50.96858638743447  L 39.17321016166284 53.748691099476446  L 37.80138568129337 54.675392670157066  L 35.36258660508088 54.675392670157066  L 35.972286374134 52.66753926701574  L 33.685912240184734 52.66753926701574  L 31.704387990762143 49.732984293193795  L 32.46651270207849 47.87958115183244  L 35.36258660508088 49.732984293193795  L 35.972286374134 50.35078534031413  L 38.563510392609714 48.96073298429326  L 37.80138568129337 47.10732984293202  L 38.563510392609714 45.09947643979058  L 39.17321016166284 44.32722513089004  L 39.17321016166284 43.24607329842934  L 41.002309468822205 42.782722513089084  L 41.61200923787533 41.2382198952879  L 41.61200923787533 38.9214659685864  L 41.002309468822205 38.14921465968587  L 41.002309468822205 36.604712041884795  L 40.39260969976908 34.90575916230364  L 39.17321016166284 31.662303664921414  L 37.191685912240246 30.272251308900536  L 34.60046189376453 28.88219895287955  L 32.46651270207849 26.565445026178054  L 29.889655172413768 25.8125  L 28.198614318706632 23.939790575916277  L 26.67436489607394 21.62303664921467  L 24.083140877598225 22.395287958115205  L 23.016166281755204 23.16753926701574  L 21.187066974595837 20.696335078534048  L 19.35796766743647 20.696335078534048  L 18.4434180138569 21.62303664921467  L 18.4434180138569 23.16753926701574  L 17.5288683602771 23.939790575916277  L 16.91916859122398 25.32984293193715  L 14.565517241379212 25.32984293193715  L 12.13793103448279 23.939790575916277  L 9.145496535796838 23.939790575916277  L 8.078521939953816 21.62303664921467  L 5.334872979214879 20.696335078534048  L 3.2009237875288363 19.769633507853428  L 3.2009237875288363 18.225130890052355  Z " fill-rule="evenodd" />
    </mask>
  </defs>
  <g transform="matrix(1 0 0 1 -1214 -633 )">
    <path d="M 3.2009237875288363 18.225130890052355  L 0 18.225130890052355  L 0 16.680628272251283  L 1.3718244803694688 15.290575916230296  L 2.591224018475714 12.201570680628265  L 4.267898383371858 10.19371727748694  L 7.468822170900694 9.421465968586404  L 10.060046189376408 7.104712041884795  L 12.803695150115345 5.09685863874347  L 15.394919168591287 5.09685863874347  L 17.5288683602771 2.934554973821946  L 16.91916859122398 1.9973958333333712  L 19.35796766743647 0  L 22.254041570438858 0.7722513089005361  L 23.016166281755204 3.5523560209423977  L 24.083140877598225 7.104712041884795  L 23.016166281755204 9.421465968586404  L 25.454965357967694 11.583769633507814  L 25.454965357967694 13.282722513089084  L 26.67436489607394 12.201570680628265  L 28.960739030022978 12.201570680628265  L 31.704387990762143 11.583769633507814  L 33.07621247113161 13.282722513089084  L 32.46651270207849 14.827225130890042  L 30.344827586206975 17.20833333333337  L 31.704387990762143 18.842931937172807  L 33.07621247113161 20.696335078534048  L 34.60046189376453 20.696335078534048  L 34.60046189376453 23.16753926701574  L 35.36258660508088 23.939790575916277  L 37.191685912240246 25.32984293193715  L 39.17321016166284 23.939790575916277  L 38.563510392609714 23.16753926701574  L 41.61200923787533 22.395287958115205  L 43.28868360277124 23.16753926701574  L 44.66050808314071 22.395287958115205  L 47.25173210161665 21.62303664921467  L 48.013856812933 23.939790575916277  L 47.25173210161665 25.32984293193715  L 44.66050808314071 27.04166666666663  L 44.66050808314071 28.109947643979012  L 44.05080831408782 29.5  L 46.337182448036856 31.662303664921414  L 48.62355658198612 33.0523560209424  L 49.99538106235559 34.2879581151833  L 51.214780600461836 35.52356020942409  L 51.82448036951496 37.53141361256553  L 52.89145496535798 40.62041884816756  L 51.82448036951496 41.701570680628265  L 52.89145496535798 43.24607329842934  L 55.93995381062359 45.09947643979058  L 57.31177829099306 43.24607329842934  L 58.836027713625754 40.00261780104711  L 56.549653579676715 38.14921465968587  L 57.921478060046184 35.52356020942409  L 60.360277136258674 35.52356020942409  L 62.64665127020771 37.53141361256553  L 65.39030023094688 38.9214659685864  L 66 41.701570680628265  L 66 45.09947643979058  L 62.03695150115459 45.09947643979058  L 62.64665127020771 47.10732984293202  L 60.360277136258674 47.10732984293202  L 58.836027713625754 46.18062827225128  L 56.549653579676715 46.18062827225128  L 57.31177829099306 47.87958115183244  L 56.549653579676715 48.96073298429326  L 57.921478060046184 50.35078534031413  L 56.549653579676715 52.66753926701574  L 57.31177829099306 54.675392670157066  L 55.93995381062359 54.675392670157066  L 54.110854503464225 54.675392670157066  L 52.89145496535798 55.75654450261777  L 54.110854503464225 56.37434554973822  L 52.89145496535798 58.073298429319266  L 51.214780600461836 59  L 48.013856812933 58.073298429319266  L 46.337182448036856 58.073298429319266  L 47.25173210161665 56.37434554973822  L 46.337182448036856 53.748691099476446  L 43.28868360277124 52.66753926701574  L 41.61200923787533 49.732984293193795  L 39.17321016166284 50.96858638743447  L 38.563510392609714 50.96858638743447  L 39.17321016166284 53.748691099476446  L 37.80138568129337 54.675392670157066  L 35.36258660508088 54.675392670157066  L 35.972286374134 52.66753926701574  L 33.685912240184734 52.66753926701574  L 31.704387990762143 49.732984293193795  L 32.46651270207849 47.87958115183244  L 35.36258660508088 49.732984293193795  L 35.972286374134 50.35078534031413  L 38.563510392609714 48.96073298429326  L 37.80138568129337 47.10732984293202  L 38.563510392609714 45.09947643979058  L 39.17321016166284 44.32722513089004  L 39.17321016166284 43.24607329842934  L 41.002309468822205 42.782722513089084  L 41.61200923787533 41.2382198952879  L 41.61200923787533 38.9214659685864  L 41.002309468822205 38.14921465968587  L 41.002309468822205 36.604712041884795  L 40.39260969976908 34.90575916230364  L 39.17321016166284 31.662303664921414  L 37.191685912240246 30.272251308900536  L 34.60046189376453 28.88219895287955  L 32.46651270207849 26.565445026178054  L 29.889655172413768 25.8125  L 28.198614318706632 23.939790575916277  L 26.67436489607394 21.62303664921467  L 24.083140877598225 22.395287958115205  L 23.016166281755204 23.16753926701574  L 21.187066974595837 20.696335078534048  L 19.35796766743647 20.696335078534048  L 18.4434180138569 21.62303664921467  L 18.4434180138569 23.16753926701574  L 17.5288683602771 23.939790575916277  L 16.91916859122398 25.32984293193715  L 14.565517241379212 25.32984293193715  L 12.13793103448279 23.939790575916277  L 9.145496535796838 23.939790575916277  L 8.078521939953816 21.62303664921467  L 5.334872979214879 20.696335078534048  L 3.2009237875288363 19.769633507853428  L 3.2009237875288363 18.225130890052355  Z " fill-rule="nonzero" fill="#ffffff" stroke="none" fill-opacity="0" transform="matrix(1 0 0 1 1214 633 )" />
    <path d="M 3.2009237875288363 18.225130890052355  L 0 18.225130890052355  L 0 16.680628272251283  L 1.3718244803694688 15.290575916230296  L 2.591224018475714 12.201570680628265  L 4.267898383371858 10.19371727748694  L 7.468822170900694 9.421465968586404  L 10.060046189376408 7.104712041884795  L 12.803695150115345 5.09685863874347  L 15.394919168591287 5.09685863874347  L 17.5288683602771 2.934554973821946  L 16.91916859122398 1.9973958333333712  L 19.35796766743647 0  L 22.254041570438858 0.7722513089005361  L 23.016166281755204 3.5523560209423977  L 24.083140877598225 7.104712041884795  L 23.016166281755204 9.421465968586404  L 25.454965357967694 11.583769633507814  L 25.454965357967694 13.282722513089084  L 26.67436489607394 12.201570680628265  L 28.960739030022978 12.201570680628265  L 31.704387990762143 11.583769633507814  L 33.07621247113161 13.282722513089084  L 32.46651270207849 14.827225130890042  L 30.344827586206975 17.20833333333337  L 31.704387990762143 18.842931937172807  L 33.07621247113161 20.696335078534048  L 34.60046189376453 20.696335078534048  L 34.60046189376453 23.16753926701574  L 35.36258660508088 23.939790575916277  L 37.191685912240246 25.32984293193715  L 39.17321016166284 23.939790575916277  L 38.563510392609714 23.16753926701574  L 41.61200923787533 22.395287958115205  L 43.28868360277124 23.16753926701574  L 44.66050808314071 22.395287958115205  L 47.25173210161665 21.62303664921467  L 48.013856812933 23.939790575916277  L 47.25173210161665 25.32984293193715  L 44.66050808314071 27.04166666666663  L 44.66050808314071 28.109947643979012  L 44.05080831408782 29.5  L 46.337182448036856 31.662303664921414  L 48.62355658198612 33.0523560209424  L 49.99538106235559 34.2879581151833  L 51.214780600461836 35.52356020942409  L 51.82448036951496 37.53141361256553  L 52.89145496535798 40.62041884816756  L 51.82448036951496 41.701570680628265  L 52.89145496535798 43.24607329842934  L 55.93995381062359 45.09947643979058  L 57.31177829099306 43.24607329842934  L 58.836027713625754 40.00261780104711  L 56.549653579676715 38.14921465968587  L 57.921478060046184 35.52356020942409  L 60.360277136258674 35.52356020942409  L 62.64665127020771 37.53141361256553  L 65.39030023094688 38.9214659685864  L 66 41.701570680628265  L 66 45.09947643979058  L 62.03695150115459 45.09947643979058  L 62.64665127020771 47.10732984293202  L 60.360277136258674 47.10732984293202  L 58.836027713625754 46.18062827225128  L 56.549653579676715 46.18062827225128  L 57.31177829099306 47.87958115183244  L 56.549653579676715 48.96073298429326  L 57.921478060046184 50.35078534031413  L 56.549653579676715 52.66753926701574  L 57.31177829099306 54.675392670157066  L 55.93995381062359 54.675392670157066  L 54.110854503464225 54.675392670157066  L 52.89145496535798 55.75654450261777  L 54.110854503464225 56.37434554973822  L 52.89145496535798 58.073298429319266  L 51.214780600461836 59  L 48.013856812933 58.073298429319266  L 46.337182448036856 58.073298429319266  L 47.25173210161665 56.37434554973822  L 46.337182448036856 53.748691099476446  L 43.28868360277124 52.66753926701574  L 41.61200923787533 49.732984293193795  L 39.17321016166284 50.96858638743447  L 38.563510392609714 50.96858638743447  L 39.17321016166284 53.748691099476446  L 37.80138568129337 54.675392670157066  L 35.36258660508088 54.675392670157066  L 35.972286374134 52.66753926701574  L 33.685912240184734 52.66753926701574  L 31.704387990762143 49.732984293193795  L 32.46651270207849 47.87958115183244  L 35.36258660508088 49.732984293193795  L 35.972286374134 50.35078534031413  L 38.563510392609714 48.96073298429326  L 37.80138568129337 47.10732984293202  L 38.563510392609714 45.09947643979058  L 39.17321016166284 44.32722513089004  L 39.17321016166284 43.24607329842934  L 41.002309468822205 42.782722513089084  L 41.61200923787533 41.2382198952879  L 41.61200923787533 38.9214659685864  L 41.002309468822205 38.14921465968587  L 41.002309468822205 36.604712041884795  L 40.39260969976908 34.90575916230364  L 39.17321016166284 31.662303664921414  L 37.191685912240246 30.272251308900536  L 34.60046189376453 28.88219895287955  L 32.46651270207849 26.565445026178054  L 29.889655172413768 25.8125  L 28.198614318706632 23.939790575916277  L 26.67436489607394 21.62303664921467  L 24.083140877598225 22.395287958115205  L 23.016166281755204 23.16753926701574  L 21.187066974595837 20.696335078534048  L 19.35796766743647 20.696335078534048  L 18.4434180138569 21.62303664921467  L 18.4434180138569 23.16753926701574  L 17.5288683602771 23.939790575916277  L 16.91916859122398 25.32984293193715  L 14.565517241379212 25.32984293193715  L 12.13793103448279 23.939790575916277  L 9.145496535796838 23.939790575916277  L 8.078521939953816 21.62303664921467  L 5.334872979214879 20.696335078534048  L 3.2009237875288363 19.769633507853428  L 3.2009237875288363 18.225130890052355  Z " stroke-width="2" stroke="#ffa897" fill="none" transform="matrix(1 0 0 1 1214 633 )" mask="url(#clip1249)" />
  </g>
</svg>