<?xml version="1.0" encoding="utf-8"?>
<svg version="1.1" xmlns:xlink="http://www.w3.org/1999/xlink" width="20px" height="26px" xmlns="http://www.w3.org/2000/svg">
  <defs>
    <mask fill="white" id="clip784">
      <path d="M 0.5847953216373298 20.02702702702709  L 0 19.09009009009003  L 0 18.03603603603608  L 0.5847953216373298 16.630630630630662  L 0.5847953216373298 15.576576576576599  L 0.5847953216373298 14.522522522522536  L 2.339181286549774 13.234234234234238  L 2.339181286549774 12.180180180180173  L 3.1578947368420813 10.891891891891873  L 2.339181286549774 8.19819819819827  L 4.210526315789593 7.6126126126125655  L 4.717348927875264 7.144144144144093  L 4.717348927875264 5.270270270270203  L 4.210526315789593 4.099099099099021  L 6.198830409356788 2.6936936936937173  L 7.8362573099416295 2.6936936936937173  L 9.122807017543892 1.639639639639654  L 10.409356725146154 1.639639639639654  L 10.409356725146154 0  L 12.631578947368325 0  L 12.631578947368325 1.639639639639654  L 13.45029239766086 4.099099099099021  L 15.204678362573077 4.684684684684726  L 16.25730994152036 4.099099099099021  L 16.25730994152036 2.6936936936937173  L 17.894736842105203 4.099099099099021  L 20 4.099099099099021  L 20 5.270270270270203  L 20 7.144144144144093  L 19.06432748538009 8.78378378378386  L 17.894736842105203 10.891891891891873  L 17.894736842105203 13.234234234234238  L 19.06432748538009 14.522522522522536  L 17.894736842105203 15.576576576576599  L 16.959064327485294 16.630630630630662  L 15.204678362573077 18.03603603603608  L 14.074074074073906 20.729729729729684  L 11.57894736842104 20.02702702702709  L 11.57894736842104 21.54954954954951  L 10.409356725146154 22.603603603603574  L 9.122807017543892 24.00900900900899  L 7.8362573099416295 25.29729729729729  L 6.198830409356788 26  L 5.263157894736878 24.00900900900899  L 5.263157894736878 22.603603603603574  L 4.210526315789593 20.729729729729684  L 3.1578947368420813 20.729729729729684  L 2.339181286549774 20.02702702702709  L 0.5847953216373298 20.02702702702709  Z " fill-rule="evenodd" />
    </mask>
  </defs>
  <g transform="matrix(1 0 0 1 -1315 -715 )">
    <path d="M 0.5847953216373298 20.02702702702709  L 0 19.09009009009003  L 0 18.03603603603608  L 0.5847953216373298 16.630630630630662  L 0.5847953216373298 15.576576576576599  L 0.5847953216373298 14.522522522522536  L 2.339181286549774 13.234234234234238  L 2.339181286549774 12.180180180180173  L 3.1578947368420813 10.891891891891873  L 2.339181286549774 8.19819819819827  L 4.210526315789593 7.6126126126125655  L 4.717348927875264 7.144144144144093  L 4.717348927875264 5.270270270270203  L 4.210526315789593 4.099099099099021  L 6.198830409356788 2.6936936936937173  L 7.8362573099416295 2.6936936936937173  L 9.122807017543892 1.639639639639654  L 10.409356725146154 1.639639639639654  L 10.409356725146154 0  L 12.631578947368325 0  L 12.631578947368325 1.639639639639654  L 13.45029239766086 4.099099099099021  L 15.204678362573077 4.684684684684726  L 16.25730994152036 4.099099099099021  L 16.25730994152036 2.6936936936937173  L 17.894736842105203 4.099099099099021  L 20 4.099099099099021  L 20 5.270270270270203  L 20 7.144144144144093  L 19.06432748538009 8.78378378378386  L 17.894736842105203 10.891891891891873  L 17.894736842105203 13.234234234234238  L 19.06432748538009 14.522522522522536  L 17.894736842105203 15.576576576576599  L 16.959064327485294 16.630630630630662  L 15.204678362573077 18.03603603603608  L 14.074074074073906 20.729729729729684  L 11.57894736842104 20.02702702702709  L 11.57894736842104 21.54954954954951  L 10.409356725146154 22.603603603603574  L 9.122807017543892 24.00900900900899  L 7.8362573099416295 25.29729729729729  L 6.198830409356788 26  L 5.263157894736878 24.00900900900899  L 5.263157894736878 22.603603603603574  L 4.210526315789593 20.729729729729684  L 3.1578947368420813 20.729729729729684  L 2.339181286549774 20.02702702702709  L 0.5847953216373298 20.02702702702709  Z " fill-rule="nonzero" fill="#ffffff" stroke="none" fill-opacity="0" transform="matrix(1 0 0 1 1315 715 )" />
    <path d="M 0.5847953216373298 20.02702702702709  L 0 19.09009009009003  L 0 18.03603603603608  L 0.5847953216373298 16.630630630630662  L 0.5847953216373298 15.576576576576599  L 0.5847953216373298 14.522522522522536  L 2.339181286549774 13.234234234234238  L 2.339181286549774 12.180180180180173  L 3.1578947368420813 10.891891891891873  L 2.339181286549774 8.19819819819827  L 4.210526315789593 7.6126126126125655  L 4.717348927875264 7.144144144144093  L 4.717348927875264 5.270270270270203  L 4.210526315789593 4.099099099099021  L 6.198830409356788 2.6936936936937173  L 7.8362573099416295 2.6936936936937173  L 9.122807017543892 1.639639639639654  L 10.409356725146154 1.639639639639654  L 10.409356725146154 0  L 12.631578947368325 0  L 12.631578947368325 1.639639639639654  L 13.45029239766086 4.099099099099021  L 15.204678362573077 4.684684684684726  L 16.25730994152036 4.099099099099021  L 16.25730994152036 2.6936936936937173  L 17.894736842105203 4.099099099099021  L 20 4.099099099099021  L 20 5.270270270270203  L 20 7.144144144144093  L 19.06432748538009 8.78378378378386  L 17.894736842105203 10.891891891891873  L 17.894736842105203 13.234234234234238  L 19.06432748538009 14.522522522522536  L 17.894736842105203 15.576576576576599  L 16.959064327485294 16.630630630630662  L 15.204678362573077 18.03603603603608  L 14.074074074073906 20.729729729729684  L 11.57894736842104 20.02702702702709  L 11.57894736842104 21.54954954954951  L 10.409356725146154 22.603603603603574  L 9.122807017543892 24.00900900900899  L 7.8362573099416295 25.29729729729729  L 6.198830409356788 26  L 5.263157894736878 24.00900900900899  L 5.263157894736878 22.603603603603574  L 4.210526315789593 20.729729729729684  L 3.1578947368420813 20.729729729729684  L 2.339181286549774 20.02702702702709  L 0.5847953216373298 20.02702702702709  Z " stroke-width="2" stroke="#ffa897" fill="none" transform="matrix(1 0 0 1 1315 715 )" mask="url(#clip784)" />
  </g>
</svg>