<?xml version="1.0" encoding="utf-8"?>
<svg version="1.1" xmlns:xlink="http://www.w3.org/1999/xlink" width="88px" height="58px" xmlns="http://www.w3.org/2000/svg">
  <defs>
    <mask fill="white" id="clip1248">
      <path d="M 2.2857142857142208 5.984126984126988  L 5.257142857142753 2.992063492063494  L 9.371428571428623 2.992063492063494  L 11.200000000000045 0.9206349206349387  L 13.71428571428578 0  L 16.228571428571513 0.9206349206349387  L 18.971428571428532 1.6111111111110858  L 22.40000000000009 0.9206349206349387  L 24.68571428571431 2.5317460317460245  L 27.200000000000042 3.6825396825397547  L 30.857142857142893 2.992063492063494  L 34.057142857142935 3.6825396825397547  L 36.799999999999955 2.992063492063494  L 39.31428571428569 1.6111111111110858  L 42.74285714285725 1.6111111111110858  L 45.94285714285706 2.992063492063494  L 48.9142857142856 3.6825396825397547  L 51.200000000000045 5.984126984126988  L 51.200000000000045 7.365079365079283  L 51.200000000000045 9.666666666666742  L 49.82857142857142 12.428571428571445  L 50.514285714285734 14.960317460317468  L 49.82857142857142 17.261904761904702  L 51.200000000000045 20.253968253968196  L 54.17142857142858 22.095238095238074  L 56.68571428571431 24.166666666666742  L 59.42857142857133 25.777777777777715  L 62.628571428571384 26.928571428571445  L 65.37142857142862 28.30952380952374  L 68.57142857142844 28.30952380952374  L 71.31428571428569 29.920634920634935  L 72.91428571428582 31.761904761904702  L 73.59999999999991 33.60317460317458  L 75.88571428571436 34.52380952380952  L 77.94285714285706 34.52380952380952  L 79.08571428571418 33.60317460317458  L 81.59999999999991 31.761904761904702  L 83.20000000000005 30.841269841269764  L 85.48571428571427 33.60317460317458  L 86.62857142857138 35.21428571428578  L 88 37.51587301587301  L 86.62857142857138 38.20634920634927  L 87.31428571428569 40.968253968253975  L 86.62857142857138 43.5  L 87.31428571428569 46.031746031746025  L 87.31428571428569 49.02380952380952  L 86.62857142857138 51.095238095238074  L 85.48571428571427 52.47619047619048  L 84.11428571428564 55.468253968253975  L 83.20000000000005 53.6269841269841  L 82.51428571428573 54.54761904761904  L 80 52.47619047619048  L 77.25714285714298 56.158730158730236  L 73.59999999999991 53.6269841269841  L 69.25714285714275 53.6269841269841  L 66.05714285714294 54.54761904761904  L 61.714285714285786 57.30952380952374  L 57.37142857142862 58  L 53.485714285714266 57.30952380952374  L 52.57142857142867 53.6269841269841  L 51.200000000000045 50.404761904761926  L 48.9142857142856 51.095238095238074  L 44.57142857142866 47.8730158730159  L 40.914285714285825 49.02380952380952  L 39.31428571428569 52.47619047619048  L 38.17142857142858 51.095238095238074  L 39.31428571428569 47.8730158730159  L 36.799999999999955 47.8730158730159  L 32 47.8730158730159  L 28.799999999999955 45.571428571428555  L 26.28571428571422 46.031746031746025  L 24 42.57936507936506  L 22.40000000000009 40.968253968253975  L 19.657142857142844 37.51587301587301  L 16.914285714285825 35.21428571428578  L 14.400000000000091 32.45238095238096  L 12.571428571428442 29.230158730158678  L 9.828571428571422 26.928571428571445  L 7.542857142857201 28.30952380952374  L 5.257142857142753 25.087301587301567  L 3.4285714285713316 22.095238095238074  L 0 20.253968253968196  L 0 16.571428571428555  L 0 12.428571428571445  L 2.2857142857142208 13.80952380952374  L 4.342857142857156 9.666666666666742  L 2.2857142857142208 5.984126984126988  Z " fill-rule="evenodd" />
    </mask>
  </defs>
  <g transform="matrix(1 0 0 1 -1148 -658 )">
    <path d="M 2.2857142857142208 5.984126984126988  L 5.257142857142753 2.992063492063494  L 9.371428571428623 2.992063492063494  L 11.200000000000045 0.9206349206349387  L 13.71428571428578 0  L 16.228571428571513 0.9206349206349387  L 18.971428571428532 1.6111111111110858  L 22.40000000000009 0.9206349206349387  L 24.68571428571431 2.5317460317460245  L 27.200000000000042 3.6825396825397547  L 30.857142857142893 2.992063492063494  L 34.057142857142935 3.6825396825397547  L 36.799999999999955 2.992063492063494  L 39.31428571428569 1.6111111111110858  L 42.74285714285725 1.6111111111110858  L 45.94285714285706 2.992063492063494  L 48.9142857142856 3.6825396825397547  L 51.200000000000045 5.984126984126988  L 51.200000000000045 7.365079365079283  L 51.200000000000045 9.666666666666742  L 49.82857142857142 12.428571428571445  L 50.514285714285734 14.960317460317468  L 49.82857142857142 17.261904761904702  L 51.200000000000045 20.253968253968196  L 54.17142857142858 22.095238095238074  L 56.68571428571431 24.166666666666742  L 59.42857142857133 25.777777777777715  L 62.628571428571384 26.928571428571445  L 65.37142857142862 28.30952380952374  L 68.57142857142844 28.30952380952374  L 71.31428571428569 29.920634920634935  L 72.91428571428582 31.761904761904702  L 73.59999999999991 33.60317460317458  L 75.88571428571436 34.52380952380952  L 77.94285714285706 34.52380952380952  L 79.08571428571418 33.60317460317458  L 81.59999999999991 31.761904761904702  L 83.20000000000005 30.841269841269764  L 85.48571428571427 33.60317460317458  L 86.62857142857138 35.21428571428578  L 88 37.51587301587301  L 86.62857142857138 38.20634920634927  L 87.31428571428569 40.968253968253975  L 86.62857142857138 43.5  L 87.31428571428569 46.031746031746025  L 87.31428571428569 49.02380952380952  L 86.62857142857138 51.095238095238074  L 85.48571428571427 52.47619047619048  L 84.11428571428564 55.468253968253975  L 83.20000000000005 53.6269841269841  L 82.51428571428573 54.54761904761904  L 80 52.47619047619048  L 77.25714285714298 56.158730158730236  L 73.59999999999991 53.6269841269841  L 69.25714285714275 53.6269841269841  L 66.05714285714294 54.54761904761904  L 61.714285714285786 57.30952380952374  L 57.37142857142862 58  L 53.485714285714266 57.30952380952374  L 52.57142857142867 53.6269841269841  L 51.200000000000045 50.404761904761926  L 48.9142857142856 51.095238095238074  L 44.57142857142866 47.8730158730159  L 40.914285714285825 49.02380952380952  L 39.31428571428569 52.47619047619048  L 38.17142857142858 51.095238095238074  L 39.31428571428569 47.8730158730159  L 36.799999999999955 47.8730158730159  L 32 47.8730158730159  L 28.799999999999955 45.571428571428555  L 26.28571428571422 46.031746031746025  L 24 42.57936507936506  L 22.40000000000009 40.968253968253975  L 19.657142857142844 37.51587301587301  L 16.914285714285825 35.21428571428578  L 14.400000000000091 32.45238095238096  L 12.571428571428442 29.230158730158678  L 9.828571428571422 26.928571428571445  L 7.542857142857201 28.30952380952374  L 5.257142857142753 25.087301587301567  L 3.4285714285713316 22.095238095238074  L 0 20.253968253968196  L 0 16.571428571428555  L 0 12.428571428571445  L 2.2857142857142208 13.80952380952374  L 4.342857142857156 9.666666666666742  L 2.2857142857142208 5.984126984126988  Z " fill-rule="nonzero" fill="#ffffff" stroke="none" fill-opacity="0" transform="matrix(1 0 0 1 1148 658 )" />
    <path d="M 2.2857142857142208 5.984126984126988  L 5.257142857142753 2.992063492063494  L 9.371428571428623 2.992063492063494  L 11.200000000000045 0.9206349206349387  L 13.71428571428578 0  L 16.228571428571513 0.9206349206349387  L 18.971428571428532 1.6111111111110858  L 22.40000000000009 0.9206349206349387  L 24.68571428571431 2.5317460317460245  L 27.200000000000042 3.6825396825397547  L 30.857142857142893 2.992063492063494  L 34.057142857142935 3.6825396825397547  L 36.799999999999955 2.992063492063494  L 39.31428571428569 1.6111111111110858  L 42.74285714285725 1.6111111111110858  L 45.94285714285706 2.992063492063494  L 48.9142857142856 3.6825396825397547  L 51.200000000000045 5.984126984126988  L 51.200000000000045 7.365079365079283  L 51.200000000000045 9.666666666666742  L 49.82857142857142 12.428571428571445  L 50.514285714285734 14.960317460317468  L 49.82857142857142 17.261904761904702  L 51.200000000000045 20.253968253968196  L 54.17142857142858 22.095238095238074  L 56.68571428571431 24.166666666666742  L 59.42857142857133 25.777777777777715  L 62.628571428571384 26.928571428571445  L 65.37142857142862 28.30952380952374  L 68.57142857142844 28.30952380952374  L 71.31428571428569 29.920634920634935  L 72.91428571428582 31.761904761904702  L 73.59999999999991 33.60317460317458  L 75.88571428571436 34.52380952380952  L 77.94285714285706 34.52380952380952  L 79.08571428571418 33.60317460317458  L 81.59999999999991 31.761904761904702  L 83.20000000000005 30.841269841269764  L 85.48571428571427 33.60317460317458  L 86.62857142857138 35.21428571428578  L 88 37.51587301587301  L 86.62857142857138 38.20634920634927  L 87.31428571428569 40.968253968253975  L 86.62857142857138 43.5  L 87.31428571428569 46.031746031746025  L 87.31428571428569 49.02380952380952  L 86.62857142857138 51.095238095238074  L 85.48571428571427 52.47619047619048  L 84.11428571428564 55.468253968253975  L 83.20000000000005 53.6269841269841  L 82.51428571428573 54.54761904761904  L 80 52.47619047619048  L 77.25714285714298 56.158730158730236  L 73.59999999999991 53.6269841269841  L 69.25714285714275 53.6269841269841  L 66.05714285714294 54.54761904761904  L 61.714285714285786 57.30952380952374  L 57.37142857142862 58  L 53.485714285714266 57.30952380952374  L 52.57142857142867 53.6269841269841  L 51.200000000000045 50.404761904761926  L 48.9142857142856 51.095238095238074  L 44.57142857142866 47.8730158730159  L 40.914285714285825 49.02380952380952  L 39.31428571428569 52.47619047619048  L 38.17142857142858 51.095238095238074  L 39.31428571428569 47.8730158730159  L 36.799999999999955 47.8730158730159  L 32 47.8730158730159  L 28.799999999999955 45.571428571428555  L 26.28571428571422 46.031746031746025  L 24 42.57936507936506  L 22.40000000000009 40.968253968253975  L 19.657142857142844 37.51587301587301  L 16.914285714285825 35.21428571428578  L 14.400000000000091 32.45238095238096  L 12.571428571428442 29.230158730158678  L 9.828571428571422 26.928571428571445  L 7.542857142857201 28.30952380952374  L 5.257142857142753 25.087301587301567  L 3.4285714285713316 22.095238095238074  L 0 20.253968253968196  L 0 16.571428571428555  L 0 12.428571428571445  L 2.2857142857142208 13.80952380952374  L 4.342857142857156 9.666666666666742  L 2.2857142857142208 5.984126984126988  Z " stroke-width="2" stroke="#ffa897" fill="none" transform="matrix(1 0 0 1 1148 658 )" mask="url(#clip1248)" />
  </g>
</svg>