<?xml version="1.0" encoding="utf-8"?>
<svg version="1.1" xmlns:xlink="http://www.w3.org/1999/xlink" width="28px" height="25px" xmlns="http://www.w3.org/2000/svg">
  <defs>
    <mask fill="white" id="clip163">
      <path d="M 0.612021857923537 12.5  L 0 10.956790123456699  L 1.5300546448088426 9.104938271604851  L 2.142076502732152 10.030864197530832  L 3.3661202185792263 9.104938271604851  L 4.437158469945416 10.030864197530832  L 6.1202185792349155 10.030864197530832  L 7.34426229508199 9.104938271604851  L 7.34426229508199 7.561728395061664  L 9.027322404371489 7.561728395061664  L 12.5464480874316 7.561728395061664  L 12.5464480874316 6.944444444444457  L 11.93442622950829 5.555555555555543  L 11.016393442622984 5.555555555555543  L 9.639344262295026 4.475308641975289  L 9.639344262295026 3.858024691357968  L 11.016393442622984 2.9320987654321016  L 13.158469945355137 3.858024691357968  L 13.923497267759558 2.9320987654321016  L 14.841530054644863 4.475308641975289  L 15.606557377049285 2.9320987654321016  L 16.524590163934363 1.5432098765431874  L 17.44262295081967 2.469135802469168  L 17.44262295081967 1.5432098765431874  L 18.360655737704974 0  L 19.89071038251359 0.7716049382715937  L 19.89071038251359 1.5432098765431874  L 22.03278688524597 0.7716049382715937  L 22.64480874316928 2.469135802469168  L 22.03278688524597 2.9320987654321016  L 23.256830601092815 3.858024691357968  L 24.021857923497237 5.555555555555543  L 25.24590163934431 5.555555555555543  L 26.316939890710273 4.475308641975289  L 26.92896174863381 6.172839506172863  L 26.92896174863381 7.561728395061664  L 26.92896174863381 9.104938271604851  L 26.316939890710273 10.030864197530832  L 24.633879781420774 12.5  L 25.24590163934431 12.5  L 26.92896174863381 11.88271604938268  L 28 12.5  L 28 13.734567901234525  L 26.92896174863381 13.734567901234525  L 26.92896174863381 15.277777777777715  L 26.92896174863381 16.203703703703695  L 28 17.901234567901156  L 26.92896174863381 19.290123456790184  L 25.24590163934431 19.290123456790184  L 25.24590163934431 20.679012345678984  L 24.021857923497237 19.290123456790184  L 23.256830601092815 21.296296296296305  L 22.64480874316928 20.679012345678984  L 20.96174863387978 22.0679012345679  L 19.89071038251359 22.685185185185105  L 18.972677595628284 22.0679012345679  L 18.360655737704974 22.0679012345679  L 17.44262295081967 21.296296296296305  L 17.44262295081967 19.90740740740739  L 15.606557377049285 20.679012345678984  L 15.606557377049285 21.296296296296305  L 13.158469945355137 22.685185185185105  L 11.016393442622984 24.38271604938268  L 9.639344262295026 23.765432098765473  L 6.1202185792349155 22.685185185185105  L 4.437158469945416 25  L 3.3661202185792263 24.38271604938268  L 4.437158469945416 22.0679012345679  L 4.437158469945416 21.296296296296305  L 3.3661202185792263 19.90740740740739  L 3.3661202185792263 18.672839506172863  L 3.3661202185792263 16.97530864197529  L 4.437158469945416 15.277777777777715  L 3.3661202185792263 13.734567901234525  L 2.7540983606556892 13.734567901234525  L 1.5300546448088426 13.734567901234525  L 0 13.734567901234525  L 0.612021857923537 12.5  Z " fill-rule="evenodd" />
    </mask>
  </defs>
  <g transform="matrix(1 0 0 1 -1256 -710 )">
    <path d="M 0.612021857923537 12.5  L 0 10.956790123456699  L 1.5300546448088426 9.104938271604851  L 2.142076502732152 10.030864197530832  L 3.3661202185792263 9.104938271604851  L 4.437158469945416 10.030864197530832  L 6.1202185792349155 10.030864197530832  L 7.34426229508199 9.104938271604851  L 7.34426229508199 7.561728395061664  L 9.027322404371489 7.561728395061664  L 12.5464480874316 7.561728395061664  L 12.5464480874316 6.944444444444457  L 11.93442622950829 5.555555555555543  L 11.016393442622984 5.555555555555543  L 9.639344262295026 4.475308641975289  L 9.639344262295026 3.858024691357968  L 11.016393442622984 2.9320987654321016  L 13.158469945355137 3.858024691357968  L 13.923497267759558 2.9320987654321016  L 14.841530054644863 4.475308641975289  L 15.606557377049285 2.9320987654321016  L 16.524590163934363 1.5432098765431874  L 17.44262295081967 2.469135802469168  L 17.44262295081967 1.5432098765431874  L 18.360655737704974 0  L 19.89071038251359 0.7716049382715937  L 19.89071038251359 1.5432098765431874  L 22.03278688524597 0.7716049382715937  L 22.64480874316928 2.469135802469168  L 22.03278688524597 2.9320987654321016  L 23.256830601092815 3.858024691357968  L 24.021857923497237 5.555555555555543  L 25.24590163934431 5.555555555555543  L 26.316939890710273 4.475308641975289  L 26.92896174863381 6.172839506172863  L 26.92896174863381 7.561728395061664  L 26.92896174863381 9.104938271604851  L 26.316939890710273 10.030864197530832  L 24.633879781420774 12.5  L 25.24590163934431 12.5  L 26.92896174863381 11.88271604938268  L 28 12.5  L 28 13.734567901234525  L 26.92896174863381 13.734567901234525  L 26.92896174863381 15.277777777777715  L 26.92896174863381 16.203703703703695  L 28 17.901234567901156  L 26.92896174863381 19.290123456790184  L 25.24590163934431 19.290123456790184  L 25.24590163934431 20.679012345678984  L 24.021857923497237 19.290123456790184  L 23.256830601092815 21.296296296296305  L 22.64480874316928 20.679012345678984  L 20.96174863387978 22.0679012345679  L 19.89071038251359 22.685185185185105  L 18.972677595628284 22.0679012345679  L 18.360655737704974 22.0679012345679  L 17.44262295081967 21.296296296296305  L 17.44262295081967 19.90740740740739  L 15.606557377049285 20.679012345678984  L 15.606557377049285 21.296296296296305  L 13.158469945355137 22.685185185185105  L 11.016393442622984 24.38271604938268  L 9.639344262295026 23.765432098765473  L 6.1202185792349155 22.685185185185105  L 4.437158469945416 25  L 3.3661202185792263 24.38271604938268  L 4.437158469945416 22.0679012345679  L 4.437158469945416 21.296296296296305  L 3.3661202185792263 19.90740740740739  L 3.3661202185792263 18.672839506172863  L 3.3661202185792263 16.97530864197529  L 4.437158469945416 15.277777777777715  L 3.3661202185792263 13.734567901234525  L 2.7540983606556892 13.734567901234525  L 1.5300546448088426 13.734567901234525  L 0 13.734567901234525  L 0.612021857923537 12.5  Z " fill-rule="nonzero" fill="#ffffff" stroke="none" fill-opacity="0" transform="matrix(1 0 0 1 1256 710 )" />
    <path d="M 0.612021857923537 12.5  L 0 10.956790123456699  L 1.5300546448088426 9.104938271604851  L 2.142076502732152 10.030864197530832  L 3.3661202185792263 9.104938271604851  L 4.437158469945416 10.030864197530832  L 6.1202185792349155 10.030864197530832  L 7.34426229508199 9.104938271604851  L 7.34426229508199 7.561728395061664  L 9.027322404371489 7.561728395061664  L 12.5464480874316 7.561728395061664  L 12.5464480874316 6.944444444444457  L 11.93442622950829 5.555555555555543  L 11.016393442622984 5.555555555555543  L 9.639344262295026 4.475308641975289  L 9.639344262295026 3.858024691357968  L 11.016393442622984 2.9320987654321016  L 13.158469945355137 3.858024691357968  L 13.923497267759558 2.9320987654321016  L 14.841530054644863 4.475308641975289  L 15.606557377049285 2.9320987654321016  L 16.524590163934363 1.5432098765431874  L 17.44262295081967 2.469135802469168  L 17.44262295081967 1.5432098765431874  L 18.360655737704974 0  L 19.89071038251359 0.7716049382715937  L 19.89071038251359 1.5432098765431874  L 22.03278688524597 0.7716049382715937  L 22.64480874316928 2.469135802469168  L 22.03278688524597 2.9320987654321016  L 23.256830601092815 3.858024691357968  L 24.021857923497237 5.555555555555543  L 25.24590163934431 5.555555555555543  L 26.316939890710273 4.475308641975289  L 26.92896174863381 6.172839506172863  L 26.92896174863381 7.561728395061664  L 26.92896174863381 9.104938271604851  L 26.316939890710273 10.030864197530832  L 24.633879781420774 12.5  L 25.24590163934431 12.5  L 26.92896174863381 11.88271604938268  L 28 12.5  L 28 13.734567901234525  L 26.92896174863381 13.734567901234525  L 26.92896174863381 15.277777777777715  L 26.92896174863381 16.203703703703695  L 28 17.901234567901156  L 26.92896174863381 19.290123456790184  L 25.24590163934431 19.290123456790184  L 25.24590163934431 20.679012345678984  L 24.021857923497237 19.290123456790184  L 23.256830601092815 21.296296296296305  L 22.64480874316928 20.679012345678984  L 20.96174863387978 22.0679012345679  L 19.89071038251359 22.685185185185105  L 18.972677595628284 22.0679012345679  L 18.360655737704974 22.0679012345679  L 17.44262295081967 21.296296296296305  L 17.44262295081967 19.90740740740739  L 15.606557377049285 20.679012345678984  L 15.606557377049285 21.296296296296305  L 13.158469945355137 22.685185185185105  L 11.016393442622984 24.38271604938268  L 9.639344262295026 23.765432098765473  L 6.1202185792349155 22.685185185185105  L 4.437158469945416 25  L 3.3661202185792263 24.38271604938268  L 4.437158469945416 22.0679012345679  L 4.437158469945416 21.296296296296305  L 3.3661202185792263 19.90740740740739  L 3.3661202185792263 18.672839506172863  L 3.3661202185792263 16.97530864197529  L 4.437158469945416 15.277777777777715  L 3.3661202185792263 13.734567901234525  L 2.7540983606556892 13.734567901234525  L 1.5300546448088426 13.734567901234525  L 0 13.734567901234525  L 0.612021857923537 12.5  Z " stroke-width="2" stroke="#ffa897" fill="none" transform="matrix(1 0 0 1 1256 710 )" mask="url(#clip163)" />
  </g>
</svg>