<?xml version="1.0" encoding="utf-8"?>
<svg version="1.1" xmlns:xlink="http://www.w3.org/1999/xlink" width="27px" height="27px" xmlns="http://www.w3.org/2000/svg">
  <defs>
    <mask fill="white" id="clip293">
      <path d="M 16.91379310344837 2.5932203389830875  L 16.91379310344837 0.4576271186440408  L 18.155172413793025 0  L 20.017241379310462 1.2203389830508513  L 20.63793103448279 3.2033898305083994  L 22.189655172413723 1.2203389830508513  L 22.189655172413723 3.2033898305083994  L 24.36206896551721 5.949152542372872  L 25.448275862069067 5.949152542372872  L 24.36206896551721 7.779661016949149  L 25.448275862069067 9  L 27 10.983050847457548  L 27 12.813559322033825  L 25.448275862069067 14.796610169491489  L 22.810344827586277 17.694915254237344  L 22.810344827586277 18.610169491525426  L 20.63793103448279 19.22033898305085  L 16.91379310344837 21.203389830508513  L 13.965517241379303 23.49152542372883  L 13.344827586206975 25.016949152542338  L 11.948275862069067 25.016949152542338  L 11.948275862069067 25.932203389830534  L 10.08620689655163 27  L 10.08620689655163 25.932203389830534  L 10.86206896551721 25.016949152542338  L 11.948275862069067 24.254237288135528  L 12.879310344827672 22.881355932203405  L 10.86206896551721 23.49152542372883  L 10.08620689655163 22.118644067796595  L 10.86206896551721 22.118644067796595  L 10.86206896551721 20.593220338982974  L 12.879310344827672 19.22033898305085  L 13.344827586206975 17.694915254237344  L 13.965517241379303 16.322033898304994  L 11.948275862069067 14.796610169491489  L 11.948275862069067 14.186440677966175  L 10.08620689655163 14.796610169491489  L 8.844827586206975 14.796610169491489  L 7.9137931034481435 16.322033898304994  L 6.982758620689538 18.610169491525426  L 3.7241379310344196 21.203389830508513  L 2.482758620689765 17.694915254237344  L 0 16.322033898304994  L 0.77586206896558 14.186440677966175  L 1.5517241379309326 12.813559322033825  L 0.77586206896558 11.745762711864472  L 1.5517241379309326 9.915254237288195  L 0.77586206896558 8.389830508474574  L 1.5517241379309326 7.779661016949149  L 3.1034482758620925 9  L 3.7241379310344196 10.983050847457548  L 5.431034482758605 9  L 7.9137931034481435 7.779661016949149  L 8.844827586206975 6.7118644067795685  L 10.08620689655163 6.7118644067795685  L 10.86206896551721 5.186440677966061  L 12.879310344827672 5.186440677966061  L 12.879310344827672 3.9661016949152104  L 13.965517241379303 3.9661016949152104  L 15.982758620689767 3.9661016949152104  L 15.982758620689767 2.5932203389830875  L 16.91379310344837 2.5932203389830875  Z " fill-rule="evenodd" />
    </mask>
  </defs>
  <g transform="matrix(1 0 0 1 -1321 -630 )">
    <path d="M 16.91379310344837 2.5932203389830875  L 16.91379310344837 0.4576271186440408  L 18.155172413793025 0  L 20.017241379310462 1.2203389830508513  L 20.63793103448279 3.2033898305083994  L 22.189655172413723 1.2203389830508513  L 22.189655172413723 3.2033898305083994  L 24.36206896551721 5.949152542372872  L 25.448275862069067 5.949152542372872  L 24.36206896551721 7.779661016949149  L 25.448275862069067 9  L 27 10.983050847457548  L 27 12.813559322033825  L 25.448275862069067 14.796610169491489  L 22.810344827586277 17.694915254237344  L 22.810344827586277 18.610169491525426  L 20.63793103448279 19.22033898305085  L 16.91379310344837 21.203389830508513  L 13.965517241379303 23.49152542372883  L 13.344827586206975 25.016949152542338  L 11.948275862069067 25.016949152542338  L 11.948275862069067 25.932203389830534  L 10.08620689655163 27  L 10.08620689655163 25.932203389830534  L 10.86206896551721 25.016949152542338  L 11.948275862069067 24.254237288135528  L 12.879310344827672 22.881355932203405  L 10.86206896551721 23.49152542372883  L 10.08620689655163 22.118644067796595  L 10.86206896551721 22.118644067796595  L 10.86206896551721 20.593220338982974  L 12.879310344827672 19.22033898305085  L 13.344827586206975 17.694915254237344  L 13.965517241379303 16.322033898304994  L 11.948275862069067 14.796610169491489  L 11.948275862069067 14.186440677966175  L 10.08620689655163 14.796610169491489  L 8.844827586206975 14.796610169491489  L 7.9137931034481435 16.322033898304994  L 6.982758620689538 18.610169491525426  L 3.7241379310344196 21.203389830508513  L 2.482758620689765 17.694915254237344  L 0 16.322033898304994  L 0.77586206896558 14.186440677966175  L 1.5517241379309326 12.813559322033825  L 0.77586206896558 11.745762711864472  L 1.5517241379309326 9.915254237288195  L 0.77586206896558 8.389830508474574  L 1.5517241379309326 7.779661016949149  L 3.1034482758620925 9  L 3.7241379310344196 10.983050847457548  L 5.431034482758605 9  L 7.9137931034481435 7.779661016949149  L 8.844827586206975 6.7118644067795685  L 10.08620689655163 6.7118644067795685  L 10.86206896551721 5.186440677966061  L 12.879310344827672 5.186440677966061  L 12.879310344827672 3.9661016949152104  L 13.965517241379303 3.9661016949152104  L 15.982758620689767 3.9661016949152104  L 15.982758620689767 2.5932203389830875  L 16.91379310344837 2.5932203389830875  Z " fill-rule="nonzero" fill="#ffffff" stroke="none" fill-opacity="0" transform="matrix(1 0 0 1 1321 630 )" />
    <path d="M 16.91379310344837 2.5932203389830875  L 16.91379310344837 0.4576271186440408  L 18.155172413793025 0  L 20.017241379310462 1.2203389830508513  L 20.63793103448279 3.2033898305083994  L 22.189655172413723 1.2203389830508513  L 22.189655172413723 3.2033898305083994  L 24.36206896551721 5.949152542372872  L 25.448275862069067 5.949152542372872  L 24.36206896551721 7.779661016949149  L 25.448275862069067 9  L 27 10.983050847457548  L 27 12.813559322033825  L 25.448275862069067 14.796610169491489  L 22.810344827586277 17.694915254237344  L 22.810344827586277 18.610169491525426  L 20.63793103448279 19.22033898305085  L 16.91379310344837 21.203389830508513  L 13.965517241379303 23.49152542372883  L 13.344827586206975 25.016949152542338  L 11.948275862069067 25.016949152542338  L 11.948275862069067 25.932203389830534  L 10.08620689655163 27  L 10.08620689655163 25.932203389830534  L 10.86206896551721 25.016949152542338  L 11.948275862069067 24.254237288135528  L 12.879310344827672 22.881355932203405  L 10.86206896551721 23.49152542372883  L 10.08620689655163 22.118644067796595  L 10.86206896551721 22.118644067796595  L 10.86206896551721 20.593220338982974  L 12.879310344827672 19.22033898305085  L 13.344827586206975 17.694915254237344  L 13.965517241379303 16.322033898304994  L 11.948275862069067 14.796610169491489  L 11.948275862069067 14.186440677966175  L 10.08620689655163 14.796610169491489  L 8.844827586206975 14.796610169491489  L 7.9137931034481435 16.322033898304994  L 6.982758620689538 18.610169491525426  L 3.7241379310344196 21.203389830508513  L 2.482758620689765 17.694915254237344  L 0 16.322033898304994  L 0.77586206896558 14.186440677966175  L 1.5517241379309326 12.813559322033825  L 0.77586206896558 11.745762711864472  L 1.5517241379309326 9.915254237288195  L 0.77586206896558 8.389830508474574  L 1.5517241379309326 7.779661016949149  L 3.1034482758620925 9  L 3.7241379310344196 10.983050847457548  L 5.431034482758605 9  L 7.9137931034481435 7.779661016949149  L 8.844827586206975 6.7118644067795685  L 10.08620689655163 6.7118644067795685  L 10.86206896551721 5.186440677966061  L 12.879310344827672 5.186440677966061  L 12.879310344827672 3.9661016949152104  L 13.965517241379303 3.9661016949152104  L 15.982758620689767 3.9661016949152104  L 15.982758620689767 2.5932203389830875  L 16.91379310344837 2.5932203389830875  Z " stroke-width="2" stroke="#ffa897" fill="none" transform="matrix(1 0 0 1 1321 630 )" mask="url(#clip293)" />
  </g>
</svg>