<?xml version="1.0" encoding="utf-8"?>
<svg version="1.1" xmlns:xlink="http://www.w3.org/1999/xlink" width="22px" height="22px" xmlns="http://www.w3.org/2000/svg">
  <defs>
    <mask fill="white" id="clip165">
      <path d="M 0 14.055555555555543  L 1.8333333333332575 12.069444444444457  L 0.9166666666667425 10.847222222222285  L 2.5972222222221717 9.777777777777715  L 4.277777777777828 10.847222222222285  L 5.347222222222172 10.847222222222285  L 5.9583333333332575 11.458333333333258  L 7.944444444444343 12.069444444444457  L 9.166666666666742 9.777777777777715  L 10.236111111111086 8.402777777777715  L 11.611111111111088 7.638888888888914  L 12.986111111111088 4.5833333333332575  L 13.75 3.819444444444457  L 13.75 1.9861111111111995  L 13.75 1.069444444444457  L 14.666666666666742 0  L 16.5 1.9861111111111995  L 17.416666666666742 2.902777777777714  L 19.09722222222217 2.902777777777714  L 19.708333333333258 3.819444444444457  L 21.388888888888914 4.5833333333332575  L 22 7.638888888888914  L 21.388888888888914 7.638888888888914  L 19.708333333333258 8.402777777777715  L 18.18055555555543 9.777777777777715  L 17.416666666666742 9.777777777777715  L 15.888888888888912 9.777777777777715  L 14.666666666666742 9.777777777777715  L 13.75 9.777777777777715  L 14.666666666666742 10.847222222222285  L 13.75 12.069444444444457  L 15.888888888888912 14.972222222222285  L 17.416666666666742 17.1111111111112  L 18.18055555555543 19.708333333333258  L 18.18055555555543 20.930555555555543  L 16.5 22  L 15.43055555555543 22  L 14.666666666666742 20.930555555555543  L 13.75 19.708333333333258  L 13.75 17.875  L 11.611111111111088 17.875  L 9.166666666666742 16.5  L 9.166666666666742 17.875  L 9.166666666666742 18.791666666666742  L 7.944444444444343 17.875  L 7.027777777777828 18.791666666666742  L 5.9583333333332575 20.930555555555543  L 4.277777777777828 19.708333333333258  L 3.666666666666742 18.791666666666742  L 2.5972222222221717 17.875  L 0.9166666666667425 16.041666666666742  L 0 14.055555555555543  Z " fill-rule="evenodd" />
    </mask>
  </defs>
  <g transform="matrix(1 0 0 1 -1265 -694 )">
    <path d="M 0 14.055555555555543  L 1.8333333333332575 12.069444444444457  L 0.9166666666667425 10.847222222222285  L 2.5972222222221717 9.777777777777715  L 4.277777777777828 10.847222222222285  L 5.347222222222172 10.847222222222285  L 5.9583333333332575 11.458333333333258  L 7.944444444444343 12.069444444444457  L 9.166666666666742 9.777777777777715  L 10.236111111111086 8.402777777777715  L 11.611111111111088 7.638888888888914  L 12.986111111111088 4.5833333333332575  L 13.75 3.819444444444457  L 13.75 1.9861111111111995  L 13.75 1.069444444444457  L 14.666666666666742 0  L 16.5 1.9861111111111995  L 17.416666666666742 2.902777777777714  L 19.09722222222217 2.902777777777714  L 19.708333333333258 3.819444444444457  L 21.388888888888914 4.5833333333332575  L 22 7.638888888888914  L 21.388888888888914 7.638888888888914  L 19.708333333333258 8.402777777777715  L 18.18055555555543 9.777777777777715  L 17.416666666666742 9.777777777777715  L 15.888888888888912 9.777777777777715  L 14.666666666666742 9.777777777777715  L 13.75 9.777777777777715  L 14.666666666666742 10.847222222222285  L 13.75 12.069444444444457  L 15.888888888888912 14.972222222222285  L 17.416666666666742 17.1111111111112  L 18.18055555555543 19.708333333333258  L 18.18055555555543 20.930555555555543  L 16.5 22  L 15.43055555555543 22  L 14.666666666666742 20.930555555555543  L 13.75 19.708333333333258  L 13.75 17.875  L 11.611111111111088 17.875  L 9.166666666666742 16.5  L 9.166666666666742 17.875  L 9.166666666666742 18.791666666666742  L 7.944444444444343 17.875  L 7.027777777777828 18.791666666666742  L 5.9583333333332575 20.930555555555543  L 4.277777777777828 19.708333333333258  L 3.666666666666742 18.791666666666742  L 2.5972222222221717 17.875  L 0.9166666666667425 16.041666666666742  L 0 14.055555555555543  Z " fill-rule="nonzero" fill="#ffffff" stroke="none" fill-opacity="0" transform="matrix(1 0 0 1 1265 694 )" />
    <path d="M 0 14.055555555555543  L 1.8333333333332575 12.069444444444457  L 0.9166666666667425 10.847222222222285  L 2.5972222222221717 9.777777777777715  L 4.277777777777828 10.847222222222285  L 5.347222222222172 10.847222222222285  L 5.9583333333332575 11.458333333333258  L 7.944444444444343 12.069444444444457  L 9.166666666666742 9.777777777777715  L 10.236111111111086 8.402777777777715  L 11.611111111111088 7.638888888888914  L 12.986111111111088 4.5833333333332575  L 13.75 3.819444444444457  L 13.75 1.9861111111111995  L 13.75 1.069444444444457  L 14.666666666666742 0  L 16.5 1.9861111111111995  L 17.416666666666742 2.902777777777714  L 19.09722222222217 2.902777777777714  L 19.708333333333258 3.819444444444457  L 21.388888888888914 4.5833333333332575  L 22 7.638888888888914  L 21.388888888888914 7.638888888888914  L 19.708333333333258 8.402777777777715  L 18.18055555555543 9.777777777777715  L 17.416666666666742 9.777777777777715  L 15.888888888888912 9.777777777777715  L 14.666666666666742 9.777777777777715  L 13.75 9.777777777777715  L 14.666666666666742 10.847222222222285  L 13.75 12.069444444444457  L 15.888888888888912 14.972222222222285  L 17.416666666666742 17.1111111111112  L 18.18055555555543 19.708333333333258  L 18.18055555555543 20.930555555555543  L 16.5 22  L 15.43055555555543 22  L 14.666666666666742 20.930555555555543  L 13.75 19.708333333333258  L 13.75 17.875  L 11.611111111111088 17.875  L 9.166666666666742 16.5  L 9.166666666666742 17.875  L 9.166666666666742 18.791666666666742  L 7.944444444444343 17.875  L 7.027777777777828 18.791666666666742  L 5.9583333333332575 20.930555555555543  L 4.277777777777828 19.708333333333258  L 3.666666666666742 18.791666666666742  L 2.5972222222221717 17.875  L 0.9166666666667425 16.041666666666742  L 0 14.055555555555543  Z " stroke-width="2" stroke="#ffa897" fill="none" transform="matrix(1 0 0 1 1265 694 )" mask="url(#clip165)" />
  </g>
</svg>