<?xml version="1.0" encoding="utf-8"?>
<svg version="1.1" xmlns:xlink="http://www.w3.org/1999/xlink" width="26px" height="43px" xmlns="http://www.w3.org/2000/svg">
  <defs>
    <mask fill="white" id="clip480">
      <path d="M 24.68202764976968 0  L 25.400921658986135 0  L 26 1.0292553191490015  L 25.400921658986135 1.0292553191490015  L 26 1.8297872340425556  L 24.68202764976968 4.688829787234113  L 24.68202764976968 6.175531914893554  L 23.124423963133722 6.976063829787222  L 23.124423963133722 8.69148936170211  L 24.68202764976968 10.978723404255332  L 23.124423963133722 12.007978723404335  L 23.124423963133722 12.80851063829789  L 22.16589861751163 14.295212765957444  L 23.124423963133722 16.925531914893554  L 23.124423963133722 19.098404255319224  L 23.843317972350178 22.071808510638217  L 22.16589861751163 24.359042553191557  L 22.16589861751163 27.103723404255334  L 23.124423963133722 29.04787234042556  L 23.843317972350178 30.763297872340445  L 24.68202764976968 32.478723404255334  L 25.400921658986135 33.507978723404335  L 25.400921658986135 34.651595744680776  L 23.843317972350178 35.56648936170211  L 23.124423963133722 34.651595744680776  L 22.16589861751163 34.651595744680776  L 19.170506912442534 34.651595744680776  L 18.211981566820214 34.651595744680776  L 19.170506912442534 35.56648936170211  L 20.009216589861808 36.595744680851  L 20.847926267281082 36.595744680851  L 21.447004608294947 37.968085106383  L 20.009216589861808 37.968085106383  L 19.170506912442534 37.968085106383  L 18.211981566820214 39.797872340425556  L 19.170506912442534 41.05585106382978  L 19.170506912442534 43  L 17.25345622119812 43  L 16.414746543778847 41.85638297872333  L 13.299539170506932 39.797872340425556  L 10.663594470046064 40.36968085106389  L 9.585253456221153 39.111702127659555  L 8.027649769585196 37.968085106383  L 7.5483870967741495 39.111702127659555  L 6.230414746543829 37.281914893617  L 5.511520737327146 37.281914893617  L 4.313364055299644 37.968085106383  L 2.3963133640552314 36.595744680851  L 1.078341013824911 37.281914893617  L 0 35.56648936170211  L 1.078341013824911 35.56648936170211  L 1.7972350230413665 34.651595744680776  L 1.078341013824911 33.507978723404335  L 1.7972350230413665 32.478723404255334  L 2.995391705069096 32.478723404255334  L 4.313364055299644 32.478723404255334  L 5.511520737327146 32.478723404255334  L 4.912442396313281 30.763297872340445  L 4.912442396313281 29.734042553191557  L 5.511520737327146 29.04787234042556  L 5.511520737327146 27.103723404255334  L 4.313364055299644 27.103723404255334  L 5.511520737327146 25.15957446808511  L 4.912442396313281 24.359042553191557  L 6.949308755760285 24.359042553191557  L 7.5483870967741495 25.15957446808511  L 10.663594470046064 25.15957446808511  L 9.585253456221153 23.444148936170222  L 13.299539170506932 23.444148936170222  L 14.258064516129025 23.444148936170222  L 14.258064516129025 20.699468085106446  L 14.976958525345708 19.098404255319224  L 14.976958525345708 16.925531914893554  L 13.299539170506932 16.925531914893554  L 11.861751152073793 16.239361702127667  L 10.663594470046064 15.095744680851  L 8.62672811059906 13.723404255319224  L 8.62672811059906 12.007978723404335  L 9.585253456221153 9.835106382978665  L 10.663594470046064 9.835106382978665  L 11.861751152073793 10.978723404255332  L 14.976958525345708 10.406914893617  L 14.976958525345708 8.69148936170211  L 16.414746543778847 8.69148936170211  L 16.414746543778847 6.976063829787222  L 18.211981566820214 4.688829787234113  L 19.170506912442534 3.659574468085111  L 20.847926267281082 1.8297872340425556  L 20.847926267281082 1.0292553191490015  L 23.124423963133722 1.0292553191490015  L 24.68202764976968 0  Z " fill-rule="evenodd" />
    </mask>
  </defs>
  <g transform="matrix(1 0 0 1 -1266 -654 )">
    <path d="M 24.68202764976968 0  L 25.400921658986135 0  L 26 1.0292553191490015  L 25.400921658986135 1.0292553191490015  L 26 1.8297872340425556  L 24.68202764976968 4.688829787234113  L 24.68202764976968 6.175531914893554  L 23.124423963133722 6.976063829787222  L 23.124423963133722 8.69148936170211  L 24.68202764976968 10.978723404255332  L 23.124423963133722 12.007978723404335  L 23.124423963133722 12.80851063829789  L 22.16589861751163 14.295212765957444  L 23.124423963133722 16.925531914893554  L 23.124423963133722 19.098404255319224  L 23.843317972350178 22.071808510638217  L 22.16589861751163 24.359042553191557  L 22.16589861751163 27.103723404255334  L 23.124423963133722 29.04787234042556  L 23.843317972350178 30.763297872340445  L 24.68202764976968 32.478723404255334  L 25.400921658986135 33.507978723404335  L 25.400921658986135 34.651595744680776  L 23.843317972350178 35.56648936170211  L 23.124423963133722 34.651595744680776  L 22.16589861751163 34.651595744680776  L 19.170506912442534 34.651595744680776  L 18.211981566820214 34.651595744680776  L 19.170506912442534 35.56648936170211  L 20.009216589861808 36.595744680851  L 20.847926267281082 36.595744680851  L 21.447004608294947 37.968085106383  L 20.009216589861808 37.968085106383  L 19.170506912442534 37.968085106383  L 18.211981566820214 39.797872340425556  L 19.170506912442534 41.05585106382978  L 19.170506912442534 43  L 17.25345622119812 43  L 16.414746543778847 41.85638297872333  L 13.299539170506932 39.797872340425556  L 10.663594470046064 40.36968085106389  L 9.585253456221153 39.111702127659555  L 8.027649769585196 37.968085106383  L 7.5483870967741495 39.111702127659555  L 6.230414746543829 37.281914893617  L 5.511520737327146 37.281914893617  L 4.313364055299644 37.968085106383  L 2.3963133640552314 36.595744680851  L 1.078341013824911 37.281914893617  L 0 35.56648936170211  L 1.078341013824911 35.56648936170211  L 1.7972350230413665 34.651595744680776  L 1.078341013824911 33.507978723404335  L 1.7972350230413665 32.478723404255334  L 2.995391705069096 32.478723404255334  L 4.313364055299644 32.478723404255334  L 5.511520737327146 32.478723404255334  L 4.912442396313281 30.763297872340445  L 4.912442396313281 29.734042553191557  L 5.511520737327146 29.04787234042556  L 5.511520737327146 27.103723404255334  L 4.313364055299644 27.103723404255334  L 5.511520737327146 25.15957446808511  L 4.912442396313281 24.359042553191557  L 6.949308755760285 24.359042553191557  L 7.5483870967741495 25.15957446808511  L 10.663594470046064 25.15957446808511  L 9.585253456221153 23.444148936170222  L 13.299539170506932 23.444148936170222  L 14.258064516129025 23.444148936170222  L 14.258064516129025 20.699468085106446  L 14.976958525345708 19.098404255319224  L 14.976958525345708 16.925531914893554  L 13.299539170506932 16.925531914893554  L 11.861751152073793 16.239361702127667  L 10.663594470046064 15.095744680851  L 8.62672811059906 13.723404255319224  L 8.62672811059906 12.007978723404335  L 9.585253456221153 9.835106382978665  L 10.663594470046064 9.835106382978665  L 11.861751152073793 10.978723404255332  L 14.976958525345708 10.406914893617  L 14.976958525345708 8.69148936170211  L 16.414746543778847 8.69148936170211  L 16.414746543778847 6.976063829787222  L 18.211981566820214 4.688829787234113  L 19.170506912442534 3.659574468085111  L 20.847926267281082 1.8297872340425556  L 20.847926267281082 1.0292553191490015  L 23.124423963133722 1.0292553191490015  L 24.68202764976968 0  Z " fill-rule="nonzero" fill="#ffffff" stroke="none" fill-opacity="0" transform="matrix(1 0 0 1 1266 654 )" />
    <path d="M 24.68202764976968 0  L 25.400921658986135 0  L 26 1.0292553191490015  L 25.400921658986135 1.0292553191490015  L 26 1.8297872340425556  L 24.68202764976968 4.688829787234113  L 24.68202764976968 6.175531914893554  L 23.124423963133722 6.976063829787222  L 23.124423963133722 8.69148936170211  L 24.68202764976968 10.978723404255332  L 23.124423963133722 12.007978723404335  L 23.124423963133722 12.80851063829789  L 22.16589861751163 14.295212765957444  L 23.124423963133722 16.925531914893554  L 23.124423963133722 19.098404255319224  L 23.843317972350178 22.071808510638217  L 22.16589861751163 24.359042553191557  L 22.16589861751163 27.103723404255334  L 23.124423963133722 29.04787234042556  L 23.843317972350178 30.763297872340445  L 24.68202764976968 32.478723404255334  L 25.400921658986135 33.507978723404335  L 25.400921658986135 34.651595744680776  L 23.843317972350178 35.56648936170211  L 23.124423963133722 34.651595744680776  L 22.16589861751163 34.651595744680776  L 19.170506912442534 34.651595744680776  L 18.211981566820214 34.651595744680776  L 19.170506912442534 35.56648936170211  L 20.009216589861808 36.595744680851  L 20.847926267281082 36.595744680851  L 21.447004608294947 37.968085106383  L 20.009216589861808 37.968085106383  L 19.170506912442534 37.968085106383  L 18.211981566820214 39.797872340425556  L 19.170506912442534 41.05585106382978  L 19.170506912442534 43  L 17.25345622119812 43  L 16.414746543778847 41.85638297872333  L 13.299539170506932 39.797872340425556  L 10.663594470046064 40.36968085106389  L 9.585253456221153 39.111702127659555  L 8.027649769585196 37.968085106383  L 7.5483870967741495 39.111702127659555  L 6.230414746543829 37.281914893617  L 5.511520737327146 37.281914893617  L 4.313364055299644 37.968085106383  L 2.3963133640552314 36.595744680851  L 1.078341013824911 37.281914893617  L 0 35.56648936170211  L 1.078341013824911 35.56648936170211  L 1.7972350230413665 34.651595744680776  L 1.078341013824911 33.507978723404335  L 1.7972350230413665 32.478723404255334  L 2.995391705069096 32.478723404255334  L 4.313364055299644 32.478723404255334  L 5.511520737327146 32.478723404255334  L 4.912442396313281 30.763297872340445  L 4.912442396313281 29.734042553191557  L 5.511520737327146 29.04787234042556  L 5.511520737327146 27.103723404255334  L 4.313364055299644 27.103723404255334  L 5.511520737327146 25.15957446808511  L 4.912442396313281 24.359042553191557  L 6.949308755760285 24.359042553191557  L 7.5483870967741495 25.15957446808511  L 10.663594470046064 25.15957446808511  L 9.585253456221153 23.444148936170222  L 13.299539170506932 23.444148936170222  L 14.258064516129025 23.444148936170222  L 14.258064516129025 20.699468085106446  L 14.976958525345708 19.098404255319224  L 14.976958525345708 16.925531914893554  L 13.299539170506932 16.925531914893554  L 11.861751152073793 16.239361702127667  L 10.663594470046064 15.095744680851  L 8.62672811059906 13.723404255319224  L 8.62672811059906 12.007978723404335  L 9.585253456221153 9.835106382978665  L 10.663594470046064 9.835106382978665  L 11.861751152073793 10.978723404255332  L 14.976958525345708 10.406914893617  L 14.976958525345708 8.69148936170211  L 16.414746543778847 8.69148936170211  L 16.414746543778847 6.976063829787222  L 18.211981566820214 4.688829787234113  L 19.170506912442534 3.659574468085111  L 20.847926267281082 1.8297872340425556  L 20.847926267281082 1.0292553191490015  L 23.124423963133722 1.0292553191490015  L 24.68202764976968 0  Z " stroke-width="2" stroke="#ffa897" fill="none" transform="matrix(1 0 0 1 1266 654 )" mask="url(#clip480)" />
  </g>
</svg>