<?xml version="1.0" encoding="utf-8"?>
<svg version="1.1" xmlns:xlink="http://www.w3.org/1999/xlink" width="59px" height="43px" xmlns="http://www.w3.org/2000/svg">
  <defs>
    <mask fill="white" id="clip788">
      <path d="M 19.460732984293145 0  L 16.371727748691228 0  L 12.35602094240835 0  L 8.803664921465952 0.625454545454545  L 6.641361256544542 1.25090909090909  L 6.641361256544542 2.189090909090851  L 7.722513089005134 2.189090909090851  L 7.722513089005134 4.378181818181815  L 8.803664921465952 7.349090909090819  L 9.730366492146686 10.00727272727272  L 7.722513089005134 11.727272727272748  L 7.722513089005134 14.854545454545473  L 4.787958115183301 13.60363636363627  L 2.16230366492141 13.60363636363627  L 2.16230366492141 14.854545454545473  L 1.2356020942409032 17.66909090909087  L 0.6178010471203379 20.32727272727277  L 1.2356020942409032 22.829090909090837  L 0 25.33090909090913  L 2.16230366492141 29.1340579710145  L 4.787958115183301 30.334545454545378  L 7.25916230366488 32.52363636363634  L 10.348167539267024 34.39999999999998  L 13.282722513089084 35.18181818181813  L 16.371727748691228 36.745454545454436  L 19.460732984293145 36.745454545454436  L 22.086387434555036 38.30909090909097  L 23.32198952879571 40.185454545454604  L 24.557591623036615 42.21818181818185  L 26.56544502617794 43  L 28.41884816753918 43  L 30.11780104712034 41.43636363636358  L 32.280104712041975 40.185454545454604  L 32.280104712041975 38.30909090909097  L 34.442408376963385 39.09090909090912  L 32.280104712041975 36.745454545454436  L 34.442408376963385 34.39999999999998  L 33.670157068062736 31.27272727272725  L 36.14136125654454 30.334545454545378  L 38.14921465968587 32.52363636363634  L 39.539267015706855 35.18181818181813  L 41.85602094240835 38.30909090909097  L 44.17277486911007 37.5272727272727  L 46.33507853403148 39.09090909090912  L 49.269633507853314 40.185454545454604  L 49.88743455497388 36.745454545454436  L 52.35863874345546 36.745454545454436  L 52.35863874345546 35.18181818181813  L 50.50523560209422 34.39999999999998  L 48.49738219895289 32.054545454545405  L 49.269633507853314 30.334545454545378  L 53.13089005235611 32.054545454545405  L 54.98429319371735 31.27272727272725  L 54.98429319371735 27.363636363636374  L 56.37434554973811 24.705454545454586  L 59 22.829090909090837  L 58.073298429319266 19.389090909090896  L 57.30104712041884 16.73090909090911  L 56.37434554973811 13.60363636363627  L 54.057591623036615 11.727272727272748  L 50.50523560209422 10.00727272727272  L 48.49738219895289 8.130909090909086  L 44.945026178010494 5.941818181818121  L 42.782722513089084 3.2836363636364467  L 39.539267015706855 4.378181818181815  L 38.14921465968587 2.189090909090851  L 35.06020942408372 2.189090909090851  L 34.442408376963385 5.159999999999968  L 31.816753926701494 7.349090909090819  L 29.345549738219916 5.941818181818121  L 25.638743455497433 5.159999999999968  L 23.939790575916277 2.814545454545396  L 21.46858638743447 2.189090909090851  L 19.460732984293145 0  Z " fill-rule="evenodd" />
    </mask>
  </defs>
  <g transform="matrix(1 0 0 1 -1198 -651 )">
    <path d="M 19.460732984293145 0  L 16.371727748691228 0  L 12.35602094240835 0  L 8.803664921465952 0.625454545454545  L 6.641361256544542 1.25090909090909  L 6.641361256544542 2.189090909090851  L 7.722513089005134 2.189090909090851  L 7.722513089005134 4.378181818181815  L 8.803664921465952 7.349090909090819  L 9.730366492146686 10.00727272727272  L 7.722513089005134 11.727272727272748  L 7.722513089005134 14.854545454545473  L 4.787958115183301 13.60363636363627  L 2.16230366492141 13.60363636363627  L 2.16230366492141 14.854545454545473  L 1.2356020942409032 17.66909090909087  L 0.6178010471203379 20.32727272727277  L 1.2356020942409032 22.829090909090837  L 0 25.33090909090913  L 2.16230366492141 29.1340579710145  L 4.787958115183301 30.334545454545378  L 7.25916230366488 32.52363636363634  L 10.348167539267024 34.39999999999998  L 13.282722513089084 35.18181818181813  L 16.371727748691228 36.745454545454436  L 19.460732984293145 36.745454545454436  L 22.086387434555036 38.30909090909097  L 23.32198952879571 40.185454545454604  L 24.557591623036615 42.21818181818185  L 26.56544502617794 43  L 28.41884816753918 43  L 30.11780104712034 41.43636363636358  L 32.280104712041975 40.185454545454604  L 32.280104712041975 38.30909090909097  L 34.442408376963385 39.09090909090912  L 32.280104712041975 36.745454545454436  L 34.442408376963385 34.39999999999998  L 33.670157068062736 31.27272727272725  L 36.14136125654454 30.334545454545378  L 38.14921465968587 32.52363636363634  L 39.539267015706855 35.18181818181813  L 41.85602094240835 38.30909090909097  L 44.17277486911007 37.5272727272727  L 46.33507853403148 39.09090909090912  L 49.269633507853314 40.185454545454604  L 49.88743455497388 36.745454545454436  L 52.35863874345546 36.745454545454436  L 52.35863874345546 35.18181818181813  L 50.50523560209422 34.39999999999998  L 48.49738219895289 32.054545454545405  L 49.269633507853314 30.334545454545378  L 53.13089005235611 32.054545454545405  L 54.98429319371735 31.27272727272725  L 54.98429319371735 27.363636363636374  L 56.37434554973811 24.705454545454586  L 59 22.829090909090837  L 58.073298429319266 19.389090909090896  L 57.30104712041884 16.73090909090911  L 56.37434554973811 13.60363636363627  L 54.057591623036615 11.727272727272748  L 50.50523560209422 10.00727272727272  L 48.49738219895289 8.130909090909086  L 44.945026178010494 5.941818181818121  L 42.782722513089084 3.2836363636364467  L 39.539267015706855 4.378181818181815  L 38.14921465968587 2.189090909090851  L 35.06020942408372 2.189090909090851  L 34.442408376963385 5.159999999999968  L 31.816753926701494 7.349090909090819  L 29.345549738219916 5.941818181818121  L 25.638743455497433 5.159999999999968  L 23.939790575916277 2.814545454545396  L 21.46858638743447 2.189090909090851  L 19.460732984293145 0  Z " fill-rule="nonzero" fill="#ffffff" stroke="none" fill-opacity="0" transform="matrix(1 0 0 1 1198 651 )" />
    <path d="M 19.460732984293145 0  L 16.371727748691228 0  L 12.35602094240835 0  L 8.803664921465952 0.625454545454545  L 6.641361256544542 1.25090909090909  L 6.641361256544542 2.189090909090851  L 7.722513089005134 2.189090909090851  L 7.722513089005134 4.378181818181815  L 8.803664921465952 7.349090909090819  L 9.730366492146686 10.00727272727272  L 7.722513089005134 11.727272727272748  L 7.722513089005134 14.854545454545473  L 4.787958115183301 13.60363636363627  L 2.16230366492141 13.60363636363627  L 2.16230366492141 14.854545454545473  L 1.2356020942409032 17.66909090909087  L 0.6178010471203379 20.32727272727277  L 1.2356020942409032 22.829090909090837  L 0 25.33090909090913  L 2.16230366492141 29.1340579710145  L 4.787958115183301 30.334545454545378  L 7.25916230366488 32.52363636363634  L 10.348167539267024 34.39999999999998  L 13.282722513089084 35.18181818181813  L 16.371727748691228 36.745454545454436  L 19.460732984293145 36.745454545454436  L 22.086387434555036 38.30909090909097  L 23.32198952879571 40.185454545454604  L 24.557591623036615 42.21818181818185  L 26.56544502617794 43  L 28.41884816753918 43  L 30.11780104712034 41.43636363636358  L 32.280104712041975 40.185454545454604  L 32.280104712041975 38.30909090909097  L 34.442408376963385 39.09090909090912  L 32.280104712041975 36.745454545454436  L 34.442408376963385 34.39999999999998  L 33.670157068062736 31.27272727272725  L 36.14136125654454 30.334545454545378  L 38.14921465968587 32.52363636363634  L 39.539267015706855 35.18181818181813  L 41.85602094240835 38.30909090909097  L 44.17277486911007 37.5272727272727  L 46.33507853403148 39.09090909090912  L 49.269633507853314 40.185454545454604  L 49.88743455497388 36.745454545454436  L 52.35863874345546 36.745454545454436  L 52.35863874345546 35.18181818181813  L 50.50523560209422 34.39999999999998  L 48.49738219895289 32.054545454545405  L 49.269633507853314 30.334545454545378  L 53.13089005235611 32.054545454545405  L 54.98429319371735 31.27272727272725  L 54.98429319371735 27.363636363636374  L 56.37434554973811 24.705454545454586  L 59 22.829090909090837  L 58.073298429319266 19.389090909090896  L 57.30104712041884 16.73090909090911  L 56.37434554973811 13.60363636363627  L 54.057591623036615 11.727272727272748  L 50.50523560209422 10.00727272727272  L 48.49738219895289 8.130909090909086  L 44.945026178010494 5.941818181818121  L 42.782722513089084 3.2836363636364467  L 39.539267015706855 4.378181818181815  L 38.14921465968587 2.189090909090851  L 35.06020942408372 2.189090909090851  L 34.442408376963385 5.159999999999968  L 31.816753926701494 7.349090909090819  L 29.345549738219916 5.941818181818121  L 25.638743455497433 5.159999999999968  L 23.939790575916277 2.814545454545396  L 21.46858638743447 2.189090909090851  L 19.460732984293145 0  Z " stroke-width="2" stroke="#ffa897" fill="none" transform="matrix(1 0 0 1 1198 651 )" mask="url(#clip788)" />
  </g>
</svg>