<?xml version="1.0" encoding="utf-8"?>
<svg version="1.1" xmlns:xlink="http://www.w3.org/1999/xlink" width="52px" height="49px" xmlns="http://www.w3.org/2000/svg">
  <defs>
    <mask fill="white" id="clip475">
      <path d="M 2.6076696165191606 3.185758513931887  L 1.2271386430677467 1.9721362229103079  L 5.215339233038321 1.0619195046439245  L 8.436578171091469 0  L 9.203539823008896 1.0619195046439245  L 12.578171091445483 1.9721362229103079  L 13.80530973451323 1.0619195046439245  L 15.952802359882073 1.9721362229103079  L 17.640117994100365 5.0061919504644266  L 19.17404129793499 7.281733746130044  L 19.78761061946898 9.405572755417893  L 22.08849557522126 13.04643962848297  L 23.469026548672673 15.321981424148587  L 24.082595870206433 17.14241486068113  L 25.616519174041287 18.204334365325053  L 27.917404129793567 17.14241486068113  L 29.7581120943953 18.204334365325053  L 30.98525073746305 18.204334365325053  L 33.13274336283189 19.72136222910217  L 35.74041297935105 19.72136222910217  L 35.74041297935105 21.086687306501517  L 36.967551622418796 22.7554179566564  L 36.967551622418796 24.727554179566486  L 38.34808259587021 25.78947368421052  L 41.26253687315625 24.727554179566486  L 43.7168141592922 24.727554179566486  L 44.4837758112094 22.7554179566564  L 46.93805309734512 21.086687306501517  L 48.62536873156341 19.72136222910217  L 51.38643067846601 19.114551083591323  L 50.619469026548586 21.996904024767787  L 52 22.7554179566564  L 50.619469026548586 24.727554179566486  L 49.85250737463116 26.396284829721367  L 50.619469026548586 28.216718266253906  L 50.619469026548586 30.9473684210526  L 49.85250737463116 34.1331269349846  L 48.62536873156341 36.10526315789468  L 48.62536873156341 37.773993808049454  L 45.250737463126825 37.773993808049454  L 42.643067846607664 39.89783281733742  L 41.26253687315625 39.89783281733742  L 41.87610619469024 41.41486068111453  L 43.7168141592922 43.84210526315792  L 44.4837758112094 48.2414860681115  L 41.87610619469024 48.2414860681115  L 40.34218289085538 45.96594427244577  L 39.26843657817108 46.57275541795673  L 38.34808259587021 45.96594427244577  L 36.967551622418796 46.57275541795673  L 36.353982300885036 48.2414860681115  L 35.12684365781706 49  L 33.13274336283189 46.57275541795673  L 32.5191740412979 44.60061919504642  L 31.752212389380475 44.60061919504642  L 30.98525073746305 46.57275541795673  L 29.7581120943953 46.57275541795673  L 28.684365781710763 44.60061919504642  L 27.917404129793567 44.60061919504642  L 26.690265486725597 43.84210526315792  L 26.690265486725597 42.3250773993808  L 24.082595870206433 42.3250773993808  L 22.54867256637158 42.3250773993808  L 21.321533923303832 41.41486068111453  L 19.78761061946898 41.41486068111453  L 18.56047197640123 41.41486068111453  L 17.640117994100365 41.41486068111453  L 17.026548672566378 42.3250773993808  L 15.185840707964642 40.65634674922603  L 14.418879056047217 37.773993808049454  L 11.811209439528056 38.3808049535603  L 10.584070796460082 36.8637770897833  L 12.578171091445483 36.10526315789468  L 11.811209439528056 34.1331269349846  L 10.584070796460082 35.650154798761605  L 9.203539823008896 34.1331269349846  L 8.436578171091469 32.46439628482972  L 9.203539823008896 30.9473684210526  L 11.811209439528056 28.216718266253906  L 13.80530973451323 25.78947368421052  L 14.418879056047217 27.60990712074306  L 15.185840707964642 27.00309597523221  L 14.418879056047217 24.727554179566486  L 15.185840707964642 22.7554179566564  L 15.952802359882073 21.996904024767787  L 17.026548672566378 21.086687306501517  L 15.952802359882073 19.72136222910217  L 15.952802359882073 18.204334365325053  L 17.026548672566378 16.23219814241486  L 17.026548672566378 15.321981424148587  L 17.640117994100365 14.260061919504665  L 17.640117994100365 13.04643962848297  L 17.640117994100365 11.832817337461279  L 15.952802359882073 10.6191950464397  L 14.418879056047217 9.405572755417893  L 12.578171091445483 10.6191950464397  L 11.19764011799407 11.226006191950546  L 9.203539823008896 11.226006191950546  L 8.436578171091469 11.832817337461279  L 6.595870206489735 11.832817337461279  L 5.828908554572308 9.405572755417893  L 5.828908554572308 8.495356037151737  L 5.828908554572308 7.281733746130044  L 3.6814159292034674 6.371517027863774  L 2.6076696165191606 7.281733746130044  L 1.2271386430677467 6.371517027863774  L 0 5.764705882352928  L 1.2271386430677467 5.0061919504644266  L 2.6076696165191606 3.185758513931887  Z " fill-rule="evenodd" />
    </mask>
  </defs>
  <g transform="matrix(1 0 0 1 -1324 -576 )">
    <path d="M 2.6076696165191606 3.185758513931887  L 1.2271386430677467 1.9721362229103079  L 5.215339233038321 1.0619195046439245  L 8.436578171091469 0  L 9.203539823008896 1.0619195046439245  L 12.578171091445483 1.9721362229103079  L 13.80530973451323 1.0619195046439245  L 15.952802359882073 1.9721362229103079  L 17.640117994100365 5.0061919504644266  L 19.17404129793499 7.281733746130044  L 19.78761061946898 9.405572755417893  L 22.08849557522126 13.04643962848297  L 23.469026548672673 15.321981424148587  L 24.082595870206433 17.14241486068113  L 25.616519174041287 18.204334365325053  L 27.917404129793567 17.14241486068113  L 29.7581120943953 18.204334365325053  L 30.98525073746305 18.204334365325053  L 33.13274336283189 19.72136222910217  L 35.74041297935105 19.72136222910217  L 35.74041297935105 21.086687306501517  L 36.967551622418796 22.7554179566564  L 36.967551622418796 24.727554179566486  L 38.34808259587021 25.78947368421052  L 41.26253687315625 24.727554179566486  L 43.7168141592922 24.727554179566486  L 44.4837758112094 22.7554179566564  L 46.93805309734512 21.086687306501517  L 48.62536873156341 19.72136222910217  L 51.38643067846601 19.114551083591323  L 50.619469026548586 21.996904024767787  L 52 22.7554179566564  L 50.619469026548586 24.727554179566486  L 49.85250737463116 26.396284829721367  L 50.619469026548586 28.216718266253906  L 50.619469026548586 30.9473684210526  L 49.85250737463116 34.1331269349846  L 48.62536873156341 36.10526315789468  L 48.62536873156341 37.773993808049454  L 45.250737463126825 37.773993808049454  L 42.643067846607664 39.89783281733742  L 41.26253687315625 39.89783281733742  L 41.87610619469024 41.41486068111453  L 43.7168141592922 43.84210526315792  L 44.4837758112094 48.2414860681115  L 41.87610619469024 48.2414860681115  L 40.34218289085538 45.96594427244577  L 39.26843657817108 46.57275541795673  L 38.34808259587021 45.96594427244577  L 36.967551622418796 46.57275541795673  L 36.353982300885036 48.2414860681115  L 35.12684365781706 49  L 33.13274336283189 46.57275541795673  L 32.5191740412979 44.60061919504642  L 31.752212389380475 44.60061919504642  L 30.98525073746305 46.57275541795673  L 29.7581120943953 46.57275541795673  L 28.684365781710763 44.60061919504642  L 27.917404129793567 44.60061919504642  L 26.690265486725597 43.84210526315792  L 26.690265486725597 42.3250773993808  L 24.082595870206433 42.3250773993808  L 22.54867256637158 42.3250773993808  L 21.321533923303832 41.41486068111453  L 19.78761061946898 41.41486068111453  L 18.56047197640123 41.41486068111453  L 17.640117994100365 41.41486068111453  L 17.026548672566378 42.3250773993808  L 15.185840707964642 40.65634674922603  L 14.418879056047217 37.773993808049454  L 11.811209439528056 38.3808049535603  L 10.584070796460082 36.8637770897833  L 12.578171091445483 36.10526315789468  L 11.811209439528056 34.1331269349846  L 10.584070796460082 35.650154798761605  L 9.203539823008896 34.1331269349846  L 8.436578171091469 32.46439628482972  L 9.203539823008896 30.9473684210526  L 11.811209439528056 28.216718266253906  L 13.80530973451323 25.78947368421052  L 14.418879056047217 27.60990712074306  L 15.185840707964642 27.00309597523221  L 14.418879056047217 24.727554179566486  L 15.185840707964642 22.7554179566564  L 15.952802359882073 21.996904024767787  L 17.026548672566378 21.086687306501517  L 15.952802359882073 19.72136222910217  L 15.952802359882073 18.204334365325053  L 17.026548672566378 16.23219814241486  L 17.026548672566378 15.321981424148587  L 17.640117994100365 14.260061919504665  L 17.640117994100365 13.04643962848297  L 17.640117994100365 11.832817337461279  L 15.952802359882073 10.6191950464397  L 14.418879056047217 9.405572755417893  L 12.578171091445483 10.6191950464397  L 11.19764011799407 11.226006191950546  L 9.203539823008896 11.226006191950546  L 8.436578171091469 11.832817337461279  L 6.595870206489735 11.832817337461279  L 5.828908554572308 9.405572755417893  L 5.828908554572308 8.495356037151737  L 5.828908554572308 7.281733746130044  L 3.6814159292034674 6.371517027863774  L 2.6076696165191606 7.281733746130044  L 1.2271386430677467 6.371517027863774  L 0 5.764705882352928  L 1.2271386430677467 5.0061919504644266  L 2.6076696165191606 3.185758513931887  Z " fill-rule="nonzero" fill="#ffffff" stroke="none" fill-opacity="0" transform="matrix(1 0 0 1 1324 576 )" />
    <path d="M 2.6076696165191606 3.185758513931887  L 1.2271386430677467 1.9721362229103079  L 5.215339233038321 1.0619195046439245  L 8.436578171091469 0  L 9.203539823008896 1.0619195046439245  L 12.578171091445483 1.9721362229103079  L 13.80530973451323 1.0619195046439245  L 15.952802359882073 1.9721362229103079  L 17.640117994100365 5.0061919504644266  L 19.17404129793499 7.281733746130044  L 19.78761061946898 9.405572755417893  L 22.08849557522126 13.04643962848297  L 23.469026548672673 15.321981424148587  L 24.082595870206433 17.14241486068113  L 25.616519174041287 18.204334365325053  L 27.917404129793567 17.14241486068113  L 29.7581120943953 18.204334365325053  L 30.98525073746305 18.204334365325053  L 33.13274336283189 19.72136222910217  L 35.74041297935105 19.72136222910217  L 35.74041297935105 21.086687306501517  L 36.967551622418796 22.7554179566564  L 36.967551622418796 24.727554179566486  L 38.34808259587021 25.78947368421052  L 41.26253687315625 24.727554179566486  L 43.7168141592922 24.727554179566486  L 44.4837758112094 22.7554179566564  L 46.93805309734512 21.086687306501517  L 48.62536873156341 19.72136222910217  L 51.38643067846601 19.114551083591323  L 50.619469026548586 21.996904024767787  L 52 22.7554179566564  L 50.619469026548586 24.727554179566486  L 49.85250737463116 26.396284829721367  L 50.619469026548586 28.216718266253906  L 50.619469026548586 30.9473684210526  L 49.85250737463116 34.1331269349846  L 48.62536873156341 36.10526315789468  L 48.62536873156341 37.773993808049454  L 45.250737463126825 37.773993808049454  L 42.643067846607664 39.89783281733742  L 41.26253687315625 39.89783281733742  L 41.87610619469024 41.41486068111453  L 43.7168141592922 43.84210526315792  L 44.4837758112094 48.2414860681115  L 41.87610619469024 48.2414860681115  L 40.34218289085538 45.96594427244577  L 39.26843657817108 46.57275541795673  L 38.34808259587021 45.96594427244577  L 36.967551622418796 46.57275541795673  L 36.353982300885036 48.2414860681115  L 35.12684365781706 49  L 33.13274336283189 46.57275541795673  L 32.5191740412979 44.60061919504642  L 31.752212389380475 44.60061919504642  L 30.98525073746305 46.57275541795673  L 29.7581120943953 46.57275541795673  L 28.684365781710763 44.60061919504642  L 27.917404129793567 44.60061919504642  L 26.690265486725597 43.84210526315792  L 26.690265486725597 42.3250773993808  L 24.082595870206433 42.3250773993808  L 22.54867256637158 42.3250773993808  L 21.321533923303832 41.41486068111453  L 19.78761061946898 41.41486068111453  L 18.56047197640123 41.41486068111453  L 17.640117994100365 41.41486068111453  L 17.026548672566378 42.3250773993808  L 15.185840707964642 40.65634674922603  L 14.418879056047217 37.773993808049454  L 11.811209439528056 38.3808049535603  L 10.584070796460082 36.8637770897833  L 12.578171091445483 36.10526315789468  L 11.811209439528056 34.1331269349846  L 10.584070796460082 35.650154798761605  L 9.203539823008896 34.1331269349846  L 8.436578171091469 32.46439628482972  L 9.203539823008896 30.9473684210526  L 11.811209439528056 28.216718266253906  L 13.80530973451323 25.78947368421052  L 14.418879056047217 27.60990712074306  L 15.185840707964642 27.00309597523221  L 14.418879056047217 24.727554179566486  L 15.185840707964642 22.7554179566564  L 15.952802359882073 21.996904024767787  L 17.026548672566378 21.086687306501517  L 15.952802359882073 19.72136222910217  L 15.952802359882073 18.204334365325053  L 17.026548672566378 16.23219814241486  L 17.026548672566378 15.321981424148587  L 17.640117994100365 14.260061919504665  L 17.640117994100365 13.04643962848297  L 17.640117994100365 11.832817337461279  L 15.952802359882073 10.6191950464397  L 14.418879056047217 9.405572755417893  L 12.578171091445483 10.6191950464397  L 11.19764011799407 11.226006191950546  L 9.203539823008896 11.226006191950546  L 8.436578171091469 11.832817337461279  L 6.595870206489735 11.832817337461279  L 5.828908554572308 9.405572755417893  L 5.828908554572308 8.495356037151737  L 5.828908554572308 7.281733746130044  L 3.6814159292034674 6.371517027863774  L 2.6076696165191606 7.281733746130044  L 1.2271386430677467 6.371517027863774  L 0 5.764705882352928  L 1.2271386430677467 5.0061919504644266  L 2.6076696165191606 3.185758513931887  Z " stroke-width="2" stroke="#ffa897" fill="none" transform="matrix(1 0 0 1 1324 576 )" mask="url(#clip475)" />
  </g>
</svg>