<?xml version="1.0" encoding="utf-8"?>
<svg version="1.1" xmlns:xlink="http://www.w3.org/1999/xlink" width="14px" height="11px" xmlns="http://www.w3.org/2000/svg">
  <g transform="matrix(1 0 0 1 -483 -636 )">
    <path d="M 4.01632 10.499519999999997  L 0.17964799999999978 6.3945599999999985  C 0.00582400000000168 6.208319999999998  -0.02284800000000047 5.918399999999999  0.13126400000000113 5.711039999999997  L 0.48966400000000143 5.227199999999996  C 0.6366079999999992 5.029440000000001  0.9107840000000014 4.979519999999997  1.1061120000000013 5.117759999999997  L 4.209856000000002 7.337279999999999  C 4.372928000000002 7.4544  4.656064000000001 7.439039999999998  4.808384 7.3065599999999975  L 13.008575999999998 0.17760000000000176  C 13.193152 0.0182399999999987  13.481663999999999 0.031680000000001485  13.642944000000002 0.20448000000000022  L 13.845440000000002 0.4214400000000005  C 14.021056 0.6096000000000004  14.008511999999996 0.9071999999999997  13.823936000000002 1.104960000000002  L 5.021632000000001 10.52064  C 4.747455999999999 10.8144  4.297663999999999 10.800959999999996  4.01632 10.499519999999997  Z " fill-rule="nonzero" fill="#ffffff" stroke="none" transform="matrix(1 0 0 1 483 636 )" />
  </g>
</svg>