<?xml version="1.0" encoding="utf-8"?>
<svg version="1.1" xmlns:xlink="http://www.w3.org/1999/xlink" width="14px" height="12px" xmlns="http://www.w3.org/2000/svg">
  <defs>
    <mask fill="white" id="clip786">
      <path d="M 13.987228070175433 0.8774400000000051  L 10.489684210526335 0.8774400000000051  L 10.489684210526335 0.024960000000005172  L 9.617263157894726 0.024960000000005172  L 9.617263157894726 0.8774400000000051  L 4.382736842105249 0.8774400000000051  L 4.382736842105249 0.024960000000005172  L 3.5103157894736903 0.024960000000005172  L 3.5103157894736903 0.8774400000000051  L 0.012771929824566541 0.8774400000000051  L 0.012771929824566541 11.967359999999992  L 13.987228070175433 11.967359999999992  L 13.987228070175433 0.8774400000000051  Z M 13.114807017543875 5.147519999999994  L 13.114807017543875 11.207039999999994  L 0.8851929824561253 11.207039999999994  L 0.8851929824561253 5.147519999999994  L 13.114807017543875 5.147519999999994  Z M 13.10694736842106 4.295040000000013  L 13.114807017543875 4.295040000000013  L 0.8851929824561253 4.295040000000013  L 0.8851929824561253 1.645440000000006  L 3.502456140350864 1.645440000000006  L 3.502456140350864 2.5823999999999865  L 4.37487719298246 2.5823999999999865  L 4.37487719298246 1.645440000000006  L 9.617263157894726 1.645440000000006  L 9.617263157894726 2.5823999999999865  L 10.489684210526335 2.5823999999999865  L 10.489684210526335 1.645440000000006  L 13.10694736842106 1.645440000000006  L 13.10694736842106 4.295040000000013  Z " fill-rule="evenodd" />
    </mask>
  </defs>
  <g transform="matrix(1 0 0 1 -112 -67 )">
    <path d="M 13.987228070175433 0.8774400000000051  L 10.489684210526335 0.8774400000000051  L 10.489684210526335 0.024960000000005172  L 9.617263157894726 0.024960000000005172  L 9.617263157894726 0.8774400000000051  L 4.382736842105249 0.8774400000000051  L 4.382736842105249 0.024960000000005172  L 3.5103157894736903 0.024960000000005172  L 3.5103157894736903 0.8774400000000051  L 0.012771929824566541 0.8774400000000051  L 0.012771929824566541 11.967359999999992  L 13.987228070175433 11.967359999999992  L 13.987228070175433 0.8774400000000051  Z M 13.114807017543875 5.147519999999994  L 13.114807017543875 11.207039999999994  L 0.8851929824561253 11.207039999999994  L 0.8851929824561253 5.147519999999994  L 13.114807017543875 5.147519999999994  Z M 13.10694736842106 4.295040000000013  L 13.114807017543875 4.295040000000013  L 0.8851929824561253 4.295040000000013  L 0.8851929824561253 1.645440000000006  L 3.502456140350864 1.645440000000006  L 3.502456140350864 2.5823999999999865  L 4.37487719298246 2.5823999999999865  L 4.37487719298246 1.645440000000006  L 9.617263157894726 1.645440000000006  L 9.617263157894726 2.5823999999999865  L 10.489684210526335 2.5823999999999865  L 10.489684210526335 1.645440000000006  L 13.10694736842106 1.645440000000006  L 13.10694736842106 4.295040000000013  Z " fill-rule="nonzero" fill="#d7d7d7" stroke="none" transform="matrix(1 0 0 1 112 67 )" />
    <path d="M 13.987228070175433 0.8774400000000051  L 10.489684210526335 0.8774400000000051  L 10.489684210526335 0.024960000000005172  L 9.617263157894726 0.024960000000005172  L 9.617263157894726 0.8774400000000051  L 4.382736842105249 0.8774400000000051  L 4.382736842105249 0.024960000000005172  L 3.5103157894736903 0.024960000000005172  L 3.5103157894736903 0.8774400000000051  L 0.012771929824566541 0.8774400000000051  L 0.012771929824566541 11.967359999999992  L 13.987228070175433 11.967359999999992  L 13.987228070175433 0.8774400000000051  Z " stroke-width="2" stroke="#f0f6ff" fill="none" transform="matrix(1 0 0 1 112 67 )" mask="url(#clip786)" />
    <path d="M 13.114807017543875 5.147519999999994  L 13.114807017543875 11.207039999999994  L 0.8851929824561253 11.207039999999994  L 0.8851929824561253 5.147519999999994  L 13.114807017543875 5.147519999999994  Z " stroke-width="2" stroke="#f0f6ff" fill="none" transform="matrix(1 0 0 1 112 67 )" mask="url(#clip786)" />
    <path d="M 13.10694736842106 4.295040000000013  L 13.114807017543875 4.295040000000013  L 0.8851929824561253 4.295040000000013  L 0.8851929824561253 1.645440000000006  L 3.502456140350864 1.645440000000006  L 3.502456140350864 2.5823999999999865  L 4.37487719298246 2.5823999999999865  L 4.37487719298246 1.645440000000006  L 9.617263157894726 1.645440000000006  L 9.617263157894726 2.5823999999999865  L 10.489684210526335 2.5823999999999865  L 10.489684210526335 1.645440000000006  L 13.10694736842106 1.645440000000006  L 13.10694736842106 4.295040000000013  Z " stroke-width="2" stroke="#f0f6ff" fill="none" transform="matrix(1 0 0 1 112 67 )" mask="url(#clip786)" />
  </g>
</svg>