<?xml version="1.0" encoding="utf-8"?>
<svg version="1.1" xmlns:xlink="http://www.w3.org/1999/xlink" width="21px" height="26px" xmlns="http://www.w3.org/2000/svg">
  <g transform="matrix(1 0 0 1 -378 -149 )">
    <path d="M 21 26  L 0 26  L 0 0  L 11.307692307692262 0  L 11.307692307692262 9.75  L 21 9.75  L 21 26  Z M 2.4230769230769056 17.0625  L 2.4230769230769056 19.5  C 2.4230769230769056 19.948731359237513  2.7846930866751336 20.3125  3.2307692307692832 20.3125  L 5.653846153846189 20.3125  C 6.099922297940225 20.3125  6.461538461538453 19.948731359237513  6.461538461538453 19.5  L 6.461538461538453 17.0625  C 6.461538461538453 16.613768640762487  6.099922297940225 16.25  5.653846153846189 16.25  L 3.2307692307692832 16.25  C 2.7846930866751336 16.25  2.4230769230769056 16.613768640762487  2.4230769230769056 17.0625  Z M 6.461538461538453 11.375  L 6.461538461538453 8.9375  C 6.461538461538453 8.488768640762487  6.099922297940225 8.125  5.653846153846189 8.125  L 3.2307692307692832 8.125  C 2.7846930866751336 8.125  2.4230769230769056 8.488768640762487  2.4230769230769056 8.9375  L 2.4230769230769056 11.375  C 2.4230769230769056 11.823731359237513  2.7846930866751336 12.1875  3.2307692307692832 12.1875  L 5.653846153846189 12.1875  C 6.099922297940225 12.1875  6.461538461538453 11.823731359237513  6.461538461538453 11.375  Z M 9.692307692307736 15.4375  L 9.692307692307736 13  C 9.692307692307736 12.551268640762487  9.330691528709508 12.1875  8.884615384615358 12.1875  L 6.461538461538453 12.1875  C 6.015462317444303 12.1875  5.653846153846189 12.551268640762487  5.653846153846189 13  L 5.653846153846189 15.4375  C 5.653846153846189 15.886231359237513  6.015462317444303 16.25  6.461538461538453 16.25  L 8.884615384615358 16.25  C 9.330691528709508 16.25  9.692307692307736 15.886231359237513  9.692307692307736 15.4375  Z M 9.692307692307736 23.5625  L 9.692307692307736 21.125  C 9.692307692307736 20.676268640762487  9.330691528709508 20.3125  8.884615384615358 20.3125  L 6.461538461538453 20.3125  C 6.015462317444303 20.3125  5.653846153846189 20.676268640762487  5.653846153846189 21.125  L 5.653846153846189 23.5625  C 5.653846153846189 24.011231359237513  6.015462317444303 24.375  6.461538461538453 24.375  L 8.884615384615358 24.375  C 9.330691528709508 24.375  9.692307692307736 24.011231359237513  9.692307692307736 23.5625  Z " fill-rule="nonzero" fill="#3cc451" stroke="none" transform="matrix(1 0 0 1 378 149 )" />
  </g>
</svg>