<?xml version="1.0" encoding="utf-8"?>
<svg version="1.1" xmlns:xlink="http://www.w3.org/1999/xlink" width="13px" height="14px" xmlns="http://www.w3.org/2000/svg">
  <g transform="matrix(1 0 0 1 -291 -155 )">
    <path d="M 9.807590196969727 3.523530524647868  C 9.807590196969727 5.3942535352113055  8.297864373106108 6.894798133802851  6.414759024621162 6.894798133802851  C 4.5316536761363295 6.894798133802851  3.021327562500005 5.3942535352113055  3.021327562500005 3.523530524647868  C 3.021327562500005 1.6522065739436584  4.5316536761363295 0.17089203521129548  6.414759024621162 0.17089201056342063  C 8.297864373106108 0.17089201056342063  9.808190486742433 1.6522065739436584  9.808190486742433 3.523530524647868  Z M 11.84436940719695 13.811605623239416  L 0.8152669564393591 13.811605623239416  C 0.3302337556817747 13.811605623239416  0.11232901136361306 13.45104225352111  0.11232901136361306 12.970892017605593  C 0.11232901136361306 10.112826278168995  2.2211428712121233 7.85569952112678  5.032894651515107 7.85569952112678  L 7.626141422348496 7.85569952112678  C 10.437893227272752 7.85569952112678  12.885870143939428 10.13686383450704  12.885870119318156 12.994929573943637  L 12.885870119318156 12.946854461267549  C 12.909881660984865 13.42760563732395  12.328202003787851 13.787568066901372  11.843769117424245 13.811605623239416  Z " fill-rule="nonzero" fill="#ffffff" stroke="none" transform="matrix(1 0 0 1 291 155 )" />
  </g>
</svg>