<?xml version="1.0" encoding="utf-8"?>
<svg version="1.1" xmlns:xlink="http://www.w3.org/1999/xlink" width="28px" height="16px" xmlns="http://www.w3.org/2000/svg">
  <g transform="matrix(1 0 0 1 -193 -149 )">
    <path d="M 0.6903669724770225 15.755555555555588  L 6.945412844036696 9.574603174603226  L 12.885779816513718 3.701587301587324  C 13.174770642201793 3.4158730158729895  13.556880733944922 3.273015873015879  13.935779816513786 3.273015873015879  C 14.317889908256914 3.273015873015879  14.696788990825667 3.4158730158729895  14.985779816513741 3.701587301587324  L 20.94862385321096 9.596825396825352  L 27.181192660550437 15.758730158730145  C 27.242201834862385 15.819047619047637  27.34495412844035 15.799999999999955  27.380275229357835 15.723809523809564  C 27.633944954128424 15.155555555555566  27.768807339449495 14.536507936507974  27.768807339449495 13.898412698412699  C 27.768807339449495 12.688888888888869  27.293577981651424 11.555555555555543  26.429816513761466 10.701587301587324  L 17.16926605504591 1.5428571428570876  C 15.383944954128424 -0.21904761904761472  12.48440366972477 -0.21904761904761472  10.699082568807398 1.5428571428570876  L 1.441743119266107 10.698412698412653  C 0.5779816513761489 11.552380952380986  0.10275229357796434 12.685714285714312  0.10275229357796434 13.895238095238142  C 0.10275229357796434 14.533333333333303  0.23761467889903543 15.155555555555566  0.4912844036697379 15.720634920634893  C 0.5266055045871099 15.796825396825398  0.6293577981651879 15.815873015872967  0.6903669724770225 15.755555555555588  Z " fill-rule="nonzero" fill="#2867ce" stroke="none" transform="matrix(1 0 0 1 193 149 )" />
  </g>
</svg>