<?xml version="1.0" encoding="utf-8"?>
<svg version="1.1" xmlns:xlink="http://www.w3.org/1999/xlink" width="16px" height="13px" xmlns="http://www.w3.org/2000/svg">
  <g transform="matrix(1 0 0 1 -472 -154 )">
    <path d="M 15.859199999999987 11.70399999999995  C 15.859199999999987 11.088975702588414  15.360624297411618 10.590400000000045  14.745599999999968 10.590400000000045  C 14.13057570258843 10.590400000000045  13.631999999999948 11.088975702588414  13.631999999999948 11.70399999999995  C 13.631999999999948 12.319024297411602  14.13057570258843 12.81759999999997  14.745599999999968 12.81759999999997  C 15.360624297411618 12.81759999999997  15.859199999999987 12.319024297411602  15.859199999999987 11.70399999999995  Z M 8 2.3600000000000136  L 8 2.385599999999954  C 8.625628164608315 2.385599999999954  9.132799999999975 1.8784281646082945  9.132799999999975 1.2527999999999793  C 9.132799999999975 0.627171835391664  8.625628164608315 0.12000000000000455  8 0.12000000000000455  C 7.4275900817688125 0.1812805507477151  6.993503961569218 0.6643191679503389  6.993503961569218 1.240000000000009  C 6.993503961569218 1.8156808320496793  7.4275900817688125 2.298719449252303  8 2.3600000000000136  Z M 1.2544000024298612 10.590326434323742  C 1.2501332292524694 10.590326434323742  1.2458664913095845 10.590350956620796  1.2415999999999485 10.590400000000045  C 0.6316088946398395 10.59741185655787  0.14080000242995538 11.093895029598684  0.14080000242995538 11.703926434323762  C 0.14080000242995538 12.318950731735299  0.639375705018324 12.817526434323781  1.2544000024298612 12.817526434323781  C 1.869395570854408 12.817526434323781  2.3679593726967596 12.318995567082538  2.368000000000052 11.70399999999995  C 2.3680000024298806 11.088902136912225  1.869424299841512 10.590326434323742  1.2544000024298612 10.590326434323742  Z " fill-rule="nonzero" fill="#27a3ff" stroke="none" transform="matrix(1 0 0 1 472 154 )" />
  </g>
</svg>