<?xml version="1.0" encoding="utf-8"?>
<svg version="1.1" xmlns:xlink="http://www.w3.org/1999/xlink" width="26px" height="26px" xmlns="http://www.w3.org/2000/svg">
  <g transform="matrix(1 0 0 1 -467 -149 )">
    <path d="M 26 2.6000000000000227  C 26 1.164059650439981  24.83594034956002 0  23.399999999999977 0  L 2.6000000000000227 0  C 1.164059650439981 0  0 1.164059650439981  0 2.6000000000000227  L 0 23.399999999999977  C 0 24.83594034956002  1.164059650439981 26  2.6000000000000227 26  L 23.399999999999977 26  C 24.83594034956002 26  26 24.83594034956002  26 23.399999999999977  L 26 2.6000000000000227  Z M 15.937999999999988 7.357999999999947  L 16.418999999999983 6.331000000000017  C 19.29588279130644 7.670025372417853  21.136233121144414 10.554761839849789  21.138000000000034 13.727999999999952  L 19.994000000000028 13.727999999999952  C 19.986888199305213 10.999180965549044  18.407590378710893 8.518873490897704  15.937999999999988 7.357999999999947  Z M 12.986999999696764 4.08196285683789  C 12.991333359662121 4.08196285683789  12.995666710783894 4.081975237942515  13 4.081999999999994  C 14.263613084584449 4.08202039681089  15.287963067885471 5.10638691495285  15.287963067885471 6.369999999701918  C 15.287963067885471 7.633627507314827  14.263590575498258 8.657999999701929  12.99996306788546 8.657999999701929  C 11.73633556027255 8.657999999701929  10.71196306788545 7.633627507314827  10.71196306788545 6.369999999701918  C 10.71196306788545 6.365666640237464  10.711975378639977 6.361333289516892  10.711999999999989 6.356999999999971  C 10.711999999696786 5.100515050972831  11.730552193831727 4.08196285683789  12.986999999696764 4.08196285683789  Z M 4.809999999999945 13.727999999999952  C 4.811766878855565 10.554761839849789  6.652117208693539 7.670025372417853  9.528999999999996 6.331000000000017  L 10.009999999999991 7.357999999999947  C 7.540409621289086 8.518873490897704  5.961111800694766 10.999180965549044  5.953999999999951 13.727999999999952  L 4.809999999999945 13.727999999999952  Z M 8.410999999999945 16.965000000000032  C 8.410999999999945 18.22144780586507  7.392447805865004 19.24000000000001  6.135999999999967 19.24000000000001  C 4.879552194134931 19.24000000000001  3.8609999999999896 18.22144780586507  3.8609999999999896 16.965000000000032  C 3.8609999999999896 15.708552194134995  4.879552194134931 14.690000000000053  6.135999999999967 14.690000000000053  C 7.392447805865004 14.690000000000053  8.410999999999945 15.708552194134995  8.410999999999945 16.965000000000032  Z M 13 21.892000000000053  L 12.974000000000046 21.840000000000032  C 11.078466377727409 21.836730908444565  9.241991491200906 21.180191136511326  7.774000000000001 19.980999999999995  L 8.501999999999953 19.09699999999998  C 11.105854766112998 21.2460223352233  14.868145233887049 21.2460223352233  17.47199999999998 19.09699999999998  L 18.200000000000045 19.980999999999995  C 16.740728129044896 21.20175352401418  14.902497717169354 21.877303200378492  13 21.892000000000053  Z M 22.100000000000023 16.965000000000032  C 22.100081397815643 18.21136381410122  21.097282418943564 19.225755844752143  19.851 19.24000000000001  C 19.84233368871128 19.24009905000787  19.833666882158695 19.240148576224783  19.82500000485163 19.240148576224783  C 18.568552198986595 19.240148576224783  17.550000004851654 18.221596382089842  17.550000004851654 16.965148576224692  C 17.550000004851654 15.708700770359656  18.568552198986595 14.690148576224715  19.82500000485163 14.690148576224715  C 21.081389788484103 14.690148576224715  22.099917947406198 15.708610219046932  22.100000000000023 16.965000000000032  Z " fill-rule="nonzero" fill="#27a3ff" stroke="none" transform="matrix(1 0 0 1 467 149 )" />
  </g>
</svg>