<?xml version="1.0" encoding="utf-8"?>
<svg version="1.1" xmlns:xlink="http://www.w3.org/1999/xlink" width="21px" height="21px" xmlns="http://www.w3.org/2000/svg">
  <g transform="matrix(1 0 0 1 -197 -154 )">
    <path d="M 10.043055555555611 0.31310240963853175  L 0.3111111111111313 9.810542168674715  C 0.1361111111110631 9.981325301204834  0.038888888888891415 10.212198795180711  0.038888888888891415 10.452560240963862  L 0.038888888888891415 17.748795180722936  C 0.038888888888891415 19.46611445783128  1.4648148148147582 20.857680722891587  3.2245370370370665 20.857680722891587  L 6.572222222222195 20.857680722891587  C 6.9092592592592155 20.857680722891587  7.184722222222263 20.592018072289193  7.184722222222263 20.259939759036115  L 7.184722222222263 12.166716867469859  C 7.184722222222263 11.806174698795187  7.6416666666666515 11.644879518072342  7.968981481481478 11.644879518072342  L 12.904629629629653 11.644879518072342  C 13.280555555555566 11.644879518072342  13.688888888888869 11.844126506024054  13.688888888888869 12.166716867469859  L 13.688888888888869 20.259939759036115  C 13.688888888888869 20.58885542168673  13.96111111111111 20.857680722891587  14.301388888888937 20.857680722891587  L 17.649074074074065 20.857680722891587  C 19.40879629629626 20.857680722891587  20.83472222222224 19.462951807228933  20.83472222222224 17.748795180722936  L 20.83472222222224 10.452560240963862  C 20.83472222222224 10.212198795180711  20.737499999999955 9.981325301204834  20.5625 9.810542168674715  L 10.82407407407402 0.31310240963853175  C 10.60694444444448 0.10120481927708624  10.26018518518515 0.10120481927708624  10.043055555555611 0.31310240963853175  Z " fill-rule="nonzero" fill="#bdd2ef" stroke="none" transform="matrix(1 0 0 1 197 154 )" />
  </g>
</svg>