<svg t="1751266128492" class="icon" viewBox="0 0 1024 1024" version="1.1" xmlns="http://www.w3.org/2000/svg" p-id="28816" width="64" height="64"><path d="M593.528662 137.809529a21.58879 21.58879 0 0 1 15.36 6.437503c4.082955 4.141656 6.359236 9.718217 6.359236 15.575236V864.203822a22.149707 22.149707 0 0 1-6.359236 15.568713c-4.056866 4.115567-9.587771 6.437503-15.366522 6.444026-1.943643 0.319592-3.92642 0.319592-5.870064 0l-199.373452-194.820892-5.406981-5.478726-6.750573-4.852586a107.683057 107.683057 0 0 0-55.21121-14.96214H223.936408a21.882293 21.882293 0 0 1-21.719236-22.032306V379.956178c0-12.14451 9.705172-22.012739 21.719236-22.012739h96.973452a107.683057 107.683057 0 0 0 55.21121-14.93605l6.750573-3.991644 5.43307-5.485248 199.125605-195.694879c2.021911-0.352204 4.096-0.352204 6.117911 0l-0.026089-0.026089z m0-66.038217c-15.346955 0.065223-30.374318 4.32428-43.477605 12.314089l-206.541452 201.864968a43.484127 43.484127 0 0 1-21.745325 6.17009h-97.834395C175.919287 292.120459 136.968153 331.54772 136.968153 380.151847v263.937631a88.572739 88.572739 0 0 0 25.489121 62.248764 86.41386 86.41386 0 0 0 61.479134 25.782624h96.973452a43.17758 43.17758 0 0 1 21.745325 6.170089l207.395872 201.649733A84.359338 84.359338 0 0 0 593.528662 952.254777c48.023643 0 86.968255-39.420739 86.968255-88.050955V159.822268C680.470828 111.165962 641.545783 71.745223 593.528662 71.745223v0.026089z m293.477096 396.216255h-108.68749a32.768 32.768 0 0 0-23.147618 9.744306 32.833223 32.833223 0 0 0-9.457325 23.284586 32.833223 32.833223 0 0 0 9.463847 23.271541 32.768 32.768 0 0 0 23.141096 9.737783h108.68749a32.768 32.768 0 0 0 23.15414-9.731261A32.833223 32.833223 0 0 0 919.643312 501.016459a32.833223 32.833223 0 0 0-9.470369-23.291109 32.768 32.768 0 0 0-23.167185-9.737783z m-7.383236-247.612331a32.62451 32.62451 0 0 0-16.077452 4.40907L769.19358 279.806369c-12.848917 7.494115-19.084229 22.775847-15.21651 37.268383 3.887287 14.472968 16.931873 24.484688 31.730955 24.367286a32.715822 32.715822 0 0 0 16.09702-4.40907l94.35149-55.022064c12.848917-7.494115 19.084229-22.775847 15.196943-37.268382-3.86772-14.472968-16.905783-24.484688-31.730956-24.367286z m-93.921019 440.241732a32.663643 32.663643 0 0 0-31.724433 24.367287 33.198471 33.198471 0 0 0 15.21651 37.268382l94.35149 55.022064c4.89172 2.837197 10.429146 4.356892 16.077452 4.40907a32.663643 32.663643 0 0 0 31.724433-24.367287 33.198471 33.198471 0 0 0-15.19042-37.268382l-94.35149-53.919796a32.735389 32.735389 0 0 0-16.09702-4.40907v-1.102268z" fill="#515151" p-id="28817"></path></svg>