<?xml version="1.0" encoding="utf-8"?>
<svg version="1.1" xmlns:xlink="http://www.w3.org/1999/xlink" width="19px" height="20px" xmlns="http://www.w3.org/2000/svg">
  <defs>
    <pattern id="BGPattern" patternUnits="userSpaceOnUse" alignment="0 0" imageRepeat="None" />
    <mask fill="white" id="Clip1094">
      <path d="M 1.9519531249999997 4.0735294117647065  C 1.9320421674238397 4.46805685081273  1.6010421164580457 4.77650186044888  1.2023437500000003 4.772058823529411  C 0.8065102992273088 4.772549311537191  0.47994762840626515 4.465196209587974  0.4601562500000002 4.0735294117647065  L 0.4601562500000007 2.2720588235294117  C 0.48845845920598857 1.3223051379738902  1.282475875080455 0.5717169512442594  2.24140625 0.5882352941176471  L 16.602734375 0.5882352941176471  C 16.62269953443061 0.5875553871683483  16.64267501119211 0.5872153584291037  16.662651962230896 0.5872153584291037  C 17.608967532723042 0.5872153584291037  18.382647324239027 1.3348242181429615  18.40625 2.2720588235294117  L 18.40625 17.286764705882355  C 18.38264732423902 18.223999311268805  17.608967532723035 18.97160817098266  16.662651962230896 18.97160817098266  C 16.64267501119212 18.97160817098266  16.622699534430595 18.971268142243417  16.602734375 19  L 2.24140625 19  C 1.2767431669147387 18.99530510917646  0.47361239306263264 18.242376430366207  0.4453125 17.286764705882355  L 0.4453125 15.485294117647062  C 0.4453125 15.0792023898303  0.7776011622349581 14.75  1.1875 14.75  C 1.5973988377650419 14.75  1.9296875 15.0792023898303  1.9296875 15.485294117647062  L 1.929687499999999 17.286764705882355  C 1.937684655712038 17.438196364193278  2.0661388873438686 17.555668202599144  2.219140624999999 17.551470588235293  L 16.602734375 17.551470588235293  C 16.607707561935513 17.551738917514154  16.61268719692067 17.551873156641747  16.61766775364024 17.551873156641747  C 16.766597483017314 17.551873156641747  16.888382745122797 17.434263029901352  16.892187500000002 17.286764705882355  L 16.892187500000002 2.2720588235294117  C 16.888382745122797 2.1245604995104066  16.766597483017314 2.0069503727700178  16.61766775364024 2.0069503727700178  C 16.612687196920685 2.0069503727700178  16.607707561935495 2.007084611897611  16.602734375 2  L 2.241406249999999 2  C 2.0884045123438684 2.0031553268126205  1.959950280712038 2.1206271652184867  1.9519531249999997 2.2720588235294117  L 1.9519531249999997 4.0735294117647065  Z " fill-rule="evenodd" />
    </mask>
  </defs>
  <g transform="matrix(1 0 0 1 -171 -76 )">
    <path d="M 1.9519531249999997 4.0735294117647065  C 1.9320421674238397 4.46805685081273  1.6010421164580457 4.77650186044888  1.2023437500000003 4.772058823529411  C 0.8065102992273088 4.772549311537191  0.47994762840626515 4.465196209587974  0.4601562500000002 4.0735294117647065  L 0.4601562500000007 2.2720588235294117  C 0.48845845920598857 1.3223051379738902  1.282475875080455 0.5717169512442594  2.24140625 0.5882352941176471  L 16.602734375 0.5882352941176471  C 16.62269953443061 0.5875553871683483  16.64267501119211 0.5872153584291037  16.662651962230896 0.5872153584291037  C 17.608967532723042 0.5872153584291037  18.382647324239027 1.3348242181429615  18.40625 2.2720588235294117  L 18.40625 17.286764705882355  C 18.38264732423902 18.223999311268805  17.608967532723035 18.97160817098266  16.662651962230896 18.97160817098266  C 16.64267501119212 18.97160817098266  16.622699534430595 18.971268142243417  16.602734375 19  L 2.24140625 19  C 1.2767431669147387 18.99530510917646  0.47361239306263264 18.242376430366207  0.4453125 17.286764705882355  L 0.4453125 15.485294117647062  C 0.4453125 15.0792023898303  0.7776011622349581 14.75  1.1875 14.75  C 1.5973988377650419 14.75  1.9296875 15.0792023898303  1.9296875 15.485294117647062  L 1.929687499999999 17.286764705882355  C 1.937684655712038 17.438196364193278  2.0661388873438686 17.555668202599144  2.219140624999999 17.551470588235293  L 16.602734375 17.551470588235293  C 16.607707561935513 17.551738917514154  16.61268719692067 17.551873156641747  16.61766775364024 17.551873156641747  C 16.766597483017314 17.551873156641747  16.888382745122797 17.434263029901352  16.892187500000002 17.286764705882355  L 16.892187500000002 2.2720588235294117  C 16.888382745122797 2.1245604995104066  16.766597483017314 2.0069503727700178  16.61766775364024 2.0069503727700178  C 16.612687196920685 2.0069503727700178  16.607707561935495 2.007084611897611  16.602734375 2  L 2.241406249999999 2  C 2.0884045123438684 2.0031553268126205  1.959950280712038 2.1206271652184867  1.9519531249999997 2.2720588235294117  L 1.9519531249999997 4.0735294117647065  Z " fill-rule="nonzero" fill="rgba(255, 255, 255, 1)" stroke="none" transform="matrix(1 0 0 1 171 76 )" class="fill" />
    <path d="M 1.9519531249999997 4.0735294117647065  C 1.9320421674238397 4.46805685081273  1.6010421164580457 4.77650186044888  1.2023437500000003 4.772058823529411  C 0.8065102992273088 4.772549311537191  0.47994762840626515 4.465196209587974  0.4601562500000002 4.0735294117647065  L 0.4601562500000007 2.2720588235294117  C 0.48845845920598857 1.3223051379738902  1.282475875080455 0.5717169512442594  2.24140625 0.5882352941176471  L 16.602734375 0.5882352941176471  C 16.62269953443061 0.5875553871683483  16.64267501119211 0.5872153584291037  16.662651962230896 0.5872153584291037  C 17.608967532723042 0.5872153584291037  18.382647324239027 1.3348242181429615  18.40625 2.2720588235294117  L 18.40625 17.286764705882355  C 18.38264732423902 18.223999311268805  17.608967532723035 18.97160817098266  16.662651962230896 18.97160817098266  C 16.64267501119212 18.97160817098266  16.622699534430595 18.971268142243417  16.602734375 19  L 2.24140625 19  C 1.2767431669147387 18.99530510917646  0.47361239306263264 18.242376430366207  0.4453125 17.286764705882355  L 0.4453125 15.485294117647062  C 0.4453125 15.0792023898303  0.7776011622349581 14.75  1.1875 14.75  C 1.5973988377650419 14.75  1.9296875 15.0792023898303  1.9296875 15.485294117647062  L 1.929687499999999 17.286764705882355  C 1.937684655712038 17.438196364193278  2.0661388873438686 17.555668202599144  2.219140624999999 17.551470588235293  L 16.602734375 17.551470588235293  C 16.607707561935513 17.551738917514154  16.61268719692067 17.551873156641747  16.61766775364024 17.551873156641747  C 16.766597483017314 17.551873156641747  16.888382745122797 17.434263029901352  16.892187500000002 17.286764705882355  L 16.892187500000002 2.2720588235294117  C 16.888382745122797 2.1245604995104066  16.766597483017314 2.0069503727700178  16.61766775364024 2.0069503727700178  C 16.612687196920685 2.0069503727700178  16.607707561935495 2.007084611897611  16.602734375 2  L 2.241406249999999 2  C 2.0884045123438684 2.0031553268126205  1.959950280712038 2.1206271652184867  1.9519531249999997 2.2720588235294117  L 1.9519531249999997 4.0735294117647065  Z " stroke-width="0" stroke-dasharray="0" stroke="rgba(255, 255, 255, 0)" fill="none" transform="matrix(1 0 0 1 171 76 )" class="stroke" mask="url(#Clip1094)" />
  </g>
</svg>