<?xml version="1.0" encoding="utf-8"?>
<svg version="1.1" xmlns:xlink="http://www.w3.org/1999/xlink" width="5px" height="8px" xmlns="http://www.w3.org/2000/svg">
  <defs>
    <pattern id="BGPattern" patternUnits="userSpaceOnUse" alignment="0 0" imageRepeat="None" />
    <mask fill="white" id="Clip1095">
      <path d="M 1.7356655033159436 0.2885765992391051  C 1.7613482791889878 0.2885765992391051  1.78700723738535 0.2900060911274238  1.8125000000000002 0.2928571428571424  L 3.2343750000000004 0.2928571428571424  C 3.2624805719989474 0.289382500442117  3.290809840894739 0.28763928376292924  3.319171190344564 0.28763928376292924  C 3.6686638835968632 0.28763928376292924  3.951983690344565 0.5466745356465411  3.951983690344565 0.8662107123343584  C 3.951983690344565 0.8942513768134442  3.949754084020692 0.9222549437937074  3.9453125 0.9499999999999998  C 3.9497540840206913 0.9777450562062862  3.951983690344565 1.0057486231865604  3.951983690344565 1.0337892876656423  C 3.951983690344565 1.3533254643534585  3.6686638835968637 1.6123607162370714  3.319171190344564 1.6123607162370714  C 3.2908098408947417 1.6123607162370714  3.2624805719989443 1.6106174995578815  3.2343750000000004 1.6071428571428572  L 1.8124999999999996 1.6071428571428572  C 1.787007237385344 1.6099939088725779  1.761348279188994 1.6114234007608945  1.7356655033159436 1.6114234007608945  C 1.3861728100636443 1.6114234007608945  1.1028530033159434 1.3523881488772815  1.1028530033159434 1.0328519721894662  C 1.1028530033159434 1.0051274498489562  1.1050326181966748 0.9774387832902036  1.109375 0.9499999999999998  C 1.1050326181966743 0.922561216709794  1.1028530033159434 0.8948725501510444  1.1028530033159434 0.8671480278105334  C 1.1028530033159434 0.547611851122717  1.3861728100636443 0.2885765992391051  1.7356655033159436 0.2885765992391051  Z M 1.7356655033159423 5.960005170667673  C 1.761348279188999 5.960005170667673  1.7870072373853374 5.961434662555994  1.8125000000000002 5.964285714285714  L 3.2343750000000004 5.964285714285714  C 3.2624805719989416 5.9608110718706895  3.2908098408947453 5.9590678551915  3.319171190344565 5.9590678551915  C 3.6686638835968637 5.9590678551915  3.951983690344565 6.218103107075113  3.951983690344565 6.537639283762928  C 3.951983690344565 6.565679948242011  3.9497540840206913 6.593683515222286  3.9453125 6.621428571428573  C 3.9497540840206913 6.649173627634864  3.951983690344565 6.677177194615132  3.951983690344565 6.705217859094219  C 3.951983690344565 7.024754035782034  3.6686638835968637 7.283789287665647  3.319171190344565 7.283789287665647  C 3.290809840894744 7.283789287665647  3.2624805719989425 7.282046070986458  3.2343750000000004 7.278571428571431  L 1.8124999999999996 7.278571428571431  C 1.7870072373853425 7.281422480301154  1.7613482791889945 7.28285197218947  1.7356655033159423 7.28285197218947  C 1.386172810063644 7.28285197218947  1.1028530033159425 7.0238167203058595  1.1028530033159425 6.704280543618042  C 1.1028530033159425 6.67655602127753  1.1050326181966743 6.648867354718781  1.109375 6.621428571428573  C 1.105032618196674 6.5939897881383684  1.1028530033159425 6.566301121579618  1.1028530033159425 6.538576599239103  C 1.1028530033159425 6.219040422551286  1.386172810063644 5.960005170667673  1.7356655033159423 5.960005170667673  Z M 1.7197247739179926 3.1223197932964513  C 1.7507757240880446 3.1223197932964513  1.78178456452324 3.1244093162099205  1.8125000000000002 3.1285714285714294  L 3.2343750000000004 3.1285714285714294  C 3.2624805719989416 3.125096786156405  3.2908098408947453 3.123353569477213  3.319171190344565 3.123353569477213  C 3.6686638835968637 3.123353569477213  3.951983690344565 3.382388821360826  3.951983690344565 3.7019249980486433  C 3.951983690344565 3.729965662527726  3.9497540840206913 3.7579692295079985  3.9453125 3.7857142857142856  C 3.9497540840206913 3.813459341920577  3.951983690344565 3.841462908900845  3.951983690344565 3.8695035733799323  C 3.951983690344565 4.189039750067748  3.6686638835968637 4.448075001951358  3.319171190344565 4.448075001951358  C 3.290809840894744 4.448075001951358  3.2624805719989425 4.446331785272171  3.2343750000000004 4.442857142857144  L 1.8124999999999996 4.442857142857144  C 1.781784564523231 4.447019255218653  1.7507757240880535 4.449108778132122  1.7197247739179926 4.449108778132122  C 1.3702320806656942 4.449108778132122  1.0869122739179928 4.19007352624851  1.0869122739179928 3.870537349560692  C 1.0869122739179928 3.842147909405213  1.0891976896046014 3.8137969695787564  1.09375 3.7857142857142856  C 1.0891976896046014 3.7576316018498153  1.0869122739179928 3.7292806620233625  1.0869122739179928 3.7008912218678796  C 1.0869122739179928 3.3813550451800642  1.3702320806656942 3.1223197932964513  1.7197247739179926 3.1223197932964513  Z " fill-rule="evenodd" />
    </mask>
  </defs>
  <g transform="matrix(1 0 0 1 -170 -82 )">
    <path d="M 1.7356655033159436 0.2885765992391051  C 1.7613482791889878 0.2885765992391051  1.78700723738535 0.2900060911274238  1.8125000000000002 0.2928571428571424  L 3.2343750000000004 0.2928571428571424  C 3.2624805719989474 0.289382500442117  3.290809840894739 0.28763928376292924  3.319171190344564 0.28763928376292924  C 3.6686638835968632 0.28763928376292924  3.951983690344565 0.5466745356465411  3.951983690344565 0.8662107123343584  C 3.951983690344565 0.8942513768134442  3.949754084020692 0.9222549437937074  3.9453125 0.9499999999999998  C 3.9497540840206913 0.9777450562062862  3.951983690344565 1.0057486231865604  3.951983690344565 1.0337892876656423  C 3.951983690344565 1.3533254643534585  3.6686638835968637 1.6123607162370714  3.319171190344564 1.6123607162370714  C 3.2908098408947417 1.6123607162370714  3.2624805719989443 1.6106174995578815  3.2343750000000004 1.6071428571428572  L 1.8124999999999996 1.6071428571428572  C 1.787007237385344 1.6099939088725779  1.761348279188994 1.6114234007608945  1.7356655033159436 1.6114234007608945  C 1.3861728100636443 1.6114234007608945  1.1028530033159434 1.3523881488772815  1.1028530033159434 1.0328519721894662  C 1.1028530033159434 1.0051274498489562  1.1050326181966748 0.9774387832902036  1.109375 0.9499999999999998  C 1.1050326181966743 0.922561216709794  1.1028530033159434 0.8948725501510444  1.1028530033159434 0.8671480278105334  C 1.1028530033159434 0.547611851122717  1.3861728100636443 0.2885765992391051  1.7356655033159436 0.2885765992391051  Z M 1.7356655033159423 5.960005170667673  C 1.761348279188999 5.960005170667673  1.7870072373853374 5.961434662555994  1.8125000000000002 5.964285714285714  L 3.2343750000000004 5.964285714285714  C 3.2624805719989416 5.9608110718706895  3.2908098408947453 5.9590678551915  3.319171190344565 5.9590678551915  C 3.6686638835968637 5.9590678551915  3.951983690344565 6.218103107075113  3.951983690344565 6.537639283762928  C 3.951983690344565 6.565679948242011  3.9497540840206913 6.593683515222286  3.9453125 6.621428571428573  C 3.9497540840206913 6.649173627634864  3.951983690344565 6.677177194615132  3.951983690344565 6.705217859094219  C 3.951983690344565 7.024754035782034  3.6686638835968637 7.283789287665647  3.319171190344565 7.283789287665647  C 3.290809840894744 7.283789287665647  3.2624805719989425 7.282046070986458  3.2343750000000004 7.278571428571431  L 1.8124999999999996 7.278571428571431  C 1.7870072373853425 7.281422480301154  1.7613482791889945 7.28285197218947  1.7356655033159423 7.28285197218947  C 1.386172810063644 7.28285197218947  1.1028530033159425 7.0238167203058595  1.1028530033159425 6.704280543618042  C 1.1028530033159425 6.67655602127753  1.1050326181966743 6.648867354718781  1.109375 6.621428571428573  C 1.105032618196674 6.5939897881383684  1.1028530033159425 6.566301121579618  1.1028530033159425 6.538576599239103  C 1.1028530033159425 6.219040422551286  1.386172810063644 5.960005170667673  1.7356655033159423 5.960005170667673  Z M 1.7197247739179926 3.1223197932964513  C 1.7507757240880446 3.1223197932964513  1.78178456452324 3.1244093162099205  1.8125000000000002 3.1285714285714294  L 3.2343750000000004 3.1285714285714294  C 3.2624805719989416 3.125096786156405  3.2908098408947453 3.123353569477213  3.319171190344565 3.123353569477213  C 3.6686638835968637 3.123353569477213  3.951983690344565 3.382388821360826  3.951983690344565 3.7019249980486433  C 3.951983690344565 3.729965662527726  3.9497540840206913 3.7579692295079985  3.9453125 3.7857142857142856  C 3.9497540840206913 3.813459341920577  3.951983690344565 3.841462908900845  3.951983690344565 3.8695035733799323  C 3.951983690344565 4.189039750067748  3.6686638835968637 4.448075001951358  3.319171190344565 4.448075001951358  C 3.290809840894744 4.448075001951358  3.2624805719989425 4.446331785272171  3.2343750000000004 4.442857142857144  L 1.8124999999999996 4.442857142857144  C 1.781784564523231 4.447019255218653  1.7507757240880535 4.449108778132122  1.7197247739179926 4.449108778132122  C 1.3702320806656942 4.449108778132122  1.0869122739179928 4.19007352624851  1.0869122739179928 3.870537349560692  C 1.0869122739179928 3.842147909405213  1.0891976896046014 3.8137969695787564  1.09375 3.7857142857142856  C 1.0891976896046014 3.7576316018498153  1.0869122739179928 3.7292806620233625  1.0869122739179928 3.7008912218678796  C 1.0869122739179928 3.3813550451800642  1.3702320806656942 3.1223197932964513  1.7197247739179926 3.1223197932964513  Z " fill-rule="nonzero" fill="rgba(255, 255, 255, 1)" stroke="none" transform="matrix(1 0 0 1 170 82 )" class="fill" />
    <path d="M 1.7356655033159436 0.2885765992391051  C 1.7613482791889878 0.2885765992391051  1.78700723738535 0.2900060911274238  1.8125000000000002 0.2928571428571424  L 3.2343750000000004 0.2928571428571424  C 3.2624805719989474 0.289382500442117  3.290809840894739 0.28763928376292924  3.319171190344564 0.28763928376292924  C 3.6686638835968632 0.28763928376292924  3.951983690344565 0.5466745356465411  3.951983690344565 0.8662107123343584  C 3.951983690344565 0.8942513768134442  3.949754084020692 0.9222549437937074  3.9453125 0.9499999999999998  C 3.9497540840206913 0.9777450562062862  3.951983690344565 1.0057486231865604  3.951983690344565 1.0337892876656423  C 3.951983690344565 1.3533254643534585  3.6686638835968637 1.6123607162370714  3.319171190344564 1.6123607162370714  C 3.2908098408947417 1.6123607162370714  3.2624805719989443 1.6106174995578815  3.2343750000000004 1.6071428571428572  L 1.8124999999999996 1.6071428571428572  C 1.787007237385344 1.6099939088725779  1.761348279188994 1.6114234007608945  1.7356655033159436 1.6114234007608945  C 1.3861728100636443 1.6114234007608945  1.1028530033159434 1.3523881488772815  1.1028530033159434 1.0328519721894662  C 1.1028530033159434 1.0051274498489562  1.1050326181966748 0.9774387832902036  1.109375 0.9499999999999998  C 1.1050326181966743 0.922561216709794  1.1028530033159434 0.8948725501510444  1.1028530033159434 0.8671480278105334  C 1.1028530033159434 0.547611851122717  1.3861728100636443 0.2885765992391051  1.7356655033159436 0.2885765992391051  Z " stroke-width="0" stroke-dasharray="0" stroke="rgba(255, 255, 255, 0)" fill="none" transform="matrix(1 0 0 1 170 82 )" class="stroke" mask="url(#Clip1095)" />
    <path d="M 1.7356655033159423 5.960005170667673  C 1.761348279188999 5.960005170667673  1.7870072373853374 5.961434662555994  1.8125000000000002 5.964285714285714  L 3.2343750000000004 5.964285714285714  C 3.2624805719989416 5.9608110718706895  3.2908098408947453 5.9590678551915  3.319171190344565 5.9590678551915  C 3.6686638835968637 5.9590678551915  3.951983690344565 6.218103107075113  3.951983690344565 6.537639283762928  C 3.951983690344565 6.565679948242011  3.9497540840206913 6.593683515222286  3.9453125 6.621428571428573  C 3.9497540840206913 6.649173627634864  3.951983690344565 6.677177194615132  3.951983690344565 6.705217859094219  C 3.951983690344565 7.024754035782034  3.6686638835968637 7.283789287665647  3.319171190344565 7.283789287665647  C 3.290809840894744 7.283789287665647  3.2624805719989425 7.282046070986458  3.2343750000000004 7.278571428571431  L 1.8124999999999996 7.278571428571431  C 1.7870072373853425 7.281422480301154  1.7613482791889945 7.28285197218947  1.7356655033159423 7.28285197218947  C 1.386172810063644 7.28285197218947  1.1028530033159425 7.0238167203058595  1.1028530033159425 6.704280543618042  C 1.1028530033159425 6.67655602127753  1.1050326181966743 6.648867354718781  1.109375 6.621428571428573  C 1.105032618196674 6.5939897881383684  1.1028530033159425 6.566301121579618  1.1028530033159425 6.538576599239103  C 1.1028530033159425 6.219040422551286  1.386172810063644 5.960005170667673  1.7356655033159423 5.960005170667673  Z " stroke-width="0" stroke-dasharray="0" stroke="rgba(255, 255, 255, 0)" fill="none" transform="matrix(1 0 0 1 170 82 )" class="stroke" mask="url(#Clip1095)" />
    <path d="M 1.7197247739179926 3.1223197932964513  C 1.7507757240880446 3.1223197932964513  1.78178456452324 3.1244093162099205  1.8125000000000002 3.1285714285714294  L 3.2343750000000004 3.1285714285714294  C 3.2624805719989416 3.125096786156405  3.2908098408947453 3.123353569477213  3.319171190344565 3.123353569477213  C 3.6686638835968637 3.123353569477213  3.951983690344565 3.382388821360826  3.951983690344565 3.7019249980486433  C 3.951983690344565 3.729965662527726  3.9497540840206913 3.7579692295079985  3.9453125 3.7857142857142856  C 3.9497540840206913 3.813459341920577  3.951983690344565 3.841462908900845  3.951983690344565 3.8695035733799323  C 3.951983690344565 4.189039750067748  3.6686638835968637 4.448075001951358  3.319171190344565 4.448075001951358  C 3.290809840894744 4.448075001951358  3.2624805719989425 4.446331785272171  3.2343750000000004 4.442857142857144  L 1.8124999999999996 4.442857142857144  C 1.781784564523231 4.447019255218653  1.7507757240880535 4.449108778132122  1.7197247739179926 4.449108778132122  C 1.3702320806656942 4.449108778132122  1.0869122739179928 4.19007352624851  1.0869122739179928 3.870537349560692  C 1.0869122739179928 3.842147909405213  1.0891976896046014 3.8137969695787564  1.09375 3.7857142857142856  C 1.0891976896046014 3.7576316018498153  1.0869122739179928 3.7292806620233625  1.0869122739179928 3.7008912218678796  C 1.0869122739179928 3.3813550451800642  1.3702320806656942 3.1223197932964513  1.7197247739179926 3.1223197932964513  Z " stroke-width="0" stroke-dasharray="0" stroke="rgba(255, 255, 255, 0)" fill="none" transform="matrix(1 0 0 1 170 82 )" class="stroke" mask="url(#Clip1095)" />
  </g>
</svg>