<svg t="1751266800479" class="icon" viewBox="0 0 1024 1024" version="1.1" xmlns="http://www.w3.org/2000/svg" p-id="32298" width="64" height="64"><path d="M124.245333 71.338667c-20.650667 9.159111-39.992889 21.219556-54.727111 36.693333C54.556444 123.790222 42.666667 145.066667 42.666667 170.666667v256c0 25.656889 11.889778 46.876444 26.851555 62.577777 14.791111 15.530667 34.133333 27.591111 54.727111 36.750223 41.358222 18.375111 95.573333 28.672 153.088 28.672 57.571556 0 111.729778-10.24 153.088-28.672 20.650667-9.159111 39.992889-21.219556 54.727111-36.693334C500.110222 473.543111 512 452.266667 512 426.666667V170.666667c0-25.656889-11.889778-46.876444-26.851556-62.577778-14.791111-15.530667-34.133333-27.591111-54.727111-36.750222C389.12 52.963556 334.848 42.666667 277.333333 42.666667c-57.571556 0-111.729778 10.24-153.088 28.672zM128.341333 170.666667a21.048889 21.048889 0 0 1 3.015111-3.811556c4.664889-4.892444 13.425778-11.264 27.534223-17.521778 28.103111-12.515556 69.973333-21.333333 118.442666-21.333333 48.469333 0 90.339556 8.817778 118.442667 21.333333 14.108444 6.257778 22.869333 12.629333 27.534222 17.521778 1.706667 1.706667 2.56 3.015111 3.015111 3.811556a21.105778 21.105778 0 0 1-3.015111 3.811555c-4.664889 4.892444-13.425778 11.264-27.534222 17.521778-28.103111 12.515556-69.973333 21.333333-118.442667 21.333333-48.469333 0-90.339556-8.817778-118.442666-21.333333-14.108444-6.257778-22.869333-12.629333-27.534223-17.521778A21.048889 21.048889 0 0 1 128.341333 170.666667z m148.992 128c55.808 0 108.487111-9.671111 149.333334-27.022223v26.396445a17.294222 17.294222 0 0 1-3.356445 4.437333c-4.664889 4.892444-13.425778 11.264-27.534222 17.521778-28.103111 12.515556-69.973333 21.333333-118.442667 21.333333-48.469333 0-90.339556-8.817778-118.442666-21.333333-14.108444-6.257778-22.869333-12.629333-27.534223-17.521778a17.294222 17.294222 0 0 1-3.356444-4.437333v-26.396445c40.846222 17.351111 93.525333 27.022222 149.333333 27.022223zM128 399.644444c40.846222 17.351111 93.525333 27.022222 149.333333 27.022223 55.808 0 108.487111-9.671111 149.333334-27.022223v26.396445a17.294222 17.294222 0 0 1-3.356445 4.437333c-4.664889 4.892444-13.425778 11.264-27.534222 17.521778-28.103111 12.515556-69.973333 21.333333-118.442667 21.333333-48.469333 0-90.339556-8.817778-118.442666-21.333333-14.108444-6.257778-22.869333-12.629333-27.534223-17.521778a17.294222 17.294222 0 0 1-3.356444-4.437333v-26.396445zM682.666667 85.333333A42.666667 42.666667 0 0 0 682.666667 170.666667h128a42.666667 42.666667 0 0 1 42.666666 42.666666V341.333333a42.666667 42.666667 0 0 0 85.333334 0V213.333333a128 128 0 0 0-128-128H682.666667zM128 640A42.666667 42.666667 0 0 1 170.666667 682.666667v128c0 23.552 19.114667 42.666667 42.666666 42.666666H341.333333a42.666667 42.666667 0 0 1 0 85.333334H213.333333a128 128 0 0 1-128-128V682.666667a42.666667 42.666667 0 0 1 42.666667-42.666667zM611.555556 601.144889c0-51.882667 42.040889-93.866667 93.866666-93.866667h68.266667a93.866667 93.866667 0 0 1 64.113778 162.417778l26.624 74.581333h36.295111c34.076444 0 61.667556 27.591111 61.667555 61.667556V910.222222c0 34.019556-27.591111 61.610667-61.667555 61.610667h-322.332445A61.610667 61.610667 0 0 1 516.721778 910.222222v-104.277333c0-34.076444 27.591111-61.667556 61.667555-61.667556h36.295111l26.624-74.581333a93.639111 93.639111 0 0 1-29.752888-68.551111z m93.866666-8.533333a8.533333 8.533333 0 0 0 0 17.066666h68.266667a8.533333 8.533333 0 1 0 0-17.066666h-68.266667z m-0.113778 151.665777h68.494223l-16.896-47.388444h-34.702223l-16.896 47.388444z m-61.212444 85.333334h-42.040889v56.888889h275.000889v-56.888889H644.152889z" fill="#515151" p-id="32299"></path></svg>