<?xml version="1.0" encoding="utf-8"?>
<svg version="1.1" xmlns:xlink="http://www.w3.org/1999/xlink" width="20px" height="20px" xmlns="http://www.w3.org/2000/svg">
  <defs>
    <pattern id="BGPattern" patternUnits="userSpaceOnUse" alignment="0 0" imageRepeat="None" />
    <mask fill="white" id="Clip1286">
      <path d="M 13.0251389453125 4.81441583984375  C 13.02513896484375 5.28919392578125  13.409358457031251 5.673833144531249  13.88369685546875 5.673833144531249  C 14.357635527343751 5.673833144531249  14.769356386718748 5.289193925781249  14.769356386718748 4.814415820312499  L 14.7693563671875 0.9087638671874999  C 14.7693563671875 0.43398576171875003  14.35761552734375 0.048926835937499885  13.883696835937503 0.048926835937499885  C 13.409358437500003 0.048926835937499885  13.0251389453125 0.43398576171874986  13.0251389453125 0.9087638671874999  L 13.0251389453125 4.81441583984375  Z M 12.169519062500001 3.511958886718751  L 12.169519062500001 2.21373908203125  L 7.82254630859375 2.21373908203125  L 7.82254630859375 3.511958886718751  L 12.169519062500001 3.511958886718751  Z M 19.529349101562502 4.491554726562501  C 19.529349101562502 3.2386042187500004  18.505723125 2.21373908203125  17.255370859375002 2.21373908203125  L 15.63978623046875 2.21373908203125  L 15.63978623046875 3.50476376953125  L 17.31716896484375 3.50476376953125  C 17.810554453125 3.50476376953125  18.2269321484375 3.9219808984375  18.2269321484375 4.415806074218749  L 18.2269321484375 7.420169121093748  L 1.7655929296874997 7.420169121093751  L 1.7655929296874997 4.41580607421875  C 1.7655929296874997 3.9220008789062506  2.181970625 3.50476376953125  2.67535611328125 3.50476376953125  L 4.36373138671875 3.50476376953125  L 4.36373138671875 2.21373908203125  L 2.75070501953125 2.21373908203125  C 1.4998730859374998 2.21373908203125  0.47670679687499995 3.23860421875  0.47670679687499995 4.491554726562501  L 0.47670679687499995 17.701378457031247  C 0.47670679687499995 18.953929218749998  1.4621986328125 19.978754394531247  2.7130305664062497 20  L 17.255370859375002 20  C 18.50574310546875 19.9787544140625  19.529349101562502 18.95392923828125  19.529349101562502 17.701378476562503  L 19.529349101562502 4.491554726562501  Z M 18.2269121484375 9  L 18.2269121484375 17.768253125  C 18.2269121484375 18.262058320312498  17.810534453125 18.679275449218753  17.31714896484375 18.679275449218753  L 2.67535611328125 18.679275449218753  C 2.1819706249999995 18.679275449218753  1.7655929296874997 18.262058320312498  1.7655929296874997 17.768253125  L 1.7655929296874997 9  L 18.2269121484375 9  Z M 3.9109583789062503 11.306794003906248  C 3.9109583789062503 12.02782513671875  4.494482734375 12.6121889453125  5.21383501953125 12.6121889453125  C 5.93360701171875 12.6121889453125  6.5167116601562505 12.027825136718748  6.5167116601562505 11.306794003906248  C 6.5167116601562505 10.586142597656249  5.93360701171875 10.0017987890625  5.21383501953125 10.0017987890625  C 4.494502734375001 10.0017987890625  3.9109583789062503 10.58616259765625  3.9109583789062503 11.306794003906248  Z M 8.681943652343747 11.306794003906248  C 8.6819436328125 12.02782513671875  9.26504830078125 12.6121889453125  9.984820292968749 12.6121889453125  C 10.704172578125 12.6121889453125  11.28769693359375 12.027825136718748  11.28769693359375 11.306794003906248  C 11.28769693359375 10.586142597656249  10.70419255859375 10.0017987890625  9.984820292968749 10.0017987890625  C 9.265048300781249 10.0017987890625  8.681943652343747 10.58616259765625  8.681943652343747 11.306794003906248  Z M 3.88769416015625 16.07987783203125  C 3.887694140625 16.800509257812497  4.471198535156249 17.384873046875  5.19057080078125 17.384873046875  C 5.91034279296875 17.384873046875  6.4934274609375 16.80050923828125  6.4934274609375 16.07987783203125  C 6.4934274609375 15.358826699218751  5.91034279296875 14.774462910156252  5.19057080078125 14.774462910156252  C 4.471218515625 14.774462910156252  3.88769416015625 15.35882671875  3.88769416015625 16.07987783203125  Z M 8.681943652343747 16.07987783203125  C 8.6819436328125 16.800509257812497  9.26504830078125 17.384873046875  9.984820292968749 17.384873046875  C 10.704172578125 17.384873046875  11.28769693359375 16.80050923828125  11.28769693359375 16.07987783203125  C 11.28769693359375 15.358826699218751  10.70419255859375 14.774462910156252  9.984820292968749 14.774462910156252  C 9.265048300781249 14.774462910156252  8.681943652343747 15.35882671875  8.681943652343747 16.07987783203125  Z M 13.446153515625001 11.306794003906248  C 13.44617349609375 12.02782513671875  14.0292581640625 12.6121889453125  14.74903015625 12.6121889453125  C 15.468402421875 12.6121889453125  16.051926796875 12.027825136718748  16.051926796875 11.306794003906248  C 16.051926796875 10.586142597656249  15.468402421875 10.0017987890625  14.74903015625 10.0017987890625  C 14.029258164062501 10.0017987890625  13.446153515625001 10.58616259765625  13.446153515625001 11.306794003906248  Z M 5.2256669921875 4.81441583984375  C 5.2256669921875 5.28919392578125  5.60992646484375 5.673833144531249  6.0842448828124995 5.673833144531249  C 6.558163574218749 5.673833144531249  6.969904414062501 5.289193925781249  6.969904414062501 4.814415820312499  L 6.969904414062501 0.9087638671874999  C 6.969904414062501 0.43398576171875003  6.5581835546875 0.048926835937499885  6.0842448828124995 0.048926835937499885  C 5.60992646484375 0.048926835937499885  5.2256669921875 0.43398576171874986  5.2256669921875 0.9087638671874999  L 5.2256669921875 4.81441583984375  Z " fill-rule="evenodd" />
    </mask>
  </defs>
  <g transform="matrix(1 0 0 1 -319 -76 )">
    <path d="M 13.0251389453125 4.81441583984375  C 13.02513896484375 5.28919392578125  13.409358457031251 5.673833144531249  13.88369685546875 5.673833144531249  C 14.357635527343751 5.673833144531249  14.769356386718748 5.289193925781249  14.769356386718748 4.814415820312499  L 14.7693563671875 0.9087638671874999  C 14.7693563671875 0.43398576171875003  14.35761552734375 0.048926835937499885  13.883696835937503 0.048926835937499885  C 13.409358437500003 0.048926835937499885  13.0251389453125 0.43398576171874986  13.0251389453125 0.9087638671874999  L 13.0251389453125 4.81441583984375  Z M 12.169519062500001 3.511958886718751  L 12.169519062500001 2.21373908203125  L 7.82254630859375 2.21373908203125  L 7.82254630859375 3.511958886718751  L 12.169519062500001 3.511958886718751  Z M 19.529349101562502 4.491554726562501  C 19.529349101562502 3.2386042187500004  18.505723125 2.21373908203125  17.255370859375002 2.21373908203125  L 15.63978623046875 2.21373908203125  L 15.63978623046875 3.50476376953125  L 17.31716896484375 3.50476376953125  C 17.810554453125 3.50476376953125  18.2269321484375 3.9219808984375  18.2269321484375 4.415806074218749  L 18.2269321484375 7.420169121093748  L 1.7655929296874997 7.420169121093751  L 1.7655929296874997 4.41580607421875  C 1.7655929296874997 3.9220008789062506  2.181970625 3.50476376953125  2.67535611328125 3.50476376953125  L 4.36373138671875 3.50476376953125  L 4.36373138671875 2.21373908203125  L 2.75070501953125 2.21373908203125  C 1.4998730859374998 2.21373908203125  0.47670679687499995 3.23860421875  0.47670679687499995 4.491554726562501  L 0.47670679687499995 17.701378457031247  C 0.47670679687499995 18.953929218749998  1.4621986328125 19.978754394531247  2.7130305664062497 20  L 17.255370859375002 20  C 18.50574310546875 19.9787544140625  19.529349101562502 18.95392923828125  19.529349101562502 17.701378476562503  L 19.529349101562502 4.491554726562501  Z M 18.2269121484375 9  L 18.2269121484375 17.768253125  C 18.2269121484375 18.262058320312498  17.810534453125 18.679275449218753  17.31714896484375 18.679275449218753  L 2.67535611328125 18.679275449218753  C 2.1819706249999995 18.679275449218753  1.7655929296874997 18.262058320312498  1.7655929296874997 17.768253125  L 1.7655929296874997 9  L 18.2269121484375 9  Z M 3.9109583789062503 11.306794003906248  C 3.9109583789062503 12.02782513671875  4.494482734375 12.6121889453125  5.21383501953125 12.6121889453125  C 5.93360701171875 12.6121889453125  6.5167116601562505 12.027825136718748  6.5167116601562505 11.306794003906248  C 6.5167116601562505 10.586142597656249  5.93360701171875 10.0017987890625  5.21383501953125 10.0017987890625  C 4.494502734375001 10.0017987890625  3.9109583789062503 10.58616259765625  3.9109583789062503 11.306794003906248  Z M 8.681943652343747 11.306794003906248  C 8.6819436328125 12.02782513671875  9.26504830078125 12.6121889453125  9.984820292968749 12.6121889453125  C 10.704172578125 12.6121889453125  11.28769693359375 12.027825136718748  11.28769693359375 11.306794003906248  C 11.28769693359375 10.586142597656249  10.70419255859375 10.0017987890625  9.984820292968749 10.0017987890625  C 9.265048300781249 10.0017987890625  8.681943652343747 10.58616259765625  8.681943652343747 11.306794003906248  Z M 3.88769416015625 16.07987783203125  C 3.887694140625 16.800509257812497  4.471198535156249 17.384873046875  5.19057080078125 17.384873046875  C 5.91034279296875 17.384873046875  6.4934274609375 16.80050923828125  6.4934274609375 16.07987783203125  C 6.4934274609375 15.358826699218751  5.91034279296875 14.774462910156252  5.19057080078125 14.774462910156252  C 4.471218515625 14.774462910156252  3.88769416015625 15.35882671875  3.88769416015625 16.07987783203125  Z M 8.681943652343747 16.07987783203125  C 8.6819436328125 16.800509257812497  9.26504830078125 17.384873046875  9.984820292968749 17.384873046875  C 10.704172578125 17.384873046875  11.28769693359375 16.80050923828125  11.28769693359375 16.07987783203125  C 11.28769693359375 15.358826699218751  10.70419255859375 14.774462910156252  9.984820292968749 14.774462910156252  C 9.265048300781249 14.774462910156252  8.681943652343747 15.35882671875  8.681943652343747 16.07987783203125  Z M 13.446153515625001 11.306794003906248  C 13.44617349609375 12.02782513671875  14.0292581640625 12.6121889453125  14.74903015625 12.6121889453125  C 15.468402421875 12.6121889453125  16.051926796875 12.027825136718748  16.051926796875 11.306794003906248  C 16.051926796875 10.586142597656249  15.468402421875 10.0017987890625  14.74903015625 10.0017987890625  C 14.029258164062501 10.0017987890625  13.446153515625001 10.58616259765625  13.446153515625001 11.306794003906248  Z M 5.2256669921875 4.81441583984375  C 5.2256669921875 5.28919392578125  5.60992646484375 5.673833144531249  6.0842448828124995 5.673833144531249  C 6.558163574218749 5.673833144531249  6.969904414062501 5.289193925781249  6.969904414062501 4.814415820312499  L 6.969904414062501 0.9087638671874999  C 6.969904414062501 0.43398576171875003  6.5581835546875 0.048926835937499885  6.0842448828124995 0.048926835937499885  C 5.60992646484375 0.048926835937499885  5.2256669921875 0.43398576171874986  5.2256669921875 0.9087638671874999  L 5.2256669921875 4.81441583984375  Z " fill-rule="nonzero" fill="rgba(255, 255, 255, 1)" stroke="none" transform="matrix(1 0 0 1 319 76 )" class="fill" />
    <path d="M 13.0251389453125 4.81441583984375  C 13.02513896484375 5.28919392578125  13.409358457031251 5.673833144531249  13.88369685546875 5.673833144531249  C 14.357635527343751 5.673833144531249  14.769356386718748 5.289193925781249  14.769356386718748 4.814415820312499  L 14.7693563671875 0.9087638671874999  C 14.7693563671875 0.43398576171875003  14.35761552734375 0.048926835937499885  13.883696835937503 0.048926835937499885  C 13.409358437500003 0.048926835937499885  13.0251389453125 0.43398576171874986  13.0251389453125 0.9087638671874999  L 13.0251389453125 4.81441583984375  Z " stroke-width="0" stroke-dasharray="0" stroke="rgba(255, 255, 255, 0)" fill="none" transform="matrix(1 0 0 1 319 76 )" class="stroke" mask="url(#Clip1286)" />
    <path d="M 12.169519062500001 3.511958886718751  L 12.169519062500001 2.21373908203125  L 7.82254630859375 2.21373908203125  L 7.82254630859375 3.511958886718751  L 12.169519062500001 3.511958886718751  Z " stroke-width="0" stroke-dasharray="0" stroke="rgba(255, 255, 255, 0)" fill="none" transform="matrix(1 0 0 1 319 76 )" class="stroke" mask="url(#Clip1286)" />
    <path d="M 19.529349101562502 4.491554726562501  C 19.529349101562502 3.2386042187500004  18.505723125 2.21373908203125  17.255370859375002 2.21373908203125  L 15.63978623046875 2.21373908203125  L 15.63978623046875 3.50476376953125  L 17.31716896484375 3.50476376953125  C 17.810554453125 3.50476376953125  18.2269321484375 3.9219808984375  18.2269321484375 4.415806074218749  L 18.2269321484375 7.420169121093748  L 1.7655929296874997 7.420169121093751  L 1.7655929296874997 4.41580607421875  C 1.7655929296874997 3.9220008789062506  2.181970625 3.50476376953125  2.67535611328125 3.50476376953125  L 4.36373138671875 3.50476376953125  L 4.36373138671875 2.21373908203125  L 2.75070501953125 2.21373908203125  C 1.4998730859374998 2.21373908203125  0.47670679687499995 3.23860421875  0.47670679687499995 4.491554726562501  L 0.47670679687499995 17.701378457031247  C 0.47670679687499995 18.953929218749998  1.4621986328125 19.978754394531247  2.7130305664062497 20  L 17.255370859375002 20  C 18.50574310546875 19.9787544140625  19.529349101562502 18.95392923828125  19.529349101562502 17.701378476562503  L 19.529349101562502 4.491554726562501  Z " stroke-width="0" stroke-dasharray="0" stroke="rgba(255, 255, 255, 0)" fill="none" transform="matrix(1 0 0 1 319 76 )" class="stroke" mask="url(#Clip1286)" />
    <path d="M 18.2269121484375 9  L 18.2269121484375 17.768253125  C 18.2269121484375 18.262058320312498  17.810534453125 18.679275449218753  17.31714896484375 18.679275449218753  L 2.67535611328125 18.679275449218753  C 2.1819706249999995 18.679275449218753  1.7655929296874997 18.262058320312498  1.7655929296874997 17.768253125  L 1.7655929296874997 9  L 18.2269121484375 9  Z " stroke-width="0" stroke-dasharray="0" stroke="rgba(255, 255, 255, 0)" fill="none" transform="matrix(1 0 0 1 319 76 )" class="stroke" mask="url(#Clip1286)" />
    <path d="M 3.9109583789062503 11.306794003906248  C 3.9109583789062503 12.02782513671875  4.494482734375 12.6121889453125  5.21383501953125 12.6121889453125  C 5.93360701171875 12.6121889453125  6.5167116601562505 12.027825136718748  6.5167116601562505 11.306794003906248  C 6.5167116601562505 10.586142597656249  5.93360701171875 10.0017987890625  5.21383501953125 10.0017987890625  C 4.494502734375001 10.0017987890625  3.9109583789062503 10.58616259765625  3.9109583789062503 11.306794003906248  Z " stroke-width="0" stroke-dasharray="0" stroke="rgba(255, 255, 255, 0)" fill="none" transform="matrix(1 0 0 1 319 76 )" class="stroke" mask="url(#Clip1286)" />
    <path d="M 8.681943652343747 11.306794003906248  C 8.6819436328125 12.02782513671875  9.26504830078125 12.6121889453125  9.984820292968749 12.6121889453125  C 10.704172578125 12.6121889453125  11.28769693359375 12.027825136718748  11.28769693359375 11.306794003906248  C 11.28769693359375 10.586142597656249  10.70419255859375 10.0017987890625  9.984820292968749 10.0017987890625  C 9.265048300781249 10.0017987890625  8.681943652343747 10.58616259765625  8.681943652343747 11.306794003906248  Z " stroke-width="0" stroke-dasharray="0" stroke="rgba(255, 255, 255, 0)" fill="none" transform="matrix(1 0 0 1 319 76 )" class="stroke" mask="url(#Clip1286)" />
    <path d="M 3.88769416015625 16.07987783203125  C 3.887694140625 16.800509257812497  4.471198535156249 17.384873046875  5.19057080078125 17.384873046875  C 5.91034279296875 17.384873046875  6.4934274609375 16.80050923828125  6.4934274609375 16.07987783203125  C 6.4934274609375 15.358826699218751  5.91034279296875 14.774462910156252  5.19057080078125 14.774462910156252  C 4.471218515625 14.774462910156252  3.88769416015625 15.35882671875  3.88769416015625 16.07987783203125  Z " stroke-width="0" stroke-dasharray="0" stroke="rgba(255, 255, 255, 0)" fill="none" transform="matrix(1 0 0 1 319 76 )" class="stroke" mask="url(#Clip1286)" />
    <path d="M 8.681943652343747 16.07987783203125  C 8.6819436328125 16.800509257812497  9.26504830078125 17.384873046875  9.984820292968749 17.384873046875  C 10.704172578125 17.384873046875  11.28769693359375 16.80050923828125  11.28769693359375 16.07987783203125  C 11.28769693359375 15.358826699218751  10.70419255859375 14.774462910156252  9.984820292968749 14.774462910156252  C 9.265048300781249 14.774462910156252  8.681943652343747 15.35882671875  8.681943652343747 16.07987783203125  Z " stroke-width="0" stroke-dasharray="0" stroke="rgba(255, 255, 255, 0)" fill="none" transform="matrix(1 0 0 1 319 76 )" class="stroke" mask="url(#Clip1286)" />
    <path d="M 13.446153515625001 11.306794003906248  C 13.44617349609375 12.02782513671875  14.0292581640625 12.6121889453125  14.74903015625 12.6121889453125  C 15.468402421875 12.6121889453125  16.051926796875 12.027825136718748  16.051926796875 11.306794003906248  C 16.051926796875 10.586142597656249  15.468402421875 10.0017987890625  14.74903015625 10.0017987890625  C 14.029258164062501 10.0017987890625  13.446153515625001 10.58616259765625  13.446153515625001 11.306794003906248  Z " stroke-width="0" stroke-dasharray="0" stroke="rgba(255, 255, 255, 0)" fill="none" transform="matrix(1 0 0 1 319 76 )" class="stroke" mask="url(#Clip1286)" />
    <path d="M 5.2256669921875 4.81441583984375  C 5.2256669921875 5.28919392578125  5.60992646484375 5.673833144531249  6.0842448828124995 5.673833144531249  C 6.558163574218749 5.673833144531249  6.969904414062501 5.289193925781249  6.969904414062501 4.814415820312499  L 6.969904414062501 0.9087638671874999  C 6.969904414062501 0.43398576171875003  6.5581835546875 0.048926835937499885  6.0842448828124995 0.048926835937499885  C 5.60992646484375 0.048926835937499885  5.2256669921875 0.43398576171874986  5.2256669921875 0.9087638671874999  L 5.2256669921875 4.81441583984375  Z " stroke-width="0" stroke-dasharray="0" stroke="rgba(255, 255, 255, 0)" fill="none" transform="matrix(1 0 0 1 319 76 )" class="stroke" mask="url(#Clip1286)" />
  </g>
</svg>