<?xml version="1.0" encoding="utf-8"?>
<svg version="1.1" xmlns:xlink="http://www.w3.org/1999/xlink" width="20px" height="16px" xmlns="http://www.w3.org/2000/svg">
  <defs>
    <pattern id="BGPattern" patternUnits="userSpaceOnUse" alignment="0 0" imageRepeat="None" />
    <mask fill="white" id="Clip1287">
      <path d="M 5.130859375 3.974609375000001  C 5.126953125 3.89453125  5.185546875 3.81640625  5.265625 3.755859375  L 8.662109375 1.193359375  C 9.59375 0.50390625  10.826171875 0.326171875  11.900390625 0.73828125  L 17.302734375 2.787109375  C 17.662109375 2.92578125  18.037109375 2.984375  18.396484375 2.984375  L 19.2890625 2.984375  C 19.546875 2.984375  19.765625 3.181640625  19.765625 3.439453125  L 19.765625 10.0234375  C 19.765625 10.279296875  19.546875 10.498046875  19.2890625 10.498046875  L 18.1171875 10.498046875  C 17.958984375 10.498046875  17.78125 10.556640625  17.66015625 10.65625  L 17.40234375 10.873046875  C 17.34375 10.931640625  17.244140625 10.912109375  17.18359375 10.853515625  L 10.888671875 3.244140625  C 10.73046875 3.046875  10.451171875 3.0078125  10.232421875 3.126953125  L 7.353515625 4.724609375  C 6.77734375 5.039062500000001  6.08203125 5.078125000000001  5.466796875 4.822265625  C 5.150390625 4.68359375  4.990234374999999 4.30859375  5.130859375 3.974609375000001  Z M 0.234375 10.046875  C 0.333984375 10.283203125  0.552734375 10.48046875  0.810546875 10.48046875  L 1.82421875 10.48046875  L 2.5390625 9.61328125  C 3.173828125 8.84375  4.326171875 8.74609375  5.103515625 9.376953125  C 5.3828125 9.61328125  5.599609375 9.9296875  5.69921875 10.28515625  C 6.314453125 10.443359375  6.79296875 10.916015625  6.97265625 11.529296875  C 7.41015625 11.666015625  7.80859375 11.9453125  8.025390625 12.357421875  C 8.404296875 12.416015625  8.759765625 12.59375  9.0390625 12.87109375  C 9.615234375 13.482421874999998  9.734375 14.392578125  9.298828125 15.12109375  L 9.199218749999998 15.298828125  L 9.199218749999998 15.318359375  C 9.675781249999998 15.634765625  10.3125 15.53515625  10.650390625 15.0625  C 10.80859375 14.826171875  10.871093749999998 14.548828125  10.80859375 14.2734375  L 10.80859375 14.25390625  L 10.828125 14.25390625  L 10.908203125 14.33203125  C 11.267578125 14.6875  11.84375 14.748046875  12.259765625 14.46875  C 12.59765625 14.232421875  12.755859375 13.818359375000002  12.677734375 13.421875  L 12.677734375 13.40234375  L 12.697265625 13.40234375  L 12.77734375 13.48046875  C 13.134765625 13.835937500000002  13.69140625 13.894531250000002  14.128906250000002 13.6171875  C 14.466796875 13.380859375  14.646484375000002 12.966796875000002  14.566406250000002 12.5703125  L 14.566406250000002 12.55078125  L 14.585937500000002 12.55078125  L 14.666015625000002 12.62890625  C 15.00390625 12.96484375  15.541015625 13.0234375  15.939453125000004 12.787109375  C 16.435546875000004 12.4921875  16.595703125000004 11.859375  16.298828125000004 11.3671875  C 16.259765625000004 11.30859375  16.21875 11.25  16.1796875 11.208984375  L 15.544921875000002 10.439453125  L 10.392578125000004 4.222656249999999  C 10.333984375000004 4.164062499999999  10.253906250000002 4.144531249999999  10.171875000000004 4.183593749999999  L 7.7070312500000036 5.544921874999999  C 6.9101562500000036 5.980468749999999  5.9785156250000036 6.05859375  5.1230468750000036 5.7421875  C 4.6464843750000036 5.583984374999999  4.2871093750000036 5.208984374999999  4.1093750000000036 4.753906249999999  C 3.9707031250000036 4.279296874999999  4.0292968750000036 3.7656249999999982  4.2871093750000036 3.353515624999999  C 4.3457031250000036 3.236328124999999  4.3066406250000036 3.097656249999999  4.1875000000000036 3.037109375  C 4.1484375000000036 3.017578125  4.1074218750000036 3.017578125  4.0683593750000036 3.017578125  L 0.7109375 3.017578125  C 0.451171875 3.01953125  0.234375 3.216796875  0.234375 3.474609375  L 0.234375 10.046875  Z M 4.687500000000002 11.152343749999996  C 4.947265625000003 10.779296874999996  4.806640625000002 10.246093749999998  4.390625 10.009765625  C 3.9921875 9.791015624999998  3.515625 9.892578125  3.23828125 10.248046875  L 2.5429687500000004 11.09765625  C 2.2441406250000004 11.472656250000002  2.2832031250000004 12.025390625  2.662109375 12.3203125  L 2.681640625 12.3203125  L 2.78125 12.3984375  C 3.0605468750000004 12.617187500000002  3.45703125 12.636718750000002  3.755859375 12.4765625  C 3.775390625 12.45703125  3.794921875 12.4765625  3.814453125 12.49609375  L 3.814453125 12.53515625  C 3.755859375 12.851562500000002  3.873046875 13.185546875  4.1328125 13.384765625  L 4.212890625 13.443359375  C 4.492187500000001 13.662109375000002  4.84765625 13.681640625000002  5.16796875 13.541015625  C 5.1875 13.521484375  5.2265625 13.541015625  5.2265625 13.560546875  L 5.2265625 13.580078125  C 5.1875 13.876953125000002  5.326171875000001 14.171875  5.564453125000001 14.37109375  L 5.623046875000001 14.41015625  C 5.902343750000001 14.62890625  6.257812500000001 14.66796875  6.578125 14.48828125  C 6.59765625 14.46875  6.63671875 14.48828125  6.63671875 14.5078125  L 6.63671875 14.52734375  C 6.67578125 14.74609375  6.794921875000001 14.943359375  6.974609375 15.080078125  L 7.013671875 15.099609375  C 7.412109375 15.396484375  7.96875 15.337890625  8.265625 14.94140625  C 8.28515625 14.90234375  8.32421875 14.86328125  8.345703125000002 14.84375  L 8.464843750000002 14.625  C 8.685546875000002 14.249999999999996  8.623046875000002 13.794921874999998  8.306640625000002 13.499999999999998  C 8.046875000000002 13.261718749999996  7.671875000000002 13.203124999999996  7.332031250000002 13.341796874999998  C 7.312500000000002 13.341796874999998  7.312500000000002 13.341796874999998  7.292968750000002 13.322265624999998  L 7.292968750000002 13.302734374999998  C 7.312500000000002 12.828124999999998  6.933593750000002 12.414062499999998  6.457031250000002 12.374999999999998  C 6.337890625000001 12.374999999999998  6.216796875000002 12.394531249999998  6.097656250000002 12.433593749999998  C 5.958984375000002 12.453124999999998  5.998046875000002 12.335937499999998  5.998046875000002 12.335937499999998  C 6.175781250000002 11.880859374999998  5.978515625000002 11.388671874999998  5.521484375000002 11.191406249999996  C 5.281250000000002 11.093749999999996  4.984375000000002 11.113281249999996  4.767578125000002 11.230468749999996  C 4.667968750000002 11.249999999999996  4.687500000000002 11.152343749999996  4.687500000000002 11.152343749999996  Z " fill-rule="evenodd" />
    </mask>
  </defs>
  <g transform="matrix(1 0 0 1 -468 -78 )">
    <path d="M 5.130859375 3.974609375000001  C 5.126953125 3.89453125  5.185546875 3.81640625  5.265625 3.755859375  L 8.662109375 1.193359375  C 9.59375 0.50390625  10.826171875 0.326171875  11.900390625 0.73828125  L 17.302734375 2.787109375  C 17.662109375 2.92578125  18.037109375 2.984375  18.396484375 2.984375  L 19.2890625 2.984375  C 19.546875 2.984375  19.765625 3.181640625  19.765625 3.439453125  L 19.765625 10.0234375  C 19.765625 10.279296875  19.546875 10.498046875  19.2890625 10.498046875  L 18.1171875 10.498046875  C 17.958984375 10.498046875  17.78125 10.556640625  17.66015625 10.65625  L 17.40234375 10.873046875  C 17.34375 10.931640625  17.244140625 10.912109375  17.18359375 10.853515625  L 10.888671875 3.244140625  C 10.73046875 3.046875  10.451171875 3.0078125  10.232421875 3.126953125  L 7.353515625 4.724609375  C 6.77734375 5.039062500000001  6.08203125 5.078125000000001  5.466796875 4.822265625  C 5.150390625 4.68359375  4.990234374999999 4.30859375  5.130859375 3.974609375000001  Z M 0.234375 10.046875  C 0.333984375 10.283203125  0.552734375 10.48046875  0.810546875 10.48046875  L 1.82421875 10.48046875  L 2.5390625 9.61328125  C 3.173828125 8.84375  4.326171875 8.74609375  5.103515625 9.376953125  C 5.3828125 9.61328125  5.599609375 9.9296875  5.69921875 10.28515625  C 6.314453125 10.443359375  6.79296875 10.916015625  6.97265625 11.529296875  C 7.41015625 11.666015625  7.80859375 11.9453125  8.025390625 12.357421875  C 8.404296875 12.416015625  8.759765625 12.59375  9.0390625 12.87109375  C 9.615234375 13.482421874999998  9.734375 14.392578125  9.298828125 15.12109375  L 9.199218749999998 15.298828125  L 9.199218749999998 15.318359375  C 9.675781249999998 15.634765625  10.3125 15.53515625  10.650390625 15.0625  C 10.80859375 14.826171875  10.871093749999998 14.548828125  10.80859375 14.2734375  L 10.80859375 14.25390625  L 10.828125 14.25390625  L 10.908203125 14.33203125  C 11.267578125 14.6875  11.84375 14.748046875  12.259765625 14.46875  C 12.59765625 14.232421875  12.755859375 13.818359375000002  12.677734375 13.421875  L 12.677734375 13.40234375  L 12.697265625 13.40234375  L 12.77734375 13.48046875  C 13.134765625 13.835937500000002  13.69140625 13.894531250000002  14.128906250000002 13.6171875  C 14.466796875 13.380859375  14.646484375000002 12.966796875000002  14.566406250000002 12.5703125  L 14.566406250000002 12.55078125  L 14.585937500000002 12.55078125  L 14.666015625000002 12.62890625  C 15.00390625 12.96484375  15.541015625 13.0234375  15.939453125000004 12.787109375  C 16.435546875000004 12.4921875  16.595703125000004 11.859375  16.298828125000004 11.3671875  C 16.259765625000004 11.30859375  16.21875 11.25  16.1796875 11.208984375  L 15.544921875000002 10.439453125  L 10.392578125000004 4.222656249999999  C 10.333984375000004 4.164062499999999  10.253906250000002 4.144531249999999  10.171875000000004 4.183593749999999  L 7.7070312500000036 5.544921874999999  C 6.9101562500000036 5.980468749999999  5.9785156250000036 6.05859375  5.1230468750000036 5.7421875  C 4.6464843750000036 5.583984374999999  4.2871093750000036 5.208984374999999  4.1093750000000036 4.753906249999999  C 3.9707031250000036 4.279296874999999  4.0292968750000036 3.7656249999999982  4.2871093750000036 3.353515624999999  C 4.3457031250000036 3.236328124999999  4.3066406250000036 3.097656249999999  4.1875000000000036 3.037109375  C 4.1484375000000036 3.017578125  4.1074218750000036 3.017578125  4.0683593750000036 3.017578125  L 0.7109375 3.017578125  C 0.451171875 3.01953125  0.234375 3.216796875  0.234375 3.474609375  L 0.234375 10.046875  Z M 4.687500000000002 11.152343749999996  C 4.947265625000003 10.779296874999996  4.806640625000002 10.246093749999998  4.390625 10.009765625  C 3.9921875 9.791015624999998  3.515625 9.892578125  3.23828125 10.248046875  L 2.5429687500000004 11.09765625  C 2.2441406250000004 11.472656250000002  2.2832031250000004 12.025390625  2.662109375 12.3203125  L 2.681640625 12.3203125  L 2.78125 12.3984375  C 3.0605468750000004 12.617187500000002  3.45703125 12.636718750000002  3.755859375 12.4765625  C 3.775390625 12.45703125  3.794921875 12.4765625  3.814453125 12.49609375  L 3.814453125 12.53515625  C 3.755859375 12.851562500000002  3.873046875 13.185546875  4.1328125 13.384765625  L 4.212890625 13.443359375  C 4.492187500000001 13.662109375000002  4.84765625 13.681640625000002  5.16796875 13.541015625  C 5.1875 13.521484375  5.2265625 13.541015625  5.2265625 13.560546875  L 5.2265625 13.580078125  C 5.1875 13.876953125000002  5.326171875000001 14.171875  5.564453125000001 14.37109375  L 5.623046875000001 14.41015625  C 5.902343750000001 14.62890625  6.257812500000001 14.66796875  6.578125 14.48828125  C 6.59765625 14.46875  6.63671875 14.48828125  6.63671875 14.5078125  L 6.63671875 14.52734375  C 6.67578125 14.74609375  6.794921875000001 14.943359375  6.974609375 15.080078125  L 7.013671875 15.099609375  C 7.412109375 15.396484375  7.96875 15.337890625  8.265625 14.94140625  C 8.28515625 14.90234375  8.32421875 14.86328125  8.345703125000002 14.84375  L 8.464843750000002 14.625  C 8.685546875000002 14.249999999999996  8.623046875000002 13.794921874999998  8.306640625000002 13.499999999999998  C 8.046875000000002 13.261718749999996  7.671875000000002 13.203124999999996  7.332031250000002 13.341796874999998  C 7.312500000000002 13.341796874999998  7.312500000000002 13.341796874999998  7.292968750000002 13.322265624999998  L 7.292968750000002 13.302734374999998  C 7.312500000000002 12.828124999999998  6.933593750000002 12.414062499999998  6.457031250000002 12.374999999999998  C 6.337890625000001 12.374999999999998  6.216796875000002 12.394531249999998  6.097656250000002 12.433593749999998  C 5.958984375000002 12.453124999999998  5.998046875000002 12.335937499999998  5.998046875000002 12.335937499999998  C 6.175781250000002 11.880859374999998  5.978515625000002 11.388671874999998  5.521484375000002 11.191406249999996  C 5.281250000000002 11.093749999999996  4.984375000000002 11.113281249999996  4.767578125000002 11.230468749999996  C 4.667968750000002 11.249999999999996  4.687500000000002 11.152343749999996  4.687500000000002 11.152343749999996  Z " fill-rule="nonzero" fill="rgba(255, 255, 255, 1)" stroke="none" transform="matrix(1 0 0 1 468 78 )" class="fill" />
    <path d="M 5.130859375 3.974609375000001  C 5.126953125 3.89453125  5.185546875 3.81640625  5.265625 3.755859375  L 8.662109375 1.193359375  C 9.59375 0.50390625  10.826171875 0.326171875  11.900390625 0.73828125  L 17.302734375 2.787109375  C 17.662109375 2.92578125  18.037109375 2.984375  18.396484375 2.984375  L 19.2890625 2.984375  C 19.546875 2.984375  19.765625 3.181640625  19.765625 3.439453125  L 19.765625 10.0234375  C 19.765625 10.279296875  19.546875 10.498046875  19.2890625 10.498046875  L 18.1171875 10.498046875  C 17.958984375 10.498046875  17.78125 10.556640625  17.66015625 10.65625  L 17.40234375 10.873046875  C 17.34375 10.931640625  17.244140625 10.912109375  17.18359375 10.853515625  L 10.888671875 3.244140625  C 10.73046875 3.046875  10.451171875 3.0078125  10.232421875 3.126953125  L 7.353515625 4.724609375  C 6.77734375 5.039062500000001  6.08203125 5.078125000000001  5.466796875 4.822265625  C 5.150390625 4.68359375  4.990234374999999 4.30859375  5.130859375 3.974609375000001  Z " stroke-width="0" stroke-dasharray="0" stroke="rgba(255, 255, 255, 0)" fill="none" transform="matrix(1 0 0 1 468 78 )" class="stroke" mask="url(#Clip1287)" />
    <path d="M 0.234375 10.046875  C 0.333984375 10.283203125  0.552734375 10.48046875  0.810546875 10.48046875  L 1.82421875 10.48046875  L 2.5390625 9.61328125  C 3.173828125 8.84375  4.326171875 8.74609375  5.103515625 9.376953125  C 5.3828125 9.61328125  5.599609375 9.9296875  5.69921875 10.28515625  C 6.314453125 10.443359375  6.79296875 10.916015625  6.97265625 11.529296875  C 7.41015625 11.666015625  7.80859375 11.9453125  8.025390625 12.357421875  C 8.404296875 12.416015625  8.759765625 12.59375  9.0390625 12.87109375  C 9.615234375 13.482421874999998  9.734375 14.392578125  9.298828125 15.12109375  L 9.199218749999998 15.298828125  L 9.199218749999998 15.318359375  C 9.675781249999998 15.634765625  10.3125 15.53515625  10.650390625 15.0625  C 10.80859375 14.826171875  10.871093749999998 14.548828125  10.80859375 14.2734375  L 10.80859375 14.25390625  L 10.828125 14.25390625  L 10.908203125 14.33203125  C 11.267578125 14.6875  11.84375 14.748046875  12.259765625 14.46875  C 12.59765625 14.232421875  12.755859375 13.818359375000002  12.677734375 13.421875  L 12.677734375 13.40234375  L 12.697265625 13.40234375  L 12.77734375 13.48046875  C 13.134765625 13.835937500000002  13.69140625 13.894531250000002  14.128906250000002 13.6171875  C 14.466796875 13.380859375  14.646484375000002 12.966796875000002  14.566406250000002 12.5703125  L 14.566406250000002 12.55078125  L 14.585937500000002 12.55078125  L 14.666015625000002 12.62890625  C 15.00390625 12.96484375  15.541015625 13.0234375  15.939453125000004 12.787109375  C 16.435546875000004 12.4921875  16.595703125000004 11.859375  16.298828125000004 11.3671875  C 16.259765625000004 11.30859375  16.21875 11.25  16.1796875 11.208984375  L 15.544921875000002 10.439453125  L 10.392578125000004 4.222656249999999  C 10.333984375000004 4.164062499999999  10.253906250000002 4.144531249999999  10.171875000000004 4.183593749999999  L 7.7070312500000036 5.544921874999999  C 6.9101562500000036 5.980468749999999  5.9785156250000036 6.05859375  5.1230468750000036 5.7421875  C 4.6464843750000036 5.583984374999999  4.2871093750000036 5.208984374999999  4.1093750000000036 4.753906249999999  C 3.9707031250000036 4.279296874999999  4.0292968750000036 3.7656249999999982  4.2871093750000036 3.353515624999999  C 4.3457031250000036 3.236328124999999  4.3066406250000036 3.097656249999999  4.1875000000000036 3.037109375  C 4.1484375000000036 3.017578125  4.1074218750000036 3.017578125  4.0683593750000036 3.017578125  L 0.7109375 3.017578125  C 0.451171875 3.01953125  0.234375 3.216796875  0.234375 3.474609375  L 0.234375 10.046875  Z " stroke-width="0" stroke-dasharray="0" stroke="rgba(255, 255, 255, 0)" fill="none" transform="matrix(1 0 0 1 468 78 )" class="stroke" mask="url(#Clip1287)" />
    <path d="M 4.687500000000002 11.152343749999996  C 4.947265625000003 10.779296874999996  4.806640625000002 10.246093749999998  4.390625 10.009765625  C 3.9921875 9.791015624999998  3.515625 9.892578125  3.23828125 10.248046875  L 2.5429687500000004 11.09765625  C 2.2441406250000004 11.472656250000002  2.2832031250000004 12.025390625  2.662109375 12.3203125  L 2.681640625 12.3203125  L 2.78125 12.3984375  C 3.0605468750000004 12.617187500000002  3.45703125 12.636718750000002  3.755859375 12.4765625  C 3.775390625 12.45703125  3.794921875 12.4765625  3.814453125 12.49609375  L 3.814453125 12.53515625  C 3.755859375 12.851562500000002  3.873046875 13.185546875  4.1328125 13.384765625  L 4.212890625 13.443359375  C 4.492187500000001 13.662109375000002  4.84765625 13.681640625000002  5.16796875 13.541015625  C 5.1875 13.521484375  5.2265625 13.541015625  5.2265625 13.560546875  L 5.2265625 13.580078125  C 5.1875 13.876953125000002  5.326171875000001 14.171875  5.564453125000001 14.37109375  L 5.623046875000001 14.41015625  C 5.902343750000001 14.62890625  6.257812500000001 14.66796875  6.578125 14.48828125  C 6.59765625 14.46875  6.63671875 14.48828125  6.63671875 14.5078125  L 6.63671875 14.52734375  C 6.67578125 14.74609375  6.794921875000001 14.943359375  6.974609375 15.080078125  L 7.013671875 15.099609375  C 7.412109375 15.396484375  7.96875 15.337890625  8.265625 14.94140625  C 8.28515625 14.90234375  8.32421875 14.86328125  8.345703125000002 14.84375  L 8.464843750000002 14.625  C 8.685546875000002 14.249999999999996  8.623046875000002 13.794921874999998  8.306640625000002 13.499999999999998  C 8.046875000000002 13.261718749999996  7.671875000000002 13.203124999999996  7.332031250000002 13.341796874999998  C 7.312500000000002 13.341796874999998  7.312500000000002 13.341796874999998  7.292968750000002 13.322265624999998  L 7.292968750000002 13.302734374999998  C 7.312500000000002 12.828124999999998  6.933593750000002 12.414062499999998  6.457031250000002 12.374999999999998  C 6.337890625000001 12.374999999999998  6.216796875000002 12.394531249999998  6.097656250000002 12.433593749999998  C 5.958984375000002 12.453124999999998  5.998046875000002 12.335937499999998  5.998046875000002 12.335937499999998  C 6.175781250000002 11.880859374999998  5.978515625000002 11.388671874999998  5.521484375000002 11.191406249999996  C 5.281250000000002 11.093749999999996  4.984375000000002 11.113281249999996  4.767578125000002 11.230468749999996  C 4.667968750000002 11.249999999999996  4.687500000000002 11.152343749999996  4.687500000000002 11.152343749999996  Z " stroke-width="0" stroke-dasharray="0" stroke="rgba(255, 255, 255, 0)" fill="none" transform="matrix(1 0 0 1 468 78 )" class="stroke" mask="url(#Clip1287)" />
  </g>
</svg>