<?xml version="1.0" encoding="utf-8"?>
<svg version="1.1" xmlns:xlink="http://www.w3.org/1999/xlink" width="18px" height="20px" xmlns="http://www.w3.org/2000/svg">
  <defs>
    <pattern id="BGPattern" patternUnits="userSpaceOnUse" alignment="0 0" imageRepeat="None" />
    <mask fill="white" id="Clip1099">
      <path d="M 17.70789474609375 3.10736841796875  L 17.11578947265625 3.0336842187500004  C 13.27578947265625 2.56052630859375  9.356842109375 0.48421052734375  9.31789474609375 0.46421052734375  L 9.00105263671875 0.2947368359375  L 8.68421052734375 0.46421052734375  C 8.6452631640625 0.48421052734375  4.726315781249999 2.56052630859375  0.88631578125 3.0336842187500004  L 0.2942105273437501 3.10736841796875  L 0.2942105273437501 8.379999999999999  C 0.2942105273437501 10.16578947265625  0.7557894726562502 11.916842109374999  1.62947369140625 13.443157890625002  C 3.0991170258424257 16.010794699688187  5.286031278604105 18.09381407152784  7.922105253906249 19.436842109375004  C 8.256256329597583 19.607097900712912  8.62602754914814 19.695662616723663  9.00105263671875 19.695263164062503  C 9.3715789453125 19.695263164062503  9.7421052734375 19.60947369140625  10.080000000000002 19.436842109375  C 12.715802291293516 18.09416241876478  14.902673816494268 16.011732480246785  16.372631582031254 13.444736835937503  C 17.250600006545735 11.901340387783277  17.710835423241054 10.155638618367329  17.70789474609375 8.38  L 17.70789474609375 3.10736841796875  Z M 16.359473691406247 8.379999999999999  C 16.359473691406247 9.92947369140625  15.960526328124999 11.446842109375  15.20421052734375 12.76736841796875  C 13.864634454715073 15.107058739630324  11.871408754756658 17.004985679154256  9.468947363281252 18.228421054687498  C 9.174959264647235 18.378041364910768  8.82714598925902 18.378041364910768  8.533157890625002 18.228421054687498  C 6.130785696431223 17.004859675290035  4.1375922970941765 15.106963485588768  2.79789474609375 12.767368417968747  C 2.0377112824849197 11.430306930725978  1.6395106377088275 9.918051552685636  1.64263158203125 8.379999999999999  L 1.64263158203125 4.295789472656249  C 4.91578947265625 3.7715789453124997  8.01578947265625 2.31578947265625  9.00105263671875 1.823157890625  C 9.9852631640625 2.31578947265625  13.0852631640625 3.7715789453125  16.35947369140625 4.294736835937501  L 16.35947369140625 8.37947369140625  Z " fill-rule="evenodd" />
    </mask>
  </defs>
  <g transform="matrix(1 0 0 1 -618 -76 )">
    <path d="M 17.70789474609375 3.10736841796875  L 17.11578947265625 3.0336842187500004  C 13.27578947265625 2.56052630859375  9.356842109375 0.48421052734375  9.31789474609375 0.46421052734375  L 9.00105263671875 0.2947368359375  L 8.68421052734375 0.46421052734375  C 8.6452631640625 0.48421052734375  4.726315781249999 2.56052630859375  0.88631578125 3.0336842187500004  L 0.2942105273437501 3.10736841796875  L 0.2942105273437501 8.379999999999999  C 0.2942105273437501 10.16578947265625  0.7557894726562502 11.916842109374999  1.62947369140625 13.443157890625002  C 3.0991170258424257 16.010794699688187  5.286031278604105 18.09381407152784  7.922105253906249 19.436842109375004  C 8.256256329597583 19.607097900712912  8.62602754914814 19.695662616723663  9.00105263671875 19.695263164062503  C 9.3715789453125 19.695263164062503  9.7421052734375 19.60947369140625  10.080000000000002 19.436842109375  C 12.715802291293516 18.09416241876478  14.902673816494268 16.011732480246785  16.372631582031254 13.444736835937503  C 17.250600006545735 11.901340387783277  17.710835423241054 10.155638618367329  17.70789474609375 8.38  L 17.70789474609375 3.10736841796875  Z M 16.359473691406247 8.379999999999999  C 16.359473691406247 9.92947369140625  15.960526328124999 11.446842109375  15.20421052734375 12.76736841796875  C 13.864634454715073 15.107058739630324  11.871408754756658 17.004985679154256  9.468947363281252 18.228421054687498  C 9.174959264647235 18.378041364910768  8.82714598925902 18.378041364910768  8.533157890625002 18.228421054687498  C 6.130785696431223 17.004859675290035  4.1375922970941765 15.106963485588768  2.79789474609375 12.767368417968747  C 2.0377112824849197 11.430306930725978  1.6395106377088275 9.918051552685636  1.64263158203125 8.379999999999999  L 1.64263158203125 4.295789472656249  C 4.91578947265625 3.7715789453124997  8.01578947265625 2.31578947265625  9.00105263671875 1.823157890625  C 9.9852631640625 2.31578947265625  13.0852631640625 3.7715789453125  16.35947369140625 4.294736835937501  L 16.35947369140625 8.37947369140625  Z " fill-rule="nonzero" fill="rgba(255, 255, 255, 1)" stroke="none" transform="matrix(1 0 0 1 618 76 )" class="fill" />
    <path d="M 17.70789474609375 3.10736841796875  L 17.11578947265625 3.0336842187500004  C 13.27578947265625 2.56052630859375  9.356842109375 0.48421052734375  9.31789474609375 0.46421052734375  L 9.00105263671875 0.2947368359375  L 8.68421052734375 0.46421052734375  C 8.6452631640625 0.48421052734375  4.726315781249999 2.56052630859375  0.88631578125 3.0336842187500004  L 0.2942105273437501 3.10736841796875  L 0.2942105273437501 8.379999999999999  C 0.2942105273437501 10.16578947265625  0.7557894726562502 11.916842109374999  1.62947369140625 13.443157890625002  C 3.0991170258424257 16.010794699688187  5.286031278604105 18.09381407152784  7.922105253906249 19.436842109375004  C 8.256256329597583 19.607097900712912  8.62602754914814 19.695662616723663  9.00105263671875 19.695263164062503  C 9.3715789453125 19.695263164062503  9.7421052734375 19.60947369140625  10.080000000000002 19.436842109375  C 12.715802291293516 18.09416241876478  14.902673816494268 16.011732480246785  16.372631582031254 13.444736835937503  C 17.250600006545735 11.901340387783277  17.710835423241054 10.155638618367329  17.70789474609375 8.38  L 17.70789474609375 3.10736841796875  Z " stroke-width="0" stroke-dasharray="0" stroke="rgba(255, 255, 255, 0)" fill="none" transform="matrix(1 0 0 1 618 76 )" class="stroke" mask="url(#Clip1099)" />
    <path d="M 16.359473691406247 8.379999999999999  C 16.359473691406247 9.92947369140625  15.960526328124999 11.446842109375  15.20421052734375 12.76736841796875  C 13.864634454715073 15.107058739630324  11.871408754756658 17.004985679154256  9.468947363281252 18.228421054687498  C 9.174959264647235 18.378041364910768  8.82714598925902 18.378041364910768  8.533157890625002 18.228421054687498  C 6.130785696431223 17.004859675290035  4.1375922970941765 15.106963485588768  2.79789474609375 12.767368417968747  C 2.0377112824849197 11.430306930725978  1.6395106377088275 9.918051552685636  1.64263158203125 8.379999999999999  L 1.64263158203125 4.295789472656249  C 4.91578947265625 3.7715789453124997  8.01578947265625 2.31578947265625  9.00105263671875 1.823157890625  C 9.9852631640625 2.31578947265625  13.0852631640625 3.7715789453125  16.35947369140625 4.294736835937501  L 16.35947369140625 8.37947369140625  Z " stroke-width="0" stroke-dasharray="0" stroke="rgba(255, 255, 255, 0)" fill="none" transform="matrix(1 0 0 1 618 76 )" class="stroke" mask="url(#Clip1099)" />
  </g>
</svg>