<?xml version="1.0" encoding="utf-8"?>
<svg version="1.1" xmlns:xlink="http://www.w3.org/1999/xlink" width="4px" height="10px" xmlns="http://www.w3.org/2000/svg">
  <defs>
    <pattern id="BGPattern" patternUnits="userSpaceOnUse" alignment="0 0" imageRepeat="None" />
    <mask fill="white" id="Clip1100">
      <path d="M 3.348947363281251 0.36947369140625064  L 2.18105263671875 0.0026315820312490246  C 1.7805263281249992 1.7289473632812493  1.27473685546875 3.146842109374999  0.6647368359375001 4.2552631640625  C 0.7921052539062501 4.8252631640625  0.8884210546875 5.406842109374999  0.9526315820312501 6.0010526367187484  C 1.1642105273437497 5.679999999999998  1.3673684179687502 5.343157890624999  1.5621052539062505 4.991052636718749  L 1.5621052539062505 9.078947363281248  L 2.6605263085937514 9.078947363281248  L 2.6605263085937514 2.5652631640625003  C 2.9163157812500016 1.8757894726562494  3.1457894726562525 1.14473685546875  3.348947363281251 0.36947369140625064  Z " fill-rule="evenodd" />
    </mask>
  </defs>
  <g transform="matrix(1 0 0 1 -622 -81 )">
    <path d="M 3.348947363281251 0.36947369140625064  L 2.18105263671875 0.0026315820312490246  C 1.7805263281249992 1.7289473632812493  1.27473685546875 3.146842109374999  0.6647368359375001 4.2552631640625  C 0.7921052539062501 4.8252631640625  0.8884210546875 5.406842109374999  0.9526315820312501 6.0010526367187484  C 1.1642105273437497 5.679999999999998  1.3673684179687502 5.343157890624999  1.5621052539062505 4.991052636718749  L 1.5621052539062505 9.078947363281248  L 2.6605263085937514 9.078947363281248  L 2.6605263085937514 2.5652631640625003  C 2.9163157812500016 1.8757894726562494  3.1457894726562525 1.14473685546875  3.348947363281251 0.36947369140625064  Z " fill-rule="nonzero" fill="rgba(255, 255, 255, 1)" stroke="none" transform="matrix(1 0 0 1 622 81 )" class="fill" />
    <path d="M 3.348947363281251 0.36947369140625064  L 2.18105263671875 0.0026315820312490246  C 1.7805263281249992 1.7289473632812493  1.27473685546875 3.146842109374999  0.6647368359375001 4.2552631640625  C 0.7921052539062501 4.8252631640625  0.8884210546875 5.406842109374999  0.9526315820312501 6.0010526367187484  C 1.1642105273437497 5.679999999999998  1.3673684179687502 5.343157890624999  1.5621052539062505 4.991052636718749  L 1.5621052539062505 9.078947363281248  L 2.6605263085937514 9.078947363281248  L 2.6605263085937514 2.5652631640625003  C 2.9163157812500016 1.8757894726562494  3.1457894726562525 1.14473685546875  3.348947363281251 0.36947369140625064  Z " stroke-width="0" stroke-dasharray="0" stroke="rgba(255, 255, 255, 0)" fill="none" transform="matrix(1 0 0 1 622 81 )" class="stroke" mask="url(#Clip1100)" />
  </g>
</svg>