<?xml version="1.0" encoding="utf-8"?>
<svg version="1.1" xmlns:xlink="http://www.w3.org/1999/xlink" width="12px" height="13px" xmlns="http://www.w3.org/2000/svg">
  <g transform="matrix(1 0 0 1 -17 -16 )">
    <path d="M 6.828750000000014 12.965308988764036  L 6.828750000000014 0.34325842696628683  C 6.830624999999998 0.15519662921347788  6.631875000000008 0.02556179775281464  6.4424999999999955 0.08946629213482993  L 0.2381249999999966 2.2567415730337075  C 0.12562500000001364 2.2950842696629223  0.05062499999999659 2.3973314606741525  0 2.5105337078651644  L 0 12.965308988764036  L 6.828750000000014 12.965308988764036  Z M 2.9962500000000034 10.61727528089888  L 2.9962500000000034 10.887500000000003  C 2.9962500000000034 11.112078651685394  2.805000000000007 11.29466292134832  2.5649999999999977 11.29466292134832  L 1.8112500000000011 11.29466292134832  C 1.5731250000000045 11.29466292134832  1.3799999999999955 11.113904494382027  1.3799999999999955 10.887500000000003  L 1.3799999999999955 10.61727528089888  C 1.3799999999999955 10.39269662921349  1.571249999999992 10.210112359550564  1.8112500000000011 10.210112359550564  L 2.5649999999999977 10.210112359550564  C 2.8031249999999943 10.210112359550564  2.9962500000000034 10.390870786516857  2.9962500000000034 10.61727528089888  Z M 2.9962500000000034 9.032443820224714  L 2.9962500000000034 9.302668539325836  C 2.9962500000000034 9.527247191011242  2.805000000000007 9.709831460674152  2.5649999999999977 9.709831460674152  L 1.8112500000000011 9.709831460674152  C 1.5731250000000045 9.709831460674152  1.3799999999999955 9.52907303370786  1.3799999999999955 9.302668539325836  L 1.3799999999999955 9.032443820224714  C 1.3799999999999955 8.807865168539323  1.571249999999992 8.625280898876412  1.8112500000000011 8.625280898876412  L 2.5649999999999977 8.625280898876412  C 2.8031249999999943 8.625280898876412  2.9962500000000034 8.80603932584269  2.9962500000000034 9.032443820224714  Z M 2.9962500000000034 7.365449438202247  L 2.9962500000000034 7.63567415730337  C 2.9962500000000034 7.860252808988761  2.805000000000007 8.042837078651687  2.5649999999999977 8.042837078651687  L 1.8112500000000011 8.042837078651687  C 1.5731250000000045 8.042837078651687  1.3799999999999955 7.862078651685394  1.3799999999999955 7.63567415730337  L 1.3799999999999955 7.365449438202247  C 1.3799999999999955 7.140870786516857  1.571249999999992 6.958286516853931  1.8112500000000011 6.958286516853931  L 2.5649999999999977 6.958286516853931  C 2.8031249999999943 6.958286516853931  2.9962500000000034 7.139044943820225  2.9962500000000034 7.365449438202247  Z M 2.9962500000000034 5.731320224719099  L 2.9962500000000034 6.001544943820221  C 2.9962500000000034 6.226123595505612  2.805000000000007 6.408707865168537  2.5649999999999977 6.408707865168537  L 1.8112500000000011 6.408707865168537  C 1.5731250000000045 6.408707865168537  1.3799999999999955 6.227949438202245  1.3799999999999955 6.001544943820221  L 1.3799999999999955 5.731320224719099  C 1.3799999999999955 5.5067415730337075  1.571249999999992 5.324157303370782  1.8112500000000011 5.324157303370782  L 2.5649999999999977 5.324157303370782  C 2.8031249999999943 5.324157303370782  2.9962500000000034 5.504915730337075  2.9962500000000034 5.731320224719099  Z M 2.9962500000000034 4.099016853932582  L 2.9962500000000034 4.369241573033705  C 2.9962500000000034 4.59382022471911  2.805000000000007 4.776404494382021  2.5649999999999977 4.776404494382021  L 1.8112500000000011 4.776404494382021  C 1.5731250000000045 4.776404494382021  1.3799999999999955 4.5956460674157285  1.3799999999999955 4.369241573033705  L 1.3799999999999955 4.099016853932582  C 1.3799999999999955 3.874438202247191  1.571249999999992 3.6918539325842663  1.8112500000000011 3.6918539325842663  L 2.5649999999999977 3.6918539325842663  C 2.8031249999999943 3.6918539325842663  2.9962500000000034 3.8726123595505584  2.9962500000000034 4.099016853932582  Z M 5.54249999999999 10.61727528089888  L 5.54249999999999 10.887500000000003  C 5.54249999999999 11.112078651685394  5.351249999999993 11.29466292134832  5.1112500000000125 11.29466292134832  L 4.3574999999999875 11.29466292134832  C 4.119374999999991 11.29466292134832  3.9262500000000102 11.113904494382027  3.9262500000000102 10.887500000000003  L 3.9262500000000102 10.61727528089888  C 3.9262500000000102 10.39269662921349  4.117500000000007 10.210112359550564  4.3574999999999875 10.210112359550564  L 5.1112500000000125 10.210112359550564  C 5.349375000000009 10.210112359550564  5.54249999999999 10.390870786516857  5.54249999999999 10.61727528089888  Z M 5.54249999999999 9.032443820224728  L 5.54249999999999 9.30266853932585  C 5.54249999999999 9.527247191011242  5.351249999999993 9.709831460674152  5.1112500000000125 9.709831460674152  L 4.3574999999999875 9.709831460674152  C 4.119374999999991 9.709831460674152  3.9262500000000102 9.529073033707874  3.9262500000000102 9.30266853932585  L 3.9262500000000102 9.032443820224728  C 3.9262500000000102 8.807865168539337  4.117500000000007 8.625280898876412  4.3574999999999875 8.625280898876412  L 5.1112500000000125 8.625280898876412  C 5.349375000000009 8.625280898876412  5.54249999999999 8.806039325842704  5.54249999999999 9.032443820224728  Z M 5.54249999999999 7.365449438202247  L 5.54249999999999 7.63567415730337  C 5.54249999999999 7.860252808988761  5.351249999999993 8.042837078651687  5.1112500000000125 8.042837078651687  L 4.3574999999999875 8.042837078651687  C 4.119374999999991 8.042837078651687  3.9262500000000102 7.862078651685394  3.9262500000000102 7.63567415730337  L 3.9262500000000102 7.365449438202247  C 3.9262500000000102 7.140870786516857  4.117500000000007 6.958286516853931  4.3574999999999875 6.958286516853931  L 5.1112500000000125 6.958286516853931  C 5.349375000000009 6.958286516853931  5.54249999999999 7.139044943820225  5.54249999999999 7.365449438202247  Z M 5.54249999999999 5.731320224719099  L 5.54249999999999 6.001544943820221  C 5.54249999999999 6.226123595505612  5.351249999999993 6.408707865168537  5.1112500000000125 6.408707865168537  L 4.3574999999999875 6.408707865168537  C 4.119374999999991 6.408707865168537  3.9262500000000102 6.227949438202245  3.9262500000000102 6.001544943820221  L 3.9262500000000102 5.731320224719099  C 3.9262500000000102 5.5067415730337075  4.117500000000007 5.324157303370782  4.3574999999999875 5.324157303370782  L 5.1112500000000125 5.324157303370782  C 5.349375000000009 5.324157303370782  5.54249999999999 5.504915730337075  5.54249999999999 5.731320224719099  Z M 5.54249999999999 4.099016853932582  L 5.54249999999999 4.369241573033705  C 5.54249999999999 4.59382022471911  5.351249999999993 4.776404494382021  5.1112500000000125 4.776404494382021  L 4.3574999999999875 4.776404494382021  C 4.119374999999991 4.776404494382021  3.9262500000000102 4.5956460674157285  3.9262500000000102 4.369241573033705  L 3.9262500000000102 4.099016853932582  C 3.9262500000000102 3.874438202247191  4.117500000000007 3.69185393258428  4.3574999999999875 3.69185393258428  L 5.1112500000000125 3.69185393258428  C 5.349375000000009 3.69185393258428  5.54249999999999 3.8726123595505584  5.54249999999999 4.099016853932582  Z M 5.54249999999999 2.5050561797752806  L 5.54249999999999 2.775280898876403  C 5.54249999999999 2.999859550561794  5.351249999999993 3.1824438202247194  5.1112500000000125 3.1824438202247194  L 4.3574999999999875 3.1824438202247194  C 4.119374999999991 3.1824438202247194  3.9262500000000102 3.001685393258427  3.9262500000000102 2.775280898876403  L 3.9262500000000102 2.5050561797752806  C 3.9262500000000102 2.2804775280898895  4.117500000000007 2.0978932584269643  4.3574999999999875 2.0978932584269643  L 5.1112500000000125 2.0978932584269643  C 5.349375000000009 2.0978932584269643  5.54249999999999 2.278651685393257  5.54249999999999 2.5050561797752806  Z M 11.966250000000002 12.967134831460669  L 11.966250000000002 3.9858146067415703  C 11.968124999999986 3.885393258426973  11.909999999999997 3.79410112359551  11.818125000000009 3.746629213483146  L 7.751249999999999 1.672471910112364  C 7.560000000000002 1.573876404494385  7.327499999999986 1.7071629213483135  7.327499999999986 1.911657303370788  L 7.327499999999986 12.967134831460669  L 11.966250000000002 12.967134831460669  Z M 10.398750000000007 10.61727528089888  L 10.398750000000007 10.887500000000003  C 10.398750000000007 11.112078651685394  10.20750000000001 11.29466292134832  9.967500000000001 11.29466292134832  L 9.213750000000005 11.29466292134832  C 8.975625000000008 11.29466292134832  8.782499999999999 11.113904494382027  8.782499999999999 10.887500000000003  L 8.782499999999999 10.61727528089888  C 8.782499999999999 10.39269662921349  8.973749999999995 10.210112359550564  9.213750000000005 10.210112359550564  L 9.967500000000001 10.210112359550564  C 10.205624999999998 10.210112359550564  10.398750000000007 10.390870786516857  10.398750000000007 10.61727528089888  Z M 10.398750000000007 9.032443820224714  L 10.398750000000007 9.302668539325836  C 10.398750000000007 9.527247191011242  10.20750000000001 9.709831460674152  9.967500000000001 9.709831460674152  L 9.213750000000005 9.709831460674152  C 8.975625000000008 9.709831460674152  8.782499999999999 9.52907303370786  8.782499999999999 9.302668539325836  L 8.782499999999999 9.032443820224714  C 8.782499999999999 8.807865168539323  8.973749999999995 8.625280898876412  9.213750000000005 8.625280898876412  L 9.967500000000001 8.625280898876412  C 10.205624999999998 8.625280898876412  10.398750000000007 8.80603932584269  10.398750000000007 9.032443820224714  Z M 10.398750000000007 7.365449438202247  L 10.398750000000007 7.63567415730337  C 10.398750000000007 7.860252808988761  10.20750000000001 8.042837078651687  9.967500000000001 8.042837078651687  L 9.213750000000005 8.042837078651687  C 8.975625000000008 8.042837078651687  8.782499999999999 7.862078651685394  8.782499999999999 7.63567415730337  L 8.782499999999999 7.365449438202247  C 8.782499999999999 7.140870786516857  8.973749999999995 6.958286516853931  9.213750000000005 6.958286516853931  L 9.967500000000001 6.958286516853931  C 10.205624999999998 6.958286516853931  10.398750000000007 7.139044943820225  10.398750000000007 7.365449438202247  Z M 10.398750000000007 5.731320224719099  L 10.398750000000007 6.001544943820221  C 10.398750000000007 6.226123595505612  10.20750000000001 6.408707865168537  9.967500000000001 6.408707865168537  L 9.213750000000005 6.408707865168537  C 8.975625000000008 6.408707865168537  8.782499999999999 6.227949438202245  8.782499999999999 6.001544943820221  L 8.782499999999999 5.731320224719099  C 8.782499999999999 5.5067415730337075  8.973749999999995 5.324157303370782  9.213750000000005 5.324157303370782  L 9.967500000000001 5.324157303370782  C 10.205624999999998 5.324157303370782  10.398750000000007 5.504915730337075  10.398750000000007 5.731320224719099  Z M 10.398750000000007 4.099016853932582  L 10.398750000000007 4.369241573033705  C 10.398750000000007 4.59382022471911  10.20750000000001 4.776404494382021  9.967500000000001 4.776404494382021  L 9.213750000000005 4.776404494382021  C 8.975625000000008 4.776404494382021  8.782499999999999 4.5956460674157285  8.782499999999999 4.369241573033705  L 8.782499999999999 4.099016853932582  C 8.782499999999999 3.874438202247191  8.973749999999995 3.6918539325842663  9.213750000000005 3.6918539325842663  L 9.967500000000001 3.6918539325842663  C 10.205624999999998 3.6918539325842663  10.398750000000007 3.8726123595505584  10.398750000000007 4.099016853932582  Z " fill-rule="nonzero" fill="#666666" stroke="none" transform="matrix(1 0 0 1 17 16 )" />
  </g>
</svg>