<?xml version="1.0" encoding="utf-8"?>
<svg version="1.1" xmlns:xlink="http://www.w3.org/1999/xlink" width="15px" height="17px" xmlns="http://www.w3.org/2000/svg">
  <g transform="matrix(1 0 0 1 -17 -14 )">
    <path d="M 15 7.290241228070158  C 15 3.2900219298245474  11.544374999999945 0.05778508771925317  7.319999999999936 0.15098684210522606  C 3.223124999999982 0.24232456140350678  -0.06937500000003638 3.5118421052630993  0.0018750000000409273 7.413267543859661  C 0.03750000000002274 9.381688596491244  0.9093749999999545 11.152521929824616  2.293125000000032 12.4256578947369  L 6.714375000000018 16.545175438596516  C 7.1512500000000045 16.953399122807014  7.850625000000037 16.953399122807014  8.287500000000023 16.545175438596516  L 12.710624999999936 12.423793859649095  C 14.12250000000006 11.12642543859647  15 9.305263157894728  15 7.290241228070158  Z M 11.301536467037863 11.242695889695256  C 10.301087284178948 12.114069484452784  8.968630941059814 12.64561403508776  7.505625000000008 12.64561403508776  C 4.398750000000064 12.64561403508776  1.8806250000000089 10.248464912280724  1.8806250000000089 7.290241228070158  C 1.8806250000000089 4.3320175438595925  4.398750000000064 1.933004385964864  7.505625000000008 1.933004385964864  C 10.612499999999955 1.933004385964864  13.130625000000009 4.3301535087719  13.130625000000009 7.290241228070158  C 13.130625000000009 8.855457847309026  12.425665502052084 10.263599324877646  11.301536467037863 11.242695889695256  Z " fill-rule="nonzero" fill="#999999" stroke="none" transform="matrix(1 0 0 1 17 14 )" />
  </g>
</svg>