<svg t="1750320506564" class="icon" viewBox="0 0 1024 1024" version="1.1" xmlns="http://www.w3.org/2000/svg" p-id="28192" width="20" height="20"><path d="M935.622458 170.611065L541.521323 6.707995a69.025291 69.025291 0 0 0-59.127968 0L89.230759 170.269778h-0.938539a86.174961 86.174961 0 0 0-48.206785 77.386822v348.539323c9.30007 196.240011 166.462722 346.064993 442.649207 421.318771l15.016627 3.9248a54.008664 54.008664 0 0 0 13.907444 1.791757 53.752699 53.752699 0 0 0 13.822123-1.791757l25.596523-6.996383c278.660815-80.885013 432.069311-235.317369 432.06931-435.140893V248.339174a86.345605 86.345605 0 0 0-47.524211-77.728109z m-65.015169 96.498893v313.045478l-0.426609 14.675339c-7.422992 144.449712-127.982616 249.566101-358.351323 312.362905l-20.391897-5.887201c-224.140221-69.878508-334.887844-173.032496-338.386036-314.922556V267.109958l358.351324-148.033226z" fill="#515151" p-id="28193"></path><path d="M472.069424 355.759249l-0.682574 0.93854-0.597252 1.109182-107.420076 185.489471a24.657984 24.657984 0 0 0-1.365148 2.303687l-0.938539 2.389009-0.426608 1.621113a20.733184 20.733184 0 0 0 0 3.41287 17.064349 17.064349 0 0 0 17.064348 17.064349h60.322473l-31.31308 125.422963-0.426609 1.621113a21.757045 21.757045 0 0 0 0 3.327548 17.064349 17.064349 0 0 0 17.064349 17.064349 16.552418 16.552418 0 0 0 11.859723-4.948661l225.59069-215.181438a12.798262 12.798262 0 0 0 3.583513-8.532174 12.798262 12.798262 0 0 0-12.798261-12.883584h-82.079518l85.321744-107.590719 1.194505-1.450469a9.982644 9.982644 0 0 0 1.706434-5.631235 10.323931 10.323931 0 0 0-9.214748-10.323931H483.929146a14.078088 14.078088 0 0 0-11.859722 4.778017z" fill="#515151" p-id="28194"></path></svg>