<?xml version="1.0" encoding="utf-8"?>
<svg version="1.1" xmlns:xlink="http://www.w3.org/1999/xlink" width="19px" height="20px" xmlns="http://www.w3.org/2000/svg">
  <defs>
    <pattern id="BGPattern" patternUnits="userSpaceOnUse" alignment="0 0" imageRepeat="None" />
    <mask fill="white" id="Clip1606">
      <path d="M 0.2839999999999998 2.684799999999999  L 0.2839999999999998 2.6835199999999997  C 0.2839999999999998 1.3177599999999998  1.3911999999999995 0.2105599999999992  2.7582400000000007 0.2105599999999992  L 16.24176 0.2105599999999992  C 17.6088 0.2105599999999992  18.716 1.317759999999999  18.716 2.6835199999999997  L 18.716 9.078399999999997  C 18.716 9.573247135848387  18.314847135848392 9.9744  17.82 9.9744  C 17.325152864151605 9.9744  16.923999999999996 9.573247135848389  16.924 9.078399999999998  L 16.924000000000003 2.6835199999999997  C 16.92329401230426 2.307229220137449  16.618051442139944 2.002559337722028  16.24176 2  L 2.7582400000000007 2  C 2.3819485578600617 2.002559337722028  2.0767059876957426 2.307229220137449  2 2.6835199999999997  L 2 17.315199999999997  C 2.0760000000000005 17.6928  2.381920000000001 17.997439999999997  2.7582400000000007 17.997439999999997  L 9.499999999999998 17.997439999999994  C 9.99484713584839 17.997439999999994  10.396 18.398592864151603  10.396 18.893439999999995  C 10.396 19.388287135848387  9.994847135848392 19.789439999999995  9.499999999999998 19.789439999999995  L 2.7582400000000025 19.789440000000003  C 1.3917549805786589 19.789440000000003  0.2840000000000007 18.681685019421344  0.2839999999999998 17.3152  L 0.2839999999999998 2.684799999999999  Z " fill-rule="evenodd" />
    </mask>
  </defs>
  <g transform="matrix(1 0 0 1 -469 -277 )">
    <path d="M 0.2839999999999998 2.684799999999999  L 0.2839999999999998 2.6835199999999997  C 0.2839999999999998 1.3177599999999998  1.3911999999999995 0.2105599999999992  2.7582400000000007 0.2105599999999992  L 16.24176 0.2105599999999992  C 17.6088 0.2105599999999992  18.716 1.317759999999999  18.716 2.6835199999999997  L 18.716 9.078399999999997  C 18.716 9.573247135848387  18.314847135848392 9.9744  17.82 9.9744  C 17.325152864151605 9.9744  16.923999999999996 9.573247135848389  16.924 9.078399999999998  L 16.924000000000003 2.6835199999999997  C 16.92329401230426 2.307229220137449  16.618051442139944 2.002559337722028  16.24176 2  L 2.7582400000000007 2  C 2.3819485578600617 2.002559337722028  2.0767059876957426 2.307229220137449  2 2.6835199999999997  L 2 17.315199999999997  C 2.0760000000000005 17.6928  2.381920000000001 17.997439999999997  2.7582400000000007 17.997439999999997  L 9.499999999999998 17.997439999999994  C 9.99484713584839 17.997439999999994  10.396 18.398592864151603  10.396 18.893439999999995  C 10.396 19.388287135848387  9.994847135848392 19.789439999999995  9.499999999999998 19.789439999999995  L 2.7582400000000025 19.789440000000003  C 1.3917549805786589 19.789440000000003  0.2840000000000007 18.681685019421344  0.2839999999999998 17.3152  L 0.2839999999999998 2.684799999999999  Z " fill-rule="nonzero" fill="rgba(255, 255, 255, 1)" stroke="none" transform="matrix(1 0 0 1 469 277 )" class="fill" />
    <path d="M 0.2839999999999998 2.684799999999999  L 0.2839999999999998 2.6835199999999997  C 0.2839999999999998 1.3177599999999998  1.3911999999999995 0.2105599999999992  2.7582400000000007 0.2105599999999992  L 16.24176 0.2105599999999992  C 17.6088 0.2105599999999992  18.716 1.317759999999999  18.716 2.6835199999999997  L 18.716 9.078399999999997  C 18.716 9.573247135848387  18.314847135848392 9.9744  17.82 9.9744  C 17.325152864151605 9.9744  16.923999999999996 9.573247135848389  16.924 9.078399999999998  L 16.924000000000003 2.6835199999999997  C 16.92329401230426 2.307229220137449  16.618051442139944 2.002559337722028  16.24176 2  L 2.7582400000000007 2  C 2.3819485578600617 2.002559337722028  2.0767059876957426 2.307229220137449  2 2.6835199999999997  L 2 17.315199999999997  C 2.0760000000000005 17.6928  2.381920000000001 17.997439999999997  2.7582400000000007 17.997439999999997  L 9.499999999999998 17.997439999999994  C 9.99484713584839 17.997439999999994  10.396 18.398592864151603  10.396 18.893439999999995  C 10.396 19.388287135848387  9.994847135848392 19.789439999999995  9.499999999999998 19.789439999999995  L 2.7582400000000025 19.789440000000003  C 1.3917549805786589 19.789440000000003  0.2840000000000007 18.681685019421344  0.2839999999999998 17.3152  L 0.2839999999999998 2.684799999999999  Z " stroke-width="0" stroke-dasharray="0" stroke="rgba(255, 255, 255, 0)" fill="none" transform="matrix(1 0 0 1 469 277 )" class="stroke" mask="url(#Clip1606)" />
  </g>
</svg>