<?xml version="1.0" encoding="utf-8"?>
<svg version="1.1" xmlns:xlink="http://www.w3.org/1999/xlink" width="12px" height="7px" xmlns="http://www.w3.org/2000/svg">
  <defs>
    <pattern id="BGPattern" patternUnits="userSpaceOnUse" alignment="0 0" imageRepeat="None" />
    <mask fill="white" id="Clip1108">
      <path d="M 0.252799999999997 1.3920738461538447  L 0.2540799999999983 1.3920738461538467  C 0.2540799999999983 0.8591615460094244  0.6552328641516088 0.42715076923076695  1.1500800000000009 0.4271507692307689  L 10.849920000000001 0.42715076923076695  C 11.344767135848393 0.42715076923076695  11.745920000000002 0.8591615460094244  11.745920000000002 1.3920738461538447  C 11.745920000000002 1.9249861462982651  11.344767135848393 2.3569969230769208  10.849920000000001 2.3569969230769208  L 1.1487999999999996 2.3569969230769208  C 0.6539528641516075 2.3569969230769208  0.252799999999997 1.9249861462982651  0.252799999999997 1.3920738461538447  Z M 4.62656 4.920935384615387  L 1.1411200000000008 4.958153846153845  C 0.6497682330053287 4.963445326721479  0.2540352011199438 5.3939024095719965  0.2540352011199438 5.923076923076922  C 0.2540352011199438 6.456015868170242  0.6552081224133453 6.888048244947749  1.1500800000000009 6.888048244947749  C 1.1530667226635742 6.888048244947749  1.1560534266613587 6.888032163097493  1.159040000000001 6.888000000000001  L 4.6432 6.850781538461541  C 5.134801182404114 6.845865526637497  5.530918627738783 6.415297943360752  5.530918627738783 5.885858461538463  C 5.530918627738783 5.352923186843679  5.129748469359443 4.920893785512082  4.634880000000001 4.920893785512082  C 4.632106621832003 4.920893785512082  4.62933325860917 4.920907652029293  4.62656 4.920935384615387  Z " fill-rule="evenodd" />
    </mask>
  </defs>
  <g transform="matrix(1 0 0 1 -473 -282 )">
    <path d="M 0.252799999999997 1.3920738461538447  L 0.2540799999999983 1.3920738461538467  C 0.2540799999999983 0.8591615460094244  0.6552328641516088 0.42715076923076695  1.1500800000000009 0.4271507692307689  L 10.849920000000001 0.42715076923076695  C 11.344767135848393 0.42715076923076695  11.745920000000002 0.8591615460094244  11.745920000000002 1.3920738461538447  C 11.745920000000002 1.9249861462982651  11.344767135848393 2.3569969230769208  10.849920000000001 2.3569969230769208  L 1.1487999999999996 2.3569969230769208  C 0.6539528641516075 2.3569969230769208  0.252799999999997 1.9249861462982651  0.252799999999997 1.3920738461538447  Z M 4.62656 4.920935384615387  L 1.1411200000000008 4.958153846153845  C 0.6497682330053287 4.963445326721479  0.2540352011199438 5.3939024095719965  0.2540352011199438 5.923076923076922  C 0.2540352011199438 6.456015868170242  0.6552081224133453 6.888048244947749  1.1500800000000009 6.888048244947749  C 1.1530667226635742 6.888048244947749  1.1560534266613587 6.888032163097493  1.159040000000001 6.888000000000001  L 4.6432 6.850781538461541  C 5.134801182404114 6.845865526637497  5.530918627738783 6.415297943360752  5.530918627738783 5.885858461538463  C 5.530918627738783 5.352923186843679  5.129748469359443 4.920893785512082  4.634880000000001 4.920893785512082  C 4.632106621832003 4.920893785512082  4.62933325860917 4.920907652029293  4.62656 4.920935384615387  Z " fill-rule="nonzero" fill="rgba(255, 255, 255, 1)" stroke="none" transform="matrix(1 0 0 1 473 282 )" class="fill" />
    <path d="M 0.252799999999997 1.3920738461538447  L 0.2540799999999983 1.3920738461538467  C 0.2540799999999983 0.8591615460094244  0.6552328641516088 0.42715076923076695  1.1500800000000009 0.4271507692307689  L 10.849920000000001 0.42715076923076695  C 11.344767135848393 0.42715076923076695  11.745920000000002 0.8591615460094244  11.745920000000002 1.3920738461538447  C 11.745920000000002 1.9249861462982651  11.344767135848393 2.3569969230769208  10.849920000000001 2.3569969230769208  L 1.1487999999999996 2.3569969230769208  C 0.6539528641516075 2.3569969230769208  0.252799999999997 1.9249861462982651  0.252799999999997 1.3920738461538447  Z " stroke-width="0" stroke-dasharray="0" stroke="rgba(255, 255, 255, 0)" fill="none" transform="matrix(1 0 0 1 473 282 )" class="stroke" mask="url(#Clip1108)" />
    <path d="M 4.62656 4.920935384615387  L 1.1411200000000008 4.958153846153845  C 0.6497682330053287 4.963445326721479  0.2540352011199438 5.3939024095719965  0.2540352011199438 5.923076923076922  C 0.2540352011199438 6.456015868170242  0.6552081224133453 6.888048244947749  1.1500800000000009 6.888048244947749  C 1.1530667226635742 6.888048244947749  1.1560534266613587 6.888032163097493  1.159040000000001 6.888000000000001  L 4.6432 6.850781538461541  C 5.134801182404114 6.845865526637497  5.530918627738783 6.415297943360752  5.530918627738783 5.885858461538463  C 5.530918627738783 5.352923186843679  5.129748469359443 4.920893785512082  4.634880000000001 4.920893785512082  C 4.632106621832003 4.920893785512082  4.62933325860917 4.920907652029293  4.62656 4.920935384615387  Z " stroke-width="0" stroke-dasharray="0" stroke="rgba(255, 255, 255, 0)" fill="none" transform="matrix(1 0 0 1 473 282 )" class="stroke" mask="url(#Clip1108)" />
  </g>
</svg>