<?xml version="1.0" encoding="utf-8"?>
<svg version="1.1" xmlns:xlink="http://www.w3.org/1999/xlink" width="8px" height="10px" xmlns="http://www.w3.org/2000/svg">
  <defs>
    <pattern id="BGPattern" patternUnits="userSpaceOnUse" alignment="0 0" imageRepeat="None" />
    <mask fill="white" id="Clip1298">
      <path d="M 2.254336000000001 0.7253894736842132  L 2.252970666666666 0.7253894736842095  C 2.0978309528327146 0.5274686152310362  1.85856259987598 0.41159815846604886  1.6050028130777605 0.41159815846604886  C 1.1525711460163772 0.41159815846604886  0.7858028130777598 0.7735405922870492  0.7858028130777598 1.2200192110976247  C 0.7858028130777598 1.4194288815760738  0.8604859502644369 1.611802916913122  0.9954986666666665 1.7601684210526294  L 2.169685333333333 3.151999999999999  L 1.164799999999995 3.151999999999999  C 0.7123683329386116 3.151999999999999  0.34559999999999796 3.513942433820999  0.34559999999999796 3.9604210526315784  C 0.34559999999999796 4.406899671442158  0.7123683329386116 4.7688421052631575  1.164799999999995 4.7688421052631575  L 3.0994773333333305 4.7688421052631575  L 3.0994773333333305 5.86964210526316  L 1.164799999999995 5.86964210526316  C 0.7123683329386116 5.86964210526316  0.34559999999999796 6.231584539084159  0.34559999999999796 6.678063157894739  C 0.34559999999999796 7.124541776705314  0.7123683329386116 7.486484210526319  1.164799999999995 7.486484210526319  L 3.0994773333333305 7.486484210526319  L 3.0994773333333265 8.835200000000002  C 3.0994773333333265 9.28167861881058  3.466245666271944 9.64362105263158  3.9186773333333274 9.64362105263158  C 4.371109000394714 9.64362105263158  4.737877333333328 9.28167861881058  4.737877333333328 8.835200000000002  L 4.737877333333332 7.487831578947369  L 6.673919999999998 7.487831578947369  C 7.126351667061385 7.487831578947365  7.493119999999999 7.125889145126365  7.493119999999999 6.6794105263157855  C 7.493119999999999 6.23293190750521  7.126351667061385 5.870989473684206  6.673919999999998 5.870989473684206  L 4.737877333333332 5.87098947368421  L 4.737877333333332 4.7688421052631575  L 6.673919999999998 4.7688421052631575  C 7.126351667061385 4.7688421052631575  7.493119999999999 4.406899671442158  7.493119999999999 3.9604210526315784  C 7.493119999999999 3.513942433820999  7.126351667061385 3.151999999999999  6.673919999999998 3.151999999999999  L 5.669034666666664 3.151999999999999  L 6.8432213333333305 1.7601684210526294  C 6.954226618178343 1.6185524497038535  7.0144534797444065 1.4445781268559854  7.0144534797444065 1.2655386836392293  C 7.0144534797444065 0.8190600648286537  6.647685146805793 0.45711763100765335  6.195253479744406 0.45711763100765335  C 5.962709902447091 0.45711763100765335  5.741124096457546 0.554648111864616  5.585749333333331 0.7253894736842095  L 3.920042666666666 2.697936842105264  L 2.254336000000001 0.7253894736842132  Z " fill-rule="evenodd" />
    </mask>
  </defs>
  <g transform="matrix(1 0 0 1 -480 -288 )">
    <path d="M 2.254336000000001 0.7253894736842132  L 2.252970666666666 0.7253894736842095  C 2.0978309528327146 0.5274686152310362  1.85856259987598 0.41159815846604886  1.6050028130777605 0.41159815846604886  C 1.1525711460163772 0.41159815846604886  0.7858028130777598 0.7735405922870492  0.7858028130777598 1.2200192110976247  C 0.7858028130777598 1.4194288815760738  0.8604859502644369 1.611802916913122  0.9954986666666665 1.7601684210526294  L 2.169685333333333 3.151999999999999  L 1.164799999999995 3.151999999999999  C 0.7123683329386116 3.151999999999999  0.34559999999999796 3.513942433820999  0.34559999999999796 3.9604210526315784  C 0.34559999999999796 4.406899671442158  0.7123683329386116 4.7688421052631575  1.164799999999995 4.7688421052631575  L 3.0994773333333305 4.7688421052631575  L 3.0994773333333305 5.86964210526316  L 1.164799999999995 5.86964210526316  C 0.7123683329386116 5.86964210526316  0.34559999999999796 6.231584539084159  0.34559999999999796 6.678063157894739  C 0.34559999999999796 7.124541776705314  0.7123683329386116 7.486484210526319  1.164799999999995 7.486484210526319  L 3.0994773333333305 7.486484210526319  L 3.0994773333333265 8.835200000000002  C 3.0994773333333265 9.28167861881058  3.466245666271944 9.64362105263158  3.9186773333333274 9.64362105263158  C 4.371109000394714 9.64362105263158  4.737877333333328 9.28167861881058  4.737877333333328 8.835200000000002  L 4.737877333333332 7.487831578947369  L 6.673919999999998 7.487831578947369  C 7.126351667061385 7.487831578947365  7.493119999999999 7.125889145126365  7.493119999999999 6.6794105263157855  C 7.493119999999999 6.23293190750521  7.126351667061385 5.870989473684206  6.673919999999998 5.870989473684206  L 4.737877333333332 5.87098947368421  L 4.737877333333332 4.7688421052631575  L 6.673919999999998 4.7688421052631575  C 7.126351667061385 4.7688421052631575  7.493119999999999 4.406899671442158  7.493119999999999 3.9604210526315784  C 7.493119999999999 3.513942433820999  7.126351667061385 3.151999999999999  6.673919999999998 3.151999999999999  L 5.669034666666664 3.151999999999999  L 6.8432213333333305 1.7601684210526294  C 6.954226618178343 1.6185524497038535  7.0144534797444065 1.4445781268559854  7.0144534797444065 1.2655386836392293  C 7.0144534797444065 0.8190600648286537  6.647685146805793 0.45711763100765335  6.195253479744406 0.45711763100765335  C 5.962709902447091 0.45711763100765335  5.741124096457546 0.554648111864616  5.585749333333331 0.7253894736842095  L 3.920042666666666 2.697936842105264  L 2.254336000000001 0.7253894736842132  Z " fill-rule="nonzero" fill="rgba(255, 255, 255, 1)" stroke="none" transform="matrix(1 0 0 1 480 288 )" class="fill" />
    <path d="M 2.254336000000001 0.7253894736842132  L 2.252970666666666 0.7253894736842095  C 2.0978309528327146 0.5274686152310362  1.85856259987598 0.41159815846604886  1.6050028130777605 0.41159815846604886  C 1.1525711460163772 0.41159815846604886  0.7858028130777598 0.7735405922870492  0.7858028130777598 1.2200192110976247  C 0.7858028130777598 1.4194288815760738  0.8604859502644369 1.611802916913122  0.9954986666666665 1.7601684210526294  L 2.169685333333333 3.151999999999999  L 1.164799999999995 3.151999999999999  C 0.7123683329386116 3.151999999999999  0.34559999999999796 3.513942433820999  0.34559999999999796 3.9604210526315784  C 0.34559999999999796 4.406899671442158  0.7123683329386116 4.7688421052631575  1.164799999999995 4.7688421052631575  L 3.0994773333333305 4.7688421052631575  L 3.0994773333333305 5.86964210526316  L 1.164799999999995 5.86964210526316  C 0.7123683329386116 5.86964210526316  0.34559999999999796 6.231584539084159  0.34559999999999796 6.678063157894739  C 0.34559999999999796 7.124541776705314  0.7123683329386116 7.486484210526319  1.164799999999995 7.486484210526319  L 3.0994773333333305 7.486484210526319  L 3.0994773333333265 8.835200000000002  C 3.0994773333333265 9.28167861881058  3.466245666271944 9.64362105263158  3.9186773333333274 9.64362105263158  C 4.371109000394714 9.64362105263158  4.737877333333328 9.28167861881058  4.737877333333328 8.835200000000002  L 4.737877333333332 7.487831578947369  L 6.673919999999998 7.487831578947369  C 7.126351667061385 7.487831578947365  7.493119999999999 7.125889145126365  7.493119999999999 6.6794105263157855  C 7.493119999999999 6.23293190750521  7.126351667061385 5.870989473684206  6.673919999999998 5.870989473684206  L 4.737877333333332 5.87098947368421  L 4.737877333333332 4.7688421052631575  L 6.673919999999998 4.7688421052631575  C 7.126351667061385 4.7688421052631575  7.493119999999999 4.406899671442158  7.493119999999999 3.9604210526315784  C 7.493119999999999 3.513942433820999  7.126351667061385 3.151999999999999  6.673919999999998 3.151999999999999  L 5.669034666666664 3.151999999999999  L 6.8432213333333305 1.7601684210526294  C 6.954226618178343 1.6185524497038535  7.0144534797444065 1.4445781268559854  7.0144534797444065 1.2655386836392293  C 7.0144534797444065 0.8190600648286537  6.647685146805793 0.45711763100765335  6.195253479744406 0.45711763100765335  C 5.962709902447091 0.45711763100765335  5.741124096457546 0.554648111864616  5.585749333333331 0.7253894736842095  L 3.920042666666666 2.697936842105264  L 2.254336000000001 0.7253894736842132  Z " stroke-width="0" stroke-dasharray="0" stroke="rgba(255, 255, 255, 0)" fill="none" transform="matrix(1 0 0 1 480 288 )" class="stroke" mask="url(#Clip1298)" />
  </g>
</svg>