<?xml version="1.0" encoding="utf-8"?>
<svg version="1.1" xmlns:xlink="http://www.w3.org/1999/xlink" width="20px" height="14px" xmlns="http://www.w3.org/2000/svg">
  <g transform="matrix(1 0 0 1 -15 -17 )">
    <path d="M 19.986607142857146 5.341875000000002  L 19.875 5.230312500000001  L 15.084821428571427 0.45937500000000003  L 14.97098214285714 0.34781250000000014  L 14.857142857142856 0.45937500000000003  L 12.863839285714285 2.4434374999999995  L 12.754464285714285 2.5528124999999995  L 12.863839285714285 2.6621874999999995  L 13.136160714285714 2.9334374999999993  C 13.078125 2.9749999999999988  13.040178571428573 3.0012499999999998  13.015625 3.014374999999999  C 12.765625 2.9793749999999988  11.933035714285715 2.6424999999999987  11.609375 2.511249999999999  L 11.575892857142858 2.4981249999999986  C 11.33482142857143 2.393124999999998  11.080357142857142 2.299062499999998  10.825892857142858 2.220312499999999  C 10.774553571428573 2.2071874999999985  10.727678571428571 2.2028124999999985  10.669642857142858 2.2028124999999985  C 10.1875 2.2028124999999985  9.008928571428571 2.5812499999999985  8.526785714285714 2.7431249999999983  C 7.915178571428571 2.9487499999999978  7.421875 3.1368749999999985  7.062499999999999 3.305312499999998  L 6.774553571428571 3.0187500000000003  L 7.131696428571429 2.664375  L 7.241071428571429 2.555  L 7.131696428571429 2.445625  L 5.140625 0.45937500000000003  L 5.026785714285714 0.34781250000000014  L 4.912946428571428 0.45937500000000003  L 0.12499999999999986 5.230312500000001  L 0.015624999999999747 5.339687500000001  L 0.12499999999999986 5.449062500000001  L 2.1183035714285707 7.433125  L 2.2321428571428563 7.544687500000002  L 2.345982142857142 7.433125  L 2.7075892857142847 7.0743750000000025  L 2.7566964285714275 7.122500000000004  C 2.792410714285713 7.2100000000000035  2.8348214285714275 7.3018750000000034  2.8839285714285703 7.395937500000004  L 2.5892857142857144 7.6890624999999995  C 2.1651785714285716 8.11125  2.1651785714285716 8.798125  2.5892857142857144 9.2203125  L 6.1049107142857135 12.7203125  C 6.305803571428571 12.92375  6.587053571428571 13.0396875  6.875 13.0396875  C 7.169642857142858 13.033125000000002  7.439732142857142 12.915  7.640625 12.709375  L 7.805803571428571 12.5453125  L 7.866071428571429 12.606562499999999  L 8.392857142857142 13.1315625  C 8.825892857142856 13.564687499999998  9.247767857142858 13.654374999999998  9.526785714285715 13.654374999999998  C 9.544642857142858 13.656562499999998  9.573660714285715 13.656562499999998  9.600446428571429 13.656562499999998  C 9.629464285714286 13.656562499999998  9.65625 13.656562499999998  9.685267857142858 13.654374999999998  C 10.111607142857142 13.595312499999999  10.517857142857142 13.334999999999999  10.848214285714286 12.917187499999997  C 10.984375 12.949999999999998  11.122767857142858 12.9653125  11.263392857142858 12.9653125  C 11.453125 12.9653125  11.640625 12.934687499999999  11.821428571428571 12.875624999999998  C 12.162946428571429 12.766249999999998  12.464285714285715 12.567187499999998  12.698660714285715 12.298124999999999  C 12.80357142857143 12.319999999999999  12.910714285714285 12.330937499999997  13.01785714285714 12.330937499999997  C 13.359374999999998 12.330937499999997  13.69642857142857 12.219374999999998  13.968749999999998 12.013749999999998  C 14.261160714285715 11.810312499999998  14.486607142857142 11.512812499999999  14.604910714285712 11.17375  C 15.140624999999998 11.038124999999999  15.600446428571429 10.6684375  15.843749999999998 10.171875  C 16.017857142857142 9.7978125  16.037946428571427 9.366875000000002  15.904017857142858 8.973125000000001  C 16.430803571428573 8.61  16.935267857142858 7.9209375  17.370535714285715 7.2953125000000005  C 17.390625 7.2668750000000015  17.410714285714285 7.238437499999999  17.42857142857143 7.2121875000000015  L 17.654017857142858 7.435312500000002  L 17.767857142857146 7.5468750000000036  L 17.88169642857143 7.435312500000002  L 19.877232142857146 5.451250000000002  L 19.986607142857146 5.341875000000002  Z M 5.026785714285714 1.6668749999999986  L 5.919642857142858 2.5528124999999995  L 2.229910714285714 6.2278125  L 1.3370535714285707 5.339687499999999  L 5.026785714285714 1.6668749999999986  Z M 13.651785714285708 10.3271875  L 13.674107142857142 10.497812499999998  L 13.718749999999996 10.830312500000002  C 13.718749999999996 10.8696875  13.640624999999996 11.090625000000001  13.404017857142854 11.26125  C 13.287946428571423 11.350937500000002  13.14955357142857 11.3990625  13.00892857142857 11.3990625  C 12.908482142857139 11.3990625  12.805803571428566 11.375  12.716517857142852 11.3290625  L 12.439732142857139 11.19125  L 12.296874999999996 11.119062500000002  L 12.225446428571425 11.2590625  L 12.089285714285708 11.5325  C 11.968749999999996 11.746875000000001  11.767857142857139 11.910937500000001  11.526785714285708 11.987499999999999  C 11.437499999999993 12.018125  11.34821428571428 12.03125  11.258928571428566 12.03125  C 11.124999999999993 12.03125  10.993303571428566 11.9984375  10.874999999999993 11.939375  L 10.611607142857139 11.803749999999999  L 10.475446428571422 11.733749999999997  L 10.399553571428566 11.864999999999997  L 10.252232142857135 12.120937499999998  C 10.053571428571423 12.466562499999997  9.792410714285708 12.698437499999997  9.56696428571428 12.726874999999998  C 9.55133928571428 12.7290625  9.535714285714281 12.7290625  9.52008928571428 12.7290625  C 9.374999999999993 12.7290625  9.218749999999993 12.6459375  9.053571428571423 12.479687499999999  L 8.52901785714285 11.956875  L 8.439732142857137 11.864999999999998  C 8.712053571428566 11.4296875  8.616071428571422 10.839062499999999  8.187499999999995 10.4125  C 7.997767857142851 10.2178125  7.7477678571428505 10.08  7.479910714285708 10.0253125  C 7.361607142857137 9.480625  6.933035714285708 9.05625  6.383928571428566 8.940312499999997  C 6.267857142857137 8.393437499999997  5.839285714285708 7.9646874999999975  5.290178571428566 7.848749999999999  C 5.236607142857137 7.577500000000001  5.102678571428566 7.328125  4.899553571428565 7.137812499999999  C 4.640624999999993 6.879687499999999  4.314732142857137 6.7353125  3.984374999999994 6.7353125  C 3.8638392857142794 6.7353125  3.745535714285708 6.754999999999999  3.633928571428565 6.794374999999999  C 3.627232142857136 6.779062499999999  3.6183035714285654 6.76375  3.6138392857142794 6.748437499999999  L 3.5959821428571366 6.682812499999999  L 3.5848214285714217 6.643437499999998  L 3.5558035714285645 6.614999999999998  L 3.3616071428571366 6.4224999999999985  L 6.116071428571429 3.6750000000000003  L 6.299107142857142 3.856562500000001  C 6.205357142857143 4.029375  6.120535714285714 4.350937500000001  6.401785714285715 4.786250000000001  C 6.723214285714285 5.2828124999999995  7.466517857142857 5.7859375  8.265625 5.7859375  C 8.341517857142858 5.7859375  8.419642857142858 5.7815625  8.495535714285715 5.770625000000001  C 8.801339285714286 5.729062500000001  9.149553571428573 5.656875  9.453125 5.5912500000000005  C 9.821428571428571 5.5125  10.379464285714286 5.394375000000001  10.720982142857142 5.394375000000001  C 10.881696428571427 5.394375000000001  10.921874999999998 5.420625  10.921874999999998 5.422812500000001  C 11.098214285714285 5.595625  11.361607142857142 5.866875000000001  11.676339285714283 6.18625  L 11.720982142857142 6.2321875  C 12.613839285714283 7.144375000000001  13.839285714285712 8.39125  14.529017857142854 8.997187500000003  C 14.651785714285712 9.108750000000002  14.810267857142854 9.183125  14.98660714285714 9.213750000000001  C 15.062499999999996 9.3975  15.062499999999996 9.596562500000001  14.982142857142852 9.7715625  C 14.825892857142852 10.080000000000002  14.511160714285708 10.283437500000002  14.158482142857139 10.298750000000002  L 13.821428571428566 10.3184375  L 13.651785714285708 10.3271875  Z M 3.252232142857143 8.5640625  C 3.1919642857142856 8.502812500000001  3.1919642857142856 8.404375  3.2522321428571415 8.343125  L 3.910714285714284 7.686875000000001  C 3.926339285714284 7.6715624999999985  3.9464285714285694 7.6628124999999985  3.9687499999999982 7.6628124999999985  C 4.066964285714284 7.669374999999997  4.162946428571427 7.7174999999999985  4.234374999999998 7.791874999999997  C 4.310267857142855 7.8640624999999975  4.357142857142856 7.949374999999999  4.372767857142855 8.041249999999998  C 4.379464285714284 8.071874999999999  4.36830357142857 8.104687499999997  4.348214285714284 8.126562499999999  L 4.241071428571426 8.235937499999999  L 4.348214285714284 8.343124999999997  L 4.787946428571426 8.780624999999997  L 4.904017857142854 8.894374999999998  L 5.017857142857141 8.778437499999999  C 5.026785714285712 8.7675  5.042410714285712 8.7565625  5.078124999999998 8.7565625  C 5.154017857142854 8.7565625  5.258928571428569 8.8090625  5.339285714285712 8.89  C 5.453124999999997 9.0015625  5.506696428571426 9.161249999999999  5.448660714285712 9.218125  L 5.339285714285712 9.3275  L 5.448660714285712 9.436875  L 5.888392857142853 9.874375  L 6.004464285714281 9.988125  L 6.1183035714285685 9.872187500000003  C 6.127232142857139 9.861250000000002  6.14285714285714 9.850312500000001  6.178571428571425 9.850312500000001  C 6.254464285714282 9.850312500000001  6.359374999999997 9.905000000000001  6.439732142857139 9.983750000000002  C 6.553571428571425 10.095312500000002  6.607142857142854 10.255000000000003  6.549107142857139 10.311875000000002  L 6.439732142857139 10.421250000000002  L 6.549107142857139 10.530625000000002  L 6.988839285714281 10.968125000000002  L 7.100446428571424 11.079687500000002  L 7.21428571428571 10.970312500000002  C 7.232142857142854 10.952812500000004  7.254464285714281 10.944062500000001  7.276785714285711 10.944062500000001  C 7.383928571428568 10.9615625  7.470982142857139 11.007500000000002  7.533482142857139 11.075312500000003  C 7.649553571428568 11.19125  7.7031249999999964 11.350937500000002  7.647321428571425 11.407812500000002  L 6.988839285714282 12.064062500000002  C 6.962053571428568 12.090312500000003  6.9218749999999964 12.105625000000002  6.881696428571425 12.105625000000002  C 6.841517857142854 12.105625000000002  6.801339285714282 12.090312500000001  6.772321428571425 12.061875000000002  L 3.252232142857143 8.5640625  Z M 15.162946428571427 8.310312499999998  C 14.488839285714283 7.7174999999999985  13.279017857142856 6.4859374999999995  12.395089285714285 5.5846874999999985  L 12.350446428571427 5.5387499999999985  L 12.120535714285714 5.304687499999998  C 11.904017857142858 5.085937499999998  11.723214285714288 4.899999999999999  11.584821428571427 4.762187499999999  C 11.383928571428573 4.5631249999999985  11.091517857142856 4.466874999999999  10.691964285714286 4.466874999999999  C 10.198660714285715 4.493124999999998  9.714285714285714 4.565312499999998  9.243303571428571 4.685624999999999  C 8.919642857142858 4.755624999999998  8.627232142857142 4.816874999999999  8.370535714285714 4.849687499999999  C 8.332589285714286 4.854062499999998  8.294642857142858 4.856249999999999  8.258928571428571 4.856249999999999  C 7.883928571428571 4.856249999999999  7.522321428571429 4.635312499999998  7.323660714285714 4.447187499999999  C 7.263392857142858 4.396874999999999  7.216517857142858 4.339999999999999  7.180803571428572 4.278749999999999  C 7.758928571428571 3.9353124999999998  10.160714285714288 3.1543749999999995  10.618303571428573 3.1281249999999985  C 10.736607142857142 3.1653124999999984  11.011160714285715 3.279062499999998  11.216517857142858 3.3621874999999988  C 12.194196428571427 3.7603124999999977  12.718749999999998 3.9506249999999983  13.05580357142857 3.9506249999999983  C 13.098214285714285 3.9506249999999983  13.136160714285714 3.948437499999998  13.17410714285714 3.9418749999999982  C 13.267857142857142 3.9287499999999977  13.435267857142856 3.876249999999998  13.808035714285712 3.6006249999999977  L 16.75892857142857 6.5406249999999995  C 16.703125 6.614999999999999  16.647321428571427 6.689375  16.595982142857142 6.7659375  C 16.33705357142857 7.135625000000001  15.549107142857144 8.264375  15.162946428571427 8.310312499999998  Z M 14.97098214285714 1.6646875000000005  L 18.66294642857143 5.3374999999999995  L 17.770089285714285 6.225625  L 14.080357142857142 2.5528125000000013  L 14.97098214285714 1.6646875000000005  Z " fill-rule="nonzero" fill="#515151" stroke="none" transform="matrix(1 0 0 1 15 17 )" />
  </g>
</svg>