<?xml version="1.0" encoding="utf-8"?>
<svg version="1.1" xmlns:xlink="http://www.w3.org/1999/xlink" width="8px" height="10px" xmlns="http://www.w3.org/2000/svg">
  <defs>
    <pattern id="BGPattern" patternUnits="userSpaceOnUse" alignment="0 0" imageRepeat="None" />
    <mask fill="white" id="Clip199">
      <path d="M 6.656315781249999 3.8247368359375002  L 6.656842109375001 3.82421052734375  L 6.656842109375001 0.3884210546875  L 1.5494736914062504 0.3884210546875  L 1.5494736914062504 3.82421052734375  L 3.4494736914062507 3.82421052734375  L 3.4494736914062507 4.651052636718751  L 0.9831578906249998 4.651052636718751  L 0.9831578906249998 5.698421054687499  L 2.80947369140625 5.698421054687499  C 2.2157894726562493 6.463157890625  1.5263157812500001 7.08421052734375  0.7384210546874996 7.563157890625  C 0.9947368359374993 7.936842109375002  1.215263164062499 8.304210527343752  1.401578945312501 8.6652631640625  C 2.1884210546875007 8.086842109375  2.8710526367187494 7.366842109375  3.448947363281249 6.506842109375  L 3.448947363281249 9.078947363281248  L 4.686842109375 9.078947363281248  L 4.686842109375 6.44736841796875  C 5.14894736328125 7.292105253906252  5.80263158203125 7.9952631640625  6.647894746093749 8.5552631640625  C 6.816315800781249 8.250000000000002  7.045789492187499 7.8515789453125  7.336315781250001 7.36210525390625  C 6.3947368359375005 6.911578945312499  5.693684199218749 6.3568420898437505  5.231578945312499 5.698947363281251  L 7.231578945312499 5.698947363281251  L 7.231578945312499 4.651578945312501  L 4.686842109375 4.651578945312501  L 4.686842109375 3.8247368359375002  L 6.656315781249999 3.8247368359375002  Z M 2.708421054687502 2.7310526367187506  L 2.7084210546875003 1.481578945312501  L 5.497894746093753 1.481578945312501  L 5.497894746093753 2.7310526367187506  L 2.708421054687502 2.7310526367187506  Z " fill-rule="evenodd" />
    </mask>
  </defs>
  <g transform="matrix(1 0 0 1 -624 -81 )">
    <path d="M 6.656315781249999 3.8247368359375002  L 6.656842109375001 3.82421052734375  L 6.656842109375001 0.3884210546875  L 1.5494736914062504 0.3884210546875  L 1.5494736914062504 3.82421052734375  L 3.4494736914062507 3.82421052734375  L 3.4494736914062507 4.651052636718751  L 0.9831578906249998 4.651052636718751  L 0.9831578906249998 5.698421054687499  L 2.80947369140625 5.698421054687499  C 2.2157894726562493 6.463157890625  1.5263157812500001 7.08421052734375  0.7384210546874996 7.563157890625  C 0.9947368359374993 7.936842109375002  1.215263164062499 8.304210527343752  1.401578945312501 8.6652631640625  C 2.1884210546875007 8.086842109375  2.8710526367187494 7.366842109375  3.448947363281249 6.506842109375  L 3.448947363281249 9.078947363281248  L 4.686842109375 9.078947363281248  L 4.686842109375 6.44736841796875  C 5.14894736328125 7.292105253906252  5.80263158203125 7.9952631640625  6.647894746093749 8.5552631640625  C 6.816315800781249 8.250000000000002  7.045789492187499 7.8515789453125  7.336315781250001 7.36210525390625  C 6.3947368359375005 6.911578945312499  5.693684199218749 6.3568420898437505  5.231578945312499 5.698947363281251  L 7.231578945312499 5.698947363281251  L 7.231578945312499 4.651578945312501  L 4.686842109375 4.651578945312501  L 4.686842109375 3.8247368359375002  L 6.656315781249999 3.8247368359375002  Z M 2.708421054687502 2.7310526367187506  L 2.7084210546875003 1.481578945312501  L 5.497894746093753 1.481578945312501  L 5.497894746093753 2.7310526367187506  L 2.708421054687502 2.7310526367187506  Z " fill-rule="nonzero" fill="rgba(255, 255, 255, 1)" stroke="none" transform="matrix(1 0 0 1 624 81 )" class="fill" />
    <path d="M 6.656315781249999 3.8247368359375002  L 6.656842109375001 3.82421052734375  L 6.656842109375001 0.3884210546875  L 1.5494736914062504 0.3884210546875  L 1.5494736914062504 3.82421052734375  L 3.4494736914062507 3.82421052734375  L 3.4494736914062507 4.651052636718751  L 0.9831578906249998 4.651052636718751  L 0.9831578906249998 5.698421054687499  L 2.80947369140625 5.698421054687499  C 2.2157894726562493 6.463157890625  1.5263157812500001 7.08421052734375  0.7384210546874996 7.563157890625  C 0.9947368359374993 7.936842109375002  1.215263164062499 8.304210527343752  1.401578945312501 8.6652631640625  C 2.1884210546875007 8.086842109375  2.8710526367187494 7.366842109375  3.448947363281249 6.506842109375  L 3.448947363281249 9.078947363281248  L 4.686842109375 9.078947363281248  L 4.686842109375 6.44736841796875  C 5.14894736328125 7.292105253906252  5.80263158203125 7.9952631640625  6.647894746093749 8.5552631640625  C 6.816315800781249 8.250000000000002  7.045789492187499 7.8515789453125  7.336315781250001 7.36210525390625  C 6.3947368359375005 6.911578945312499  5.693684199218749 6.3568420898437505  5.231578945312499 5.698947363281251  L 7.231578945312499 5.698947363281251  L 7.231578945312499 4.651578945312501  L 4.686842109375 4.651578945312501  L 4.686842109375 3.8247368359375002  L 6.656315781249999 3.8247368359375002  Z " stroke-width="0" stroke-dasharray="0" stroke="rgba(255, 255, 255, 0)" fill="none" transform="matrix(1 0 0 1 624 81 )" class="stroke" mask="url(#Clip199)" />
    <path d="M 2.708421054687502 2.7310526367187506  L 2.7084210546875003 1.481578945312501  L 5.497894746093753 1.481578945312501  L 5.497894746093753 2.7310526367187506  L 2.708421054687502 2.7310526367187506  Z " stroke-width="0" stroke-dasharray="0" stroke="rgba(255, 255, 255, 0)" fill="none" transform="matrix(1 0 0 1 624 81 )" class="stroke" mask="url(#Clip199)" />
  </g>
</svg>