<?xml version="1.0" encoding="utf-8"?>
<svg version="1.1" xmlns:xlink="http://www.w3.org/1999/xlink" width="20px" height="19px" xmlns="http://www.w3.org/2000/svg">
  <defs>
    <pattern id="BGPattern" patternUnits="userSpaceOnUse" alignment="0 0" imageRepeat="None" />
    <mask fill="white" id="Clip725">
      <path d="M 18.20210525390625 11.268420795849256  L 18.20210525390625 11.267368159154689  L 15.8 11.267368159154689  L 15.8 10.865262914484887  C 15.793735473530115 9.882436743870615  15.000686724676495 9.086109009373695  14.01789474609375 9.075789264183264  C 13.3484210546875 9.06947348307834  12.678947382812499 9.075789264183264  12.010526308593752 9.075789264183264  L 10.49368421875 9.075789264183264  L 10.49368421875 7.785262985233202  L 12.621052636718748 7.785262985233202  C 12.62210526489688 7.785265601546483  12.62315789592031 7.785266909704638  12.624210527349868 7.785266909704638  C 13.32590283184501 7.785266909704638  13.894736835943618 7.216432918672277  13.894736835943618 6.514740630295171  L 13.894736835937497 1.3221052235371862  C 13.894157986767993 0.6208226862829603  13.325493752412873 0.05262765527504332  12.62421096015466 0.05262765527504332  C 12.623158184456333 0.05262765527504332  12.622105409164314 0.05262896379180307  12.621052636718751 0.05263158082229033  L 7.428421054687499 0.05263158082229033  C 7.42807018236709 0.0526312898872705  7.427719309940959 0.05263114441974205  7.427368437499932 0.05263114441974205  C 6.726257477424857 0.05263114441974205  6.157894746093682 0.6209938626954937  6.157894746093682 1.3221048066658871  L 6.157894746093751 6.515789322987057  C 6.157894746093675 7.21690070336  6.72625747742485 7.785263421635751  7.427368437499925 7.785263421635751  C 7.427719309941403 7.785263421635751  7.428070182366641 7.785263276168222  7.428421054687501 7.785262985233202  L 9.47368421875 7.785262985233202  L 9.47368421875 9.070526100241661  L 5.96421052734375 9.070526100241661  C 5.754624324010509 9.065803759737543  5.5457390811440685 9.096407052161348  5.3463157812499995 9.16105242628725  C 4.815781123768971 9.344164494529245  4.398901545104371 9.761044063618028  4.21578947265625 10.291578708912553  C 4.137252057076885 10.568554951638832  4.106635760220884 10.856917764948639  4.125263164062499 11.144210271358654  L 4.125263164062499 11.23157868732053  L 1.79789474609375 11.231578687320528  C 1.7975438607516199 11.231578396604972  1.7971929753062368 11.231578251247171  1.7968420898436746 11.231578251247171  C 1.0951497853485341 11.231578251247171  0.5263157812499248 11.800412242279535  0.5263157812499248 12.502104530656641  L 0.52631578125 17.694736429485296  C 0.5268965443763363 18.3960176104322  1.0955602166305058 18.964210528165847  1.7968416541642522 18.964210528165847  C 1.7971926848524031 18.964210528165847  1.7975437155261809 18.964210382687696  1.79789474609375 18.96421009173144  L 6.99052630859375 18.96421009173144  C 7.691807753599935 18.964210343189723  8.260471632691335 18.396017617705148  8.26105263671875 17.694736429485296  L 8.26105263671875 12.502104966729998  C 8.26105263671875 11.800412678352892  7.69221863262014 11.231578687320528  6.990526328125001 11.231578687320528  L 5.14210525390625 11.23157868732053  L 5.14210525390625 10.875789222836849  L 5.14210525390625 10.770526061192268  L 5.14210525390625 10.741052389994287  L 5.14210525390625 10.729473444947757  C 5.143041389454527 10.71896794339317  5.143041389454527 10.708400001915217  5.14210525390625 10.697894500360633  L 5.14210525390625 10.715789226512086  C 5.1527783051017035 10.663353768249575  5.166842950498392 10.611666212283307  5.18421052734375 10.561052394128929  C 5.1890177152079495 10.54858124608  5.194284471968128 10.536292145083573  5.2 10.524210285600198  C 5.221003136538229 10.483000945987857  5.244194120324515 10.442943797244217  5.26947369140625 10.404210288356628  C 5.28421052734375 10.381052398263568  5.30315791015625 10.359999762028403  5.316842109374999 10.336841871935347  L 5.30421052734375 10.357894508170512  C 5.33894736328125 10.318947145783893  5.376842109375 10.285262927807628  5.40947369140625 10.252631346525934  C 5.4221052734374995 10.243157655337296  5.43368421875 10.233683983679908  5.446315781250001 10.226315546349165  C 5.489152157420295 10.200937909049607  5.533438561755723 10.178091754974014  5.57894736328125 10.157894512764559  L 5.55789474609375 10.157894512764559  C 5.5789473828125 10.152631348822952  5.6021052734375 10.141052403776426  5.623157890625 10.133683985976926  C 5.674350141230207 10.117339942339814  5.726348546998617 10.103637658247486  5.778947363281251 10.092631350201165  C 5.7989473632812505 10.092631350201165  5.82 10.087368186259564  5.837894746093751 10.086315549564992  L 14.145263164062502 10.086315549564993  C 14.191526082162502 10.096045056374336  14.237210924252013 10.108344824028437  14.28210525390625 10.123157658093717  C 14.308421035156249 10.131578712587787  14.3347368359375 10.145262911492207  14.36105263671875 10.15157871212838  L 14.34 10.15157871212838  C 14.381227840444556 10.172547811869245  14.421286795635222 10.195739840427965  14.459999999999999 10.221052401938804  L 14.49052630859375 10.242105018642722  L 14.509473691406248 10.263157654877887  C 14.543539203554666 10.293602787384902  14.575870654914029 10.32593424452226  14.606315781249998 10.359999762028401  L 14.593684218749999 10.338947125793235  C 14.6052631640625 10.358947125333831  14.621052636718748 10.37684187101653  14.633684218749998 10.394736597167984  C 14.66179463612705 10.43708990893322  14.687450860125612 10.48102180646168  14.710526308593748 10.526315539458087  C 14.710526308593748 10.534736593952154  14.719999999999997 10.547368175693252  14.725263164062499 10.559999757434355  C 14.728728469254929 10.568186899367795  14.731544177631044 10.576634024302102  14.73368421875 10.585262920916552  C 14.748533078392335 10.630146456479272  14.760833388355092 10.675833334978972  14.770526308593748 10.722105007617008  L 14.770526308593745 10.729473444947752  C 14.771169726377435 10.719659415845012  14.771169726377435 10.709813783321257  14.770526308593748 10.69999975421852  C 14.770526308593748 10.718947117064545  14.770526308593748 10.73894711660514  14.775789472656246 10.757894498982413  L 14.775789472656246 11.265262905296794  L 13.01052630859375 11.265262905296794  C 12.30883400409861 11.265262905296797  11.740000000000002 11.834096896329157  11.740000000000002 12.535789184706259  L 11.740000000000002 17.728420647461558  C 11.739999709295223 17.728771526285097  11.739999563942817 17.729122405212248  11.739999563942817 17.729473284156207  C 11.739999563942817 18.431165572533317  12.308833568041429 18.999999563565677  13.010525872536567 18.999999563565677  L 18.20210525390625 18.999999563565602  C 18.202456284474273 18.999999854521853  18.202807315147137 19  18.203158345835742 19  C 18.90443978336949 19  19.473103455623665 18.43180708226636  19.47368421875 17.730525901319456  L 19.47368421875 12.537894458095403  C 19.4736842187512 11.836781768449134  18.905321487420025 11.268419050173382  18.20421052734495 11.268419050173382  C 18.20350876917026 11.268419050173382  18.202807011115944 11.268419632065537  18.20210525390625 11.268420795849256  Z " fill-rule="evenodd" />
    </mask>
  </defs>
  <g transform="matrix(1 0 0 1 -21 -76 )">
    <path d="M 18.20210525390625 11.268420795849256  L 18.20210525390625 11.267368159154689  L 15.8 11.267368159154689  L 15.8 10.865262914484887  C 15.793735473530115 9.882436743870615  15.000686724676495 9.086109009373695  14.01789474609375 9.075789264183264  C 13.3484210546875 9.06947348307834  12.678947382812499 9.075789264183264  12.010526308593752 9.075789264183264  L 10.49368421875 9.075789264183264  L 10.49368421875 7.785262985233202  L 12.621052636718748 7.785262985233202  C 12.62210526489688 7.785265601546483  12.62315789592031 7.785266909704638  12.624210527349868 7.785266909704638  C 13.32590283184501 7.785266909704638  13.894736835943618 7.216432918672277  13.894736835943618 6.514740630295171  L 13.894736835937497 1.3221052235371862  C 13.894157986767993 0.6208226862829603  13.325493752412873 0.05262765527504332  12.62421096015466 0.05262765527504332  C 12.623158184456333 0.05262765527504332  12.622105409164314 0.05262896379180307  12.621052636718751 0.05263158082229033  L 7.428421054687499 0.05263158082229033  C 7.42807018236709 0.0526312898872705  7.427719309940959 0.05263114441974205  7.427368437499932 0.05263114441974205  C 6.726257477424857 0.05263114441974205  6.157894746093682 0.6209938626954937  6.157894746093682 1.3221048066658871  L 6.157894746093751 6.515789322987057  C 6.157894746093675 7.21690070336  6.72625747742485 7.785263421635751  7.427368437499925 7.785263421635751  C 7.427719309941403 7.785263421635751  7.428070182366641 7.785263276168222  7.428421054687501 7.785262985233202  L 9.47368421875 7.785262985233202  L 9.47368421875 9.070526100241661  L 5.96421052734375 9.070526100241661  C 5.754624324010509 9.065803759737543  5.5457390811440685 9.096407052161348  5.3463157812499995 9.16105242628725  C 4.815781123768971 9.344164494529245  4.398901545104371 9.761044063618028  4.21578947265625 10.291578708912553  C 4.137252057076885 10.568554951638832  4.106635760220884 10.856917764948639  4.125263164062499 11.144210271358654  L 4.125263164062499 11.23157868732053  L 1.79789474609375 11.231578687320528  C 1.7975438607516199 11.231578396604972  1.7971929753062368 11.231578251247171  1.7968420898436746 11.231578251247171  C 1.0951497853485341 11.231578251247171  0.5263157812499248 11.800412242279535  0.5263157812499248 12.502104530656641  L 0.52631578125 17.694736429485296  C 0.5268965443763363 18.3960176104322  1.0955602166305058 18.964210528165847  1.7968416541642522 18.964210528165847  C 1.7971926848524031 18.964210528165847  1.7975437155261809 18.964210382687696  1.79789474609375 18.96421009173144  L 6.99052630859375 18.96421009173144  C 7.691807753599935 18.964210343189723  8.260471632691335 18.396017617705148  8.26105263671875 17.694736429485296  L 8.26105263671875 12.502104966729998  C 8.26105263671875 11.800412678352892  7.69221863262014 11.231578687320528  6.990526328125001 11.231578687320528  L 5.14210525390625 11.23157868732053  L 5.14210525390625 10.875789222836849  L 5.14210525390625 10.770526061192268  L 5.14210525390625 10.741052389994287  L 5.14210525390625 10.729473444947757  C 5.143041389454527 10.71896794339317  5.143041389454527 10.708400001915217  5.14210525390625 10.697894500360633  L 5.14210525390625 10.715789226512086  C 5.1527783051017035 10.663353768249575  5.166842950498392 10.611666212283307  5.18421052734375 10.561052394128929  C 5.1890177152079495 10.54858124608  5.194284471968128 10.536292145083573  5.2 10.524210285600198  C 5.221003136538229 10.483000945987857  5.244194120324515 10.442943797244217  5.26947369140625 10.404210288356628  C 5.28421052734375 10.381052398263568  5.30315791015625 10.359999762028403  5.316842109374999 10.336841871935347  L 5.30421052734375 10.357894508170512  C 5.33894736328125 10.318947145783893  5.376842109375 10.285262927807628  5.40947369140625 10.252631346525934  C 5.4221052734374995 10.243157655337296  5.43368421875 10.233683983679908  5.446315781250001 10.226315546349165  C 5.489152157420295 10.200937909049607  5.533438561755723 10.178091754974014  5.57894736328125 10.157894512764559  L 5.55789474609375 10.157894512764559  C 5.5789473828125 10.152631348822952  5.6021052734375 10.141052403776426  5.623157890625 10.133683985976926  C 5.674350141230207 10.117339942339814  5.726348546998617 10.103637658247486  5.778947363281251 10.092631350201165  C 5.7989473632812505 10.092631350201165  5.82 10.087368186259564  5.837894746093751 10.086315549564992  L 14.145263164062502 10.086315549564993  C 14.191526082162502 10.096045056374336  14.237210924252013 10.108344824028437  14.28210525390625 10.123157658093717  C 14.308421035156249 10.131578712587787  14.3347368359375 10.145262911492207  14.36105263671875 10.15157871212838  L 14.34 10.15157871212838  C 14.381227840444556 10.172547811869245  14.421286795635222 10.195739840427965  14.459999999999999 10.221052401938804  L 14.49052630859375 10.242105018642722  L 14.509473691406248 10.263157654877887  C 14.543539203554666 10.293602787384902  14.575870654914029 10.32593424452226  14.606315781249998 10.359999762028401  L 14.593684218749999 10.338947125793235  C 14.6052631640625 10.358947125333831  14.621052636718748 10.37684187101653  14.633684218749998 10.394736597167984  C 14.66179463612705 10.43708990893322  14.687450860125612 10.48102180646168  14.710526308593748 10.526315539458087  C 14.710526308593748 10.534736593952154  14.719999999999997 10.547368175693252  14.725263164062499 10.559999757434355  C 14.728728469254929 10.568186899367795  14.731544177631044 10.576634024302102  14.73368421875 10.585262920916552  C 14.748533078392335 10.630146456479272  14.760833388355092 10.675833334978972  14.770526308593748 10.722105007617008  L 14.770526308593745 10.729473444947752  C 14.771169726377435 10.719659415845012  14.771169726377435 10.709813783321257  14.770526308593748 10.69999975421852  C 14.770526308593748 10.718947117064545  14.770526308593748 10.73894711660514  14.775789472656246 10.757894498982413  L 14.775789472656246 11.265262905296794  L 13.01052630859375 11.265262905296794  C 12.30883400409861 11.265262905296797  11.740000000000002 11.834096896329157  11.740000000000002 12.535789184706259  L 11.740000000000002 17.728420647461558  C 11.739999709295223 17.728771526285097  11.739999563942817 17.729122405212248  11.739999563942817 17.729473284156207  C 11.739999563942817 18.431165572533317  12.308833568041429 18.999999563565677  13.010525872536567 18.999999563565677  L 18.20210525390625 18.999999563565602  C 18.202456284474273 18.999999854521853  18.202807315147137 19  18.203158345835742 19  C 18.90443978336949 19  19.473103455623665 18.43180708226636  19.47368421875 17.730525901319456  L 19.47368421875 12.537894458095403  C 19.4736842187512 11.836781768449134  18.905321487420025 11.268419050173382  18.20421052734495 11.268419050173382  C 18.20350876917026 11.268419050173382  18.202807011115944 11.268419632065537  18.20210525390625 11.268420795849256  Z " fill-rule="nonzero" fill="rgba(255, 255, 255, 1)" stroke="none" transform="matrix(1 0 0 1 21 76 )" class="fill" />
    <path d="M 18.20210525390625 11.268420795849256  L 18.20210525390625 11.267368159154689  L 15.8 11.267368159154689  L 15.8 10.865262914484887  C 15.793735473530115 9.882436743870615  15.000686724676495 9.086109009373695  14.01789474609375 9.075789264183264  C 13.3484210546875 9.06947348307834  12.678947382812499 9.075789264183264  12.010526308593752 9.075789264183264  L 10.49368421875 9.075789264183264  L 10.49368421875 7.785262985233202  L 12.621052636718748 7.785262985233202  C 12.62210526489688 7.785265601546483  12.62315789592031 7.785266909704638  12.624210527349868 7.785266909704638  C 13.32590283184501 7.785266909704638  13.894736835943618 7.216432918672277  13.894736835943618 6.514740630295171  L 13.894736835937497 1.3221052235371862  C 13.894157986767993 0.6208226862829603  13.325493752412873 0.05262765527504332  12.62421096015466 0.05262765527504332  C 12.623158184456333 0.05262765527504332  12.622105409164314 0.05262896379180307  12.621052636718751 0.05263158082229033  L 7.428421054687499 0.05263158082229033  C 7.42807018236709 0.0526312898872705  7.427719309940959 0.05263114441974205  7.427368437499932 0.05263114441974205  C 6.726257477424857 0.05263114441974205  6.157894746093682 0.6209938626954937  6.157894746093682 1.3221048066658871  L 6.157894746093751 6.515789322987057  C 6.157894746093675 7.21690070336  6.72625747742485 7.785263421635751  7.427368437499925 7.785263421635751  C 7.427719309941403 7.785263421635751  7.428070182366641 7.785263276168222  7.428421054687501 7.785262985233202  L 9.47368421875 7.785262985233202  L 9.47368421875 9.070526100241661  L 5.96421052734375 9.070526100241661  C 5.754624324010509 9.065803759737543  5.5457390811440685 9.096407052161348  5.3463157812499995 9.16105242628725  C 4.815781123768971 9.344164494529245  4.398901545104371 9.761044063618028  4.21578947265625 10.291578708912553  C 4.137252057076885 10.568554951638832  4.106635760220884 10.856917764948639  4.125263164062499 11.144210271358654  L 4.125263164062499 11.23157868732053  L 1.79789474609375 11.231578687320528  C 1.7975438607516199 11.231578396604972  1.7971929753062368 11.231578251247171  1.7968420898436746 11.231578251247171  C 1.0951497853485341 11.231578251247171  0.5263157812499248 11.800412242279535  0.5263157812499248 12.502104530656641  L 0.52631578125 17.694736429485296  C 0.5268965443763363 18.3960176104322  1.0955602166305058 18.964210528165847  1.7968416541642522 18.964210528165847  C 1.7971926848524031 18.964210528165847  1.7975437155261809 18.964210382687696  1.79789474609375 18.96421009173144  L 6.99052630859375 18.96421009173144  C 7.691807753599935 18.964210343189723  8.260471632691335 18.396017617705148  8.26105263671875 17.694736429485296  L 8.26105263671875 12.502104966729998  C 8.26105263671875 11.800412678352892  7.69221863262014 11.231578687320528  6.990526328125001 11.231578687320528  L 5.14210525390625 11.23157868732053  L 5.14210525390625 10.875789222836849  L 5.14210525390625 10.770526061192268  L 5.14210525390625 10.741052389994287  L 5.14210525390625 10.729473444947757  C 5.143041389454527 10.71896794339317  5.143041389454527 10.708400001915217  5.14210525390625 10.697894500360633  L 5.14210525390625 10.715789226512086  C 5.1527783051017035 10.663353768249575  5.166842950498392 10.611666212283307  5.18421052734375 10.561052394128929  C 5.1890177152079495 10.54858124608  5.194284471968128 10.536292145083573  5.2 10.524210285600198  C 5.221003136538229 10.483000945987857  5.244194120324515 10.442943797244217  5.26947369140625 10.404210288356628  C 5.28421052734375 10.381052398263568  5.30315791015625 10.359999762028403  5.316842109374999 10.336841871935347  L 5.30421052734375 10.357894508170512  C 5.33894736328125 10.318947145783893  5.376842109375 10.285262927807628  5.40947369140625 10.252631346525934  C 5.4221052734374995 10.243157655337296  5.43368421875 10.233683983679908  5.446315781250001 10.226315546349165  C 5.489152157420295 10.200937909049607  5.533438561755723 10.178091754974014  5.57894736328125 10.157894512764559  L 5.55789474609375 10.157894512764559  C 5.5789473828125 10.152631348822952  5.6021052734375 10.141052403776426  5.623157890625 10.133683985976926  C 5.674350141230207 10.117339942339814  5.726348546998617 10.103637658247486  5.778947363281251 10.092631350201165  C 5.7989473632812505 10.092631350201165  5.82 10.087368186259564  5.837894746093751 10.086315549564992  L 14.145263164062502 10.086315549564993  C 14.191526082162502 10.096045056374336  14.237210924252013 10.108344824028437  14.28210525390625 10.123157658093717  C 14.308421035156249 10.131578712587787  14.3347368359375 10.145262911492207  14.36105263671875 10.15157871212838  L 14.34 10.15157871212838  C 14.381227840444556 10.172547811869245  14.421286795635222 10.195739840427965  14.459999999999999 10.221052401938804  L 14.49052630859375 10.242105018642722  L 14.509473691406248 10.263157654877887  C 14.543539203554666 10.293602787384902  14.575870654914029 10.32593424452226  14.606315781249998 10.359999762028401  L 14.593684218749999 10.338947125793235  C 14.6052631640625 10.358947125333831  14.621052636718748 10.37684187101653  14.633684218749998 10.394736597167984  C 14.66179463612705 10.43708990893322  14.687450860125612 10.48102180646168  14.710526308593748 10.526315539458087  C 14.710526308593748 10.534736593952154  14.719999999999997 10.547368175693252  14.725263164062499 10.559999757434355  C 14.728728469254929 10.568186899367795  14.731544177631044 10.576634024302102  14.73368421875 10.585262920916552  C 14.748533078392335 10.630146456479272  14.760833388355092 10.675833334978972  14.770526308593748 10.722105007617008  L 14.770526308593745 10.729473444947752  C 14.771169726377435 10.719659415845012  14.771169726377435 10.709813783321257  14.770526308593748 10.69999975421852  C 14.770526308593748 10.718947117064545  14.770526308593748 10.73894711660514  14.775789472656246 10.757894498982413  L 14.775789472656246 11.265262905296794  L 13.01052630859375 11.265262905296794  C 12.30883400409861 11.265262905296797  11.740000000000002 11.834096896329157  11.740000000000002 12.535789184706259  L 11.740000000000002 17.728420647461558  C 11.739999709295223 17.728771526285097  11.739999563942817 17.729122405212248  11.739999563942817 17.729473284156207  C 11.739999563942817 18.431165572533317  12.308833568041429 18.999999563565677  13.010525872536567 18.999999563565677  L 18.20210525390625 18.999999563565602  C 18.202456284474273 18.999999854521853  18.202807315147137 19  18.203158345835742 19  C 18.90443978336949 19  19.473103455623665 18.43180708226636  19.47368421875 17.730525901319456  L 19.47368421875 12.537894458095403  C 19.4736842187512 11.836781768449134  18.905321487420025 11.268419050173382  18.20421052734495 11.268419050173382  C 18.20350876917026 11.268419050173382  18.202807011115944 11.268419632065537  18.20210525390625 11.268420795849256  Z " stroke-width="0" stroke-dasharray="0" stroke="rgba(255, 255, 255, 0)" fill="none" transform="matrix(1 0 0 1 21 76 )" class="stroke" mask="url(#Clip725)" />
  </g>
</svg>