<?xml version="1.0" encoding="utf-8"?>
<svg version="1.1" xmlns:xlink="http://www.w3.org/1999/xlink" width="18px" height="20px" xmlns="http://www.w3.org/2000/svg">
  <defs>
    <pattern id="BGPattern" patternUnits="userSpaceOnUse" alignment="0 0" imageRepeat="None" />
    <mask fill="white" id="Clip726">
      <path d="M 13.604259726562505 18.77571429036458  L 13.600051938920457 18.776190462239583  C 13.431740241477273 18.776190462239583  13.263428575994322 18.707619042968748  13.128311697443182 18.57142858072916  L 13.17880518110796 18.618095247395832  C 13.158425739459549 18.60119827848317  13.138919102306284 18.583237714075274  13.120363636363637 18.564285709635413  L 13.108207787642046 18.550476204427085  L 10.838337666903405 16.25142858072916  C 10.662174164159193 16.100919967147938  10.579123407341672 15.865526805345215  10.620935060369321 15.635238085937495  L 10.635896090198864 15.569047623697914  C 10.669558423295458 15.330952376302076  10.872000000000003 15.159523828124996  11.107636363636365 15.091904752604162  C 11.343272727272726 15.023333333333333  11.612571424005685 15.12571429036458  11.780883121448866 15.296666666666665  L 12.9132467578125 16.421904752604163  L 12.9132467578125 11.975714290364586  C 12.9132467578125 11.588095247395833  13.22415584872159 11.270952376302084  13.604259726562502 11.270952376302084  C 13.983896090198863 11.270952376302084  14.294805181107956 11.588095247395831  14.294805181107956 11.975714290364586  L 14.294805181107956 16.38714287109375  L 15.418753242187503 15.228095247395832  C 15.536571424005686 15.109047623697915  15.705818181818184 15.041428580729164  15.859168817471595 15.026666666666664  L 15.923688302556823 15.023333333333333  C 16.125662333096596 15.023333333333333  16.294441544744323 15.091904752604162  16.395428575994323 15.262380957031247  C 16.530077940340913 15.39857141927083  16.59740260653409 15.569047623697914  16.59740260653409 15.739999999999998  C 16.59740260653409 15.910476204427082  16.530077940340913 16.080952376302083  16.395428575994323 16.217619042968746  L 14.071792212357957 18.570952376302085  C 14.055377974452957 18.587472156222404  14.038216485128265 18.603203524695445  14.020363636363637 18.618095247395832  C 13.916571424005689 18.729999999999997  13.771636363636365 18.77571429036458  13.604259726562505 18.77571429036458  Z M 6.023220788352278 19.493809537760416  L 2.513454545454546 19.493809537760416  C 1.2787013032670467 19.493809537760416  0.2655584552556821 18.46238095703125  0.2337662428977285 17.204761914062498  L 0.2337662428977285 4.596190462239584  C 0.2337662428977285 3.3390475911458335  1.0323116974431823 2.306666666666667  2.298389605823865 2.306666666666667  L 2.926753242187502 2.306666666666667  C 3.341181977915562 2.306666666666667  3.6771428480113646 2.6488490343568376  3.6771428480113646 3.070952376302083  C 3.6771428480113646 3.493055718247329  3.341181977915562 3.8352380859375  2.926753242187502 3.8352380859375  L 2.5134545454545476 3.8352380859375  C 1.943064939630684 3.8352380859375  1.7149090909090938 4.286190462239583  2 4.834285709635416  L 2 17.204761914062498  C 1.7149090909090938 17.75238095703125  2.1581298792613666 18.052857161458334  2.6967272727272777 18.05285712890625  L 5.9918960901988685 18.05285712890625  C 6.384623362926142 18.05285712890625  6.70628569602273 18.372857128906254  6.715168817471596 18.77333333333334  C 6.715283500362518 18.77857062338395  6.715340847154488 18.78380905301959  6.715340847154488 18.789047645470546  C 6.715340847154488 19.178276902868827  6.40554514788416 19.493809559533048  6.0233927860749406 19.493809559533048  Z M 15.056415575284094 7.531904752604165  L 15.056415575284086 4.835238085937495  C 15.053601201469393 4.284222447398663  14.615595845015502 3.8383183233241613  14.07459739346591 3.8357142903645807  L 13.900207787642042 3.8357142903645807  C 13.485779051913987 3.835714290364578  13.14981818181818 3.493531922674409  13.14981818181818 3.0714285807291635  C 13.14981818181818 2.6493252387839155  13.485779051913987 2.3071428710937467  13.900207787642042 2.3071428710937467  L 14.160623362926135 2.3071428710937467  C 15.427636363636362 2.3071428710937467  16.440311665482955 3.338571451822914  16.440311697443178 4.59619046223958  L 16.44031169744318 7.531428580729166  C 16.44031169744318 7.9206578381274415  16.130515998172857 8.236190494791664  15.748363636363633 8.236190494791664  C 15.366211274554411 8.236190494791664  15.056415575284086 7.9206578381274415  15.056415575284086 7.531428580729166  Z M 12.493402606534088 2.758095247395831  C 12.493402606534088 3.75809524739583  11.70140260653409 4.563809537760415  10.720051938920454 4.563809537760415  L 6.0344415447443165 4.563809537760415  C 5.052623362926136 4.563809537760415  4.229766210937501 3.7576190755208323  4.229766242897727 2.758095247395831  C 4.229766242897727 1.7580952473958313  5.021298696732956 0.9523809570312485  6.0344415447443165 0.9523809570312485  L 10.688727272727272 0.9523809570312485  C 11.670077908380682 0.9523809570312485  12.493402606534088 1.7585714192708313  12.493402606534088 2.758095247395831  Z M 6.1896623330965905 3.3738095377604145  L 10.255324666193182 3.3738095377604145  C 10.261040286649008 3.3739682543481813  10.266757765474585 3.374047623697914  10.272475509823817 3.374047623697914  C 10.620027583117823 3.374047623697914  10.901774206556771 3.08708347019528  10.901774206556771 2.733095247395833  C 10.901774206556771 2.379107024596383  10.620027583117823 2.0921428710937473  10.272475509823817 2.0921428710937473  C 10.266757765474585 2.0921428710937473  10.261040286649008 2.092222240443481  10.255324666193182 2.092380957031249  L 6.190129879261364 2.092380957031249  C 6.184414258805535 2.092222240443481  6.178696779979957 2.0921428710937473  6.172979035630726 2.0921428710937473  C 5.825426962336723 2.0921428710937473  5.543680338897771 2.379107024596383  5.543680338897771 2.733095247395833  C 5.543680338897771 3.08708347019528  5.825426962336723 3.374047623697914  6.172979035630726 3.374047623697914  C 6.178696779979957 3.374047623697914  6.184414258805535 3.3739682543481813  6.190129879261364 3.3738095377604145  Z M 8.377714272017045 10.23952379557291  C 8.218753242187502 10.23952379557291  8.060727272727274 10.17476188151041  7.934025969460227 10.045714290364575  L 5.084883121448863 7.14380953776041  C 4.863272727272727 6.885714290364575  4.894597393465909 6.49857145182291  5.116207787642043 6.272857128906244  C 5.3378181818181805 6.047142805989577  5.717922059659091 6.015238085937492  5.971324666193178 6.208571419270829  L 8.3772467578125 8.659047623697912  L 10.78363636363637 6.20857141927083  C 11.037584051852088 5.982909075814913  11.41613022016496 5.982909075814913  11.670077908380682 6.208571419270825  C 11.791271479987016 6.326293094166476  11.859849549813116 6.489426534426905  11.859849549813116 6.659999999999991  C 11.859849549813116 6.8305734655730745  11.791271479987016 6.993706905833511  11.670077908380682 7.111428580729161  L 8.820467546164773 10.013809537760412  C 8.6942337890625 10.142380957031243  8.535272727272723 10.239523828124995  8.3772467578125 10.23952379557291  Z M 11.500363636363637 12.912857128906243  C 11.482617451874601 13.306524896302243  11.164008232446223 13.616350603648176  10.77709090909091 13.61619046223958  L 5.775428575994318 13.61619046223958  C 5.393921751901142 13.61619046223958  5.084649364346591 13.301190808248833  5.084649364346591 12.912619042968744  C 5.084649364346591 12.524047277688657  5.393921751901142 12.209047623697911  5.775428575994318 12.209047623697911  L 10.840207787642044 12.209047623697911  C 11.20529183656359 12.20904758226337  11.501062990763687 12.510295980059764  11.501062990763687 12.881904711169623  C 11.501062990763687 12.892226281443069  11.500829810917656 12.902546485336252  11.500363636363637 12.912857128906243  Z M 10.77709090909091 10.80190475260416  L 5.775428575994318 10.80190475260416  C 5.394050852383892 10.80190475260416  5.084883121448863 10.487011693318486  5.084883121448863 10.098571419270828  C 5.084883121448863 9.710131145223171  5.394050852383892 9.395238085937496  5.775428575994318 9.395238085937496  L 10.840207787642044 9.395238085937496  C 11.205270473054663 9.395238051787315  11.50104162725476 9.69648644958371  11.50104162725476 10.068095180693561  C 11.50104162725476 10.078257838239447  11.50081557229159 10.088419191554763  11.500363636363637 10.098571419270828  C 11.482859585049928 10.492426665710095  11.164181088880536 10.8025295586104  10.77709090909091 10.802380957031243  Z M 8.319974030539775 16.003095214843754  C 7.938467206446593 16.003095214843754  7.629194818892046 15.68809556085301  7.629194818892046 15.29952379557291  L 7.629194818892046 10.397142871093752  C 7.629194818892046 9.849523828125001  7.939636363636365 9.400952408854165  8.319740273437501 9.400952376302083  C 8.699844183238636 9.400952376302083  9.01075327414773 9.849047623697919  9.0107532421875 10.397142871093752  L 9.0107532421875 15.299523795572918  C 9.0107532421875 15.688095560853004  8.701480854632951 16.003095214843754  8.319974030539775 16.003095214843754  Z " fill-rule="evenodd" />
    </mask>
  </defs>
  <g transform="matrix(1 0 0 1 -172 -277 )">
    <path d="M 13.604259726562505 18.77571429036458  L 13.600051938920457 18.776190462239583  C 13.431740241477273 18.776190462239583  13.263428575994322 18.707619042968748  13.128311697443182 18.57142858072916  L 13.17880518110796 18.618095247395832  C 13.158425739459549 18.60119827848317  13.138919102306284 18.583237714075274  13.120363636363637 18.564285709635413  L 13.108207787642046 18.550476204427085  L 10.838337666903405 16.25142858072916  C 10.662174164159193 16.100919967147938  10.579123407341672 15.865526805345215  10.620935060369321 15.635238085937495  L 10.635896090198864 15.569047623697914  C 10.669558423295458 15.330952376302076  10.872000000000003 15.159523828124996  11.107636363636365 15.091904752604162  C 11.343272727272726 15.023333333333333  11.612571424005685 15.12571429036458  11.780883121448866 15.296666666666665  L 12.9132467578125 16.421904752604163  L 12.9132467578125 11.975714290364586  C 12.9132467578125 11.588095247395833  13.22415584872159 11.270952376302084  13.604259726562502 11.270952376302084  C 13.983896090198863 11.270952376302084  14.294805181107956 11.588095247395831  14.294805181107956 11.975714290364586  L 14.294805181107956 16.38714287109375  L 15.418753242187503 15.228095247395832  C 15.536571424005686 15.109047623697915  15.705818181818184 15.041428580729164  15.859168817471595 15.026666666666664  L 15.923688302556823 15.023333333333333  C 16.125662333096596 15.023333333333333  16.294441544744323 15.091904752604162  16.395428575994323 15.262380957031247  C 16.530077940340913 15.39857141927083  16.59740260653409 15.569047623697914  16.59740260653409 15.739999999999998  C 16.59740260653409 15.910476204427082  16.530077940340913 16.080952376302083  16.395428575994323 16.217619042968746  L 14.071792212357957 18.570952376302085  C 14.055377974452957 18.587472156222404  14.038216485128265 18.603203524695445  14.020363636363637 18.618095247395832  C 13.916571424005689 18.729999999999997  13.771636363636365 18.77571429036458  13.604259726562505 18.77571429036458  Z M 6.023220788352278 19.493809537760416  L 2.513454545454546 19.493809537760416  C 1.2787013032670467 19.493809537760416  0.2655584552556821 18.46238095703125  0.2337662428977285 17.204761914062498  L 0.2337662428977285 4.596190462239584  C 0.2337662428977285 3.3390475911458335  1.0323116974431823 2.306666666666667  2.298389605823865 2.306666666666667  L 2.926753242187502 2.306666666666667  C 3.341181977915562 2.306666666666667  3.6771428480113646 2.6488490343568376  3.6771428480113646 3.070952376302083  C 3.6771428480113646 3.493055718247329  3.341181977915562 3.8352380859375  2.926753242187502 3.8352380859375  L 2.5134545454545476 3.8352380859375  C 1.943064939630684 3.8352380859375  1.7149090909090938 4.286190462239583  2 4.834285709635416  L 2 17.204761914062498  C 1.7149090909090938 17.75238095703125  2.1581298792613666 18.052857161458334  2.6967272727272777 18.05285712890625  L 5.9918960901988685 18.05285712890625  C 6.384623362926142 18.05285712890625  6.70628569602273 18.372857128906254  6.715168817471596 18.77333333333334  C 6.715283500362518 18.77857062338395  6.715340847154488 18.78380905301959  6.715340847154488 18.789047645470546  C 6.715340847154488 19.178276902868827  6.40554514788416 19.493809559533048  6.0233927860749406 19.493809559533048  Z M 15.056415575284094 7.531904752604165  L 15.056415575284086 4.835238085937495  C 15.053601201469393 4.284222447398663  14.615595845015502 3.8383183233241613  14.07459739346591 3.8357142903645807  L 13.900207787642042 3.8357142903645807  C 13.485779051913987 3.835714290364578  13.14981818181818 3.493531922674409  13.14981818181818 3.0714285807291635  C 13.14981818181818 2.6493252387839155  13.485779051913987 2.3071428710937467  13.900207787642042 2.3071428710937467  L 14.160623362926135 2.3071428710937467  C 15.427636363636362 2.3071428710937467  16.440311665482955 3.338571451822914  16.440311697443178 4.59619046223958  L 16.44031169744318 7.531428580729166  C 16.44031169744318 7.9206578381274415  16.130515998172857 8.236190494791664  15.748363636363633 8.236190494791664  C 15.366211274554411 8.236190494791664  15.056415575284086 7.9206578381274415  15.056415575284086 7.531428580729166  Z M 12.493402606534088 2.758095247395831  C 12.493402606534088 3.75809524739583  11.70140260653409 4.563809537760415  10.720051938920454 4.563809537760415  L 6.0344415447443165 4.563809537760415  C 5.052623362926136 4.563809537760415  4.229766210937501 3.7576190755208323  4.229766242897727 2.758095247395831  C 4.229766242897727 1.7580952473958313  5.021298696732956 0.9523809570312485  6.0344415447443165 0.9523809570312485  L 10.688727272727272 0.9523809570312485  C 11.670077908380682 0.9523809570312485  12.493402606534088 1.7585714192708313  12.493402606534088 2.758095247395831  Z M 6.1896623330965905 3.3738095377604145  L 10.255324666193182 3.3738095377604145  C 10.261040286649008 3.3739682543481813  10.266757765474585 3.374047623697914  10.272475509823817 3.374047623697914  C 10.620027583117823 3.374047623697914  10.901774206556771 3.08708347019528  10.901774206556771 2.733095247395833  C 10.901774206556771 2.379107024596383  10.620027583117823 2.0921428710937473  10.272475509823817 2.0921428710937473  C 10.266757765474585 2.0921428710937473  10.261040286649008 2.092222240443481  10.255324666193182 2.092380957031249  L 6.190129879261364 2.092380957031249  C 6.184414258805535 2.092222240443481  6.178696779979957 2.0921428710937473  6.172979035630726 2.0921428710937473  C 5.825426962336723 2.0921428710937473  5.543680338897771 2.379107024596383  5.543680338897771 2.733095247395833  C 5.543680338897771 3.08708347019528  5.825426962336723 3.374047623697914  6.172979035630726 3.374047623697914  C 6.178696779979957 3.374047623697914  6.184414258805535 3.3739682543481813  6.190129879261364 3.3738095377604145  Z M 8.377714272017045 10.23952379557291  C 8.218753242187502 10.23952379557291  8.060727272727274 10.17476188151041  7.934025969460227 10.045714290364575  L 5.084883121448863 7.14380953776041  C 4.863272727272727 6.885714290364575  4.894597393465909 6.49857145182291  5.116207787642043 6.272857128906244  C 5.3378181818181805 6.047142805989577  5.717922059659091 6.015238085937492  5.971324666193178 6.208571419270829  L 8.3772467578125 8.659047623697912  L 10.78363636363637 6.20857141927083  C 11.037584051852088 5.982909075814913  11.41613022016496 5.982909075814913  11.670077908380682 6.208571419270825  C 11.791271479987016 6.326293094166476  11.859849549813116 6.489426534426905  11.859849549813116 6.659999999999991  C 11.859849549813116 6.8305734655730745  11.791271479987016 6.993706905833511  11.670077908380682 7.111428580729161  L 8.820467546164773 10.013809537760412  C 8.6942337890625 10.142380957031243  8.535272727272723 10.239523828124995  8.3772467578125 10.23952379557291  Z M 11.500363636363637 12.912857128906243  C 11.482617451874601 13.306524896302243  11.164008232446223 13.616350603648176  10.77709090909091 13.61619046223958  L 5.775428575994318 13.61619046223958  C 5.393921751901142 13.61619046223958  5.084649364346591 13.301190808248833  5.084649364346591 12.912619042968744  C 5.084649364346591 12.524047277688657  5.393921751901142 12.209047623697911  5.775428575994318 12.209047623697911  L 10.840207787642044 12.209047623697911  C 11.20529183656359 12.20904758226337  11.501062990763687 12.510295980059764  11.501062990763687 12.881904711169623  C 11.501062990763687 12.892226281443069  11.500829810917656 12.902546485336252  11.500363636363637 12.912857128906243  Z M 10.77709090909091 10.80190475260416  L 5.775428575994318 10.80190475260416  C 5.394050852383892 10.80190475260416  5.084883121448863 10.487011693318486  5.084883121448863 10.098571419270828  C 5.084883121448863 9.710131145223171  5.394050852383892 9.395238085937496  5.775428575994318 9.395238085937496  L 10.840207787642044 9.395238085937496  C 11.205270473054663 9.395238051787315  11.50104162725476 9.69648644958371  11.50104162725476 10.068095180693561  C 11.50104162725476 10.078257838239447  11.50081557229159 10.088419191554763  11.500363636363637 10.098571419270828  C 11.482859585049928 10.492426665710095  11.164181088880536 10.8025295586104  10.77709090909091 10.802380957031243  Z M 8.319974030539775 16.003095214843754  C 7.938467206446593 16.003095214843754  7.629194818892046 15.68809556085301  7.629194818892046 15.29952379557291  L 7.629194818892046 10.397142871093752  C 7.629194818892046 9.849523828125001  7.939636363636365 9.400952408854165  8.319740273437501 9.400952376302083  C 8.699844183238636 9.400952376302083  9.01075327414773 9.849047623697919  9.0107532421875 10.397142871093752  L 9.0107532421875 15.299523795572918  C 9.0107532421875 15.688095560853004  8.701480854632951 16.003095214843754  8.319974030539775 16.003095214843754  Z " fill-rule="nonzero" fill="rgba(255, 255, 255, 1)" stroke="none" transform="matrix(1 0 0 1 172 277 )" class="fill" />
    <path d="M 13.604259726562505 18.77571429036458  L 13.600051938920457 18.776190462239583  C 13.431740241477273 18.776190462239583  13.263428575994322 18.707619042968748  13.128311697443182 18.57142858072916  L 13.17880518110796 18.618095247395832  C 13.158425739459549 18.60119827848317  13.138919102306284 18.583237714075274  13.120363636363637 18.564285709635413  L 13.108207787642046 18.550476204427085  L 10.838337666903405 16.25142858072916  C 10.662174164159193 16.100919967147938  10.579123407341672 15.865526805345215  10.620935060369321 15.635238085937495  L 10.635896090198864 15.569047623697914  C 10.669558423295458 15.330952376302076  10.872000000000003 15.159523828124996  11.107636363636365 15.091904752604162  C 11.343272727272726 15.023333333333333  11.612571424005685 15.12571429036458  11.780883121448866 15.296666666666665  L 12.9132467578125 16.421904752604163  L 12.9132467578125 11.975714290364586  C 12.9132467578125 11.588095247395833  13.22415584872159 11.270952376302084  13.604259726562502 11.270952376302084  C 13.983896090198863 11.270952376302084  14.294805181107956 11.588095247395831  14.294805181107956 11.975714290364586  L 14.294805181107956 16.38714287109375  L 15.418753242187503 15.228095247395832  C 15.536571424005686 15.109047623697915  15.705818181818184 15.041428580729164  15.859168817471595 15.026666666666664  L 15.923688302556823 15.023333333333333  C 16.125662333096596 15.023333333333333  16.294441544744323 15.091904752604162  16.395428575994323 15.262380957031247  C 16.530077940340913 15.39857141927083  16.59740260653409 15.569047623697914  16.59740260653409 15.739999999999998  C 16.59740260653409 15.910476204427082  16.530077940340913 16.080952376302083  16.395428575994323 16.217619042968746  L 14.071792212357957 18.570952376302085  C 14.055377974452957 18.587472156222404  14.038216485128265 18.603203524695445  14.020363636363637 18.618095247395832  C 13.916571424005689 18.729999999999997  13.771636363636365 18.77571429036458  13.604259726562505 18.77571429036458  Z " stroke-width="0" stroke-dasharray="0" stroke="rgba(255, 255, 255, 0)" fill="none" transform="matrix(1 0 0 1 172 277 )" class="stroke" mask="url(#Clip726)" />
    <path d="M 6.023220788352278 19.493809537760416  L 2.513454545454546 19.493809537760416  C 1.2787013032670467 19.493809537760416  0.2655584552556821 18.46238095703125  0.2337662428977285 17.204761914062498  L 0.2337662428977285 4.596190462239584  C 0.2337662428977285 3.3390475911458335  1.0323116974431823 2.306666666666667  2.298389605823865 2.306666666666667  L 2.926753242187502 2.306666666666667  C 3.341181977915562 2.306666666666667  3.6771428480113646 2.6488490343568376  3.6771428480113646 3.070952376302083  C 3.6771428480113646 3.493055718247329  3.341181977915562 3.8352380859375  2.926753242187502 3.8352380859375  L 2.5134545454545476 3.8352380859375  C 1.943064939630684 3.8352380859375  1.7149090909090938 4.286190462239583  2 4.834285709635416  L 2 17.204761914062498  C 1.7149090909090938 17.75238095703125  2.1581298792613666 18.052857161458334  2.6967272727272777 18.05285712890625  L 5.9918960901988685 18.05285712890625  C 6.384623362926142 18.05285712890625  6.70628569602273 18.372857128906254  6.715168817471596 18.77333333333334  C 6.715283500362518 18.77857062338395  6.715340847154488 18.78380905301959  6.715340847154488 18.789047645470546  C 6.715340847154488 19.178276902868827  6.40554514788416 19.493809559533048  6.0233927860749406 19.493809559533048  Z " stroke-width="0" stroke-dasharray="0" stroke="rgba(255, 255, 255, 0)" fill="none" transform="matrix(1 0 0 1 172 277 )" class="stroke" mask="url(#Clip726)" />
    <path d="M 15.056415575284094 7.531904752604165  L 15.056415575284086 4.835238085937495  C 15.053601201469393 4.284222447398663  14.615595845015502 3.8383183233241613  14.07459739346591 3.8357142903645807  L 13.900207787642042 3.8357142903645807  C 13.485779051913987 3.835714290364578  13.14981818181818 3.493531922674409  13.14981818181818 3.0714285807291635  C 13.14981818181818 2.6493252387839155  13.485779051913987 2.3071428710937467  13.900207787642042 2.3071428710937467  L 14.160623362926135 2.3071428710937467  C 15.427636363636362 2.3071428710937467  16.440311665482955 3.338571451822914  16.440311697443178 4.59619046223958  L 16.44031169744318 7.531428580729166  C 16.44031169744318 7.9206578381274415  16.130515998172857 8.236190494791664  15.748363636363633 8.236190494791664  C 15.366211274554411 8.236190494791664  15.056415575284086 7.9206578381274415  15.056415575284086 7.531428580729166  Z " stroke-width="0" stroke-dasharray="0" stroke="rgba(255, 255, 255, 0)" fill="none" transform="matrix(1 0 0 1 172 277 )" class="stroke" mask="url(#Clip726)" />
    <path d="M 12.493402606534088 2.758095247395831  C 12.493402606534088 3.75809524739583  11.70140260653409 4.563809537760415  10.720051938920454 4.563809537760415  L 6.0344415447443165 4.563809537760415  C 5.052623362926136 4.563809537760415  4.229766210937501 3.7576190755208323  4.229766242897727 2.758095247395831  C 4.229766242897727 1.7580952473958313  5.021298696732956 0.9523809570312485  6.0344415447443165 0.9523809570312485  L 10.688727272727272 0.9523809570312485  C 11.670077908380682 0.9523809570312485  12.493402606534088 1.7585714192708313  12.493402606534088 2.758095247395831  Z " stroke-width="0" stroke-dasharray="0" stroke="rgba(255, 255, 255, 0)" fill="none" transform="matrix(1 0 0 1 172 277 )" class="stroke" mask="url(#Clip726)" />
    <path d="M 6.1896623330965905 3.3738095377604145  L 10.255324666193182 3.3738095377604145  C 10.261040286649008 3.3739682543481813  10.266757765474585 3.374047623697914  10.272475509823817 3.374047623697914  C 10.620027583117823 3.374047623697914  10.901774206556771 3.08708347019528  10.901774206556771 2.733095247395833  C 10.901774206556771 2.379107024596383  10.620027583117823 2.0921428710937473  10.272475509823817 2.0921428710937473  C 10.266757765474585 2.0921428710937473  10.261040286649008 2.092222240443481  10.255324666193182 2.092380957031249  L 6.190129879261364 2.092380957031249  C 6.184414258805535 2.092222240443481  6.178696779979957 2.0921428710937473  6.172979035630726 2.0921428710937473  C 5.825426962336723 2.0921428710937473  5.543680338897771 2.379107024596383  5.543680338897771 2.733095247395833  C 5.543680338897771 3.08708347019528  5.825426962336723 3.374047623697914  6.172979035630726 3.374047623697914  C 6.178696779979957 3.374047623697914  6.184414258805535 3.3739682543481813  6.190129879261364 3.3738095377604145  Z " stroke-width="0" stroke-dasharray="0" stroke="rgba(255, 255, 255, 0)" fill="none" transform="matrix(1 0 0 1 172 277 )" class="stroke" mask="url(#Clip726)" />
    <path d="M 8.377714272017045 10.23952379557291  C 8.218753242187502 10.23952379557291  8.060727272727274 10.17476188151041  7.934025969460227 10.045714290364575  L 5.084883121448863 7.14380953776041  C 4.863272727272727 6.885714290364575  4.894597393465909 6.49857145182291  5.116207787642043 6.272857128906244  C 5.3378181818181805 6.047142805989577  5.717922059659091 6.015238085937492  5.971324666193178 6.208571419270829  L 8.3772467578125 8.659047623697912  L 10.78363636363637 6.20857141927083  C 11.037584051852088 5.982909075814913  11.41613022016496 5.982909075814913  11.670077908380682 6.208571419270825  C 11.791271479987016 6.326293094166476  11.859849549813116 6.489426534426905  11.859849549813116 6.659999999999991  C 11.859849549813116 6.8305734655730745  11.791271479987016 6.993706905833511  11.670077908380682 7.111428580729161  L 8.820467546164773 10.013809537760412  C 8.6942337890625 10.142380957031243  8.535272727272723 10.239523828124995  8.3772467578125 10.23952379557291  Z " stroke-width="0" stroke-dasharray="0" stroke="rgba(255, 255, 255, 0)" fill="none" transform="matrix(1 0 0 1 172 277 )" class="stroke" mask="url(#Clip726)" />
    <path d="M 11.500363636363637 12.912857128906243  C 11.482617451874601 13.306524896302243  11.164008232446223 13.616350603648176  10.77709090909091 13.61619046223958  L 5.775428575994318 13.61619046223958  C 5.393921751901142 13.61619046223958  5.084649364346591 13.301190808248833  5.084649364346591 12.912619042968744  C 5.084649364346591 12.524047277688657  5.393921751901142 12.209047623697911  5.775428575994318 12.209047623697911  L 10.840207787642044 12.209047623697911  C 11.20529183656359 12.20904758226337  11.501062990763687 12.510295980059764  11.501062990763687 12.881904711169623  C 11.501062990763687 12.892226281443069  11.500829810917656 12.902546485336252  11.500363636363637 12.912857128906243  Z " stroke-width="0" stroke-dasharray="0" stroke="rgba(255, 255, 255, 0)" fill="none" transform="matrix(1 0 0 1 172 277 )" class="stroke" mask="url(#Clip726)" />
    <path d="M 10.77709090909091 10.80190475260416  L 5.775428575994318 10.80190475260416  C 5.394050852383892 10.80190475260416  5.084883121448863 10.487011693318486  5.084883121448863 10.098571419270828  C 5.084883121448863 9.710131145223171  5.394050852383892 9.395238085937496  5.775428575994318 9.395238085937496  L 10.840207787642044 9.395238085937496  C 11.205270473054663 9.395238051787315  11.50104162725476 9.69648644958371  11.50104162725476 10.068095180693561  C 11.50104162725476 10.078257838239447  11.50081557229159 10.088419191554763  11.500363636363637 10.098571419270828  C 11.482859585049928 10.492426665710095  11.164181088880536 10.8025295586104  10.77709090909091 10.802380957031243  Z " stroke-width="0" stroke-dasharray="0" stroke="rgba(255, 255, 255, 0)" fill="none" transform="matrix(1 0 0 1 172 277 )" class="stroke" mask="url(#Clip726)" />
    <path d="M 8.319974030539775 16.003095214843754  C 7.938467206446593 16.003095214843754  7.629194818892046 15.68809556085301  7.629194818892046 15.29952379557291  L 7.629194818892046 10.397142871093752  C 7.629194818892046 9.849523828125001  7.939636363636365 9.400952408854165  8.319740273437501 9.400952376302083  C 8.699844183238636 9.400952376302083  9.01075327414773 9.849047623697919  9.0107532421875 10.397142871093752  L 9.0107532421875 15.299523795572918  C 9.0107532421875 15.688095560853004  8.701480854632951 16.003095214843754  8.319974030539775 16.003095214843754  Z " stroke-width="0" stroke-dasharray="0" stroke="rgba(255, 255, 255, 0)" fill="none" transform="matrix(1 0 0 1 172 277 )" class="stroke" mask="url(#Clip726)" />
  </g>
</svg>