<svg t="1750142221265" class="icon" viewBox="0 0 1024 1024" version="1.1" xmlns="http://www.w3.org/2000/svg" p-id="32466" width="20" height="20"><path d="M508.474754 294.609836c-5.371803-10.575738-11.75082-29.041311-19.976393-42.302951a63.622295 63.622295 0 0 1-10.911476-29.377049c0-21.319344 27.362623-29.377049 46.499672-26.691147 24.508852 2.685902 43.645902 34.748852 54.725246 53.382295 24.508852 42.638689 24.508852 69.329836 5.371804 80.073442h90.145573a16.686164 16.686164 0 0 1-8.057705-24.005246 137.216 137.216 0 0 1 16.283279-26.691147c13.765246-21.319344 27.362623-45.32459 41.127869-66.811803a35.386754 35.386754 0 0 1 62.782951 32.06295 248.445902 248.445902 0 0 1-54.725246 85.445246h23.501639c27.362623 0 42.135082 21.319344 42.135082 48.010492v138.659672c0 29.377049-24.340984 44.820984-54.389508 44.820984h-35.756066v171.394098c0 22.326557 5.371803 23.669508 13.597377 23.669508a82.977574 82.977574 0 0 0 11.079345-0.335737c26.187541 0.671475 23.33377-28.705574 26.187541-87.459673a35.655344 35.655344 0 0 1 70.840655 5.371804c2.685902 112.136393-42.47082 154.775082-97.363934 154.775082h-24.340984a68.82623 68.82623 0 0 1-73.02295-72.015738V561.185574h-37.770492c0 125.398033-44.988852 219.40459-137.988197 259.357377a51.73718 51.73718 0 0 1-51.871475 2.685901 28.957377 28.957377 0 0 1-16.451148-26.691147 43.645902 43.645902 0 0 1 30.048525-39.952787c73.862295-29.377049 109.114754-99.378361 109.114754-195.399344h-22.494426a35.252459 35.252459 0 0 1-39.61705-40.624263v-146.381639c0-32.062951 10.24-44.485246 45.828197-44.485246h24.676721c-8.225574-2.685902-18.129836-11.079344-29.20918-35.08459z m27.86623 107.268197v73.862295a12.187279 12.187279 0 0 0 12.254426 12.086557h170.722623a12.187279 12.187279 0 0 0 12.254426-12.086557v-73.19082a12.187279 12.187279 0 0 0-12.086557-12.254426l-170.890492-0.503607a12.187279 12.187279 0 0 0-12.254426 12.086558z m-278.830164 41.799344l2.518032-5.203934H206.478689c-20.48 0-25.516066-13.09377-25.516066-36.59541 0-20.983607 10.743607-35.756066 28.537705-35.756066l57.914754 0.503607 0.167869-59.089836c-12.758033 0-30.552131 2.518033-40.792131 2.518032a33.842361 33.842361 0 0 1-38.274099-34.077377c0-23.501639 12.758033-34.077377 35.756066-36.595409 61.272131-7.889836 107.268197-13.09377 140.338361-18.465574 22.998033-5.203934 38.274098 2.685902 43.478032 23.669508a36.444328 36.444328 0 0 1-28.201967 44.485246 137.736393 137.736393 0 0 1-45.828197 7.889836v68.154754h53.550164a33.708066 33.708066 0 0 1 35.08459 37.099016 36.091803 36.091803 0 0 1-36.763278 36.59541l-51.871476-0.167869v15.611804c5.036066 7.889836 12.758033 15.611803 22.998033 28.873442 15.276066 18.297705 58.921967 71.68 71.68 92.663607 2.518033 5.203934 20.144262 30.887869-0.503606 50.528525-19.137049 14.60459-42.135082 3.525246-57.07541-14.100984-6.546885-6.379016-34.580984-37.434754-37.099017-40.120656v225.447869a30.568918 30.568918 0 0 1-33.238032 31.391475 31.391475 31.391475 0 0 1-35.756066-31.391475v-214.872131a56.487869 56.487869 0 0 1-7.554098 18.297705l-7.721968 15.779672-15.276065 23.501639a48.681967 48.681967 0 0 1-28.034098 18.297705 37.955148 37.955148 0 0 1-28.201968-10.407869 24.055607 24.055607 0 0 1-7.554098-18.297705 61.288918 61.288918 0 0 1 7.554098-28.873442c10.24-18.297705 22.998033-34.077377 33.238033-52.375082a431.187934 431.187934 0 0 0 30.552131-60.264918l15.443935-44.653115zM512 1024A512 512 0 1 1 1024 512 512.100721 512.100721 0 0 1 512 1024z m0-73.19082A438.80918 438.80918 0 1 0 73.19082 512 438.742033 438.742033 0 0 0 512 950.80918z" fill="#ffffff" p-id="32467"></path></svg>