<?xml version="1.0" encoding="utf-8"?>
<svg version="1.1" xmlns:xlink="http://www.w3.org/1999/xlink" width="16px" height="20px" xmlns="http://www.w3.org/2000/svg">
  <defs>
    <pattern id="BGPattern" patternUnits="userSpaceOnUse" alignment="0 0" imageRepeat="None" />
    <mask fill="white" id="Clip1301">
      <path d="M 15.898233496093752 12.115200000000002  C 15.898033496093756 9.867800000000003  15.898633496093755 3.139000000000002  15.898033496093749 3.1287  C 15.882940178635675 2.806780426372171  15.628955513929572 2.547291183765225  15.30743349609375 2.5252999999999997  C 15.29243349609375 2.5241999999999996  12.230533496093752 2.4416999999999995  10.848333496093751 1.9390999999999998  C 9.48173349609375 1.4421  8.31553349609375 0.2935  8.057533496093749 0.027399999999999997  C 8.055433496093748 0.025099999999999997  8.05413349609375 0.023299999999999994  8.051633496093748 0.0213  C 8.037533496093749 0.0089  8.020033496093749 0  8.000133496093751 0  C 7.980233496093751 0  7.962733496093751 0.0089  7.94853349609375 0.0213  C 7.946133496093751 0.0233  7.94493349609375 0.0251  7.94273349609375 0.027399999999999997  C 7.684733496093749 0.2937  6.518533496093749 1.4422  5.15193349609375 1.9391  C 3.7697334960937496 2.4417  0.7079334960937498 2.5241999999999996  0.6928334960937499 2.5252999999999997  C 0.3713114782579279 2.547291183765224  0.11732681355182617 2.8067804263721694  0.1022334960937501 3.1287  C 0.10163349609374972 3.1389999999999993  0.1022334960937501 9.867799999999999  0.1022334960937501 12.1153  C 0.1022334960937501 16.5977  6.218433496093752 19.332099999999997  7.68263349609375 19.9227  C 7.746122683115612 19.954694497433913  7.8137881668330245 19.97694622601064  7.883633496093751 19.988699999999998  C 7.920433496093752 19.9957  7.958233496093751 20  7.997233496093752 20  C 8.03983349609375 20  8.081233496093752 19.9954  8.121733496093752 19.987399999999997  C 8.181162443679973 19.97659439393702  8.238942571378463 19.958141054724415  8.293633496093753 19.9325  C 9.714833496093753 19.3618  15.898233496093752 16.6218  15.898233496093752 12.115200000000002  Z M 4.50353349609375 4.812200000000001  L 5.51973349609375 4.2315000000000005  C 5.72133349609375 4.7076  6.04013349609375 5.2357  6.47553349609375 5.816600000000001  L 5.39883349609375 6.4579  C 5.164733496093749 5.7803  4.86653349609375 5.231800000000001  4.50353349609375 4.812200000000001  Z M 5.64053349609375 15.217799999999999  L 4.5277334960937505 15.2178  C 4.567933496093751 14.620700000000003  4.588133496093751 13.9473  4.588133496093751 13.197100000000002  L 4.588133496093751 10.365800000000004  C 4.136133496093751 10.882200000000001  3.6443334960937506 11.406400000000003  3.1120334960937512 11.938800000000002  C 2.974533496093751 11.495400000000002  2.76493349609375 11.112200000000003  2.4827334960937506 10.789400000000002  C 2.821433496093751 10.660400000000003  3.273033496093751 10.309500000000003  3.8380334960937503 9.736700000000003  C 4.402633496093751 9.164000000000001  4.975333496093751 8.462300000000003  5.5559334960937505 7.631400000000003  L 4.04363349609375 7.631400000000003  C 3.5998334960937504 7.631400000000003  3.16823349609375 7.679700000000002  2.7491334960937497 7.776500000000003  L 2.7491334960937497 6.5908999999999995  C 3.281433496093751 6.6716  4.02553349609375 6.7119  4.98123349609375 6.7119  C 5.937333496093749 6.7119  6.66513349609375 6.675599999999999  7.16523349609375 6.603  C 6.72153349609375 7.4905  6.19323349609375 8.3453  5.580133496093749 9.1681  L 5.580133496093749 13.197099999999999  C 5.580133496093749 13.9473  5.60033349609375 14.6207  5.64053349609375 15.217799999999999  Z M 6.64523349609375 11.733200000000002  C 6.394833496093751 11.103900000000003  6.0963334960937505 10.527400000000002  5.7495334960937505 10.0029  L 6.56013349609375 9.494800000000001  C 6.7617334960937505 9.9466  7.120633496093751 10.483  7.63713349609375 11.103900000000003  L 6.64523349609375 11.733200000000002  Z M 13.54163349609375 13.342600000000001  L 13.54163349609375 14.528100000000002  C 12.83993349609375 14.447400000000002  11.69853349609375 14.407200000000003  10.11753349609375 14.407200000000003  C 8.536533496093751 14.407200000000003  7.399033496093752 14.447400000000002  6.70573349609375 14.528100000000002  L 6.70573349609375 13.342600000000003  C 7.294233496093749 13.407100000000003  8.29073349609375 13.447200000000002  9.69413349609375 13.463500000000002  L 9.69413349609375 8.4906  C 8.637533496093749 8.5069  7.89923349609375 8.547  7.48013349609375 8.611500000000001  L 7.48013349609375 7.45  C 7.89913349609375 7.5146  8.637433496093749 7.5549  9.69413349609375 7.571  C 9.69413349609375 5.5947000000000005  9.65803349609375 4.4333  9.58523349609375 4.0862  C 9.72233349609375 4.1186  10.13773349609375 4.1347000000000005  10.83153349609375 4.1347000000000005  C 10.95243349609375 4.1347000000000005  11.01283349609375 4.1569  11.01283349609375 4.2013  C 11.01283349609375 4.2457  10.98063349609375 4.2902000000000005  10.91613349609375 4.3343  C 10.85143349609375 4.3788  10.802933496093749 4.4414  10.771033496093748 4.5219  C 10.73853349609375 4.6026  10.72263349609375 4.6791  10.72263349609375 4.7517  L 10.72263349609375 7.571  C 11.86803349609375 7.5549  12.650333496093747 7.5145  13.06983349609375 7.45  L 13.06983349609375 8.6115  C 12.650433496093749 8.547  11.86803349609375 8.5069  10.72263349609375 8.490599999999999  L 10.72263349609375 13.4635  C 12.085533496093749 13.447199999999999  13.025333496093749 13.407099999999998  13.54163349609375 13.342600000000001  Z " fill-rule="evenodd" />
    </mask>
  </defs>
  <g transform="matrix(1 0 0 1 -172 -342 )">
    <path d="M 15.898233496093752 12.115200000000002  C 15.898033496093756 9.867800000000003  15.898633496093755 3.139000000000002  15.898033496093749 3.1287  C 15.882940178635675 2.806780426372171  15.628955513929572 2.547291183765225  15.30743349609375 2.5252999999999997  C 15.29243349609375 2.5241999999999996  12.230533496093752 2.4416999999999995  10.848333496093751 1.9390999999999998  C 9.48173349609375 1.4421  8.31553349609375 0.2935  8.057533496093749 0.027399999999999997  C 8.055433496093748 0.025099999999999997  8.05413349609375 0.023299999999999994  8.051633496093748 0.0213  C 8.037533496093749 0.0089  8.020033496093749 0  8.000133496093751 0  C 7.980233496093751 0  7.962733496093751 0.0089  7.94853349609375 0.0213  C 7.946133496093751 0.0233  7.94493349609375 0.0251  7.94273349609375 0.027399999999999997  C 7.684733496093749 0.2937  6.518533496093749 1.4422  5.15193349609375 1.9391  C 3.7697334960937496 2.4417  0.7079334960937498 2.5241999999999996  0.6928334960937499 2.5252999999999997  C 0.3713114782579279 2.547291183765224  0.11732681355182617 2.8067804263721694  0.1022334960937501 3.1287  C 0.10163349609374972 3.1389999999999993  0.1022334960937501 9.867799999999999  0.1022334960937501 12.1153  C 0.1022334960937501 16.5977  6.218433496093752 19.332099999999997  7.68263349609375 19.9227  C 7.746122683115612 19.954694497433913  7.8137881668330245 19.97694622601064  7.883633496093751 19.988699999999998  C 7.920433496093752 19.9957  7.958233496093751 20  7.997233496093752 20  C 8.03983349609375 20  8.081233496093752 19.9954  8.121733496093752 19.987399999999997  C 8.181162443679973 19.97659439393702  8.238942571378463 19.958141054724415  8.293633496093753 19.9325  C 9.714833496093753 19.3618  15.898233496093752 16.6218  15.898233496093752 12.115200000000002  Z M 4.50353349609375 4.812200000000001  L 5.51973349609375 4.2315000000000005  C 5.72133349609375 4.7076  6.04013349609375 5.2357  6.47553349609375 5.816600000000001  L 5.39883349609375 6.4579  C 5.164733496093749 5.7803  4.86653349609375 5.231800000000001  4.50353349609375 4.812200000000001  Z M 5.64053349609375 15.217799999999999  L 4.5277334960937505 15.2178  C 4.567933496093751 14.620700000000003  4.588133496093751 13.9473  4.588133496093751 13.197100000000002  L 4.588133496093751 10.365800000000004  C 4.136133496093751 10.882200000000001  3.6443334960937506 11.406400000000003  3.1120334960937512 11.938800000000002  C 2.974533496093751 11.495400000000002  2.76493349609375 11.112200000000003  2.4827334960937506 10.789400000000002  C 2.821433496093751 10.660400000000003  3.273033496093751 10.309500000000003  3.8380334960937503 9.736700000000003  C 4.402633496093751 9.164000000000001  4.975333496093751 8.462300000000003  5.5559334960937505 7.631400000000003  L 4.04363349609375 7.631400000000003  C 3.5998334960937504 7.631400000000003  3.16823349609375 7.679700000000002  2.7491334960937497 7.776500000000003  L 2.7491334960937497 6.5908999999999995  C 3.281433496093751 6.6716  4.02553349609375 6.7119  4.98123349609375 6.7119  C 5.937333496093749 6.7119  6.66513349609375 6.675599999999999  7.16523349609375 6.603  C 6.72153349609375 7.4905  6.19323349609375 8.3453  5.580133496093749 9.1681  L 5.580133496093749 13.197099999999999  C 5.580133496093749 13.9473  5.60033349609375 14.6207  5.64053349609375 15.217799999999999  Z M 6.64523349609375 11.733200000000002  C 6.394833496093751 11.103900000000003  6.0963334960937505 10.527400000000002  5.7495334960937505 10.0029  L 6.56013349609375 9.494800000000001  C 6.7617334960937505 9.9466  7.120633496093751 10.483  7.63713349609375 11.103900000000003  L 6.64523349609375 11.733200000000002  Z M 13.54163349609375 13.342600000000001  L 13.54163349609375 14.528100000000002  C 12.83993349609375 14.447400000000002  11.69853349609375 14.407200000000003  10.11753349609375 14.407200000000003  C 8.536533496093751 14.407200000000003  7.399033496093752 14.447400000000002  6.70573349609375 14.528100000000002  L 6.70573349609375 13.342600000000003  C 7.294233496093749 13.407100000000003  8.29073349609375 13.447200000000002  9.69413349609375 13.463500000000002  L 9.69413349609375 8.4906  C 8.637533496093749 8.5069  7.89923349609375 8.547  7.48013349609375 8.611500000000001  L 7.48013349609375 7.45  C 7.89913349609375 7.5146  8.637433496093749 7.5549  9.69413349609375 7.571  C 9.69413349609375 5.5947000000000005  9.65803349609375 4.4333  9.58523349609375 4.0862  C 9.72233349609375 4.1186  10.13773349609375 4.1347000000000005  10.83153349609375 4.1347000000000005  C 10.95243349609375 4.1347000000000005  11.01283349609375 4.1569  11.01283349609375 4.2013  C 11.01283349609375 4.2457  10.98063349609375 4.2902000000000005  10.91613349609375 4.3343  C 10.85143349609375 4.3788  10.802933496093749 4.4414  10.771033496093748 4.5219  C 10.73853349609375 4.6026  10.72263349609375 4.6791  10.72263349609375 4.7517  L 10.72263349609375 7.571  C 11.86803349609375 7.5549  12.650333496093747 7.5145  13.06983349609375 7.45  L 13.06983349609375 8.6115  C 12.650433496093749 8.547  11.86803349609375 8.5069  10.72263349609375 8.490599999999999  L 10.72263349609375 13.4635  C 12.085533496093749 13.447199999999999  13.025333496093749 13.407099999999998  13.54163349609375 13.342600000000001  Z " fill-rule="nonzero" fill="rgba(255, 255, 255, 1)" stroke="none" transform="matrix(1 0 0 1 172 342 )" class="fill" />
    <path d="M 15.898233496093752 12.115200000000002  C 15.898033496093756 9.867800000000003  15.898633496093755 3.139000000000002  15.898033496093749 3.1287  C 15.882940178635675 2.806780426372171  15.628955513929572 2.547291183765225  15.30743349609375 2.5252999999999997  C 15.29243349609375 2.5241999999999996  12.230533496093752 2.4416999999999995  10.848333496093751 1.9390999999999998  C 9.48173349609375 1.4421  8.31553349609375 0.2935  8.057533496093749 0.027399999999999997  C 8.055433496093748 0.025099999999999997  8.05413349609375 0.023299999999999994  8.051633496093748 0.0213  C 8.037533496093749 0.0089  8.020033496093749 0  8.000133496093751 0  C 7.980233496093751 0  7.962733496093751 0.0089  7.94853349609375 0.0213  C 7.946133496093751 0.0233  7.94493349609375 0.0251  7.94273349609375 0.027399999999999997  C 7.684733496093749 0.2937  6.518533496093749 1.4422  5.15193349609375 1.9391  C 3.7697334960937496 2.4417  0.7079334960937498 2.5241999999999996  0.6928334960937499 2.5252999999999997  C 0.3713114782579279 2.547291183765224  0.11732681355182617 2.8067804263721694  0.1022334960937501 3.1287  C 0.10163349609374972 3.1389999999999993  0.1022334960937501 9.867799999999999  0.1022334960937501 12.1153  C 0.1022334960937501 16.5977  6.218433496093752 19.332099999999997  7.68263349609375 19.9227  C 7.746122683115612 19.954694497433913  7.8137881668330245 19.97694622601064  7.883633496093751 19.988699999999998  C 7.920433496093752 19.9957  7.958233496093751 20  7.997233496093752 20  C 8.03983349609375 20  8.081233496093752 19.9954  8.121733496093752 19.987399999999997  C 8.181162443679973 19.97659439393702  8.238942571378463 19.958141054724415  8.293633496093753 19.9325  C 9.714833496093753 19.3618  15.898233496093752 16.6218  15.898233496093752 12.115200000000002  Z " stroke-width="0" stroke-dasharray="0" stroke="rgba(255, 255, 255, 0)" fill="none" transform="matrix(1 0 0 1 172 342 )" class="stroke" mask="url(#Clip1301)" />
    <path d="M 4.50353349609375 4.812200000000001  L 5.51973349609375 4.2315000000000005  C 5.72133349609375 4.7076  6.04013349609375 5.2357  6.47553349609375 5.816600000000001  L 5.39883349609375 6.4579  C 5.164733496093749 5.7803  4.86653349609375 5.231800000000001  4.50353349609375 4.812200000000001  Z " stroke-width="0" stroke-dasharray="0" stroke="rgba(255, 255, 255, 0)" fill="none" transform="matrix(1 0 0 1 172 342 )" class="stroke" mask="url(#Clip1301)" />
    <path d="M 5.64053349609375 15.217799999999999  L 4.5277334960937505 15.2178  C 4.567933496093751 14.620700000000003  4.588133496093751 13.9473  4.588133496093751 13.197100000000002  L 4.588133496093751 10.365800000000004  C 4.136133496093751 10.882200000000001  3.6443334960937506 11.406400000000003  3.1120334960937512 11.938800000000002  C 2.974533496093751 11.495400000000002  2.76493349609375 11.112200000000003  2.4827334960937506 10.789400000000002  C 2.821433496093751 10.660400000000003  3.273033496093751 10.309500000000003  3.8380334960937503 9.736700000000003  C 4.402633496093751 9.164000000000001  4.975333496093751 8.462300000000003  5.5559334960937505 7.631400000000003  L 4.04363349609375 7.631400000000003  C 3.5998334960937504 7.631400000000003  3.16823349609375 7.679700000000002  2.7491334960937497 7.776500000000003  L 2.7491334960937497 6.5908999999999995  C 3.281433496093751 6.6716  4.02553349609375 6.7119  4.98123349609375 6.7119  C 5.937333496093749 6.7119  6.66513349609375 6.675599999999999  7.16523349609375 6.603  C 6.72153349609375 7.4905  6.19323349609375 8.3453  5.580133496093749 9.1681  L 5.580133496093749 13.197099999999999  C 5.580133496093749 13.9473  5.60033349609375 14.6207  5.64053349609375 15.217799999999999  Z " stroke-width="0" stroke-dasharray="0" stroke="rgba(255, 255, 255, 0)" fill="none" transform="matrix(1 0 0 1 172 342 )" class="stroke" mask="url(#Clip1301)" />
    <path d="M 6.64523349609375 11.733200000000002  C 6.394833496093751 11.103900000000003  6.0963334960937505 10.527400000000002  5.7495334960937505 10.0029  L 6.56013349609375 9.494800000000001  C 6.7617334960937505 9.9466  7.120633496093751 10.483  7.63713349609375 11.103900000000003  L 6.64523349609375 11.733200000000002  Z " stroke-width="0" stroke-dasharray="0" stroke="rgba(255, 255, 255, 0)" fill="none" transform="matrix(1 0 0 1 172 342 )" class="stroke" mask="url(#Clip1301)" />
    <path d="M 13.54163349609375 13.342600000000001  L 13.54163349609375 14.528100000000002  C 12.83993349609375 14.447400000000002  11.69853349609375 14.407200000000003  10.11753349609375 14.407200000000003  C 8.536533496093751 14.407200000000003  7.399033496093752 14.447400000000002  6.70573349609375 14.528100000000002  L 6.70573349609375 13.342600000000003  C 7.294233496093749 13.407100000000003  8.29073349609375 13.447200000000002  9.69413349609375 13.463500000000002  L 9.69413349609375 8.4906  C 8.637533496093749 8.5069  7.89923349609375 8.547  7.48013349609375 8.611500000000001  L 7.48013349609375 7.45  C 7.89913349609375 7.5146  8.637433496093749 7.5549  9.69413349609375 7.571  C 9.69413349609375 5.5947000000000005  9.65803349609375 4.4333  9.58523349609375 4.0862  C 9.72233349609375 4.1186  10.13773349609375 4.1347000000000005  10.83153349609375 4.1347000000000005  C 10.95243349609375 4.1347000000000005  11.01283349609375 4.1569  11.01283349609375 4.2013  C 11.01283349609375 4.2457  10.98063349609375 4.2902000000000005  10.91613349609375 4.3343  C 10.85143349609375 4.3788  10.802933496093749 4.4414  10.771033496093748 4.5219  C 10.73853349609375 4.6026  10.72263349609375 4.6791  10.72263349609375 4.7517  L 10.72263349609375 7.571  C 11.86803349609375 7.5549  12.650333496093747 7.5145  13.06983349609375 7.45  L 13.06983349609375 8.6115  C 12.650433496093749 8.547  11.86803349609375 8.5069  10.72263349609375 8.490599999999999  L 10.72263349609375 13.4635  C 12.085533496093749 13.447199999999999  13.025333496093749 13.407099999999998  13.54163349609375 13.342600000000001  Z " stroke-width="0" stroke-dasharray="0" stroke="rgba(255, 255, 255, 0)" fill="none" transform="matrix(1 0 0 1 172 342 )" class="stroke" mask="url(#Clip1301)" />
  </g>
</svg>