<?xml version="1.0" encoding="utf-8"?>
<svg version="1.1" xmlns:xlink="http://www.w3.org/1999/xlink" width="17px" height="16px" xmlns="http://www.w3.org/2000/svg">
  <g transform="matrix(1 0 0 1 -17 -14 )">
    <path d="M 17 9.22407407407411  L 15.614048672566355 9.22407407407411  L 15.614048672566355 0.13703703703708925  L 4.509513274336314 0.13703703703708925  L 4.509513274336314 2.3999999999999773  L 1.4461283185841012 2.3999999999999773  L 1.4461283185841012 9.22407407407411  L 0.13727876106190706 9.22407407407411  L 0.13727876106190706 16  L 17 16  L 17 9.22407407407411  Z M 5.242920353982299 9.22407407407411  L 5.372676991150456 0.8870370370370892  L 14.85619469026551 0.8814814814815009  L 14.85619469026551 9.22407407407411  L 10.647566371681364 9.22407407407411  C 10.553539823008805 10.053703703703718  9.846460176991172 10.700000000000045  8.979535398230041 10.700000000000045  C 8.112610619469024 10.700000000000045  7.407411504424772 10.053703703703718  7.311504424778718 9.22407407407411  L 5.242920353982299 9.22407407407411  Z M 2.2077433628318204 9.22407407407411  L 2.2077433628318204 3.1481481481481524  L 4.509513274336314 3.1481481481481524  L 4.509513274336314 9.22407407407411  L 2.2077433628318204 9.22407407407411  Z M 16.266592920354014 9.946296296296282  L 16.266592920354014 15  L 0.8706858407080063 15  L 0.8706858407080063 9.946296296296282  L 6.877101769911519 9.946296296296282  C 7.1930309734513 10.796296296296305  8.020464601769959 11.40370370370374  8.992699115044275 11.40370370370374  C 9.96493362831859 11.40370370370374  10.792367256637135 10.796296296296305  11.10829646017703 9.946296296296282  L 16.266592920354014 9.946296296296282  Z " fill-rule="nonzero" fill="#999999" stroke="none" transform="matrix(1 0 0 1 17 14 )" />
  </g>
</svg>