<?xml version="1.0" encoding="utf-8"?>
<svg version="1.1" xmlns:xlink="http://www.w3.org/1999/xlink" width="20px" height="16px" xmlns="http://www.w3.org/2000/svg">
  <defs>
    <pattern id="BGPattern" patternUnits="userSpaceOnUse" alignment="0 0" imageRepeat="None" />
    <mask fill="white" id="Clip209">
      <path d="M 19.72222222222222 2.2857142857142856  C 19.72222222222222 1.5  19.09722222222222 0.8571428571428571  18.333333333333332 1  L 1.6666666666666665 1  C 0.9027777777777778 0.8571428571428571  0.2777777777777778 1.5  0.2777777777777778 2.2857142857142856  L 0.2777777777777778 13.714285714285714  C 0.2777777777777778 14.5  0.9027777777777778 15.142857142857142  1.6666666666666665 15  L 18.333333333333332 15  C 19.09722222222222 15.142857142857142  19.72222222222222 14.5  19.72222222222222 13.714285714285714  L 19.72222222222222 2.2857142857142856  Z M 18.333333333333332 5.142857142857143  L 18.333333333333332 13.714285714285714  L 1.6666666666666665 13.714285714285714  L 1.6666666666666665 5.142857142857143  L 18.333333333333332 5.142857142857143  Z M 18.333333333333332 4  L 1.6666666666666665 4  L 1.6666666666666665 2.2857142857142856  L 18.333333333333332 2.2857142857142856  L 18.333333333333332 4  Z M 8.61111111111111 9.428571428571429  L 8.61111111111111 10.142857142857142  L 3.055555555555556 10.142857142857142  L 3.055555555555556 9.428571428571429  L 8.61111111111111 9.428571428571429  Z M 5.833333333333334 10.857142857142858  L 5.833333333333334 11.571428571428571  L 3.055555555555556 11.571428571428571  L 3.055555555555556 10.857142857142858  L 5.833333333333334 10.857142857142858  Z " fill-rule="evenodd" />
    </mask>
  </defs>
  <g transform="matrix(1 0 0 1 -21 -344 )">
    <path d="M 19.72222222222222 2.2857142857142856  C 19.72222222222222 1.5  19.09722222222222 0.8571428571428571  18.333333333333332 1  L 1.6666666666666665 1  C 0.9027777777777778 0.8571428571428571  0.2777777777777778 1.5  0.2777777777777778 2.2857142857142856  L 0.2777777777777778 13.714285714285714  C 0.2777777777777778 14.5  0.9027777777777778 15.142857142857142  1.6666666666666665 15  L 18.333333333333332 15  C 19.09722222222222 15.142857142857142  19.72222222222222 14.5  19.72222222222222 13.714285714285714  L 19.72222222222222 2.2857142857142856  Z M 18.333333333333332 5.142857142857143  L 18.333333333333332 13.714285714285714  L 1.6666666666666665 13.714285714285714  L 1.6666666666666665 5.142857142857143  L 18.333333333333332 5.142857142857143  Z M 18.333333333333332 4  L 1.6666666666666665 4  L 1.6666666666666665 2.2857142857142856  L 18.333333333333332 2.2857142857142856  L 18.333333333333332 4  Z M 8.61111111111111 9.428571428571429  L 8.61111111111111 10.142857142857142  L 3.055555555555556 10.142857142857142  L 3.055555555555556 9.428571428571429  L 8.61111111111111 9.428571428571429  Z M 5.833333333333334 10.857142857142858  L 5.833333333333334 11.571428571428571  L 3.055555555555556 11.571428571428571  L 3.055555555555556 10.857142857142858  L 5.833333333333334 10.857142857142858  Z " fill-rule="nonzero" fill="rgba(255, 255, 255, 1)" stroke="none" transform="matrix(1 0 0 1 21 344 )" class="fill" />
    <path d="M 19.72222222222222 2.2857142857142856  C 19.72222222222222 1.5  19.09722222222222 0.8571428571428571  18.333333333333332 1  L 1.6666666666666665 1  C 0.9027777777777778 0.8571428571428571  0.2777777777777778 1.5  0.2777777777777778 2.2857142857142856  L 0.2777777777777778 13.714285714285714  C 0.2777777777777778 14.5  0.9027777777777778 15.142857142857142  1.6666666666666665 15  L 18.333333333333332 15  C 19.09722222222222 15.142857142857142  19.72222222222222 14.5  19.72222222222222 13.714285714285714  L 19.72222222222222 2.2857142857142856  Z " stroke-width="0" stroke-dasharray="0" stroke="rgba(255, 255, 255, 0)" fill="none" transform="matrix(1 0 0 1 21 344 )" class="stroke" mask="url(#Clip209)" />
    <path d="M 18.333333333333332 5.142857142857143  L 18.333333333333332 13.714285714285714  L 1.6666666666666665 13.714285714285714  L 1.6666666666666665 5.142857142857143  L 18.333333333333332 5.142857142857143  Z " stroke-width="0" stroke-dasharray="0" stroke="rgba(255, 255, 255, 0)" fill="none" transform="matrix(1 0 0 1 21 344 )" class="stroke" mask="url(#Clip209)" />
    <path d="M 18.333333333333332 4  L 1.6666666666666665 4  L 1.6666666666666665 2.2857142857142856  L 18.333333333333332 2.2857142857142856  L 18.333333333333332 4  Z " stroke-width="0" stroke-dasharray="0" stroke="rgba(255, 255, 255, 0)" fill="none" transform="matrix(1 0 0 1 21 344 )" class="stroke" mask="url(#Clip209)" />
    <path d="M 8.61111111111111 9.428571428571429  L 8.61111111111111 10.142857142857142  L 3.055555555555556 10.142857142857142  L 3.055555555555556 9.428571428571429  L 8.61111111111111 9.428571428571429  Z " stroke-width="0" stroke-dasharray="0" stroke="rgba(255, 255, 255, 0)" fill="none" transform="matrix(1 0 0 1 21 344 )" class="stroke" mask="url(#Clip209)" />
    <path d="M 5.833333333333334 10.857142857142858  L 5.833333333333334 11.571428571428571  L 3.055555555555556 11.571428571428571  L 3.055555555555556 10.857142857142858  L 5.833333333333334 10.857142857142858  Z " stroke-width="0" stroke-dasharray="0" stroke="rgba(255, 255, 255, 0)" fill="none" transform="matrix(1 0 0 1 21 344 )" class="stroke" mask="url(#Clip209)" />
  </g>
</svg>