<?xml version="1.0" encoding="utf-8"?>
<svg version="1.1" xmlns:xlink="http://www.w3.org/1999/xlink" width="20px" height="20px" xmlns="http://www.w3.org/2000/svg">
  <g transform="matrix(1 0 0 1 -21 -685 )">
    <path d="M 8.857421875 3.837890625  L 8.857421875 3.92822265625  L 12.98095703125 0.8715820312500006  C 13.212890625 0.7006835937500006  13.5205078125 0.6738281250000006  13.77685546875 0.8056640625000011  C 14.033203125 0.9375000000000011  14.194335937500002 1.203613281250001  14 1.4941406250000004  L 14 13.13720703125  C 14.194335937500002 13.427734375  14.033203125 13.69384765625  13.77685546875 13.828125  C 13.5205078125 13.959960937499998  13.212890625 13.935546874999998  12.98095703125 13.762207031249998  L 8.857421875 10.7080078125  L 8.857421875 10.79833984375  L 1.9970703125 10.79833984375  C 1.5771484375 10.79833984375  1.2353515625 10.45166015625  1.2353515625 10.0244140625  L 1.2353515625 4.61181640625  C 1.2353515625 4.1845703125  1.5771484375 3.837890625  1.9970703125 3.837890625  L 8.857421875 3.837890625  Z M 5.615234375 18.79150390625  L 2.7587890625 11.54541015625  L 7.33154296875 11.54541015625  L 9.9609375 18.2177734375  C 10.053710937499998 18.457031249999996  10.02685546875 18.725585937499996  9.88525390625 18.93798828125  C 9.743652343749998 19.150390625  9.5068359375 19.277343749999996  9.255371093749998 19.277343749999996  L 6.3232421875 19.277343749999996  C 6.010742187499999 19.277343749999996  5.732421875 19.08447265625  5.615234375 18.79150390625  Z M 15.717773437499998 10.773925781249998  L 15.717773437499998 4.587402343749999  C 17.402343749999996 4.587402343749999  18.76708984375 5.971679687499999  18.76708984375 7.680664062499998  C 18.76708984375 9.389648437499998  17.402343749999996 10.773925781249998  15.717773437499998 10.773925781249998  Z " fill-rule="nonzero" fill="#ffffff" stroke="none" transform="matrix(1 0 0 1 21 685 )" />
  </g>
</svg>