<?xml version="1.0" encoding="utf-8"?>
<svg version="1.1" xmlns:xlink="http://www.w3.org/1999/xlink" width="17px" height="17px" xmlns="http://www.w3.org/2000/svg">
  <g transform="matrix(1 0 0 1 -17 -14 )">
    <path d="M 17 3.262118853409106  C 16.93168510508849 2.5879508772727604  16.39775835730086 2.039719615909121  15.741738944690269 2.039719615909121  L 12.393481021017692 2.039719615909121  L 12.393481021017692 0.6676876920454333  C 12.393481021017692 0.3697277454544974  12.158576356194658 0.1281396829544974  11.868257295353942 0.1281396829544974  C 11.577957491150414 0.1281396829544974  11.343033569690306 0.3697277454544974  11.343033588495587 0.6676876920454333  L 11.343033588495587 2.039719615909121  L 6.289868419247796 2.039719615909121  L 6.289868419247796 0.6676876920454333  C 6.289868419247796 0.3697277454544974  6.054963754424762 0.1281396829544974  5.764644693584046 0.1281396829544974  C 5.47432563274333 0.1281396829544974  5.23942096792041 0.3697277454544974  5.23942096792041 0.6676876920454333  L 5.23942096792041 2.039719615909121  L 1.323906799778797 2.039719615909121  C 0.6679066438052814 2.039719615909121  0.13396063938057523 2.5879508772727604  0.13396063938057523 3.262118853409106  L 0.13396063938057523 15.767990353409118  C 0.13396063938057523 16.442158329545464  0.6679066438052814 16.990389590909103  1.323906799778797 17  L 15.741738944690269 17  C 16.39773910066367 16.990389590909103  16.93168510508849 16.442158329545464  17 15.767990353409118  L 17 3.262118853409106  Z M 15.881256910398179 15.767990353409118  C 15.881172018968527 15.847109310906035  15.818757398890853 15.911226147894922  15.741738944690269 16  L 1.323906799778797 16  C 1.2468883455780997 15.911226147894922  1.1844737255005384 15.847109310906035  1.1843888340707736 15.767990353409118  L 1.1843888340707736 3.262118853409106  C 1.1844737255005384 3.1829998959120758  1.2468883455780997 3.118883058923302  1.323906799778797 3.118795852272683  L 5.239440224557484 3.118795852272683  L 5.239440224557484 4.36858983636364  C 5.239440224557484 4.666549782954576  5.474344889380518 4.908137845454576  5.764663950221234 4.908137845454576  C 6.05498301106195 4.908137845454576  6.289887675884984 4.666549782954576  6.289887675884984 4.36858983636364  L 6.289887675884984 3.118795852272683  L 11.34305282632738 3.118795852272683  L 11.34305282632738 4.36858983636364  C 11.34305282632738 4.666549782954576  11.577957491150414 4.908137845454576  11.86827655199113 4.908137845454576  C 12.158576356194658 4.908137845454576  12.39350027765488 4.666549782954576  12.39350027765488 4.36858983636364  L 12.39350027765488 3.118795852272683  L 15.741758201327457 3.118795852272683  C 15.81877665552804 3.118883058923302  15.881191275605602 3.1829998959120758  15.881276167035367 3.262118853409106  L 15.881276167035367 15.767990353409118  Z " fill-rule="nonzero" fill="#999999" stroke="none" transform="matrix(1 0 0 1 17 14 )" />
  </g>
</svg>