<?xml version="1.0" encoding="utf-8"?>
<svg version="1.1" xmlns:xlink="http://www.w3.org/1999/xlink" width="7px" height="6px" xmlns="http://www.w3.org/2000/svg">
  <defs>
    <pattern id="BGPattern" patternUnits="userSpaceOnUse" alignment="0 0" imageRepeat="None" />
    <mask fill="white" id="Clip220">
      <path d="M 3.1819010416666655 0.2770312500000017  L 2.370247395833335 0.014062499999999999  C 2.0858723958333325 0.8550000000000004  1.594140625000001 1.695937500000001  1.0846354166666687 2.2260937500000004  C 1.2268229166666678 2.445468749999999  1.457877604166669 2.9390625000000004  1.534895833333334 3.1584374999999985  C 1.6178385416666665 3.067031250000001  1.7067057291666665 2.9634374999999995  1.7896484374999992 2.853749999999999  L 1.7896484374999992 5.791875000000001  L 2.636848958333333 5.791875000000001  L 2.6368489583333306 1.5140624999999979  C 2.842938786726431 1.1135625298648377  3.024964225192063 0.7004439260428383  3.1819010416666655 0.2770312500000017  Z M 5.788444010416669 4.08  L 5.101204427083335 4.469531249999999  C 5.456673177083335 4.865625  5.865462239583334 5.420156250000002  6.043196614583334 5.7796875  L 6.765983072916669 5.3109375  C 6.558626302083336 4.963593749999998  6.161686197916671 4.457812499999999  5.788444010416669 4.08  Z M 3.8274414062499997 4.0921875  C 3.5904622395833328 4.5121875  3.1698242187499988 4.944843749999999  2.7432617187500012 5.212968750000002  C 2.9328450520833345 5.334843750000001  3.2586914062500005 5.609062500000002  3.412727864583335 5.767499999999998  C 3.8392903645833347 5.432343750000003  4.331022135416666 4.889999999999999  4.633170572916665 4.353749999999998  L 3.8274414062499997 4.0921875  Z " fill-rule="evenodd" />
    </mask>
  </defs>
  <g transform="matrix(1 0 0 1 -33 -626 )">
    <path d="M 3.1819010416666655 0.2770312500000017  L 2.370247395833335 0.014062499999999999  C 2.0858723958333325 0.8550000000000004  1.594140625000001 1.695937500000001  1.0846354166666687 2.2260937500000004  C 1.2268229166666678 2.445468749999999  1.457877604166669 2.9390625000000004  1.534895833333334 3.1584374999999985  C 1.6178385416666665 3.067031250000001  1.7067057291666665 2.9634374999999995  1.7896484374999992 2.853749999999999  L 1.7896484374999992 5.791875000000001  L 2.636848958333333 5.791875000000001  L 2.6368489583333306 1.5140624999999979  C 2.842938786726431 1.1135625298648377  3.024964225192063 0.7004439260428383  3.1819010416666655 0.2770312500000017  Z M 5.788444010416669 4.08  L 5.101204427083335 4.469531249999999  C 5.456673177083335 4.865625  5.865462239583334 5.420156250000002  6.043196614583334 5.7796875  L 6.765983072916669 5.3109375  C 6.558626302083336 4.963593749999998  6.161686197916671 4.457812499999999  5.788444010416669 4.08  Z M 3.8274414062499997 4.0921875  C 3.5904622395833328 4.5121875  3.1698242187499988 4.944843749999999  2.7432617187500012 5.212968750000002  C 2.9328450520833345 5.334843750000001  3.2586914062500005 5.609062500000002  3.412727864583335 5.767499999999998  C 3.8392903645833347 5.432343750000003  4.331022135416666 4.889999999999999  4.633170572916665 4.353749999999998  L 3.8274414062499997 4.0921875  Z " fill-rule="nonzero" fill="rgba(255, 255, 255, 1)" stroke="none" transform="matrix(1 0 0 1 33 626 )" class="fill" />
    <path d="M 3.1819010416666655 0.2770312500000017  L 2.370247395833335 0.014062499999999999  C 2.0858723958333325 0.8550000000000004  1.594140625000001 1.695937500000001  1.0846354166666687 2.2260937500000004  C 1.2268229166666678 2.445468749999999  1.457877604166669 2.9390625000000004  1.534895833333334 3.1584374999999985  C 1.6178385416666665 3.067031250000001  1.7067057291666665 2.9634374999999995  1.7896484374999992 2.853749999999999  L 1.7896484374999992 5.791875000000001  L 2.636848958333333 5.791875000000001  L 2.6368489583333306 1.5140624999999979  C 2.842938786726431 1.1135625298648377  3.024964225192063 0.7004439260428383  3.1819010416666655 0.2770312500000017  Z " stroke-width="0" stroke-dasharray="0" stroke="rgba(255, 255, 255, 0)" fill="none" transform="matrix(1 0 0 1 33 626 )" class="stroke" mask="url(#Clip220)" />
    <path d="M 5.788444010416669 4.08  L 5.101204427083335 4.469531249999999  C 5.456673177083335 4.865625  5.865462239583334 5.420156250000002  6.043196614583334 5.7796875  L 6.765983072916669 5.3109375  C 6.558626302083336 4.963593749999998  6.161686197916671 4.457812499999999  5.788444010416669 4.08  Z " stroke-width="0" stroke-dasharray="0" stroke="rgba(255, 255, 255, 0)" fill="none" transform="matrix(1 0 0 1 33 626 )" class="stroke" mask="url(#Clip220)" />
    <path d="M 3.8274414062499997 4.0921875  C 3.5904622395833328 4.5121875  3.1698242187499988 4.944843749999999  2.7432617187500012 5.212968750000002  C 2.9328450520833345 5.334843750000001  3.2586914062500005 5.609062500000002  3.412727864583335 5.767499999999998  C 3.8392903645833347 5.432343750000003  4.331022135416666 4.889999999999999  4.633170572916665 4.353749999999998  L 3.8274414062499997 4.0921875  Z " stroke-width="0" stroke-dasharray="0" stroke="rgba(255, 255, 255, 0)" fill="none" transform="matrix(1 0 0 1 33 626 )" class="stroke" mask="url(#Clip220)" />
  </g>
</svg>