<?xml version="1.0" encoding="utf-8"?>
<svg version="1.1" xmlns:xlink="http://www.w3.org/1999/xlink" width="20px" height="20px" xmlns="http://www.w3.org/2000/svg">
  <defs>
    <pattern id="BGPattern" patternUnits="userSpaceOnUse" alignment="0 0" imageRepeat="None" />
    <mask fill="white" id="Clip741">
      <path d="M 4.274739583333335 4.621310763888889  C 4.274739583333335 7.006293402777777  6.2081163194444455 8.939887152777779  8.593315972222223 8.939887152777779  C 10.978515625 8.939887152777779  12.911892361111112 7.006293402777777  12.911892361111112 4.621310763888889  C 12.911892361111112 2.236328125  10.978298611111112 0.3027343749999995  8.593315972222225 0.3027343749999995  C 6.208333333333336 0.3027343749999995  4.274739583333335 2.2363281249999996  4.274739583333335 4.621310763888889  Z M 5.663628472222223 4.621093749999998  C 5.661507673248408 3.8436707369504655  5.97048877772576 3.0977087684778297  6.521701388888889 2.5494791666666656  C 7.071125403969155 2.0000484228550373  7.816308320546237 1.6913808793804361  8.593315972112372 1.6913808793804361  C 10.211337700132274 1.6913808793804361  11.52300347211237 3.003046651360533  11.52300347211237 4.621068379380437  C 11.52300347211237 6.239090107400336  10.211337700132274 7.550755879380437  8.593315972112372 7.550755879380437  C 6.97530415192682 7.550755879380437  5.6636424839427 6.239105570124882  5.663628472222223 4.621093749999998  Z M 19.718750000000004 14.833116319444446  C 19.718750000000004 12.147352430555555  17.542751736111114 9.971788194444445  14.856987847222221 9.971788194444445  C 14.587967243892768 9.971819483931482  14.319407141241767 9.994030130258835  14.054036458333332 10.038194444444446  C 14.008120204405996 9.997644253501527  13.957040352051873 9.963347781206615  13.902126736111109 9.936197916666668  C 13.876953125 9.923828125  13.851562499999998 9.911458333333332  13.825954861111114 9.899305555555557  C 13.60897041760859 9.79659633657861  13.384602296636348 9.710273005199053  13.154730902777779 9.641059027777779  C 12.965031213186204 9.58408856593451  12.771943456568044 9.539078244290412  12.57660590277778 9.50629340277778  C 12.319435877689916 9.463259731183461  12.059139794527166 9.441628879877689  11.798394097222221 9.441623263888891  L 10.824652777777777 9.441623263888891  C 10.570795149496305 9.44195484442308  10.328447495185507 9.547569386379541  10.155381944444443 9.733289930555557  L 8.555338541666668 11.453993055555555  L 6.965928819444445 9.735243055555557  C 6.792808333759075 9.548337788229814  6.549684850545775 9.441951606862546  6.294921874999999 9.441623263888891  L 5.315538194444444 9.441623263888891  C 3.9652777777777777 9.441623263888891  2.695529513888888 10.009548611111112  1.7402343749999996 11.041015625000002  C 0.798611111111111 12.057725694444446  0.2801649305555556 13.400824652777779  0.2801649305555556 14.823133680555555  L 0.2801649305555556 15.967881944444445  C 0.2801649305555556 17.64236111111111  1.5648871527777775 19.004557291666668  3.1447482638888893 19.004557291666668  L 12.048611111111114 19.006076388888893  C 12.130116231453234 19.00576090102661  12.21092654452114 18.991068116832444  12.287326388888893 18.962673611111114  C 13.057768337190927 19.443237705537907  13.947871541718941 19.697348784289186  14.85590277777778 19.69596354166667  C 17.541666666666668 19.69596354166667  19.718750000000004 17.518880208333336  19.718750000000004 14.833116319444446  Z M 3.142361111111111 17.61588541666667  C 2.330512152777778 17.6171875  1.6690538194444449 16.87717013888889  1.6690538194444449 15.967881944444445  L 1.6690538194444449 14.823133680555555  C 1.6690538194444449 12.621744791666664  3.304904513888889 10.830078125  5.314887152777779 10.830078125  L 6.086371527777779 10.830078125  L 7.882812500000002 12.7734375  C 8.055678218134872 12.959909496795499  8.298245997213666 13.066180280111936  8.552517361111112 13.066840277777775  L 8.553602430555557 13.066840277777775  C 8.807460058837025 13.066508697243584  9.049807713147828 12.960894155287125  9.22287326388889 12.77517361111111  L 11.030598958333332 10.830078124999998  L 11.79709201388889 10.830078124999998  C 11.891059027777782 10.830078124999998  11.985894097222225 10.83420138888889  12.079210069444446 10.842230902777775  C 10.772390960379564 11.751360943011779  9.993255267114717 13.242522175317815  9.993255267114717 14.83446866118756  C 9.993255267114717 15.82970167495411  10.298593598894863 16.800975620885865  10.868055555555555 17.6171875  L 3.142361111111111 17.61588541666667  Z M 17.528428819444446 17.505208333333332  C 16.177101690805998 18.85627916594417  14.029807395363447 18.985850845840083  12.525824652777777 17.807074652777782  C 12.499953157789896 17.78256228134657  12.47223868563512 17.76007147933615  12.44292534722222 17.73980034722222  C 12.35423900462963 17.665870949074076  12.268518518518519 17.58760127314815  12.185763888888888 17.504991319444443  C 11.478509270633817 16.796154503712856  11.08131050033293 15.835714606617078  11.08131050033293 14.834386125857828  C 11.08131050033293 13.209949803333716  12.118902772911795 11.767052290206799  13.658854166666668 11.25  C 13.74740302003036 11.24151554387817  13.833512531960539 11.216176217869638  13.912543402777779 11.175347222222221  C 14.22115008336589 11.096435206966264  14.538451921299627 11.0566266583652  14.856987847222223 11.056857638888886  C 16.943694297601724 11.056857627183057  18.635063020463175 12.748226350044503  18.635063020463175 14.834635404960832  C 18.635063020463175 15.836637239888237  18.236990552096373 16.797593539259353  17.528428819444446 17.506076388888886  Z " fill-rule="evenodd" />
    </mask>
  </defs>
  <g transform="matrix(1 0 0 1 -22 -614 )">
    <path d="M 4.274739583333335 4.621310763888889  C 4.274739583333335 7.006293402777777  6.2081163194444455 8.939887152777779  8.593315972222223 8.939887152777779  C 10.978515625 8.939887152777779  12.911892361111112 7.006293402777777  12.911892361111112 4.621310763888889  C 12.911892361111112 2.236328125  10.978298611111112 0.3027343749999995  8.593315972222225 0.3027343749999995  C 6.208333333333336 0.3027343749999995  4.274739583333335 2.2363281249999996  4.274739583333335 4.621310763888889  Z M 5.663628472222223 4.621093749999998  C 5.661507673248408 3.8436707369504655  5.97048877772576 3.0977087684778297  6.521701388888889 2.5494791666666656  C 7.071125403969155 2.0000484228550373  7.816308320546237 1.6913808793804361  8.593315972112372 1.6913808793804361  C 10.211337700132274 1.6913808793804361  11.52300347211237 3.003046651360533  11.52300347211237 4.621068379380437  C 11.52300347211237 6.239090107400336  10.211337700132274 7.550755879380437  8.593315972112372 7.550755879380437  C 6.97530415192682 7.550755879380437  5.6636424839427 6.239105570124882  5.663628472222223 4.621093749999998  Z M 19.718750000000004 14.833116319444446  C 19.718750000000004 12.147352430555555  17.542751736111114 9.971788194444445  14.856987847222221 9.971788194444445  C 14.587967243892768 9.971819483931482  14.319407141241767 9.994030130258835  14.054036458333332 10.038194444444446  C 14.008120204405996 9.997644253501527  13.957040352051873 9.963347781206615  13.902126736111109 9.936197916666668  C 13.876953125 9.923828125  13.851562499999998 9.911458333333332  13.825954861111114 9.899305555555557  C 13.60897041760859 9.79659633657861  13.384602296636348 9.710273005199053  13.154730902777779 9.641059027777779  C 12.965031213186204 9.58408856593451  12.771943456568044 9.539078244290412  12.57660590277778 9.50629340277778  C 12.319435877689916 9.463259731183461  12.059139794527166 9.441628879877689  11.798394097222221 9.441623263888891  L 10.824652777777777 9.441623263888891  C 10.570795149496305 9.44195484442308  10.328447495185507 9.547569386379541  10.155381944444443 9.733289930555557  L 8.555338541666668 11.453993055555555  L 6.965928819444445 9.735243055555557  C 6.792808333759075 9.548337788229814  6.549684850545775 9.441951606862546  6.294921874999999 9.441623263888891  L 5.315538194444444 9.441623263888891  C 3.9652777777777777 9.441623263888891  2.695529513888888 10.009548611111112  1.7402343749999996 11.041015625000002  C 0.798611111111111 12.057725694444446  0.2801649305555556 13.400824652777779  0.2801649305555556 14.823133680555555  L 0.2801649305555556 15.967881944444445  C 0.2801649305555556 17.64236111111111  1.5648871527777775 19.004557291666668  3.1447482638888893 19.004557291666668  L 12.048611111111114 19.006076388888893  C 12.130116231453234 19.00576090102661  12.21092654452114 18.991068116832444  12.287326388888893 18.962673611111114  C 13.057768337190927 19.443237705537907  13.947871541718941 19.697348784289186  14.85590277777778 19.69596354166667  C 17.541666666666668 19.69596354166667  19.718750000000004 17.518880208333336  19.718750000000004 14.833116319444446  Z M 3.142361111111111 17.61588541666667  C 2.330512152777778 17.6171875  1.6690538194444449 16.87717013888889  1.6690538194444449 15.967881944444445  L 1.6690538194444449 14.823133680555555  C 1.6690538194444449 12.621744791666664  3.304904513888889 10.830078125  5.314887152777779 10.830078125  L 6.086371527777779 10.830078125  L 7.882812500000002 12.7734375  C 8.055678218134872 12.959909496795499  8.298245997213666 13.066180280111936  8.552517361111112 13.066840277777775  L 8.553602430555557 13.066840277777775  C 8.807460058837025 13.066508697243584  9.049807713147828 12.960894155287125  9.22287326388889 12.77517361111111  L 11.030598958333332 10.830078124999998  L 11.79709201388889 10.830078124999998  C 11.891059027777782 10.830078124999998  11.985894097222225 10.83420138888889  12.079210069444446 10.842230902777775  C 10.772390960379564 11.751360943011779  9.993255267114717 13.242522175317815  9.993255267114717 14.83446866118756  C 9.993255267114717 15.82970167495411  10.298593598894863 16.800975620885865  10.868055555555555 17.6171875  L 3.142361111111111 17.61588541666667  Z M 17.528428819444446 17.505208333333332  C 16.177101690805998 18.85627916594417  14.029807395363447 18.985850845840083  12.525824652777777 17.807074652777782  C 12.499953157789896 17.78256228134657  12.47223868563512 17.76007147933615  12.44292534722222 17.73980034722222  C 12.35423900462963 17.665870949074076  12.268518518518519 17.58760127314815  12.185763888888888 17.504991319444443  C 11.478509270633817 16.796154503712856  11.08131050033293 15.835714606617078  11.08131050033293 14.834386125857828  C 11.08131050033293 13.209949803333716  12.118902772911795 11.767052290206799  13.658854166666668 11.25  C 13.74740302003036 11.24151554387817  13.833512531960539 11.216176217869638  13.912543402777779 11.175347222222221  C 14.22115008336589 11.096435206966264  14.538451921299627 11.0566266583652  14.856987847222223 11.056857638888886  C 16.943694297601724 11.056857627183057  18.635063020463175 12.748226350044503  18.635063020463175 14.834635404960832  C 18.635063020463175 15.836637239888237  18.236990552096373 16.797593539259353  17.528428819444446 17.506076388888886  Z " fill-rule="nonzero" fill="rgba(255, 255, 255, 1)" stroke="none" transform="matrix(1 0 0 1 22 614 )" class="fill" />
    <path d="M 4.274739583333335 4.621310763888889  C 4.274739583333335 7.006293402777777  6.2081163194444455 8.939887152777779  8.593315972222223 8.939887152777779  C 10.978515625 8.939887152777779  12.911892361111112 7.006293402777777  12.911892361111112 4.621310763888889  C 12.911892361111112 2.236328125  10.978298611111112 0.3027343749999995  8.593315972222225 0.3027343749999995  C 6.208333333333336 0.3027343749999995  4.274739583333335 2.2363281249999996  4.274739583333335 4.621310763888889  Z " stroke-width="0" stroke-dasharray="0" stroke="rgba(255, 255, 255, 0)" fill="none" transform="matrix(1 0 0 1 22 614 )" class="stroke" mask="url(#Clip741)" />
    <path d="M 5.663628472222223 4.621093749999998  C 5.661507673248408 3.8436707369504655  5.97048877772576 3.0977087684778297  6.521701388888889 2.5494791666666656  C 7.071125403969155 2.0000484228550373  7.816308320546237 1.6913808793804361  8.593315972112372 1.6913808793804361  C 10.211337700132274 1.6913808793804361  11.52300347211237 3.003046651360533  11.52300347211237 4.621068379380437  C 11.52300347211237 6.239090107400336  10.211337700132274 7.550755879380437  8.593315972112372 7.550755879380437  C 6.97530415192682 7.550755879380437  5.6636424839427 6.239105570124882  5.663628472222223 4.621093749999998  Z " stroke-width="0" stroke-dasharray="0" stroke="rgba(255, 255, 255, 0)" fill="none" transform="matrix(1 0 0 1 22 614 )" class="stroke" mask="url(#Clip741)" />
    <path d="M 19.718750000000004 14.833116319444446  C 19.718750000000004 12.147352430555555  17.542751736111114 9.971788194444445  14.856987847222221 9.971788194444445  C 14.587967243892768 9.971819483931482  14.319407141241767 9.994030130258835  14.054036458333332 10.038194444444446  C 14.008120204405996 9.997644253501527  13.957040352051873 9.963347781206615  13.902126736111109 9.936197916666668  C 13.876953125 9.923828125  13.851562499999998 9.911458333333332  13.825954861111114 9.899305555555557  C 13.60897041760859 9.79659633657861  13.384602296636348 9.710273005199053  13.154730902777779 9.641059027777779  C 12.965031213186204 9.58408856593451  12.771943456568044 9.539078244290412  12.57660590277778 9.50629340277778  C 12.319435877689916 9.463259731183461  12.059139794527166 9.441628879877689  11.798394097222221 9.441623263888891  L 10.824652777777777 9.441623263888891  C 10.570795149496305 9.44195484442308  10.328447495185507 9.547569386379541  10.155381944444443 9.733289930555557  L 8.555338541666668 11.453993055555555  L 6.965928819444445 9.735243055555557  C 6.792808333759075 9.548337788229814  6.549684850545775 9.441951606862546  6.294921874999999 9.441623263888891  L 5.315538194444444 9.441623263888891  C 3.9652777777777777 9.441623263888891  2.695529513888888 10.009548611111112  1.7402343749999996 11.041015625000002  C 0.798611111111111 12.057725694444446  0.2801649305555556 13.400824652777779  0.2801649305555556 14.823133680555555  L 0.2801649305555556 15.967881944444445  C 0.2801649305555556 17.64236111111111  1.5648871527777775 19.004557291666668  3.1447482638888893 19.004557291666668  L 12.048611111111114 19.006076388888893  C 12.130116231453234 19.00576090102661  12.21092654452114 18.991068116832444  12.287326388888893 18.962673611111114  C 13.057768337190927 19.443237705537907  13.947871541718941 19.697348784289186  14.85590277777778 19.69596354166667  C 17.541666666666668 19.69596354166667  19.718750000000004 17.518880208333336  19.718750000000004 14.833116319444446  Z " stroke-width="0" stroke-dasharray="0" stroke="rgba(255, 255, 255, 0)" fill="none" transform="matrix(1 0 0 1 22 614 )" class="stroke" mask="url(#Clip741)" />
    <path d="M 3.142361111111111 17.61588541666667  C 2.330512152777778 17.6171875  1.6690538194444449 16.87717013888889  1.6690538194444449 15.967881944444445  L 1.6690538194444449 14.823133680555555  C 1.6690538194444449 12.621744791666664  3.304904513888889 10.830078125  5.314887152777779 10.830078125  L 6.086371527777779 10.830078125  L 7.882812500000002 12.7734375  C 8.055678218134872 12.959909496795499  8.298245997213666 13.066180280111936  8.552517361111112 13.066840277777775  L 8.553602430555557 13.066840277777775  C 8.807460058837025 13.066508697243584  9.049807713147828 12.960894155287125  9.22287326388889 12.77517361111111  L 11.030598958333332 10.830078124999998  L 11.79709201388889 10.830078124999998  C 11.891059027777782 10.830078124999998  11.985894097222225 10.83420138888889  12.079210069444446 10.842230902777775  C 10.772390960379564 11.751360943011779  9.993255267114717 13.242522175317815  9.993255267114717 14.83446866118756  C 9.993255267114717 15.82970167495411  10.298593598894863 16.800975620885865  10.868055555555555 17.6171875  L 3.142361111111111 17.61588541666667  Z " stroke-width="0" stroke-dasharray="0" stroke="rgba(255, 255, 255, 0)" fill="none" transform="matrix(1 0 0 1 22 614 )" class="stroke" mask="url(#Clip741)" />
    <path d="M 17.528428819444446 17.505208333333332  C 16.177101690805998 18.85627916594417  14.029807395363447 18.985850845840083  12.525824652777777 17.807074652777782  C 12.499953157789896 17.78256228134657  12.47223868563512 17.76007147933615  12.44292534722222 17.73980034722222  C 12.35423900462963 17.665870949074076  12.268518518518519 17.58760127314815  12.185763888888888 17.504991319444443  C 11.478509270633817 16.796154503712856  11.08131050033293 15.835714606617078  11.08131050033293 14.834386125857828  C 11.08131050033293 13.209949803333716  12.118902772911795 11.767052290206799  13.658854166666668 11.25  C 13.74740302003036 11.24151554387817  13.833512531960539 11.216176217869638  13.912543402777779 11.175347222222221  C 14.22115008336589 11.096435206966264  14.538451921299627 11.0566266583652  14.856987847222223 11.056857638888886  C 16.943694297601724 11.056857627183057  18.635063020463175 12.748226350044503  18.635063020463175 14.834635404960832  C 18.635063020463175 15.836637239888237  18.236990552096373 16.797593539259353  17.528428819444446 17.506076388888886  Z " stroke-width="0" stroke-dasharray="0" stroke="rgba(255, 255, 255, 0)" fill="none" transform="matrix(1 0 0 1 22 614 )" class="stroke" mask="url(#Clip741)" />
  </g>
</svg>