<?xml version="1.0" encoding="utf-8"?>
<svg version="1.1" xmlns:xlink="http://www.w3.org/1999/xlink" width="16px" height="16px" xmlns="http://www.w3.org/2000/svg">
  <defs>
    <pattern id="BGPattern" patternUnits="userSpaceOnUse" alignment="0 0" imageRepeat="None" />
    <mask fill="white" id="Clip1685">
      <path d="M 8 2.976  C 9.205333328125 2.976  10.282666671874999 2.229333328125  10.741333328125 1.162666671875  C 11.381333328125 1.418666671875  11.989333328125 1.770666671875  12.533333328125 2.197333328125  C 11.84 3.136  11.733333328125 4.437333328125  12.330666671874999 5.482666671875  C 12.863999999999999 6.4  13.856 6.976000000000001  14.912 6.976000000000001  C 15.029333328125 6.976000000000001  15.146666671875 6.965333328125  15.274666671875 6.9546666718750005  C 15.328 7.295999999999999  15.34933334375 7.647999999999999  15.349333328125002 7.989333328124999  C 15.349333312499999 8.33066665625  15.328 8.68266665625  15.274666671875 9.024  C 15.15733334375 9.013333328124999  15.039999999999997 9.002666671875  14.912 9.002666671875  C 13.845333328125 9.002666671875  12.853333328124998 9.578666671875  12.330666671874999 10.496  C 11.722666671874999 11.541333328125  11.82933334375 12.842666671875003  12.533333328125 13.781333328125001  C 11.989333328125 14.208000000000002  11.381333328125 14.559999999999999  10.741333328125 14.815999999999999  C 10.28266665625 13.738666671875  9.205333328125 13.002666671875001  8 13.002666671875001  C 6.7946666718749995 13.002666671875001  5.717333328125 13.749333343750001  5.258666671875 14.815999999999999  C 4.618666671875 14.559999999999999  4.010666671875 14.208000000000002  3.466666671875 13.781333328125001  C 4.16 12.84266665625  4.266666671875 11.541333328125  3.669333328125 10.496  C 3.136 9.578666671875  2.144 9.002666671875  1.088 9.002666671875  C 0.970666671875 9.002666671875  0.853333328125 9.01333334375  0.7253333281250001 9.024  C 0.672 8.682666671875  0.6506666562500001 8.330666671874999  0.650666671875 7.989333328124999  C 0.6506666875 7.647999984375  0.672 7.295999999999999  0.7253333281250001 6.9546666718750005  C 0.8426666562499999 6.965333343749999  0.9600000000000002 6.976000000000001  1.088 6.976000000000001  C 2.154666671875 6.976000000000001  3.1466666718750003 6.4  3.669333328125 5.482666671875  C 4.277333328125 4.43733334375  4.17066665625 3.136  3.466666671875 2.197333328125  C 4.010666671875001 1.77066665625  4.618666671875 1.41866665625  5.258666671875 1.162666671875  C 5.71733334375 2.24  6.7946666718749995 2.976  8 2.976  Z M 13.472 2.154666671875001  C 12.576265594691423 1.3142117955319896  11.49981778110904 0.6902369622509326  10.325333328125 0.3306666718750001  C 10.154666656249999 1.4613333437500002  9.184 2.336  8 2.336  C 6.816000000000001 2.336  5.845333328125 1.4613333281249998  5.674666671875 0.330666671875  C 4.48 0.69333334375  3.4133333437499997 1.322666671875  2.5280000000000005 2.154666671875  C 3.4240000000000004 2.8693333437499997  3.6906666718750003 4.138666671875  3.1040000000000005 5.162666671875  C 2.6666666718750007 5.92  1.8773333281250006 6.336  1.0773333281250004 6.336  C 0.7893333281250003 6.336  0.49066665625000033 6.282666671875  0.21333332812500042 6.176  C -0.07110125435590808 7.3753669753883475  -0.07110125435590808 8.624633024611654  0.21333332812500042 9.824  C 0.49066665625000033 9.717333328125  0.7893333281250003 9.664  1.0773333281250004 9.664  C 1.8880000000000003 9.664  2.6773333281250005 10.08  3.1040000000000005 10.837333328125  C 3.6906666718750003 11.861333328125  3.4240000000000004 13.13066665625  2.5280000000000005 13.845333328125003  C 3.4133333281250002 14.677333328125002  4.490666671875001 15.306666656250002  5.674666671875 15.669333328125001  C 5.84533334375 14.538666656250001  6.816000000000001 13.664000000000001  8 13.664000000000001  C 9.184 13.664000000000001  10.154666671874999 14.538666671875001  10.325333328125 15.669333328125001  C 11.52 15.306666656250002  12.58666665625 14.677333328125002  13.472 13.845333328125003  C 12.575999999999999 13.130666656250003  12.309333328125 11.861333328125001  12.895999999999997 10.837333328125002  C 13.333333328124999 10.080000000000002  14.122666671874999 9.664000000000001  14.922666671874998 9.664000000000001  C 15.210666671875 9.664000000000001  15.509333343749997 9.717333328125001  15.786666671875 9.824000000000002  C 16.07110125435591 8.624633024611656  16.07110125435591 7.375366975388348  15.786666671875 6.176000000000002  C 15.50933334375 6.282666671875002  15.210666671875 6.336000000000002  14.922666671874998 6.336000000000002  C 14.112 6.336000000000002  13.322666671875002 5.920000000000002  12.895999999999997 5.162666671875002  C 12.309333328125 4.138666671875002  12.575999999999999 2.8693333437500015  13.472 2.154666671875001  Z " fill-rule="evenodd" />
    </mask>
  </defs>
  <g transform="matrix(1 0 0 1 -17 -15 )">
    <path d="M 8 2.976  C 9.205333328125 2.976  10.282666671874999 2.229333328125  10.741333328125 1.162666671875  C 11.381333328125 1.418666671875  11.989333328125 1.770666671875  12.533333328125 2.197333328125  C 11.84 3.136  11.733333328125 4.437333328125  12.330666671874999 5.482666671875  C 12.863999999999999 6.4  13.856 6.976000000000001  14.912 6.976000000000001  C 15.029333328125 6.976000000000001  15.146666671875 6.965333328125  15.274666671875 6.9546666718750005  C 15.328 7.295999999999999  15.34933334375 7.647999999999999  15.349333328125002 7.989333328124999  C 15.349333312499999 8.33066665625  15.328 8.68266665625  15.274666671875 9.024  C 15.15733334375 9.013333328124999  15.039999999999997 9.002666671875  14.912 9.002666671875  C 13.845333328125 9.002666671875  12.853333328124998 9.578666671875  12.330666671874999 10.496  C 11.722666671874999 11.541333328125  11.82933334375 12.842666671875003  12.533333328125 13.781333328125001  C 11.989333328125 14.208000000000002  11.381333328125 14.559999999999999  10.741333328125 14.815999999999999  C 10.28266665625 13.738666671875  9.205333328125 13.002666671875001  8 13.002666671875001  C 6.7946666718749995 13.002666671875001  5.717333328125 13.749333343750001  5.258666671875 14.815999999999999  C 4.618666671875 14.559999999999999  4.010666671875 14.208000000000002  3.466666671875 13.781333328125001  C 4.16 12.84266665625  4.266666671875 11.541333328125  3.669333328125 10.496  C 3.136 9.578666671875  2.144 9.002666671875  1.088 9.002666671875  C 0.970666671875 9.002666671875  0.853333328125 9.01333334375  0.7253333281250001 9.024  C 0.672 8.682666671875  0.6506666562500001 8.330666671874999  0.650666671875 7.989333328124999  C 0.6506666875 7.647999984375  0.672 7.295999999999999  0.7253333281250001 6.9546666718750005  C 0.8426666562499999 6.965333343749999  0.9600000000000002 6.976000000000001  1.088 6.976000000000001  C 2.154666671875 6.976000000000001  3.1466666718750003 6.4  3.669333328125 5.482666671875  C 4.277333328125 4.43733334375  4.17066665625 3.136  3.466666671875 2.197333328125  C 4.010666671875001 1.77066665625  4.618666671875 1.41866665625  5.258666671875 1.162666671875  C 5.71733334375 2.24  6.7946666718749995 2.976  8 2.976  Z M 13.472 2.154666671875001  C 12.576265594691423 1.3142117955319896  11.49981778110904 0.6902369622509326  10.325333328125 0.3306666718750001  C 10.154666656249999 1.4613333437500002  9.184 2.336  8 2.336  C 6.816000000000001 2.336  5.845333328125 1.4613333281249998  5.674666671875 0.330666671875  C 4.48 0.69333334375  3.4133333437499997 1.322666671875  2.5280000000000005 2.154666671875  C 3.4240000000000004 2.8693333437499997  3.6906666718750003 4.138666671875  3.1040000000000005 5.162666671875  C 2.6666666718750007 5.92  1.8773333281250006 6.336  1.0773333281250004 6.336  C 0.7893333281250003 6.336  0.49066665625000033 6.282666671875  0.21333332812500042 6.176  C -0.07110125435590808 7.3753669753883475  -0.07110125435590808 8.624633024611654  0.21333332812500042 9.824  C 0.49066665625000033 9.717333328125  0.7893333281250003 9.664  1.0773333281250004 9.664  C 1.8880000000000003 9.664  2.6773333281250005 10.08  3.1040000000000005 10.837333328125  C 3.6906666718750003 11.861333328125  3.4240000000000004 13.13066665625  2.5280000000000005 13.845333328125003  C 3.4133333281250002 14.677333328125002  4.490666671875001 15.306666656250002  5.674666671875 15.669333328125001  C 5.84533334375 14.538666656250001  6.816000000000001 13.664000000000001  8 13.664000000000001  C 9.184 13.664000000000001  10.154666671874999 14.538666671875001  10.325333328125 15.669333328125001  C 11.52 15.306666656250002  12.58666665625 14.677333328125002  13.472 13.845333328125003  C 12.575999999999999 13.130666656250003  12.309333328125 11.861333328125001  12.895999999999997 10.837333328125002  C 13.333333328124999 10.080000000000002  14.122666671874999 9.664000000000001  14.922666671874998 9.664000000000001  C 15.210666671875 9.664000000000001  15.509333343749997 9.717333328125001  15.786666671875 9.824000000000002  C 16.07110125435591 8.624633024611656  16.07110125435591 7.375366975388348  15.786666671875 6.176000000000002  C 15.50933334375 6.282666671875002  15.210666671875 6.336000000000002  14.922666671874998 6.336000000000002  C 14.112 6.336000000000002  13.322666671875002 5.920000000000002  12.895999999999997 5.162666671875002  C 12.309333328125 4.138666671875002  12.575999999999999 2.8693333437500015  13.472 2.154666671875001  Z " fill-rule="nonzero" fill="rgba(85, 85, 85, 1)" stroke="none" transform="matrix(1 0 0 1 17 15 )" class="fill" />
    <path d="M 8 2.976  C 9.205333328125 2.976  10.282666671874999 2.229333328125  10.741333328125 1.162666671875  C 11.381333328125 1.418666671875  11.989333328125 1.770666671875  12.533333328125 2.197333328125  C 11.84 3.136  11.733333328125 4.437333328125  12.330666671874999 5.482666671875  C 12.863999999999999 6.4  13.856 6.976000000000001  14.912 6.976000000000001  C 15.029333328125 6.976000000000001  15.146666671875 6.965333328125  15.274666671875 6.9546666718750005  C 15.328 7.295999999999999  15.34933334375 7.647999999999999  15.349333328125002 7.989333328124999  C 15.349333312499999 8.33066665625  15.328 8.68266665625  15.274666671875 9.024  C 15.15733334375 9.013333328124999  15.039999999999997 9.002666671875  14.912 9.002666671875  C 13.845333328125 9.002666671875  12.853333328124998 9.578666671875  12.330666671874999 10.496  C 11.722666671874999 11.541333328125  11.82933334375 12.842666671875003  12.533333328125 13.781333328125001  C 11.989333328125 14.208000000000002  11.381333328125 14.559999999999999  10.741333328125 14.815999999999999  C 10.28266665625 13.738666671875  9.205333328125 13.002666671875001  8 13.002666671875001  C 6.7946666718749995 13.002666671875001  5.717333328125 13.749333343750001  5.258666671875 14.815999999999999  C 4.618666671875 14.559999999999999  4.010666671875 14.208000000000002  3.466666671875 13.781333328125001  C 4.16 12.84266665625  4.266666671875 11.541333328125  3.669333328125 10.496  C 3.136 9.578666671875  2.144 9.002666671875  1.088 9.002666671875  C 0.970666671875 9.002666671875  0.853333328125 9.01333334375  0.7253333281250001 9.024  C 0.672 8.682666671875  0.6506666562500001 8.330666671874999  0.650666671875 7.989333328124999  C 0.6506666875 7.647999984375  0.672 7.295999999999999  0.7253333281250001 6.9546666718750005  C 0.8426666562499999 6.965333343749999  0.9600000000000002 6.976000000000001  1.088 6.976000000000001  C 2.154666671875 6.976000000000001  3.1466666718750003 6.4  3.669333328125 5.482666671875  C 4.277333328125 4.43733334375  4.17066665625 3.136  3.466666671875 2.197333328125  C 4.010666671875001 1.77066665625  4.618666671875 1.41866665625  5.258666671875 1.162666671875  C 5.71733334375 2.24  6.7946666718749995 2.976  8 2.976  Z " stroke-width="0" stroke-dasharray="0" stroke="rgba(255, 255, 255, 0)" fill="none" transform="matrix(1 0 0 1 17 15 )" class="stroke" mask="url(#Clip1685)" />
    <path d="M 13.472 2.154666671875001  C 12.576265594691423 1.3142117955319896  11.49981778110904 0.6902369622509326  10.325333328125 0.3306666718750001  C 10.154666656249999 1.4613333437500002  9.184 2.336  8 2.336  C 6.816000000000001 2.336  5.845333328125 1.4613333281249998  5.674666671875 0.330666671875  C 4.48 0.69333334375  3.4133333437499997 1.322666671875  2.5280000000000005 2.154666671875  C 3.4240000000000004 2.8693333437499997  3.6906666718750003 4.138666671875  3.1040000000000005 5.162666671875  C 2.6666666718750007 5.92  1.8773333281250006 6.336  1.0773333281250004 6.336  C 0.7893333281250003 6.336  0.49066665625000033 6.282666671875  0.21333332812500042 6.176  C -0.07110125435590808 7.3753669753883475  -0.07110125435590808 8.624633024611654  0.21333332812500042 9.824  C 0.49066665625000033 9.717333328125  0.7893333281250003 9.664  1.0773333281250004 9.664  C 1.8880000000000003 9.664  2.6773333281250005 10.08  3.1040000000000005 10.837333328125  C 3.6906666718750003 11.861333328125  3.4240000000000004 13.13066665625  2.5280000000000005 13.845333328125003  C 3.4133333281250002 14.677333328125002  4.490666671875001 15.306666656250002  5.674666671875 15.669333328125001  C 5.84533334375 14.538666656250001  6.816000000000001 13.664000000000001  8 13.664000000000001  C 9.184 13.664000000000001  10.154666671874999 14.538666671875001  10.325333328125 15.669333328125001  C 11.52 15.306666656250002  12.58666665625 14.677333328125002  13.472 13.845333328125003  C 12.575999999999999 13.130666656250003  12.309333328125 11.861333328125001  12.895999999999997 10.837333328125002  C 13.333333328124999 10.080000000000002  14.122666671874999 9.664000000000001  14.922666671874998 9.664000000000001  C 15.210666671875 9.664000000000001  15.509333343749997 9.717333328125001  15.786666671875 9.824000000000002  C 16.07110125435591 8.624633024611656  16.07110125435591 7.375366975388348  15.786666671875 6.176000000000002  C 15.50933334375 6.282666671875002  15.210666671875 6.336000000000002  14.922666671874998 6.336000000000002  C 14.112 6.336000000000002  13.322666671875002 5.920000000000002  12.895999999999997 5.162666671875002  C 12.309333328125 4.138666671875002  12.575999999999999 2.8693333437500015  13.472 2.154666671875001  Z " stroke-width="0" stroke-dasharray="0" stroke="rgba(255, 255, 255, 0)" fill="none" transform="matrix(1 0 0 1 17 15 )" class="stroke" mask="url(#Clip1685)" />
  </g>
</svg>