<?xml version="1.0" encoding="utf-8"?>
<svg version="1.1" xmlns:xlink="http://www.w3.org/1999/xlink" width="13px" height="17px" xmlns="http://www.w3.org/2000/svg">
  <defs>
    <pattern id="BGPattern" patternUnits="userSpaceOnUse" alignment="0 0" imageRepeat="None" />
    <mask fill="white" id="Clip1377">
      <path d="M 0.24722605357142818 3.2867300357142857  L 0.24722605357142818 0.3112642857142858  L 1.047602071428571 0.3112642857142858  L 1.047602071428571 3.2867300357142857  L 0.24722605357142818 3.2867300357142857  Z M 7.520374392857144 7.637843428571428  C 8.454935571428571 7.637843428571428  9.343450696428572 7.9938750178571425  10.02226080357143 8.640322535714287  C 10.703090839285714 9.288724857142856  11.101932214285714 10.163252410714287  11.145328446428573 11.102830874999999  C 11.190071303571429 12.072056910714284  10.854717017857144 13.000688589285714  10.201015071428575 13.717682160714284  C 9.547313107142859 14.434675732142855  8.653520071428574 14.854172678571427  7.684294017857145 14.898937249999998  C 7.627496642857146 14.901565357142854  7.569982517857145 14.90289026785714  7.513293732142859 14.90289026785714  C 6.578623946428575 14.90289026785714  5.690043660714289 14.546880410714282  5.011255285714288 13.900454589285712  C 4.330425250000003 13.252073982142855  3.9315838750000034 12.37752471428571  3.8881876250000027 11.437902821428569  C 3.843444767857145 10.468676785714283  4.178799053571431 9.540045107142856  4.832501017857145 8.823051535714285  C 5.486202982142858 8.106057964285712  6.3799960178571435 7.686561017857143  7.349222071428573 7.641818160714284  C 7.406184292603925 7.639188813214956  7.46319948385859 7.637870791620918  7.520222357142859 7.637865142857143  Z M 11.94483567857143 11.065928874999999  C 11.835128785714286 8.689908928571429  9.874435571428572 6.837380517857142  7.520200642857144 6.837467392857143  C 7.4512835892857145 6.837467392857143  7.381867000000002 6.839052946428572  7.3122983571428595 6.842267482142857  C 4.866731500000002 6.955188910714285  2.9757372500000017 9.02923794642857  3.088636964285716 11.474804821428572  C 3.1983438571428593 13.850803035714288  5.159037071428573 15.703266285714287  7.513272000000001 15.703266285714287  C 7.58218905357143 15.703266285714287  7.6516273749999995 15.701680732142858  7.721174303571428 15.698466214285714  C 10.166741160714285 15.585566499999999  12.057735410714287 13.511495749999998  11.94483567857143 11.065928874999999  Z " fill-rule="evenodd" />
    </mask>
  </defs>
  <g transform="matrix(1 0 0 1 -21 -15 )">
    <path d="M 0.24722605357142818 3.2867300357142857  L 0.24722605357142818 0.3112642857142858  L 1.047602071428571 0.3112642857142858  L 1.047602071428571 3.2867300357142857  L 0.24722605357142818 3.2867300357142857  Z M 7.520374392857144 7.637843428571428  C 8.454935571428571 7.637843428571428  9.343450696428572 7.9938750178571425  10.02226080357143 8.640322535714287  C 10.703090839285714 9.288724857142856  11.101932214285714 10.163252410714287  11.145328446428573 11.102830874999999  C 11.190071303571429 12.072056910714284  10.854717017857144 13.000688589285714  10.201015071428575 13.717682160714284  C 9.547313107142859 14.434675732142855  8.653520071428574 14.854172678571427  7.684294017857145 14.898937249999998  C 7.627496642857146 14.901565357142854  7.569982517857145 14.90289026785714  7.513293732142859 14.90289026785714  C 6.578623946428575 14.90289026785714  5.690043660714289 14.546880410714282  5.011255285714288 13.900454589285712  C 4.330425250000003 13.252073982142855  3.9315838750000034 12.37752471428571  3.8881876250000027 11.437902821428569  C 3.843444767857145 10.468676785714283  4.178799053571431 9.540045107142856  4.832501017857145 8.823051535714285  C 5.486202982142858 8.106057964285712  6.3799960178571435 7.686561017857143  7.349222071428573 7.641818160714284  C 7.406184292603925 7.639188813214956  7.46319948385859 7.637870791620918  7.520222357142859 7.637865142857143  Z M 11.94483567857143 11.065928874999999  C 11.835128785714286 8.689908928571429  9.874435571428572 6.837380517857142  7.520200642857144 6.837467392857143  C 7.4512835892857145 6.837467392857143  7.381867000000002 6.839052946428572  7.3122983571428595 6.842267482142857  C 4.866731500000002 6.955188910714285  2.9757372500000017 9.02923794642857  3.088636964285716 11.474804821428572  C 3.1983438571428593 13.850803035714288  5.159037071428573 15.703266285714287  7.513272000000001 15.703266285714287  C 7.58218905357143 15.703266285714287  7.6516273749999995 15.701680732142858  7.721174303571428 15.698466214285714  C 10.166741160714285 15.585566499999999  12.057735410714287 13.511495749999998  11.94483567857143 11.065928874999999  Z " fill-rule="nonzero" fill="rgba(81, 81, 81, 1)" stroke="none" transform="matrix(1 0 0 1 21 15 )" class="fill" />
    <path d="M 0.24722605357142818 3.2867300357142857  L 0.24722605357142818 0.3112642857142858  L 1.047602071428571 0.3112642857142858  L 1.047602071428571 3.2867300357142857  L 0.24722605357142818 3.2867300357142857  Z " stroke-width="0" stroke-dasharray="0" stroke="rgba(255, 255, 255, 0)" fill="none" transform="matrix(1 0 0 1 21 15 )" class="stroke" mask="url(#Clip1377)" />
    <path d="M 7.520374392857144 7.637843428571428  C 8.454935571428571 7.637843428571428  9.343450696428572 7.9938750178571425  10.02226080357143 8.640322535714287  C 10.703090839285714 9.288724857142856  11.101932214285714 10.163252410714287  11.145328446428573 11.102830874999999  C 11.190071303571429 12.072056910714284  10.854717017857144 13.000688589285714  10.201015071428575 13.717682160714284  C 9.547313107142859 14.434675732142855  8.653520071428574 14.854172678571427  7.684294017857145 14.898937249999998  C 7.627496642857146 14.901565357142854  7.569982517857145 14.90289026785714  7.513293732142859 14.90289026785714  C 6.578623946428575 14.90289026785714  5.690043660714289 14.546880410714282  5.011255285714288 13.900454589285712  C 4.330425250000003 13.252073982142855  3.9315838750000034 12.37752471428571  3.8881876250000027 11.437902821428569  C 3.843444767857145 10.468676785714283  4.178799053571431 9.540045107142856  4.832501017857145 8.823051535714285  C 5.486202982142858 8.106057964285712  6.3799960178571435 7.686561017857143  7.349222071428573 7.641818160714284  C 7.406184292603925 7.639188813214956  7.46319948385859 7.637870791620918  7.520222357142859 7.637865142857143  Z " stroke-width="0" stroke-dasharray="0" stroke="rgba(255, 255, 255, 0)" fill="none" transform="matrix(1 0 0 1 21 15 )" class="stroke" mask="url(#Clip1377)" />
    <path d="M 11.94483567857143 11.065928874999999  C 11.835128785714286 8.689908928571429  9.874435571428572 6.837380517857142  7.520200642857144 6.837467392857143  C 7.4512835892857145 6.837467392857143  7.381867000000002 6.839052946428572  7.3122983571428595 6.842267482142857  C 4.866731500000002 6.955188910714285  2.9757372500000017 9.02923794642857  3.088636964285716 11.474804821428572  C 3.1983438571428593 13.850803035714288  5.159037071428573 15.703266285714287  7.513272000000001 15.703266285714287  C 7.58218905357143 15.703266285714287  7.6516273749999995 15.701680732142858  7.721174303571428 15.698466214285714  C 10.166741160714285 15.585566499999999  12.057735410714287 13.511495749999998  11.94483567857143 11.065928874999999  Z " stroke-width="0" stroke-dasharray="0" stroke="rgba(255, 255, 255, 0)" fill="none" transform="matrix(1 0 0 1 21 15 )" class="stroke" mask="url(#Clip1377)" />
  </g>
</svg>