<?xml version="1.0" encoding="utf-8"?>
<svg version="1.1" xmlns:xlink="http://www.w3.org/1999/xlink" width="13px" height="14px" xmlns="http://www.w3.org/2000/svg">
  <defs>
    <pattern id="BGPattern" patternUnits="userSpaceOnUse" alignment="0 0" imageRepeat="None" />
    <mask fill="white" id="Clip1378">
      <path d="M 7.108196309782608 13.484832462499996  C 7.059219707389652 13.442334993140944  7.011114926445398 13.398861245287076  6.963911429347826 13.354437845  C 6.751795549351446 13.154312580169309  6.558570244882747 12.935412159215801  6.386642985054348 12.700463947499998  L 1.4916988478260869 12.700463947499998  C 1.1223286820652174 12.700463947499998  0.8217924741847825 12.402723199999999  1 12.0367626225  L 1 1.7071509174999993  C 0.8217924741847825 1.3411903224999993  1.1223072038043476 1.0434282949999993  1.4916988478260869 1.0434282949999993  L 11.247814676630435 1.0434282949999993  C 11.617184842391303 1.0434282949999993  11.91769957201087 1.3411690424999994  11.91769957201087 1.7071509174999993  L 11.91769957201087 5.480229475000001  C 12.192739492524392 5.580923332605438  12.457765541390076 5.706662294213033  12.709375850543479 5.8558323775000005  L 12.709375850543479 1.7071509175  C 12.709375850543479 0.9073930425000001  12.055002233695653 0.2590810774999999  11.247814676630435 0.25908106  L 1.4916988478260869 0.25908106  C 0.6844898125000001 0.25908106  0.03013767391304341 0.9074143050000002  0 1.7071509175  L 0 12.0367626225  C 0.03013767391304341 12.836520497499999  0.6845112907608696 13.4848324625  1.4916988478260869 13.4848324625  L 7.108196309782608 13.484832462499996  Z " fill-rule="evenodd" />
    </mask>
  </defs>
  <g transform="matrix(1 0 0 1 -18 -16 )">
    <path d="M 7.108196309782608 13.484832462499996  C 7.059219707389652 13.442334993140944  7.011114926445398 13.398861245287076  6.963911429347826 13.354437845  C 6.751795549351446 13.154312580169309  6.558570244882747 12.935412159215801  6.386642985054348 12.700463947499998  L 1.4916988478260869 12.700463947499998  C 1.1223286820652174 12.700463947499998  0.8217924741847825 12.402723199999999  1 12.0367626225  L 1 1.7071509174999993  C 0.8217924741847825 1.3411903224999993  1.1223072038043476 1.0434282949999993  1.4916988478260869 1.0434282949999993  L 11.247814676630435 1.0434282949999993  C 11.617184842391303 1.0434282949999993  11.91769957201087 1.3411690424999994  11.91769957201087 1.7071509174999993  L 11.91769957201087 5.480229475000001  C 12.192739492524392 5.580923332605438  12.457765541390076 5.706662294213033  12.709375850543479 5.8558323775000005  L 12.709375850543479 1.7071509175  C 12.709375850543479 0.9073930425000001  12.055002233695653 0.2590810774999999  11.247814676630435 0.25908106  L 1.4916988478260869 0.25908106  C 0.6844898125000001 0.25908106  0.03013767391304341 0.9074143050000002  0 1.7071509175  L 0 12.0367626225  C 0.03013767391304341 12.836520497499999  0.6845112907608696 13.4848324625  1.4916988478260869 13.4848324625  L 7.108196309782608 13.484832462499996  Z " fill-rule="nonzero" fill="rgba(81, 81, 81, 1)" stroke="none" transform="matrix(1 0 0 1 18 16 )" class="fill" />
    <path d="M 7.108196309782608 13.484832462499996  C 7.059219707389652 13.442334993140944  7.011114926445398 13.398861245287076  6.963911429347826 13.354437845  C 6.751795549351446 13.154312580169309  6.558570244882747 12.935412159215801  6.386642985054348 12.700463947499998  L 1.4916988478260869 12.700463947499998  C 1.1223286820652174 12.700463947499998  0.8217924741847825 12.402723199999999  1 12.0367626225  L 1 1.7071509174999993  C 0.8217924741847825 1.3411903224999993  1.1223072038043476 1.0434282949999993  1.4916988478260869 1.0434282949999993  L 11.247814676630435 1.0434282949999993  C 11.617184842391303 1.0434282949999993  11.91769957201087 1.3411690424999994  11.91769957201087 1.7071509174999993  L 11.91769957201087 5.480229475000001  C 12.192739492524392 5.580923332605438  12.457765541390076 5.706662294213033  12.709375850543479 5.8558323775000005  L 12.709375850543479 1.7071509175  C 12.709375850543479 0.9073930425000001  12.055002233695653 0.2590810774999999  11.247814676630435 0.25908106  L 1.4916988478260869 0.25908106  C 0.6844898125000001 0.25908106  0.03013767391304341 0.9074143050000002  0 1.7071509175  L 0 12.0367626225  C 0.03013767391304341 12.836520497499999  0.6845112907608696 13.4848324625  1.4916988478260869 13.4848324625  L 7.108196309782608 13.484832462499996  Z " stroke-width="0" stroke-dasharray="0" stroke="rgba(255, 255, 255, 0)" fill="none" transform="matrix(1 0 0 1 18 16 )" class="stroke" mask="url(#Clip1378)" />
  </g>
</svg>