<?xml version="1.0" encoding="utf-8"?>
<svg version="1.1" xmlns:xlink="http://www.w3.org/1999/xlink" width="11px" height="13px" xmlns="http://www.w3.org/2000/svg">
  <defs>
    <pattern id="BGPattern" patternUnits="userSpaceOnUse" alignment="0 0" imageRepeat="None" />
    <mask fill="white" id="Clip1379">
      <path d="M 9.9468384296875 7.515980769021738  L 9.946838429687498 7.517677975543478  C 10.220974957284398 7.646637392061835  10.479514323668287 7.8080645913525055  10.717200346875 7.998677710597827  L 10.717200346875 7.994896582880434  C 10.479417403092665 7.8050025766728135  10.220881198192112 7.644276722734019  9.9468384296875 7.515980769021738  Z M 10.666400353125 11.829123400815218  L 10.666400353124999 12.620778201086956  L 7.81723195 12.620778201086956  L 7.81723195 9.045344661684783  L 8.5875938671875 9.045344661684783  L 8.5875938671875 11.829123400815218  L 10.666400353125 11.829123400815218  Z M 0.3016562656249998 6.3753438831521745  L 0.3016562656249998 5.583667604619565  L 8.8654258859375 5.583667604619565  L 8.8654258859375 6.3753438831521745  L 0.3016562656249998 6.3753438831521745  Z M 7.0242295234375005 3.2510047092391305  L 7.0242295234375005 0.30788097826086963  L 7.7945914578125 0.30788097826086963  L 7.7945914578125 3.2510047092391305  L 7.0242295234375005 3.2510047092391305  Z M 3.805580057812501 12.240408357336955  C 3.746595027520145 11.980198187063657  3.708806854757413 11.71539032138356  3.6926075828125002 11.448732078804348  L 0.3016562656249998 11.448732078804348  L 0.3016562656249998 12.240408357336955  L 3.805580057812501 12.240408357336955  Z M 4.03882098125 9.307876111413044  C 4.151418522126725 9.031209054060557  4.289278530458363 8.76613170266591  4.4505517375 8.516199832880435  L 0.3016562656249998 8.516199832880435  L 0.3016562656249998 9.307876111413044  L 4.03882098125 9.307876111413044  Z " fill-rule="evenodd" />
    </mask>
  </defs>
  <g transform="matrix(1 0 0 1 -20 -15 )">
    <path d="M 9.9468384296875 7.515980769021738  L 9.946838429687498 7.517677975543478  C 10.220974957284398 7.646637392061835  10.479514323668287 7.8080645913525055  10.717200346875 7.998677710597827  L 10.717200346875 7.994896582880434  C 10.479417403092665 7.8050025766728135  10.220881198192112 7.644276722734019  9.9468384296875 7.515980769021738  Z M 10.666400353125 11.829123400815218  L 10.666400353124999 12.620778201086956  L 7.81723195 12.620778201086956  L 7.81723195 9.045344661684783  L 8.5875938671875 9.045344661684783  L 8.5875938671875 11.829123400815218  L 10.666400353125 11.829123400815218  Z M 0.3016562656249998 6.3753438831521745  L 0.3016562656249998 5.583667604619565  L 8.8654258859375 5.583667604619565  L 8.8654258859375 6.3753438831521745  L 0.3016562656249998 6.3753438831521745  Z M 7.0242295234375005 3.2510047092391305  L 7.0242295234375005 0.30788097826086963  L 7.7945914578125 0.30788097826086963  L 7.7945914578125 3.2510047092391305  L 7.0242295234375005 3.2510047092391305  Z M 3.805580057812501 12.240408357336955  C 3.746595027520145 11.980198187063657  3.708806854757413 11.71539032138356  3.6926075828125002 11.448732078804348  L 0.3016562656249998 11.448732078804348  L 0.3016562656249998 12.240408357336955  L 3.805580057812501 12.240408357336955  Z M 4.03882098125 9.307876111413044  C 4.151418522126725 9.031209054060557  4.289278530458363 8.76613170266591  4.4505517375 8.516199832880435  L 0.3016562656249998 8.516199832880435  L 0.3016562656249998 9.307876111413044  L 4.03882098125 9.307876111413044  Z " fill-rule="nonzero" fill="rgba(81, 81, 81, 1)" stroke="none" transform="matrix(1 0 0 1 20 15 )" class="fill" />
    <path d="M 9.9468384296875 7.515980769021738  L 9.946838429687498 7.517677975543478  C 10.220974957284398 7.646637392061835  10.479514323668287 7.8080645913525055  10.717200346875 7.998677710597827  L 10.717200346875 7.994896582880434  C 10.479417403092665 7.8050025766728135  10.220881198192112 7.644276722734019  9.9468384296875 7.515980769021738  Z " stroke-width="0" stroke-dasharray="0" stroke="rgba(255, 255, 255, 0)" fill="none" transform="matrix(1 0 0 1 20 15 )" class="stroke" mask="url(#Clip1379)" />
    <path d="M 10.666400353125 11.829123400815218  L 10.666400353124999 12.620778201086956  L 7.81723195 12.620778201086956  L 7.81723195 9.045344661684783  L 8.5875938671875 9.045344661684783  L 8.5875938671875 11.829123400815218  L 10.666400353125 11.829123400815218  Z " stroke-width="0" stroke-dasharray="0" stroke="rgba(255, 255, 255, 0)" fill="none" transform="matrix(1 0 0 1 20 15 )" class="stroke" mask="url(#Clip1379)" />
    <path d="M 0.3016562656249998 6.3753438831521745  L 0.3016562656249998 5.583667604619565  L 8.8654258859375 5.583667604619565  L 8.8654258859375 6.3753438831521745  L 0.3016562656249998 6.3753438831521745  Z " stroke-width="0" stroke-dasharray="0" stroke="rgba(255, 255, 255, 0)" fill="none" transform="matrix(1 0 0 1 20 15 )" class="stroke" mask="url(#Clip1379)" />
    <path d="M 7.0242295234375005 3.2510047092391305  L 7.0242295234375005 0.30788097826086963  L 7.7945914578125 0.30788097826086963  L 7.7945914578125 3.2510047092391305  L 7.0242295234375005 3.2510047092391305  Z " stroke-width="0" stroke-dasharray="0" stroke="rgba(255, 255, 255, 0)" fill="none" transform="matrix(1 0 0 1 20 15 )" class="stroke" mask="url(#Clip1379)" />
    <path d="M 3.805580057812501 12.240408357336955  C 3.746595027520145 11.980198187063657  3.708806854757413 11.71539032138356  3.6926075828125002 11.448732078804348  L 0.3016562656249998 11.448732078804348  L 0.3016562656249998 12.240408357336955  L 3.805580057812501 12.240408357336955  Z " stroke-width="0" stroke-dasharray="0" stroke="rgba(255, 255, 255, 0)" fill="none" transform="matrix(1 0 0 1 20 15 )" class="stroke" mask="url(#Clip1379)" />
    <path d="M 4.03882098125 9.307876111413044  C 4.151418522126725 9.031209054060557  4.289278530458363 8.76613170266591  4.4505517375 8.516199832880435  L 0.3016562656249998 8.516199832880435  L 0.3016562656249998 9.307876111413044  L 4.03882098125 9.307876111413044  Z " stroke-width="0" stroke-dasharray="0" stroke="rgba(255, 255, 255, 0)" fill="none" transform="matrix(1 0 0 1 20 15 )" class="stroke" mask="url(#Clip1379)" />
  </g>
</svg>