<?xml version="1.0" encoding="utf-8"?>
<svg version="1.1" xmlns:xlink="http://www.w3.org/1999/xlink" width="20px" height="19px" xmlns="http://www.w3.org/2000/svg">
  <defs>
    <pattern id="BGPattern" patternUnits="userSpaceOnUse" alignment="0 0" imageRepeat="None" />
    <mask fill="white" id="Clip1302">
      <path d="M 17.61975058964844 4.5449038933593755  L 19.739761849023438 0.7350285986328127  L 18.48004501328125 0.7350285986328127  L 16.575107366015626 4.2991054933593755  L 14.608720118554688 0.7350285986328124  L 13.31827847109375 0.7350285986328124  L 15.407564942382812 4.5449038933593755  L 14.055673694726563 4.5449038933593755  C 14.055673694726563 4.6370783052734375  14.055673694726563 5.6509967171875015  14.024948906640624 5.773895916992187  L 15.899161742382812 5.773895916992187  L 15.92988655390625 6.388391940625  L 14.055673694726563 6.388391940625  L 14.055673694726563 7.648108776171874  L 15.92988655390625 7.648108776171874  L 15.92988655390625 9.0614496  L 17.158878577734377 9.0614496  L 17.158878577734377 7.648108776171874  L 19.002366625195314 7.648108776171874  L 19.002366625195314 6.388391940625  L 17.158878577734377 6.388391940625  L 17.158878577734377 5.712446316992188  L 19.002366625195314 5.712446316992188  C 19.002366625195314 5.589547116992188  19.033091437109377 4.637078281445312  19.03309141328125 4.5449038933593755  L 17.61975058964844 4.5449038933593755  Z M 14.362921694726563 15.943804966015623  C 14.577995306640625 15.667281754101563  14.547270494726563 15.298584154101562  14.270747306640626 15.083510542382811  C 13.994224094726563 14.86843693046875  13.625526494726563 14.899161742382812  13.410452883007814 15.175684953906252  C 12.120011259179687 16.742649789453125  10.245798399999998 17.633669025000003  8.217961552734375 17.63366900136719  C 4.500260669726563 17.63366900136719  1.4892301988281254 14.622638530273438  1.4892301986328127 10.904937647265626  C 1.4892301986328127 8.692752  2.5645982341796882 6.6341903406250005  4.408086257617187 5.374473505273438  C 4.68460946953125 5.190124705273438  4.74605906953125 4.7907022933593755  4.56171026953125 4.514179081445313  C 4.37736146953125 4.237655869531251  3.9779390576171876 4.17620626953125  3.70141584609375 4.360555093359375  C 1.5506797988281251 5.80462072890625  0.26023815136718753 8.2626048  0.2602381509765628 10.874212835546874  C 0.2602381509765628 15.267859342187498  3.8243150457031256 18.83193623691406  8.217961552734375 18.831936237109375  C 10.614495999999999 18.831936237109375  12.857406459375 17.787293013281246  14.362921694726563 15.943804966015623  Z " fill-rule="evenodd" />
    </mask>
  </defs>
  <g transform="matrix(1 0 0 1 -319 -343 )">
    <path d="M 17.61975058964844 4.5449038933593755  L 19.739761849023438 0.7350285986328127  L 18.48004501328125 0.7350285986328127  L 16.575107366015626 4.2991054933593755  L 14.608720118554688 0.7350285986328124  L 13.31827847109375 0.7350285986328124  L 15.407564942382812 4.5449038933593755  L 14.055673694726563 4.5449038933593755  C 14.055673694726563 4.6370783052734375  14.055673694726563 5.6509967171875015  14.024948906640624 5.773895916992187  L 15.899161742382812 5.773895916992187  L 15.92988655390625 6.388391940625  L 14.055673694726563 6.388391940625  L 14.055673694726563 7.648108776171874  L 15.92988655390625 7.648108776171874  L 15.92988655390625 9.0614496  L 17.158878577734377 9.0614496  L 17.158878577734377 7.648108776171874  L 19.002366625195314 7.648108776171874  L 19.002366625195314 6.388391940625  L 17.158878577734377 6.388391940625  L 17.158878577734377 5.712446316992188  L 19.002366625195314 5.712446316992188  C 19.002366625195314 5.589547116992188  19.033091437109377 4.637078281445312  19.03309141328125 4.5449038933593755  L 17.61975058964844 4.5449038933593755  Z M 14.362921694726563 15.943804966015623  C 14.577995306640625 15.667281754101563  14.547270494726563 15.298584154101562  14.270747306640626 15.083510542382811  C 13.994224094726563 14.86843693046875  13.625526494726563 14.899161742382812  13.410452883007814 15.175684953906252  C 12.120011259179687 16.742649789453125  10.245798399999998 17.633669025000003  8.217961552734375 17.63366900136719  C 4.500260669726563 17.63366900136719  1.4892301988281254 14.622638530273438  1.4892301986328127 10.904937647265626  C 1.4892301986328127 8.692752  2.5645982341796882 6.6341903406250005  4.408086257617187 5.374473505273438  C 4.68460946953125 5.190124705273438  4.74605906953125 4.7907022933593755  4.56171026953125 4.514179081445313  C 4.37736146953125 4.237655869531251  3.9779390576171876 4.17620626953125  3.70141584609375 4.360555093359375  C 1.5506797988281251 5.80462072890625  0.26023815136718753 8.2626048  0.2602381509765628 10.874212835546874  C 0.2602381509765628 15.267859342187498  3.8243150457031256 18.83193623691406  8.217961552734375 18.831936237109375  C 10.614495999999999 18.831936237109375  12.857406459375 17.787293013281246  14.362921694726563 15.943804966015623  Z " fill-rule="nonzero" fill="rgba(255, 255, 255, 1)" stroke="none" transform="matrix(1 0 0 1 319 343 )" class="fill" />
    <path d="M 17.61975058964844 4.5449038933593755  L 19.739761849023438 0.7350285986328127  L 18.48004501328125 0.7350285986328127  L 16.575107366015626 4.2991054933593755  L 14.608720118554688 0.7350285986328124  L 13.31827847109375 0.7350285986328124  L 15.407564942382812 4.5449038933593755  L 14.055673694726563 4.5449038933593755  C 14.055673694726563 4.6370783052734375  14.055673694726563 5.6509967171875015  14.024948906640624 5.773895916992187  L 15.899161742382812 5.773895916992187  L 15.92988655390625 6.388391940625  L 14.055673694726563 6.388391940625  L 14.055673694726563 7.648108776171874  L 15.92988655390625 7.648108776171874  L 15.92988655390625 9.0614496  L 17.158878577734377 9.0614496  L 17.158878577734377 7.648108776171874  L 19.002366625195314 7.648108776171874  L 19.002366625195314 6.388391940625  L 17.158878577734377 6.388391940625  L 17.158878577734377 5.712446316992188  L 19.002366625195314 5.712446316992188  C 19.002366625195314 5.589547116992188  19.033091437109377 4.637078281445312  19.03309141328125 4.5449038933593755  L 17.61975058964844 4.5449038933593755  Z " stroke-width="0" stroke-dasharray="0" stroke="rgba(255, 255, 255, 0)" fill="none" transform="matrix(1 0 0 1 319 343 )" class="stroke" mask="url(#Clip1302)" />
    <path d="M 14.362921694726563 15.943804966015623  C 14.577995306640625 15.667281754101563  14.547270494726563 15.298584154101562  14.270747306640626 15.083510542382811  C 13.994224094726563 14.86843693046875  13.625526494726563 14.899161742382812  13.410452883007814 15.175684953906252  C 12.120011259179687 16.742649789453125  10.245798399999998 17.633669025000003  8.217961552734375 17.63366900136719  C 4.500260669726563 17.63366900136719  1.4892301988281254 14.622638530273438  1.4892301986328127 10.904937647265626  C 1.4892301986328127 8.692752  2.5645982341796882 6.6341903406250005  4.408086257617187 5.374473505273438  C 4.68460946953125 5.190124705273438  4.74605906953125 4.7907022933593755  4.56171026953125 4.514179081445313  C 4.37736146953125 4.237655869531251  3.9779390576171876 4.17620626953125  3.70141584609375 4.360555093359375  C 1.5506797988281251 5.80462072890625  0.26023815136718753 8.2626048  0.2602381509765628 10.874212835546874  C 0.2602381509765628 15.267859342187498  3.8243150457031256 18.83193623691406  8.217961552734375 18.831936237109375  C 10.614495999999999 18.831936237109375  12.857406459375 17.787293013281246  14.362921694726563 15.943804966015623  Z " stroke-width="0" stroke-dasharray="0" stroke="rgba(255, 255, 255, 0)" fill="none" transform="matrix(1 0 0 1 319 343 )" class="stroke" mask="url(#Clip1302)" />
  </g>
</svg>