<?xml version="1.0" encoding="utf-8"?>
<svg version="1.1" xmlns:xlink="http://www.w3.org/1999/xlink" width="20px" height="16px" xmlns="http://www.w3.org/2000/svg">
  <defs>
    <pattern id="BGPattern" patternUnits="userSpaceOnUse" alignment="0 0" imageRepeat="None" />
    <mask fill="white" id="Clip221">
      <path d="M 19.99733555370525 6.777918401332224  L 19.99450457951707 6.777918401332222  C 19.994505127862098 6.777440748021624  19.994505402034672 6.776963094441781  19.994505402034672 6.776485440816433  C 19.994505402034672 6.087667890691206  19.436527338735377 5.529049637389461  18.747710241465448 5.528259783513738  L 17.176702747710245 5.528259783513738  L 17.13100749375521 5.111240632805995  L 15.723530391340555 5.111240632805995  L 15.823513738551211 5.859600333055786  C 15.862582697500343 6.374113291522415  15.534262203915404 6.845093459402813  15.038001665278939 7  L 4.957918401332223 7  C 4.461321515480471 6.845567954580524  4.132782230279558 6.37426393557641  4.1724229808492925 5.859600333055786  L 4.54089925062448 3.1082264779350544  C 4.6807400264350605 2.5006871162742215  5.242252664686382 2.0855276046833344  5.864096586178185 2.1299084096586185  L 7.006644462947545 1.9771024146544551  C 7.720732722731057 1.8821149042464613  8.441248959200667 1.822131557035803  9.162481265611989 1.7964196502914245  L 9.162481265611987 0.4325228975853457  C 8.187763134606293 0.4672744892341063  7.216153472303541 0.562668508180149  6.253288925895087 0.7181515403830145  L 4.825095753538717 0.9473771856786013  C 3.9762396886929032 0.9462854494194808  3.2627844102146053 1.5846397944914887  3.169841798501248 2.428393005828477  L 2.822081598667776 5.52969192339717  L 1.251090757701915 5.529691923397168  C 0.560923360586138 5.529691923397168  0.0014321398834303473 6.089183144099877  0.0014321398834303473 6.7793505412156545  C 0.0014321398834303473 7.46951793833143  0.560923360586138 8.029009159034139  1.251090757701915 8.029009159034139  L 1.3067776852622812 8.029009159034139  C 1.0000837558739348 8.452699754275345  0.8355863129853045 8.962703043716024  0.8369192339716901 9.485745212323064  L 0.83691923397169 11.152422980849293  C 0.8376902411075042 12.088337805593639  1.3612923399737134 12.945391293881901  2.1936885928393 13.373238967527062  L 2.1936885928393 14.694304746044967  C 2.1932929429152455 15.153354952104277  2.5650963543869008 15.5258144565437  3.0241465445462112 15.526228143213988  L 4.685845129059117 15.526228143213988  C 5.144735832460253 15.526228823201869  5.51696188624072 15.15464356213149  5.517751873438801 14.695753538717735  L 5.517751873438801 13.653172356369694  L 14.474571190674437 13.653172356369694  L 14.474571190674437 14.693588676103246  C 14.474184748316908 15.152645376284905  14.846005755325907 15.525100114031133  15.305062447960031 15.52549542048293  L 16.973888426311404 15.52549542048293  C 17.43278563069892 15.525505286508057  17.805021825196178 15.153917340482913  17.805811823480433 14.695020815986677  L 17.805811823480433 13.372522897585345  C 18.63820807634602 12.944675223940182  19.161810175212224 12.087621735651924  19.162581182348042 11.151706910907576  L 19.162581182348042 9.485745212323064  C 19.162644200368323 8.962009617798785  18.997185523845204 8.45165108277011  18.68984179850125 8.027577019150709  L 18.745545378850952 8.027577019150707  C 19.435155242499032 8.028756097550824  19.99536997328695 7.4710901686510205  19.99733555370525 6.781482098251457  L 19.99733555370525 6.777918401332224  Z M 4.686561199000832 11.572323064113236  C 3.8812436466241422 11.572313867053394  3.2284096587129083 10.919472423465178  3.2284096587129083 10.11415487103597  C 3.2284096587129083 9.308830815258558  3.8812537961078504 8.655986677863615  4.686577851885265 8.655986677863615  C 5.491895404314473 8.655986677863615  6.1447368479026885 9.308820665774848  6.14474604496253 10.11413821815154  C 6.144746045057621 10.919478926813387  5.491901907662679 11.572323064208327  4.686577851885265 11.572323064208327  Z M 15.307943380611327 11.572323064113236  C 14.50261932483391 11.572323064113236  13.849775187438969 10.919478926718295  13.849775187438969 10.114154870940881  C 13.849775187438969 9.308830815163466  14.50261932483391 8.655986677768524  15.307943380611327 8.655986677768524  C 16.113260933077665 8.655986677768524  16.766102376681268 9.308820665737715  16.76611157368859 10.11413821815154  C 16.7661115737857 10.919479102540372  16.113267436390757 11.572323239935317  15.307943380613342 11.572323239935317  Z " fill-rule="evenodd" />
    </mask>
  </defs>
  <g transform="matrix(1 0 0 1 -170 -617 )">
    <path d="M 19.99733555370525 6.777918401332224  L 19.99450457951707 6.777918401332222  C 19.994505127862098 6.777440748021624  19.994505402034672 6.776963094441781  19.994505402034672 6.776485440816433  C 19.994505402034672 6.087667890691206  19.436527338735377 5.529049637389461  18.747710241465448 5.528259783513738  L 17.176702747710245 5.528259783513738  L 17.13100749375521 5.111240632805995  L 15.723530391340555 5.111240632805995  L 15.823513738551211 5.859600333055786  C 15.862582697500343 6.374113291522415  15.534262203915404 6.845093459402813  15.038001665278939 7  L 4.957918401332223 7  C 4.461321515480471 6.845567954580524  4.132782230279558 6.37426393557641  4.1724229808492925 5.859600333055786  L 4.54089925062448 3.1082264779350544  C 4.6807400264350605 2.5006871162742215  5.242252664686382 2.0855276046833344  5.864096586178185 2.1299084096586185  L 7.006644462947545 1.9771024146544551  C 7.720732722731057 1.8821149042464613  8.441248959200667 1.822131557035803  9.162481265611989 1.7964196502914245  L 9.162481265611987 0.4325228975853457  C 8.187763134606293 0.4672744892341063  7.216153472303541 0.562668508180149  6.253288925895087 0.7181515403830145  L 4.825095753538717 0.9473771856786013  C 3.9762396886929032 0.9462854494194808  3.2627844102146053 1.5846397944914887  3.169841798501248 2.428393005828477  L 2.822081598667776 5.52969192339717  L 1.251090757701915 5.529691923397168  C 0.560923360586138 5.529691923397168  0.0014321398834303473 6.089183144099877  0.0014321398834303473 6.7793505412156545  C 0.0014321398834303473 7.46951793833143  0.560923360586138 8.029009159034139  1.251090757701915 8.029009159034139  L 1.3067776852622812 8.029009159034139  C 1.0000837558739348 8.452699754275345  0.8355863129853045 8.962703043716024  0.8369192339716901 9.485745212323064  L 0.83691923397169 11.152422980849293  C 0.8376902411075042 12.088337805593639  1.3612923399737134 12.945391293881901  2.1936885928393 13.373238967527062  L 2.1936885928393 14.694304746044967  C 2.1932929429152455 15.153354952104277  2.5650963543869008 15.5258144565437  3.0241465445462112 15.526228143213988  L 4.685845129059117 15.526228143213988  C 5.144735832460253 15.526228823201869  5.51696188624072 15.15464356213149  5.517751873438801 14.695753538717735  L 5.517751873438801 13.653172356369694  L 14.474571190674437 13.653172356369694  L 14.474571190674437 14.693588676103246  C 14.474184748316908 15.152645376284905  14.846005755325907 15.525100114031133  15.305062447960031 15.52549542048293  L 16.973888426311404 15.52549542048293  C 17.43278563069892 15.525505286508057  17.805021825196178 15.153917340482913  17.805811823480433 14.695020815986677  L 17.805811823480433 13.372522897585345  C 18.63820807634602 12.944675223940182  19.161810175212224 12.087621735651924  19.162581182348042 11.151706910907576  L 19.162581182348042 9.485745212323064  C 19.162644200368323 8.962009617798785  18.997185523845204 8.45165108277011  18.68984179850125 8.027577019150709  L 18.745545378850952 8.027577019150707  C 19.435155242499032 8.028756097550824  19.99536997328695 7.4710901686510205  19.99733555370525 6.781482098251457  L 19.99733555370525 6.777918401332224  Z M 4.686561199000832 11.572323064113236  C 3.8812436466241422 11.572313867053394  3.2284096587129083 10.919472423465178  3.2284096587129083 10.11415487103597  C 3.2284096587129083 9.308830815258558  3.8812537961078504 8.655986677863615  4.686577851885265 8.655986677863615  C 5.491895404314473 8.655986677863615  6.1447368479026885 9.308820665774848  6.14474604496253 10.11413821815154  C 6.144746045057621 10.919478926813387  5.491901907662679 11.572323064208327  4.686577851885265 11.572323064208327  Z M 15.307943380611327 11.572323064113236  C 14.50261932483391 11.572323064113236  13.849775187438969 10.919478926718295  13.849775187438969 10.114154870940881  C 13.849775187438969 9.308830815163466  14.50261932483391 8.655986677768524  15.307943380611327 8.655986677768524  C 16.113260933077665 8.655986677768524  16.766102376681268 9.308820665737715  16.76611157368859 10.11413821815154  C 16.7661115737857 10.919479102540372  16.113267436390757 11.572323239935317  15.307943380613342 11.572323239935317  Z " fill-rule="nonzero" fill="rgba(255, 255, 255, 1)" stroke="none" transform="matrix(1 0 0 1 170 617 )" class="fill" />
    <path d="M 19.99733555370525 6.777918401332224  L 19.99450457951707 6.777918401332222  C 19.994505127862098 6.777440748021624  19.994505402034672 6.776963094441781  19.994505402034672 6.776485440816433  C 19.994505402034672 6.087667890691206  19.436527338735377 5.529049637389461  18.747710241465448 5.528259783513738  L 17.176702747710245 5.528259783513738  L 17.13100749375521 5.111240632805995  L 15.723530391340555 5.111240632805995  L 15.823513738551211 5.859600333055786  C 15.862582697500343 6.374113291522415  15.534262203915404 6.845093459402813  15.038001665278939 7  L 4.957918401332223 7  C 4.461321515480471 6.845567954580524  4.132782230279558 6.37426393557641  4.1724229808492925 5.859600333055786  L 4.54089925062448 3.1082264779350544  C 4.6807400264350605 2.5006871162742215  5.242252664686382 2.0855276046833344  5.864096586178185 2.1299084096586185  L 7.006644462947545 1.9771024146544551  C 7.720732722731057 1.8821149042464613  8.441248959200667 1.822131557035803  9.162481265611989 1.7964196502914245  L 9.162481265611987 0.4325228975853457  C 8.187763134606293 0.4672744892341063  7.216153472303541 0.562668508180149  6.253288925895087 0.7181515403830145  L 4.825095753538717 0.9473771856786013  C 3.9762396886929032 0.9462854494194808  3.2627844102146053 1.5846397944914887  3.169841798501248 2.428393005828477  L 2.822081598667776 5.52969192339717  L 1.251090757701915 5.529691923397168  C 0.560923360586138 5.529691923397168  0.0014321398834303473 6.089183144099877  0.0014321398834303473 6.7793505412156545  C 0.0014321398834303473 7.46951793833143  0.560923360586138 8.029009159034139  1.251090757701915 8.029009159034139  L 1.3067776852622812 8.029009159034139  C 1.0000837558739348 8.452699754275345  0.8355863129853045 8.962703043716024  0.8369192339716901 9.485745212323064  L 0.83691923397169 11.152422980849293  C 0.8376902411075042 12.088337805593639  1.3612923399737134 12.945391293881901  2.1936885928393 13.373238967527062  L 2.1936885928393 14.694304746044967  C 2.1932929429152455 15.153354952104277  2.5650963543869008 15.5258144565437  3.0241465445462112 15.526228143213988  L 4.685845129059117 15.526228143213988  C 5.144735832460253 15.526228823201869  5.51696188624072 15.15464356213149  5.517751873438801 14.695753538717735  L 5.517751873438801 13.653172356369694  L 14.474571190674437 13.653172356369694  L 14.474571190674437 14.693588676103246  C 14.474184748316908 15.152645376284905  14.846005755325907 15.525100114031133  15.305062447960031 15.52549542048293  L 16.973888426311404 15.52549542048293  C 17.43278563069892 15.525505286508057  17.805021825196178 15.153917340482913  17.805811823480433 14.695020815986677  L 17.805811823480433 13.372522897585345  C 18.63820807634602 12.944675223940182  19.161810175212224 12.087621735651924  19.162581182348042 11.151706910907576  L 19.162581182348042 9.485745212323064  C 19.162644200368323 8.962009617798785  18.997185523845204 8.45165108277011  18.68984179850125 8.027577019150709  L 18.745545378850952 8.027577019150707  C 19.435155242499032 8.028756097550824  19.99536997328695 7.4710901686510205  19.99733555370525 6.781482098251457  L 19.99733555370525 6.777918401332224  Z " stroke-width="0" stroke-dasharray="0" stroke="rgba(255, 255, 255, 0)" fill="none" transform="matrix(1 0 0 1 170 617 )" class="stroke" mask="url(#Clip221)" />
    <path d="M 4.686561199000832 11.572323064113236  C 3.8812436466241422 11.572313867053394  3.2284096587129083 10.919472423465178  3.2284096587129083 10.11415487103597  C 3.2284096587129083 9.308830815258558  3.8812537961078504 8.655986677863615  4.686577851885265 8.655986677863615  C 5.491895404314473 8.655986677863615  6.1447368479026885 9.308820665774848  6.14474604496253 10.11413821815154  C 6.144746045057621 10.919478926813387  5.491901907662679 11.572323064208327  4.686577851885265 11.572323064208327  Z " stroke-width="0" stroke-dasharray="0" stroke="rgba(255, 255, 255, 0)" fill="none" transform="matrix(1 0 0 1 170 617 )" class="stroke" mask="url(#Clip221)" />
    <path d="M 15.307943380611327 11.572323064113236  C 14.50261932483391 11.572323064113236  13.849775187438969 10.919478926718295  13.849775187438969 10.114154870940881  C 13.849775187438969 9.308830815163466  14.50261932483391 8.655986677768524  15.307943380611327 8.655986677768524  C 16.113260933077665 8.655986677768524  16.766102376681268 9.308820665737715  16.76611157368859 10.11413821815154  C 16.7661115737857 10.919479102540372  16.113267436390757 11.572323239935317  15.307943380613342 11.572323239935317  Z " stroke-width="0" stroke-dasharray="0" stroke="rgba(255, 255, 255, 0)" fill="none" transform="matrix(1 0 0 1 170 617 )" class="stroke" mask="url(#Clip221)" />
  </g>
</svg>