<?xml version="1.0" encoding="utf-8"?>
<svg version="1.1" xmlns:xlink="http://www.w3.org/1999/xlink" width="20px" height="20px" xmlns="http://www.w3.org/2000/svg">
  <g transform="matrix(1 0 0 1 -21 -957 )">
    <path d="M 19.70703125 10.859374999999998  C 19.698350694444443 11.163194444444443  19.453125 11.408420138888884  19.147135416666668 11.417100694444445  L 16.71875 11.417100694444445  L 16.71875 10.983072916666668  C 16.71875 10.737847222222223  16.707899305555557 10.499131944444445  16.68402777777778 10.264756944444443  L 19.149305555555557 10.264756944444443  C 19.46831597222222 10.275607638888886  19.717881944444443 10.542534722222221  19.70703125 10.859374999999998  Z M 16.93142361111111 4.715711805555555  L 15.13888888888889 6.560329861111112  C 14.89583333333333 6.265190972222222  14.626736111111109 5.991753472222222  14.33810763888889 5.740017361111112  L 16.1328125 3.893229166666667  C 16.34331597222222 3.674045138888889  16.692708333333332 3.665364583333333  16.9140625 3.875868055555556  L 16.93142361111111 3.893229166666667  C 17.15277777777778 4.123263888888889  17.15277777777778 4.485677083333333  16.93142361111111 4.715711805555555  Z M 15.598958333333332 11.030815972222223  L 15.598958333333332 17.95355902777778  L 16.905381944444443 17.95355902777778  C 17.22439236111111 17.96440972222222  17.473958333333332 18.231336805555557  17.46310763888889 18.55034722222222  C 17.454427083333336 18.854166666666668  17.20920138888889 19.09939236111111  16.905381944444443 19  L 3.0859375 19  C 2.766927083333334 19.09939236111111  2.5173611111111116 18.83246527777778  2.528211805555556 18.51345486111111  C 2.5368923611111116 18.209635416666668  2.782118055555556 17.96440972222222  3.0859375 17.95355902777778  L 4.392361111111111 17.95355902777778  L 4.392361111111111 11.030815972222223  C 4.307725694444445 7.931857638888888  6.7491319444444455 5.3515625  9.84375 5.266927083333334  C 12.938368055555555 5.182291666666666  15.516493055555555 7.625868055555555  15.598958333333332 10.726996527777777  C 15.601128472222223 10.828993055555555  15.601128472222223 10.928819444444445  15.598958333333332 11.030815972222223  Z M 14.47916666666667 17.95355902777778  L 14.479166666666668 11.417100694444445  C 14.54861111111111 8.938802083333334  12.597656249999998 6.603732638888888  10.123697916666668 6.534288194444443  C 7.647569444444445 6.464843749999999  5.5859375 8.68706597222222  5.514322916666669 11.16536458333333  C 5.512152777777779 11.249999999999998  5.512152777777779 11.332465277777777  5.514322916666669 11.417100694444445  L 5.514322916666669 17.95355902777778  L 14.47916666666667 17.95355902777778  Z M 9.999999999999998 4.105902777777778  C 9.809027777777775 4.105902777777778  9.626736111111109 4.123263888888889  9.444444444444445 4.136284722222221  L 9.444444444444445 1.4127604166666665  C 9.444444444444445 1.1024305555555556  9.694010416666666 0.8528645833333333  10.004340277777777 0.8528645833333333  C 10.3125 0.8528645833333333  10.564236111111109 1.1046006944444444  10.564236111111109 1.4127604166666665  L 10.564236111111109 4.136284722222222  C 10.375434027777775 4.12109375  10.190972222222218 4.105902777777778  9.999999999999998 4.105902777777778  Z M 5.755208333333334 5.655381944444445  C 5.462239583333334 5.8984375  5.193142361111112 6.167534722222223  4.947916666666667 6.456163194444445  L 3.131510416666667 4.585503472222222  C 2.9144965277777777 4.357638888888889  2.9144965277777777 3.9995659722222223  3.131510416666667 3.771701388888889  C 3.337673611111111 3.552517361111111  3.684895833333333 3.543836805555556  3.9019097222222223 3.75  L 3.923611111111111 3.771701388888889  L 5.755208333333334 5.655381944444445  Z M 3.309461805555556 10.260416666666668  C 3.287760416666667 10.501302083333332  3.274739583333333 10.7421875  3.274739583333333 10.983072916666668  L 3.274739583333333 11.417100694444445  L 0.8441840277777778 11.417100694444445  C 0.5251736111111108 11.40625  0.2756076388888886 11.139322916666668  0.2864583333333331 10.8203125  C 0.2951388888888889 10.516493055555555  0.5403645833333334 10.27126736111111  0.8441840277777778 10.260416666666668  L 3.309461805555556 10.260416666666668  Z " fill-rule="nonzero" fill="#ffffff" stroke="none" transform="matrix(1 0 0 1 21 957 )" />
  </g>
</svg>