<?xml version="1.0" encoding="utf-8"?>
<svg version="1.1" xmlns:xlink="http://www.w3.org/1999/xlink" width="14px" height="16px" xmlns="http://www.w3.org/2000/svg">
  <defs>
    <pattern id="BGPattern" patternUnits="userSpaceOnUse" alignment="0 0" imageRepeat="None" />
    <mask fill="white" id="Clip1303">
      <path d="M 12.466126577734375 12.273635247265624  L 10.99133615390625 13.779150483007811  L 8.410452883007814 10.983193623828125  L 4.201155176171875 10.983193623828125  C 4.047531164257812 10.983193623828125  3.9246319642578134 10.860294423828126  3.924631964453125 10.706670411914063  L 3.924631964453125 8.771007976171877  L 8.13392967109375 8.771007976171877  L 8.13392967109375 7.542015928906252  L 3.924631964453125 7.542015928906252  L 3.924631964453125 6.435923105273439  C 5.368697600000001 6.159399893359376  6.474790423828125 4.868958269726564  6.474790447265626 3.3327182460937514  C 6.474790447265626 1.5814046105468766  5.061449623437502 0.16806376308593884  3.310135964453126 0.16806376289062674  C 1.55882230546875 0.16806376269531464  0.14548148144531314 1.5814045867187518  0.14548148144531314 3.3327182460937514  C 0.14548148144531314 4.868958293359377  1.2515743052734383 6.159399917187502  2.695639940625001 6.435923105273439  L 2.695639940625001 10.706670411914063  C 2.695639940625001 11.536240023828126  3.3715855644531256 12.212185647460938  4.201155176171875 12.212185647265626  L 7.88813127109375 12.212185647265626  L 10.960611342382814 15.591913742382813  L 13.35714581328125 13.13392967109375  L 12.466126577734375 12.273635247265624  Z M 3.279411152734376 5.268380681445311  C 2.2040431173828123 5.26838068125  1.3437487171875002 4.408086257617186  1.343748716992188 3.332718246093749  C 1.343748716992188 2.257350210546874  2.204043140820313 1.397055810546874  3.279411152734376 1.3970557867187487  C 4.354779164648438 1.397055762890624  5.21507358828125 2.257350210546874  5.215073611914063 3.332718246093749  C 5.215073635546876 4.408086281640624  4.354779188085939 5.268380681640624  3.279411152734376 5.268380681445311  Z " fill-rule="evenodd" />
    </mask>
  </defs>
  <g transform="matrix(1 0 0 1 -324 -342 )">
    <path d="M 12.466126577734375 12.273635247265624  L 10.99133615390625 13.779150483007811  L 8.410452883007814 10.983193623828125  L 4.201155176171875 10.983193623828125  C 4.047531164257812 10.983193623828125  3.9246319642578134 10.860294423828126  3.924631964453125 10.706670411914063  L 3.924631964453125 8.771007976171877  L 8.13392967109375 8.771007976171877  L 8.13392967109375 7.542015928906252  L 3.924631964453125 7.542015928906252  L 3.924631964453125 6.435923105273439  C 5.368697600000001 6.159399893359376  6.474790423828125 4.868958269726564  6.474790447265626 3.3327182460937514  C 6.474790447265626 1.5814046105468766  5.061449623437502 0.16806376308593884  3.310135964453126 0.16806376289062674  C 1.55882230546875 0.16806376269531464  0.14548148144531314 1.5814045867187518  0.14548148144531314 3.3327182460937514  C 0.14548148144531314 4.868958293359377  1.2515743052734383 6.159399917187502  2.695639940625001 6.435923105273439  L 2.695639940625001 10.706670411914063  C 2.695639940625001 11.536240023828126  3.3715855644531256 12.212185647460938  4.201155176171875 12.212185647265626  L 7.88813127109375 12.212185647265626  L 10.960611342382814 15.591913742382813  L 13.35714581328125 13.13392967109375  L 12.466126577734375 12.273635247265624  Z M 3.279411152734376 5.268380681445311  C 2.2040431173828123 5.26838068125  1.3437487171875002 4.408086257617186  1.343748716992188 3.332718246093749  C 1.343748716992188 2.257350210546874  2.204043140820313 1.397055810546874  3.279411152734376 1.3970557867187487  C 4.354779164648438 1.397055762890624  5.21507358828125 2.257350210546874  5.215073611914063 3.332718246093749  C 5.215073635546876 4.408086281640624  4.354779188085939 5.268380681640624  3.279411152734376 5.268380681445311  Z " fill-rule="nonzero" fill="rgba(255, 255, 255, 1)" stroke="none" transform="matrix(1 0 0 1 324 342 )" class="fill" />
    <path d="M 12.466126577734375 12.273635247265624  L 10.99133615390625 13.779150483007811  L 8.410452883007814 10.983193623828125  L 4.201155176171875 10.983193623828125  C 4.047531164257812 10.983193623828125  3.9246319642578134 10.860294423828126  3.924631964453125 10.706670411914063  L 3.924631964453125 8.771007976171877  L 8.13392967109375 8.771007976171877  L 8.13392967109375 7.542015928906252  L 3.924631964453125 7.542015928906252  L 3.924631964453125 6.435923105273439  C 5.368697600000001 6.159399893359376  6.474790423828125 4.868958269726564  6.474790447265626 3.3327182460937514  C 6.474790447265626 1.5814046105468766  5.061449623437502 0.16806376308593884  3.310135964453126 0.16806376289062674  C 1.55882230546875 0.16806376269531464  0.14548148144531314 1.5814045867187518  0.14548148144531314 3.3327182460937514  C 0.14548148144531314 4.868958293359377  1.2515743052734383 6.159399917187502  2.695639940625001 6.435923105273439  L 2.695639940625001 10.706670411914063  C 2.695639940625001 11.536240023828126  3.3715855644531256 12.212185647460938  4.201155176171875 12.212185647265626  L 7.88813127109375 12.212185647265626  L 10.960611342382814 15.591913742382813  L 13.35714581328125 13.13392967109375  L 12.466126577734375 12.273635247265624  Z " stroke-width="0" stroke-dasharray="0" stroke="rgba(255, 255, 255, 0)" fill="none" transform="matrix(1 0 0 1 324 342 )" class="stroke" mask="url(#Clip1303)" />
    <path d="M 3.279411152734376 5.268380681445311  C 2.2040431173828123 5.26838068125  1.3437487171875002 4.408086257617186  1.343748716992188 3.332718246093749  C 1.343748716992188 2.257350210546874  2.204043140820313 1.397055810546874  3.279411152734376 1.3970557867187487  C 4.354779164648438 1.397055762890624  5.21507358828125 2.257350210546874  5.215073611914063 3.332718246093749  C 5.215073635546876 4.408086281640624  4.354779188085939 5.268380681640624  3.279411152734376 5.268380681445311  Z " stroke-width="0" stroke-dasharray="0" stroke="rgba(255, 255, 255, 0)" fill="none" transform="matrix(1 0 0 1 324 342 )" class="stroke" mask="url(#Clip1303)" />
  </g>
</svg>