<?xml version="1.0" encoding="utf-8"?>
<svg version="1.1" xmlns:xlink="http://www.w3.org/1999/xlink" width="17px" height="20px" xmlns="http://www.w3.org/2000/svg">
  <defs>
    <pattern id="BGPattern" patternUnits="userSpaceOnUse" alignment="0 0" imageRepeat="None" />
    <mask fill="white" id="Clip751">
      <path d="M 3.597005208333333 8.091517857142858  C 5.116970486111112 8.411458333333336  6.751302083333334 8.571428571428573  8.5 8.571428571428573  C 10.248697916666668 8.571428571428573  11.88302951388889 8.411458333333336  13.402994791666668 8.091517857142858  C 14.922960069444446 7.77157738095238  16.121961805555557 7.299107142857142  17 6.674107142857142  L 17 8.571428571428573  C 17 9.084821428571427  16.620008680555554 9.561011904761905  15.860026041666668 10  C 15.100043402777779 10.438988095238093  14.067057291666668 10.786830357142856  12.761067708333332 11.043526785714286  C 11.455078125 11.300223214285714  10.034722222222223 11.428571428571427  8.5 11.428571428571427  C 6.965277777777779 11.428571428571427  5.544921875 11.300223214285714  4.238932291666667 11.043526785714286  C 2.932942708333333 10.786830357142856  1.8999565972222223 10.438988095238093  1.1399739583333335 10  C 0.3799913194444444 9.561011904761905  0 9.084821428571427  0 8.571428571428573  L 0 6.674107142857142  C 0.8780381944444445 7.299107142857142  2.077039930555556 7.77157738095238  3.597005208333333 8.091517857142858  Z M 3.597005208333333 16.662946428571427  C 5.116970486111112 16.982886904761905  6.751302083333334 17.142857142857146  8.5 17.142857142857146  C 10.248697916666668 17.142857142857146  11.88302951388889 16.982886904761905  13.402994791666668 16.662946428571427  C 14.922960069444446 16.343005952380953  16.121961805555557 15.870535714285714  17 15.245535714285714  L 17 17.142857142857146  C 17 17.65625  16.620008680555554 18.132440476190478  15.860026041666668 18.571428571428573  C 15.100043402777779 19.010416666666664  14.067057291666668 19.358258928571427  12.761067708333332 19.614955357142858  C 11.455078125 19.871651785714285  10.034722222222223 20  8.5 20  C 6.965277777777779 20  5.544921875 19.871651785714285  4.238932291666667 19.614955357142858  C 2.932942708333333 19.358258928571427  1.8999565972222223 19.010416666666664  1.1399739583333335 18.571428571428573  C 0.3799913194444444 18.132440476190478  0 17.65625  0 17.142857142857146  L 0 15.245535714285714  C 0.8780381944444445 15.870535714285714  2.077039930555556 16.343005952380953  3.597005208333333 16.662946428571427  Z M 3.597005208333333 12.377232142857144  C 5.116970486111112 12.697172619047619  6.751302083333334 12.857142857142856  8.5 12.857142857142856  C 10.248697916666668 12.857142857142856  11.88302951388889 12.697172619047619  13.402994791666668 12.377232142857144  C 14.922960069444446 12.057291666666664  16.121961805555557 11.584821428571427  17 10.959821428571427  L 17 12.857142857142856  C 17 13.370535714285714  16.620008680555554 13.846726190476188  15.860026041666668 14.285714285714286  C 15.100043402777779 14.724702380952381  14.067057291666668 15.072544642857144  12.761067708333332 15.329241071428573  C 11.455078125 15.5859375  10.034722222222223 15.714285714285714  8.5 15.714285714285714  C 6.965277777777779 15.714285714285714  5.544921875 15.5859375  4.238932291666667 15.329241071428573  C 2.932942708333333 15.072544642857144  1.8999565972222223 14.724702380952381  1.1399739583333335 14.285714285714286  C 0.3799913194444444 13.846726190476188  0 13.370535714285714  0 12.857142857142856  L 0 10.959821428571427  C 0.8780381944444445 11.584821428571427  2.077039930555556 12.057291666666664  3.597005208333333 12.377232142857144  Z M 4.238932291666667 0.3850446428571419  C 5.544921875 0.12834821428571397  6.965277777777779 0  8.5 0  C 10.034722222222223 0  11.455078125 0.12834821428571397  12.761067708333332 0.3850446428571419  C 14.067057291666668 0.6417410714285721  15.100043402777779 0.9895833333333326  15.860026041666668 1.428571428571428  C 16.620008680555554 1.8675595238095233  17 2.34375  17 2.857142857142858  L 17 4.2857142857142865  C 17 4.799107142857142  16.620008680555554 5.275297619047617  15.860026041666668 5.7142857142857135  C 15.100043402777779 6.153273809523809  14.067057291666668 6.501116071428572  12.761067708333332 6.7578125  C 11.455078125 7.014508928571428  10.034722222222223 7.142857142857142  8.5 7.142857142857142  C 6.965277777777779 7.142857142857142  5.544921875 7.014508928571428  4.238932291666667 6.7578125  C 2.932942708333333 6.501116071428572  1.8999565972222223 6.153273809523809  1.1399739583333335 5.7142857142857135  C 0.3799913194444444 5.275297619047617  0 4.799107142857142  0 4.2857142857142865  L 0 2.857142857142858  C 0 2.34375  0.3799913194444444 1.8675595238095233  1.1399739583333335 1.428571428571428  C 1.8999565972222223 0.9895833333333326  2.932942708333333 0.6417410714285721  4.238932291666667 0.3850446428571419  Z " fill-rule="evenodd" />
    </mask>
  </defs>
  <g transform="matrix(1 0 0 1 -321 -750 )">
    <path d="M 3.597005208333333 8.091517857142858  C 5.116970486111112 8.411458333333336  6.751302083333334 8.571428571428573  8.5 8.571428571428573  C 10.248697916666668 8.571428571428573  11.88302951388889 8.411458333333336  13.402994791666668 8.091517857142858  C 14.922960069444446 7.77157738095238  16.121961805555557 7.299107142857142  17 6.674107142857142  L 17 8.571428571428573  C 17 9.084821428571427  16.620008680555554 9.561011904761905  15.860026041666668 10  C 15.100043402777779 10.438988095238093  14.067057291666668 10.786830357142856  12.761067708333332 11.043526785714286  C 11.455078125 11.300223214285714  10.034722222222223 11.428571428571427  8.5 11.428571428571427  C 6.965277777777779 11.428571428571427  5.544921875 11.300223214285714  4.238932291666667 11.043526785714286  C 2.932942708333333 10.786830357142856  1.8999565972222223 10.438988095238093  1.1399739583333335 10  C 0.3799913194444444 9.561011904761905  0 9.084821428571427  0 8.571428571428573  L 0 6.674107142857142  C 0.8780381944444445 7.299107142857142  2.077039930555556 7.77157738095238  3.597005208333333 8.091517857142858  Z M 3.597005208333333 16.662946428571427  C 5.116970486111112 16.982886904761905  6.751302083333334 17.142857142857146  8.5 17.142857142857146  C 10.248697916666668 17.142857142857146  11.88302951388889 16.982886904761905  13.402994791666668 16.662946428571427  C 14.922960069444446 16.343005952380953  16.121961805555557 15.870535714285714  17 15.245535714285714  L 17 17.142857142857146  C 17 17.65625  16.620008680555554 18.132440476190478  15.860026041666668 18.571428571428573  C 15.100043402777779 19.010416666666664  14.067057291666668 19.358258928571427  12.761067708333332 19.614955357142858  C 11.455078125 19.871651785714285  10.034722222222223 20  8.5 20  C 6.965277777777779 20  5.544921875 19.871651785714285  4.238932291666667 19.614955357142858  C 2.932942708333333 19.358258928571427  1.8999565972222223 19.010416666666664  1.1399739583333335 18.571428571428573  C 0.3799913194444444 18.132440476190478  0 17.65625  0 17.142857142857146  L 0 15.245535714285714  C 0.8780381944444445 15.870535714285714  2.077039930555556 16.343005952380953  3.597005208333333 16.662946428571427  Z M 3.597005208333333 12.377232142857144  C 5.116970486111112 12.697172619047619  6.751302083333334 12.857142857142856  8.5 12.857142857142856  C 10.248697916666668 12.857142857142856  11.88302951388889 12.697172619047619  13.402994791666668 12.377232142857144  C 14.922960069444446 12.057291666666664  16.121961805555557 11.584821428571427  17 10.959821428571427  L 17 12.857142857142856  C 17 13.370535714285714  16.620008680555554 13.846726190476188  15.860026041666668 14.285714285714286  C 15.100043402777779 14.724702380952381  14.067057291666668 15.072544642857144  12.761067708333332 15.329241071428573  C 11.455078125 15.5859375  10.034722222222223 15.714285714285714  8.5 15.714285714285714  C 6.965277777777779 15.714285714285714  5.544921875 15.5859375  4.238932291666667 15.329241071428573  C 2.932942708333333 15.072544642857144  1.8999565972222223 14.724702380952381  1.1399739583333335 14.285714285714286  C 0.3799913194444444 13.846726190476188  0 13.370535714285714  0 12.857142857142856  L 0 10.959821428571427  C 0.8780381944444445 11.584821428571427  2.077039930555556 12.057291666666664  3.597005208333333 12.377232142857144  Z M 4.238932291666667 0.3850446428571419  C 5.544921875 0.12834821428571397  6.965277777777779 0  8.5 0  C 10.034722222222223 0  11.455078125 0.12834821428571397  12.761067708333332 0.3850446428571419  C 14.067057291666668 0.6417410714285721  15.100043402777779 0.9895833333333326  15.860026041666668 1.428571428571428  C 16.620008680555554 1.8675595238095233  17 2.34375  17 2.857142857142858  L 17 4.2857142857142865  C 17 4.799107142857142  16.620008680555554 5.275297619047617  15.860026041666668 5.7142857142857135  C 15.100043402777779 6.153273809523809  14.067057291666668 6.501116071428572  12.761067708333332 6.7578125  C 11.455078125 7.014508928571428  10.034722222222223 7.142857142857142  8.5 7.142857142857142  C 6.965277777777779 7.142857142857142  5.544921875 7.014508928571428  4.238932291666667 6.7578125  C 2.932942708333333 6.501116071428572  1.8999565972222223 6.153273809523809  1.1399739583333335 5.7142857142857135  C 0.3799913194444444 5.275297619047617  0 4.799107142857142  0 4.2857142857142865  L 0 2.857142857142858  C 0 2.34375  0.3799913194444444 1.8675595238095233  1.1399739583333335 1.428571428571428  C 1.8999565972222223 0.9895833333333326  2.932942708333333 0.6417410714285721  4.238932291666667 0.3850446428571419  Z " fill-rule="nonzero" fill="rgba(255, 255, 255, 1)" stroke="none" transform="matrix(1 0 0 1 321 750 )" class="fill" />
    <path d="M 3.597005208333333 8.091517857142858  C 5.116970486111112 8.411458333333336  6.751302083333334 8.571428571428573  8.5 8.571428571428573  C 10.248697916666668 8.571428571428573  11.88302951388889 8.411458333333336  13.402994791666668 8.091517857142858  C 14.922960069444446 7.77157738095238  16.121961805555557 7.299107142857142  17 6.674107142857142  L 17 8.571428571428573  C 17 9.084821428571427  16.620008680555554 9.561011904761905  15.860026041666668 10  C 15.100043402777779 10.438988095238093  14.067057291666668 10.786830357142856  12.761067708333332 11.043526785714286  C 11.455078125 11.300223214285714  10.034722222222223 11.428571428571427  8.5 11.428571428571427  C 6.965277777777779 11.428571428571427  5.544921875 11.300223214285714  4.238932291666667 11.043526785714286  C 2.932942708333333 10.786830357142856  1.8999565972222223 10.438988095238093  1.1399739583333335 10  C 0.3799913194444444 9.561011904761905  0 9.084821428571427  0 8.571428571428573  L 0 6.674107142857142  C 0.8780381944444445 7.299107142857142  2.077039930555556 7.77157738095238  3.597005208333333 8.091517857142858  Z " stroke-width="0" stroke-dasharray="0" stroke="rgba(255, 255, 255, 0)" fill="none" transform="matrix(1 0 0 1 321 750 )" class="stroke" mask="url(#Clip751)" />
    <path d="M 3.597005208333333 16.662946428571427  C 5.116970486111112 16.982886904761905  6.751302083333334 17.142857142857146  8.5 17.142857142857146  C 10.248697916666668 17.142857142857146  11.88302951388889 16.982886904761905  13.402994791666668 16.662946428571427  C 14.922960069444446 16.343005952380953  16.121961805555557 15.870535714285714  17 15.245535714285714  L 17 17.142857142857146  C 17 17.65625  16.620008680555554 18.132440476190478  15.860026041666668 18.571428571428573  C 15.100043402777779 19.010416666666664  14.067057291666668 19.358258928571427  12.761067708333332 19.614955357142858  C 11.455078125 19.871651785714285  10.034722222222223 20  8.5 20  C 6.965277777777779 20  5.544921875 19.871651785714285  4.238932291666667 19.614955357142858  C 2.932942708333333 19.358258928571427  1.8999565972222223 19.010416666666664  1.1399739583333335 18.571428571428573  C 0.3799913194444444 18.132440476190478  0 17.65625  0 17.142857142857146  L 0 15.245535714285714  C 0.8780381944444445 15.870535714285714  2.077039930555556 16.343005952380953  3.597005208333333 16.662946428571427  Z " stroke-width="0" stroke-dasharray="0" stroke="rgba(255, 255, 255, 0)" fill="none" transform="matrix(1 0 0 1 321 750 )" class="stroke" mask="url(#Clip751)" />
    <path d="M 3.597005208333333 12.377232142857144  C 5.116970486111112 12.697172619047619  6.751302083333334 12.857142857142856  8.5 12.857142857142856  C 10.248697916666668 12.857142857142856  11.88302951388889 12.697172619047619  13.402994791666668 12.377232142857144  C 14.922960069444446 12.057291666666664  16.121961805555557 11.584821428571427  17 10.959821428571427  L 17 12.857142857142856  C 17 13.370535714285714  16.620008680555554 13.846726190476188  15.860026041666668 14.285714285714286  C 15.100043402777779 14.724702380952381  14.067057291666668 15.072544642857144  12.761067708333332 15.329241071428573  C 11.455078125 15.5859375  10.034722222222223 15.714285714285714  8.5 15.714285714285714  C 6.965277777777779 15.714285714285714  5.544921875 15.5859375  4.238932291666667 15.329241071428573  C 2.932942708333333 15.072544642857144  1.8999565972222223 14.724702380952381  1.1399739583333335 14.285714285714286  C 0.3799913194444444 13.846726190476188  0 13.370535714285714  0 12.857142857142856  L 0 10.959821428571427  C 0.8780381944444445 11.584821428571427  2.077039930555556 12.057291666666664  3.597005208333333 12.377232142857144  Z " stroke-width="0" stroke-dasharray="0" stroke="rgba(255, 255, 255, 0)" fill="none" transform="matrix(1 0 0 1 321 750 )" class="stroke" mask="url(#Clip751)" />
    <path d="M 4.238932291666667 0.3850446428571419  C 5.544921875 0.12834821428571397  6.965277777777779 0  8.5 0  C 10.034722222222223 0  11.455078125 0.12834821428571397  12.761067708333332 0.3850446428571419  C 14.067057291666668 0.6417410714285721  15.100043402777779 0.9895833333333326  15.860026041666668 1.428571428571428  C 16.620008680555554 1.8675595238095233  17 2.34375  17 2.857142857142858  L 17 4.2857142857142865  C 17 4.799107142857142  16.620008680555554 5.275297619047617  15.860026041666668 5.7142857142857135  C 15.100043402777779 6.153273809523809  14.067057291666668 6.501116071428572  12.761067708333332 6.7578125  C 11.455078125 7.014508928571428  10.034722222222223 7.142857142857142  8.5 7.142857142857142  C 6.965277777777779 7.142857142857142  5.544921875 7.014508928571428  4.238932291666667 6.7578125  C 2.932942708333333 6.501116071428572  1.8999565972222223 6.153273809523809  1.1399739583333335 5.7142857142857135  C 0.3799913194444444 5.275297619047617  0 4.799107142857142  0 4.2857142857142865  L 0 2.857142857142858  C 0 2.34375  0.3799913194444444 1.8675595238095233  1.1399739583333335 1.428571428571428  C 1.8999565972222223 0.9895833333333326  2.932942708333333 0.6417410714285721  4.238932291666667 0.3850446428571419  Z " stroke-width="0" stroke-dasharray="0" stroke="rgba(255, 255, 255, 0)" fill="none" transform="matrix(1 0 0 1 321 750 )" class="stroke" mask="url(#Clip751)" />
  </g>
</svg>