<?xml version="1.0" encoding="utf-8"?>
<svg version="1.1" xmlns:xlink="http://www.w3.org/1999/xlink" width="4px" height="7px" xmlns="http://www.w3.org/2000/svg">
  <g transform="matrix(1 0 0 1 -29 -966 )">
    <path d="M 1.462890625 6.598958333333334  C 1.357421875 6.717447916666666  1.220703125 6.7744140625  1.0859375 6.7744140625  C 0.94140625 6.7744140625  0.796875 6.708333333333334  0.689453125 6.576171875  C 0.48046875 6.320963541666665  0.490234375 5.915364583333334  0.708984375 5.673828125  L 2.048828125 4.188151041666665  L 0.564453125 4.206380208333329  C 0.353515625 4.2154947916666625  0.13671875 4.051432291666665  0.05078125 3.807617187499996  C -0.03515625000000089 3.563802083333329  0.017578125 3.2858072916666643  0.1796875 3.1057942708333313  L 2.23828125 0.806640624999998  C 2.4570312500000018 0.5628255208333313  2.8046875 0.5719401041666645  3.0136718750000018 0.827148437499998  C 3.2226562500000036 1.0823567708333313  3.21484375 1.4856770833333313  2.9960937500000018 1.7294921874999978  L 1.9375000000000018 2.9121093749999982  L 3.4296875000000036 2.893880208333333  C 3.6621093750000036 2.893880208333333  3.8574218750000036 3.0488281249999982  3.9433593750000018 3.292643229166667  C 4.027343750000002 3.5364583333333335  3.9765625000000036 3.814453124999998  3.8125000000000018 3.9967447916666647  L 1.462890625 6.598958333333334  Z " fill-rule="nonzero" fill="#ffffff" stroke="none" transform="matrix(1 0 0 1 29 966 )" />
  </g>
</svg>