<?xml version="1.0" encoding="utf-8"?>
<svg version="1.1" xmlns:xlink="http://www.w3.org/1999/xlink" width="13px" height="14px" xmlns="http://www.w3.org/2000/svg">
  <g transform="matrix(1 0 0 1 -176 -963 )">
    <path d="M 2.275 12.568181818181818  C 2.275 13.007499232819951  1.911231359237519 13.363636363636363  1.4625000000000001 13.363636363636363  C 1.013768640762481 13.363636363636363  0.65 13.007499232819951  0.65 12.568181818181818  L 0.65 3.022727272727273  C 0.65 2.5834098580891425  1.013768640762481 2.227272727272727  1.4625000000000001 2.227272727272727  C 1.911231359237519 2.227272727272727  2.275 2.5834098580891425  2.275 3.022727272727273  L 2.275 12.568181818181818  Z M 7.15 12.568181818181818  C 7.15 13.007499232819951  6.786231359237519 13.363636363636363  6.3374999999999995 13.363636363636363  C 5.888768640762481 13.363636363636363  5.5249999999999995 13.007499232819951  5.5249999999999995 12.568181818181818  L 5.5249999999999995 5.674242432528408  C 5.5249999999999995 5.234925017890277  5.888768640762481 4.878787887073862  6.3374999999999995 4.878787887073862  C 6.786231359237519 4.878787887073862  7.15 5.234925017890277  7.15 5.674242432528408  L 7.15 12.568181818181818  Z M 12 12.568181818181818  C 12.025 13.007499232819951  11.661231359237519 13.363636363636363  11.2125 13.363636363636363  C 10.763768640762482 13.363636363636363  10.4 13.007499232819951  10.4 12.568181818181818  L 10.4 1.4318181818181819  C 10.4 0.9925007671800514  10.763768640762482 0.6363636363636364  11.2125 0.6363636363636364  C 11.661231359237519 0.6363636363636364  12.025 0.9925007671800514  12.025 1.4318181818181819  C 12.025 1.4318181818181819  12.025 1.4318181818181819  12 1.4318181818181819  L 12 12.568181818181818  Z " fill-rule="nonzero" fill="#ffffff" stroke="none" transform="matrix(1 0 0 1 176 963 )" />
  </g>
</svg>