<?xml version="1.0" encoding="utf-8"?>
<svg version="1.1" xmlns:xlink="http://www.w3.org/1999/xlink" width="20px" height="17px" xmlns="http://www.w3.org/2000/svg">
  <defs>
    <pattern id="BGPattern" patternUnits="userSpaceOnUse" alignment="0 0" imageRepeat="None" />
    <mask fill="white" id="Clip752">
      <path d="M 17.3984375 0.27703857421875  L 1.7131990131578947 0.27703857421875  C 0.8428286117923001 0.2779538222745244  0.13751199785968937 0.9899756236147085  0.13671875 1.8685058593750001  L 0.13671874999999978 12.478564453125001  C 0.13762509433671452 13.357047342664625  0.8428755330125748 14.069002339644065  1.7131990131578947 14.070031738281251  L 8.989103618421051 14.070031738281251  L 8.989103618421051 15.661706542968755  L 6.443462171052631 15.661706542968755  C 6.15723434735504 15.667420838898813  5.928158781965513 15.90326250984077  5.928158781965513 16.192230224609375  C 5.928158781965513 16.48119793937798  6.15723434735504 16.71703961031994  6.443462171052632 16.722753906250002  L 12.668379934210526 16.722753906250002  C 12.954607757908116 16.71703961031994  13.183683323297643 16.48119793937798  13.183683323297643 16.192230224609375  C 13.183683323297643 15.90326250984077  12.954607757908116 15.667420838898813  12.668379934210526 15.661706542968755  L 10.040501644736842 15.661706542968755  L 10.040501644736842 14.070239257812501  L 17.398643092105264 14.0702392578125  C 18.269046746874974 14.069209652622298  18.974330305738523 13.357128380792886  19 12.478564453125001  L 19 1.8687133789062491  C 18.974330305738523 0.9901494512383675  18.269046746874974 0.2780681794089518  17.398643092105264 0.27703857421874956  Z M 1.7131990131578965 1.3380859374999998  L 17.398643092105264 1.3380859374999998  C 17.688610423619807 1.3386580153027323  17.92340693346918 1.5760270667204417  17.923519736842106 1.86871337890625  L 17.923519736842106 10.886474609375  L 1.1883223684210527 10.886474609375  L 1.188322368421053 1.8687133789062504  C 1.1884355888368912 1.5758653025827816  1.4234822496274981 1.338429364886804  1.7136101973684212 1.3380859374999998  Z M 17.398231907894736 13.009191894531252  L 17.3984375 13  L 1.7131990131578951 13  C 1.4232786470308056 13.008505842192747  1.188548161131334 12.771203538114557  1.1883223684210527 12.478564453125001  L 1.1883223684210527 12  L 17.923519736842106 12  L 17.92351973684211 12.478771972656252  C 17.92318011289086 12.771491700966692  17.68823272201618 13.008734541643609  17.398231907894736 13.009191894531252  Z " fill-rule="evenodd" />
    </mask>
  </defs>
  <g transform="matrix(1 0 0 1 -21 -888 )">
    <path d="M 17.3984375 0.27703857421875  L 1.7131990131578947 0.27703857421875  C 0.8428286117923001 0.2779538222745244  0.13751199785968937 0.9899756236147085  0.13671875 1.8685058593750001  L 0.13671874999999978 12.478564453125001  C 0.13762509433671452 13.357047342664625  0.8428755330125748 14.069002339644065  1.7131990131578947 14.070031738281251  L 8.989103618421051 14.070031738281251  L 8.989103618421051 15.661706542968755  L 6.443462171052631 15.661706542968755  C 6.15723434735504 15.667420838898813  5.928158781965513 15.90326250984077  5.928158781965513 16.192230224609375  C 5.928158781965513 16.48119793937798  6.15723434735504 16.71703961031994  6.443462171052632 16.722753906250002  L 12.668379934210526 16.722753906250002  C 12.954607757908116 16.71703961031994  13.183683323297643 16.48119793937798  13.183683323297643 16.192230224609375  C 13.183683323297643 15.90326250984077  12.954607757908116 15.667420838898813  12.668379934210526 15.661706542968755  L 10.040501644736842 15.661706542968755  L 10.040501644736842 14.070239257812501  L 17.398643092105264 14.0702392578125  C 18.269046746874974 14.069209652622298  18.974330305738523 13.357128380792886  19 12.478564453125001  L 19 1.8687133789062491  C 18.974330305738523 0.9901494512383675  18.269046746874974 0.2780681794089518  17.398643092105264 0.27703857421874956  Z M 1.7131990131578965 1.3380859374999998  L 17.398643092105264 1.3380859374999998  C 17.688610423619807 1.3386580153027323  17.92340693346918 1.5760270667204417  17.923519736842106 1.86871337890625  L 17.923519736842106 10.886474609375  L 1.1883223684210527 10.886474609375  L 1.188322368421053 1.8687133789062504  C 1.1884355888368912 1.5758653025827816  1.4234822496274981 1.338429364886804  1.7136101973684212 1.3380859374999998  Z M 17.398231907894736 13.009191894531252  L 17.3984375 13  L 1.7131990131578951 13  C 1.4232786470308056 13.008505842192747  1.188548161131334 12.771203538114557  1.1883223684210527 12.478564453125001  L 1.1883223684210527 12  L 17.923519736842106 12  L 17.92351973684211 12.478771972656252  C 17.92318011289086 12.771491700966692  17.68823272201618 13.008734541643609  17.398231907894736 13.009191894531252  Z " fill-rule="nonzero" fill="rgba(255, 255, 255, 1)" stroke="none" transform="matrix(1 0 0 1 21 888 )" class="fill" />
    <path d="M 17.3984375 0.27703857421875  L 1.7131990131578947 0.27703857421875  C 0.8428286117923001 0.2779538222745244  0.13751199785968937 0.9899756236147085  0.13671875 1.8685058593750001  L 0.13671874999999978 12.478564453125001  C 0.13762509433671452 13.357047342664625  0.8428755330125748 14.069002339644065  1.7131990131578947 14.070031738281251  L 8.989103618421051 14.070031738281251  L 8.989103618421051 15.661706542968755  L 6.443462171052631 15.661706542968755  C 6.15723434735504 15.667420838898813  5.928158781965513 15.90326250984077  5.928158781965513 16.192230224609375  C 5.928158781965513 16.48119793937798  6.15723434735504 16.71703961031994  6.443462171052632 16.722753906250002  L 12.668379934210526 16.722753906250002  C 12.954607757908116 16.71703961031994  13.183683323297643 16.48119793937798  13.183683323297643 16.192230224609375  C 13.183683323297643 15.90326250984077  12.954607757908116 15.667420838898813  12.668379934210526 15.661706542968755  L 10.040501644736842 15.661706542968755  L 10.040501644736842 14.070239257812501  L 17.398643092105264 14.0702392578125  C 18.269046746874974 14.069209652622298  18.974330305738523 13.357128380792886  19 12.478564453125001  L 19 1.8687133789062491  C 18.974330305738523 0.9901494512383675  18.269046746874974 0.2780681794089518  17.398643092105264 0.27703857421874956  Z " stroke-width="0" stroke-dasharray="0" stroke="rgba(255, 255, 255, 0)" fill="none" transform="matrix(1 0 0 1 21 888 )" class="stroke" mask="url(#Clip752)" />
    <path d="M 1.7131990131578965 1.3380859374999998  L 17.398643092105264 1.3380859374999998  C 17.688610423619807 1.3386580153027323  17.92340693346918 1.5760270667204417  17.923519736842106 1.86871337890625  L 17.923519736842106 10.886474609375  L 1.1883223684210527 10.886474609375  L 1.188322368421053 1.8687133789062504  C 1.1884355888368912 1.5758653025827816  1.4234822496274981 1.338429364886804  1.7136101973684212 1.3380859374999998  Z " stroke-width="0" stroke-dasharray="0" stroke="rgba(255, 255, 255, 0)" fill="none" transform="matrix(1 0 0 1 21 888 )" class="stroke" mask="url(#Clip752)" />
    <path d="M 17.398231907894736 13.009191894531252  L 17.3984375 13  L 1.7131990131578951 13  C 1.4232786470308056 13.008505842192747  1.188548161131334 12.771203538114557  1.1883223684210527 12.478564453125001  L 1.1883223684210527 12  L 17.923519736842106 12  L 17.92351973684211 12.478771972656252  C 17.92318011289086 12.771491700966692  17.68823272201618 13.008734541643609  17.398231907894736 13.009191894531252  Z " stroke-width="0" stroke-dasharray="0" stroke="rgba(255, 255, 255, 0)" fill="none" transform="matrix(1 0 0 1 21 888 )" class="stroke" mask="url(#Clip752)" />
  </g>
</svg>