<?xml version="1.0" encoding="utf-8"?>
<svg version="1.1" xmlns:xlink="http://www.w3.org/1999/xlink" width="15px" height="13px" xmlns="http://www.w3.org/2000/svg">
  <g transform="matrix(1 0 0 1 -17 -15 )">
    <path d="M 6.489814082278485 9.996254280821915  L 6.489814082278485 3.0187018407534083  L 9.673902294303787 3.0187018407534083  L 9.673902294303787 9.996254280821915  L 6.489814082278485 9.996254280821915  Z M 14.99072883702533 0.032346960616450815  L 11.806640625 0.032346960616450815  L 11.806640625 8.089870505137014  C 12.497527689873436 7.686055222602705  13.30856902689871 7.441887842465803  14.1796875 7.441887842465803  C 14.450034612341796 7.441887842465803  14.720381724683534 7.4794520547944785  14.99072883702533 7.5264073202055215  L 14.99072883702533 0.032346960616450815  Z M 1.1729875395569707 9.996254280821915  L 1.1729875395569707 6.005056720890423  L 4.357075751582272 6.005056720890423  L 4.357075751582272 9.996254280821915  L 1.1729875395569707 9.996254280821915  Z M 0.11162480221517512 12.98260916095893  L 0.11162480221517512 10.991705907534197  L 9.884172270569621 10.991705907534197  L 9.884172270569621 12.98260916095893  L 0.11162480221517512 12.98260916095893  Z " fill-rule="nonzero" fill="#999999" stroke="none" transform="matrix(1 0 0 1 17 15 )" />
  </g>
</svg>