<svg t="1751267467891" class="icon" viewBox="0 0 1024 1024" version="1.1" xmlns="http://www.w3.org/2000/svg" p-id="35654" width="64" height="64"><path d="M636.584284 930.129845a32.426545 32.426545 0 0 0-12.799952 2.133326 426.665067 426.665067 0 0 1-112.639577 14.506612 432.638378 432.638378 0 0 1-292.265571-113.066243l52.906468-53.333133-193.279275-31.99988 31.99988 194.55927 54.613129-54.613128A509.43809 509.43809 0 0 0 513.27808 1023.99616a527.358022 527.358022 0 0 0 133.119501-17.493268 39.253186 39.253186 0 0 0 29.866554-37.119861 37.973191 37.973191 0 0 0-38.399856-39.253186z m-543.571295-298.665546a57.599784 57.599784 0 0 0 0-11.946622A423.251746 423.251746 0 0 1 77.653047 511.99808a430.505052 430.505052 0 0 1 109.226257-288.425585l51.199808 51.199808 32.426545-193.70594-194.55927 32.426545L132.266175 170.666027A511.99808 511.99808 0 0 0 17.493273 639.9976a37.546526 37.546526 0 0 0 36.693195 28.586559 38.399856 38.399856 0 0 0 38.826521-38.399856zM1022.71617 511.99808a533.331333 533.331333 0 0 0-17.493268-133.546166 39.253186 39.253186 0 0 0-37.119861-28.159894 38.399856 38.399856 0 0 0-38.399856 38.826521 40.106516 40.106516 0 0 0 0 12.799952 419.411761 419.411761 0 0 1 16.639938 110.079587 435.198368 435.198368 0 0 1-111.359583 290.985575l-52.479803-51.626473-31.99988 194.132606 194.55927-32.426545-56.319788-55.466459a511.99808 511.99808 0 0 0 133.972831-345.598704zM939.943147 270.932317l-31.99988-194.55927L854.610133 130.986175A511.99808 511.99808 0 0 0 385.27856 16.213273h-4.266651a38.399856 38.399856 0 0 0-26.453234 35.839865 38.826521 38.826521 0 0 0 38.826521 38.826521 36.266531 36.266531 0 0 0 9.386632 0A418.985095 418.985095 0 0 1 513.27808 75.519717a432.638378 432.638378 0 0 1 288.425585 109.226257l-54.186463 53.333133z m-268.798992 250.87906a17.493268 17.493268 0 0 1 0-21.759919l37.546526-46.079827-3.839986-10.239962-5.119981-10.666626a149.759438 149.759438 0 0 0-9.386631-20.053258 117.332893 117.332893 0 0 0-18.346598-29.013225l-7.253306-6.399976-58.026449 8.106636a20.053258 20.053258 0 0 1-20.053259-12.799952l-18.346597-52.906468-12.373287-1.70666a197.545926 197.545926 0 0 0-85.333014 0h-9.386631l-20.479923 56.319789a20.053258 20.053258 0 0 1-18.773263 9.386631l-58.453114-7.679971L355.412005 383.99856a210.345878 210.345878 0 0 0-35.4132 62.2931l-3.839986 9.386631 37.546526 46.079827a15.359942 15.359942 0 0 1 0 20.479924l-39.253186 42.666506 3.839986 9.813297a139.092812 139.092812 0 0 0 15.359942 35.4132 162.55939 162.55939 0 0 0 18.346598 26.453234l7.253306 7.253307 59.733109-9.813297a17.493268 17.493268 0 0 1 18.346598 11.093292l19.199928 55.039793h11.519957a205.652562 205.652562 0 0 0 88.319669 0l9.386631-2.133325 20.053258-56.319789a19.626593 19.626593 0 0 1 18.346598-11.519957l58.026449 9.813297 8.106637-7.253306a183.039314 183.039314 0 0 0 34.55987-60.159775l3.839986-9.813296zM513.27808 593.917773A82.773023 82.773023 0 1 1 598.611093 511.99808a82.773023 82.773023 0 0 1-85.333013 81.919693z" fill="#515151" p-id="35655"></path></svg>