<?xml version="1.0" encoding="utf-8"?>
<svg version="1.1" xmlns:xlink="http://www.w3.org/1999/xlink" width="9px" height="9px" xmlns="http://www.w3.org/2000/svg">
  <g transform="matrix(1 0 0 1 -175 -1097 )">
    <path d="M 4.5223103984717365 8.016000943149576  C 4.523206932396354 8.016000943149576  4.524103466295866 8.016000628766365  4.525000000000002 8.016  C 5.1486705577860885 8.016535503952209  5.762952004430771 7.864081081196346  6.314 7.571999999999999  L 7.143999999999998 8.484  C 7.276686124570437 8.629926565875769  7.4647687390857715 8.713117847222879  7.661999999999999 8.713117847222879  C 8.048664410105562 8.713117847222879  8.36211784722288 8.399664410105562  8.36211784722288 8.013  C 8.36211784722288 7.838811249045808  8.29718441691618 7.670877978689131  8.179999999999998 7.541999999999998  L 7.413999999999998 6.699999999999999  C 8.022248680942834 6.001759807713132  8.357310398471736 5.107017046677747  8.357310398471736 4.181000943149577  C 8.357310398471736 2.062988927548484  6.6403224140728305 0.3460009431495763  4.5223103984717365 0.3460009431495763  C 2.4042983828706435 0.3460009431495763  0.6873103984717357 2.062988927548484  0.6873103984717357 4.181000943149577  C 0.6873103984717357 6.299012958750671  2.4042983828706435 8.016000943149576  4.5223103984717365 8.016000943149576  Z M 2.086999999999999 4.177999999999999  C 2.088103496314856 2.832148971365682  3.179148631909568 1.7415513522334756  4.525 1.7410000000000005  C 5.87147001500133 1.7409999999999917  6.962999794913856 2.832529779912516  6.962999794913856 4.178999999999991  C 6.962999794913856 5.525470220087465  5.87147001500133 6.616999999999992  4.524999794913855 6.616999999999992  C 3.1785295748263795 6.616999999999992  2.0869997949138552 5.525470220087467  2.0869997949138552 4.178999999999991  C 2.0869997949138552 4.1786666666563175  2.0869998632759046 4.178333333315635  2.086999999999999 4.177999999999999  Z " fill-rule="nonzero" fill="#ffffff" stroke="none" transform="matrix(1 0 0 1 175 1097 )" />
  </g>
</svg>