<?xml version="1.0" encoding="utf-8"?>
<svg version="1.1" xmlns:xlink="http://www.w3.org/1999/xlink" width="14px" height="16px" xmlns="http://www.w3.org/2000/svg">
  <defs>
    <pattern id="BGPattern" patternUnits="userSpaceOnUse" alignment="0 0" imageRepeat="None" />
    <mask fill="white" id="Clip756">
      <path d="M 12.880839999999997 15.393745454545456  C 12.880839999999997 12.528290909090911  11.137559999999999 10.078545454545456  8.695399999999998 9.12698181818182  C 9.863840000000001 8.351272727272725  10.640839999999999 6.992727272727274  10.640839999999999 5.448290909090911  C 10.640839999999999 3.0421818181818194  8.75672 1.0846545454545458  6.440839999999997 1.0846545454545458  C 4.124959999999995 1.0846545454545458  2.2408399999999973 3.0421818181818194  2.2408399999999973 5.448290909090911  C 2.2408399999999973 6.992727272727274  3.0178399999999974 8.35127272727273  4.186279999999997 9.12698181818182  C 1.7441199999999963 10.078545454545456  0.0008399999999967989 12.528290909090911  0.0008399999999967989 15.393745454545456  L 0.0008399999999967989 16  L 12.880839999999997 16  L 12.880839999999997 15.393745454545456  Z M 6.440840000000001 8.64829090909091  C 4.7425000000000015 8.64829090909091  3.360840000000001 7.2128000000000005  3.360840000000001 5.448290909090908  C 3.360840000000001 3.6837818181818176  4.7425000000000015 2.248290909090909  6.440840000000001 2.248290909090909  C 8.139180000000001 2.248290909090909  9.520840000000002 3.683781818181819  9.520840000000002 5.448290909090908  C 9.520840000000002 7.212799999999998  8.139180000000001 8.64829090909091  6.440840000000001 8.64829090909091  Z M 11.73158 14.811927272727274  L 1.1501000000000003 14.811927272727274  C 1.4308000000000003 12.036509090909094  3.69642 9.866472727272729  6.440840000000001 9.866472727272729  C 9.185260000000003 9.866472727272729  11.450880000000003 12.03650909090909  11.73158 14.811927272727274  Z " fill-rule="evenodd" />
    </mask>
  </defs>
  <g transform="matrix(1 0 0 1 -27 -1025 )">
    <path d="M 12.880839999999997 15.393745454545456  C 12.880839999999997 12.528290909090911  11.137559999999999 10.078545454545456  8.695399999999998 9.12698181818182  C 9.863840000000001 8.351272727272725  10.640839999999999 6.992727272727274  10.640839999999999 5.448290909090911  C 10.640839999999999 3.0421818181818194  8.75672 1.0846545454545458  6.440839999999997 1.0846545454545458  C 4.124959999999995 1.0846545454545458  2.2408399999999973 3.0421818181818194  2.2408399999999973 5.448290909090911  C 2.2408399999999973 6.992727272727274  3.0178399999999974 8.35127272727273  4.186279999999997 9.12698181818182  C 1.7441199999999963 10.078545454545456  0.0008399999999967989 12.528290909090911  0.0008399999999967989 15.393745454545456  L 0.0008399999999967989 16  L 12.880839999999997 16  L 12.880839999999997 15.393745454545456  Z M 6.440840000000001 8.64829090909091  C 4.7425000000000015 8.64829090909091  3.360840000000001 7.2128000000000005  3.360840000000001 5.448290909090908  C 3.360840000000001 3.6837818181818176  4.7425000000000015 2.248290909090909  6.440840000000001 2.248290909090909  C 8.139180000000001 2.248290909090909  9.520840000000002 3.683781818181819  9.520840000000002 5.448290909090908  C 9.520840000000002 7.212799999999998  8.139180000000001 8.64829090909091  6.440840000000001 8.64829090909091  Z M 11.73158 14.811927272727274  L 1.1501000000000003 14.811927272727274  C 1.4308000000000003 12.036509090909094  3.69642 9.866472727272729  6.440840000000001 9.866472727272729  C 9.185260000000003 9.866472727272729  11.450880000000003 12.03650909090909  11.73158 14.811927272727274  Z " fill-rule="nonzero" fill="rgba(255, 255, 255, 1)" stroke="none" transform="matrix(1 0 0 1 27 1025 )" class="fill" />
    <path d="M 12.880839999999997 15.393745454545456  C 12.880839999999997 12.528290909090911  11.137559999999999 10.078545454545456  8.695399999999998 9.12698181818182  C 9.863840000000001 8.351272727272725  10.640839999999999 6.992727272727274  10.640839999999999 5.448290909090911  C 10.640839999999999 3.0421818181818194  8.75672 1.0846545454545458  6.440839999999997 1.0846545454545458  C 4.124959999999995 1.0846545454545458  2.2408399999999973 3.0421818181818194  2.2408399999999973 5.448290909090911  C 2.2408399999999973 6.992727272727274  3.0178399999999974 8.35127272727273  4.186279999999997 9.12698181818182  C 1.7441199999999963 10.078545454545456  0.0008399999999967989 12.528290909090911  0.0008399999999967989 15.393745454545456  L 0.0008399999999967989 16  L 12.880839999999997 16  L 12.880839999999997 15.393745454545456  Z " stroke-width="0" stroke-dasharray="0" stroke="rgba(255, 255, 255, 0)" fill="none" transform="matrix(1 0 0 1 27 1025 )" class="stroke" mask="url(#Clip756)" />
    <path d="M 6.440840000000001 8.64829090909091  C 4.7425000000000015 8.64829090909091  3.360840000000001 7.2128000000000005  3.360840000000001 5.448290909090908  C 3.360840000000001 3.6837818181818176  4.7425000000000015 2.248290909090909  6.440840000000001 2.248290909090909  C 8.139180000000001 2.248290909090909  9.520840000000002 3.683781818181819  9.520840000000002 5.448290909090908  C 9.520840000000002 7.212799999999998  8.139180000000001 8.64829090909091  6.440840000000001 8.64829090909091  Z " stroke-width="0" stroke-dasharray="0" stroke="rgba(255, 255, 255, 0)" fill="none" transform="matrix(1 0 0 1 27 1025 )" class="stroke" mask="url(#Clip756)" />
    <path d="M 11.73158 14.811927272727274  L 1.1501000000000003 14.811927272727274  C 1.4308000000000003 12.036509090909094  3.69642 9.866472727272729  6.440840000000001 9.866472727272729  C 9.185260000000003 9.866472727272729  11.450880000000003 12.03650909090909  11.73158 14.811927272727274  Z " stroke-width="0" stroke-dasharray="0" stroke="rgba(255, 255, 255, 0)" fill="none" transform="matrix(1 0 0 1 27 1025 )" class="stroke" mask="url(#Clip756)" />
  </g>
</svg>