<?xml version="1.0" encoding="utf-8"?>
<svg version="1.1" xmlns:xlink="http://www.w3.org/1999/xlink" width="3px" height="15px" xmlns="http://www.w3.org/2000/svg">
  <g transform="matrix(1 0 0 1 -17 -15 )">
    <path d="M 2.2875000000000227 14.980603448275815  C 2.7093750000000227 14.980603448275815  2.8500000000000227 14.594827586206975  2.8500000000000227 14.336206896551744  C 2.8500000000000227 14.077586206896513  2.6812499999999773 13.691810344827559  2.285624999999982 13.691810344827559  L 0.5943750000000136 13.691810344827559  C 0.2568750000000364 13.691810344827559  0.029999999999972715 14.047413793103487  0.029999999999972715 14.336206896551744  C 0.029999999999972715 14.627155172413836  0.17062499999997272 14.980603448275815  0.5943750000000136 14.980603448275815  L 2.2875000000000227 14.980603448275815  Z M 0.03187500000001364 0.7974137931034875  C 0.03375000000005457 1.0883620689654663  0.17437500000005457 1.4418103448275588  0.5962500000000546 1.4418103448275588  L 2.2875000000000227 1.4418103448275588  C 2.7093750000000227 1.4418103448275588  2.85187499999995 1.0538793103447688  2.85187499999995 0.7974137931034875  C 2.85187499999995 0.5387931034482563  2.683125000000018 0.1530172413794162  2.2875000000000227 0.1530172413794162  L 0.5962500000000546 0.1530172413794162  C 0.2587499999999636 0.1530172413794162  0.03187500000001364 0.5086206896551175  0.03187500000001364 0.7974137931034875  Z " fill-rule="nonzero" fill="#999999" stroke="none" transform="matrix(1 0 0 1 17 15 )" />
  </g>
</svg>