<?xml version="1.0" encoding="utf-8"?>
<svg version="1.1" xmlns:xlink="http://www.w3.org/1999/xlink" width="16px" height="19px" xmlns="http://www.w3.org/2000/svg">
  <g transform="matrix(1 0 0 1 -18 -13 )">
    <path d="M 16 1.083863636363617  C 15.960439560439568 0.6002272727273521  15.465934065933993 0.11443181818185622  14.969230769230876 0.11443181818185622  L 1.0989010989011376 0.11443181818185622  C 0.6043956043956769 0.11443181818185622  0.10769230769233218 0.5980681818182347  0.10769230769233218 1.083863636363617  L 0.10769230769233218 1.407727272727243  L 1.0989010989011376 1.407727272727243  C 1.8593406593406598 1.407727272727243  2.4197802197802503 1.923750000000041  2.4197802197802503 2.698863636363626  C 2.4197802197802503 3.4739772727272116  1.8593406593406598 3.9900000000000095  1.0989010989011376 3.9900000000000095  L 0.10769230769233218 3.9900000000000095  L 0.10769230769233218 5.9267045454546405  L 1.0989010989011376 5.9267045454546405  C 1.8593406593406598 5.9267045454546405  2.4197802197802503 6.442727272727211  2.4197802197802503 7.21784090909091  C 2.4197802197802503 7.992954545454609  1.8593406593406598 8.508977272727293  1.0989010989011376 8.508977272727293  L 0.10769230769233218 8.508977272727293  L 0.10769230769233218 10.450000000000045  L 1.0989010989011376 10.450000000000045  C 1.8593406593406598 10.450000000000045  2.4197802197802503 10.96602272727273  2.4197802197802503 11.741136363636429  C 2.4197802197802503 12.516250000000014  1.8593406593406598 13.032272727272698  1.0989010989011376 13.032272727272698  L 0.10769230769233218 13.032272727272698  L 0.10769230769233218 14.968977272727216  L 1.0989010989011376 14.968977272727216  C 1.8593406593406598 14.968977272727216  2.4197802197802503 15.485000000000014  2.4197802197802503 16.2601136363636  C 2.4197802197802503 17.035227272727184  1.8593406593406598 17.551249999999982  1.0989010989011376 17.551249999999982  L 0.10769230769233218 17.551249999999982  L 0.10769230769233218 17.87511363636372  C 0.10769230769233218 18.358749999999986  0.602197802197793 18.844545454545482  1.0989010989011376 18.844545454545482  L 14.969230769230876 18.844545454545482  C 15.463736263736223 18.844545454545482  15.960439560439568 18.36090909090899  16 17.87511363636372  L 16 1.083863636363617  Z M 12.991208791208805 12.159999999999968  C 13.12087912087918 12.386704545454563  13.318681318681342 12.742954545454609  13.08791208791206 13.194204545454568  C 12.85714285714289 13.677840909090946  12.063736263736246 14.647272727272707  11.272527472527486 14.647272727272707  C 10.413186813186826 14.647272727272707  8.29890109890107 13.518068181818194  6.516483516483504 11.127954545454486  C 4.865934065934084 8.899772727272648  4.07252747252744 7.252386363636447  4.07252747252744 6.185795454545541  C 4.07252747252744 5.313522727272698  4.668131868131923 4.927045454545464  4.964835164835108 4.700340909090869  L 5.063736263736246 4.635568181818144  C 5.426373626373675 4.376477272727243  5.956043956043914 4.311704545454518  6.153846153846075 4.311704545454518  C 6.516483516483504 4.311704545454518  6.681318681318658 4.538409090909113  6.782417582417679 4.698181818181865  C 6.848351648351695 4.860113636363735  7.50989010989008 6.280795454545455  7.575824175824096 6.442727272727211  C 7.674725274725347 6.701818181818226  7.641758241758225 7.120681818181765  7.34505494505504 7.34738636363636  L 7.279120879120796 7.379772727272666  C 7.1142857142857565 7.476931818181811  6.817582417582457 7.703636363636292  6.784615384615449 7.928181818181884  C 6.751648351648328 8.057727272727334  6.817582417582457 8.187272727272784  6.916483516483595 8.316818181818121  C 7.410989010989056 8.994772727272789  9.030769230769124 11.028636363636338  9.327472527472537 11.287727272727352  C 9.55824175824182 11.514431818181833  9.85494505494512 11.546818181818253  10.054945054945051 11.352500000000077  C 10.252747252747213 11.190568181818207  10.35164835164835 11.061022727272757  10.35164835164835 11.061022727272757  L 10.384615384615358 11.028636363636338  C 10.41758241758248 11.028636363636338  10.549450549450626 10.899090909090887  10.813186813186803 10.899090909090887  C 11.010989010988965 10.899090909090887  11.175824175824232 10.963863636363612  11.373626373626394 11.093409090909063  C 11.868131868131854 11.417272727272803  12.958241758241684 12.159999999999968  12.958241758241684 12.159999999999968  L 12.991208791208805 12.159999999999968  Z " fill-rule="nonzero" fill="#999999" stroke="none" transform="matrix(1 0 0 1 18 13 )" />
  </g>
</svg>