<?xml version="1.0" encoding="utf-8"?>
<svg version="1.1" xmlns:xlink="http://www.w3.org/1999/xlink" width="18px" height="20px" xmlns="http://www.w3.org/2000/svg">
  <defs>
    <pattern id="BGPattern" patternUnits="userSpaceOnUse" alignment="0 0" imageRepeat="None" />
    <mask fill="white" id="Clip242">
      <path d="M 4.960546874999998 2.0260416666666674  C 5.289179626347447 2.3512895573623265  5.548047674765687 2.7386358117742464  5.721679687499999 3.1649305555555554  C 8.163565078771146 1.8879610401709257  11.137411561664347 2.1484198690489174  13.313671874999997 3.8298611111111116  C 13.252418553879231 4.027484164044996  13.22128042958381 4.233009334301102  13.22128042958381 4.439684855445066  C 13.22128042958381 5.590278084259218  14.165679785409484 6.523018188778399  15.33065542958381 6.523018188778399  C 16.495631073758144 6.523018188778399  17.440030429583814 5.590278084259218  17.440030429583814 4.439684855445066  C 17.440030429583814 3.2890916266309134  16.495631073758144 2.356351522111732  15.33065542958381 2.356351522111732  C 14.912916372724794 2.356351522111732  14.504583387930422 2.478855505234198  14.157421874999997 2.708333333333333  C 11.498993088567627 0.6787904791770272  7.8746967386041185 0.4005551589565773  4.930664062499998 2.0000000000000004  L 4.960546874999998 2.0260416666666674  Z M 5.997656249999999 15.579861111111109  C 3.5395832200063198 14.433456363708517  1.9707935407802348 11.990345209194446  1.9687500000000004 9.305555555555557  C 1.9688671968831062 8.34905820578862  2.17060853122071 7.403060814309215  2.5611328125 6.527777777777778  L 2.6947265625 6.527777777777778  C 2.695760482855609 6.527779279353931  2.696794404190062 6.527780030142315  2.6978283256634796 6.527780030142315  C 3.8628039698378087 6.527780030142315  4.80720332566348 5.5950399256231345  4.80720332566348 4.444446696808981  C 4.80720332566348 3.293853467994828  3.8628039698378087 2.3611133634756474  2.6978283256634796 2.3611133634756474  C 1.5328526814891497 2.3611133634756474  0.5884533256634797 3.293853467994828  0.5884533256634797 4.444446696808981  C 0.5884533256634797 5.02521966439584  0.8339116801179982 5.579630641181228  1.265625 5.973958333333334  C 0.8010214565367786 7.0253474322779885  0.5612110358101462 8.16015420856798  0.5612110358101462 9.307315313625587  C 0.5612110358101462 12.642629962020857  2.5747668040316345 15.656674237511288  5.6794921875 16.968749999999996  C 5.687660871714533 16.48909748789921  5.79597487137602 16.016271897671032  5.997656249999999 15.579861111111109  Z M 17.163281249999997 7.192708333333333  C 16.76063148722458 7.446564131565808  16.309537836798476 7.616147099994  15.837890625 7.690972222222221  C 16.715550810590077 11.319454525602204  14.53373926463837 14.98450619692698  10.896679687499997 15.991319444444443  C 10.534884296986107 15.298111563027852  9.811376980645047 14.862530317329997  9.021743151228556 14.862530317329997  C 7.856767507054227 14.862530317329997  6.912368151228557 15.795270421849175  6.912368151228557 16.94586365066333  C 6.912368151228557 18.09645687947748  7.856767507054227 19.029196983996666  9.021743151228556 19.029196983996666  C 10.017237476710337 19.029196983996666  10.877219544887437 18.34180715270434  11.084765625000001 17.380208333333332  C 14.822767961136107 16.439456209916102  17.43881391064904 13.114755207809498  17.43881391064904 9.304925593492955  C 17.43881391064904 8.592112159056136  17.34621369599817 7.882244329887279  17.163281249999997 7.192708333333333  Z " fill-rule="evenodd" />
    </mask>
  </defs>
  <g transform="matrix(1 0 0 1 -171 -1087 )">
    <path d="M 4.960546874999998 2.0260416666666674  C 5.289179626347447 2.3512895573623265  5.548047674765687 2.7386358117742464  5.721679687499999 3.1649305555555554  C 8.163565078771146 1.8879610401709257  11.137411561664347 2.1484198690489174  13.313671874999997 3.8298611111111116  C 13.252418553879231 4.027484164044996  13.22128042958381 4.233009334301102  13.22128042958381 4.439684855445066  C 13.22128042958381 5.590278084259218  14.165679785409484 6.523018188778399  15.33065542958381 6.523018188778399  C 16.495631073758144 6.523018188778399  17.440030429583814 5.590278084259218  17.440030429583814 4.439684855445066  C 17.440030429583814 3.2890916266309134  16.495631073758144 2.356351522111732  15.33065542958381 2.356351522111732  C 14.912916372724794 2.356351522111732  14.504583387930422 2.478855505234198  14.157421874999997 2.708333333333333  C 11.498993088567627 0.6787904791770272  7.8746967386041185 0.4005551589565773  4.930664062499998 2.0000000000000004  L 4.960546874999998 2.0260416666666674  Z M 5.997656249999999 15.579861111111109  C 3.5395832200063198 14.433456363708517  1.9707935407802348 11.990345209194446  1.9687500000000004 9.305555555555557  C 1.9688671968831062 8.34905820578862  2.17060853122071 7.403060814309215  2.5611328125 6.527777777777778  L 2.6947265625 6.527777777777778  C 2.695760482855609 6.527779279353931  2.696794404190062 6.527780030142315  2.6978283256634796 6.527780030142315  C 3.8628039698378087 6.527780030142315  4.80720332566348 5.5950399256231345  4.80720332566348 4.444446696808981  C 4.80720332566348 3.293853467994828  3.8628039698378087 2.3611133634756474  2.6978283256634796 2.3611133634756474  C 1.5328526814891497 2.3611133634756474  0.5884533256634797 3.293853467994828  0.5884533256634797 4.444446696808981  C 0.5884533256634797 5.02521966439584  0.8339116801179982 5.579630641181228  1.265625 5.973958333333334  C 0.8010214565367786 7.0253474322779885  0.5612110358101462 8.16015420856798  0.5612110358101462 9.307315313625587  C 0.5612110358101462 12.642629962020857  2.5747668040316345 15.656674237511288  5.6794921875 16.968749999999996  C 5.687660871714533 16.48909748789921  5.79597487137602 16.016271897671032  5.997656249999999 15.579861111111109  Z M 17.163281249999997 7.192708333333333  C 16.76063148722458 7.446564131565808  16.309537836798476 7.616147099994  15.837890625 7.690972222222221  C 16.715550810590077 11.319454525602204  14.53373926463837 14.98450619692698  10.896679687499997 15.991319444444443  C 10.534884296986107 15.298111563027852  9.811376980645047 14.862530317329997  9.021743151228556 14.862530317329997  C 7.856767507054227 14.862530317329997  6.912368151228557 15.795270421849175  6.912368151228557 16.94586365066333  C 6.912368151228557 18.09645687947748  7.856767507054227 19.029196983996666  9.021743151228556 19.029196983996666  C 10.017237476710337 19.029196983996666  10.877219544887437 18.34180715270434  11.084765625000001 17.380208333333332  C 14.822767961136107 16.439456209916102  17.43881391064904 13.114755207809498  17.43881391064904 9.304925593492955  C 17.43881391064904 8.592112159056136  17.34621369599817 7.882244329887279  17.163281249999997 7.192708333333333  Z " fill-rule="nonzero" fill="rgba(255, 255, 255, 1)" stroke="none" transform="matrix(1 0 0 1 171 1087 )" class="fill" />
    <path d="M 4.960546874999998 2.0260416666666674  C 5.289179626347447 2.3512895573623265  5.548047674765687 2.7386358117742464  5.721679687499999 3.1649305555555554  C 8.163565078771146 1.8879610401709257  11.137411561664347 2.1484198690489174  13.313671874999997 3.8298611111111116  C 13.252418553879231 4.027484164044996  13.22128042958381 4.233009334301102  13.22128042958381 4.439684855445066  C 13.22128042958381 5.590278084259218  14.165679785409484 6.523018188778399  15.33065542958381 6.523018188778399  C 16.495631073758144 6.523018188778399  17.440030429583814 5.590278084259218  17.440030429583814 4.439684855445066  C 17.440030429583814 3.2890916266309134  16.495631073758144 2.356351522111732  15.33065542958381 2.356351522111732  C 14.912916372724794 2.356351522111732  14.504583387930422 2.478855505234198  14.157421874999997 2.708333333333333  C 11.498993088567627 0.6787904791770272  7.8746967386041185 0.4005551589565773  4.930664062499998 2.0000000000000004  L 4.960546874999998 2.0260416666666674  Z " stroke-width="0" stroke-dasharray="0" stroke="rgba(255, 255, 255, 0)" fill="none" transform="matrix(1 0 0 1 171 1087 )" class="stroke" mask="url(#Clip242)" />
    <path d="M 5.997656249999999 15.579861111111109  C 3.5395832200063198 14.433456363708517  1.9707935407802348 11.990345209194446  1.9687500000000004 9.305555555555557  C 1.9688671968831062 8.34905820578862  2.17060853122071 7.403060814309215  2.5611328125 6.527777777777778  L 2.6947265625 6.527777777777778  C 2.695760482855609 6.527779279353931  2.696794404190062 6.527780030142315  2.6978283256634796 6.527780030142315  C 3.8628039698378087 6.527780030142315  4.80720332566348 5.5950399256231345  4.80720332566348 4.444446696808981  C 4.80720332566348 3.293853467994828  3.8628039698378087 2.3611133634756474  2.6978283256634796 2.3611133634756474  C 1.5328526814891497 2.3611133634756474  0.5884533256634797 3.293853467994828  0.5884533256634797 4.444446696808981  C 0.5884533256634797 5.02521966439584  0.8339116801179982 5.579630641181228  1.265625 5.973958333333334  C 0.8010214565367786 7.0253474322779885  0.5612110358101462 8.16015420856798  0.5612110358101462 9.307315313625587  C 0.5612110358101462 12.642629962020857  2.5747668040316345 15.656674237511288  5.6794921875 16.968749999999996  C 5.687660871714533 16.48909748789921  5.79597487137602 16.016271897671032  5.997656249999999 15.579861111111109  Z " stroke-width="0" stroke-dasharray="0" stroke="rgba(255, 255, 255, 0)" fill="none" transform="matrix(1 0 0 1 171 1087 )" class="stroke" mask="url(#Clip242)" />
    <path d="M 17.163281249999997 7.192708333333333  C 16.76063148722458 7.446564131565808  16.309537836798476 7.616147099994  15.837890625 7.690972222222221  C 16.715550810590077 11.319454525602204  14.53373926463837 14.98450619692698  10.896679687499997 15.991319444444443  C 10.534884296986107 15.298111563027852  9.811376980645047 14.862530317329997  9.021743151228556 14.862530317329997  C 7.856767507054227 14.862530317329997  6.912368151228557 15.795270421849175  6.912368151228557 16.94586365066333  C 6.912368151228557 18.09645687947748  7.856767507054227 19.029196983996666  9.021743151228556 19.029196983996666  C 10.017237476710337 19.029196983996666  10.877219544887437 18.34180715270434  11.084765625000001 17.380208333333332  C 14.822767961136107 16.439456209916102  17.43881391064904 13.114755207809498  17.43881391064904 9.304925593492955  C 17.43881391064904 8.592112159056136  17.34621369599817 7.882244329887279  17.163281249999997 7.192708333333333  Z " stroke-width="0" stroke-dasharray="0" stroke="rgba(255, 255, 255, 0)" fill="none" transform="matrix(1 0 0 1 171 1087 )" class="stroke" mask="url(#Clip242)" />
  </g>
</svg>