<?xml version="1.0" encoding="utf-8"?>
<svg version="1.1" xmlns:xlink="http://www.w3.org/1999/xlink" width="13px" height="17px" xmlns="http://www.w3.org/2000/svg">
  <defs>
    <pattern id="BGPattern" patternUnits="userSpaceOnUse" alignment="0 0" imageRepeat="None" />
    <mask fill="white" id="Clip764">
      <path d="M 11.974327612304688 9.702398976562499  L 11.974327612304684 9.704525924479167  C 12.311806292111475 9.866138526590312  12.63008392118255 10.068439920573171  12.922689820963543 10.307317259114583  L 12.922689820963543 10.302578730468749  C 12.629964606079986 10.06460258807394  12.311690868986501 9.8631801236827  11.974327612304688 9.702398976562499  Z M 12.860151949869792 15.107651441406249  L 12.86015194986979 16.099757296875  L 9.352652968750002 16.099757296875  L 9.352652968750002 11.619005649739584  L 10.301015177408855 11.619005649739584  L 10.301015177408855 15.107651441406249  L 12.860151949869792 15.107651441406249  Z M 0.10052381184895783 8  L 0.10052381184895783 7.280814209635418  L 10.64304323079427 7.280814209635418  L 10.64304323079427 8  L 0.10052381184895783 8  Z M 8.376418920898438 4.357509106770833  L 8.376418920898438 0.6691713541666666  L 9.324781150716147 0.6691713541666666  L 9.324781150716147 4.357509106770833  L 8.376418920898438 4.357509106770833  Z M 4.414066359049482 15.623075858072914  C 4.341452211909269 15.296979138275288  4.294932681046058 14.965120563015937  4.274990395507812 14.6309430859375  L 0.10052381184895783 14.6309430859375  L 0.10052381184895783 15.623075858072914  L 4.414066359049482 15.623075858072914  Z M 4.701200071614584 11.948011408854166  C 4.8398144685272175 11.60129083377461  5.009528493935485 11.269094537635803  5.208065585937501 10.955878636718747  L 0.10052381184895783 10.955878636718747  L 0.10052381184895783 11.948011408854166  L 4.701200071614584 11.948011408854166  Z " fill-rule="evenodd" />
    </mask>
  </defs>
  <g transform="matrix(1 0 0 1 -24 -1087 )">
    <path d="M 11.974327612304688 9.702398976562499  L 11.974327612304684 9.704525924479167  C 12.311806292111475 9.866138526590312  12.63008392118255 10.068439920573171  12.922689820963543 10.307317259114583  L 12.922689820963543 10.302578730468749  C 12.629964606079986 10.06460258807394  12.311690868986501 9.8631801236827  11.974327612304688 9.702398976562499  Z M 12.860151949869792 15.107651441406249  L 12.86015194986979 16.099757296875  L 9.352652968750002 16.099757296875  L 9.352652968750002 11.619005649739584  L 10.301015177408855 11.619005649739584  L 10.301015177408855 15.107651441406249  L 12.860151949869792 15.107651441406249  Z M 0.10052381184895783 8  L 0.10052381184895783 7.280814209635418  L 10.64304323079427 7.280814209635418  L 10.64304323079427 8  L 0.10052381184895783 8  Z M 8.376418920898438 4.357509106770833  L 8.376418920898438 0.6691713541666666  L 9.324781150716147 0.6691713541666666  L 9.324781150716147 4.357509106770833  L 8.376418920898438 4.357509106770833  Z M 4.414066359049482 15.623075858072914  C 4.341452211909269 15.296979138275288  4.294932681046058 14.965120563015937  4.274990395507812 14.6309430859375  L 0.10052381184895783 14.6309430859375  L 0.10052381184895783 15.623075858072914  L 4.414066359049482 15.623075858072914  Z M 4.701200071614584 11.948011408854166  C 4.8398144685272175 11.60129083377461  5.009528493935485 11.269094537635803  5.208065585937501 10.955878636718747  L 0.10052381184895783 10.955878636718747  L 0.10052381184895783 11.948011408854166  L 4.701200071614584 11.948011408854166  Z " fill-rule="nonzero" fill="rgba(255, 255, 255, 1)" stroke="none" transform="matrix(1 0 0 1 24 1087 )" class="fill" />
    <path d="M 11.974327612304688 9.702398976562499  L 11.974327612304684 9.704525924479167  C 12.311806292111475 9.866138526590312  12.63008392118255 10.068439920573171  12.922689820963543 10.307317259114583  L 12.922689820963543 10.302578730468749  C 12.629964606079986 10.06460258807394  12.311690868986501 9.8631801236827  11.974327612304688 9.702398976562499  Z " stroke-width="0" stroke-dasharray="0" stroke="rgba(255, 255, 255, 0)" fill="none" transform="matrix(1 0 0 1 24 1087 )" class="stroke" mask="url(#Clip764)" />
    <path d="M 12.860151949869792 15.107651441406249  L 12.86015194986979 16.099757296875  L 9.352652968750002 16.099757296875  L 9.352652968750002 11.619005649739584  L 10.301015177408855 11.619005649739584  L 10.301015177408855 15.107651441406249  L 12.860151949869792 15.107651441406249  Z " stroke-width="0" stroke-dasharray="0" stroke="rgba(255, 255, 255, 0)" fill="none" transform="matrix(1 0 0 1 24 1087 )" class="stroke" mask="url(#Clip764)" />
    <path d="M 0.10052381184895783 8  L 0.10052381184895783 7.280814209635418  L 10.64304323079427 7.280814209635418  L 10.64304323079427 8  L 0.10052381184895783 8  Z " stroke-width="0" stroke-dasharray="0" stroke="rgba(255, 255, 255, 0)" fill="none" transform="matrix(1 0 0 1 24 1087 )" class="stroke" mask="url(#Clip764)" />
    <path d="M 8.376418920898438 4.357509106770833  L 8.376418920898438 0.6691713541666666  L 9.324781150716147 0.6691713541666666  L 9.324781150716147 4.357509106770833  L 8.376418920898438 4.357509106770833  Z " stroke-width="0" stroke-dasharray="0" stroke="rgba(255, 255, 255, 0)" fill="none" transform="matrix(1 0 0 1 24 1087 )" class="stroke" mask="url(#Clip764)" />
    <path d="M 4.414066359049482 15.623075858072914  C 4.341452211909269 15.296979138275288  4.294932681046058 14.965120563015937  4.274990395507812 14.6309430859375  L 0.10052381184895783 14.6309430859375  L 0.10052381184895783 15.623075858072914  L 4.414066359049482 15.623075858072914  Z " stroke-width="0" stroke-dasharray="0" stroke="rgba(255, 255, 255, 0)" fill="none" transform="matrix(1 0 0 1 24 1087 )" class="stroke" mask="url(#Clip764)" />
    <path d="M 4.701200071614584 11.948011408854166  C 4.8398144685272175 11.60129083377461  5.009528493935485 11.269094537635803  5.208065585937501 10.955878636718747  L 0.10052381184895783 10.955878636718747  L 0.10052381184895783 11.948011408854166  L 4.701200071614584 11.948011408854166  Z " stroke-width="0" stroke-dasharray="0" stroke="rgba(255, 255, 255, 0)" fill="none" transform="matrix(1 0 0 1 24 1087 )" class="stroke" mask="url(#Clip764)" />
  </g>
</svg>