<?xml version="1.0" encoding="utf-8"?>
<svg version="1.1" xmlns:xlink="http://www.w3.org/1999/xlink" width="14px" height="5px" xmlns="http://www.w3.org/2000/svg">
  <g transform="matrix(1 0 0 1 -20 -20 )">
    <path d="M 0.8158783783783292 1.370192307692264  L 0.7875000000000227 1.370192307692264  L 0.7875000000000227 4.605769230769283  C 0.7685810810810381 4.802884615384642  0.6621621621621898 4.899038461538453  0.47060810810808107 4.899038461538453  C 0.2577702702702709 4.899038461538453  0.1537162162162531 4.800480769230717  0.1537162162162531 4.605769230769283  L 0.1537162162162531 0.5769230769230944  C 0.13479729729726841 0.3221153846153584  0.22939189189185075 0.18509615384618883  0.4422297297297746 0.16586538461535838  C 0.595945945945914 0.14663461538464162  0.7496621621621671 0.2644230769230944  0.9033783783784203 0.5168269230769056  L 3.559121621621671 3.725961538461547  L 3.5874999999999773 3.725961538461547  L 3.5874999999999773 0.5192307692307168  C 3.5874999999999773 0.3052884615384528  3.693918918918939 0.1875  3.904391891891919 0.16826923076928324  C 4.095945945945914 0.1875  4.202364864864876 0.3052884615384528  4.221283783783747 0.5192307692307168  L 4.221283783783747 4.548076923076906  C 4.221283783783747 4.783653846153811  4.124324324324334 4.899038461538453  3.9327702702702254 4.899038461538453  C 3.760135135135101 4.918269230769283  3.606418918918962 4.822115384615358  3.47162162162158 4.605769230769283  L 0.8158783783783292 1.370192307692264  Z M 7.165540540540519 3.1875  L 5.722972972973025 3.1875  L 5.722972972973025 4.283653846153811  L 7.309797297297337 4.283653846153811  C 7.501351351351332 4.302884615384642  7.607770270270294 4.411057692307736  7.626689189189164 4.605769230769283  C 7.607770270270294 4.802884615384642  7.501351351351332 4.899038461538453  7.309797297297337 4.899038461538453  L 5.434459459459504 4.899038461538453  C 5.183783783783838 4.899038461538453  5.06790540540544 4.78125  5.089189189189142 4.548076923076906  L 5.089189189189142 0.5769230769230944  C 5.070270270270271 0.3413461538461888  5.186148648648668 0.2259615384615472  5.434459459459504 0.2259615384615472  L 7.309797297297337 0.2259615384615472  C 7.501351351351332 0.24519230769226397  7.607770270270294 0.34375  7.626689189189164 0.5192307692307168  C 7.607770270270294 0.7355769230769056  7.501351351351332 0.8413461538461888  7.309797297297337 0.8413461538461888  L 5.722972972973025 0.8413461538461888  L 5.722972972973025 2.5721153846153584  L 7.165540540540519 2.5721153846153584  C 7.357094594594629 2.591346153846189  7.463513513513475 2.6995192307692832  7.482432432432461 2.8942307692307168  C 7.463513513513475 3.088942307692264  7.357094594594629 3.1875  7.165540540540519 3.1875  Z M 8.75 0.4855769230769056  L 9.44527027027027 4.076923076923094  L 10.658445945945914 0.4302884615384528  C 10.69628378378377 0.25480769230773603  10.812162162162167 0.16586538461535838  11.003716216216162 0.16586538461535838  C 11.157432432432415 0.16586538461535838  11.263851351351377 0.25480769230773603  11.320608108108104 0.4302884615384528  L 12.533783783783747 4.076923076923094  L 12.562162162162167 4.076923076923094  L 13.255067567567608 0.48798076923071676  C 13.273986486486478 0.2740384615384528  13.389864864864876 0.16586538461535838  13.600337837837856 0.16586538461535838  C 13.77297297297298 0.18509615384618883  13.869932432432392 0.2836538461538112  13.888851351351377 0.4591346153846416  C 13.888851351351377 0.557692307692264  13.879391891891942 0.6754807692307168  13.860472972972957 0.8100961538461888  L 13.054054054054063 4.516826923076906  C 13.016216216216208 4.771634615384642  12.862499999999955 4.899038461538453  12.592905405405418 4.899038461538453  C 12.323310810810767 4.918269230769283  12.150675675675643 4.790865384615358  12.072635135135101 4.516826923076906  L 11.003716216216162 1.25  L 10.975337837837856 1.25  L 9.906418918918916 4.516826923076906  C 9.828378378378375 4.790865384615358  9.65574324324325 4.918269230769283  9.3861486486486 4.899038461538453  C 9.116554054054063 4.899038461538453  8.96283783783781 4.771634615384642  8.924999999999955 4.516826923076906  L 8.144594594594537 0.8100961538461888  C 8.125675675675666 0.7908653846153584  8.11621621621623 0.7620192307692832  8.11621621621623 0.7211538461538112  C 8.097297297297246 0.6442307692307168  8.08783783783781 0.5552884615384528  8.08783783783781 0.45673076923071676  C 8.08783783783781 0.28125  8.194256756756772 0.18269230769226397  8.404729729729752 0.1634615384615472  C 8.596283783783747 0.1634615384615472  8.712162162162144 0.2716346153846416  8.75 0.4855769230769056  Z " fill-rule="nonzero" fill="#666666" stroke="none" transform="matrix(1 0 0 1 20 20 )" />
  </g>
</svg>