<?xml version="1.0" encoding="utf-8"?>
<svg version="1.1" xmlns:xlink="http://www.w3.org/1999/xlink" width="17px" height="18px" xmlns="http://www.w3.org/2000/svg">
  <defs>
    <pattern id="BGPattern" patternUnits="userSpaceOnUse" alignment="0 0" imageRepeat="None" />
    <mask fill="white" id="Clip240">
      <path d="M 9.899694734375 17.49379075927734  C 9.838317005094083 17.440431771521833  9.778031846923557 17.385846987665136  9.718876182291666 17.33006983886719  C 9.45305147370646 17.07879648737776  9.210900531247288 16.80394941865823  8.995440407552083 16.50895305908203  L 2.8610713125 16.50895305908203  C 2.3981747265625 16.50895305908203  2.021541209635416 16.135115624999997  2 15.675622712402344  L 2 2.7059651586914057  C 2.021541209635416 2.246472224121093  2.3981478098958333 1.8726080712890618  2.8610713125 2  L 15.087485700520833 2  C 15.55038228645833 1.8726080712890618  15.92698888671875 2.2464455053710926  15.92698888671875 2.7059651586914057  L 15.92698888671875 7.443368481445312  C 16.271670325567428 7.56979771113964  16.603802329113844 7.727673081461678  16.919121658854166 7.914968107910157  L 16.919121658854166 2.7059651586914066  C 16.919121658854166 1.701804880371094  16.099057286458333 0.8877971118164061  15.087485700520833 1  L 2.8610713125 1  C 1.8494728098958335 0.8877970898437498  1.0294353541666665 1.7018315771484378  1 2.7059651586914066  L 1 15.675622712402344  C 1.0294353541666665 16.679782990722654  1.8494997265625002 17.493790759277342  2.8610713125 17.493790759277342  L 9.899694734375 17.49379075927734  Z " fill-rule="evenodd" />
    </mask>
  </defs>
  <g transform="matrix(1 0 0 1 -21 -1088 )">
    <path d="M 9.899694734375 17.49379075927734  C 9.838317005094083 17.440431771521833  9.778031846923557 17.385846987665136  9.718876182291666 17.33006983886719  C 9.45305147370646 17.07879648737776  9.210900531247288 16.80394941865823  8.995440407552083 16.50895305908203  L 2.8610713125 16.50895305908203  C 2.3981747265625 16.50895305908203  2.021541209635416 16.135115624999997  2 15.675622712402344  L 2 2.7059651586914057  C 2.021541209635416 2.246472224121093  2.3981478098958333 1.8726080712890618  2.8610713125 2  L 15.087485700520833 2  C 15.55038228645833 1.8726080712890618  15.92698888671875 2.2464455053710926  15.92698888671875 2.7059651586914057  L 15.92698888671875 7.443368481445312  C 16.271670325567428 7.56979771113964  16.603802329113844 7.727673081461678  16.919121658854166 7.914968107910157  L 16.919121658854166 2.7059651586914066  C 16.919121658854166 1.701804880371094  16.099057286458333 0.8877971118164061  15.087485700520833 1  L 2.8610713125 1  C 1.8494728098958335 0.8877970898437498  1.0294353541666665 1.7018315771484378  1 2.7059651586914066  L 1 15.675622712402344  C 1.0294353541666665 16.679782990722654  1.8494997265625002 17.493790759277342  2.8610713125 17.493790759277342  L 9.899694734375 17.49379075927734  Z " fill-rule="nonzero" fill="rgba(255, 255, 255, 1)" stroke="none" transform="matrix(1 0 0 1 21 1088 )" class="fill" />
    <path d="M 9.899694734375 17.49379075927734  C 9.838317005094083 17.440431771521833  9.778031846923557 17.385846987665136  9.718876182291666 17.33006983886719  C 9.45305147370646 17.07879648737776  9.210900531247288 16.80394941865823  8.995440407552083 16.50895305908203  L 2.8610713125 16.50895305908203  C 2.3981747265625 16.50895305908203  2.021541209635416 16.135115624999997  2 15.675622712402344  L 2 2.7059651586914057  C 2.021541209635416 2.246472224121093  2.3981478098958333 1.8726080712890618  2.8610713125 2  L 15.087485700520833 2  C 15.55038228645833 1.8726080712890618  15.92698888671875 2.2464455053710926  15.92698888671875 2.7059651586914057  L 15.92698888671875 7.443368481445312  C 16.271670325567428 7.56979771113964  16.603802329113844 7.727673081461678  16.919121658854166 7.914968107910157  L 16.919121658854166 2.7059651586914066  C 16.919121658854166 1.701804880371094  16.099057286458333 0.8877971118164061  15.087485700520833 1  L 2.8610713125 1  C 1.8494728098958335 0.8877970898437498  1.0294353541666665 1.7018315771484378  1 2.7059651586914066  L 1 15.675622712402344  C 1.0294353541666665 16.679782990722654  1.8494997265625002 17.493790759277342  2.8610713125 17.493790759277342  L 9.899694734375 17.49379075927734  Z " stroke-width="0" stroke-dasharray="0" stroke="rgba(255, 255, 255, 0)" fill="none" transform="matrix(1 0 0 1 21 1088 )" class="stroke" mask="url(#Clip240)" />
  </g>
</svg>