<?xml version="1.0" encoding="utf-8"?>
<svg version="1.1" xmlns:xlink="http://www.w3.org/1999/xlink" width="2px" height="3px" xmlns="http://www.w3.org/2000/svg">
  <defs>
    <pattern id="BGPattern" patternUnits="userSpaceOnUse" alignment="0 0" imageRepeat="None" />
    <mask fill="white" id="Clip771">
      <path d="M 0.13417968749999787 1.4031249999999993  C 0.13417968749999787 1.8345974608053055  0.4839572266946899 2.1843749999999993  0.9154296874999979 2.1843749999999993  C 1.346902148305304 2.1843749999999993  1.6966796874999979 1.8345974608053055  1.6966796874999979 1.4031249999999993  C 1.6966796874999979 0.9716525391946931  1.346902148305304 0.6218749999999993  0.9154296874999979 0.6218749999999993  C 0.4839572266946899 0.6218749999999993  0.13417968749999787 0.9716525391946931  0.13417968749999787 1.4031249999999993  Z " fill-rule="evenodd" />
    </mask>
  </defs>
  <g transform="matrix(1 0 0 1 -332 -1092 )">
    <path d="M 0.13417968749999787 1.4031249999999993  C 0.13417968749999787 1.8345974608053055  0.4839572266946899 2.1843749999999993  0.9154296874999979 2.1843749999999993  C 1.346902148305304 2.1843749999999993  1.6966796874999979 1.8345974608053055  1.6966796874999979 1.4031249999999993  C 1.6966796874999979 0.9716525391946931  1.346902148305304 0.6218749999999993  0.9154296874999979 0.6218749999999993  C 0.4839572266946899 0.6218749999999993  0.13417968749999787 0.9716525391946931  0.13417968749999787 1.4031249999999993  Z " fill-rule="nonzero" fill="rgba(255, 255, 255, 1)" stroke="none" transform="matrix(1 0 0 1 332 1092 )" class="fill" />
    <path d="M 0.13417968749999787 1.4031249999999993  C 0.13417968749999787 1.8345974608053055  0.4839572266946899 2.1843749999999993  0.9154296874999979 2.1843749999999993  C 1.346902148305304 2.1843749999999993  1.6966796874999979 1.8345974608053055  1.6966796874999979 1.4031249999999993  C 1.6966796874999979 0.9716525391946931  1.346902148305304 0.6218749999999993  0.9154296874999979 0.6218749999999993  C 0.4839572266946899 0.6218749999999993  0.13417968749999787 0.9716525391946931  0.13417968749999787 1.4031249999999993  Z " stroke-width="0" stroke-dasharray="0" stroke="rgba(255, 255, 255, 0)" fill="none" transform="matrix(1 0 0 1 332 1092 )" class="stroke" mask="url(#Clip771)" />
  </g>
</svg>