<?xml version="1.0" encoding="utf-8"?>
<svg version="1.1" xmlns:xlink="http://www.w3.org/1999/xlink" width="4px" height="9px" xmlns="http://www.w3.org/2000/svg">
  <g transform="matrix(1 0 0 1 -327 -1301 )">
    <path d="M 3.9949878575913864 1.6061022976329822  C 3.9949878575913864 1.2998568475061565  3.818794671170247 1.0288334773302552  3.559375000000001 0.93603515625  C 3.23048628239056 0.8182182245542012  2.878969256693887 1.0226358680423577  2.7742187499999993 1.3926269531249984  L 1.8214843750000007 4.75927734375  C 0.8097063041365082 4.795538361044418  0.006185595515924902 5.728755038569084  0.006185595515924902 6.867582801879309  C 0.006185595515924902 8.032558446053638  0.8456516895831871 8.97695780187931  1.881185595515925 8.97695780187931  C 2.916719501448661 8.97695780187931  3.756185595515925 8.032558446053638  3.756185595515925 6.867582801879309  C 3.756185595515925 6.206964465374002  3.481081385269311 5.584499985025145  3.0128906250000007 5.185766601562499  L 3.9654296875000004 1.8197753906249996  C 3.985017244831065 1.7506918115197205  3.9949878575913864 1.6786152363820557  3.9949878575913864 1.6061022976329822  Z " fill-rule="nonzero" fill="#ffffff" stroke="none" transform="matrix(1 0 0 1 327 1301 )" />
  </g>
</svg>