<?xml version="1.0" encoding="utf-8"?>
<svg version="1.1" xmlns:xlink="http://www.w3.org/1999/xlink" width="19px" height="17px" xmlns="http://www.w3.org/2000/svg">
  <g transform="matrix(1 0 0 1 -17 -13 )">
    <path d="M 18.84927884615388 6.25644736842105  C 18.84927884615388 5.596578947368471  18.301201923076974 5.059736842105281  17.62524038461538 5.059736842105281  L 15.499158653846166 5.059736842105281  L 10.333533653846189 0.4585526315789821  C 9.865384615384642 0.04250000000001819  9.159735576923026 0.04026315789474211  8.691586538461593 0.456315789473706  L 3.471153846153811 5.059736842105281  L 1.3427884615384755 5.059736842105281  C 0.6668269230768828 5.059736842105281  0.11874999999997726 5.596578947368471  0.11874999999997726 6.258684210526326  L 0.11874999999997726 12.298157894736846  L 0.12103365384609788 12.36749999999995  L 0.12103365384609788 14.608815789473738  L 0.11874999999997726 14.731842105263127  L 0.11874999999997726 15.738421052631566  C 0.11874999999997726 16.40052631578942  0.6668269230768828 16.93736842105261  1.3427884615384755 17  L 17.62524038461538 17  C 18.301201923076974 16.93736842105261  18.84927884615388 16.40052631578942  18.84927884615388 15.738421052631566  L 18.84927884615388 6.25644736842105  Z M 5.167908653846098 5.0575000000000045  L 9.452043269230785 1.2817105263158055  C 9.484014423076928 1.2526315789473301  9.536538461538496 1.2526315789473301  9.568509615384642 1.2817105263158055  L 13.811538461538476 5.0575000000000045  L 5.167908653846098 5.0575000000000045  Z M 17.712019230769215 15.73618421052629  L 17.714302884615336 15.73618421052629  C 17.714302884615336 15.78315789473686  17.675480769230717 15.823421052631602  17.62524038461538 15.823421052631602  L 1.3427884615384755 15.823421052631602  C 1.2948317307692605 15.823421052631602  1.2537259615384073 15.785394736842136  1.2537259615384073 15.73618421052629  L 1.2537259615384073 14.754210526315774  L 1.2514423076922867 14.700526315789489  L 1.2537259615384073 12.365263157894788  L 1.2537259615384073 6.258684210526326  C 1.2537259615384073 6.2117105263157555  1.2925480769230262 6.171447368421013  1.3427884615384755 6.171447368421013  L 3.6058894230769734 6.171447368421013  C 3.6629807692307854 6.178157894736842  3.706370192307645 6.178157894736842  3.761177884615335 6.171447368421013  L 15.202283653846166 6.171447368421013  C 15.241105769230785 6.178157894736842  15.277644230769283 6.178157894736842  15.314182692307668 6.178157894736842  C 15.332451923076974 6.178157894736842  15.350721153846166 6.1759210526315655  15.368990384615358 6.171447368421013  L 17.62295673076926 6.171447368421013  C 17.670913461538476 6.171447368421013  17.712019230769215 6.209473684210479  17.712019230769215 6.258684210526326  L 17.712019230769215 15.73618421052629  Z " fill-rule="nonzero" fill="#999999" stroke="none" transform="matrix(1 0 0 1 17 13 )" />
  </g>
</svg>