<?xml version="1.0" encoding="utf-8"?>
<svg version="1.1" xmlns:xlink="http://www.w3.org/1999/xlink" width="13px" height="10px" xmlns="http://www.w3.org/2000/svg">
  <g transform="matrix(1 0 0 1 -20 -15 )">
    <path d="M 0.3051829268293069 5.636194029850788  C 0.5370426829268169 5.462686567164134  0.8580792682926947 5.4701492537313605  1.078048780487773 5.636194029850788  L 4.454878048780447 8.160447761194042  L 2.885365853658552 8.160447761194042  L 12.38567073170735 0.23134328358206702  C 12.53033536585361 0.11194029850747178  12.750304878048794 0.12313432835825999  12.877134146341469 0.2593283582089878  C 12.996036585365857 0.38432835820892564  12.992073170731715 0.5708955223880459  12.877134146341469 0.6940298507463059  L 4.454878048780447 9.638059701492548  L 4.417225609756144 9.677238805970156  C 4.050609756097572 10.067164179104523  3.418445121951223 10.102611940298466  3.0042682926829407 9.757462686567145  C 2.960670731707264 9.722014925373102  2.9190548780488186 9.679104477611936  2.8833841463414274 9.638059701492548  L 0.20411585365851084 6.458955223880594  C -0.009908536585410133 6.205223880597053  0.03567073170728463 5.837686567164155  0.3051829268293069 5.636194029850788  Z " fill-rule="nonzero" fill="#666666" stroke="none" transform="matrix(1 0 0 1 20 15 )" />
  </g>
</svg>