<?xml version="1.0" encoding="utf-8"?>
<svg version="1.1" xmlns:xlink="http://www.w3.org/1999/xlink" width="18px" height="18px" xmlns="http://www.w3.org/2000/svg">
  <g transform="matrix(1 0 0 1 -16 -13 )">
    <path d="M 18 15.729910714285683  L 16.65000000000004 15.729910714285683  C 16.65000000000004 16.238169642857095  16.236160714285745 16.65000000000004  15.729910714285683 16.65000000000004  L 2.2700892857143167 16.65000000000004  C 1.7618303571429053 16.65000000000004  1.3499999999999588 16.23616071428575  1.3499999999999588 15.729910714285683  L 1.3499999999999588 2.2700892857143167  C 1.3499999999999588 1.761830357142907  1.7638392857142513 1.349999999999957  2.2700892857143167 1.349999999999957  L 10.462500000000041 1.349999999999957  C 10.836160714285704 1.349999999999957  11.137500000000024 1.0486607142857487  11.137500000000024 0.6749999999999794  C 11.137500000000024 0.3013392857143167  10.834151785714251 0  10.462500000000041 0  L 2.2700892857143167 0  C 1.0165178571428193 0  0 1.0165178571428193  0 2.2700892857143167  L 0 15.729910714285683  C 0 16.983482142857177  1.0165178571428193 18  2.2700892857143167 18  L 15.729910714285683 18  C 16.983482142857177 18  18 16.983482142857177  18 15.729910714285683  Z " fill-rule="nonzero" fill="#999999" stroke="none" transform="matrix(1 0 0 1 16 13 )" />
  </g>
</svg>