<?xml version="1.0" encoding="utf-8"?>
<svg version="1.1" xmlns:xlink="http://www.w3.org/1999/xlink" width="16px" height="10px" xmlns="http://www.w3.org/2000/svg">
  <g transform="matrix(1 0 0 1 -19 -21 )">
    <path d="M 0.04761904761903679 9.835648148148152  L 0.04761904761903679 8.708333333333371  L 15.950000000000045 8.708333333333371  L 15.950000000000045 9.835648148148152  L 0.04761904761903679 9.835648148148152  Z M 15.952380952380963 7.053240740740762  C 15.952380952380963 5.685185185185219  14.130952380952408 4.925925925925981  12.7714285714286 4.925925925925981  L 9.590476190476238 4.847222222222172  L 9.590476190476238 0.2060185185184764  C 9.261904761904816 0.1782407407407618  8.93333333333328 0.14814814814815236  8.60238095238094 0.12731481481478113  C 8.08095238095234 0.09490740740739056  7.561904761904771 0.12731481481478113  7.04047619047617 0.1435185185184764  C 6.828571428571422 0.1504629629629335  6.619047619047592 0.1527777777778283  6.409523809523762 0.14814814814815236  L 6.409523809523762 4.895833333333371  L 3.2285714285713993 4.840277777777828  C 1.8666666666666742 4.840277777777828  0.04761904761903679 6.004629629629676  0.04761904761903679 7.375  L 0.04761904761903679 8  L 15.952380952380963 8  L 15.952380952380963 7.053240740740762  Z " fill-rule="nonzero" fill="#666666" stroke="none" transform="matrix(1 0 0 1 19 21 )" />
  </g>
</svg>