<?xml version="1.0" encoding="utf-8"?>
<svg version="1.1" xmlns:xlink="http://www.w3.org/1999/xlink" width="17px" height="12px" xmlns="http://www.w3.org/2000/svg">
  <defs>
    <pattern id="BGPattern" patternUnits="userSpaceOnUse" alignment="0 0" imageRepeat="None" />
    <mask fill="white" id="Clip1386">
      <path d="M 16.831683168316886 1.5695652173913004  C 16.831683168316886 0.786956521739171  16.2173267326732 0.15217391304349803  15.459900990098959 0.15217391304349803  L 9.56881188118814 0.15652173913042589  C 9.587747524752558 0.963043478260829  9.015470297029651 1.460869565217422  8.304331683168357 1.5195652173913459  C 7.511138613861476 1.5869565217391255  6.972524752475238 0.8586956521738784  6.964108910891127 0.21304347826082903  C 6.964108910891127 0.19347826086959685  6.968316831683069 0.17826086956517884  6.968316831683069 0.15869565217394666  L 1.3886138613861476 0.1630434782608745  C 0.631188118811906 0.1630434782608745  0.01683168316822048 0.7978260869565474  0.01683168316822048 1.5826086956521976  L 0.023143564356360002 10.510869565217376  C 0.023143564356360002 11.29347826086962  0.6375000000000455 11.928260869565179  1.3970297029702579 12  L 15.466212871287098 12  C 16.22363861386134 11.917391304347802  16.837995049505025 11.28260869565213  16.837995049505025 10.49782608695648  L 16.831683168316886 1.5695652173913004  Z " fill-rule="evenodd" />
    </mask>
  </defs>
  <g transform="matrix(1 0 0 1 -27 -74 )">
    <path d="M 16.831683168316886 1.5695652173913004  C 16.831683168316886 0.786956521739171  16.2173267326732 0.15217391304349803  15.459900990098959 0.15217391304349803  L 9.56881188118814 0.15652173913042589  C 9.587747524752558 0.963043478260829  9.015470297029651 1.460869565217422  8.304331683168357 1.5195652173913459  C 7.511138613861476 1.5869565217391255  6.972524752475238 0.8586956521738784  6.964108910891127 0.21304347826082903  C 6.964108910891127 0.19347826086959685  6.968316831683069 0.17826086956517884  6.968316831683069 0.15869565217394666  L 1.3886138613861476 0.1630434782608745  C 0.631188118811906 0.1630434782608745  0.01683168316822048 0.7978260869565474  0.01683168316822048 1.5826086956521976  L 0.023143564356360002 10.510869565217376  C 0.023143564356360002 11.29347826086962  0.6375000000000455 11.928260869565179  1.3970297029702579 12  L 15.466212871287098 12  C 16.22363861386134 11.917391304347802  16.837995049505025 11.28260869565213  16.837995049505025 10.49782608695648  L 16.831683168316886 1.5695652173913004  Z " fill-rule="nonzero" fill="rgba(255, 186, 59, 1)" stroke="none" transform="matrix(1 0 0 1 27 74 )" class="fill" />
    <path d="M 16.831683168316886 1.5695652173913004  C 16.831683168316886 0.786956521739171  16.2173267326732 0.15217391304349803  15.459900990098959 0.15217391304349803  L 9.56881188118814 0.15652173913042589  C 9.587747524752558 0.963043478260829  9.015470297029651 1.460869565217422  8.304331683168357 1.5195652173913459  C 7.511138613861476 1.5869565217391255  6.972524752475238 0.8586956521738784  6.964108910891127 0.21304347826082903  C 6.964108910891127 0.19347826086959685  6.968316831683069 0.17826086956517884  6.968316831683069 0.15869565217394666  L 1.3886138613861476 0.1630434782608745  C 0.631188118811906 0.1630434782608745  0.01683168316822048 0.7978260869565474  0.01683168316822048 1.5826086956521976  L 0.023143564356360002 10.510869565217376  C 0.023143564356360002 11.29347826086962  0.6375000000000455 11.928260869565179  1.3970297029702579 12  L 15.466212871287098 12  C 16.22363861386134 11.917391304347802  16.837995049505025 11.28260869565213  16.837995049505025 10.49782608695648  L 16.831683168316886 1.5695652173913004  Z " stroke-width="0" stroke-dasharray="0" stroke="rgba(255, 255, 255, 0)" fill="none" transform="matrix(1 0 0 1 27 74 )" class="stroke" mask="url(#Clip1386)" />
  </g>
</svg>