<?xml version="1.0" encoding="utf-8"?>
<svg version="1.1" xmlns:xlink="http://www.w3.org/1999/xlink" width="20px" height="20px" xmlns="http://www.w3.org/2000/svg">
  <defs>
    <pattern id="BGPattern" patternUnits="userSpaceOnUse" alignment="0 0" imageRepeat="None" />
    <mask fill="white" id="Clip253">
      <path d="M 20 10  C 20 15.52291666015625  15.52291666015625 20  10 20  C 4.47708333984375 20  0 15.52291666015625  0 10  C 0 4.47708333984375  4.47708333984375 0  10 0  C 15.52291666015625 0  20 4.47708333984375  20 10  Z M 1.25 10  C 1.25 14.8325  5.1675 18.75  10 18.75  C 14.8325 18.75  18.75 14.8325  18.75 10  C 18.75 5.1675  14.8325 1.25  10 1.25  C 5.1675 1.25  1.25 5.1675  1.25 10  Z " fill-rule="evenodd" />
    </mask>
  </defs>
  <g transform="matrix(1 0 0 1 -21 -226 )">
    <path d="M 20 10  C 20 15.52291666015625  15.52291666015625 20  10 20  C 4.47708333984375 20  0 15.52291666015625  0 10  C 0 4.47708333984375  4.47708333984375 0  10 0  C 15.52291666015625 0  20 4.47708333984375  20 10  Z M 1.25 10  C 1.25 14.8325  5.1675 18.75  10 18.75  C 14.8325 18.75  18.75 14.8325  18.75 10  C 18.75 5.1675  14.8325 1.25  10 1.25  C 5.1675 1.25  1.25 5.1675  1.25 10  Z " fill-rule="nonzero" fill="rgba(255, 255, 255, 1)" stroke="none" transform="matrix(1 0 0 1 21 226 )" class="fill" />
    <path d="M 20 10  C 20 15.52291666015625  15.52291666015625 20  10 20  C 4.47708333984375 20  0 15.52291666015625  0 10  C 0 4.47708333984375  4.47708333984375 0  10 0  C 15.52291666015625 0  20 4.47708333984375  20 10  Z " stroke-width="0" stroke-dasharray="0" stroke="rgba(255, 255, 255, 0)" fill="none" transform="matrix(1 0 0 1 21 226 )" class="stroke" mask="url(#Clip253)" />
    <path d="M 1.25 10  C 1.25 14.8325  5.1675 18.75  10 18.75  C 14.8325 18.75  18.75 14.8325  18.75 10  C 18.75 5.1675  14.8325 1.25  10 1.25  C 5.1675 1.25  1.25 5.1675  1.25 10  Z " stroke-width="0" stroke-dasharray="0" stroke="rgba(255, 255, 255, 0)" fill="none" transform="matrix(1 0 0 1 21 226 )" class="stroke" mask="url(#Clip253)" />
  </g>
</svg>