<?xml version="1.0" encoding="utf-8"?>
<svg version="1.1" xmlns:xlink="http://www.w3.org/1999/xlink" width="10px" height="10px" xmlns="http://www.w3.org/2000/svg">
  <defs>
    <pattern id="BGPattern" patternUnits="userSpaceOnUse" alignment="0 0" imageRepeat="None" />
    <mask fill="white" id="Clip777">
      <path d="M 7.16 2.67  L 8.43 2.67  L 8.43 1.8900000000000006  L 7.16 1.8900000000000006  L 7.16 2.67  Z M 7.16 4  L 8.43 4  L 8.43 3.200000000000001  L 7.16 3.200000000000001  L 7.16 4  Z M 6.470000000000001 3.200000000000001  L 5.18 3.200000000000001  L 5.18 4  L 6.470000000000001 4  L 6.470000000000001 3.200000000000001  Z M 6.470000000000001 1.8900000000000006  L 5.18 1.8900000000000006  L 5.18 2.67  L 6.470000000000001 2.67  L 6.470000000000001 1.8900000000000006  Z M 7.16 1.33  L 9.11 1.33  L 9.11 4.550000000000001  L 4.52 4.550000000000001  L 4.52 1.33  L 6.470000000000001 1.33  L 6.470000000000001 0.3800000000000008  L 7.16 0.3800000000000008  L 7.16 1.33  Z M 1.7700000000000005 5.5600000000000005  L 1.7700000000000005 7.15  L 3.0700000000000003 6.870000000000001  L 3.0700000000000003 5.5600000000000005  L 1.7700000000000005 5.5600000000000005  Z M 3.0700000000000003 2.870000000000001  L 3.0700000000000003 1.490000000000001  L 1.7700000000000005 1.490000000000001  L 1.7700000000000005 2.870000000000001  L 3.0700000000000003 2.870000000000001  Z M 3.0700000000000003 3.5  L 1.7700000000000005 3.5  L 1.7700000000000005 4.9300000000000015  L 3.0700000000000003 4.9300000000000015  L 3.0700000000000003 3.5  Z M 3.740000000000002 6.73  L 4.290000000000001 6.609999999999999  L 4.34 7.26  L 3.740000000000002 7.389999999999999  L 3.740000000000002 9.489999999999998  L 3.070000000000002 9.489999999999998  L 3.070000000000002 7.539999999999997  C 2.150000000000002 7.7499999999999964  1.2600000000000016 7.9499999999999975  0.5500000000000016 8.109999999999998  L 0.4100000000000019 7.419999999999998  C 0.6200000000000019 7.379999999999997  0.8600000000000021 7.329999999999998  1.110000000000002 7.279999999999998  L 1.110000000000002 1.4900000000000002  L 0.490000000000002 1.4900000000000002  L 0.490000000000002 0.8099999999999996  L 4.320000000000002 0.8099999999999996  L 4.320000000000002 1.4900000000000002  L 3.740000000000002 1.4900000000000002  L 3.740000000000002 6.73  Z M 9.569999999999999 5.220000000000002  L 9.57 5.85  L 6.120000000000001 5.85  C 6.0500000000000025 6.15  5.960000000000001 6.470000000000001  5.880000000000001 6.75  L 9.060000000000002 6.75  C 9.060000000000002 6.75  9.050000000000002 6.959999999999999  9.030000000000003 7.059999999999999  C 8.880000000000003 8.37  8.740000000000004 8.94  8.480000000000004 9.18  C 8.290000000000004 9.36  8.100000000000003 9.409999999999998  7.8000000000000025 9.429999999999998  C 7.550000000000004 9.45  7.020000000000001 9.439999999999998  6.48 9.42  C 6.460000000000001 9.2  6.380000000000001 8.93  6.250000000000002 8.739999999999998  C 6.790000000000003 8.789999999999997  7.330000000000004 8.799999999999999  7.530000000000001 8.799999999999999  C 7.710000000000001 8.799999999999999  7.82 8.79  7.9 8.71  C 8.06 8.580000000000002  8.18 8.200000000000001  8.29 7.370000000000001  L 4.93 7.370000000000001  C 5.09 6.950000000000001  5.25 6.390000000000001  5.389999999999999 5.850000000000001  L 4.059999999999999 5.850000000000001  L 4.059999999999999 5.220000000000002  L 9.569999999999999 5.220000000000002  Z " fill-rule="evenodd" />
    </mask>
  </defs>
  <g transform="matrix(1 0 0 1 -26 -231 )">
    <path d="M 7.16 2.67  L 8.43 2.67  L 8.43 1.8900000000000006  L 7.16 1.8900000000000006  L 7.16 2.67  Z M 7.16 4  L 8.43 4  L 8.43 3.200000000000001  L 7.16 3.200000000000001  L 7.16 4  Z M 6.470000000000001 3.200000000000001  L 5.18 3.200000000000001  L 5.18 4  L 6.470000000000001 4  L 6.470000000000001 3.200000000000001  Z M 6.470000000000001 1.8900000000000006  L 5.18 1.8900000000000006  L 5.18 2.67  L 6.470000000000001 2.67  L 6.470000000000001 1.8900000000000006  Z M 7.16 1.33  L 9.11 1.33  L 9.11 4.550000000000001  L 4.52 4.550000000000001  L 4.52 1.33  L 6.470000000000001 1.33  L 6.470000000000001 0.3800000000000008  L 7.16 0.3800000000000008  L 7.16 1.33  Z M 1.7700000000000005 5.5600000000000005  L 1.7700000000000005 7.15  L 3.0700000000000003 6.870000000000001  L 3.0700000000000003 5.5600000000000005  L 1.7700000000000005 5.5600000000000005  Z M 3.0700000000000003 2.870000000000001  L 3.0700000000000003 1.490000000000001  L 1.7700000000000005 1.490000000000001  L 1.7700000000000005 2.870000000000001  L 3.0700000000000003 2.870000000000001  Z M 3.0700000000000003 3.5  L 1.7700000000000005 3.5  L 1.7700000000000005 4.9300000000000015  L 3.0700000000000003 4.9300000000000015  L 3.0700000000000003 3.5  Z M 3.740000000000002 6.73  L 4.290000000000001 6.609999999999999  L 4.34 7.26  L 3.740000000000002 7.389999999999999  L 3.740000000000002 9.489999999999998  L 3.070000000000002 9.489999999999998  L 3.070000000000002 7.539999999999997  C 2.150000000000002 7.7499999999999964  1.2600000000000016 7.9499999999999975  0.5500000000000016 8.109999999999998  L 0.4100000000000019 7.419999999999998  C 0.6200000000000019 7.379999999999997  0.8600000000000021 7.329999999999998  1.110000000000002 7.279999999999998  L 1.110000000000002 1.4900000000000002  L 0.490000000000002 1.4900000000000002  L 0.490000000000002 0.8099999999999996  L 4.320000000000002 0.8099999999999996  L 4.320000000000002 1.4900000000000002  L 3.740000000000002 1.4900000000000002  L 3.740000000000002 6.73  Z M 9.569999999999999 5.220000000000002  L 9.57 5.85  L 6.120000000000001 5.85  C 6.0500000000000025 6.15  5.960000000000001 6.470000000000001  5.880000000000001 6.75  L 9.060000000000002 6.75  C 9.060000000000002 6.75  9.050000000000002 6.959999999999999  9.030000000000003 7.059999999999999  C 8.880000000000003 8.37  8.740000000000004 8.94  8.480000000000004 9.18  C 8.290000000000004 9.36  8.100000000000003 9.409999999999998  7.8000000000000025 9.429999999999998  C 7.550000000000004 9.45  7.020000000000001 9.439999999999998  6.48 9.42  C 6.460000000000001 9.2  6.380000000000001 8.93  6.250000000000002 8.739999999999998  C 6.790000000000003 8.789999999999997  7.330000000000004 8.799999999999999  7.530000000000001 8.799999999999999  C 7.710000000000001 8.799999999999999  7.82 8.79  7.9 8.71  C 8.06 8.580000000000002  8.18 8.200000000000001  8.29 7.370000000000001  L 4.93 7.370000000000001  C 5.09 6.950000000000001  5.25 6.390000000000001  5.389999999999999 5.850000000000001  L 4.059999999999999 5.850000000000001  L 4.059999999999999 5.220000000000002  L 9.569999999999999 5.220000000000002  Z " fill-rule="nonzero" fill="rgba(255, 255, 255, 1)" stroke="none" transform="matrix(1 0 0 1 26 231 )" class="fill" />
    <path d="M 7.16 2.67  L 8.43 2.67  L 8.43 1.8900000000000006  L 7.16 1.8900000000000006  L 7.16 2.67  Z " stroke-width="0" stroke-dasharray="0" stroke="rgba(255, 255, 255, 0)" fill="none" transform="matrix(1 0 0 1 26 231 )" class="stroke" mask="url(#Clip777)" />
    <path d="M 7.16 4  L 8.43 4  L 8.43 3.200000000000001  L 7.16 3.200000000000001  L 7.16 4  Z " stroke-width="0" stroke-dasharray="0" stroke="rgba(255, 255, 255, 0)" fill="none" transform="matrix(1 0 0 1 26 231 )" class="stroke" mask="url(#Clip777)" />
    <path d="M 6.470000000000001 3.200000000000001  L 5.18 3.200000000000001  L 5.18 4  L 6.470000000000001 4  L 6.470000000000001 3.200000000000001  Z " stroke-width="0" stroke-dasharray="0" stroke="rgba(255, 255, 255, 0)" fill="none" transform="matrix(1 0 0 1 26 231 )" class="stroke" mask="url(#Clip777)" />
    <path d="M 6.470000000000001 1.8900000000000006  L 5.18 1.8900000000000006  L 5.18 2.67  L 6.470000000000001 2.67  L 6.470000000000001 1.8900000000000006  Z " stroke-width="0" stroke-dasharray="0" stroke="rgba(255, 255, 255, 0)" fill="none" transform="matrix(1 0 0 1 26 231 )" class="stroke" mask="url(#Clip777)" />
    <path d="M 7.16 1.33  L 9.11 1.33  L 9.11 4.550000000000001  L 4.52 4.550000000000001  L 4.52 1.33  L 6.470000000000001 1.33  L 6.470000000000001 0.3800000000000008  L 7.16 0.3800000000000008  L 7.16 1.33  Z " stroke-width="0" stroke-dasharray="0" stroke="rgba(255, 255, 255, 0)" fill="none" transform="matrix(1 0 0 1 26 231 )" class="stroke" mask="url(#Clip777)" />
    <path d="M 1.7700000000000005 5.5600000000000005  L 1.7700000000000005 7.15  L 3.0700000000000003 6.870000000000001  L 3.0700000000000003 5.5600000000000005  L 1.7700000000000005 5.5600000000000005  Z " stroke-width="0" stroke-dasharray="0" stroke="rgba(255, 255, 255, 0)" fill="none" transform="matrix(1 0 0 1 26 231 )" class="stroke" mask="url(#Clip777)" />
    <path d="M 3.0700000000000003 2.870000000000001  L 3.0700000000000003 1.490000000000001  L 1.7700000000000005 1.490000000000001  L 1.7700000000000005 2.870000000000001  L 3.0700000000000003 2.870000000000001  Z " stroke-width="0" stroke-dasharray="0" stroke="rgba(255, 255, 255, 0)" fill="none" transform="matrix(1 0 0 1 26 231 )" class="stroke" mask="url(#Clip777)" />
    <path d="M 3.0700000000000003 3.5  L 1.7700000000000005 3.5  L 1.7700000000000005 4.9300000000000015  L 3.0700000000000003 4.9300000000000015  L 3.0700000000000003 3.5  Z " stroke-width="0" stroke-dasharray="0" stroke="rgba(255, 255, 255, 0)" fill="none" transform="matrix(1 0 0 1 26 231 )" class="stroke" mask="url(#Clip777)" />
    <path d="M 3.740000000000002 6.73  L 4.290000000000001 6.609999999999999  L 4.34 7.26  L 3.740000000000002 7.389999999999999  L 3.740000000000002 9.489999999999998  L 3.070000000000002 9.489999999999998  L 3.070000000000002 7.539999999999997  C 2.150000000000002 7.7499999999999964  1.2600000000000016 7.9499999999999975  0.5500000000000016 8.109999999999998  L 0.4100000000000019 7.419999999999998  C 0.6200000000000019 7.379999999999997  0.8600000000000021 7.329999999999998  1.110000000000002 7.279999999999998  L 1.110000000000002 1.4900000000000002  L 0.490000000000002 1.4900000000000002  L 0.490000000000002 0.8099999999999996  L 4.320000000000002 0.8099999999999996  L 4.320000000000002 1.4900000000000002  L 3.740000000000002 1.4900000000000002  L 3.740000000000002 6.73  Z " stroke-width="0" stroke-dasharray="0" stroke="rgba(255, 255, 255, 0)" fill="none" transform="matrix(1 0 0 1 26 231 )" class="stroke" mask="url(#Clip777)" />
    <path d="M 9.569999999999999 5.220000000000002  L 9.57 5.85  L 6.120000000000001 5.85  C 6.0500000000000025 6.15  5.960000000000001 6.470000000000001  5.880000000000001 6.75  L 9.060000000000002 6.75  C 9.060000000000002 6.75  9.050000000000002 6.959999999999999  9.030000000000003 7.059999999999999  C 8.880000000000003 8.37  8.740000000000004 8.94  8.480000000000004 9.18  C 8.290000000000004 9.36  8.100000000000003 9.409999999999998  7.8000000000000025 9.429999999999998  C 7.550000000000004 9.45  7.020000000000001 9.439999999999998  6.48 9.42  C 6.460000000000001 9.2  6.380000000000001 8.93  6.250000000000002 8.739999999999998  C 6.790000000000003 8.789999999999997  7.330000000000004 8.799999999999999  7.530000000000001 8.799999999999999  C 7.710000000000001 8.799999999999999  7.82 8.79  7.9 8.71  C 8.06 8.580000000000002  8.18 8.200000000000001  8.29 7.370000000000001  L 4.93 7.370000000000001  C 5.09 6.950000000000001  5.25 6.390000000000001  5.389999999999999 5.850000000000001  L 4.059999999999999 5.850000000000001  L 4.059999999999999 5.220000000000002  L 9.569999999999999 5.220000000000002  Z " stroke-width="0" stroke-dasharray="0" stroke="rgba(255, 255, 255, 0)" fill="none" transform="matrix(1 0 0 1 26 231 )" class="stroke" mask="url(#Clip777)" />
  </g>
</svg>