<?xml version="1.0" encoding="utf-8"?>
<svg version="1.1" xmlns:xlink="http://www.w3.org/1999/xlink" width="12px" height="4px" xmlns="http://www.w3.org/2000/svg">
  <g transform="matrix(1 0 0 1 -19 -23 )">
    <path d="M 3.6600986301369858 2.0666434782608576  C 3.658938154736461 1.0051017505709297  2.8455235065393936 0.14503064455192316  1.842147945205454 0.14441739130433007  C 0.8381218103874062 0.14441739130433007  0.024197564687995055 1.005525651247126  0.024197564687995055 2.0677565217391134  C 0.024197564687995055 3.129987392231044  0.8381218103874062 3.9910956521738967  1.8421482496195267 3.9910956521738967  C 2.8461746888516473 3.9910956521738967  3.6600989345510015 3.129987392231044  3.6600989345510015 2.0677565217391134  C 3.6600989345510015 2.0673855072234346  3.660098833079644 2.0670144927144065  3.6600986301369858 2.0666434782608576  Z M 2.3976328767123505 2.0666434782608576  C 2.3976328767123505 2.391214022022325  2.1489338016374973 2.654330434782594  1.842147945205454 2.654330434782594  C 1.5353620887734678 2.654330434782594  1.2866630136986146 2.391214022022325  1.2866630136986146 2.0666434782608576  C 1.2866630136986146 1.742072934499447  1.5353620887734678 1.4789565217391214  1.842147945205454 1.4789565217391214  C 2.1489338016374973 1.4789565217391214  2.3976328767123505 1.742072934499447  2.3976328767123505 2.0666434782608576  Z M 11.90820821917805 2.0666434782608576  C 11.906470892312882 1.0057895991586747  11.094034488466491 0.14625543277043107  10.091309589041089 0.14441739130433007  C 10.090959005559966 0.14441717672104915  10.090608422024388 0.14441706942938026  10.090257838484604 0.14441706942938026  C 9.086231399252483 0.14441706942938026  8.272307153553015 1.005525329372233  8.272307153553015 2.0677561998641636  C 8.272307153553015 3.129987070356094  9.086231399252483 3.991095330298947  10.090257838484604 3.991095330298947  C 11.094284277716724 3.991095330298947  11.908208523416079 3.129987070356094  11.908208523416079 2.0677561998641636  C 11.908208523416079 2.06738529263896  11.90820842200344 2.067014385423988  11.90820821917805 2.0666434782608576  Z M 10.645742465753415 2.0666434782608576  C 10.645165942784843 2.3905269624089556  10.397444389930797 2.6531064947139384  10.091309589041089 2.654330434782594  C 10.090958904502827 2.6543311374620657  10.090608219414662 2.6543314888019722  10.090257534247485 2.6543314888019722  C 9.783471677815442 2.6543314888019722  9.534772602740645 2.3912150760417035  9.534772602740645 2.066644532280236  C 9.534772602740645 1.7420739885188254  9.783471677815442 1.4789575757584998  10.090257534247485 1.4789575757584998  C 10.397043390679528 1.4789575757584998  10.645742465754324 1.7420739885188254  10.645742465754324 2.066644532280236  Z " fill-rule="nonzero" fill="#999999" stroke="none" transform="matrix(1 0 0 1 19 23 )" />
  </g>
</svg>