<?xml version="1.0" encoding="utf-8"?>
<svg version="1.1" xmlns:xlink="http://www.w3.org/1999/xlink" width="17px" height="14px" xmlns="http://www.w3.org/2000/svg">
  <g transform="matrix(1 0 0 1 -17 -16 )">
    <path d="M 16.894700990098954 8.053333333333342  C 16.89345247229369 7.2011640396068515  16.47402486005842 6.402755646235164  15.770075247524801 5.912533333333329  L 16.524134653465353 5.314133333333359  C 16.650459184037118 5.193511025618477  16.721819077551345 5.027210348884182  16.721819077551345 4.853439631502511  C 16.721819077551345 4.499977391610798  16.432444309917173 4.213439631502524  16.07548244388795 4.213439631502524  C 15.948455701654439 4.213439631502524  15.824245033344255 4.250503229897674  15.71836831683163 4.319999999999993  L 14.957845544554402 4.921600000000012  L 13.827833663366391 1.4197333333333404  C 13.570611561629448 0.6244398106193785  12.823739445929391 0.0849780905552393  11.980388118811902 0.08533333333332394  L 4.950400000000002 0.08533333333332394  C 4.1074459134486005 0.08544195256564535  3.36113267460604 0.6248145018197988  3.10403168316833 1.4197333333333404  L 1.972942574257445 4.916266666666672  L 1.218883168316836 4.314666666666653  C 1.1022651801376924 4.2171866996725385  0.9545735542709508 4.163712569879749  0.8019590206570797 4.163712569879749  C 0.4449971546277993 4.163712569879749  0.15562238699368436 4.450250329988023  0.15562238699368436 4.803712569879735  C 0.15562238699368436 5.004233743454108  0.2505340750084315 5.193163710132012  0.41203960396040884 5.314133333333359  L 1.1660990099010178 5.912533333333329  C 0.4602483958970538 6.40170423229489  0.038750005972474355 7.200230131156899  0.03608712871289299 8.053333333333342  L 0.03608712871289299 9.67786666666666  C 0.037866430336748635 11.126504244195758  1.223087646864144 12.300582718614976  2.6860673267326547 12.302933333333328  L 2.7560871287128634 12.302933333333328  L 2.7560871287128634 12.80426666666665  C 2.7560871287128634 13.393370399819503  3.238378408103074 13.870933333333312  3.83331485148517 13.870933333333312  C 4.428251294867209 13.870933333333312  4.91054257425742 13.393370399819503  4.91054257425742 12.80426666666665  L 4.91054257425742 12.302933333333328  L 12.020245544554427 12.302933333333328  L 12.020245544554427 12.80426666666665  C 12.020245544554427 13.393370399819503  12.502536823944638 13.870933333333312  13.097473267326677 13.870933333333312  C 13.69240971070883 13.870933333333312  14.17470099009904 13.393370399819503  14.17470099009904 12.80426666666665  L 14.17470099009904 12.302933333333328  L 14.244720792079193 12.302933333333328  C 15.707946299537525 12.30116903397061  16.893513908794034 11.12674742339982  16.894700990098954 9.67786666666666  L 16.894700990098954 8.053333333333342  Z M 3.188055445544535 5.361066666666659  L 4.33530297029705 1.81013333333334  C 4.420962863991463 1.5452851971323298  4.669547739047175 1.3655240422489214  4.950400000000002 1.3653333333333535  L 11.980388118811902 1.3653333333333535  C 12.26163762028807 1.3650601801542734  12.510781372310134 1.5449105058760324  12.59656237623767 1.81013333333334  L 13.74488712871289 5.361066666666659  L 3.188055445544535 5.361066666666659  Z M 15.602027722772277 8.053333333333342  L 15.602027722772277 9.681066666666652  C 15.601434726356501 10.423266798921645  14.994268734173602 11.024957336817693  14.244720792079193 11  L 2.6860673267326547 11  C 1.936765109238081 11.024371889241593  1.329944831298235 10.423023947919603  1.3287603960396268 9.681066666666652  L 1.3287603960396268 8.053333333333342  C 1.3299466658852452 7.311549726080899  1.9369393273291848 6.7105079730824855  2.6860673267326547 6.709333333333348  L 14.244720792079193 6.709333333333348  C 14.994094515818233 6.709921543616417  15.60143368862498 7.31130641080739  15.602027722772277 8.053333333333342  Z " fill-rule="nonzero" fill="#999999" stroke="none" transform="matrix(1 0 0 1 17 16 )" />
  </g>
</svg>