<?xml version="1.0" encoding="utf-8"?>
<svg version="1.1" xmlns:xlink="http://www.w3.org/1999/xlink" width="15px" height="7px" xmlns="http://www.w3.org/2000/svg">
  <defs>
    <pattern id="BGPattern" patternUnits="userSpaceOnUse" alignment="0 0" imageRepeat="None" />
    <mask fill="white" id="Clip1703">
      <path d="M 0.19435975609758316 0.577027027027043  C 0.11661585365857263 0.8844594594595492  0.2926829268292295 1.1989864864865467  0.5876524390243958 1.279391891891919  L 5.215701219512198 2.551689189189119  C 5.2614329268292295 2.5635135135134988  5.309451219512198 2.5706081081082175  5.3597560975609895 2.5706081081082175  C 5.611280487804834 2.5706081081082175  5.830792682926813 2.3956081081080356  5.8948170731707705 2.1449324324323698  C 5.972560975609781 1.8398648648649214  5.7964939024390105 1.5253378378379239  5.501524390243958 1.4449324324323243  L 0.8734756097560421 0.17263513513512407  C 0.7317073170731874 0.13243243243232428  0.5830792682926358 0.15135135135142264  0.4550304878048337 0.22702702702713395  C 0.3246951219512084 0.3027027027026179  0.23323170731703158 0.4280405405404508  0.19435975609758316 0.577027027027043  Z M 5.897103658536594 6.524662162162258  C 5.974847560975604 6.221959459459413  5.798780487804834 5.907432432432415  5.503810975609781 5.8246621621622126  L 0.875762195121979 4.552364864864785  C 0.7339939024390105 4.5121621621622126  0.5853658536585726 4.533445945945914  0.4550304878048337 4.609121621621625  C 0.3269817073170316 4.687162162162167  0.23323170731703158 4.8101351351351695  0.19664634146340632 4.959121621621534  C 0.11890243902439579 5.26418918918921  0.2949695121951663 5.578716216216208  0.589939024390219 5.65912162162158  L 5.217987804878021 6.931418918919007  C 5.263719512195166 6.94324324324316  5.311737804878021 6.950337837837878  5.362042682926813 6.950337837837878  C 5.6135670731707705 6.950337837837878  5.833079268292636 6.775337837837924  5.897103658536594 6.524662162162258  Z M 9.155487804878021 2.1449324324323698  C 9.221798780487802 2.3956081081080356  9.441310975609781 2.5706081081082175  9.692835365853625 2.5706081081082175  C 9.743140243902417 2.5706081081082175  9.791158536585385 2.5635135135134988  9.834603658536594 2.551689189189119  L 14.464939024390219 1.279391891891919  C 14.759908536585385 1.1989864864865467  14.935975609756042 0.8844594594595492  14.858231707317032 0.577027027027043  C 14.819359756097583 0.4280405405404508  14.725609756097583 0.3027027027026179  14.595274390243958 0.22466216216207613  C 14.467225609756042 0.14898648648659218  14.318597560975604 0.13006756756749382  14.179115853658573 0.17027027027029362  L 9.548780487804834 1.4425675675674938  C 9.253810975609781 1.522972972972866  9.07774390243901 1.837500000000091  9.155487804878021 2.1449324324323698  Z M 14.462652439024396 5.65912162162158  C 14.759908536585385 5.578716216216208  14.935975609756042 5.26418918918921  14.858231707317032 4.959121621621534  C 14.819359756097583 4.8101351351351695  14.727896341463406 4.684797297297337  14.597560975609781 4.609121621621625  C 14.469512195121979 4.533445945945914  14.320884146341427 4.5121621621622126  14.179115853658573 4.552364864864785  L 9.548780487804834 5.8246621621622126  C 9.253810975609781 5.905067567567585  9.07774390243901 6.219594594594582  9.155487804878021 6.524662162162258  C 9.219512195121979 6.775337837837924  9.439024390243958 6.950337837837878  9.690548780487802 6.950337837837878  C 9.740853658536594 6.950337837837878  9.788871951219562 6.94324324324316  9.83231707317077 6.931418918919007  L 14.462652439024396 5.65912162162158  Z " fill-rule="evenodd" />
    </mask>
  </defs>
  <g transform="matrix(1 0 0 1 -28 -181 )">
    <path d="M 0.19435975609758316 0.577027027027043  C 0.11661585365857263 0.8844594594595492  0.2926829268292295 1.1989864864865467  0.5876524390243958 1.279391891891919  L 5.215701219512198 2.551689189189119  C 5.2614329268292295 2.5635135135134988  5.309451219512198 2.5706081081082175  5.3597560975609895 2.5706081081082175  C 5.611280487804834 2.5706081081082175  5.830792682926813 2.3956081081080356  5.8948170731707705 2.1449324324323698  C 5.972560975609781 1.8398648648649214  5.7964939024390105 1.5253378378379239  5.501524390243958 1.4449324324323243  L 0.8734756097560421 0.17263513513512407  C 0.7317073170731874 0.13243243243232428  0.5830792682926358 0.15135135135142264  0.4550304878048337 0.22702702702713395  C 0.3246951219512084 0.3027027027026179  0.23323170731703158 0.4280405405404508  0.19435975609758316 0.577027027027043  Z M 5.897103658536594 6.524662162162258  C 5.974847560975604 6.221959459459413  5.798780487804834 5.907432432432415  5.503810975609781 5.8246621621622126  L 0.875762195121979 4.552364864864785  C 0.7339939024390105 4.5121621621622126  0.5853658536585726 4.533445945945914  0.4550304878048337 4.609121621621625  C 0.3269817073170316 4.687162162162167  0.23323170731703158 4.8101351351351695  0.19664634146340632 4.959121621621534  C 0.11890243902439579 5.26418918918921  0.2949695121951663 5.578716216216208  0.589939024390219 5.65912162162158  L 5.217987804878021 6.931418918919007  C 5.263719512195166 6.94324324324316  5.311737804878021 6.950337837837878  5.362042682926813 6.950337837837878  C 5.6135670731707705 6.950337837837878  5.833079268292636 6.775337837837924  5.897103658536594 6.524662162162258  Z M 9.155487804878021 2.1449324324323698  C 9.221798780487802 2.3956081081080356  9.441310975609781 2.5706081081082175  9.692835365853625 2.5706081081082175  C 9.743140243902417 2.5706081081082175  9.791158536585385 2.5635135135134988  9.834603658536594 2.551689189189119  L 14.464939024390219 1.279391891891919  C 14.759908536585385 1.1989864864865467  14.935975609756042 0.8844594594595492  14.858231707317032 0.577027027027043  C 14.819359756097583 0.4280405405404508  14.725609756097583 0.3027027027026179  14.595274390243958 0.22466216216207613  C 14.467225609756042 0.14898648648659218  14.318597560975604 0.13006756756749382  14.179115853658573 0.17027027027029362  L 9.548780487804834 1.4425675675674938  C 9.253810975609781 1.522972972972866  9.07774390243901 1.837500000000091  9.155487804878021 2.1449324324323698  Z M 14.462652439024396 5.65912162162158  C 14.759908536585385 5.578716216216208  14.935975609756042 5.26418918918921  14.858231707317032 4.959121621621534  C 14.819359756097583 4.8101351351351695  14.727896341463406 4.684797297297337  14.597560975609781 4.609121621621625  C 14.469512195121979 4.533445945945914  14.320884146341427 4.5121621621622126  14.179115853658573 4.552364864864785  L 9.548780487804834 5.8246621621622126  C 9.253810975609781 5.905067567567585  9.07774390243901 6.219594594594582  9.155487804878021 6.524662162162258  C 9.219512195121979 6.775337837837924  9.439024390243958 6.950337837837878  9.690548780487802 6.950337837837878  C 9.740853658536594 6.950337837837878  9.788871951219562 6.94324324324316  9.83231707317077 6.931418918919007  L 14.462652439024396 5.65912162162158  Z " fill-rule="nonzero" fill="rgba(255, 78, 125, 1)" stroke="none" transform="matrix(1 0 0 1 28 181 )" class="fill" />
    <path d="M 0.19435975609758316 0.577027027027043  C 0.11661585365857263 0.8844594594595492  0.2926829268292295 1.1989864864865467  0.5876524390243958 1.279391891891919  L 5.215701219512198 2.551689189189119  C 5.2614329268292295 2.5635135135134988  5.309451219512198 2.5706081081082175  5.3597560975609895 2.5706081081082175  C 5.611280487804834 2.5706081081082175  5.830792682926813 2.3956081081080356  5.8948170731707705 2.1449324324323698  C 5.972560975609781 1.8398648648649214  5.7964939024390105 1.5253378378379239  5.501524390243958 1.4449324324323243  L 0.8734756097560421 0.17263513513512407  C 0.7317073170731874 0.13243243243232428  0.5830792682926358 0.15135135135142264  0.4550304878048337 0.22702702702713395  C 0.3246951219512084 0.3027027027026179  0.23323170731703158 0.4280405405404508  0.19435975609758316 0.577027027027043  Z " stroke-width="0" stroke-dasharray="0" stroke="rgba(255, 255, 255, 0)" fill="none" transform="matrix(1 0 0 1 28 181 )" class="stroke" mask="url(#Clip1703)" />
    <path d="M 5.897103658536594 6.524662162162258  C 5.974847560975604 6.221959459459413  5.798780487804834 5.907432432432415  5.503810975609781 5.8246621621622126  L 0.875762195121979 4.552364864864785  C 0.7339939024390105 4.5121621621622126  0.5853658536585726 4.533445945945914  0.4550304878048337 4.609121621621625  C 0.3269817073170316 4.687162162162167  0.23323170731703158 4.8101351351351695  0.19664634146340632 4.959121621621534  C 0.11890243902439579 5.26418918918921  0.2949695121951663 5.578716216216208  0.589939024390219 5.65912162162158  L 5.217987804878021 6.931418918919007  C 5.263719512195166 6.94324324324316  5.311737804878021 6.950337837837878  5.362042682926813 6.950337837837878  C 5.6135670731707705 6.950337837837878  5.833079268292636 6.775337837837924  5.897103658536594 6.524662162162258  Z " stroke-width="0" stroke-dasharray="0" stroke="rgba(255, 255, 255, 0)" fill="none" transform="matrix(1 0 0 1 28 181 )" class="stroke" mask="url(#Clip1703)" />
    <path d="M 9.155487804878021 2.1449324324323698  C 9.221798780487802 2.3956081081080356  9.441310975609781 2.5706081081082175  9.692835365853625 2.5706081081082175  C 9.743140243902417 2.5706081081082175  9.791158536585385 2.5635135135134988  9.834603658536594 2.551689189189119  L 14.464939024390219 1.279391891891919  C 14.759908536585385 1.1989864864865467  14.935975609756042 0.8844594594595492  14.858231707317032 0.577027027027043  C 14.819359756097583 0.4280405405404508  14.725609756097583 0.3027027027026179  14.595274390243958 0.22466216216207613  C 14.467225609756042 0.14898648648659218  14.318597560975604 0.13006756756749382  14.179115853658573 0.17027027027029362  L 9.548780487804834 1.4425675675674938  C 9.253810975609781 1.522972972972866  9.07774390243901 1.837500000000091  9.155487804878021 2.1449324324323698  Z " stroke-width="0" stroke-dasharray="0" stroke="rgba(255, 255, 255, 0)" fill="none" transform="matrix(1 0 0 1 28 181 )" class="stroke" mask="url(#Clip1703)" />
    <path d="M 14.462652439024396 5.65912162162158  C 14.759908536585385 5.578716216216208  14.935975609756042 5.26418918918921  14.858231707317032 4.959121621621534  C 14.819359756097583 4.8101351351351695  14.727896341463406 4.684797297297337  14.597560975609781 4.609121621621625  C 14.469512195121979 4.533445945945914  14.320884146341427 4.5121621621622126  14.179115853658573 4.552364864864785  L 9.548780487804834 5.8246621621622126  C 9.253810975609781 5.905067567567585  9.07774390243901 6.219594594594582  9.155487804878021 6.524662162162258  C 9.219512195121979 6.775337837837924  9.439024390243958 6.950337837837878  9.690548780487802 6.950337837837878  C 9.740853658536594 6.950337837837878  9.788871951219562 6.94324324324316  9.83231707317077 6.931418918919007  L 14.462652439024396 5.65912162162158  Z " stroke-width="0" stroke-dasharray="0" stroke="rgba(255, 255, 255, 0)" fill="none" transform="matrix(1 0 0 1 28 181 )" class="stroke" mask="url(#Clip1703)" />
  </g>
</svg>