<?xml version="1.0" encoding="utf-8"?>
<svg version="1.1" xmlns:xlink="http://www.w3.org/1999/xlink" width="8px" height="17px" xmlns="http://www.w3.org/2000/svg">
  <g transform="matrix(1 0 0 1 -16 -14 )">
    <path d="M 3.666666666666657 16.35141304347826  C 3.666666666666657 16.70859720233622  3.3880882887835924 16.99815217391304  3.0444444444444514 16.99815217391304  L 0.7333333333333201 16.99815217391304  C 0.3896894889941791 16.99815217391304  0.11111111111111427 16.70859720233622  0.11111111111111427 16.35141304347826  L 0.11111111111111427 0.6483559782608666  C 0.11111111111111427 0.29117181940290493  0.3896894889941791 0.001616847826085177  0.7333333333333201 0.001616847826085177  L 3.0444444444444514 0.001616847826085177  C 3.3880882887835924 0.001616847826085177  3.666666666666657 0.29117181940290493  3.666666666666657 0.6483559782608666  L 3.666666666666657 16.35141304347826  Z M 0.8222222222222229 0.7407472826087087  L 0.8222222222222229 16.259021739130446  L 3 16.259021739130446  L 3 0.7407472826087087  L 0.8222222222222229 0.7407472826087087  Z M 8 16.35141304347826  C 7.933333333333337 16.70859720233622  7.654754955450272 16.99815217391304  7.311111111111103 16.99815217391304  L 5 16.99815217391304  C 4.656356155660831 16.99815217391304  4.377777777777766 16.70859720233622  4.377777777777766 16.35141304347826  L 4.377777777777766 0.6483559782608666  C 4.377777777777766 0.29117181940290493  4.656356155660831 0.001616847826085177  5 0.001616847826085177  L 7.311111111111103 0.001616847826085177  C 7.654754955450272 0.001616847826085177  7.933333333333337 0.29117181940290493  8 0.6483559782608666  L 8 16.35141304347826  Z M 5 0.7407472826087087  L 5 16.259021739130446  L 7.2222222222222285 16.259021739130446  L 7.2222222222222285 0.7407472826087087  L 5 0.7407472826087087  Z " fill-rule="nonzero" fill="#666666" stroke="none" transform="matrix(1 0 0 1 16 14 )" />
  </g>
</svg>