<?xml version="1.0" encoding="utf-8"?>
<svg version="1.1" xmlns:xlink="http://www.w3.org/1999/xlink" width="11px" height="16px" xmlns="http://www.w3.org/2000/svg">
  <g transform="matrix(1 0 0 1 -25 -15 )">
    <path d="M 8.581774193548398 15.91295454545454  C 8.487731313979538 15.968911922895245  8.380923052829388 15.998393016266306  8.272177419354847 15.998409090909092  C 8.217326291459244 15.99815905576284  8.162745432378557 15.990517784790086  8.109838709677433 15.975681818181812  C 7.950673780260416 15.93281672492671  7.8148919754048904 15.826409204544035  7.7328225806451485 15.68022727272728  L 0.1947177419354773 2.2990909090909213  C 0.02311589371043965 1.9948871973317068  0.12458056472544854 1.605724047274066  0.42137096774192173 1.4297727272727343  L 2.419334677419357 0.24795454545454731  C 2.5137358571188315 0.19209852288230422  2.620821455497577 0.16269262335171675  2.7298276088737055 0.16269262335171675  C 2.951691963563661 0.16269262335171675  3.1567008706933564 0.2839979707846112  3.267620967741948 0.48090909090907985  L 10.806834677419346 13.861818181818165  C 10.978362049424078 14.166140898010582  10.876689232215881 14.555340739838527  10.579737903225805 14.731136363636352  L 8.581774193548398 15.91295454545454  Z M 2.697883064516134 0.9229545454545587  L 0.8536088709677472 2.0140909090908963  L 8.303669354838718 15.237954545454556  L 10.147943548387104 14.147045454545463  L 2.697883064516134 0.9229545454545587  Z " fill-rule="nonzero" fill="#666666" stroke="none" transform="matrix(1 0 0 1 25 15 )" />
  </g>
</svg>