<?xml version="1.0" encoding="utf-8"?>
<svg version="1.1" xmlns:xlink="http://www.w3.org/1999/xlink" width="7px" height="7px" xmlns="http://www.w3.org/2000/svg">
  <g transform="matrix(1 0 0 1 -20 -17 )">
    <path d="M 1.901378464000004 2.5028836000000183  L 1.8948379680000471 2.5028836000000183  C 1.8911156268611649 2.6521535288293308  2.0073088345386623 2.7770612354322566  2.156457983999985 2.784125136000057  C 2.182962386238273 3.54629752306721  2.7599232393627062 4.175961533947884  3.51688212800002 4.268818799999963  C 4.271259530888642 4.173006380750735  4.84473996916654 3.544117203754695  4.870765775999985 2.784125136000057  C 5.019920461619222 2.780616137683751  5.139005998675316 2.6586960556547865  5.139005998675316 2.509500099572392  C 5.139005998675316 2.5072943597432413  5.138979431856683 2.5050886999125623  5.1389263040000515 2.5028836000000183  C 5.140938570350954 2.3928341505893513  5.080003694032598 2.2912760275327173  4.981954287999997 2.2412635839999666  C 5.034504777025859 2.0695982263708856  5.060962148160229 1.8910109509884023  5.060440287999995 1.7114830240000174  C 5.089859724968051 0.8323885266554498  4.402428744190502 0.09522848847018395  3.5234226400000352 0.06327684799998678  C 2.6572404613806384 0.08410848540313509  1.965910269954179 0.7922650366303969  1.965910269954179 1.6586976789487835  C 1.965910269954179 1.676296405039352  1.9662013771232978 1.6938939272191647  1.9667834719999746 1.7114830240000174  C 1.9672517598344255 1.8919731833901778  1.9982097341897997 2.0710871825114054  2.0583504799999446 2.2412635839999666  C 1.9603010739674573 2.2912760275327173  1.8993661976489875 2.3928341505893513  1.901378464000004 2.5028836000000183  Z M 0.05695726399994783 6.2505904959999725  L 0.09620027200003278 6.2505904959999725  L 0.09620027200003278 6.76729004799995  C 0.09620027200003278 6.84675887335618  0.16062247064382973 6.911181071999977  0.24009128000000146 6.911181071999977  L 6.845996976000038 6.911181071999977  C 6.925465801356154 6.911181071999977  6.989887999999951 6.84675887335618  6.989887999999951 6.767290064000008  L 6.989887999999951 6.2505904959999725  C 6.988310395134135 6.2111960066572465  6.971966141742428 6.1738377164545  6.944104496000023 6.145942495999975  C 6.313385329552261 5.532076722171155  5.529686847790799 5.098445282472085  4.674550751999959 4.890166352000051  C 4.651040324092264 4.883441711056548  4.626115675907727 4.883441711056548  4.602605248000032 4.890166352000051  L 4.5306597439999905 4.890166352000051  C 4.507030912057417 4.884347148359666  4.482343055942579 4.884347148359666  4.458714224000005 4.890166352000051  C 4.165195368170544 5.0318716845074505  3.8427920559596487 5.103516868650104  3.51688212800002 5.099462384000049  C 3.1879283487083967 5.105528301332242  2.8624397009995164 5.03145157218853  2.568509535999965 4.883625855999981  L 2.4180780159999813 4.883625855999981  C 1.5448570565033606 5.0883941491017595  0.7428461715819594 5.524416970765628  0.09620027200003278 6.145942495999975  C 0.0701656711320311 6.174491153309759  0.05611387880969687 6.211962591863653  0.05695726399994783 6.2505904959999725  Z " fill-rule="nonzero" fill="#666666" stroke="none" transform="matrix(1 0 0 1 20 17 )" />
  </g>
</svg>