<?xml version="1.0" encoding="utf-8"?>
<svg version="1.1" xmlns:xlink="http://www.w3.org/1999/xlink" width="19px" height="16px" xmlns="http://www.w3.org/2000/svg">
  <g transform="matrix(1 0 0 1 -17 -14 )">
    <path d="M 7.403875746622361 14.621594441466527  L 7.403875746622361 14.138705395701663  C 7.403875746622361 13.126736111896207  6.550523164836704 12.306372940584879  5.497859408194927 12.306372940584879  C 4.4451956515530355 12.306372940584879  3.591843069767492 13.126736111896207  3.591843069767492 14.138705368397723  L 3.591843069767492 14.621594441466527  L 1.3073758352159075 14.621594441466527  L 1.3073758352159075 1.3256082285714683  L 17.53947887929121 1.3256082285714683  L 17.53947887929121 9.329659630847004  L 18.85373563499445 9.329659630847004  L 18.85373563499445 0.7302655514538401  C 18.854194636784428 0.37746979817313786  18.566571811285144 0.08641323443009696  18.20004773421931 0  L 0.688092536877093 0  C 0.3080695222874965 0.06877370417191742  0 0.3649336920626638  0 0.7302655514538401  L 0 15.28308630493052  C 0 15.648418164321697  0.3080695222874965 15.944578152212443  0.688092536877093 15.944578152212443  L 4.245530987375446 15.944578152212443  C 4.6255540019650425 15.944578152212443  4.93362352425254 15.648418164321697  4.93362352425254 15.28308630493052  L 4.93362352425254 14.138705395701663  C 4.93362352425254 13.824519996088952  5.198563313871887 13.569822406068283  5.525383106976733 13.569822406068283  C 5.852202900081579 13.569822406068283  6.117142689701041 13.824519996088952  6.117142689701041 14.138705395701663  L 6.117142689701041 15.28308630493052  C 6.117142689701041 15.648418164321697  6.425212211988537 15.944578152212443  6.805235226578021 15.944578152212443  L 10.803052908084169 15.944578152212443  L 10.803052908084169 14.621594441466527  L 7.403875746622361 14.621594441466527  Z " fill-rule="nonzero" fill="#666666" stroke="none" transform="matrix(1 0 0 1 17 14 )" />
  </g>
</svg>