<svg t="1750158419826" class="icon" viewBox="0 0 1024 1024" version="1.1" xmlns="http://www.w3.org/2000/svg" p-id="4989" width="16" height="16"><path d="M913.066667 170.666667 110.933333 170.666667C79.644444 170.666667 56.888889 196.266667 56.888889 227.555556l0 568.888889c0 31.288889 22.755556 56.888889 54.044444 56.888889l802.133333 0c28.444444 0 54.044444-25.6 54.044444-56.888889L967.111111 227.555556C967.111111 196.266667 944.355556 170.666667 913.066667 170.666667L913.066667 170.666667zM913.066667 768l-278.755556-278.755556 278.755556-230.4L913.066667 768 913.066667 768zM494.933333 591.644444 494.933333 591.644444c5.688889 2.844444 11.377778 5.688889 17.066667 5.688889 5.688889 0 11.377778-2.844444 17.066667-5.688889l68.266667-62.577778c85.333333 102.4 213.333333 207.644444 267.377778 267.377778l-711.111111 0c68.266667-68.266667 162.133333-187.733333 253.155556-278.755556L494.933333 591.644444 494.933333 591.644444zM867.555556 227.555556 509.155556 531.911111 162.133333 227.555556 867.555556 227.555556 867.555556 227.555556zM361.244444 483.555556l-250.311111 275.911111L110.933333 256 361.244444 483.555556 361.244444 483.555556zM361.244444 483.555556" fill="#515151" p-id="4990"></path></svg>