<?xml version="1.0" encoding="utf-8"?>
<svg version="1.1" xmlns:xlink="http://www.w3.org/1999/xlink" width="14px" height="8px" xmlns="http://www.w3.org/2000/svg">
  <defs>
    <pattern id="BGPattern" patternUnits="userSpaceOnUse" alignment="0 0" imageRepeat="None" />
    <mask fill="white" id="Clip255">
      <path d="M 7.5072265625000005 1.0099609374999998  C 7.2392578125 0.7638671875000003  6.8359375 0.759765625  6.5638671875000005 0.9839843749999995  C 6.5529296875 0.9921875  6.540625 1.003124999999999  6.5296875000000005 1.0126953125  L 1.1306640625 5.94140625  C 0.8367187500000001 6.209375  0.8162109375000001 6.6646484375  1.0841796875 6.95859375  C 1.3521484375000001 7.2525390625  1.8074218749999997 7.273046875  2.1013671874999997 7.005078124999999  L 7.0205078125 2.516601562499999  L 11.925976562499999 7.009179687499998  C 12.2185546875 7.277148437499999  12.673828125 7.258007812499999  12.9431640625 6.964062499999999  C 13.211132812499999 6.671484375  13.1919921875 6.216210937499998  12.898046875 5.946875  L 7.5072265625000005 1.0099609374999998  Z " fill-rule="evenodd" />
    </mask>
  </defs>
  <g transform="matrix(1 0 0 1 -201 -20 )">
    <path d="M 7.5072265625000005 1.0099609374999998  C 7.2392578125 0.7638671875000003  6.8359375 0.759765625  6.5638671875000005 0.9839843749999995  C 6.5529296875 0.9921875  6.540625 1.003124999999999  6.5296875000000005 1.0126953125  L 1.1306640625 5.94140625  C 0.8367187500000001 6.209375  0.8162109375000001 6.6646484375  1.0841796875 6.95859375  C 1.3521484375000001 7.2525390625  1.8074218749999997 7.273046875  2.1013671874999997 7.005078124999999  L 7.0205078125 2.516601562499999  L 11.925976562499999 7.009179687499998  C 12.2185546875 7.277148437499999  12.673828125 7.258007812499999  12.9431640625 6.964062499999999  C 13.211132812499999 6.671484375  13.1919921875 6.216210937499998  12.898046875 5.946875  L 7.5072265625000005 1.0099609374999998  Z " fill-rule="nonzero" fill="rgba(153, 153, 153, 1)" stroke="none" transform="matrix(1 0 0 1 201 20 )" class="fill" />
    <path d="M 7.5072265625000005 1.0099609374999998  C 7.2392578125 0.7638671875000003  6.8359375 0.759765625  6.5638671875000005 0.9839843749999995  C 6.5529296875 0.9921875  6.540625 1.003124999999999  6.5296875000000005 1.0126953125  L 1.1306640625 5.94140625  C 0.8367187500000001 6.209375  0.8162109375000001 6.6646484375  1.0841796875 6.95859375  C 1.3521484375000001 7.2525390625  1.8074218749999997 7.273046875  2.1013671874999997 7.005078124999999  L 7.0205078125 2.516601562499999  L 11.925976562499999 7.009179687499998  C 12.2185546875 7.277148437499999  12.673828125 7.258007812499999  12.9431640625 6.964062499999999  C 13.211132812499999 6.671484375  13.1919921875 6.216210937499998  12.898046875 5.946875  L 7.5072265625000005 1.0099609374999998  Z " stroke-width="0" stroke-dasharray="0" stroke="rgba(240, 246, 255, 1)" fill="none" transform="matrix(1 0 0 1 201 20 )" class="stroke" mask="url(#Clip255)" />
  </g>
</svg>