<?xml version="1.0" encoding="utf-8"?>
<svg version="1.1" xmlns:xlink="http://www.w3.org/1999/xlink" width="5px" height="3px" xmlns="http://www.w3.org/2000/svg">
  <g transform="matrix(1 0 0 1 -27 -17 )">
    <path d="M 0.0737313976050018 2.6420767037593578  C 0.0737313976050018 2.7832354974967757  0.16138498789348432 2.9035412339806044  0.28064770656374094 2.9260721323307735  L 4.750410733590684 2.9260721323307735  C 4.86967345226094 2.9035412339806044  4.957327042549423 2.7832354974967757  4.957327042549423 2.6420767037593578  C 4.957327042549423 2.5009179100220535  4.86967345226094 2.380612173538111  4.750410733590684 2.358081275187942  L 0.28064770656374094 2.358081275187942  C 0.16138498789348432 2.380612173538111  0.0737313976050018 2.5009179100220535  0.0737313976050018 2.6420767037593578  Z M 4.750410733590684 0.15250641203010673  L 0.28064770656374094 0.15250641203010673  C 0.14815319197748522 0.15250641203010673  0.04074516602315725 0.2780042107767713  0.04074516602315725 0.43281359097738914  C 0.04074516602315725 0.5876229711781207  0.14815319197748522 0.7131207699247852  0.28064770656374094 0.7131207699247852  L 4.750410733590684 0.7131207699247852  C 4.8829052481769395 0.7131207699247852  4.9903132741312675 0.5876229711781207  4.9903132741312675 0.43281359097738914  C 4.9903132741312675 0.2780042107767713  4.8829052481769395 0.15250641203010673  4.750410733590684 0.15250641203010673  Z " fill-rule="nonzero" fill="#999999" stroke="none" transform="matrix(1 0 0 1 27 17 )" />
  </g>
</svg>