<?xml version="1.0" encoding="utf-8"?>
<svg version="1.1" xmlns:xlink="http://www.w3.org/1999/xlink" width="20px" height="16px" xmlns="http://www.w3.org/2000/svg">
  <g transform="matrix(1 0 0 1 -17 -16 )">
    <path d="M 20 0.6666666666666288  C 20 1.033333333333303  19.700000000000045 1.3333333333333712  19.33333333333337 1.3333333333333712  L 0.6666666666666288 1.3333333333333712  C 0.2999999999999545 1.3333333333333712  0 1.033333333333303  0 0.6666666666666288  C 0 0.2999999999999545  0.2999999999999545 0  0.6666666666666288 0  L 19.33333333333337 0  C 19.700000000000045 0  20 0.2999999999999545  20 0.6666666666666288  Z M 12.72291666666672 15.666666666666629  C 12.983333333333348 15.924999999999955  13.408333333333303 15.924999999999955  13.666666666666629 15.666666666666629  C 13.924999999999955 15.408333333333303  13.924999999999955 14.983333333333348  13.666666666666629 14.72291666666672  L 10.610416666666652 11.666666666666629  C 10.352083333333326 11.408333333333303  9.927083333333371 11.408333333333303  9.666666666666629 11.666666666666629  C 9.408333333333303 11.924999999999955  9.408333333333303 12.350000000000023  9.666666666666629 12.610416666666652  L 12.72291666666672 15.666666666666629  Z " fill-rule="nonzero" fill="#666666" stroke="none" transform="matrix(1 0 0 1 17 16 )" />
  </g>
</svg>