<?xml version="1.0" encoding="utf-8"?>
<svg version="1.1" xmlns:xlink="http://www.w3.org/1999/xlink" width="20px" height="20px" xmlns="http://www.w3.org/2000/svg">
  <defs>
    <pattern id="BGPattern" patternUnits="userSpaceOnUse" alignment="0 0" imageRepeat="None" />
    <mask fill="white" id="Clip1307">
      <path d="M 3.055555555555556 2.9629629557291666  L 3.0555555555555554 4.0037037109375  C 3.0555555555555554 4.259391097115979  2.848279975154175 4.4666666775173605  2.592592588975695 4.4666666775173605  C 2.3369052027972153 4.4666666775173605  2.1296296223958335 4.259391097115979  2.1296296223958335 4.0037037109375  L 2.1296296223958335 2.9629629557291666  C 2.1296296223958335 1.7333333333333334  3.1453703776041664 0.7407407335069444  4.393055555555556 1  L 16.995370377604168 1  C 18.243518511284723 0.7407407335069444  19.259259266493054 1.7333333333333334  19 2.9629629557291666  L 19 17.037037044270836  C 19.259259266493054 18.26666666666667  18.243518532986112 19.259259266493054  16.995833333333334 19  L 4.393518511284722 19  C 3.1453703776041664 19.259259266493054  2.1296296223958335 18.26666666666667  2.1296296223958335 17.037037044270836  L 2.1296296223958335 16.049074066840276  C 2.129629622395834 15.793386680661794  2.336905202797214 15.586111100260414  2.592592588975695 15.586111100260414  C 2.8482799751541754 15.586111100260414  3.0555555555555554 15.793386680661794  3.0555555555555554 16.049074066840276  L 3.055555555555556 17.037037044270836  C 3.055555555555556 17.75046297743056  3.6518518446180552 18.333333333333332  4.393055555555556 18  L 16.995370377604168 18  C 17.73611111111111 18.333333333333332  18.332870377604166 17.750462955729166  18 17.037037044270836  L 18 2.9629629557291666  C 18.333333333333332 2.2495370442708333  17.737037044270835 1.6666666666666665  16.995833333333334 2  L 4.393518511284722 2  C 3.652314822048612 1.6666666666666665  3.055555555555556 2.2495370442708333  3.055555555555556 2.9629629557291666  Z M 1.2037037109375002 6.2962962890625  L 3.9814814887152776 6.296296289062501  C 4.237168874893759 6.296296289062498  4.444444455295138 6.503571869463881  4.444444455295138 6.759259255642361  C 4.444444455295138 7.01494664182084  4.237168874893759 7.222222222222221  3.9814814887152776 7.222222222222221  L 1.2037037109375002 7.222222222222221  C 0.9480163247590189 7.222222222222221  0.7407407443576395 7.01494664182084  0.7407407443576395 6.759259255642361  C 0.7407407443576395 6.503571869463881  0.9480163247590199 6.296296289062498  1.2037037109375002 6.296296289062498  Z M 1.2037037109375002 9.537037044270832  L 3.9814814887152776 9.53703704427083  C 4.237168868901085 9.53703704427083  4.444444444444445 9.74431261981419  4.444444444444445 9.999999999999998  C 4.444444444444445 10.255687380185805  4.237168868901085 10.462962955729164  3.9814814887152776 10.462962955729164  L 1.2037037109375002 10.462962955729164  C 0.9480163307516924 10.462962955729164  0.7407407552083332 10.255687380185805  0.7407407552083332 9.999999999999998  C 0.7407407552083332 9.74431261981419  0.9480163307516924 9.53703704427083  1.2037037109375002 9.53703704427083  Z M 1.2037037109375002 12.777777777777777  L 3.9814814887152776 12.777777777777777  C 4.237168874893757 12.777777777777777  4.444444455295137 12.985053358179158  4.444444455295137 13.240740744357637  C 4.444444455295137 13.49642813053612  4.237168874893757 13.703703710937498  3.9814814887152776 13.703703710937498  L 1.2037037109375002 13.703703710937498  C 0.9480163247590203 13.703703710937498  0.7407407443576404 13.49642813053612  0.7407407443576404 13.240740744357637  C 0.7407407443576404 12.985053358179158  0.9480163247590203 12.777777777777777  1.2037037109375002 12.777777777777777  Z M 8.106481488715277 5.726851844618055  C 7.997685199652778 5.802777777777778  7.875000000000001 5.909259244791666  7.743518511284724 6.041203710937499  C 7.57825437430572 6.207249866010037  7.4237727692873055 6.383689814871131  7.2810185112847225 6.5694444444444455  C 7.146759244791667 6.726851844618055  7.014814800347223 7.081481488715278  7.008333333333333 7.310185177951389  L 7.002314822048611 7.364351844618056  C 7.00085055050759 7.375590922478842  6.999615723272662 7.38685870381371  6.998611111111112 7.398148155381945  C 6.962962955729167 7.772222222222222  7.040277777777778 8.277777777777777  7.2444444444444445 8.858796289062502  C 7.604166666666666 9.881018511284722  8.3037037109375 10.952314800347223  9.354166666666666 12.049537044270835  C 10.432870377604168 13.176851866319446  11.51527777777778 13.90138888888889  12.571759266493057 14.237962955729166  C 12.887962977430556 14.33888888888889  13.190740755208331 14.400000000000002  13.474537044270834 14.423611111111112  C 13.690526193226908 14.433898320134295  13.860357594329535 14.61201103122336  13.860357594329535 14.828245022853391  C 13.860357594329535 15.051971488006814  13.67899145965657 15.233337622679777  13.455264994503144 15.233337622679777  C 13.439425985405363 15.233337622679777  13.423600608643527 15.232408672024656  13.407870377604167 15.230555555555556  C 13.039884849089828 15.197791720747473  12.676779341369278 15.123555439867653  12.325462955729167 15.009259266493057  C 11.136111111111111 14.63009259982639  9.940277777777776 13.833333333333337  8.768981488715278 12.609259266493059  C 7.640277777777778 11.430555555555557  6.879629644097223 10.262037044270835  6.480555555555556 9.12777777777778  C 6.237037044270833 8.435648155381946  6.1449074001736115 7.815277777777779  6.192592599826389 7.320833333333335  C 6.1949074218749995 7.295370377604168  6.197222222222222 7.271759266493056  6.200462955729166 7.25138888888889  C 6.218981467013888 6.853703710937501  6.413425911458333 6.3388888888888895  6.649537044270834 6.062500000000003  C 6.810407957519685 5.853970263362367  6.9842062784451 5.655741214514109  7.16990740017361 5.468981488715279  C 7.334722222222222 5.304166666666667  7.491666666666665 5.168518532986113  7.642129622395832 5.063425933159724  C 8.037037022569445 4.786574088541668  8.38981480034722 4.710648155381946  8.670833333333333 4.8768518446180575  C 8.907870377604166 4.985185177951391  9.125462955729166 5.333796289062502  9.596759266493056 6.2935185112847245  C 9.636111111111111 6.372685177951391  9.676388888888887 6.455555555555557  9.718055555555553 6.542129622395835  C 9.954037862935547 7.034479696205982  10.181540593728585 7.530849295925236  10.400462955729166 8.031018511284724  C 10.519444444444442 8.300000000000002  10.487037022569442 8.667129622395837  10.322685177951389 8.911111111111115  L 9.731944444444444 9.788425933159726  C 9.759722222222221 9.905092599826391  10.044444444444443 10.310648155381948  10.56018517795139 10.836111111111116  C 10.997222222222224 11.28148148871528  11.384259244791666 11.584722222222226  11.7087962890625 11.745833333333335  C 11.796759244791664 11.789351844618057  11.872685177951388 11.818981488715279  11.934259266493052 11.834722222222222  L 12.68981482204861 11.277314822048613  C 12.92962964409722 11.115277777777779  13.291666666666666 11.077314822048612  13.559259266493054 11.184722222222225  L 13.678703710937498 11.232407400173612  C 14.10227933632343 11.402821769850588  14.523164126348767 11.579849590646962  14.941203710937499 11.763425933159724  C 15.039814822048609 11.806944444444445  15.13379631076389 11.84907408854167  15.223611111111108 11.89027777777778  C 16.082870377604166 12.283333333333333  16.396296289062498 12.470370377604167  16.506018511284722 12.706944444444444  C 16.774074066840278 13.212962955729166  16.47083333333333 13.753240733506944  15.649537044270833 14.477777777777778  C 15.548972282254471 14.5664306652575  15.446478581841498 14.652871133828985  15.342129622395833 14.737037044270833  C 15.270254137572268 14.794646950009607  15.18089070032622 14.826040545868828  15.088776713560621 14.826040545868828  C 14.865050248407197 14.826040545868828  14.683684113734232 14.644674411195863  14.683684113734232 14.420947946042437  C 14.683684113734232 14.296055548231092  14.741292911484598 14.17814528386601  14.83981482204861 14.101388888888891  L 14.915277777777778 14.039814822048616  C 14.979629622395834 13.98657408854167  15.0462962890625 13.929629644097226  15.113425933159723 13.870370377604171  C 15.483796310763891 13.543981488715282  15.759722222222221 13.18425926649306  15.783796289062499 13.092592599826391  C 15.722000499444263 13.050081436098264  15.658024283951125 13.010830325627525  15.592129622395834 12.975000000000003  C 15.421759244791664 12.88009259982639  15.184722222222224 12.762962955729167  14.886574066840275 12.626851844618056  C 14.387987837867701 12.401879676879632  13.884631223243192 12.187632830707006  13.376851844618054 11.984259266493055  L 13.258796289062495 11.93703704427083  C 13.219705207508623 11.931044014298845  13.179733593479801 11.935025248763296  13.142592599826388 11.94861111111111  L 12.199537044270832 12.58472222222222  C 12.134966459653004 12.62784418394195  12.05955742965904 12.651910894842063  11.981944444444444 12.654166666666667  C 11.818055555555553 12.65740740017361  11.60092593315972 12.596759266493054  11.348148155381946 12.470833333333333  C 10.93842593315972 12.267129622395833  10.481944444444444 11.912500000000001  9.98240740017361 11.403240733506944  C 9.160185177951389 10.565740733506946  8.828703689236109 9.965277777777779  8.952777777777778 9.538425933159722  C 8.966666666666665 9.491203710937501  8.985185177951388 9.449074088541668  9.013425933159722 9.405555555555557  L 9.650925933159721 8.4587962890625  C 9.661749807061675 8.42598861182495  9.664606359071463 8.39107520085163  9.659259266493054 8.356944444444446  L 9.6037037109375 8.231944444444446  C 9.404710857451946 7.782645092230221  9.19944386525372 7.336150813080428  8.987962955729166 6.892592599826392  C 8.94896844062995 6.811708980200368  8.909616203505042 6.730998308647104  8.86990740017361 6.65046295572917  C 8.739679709892071 6.380588076606073  8.600717504364766 6.115015864010878  8.453240733506943 5.854166666666668  C 8.393055555555556 5.750462955729168  8.341666666666667 5.66898148871528  8.301851844618055 5.614351844618057  C 8.233596697577154 5.645665239187733  8.168354752626968 5.6831677386730695  8.106944444444444 5.726388888888891  Z " fill-rule="evenodd" />
    </mask>
  </defs>
  <g transform="matrix(1 0 0 1 -468 -478 )">
    <path d="M 3.055555555555556 2.9629629557291666  L 3.0555555555555554 4.0037037109375  C 3.0555555555555554 4.259391097115979  2.848279975154175 4.4666666775173605  2.592592588975695 4.4666666775173605  C 2.3369052027972153 4.4666666775173605  2.1296296223958335 4.259391097115979  2.1296296223958335 4.0037037109375  L 2.1296296223958335 2.9629629557291666  C 2.1296296223958335 1.7333333333333334  3.1453703776041664 0.7407407335069444  4.393055555555556 1  L 16.995370377604168 1  C 18.243518511284723 0.7407407335069444  19.259259266493054 1.7333333333333334  19 2.9629629557291666  L 19 17.037037044270836  C 19.259259266493054 18.26666666666667  18.243518532986112 19.259259266493054  16.995833333333334 19  L 4.393518511284722 19  C 3.1453703776041664 19.259259266493054  2.1296296223958335 18.26666666666667  2.1296296223958335 17.037037044270836  L 2.1296296223958335 16.049074066840276  C 2.129629622395834 15.793386680661794  2.336905202797214 15.586111100260414  2.592592588975695 15.586111100260414  C 2.8482799751541754 15.586111100260414  3.0555555555555554 15.793386680661794  3.0555555555555554 16.049074066840276  L 3.055555555555556 17.037037044270836  C 3.055555555555556 17.75046297743056  3.6518518446180552 18.333333333333332  4.393055555555556 18  L 16.995370377604168 18  C 17.73611111111111 18.333333333333332  18.332870377604166 17.750462955729166  18 17.037037044270836  L 18 2.9629629557291666  C 18.333333333333332 2.2495370442708333  17.737037044270835 1.6666666666666665  16.995833333333334 2  L 4.393518511284722 2  C 3.652314822048612 1.6666666666666665  3.055555555555556 2.2495370442708333  3.055555555555556 2.9629629557291666  Z M 1.2037037109375002 6.2962962890625  L 3.9814814887152776 6.296296289062501  C 4.237168874893759 6.296296289062498  4.444444455295138 6.503571869463881  4.444444455295138 6.759259255642361  C 4.444444455295138 7.01494664182084  4.237168874893759 7.222222222222221  3.9814814887152776 7.222222222222221  L 1.2037037109375002 7.222222222222221  C 0.9480163247590189 7.222222222222221  0.7407407443576395 7.01494664182084  0.7407407443576395 6.759259255642361  C 0.7407407443576395 6.503571869463881  0.9480163247590199 6.296296289062498  1.2037037109375002 6.296296289062498  Z M 1.2037037109375002 9.537037044270832  L 3.9814814887152776 9.53703704427083  C 4.237168868901085 9.53703704427083  4.444444444444445 9.74431261981419  4.444444444444445 9.999999999999998  C 4.444444444444445 10.255687380185805  4.237168868901085 10.462962955729164  3.9814814887152776 10.462962955729164  L 1.2037037109375002 10.462962955729164  C 0.9480163307516924 10.462962955729164  0.7407407552083332 10.255687380185805  0.7407407552083332 9.999999999999998  C 0.7407407552083332 9.74431261981419  0.9480163307516924 9.53703704427083  1.2037037109375002 9.53703704427083  Z M 1.2037037109375002 12.777777777777777  L 3.9814814887152776 12.777777777777777  C 4.237168874893757 12.777777777777777  4.444444455295137 12.985053358179158  4.444444455295137 13.240740744357637  C 4.444444455295137 13.49642813053612  4.237168874893757 13.703703710937498  3.9814814887152776 13.703703710937498  L 1.2037037109375002 13.703703710937498  C 0.9480163247590203 13.703703710937498  0.7407407443576404 13.49642813053612  0.7407407443576404 13.240740744357637  C 0.7407407443576404 12.985053358179158  0.9480163247590203 12.777777777777777  1.2037037109375002 12.777777777777777  Z M 8.106481488715277 5.726851844618055  C 7.997685199652778 5.802777777777778  7.875000000000001 5.909259244791666  7.743518511284724 6.041203710937499  C 7.57825437430572 6.207249866010037  7.4237727692873055 6.383689814871131  7.2810185112847225 6.5694444444444455  C 7.146759244791667 6.726851844618055  7.014814800347223 7.081481488715278  7.008333333333333 7.310185177951389  L 7.002314822048611 7.364351844618056  C 7.00085055050759 7.375590922478842  6.999615723272662 7.38685870381371  6.998611111111112 7.398148155381945  C 6.962962955729167 7.772222222222222  7.040277777777778 8.277777777777777  7.2444444444444445 8.858796289062502  C 7.604166666666666 9.881018511284722  8.3037037109375 10.952314800347223  9.354166666666666 12.049537044270835  C 10.432870377604168 13.176851866319446  11.51527777777778 13.90138888888889  12.571759266493057 14.237962955729166  C 12.887962977430556 14.33888888888889  13.190740755208331 14.400000000000002  13.474537044270834 14.423611111111112  C 13.690526193226908 14.433898320134295  13.860357594329535 14.61201103122336  13.860357594329535 14.828245022853391  C 13.860357594329535 15.051971488006814  13.67899145965657 15.233337622679777  13.455264994503144 15.233337622679777  C 13.439425985405363 15.233337622679777  13.423600608643527 15.232408672024656  13.407870377604167 15.230555555555556  C 13.039884849089828 15.197791720747473  12.676779341369278 15.123555439867653  12.325462955729167 15.009259266493057  C 11.136111111111111 14.63009259982639  9.940277777777776 13.833333333333337  8.768981488715278 12.609259266493059  C 7.640277777777778 11.430555555555557  6.879629644097223 10.262037044270835  6.480555555555556 9.12777777777778  C 6.237037044270833 8.435648155381946  6.1449074001736115 7.815277777777779  6.192592599826389 7.320833333333335  C 6.1949074218749995 7.295370377604168  6.197222222222222 7.271759266493056  6.200462955729166 7.25138888888889  C 6.218981467013888 6.853703710937501  6.413425911458333 6.3388888888888895  6.649537044270834 6.062500000000003  C 6.810407957519685 5.853970263362367  6.9842062784451 5.655741214514109  7.16990740017361 5.468981488715279  C 7.334722222222222 5.304166666666667  7.491666666666665 5.168518532986113  7.642129622395832 5.063425933159724  C 8.037037022569445 4.786574088541668  8.38981480034722 4.710648155381946  8.670833333333333 4.8768518446180575  C 8.907870377604166 4.985185177951391  9.125462955729166 5.333796289062502  9.596759266493056 6.2935185112847245  C 9.636111111111111 6.372685177951391  9.676388888888887 6.455555555555557  9.718055555555553 6.542129622395835  C 9.954037862935547 7.034479696205982  10.181540593728585 7.530849295925236  10.400462955729166 8.031018511284724  C 10.519444444444442 8.300000000000002  10.487037022569442 8.667129622395837  10.322685177951389 8.911111111111115  L 9.731944444444444 9.788425933159726  C 9.759722222222221 9.905092599826391  10.044444444444443 10.310648155381948  10.56018517795139 10.836111111111116  C 10.997222222222224 11.28148148871528  11.384259244791666 11.584722222222226  11.7087962890625 11.745833333333335  C 11.796759244791664 11.789351844618057  11.872685177951388 11.818981488715279  11.934259266493052 11.834722222222222  L 12.68981482204861 11.277314822048613  C 12.92962964409722 11.115277777777779  13.291666666666666 11.077314822048612  13.559259266493054 11.184722222222225  L 13.678703710937498 11.232407400173612  C 14.10227933632343 11.402821769850588  14.523164126348767 11.579849590646962  14.941203710937499 11.763425933159724  C 15.039814822048609 11.806944444444445  15.13379631076389 11.84907408854167  15.223611111111108 11.89027777777778  C 16.082870377604166 12.283333333333333  16.396296289062498 12.470370377604167  16.506018511284722 12.706944444444444  C 16.774074066840278 13.212962955729166  16.47083333333333 13.753240733506944  15.649537044270833 14.477777777777778  C 15.548972282254471 14.5664306652575  15.446478581841498 14.652871133828985  15.342129622395833 14.737037044270833  C 15.270254137572268 14.794646950009607  15.18089070032622 14.826040545868828  15.088776713560621 14.826040545868828  C 14.865050248407197 14.826040545868828  14.683684113734232 14.644674411195863  14.683684113734232 14.420947946042437  C 14.683684113734232 14.296055548231092  14.741292911484598 14.17814528386601  14.83981482204861 14.101388888888891  L 14.915277777777778 14.039814822048616  C 14.979629622395834 13.98657408854167  15.0462962890625 13.929629644097226  15.113425933159723 13.870370377604171  C 15.483796310763891 13.543981488715282  15.759722222222221 13.18425926649306  15.783796289062499 13.092592599826391  C 15.722000499444263 13.050081436098264  15.658024283951125 13.010830325627525  15.592129622395834 12.975000000000003  C 15.421759244791664 12.88009259982639  15.184722222222224 12.762962955729167  14.886574066840275 12.626851844618056  C 14.387987837867701 12.401879676879632  13.884631223243192 12.187632830707006  13.376851844618054 11.984259266493055  L 13.258796289062495 11.93703704427083  C 13.219705207508623 11.931044014298845  13.179733593479801 11.935025248763296  13.142592599826388 11.94861111111111  L 12.199537044270832 12.58472222222222  C 12.134966459653004 12.62784418394195  12.05955742965904 12.651910894842063  11.981944444444444 12.654166666666667  C 11.818055555555553 12.65740740017361  11.60092593315972 12.596759266493054  11.348148155381946 12.470833333333333  C 10.93842593315972 12.267129622395833  10.481944444444444 11.912500000000001  9.98240740017361 11.403240733506944  C 9.160185177951389 10.565740733506946  8.828703689236109 9.965277777777779  8.952777777777778 9.538425933159722  C 8.966666666666665 9.491203710937501  8.985185177951388 9.449074088541668  9.013425933159722 9.405555555555557  L 9.650925933159721 8.4587962890625  C 9.661749807061675 8.42598861182495  9.664606359071463 8.39107520085163  9.659259266493054 8.356944444444446  L 9.6037037109375 8.231944444444446  C 9.404710857451946 7.782645092230221  9.19944386525372 7.336150813080428  8.987962955729166 6.892592599826392  C 8.94896844062995 6.811708980200368  8.909616203505042 6.730998308647104  8.86990740017361 6.65046295572917  C 8.739679709892071 6.380588076606073  8.600717504364766 6.115015864010878  8.453240733506943 5.854166666666668  C 8.393055555555556 5.750462955729168  8.341666666666667 5.66898148871528  8.301851844618055 5.614351844618057  C 8.233596697577154 5.645665239187733  8.168354752626968 5.6831677386730695  8.106944444444444 5.726388888888891  Z " fill-rule="nonzero" fill="rgba(255, 255, 255, 1)" stroke="none" transform="matrix(1 0 0 1 468 478 )" class="fill" />
    <path d="M 3.055555555555556 2.9629629557291666  L 3.0555555555555554 4.0037037109375  C 3.0555555555555554 4.259391097115979  2.848279975154175 4.4666666775173605  2.592592588975695 4.4666666775173605  C 2.3369052027972153 4.4666666775173605  2.1296296223958335 4.259391097115979  2.1296296223958335 4.0037037109375  L 2.1296296223958335 2.9629629557291666  C 2.1296296223958335 1.7333333333333334  3.1453703776041664 0.7407407335069444  4.393055555555556 1  L 16.995370377604168 1  C 18.243518511284723 0.7407407335069444  19.259259266493054 1.7333333333333334  19 2.9629629557291666  L 19 17.037037044270836  C 19.259259266493054 18.26666666666667  18.243518532986112 19.259259266493054  16.995833333333334 19  L 4.393518511284722 19  C 3.1453703776041664 19.259259266493054  2.1296296223958335 18.26666666666667  2.1296296223958335 17.037037044270836  L 2.1296296223958335 16.049074066840276  C 2.129629622395834 15.793386680661794  2.336905202797214 15.586111100260414  2.592592588975695 15.586111100260414  C 2.8482799751541754 15.586111100260414  3.0555555555555554 15.793386680661794  3.0555555555555554 16.049074066840276  L 3.055555555555556 17.037037044270836  C 3.055555555555556 17.75046297743056  3.6518518446180552 18.333333333333332  4.393055555555556 18  L 16.995370377604168 18  C 17.73611111111111 18.333333333333332  18.332870377604166 17.750462955729166  18 17.037037044270836  L 18 2.9629629557291666  C 18.333333333333332 2.2495370442708333  17.737037044270835 1.6666666666666665  16.995833333333334 2  L 4.393518511284722 2  C 3.652314822048612 1.6666666666666665  3.055555555555556 2.2495370442708333  3.055555555555556 2.9629629557291666  Z " stroke-width="0" stroke-dasharray="0" stroke="rgba(255, 255, 255, 0)" fill="none" transform="matrix(1 0 0 1 468 478 )" class="stroke" mask="url(#Clip1307)" />
    <path d="M 1.2037037109375002 6.2962962890625  L 3.9814814887152776 6.296296289062501  C 4.237168874893759 6.296296289062498  4.444444455295138 6.503571869463881  4.444444455295138 6.759259255642361  C 4.444444455295138 7.01494664182084  4.237168874893759 7.222222222222221  3.9814814887152776 7.222222222222221  L 1.2037037109375002 7.222222222222221  C 0.9480163247590189 7.222222222222221  0.7407407443576395 7.01494664182084  0.7407407443576395 6.759259255642361  C 0.7407407443576395 6.503571869463881  0.9480163247590199 6.296296289062498  1.2037037109375002 6.296296289062498  Z " stroke-width="0" stroke-dasharray="0" stroke="rgba(255, 255, 255, 0)" fill="none" transform="matrix(1 0 0 1 468 478 )" class="stroke" mask="url(#Clip1307)" />
    <path d="M 1.2037037109375002 9.537037044270832  L 3.9814814887152776 9.53703704427083  C 4.237168868901085 9.53703704427083  4.444444444444445 9.74431261981419  4.444444444444445 9.999999999999998  C 4.444444444444445 10.255687380185805  4.237168868901085 10.462962955729164  3.9814814887152776 10.462962955729164  L 1.2037037109375002 10.462962955729164  C 0.9480163307516924 10.462962955729164  0.7407407552083332 10.255687380185805  0.7407407552083332 9.999999999999998  C 0.7407407552083332 9.74431261981419  0.9480163307516924 9.53703704427083  1.2037037109375002 9.53703704427083  Z " stroke-width="0" stroke-dasharray="0" stroke="rgba(255, 255, 255, 0)" fill="none" transform="matrix(1 0 0 1 468 478 )" class="stroke" mask="url(#Clip1307)" />
    <path d="M 1.2037037109375002 12.777777777777777  L 3.9814814887152776 12.777777777777777  C 4.237168874893757 12.777777777777777  4.444444455295137 12.985053358179158  4.444444455295137 13.240740744357637  C 4.444444455295137 13.49642813053612  4.237168874893757 13.703703710937498  3.9814814887152776 13.703703710937498  L 1.2037037109375002 13.703703710937498  C 0.9480163247590203 13.703703710937498  0.7407407443576404 13.49642813053612  0.7407407443576404 13.240740744357637  C 0.7407407443576404 12.985053358179158  0.9480163247590203 12.777777777777777  1.2037037109375002 12.777777777777777  Z " stroke-width="0" stroke-dasharray="0" stroke="rgba(255, 255, 255, 0)" fill="none" transform="matrix(1 0 0 1 468 478 )" class="stroke" mask="url(#Clip1307)" />
    <path d="M 8.106481488715277 5.726851844618055  C 7.997685199652778 5.802777777777778  7.875000000000001 5.909259244791666  7.743518511284724 6.041203710937499  C 7.57825437430572 6.207249866010037  7.4237727692873055 6.383689814871131  7.2810185112847225 6.5694444444444455  C 7.146759244791667 6.726851844618055  7.014814800347223 7.081481488715278  7.008333333333333 7.310185177951389  L 7.002314822048611 7.364351844618056  C 7.00085055050759 7.375590922478842  6.999615723272662 7.38685870381371  6.998611111111112 7.398148155381945  C 6.962962955729167 7.772222222222222  7.040277777777778 8.277777777777777  7.2444444444444445 8.858796289062502  C 7.604166666666666 9.881018511284722  8.3037037109375 10.952314800347223  9.354166666666666 12.049537044270835  C 10.432870377604168 13.176851866319446  11.51527777777778 13.90138888888889  12.571759266493057 14.237962955729166  C 12.887962977430556 14.33888888888889  13.190740755208331 14.400000000000002  13.474537044270834 14.423611111111112  C 13.690526193226908 14.433898320134295  13.860357594329535 14.61201103122336  13.860357594329535 14.828245022853391  C 13.860357594329535 15.051971488006814  13.67899145965657 15.233337622679777  13.455264994503144 15.233337622679777  C 13.439425985405363 15.233337622679777  13.423600608643527 15.232408672024656  13.407870377604167 15.230555555555556  C 13.039884849089828 15.197791720747473  12.676779341369278 15.123555439867653  12.325462955729167 15.009259266493057  C 11.136111111111111 14.63009259982639  9.940277777777776 13.833333333333337  8.768981488715278 12.609259266493059  C 7.640277777777778 11.430555555555557  6.879629644097223 10.262037044270835  6.480555555555556 9.12777777777778  C 6.237037044270833 8.435648155381946  6.1449074001736115 7.815277777777779  6.192592599826389 7.320833333333335  C 6.1949074218749995 7.295370377604168  6.197222222222222 7.271759266493056  6.200462955729166 7.25138888888889  C 6.218981467013888 6.853703710937501  6.413425911458333 6.3388888888888895  6.649537044270834 6.062500000000003  C 6.810407957519685 5.853970263362367  6.9842062784451 5.655741214514109  7.16990740017361 5.468981488715279  C 7.334722222222222 5.304166666666667  7.491666666666665 5.168518532986113  7.642129622395832 5.063425933159724  C 8.037037022569445 4.786574088541668  8.38981480034722 4.710648155381946  8.670833333333333 4.8768518446180575  C 8.907870377604166 4.985185177951391  9.125462955729166 5.333796289062502  9.596759266493056 6.2935185112847245  C 9.636111111111111 6.372685177951391  9.676388888888887 6.455555555555557  9.718055555555553 6.542129622395835  C 9.954037862935547 7.034479696205982  10.181540593728585 7.530849295925236  10.400462955729166 8.031018511284724  C 10.519444444444442 8.300000000000002  10.487037022569442 8.667129622395837  10.322685177951389 8.911111111111115  L 9.731944444444444 9.788425933159726  C 9.759722222222221 9.905092599826391  10.044444444444443 10.310648155381948  10.56018517795139 10.836111111111116  C 10.997222222222224 11.28148148871528  11.384259244791666 11.584722222222226  11.7087962890625 11.745833333333335  C 11.796759244791664 11.789351844618057  11.872685177951388 11.818981488715279  11.934259266493052 11.834722222222222  L 12.68981482204861 11.277314822048613  C 12.92962964409722 11.115277777777779  13.291666666666666 11.077314822048612  13.559259266493054 11.184722222222225  L 13.678703710937498 11.232407400173612  C 14.10227933632343 11.402821769850588  14.523164126348767 11.579849590646962  14.941203710937499 11.763425933159724  C 15.039814822048609 11.806944444444445  15.13379631076389 11.84907408854167  15.223611111111108 11.89027777777778  C 16.082870377604166 12.283333333333333  16.396296289062498 12.470370377604167  16.506018511284722 12.706944444444444  C 16.774074066840278 13.212962955729166  16.47083333333333 13.753240733506944  15.649537044270833 14.477777777777778  C 15.548972282254471 14.5664306652575  15.446478581841498 14.652871133828985  15.342129622395833 14.737037044270833  C 15.270254137572268 14.794646950009607  15.18089070032622 14.826040545868828  15.088776713560621 14.826040545868828  C 14.865050248407197 14.826040545868828  14.683684113734232 14.644674411195863  14.683684113734232 14.420947946042437  C 14.683684113734232 14.296055548231092  14.741292911484598 14.17814528386601  14.83981482204861 14.101388888888891  L 14.915277777777778 14.039814822048616  C 14.979629622395834 13.98657408854167  15.0462962890625 13.929629644097226  15.113425933159723 13.870370377604171  C 15.483796310763891 13.543981488715282  15.759722222222221 13.18425926649306  15.783796289062499 13.092592599826391  C 15.722000499444263 13.050081436098264  15.658024283951125 13.010830325627525  15.592129622395834 12.975000000000003  C 15.421759244791664 12.88009259982639  15.184722222222224 12.762962955729167  14.886574066840275 12.626851844618056  C 14.387987837867701 12.401879676879632  13.884631223243192 12.187632830707006  13.376851844618054 11.984259266493055  L 13.258796289062495 11.93703704427083  C 13.219705207508623 11.931044014298845  13.179733593479801 11.935025248763296  13.142592599826388 11.94861111111111  L 12.199537044270832 12.58472222222222  C 12.134966459653004 12.62784418394195  12.05955742965904 12.651910894842063  11.981944444444444 12.654166666666667  C 11.818055555555553 12.65740740017361  11.60092593315972 12.596759266493054  11.348148155381946 12.470833333333333  C 10.93842593315972 12.267129622395833  10.481944444444444 11.912500000000001  9.98240740017361 11.403240733506944  C 9.160185177951389 10.565740733506946  8.828703689236109 9.965277777777779  8.952777777777778 9.538425933159722  C 8.966666666666665 9.491203710937501  8.985185177951388 9.449074088541668  9.013425933159722 9.405555555555557  L 9.650925933159721 8.4587962890625  C 9.661749807061675 8.42598861182495  9.664606359071463 8.39107520085163  9.659259266493054 8.356944444444446  L 9.6037037109375 8.231944444444446  C 9.404710857451946 7.782645092230221  9.19944386525372 7.336150813080428  8.987962955729166 6.892592599826392  C 8.94896844062995 6.811708980200368  8.909616203505042 6.730998308647104  8.86990740017361 6.65046295572917  C 8.739679709892071 6.380588076606073  8.600717504364766 6.115015864010878  8.453240733506943 5.854166666666668  C 8.393055555555556 5.750462955729168  8.341666666666667 5.66898148871528  8.301851844618055 5.614351844618057  C 8.233596697577154 5.645665239187733  8.168354752626968 5.6831677386730695  8.106944444444444 5.726388888888891  Z " stroke-width="0" stroke-dasharray="0" stroke="rgba(255, 255, 255, 0)" fill="none" transform="matrix(1 0 0 1 468 478 )" class="stroke" mask="url(#Clip1307)" />
  </g>
</svg>