<?xml version="1.0" encoding="utf-8"?>
<svg version="1.1" xmlns:xlink="http://www.w3.org/1999/xlink" width="2px" height="2px" xmlns="http://www.w3.org/2000/svg">
  <defs>
    <pattern id="BGPattern" patternUnits="userSpaceOnUse" alignment="0 0" imageRepeat="None" />
    <mask fill="white" id="Clip258">
      <path d="M 0.21874999999999822 0.7812499999999997  C 0.21874999999999822 1.2127224608053067  0.5685275391946902 1.5624999999999993  0.9999999999999982 1.5624999999999993  C 1.4314724608053062 1.5624999999999993  1.7812499999999982 1.2127224608053067  1.7812499999999982 0.7812499999999997  C 1.7812499999999982 0.34977753919469273  1.4314724608053062 0  0.9999999999999982 0  C 0.5685275391946902 0  0.21874999999999822 0.34977753919469273  0.21874999999999822 0.7812499999999997  Z " fill-rule="evenodd" />
    </mask>
  </defs>
  <g transform="matrix(1 0 0 1 -23 -19 )">
    <path d="M 0.21874999999999822 0.7812499999999997  C 0.21874999999999822 1.2127224608053067  0.5685275391946902 1.5624999999999993  0.9999999999999982 1.5624999999999993  C 1.4314724608053062 1.5624999999999993  1.7812499999999982 1.2127224608053067  1.7812499999999982 0.7812499999999997  C 1.7812499999999982 0.34977753919469273  1.4314724608053062 0  0.9999999999999982 0  C 0.5685275391946902 0  0.21874999999999822 0.34977753919469273  0.21874999999999822 0.7812499999999997  Z " fill-rule="nonzero" fill="rgba(85, 85, 85, 1)" stroke="none" transform="matrix(1 0 0 1 23 19 )" class="fill" />
    <path d="M 0.21874999999999822 0.7812499999999997  C 0.21874999999999822 1.2127224608053067  0.5685275391946902 1.5624999999999993  0.9999999999999982 1.5624999999999993  C 1.4314724608053062 1.5624999999999993  1.7812499999999982 1.2127224608053067  1.7812499999999982 0.7812499999999997  C 1.7812499999999982 0.34977753919469273  1.4314724608053062 0  0.9999999999999982 0  C 0.5685275391946902 0  0.21874999999999822 0.34977753919469273  0.21874999999999822 0.7812499999999997  Z " stroke-width="0" stroke-dasharray="0" stroke="rgba(255, 255, 255, 0)" fill="none" transform="matrix(1 0 0 1 23 19 )" class="stroke" mask="url(#Clip258)" />
  </g>
</svg>