<?xml version="1.0" encoding="utf-8"?>
<svg version="1.1" xmlns:xlink="http://www.w3.org/1999/xlink" width="9px" height="17px" xmlns="http://www.w3.org/2000/svg">
  <g transform="matrix(1 0 0 1 -22 -15 )">
    <path d="M 1.2314732142857565 16.673076923076906  C 0.9803571428570876 16.926442307692355  0.570535714285711 16.926442307692355  0.3214285714285552 16.673076923076906  C 0.07232142857139934 16.41971153846157  0.07232142857139934 16.002884615384573  0.3214285714285552 15.747475961538498  L 3.2685267857142435 12.75  C 3.5176339285713993 12.496634615384664  3.9274553571428896 12.496634615384664  4.178571428571445 12.75  C 4.427678571428601 13.003365384615336  4.427678571428601 13.420192307692332  4.178571428571445 13.675600961538407  L 1.2314732142857565 16.673076923076906  Z M 5.14285714285711 1.971754807692264  C 5.14285714285711 2.3252403846154266  4.857589285714312 2.6153846153846416  4.51004464285711 2.6153846153846416  C 4.162500000000023 2.6153846153846416  3.8772321428571104 2.3252403846154266  3.8772321428571104 1.971754807692264  L 3.8772321428571104 0.643629807692264  C 3.8772321428571104 0.29014423076921503  4.162500000000023 0  4.51004464285711 0  C 4.857589285714312 0  5.14285714285711 0.29014423076921503  5.14285714285711 0.643629807692264  L 5.14285714285711 1.971754807692264  Z M 3.8571428571428896 9.153846153846189  C 3.8571428571428896 9.51346153846157  3.5678571428571786 9.807692307692264  3.2142857142856656 9.807692307692264  C 2.8607142857142662 9.807692307692264  2.571428571428555 9.51346153846157  2.571428571428555 9.153846153846189  L 2.571428571428555 5.230769230769283  C 2.571428571428555 4.871153846153902  2.8607142857142662 4.576923076923094  3.2142857142856656 4.576923076923094  C 3.5678571428571786 4.576923076923094  3.8571428571428896 4.871153846153902  3.8571428571428896 5.230769230769283  L 3.8571428571428896 9.153846153846189  Z M 1.2857142857143344 9.153846153846189  C 1.2857142857143344 9.51346153846157  0.9964285714286234 9.807692307692264  0.6428571428571104 9.807692307692264  C 0.28928571428571104 9.807692307692264  0 9.51346153846157  0 9.153846153846189  L 0 7.846153846153811  C 0 7.48653846153843  0.28928571428571104 7.192307692307736  0.6428571428571104 7.192307692307736  C 0.9964285714286234 7.192307692307736  1.2857142857143344 7.48653846153843  1.2857142857143344 7.846153846153811  L 1.2857142857143344 9.153846153846189  Z M 6.428571428571445 9.153846153846189  C 6.428571428571445 9.51346153846157  6.139285714285734 9.807692307692264  5.785714285714334 9.807692307692264  C 5.432142857142821 9.807692307692264  5.14285714285711 9.51346153846157  5.14285714285711 9.153846153846189  L 5.14285714285711 6.538461538461547  C 5.14285714285711 6.178846153846166  5.432142857142821 5.884615384615358  5.785714285714334 5.884615384615358  C 6.139285714285734 5.884615384615358  6.428571428571445 6.178846153846166  6.428571428571445 6.538461538461547  L 6.428571428571445 9.153846153846189  Z M 9 9.153846153846189  C 9 9.51346153846157  8.710714285714289 9.807692307692264  8.35714285714289 9.807692307692264  C 8.003571428571377 9.807692307692264  7.714285714285666 9.51346153846157  7.714285714285666 9.153846153846189  L 7.714285714285666 5.884615384615358  C 7.714285714285666 5.524999999999977  8.003571428571377 5.230769230769283  8.35714285714289 5.230769230769283  C 8.710714285714289 5.230769230769283  9 5.524999999999977  9 5.884615384615358  L 9 9.153846153846189  Z " fill-rule="nonzero" fill="#999999" stroke="none" transform="matrix(1 0 0 1 22 15 )" />
  </g>
</svg>