<?xml version="1.0" encoding="utf-8"?>
<svg version="1.1" xmlns:xlink="http://www.w3.org/1999/xlink" width="13px" height="3px" xmlns="http://www.w3.org/2000/svg">
  <g transform="matrix(1 0 0 1 -20 -20 )">
    <path d="M 0.8384057971014371 1.6958333333333293  C 0.8384057971014371 1.8916666666666693  0.6594202898550847 2.0500000000000007  0.43804347826086243 2.0500000000000007  C 0.216666666666665 2.0500000000000007  0.03768115942028771 1.8916666666666693  0.03768115942028771 1.6958333333333293  L 0.03768115942028771 0.5062499999999979  C 0.03768115942028771 0.31041666666666856  0.216666666666665 0.15208333333333712  0.43804347826086243 0.15208333333333712  C 0.6594202898550847 0.15208333333333712  0.8384057971014371 0.31041666666666856  0.8384057971014371 0.5062499999999979  L 0.8384057971014371 1.6958333333333293  Z M 2.7931159420289937 2.112499999999997  C 2.7931159420289937 2.308333333333337  2.614130434782613 2.4666666666666686  2.392753623188419 2.4666666666666686  C 2.1713768115941967 2.4666666666666686  1.992391304347816 2.308333333333337  1.992391304347816 2.112499999999997  L 1.992391304347816 0.9229166666666657  C 1.992391304347816 0.7270833333333364  2.1713768115941967 0.5687499999999943  2.392753623188419 0.5687499999999943  C 2.614130434782613 0.5687499999999943  2.7931159420289937 0.7270833333333364  2.7931159420289937 0.9229166666666657  L 2.7931159420289937 2.112499999999997  Z M 5.1481884057971 2.3625000000000043  C 5.1481884057971 2.5583333333333336  4.969202898550719 2.716666666666665  4.747826086956522 2.716666666666665  C 4.526449275362324 2.716666666666665  4.347463768115947 2.5583333333333336  4.347463768115947 2.3625000000000043  L 4.347463768115947 1.1729166666666622  C 4.347463768115947 0.9770833333333329  4.526449275362324 0.8187500000000014  4.747826086956522 0.8187500000000014  C 4.969202898550719 0.8187500000000014  5.1481884057971 0.9770833333333329  5.1481884057971 1.1729166666666622  L 5.1481884057971 2.3625000000000043  Z M 7.291304347826091 2.570833333333333  C 7.291304347826091 2.766666666666662  7.112318840579712 2.9250000000000043  6.8909420289855134 2.9250000000000043  C 6.669565217391295 2.9250000000000043  6.490579710144942 2.766666666666662  6.490579710144942 2.570833333333333  L 6.490579710144942 1.3812500000000014  C 6.490579710144942 1.1854166666666615  6.669565217391295 1.02708333333333  6.8909420289855134 1.02708333333333  C 7.112318840579712 1.02708333333333  7.291304347826091 1.1854166666666615  7.291304347826091 1.3812500000000014  L 7.291304347826091 2.570833333333333  Z M 12.943478260869568 1.7374999999999972  C 12.943478260869568 1.9333333333333371  12.764492753623188 2.0916666666666686  12.54311594202899 2.0916666666666686  C 12.321739130434771 2.0916666666666686  12.142753623188419 1.9333333333333371  12.142753623188419 1.7374999999999972  L 12.142753623188419 0.5479166666666657  C 12.142753623188419 0.3520833333333364  12.321739130434771 0.19374999999999432  12.54311594202899 0.19374999999999432  C 12.764492753623188 0.19374999999999432  12.943478260869568 0.3520833333333364  12.943478260869568 0.5479166666666657  L 12.943478260869568 1.7374999999999972  Z " fill-rule="nonzero" fill="#666666" stroke="none" transform="matrix(1 0 0 1 20 20 )" />
  </g>
</svg>