<?xml version="1.0" encoding="utf-8"?>
<svg version="1.1" xmlns:xlink="http://www.w3.org/1999/xlink" width="17px" height="3px" xmlns="http://www.w3.org/2000/svg">
  <g transform="matrix(1 0 0 1 -17 -20 )">
    <path d="M 14.22826086956523 2.25  C 12.692255434782616 2.6541666666666686  10.657336956521743 2.8749999999999964  8.5 2.8749999999999964  C 6.342663043478257 2.8749999999999964  4.307744565217384 2.6541666666666686  2.7717391304347956 2.25  C 1.064809782608691 1.8020833333333286  0.1616847826086918 1.1749999999999972  0.1616847826086918 0.43749999999999645  C 0.1616847826086918 0.24166666666666714  0.3372282608695656 0.0833333333333357  0.5543478260869499 0.0833333333333357  C 0.771467391304359 0.0833333333333357  0.9470108695652044 0.24166666666666714  0.9470108695652044 0.43749999999999645  C 0.9470108695652044 0.7125000000000021  1.482880434782615 1.1749999999999972  2.991168478260871 1.5708333333333364  C 4.457880434782616 1.9541666666666657  6.414266304347819 2.1666666666666643  8.5 2.1666666666666643  C 10.58573369565218 2.1666666666666643  12.542119565217384 1.9541666666666657  14.008831521739129 1.5708333333333364  C 15.517119565217385 1.1749999999999972  16.052989130434767 0.7125000000000021  16.052989130434767 0.43749999999999645  C 16.052989130434767 0.24166666666666714  16.228532608695645 0.0833333333333357  16.445652173913047 0.0833333333333357  C 16.662771739130434 0.0833333333333357  16.83831521739131 0.24166666666666714  16.83831521739131 0.43749999999999645  C 16.83831521739131 1.1749999999999972  15.935190217391309 1.8020833333333286  14.22826086956523 2.25  Z " fill-rule="nonzero" fill="#666666" stroke="none" transform="matrix(1 0 0 1 17 20 )" />
  </g>
</svg>