<?xml version="1.0" encoding="utf-8"?>
<svg version="1.1" xmlns:xlink="http://www.w3.org/1999/xlink" width="3px" height="6px" xmlns="http://www.w3.org/2000/svg">
  <g transform="matrix(1 0 0 1 -23 -21 )">
    <path d="M 2.99624089319354 1.0707348650886548  C 2.99624089319354 0.866571231670771  2.864096003377685 0.6858889848868368  2.669531250000001 0.6240234375  C 2.42286471179292 0.5454788163694675  2.1592269425204154 0.6817572453615719  2.0806640624999995 0.9284179687499989  L 1.3661132812500005 3.1728515625  C 0.6072797281023812 3.1970255740296123  0.0046391966369436766 3.819170025712723  0.0046391966369436766 4.578388534586207  C 0.0046391966369436766 5.355038964035758  0.6342387671873904 5.984638534586207  1.4108891966369437 5.984638534586207  C 2.1875396260864957 5.984638534586207  2.8171391966369437 5.355038964035758  2.8171391966369437 4.578388534586207  C 2.8171391966369437 4.137976310249335  2.6108110389519834 3.7229999900167634  2.2596679687500005 3.457177734374999  L 2.9740722656250003 1.2131835937499997  C 2.9887629336232986 1.1671278743464804  2.99624089319354 1.1190768242547038  2.99624089319354 1.0707348650886548  Z " fill-rule="nonzero" fill="#555555" stroke="none" transform="matrix(1 0 0 1 23 21 )" />
  </g>
</svg>