<?xml version="1.0" encoding="utf-8"?>
<svg version="1.1" xmlns:xlink="http://www.w3.org/1999/xlink" width="17px" height="3px" xmlns="http://www.w3.org/2000/svg">
  <g transform="matrix(1 0 0 1 -17 -25 )">
    <path d="M 14.22826086956523 2.2291666666666714  C 12.692255434782616 2.63333333333334  10.657336956521743 2.854166666666657  8.5 2.854166666666657  C 6.342663043478257 2.854166666666657  4.307744565217384 2.63333333333334  2.7717391304347956 2.2291666666666714  C 1.064809782608691 1.78125  0.1616847826086918 1.1541666666666686  0.1616847826086918 0.41666666666666785  C 0.1616847826086918 0.22083333333333854  0.3372282608695656 0.06249999999999645  0.5543478260869499 0.06249999999999645  C 0.771467391304359 0.06249999999999645  0.9470108695652044 0.22083333333333854  0.9470108695652044 0.41666666666666785  C 0.9470108695652044 0.6916666666666629  1.482880434782615 1.1541666666666686  2.991168478260871 1.5499999999999972  C 4.457880434782616 1.9333333333333371  6.414266304347819 2.1458333333333357  8.5 2.1458333333333357  C 10.58573369565218 2.1458333333333357  12.542119565217384 1.9333333333333371  14.008831521739129 1.5499999999999972  C 15.517119565217385 1.1541666666666686  16.052989130434767 0.6916666666666629  16.052989130434767 0.41666666666666785  C 16.052989130434767 0.22083333333333854  16.228532608695645 0.06249999999999645  16.445652173913047 0.06249999999999645  C 16.662771739130434 0.06249999999999645  16.83831521739131 0.22083333333333854  16.83831521739131 0.41666666666666785  C 16.83831521739131 1.1541666666666686  15.935190217391309 1.78125  14.22826086956523 2.2291666666666714  Z " fill-rule="nonzero" fill="#666666" stroke="none" transform="matrix(1 0 0 1 17 25 )" />
  </g>
</svg>