<?xml version="1.0" encoding="utf-8"?>
<svg version="1.1" xmlns:xlink="http://www.w3.org/1999/xlink" width="13px" height="3px" xmlns="http://www.w3.org/2000/svg">
  <g transform="matrix(1 0 0 1 -20 -24 )">
    <path d="M 0.8384057971014371 1.6389705882352956  C 0.8384057971014371 1.8485294117647086  0.6594202898550847 2.016176470588235  0.43804347826086243 2.016176470588235  C 0.216666666666665 2.016176470588235  0.03768115942028771 1.8485294117647086  0.03768115942028771 1.6411764705882348  L 0.03768115942028771 0.37941176470587834  C 0.03768115942028771 0.17205882352941515  0.216666666666665 0.0044117647058783405  0.43804347826086243 0.0044117647058783405  C 0.6594202898550847 0.0044117647058783405  0.8384057971014371 0.17205882352941515  0.8384057971014371 0.37941176470587834  L 0.8384057971014371 1.6389705882352956  Z M 2.7931159420289937 2.080147058823524  C 2.7931159420289937 2.2897058823529477  2.614130434782613 2.457352941176474  2.392753623188419 2.457352941176474  C 2.1713768115941967 2.457352941176474  1.992391304347816 2.2897058823529477  1.992391304347816 2.082352941176474  L 1.992391304347816 0.8205882352941174  C 1.992391304347816 0.6132352941176435  2.1713768115941967 0.4455882352941174  2.392753623188419 0.4455882352941174  C 2.614130434782613 0.4455882352941174  2.7931159420289937 0.6132352941176435  2.7931159420289937 0.8205882352941174  L 2.7931159420289937 2.080147058823524  Z M 5.1481884057971 2.3470588235294088  C 5.1481884057971 2.5544117647058826  4.969202898550719 2.7220588235294088  4.747826086956522 2.7220588235294088  C 4.526449275362324 2.7220588235294088  4.347463768115947 2.5544117647058826  4.347463768115947 2.3470588235294088  L 4.347463768115947 1.0875000000000021  C 4.347463768115947 0.8801470588235283  4.526449275362324 0.7125000000000021  4.747826086956522 0.7125000000000021  C 4.969202898550719 0.7125000000000021  5.1481884057971 0.8801470588235283  5.1481884057971 1.0875000000000021  L 5.1481884057971 2.3470588235294088  Z M 7.291304347826091 2.567647058823539  C 7.291304347826091 2.7749999999999915  7.112318840579712 2.942647058823539  6.8909420289855134 2.942647058823539  C 6.669565217391295 2.942647058823539  6.490579710144942 2.7749999999999915  6.490579710144942 2.567647058823539  L 6.490579710144942 1.3080882352941217  C 6.490579710144942 1.1007352941176478  6.669565217391295 0.9330882352941217  6.8909420289855134 0.9330882352941217  C 7.112318840579712 0.9330882352941217  7.291304347826091 1.1007352941176478  7.291304347826091 1.3080882352941217  L 7.291304347826091 2.567647058823539  Z M 12.943478260869568 1.6830882352941217  C 12.943478260869568 1.892647058823524  12.764492753623188 2.060294117647061  12.54311594202899 2.060294117647061  C 12.321739130434771 2.060294117647061  12.142753623188419 1.892647058823524  12.142753623188419 1.6852941176470608  L 12.142753623188419 0.4235294117647044  C 12.142753623188419 0.21617647058823053  12.321739130434771 0.04852941176470438  12.54311594202899 0.04852941176470438  C 12.764492753623188 0.04852941176470438  12.943478260869568 0.21617647058823053  12.943478260869568 0.4235294117647044  L 12.943478260869568 1.6830882352941217  Z " fill-rule="nonzero" fill="#666666" stroke="none" transform="matrix(1 0 0 1 20 24 )" />
  </g>
</svg>