<?xml version="1.0" encoding="utf-8"?>
<svg version="1.1" xmlns:xlink="http://www.w3.org/1999/xlink" width="17px" height="5px" xmlns="http://www.w3.org/2000/svg">
  <g transform="matrix(1 0 0 1 -17 -16 )">
    <path d="M 14.22826086956523 4.2499999999999964  C 12.692255434782616 4.6541666666666615  10.657336956521743 4.8749999999999964  8.5 4.8749999999999964  C 6.342663043478257 4.8749999999999964  4.307744565217384 4.6541666666666615  2.7717391304347956 4.2499999999999964  C 1.064809782608691 3.802083333333332  0.1616847826086918 3.1750000000000007  0.1616847826086918 2.4374999999999964  C 0.1616847826086918 1.7000000000000046  1.064809782608691 1.0729166666666625  2.7717391304347956 0.625  C 4.307744565217384 0.22291666666666465  6.340353260869563 0  8.5 0  C 10.657336956521743 0  12.692255434782616 0.22083333333333321  14.22826086956523 0.625  C 15.935190217391309 1.0729166666666625  16.83831521739131 1.7000000000000046  16.83831521739131 2.4374999999999964  C 16.83831521739131 3.1750000000000007  15.935190217391309 3.802083333333332  14.22826086956523 4.2499999999999964  Z M 14.008831521739129 1.3041666666666654  C 12.542119565217384 0.9208333333333361  10.58573369565218 0.7083333333333286  8.5 0.7083333333333286  C 6.414266304347819 0.7083333333333286  4.457880434782616 0.9208333333333361  2.991168478260871 1.3041666666666654  C 1.482880434782615 1.7000000000000046  0.9470108695652044 2.162499999999998  0.9470108695652044 2.4374999999999964  C 0.9470108695652044 2.712499999999995  1.482880434782615 3.1750000000000007  2.991168478260871 3.5708333333333293  C 4.457880434782616 3.9541666666666693  6.414266304347819 4.166666666666668  8.5 4.166666666666668  C 10.58573369565218 4.166666666666668  12.542119565217384 3.9541666666666693  14.008831521739129 3.5708333333333293  C 15.517119565217385 3.1750000000000007  16.052989130434767 2.712499999999995  16.052989130434767 2.4374999999999964  C 16.052989130434767 2.162499999999998  15.517119565217385 1.7000000000000046  14.008831521739129 1.3041666666666654  Z " fill-rule="nonzero" fill="#999999" stroke="none" transform="matrix(1 0 0 1 17 16 )" />
  </g>
</svg>