<?xml version="1.0" encoding="utf-8"?>
<svg version="1.1" xmlns:xlink="http://www.w3.org/1999/xlink" width="15px" height="9px" xmlns="http://www.w3.org/2000/svg">
  <defs>
    <pattern id="BGPattern" patternUnits="userSpaceOnUse" alignment="0 0" imageRepeat="None" />
    <mask fill="white" id="Clip1401">
      <path d="M 14.849699398797611 0.8969072164948386  C 14.949899799599223 0.9965635738831509  15 1.1111683848797327  15 1.2407216494845272  C 15 1.3702749140893502  14.949899799599223 1.4848797250859036  14.849699398797611 1.5845360824742158  L 7.84569138276555 8.55051546391752  C 7.74549098196394 8.650171821305833  7.63026052104209 8.699999999999989  7.5 8.699999999999989  C 7.369739478957911 8.699999999999989  7.25450901803606 8.650171821305833  7.154308617234449 8.55051546391752  L 0.15030060120238886 1.5845360824742158  C 0.05010020040077734 1.4848797250859036  0 1.3702749140893502  0 1.2407216494845272  C 0 1.1111683848797327  0.05010020040077734 0.9965635738831509  0.15030060120238886 0.8969072164948386  L 0.9018036072144469 0.14948453608246837  C 1.0020040080160584 0.04982817869415612  1.117234468937852 0  1.2474949899799412 0  C 1.3777555110220305 0  1.492985971943881 0.04982817869415612  1.5931863727454925 0.14948453608246837  L 7.5 6.024226804123714  L 13.406813627254508 0.14948453608246837  C 13.507014028056119 0.04982817869415612  13.62224448897797 0  13.752505010020059 0  C 13.882765531062148 0  13.997995991983998 0.04982817869415612  14.098196392785553 0.14948453608246837  L 14.849699398797611 0.8969072164948386  Z " fill-rule="evenodd" />
    </mask>
  </defs>
  <g transform="matrix(1 0 0 1 -556 -28 )">
    <path d="M 14.849699398797611 0.8969072164948386  C 14.949899799599223 0.9965635738831509  15 1.1111683848797327  15 1.2407216494845272  C 15 1.3702749140893502  14.949899799599223 1.4848797250859036  14.849699398797611 1.5845360824742158  L 7.84569138276555 8.55051546391752  C 7.74549098196394 8.650171821305833  7.63026052104209 8.699999999999989  7.5 8.699999999999989  C 7.369739478957911 8.699999999999989  7.25450901803606 8.650171821305833  7.154308617234449 8.55051546391752  L 0.15030060120238886 1.5845360824742158  C 0.05010020040077734 1.4848797250859036  0 1.3702749140893502  0 1.2407216494845272  C 0 1.1111683848797327  0.05010020040077734 0.9965635738831509  0.15030060120238886 0.8969072164948386  L 0.9018036072144469 0.14948453608246837  C 1.0020040080160584 0.04982817869415612  1.117234468937852 0  1.2474949899799412 0  C 1.3777555110220305 0  1.492985971943881 0.04982817869415612  1.5931863727454925 0.14948453608246837  L 7.5 6.024226804123714  L 13.406813627254508 0.14948453608246837  C 13.507014028056119 0.04982817869415612  13.62224448897797 0  13.752505010020059 0  C 13.882765531062148 0  13.997995991983998 0.04982817869415612  14.098196392785553 0.14948453608246837  L 14.849699398797611 0.8969072164948386  Z " fill-rule="nonzero" fill="rgba(255, 255, 255, 1)" stroke="none" transform="matrix(1 0 0 1 556 28 )" class="fill" />
    <path d="M 14.849699398797611 0.8969072164948386  C 14.949899799599223 0.9965635738831509  15 1.1111683848797327  15 1.2407216494845272  C 15 1.3702749140893502  14.949899799599223 1.4848797250859036  14.849699398797611 1.5845360824742158  L 7.84569138276555 8.55051546391752  C 7.74549098196394 8.650171821305833  7.63026052104209 8.699999999999989  7.5 8.699999999999989  C 7.369739478957911 8.699999999999989  7.25450901803606 8.650171821305833  7.154308617234449 8.55051546391752  L 0.15030060120238886 1.5845360824742158  C 0.05010020040077734 1.4848797250859036  0 1.3702749140893502  0 1.2407216494845272  C 0 1.1111683848797327  0.05010020040077734 0.9965635738831509  0.15030060120238886 0.8969072164948386  L 0.9018036072144469 0.14948453608246837  C 1.0020040080160584 0.04982817869415612  1.117234468937852 0  1.2474949899799412 0  C 1.3777555110220305 0  1.492985971943881 0.04982817869415612  1.5931863727454925 0.14948453608246837  L 7.5 6.024226804123714  L 13.406813627254508 0.14948453608246837  C 13.507014028056119 0.04982817869415612  13.62224448897797 0  13.752505010020059 0  C 13.882765531062148 0  13.997995991983998 0.04982817869415612  14.098196392785553 0.14948453608246837  L 14.849699398797611 0.8969072164948386  Z " stroke-width="0" stroke-dasharray="0" stroke="rgba(255, 255, 255, 0)" fill="none" transform="matrix(1 0 0 1 556 28 )" class="stroke" mask="url(#Clip1401)" />
  </g>
</svg>