<?xml version="1.0" encoding="utf-8"?>
<svg version="1.1" xmlns:xlink="http://www.w3.org/1999/xlink" width="7px" height="7px" xmlns="http://www.w3.org/2000/svg">
  <g transform="matrix(1 0 0 1 -27 -24 )">
    <path d="M 0.9545454545454959 0.10606059943177115  L 6.045454545454504 0.10606059943177115  C 6.514059791396221 0.10606059943177115  6.893939400568229 0.48594020860377896  6.893939400568229 0.9545454545454959  C 6.893939400568229 1.4231507004870991  6.514059791396221 1.803030309659107  6.045454545454504 1.803030309659107  L 0.9545454545454959 1.803030309659107  C 0.48594020860377896 1.803030309659107  0.10606059943177115 1.4231507004870991  0.10606059943177115 0.9545454545454959  C 0.10606059943177115 0.48594020860377896  0.48594020860377896 0.10606059943177115  0.9545454545454959 0.10606059943177115  Z M 0.9545454545454959 2.651515144886389  L 6.045454545454504 2.651515144886389  C 6.514059791396221 2.651515144886389  6.893939400568229 3.0313947540583968  6.893939400568229 3.5  C 6.893939400568229 3.9686052459416032  6.514059791396221 4.348484855113611  6.045454545454504 4.348484855113611  L 0.9545454545454959 4.348484855113611  C 0.48594020860377896 4.348484855113611  0.10606059943177115 3.9686052459416032  0.10606059943177115 3.5  C 0.10606059943177115 3.0313947540583968  0.48594020860377896 2.651515144886389  0.9545454545454959 2.651515144886389  Z M 0.9545454545454959 5.196969690340893  L 6.045454545454504 5.196969690340893  C 6.514059791396221 5.196969690340893  6.893939400568229 5.576849299512901  6.893939400568229 6.045454545454504  C 6.893939400568229 6.514059791396221  6.514059791396221 6.893939400568229  6.045454545454504 6.893939400568229  L 0.9545454545454959 6.893939400568229  C 0.48594020860377896 6.893939400568229  0.10606059943177115 6.514059791396221  0.10606059943177115 6.045454545454504  C 0.10606059943177115 5.576849299512901  0.48594020860377896 5.196969690340893  0.9545454545454959 5.196969690340893  Z " fill-rule="nonzero" fill="#595959" stroke="none" transform="matrix(1 0 0 1 27 24 )" />
  </g>
</svg>