<?xml version="1.0" encoding="utf-8"?>
<svg version="1.1" xmlns:xlink="http://www.w3.org/1999/xlink" width="14px" height="15px" xmlns="http://www.w3.org/2000/svg">
  <defs>
    <pattern id="BGPattern" patternUnits="userSpaceOnUse" alignment="0 0" imageRepeat="None" />
    <mask fill="white" id="Clip1718">
      <path d="M 13.755000000000004 12.503906249999998  C 13.760833333333338 11.537109374999998  13.19208333333334 10.646484375  12.314166666666667 10.233398437499998  L 9.998333333333335 9.15234375  C 9.552083333333336 8.941406249999998  9.263333333333334 8.487304687499998  9.263333333333334 7.998046875  L 9.263333333333334 7.625976562499998  C 9.263333333333334 7.274414062499998  9.3975 6.946289062499999  9.633750000000001 6.726562499999999  C 10.479583333333334 5.915039062499999  10.91125 4.769531249999998  10.817916666666669 3.5830078124999987  C 10.66041666666667 1.7080078124999987  9.126250000000002 0.196289062499998  7.250833333333337 0.06738281249999867  C 6.165833333333337 -0.008789062500001166  5.136250000000004 0.36035156249999867  4.351666666666672 1.0986328124999982  C 3.572916666666672 1.822265624999998  3.129583333333339 2.853515624999998  3.129583333333339 3.9257812499999982  C 3.129583333333339 4.977539062499997  3.5437500000000055 5.961914062499998  4.296250000000006 6.697265624999997  C 4.552916666666672 6.946289062499997  4.692916666666672 7.274414062499997  4.692916666666672 7.623046874999998  L 4.692916666666672 7.998046875  C 4.692916666666672 8.49609375  4.404166666666674 8.9501953125  3.957916666666673 9.15234375  L 1.6420833333333387 10.233398437499998  C 0.7641666666666713 10.640624999999998  0.19833333333333864 11.531249999999996  0.19833333333333864 12.503906249999998  L 0.19833333333333864 14.522460937499998  C 0.19833333333333864 14.745117187499998  0.38500000000000467 14.929687499999996  0.6037500000000047 15  L 13.349583333333337 15  C 13.568333333333337 14.929687499999996  13.755000000000004 14.742187499999998  13.755000000000004 14.522460937499998  L 13.755000000000004 12.503906249999998  Z M 1.0149999999999988 14  L 1.0150000000000021 13.040039062499996  L 8.44375 13.040039062499996  C 8.665416666666667 13.040039062499996  8.849166666666667 12.852539062499998  8.849166666666667 12.632812499999998  C 8.849166666666667 12.413085937499998  8.6625 12.225585937499998  8.44375 12.225585937499998  L 1.0354166666666667 12.225585937499998  C 1.1258333333333341 11.671875  1.4816666666666671 11.194335937499996  1.9833333333333334 10.959960937499996  L 4.2991666666666655 9.878906249999998  C 5.028333333333332 9.536132812499996  5.500833333333333 8.794921874999998  5.500833333333333 7.989257812499998  L 5.500833333333333 7.6171875  C 5.500833333333333 7.057617187499999  5.267499999999999 6.509765625  4.859166666666665 6.1083984375  C 4.264166666666666 5.5283203125  3.9374999999999982 4.74609375  3.9374999999999982 3.9111328125  C 3.9374999999999982 3.064453125000001  4.290416666666665 2.2500000000000004  4.902916666666666 1.6787109375000004  C 5.5299999999999985 1.0927734375000004  6.343749999999998 0.8056640625  7.195416666666665 0.8671875000000007  C 8.67708333333333 0.9726562500000013  9.884583333333332 2.16796875  10.00708333333333 3.6474609375  C 10.085833333333332 4.582031249999999  9.747499999999997 5.490234374999999  9.076666666666664 6.1376953125  C 8.679999999999996 6.5185546875  8.452499999999999 7.057617187499999  8.452499999999999 7.620117187500001  L 8.452499999999999 7.992187500000002  C 8.452499999999999 8.797851562500002  8.924999999999999 9.5390625  9.654166666666667 9.881835937500002  L 11.969999999999999 10.971679687500004  C 12.471666666666668 11.203125000000004  12.830416666666666 11.683593750000002  12.917916666666665 12.237304687500005  L 10.476666666666665 12.237304687500005  C 10.257916666666665 12.237304687500005  10.07125 12.424804687500004  10.07125 12.644531250000004  C 10.07125 12.867187500000005  10.257916666666665 13.051757812500004  10.476666666666665 13.051757812500004  L 12.947083333333332 13.051757812500004  L 12.947083333333332 14  L 1.0149999999999988 14  Z " fill-rule="evenodd" />
    </mask>
  </defs>
  <g transform="matrix(1 0 0 1 -447 -22 )">
    <path d="M 13.755000000000004 12.503906249999998  C 13.760833333333338 11.537109374999998  13.19208333333334 10.646484375  12.314166666666667 10.233398437499998  L 9.998333333333335 9.15234375  C 9.552083333333336 8.941406249999998  9.263333333333334 8.487304687499998  9.263333333333334 7.998046875  L 9.263333333333334 7.625976562499998  C 9.263333333333334 7.274414062499998  9.3975 6.946289062499999  9.633750000000001 6.726562499999999  C 10.479583333333334 5.915039062499999  10.91125 4.769531249999998  10.817916666666669 3.5830078124999987  C 10.66041666666667 1.7080078124999987  9.126250000000002 0.196289062499998  7.250833333333337 0.06738281249999867  C 6.165833333333337 -0.008789062500001166  5.136250000000004 0.36035156249999867  4.351666666666672 1.0986328124999982  C 3.572916666666672 1.822265624999998  3.129583333333339 2.853515624999998  3.129583333333339 3.9257812499999982  C 3.129583333333339 4.977539062499997  3.5437500000000055 5.961914062499998  4.296250000000006 6.697265624999997  C 4.552916666666672 6.946289062499997  4.692916666666672 7.274414062499997  4.692916666666672 7.623046874999998  L 4.692916666666672 7.998046875  C 4.692916666666672 8.49609375  4.404166666666674 8.9501953125  3.957916666666673 9.15234375  L 1.6420833333333387 10.233398437499998  C 0.7641666666666713 10.640624999999998  0.19833333333333864 11.531249999999996  0.19833333333333864 12.503906249999998  L 0.19833333333333864 14.522460937499998  C 0.19833333333333864 14.745117187499998  0.38500000000000467 14.929687499999996  0.6037500000000047 15  L 13.349583333333337 15  C 13.568333333333337 14.929687499999996  13.755000000000004 14.742187499999998  13.755000000000004 14.522460937499998  L 13.755000000000004 12.503906249999998  Z M 1.0149999999999988 14  L 1.0150000000000021 13.040039062499996  L 8.44375 13.040039062499996  C 8.665416666666667 13.040039062499996  8.849166666666667 12.852539062499998  8.849166666666667 12.632812499999998  C 8.849166666666667 12.413085937499998  8.6625 12.225585937499998  8.44375 12.225585937499998  L 1.0354166666666667 12.225585937499998  C 1.1258333333333341 11.671875  1.4816666666666671 11.194335937499996  1.9833333333333334 10.959960937499996  L 4.2991666666666655 9.878906249999998  C 5.028333333333332 9.536132812499996  5.500833333333333 8.794921874999998  5.500833333333333 7.989257812499998  L 5.500833333333333 7.6171875  C 5.500833333333333 7.057617187499999  5.267499999999999 6.509765625  4.859166666666665 6.1083984375  C 4.264166666666666 5.5283203125  3.9374999999999982 4.74609375  3.9374999999999982 3.9111328125  C 3.9374999999999982 3.064453125000001  4.290416666666665 2.2500000000000004  4.902916666666666 1.6787109375000004  C 5.5299999999999985 1.0927734375000004  6.343749999999998 0.8056640625  7.195416666666665 0.8671875000000007  C 8.67708333333333 0.9726562500000013  9.884583333333332 2.16796875  10.00708333333333 3.6474609375  C 10.085833333333332 4.582031249999999  9.747499999999997 5.490234374999999  9.076666666666664 6.1376953125  C 8.679999999999996 6.5185546875  8.452499999999999 7.057617187499999  8.452499999999999 7.620117187500001  L 8.452499999999999 7.992187500000002  C 8.452499999999999 8.797851562500002  8.924999999999999 9.5390625  9.654166666666667 9.881835937500002  L 11.969999999999999 10.971679687500004  C 12.471666666666668 11.203125000000004  12.830416666666666 11.683593750000002  12.917916666666665 12.237304687500005  L 10.476666666666665 12.237304687500005  C 10.257916666666665 12.237304687500005  10.07125 12.424804687500004  10.07125 12.644531250000004  C 10.07125 12.867187500000005  10.257916666666665 13.051757812500004  10.476666666666665 13.051757812500004  L 12.947083333333332 13.051757812500004  L 12.947083333333332 14  L 1.0149999999999988 14  Z " fill-rule="nonzero" fill="rgba(245, 154, 35, 1)" stroke="none" transform="matrix(1 0 0 1 447 22 )" class="fill" />
    <path d="M 13.755000000000004 12.503906249999998  C 13.760833333333338 11.537109374999998  13.19208333333334 10.646484375  12.314166666666667 10.233398437499998  L 9.998333333333335 9.15234375  C 9.552083333333336 8.941406249999998  9.263333333333334 8.487304687499998  9.263333333333334 7.998046875  L 9.263333333333334 7.625976562499998  C 9.263333333333334 7.274414062499998  9.3975 6.946289062499999  9.633750000000001 6.726562499999999  C 10.479583333333334 5.915039062499999  10.91125 4.769531249999998  10.817916666666669 3.5830078124999987  C 10.66041666666667 1.7080078124999987  9.126250000000002 0.196289062499998  7.250833333333337 0.06738281249999867  C 6.165833333333337 -0.008789062500001166  5.136250000000004 0.36035156249999867  4.351666666666672 1.0986328124999982  C 3.572916666666672 1.822265624999998  3.129583333333339 2.853515624999998  3.129583333333339 3.9257812499999982  C 3.129583333333339 4.977539062499997  3.5437500000000055 5.961914062499998  4.296250000000006 6.697265624999997  C 4.552916666666672 6.946289062499997  4.692916666666672 7.274414062499997  4.692916666666672 7.623046874999998  L 4.692916666666672 7.998046875  C 4.692916666666672 8.49609375  4.404166666666674 8.9501953125  3.957916666666673 9.15234375  L 1.6420833333333387 10.233398437499998  C 0.7641666666666713 10.640624999999998  0.19833333333333864 11.531249999999996  0.19833333333333864 12.503906249999998  L 0.19833333333333864 14.522460937499998  C 0.19833333333333864 14.745117187499998  0.38500000000000467 14.929687499999996  0.6037500000000047 15  L 13.349583333333337 15  C 13.568333333333337 14.929687499999996  13.755000000000004 14.742187499999998  13.755000000000004 14.522460937499998  L 13.755000000000004 12.503906249999998  Z " stroke-width="0" stroke-dasharray="0" stroke="rgba(255, 255, 255, 0)" fill="none" transform="matrix(1 0 0 1 447 22 )" class="stroke" mask="url(#Clip1718)" />
    <path d="M 1.0149999999999988 14  L 1.0150000000000021 13.040039062499996  L 8.44375 13.040039062499996  C 8.665416666666667 13.040039062499996  8.849166666666667 12.852539062499998  8.849166666666667 12.632812499999998  C 8.849166666666667 12.413085937499998  8.6625 12.225585937499998  8.44375 12.225585937499998  L 1.0354166666666667 12.225585937499998  C 1.1258333333333341 11.671875  1.4816666666666671 11.194335937499996  1.9833333333333334 10.959960937499996  L 4.2991666666666655 9.878906249999998  C 5.028333333333332 9.536132812499996  5.500833333333333 8.794921874999998  5.500833333333333 7.989257812499998  L 5.500833333333333 7.6171875  C 5.500833333333333 7.057617187499999  5.267499999999999 6.509765625  4.859166666666665 6.1083984375  C 4.264166666666666 5.5283203125  3.9374999999999982 4.74609375  3.9374999999999982 3.9111328125  C 3.9374999999999982 3.064453125000001  4.290416666666665 2.2500000000000004  4.902916666666666 1.6787109375000004  C 5.5299999999999985 1.0927734375000004  6.343749999999998 0.8056640625  7.195416666666665 0.8671875000000007  C 8.67708333333333 0.9726562500000013  9.884583333333332 2.16796875  10.00708333333333 3.6474609375  C 10.085833333333332 4.582031249999999  9.747499999999997 5.490234374999999  9.076666666666664 6.1376953125  C 8.679999999999996 6.5185546875  8.452499999999999 7.057617187499999  8.452499999999999 7.620117187500001  L 8.452499999999999 7.992187500000002  C 8.452499999999999 8.797851562500002  8.924999999999999 9.5390625  9.654166666666667 9.881835937500002  L 11.969999999999999 10.971679687500004  C 12.471666666666668 11.203125000000004  12.830416666666666 11.683593750000002  12.917916666666665 12.237304687500005  L 10.476666666666665 12.237304687500005  C 10.257916666666665 12.237304687500005  10.07125 12.424804687500004  10.07125 12.644531250000004  C 10.07125 12.867187500000005  10.257916666666665 13.051757812500004  10.476666666666665 13.051757812500004  L 12.947083333333332 13.051757812500004  L 12.947083333333332 14  L 1.0149999999999988 14  Z " stroke-width="0" stroke-dasharray="0" stroke="rgba(255, 255, 255, 0)" fill="none" transform="matrix(1 0 0 1 447 22 )" class="stroke" mask="url(#Clip1718)" />
  </g>
</svg>