<?xml version="1.0" encoding="utf-8"?>
<svg version="1.1" xmlns:xlink="http://www.w3.org/1999/xlink" width="11px" height="7px" xmlns="http://www.w3.org/2000/svg">
  <defs>
    <pattern id="BGPattern" patternUnits="userSpaceOnUse" alignment="0 0" imageRepeat="None" />
    <mask fill="white" id="Clip1205">
      <path d="M 0 1.6153846153846416  C 0 0.5384615384615472  0.5499999999999545 0  1.6499999999999773 0  L 9.350000000000023 0  C 10.450000000000045 0  11 0.5384615384615472  11 1.6153846153846416  L 11 5.384615384615358  C 11 6.461538461538453  10.450000000000045 7  9.350000000000023 7  L 1.6499999999999773 7  C 0.5499999999999545 7  0 6.461538461538453  0 5.384615384615358  L 0 1.6153846153846416  Z " fill-rule="evenodd" />
    </mask>
  </defs>
  <g transform="matrix(1 0 0 1 -30 -23 )">
    <path d="M 0 1.6153846153846416  C 0 0.5384615384615472  0.5499999999999545 0  1.6499999999999773 0  L 9.350000000000023 0  C 10.450000000000045 0  11 0.5384615384615472  11 1.6153846153846416  L 11 5.384615384615358  C 11 6.461538461538453  10.450000000000045 7  9.350000000000023 7  L 1.6499999999999773 7  C 0.5499999999999545 7  0 6.461538461538453  0 5.384615384615358  L 0 1.6153846153846416  Z " fill-rule="nonzero" fill="rgba(0, 161, 255, 1)" stroke="none" transform="matrix(1 0 0 1 30 23 )" class="fill" />
    <path d="M 0 1.6153846153846416  C 0 0.5384615384615472  0.5499999999999545 0  1.6499999999999773 0  L 9.350000000000023 0  C 10.450000000000045 0  11 0.5384615384615472  11 1.6153846153846416  L 11 5.384615384615358  C 11 6.461538461538453  10.450000000000045 7  9.350000000000023 7  L 1.6499999999999773 7  C 0.5499999999999545 7  0 6.461538461538453  0 5.384615384615358  L 0 1.6153846153846416  Z " stroke-width="0" stroke-dasharray="0" stroke="rgba(255, 255, 255, 0)" fill="none" transform="matrix(1 0 0 1 30 23 )" class="stroke" mask="url(#Clip1205)" />
  </g>
</svg>