<?xml version="1.0" encoding="utf-8"?>
<svg version="1.1" xmlns:xlink="http://www.w3.org/1999/xlink" width="4px" height="3px" xmlns="http://www.w3.org/2000/svg">
  <defs>
    <pattern id="BGPattern" patternUnits="userSpaceOnUse" alignment="0 0" imageRepeat="None" />
    <mask fill="white" id="Clip1207">
      <path d="M 1.640571428571434 2.1789473684210634  L 0.6308571428571668 1.0623157894737005  C 0.5772339420142316 1.0029642112608599  0.5044597367120787 0.9696137857137046  0.4285714285714448 0.9696137857137046  C 0.27068799690789547 0.9696137857137046  0.14269818707430204 1.111076207108681  0.14269818707430204 1.2855789473684354  C 0.14269818707430204 1.3693007438755558  0.17276144975642183 1.4496000323813405  0.22628571428572286 1.5088421052631702  L 1.4388571428571595 2.848421052631579  C 1.5504285289958943 2.9716995594735636  1.7312857567183073 2.9716995594735636  1.8428571428571558 2.848421052631579  L 3.8628571428571377 0.6157894736842309  C 3.9186007356802293 0.5562832509679083  3.9500823444935804 0.4743018143193467  3.9500823444935804 0.3886458297703257  C 3.9500823444935804 0.21424011929741482  3.8221637015880106 0.07285635608604935  3.664368058779246 0.07285635608604935  C 3.5868697870444066 0.07285635608604935  3.5126961062670716 0.10765181845863481  3.4588571428571413 0.1692631578947612  L 1.640571428571434 2.1789473684210634  Z " fill-rule="evenodd" />
    </mask>
  </defs>
  <g transform="matrix(1 0 0 1 -33 -25 )">
    <path d="M 1.640571428571434 2.1789473684210634  L 0.6308571428571668 1.0623157894737005  C 0.5772339420142316 1.0029642112608599  0.5044597367120787 0.9696137857137046  0.4285714285714448 0.9696137857137046  C 0.27068799690789547 0.9696137857137046  0.14269818707430204 1.111076207108681  0.14269818707430204 1.2855789473684354  C 0.14269818707430204 1.3693007438755558  0.17276144975642183 1.4496000323813405  0.22628571428572286 1.5088421052631702  L 1.4388571428571595 2.848421052631579  C 1.5504285289958943 2.9716995594735636  1.7312857567183073 2.9716995594735636  1.8428571428571558 2.848421052631579  L 3.8628571428571377 0.6157894736842309  C 3.9186007356802293 0.5562832509679083  3.9500823444935804 0.4743018143193467  3.9500823444935804 0.3886458297703257  C 3.9500823444935804 0.21424011929741482  3.8221637015880106 0.07285635608604935  3.664368058779246 0.07285635608604935  C 3.5868697870444066 0.07285635608604935  3.5126961062670716 0.10765181845863481  3.4588571428571413 0.1692631578947612  L 1.640571428571434 2.1789473684210634  Z " fill-rule="nonzero" fill="rgba(255, 255, 255, 1)" stroke="none" transform="matrix(1 0 0 1 33 25 )" class="fill" />
    <path d="M 1.640571428571434 2.1789473684210634  L 0.6308571428571668 1.0623157894737005  C 0.5772339420142316 1.0029642112608599  0.5044597367120787 0.9696137857137046  0.4285714285714448 0.9696137857137046  C 0.27068799690789547 0.9696137857137046  0.14269818707430204 1.111076207108681  0.14269818707430204 1.2855789473684354  C 0.14269818707430204 1.3693007438755558  0.17276144975642183 1.4496000323813405  0.22628571428572286 1.5088421052631702  L 1.4388571428571595 2.848421052631579  C 1.5504285289958943 2.9716995594735636  1.7312857567183073 2.9716995594735636  1.8428571428571558 2.848421052631579  L 3.8628571428571377 0.6157894736842309  C 3.9186007356802293 0.5562832509679083  3.9500823444935804 0.4743018143193467  3.9500823444935804 0.3886458297703257  C 3.9500823444935804 0.21424011929741482  3.8221637015880106 0.07285635608604935  3.664368058779246 0.07285635608604935  C 3.5868697870444066 0.07285635608604935  3.5126961062670716 0.10765181845863481  3.4588571428571413 0.1692631578947612  L 1.640571428571434 2.1789473684210634  Z " stroke-width="0" stroke-dasharray="0" stroke="rgba(255, 255, 255, 0)" fill="none" transform="matrix(1 0 0 1 33 25 )" class="stroke" mask="url(#Clip1207)" />
  </g>
</svg>