<?xml version="1.0" encoding="utf-8"?>
<svg version="1.1" xmlns:xlink="http://www.w3.org/1999/xlink" width="17px" height="17px" xmlns="http://www.w3.org/2000/svg">
  <g transform="matrix(1 0 0 1 -17 -14 )">
    <path d="M 10.767839074353446 8.645026548672604  C 11.560938301985402 8.971250263407569  12.296554205950201 9.428782797916483  12.945402304956929 9.999410023230098  L 10.991379310344882 9.999410023230098  C 10.750643684267288 9.999410023230098  10.527103448275852 10.074029492256614  10.341080453663835 10.201604713495612  C 9.559120244077349 9.855427682748655  8.716518463524608 9.676864540663132  7.864942328000097 9.676864540663132  C 4.411575619786845 9.676864540663132  1.6120687708879586 12.550694580240702  1.6120687708879586 16.095743590441884  C 1.6120687708879586 16.09627743788576  1.6120688357643758 16.096811285316107  1.61206896551721 16.097345132743385  C 1.6120028868404006 16.540428288129533  1.2620838864902453 16.89958218524896  0.8304597731680587 16.89958218524896  C 0.3988356598458722 16.89958218524896  0.04891665949583057 16.540428288129533  0.04885058081902116 16.097345132743385  C 0.04885058081902116 12.719410023230125  2.08259771336202 9.828507368362807  4.962045970905137 8.645026548672604  C 3.833750210857488 7.732160114092949  3.1752873502155126 6.338773074422193  3.1752873502155126 4.864029238267676  C 3.1752873502155126 2.2052424780202955  5.274917488940105 0.04986994623232022  7.864942522629349 0.04986994623232022  C 10.454967556318593 0.04986994623232022  12.554597695043071 2.2052424780202955  12.554597695043071 4.864029238267676  C 12.554597695043071 6.338773074422193  11.896134834401096 7.732160114092949  10.767839074353446 8.645026548672604  Z M 16.884712649784433 10.079646017699133  C 16.754183920258583 10.02829497898233  16.61114943749999 9.999410023230098  16.462643684267277 9.999410023230098  L 15.112022994612062 9.999410023230098  C 14.504821365676548 8.97566389139331  13.483675457882327 8.284085698761828  12.32793103448273 8.113864313053114  C 12.777037738641752 7.465103047553043  13.08614024460428 6.725445362449932  13.234597695043135 5.944283185840732  C 13.792301038935648 5.487387221599647  14.117088278323763 4.7947378688983235  14.117088278323763 4.062261797235919  C 14.117088278323763 2.987342300338696  13.423034512933668 2.0426183559316087  12.416252867456933 1.747138649336307  C 12.005582493599263 1.1162067486999376  11.475253986925395 0.5767106762510821  10.85694252262931 0.16087316261064188  C 11.157115881657887 0.08652182996524971  11.464815561688624 0.04895312848987032  11.773603395525242 0.04895312848987032  C 13.931957586893873 0.04895312848987032  15.681649366430406 1.8450969021733954  15.681649366430406 4.060752532250945  C 15.681649366430406 5.233278019703903  15.181956350419568 6.347118145887862  14.313999999999965 7.109309734513317  C 15.494006970323994 7.7461309224351  16.408016948044974 8.801905013095165  16.88549424676728 10.079646017699133  Z M 4.738745052872787 4.8643067815265795  C 4.738745052872787 6.636735351878997  6.1383526272582 8.07361063311862  7.864942522629349 8.073746306415956  C 9.591865199753556 8.07374631581854  10.991618628303854 6.6368312918200445  10.991618628303854 4.8643067815265795  C 10.991618628303854 3.0917822712330008  9.591865199753556 1.654867247234506  7.8651818405883205 1.654867247234506  C 6.1383526272582 1.6550029299345397  4.738745052872787 3.091878211174162  4.738745052872787 4.8643067815265795  Z " fill-rule="nonzero" fill="#999999" stroke="none" transform="matrix(1 0 0 1 17 14 )" />
  </g>
</svg>