<?xml version="1.0" encoding="utf-8"?>
<svg version="1.1" xmlns:xlink="http://www.w3.org/1999/xlink" width="11px" height="16px" xmlns="http://www.w3.org/2000/svg">
  <g transform="matrix(1 0 0 1 -23 -13 )">
    <path d="M 5 14.977054117647072  C 4.895972957746494 15.515658039215737  4.463161690140851 15.953970196078444  3.9310963380281696 15.953970196078444  L 1.031211267605613 15.953970196078444  C 0.4992450704224893 15.953970196078444  0.06643380281684585 15.515758431372547  0 14.977154509803881  L 0 1.0477427450980485  C 0.06643380281684585 0.5091388235293834  0.4992450704224893 0.07092705882348582  1.031211267605613 0.07092705882348582  L 3.931195492957727 0.07092705882348582  C 4.463161690140851 0.07092705882348582  4.895972957746494 0.5091388235293834  5 1.0477427450980485  L 5 14.977054117647072  Z M 3.931195492957727 1.0206368627450502  L 1.031211267605613 1.0206368627450502  C 1.0164255936271047 1.0206368627450502  1.0044394366196912 1.0327725796438472  1 1.0477427450980485  L 1 14.977054117647072  C 1.0044394366196912 14.991912156862782  1.0164371830985601 15.004159999999956  1.031211267605613 15.004159999999956  L 3.931195492957727 15.004159999999956  C 3.9459811669363494 15.004159999999956  3.9579673239436493 14.992024283101273  4 14.977054117647072  L 4 1.0477427450980485  C 3.9579673239436493 1.0327725796438472  3.9459811669363494 1.0206368627450502  3.931195492957727 1.0206368627450502  Z M 10.924989295774594 14.977054117647072  C 10.925088450704266 15.515658039215737  10.492178028169064 15.953970196078444  9.96021183098594 15.953970196078444  L 7.05993014084504 15.953970196078444  C 6.527963943661916 15.953970196078444  6.0951526760563866 15.515758431372547  6.0951526760563866 14.977154509803881  L 6.0951526760563866 5.936840784313745  C 6.0951526760563866 5.39823686274508  6.527963943661916 4.960025098039182  7.05993014084504 4.960025098039182  L 9.96021183098594 4.960025098039182  C 10.492178028169064 4.960025098039182  10.924989295774594 5.39823686274508  10.924989295774594 5.936840784313745  L 10.924989295774594 14.977054117647072  Z M 9.96021183098594 5.909734901960746  L 7.05993014084504 5.909734901960746  C 7.045144466866532 5.909734901960746  7.033158309859119 5.921870618859543  7.033158309859119 5.936840784313745  L 7.033158309859119 14.977054117647072  C 7.033158309859119 14.991912156862782  7.045156056337986 15.004159999999956  7.05993014084504 15.004159999999956  L 9.96021183098594 15.004159999999956  C 9.974997504964449 15.004159999999956  9.986983661971863 14.992024283101273  9.986983661971863 14.977054117647072  L 9.986983661971863 5.936840784313745  C 9.986983661971863 5.921870618859543  9.974997504964449 5.909734901960746  9.96021183098594 5.909734901960746  Z " fill-rule="nonzero" fill="#666666" stroke="none" transform="matrix(1 0 0 1 23 13 )" />
  </g>
</svg>