<?xml version="1.0" encoding="utf-8"?>
<svg version="1.1" xmlns:xlink="http://www.w3.org/1999/xlink" width="23px" height="13px" xmlns="http://www.w3.org/2000/svg">
  <defs>
    <pattern id="BGPattern" patternUnits="userSpaceOnUse" alignment="0 0" imageRepeat="None" />
    <mask fill="white" id="Clip1411">
      <path d="M 6.513541666666698 2.8624999999999545  C 5.690858333333381 2.8624999999999545  5.023958333333326 2.2468999999999824  5.023958333333326 1.4874999999999545  C 5.023958333333326 0.7281000000000404  5.690858333333381 0.11249999999995453  6.513541666666698 0.11249999999995453  C 7.336225000000012 0.11249999999995453  8.003124999999955 0.7281000000000404  8.003124999999955 1.4874999999999545  C 8.003124999999955 2.2468999999999824  7.336225000000012 2.8624999999999545  6.513541666666698 2.8624999999999545  Z M 1.5572916666666288 2.8624999999999545  C 0.7346083333333127 2.8624999999999545  0.06770833333337123 2.2468999999999824  0.06770833333337123 1.4874999999999545  C 0.06770833333337123 0.7281000000000404  0.7346083333333127 0.11249999999995453  1.5572916666666288 0.11249999999995453  C 2.379974999999945 0.11249999999995453  3.046875 0.7281000000000404  3.046875 1.4874999999999545  C 3.046875 2.2468999999999824  2.379974999999945 2.8624999999999545  1.5572916666666288 2.8624999999999545  Z M 11.442708333333371 2.8624999999999545  C 10.620025000000055 2.8624999999999545  9.953125 2.2468999999999824  9.953125 1.4874999999999545  C 9.953125 0.7281000000000404  10.620025000000055 0.11249999999995453  11.442708333333371 0.11249999999995453  C 12.265391666666687 0.11249999999995453  12.932291666666629 0.7281000000000404  12.932291666666629 1.4874999999999545  C 12.932291666666629 2.2468999999999824  12.265391666666687 2.8624999999999545  11.442708333333371 2.8624999999999545  Z " fill-rule="evenodd" />
    </mask>
  </defs>
  <g transform="matrix(1 0 0 1 -599 -21 )">
    <path d="M 6.513541666666698 2.8624999999999545  C 5.690858333333381 2.8624999999999545  5.023958333333326 2.2468999999999824  5.023958333333326 1.4874999999999545  C 5.023958333333326 0.7281000000000404  5.690858333333381 0.11249999999995453  6.513541666666698 0.11249999999995453  C 7.336225000000012 0.11249999999995453  8.003124999999955 0.7281000000000404  8.003124999999955 1.4874999999999545  C 8.003124999999955 2.2468999999999824  7.336225000000012 2.8624999999999545  6.513541666666698 2.8624999999999545  Z M 1.5572916666666288 2.8624999999999545  C 0.7346083333333127 2.8624999999999545  0.06770833333337123 2.2468999999999824  0.06770833333337123 1.4874999999999545  C 0.06770833333337123 0.7281000000000404  0.7346083333333127 0.11249999999995453  1.5572916666666288 0.11249999999995453  C 2.379974999999945 0.11249999999995453  3.046875 0.7281000000000404  3.046875 1.4874999999999545  C 3.046875 2.2468999999999824  2.379974999999945 2.8624999999999545  1.5572916666666288 2.8624999999999545  Z M 11.442708333333371 2.8624999999999545  C 10.620025000000055 2.8624999999999545  9.953125 2.2468999999999824  9.953125 1.4874999999999545  C 9.953125 0.7281000000000404  10.620025000000055 0.11249999999995453  11.442708333333371 0.11249999999995453  C 12.265391666666687 0.11249999999995453  12.932291666666629 0.7281000000000404  12.932291666666629 1.4874999999999545  C 12.932291666666629 2.2468999999999824  12.265391666666687 2.8624999999999545  11.442708333333371 2.8624999999999545  Z " fill-rule="nonzero" fill="rgba(133, 165, 255, 1)" stroke="none" transform="matrix(1 0 0 1 604 26 )" class="fill" />
    <path d="M 6.513541666666698 2.8624999999999545  C 5.690858333333381 2.8624999999999545  5.023958333333326 2.2468999999999824  5.023958333333326 1.4874999999999545  C 5.023958333333326 0.7281000000000404  5.690858333333381 0.11249999999995453  6.513541666666698 0.11249999999995453  C 7.336225000000012 0.11249999999995453  8.003124999999955 0.7281000000000404  8.003124999999955 1.4874999999999545  C 8.003124999999955 2.2468999999999824  7.336225000000012 2.8624999999999545  6.513541666666698 2.8624999999999545  Z " stroke-width="0" stroke-dasharray="0" stroke="rgba(255, 255, 255, 0)" fill="none" transform="matrix(1 0 0 1 604 26 )" class="stroke" mask="url(#Clip1411)" />
    <path d="M 1.5572916666666288 2.8624999999999545  C 0.7346083333333127 2.8624999999999545  0.06770833333337123 2.2468999999999824  0.06770833333337123 1.4874999999999545  C 0.06770833333337123 0.7281000000000404  0.7346083333333127 0.11249999999995453  1.5572916666666288 0.11249999999995453  C 2.379974999999945 0.11249999999995453  3.046875 0.7281000000000404  3.046875 1.4874999999999545  C 3.046875 2.2468999999999824  2.379974999999945 2.8624999999999545  1.5572916666666288 2.8624999999999545  Z " stroke-width="0" stroke-dasharray="0" stroke="rgba(255, 255, 255, 0)" fill="none" transform="matrix(1 0 0 1 604 26 )" class="stroke" mask="url(#Clip1411)" />
    <path d="M 11.442708333333371 2.8624999999999545  C 10.620025000000055 2.8624999999999545  9.953125 2.2468999999999824  9.953125 1.4874999999999545  C 9.953125 0.7281000000000404  10.620025000000055 0.11249999999995453  11.442708333333371 0.11249999999995453  C 12.265391666666687 0.11249999999995453  12.932291666666629 0.7281000000000404  12.932291666666629 1.4874999999999545  C 12.932291666666629 2.2468999999999824  12.265391666666687 2.8624999999999545  11.442708333333371 2.8624999999999545  Z " stroke-width="0" stroke-dasharray="0" stroke="rgba(255, 255, 255, 0)" fill="none" transform="matrix(1 0 0 1 604 26 )" class="stroke" mask="url(#Clip1411)" />
  </g>
  <style>svg { filter: drop-shadow(0px 0px 2.5px rgba(255, 255, 255, 0.3137254901960784)); }</style>
</svg>