<?xml version="1.0" encoding="utf-8"?>
<svg version="1.1" xmlns:xlink="http://www.w3.org/1999/xlink" width="20px" height="19px" xmlns="http://www.w3.org/2000/svg">
  <defs>
    <pattern id="BGPattern" patternUnits="userSpaceOnUse" alignment="0 0" imageRepeat="None" />
    <mask fill="white" id="Clip268">
      <path d="M 13.975652919407896 7.421437047526042  C 10.949199588815791 7.421437047526042  8.400674856085528 9.897210689019095  8.400674856085528 13.011943342013886  C 8.400674856085528 16.12669708550347  10.869590398848688 18.602428546006944  13.975652919407896 18.602428546006944  C 17.08175750411184 18.602428546006944  19.550630982730265 16.126654904513888  19.550630982730265 13.011943342013886  C 19.630303289473684 9.897210689019095  17.081736472039474 7.421437047526042  13.975652919407896 7.421437047526042  Z M 13.975652919407896 17.644042775607637  C 11.42706506990132 17.644042775607637  9.35640581825658 15.56758949110243  9.35640581825658 13.01194334201389  C 9.35640581825658 10.456297172309029  11.427086101973686 8.37986499891493  13.975652919407896 8.37986499891493  C 16.524240768914474 8.37986499891493  18.59490002055921 10.456318283420138  18.59490002055921 13.01194334201389  C 18.59490002055921 15.56758951171875  16.524219736842106 17.644042775607637  13.975652919407896 17.644042775607637  Z M 3.701734436677632 4.06719232421875  L 11.665997820723684 4.06719232421875  L 11.665997820723684 5.345004853515626  L 3.701734436677632 5.345004874131945  L 3.701734436677632 4.06719232421875  Z M 3.701734436677632 7.341564539930556  L 10.073140933388158 7.341564539930556  L 10.073140933388158 8.619398159722222  L 3.701734436677632 8.619398159722222  L 3.701734436677632 7.341564539930556  Z M 3.701734436677632 11.095171801215278  L 6.887385094572368 11.095171801215278  L 6.887385094572368 12.372963240017361  L 3.701734436677632 12.372963240017361  L 3.701734436677632 11.095171801215278  Z M 7.604225390625 17.00516816731771  L 2 17.00516816731771  L 2 1.4316525564236111  L 14.85171159539474 1.4316525564236111  L 14.85171159539474 5.904091357421876  C 15.170253515625001 5.904091357421876  15.887009662828948 5.983879482421877  16.205614699835525 5.983879482421877  L 16.205614699835525 0.792820129123264  C 16.205614699835525 0.47326678602430583  15.886967578124999 0.15384002712673628  15.568425657894736 0.15384002712673628  L 1.312491180098684 0.15384002712673606  C 0.9938230263157894 0.15384002712673606  0.6752811060855262 0.47326678602430555  1 0.7928201291232636  L 1 17.723936394314237  C 0.6752811060855262 18.043384243706598  0.993823026315789 18.362789912109374  1.312491180098684 18.362789912109374  L 8.400674856085526 18.362789912109374  C 8.082090871710527 17.963469555121527  7.84311605674342 17.32461601671007  7.604225390625 17.00516816731771  Z M 17.161303577302633 11.973685064019099  C 17.08175750411184 11.734151903211808  16.92243394325658 11.654237214626736  16.683438096217106 11.574364686414931  L 15.170253515625 11.334831525607639  L 14.453539453125 9.97714648871528  C 14.294215892269735 9.577826111111113  13.65713205180921 9.577826111111113  13.418115152138157 9.97714648871528  L 12.70140108963816 11.334831525607639  L 11.18811130756579 11.574364686414931  C 10.949241673519738 11.574364686414931  10.789897080592105 11.734109722222222  10.710224794407894 11.973685064019099  C 10.630699773848686 12.21332369791667  10.710224794407894 12.37302653211806  10.86954835526316 12.532750456814238  L 11.984497676809212 13.571029845920142  L 11.825279317434212 15.168311335720487  C 11.825279317434212 15.407844496527778  11.904951624177633 15.567631713324653  12.064169983552633 15.727376728515626  C 12.223472512335526 15.88701627061632  12.462384210526317 15.88701627061632  12.701359025493424 15.807143763020832  L 14.055262129934214 15.08841771701389  L 15.409144202302635 15.807143763020832  C 15.488774424342107 15.88701627061632  15.56842567845395 15.88701627061632  15.64809798519737 15.88701627061632  C 15.807400513980262 15.88701627061632  15.886967619243421 15.807143763020832  15.966660937500002 15.807143763020832  C 16.125963466282897 15.64750422092014  16.205614720394742 15.487695913628471  16.205614720394742 15.248162752821182  L 15.966660937500002 13.730690478515626  L 17.08171546052632 12.692516583116321  C 17.161303577302633 12.45287794921875  17.161303577302633 12.21332369791667  17.161303577302633 11.973685064019099  Z M 14.851732627467104 13.091836960720483  C 14.692409066611841 13.251497593315971  14.692409066611841 13.411284810112848  14.692409066611841 13.571029845920139  L 14.772060320723684 14.289776982421875  L 14.214543585526316 13.89045660481771  C 14.134892331414473 13.810562986111112  14.055325226151314 13.810562986111112  13.97567395148026 13.810562986111112  C 13.896001644736842 13.810562986111112  13.816371422697369 13.810562986111112  13.736720168585526 13.89045660481771  L 13.099615275493422 14.209883363715278  L 13.17928758223684 13.571029845920139  C 13.17928758223684 13.411284810112848  13.17928758223684 13.17170946831597  13.019964021381579 13.091836960720483  L 12.542098540296053 12.61262298502604  L 13.258938836348683 12.532750477430554  C 13.418136163651315 12.532750477430554  13.577501788651317 12.373005441623263  13.657153063322369 12.213323718532983  L 13.975716015625 11.574364707031247  L 14.294278967927633 12.213323718532983  C 14.373951274671054 12.372963260633679  14.53323275082237 12.452856879340278  14.692493194901317 12.532750477430554  L 15.409249342105264 12.61262298502604  L 14.851732627467104 13.091836960720483  Z " fill-rule="evenodd" />
    </mask>
  </defs>
  <g transform="matrix(1 0 0 1 -15 -14 )">
    <path d="M 13.975652919407896 7.421437047526042  C 10.949199588815791 7.421437047526042  8.400674856085528 9.897210689019095  8.400674856085528 13.011943342013886  C 8.400674856085528 16.12669708550347  10.869590398848688 18.602428546006944  13.975652919407896 18.602428546006944  C 17.08175750411184 18.602428546006944  19.550630982730265 16.126654904513888  19.550630982730265 13.011943342013886  C 19.630303289473684 9.897210689019095  17.081736472039474 7.421437047526042  13.975652919407896 7.421437047526042  Z M 13.975652919407896 17.644042775607637  C 11.42706506990132 17.644042775607637  9.35640581825658 15.56758949110243  9.35640581825658 13.01194334201389  C 9.35640581825658 10.456297172309029  11.427086101973686 8.37986499891493  13.975652919407896 8.37986499891493  C 16.524240768914474 8.37986499891493  18.59490002055921 10.456318283420138  18.59490002055921 13.01194334201389  C 18.59490002055921 15.56758951171875  16.524219736842106 17.644042775607637  13.975652919407896 17.644042775607637  Z M 3.701734436677632 4.06719232421875  L 11.665997820723684 4.06719232421875  L 11.665997820723684 5.345004853515626  L 3.701734436677632 5.345004874131945  L 3.701734436677632 4.06719232421875  Z M 3.701734436677632 7.341564539930556  L 10.073140933388158 7.341564539930556  L 10.073140933388158 8.619398159722222  L 3.701734436677632 8.619398159722222  L 3.701734436677632 7.341564539930556  Z M 3.701734436677632 11.095171801215278  L 6.887385094572368 11.095171801215278  L 6.887385094572368 12.372963240017361  L 3.701734436677632 12.372963240017361  L 3.701734436677632 11.095171801215278  Z M 7.604225390625 17.00516816731771  L 2 17.00516816731771  L 2 1.4316525564236111  L 14.85171159539474 1.4316525564236111  L 14.85171159539474 5.904091357421876  C 15.170253515625001 5.904091357421876  15.887009662828948 5.983879482421877  16.205614699835525 5.983879482421877  L 16.205614699835525 0.792820129123264  C 16.205614699835525 0.47326678602430583  15.886967578124999 0.15384002712673628  15.568425657894736 0.15384002712673628  L 1.312491180098684 0.15384002712673606  C 0.9938230263157894 0.15384002712673606  0.6752811060855262 0.47326678602430555  1 0.7928201291232636  L 1 17.723936394314237  C 0.6752811060855262 18.043384243706598  0.993823026315789 18.362789912109374  1.312491180098684 18.362789912109374  L 8.400674856085526 18.362789912109374  C 8.082090871710527 17.963469555121527  7.84311605674342 17.32461601671007  7.604225390625 17.00516816731771  Z M 17.161303577302633 11.973685064019099  C 17.08175750411184 11.734151903211808  16.92243394325658 11.654237214626736  16.683438096217106 11.574364686414931  L 15.170253515625 11.334831525607639  L 14.453539453125 9.97714648871528  C 14.294215892269735 9.577826111111113  13.65713205180921 9.577826111111113  13.418115152138157 9.97714648871528  L 12.70140108963816 11.334831525607639  L 11.18811130756579 11.574364686414931  C 10.949241673519738 11.574364686414931  10.789897080592105 11.734109722222222  10.710224794407894 11.973685064019099  C 10.630699773848686 12.21332369791667  10.710224794407894 12.37302653211806  10.86954835526316 12.532750456814238  L 11.984497676809212 13.571029845920142  L 11.825279317434212 15.168311335720487  C 11.825279317434212 15.407844496527778  11.904951624177633 15.567631713324653  12.064169983552633 15.727376728515626  C 12.223472512335526 15.88701627061632  12.462384210526317 15.88701627061632  12.701359025493424 15.807143763020832  L 14.055262129934214 15.08841771701389  L 15.409144202302635 15.807143763020832  C 15.488774424342107 15.88701627061632  15.56842567845395 15.88701627061632  15.64809798519737 15.88701627061632  C 15.807400513980262 15.88701627061632  15.886967619243421 15.807143763020832  15.966660937500002 15.807143763020832  C 16.125963466282897 15.64750422092014  16.205614720394742 15.487695913628471  16.205614720394742 15.248162752821182  L 15.966660937500002 13.730690478515626  L 17.08171546052632 12.692516583116321  C 17.161303577302633 12.45287794921875  17.161303577302633 12.21332369791667  17.161303577302633 11.973685064019099  Z M 14.851732627467104 13.091836960720483  C 14.692409066611841 13.251497593315971  14.692409066611841 13.411284810112848  14.692409066611841 13.571029845920139  L 14.772060320723684 14.289776982421875  L 14.214543585526316 13.89045660481771  C 14.134892331414473 13.810562986111112  14.055325226151314 13.810562986111112  13.97567395148026 13.810562986111112  C 13.896001644736842 13.810562986111112  13.816371422697369 13.810562986111112  13.736720168585526 13.89045660481771  L 13.099615275493422 14.209883363715278  L 13.17928758223684 13.571029845920139  C 13.17928758223684 13.411284810112848  13.17928758223684 13.17170946831597  13.019964021381579 13.091836960720483  L 12.542098540296053 12.61262298502604  L 13.258938836348683 12.532750477430554  C 13.418136163651315 12.532750477430554  13.577501788651317 12.373005441623263  13.657153063322369 12.213323718532983  L 13.975716015625 11.574364707031247  L 14.294278967927633 12.213323718532983  C 14.373951274671054 12.372963260633679  14.53323275082237 12.452856879340278  14.692493194901317 12.532750477430554  L 15.409249342105264 12.61262298502604  L 14.851732627467104 13.091836960720483  Z " fill-rule="nonzero" fill="rgba(85, 85, 85, 1)" stroke="none" transform="matrix(1 0 0 1 15 14 )" class="fill" />
    <path d="M 13.975652919407896 7.421437047526042  C 10.949199588815791 7.421437047526042  8.400674856085528 9.897210689019095  8.400674856085528 13.011943342013886  C 8.400674856085528 16.12669708550347  10.869590398848688 18.602428546006944  13.975652919407896 18.602428546006944  C 17.08175750411184 18.602428546006944  19.550630982730265 16.126654904513888  19.550630982730265 13.011943342013886  C 19.630303289473684 9.897210689019095  17.081736472039474 7.421437047526042  13.975652919407896 7.421437047526042  Z " stroke-width="0" stroke-dasharray="0" stroke="rgba(255, 255, 255, 0)" fill="none" transform="matrix(1 0 0 1 15 14 )" class="stroke" mask="url(#Clip268)" />
    <path d="M 13.975652919407896 17.644042775607637  C 11.42706506990132 17.644042775607637  9.35640581825658 15.56758949110243  9.35640581825658 13.01194334201389  C 9.35640581825658 10.456297172309029  11.427086101973686 8.37986499891493  13.975652919407896 8.37986499891493  C 16.524240768914474 8.37986499891493  18.59490002055921 10.456318283420138  18.59490002055921 13.01194334201389  C 18.59490002055921 15.56758951171875  16.524219736842106 17.644042775607637  13.975652919407896 17.644042775607637  Z " stroke-width="0" stroke-dasharray="0" stroke="rgba(255, 255, 255, 0)" fill="none" transform="matrix(1 0 0 1 15 14 )" class="stroke" mask="url(#Clip268)" />
    <path d="M 3.701734436677632 4.06719232421875  L 11.665997820723684 4.06719232421875  L 11.665997820723684 5.345004853515626  L 3.701734436677632 5.345004874131945  L 3.701734436677632 4.06719232421875  Z " stroke-width="0" stroke-dasharray="0" stroke="rgba(255, 255, 255, 0)" fill="none" transform="matrix(1 0 0 1 15 14 )" class="stroke" mask="url(#Clip268)" />
    <path d="M 3.701734436677632 7.341564539930556  L 10.073140933388158 7.341564539930556  L 10.073140933388158 8.619398159722222  L 3.701734436677632 8.619398159722222  L 3.701734436677632 7.341564539930556  Z " stroke-width="0" stroke-dasharray="0" stroke="rgba(255, 255, 255, 0)" fill="none" transform="matrix(1 0 0 1 15 14 )" class="stroke" mask="url(#Clip268)" />
    <path d="M 3.701734436677632 11.095171801215278  L 6.887385094572368 11.095171801215278  L 6.887385094572368 12.372963240017361  L 3.701734436677632 12.372963240017361  L 3.701734436677632 11.095171801215278  Z " stroke-width="0" stroke-dasharray="0" stroke="rgba(255, 255, 255, 0)" fill="none" transform="matrix(1 0 0 1 15 14 )" class="stroke" mask="url(#Clip268)" />
    <path d="M 7.604225390625 17.00516816731771  L 2 17.00516816731771  L 2 1.4316525564236111  L 14.85171159539474 1.4316525564236111  L 14.85171159539474 5.904091357421876  C 15.170253515625001 5.904091357421876  15.887009662828948 5.983879482421877  16.205614699835525 5.983879482421877  L 16.205614699835525 0.792820129123264  C 16.205614699835525 0.47326678602430583  15.886967578124999 0.15384002712673628  15.568425657894736 0.15384002712673628  L 1.312491180098684 0.15384002712673606  C 0.9938230263157894 0.15384002712673606  0.6752811060855262 0.47326678602430555  1 0.7928201291232636  L 1 17.723936394314237  C 0.6752811060855262 18.043384243706598  0.993823026315789 18.362789912109374  1.312491180098684 18.362789912109374  L 8.400674856085526 18.362789912109374  C 8.082090871710527 17.963469555121527  7.84311605674342 17.32461601671007  7.604225390625 17.00516816731771  Z " stroke-width="0" stroke-dasharray="0" stroke="rgba(255, 255, 255, 0)" fill="none" transform="matrix(1 0 0 1 15 14 )" class="stroke" mask="url(#Clip268)" />
    <path d="M 17.161303577302633 11.973685064019099  C 17.08175750411184 11.734151903211808  16.92243394325658 11.654237214626736  16.683438096217106 11.574364686414931  L 15.170253515625 11.334831525607639  L 14.453539453125 9.97714648871528  C 14.294215892269735 9.577826111111113  13.65713205180921 9.577826111111113  13.418115152138157 9.97714648871528  L 12.70140108963816 11.334831525607639  L 11.18811130756579 11.574364686414931  C 10.949241673519738 11.574364686414931  10.789897080592105 11.734109722222222  10.710224794407894 11.973685064019099  C 10.630699773848686 12.21332369791667  10.710224794407894 12.37302653211806  10.86954835526316 12.532750456814238  L 11.984497676809212 13.571029845920142  L 11.825279317434212 15.168311335720487  C 11.825279317434212 15.407844496527778  11.904951624177633 15.567631713324653  12.064169983552633 15.727376728515626  C 12.223472512335526 15.88701627061632  12.462384210526317 15.88701627061632  12.701359025493424 15.807143763020832  L 14.055262129934214 15.08841771701389  L 15.409144202302635 15.807143763020832  C 15.488774424342107 15.88701627061632  15.56842567845395 15.88701627061632  15.64809798519737 15.88701627061632  C 15.807400513980262 15.88701627061632  15.886967619243421 15.807143763020832  15.966660937500002 15.807143763020832  C 16.125963466282897 15.64750422092014  16.205614720394742 15.487695913628471  16.205614720394742 15.248162752821182  L 15.966660937500002 13.730690478515626  L 17.08171546052632 12.692516583116321  C 17.161303577302633 12.45287794921875  17.161303577302633 12.21332369791667  17.161303577302633 11.973685064019099  Z " stroke-width="0" stroke-dasharray="0" stroke="rgba(255, 255, 255, 0)" fill="none" transform="matrix(1 0 0 1 15 14 )" class="stroke" mask="url(#Clip268)" />
    <path d="M 14.851732627467104 13.091836960720483  C 14.692409066611841 13.251497593315971  14.692409066611841 13.411284810112848  14.692409066611841 13.571029845920139  L 14.772060320723684 14.289776982421875  L 14.214543585526316 13.89045660481771  C 14.134892331414473 13.810562986111112  14.055325226151314 13.810562986111112  13.97567395148026 13.810562986111112  C 13.896001644736842 13.810562986111112  13.816371422697369 13.810562986111112  13.736720168585526 13.89045660481771  L 13.099615275493422 14.209883363715278  L 13.17928758223684 13.571029845920139  C 13.17928758223684 13.411284810112848  13.17928758223684 13.17170946831597  13.019964021381579 13.091836960720483  L 12.542098540296053 12.61262298502604  L 13.258938836348683 12.532750477430554  C 13.418136163651315 12.532750477430554  13.577501788651317 12.373005441623263  13.657153063322369 12.213323718532983  L 13.975716015625 11.574364707031247  L 14.294278967927633 12.213323718532983  C 14.373951274671054 12.372963260633679  14.53323275082237 12.452856879340278  14.692493194901317 12.532750477430554  L 15.409249342105264 12.61262298502604  L 14.851732627467104 13.091836960720483  Z " stroke-width="0" stroke-dasharray="0" stroke="rgba(255, 255, 255, 0)" fill="none" transform="matrix(1 0 0 1 15 14 )" class="stroke" mask="url(#Clip268)" />
  </g>
</svg>