<?xml version="1.0" encoding="utf-8"?>
<svg version="1.1" xmlns:xlink="http://www.w3.org/1999/xlink" width="20px" height="20px" xmlns="http://www.w3.org/2000/svg">
  <defs>
    <pattern id="BGPattern" patternUnits="userSpaceOnUse" alignment="0 0" imageRepeat="None" />
    <mask fill="white" id="Clip1728">
      <path d="M 5.29586834733891 14.943181818181825  C 5.5001167133520195 15.20833333333336  5.60224089635854 15.530303030303072  5.60224089635854 15.909090909090867  L 5.60224089635854 18.636363636363654  C 5.60224089635854 19.015151515151537  5.5001167133520195 19.337121212121247  5.29586834733891 19.602272727272695  C 5.091619981325868 19.86742424242423  4.843604108309993 20  4.551820728291352 20  L 1.0504201680672556 20  C 0.7586367880485474 20  0.5106209150326723 19.86742424242423  0.3063725490196301 19.602272727272695  C 0.10212418300652108 19.337121212121247  0 19.015151515151537  0 18.636363636363654  L 0 15.909090909090867  C 0 15.530303030303072  0.10212418300652108 15.20833333333336  0.3063725490196301 14.943181818181825  C 0.5106209150326723 14.67803030303029  0.7586367880485474 14.545454545454522  1.0504201680672556 14.545454545454522  L 4.551820728291352 14.545454545454522  C 4.843604108309993 14.545454545454522  5.091619981325868 14.67803030303029  5.29586834733891 14.943181818181825  Z M 5.29586834733891 7.670454545454522  C 5.5001167133520195 7.935606060606057  5.60224089635854 8.257575757575768  5.60224089635854 8.636363636363653  L 5.60224089635854 11.363636363636347  C 5.60224089635854 11.742424242424232  5.5001167133520195 12.064393939393943  5.29586834733891 12.329545454545478  C 5.091619981325868 12.594696969696928  4.843604108309993 12.727272727272696  4.551820728291352 12.727272727272696  L 1.0504201680672556 12.727272727272696  C 0.7586367880485474 12.727272727272696  0.5106209150326723 12.594696969696928  0.3063725490196301 12.329545454545478  C 0.10212418300652108 12.064393939393943  0 11.742424242424232  0 11.363636363636347  L 0 8.636363636363653  C 0 8.257575757575768  0.10212418300652108 7.935606060606057  0.3063725490196301 7.670454545454522  C 0.5106209150326723 7.405303030303073  0.7586367880485474 7.272727272727304  1.0504201680672556 7.272727272727304  L 4.551820728291352 7.272727272727304  C 4.843604108309993 7.272727272727304  5.091619981325868 7.405303030303073  5.29586834733891 7.670454545454522  Z M 12.298669467787102 14.943181818181825  C 12.502917833800211 15.20833333333336  12.605042016806731 15.530303030303072  12.605042016806731 15.909090909090867  L 12.605042016806731 18.636363636363654  C 12.605042016806731 19.015151515151537  12.502917833800211 19.337121212121247  12.298669467787102 19.602272727272695  C 12.09442110177406 19.86742424242423  11.846405228758186 20  11.554621848739476 20  L 8.053221288515447 20  C 7.76143790849674 20  7.513422035480865 19.86742424242423  7.309173669467822 19.602272727272695  C 7.1049253034547135 19.337121212121247  7.002801120448192 19.015151515151537  7.002801120448192 18.636363636363654  L 7.002801120448192 15.909090909090867  C 7.002801120448192 15.530303030303072  7.1049253034547135 15.20833333333336  7.309173669467822 14.943181818181825  C 7.513422035480865 14.67803030303029  7.76143790849674 14.545454545454522  8.053221288515447 14.545454545454522  L 11.554621848739476 14.545454545454522  C 11.846405228758186 14.545454545454522  12.09442110177406 14.67803030303029  12.298669467787102 14.943181818181825  Z M 5.29586834733891 0.3977272727273045  C 5.5001167133520195 0.6628787878787534  5.60224089635854 0.9848484848484638  5.60224089635854 1.3636363636363478  L 5.60224089635854 4.090909090909131  C 5.60224089635854 4.469696969696927  5.5001167133520195 4.791666666666638  5.29586834733891 5.056818181818174  C 5.091619981325868 5.321969696969711  4.843604108309993 5.454545454545478  4.551820728291352 5.454545454545478  L 1.0504201680672556 5.454545454545478  C 0.7586367880485474 5.454545454545478  0.5106209150326723 5.321969696969711  0.3063725490196301 5.056818181818174  C 0.10212418300652108 4.791666666666638  0 4.469696969696927  0 4.090909090909131  L 0 1.3636363636363478  C 0 0.9848484848484638  0.10212418300652108 0.6628787878787534  0.3063725490196301 0.3977272727273045  C 0.5106209150326723 0.13257575757576817  0.7586367880485474 0  1.0504201680672556 0  L 4.551820728291352 0  C 4.843604108309993 0  5.091619981325868 0.13257575757576817  5.29586834733891 0.3977272727273045  Z M 12.298669467787102 7.670454545454522  C 12.502917833800211 7.935606060606057  12.605042016806731 8.257575757575768  12.605042016806731 8.636363636363653  L 12.605042016806731 11.363636363636347  C 12.605042016806731 11.742424242424232  12.502917833800211 12.064393939393943  12.298669467787102 12.329545454545478  C 12.09442110177406 12.594696969696928  11.846405228758186 12.727272727272696  11.554621848739476 12.727272727272696  L 8.053221288515447 12.727272727272696  C 7.76143790849674 12.727272727272696  7.513422035480865 12.594696969696928  7.309173669467822 12.329545454545478  C 7.1049253034547135 12.064393939393943  7.002801120448192 11.742424242424232  7.002801120448192 11.363636363636347  L 7.002801120448192 8.636363636363653  C 7.002801120448192 8.257575757575768  7.1049253034547135 7.935606060606057  7.309173669467822 7.670454545454522  C 7.513422035480865 7.405303030303073  7.76143790849674 7.272727272727304  8.053221288515447 7.272727272727304  L 11.554621848739476 7.272727272727304  C 11.846405228758186 7.272727272727304  12.09442110177406 7.405303030303073  12.298669467787102 7.670454545454522  Z M 19.301470588235293 14.943181818181825  C 19.505718954248405 15.20833333333336  19.607843137254925 15.530303030303072  19.607843137254925 15.909090909090867  L 19.607843137254925 18.636363636363654  C 19.607843137254925 19.015151515151537  19.505718954248405 19.337121212121247  19.301470588235293 19.602272727272695  C 19.097222222222253 19.86742424242423  18.849206349206376 20  18.55742296918767 20  L 15.056022408963571 20  C 14.764239028944932 20  14.516223155929055 19.86742424242423  14.311974789916013 19.602272727272695  C 14.107726423902903 19.337121212121247  14.005602240896383 19.015151515151537  14.005602240896383 18.636363636363654  L 14.005602240896383 15.909090909090867  C 14.005602240896383 15.530303030303072  14.107726423902903 15.20833333333336  14.311974789916013 14.943181818181825  C 14.516223155929055 14.67803030303029  14.764239028944932 14.545454545454522  15.056022408963571 14.545454545454522  L 18.55742296918767 14.545454545454522  C 18.849206349206376 14.545454545454522  19.097222222222253 14.67803030303029  19.301470588235293 14.943181818181825  Z M 12.298669467787102 0.3977272727273045  C 12.502917833800211 0.6628787878787534  12.605042016806731 0.9848484848484638  12.605042016806731 1.3636363636363478  L 12.605042016806731 4.090909090909131  C 12.605042016806731 4.469696969696927  12.502917833800211 4.791666666666638  12.298669467787102 5.056818181818174  C 12.09442110177406 5.321969696969711  11.846405228758186 5.454545454545478  11.554621848739476 5.454545454545478  L 8.053221288515447 5.454545454545478  C 7.76143790849674 5.454545454545478  7.513422035480865 5.321969696969711  7.309173669467822 5.056818181818174  C 7.1049253034547135 4.791666666666638  7.002801120448192 4.469696969696927  7.002801120448192 4.090909090909131  L 7.002801120448192 1.3636363636363478  C 7.002801120448192 0.9848484848484638  7.1049253034547135 0.6628787878787534  7.309173669467822 0.3977272727273045  C 7.513422035480865 0.13257575757576817  7.76143790849674 0  8.053221288515447 0  L 11.554621848739476 0  C 11.846405228758186 0  12.09442110177406 0.13257575757576817  12.298669467787102 0.3977272727273045  Z M 19.301470588235293 7.670454545454522  C 19.505718954248405 7.935606060606057  19.607843137254925 8.257575757575768  19.607843137254925 8.636363636363653  L 19.607843137254925 11.363636363636347  C 19.607843137254925 11.742424242424232  19.505718954248405 12.064393939393943  19.301470588235293 12.329545454545478  C 19.097222222222253 12.594696969696928  18.849206349206376 12.727272727272696  18.55742296918767 12.727272727272696  L 15.056022408963571 12.727272727272696  C 14.764239028944932 12.727272727272696  14.516223155929055 12.594696969696928  14.311974789916013 12.329545454545478  C 14.107726423902903 12.064393939393943  14.005602240896383 11.742424242424232  14.005602240896383 11.363636363636347  L 14.005602240896383 8.636363636363653  C 14.005602240896383 8.257575757575768  14.107726423902903 7.935606060606057  14.311974789916013 7.670454545454522  C 14.516223155929055 7.405303030303073  14.764239028944932 7.272727272727304  15.056022408963571 7.272727272727304  L 18.55742296918767 7.272727272727304  C 18.849206349206376 7.272727272727304  19.097222222222253 7.405303030303073  19.301470588235293 7.670454545454522  Z M 19.301470588235293 0.3977272727273045  C 19.505718954248405 0.6628787878787534  19.607843137254925 0.9848484848484638  19.607843137254925 1.3636363636363478  L 19.607843137254925 4.090909090909131  C 19.607843137254925 4.469696969696927  19.505718954248405 4.791666666666638  19.301470588235293 5.056818181818174  C 19.097222222222253 5.321969696969711  18.849206349206376 5.454545454545478  18.55742296918767 5.454545454545478  L 15.056022408963571 5.454545454545478  C 14.764239028944932 5.454545454545478  14.516223155929055 5.321969696969711  14.311974789916013 5.056818181818174  C 14.107726423902903 4.791666666666638  14.005602240896383 4.469696969696927  14.005602240896383 4.090909090909131  L 14.005602240896383 1.3636363636363478  C 14.005602240896383 0.9848484848484638  14.107726423902903 0.6628787878787534  14.311974789916013 0.3977272727273045  C 14.516223155929055 0.13257575757576817  14.764239028944932 0  15.056022408963571 0  L 18.55742296918767 0  C 18.849206349206376 0  19.097222222222253 0.13257575757576817  19.301470588235293 0.3977272727273045  Z " fill-rule="evenodd" />
    </mask>
  </defs>
  <g transform="matrix(1 0 0 1 -345 -22 )">
    <path d="M 5.29586834733891 14.943181818181825  C 5.5001167133520195 15.20833333333336  5.60224089635854 15.530303030303072  5.60224089635854 15.909090909090867  L 5.60224089635854 18.636363636363654  C 5.60224089635854 19.015151515151537  5.5001167133520195 19.337121212121247  5.29586834733891 19.602272727272695  C 5.091619981325868 19.86742424242423  4.843604108309993 20  4.551820728291352 20  L 1.0504201680672556 20  C 0.7586367880485474 20  0.5106209150326723 19.86742424242423  0.3063725490196301 19.602272727272695  C 0.10212418300652108 19.337121212121247  0 19.015151515151537  0 18.636363636363654  L 0 15.909090909090867  C 0 15.530303030303072  0.10212418300652108 15.20833333333336  0.3063725490196301 14.943181818181825  C 0.5106209150326723 14.67803030303029  0.7586367880485474 14.545454545454522  1.0504201680672556 14.545454545454522  L 4.551820728291352 14.545454545454522  C 4.843604108309993 14.545454545454522  5.091619981325868 14.67803030303029  5.29586834733891 14.943181818181825  Z M 5.29586834733891 7.670454545454522  C 5.5001167133520195 7.935606060606057  5.60224089635854 8.257575757575768  5.60224089635854 8.636363636363653  L 5.60224089635854 11.363636363636347  C 5.60224089635854 11.742424242424232  5.5001167133520195 12.064393939393943  5.29586834733891 12.329545454545478  C 5.091619981325868 12.594696969696928  4.843604108309993 12.727272727272696  4.551820728291352 12.727272727272696  L 1.0504201680672556 12.727272727272696  C 0.7586367880485474 12.727272727272696  0.5106209150326723 12.594696969696928  0.3063725490196301 12.329545454545478  C 0.10212418300652108 12.064393939393943  0 11.742424242424232  0 11.363636363636347  L 0 8.636363636363653  C 0 8.257575757575768  0.10212418300652108 7.935606060606057  0.3063725490196301 7.670454545454522  C 0.5106209150326723 7.405303030303073  0.7586367880485474 7.272727272727304  1.0504201680672556 7.272727272727304  L 4.551820728291352 7.272727272727304  C 4.843604108309993 7.272727272727304  5.091619981325868 7.405303030303073  5.29586834733891 7.670454545454522  Z M 12.298669467787102 14.943181818181825  C 12.502917833800211 15.20833333333336  12.605042016806731 15.530303030303072  12.605042016806731 15.909090909090867  L 12.605042016806731 18.636363636363654  C 12.605042016806731 19.015151515151537  12.502917833800211 19.337121212121247  12.298669467787102 19.602272727272695  C 12.09442110177406 19.86742424242423  11.846405228758186 20  11.554621848739476 20  L 8.053221288515447 20  C 7.76143790849674 20  7.513422035480865 19.86742424242423  7.309173669467822 19.602272727272695  C 7.1049253034547135 19.337121212121247  7.002801120448192 19.015151515151537  7.002801120448192 18.636363636363654  L 7.002801120448192 15.909090909090867  C 7.002801120448192 15.530303030303072  7.1049253034547135 15.20833333333336  7.309173669467822 14.943181818181825  C 7.513422035480865 14.67803030303029  7.76143790849674 14.545454545454522  8.053221288515447 14.545454545454522  L 11.554621848739476 14.545454545454522  C 11.846405228758186 14.545454545454522  12.09442110177406 14.67803030303029  12.298669467787102 14.943181818181825  Z M 5.29586834733891 0.3977272727273045  C 5.5001167133520195 0.6628787878787534  5.60224089635854 0.9848484848484638  5.60224089635854 1.3636363636363478  L 5.60224089635854 4.090909090909131  C 5.60224089635854 4.469696969696927  5.5001167133520195 4.791666666666638  5.29586834733891 5.056818181818174  C 5.091619981325868 5.321969696969711  4.843604108309993 5.454545454545478  4.551820728291352 5.454545454545478  L 1.0504201680672556 5.454545454545478  C 0.7586367880485474 5.454545454545478  0.5106209150326723 5.321969696969711  0.3063725490196301 5.056818181818174  C 0.10212418300652108 4.791666666666638  0 4.469696969696927  0 4.090909090909131  L 0 1.3636363636363478  C 0 0.9848484848484638  0.10212418300652108 0.6628787878787534  0.3063725490196301 0.3977272727273045  C 0.5106209150326723 0.13257575757576817  0.7586367880485474 0  1.0504201680672556 0  L 4.551820728291352 0  C 4.843604108309993 0  5.091619981325868 0.13257575757576817  5.29586834733891 0.3977272727273045  Z M 12.298669467787102 7.670454545454522  C 12.502917833800211 7.935606060606057  12.605042016806731 8.257575757575768  12.605042016806731 8.636363636363653  L 12.605042016806731 11.363636363636347  C 12.605042016806731 11.742424242424232  12.502917833800211 12.064393939393943  12.298669467787102 12.329545454545478  C 12.09442110177406 12.594696969696928  11.846405228758186 12.727272727272696  11.554621848739476 12.727272727272696  L 8.053221288515447 12.727272727272696  C 7.76143790849674 12.727272727272696  7.513422035480865 12.594696969696928  7.309173669467822 12.329545454545478  C 7.1049253034547135 12.064393939393943  7.002801120448192 11.742424242424232  7.002801120448192 11.363636363636347  L 7.002801120448192 8.636363636363653  C 7.002801120448192 8.257575757575768  7.1049253034547135 7.935606060606057  7.309173669467822 7.670454545454522  C 7.513422035480865 7.405303030303073  7.76143790849674 7.272727272727304  8.053221288515447 7.272727272727304  L 11.554621848739476 7.272727272727304  C 11.846405228758186 7.272727272727304  12.09442110177406 7.405303030303073  12.298669467787102 7.670454545454522  Z M 19.301470588235293 14.943181818181825  C 19.505718954248405 15.20833333333336  19.607843137254925 15.530303030303072  19.607843137254925 15.909090909090867  L 19.607843137254925 18.636363636363654  C 19.607843137254925 19.015151515151537  19.505718954248405 19.337121212121247  19.301470588235293 19.602272727272695  C 19.097222222222253 19.86742424242423  18.849206349206376 20  18.55742296918767 20  L 15.056022408963571 20  C 14.764239028944932 20  14.516223155929055 19.86742424242423  14.311974789916013 19.602272727272695  C 14.107726423902903 19.337121212121247  14.005602240896383 19.015151515151537  14.005602240896383 18.636363636363654  L 14.005602240896383 15.909090909090867  C 14.005602240896383 15.530303030303072  14.107726423902903 15.20833333333336  14.311974789916013 14.943181818181825  C 14.516223155929055 14.67803030303029  14.764239028944932 14.545454545454522  15.056022408963571 14.545454545454522  L 18.55742296918767 14.545454545454522  C 18.849206349206376 14.545454545454522  19.097222222222253 14.67803030303029  19.301470588235293 14.943181818181825  Z M 12.298669467787102 0.3977272727273045  C 12.502917833800211 0.6628787878787534  12.605042016806731 0.9848484848484638  12.605042016806731 1.3636363636363478  L 12.605042016806731 4.090909090909131  C 12.605042016806731 4.469696969696927  12.502917833800211 4.791666666666638  12.298669467787102 5.056818181818174  C 12.09442110177406 5.321969696969711  11.846405228758186 5.454545454545478  11.554621848739476 5.454545454545478  L 8.053221288515447 5.454545454545478  C 7.76143790849674 5.454545454545478  7.513422035480865 5.321969696969711  7.309173669467822 5.056818181818174  C 7.1049253034547135 4.791666666666638  7.002801120448192 4.469696969696927  7.002801120448192 4.090909090909131  L 7.002801120448192 1.3636363636363478  C 7.002801120448192 0.9848484848484638  7.1049253034547135 0.6628787878787534  7.309173669467822 0.3977272727273045  C 7.513422035480865 0.13257575757576817  7.76143790849674 0  8.053221288515447 0  L 11.554621848739476 0  C 11.846405228758186 0  12.09442110177406 0.13257575757576817  12.298669467787102 0.3977272727273045  Z M 19.301470588235293 7.670454545454522  C 19.505718954248405 7.935606060606057  19.607843137254925 8.257575757575768  19.607843137254925 8.636363636363653  L 19.607843137254925 11.363636363636347  C 19.607843137254925 11.742424242424232  19.505718954248405 12.064393939393943  19.301470588235293 12.329545454545478  C 19.097222222222253 12.594696969696928  18.849206349206376 12.727272727272696  18.55742296918767 12.727272727272696  L 15.056022408963571 12.727272727272696  C 14.764239028944932 12.727272727272696  14.516223155929055 12.594696969696928  14.311974789916013 12.329545454545478  C 14.107726423902903 12.064393939393943  14.005602240896383 11.742424242424232  14.005602240896383 11.363636363636347  L 14.005602240896383 8.636363636363653  C 14.005602240896383 8.257575757575768  14.107726423902903 7.935606060606057  14.311974789916013 7.670454545454522  C 14.516223155929055 7.405303030303073  14.764239028944932 7.272727272727304  15.056022408963571 7.272727272727304  L 18.55742296918767 7.272727272727304  C 18.849206349206376 7.272727272727304  19.097222222222253 7.405303030303073  19.301470588235293 7.670454545454522  Z M 19.301470588235293 0.3977272727273045  C 19.505718954248405 0.6628787878787534  19.607843137254925 0.9848484848484638  19.607843137254925 1.3636363636363478  L 19.607843137254925 4.090909090909131  C 19.607843137254925 4.469696969696927  19.505718954248405 4.791666666666638  19.301470588235293 5.056818181818174  C 19.097222222222253 5.321969696969711  18.849206349206376 5.454545454545478  18.55742296918767 5.454545454545478  L 15.056022408963571 5.454545454545478  C 14.764239028944932 5.454545454545478  14.516223155929055 5.321969696969711  14.311974789916013 5.056818181818174  C 14.107726423902903 4.791666666666638  14.005602240896383 4.469696969696927  14.005602240896383 4.090909090909131  L 14.005602240896383 1.3636363636363478  C 14.005602240896383 0.9848484848484638  14.107726423902903 0.6628787878787534  14.311974789916013 0.3977272727273045  C 14.516223155929055 0.13257575757576817  14.764239028944932 0  15.056022408963571 0  L 18.55742296918767 0  C 18.849206349206376 0  19.097222222222253 0.13257575757576817  19.301470588235293 0.3977272727273045  Z " fill-rule="nonzero" fill="rgba(132, 89, 255, 1)" stroke="none" transform="matrix(1 0 0 1 345 22 )" class="fill" />
    <path d="M 5.29586834733891 14.943181818181825  C 5.5001167133520195 15.20833333333336  5.60224089635854 15.530303030303072  5.60224089635854 15.909090909090867  L 5.60224089635854 18.636363636363654  C 5.60224089635854 19.015151515151537  5.5001167133520195 19.337121212121247  5.29586834733891 19.602272727272695  C 5.091619981325868 19.86742424242423  4.843604108309993 20  4.551820728291352 20  L 1.0504201680672556 20  C 0.7586367880485474 20  0.5106209150326723 19.86742424242423  0.3063725490196301 19.602272727272695  C 0.10212418300652108 19.337121212121247  0 19.015151515151537  0 18.636363636363654  L 0 15.909090909090867  C 0 15.530303030303072  0.10212418300652108 15.20833333333336  0.3063725490196301 14.943181818181825  C 0.5106209150326723 14.67803030303029  0.7586367880485474 14.545454545454522  1.0504201680672556 14.545454545454522  L 4.551820728291352 14.545454545454522  C 4.843604108309993 14.545454545454522  5.091619981325868 14.67803030303029  5.29586834733891 14.943181818181825  Z " stroke-width="0" stroke-dasharray="0" stroke="rgba(255, 255, 255, 0)" fill="none" transform="matrix(1 0 0 1 345 22 )" class="stroke" mask="url(#Clip1728)" />
    <path d="M 5.29586834733891 7.670454545454522  C 5.5001167133520195 7.935606060606057  5.60224089635854 8.257575757575768  5.60224089635854 8.636363636363653  L 5.60224089635854 11.363636363636347  C 5.60224089635854 11.742424242424232  5.5001167133520195 12.064393939393943  5.29586834733891 12.329545454545478  C 5.091619981325868 12.594696969696928  4.843604108309993 12.727272727272696  4.551820728291352 12.727272727272696  L 1.0504201680672556 12.727272727272696  C 0.7586367880485474 12.727272727272696  0.5106209150326723 12.594696969696928  0.3063725490196301 12.329545454545478  C 0.10212418300652108 12.064393939393943  0 11.742424242424232  0 11.363636363636347  L 0 8.636363636363653  C 0 8.257575757575768  0.10212418300652108 7.935606060606057  0.3063725490196301 7.670454545454522  C 0.5106209150326723 7.405303030303073  0.7586367880485474 7.272727272727304  1.0504201680672556 7.272727272727304  L 4.551820728291352 7.272727272727304  C 4.843604108309993 7.272727272727304  5.091619981325868 7.405303030303073  5.29586834733891 7.670454545454522  Z " stroke-width="0" stroke-dasharray="0" stroke="rgba(255, 255, 255, 0)" fill="none" transform="matrix(1 0 0 1 345 22 )" class="stroke" mask="url(#Clip1728)" />
    <path d="M 12.298669467787102 14.943181818181825  C 12.502917833800211 15.20833333333336  12.605042016806731 15.530303030303072  12.605042016806731 15.909090909090867  L 12.605042016806731 18.636363636363654  C 12.605042016806731 19.015151515151537  12.502917833800211 19.337121212121247  12.298669467787102 19.602272727272695  C 12.09442110177406 19.86742424242423  11.846405228758186 20  11.554621848739476 20  L 8.053221288515447 20  C 7.76143790849674 20  7.513422035480865 19.86742424242423  7.309173669467822 19.602272727272695  C 7.1049253034547135 19.337121212121247  7.002801120448192 19.015151515151537  7.002801120448192 18.636363636363654  L 7.002801120448192 15.909090909090867  C 7.002801120448192 15.530303030303072  7.1049253034547135 15.20833333333336  7.309173669467822 14.943181818181825  C 7.513422035480865 14.67803030303029  7.76143790849674 14.545454545454522  8.053221288515447 14.545454545454522  L 11.554621848739476 14.545454545454522  C 11.846405228758186 14.545454545454522  12.09442110177406 14.67803030303029  12.298669467787102 14.943181818181825  Z " stroke-width="0" stroke-dasharray="0" stroke="rgba(255, 255, 255, 0)" fill="none" transform="matrix(1 0 0 1 345 22 )" class="stroke" mask="url(#Clip1728)" />
    <path d="M 5.29586834733891 0.3977272727273045  C 5.5001167133520195 0.6628787878787534  5.60224089635854 0.9848484848484638  5.60224089635854 1.3636363636363478  L 5.60224089635854 4.090909090909131  C 5.60224089635854 4.469696969696927  5.5001167133520195 4.791666666666638  5.29586834733891 5.056818181818174  C 5.091619981325868 5.321969696969711  4.843604108309993 5.454545454545478  4.551820728291352 5.454545454545478  L 1.0504201680672556 5.454545454545478  C 0.7586367880485474 5.454545454545478  0.5106209150326723 5.321969696969711  0.3063725490196301 5.056818181818174  C 0.10212418300652108 4.791666666666638  0 4.469696969696927  0 4.090909090909131  L 0 1.3636363636363478  C 0 0.9848484848484638  0.10212418300652108 0.6628787878787534  0.3063725490196301 0.3977272727273045  C 0.5106209150326723 0.13257575757576817  0.7586367880485474 0  1.0504201680672556 0  L 4.551820728291352 0  C 4.843604108309993 0  5.091619981325868 0.13257575757576817  5.29586834733891 0.3977272727273045  Z " stroke-width="0" stroke-dasharray="0" stroke="rgba(255, 255, 255, 0)" fill="none" transform="matrix(1 0 0 1 345 22 )" class="stroke" mask="url(#Clip1728)" />
    <path d="M 12.298669467787102 7.670454545454522  C 12.502917833800211 7.935606060606057  12.605042016806731 8.257575757575768  12.605042016806731 8.636363636363653  L 12.605042016806731 11.363636363636347  C 12.605042016806731 11.742424242424232  12.502917833800211 12.064393939393943  12.298669467787102 12.329545454545478  C 12.09442110177406 12.594696969696928  11.846405228758186 12.727272727272696  11.554621848739476 12.727272727272696  L 8.053221288515447 12.727272727272696  C 7.76143790849674 12.727272727272696  7.513422035480865 12.594696969696928  7.309173669467822 12.329545454545478  C 7.1049253034547135 12.064393939393943  7.002801120448192 11.742424242424232  7.002801120448192 11.363636363636347  L 7.002801120448192 8.636363636363653  C 7.002801120448192 8.257575757575768  7.1049253034547135 7.935606060606057  7.309173669467822 7.670454545454522  C 7.513422035480865 7.405303030303073  7.76143790849674 7.272727272727304  8.053221288515447 7.272727272727304  L 11.554621848739476 7.272727272727304  C 11.846405228758186 7.272727272727304  12.09442110177406 7.405303030303073  12.298669467787102 7.670454545454522  Z " stroke-width="0" stroke-dasharray="0" stroke="rgba(255, 255, 255, 0)" fill="none" transform="matrix(1 0 0 1 345 22 )" class="stroke" mask="url(#Clip1728)" />
    <path d="M 19.301470588235293 14.943181818181825  C 19.505718954248405 15.20833333333336  19.607843137254925 15.530303030303072  19.607843137254925 15.909090909090867  L 19.607843137254925 18.636363636363654  C 19.607843137254925 19.015151515151537  19.505718954248405 19.337121212121247  19.301470588235293 19.602272727272695  C 19.097222222222253 19.86742424242423  18.849206349206376 20  18.55742296918767 20  L 15.056022408963571 20  C 14.764239028944932 20  14.516223155929055 19.86742424242423  14.311974789916013 19.602272727272695  C 14.107726423902903 19.337121212121247  14.005602240896383 19.015151515151537  14.005602240896383 18.636363636363654  L 14.005602240896383 15.909090909090867  C 14.005602240896383 15.530303030303072  14.107726423902903 15.20833333333336  14.311974789916013 14.943181818181825  C 14.516223155929055 14.67803030303029  14.764239028944932 14.545454545454522  15.056022408963571 14.545454545454522  L 18.55742296918767 14.545454545454522  C 18.849206349206376 14.545454545454522  19.097222222222253 14.67803030303029  19.301470588235293 14.943181818181825  Z " stroke-width="0" stroke-dasharray="0" stroke="rgba(255, 255, 255, 0)" fill="none" transform="matrix(1 0 0 1 345 22 )" class="stroke" mask="url(#Clip1728)" />
    <path d="M 12.298669467787102 0.3977272727273045  C 12.502917833800211 0.6628787878787534  12.605042016806731 0.9848484848484638  12.605042016806731 1.3636363636363478  L 12.605042016806731 4.090909090909131  C 12.605042016806731 4.469696969696927  12.502917833800211 4.791666666666638  12.298669467787102 5.056818181818174  C 12.09442110177406 5.321969696969711  11.846405228758186 5.454545454545478  11.554621848739476 5.454545454545478  L 8.053221288515447 5.454545454545478  C 7.76143790849674 5.454545454545478  7.513422035480865 5.321969696969711  7.309173669467822 5.056818181818174  C 7.1049253034547135 4.791666666666638  7.002801120448192 4.469696969696927  7.002801120448192 4.090909090909131  L 7.002801120448192 1.3636363636363478  C 7.002801120448192 0.9848484848484638  7.1049253034547135 0.6628787878787534  7.309173669467822 0.3977272727273045  C 7.513422035480865 0.13257575757576817  7.76143790849674 0  8.053221288515447 0  L 11.554621848739476 0  C 11.846405228758186 0  12.09442110177406 0.13257575757576817  12.298669467787102 0.3977272727273045  Z " stroke-width="0" stroke-dasharray="0" stroke="rgba(255, 255, 255, 0)" fill="none" transform="matrix(1 0 0 1 345 22 )" class="stroke" mask="url(#Clip1728)" />
    <path d="M 19.301470588235293 7.670454545454522  C 19.505718954248405 7.935606060606057  19.607843137254925 8.257575757575768  19.607843137254925 8.636363636363653  L 19.607843137254925 11.363636363636347  C 19.607843137254925 11.742424242424232  19.505718954248405 12.064393939393943  19.301470588235293 12.329545454545478  C 19.097222222222253 12.594696969696928  18.849206349206376 12.727272727272696  18.55742296918767 12.727272727272696  L 15.056022408963571 12.727272727272696  C 14.764239028944932 12.727272727272696  14.516223155929055 12.594696969696928  14.311974789916013 12.329545454545478  C 14.107726423902903 12.064393939393943  14.005602240896383 11.742424242424232  14.005602240896383 11.363636363636347  L 14.005602240896383 8.636363636363653  C 14.005602240896383 8.257575757575768  14.107726423902903 7.935606060606057  14.311974789916013 7.670454545454522  C 14.516223155929055 7.405303030303073  14.764239028944932 7.272727272727304  15.056022408963571 7.272727272727304  L 18.55742296918767 7.272727272727304  C 18.849206349206376 7.272727272727304  19.097222222222253 7.405303030303073  19.301470588235293 7.670454545454522  Z " stroke-width="0" stroke-dasharray="0" stroke="rgba(255, 255, 255, 0)" fill="none" transform="matrix(1 0 0 1 345 22 )" class="stroke" mask="url(#Clip1728)" />
    <path d="M 19.301470588235293 0.3977272727273045  C 19.505718954248405 0.6628787878787534  19.607843137254925 0.9848484848484638  19.607843137254925 1.3636363636363478  L 19.607843137254925 4.090909090909131  C 19.607843137254925 4.469696969696927  19.505718954248405 4.791666666666638  19.301470588235293 5.056818181818174  C 19.097222222222253 5.321969696969711  18.849206349206376 5.454545454545478  18.55742296918767 5.454545454545478  L 15.056022408963571 5.454545454545478  C 14.764239028944932 5.454545454545478  14.516223155929055 5.321969696969711  14.311974789916013 5.056818181818174  C 14.107726423902903 4.791666666666638  14.005602240896383 4.469696969696927  14.005602240896383 4.090909090909131  L 14.005602240896383 1.3636363636363478  C 14.005602240896383 0.9848484848484638  14.107726423902903 0.6628787878787534  14.311974789916013 0.3977272727273045  C 14.516223155929055 0.13257575757576817  14.764239028944932 0  15.056022408963571 0  L 18.55742296918767 0  C 18.849206349206376 0  19.097222222222253 0.13257575757576817  19.301470588235293 0.3977272727273045  Z " stroke-width="0" stroke-dasharray="0" stroke="rgba(255, 255, 255, 0)" fill="none" transform="matrix(1 0 0 1 345 22 )" class="stroke" mask="url(#Clip1728)" />
  </g>
</svg>