<?xml version="1.0" encoding="utf-8"?>
<svg version="1.1" xmlns:xlink="http://www.w3.org/1999/xlink" width="4px" height="4px" xmlns="http://www.w3.org/2000/svg">
  <defs>
    <pattern id="BGPattern" patternUnits="userSpaceOnUse" alignment="0 0" imageRepeat="None" />
    <mask fill="white" id="Clip1309">
      <path d="M 3.8146484375000007 2.53125  L 3.1595703125000014 2.53125  L 3.1595703125000014 1.65234375  L 3.7791015624999993 1.65234375  L 3.7791015624999993 0.9468750000000004  L 3.1595703125000014 0.9468750000000004  L 3.1595703125000014 0.027929687500000355  L 2.4384765625 0.027929687500000355  L 2.4384765625 0.9470703125000028  L 1.849414062500001 0.9470703125000028  L 1.849414062500001 0.03808593750000355  L 1.1283203125000014 0.03808593750000355  L 1.1283203125000014 0.9470703125000028  L 0.6205078125000014 0.9470703125000028  L 0.6205078125000014 1.65234375  L 1.1283203125000014 1.65234375  L 1.1283203125000014 2.53125  L 0.49882812500000284 2.53125  L 0.49882812500000284 3.2523437499999996  L 3.8146484375000007 3.2523437499999996  L 3.8146484375000007 2.53125  Z M 2.4384765625 1.65234375  L 2.4384765625 2.53125  L 1.849414062500001 2.53125  L 1.849414062500001 1.65234375  L 2.4384765625 1.65234375  Z " fill-rule="evenodd" />
    </mask>
  </defs>
  <g transform="matrix(1 0 0 1 -35 -626 )">
    <path d="M 3.8146484375000007 2.53125  L 3.1595703125000014 2.53125  L 3.1595703125000014 1.65234375  L 3.7791015624999993 1.65234375  L 3.7791015624999993 0.9468750000000004  L 3.1595703125000014 0.9468750000000004  L 3.1595703125000014 0.027929687500000355  L 2.4384765625 0.027929687500000355  L 2.4384765625 0.9470703125000028  L 1.849414062500001 0.9470703125000028  L 1.849414062500001 0.03808593750000355  L 1.1283203125000014 0.03808593750000355  L 1.1283203125000014 0.9470703125000028  L 0.6205078125000014 0.9470703125000028  L 0.6205078125000014 1.65234375  L 1.1283203125000014 1.65234375  L 1.1283203125000014 2.53125  L 0.49882812500000284 2.53125  L 0.49882812500000284 3.2523437499999996  L 3.8146484375000007 3.2523437499999996  L 3.8146484375000007 2.53125  Z M 2.4384765625 1.65234375  L 2.4384765625 2.53125  L 1.849414062500001 2.53125  L 1.849414062500001 1.65234375  L 2.4384765625 1.65234375  Z " fill-rule="nonzero" fill="rgba(255, 255, 255, 1)" stroke="none" transform="matrix(1 0 0 1 35 626 )" class="fill" />
    <path d="M 3.8146484375000007 2.53125  L 3.1595703125000014 2.53125  L 3.1595703125000014 1.65234375  L 3.7791015624999993 1.65234375  L 3.7791015624999993 0.9468750000000004  L 3.1595703125000014 0.9468750000000004  L 3.1595703125000014 0.027929687500000355  L 2.4384765625 0.027929687500000355  L 2.4384765625 0.9470703125000028  L 1.849414062500001 0.9470703125000028  L 1.849414062500001 0.03808593750000355  L 1.1283203125000014 0.03808593750000355  L 1.1283203125000014 0.9470703125000028  L 0.6205078125000014 0.9470703125000028  L 0.6205078125000014 1.65234375  L 1.1283203125000014 1.65234375  L 1.1283203125000014 2.53125  L 0.49882812500000284 2.53125  L 0.49882812500000284 3.2523437499999996  L 3.8146484375000007 3.2523437499999996  L 3.8146484375000007 2.53125  Z " stroke-width="0" stroke-dasharray="0" stroke="rgba(255, 255, 255, 0)" fill="none" transform="matrix(1 0 0 1 35 626 )" class="stroke" mask="url(#Clip1309)" />
    <path d="M 2.4384765625 1.65234375  L 2.4384765625 2.53125  L 1.849414062500001 2.53125  L 1.849414062500001 1.65234375  L 2.4384765625 1.65234375  Z " stroke-width="0" stroke-dasharray="0" stroke="rgba(255, 255, 255, 0)" fill="none" transform="matrix(1 0 0 1 35 626 )" class="stroke" mask="url(#Clip1309)" />
  </g>
</svg>