<?xml version="1.0" encoding="utf-8"?>
<svg version="1.1" xmlns:xlink="http://www.w3.org/1999/xlink" width="5px" height="9px" xmlns="http://www.w3.org/2000/svg">
  <g transform="matrix(1 0 0 1 -17 -20 )">
    <path d="M 4.951749999999947 7.932881454545509  C 4.951749999999947 8.494743272727305  4.515250000000037 8.951982545454598  3.978749999999991 8.951982545454598  L 1.0537500000000364 8.951982545454598  C 0.51724999999999 8.951982545454598  0.08074999999996635 8.494848000000047  0.08074999999996635 7.932986181818137  L 0.08074999999996635 1.0472727272726843  C 0.08074999999996635 0.4854109090908878  0.51724999999999 0.02827636363633701  1.0537500000000364 0.02827636363633701  L 3.978749999999991 0.02827636363633701  C 4.515250000000037 0.02827636363633701  4.951749999999947 0.4854109090908878  4.951749999999947 1.0472727272726843  L 4.951749999999947 7.932881454545509  Z M 3.978749999999991 1.0189963636363473  L 1.0537500000000364 1.0189963636363473  C 1.0388383117546027 1.0189963636363473  1.0267499999999927 1.0316561228556793  1.0267499999999927 1.0472727272726843  L 1.0267499999999927 7.932881454545395  C 1.0267499999999927 7.948381090909038  1.038850000000025 7.961157818181846  1.0537500000000364 7.961157818181846  L 3.978749999999991 7.961157818181846  C 3.9936616882454246 7.961157818181846  4.005750000000035 7.948498058962514  4.005750000000035 7.932881454545395  L 4.005750000000035 1.0472727272726843  C 4.005750000000035 1.0316561228556793  3.9936616882454246 1.0189963636363473  3.978749999999991 1.0189963636363473  Z " fill-rule="nonzero" fill="#999999" stroke="none" transform="matrix(1 0 0 1 17 20 )" />
  </g>
</svg>