<?xml version="1.0" encoding="utf-8"?>
<svg version="1.1" xmlns:xlink="http://www.w3.org/1999/xlink" width="17px" height="16px" xmlns="http://www.w3.org/2000/svg">
  <g transform="matrix(1 0 0 1 -17 -15 )">
    <path d="M 12.09861551020407 10.416204255319144  L 12.0995036734694 10.4183829787234  C 11.980490764181638 12.397912116949101  10.853745519366925 14.18561396723075  9.101952653061232 15.174318297872333  C 6.241622857142858 16.7935455319149  2.591715918367356 15.843404255319143  0.9506122448979681 13.060738723404256  C -0.4482448979591709 10.690941276595737  0.06244897959183504 7.756418723404252  2.005750204081636 5.928905531914893  C 2.005750204081636 6.160503829787231  2.0454955102040913 6.7110672340425594  2.2084734693877692 7.300194042553187  C 1.076685737675973 8.808323081172801  0.9619068766283192 10.830767357096093  1.9160457142857013 12.452874893617022  C 3.2405191836734843 14.709814468085114  6.20720653061224 15.476725106382986  8.532862040816326 14.159468936170214  C 9.944180881326986 13.363876505266518  10.857760481464567 11.929656220177293  10.968205714285716 10.336245106382975  C 10.52010281105197 10.09927642919294  10.240709405470568 9.640097644343598  10.240709405470568 9.140616060060296  C 10.240709405470568 8.653270258613773  10.50680796076307 8.203279564700438  10.938008163265295 7.961436595744686  C 11.147908878189014 7.843029342453832  11.385790157669504 7.780715580166913  11.627906266620244 7.780715580166913  C 12.392380169870108 7.780715580166913  13.012108715599851 8.388809672597588  13.012108715599851 9.138931750379683  C 13.012108715599851 9.710962693776864  12.646848171824672 10.221680504207797  12.09861551020407 10.416204255319144  Z M 5.102775510204083 10.861971063829785  C 3.369868150545301 9.781345532535582  2.3211045136935695 7.905696984341077  2.323268571428571 5.8909957446808505  C 2.323268571428571 2.6521055319148985  4.973325714285721 0.01998978723403866  8.256643265306138 0.01998978723403866  C 11.045697959183684 0.01998978723403866  13.385786122448991 1.9183114893616988  14.01971265306122 4.478747234042558  C 13.605915784579423 4.2654851905078175  13.169704401656645 4.097023139990313  12.718775510204068 3.9763336170212824  C 11.96383673469387 2.308738723404261  10.272329795918381 1.1439931914893577  8.31370775510203 1.1439931914893577  C 5.647885714285707 1.1439931914893577  3.492979591836729 3.2811029787234105  3.492979591836729 5.914308085106384  C 3.4906346648583906 7.516581628838935  4.306350018222076 9.013500211633044  5.665648979591822 9.901371914893616  C 5.903391111658209 9.731173942239394  6.1900788817867465 9.639462369724882  6.484370776864608 9.639462369724882  C 7.251542534761825 9.639462369724882  7.8734581238034025 10.249702447082313  7.8734581238034025 11.002471731427008  C 7.8734581238034025 11.755241015771688  7.251542534761825 12.365481093129134  6.484370776864608 12.365481093129134  C 5.71719901896742 12.365481093129134  5.095283429925843 11.755241015771688  5.095283429925843 11.002471731427008  C 5.095283429925843 10.955252152585842  5.097784161961641 10.908064473230155  5.102775510204083 10.861099574468085  Z M 8.119644081632657 4.556309787234042  L 8.120754285714298 4.557617021276599  C 9.930209641015352 3.6521812861927287  12.084293399304642 3.709612809242472  13.840969795918369 4.710127659574468  C 16.703075918367347 6.336762553191491  17.694488163265305 9.909868936170213  16.051386122448974 12.693623829787242  C 14.646533877551008 15.077800851063827  11.776878367346939 16.11421957446808  9.183219591836746 15.348398297872336  C 9.583611403922333 15.1060779275018  9.954716631738961 14.820000590879005  10.289426938775506 14.495645957446811  C 12.202319579382419 14.722264674106839  14.068962298261141 13.809249619625447  15.035993469387762 12.173998297872345  C 16.360244897959177 9.915969361702125  15.55623510204083 7.01325617021277  13.231911836734696 5.697089361702126  C 11.856856263986685 4.911407221406478  10.176708417516778 4.836762903136048  8.734919183673469 5.497300425531918  C 8.745513206962784 5.5656263692354315  8.750832912990631 5.634639849400514  8.750832912990631 5.70375202959265  C 8.750832912990631 6.461815727062529  8.124543237325355 7.076347774273501  7.3519757701334925 7.076347774273501  C 6.5794083029416015 7.076347774273501  5.953118627276353 6.461815727062529  5.953118627276353 5.70375202959265  C 5.953118627276353 4.945688332122785  6.5794083029416015 4.331156284911799  7.3519757701334925 4.331156284911799  C 7.624764951804025 4.331156284911799  7.891601825549458 4.40941828397122  8.119644081632657 4.556309787234042  Z " fill-rule="nonzero" fill="#666666" stroke="none" transform="matrix(1 0 0 1 17 15 )" />
  </g>
</svg>