<?xml version="1.0" encoding="utf-8"?>
<svg version="1.1" xmlns:xlink="http://www.w3.org/1999/xlink" width="5px" height="6px" xmlns="http://www.w3.org/2000/svg">
  <defs>
    <pattern id="BGPattern" patternUnits="userSpaceOnUse" alignment="0 0" imageRepeat="None" />
    <mask fill="white" id="Clip1420">
      <path d="M 0.9793541682242983 2.3183190280373793  C 0.9793541682242983 1.217718448598129  1.8798455514018677 0.31722706542056045  2.9804461308411216 0.31722706542056045  C 4.081046710280374 0.31722706542056045  4.981538093457944 1.217718448598129  4.981538093457944 2.3183190280373793  L 4.981538093457944 5.570093457943919  L 0.9793541682242983 5.570093457943919  L 0.9793541682242983 2.3183190280373793  Z " fill-rule="evenodd" />
    </mask>
  </defs>
  <g transform="matrix(1 0 0 1 -254 -34 )">
    <path d="M 0.9793541682242983 2.3183190280373793  C 0.9793541682242983 1.217718448598129  1.8798455514018677 0.31722706542056045  2.9804461308411216 0.31722706542056045  C 4.081046710280374 0.31722706542056045  4.981538093457944 1.217718448598129  4.981538093457944 2.3183190280373793  L 4.981538093457944 5.570093457943919  L 0.9793541682242983 5.570093457943919  L 0.9793541682242983 2.3183190280373793  Z " fill-rule="nonzero" fill="rgba(251, 67, 49, 1)" stroke="none" transform="matrix(1 0 0 1 254 34 )" class="fill" />
    <path d="M 0.9793541682242983 2.3183190280373793  C 0.9793541682242983 1.217718448598129  1.8798455514018677 0.31722706542056045  2.9804461308411216 0.31722706542056045  C 4.081046710280374 0.31722706542056045  4.981538093457944 1.217718448598129  4.981538093457944 2.3183190280373793  L 4.981538093457944 5.570093457943919  L 0.9793541682242983 5.570093457943919  L 0.9793541682242983 2.3183190280373793  Z " stroke-width="0" stroke-dasharray="0" stroke="rgba(255, 255, 255, 0)" fill="none" transform="matrix(1 0 0 1 254 34 )" class="stroke" mask="url(#Clip1420)" />
  </g>
</svg>