<?xml version="1.0" encoding="utf-8"?>
<svg version="1.1" xmlns:xlink="http://www.w3.org/1999/xlink" width="17px" height="17px" xmlns="http://www.w3.org/2000/svg">
  <g transform="matrix(1 0 0 1 -17 -14 )">
    <path d="M 1.6072124714912661 8.5  C 1.6072124714912661 4.682456140350837  4.682456140350837 1.6072124714912661  8.5 1.6072124714912661  C 12.317543859649163 1.6072124714912661  15.392787528508734 4.682456140350837  15.392787528508734 8.5  C 15.392787528508734 12.317543859649163  12.317543859649163 15.392787528508734  8.5 15.392787528508734  C 4.682456140350837 15.392787528508734  1.6072124714912661 12.317543859649163  1.6072124714912661 8.5  Z M 16.98343079714914 8.5  C 16.98343079714914 3.8341130625000233  13.165886937499977 0.016569202850860165  8.5 0.016569202850860165  C 3.8341130625000233 0.016569202850860165  0.016569202850860165 3.8341130625000233  0.016569202850860165 8.5  C 0.016569202850860165 13.165886937499977  3.8341130625000233 16.98343079714914  8.5 16.98343079714914  C 13.165886937499977 16.98343079714914  16.98343079714914 13.165886937499977  16.98343079714914 8.5  Z " fill-rule="nonzero" fill="#666666" stroke="none" transform="matrix(1 0 0 1 17 14 )" />
  </g>
</svg>