<?xml version="1.0" encoding="utf-8"?>
<svg version="1.1" xmlns:xlink="http://www.w3.org/1999/xlink" width="10px" height="10px" xmlns="http://www.w3.org/2000/svg">
  <g transform="matrix(1 0 0 1 -21 -18 )">
    <path d="M 3.9225589204545486 2.657004836956503  C 3.9225589204545486 2.0901771376811666  4.407407405303047 1.626409021739164  5 1.626409021739164  C 5.592592594696953 1.626409021739164  6.077441079545451 2.0901771376811666  6.077441079545451 2.657004836956503  C 6.077441079545451 3.223832536231839  5.592592594696953 3.6876006521739555  5 3.6876006521739555  C 4.407407405303047 3.6876006521739555  3.9225589204545486 3.223832536231839  3.9225589204545486 2.657004836956503  Z M 7.69360268939397 2.657004836956503  C 7.69360268939397 1.2141707065217133  6.5084174999999505 0.08051530797104078  5 0.08051528985504319  C 3.4915825000000495 0.08051528985504319  2.3063973106060303 1.2141706884058294  2.3063973106060303 2.657004836956503  C 2.3063973106060303 4.09983898550729  3.4915825000000495 5.233494365942079  5 5.233494365942079  C 6.5084174999999505 5.233494365942079  7.69360268939397 4.0998389673912925  7.69360268939397 2.657004836956503  Z M 9.956228958333327 8.943639293478213  C 9.148148143939352 7.037037047101421  7.262626268939357 5.748792264492749  5 5.748792264492749  C 2.737373731060643 5.748792264492749  0.8518518560606481 7.037037028985537  0.04377104166667323 8.943639293478213  C 0.4208754166667177 9.304347826086996  0.9057239015151026 9.665056358695665  1.3905723863636013 9.922705307971  C 1.8215488257575316 8.428341376811545  3.2760942803030275 7.294685978260873  5 7.2946859963767565  C 6.7239057196969725 7.294686014492754  8.178451174242468 8.428341394927543  8.609427613636399 9.922705307971  C 9.094276098484897 9.665056358695665  9.525252537878828 9.304347826086996  9.956228958333327 8.943639293478213  Z " fill-rule="nonzero" fill="#666666" stroke="none" transform="matrix(1 0 0 1 21 18 )" />
  </g>
</svg>