<?xml version="1.0" encoding="utf-8"?>
<svg version="1.1" xmlns:xlink="http://www.w3.org/1999/xlink" width="11px" height="8px" xmlns="http://www.w3.org/2000/svg">
  <g transform="matrix(1 0 0 1 -19 -14 )">
    <path d="M 0.4273288321420523 7.050630081559348  C 0.42323627917971857 7.074162285714237  0.4191437105166642 7.101973067966128  0.41914372621738494 7.129783866632465  C 0.41914372621738494 7.465652616568377  0.6810673984188043 7.739481910233394  1.0023331592269642 7.739481910233394  L 9.199725692161905 7.739481910233394  C 9.21404963538032 7.739481910233394  9.228373594299569 7.739481910233394  9.24474382184951 7.737342612977727  C 9.263160333731093 7.735203315721947  9.283623114243369 7.73092473762506  9.299993357494145 7.726646159528059  L 9.308178463418699 7.724506878686839  C 9.596703769126975 7.668885297768611  9.805424190015287 7.395056004103594  9.784961409503012 7.082719458322686  C 9.782915125171485 7.059187254167682  9.61716654963925 5.084621303924109  10.632120799045424 0.8595208125160525  C 10.632120799045424 0.8552422344190518  10.632120799045424 0.8509636399077181  10.63416706767623 0.8466850618107173  C 10.638259620638564 0.8274314357527146  10.640305904970091 0.8060385288536054  10.642352189301619 0.7846456219543825  C 10.644398473633146 0.7653919958963797  10.64849102659548 0.74185979174149  10.64849102659548 0.7204668848422671  L 10.64849102659548 0.7097704149781521  C 10.64849102659548 0.6969346642729306  10.644398473633146 0.6840989135675954  10.644398473633146 0.6691238820210401  C 10.642352189301619 0.6477309751218172  10.642352189301619 0.6220594737112606  10.638259636339285 0.6006665668120377  C 10.634167083376951 0.5814129407540349  10.630074514713897 0.5621593146960322  10.623935677420036 0.54504498589381  C 10.619843124457816 0.5257913598358073  10.613704287163955 0.504398452936698  10.607565449870094 0.4872841241343622  C 10.601426612576233 0.4680304980764731  10.59324150665168 0.45091616927413725  10.585056385026292 0.4316625432162482  C 10.576871263400903 0.4145482144139123  10.568686157476236 0.39529458835602327  10.560501035850848 0.38031954039502125  C 10.550269645594767 0.3653445088484659  10.540038255338573 0.3503694608873502  10.525714296419324 0.333255132085128  C 10.513436621831715 0.3182801005385727  10.50320523157552 0.3033050525775707  10.488881288357106 0.2861907237753485  C 10.476603613769385 0.27335497307001333  10.46227967055097 0.26051922236467817  10.447955711631721 0.24554419081812284  C 10.433631768413306 0.23270844011290137  10.41726152516253 0.2198726894075662  10.402937581944116 0.20703693870223105  C 10.388613638725701 0.19634048525267644  10.370197126844118 0.18778331264422832  10.353826883593342 0.1770868591946737  C 10.339502940374928 0.1663904057450054  10.321086428493345 0.15783323313667097  10.304716200943403 0.14927607694278322  C 10.28629968906182 0.14071890433444878  10.263790624218018 0.1343010453962279  10.243327843705742 0.1278831700435603  C 10.23105016911802 0.12360459194667328  10.22081877886194 0.1171867165940057  10.204448551311884 0.1129081220825583  C 10.200355998349664 0.1129081220825583  10.196263429686496 0.1129081220825583  10.192170876724276 0.11076882482689143  C 10.173754364842694 0.10649024672989071  10.153291584330418 0.10435094947422385  10.132828788117308 0.10221166863300368  C 10.11441227623584 0.10007237137722313  10.091903211392037 0.09793309053600296  10.073486699510454 0.0957937932803361  L 1.8781404509071533 0.0957937932803361  C 1.863816507688739 0.0957937932803361  1.8515388331010172 0.10007237137722313  1.835168589850241 0.10007237137722313  C 1.8147058093379655 0.10221166863300368  1.7921967444941627 0.10221166863300368  1.7737802326125802 0.10649024672989071  C 1.7553637207311112 0.11076882482689143  1.7349009402188356 0.11504741933833884  1.7164844283372531 0.12146529469089273  C 1.7001142007873113 0.12574387278789345  1.6816976889057287 0.13002246729934086  1.665327461355787 0.13644032623744806  C 1.6469109494742042 0.1449974988458962  1.6264481689619286 0.15355465503978394  1.6080316570804598 0.16425112490378524  C 1.5937077138619318 0.17280829751223337  1.5793837549426826 0.17922615645034057  1.5630135273927408 0.187783329058675  C 1.546643299842799 0.1984797825083433  1.5302730722927436 0.21131553321367846  1.5139028290419676 0.2262905647602338  C 1.4995788858235528 0.2369870182097884  1.485254926904304 0.2476834716594567  1.4729772680174165 0.2626585196204587  C 1.458653324799002 0.2754942703256802  1.4484219188420866 0.2904693018722355  1.4340979599228376 0.3075836470890181  C 1.4218202853351158 0.3225586786355734  1.411588895079035 0.3353944293409086  1.3993112204913134 0.35250875814313076  C 1.3890798302352323 0.3674837896896861  1.3788484399790377 0.3888767130033557  1.366570765391316 0.4059910418055779  C 1.3583856437659279 0.4209660733521332  1.348154253509847 0.44021969941013595  1.342015416215986 0.4573340446268048  C 1.333830294590598 0.47658767068480756  1.3276914729975715 0.5001198748396973  1.3215526357037106 0.5215127817389202  C 1.317460082741377 0.5343485324442554  1.311321245447516 0.54504498589381  1.307228692485296 0.5621593146960322  C 0.3761718808613069 4.466366087714846  0.40072721433591596 6.532921573736871  0.4273288321420523 7.050630081559348  Z M 2.3262754791529687 2.1302599025391373  C 2.3262754791529687 1.8115054814054474  2.5779677610981935 1.546233360348765  2.8849095786879393 1.546233360348765  L 8.182725174124926 1.546233360348765  C 8.48966697601395 1.546233360348765  8.741359257959061 1.8093662005642273  8.741359257959061 2.1302599025391373  C 8.741359257959061 2.4511536045139337  8.48966697601395 2.714286444729396  8.182725174124926 2.714286444729396  L 2.8849095786879393 2.714286444729396  C 2.577967776798914 2.714286444729396  2.326275494853803 2.4511536045139337  2.3262754791529687 2.1302599025391373  Z M 1.9456676454386752 5.2065609192100055  C 1.9456676454386752 4.887806498076429  2.1973599273837863 4.622534377019747  2.504301729272811 4.6225343606053  L 7.802117324709799 4.6225343606053  C 8.109059126598822 4.6225343606053  8.360751408544047 4.8856672008207624  8.360751424244768 5.2065609192100055  C 8.360751439945602 5.527454637599362  8.109059142299543 5.790587461400378  7.802117324709799 5.790587461400378  L 2.504301729272811 5.790587461400378  C 2.1973599273837863 5.790587461400378  1.9456676454386752 5.527454621184916  1.9456676454386752 5.2065609192100055  Z " fill-rule="nonzero" fill="#666666" stroke="none" transform="matrix(1 0 0 1 19 14 )" />
  </g>
</svg>