<?xml version="1.0" encoding="utf-8"?>
<svg version="1.1" xmlns:xlink="http://www.w3.org/1999/xlink" width="17px" height="9px" xmlns="http://www.w3.org/2000/svg">
  <g transform="matrix(1 0 0 1 -16 -21 )">
    <path d="M 16.55729465720549 1.2315902219030477  C 16.561335536519323 0.6231757517311962  16.0461228581687 0.13028302313409768  15.407663244478613 0.11680547996922996  L 15.407663244478613 1.2161873259809681  L 1.5534933789290335 1.2161873259809681  L 1.5534933789290335 0.11680547996922996  C 0.9130133023281815 0.13028300836117523  0.3978006394802378 0.6231757517311962  0.3978006394802378 1.2296648543729134  L 0.3978006394802378 7.799000844113834  C 0.3978006394802378 8.415116769633187  0.9271564031803337 8.913785586047652  1.5777386858168256 9  L 15.377356610868901 9  C 16.029959325411028 8.913785586047652  16.55729465720549 8.413191402103052  16.55729465720549 7.799000844113834  L 16.55729465720549 1.2315902219030477  Z M 14.251970489527253 5.3403132593998635  L 14.251970489527253 6.4416204581688135  C 14.251970489527253 6.73427552500641  14.130743970590743 7.013453048679139  13.912536255108193 7.21946681302893  C 13.696348971531165 7.425480577378835  13.401364456071406 7.542927671710686  13.096277750078343 7.542927671710686  L 3.8628584259212175 7.542927671710686  C 3.555751257017505 7.542927671710686  3.262787188965831 7.427405930135933  3.046599920891367 7.21946681302893  C 2.8304126373144527 7.013453048679139  2.707165686472308 6.732350157476276  2.707165686472308 6.4416204581688135  L 2.707165686472308 5.3403132593998635  L 14.251970489527253 5.3403132593998635  Z M 15.118740055740773 2.5889706078481822  C 15.118740055740773 2.8970285706078585  14.860123500612644 3.1415495673762734  14.540893678265093 3.1415495673762734  C 14.334808600723818 3.1415495673762734  14.142866624034696 3.037580001436254  14.041844548174709 2.866222763990777  C 13.938802009404071 2.6948655265453  13.938802009404071 2.4850010419081627  14.041844548174709 2.31556917199282  C 14.144887086945346 2.144211934547343  14.334808616226383 2.0402423686073234  14.540893678265093 2.0402423686073234  C 14.858103053204559 2.0402423686073234  15.118740055740773 2.2866887329058727  15.118740055740773 2.5889706078481822  Z " fill-rule="nonzero" fill="#666666" stroke="none" transform="matrix(1 0 0 1 16 21 )" />
  </g>
</svg>