<svg t="1750224448410" class="icon" viewBox="0 0 1024 1024" version="1.1" xmlns="http://www.w3.org/2000/svg" p-id="20745" width="20" height="20"><path d="M370.193809 131.458007" p-id="20746" fill="#515151"></path><path d="M931.752528 537.89681l-839.111083 0c-8.876158 0-17.119913-4.595668-21.787212-12.146645s-5.090948-16.97972-1.121544-24.919553l209.777771-419.555541c4.338818-8.676613 13.20679-14.157441 22.907733-14.157441l419.555541 0c9.700943 0 18.568914 5.480828 22.907733 14.157441l209.777771 419.555541c3.970428 7.939833 3.545756 17.368576-1.121544 24.919553C948.873464 533.301142 940.629709 537.89681 931.752528 537.89681zM134.082276 486.673172l756.22942 0L706.145234 118.341269 318.247716 118.341269 134.082276 486.673172z" p-id="20747" fill="#515151"></path><path d="M512.196986 957.452351c-14.145162 0-25.611308-11.466146-25.611308-25.611308l0-419.555541c0-14.145162 11.466146-25.611308 25.611308-25.611308s25.611308 11.467169 25.611308 25.611308l0 419.555541C537.809317 945.986205 526.342148 957.452351 512.196986 957.452351z" p-id="20748" fill="#515151"></path><path d="M791.901363 957.452351 232.49261 957.452351c-14.145162 0-25.611308-11.466146-25.611308-25.611308s11.467169-25.611308 25.611308-25.611308l559.408753 0c14.145162 0 25.611308 11.466146 25.611308 25.611308S806.046524 957.452351 791.901363 957.452351z" p-id="20749" fill="#515151"></path><path d="M709.610148 745.627968c-14.145162 0-25.611308-11.466146-25.611308-25.611308l0-204.66124c0-14.145162 11.466146-25.611308 25.611308-25.611308s25.611308 11.467169 25.611308 25.611308l0 204.66124C735.222479 734.161822 723.75531 745.627968 709.610148 745.627968z" p-id="20750" fill="#515151"></path><path d="M709.600939 774.280542c-23.991414 0-43.51098-19.520589-43.51098-43.515073 0-23.998577 19.518542-43.523259 43.51098-43.523259 24.001647 0 43.528376 19.524682 43.528376 43.523259C753.130338 754.759953 733.603609 774.280542 709.600939 774.280542zM709.600939 723.056903c-4.242627 0-7.695263 3.457752-7.695263 7.707542 0 4.245697 3.451612 7.699356 7.695263 7.699356 4.252861 0 7.712659-3.453658 7.712659-7.699356C717.314621 726.514655 713.854822 723.056903 709.600939 723.056903z" p-id="20751" fill="#515151"></path></svg>