<svg t="1750224835937" class="icon" viewBox="0 0 1024 1024" version="1.1" xmlns="http://www.w3.org/2000/svg" p-id="25456" width="20" height="20"><path d="M737.776485 231.889455h23.179636c18.525091 0 32.457697-13.249939 32.457697-29.385697V80.492606c0-17.594182-13.932606-30.844121-32.457697-30.844121h-23.179636c-18.556121 0-32.457697 13.249939-32.457697 30.844121v120.521697c0 17.656242 13.901576 30.875152 32.457697 30.875152z m-481.838546 0h23.179637c18.525091 0 32.426667-13.249939 32.426666-29.385697V80.492606c0-17.594182-13.901576-30.844121-32.426666-30.844121h-23.179637c-18.556121 0-32.457697 13.249939-32.457697 30.844121v120.521697c0 17.656242 13.870545 30.875152 32.457697 30.875152z m649.060849-77.575758h-66.311758V207.282424c0 39.408485-32.333576 72.766061-77.017212 72.766061H738.521212c-41.580606 0.062061-77.048242-31.77503-77.048242-72.704V154.344727H353.24897v53.061818c0 39.408485-32.364606 72.766061-77.079273 72.766061h-23.086545c-41.642667 0-77.079273-31.868121-77.079273-72.766061v-53.061818H112.764121C75.838061 154.344727 46.545455 181.589333 46.545455 217.987879v692.720485C46.545455 947.044848 75.838061 974.351515 112.826182 974.351515h790.652121c36.957091 0 66.218667-27.306667 67.801212-63.643151V217.987879c0-36.398545-29.292606-63.705212-66.280727-63.705212zM112.795152 910.646303V363.48897h790.652121s0 547.157333 1.551515 547.157333H112.795152z m162.90909-289.978182c2.482424 7.261091 5.554424 18.804364 9.247031 34.598788 2.482424 10.922667 4.313212 19.393939 5.554424 25.475879 11.077818-19.42497 22.155636-40.029091 33.264485-61.905455v234.868364h42.511515V515.10303c9.836606-29.137455 18.46303-57.654303 25.848242-85.581575l-44.342303-10.922667c-17.252848 80.151273-41.270303 147.48703-72.052363 202.100364z m264.254061 100.134788h-88.715636v-45.521454h83.161212v-40.029091h-83.161212v-45.552485h96.100848v-151.117576h-140.443151v415.123394h44.373333v-91.042909H539.927273v-41.890909z m-88.715636-240.298667h55.451151v67.335758h-55.451151v-67.335758z m263.136969-40.091151h-134.888727v41.890909h92.377212v63.705212h-92.377212v40.060121h134.888727v-145.656242z m-46.204121 327.71103c22.186667-27.927273 38.787879-65.50497 49.896727-112.826182v-38.260363H559.166061v41.890909h18.49406l-12.939636 3.630545c11.077818 44.900848 26.468848 80.089212 46.173091 105.596122-17.252848 15.763394-47.445333 32.178424-90.515394 49.152 9.464242 12.163879 18.090667 24.948364 25.848242 38.229333 39.408485-18.214788 70.842182-37.019152 94.239031-56.444121 19.704242 16.973576 45.614545 33.978182 77.606787 50.982788a250.104242 250.104242 0 0 1 14.801455-23.676122c2.730667-5.616485 5.833697-11.108848 9.216-16.384-29.571879-9.712485-54.209939-23.676121-73.914182-41.890909z m-62.805333-109.226666h68.359757c-7.385212 30.347636-18.46303 56.444121-33.264484 78.289454-14.770424-21.845333-26.499879-47.941818-35.126303-78.289454z" fill="#515151" p-id="25457"></path></svg>