<?xml version="1.0" encoding="utf-8"?>
<svg version="1.1" xmlns:xlink="http://www.w3.org/1999/xlink" width="15px" height="17px" xmlns="http://www.w3.org/2000/svg">
  <g transform="matrix(1 0 0 1 -18 -14 )">
    <path d="M 14.865977367966366 14.320768649188949  C 14.865977367966366 15.73083147494549  13.717501762026131 16.874611659187167  12.299146666687534 16.87710513316881  L 2.712231111000051 16.87710513316881  C 1.2945600000000468 16.87710513316881  0.14312888887502595 15.730145289155757  0.14312888906249555 14.316240155986861  L 0.13857777787495706 2.6679241065351107  C 0.13857710662057343 2.6671696909256752  0.13857677099326793 2.6664152750566927  0.13857677099326793 2.6656608591521262  C 0.13857677099326793 1.25346658230319  1.2894548084366306 0.10830720130570626  2.709955555687543 0.10705912935304696  L 12.294595555687465 0.10705912935304696  C 13.715096302026723 0.1083077538961561  14.865973888559893 1.2534675819460972  14.865973333312468 2.6656618583772342  L 14.865973333312468 14.316240155986861  C 14.865976023081203 14.317749652240536  14.865977367966366 14.319259150566722  14.865977367966366 14.320768649188949  Z " fill-rule="nonzero" fill="#999999" stroke="none" transform="matrix(1 0 0 1 18 14 )" />
  </g>
</svg>