<?xml version="1.0" encoding="utf-8"?>
<svg version="1.1" xmlns:xlink="http://www.w3.org/1999/xlink" width="5px" height="7px" xmlns="http://www.w3.org/2000/svg">
  <defs>
    <pattern id="BGPattern" patternUnits="userSpaceOnUse" alignment="0 0" imageRepeat="None" />
    <mask fill="white" id="Clip1622">
      <path d="M 0.5144046627810148 5.5509408825978355  L 0.5158534554537884 6.193621981681932  L 4.179833472106576 6.193621981681932  L 4.179833472106576 5.550940882597835  L 3.6971190674437953 5.550940882597835  L 3.6971190674437953 0.6601498751040804  L 1.054987510407992 0.6601498751040804  L 1.054987510407992 5.5509408825978355  L 0.5144046627810148 5.5509408825978355  Z M 1.703380516236468 2.254004995836803  L 1.7033638634471266 1.290691090757702  L 3.0272939217318875 1.290691090757702  L 3.0272939217318875 2.254004995836803  L 1.703380516236468 2.254004995836803  Z M 1.703380516236468 3.899250624479601  L 1.7033638634471266 2.8838301415487098  L 3.0272939217318875 2.8838301415487098  L 3.0272939217318875 3.899250624479601  L 1.703380516236468 3.899250624479601  Z M 1.703380516236468 5.548093255620316  L 1.7033638634471266 4.526228143213989  L 3.0272939217318875 4.526228143213989  L 3.0272939217318875 5.548093255620316  L 1.703380516236468 5.548093255620316  Z " fill-rule="evenodd" />
    </mask>
  </defs>
  <g transform="matrix(1 0 0 1 -182 -615 )">
    <path d="M 0.5144046627810148 5.5509408825978355  L 0.5158534554537884 6.193621981681932  L 4.179833472106576 6.193621981681932  L 4.179833472106576 5.550940882597835  L 3.6971190674437953 5.550940882597835  L 3.6971190674437953 0.6601498751040804  L 1.054987510407992 0.6601498751040804  L 1.054987510407992 5.5509408825978355  L 0.5144046627810148 5.5509408825978355  Z M 1.703380516236468 2.254004995836803  L 1.7033638634471266 1.290691090757702  L 3.0272939217318875 1.290691090757702  L 3.0272939217318875 2.254004995836803  L 1.703380516236468 2.254004995836803  Z M 1.703380516236468 3.899250624479601  L 1.7033638634471266 2.8838301415487098  L 3.0272939217318875 2.8838301415487098  L 3.0272939217318875 3.899250624479601  L 1.703380516236468 3.899250624479601  Z M 1.703380516236468 5.548093255620316  L 1.7033638634471266 4.526228143213989  L 3.0272939217318875 4.526228143213989  L 3.0272939217318875 5.548093255620316  L 1.703380516236468 5.548093255620316  Z " fill-rule="nonzero" fill="rgba(255, 255, 255, 1)" stroke="none" transform="matrix(1 0 0 1 182 615 )" class="fill" />
    <path d="M 0.5144046627810148 5.5509408825978355  L 0.5158534554537884 6.193621981681932  L 4.179833472106576 6.193621981681932  L 4.179833472106576 5.550940882597835  L 3.6971190674437953 5.550940882597835  L 3.6971190674437953 0.6601498751040804  L 1.054987510407992 0.6601498751040804  L 1.054987510407992 5.5509408825978355  L 0.5144046627810148 5.5509408825978355  Z " stroke-width="0" stroke-dasharray="0" stroke="rgba(255, 255, 255, 0)" fill="none" transform="matrix(1 0 0 1 182 615 )" class="stroke" mask="url(#Clip1622)" />
    <path d="M 1.703380516236468 2.254004995836803  L 1.7033638634471266 1.290691090757702  L 3.0272939217318875 1.290691090757702  L 3.0272939217318875 2.254004995836803  L 1.703380516236468 2.254004995836803  Z " stroke-width="0" stroke-dasharray="0" stroke="rgba(255, 255, 255, 0)" fill="none" transform="matrix(1 0 0 1 182 615 )" class="stroke" mask="url(#Clip1622)" />
    <path d="M 1.703380516236468 3.899250624479601  L 1.7033638634471266 2.8838301415487098  L 3.0272939217318875 2.8838301415487098  L 3.0272939217318875 3.899250624479601  L 1.703380516236468 3.899250624479601  Z " stroke-width="0" stroke-dasharray="0" stroke="rgba(255, 255, 255, 0)" fill="none" transform="matrix(1 0 0 1 182 615 )" class="stroke" mask="url(#Clip1622)" />
    <path d="M 1.703380516236468 5.548093255620316  L 1.7033638634471266 4.526228143213989  L 3.0272939217318875 4.526228143213989  L 3.0272939217318875 5.548093255620316  L 1.703380516236468 5.548093255620316  Z " stroke-width="0" stroke-dasharray="0" stroke="rgba(255, 255, 255, 0)" fill="none" transform="matrix(1 0 0 1 182 615 )" class="stroke" mask="url(#Clip1622)" />
  </g>
</svg>