<?xml version="1.0" encoding="utf-8"?>
<svg version="1.1" xmlns:xlink="http://www.w3.org/1999/xlink" width="16px" height="13px" xmlns="http://www.w3.org/2000/svg">
  <g transform="matrix(1 0 0 1 -18 -17 )">
    <path d="M 11.843491271696166 7.948225901614022  L 11.843491271696166 3.746860421654219  C 11.843491271696166 3.5716835894663745  11.63886358168952 3.4298150281874764  11.457108447851397 3.4294038149664625  L 7.70233328970744 3.4294038149664625  C 7.520578155869202 3.4294038149664625  7.373131856283749 3.5716835894663745  7.373131856283749 3.746860421654219  L 7.373131856283749 5.483002641130611  L 4.46831722289744 5.483002641130611  L 4.46831722289744 0.45715465286889406  C 4.46831722289744 0.2819778206811634  4.321279361814845 0.13969804618113812  4.139115789473635 0.13969804618113812  L 0.329201433423691 0.13969804618113812  C 0.14703786108259465 0.13969804618113812  0 0.2819778206811634  0 0.45715465286889406  L 0 12.569851293536203  C 0 12.74585055216619  0.14703786108259465 12.88730790022396  0.329201433423691 12.88730790022396  L 4.1399326664796945 12.88730790022396  C 4.144833928515823 12.88730790022396  4.148509875042805 12.884840620897421  4.1530026985759605 12.884840620897421  C 4.157087083606029 12.884840620897421  4.161171468636098 12.88730790022396  4.165255853666167 12.88730790022396  L 15.600308622355215 12.88730790022396  C 15.782063756193338 12.88730790022396  15.929101617275819 12.745439338945062  15.929101617275819 12.570673719978345  L 15.929101617275819 8.265271295080652  C 15.929101617275819 8.090505676113935  15.782063756193338 7.948637114835151  15.600717060858187 7.948225901614022  L 11.84308283319308 7.948225901614022  Z M 4 12.076395428218348  L 3.682889981614835 12.076395428218348  L 1 12.076395428218348  L 1 0.9621244883775262  L 4 0.9621244883775262  L 4 12.076395428218348  Z M 4.492823533077853 12.059535686153367  L 4.492823533077853 6.307896362653537  L 7.338823022031079 6.307896362653537  L 7.338823022031079 12.059535686153367  L 4.492823533077853 12.059535686153367  Z M 8.168770060141469 12.064881458027685  L 8.168770060141469 4.251830257162737  L 11.02783958119096 4.251830257162737  L 11.02783958119096 12.064881458027685  L 8.168770060141469 12.064881458027685  Z M 15.124477766351902 8.77517568924236  L 15.124477766351902 12.049666568846988  L 11.844716587205085 12.049666568846988  L 11.844716587205085 8.77517568924236  L 15.124477766351902 8.77517568924236  Z " fill-rule="nonzero" fill="#666666" stroke="none" transform="matrix(1 0 0 1 18 17 )" />
  </g>
</svg>