<?xml version="1.0" encoding="utf-8"?>
<svg version="1.1" xmlns:xlink="http://www.w3.org/1999/xlink" width="17px" height="9px" xmlns="http://www.w3.org/2000/svg">
  <g transform="matrix(1 0 0 1 -19 -13 )">
    <path d="M 6.320155154646727 5.211208021543598  C 6.430956334864845 5.2813326304933526  6.574057490128098 5.27879800607343  6.68281436812822 5.205293897897263  L 9.236147838468696 3.422185618518256  L 14.91113079576644 8.08167017704693  L 12.97435887438894 8.031822563456103  C 12.795278000088047 8.031822563456103  12.795278000088047 8.986953532344046  12.97435887438894 8.986953532344046  L 16.457032133053417 8.986953532344046  C 16.63611300735431 8.986953532344046  16.806198951895794 8.889370492178955  16.806198951895794 8.713636532401324  C 16.806204399594208 8.698506279271328  16.805111035787263 8.683396930257686  16.802928068347 8.668435730246983  L 16.806198951895794 6.369108944021036  C 16.88592673839969 6.333624202142914  16.88592673839969 6.054393078553858  16.806198951895794 5.530993135850622  C 16.649605401993426 5.253451761874771  16.49137641031666 5.114892293588468  16.32987653509099 5.114892293588468  C 16.168785520308802 5.114892293588468  16.006059063752332 5.253451761874771  15.84210602586495 5.530993135850622  C 15.834337677436451 6.247869409270606  15.834337677436451 6.632287446284295  15.84210602586495 6.684247246891687  L 15.84210602586495 7.617833908210628  L 9.448755269145522 2.311597685211723  C 9.334928921746268 2.22473705055188  9.180822832769422 2.220187808727701  9.062382149934706 2.300191875322298  L 6.49064995963181 4.0955508393972195  L 0.6042861529879247 0.1284411848965874  C 0.4534166492961731 0.03297033174817443  0.252666171483952 0.515816283733443  0.15453966501763716 0.663246937489248  C 0.12068242817053942 0.7145331383774192  0.10257239441330057 0.775172280453944  0.10257239441330057 0.8372527260892184  C 0.10257239441330057 0.946984206687489  0.15893259250185565 1.0484734367438477  0.2506218692658422 1.103849149143457  L 6.320155154646727 5.211630458946843  Z " fill-rule="nonzero" fill="#999999" stroke="none" transform="matrix(1 0 0 1 19 13 )" />
  </g>
</svg>