<?xml version="1.0" encoding="utf-8"?>
<svg version="1.1" xmlns:xlink="http://www.w3.org/1999/xlink" width="15px" height="17px" xmlns="http://www.w3.org/2000/svg">
  <g transform="matrix(1 0 0 1 -18 -14 )">
    <path d="M 3.0046860179488704 2.3531073416313575  C 3.0046860179488704 1.9416943549484813  2.6896500969636463 1.6031308889940874  2.289719632009337 1.5847457627119184  C 1.889789167055028 1.6031308889940874  1.574753246069804 1.9416943549484813  1.574753246069804 2.3531073416313575  C 1.574753246069804 2.7645203283142337  1.889789167055028 3.1030837942686276  2.289719632009337 3.1214689205507966  C 2.6896500969636463 3.1030837942686276  3.0046860179488704 2.7645203283142337  3.0046860179488704 2.3531073416313575  Z M 4.532710286214979 2.3531073506355824  C 4.532710286214979 3.623977413135549  3.526355151869211 4.658192096398352  2.289719632009337 4.658192096398352  C 1.052336460280344 4.658192096398352  0.04672897780369567 3.623977413135549  0.04672897780369567 2.3531073506355824  C 0.04672897780369567 1.0814689385592828  1.052336460280344 0.04802260487292642  2.289719632009337 0.04802260487292642  C 3.526355151869211 0.04802260487292642  4.532710286214979 1.0814689385592828  4.532710286214979 2.3531073506355824  Z M 13.471975731733892 14.646892658368643  C 13.471975731733892 14.235479671685766  13.156939810748668 13.896916205731372  12.757009345794359 13.878531079449203  C 12.35707888084005 13.896916205731372  12.042042959854825 14.235479671685766  12.042042959854825 14.646892658368643  C 12.042042959854825 15.058305645051519  12.35707888084005 15.396869111005913  12.757009345794359 15.415254237288082  C 13.156939810748668 15.396869111005913  13.471975731733892 15.058305645051519  13.471975731733892 14.646892658368643  Z M 15 14.646892649364418  C 15 15.917762711864384  13.993644865654232 16.951977395127074  12.757009345794359 16.951977395127074  C 11.520373825934598 16.951977395127074  10.51401869158883 15.917762711864384  10.51401869158883 14.646892649364418  C 10.51401869158883 13.376022586864451  11.520373825934598 12.341807903601648  12.757009345794359 12.341807903601648  C 13.993644865654232 12.341807903601648  15 13.376022586864451  15 14.646892649364418  Z M 8.612162849332094 8.5  C 8.612162849332094 8.08858693534296  8.29712681296212 7.750023434170657  7.897196267523326 7.731638412076222  C 7.497265722084535 7.750023434170657  7.182229685714674 8.08858693534296  7.182229685714674 8.5  C 7.182229685714674 8.91141306465704  7.497265722084535 9.249976565829343  7.897196267523326 9.268361587923778  C 8.29712681296212 9.249976565829343  8.612162849332094 8.91141306465704  8.612162849332094 8.5  Z M 10.140186921728969 8.5  C 10.140186921728969 9.7716384120763  9.13457943925232 10.805084745762656  7.897196267523326 10.805084745762656  C 6.659813095794448 10.805084745762656  5.654205613317799 9.7716384120763  5.654205613317799 8.5  C 5.654205613317799 7.2283615879237  6.659813095794448 6.194915254237344  7.897196267523326 6.194915254237344  C 9.13457943925232 6.194915254237344  10.140186921728969 7.2283615879237  10.140186921728969 8.5  Z " fill-rule="nonzero" fill="#8bb3f1" stroke="none" transform="matrix(1 0 0 1 18 14 )" />
  </g>
</svg>