<?xml version="1.0" encoding="utf-8"?>
<svg version="1.1" xmlns:xlink="http://www.w3.org/1999/xlink" width="16px" height="14px" xmlns="http://www.w3.org/2000/svg">
  <g transform="matrix(1 0 0 1 -18 -16 )">
    <path d="M 12.176991150442518 12.444444450520791  L 12.176991150442518 14  L 3.8702064955751894 14  C 1.788224194690315 14  0.09439529203541497 12.255444450520827  0.09439527433630701 10.111111117187534  C 0.09439525663719905 7.966777783854127  1.788224176991207 6.222222234374954  3.8702064955751894 6.222222216145838  L 6.890855451327411 6.222222216145838  L 6.890855451327411 7.777777783854162  L 3.8702064955751894 7.777777783854162  C 2.621168141592875 7.777777783854162  1.6047197699115259 8.823888901041641  1.6047197699115259 10.111111117187534  C 1.6047197699115259 11.39755556770831  2.621168141592875 12.444444450520791  3.8702064955751894 12.444444450520791  L 12.176991150442518 12.444444450520791  Z M 15.952802353982293 3.8888888828124664  C 15.952802353982293 6.033222216145873  14.258973451327392 7.777777765625046  12.176991150442518 7.777777783854162  L 9.911504424778741 7.777777783854162  L 9.911504424778741 6.222222216145838  L 12.176991150442518 6.222222216145838  C 13.426029504424832 6.222222216145838  14.442477876106182 5.1761110989583585  14.442477876106182 3.8888888828124664  C 14.442477876106182 2.6024444322916906  13.426029504424832 1.5555555494792088  12.176991150442518 1.5555555494792088  L 3.8702064955751894 1.5555555494792088  L 3.8702064955751894 0  L 12.176991150442518 0  C 14.258973451327392 0  15.952802353982293 1.7445555494791734  15.952802353982293 3.8888888828124664  Z " fill-rule="nonzero" fill="#666666" stroke="none" transform="matrix(1 0 0 1 18 16 )" />
  </g>
</svg>