<?xml version="1.0" encoding="utf-8"?>
<svg version="1.1" xmlns:xlink="http://www.w3.org/1999/xlink" width="11px" height="13px" xmlns="http://www.w3.org/2000/svg">
  <defs>
    <pattern id="BGPattern" patternUnits="userSpaceOnUse" alignment="0 0" imageRepeat="None" />
    <mask fill="white" id="Clip797">
      <path d="M 0.9444800000000013 2.9542399999999995  C 0.9099200000000014 3.1618399999999998  0.7369600000000016 3.3002399999999996  0.5640000000000001 3.3002399999999996  L 0.4948800000000002 3.3002399999999996  C 0.2873600000000005 3.2656799999999993  0.14896000000000065 3.05816  0.18352000000000057 2.8505599999999998  C 0.529440000000001 0.7404799999999998  2.224400000000001 0.4291199999999997  2.293520000000001 0.4291199999999997  C 2.5010400000000006 0.3944799999999997  2.708640000000001 0.5328799999999996  2.7432800000000013 0.7403999999999997  C 2.777840000000001 0.91336  2.639520000000001 1.1209599999999997  2.4319200000000016 1.1555199999999997  C 2.3627200000000013 1.1555199999999997  1.1866400000000015 1.3976799999999998  0.9444800000000013 2.9542399999999995  Z M 2.77776 12.22488  L 2.1552 11.67136  L 2.39736 8.28152  C 2.39736 8.073920000000001  2.5703199999999997 7.900960000000001  2.8124000000000002 7.900960000000001  C 3.01992 7.900960000000001  3.22752 8.073920000000001  3.22752 8.28152  L 3.4696 11.67136  L 2.77776 12.22488  Z M 10.076560000000002 3.715440000000001  C 9.972880000000002 5.375760000000001  8.623760000000003 6.690240000000001  6.9634399999999985 6.690239999999999  L 6.859679999999999 6.690239999999999  C 6.65208 6.690239999999999  6.513759999999999 6.5172799999999995  6.513759999999999 6.34432  C 6.513759999999999 6.13672  6.686719999999999 5.99848  6.859679999999999 5.99848  C 8.174159999999999 6.03304  9.28112 5.02984  9.35024 3.7153600000000004  C 9.384879999999999 2.712160000000001  8.796719999999999 1.8128800000000005  7.89744 1.4323200000000003  C 7.759039999999999 1.3631200000000003  7.620639999999999 1.3285600000000004  7.5168800000000005 1.2940000000000005  C 7.343920000000001 1.2593600000000005  7.20552 1.0518400000000003  7.240080000000001 0.8788800000000005  C 7.2748 0.7059200000000008  7.482320000000001 0.5675200000000005  7.655280000000001 0.6022400000000006  C 7.8281600000000005 0.6368000000000005  8.001120000000002 0.7060000000000004  8.174080000000002 0.7752000000000008  C 9.350160000000002 1.2594400000000006  10.111200000000002 2.470160000000001  10.076560000000002 3.715440000000001  Z " fill-rule="evenodd" />
    </mask>
  </defs>
  <g transform="matrix(1 0 0 1 -21 -17 )">
    <path d="M 0.9444800000000013 2.9542399999999995  C 0.9099200000000014 3.1618399999999998  0.7369600000000016 3.3002399999999996  0.5640000000000001 3.3002399999999996  L 0.4948800000000002 3.3002399999999996  C 0.2873600000000005 3.2656799999999993  0.14896000000000065 3.05816  0.18352000000000057 2.8505599999999998  C 0.529440000000001 0.7404799999999998  2.224400000000001 0.4291199999999997  2.293520000000001 0.4291199999999997  C 2.5010400000000006 0.3944799999999997  2.708640000000001 0.5328799999999996  2.7432800000000013 0.7403999999999997  C 2.777840000000001 0.91336  2.639520000000001 1.1209599999999997  2.4319200000000016 1.1555199999999997  C 2.3627200000000013 1.1555199999999997  1.1866400000000015 1.3976799999999998  0.9444800000000013 2.9542399999999995  Z M 2.77776 12.22488  L 2.1552 11.67136  L 2.39736 8.28152  C 2.39736 8.073920000000001  2.5703199999999997 7.900960000000001  2.8124000000000002 7.900960000000001  C 3.01992 7.900960000000001  3.22752 8.073920000000001  3.22752 8.28152  L 3.4696 11.67136  L 2.77776 12.22488  Z M 10.076560000000002 3.715440000000001  C 9.972880000000002 5.375760000000001  8.623760000000003 6.690240000000001  6.9634399999999985 6.690239999999999  L 6.859679999999999 6.690239999999999  C 6.65208 6.690239999999999  6.513759999999999 6.5172799999999995  6.513759999999999 6.34432  C 6.513759999999999 6.13672  6.686719999999999 5.99848  6.859679999999999 5.99848  C 8.174159999999999 6.03304  9.28112 5.02984  9.35024 3.7153600000000004  C 9.384879999999999 2.712160000000001  8.796719999999999 1.8128800000000005  7.89744 1.4323200000000003  C 7.759039999999999 1.3631200000000003  7.620639999999999 1.3285600000000004  7.5168800000000005 1.2940000000000005  C 7.343920000000001 1.2593600000000005  7.20552 1.0518400000000003  7.240080000000001 0.8788800000000005  C 7.2748 0.7059200000000008  7.482320000000001 0.5675200000000005  7.655280000000001 0.6022400000000006  C 7.8281600000000005 0.6368000000000005  8.001120000000002 0.7060000000000004  8.174080000000002 0.7752000000000008  C 9.350160000000002 1.2594400000000006  10.111200000000002 2.470160000000001  10.076560000000002 3.715440000000001  Z " fill-rule="nonzero" fill="rgba(85, 85, 85, 1)" stroke="none" transform="matrix(1 0 0 1 21 17 )" class="fill" />
    <path d="M 0.9444800000000013 2.9542399999999995  C 0.9099200000000014 3.1618399999999998  0.7369600000000016 3.3002399999999996  0.5640000000000001 3.3002399999999996  L 0.4948800000000002 3.3002399999999996  C 0.2873600000000005 3.2656799999999993  0.14896000000000065 3.05816  0.18352000000000057 2.8505599999999998  C 0.529440000000001 0.7404799999999998  2.224400000000001 0.4291199999999997  2.293520000000001 0.4291199999999997  C 2.5010400000000006 0.3944799999999997  2.708640000000001 0.5328799999999996  2.7432800000000013 0.7403999999999997  C 2.777840000000001 0.91336  2.639520000000001 1.1209599999999997  2.4319200000000016 1.1555199999999997  C 2.3627200000000013 1.1555199999999997  1.1866400000000015 1.3976799999999998  0.9444800000000013 2.9542399999999995  Z " stroke-width="0" stroke-dasharray="0" stroke="rgba(255, 255, 255, 0)" fill="none" transform="matrix(1 0 0 1 21 17 )" class="stroke" mask="url(#Clip797)" />
    <path d="M 2.77776 12.22488  L 2.1552 11.67136  L 2.39736 8.28152  C 2.39736 8.073920000000001  2.5703199999999997 7.900960000000001  2.8124000000000002 7.900960000000001  C 3.01992 7.900960000000001  3.22752 8.073920000000001  3.22752 8.28152  L 3.4696 11.67136  L 2.77776 12.22488  Z " stroke-width="0" stroke-dasharray="0" stroke="rgba(255, 255, 255, 0)" fill="none" transform="matrix(1 0 0 1 21 17 )" class="stroke" mask="url(#Clip797)" />
    <path d="M 10.076560000000002 3.715440000000001  C 9.972880000000002 5.375760000000001  8.623760000000003 6.690240000000001  6.9634399999999985 6.690239999999999  L 6.859679999999999 6.690239999999999  C 6.65208 6.690239999999999  6.513759999999999 6.5172799999999995  6.513759999999999 6.34432  C 6.513759999999999 6.13672  6.686719999999999 5.99848  6.859679999999999 5.99848  C 8.174159999999999 6.03304  9.28112 5.02984  9.35024 3.7153600000000004  C 9.384879999999999 2.712160000000001  8.796719999999999 1.8128800000000005  7.89744 1.4323200000000003  C 7.759039999999999 1.3631200000000003  7.620639999999999 1.3285600000000004  7.5168800000000005 1.2940000000000005  C 7.343920000000001 1.2593600000000005  7.20552 1.0518400000000003  7.240080000000001 0.8788800000000005  C 7.2748 0.7059200000000008  7.482320000000001 0.5675200000000005  7.655280000000001 0.6022400000000006  C 7.8281600000000005 0.6368000000000005  8.001120000000002 0.7060000000000004  8.174080000000002 0.7752000000000008  C 9.350160000000002 1.2594400000000006  10.111200000000002 2.470160000000001  10.076560000000002 3.715440000000001  Z " stroke-width="0" stroke-dasharray="0" stroke="rgba(255, 255, 255, 0)" fill="none" transform="matrix(1 0 0 1 21 17 )" class="stroke" mask="url(#Clip797)" />
  </g>
</svg>