<?xml version="1.0" encoding="utf-8"?>
<svg version="1.1" xmlns:xlink="http://www.w3.org/1999/xlink" width="22px" height="17px" xmlns="http://www.w3.org/2000/svg">
  <defs>
    <pattern id="BGPattern" patternUnits="userSpaceOnUse" alignment="0 0" imageRepeat="None" />
    <mask fill="white" id="Clip1234">
      <path d="M 6.780921052631584 9.60389610389609  C 6.788157894736742 8.279220779220736  7.844736842105249 7.204761904761881  9.147368421052533 7.204761904761881  L 21.985526315789457 7.204761904761881  L 21.985526315789457 2.3991341991342097  C 21.985526315789457 1.0744588744588555  20.92894736842095 0  19.626315789473665 0  L 2.359210526315792 0  C 1.0565789473685072 0  0 1.0744588744588555  0 2.3991341991342097  L 0 14.556709956709938  C 0 15.881385281385292  1.0565789473685072 16.955844155844147  2.359210526315792 16.955844155844147  L 6.780921052631584 16.955844155844147  L 6.780921052631584 9.60389610389609  Z " fill-rule="evenodd" />
    </mask>
  </defs>
  <g transform="matrix(1 0 0 1 -1862 -646 )">
    <path d="M 6.780921052631584 9.60389610389609  C 6.788157894736742 8.279220779220736  7.844736842105249 7.204761904761881  9.147368421052533 7.204761904761881  L 21.985526315789457 7.204761904761881  L 21.985526315789457 2.3991341991342097  C 21.985526315789457 1.0744588744588555  20.92894736842095 0  19.626315789473665 0  L 2.359210526315792 0  C 1.0565789473685072 0  0 1.0744588744588555  0 2.3991341991342097  L 0 14.556709956709938  C 0 15.881385281385292  1.0565789473685072 16.955844155844147  2.359210526315792 16.955844155844147  L 6.780921052631584 16.955844155844147  L 6.780921052631584 9.60389610389609  Z " fill-rule="nonzero" fill="rgba(64, 158, 255, 1)" stroke="none" transform="matrix(1 0 0 1 1862 646 )" class="fill" />
    <path d="M 6.780921052631584 9.60389610389609  C 6.788157894736742 8.279220779220736  7.844736842105249 7.204761904761881  9.147368421052533 7.204761904761881  L 21.985526315789457 7.204761904761881  L 21.985526315789457 2.3991341991342097  C 21.985526315789457 1.0744588744588555  20.92894736842095 0  19.626315789473665 0  L 2.359210526315792 0  C 1.0565789473685072 0  0 1.0744588744588555  0 2.3991341991342097  L 0 14.556709956709938  C 0 15.881385281385292  1.0565789473685072 16.955844155844147  2.359210526315792 16.955844155844147  L 6.780921052631584 16.955844155844147  L 6.780921052631584 9.60389610389609  Z " stroke-width="0" stroke-dasharray="0" stroke="rgba(255, 255, 255, 0)" fill="none" transform="matrix(1 0 0 1 1862 646 )" class="stroke" mask="url(#Clip1234)" />
  </g>
</svg>