<?xml version="1.0" encoding="utf-8"?>
<svg version="1.1" xmlns:xlink="http://www.w3.org/1999/xlink" width="6px" height="5px" xmlns="http://www.w3.org/2000/svg">
  <defs>
    <pattern id="BGPattern" patternUnits="userSpaceOnUse" alignment="0 0" imageRepeat="None" />
    <mask fill="white" id="Clip278">
      <path d="M 4.685740336996337 2.5339519739519707  C 4.945803824175824 2.2987093528693503  4.809103794871795 1.831928726088726  4.475689054945056 1.811553390313391  L 3.38708994871795 1.7467227350427361  L 2.9953276336996337 0.6168172568172577  C 2.93531298168498 0.4427006756206767  2.7952787985347998 0.35749468457468403  2.6535775384615397 0.35749468457468403  C 2.5118762783882795 0.35749468457468403  2.373509157509158 0.44455298331298465  2.31182742857143 0.6168172568172577  L 1.9200651135531137 1.7467227350427361  L 0.8314660219780237 1.811553390313391  C 0.4980512820512839 1.8319287423687434  0.36135125274725244 2.2987093691493676  0.62141473992674 2.5320996662596684  L 1.466621084249085 3.295248954008952  L 1.1865527032967034 4.464052812372812  C 1.119869758241757 4.7418984289784305  1.3182515164835165 4.97528874236874  1.5399723223443216 4.97528874236874  C 1.604988190476191 4.97528874236874  1.6733382124542118 4.954913390313387  1.738354095238094 4.908605795685794  L 2.6535775384615397 4.251037851037849  L 3.56880098168498 4.908605795685794  C 3.6321497875457878 4.954913390313387  3.7004997948717957 4.97528874236874  3.7671827399267395 4.97528874236874  C 3.9905706080586087 4.97528874236874  4.187285304029304 4.740046121286119  4.12060235897436 4.464052812372812  L 3.8405339780219787 3.2971012454212456  L 4.685740336996337 2.5339519739519707  Z M 3.5337924249084205 2.5524750183150173  L 3.3887570256410244 2.680283988603988  C 3.1703703736263735 2.876628213268215  3.077014256410253 3.198929133089135  3.1486984175824153 3.500854700854701  L 3.1953764688644677 3.697198925518925  L 3.042005699633699 3.5860606919006903  C 2.9236434725274716 3.500854700854698  2.7886105054945043 3.458251705331703  2.653577538461537 3.458251705331703  C 2.5185445714285697 3.458251705331703  2.3835116043956024 3.500854700854698  2.265149362637362 3.5860606919006903  L 2.1117785934065934 3.697198925518925  L 2.1584566593406587 3.500854700854701  C 2.230140820512821 3.1989291330891323  2.136784703296703 2.8766282295482286  1.9183980512820495 2.680283988603988  L 1.776696791208792 2.5524750183150173  L 1.9600748864468862 2.5413611884411873  C 2.2418103296703293 2.524690451770451  2.486870168498167 2.3264939194139167  2.5885616556776547 2.0338298738298732  L 2.6552446007325985 1.843042555962556  L 2.7219275604395605 2.0338298738298732  C 2.8236190476190455 2.3264939194139167  3.068678886446886 2.524690451770451  3.3504143296703264 2.5413611884411873  L 3.5337924249084205 2.5524750183150173  Z " fill-rule="evenodd" />
    </mask>
  </defs>
  <g transform="matrix(1 0 0 1 -25 -24 )">
    <path d="M 4.685740336996337 2.5339519739519707  C 4.945803824175824 2.2987093528693503  4.809103794871795 1.831928726088726  4.475689054945056 1.811553390313391  L 3.38708994871795 1.7467227350427361  L 2.9953276336996337 0.6168172568172577  C 2.93531298168498 0.4427006756206767  2.7952787985347998 0.35749468457468403  2.6535775384615397 0.35749468457468403  C 2.5118762783882795 0.35749468457468403  2.373509157509158 0.44455298331298465  2.31182742857143 0.6168172568172577  L 1.9200651135531137 1.7467227350427361  L 0.8314660219780237 1.811553390313391  C 0.4980512820512839 1.8319287423687434  0.36135125274725244 2.2987093691493676  0.62141473992674 2.5320996662596684  L 1.466621084249085 3.295248954008952  L 1.1865527032967034 4.464052812372812  C 1.119869758241757 4.7418984289784305  1.3182515164835165 4.97528874236874  1.5399723223443216 4.97528874236874  C 1.604988190476191 4.97528874236874  1.6733382124542118 4.954913390313387  1.738354095238094 4.908605795685794  L 2.6535775384615397 4.251037851037849  L 3.56880098168498 4.908605795685794  C 3.6321497875457878 4.954913390313387  3.7004997948717957 4.97528874236874  3.7671827399267395 4.97528874236874  C 3.9905706080586087 4.97528874236874  4.187285304029304 4.740046121286119  4.12060235897436 4.464052812372812  L 3.8405339780219787 3.2971012454212456  L 4.685740336996337 2.5339519739519707  Z M 3.5337924249084205 2.5524750183150173  L 3.3887570256410244 2.680283988603988  C 3.1703703736263735 2.876628213268215  3.077014256410253 3.198929133089135  3.1486984175824153 3.500854700854701  L 3.1953764688644677 3.697198925518925  L 3.042005699633699 3.5860606919006903  C 2.9236434725274716 3.500854700854698  2.7886105054945043 3.458251705331703  2.653577538461537 3.458251705331703  C 2.5185445714285697 3.458251705331703  2.3835116043956024 3.500854700854698  2.265149362637362 3.5860606919006903  L 2.1117785934065934 3.697198925518925  L 2.1584566593406587 3.500854700854701  C 2.230140820512821 3.1989291330891323  2.136784703296703 2.8766282295482286  1.9183980512820495 2.680283988603988  L 1.776696791208792 2.5524750183150173  L 1.9600748864468862 2.5413611884411873  C 2.2418103296703293 2.524690451770451  2.486870168498167 2.3264939194139167  2.5885616556776547 2.0338298738298732  L 2.6552446007325985 1.843042555962556  L 2.7219275604395605 2.0338298738298732  C 2.8236190476190455 2.3264939194139167  3.068678886446886 2.524690451770451  3.3504143296703264 2.5413611884411873  L 3.5337924249084205 2.5524750183150173  Z " fill-rule="nonzero" fill="rgba(81, 81, 81, 1)" stroke="none" transform="matrix(1 0 0 1 25 24 )" class="fill" />
    <path d="M 4.685740336996337 2.5339519739519707  C 4.945803824175824 2.2987093528693503  4.809103794871795 1.831928726088726  4.475689054945056 1.811553390313391  L 3.38708994871795 1.7467227350427361  L 2.9953276336996337 0.6168172568172577  C 2.93531298168498 0.4427006756206767  2.7952787985347998 0.35749468457468403  2.6535775384615397 0.35749468457468403  C 2.5118762783882795 0.35749468457468403  2.373509157509158 0.44455298331298465  2.31182742857143 0.6168172568172577  L 1.9200651135531137 1.7467227350427361  L 0.8314660219780237 1.811553390313391  C 0.4980512820512839 1.8319287423687434  0.36135125274725244 2.2987093691493676  0.62141473992674 2.5320996662596684  L 1.466621084249085 3.295248954008952  L 1.1865527032967034 4.464052812372812  C 1.119869758241757 4.7418984289784305  1.3182515164835165 4.97528874236874  1.5399723223443216 4.97528874236874  C 1.604988190476191 4.97528874236874  1.6733382124542118 4.954913390313387  1.738354095238094 4.908605795685794  L 2.6535775384615397 4.251037851037849  L 3.56880098168498 4.908605795685794  C 3.6321497875457878 4.954913390313387  3.7004997948717957 4.97528874236874  3.7671827399267395 4.97528874236874  C 3.9905706080586087 4.97528874236874  4.187285304029304 4.740046121286119  4.12060235897436 4.464052812372812  L 3.8405339780219787 3.2971012454212456  L 4.685740336996337 2.5339519739519707  Z " stroke-width="0" stroke-dasharray="0" stroke="rgba(255, 255, 255, 0)" fill="none" transform="matrix(1 0 0 1 25 24 )" class="stroke" mask="url(#Clip278)" />
    <path d="M 3.5337924249084205 2.5524750183150173  L 3.3887570256410244 2.680283988603988  C 3.1703703736263735 2.876628213268215  3.077014256410253 3.198929133089135  3.1486984175824153 3.500854700854701  L 3.1953764688644677 3.697198925518925  L 3.042005699633699 3.5860606919006903  C 2.9236434725274716 3.500854700854698  2.7886105054945043 3.458251705331703  2.653577538461537 3.458251705331703  C 2.5185445714285697 3.458251705331703  2.3835116043956024 3.500854700854698  2.265149362637362 3.5860606919006903  L 2.1117785934065934 3.697198925518925  L 2.1584566593406587 3.500854700854701  C 2.230140820512821 3.1989291330891323  2.136784703296703 2.8766282295482286  1.9183980512820495 2.680283988603988  L 1.776696791208792 2.5524750183150173  L 1.9600748864468862 2.5413611884411873  C 2.2418103296703293 2.524690451770451  2.486870168498167 2.3264939194139167  2.5885616556776547 2.0338298738298732  L 2.6552446007325985 1.843042555962556  L 2.7219275604395605 2.0338298738298732  C 2.8236190476190455 2.3264939194139167  3.068678886446886 2.524690451770451  3.3504143296703264 2.5413611884411873  L 3.5337924249084205 2.5524750183150173  Z " stroke-width="0" stroke-dasharray="0" stroke="rgba(255, 255, 255, 0)" fill="none" transform="matrix(1 0 0 1 25 24 )" class="stroke" mask="url(#Clip278)" />
  </g>
</svg>