<?xml version="1.0" encoding="utf-8"?>
<svg version="1.1" xmlns:xlink="http://www.w3.org/1999/xlink" width="8px" height="8px" xmlns="http://www.w3.org/2000/svg">
  <defs>
    <pattern id="BGPattern" patternUnits="userSpaceOnUse" alignment="0 0" imageRepeat="None" />
    <mask fill="white" id="Clip276">
      <path d="M 6.59022873943834 1.8677285509157513  C 6.865851592673994 1.8677285509157513  7.088128078144081 1.645452065445666  7.088128062515264 1.369829227838828  C 7.088128062515264 1.094206374603175  6.865851577045177 0.8719298891330893  6.59022873943834 0.8719298891330893  L 0.899950620757022 0.8719298891330893  C 0.624327767521369 0.8719298891330893  0.40205128205128204 1.094206374603175  0.40205128205128204 1.369829227838828  C 0.40205128205128204 1.645452081074481  0.6243277675213676 1.8677285665445666  0.899950620757022 1.8677285509157513  L 6.59022873943834 1.8677285509157513  Z M 3.7450896722832723 4.561719607326007  C 4.020712525518924 4.561719607326007  4.242989010989011 4.339443121855922  4.242989010989011 4.063820268620269  C 4.242989010989011 3.788197415384616  4.020712525518926 3.5659209299145305  3.7450896722832723 3.5659209299145305  L 0.8999506207570207 3.5659209299145305  C 0.6243277675213676 3.5659209299145305  0.4020512820512806 3.788197415384616  0.4020512820512806 4.063820268620269  C 0.4020512820512806 4.339443121855922  0.6243277675213662 4.561719607326007  0.8999506207570207 4.561719607326007  L 3.7450896722832723 4.561719607326007  Z M 2.3225201465201466 6.259911986324786  L 0.8999506207570207 6.259911986324786  C 0.6243277675213676 6.259911986324786  0.4020512820512806 6.482188471794871  0.4020512820512806 6.757811309401708  C 0.4020512820512806 7.033434147008546  0.6243277675213662 7.255710648107447  0.8999506207570207 7.255710648107447  L 2.3225201465201466 7.255710648107447  C 2.5981429997557997 7.255710648107447  2.8204194852258864 7.033434162637363  2.8204194852258864 6.757811309401708  C 2.8204194852258864 6.482188456166054  2.598142999755801 6.25991197069597  2.3225201465201466 6.259911986324786  Z " fill-rule="evenodd" />
    </mask>
  </defs>
  <g transform="matrix(1 0 0 1 -20 -19 )">
    <path d="M 6.59022873943834 1.8677285509157513  C 6.865851592673994 1.8677285509157513  7.088128078144081 1.645452065445666  7.088128062515264 1.369829227838828  C 7.088128062515264 1.094206374603175  6.865851577045177 0.8719298891330893  6.59022873943834 0.8719298891330893  L 0.899950620757022 0.8719298891330893  C 0.624327767521369 0.8719298891330893  0.40205128205128204 1.094206374603175  0.40205128205128204 1.369829227838828  C 0.40205128205128204 1.645452081074481  0.6243277675213676 1.8677285665445666  0.899950620757022 1.8677285509157513  L 6.59022873943834 1.8677285509157513  Z M 3.7450896722832723 4.561719607326007  C 4.020712525518924 4.561719607326007  4.242989010989011 4.339443121855922  4.242989010989011 4.063820268620269  C 4.242989010989011 3.788197415384616  4.020712525518926 3.5659209299145305  3.7450896722832723 3.5659209299145305  L 0.8999506207570207 3.5659209299145305  C 0.6243277675213676 3.5659209299145305  0.4020512820512806 3.788197415384616  0.4020512820512806 4.063820268620269  C 0.4020512820512806 4.339443121855922  0.6243277675213662 4.561719607326007  0.8999506207570207 4.561719607326007  L 3.7450896722832723 4.561719607326007  Z M 2.3225201465201466 6.259911986324786  L 0.8999506207570207 6.259911986324786  C 0.6243277675213676 6.259911986324786  0.4020512820512806 6.482188471794871  0.4020512820512806 6.757811309401708  C 0.4020512820512806 7.033434147008546  0.6243277675213662 7.255710648107447  0.8999506207570207 7.255710648107447  L 2.3225201465201466 7.255710648107447  C 2.5981429997557997 7.255710648107447  2.8204194852258864 7.033434162637363  2.8204194852258864 6.757811309401708  C 2.8204194852258864 6.482188456166054  2.598142999755801 6.25991197069597  2.3225201465201466 6.259911986324786  Z " fill-rule="nonzero" fill="rgba(81, 81, 81, 1)" stroke="none" transform="matrix(1 0 0 1 20 19 )" class="fill" />
    <path d="M 6.59022873943834 1.8677285509157513  C 6.865851592673994 1.8677285509157513  7.088128078144081 1.645452065445666  7.088128062515264 1.369829227838828  C 7.088128062515264 1.094206374603175  6.865851577045177 0.8719298891330893  6.59022873943834 0.8719298891330893  L 0.899950620757022 0.8719298891330893  C 0.624327767521369 0.8719298891330893  0.40205128205128204 1.094206374603175  0.40205128205128204 1.369829227838828  C 0.40205128205128204 1.645452081074481  0.6243277675213676 1.8677285665445666  0.899950620757022 1.8677285509157513  L 6.59022873943834 1.8677285509157513  Z " stroke-width="0" stroke-dasharray="0" stroke="rgba(255, 255, 255, 0)" fill="none" transform="matrix(1 0 0 1 20 19 )" class="stroke" mask="url(#Clip276)" />
    <path d="M 3.7450896722832723 4.561719607326007  C 4.020712525518924 4.561719607326007  4.242989010989011 4.339443121855922  4.242989010989011 4.063820268620269  C 4.242989010989011 3.788197415384616  4.020712525518926 3.5659209299145305  3.7450896722832723 3.5659209299145305  L 0.8999506207570207 3.5659209299145305  C 0.6243277675213676 3.5659209299145305  0.4020512820512806 3.788197415384616  0.4020512820512806 4.063820268620269  C 0.4020512820512806 4.339443121855922  0.6243277675213662 4.561719607326007  0.8999506207570207 4.561719607326007  L 3.7450896722832723 4.561719607326007  Z " stroke-width="0" stroke-dasharray="0" stroke="rgba(255, 255, 255, 0)" fill="none" transform="matrix(1 0 0 1 20 19 )" class="stroke" mask="url(#Clip276)" />
    <path d="M 2.3225201465201466 6.259911986324786  L 0.8999506207570207 6.259911986324786  C 0.6243277675213676 6.259911986324786  0.4020512820512806 6.482188471794871  0.4020512820512806 6.757811309401708  C 0.4020512820512806 7.033434147008546  0.6243277675213662 7.255710648107447  0.8999506207570207 7.255710648107447  L 2.3225201465201466 7.255710648107447  C 2.5981429997557997 7.255710648107447  2.8204194852258864 7.033434162637363  2.8204194852258864 6.757811309401708  C 2.8204194852258864 6.482188456166054  2.598142999755801 6.25991197069597  2.3225201465201466 6.259911986324786  Z " stroke-width="0" stroke-dasharray="0" stroke="rgba(255, 255, 255, 0)" fill="none" transform="matrix(1 0 0 1 20 19 )" class="stroke" mask="url(#Clip276)" />
  </g>
</svg>