<?xml version="1.0" encoding="utf-8"?>
<svg version="1.1" xmlns:xlink="http://www.w3.org/1999/xlink" width="17px" height="10px" xmlns="http://www.w3.org/2000/svg">
  <g transform="matrix(1 0 0 1 -18 -18 )">
    <path d="M 16.982711864406838 9.182857142857188  L 16.982711864406838 9.731428571428523  C 16.982711864406838 9.822857142857174  16.90894915254239 9.914285714285711  16.79830508474572 10  L 0.2016949152542793 10  C 0.1094915254237776 9.914285714285711  0.01728813559327591 9.841142857142813  0.01728813559327591 9.731428571428523  L 0.01728813559327591 9.182857142857188  C 0.01728813559327591 9.091428571428537  0.09105084745760905 9  0.2016949152542793 9  L 16.79830508474572 9  C 16.890508474576222 9  16.982711864406838 9.073142857142898  16.982711864406838 9.182857142857188  Z M 7.68861016949154 2.453714285714341  C 7.522644067796591 2.453714285714341  7.393559322033866 2.6000000000000227  7.393559322033866 2.7462857142857047  L 7.393559322033866 9  L 9.790847457627137 9  L 9.790847457627137 2.7462857142857047  C 9.790847457627137 2.58171428571427  9.661762711864412 2.453714285714341  9.495796610169464 2.453714285714341  L 7.68861016949154 2.453714285714341  Z M 2.8940338983051106 0.0034285714285715585  C 2.728067796610162 0.0034285714285715585  2.598983050847437 0.1314285714286143  2.598983050847437 0.2960000000000491  L 2.598983050847437 9  L 5.733898305084722 9  L 5.733898305084722 0.2960000000000491  C 5.733898305084722 0.1314285714286143  5.604813559321997 0.0034285714285715585  5.438847457627162 0.0034285714285715585  L 2.8940338983051106 0.0034285714285715585  Z " fill-rule="nonzero" fill="#999999" stroke="none" transform="matrix(1 0 0 1 18 18 )" />
  </g>
</svg>