<?xml version="1.0" encoding="utf-8"?>
<svg version="1.1" xmlns:xlink="http://www.w3.org/1999/xlink" width="17px" height="16px" xmlns="http://www.w3.org/2000/svg">
  <g transform="matrix(1 0 0 1 -18 -14 )">
    <path d="M 7.269270833333337 9.423077796706423  C 7.7119791666666515 8.979011925042585  7.933333333333337 8.44317243990156  7.933333333333337 7.815559341283347  C 7.933333333333337 7.187946242665134  7.7119791666666515 6.652106757524109  7.269270833333337 6.208040885860328  C 6.826562500000023 5.76397501419649  6.29236111111112 5.5419420783645705  5.666666666666686 5.5419420783645705  C 5.040972222222194 5.5419420783645705  4.5067708333333485 5.76397501419649  4.064062499999977 6.208040885860328  C 3.621354166666663 6.652106757524109  3.3999999999999773 7.187946242665134  3.3999999999999773 7.815559341283347  C 3.3999999999999773 8.44317243990156  3.621354166666663 8.979011925042585  4.064062499999977 9.423077796706423  C 4.5067708333333485 9.867143668370261  5.040972222222194 10.089176604202123  5.666666666666686 10.089176604202123  C 6.29236111111112 10.089176604202123  6.826562500000023 9.867143668370261  7.269270833333337 9.423077796706423  Z M 14.401302083333348 13.166553094832466  C 14.622656249999977 12.944520159000547  14.733333333333348 12.676600416430063  14.733333333333348 12.362793867120956  C 14.733333333333348 12.054908196100712  14.621180555555554 11.788468673102386  14.396875000000023 11.563475298126036  C 14.172569444444434 11.338481923149743  13.906944444444434 11.22598523566154  13.600000000000023 11.22598523566154  C 13.293055555555554 11.22598523566154  13.027430555555554 11.338481923149743  12.803125000000023 11.563475298126036  C 12.578819444444434 11.788468673102386  12.46666666666664 12.054908196100712  12.46666666666664 12.362793867120956  C 12.46666666666664 12.676600416430063  12.577343750000011 12.944520159000547  12.79869791666664 13.166553094832466  C 13.020052083333326 13.388586030664385  13.287152777777806 13.499602498580316  13.600000000000023 13.499602498580316  C 13.91284722222224 13.499602498580316  14.179947916666663 13.388586030664385  14.401302083333348 13.166553094832466  Z M 14.401302083333348 4.072084043157304  C 14.622656249999977 3.8500511073253847  14.733333333333348 3.5821313647548436  14.733333333333348 3.2683248154457942  C 14.733333333333348 2.960439144425493  14.621180555555554 2.693999621427224  14.396875000000023 2.469006246450874  C 14.172569444444434 2.244012871474524  13.906944444444434 2.1315161839863777  13.600000000000023 2.1315161839863777  C 13.293055555555554 2.1315161839863777  13.027430555555554 2.244012871474524  12.803125000000023 2.469006246450874  C 12.578819444444434 2.693999621427224  12.46666666666664 2.960439144425493  12.46666666666664 3.2683248154457942  C 12.46666666666664 3.5821313647548436  12.577343750000011 3.8500511073253847  12.79869791666664 4.072084043157304  C 13.020052083333326 4.294116978989223  13.287152777777806 4.405133446905154  13.600000000000023 4.405133446905154  C 13.91284722222224 4.405133446905154  14.179947916666663 4.294116978989223  14.401302083333348 4.072084043157304  Z M 11.27135416666664 6.834173764906268  C 11.312673611111109 6.884501230361536  11.333333333333314 6.942229793677825  11.333333333333314 7.007359454855191  L 11.333333333333314 8.650403180011324  C 11.333333333333314 8.709611962899885  11.312673611111109 8.767340526216174  11.27135416666664 8.823588869960247  C 11.230034722222229 8.87983721370432  11.182812500000011 8.910921824720788  11.129687499999989 8.91684270300965  L 9.757291666666674 9.129994321408276  C 9.692361111111097 9.33722506151804  9.597916666666663 9.56221843649439  9.473958333333314 9.804974446337326  C 9.674652777777794 10.089176604202123  9.940277777777794 10.429627105811107  10.270833333333314 10.826325951164108  C 10.312152777777783 10.891455612341474  10.332812499999989 10.950664395229978  10.332812499999989 11.00395229982962  C 10.332812499999989 11.075002839295848  10.312152777777783 11.131251183039922  10.270833333333314 11.172697331061897  C 10.135069444444468 11.35032367972741  9.891579861111097 11.61528298315352  9.540364583333314 11.967575241340114  C 9.189149305555532 12.319867499526765  8.957465277777771 12.496013628620119  8.845312499999977 12.496013628620119  C 8.780381944444457 12.496013628620119  8.718402777777783 12.475290554609103  8.659375000000011 12.433844406587127  L 7.641145833333326 11.634525837592264  C 7.422743055555543 11.74702252508041  7.195486111111109 11.838796138557655  6.959375000000023 11.909846678023825  C 6.894444444444446 12.549301533219761  6.826562500000023 13.008169600605697  6.75572916666664 13.28645088018169  C 6.7144097222222285 13.428551959114145  6.625868055555543 13.499602498580316  6.49010416666664 13.499602498580316  L 4.843229166666674 13.499602498580316  C 4.778298611111097 13.499602498580316  4.719270833333326 13.477399204997141  4.66614583333336 13.432992617830791  C 4.613020833333337 13.388586030664385  4.583506944444423 13.336778345636958  4.577604166666674 13.277569562748454  L 4.3739583333333485 11.918727995457118  C 4.173263888888869 11.859519212568614  3.95190972222224 11.767745599091427  3.7098958333333485 11.643407155025557  L 2.6651041666666515 12.433844406587127  C 2.62378472222224 12.475290554609103  2.5647569444444684 12.496013628620119  2.488020833333337 12.496013628620119  C 2.42309027777776 12.496013628620119  2.361111111111086 12.472330115464672  2.3020833333333144 12.424963089153891  C 1.4520833333333485 11.637486276736695  1.0270833333333371 11.163816013628605  1.0270833333333371 11.00395229982962  C 1.0270833333333371 10.950664395229978  1.047743055555543 10.894416051485905  1.0890625000000114 10.8352072685974  C 1.1480902777777828 10.75231497255345  1.2690972222222285 10.595411697898896  1.4520833333333485 10.364497444633741  C 1.6350694444444684 10.13358319136853  1.7737847222222172 9.952996403558586  1.8682291666666515 9.822737081203854  C 1.7324652777778056 9.56221843649439  1.6291666666666629 9.319462426651512  1.5583333333333371 9.094469051675162  L 0.21249999999997726 8.881317433276536  C 0.1534722222222058 8.875396554987674  0.10329861111108585 8.847272383115637  0.061979166666674246 8.796944917660426  C 0.0206597222222058 8.746617452205157  0 8.688888888888869  0 8.623759227711503  L 0 6.98071550255537  C 0 6.921506719666866  0.0206597222222058 6.863778156350577  0.061979166666674246 6.807529812606447  C 0.10329861111108585 6.7512814688623735  0.15052083333335986 6.720196857845906  0.20364583333332575 6.714275979557044  L 1.5760416666666401 6.501124361158418  C 1.6409722222222172 6.293893621048653  1.7354166666666515 6.068900246072303  1.859375 5.826144236229425  C 1.658680555555577 5.5419420783645705  1.393055555555577 5.201491576755643  1.0625 4.804792731402586  C 1.0211805555555316 4.73966307022522  1.0005208333333258 4.680454287336715  1.0005208333333258 4.627166382737073  C 1.0005208333333258 4.556115843270845  1.0211805555555316 4.496907060382341  1.0625 4.4495400340715605  C 1.1923611111110972 4.271913685405991  1.4343749999999886 4.008434601552153  1.7885416666666742 3.659102782509933  C 2.14270833333336 3.309770963467713  2.375868055555543 3.1351050539466314  2.488020833333337 3.1351050539466314  C 2.552951388888914 3.1351050539466314  2.6149305555555316 3.155828127957591  2.67395833333336 3.1972742759795665  L 3.6921874999999886 3.9965928449744297  C 3.8928819444444684 3.890017035775145  4.120138888888903 3.795282983153527  4.3739583333333485 3.7123906871095755  C 4.438888888888869 3.0729358319136963  4.5067708333333485 2.6170282036721346  4.577604166666674 2.344667802385004  C 4.618923611111086 2.2025667234526054  4.7074652777777715 2.1315161839863777  4.843229166666674 2.1315161839863777  L 6.49010416666664 2.1315161839863777  C 6.555034722222217 2.1315161839863777  6.614062499999989 2.1537194775695525  6.667187500000011 2.198126064735959  C 6.720312499999977 2.2425326519023088  6.749826388888891 2.2943403369297926  6.75572916666664 2.3535491198182967  L 6.959375000000023 3.7123906871095755  C 7.160069444444446 3.7715994699980797  7.381423611111131 3.863373083475267  7.623437500000023 3.987711527541194  L 8.668229166666663 3.1972742759795665  C 8.71545138888888 3.155828127957591  8.774479166666652 3.1351050539466314  8.845312499999977 3.1351050539466314  C 8.910243055555554 3.1351050539466314  8.972222222222229 3.1587885671020217  9.03125 3.206155593412859  C 9.881250000000023 3.993632405829999  10.306249999999977 4.467302668938089  10.306249999999977 4.627166382737073  C 10.306249999999977 4.6745334090479105  10.285590277777771 4.730781752791984  10.24427083333336 4.79591141396935  C 10.173437499999977 4.890645466590968  10.049479166666686 5.050509180389895  9.872395833333314 5.275502555366245  C 9.6953125 5.500495930342595  9.5625 5.678122279008107  9.473958333333314 5.808381601362839  C 9.609722222222217 6.0925837592276935  9.710069444444457 6.335339769070572  9.774999999999977 6.536649630891532  L 11.120833333333337 6.740919931856865  C 11.179861111111109 6.752761688434589  11.230034722222229 6.783846299451056  11.27135416666664 6.834173764906268  Z M 15.680729166666652 11.465780806359987  C 16.56024305555553 11.5545939806928  17 11.646367594169988  17 11.741101646791606  L 17 12.984486087450307  C 17 13.079220140071925  16.56024305555553 13.170993753549112  15.680729166666652 13.259806927881868  C 15.609895833333326 13.419670641680852  15.52135416666664 13.573613477190975  15.415104166666652 13.721635434412235  C 15.716145833333314 14.390694681052423  15.866666666666674 14.799235282983147  15.866666666666674 14.947257240204408  C 15.866666666666674 14.970940753359798  15.85486111111112 14.991663827370814  15.831250000000011 15.009426462237343  C 15.111111111111086 15.42980882074579  14.745138888888903 15.639999999999986  14.733333333333348 15.639999999999986  C 14.686111111111131 15.639999999999986  14.550347222222229 15.500859360211962  14.32604166666664 15.22257808063597  C 14.101736111111109 14.944296801059977  13.948263888888903 14.742986939239074  13.865625000000023 14.618648495173204  C 13.747569444444423 14.63049025175087  13.659027777777794 14.636411130039733  13.600000000000023 14.636411130039733  C 13.540972222222194 14.636411130039733  13.452430555555566 14.63049025175087  13.334375000000023 14.618648495173204  C 13.251736111111086 14.742986939239074  13.09826388888888 14.944296801059977  12.873958333333348 15.22257808063597  C 12.64965277777776 15.500859360211962  12.513888888888914 15.639999999999986  12.46666666666664 15.639999999999986  C 12.454861111111086 15.639999999999986  12.088888888888903 15.42980882074579  11.368749999999977 15.009426462237343  C 11.345138888888869 14.991663827370814  11.333333333333314 14.970940753359798  11.333333333333314 14.947257240204408  C 11.333333333333314 14.799235282983147  11.483854166666674 14.390694681052423  11.784895833333337 13.721635434412235  C 11.678645833333348 13.573613477190975  11.590104166666663 13.419670641680852  11.519270833333337 13.259806927881868  C 10.639756944444457 13.170993753549112  10.199999999999989 13.079220140071925  10.199999999999989 12.984486087450307  L 10.199999999999989 11.741101646791606  C 10.199999999999989 11.646367594169988  10.639756944444457 11.5545939806928  11.519270833333337 11.465780806359987  C 11.596006944444468 11.294075335983337  11.684548611111097 11.140132500473214  11.784895833333337 11.00395229982962  C 11.483854166666674 10.33489305318949  11.333333333333314 9.926352451258765  11.333333333333314 9.778330494037448  C 11.333333333333314 9.754646980882058  11.345138888888869 9.733923906871098  11.368749999999977 9.716161272004513  C 11.392361111111086 9.704319515426846  11.495659722222229 9.645110732538342  11.678645833333348 9.538534923339  C 11.861631944444468 9.431959114139659  12.03576388888888 9.331304183229236  12.20104166666664 9.236570130607618  C 12.366319444444457 9.141836077986  12.454861111111086 9.094469051675162  12.46666666666664 9.094469051675162  C 12.513888888888914 9.094469051675162  12.64965277777776 9.232129471890971  12.873958333333348 9.507450312322533  C 13.09826388888888 9.782771152754094  13.251736111111086 9.982600795002838  13.334375000000023 10.106939239068709  C 13.452430555555566 10.095097482490985  13.540972222222194 10.089176604202123  13.600000000000023 10.089176604202123  C 13.659027777777794 10.089176604202123  13.747569444444423 10.095097482490985  13.865625000000023 10.106939239068709  C 14.166666666666686 9.68655688056026  14.438194444444434 9.354987696384626  14.680208333333326 9.112231686541747  L 14.733333333333348 9.094469051675162  C 14.756944444444457 9.094469051675162  15.122916666666697 9.301699791784984  15.831250000000011 9.716161272004513  C 15.85486111111112 9.733923906871098  15.866666666666674 9.754646980882058  15.866666666666674 9.778330494037448  C 15.866666666666674 9.926352451258765  15.716145833333314 10.33489305318949  15.415104166666652 11.00395229982962  C 15.515451388888891 11.140132500473214  15.603993055555577 11.294075335983337  15.680729166666652 11.465780806359987  Z M 15.680729166666652 2.3713117546848252  C 16.56024305555553 2.4601249290175815  17 2.5518985424947687  17 2.6466325951163867  L 17 3.890017035775145  C 17 3.984751088396763  16.56024305555553 4.07652470187395  15.680729166666652 4.165337876206706  C 15.609895833333326 4.32520159000569  15.52135416666664 4.479144425515813  15.415104166666652 4.627166382737073  C 15.716145833333314 5.296225629377261  15.866666666666674 5.704766231307985  15.866666666666674 5.852788188529246  C 15.866666666666674 5.876471701684636  15.85486111111112 5.897194775695596  15.831250000000011 5.914957410562181  C 15.111111111111086 6.335339769070572  14.745138888888903 6.545530948324824  14.733333333333348 6.545530948324824  C 14.686111111111131 6.545530948324824  14.550347222222229 6.4063903085368  14.32604166666664 6.128109028960807  C 14.101736111111109 5.849827749384815  13.948263888888903 5.648517887563855  13.865625000000023 5.524179443497985  C 13.747569444444423 5.536021200075709  13.659027777777794 5.5419420783645705  13.600000000000023 5.5419420783645705  C 13.540972222222194 5.5419420783645705  13.452430555555566 5.536021200075709  13.334375000000023 5.524179443497985  C 13.251736111111086 5.648517887563855  13.09826388888888 5.849827749384815  12.873958333333348 6.128109028960807  C 12.64965277777776 6.4063903085368  12.513888888888914 6.545530948324824  12.46666666666664 6.545530948324824  C 12.454861111111086 6.545530948324824  12.088888888888903 6.335339769070572  11.368749999999977 5.914957410562181  C 11.345138888888869 5.897194775695596  11.333333333333314 5.876471701684636  11.333333333333314 5.852788188529246  C 11.333333333333314 5.704766231307985  11.483854166666674 5.296225629377261  11.784895833333337 4.627166382737073  C 11.678645833333348 4.479144425515813  11.590104166666663 4.32520159000569  11.519270833333337 4.165337876206706  C 10.639756944444457 4.07652470187395  10.199999999999989 3.984751088396763  10.199999999999989 3.890017035775145  L 10.199999999999989 2.6466325951163867  C 10.199999999999989 2.5518985424947687  10.639756944444457 2.4601249290175815  11.519270833333337 2.3713117546848252  C 11.596006944444468 2.1996062843081745  11.684548611111097 2.0456634487980523  11.784895833333337 1.9094832481544586  C 11.483854166666674 1.2404240015142705  11.333333333333314 0.8318833995835462  11.333333333333314 0.6838614423622857  C 11.333333333333314 0.6601779292068954  11.345138888888869 0.639454855195936  11.368749999999977 0.6216922203293507  C 11.392361111111086 0.6098504637516271  11.495659722222229 0.5506416808631229  11.678645833333348 0.44406587166383815  C 11.861631944444468 0.33749006246449653  12.03576388888888 0.2368351315540167  12.20104166666664 0.14210107893239865  C 12.366319444444457 0.0473670263107806  12.454861111111086 0  12.46666666666664 0  C 12.513888888888914 0  12.64965277777776 0.13766042021580915  12.873958333333348 0.4129812606473706  C 13.09826388888888 0.6883021010789321  13.251736111111086 0.8881317433276763  13.334375000000023 1.0124701873935464  C 13.452430555555566 1.0006284308158229  13.540972222222194 0.9947075525269611  13.600000000000023 0.9947075525269611  C 13.659027777777794 0.9947075525269611  13.747569444444423 1.0006284308158229  13.865625000000023 1.0124701873935464  C 14.166666666666686 0.5920878288850986  14.438194444444434 0.26051864470946384  14.680208333333326 0.017762634866528515  L 14.733333333333348 0  C 14.756944444444457 0  15.122916666666697 0.2072307401097646  15.831250000000011 0.6216922203293507  C 15.85486111111112 0.639454855195936  15.866666666666674 0.6601779292068954  15.866666666666674 0.6838614423622857  C 15.866666666666674 0.8318833995835462  15.716145833333314 1.2404240015142705  15.415104166666652 1.9094832481544586  C 15.515451388888891 2.0456634487980523  15.603993055555577 2.1996062843081745  15.680729166666652 2.3713117546848252  Z " fill-rule="nonzero" fill="#666666" stroke="none" transform="matrix(1 0 0 1 18 14 )" />
  </g>
</svg>