<?xml version="1.0" encoding="utf-8"?>
<svg version="1.1" xmlns:xlink="http://www.w3.org/1999/xlink" width="5px" height="7px" xmlns="http://www.w3.org/2000/svg">
  <g transform="matrix(1 0 0 1 -23 -20 )">
    <path d="M 4.838942307692264 0.5335365853658232  C 4.790865384615358 0.2646341463414501  4.502403846153811 0.07896341463413137  4.197115384615358 0.12378048780487916  L 0.4975961538461888 0.6615853658536253  C 0.19230769230773603 0.706402439024373  -0.014423076923094413 0.9624999999999774  0.03605769230773603 1.2335365853658686  C 0.08173076923071676 1.476829268292704  0.3197115384615472 1.649695121951254  0.588942307692264 1.649695121951254  C 0.620192307692264 1.649695121951254  0.6490384615384528 1.6475609756097356  0.6802884615384528 1.6432926829268126  L 4.377403846153811 1.1054878048780665  C 4.682692307692264 1.0606707317073187  4.889423076923094 0.8045731707317145  4.838942307692264 0.5335365853658232  Z M 4.838942307692264 3.1414634146341314  C 4.790865384615358 2.87042682926824  4.502403846153811 2.6868902439024396  4.197115384615358 2.7317073170731874  L 0.5 3.2695121951219335  C 0.1947115384615472 3.3143292682926813  -0.01201923076928324 3.5704268292682855  0.03846153846154721 3.841463414634177  C 0.08413461538464162 4.084756097561012  0.3221153846153584 4.257621951219562  0.5913461538461888 4.257621951219562  C 0.6225961538461888 4.257621951219562  0.651442307692264 4.255487804878044  0.682692307692264 4.251219512195121  L 4.377403846153811 3.713414634146375  C 4.682692307692264 3.6685975609756265  4.889423076923094 3.4125000000000227  4.838942307692264 3.1414634146341314  Z M 4.841346153846189 5.747256097560921  C 4.790865384615358 5.476219512195144  4.502403846153811 5.2926829268292295  4.197115384615358 5.337499999999977  L 0.5 5.875304878048837  C 0.1947115384615472 5.920121951219471  -0.01201923076928324 6.176219512195075  0.03846153846154721 6.447256097560967  C 0.08413461538464162 6.690548780487802  0.3221153846153584 6.863414634146352  0.5913461538461888 6.863414634146352  C 0.6225961538461888 6.863414634146352  0.651442307692264 6.861280487804834  0.682692307692264 6.857012195121911  L 4.379807692307736 6.319207317073165  C 4.685096153846189 6.274390243902417  4.891826923076906 6.018292682926813  4.841346153846189 5.747256097560921  Z " fill-rule="nonzero" fill="#666666" stroke="none" transform="matrix(1 0 0 1 23 20 )" />
  </g>
</svg>