<?xml version="1.0" encoding="utf-8"?>
<svg version="1.1" xmlns:xlink="http://www.w3.org/1999/xlink" width="20px" height="17px" xmlns="http://www.w3.org/2000/svg">
  <g transform="matrix(1 0 0 1 -17 -14 )">
    <path d="M 20 16.38418367346935  C 20 16.104464285714243  19.769911504424726 15.878954081632628  19.484513274336337 15.878954081632628  L 17 15.878954081632628  L 17 2.233418367346985  C 17.028761061946852 1.608928571428578  16.75 1.019132653061206  16.265486725663663 0.6158163265306484  C 15.78097345132744 0.21249999999997726  15.141592920354014 0.03686224489797496  14.513274336283189 0.13877551020402734  L 8.964601769911496 1.025637755102025  C 8.457964601769959 1.105867346938794  7.995575221238937 1.3617346938775654  7.663716814159329 1.7455357142856656  C 7.331858407079608 2.1293367346938794  7.148230088495552 2.6172193877550853  7.148230088495552 3.120280612244869  L 7.148230088495552 3.970280612244892  L 5.334070796460196 4.2608418367346985  C 4.827433628318545 4.3410714285714675  4.365044247787637 4.596938775510239  4.033185840707915 4.980739795918339  C 3.7013274336283075 5.364540816326553  3.517699115044252 5.852423469387759  3.517699115044252 6.355484693877543  L 3.517699115044252 14.736224489795859  C 3.517699115044252 15.037627551020364  3.3960176991150774 15.319515306122412  3.176991150442518 15.529846938775563  C 2.957964601769959 15.7401785714286  2.668141592920392 15.855102040816291  2.360619469026574 15.848596938775472  L 0.6991150442478329 15.818239795918316  L 0.690265486725707 15.818239795918316  C 0.4092920353982663 15.818239795918316  0.17920353982299275 16.039413265306166  0.1747787610619298 16.314795918367395  C 0.17035398230086685 16.594515306122503  0.39601769911507745 16.824362244897998  0.6814159292035811 16.828698979591877  L 2.342920353982322 16.859056122449033  C 2.9292035398229928 16.869897959183618  3.482300884955748 16.65306122448976  3.9004424778761404 16.251913265306143  C 4.318584070796419 15.848596938775472  4.5486725663716925 15.310841836734653  4.5486725663716925 14.736224489795973  L 4.5486725663716925 6.355484693877543  C 4.5486725663716925 5.806887755102025  4.949115044247833 5.347193877551035  5.5 5.258290816326507  L 11.048672566371692 4.371428571428623  C 11.378318584070826 4.3193877551020705  11.712389380531022 4.410459183673424  11.966814159292085 4.620790816326576  C 12.221238938053148 4.833290816326553  12.367256637168111 5.141198979591877  12.367256637168111 5.468622448979545  L 12.367256637168111 14.766581632653015  C 12.367256637168111 15.9375  13.338495575221259 16.889413265306075  14.533185840707915 16.889413265306075  L 19.484513274336223 16.889413265306075  C 19.769911504424726 16.889413265306075  20 16.66390306122446  20 16.38418367346935  Z M 14.533185840707915 15.876785714285688  C 13.907079646017678 15.878954081632628  13.398230088495552 15.380229591836724  13.398230088495552 14.766581632653015  L 13.398230088495552 5.468622448979545  C 13.398230088495552 4.844132653061251  13.1194690265487 4.254336734693879  12.634955752212363 3.851020408163322  C 12.15044247787614 3.4477040816326507  11.5110619469026 3.2720663265306484  10.882743362831889 3.373979591836701  L 8.179203539822993 3.805484693877588  L 8.179203539822993 3.120280612244869  C 8.179203539822993 2.5716836734693516  8.579646017699133 2.111989795918362  9.1305309734513 2.023086734693834  L 14.679203539822993 1.13622448979595  C 15.008849557522126 1.084183673469397  15.342920353982322 1.1752551020408646  15.597345132743385 1.3855867346939021  C 15.851769911504448 1.5980867346938794  15.997787610619525 1.9059948979592036  16 2.233418367346985  L 16 15.876785714285688  L 14.533185840707915 15.876785714285688  Z " fill-rule="nonzero" fill="#666666" stroke="none" transform="matrix(1 0 0 1 17 14 )" />
  </g>
</svg>