<?xml version="1.0" encoding="utf-8"?>
<svg version="1.1" xmlns:xlink="http://www.w3.org/1999/xlink" width="18px" height="20px" xmlns="http://www.w3.org/2000/svg">
  <defs>
    <pattern id="BGPattern" patternUnits="userSpaceOnUse" alignment="0 0" imageRepeat="None" />
    <mask fill="white" id="Clip1624">
      <path d="M 6.0874109753617915 3.7499971496366435  C 6.0874109753617915 2.1407588186939903  7.39076324171357 0.8355831298059985  9 0.8333333398437499  C 10.61083051674421 0.8333333398437501  11.91666666015625 2.13916948325579  11.91666666015625 3.75  C 11.91666666015625 4.6322222265625  11.52222220703125 5.421111113281249  10.903333339843751 5.955555546874999  C 12.260866367312529 6.554851107137097  13.258464699903332 7.756494303415325  13.597777773437501 9.20111111328125  C 15.025831792485906 9.413576314057337  16.08308965182835 10.639560614143038  16.08333333984375 12.083333339843751  C 16.08333333984375 12.96555556640625  15.68888888671875 13.754444453125  15.07 14.288888886718752  C 16.783336337746952 15.043472452769628  17.8891136215441 16.738968566920942  17.88888888671875 18.611111113281247  C 17.88888888671875 18.91793597489762  17.6401581916945 19.16666666992187  17.333333330078126 19.16666666992187  C 17.026508468461753 19.16666666992187  16.777777773437503 18.91793597489762  16.777777773437503 18.61111111328125  C 16.777777773437503 16.616749515471515  15.161028257965985 14.999999999999998  13.16666666015625 14.999999999999998  C 11.172305062346517 14.999999999999998  9.555555546875002 16.616749515471515  9.555555546875002 18.61111111328125  C 9.555555546875002 18.917935969504217  9.306824856222969 19.166666660156245  9.000000000000002 19.166666660156245  C 8.693175143777031 19.166666660156245  8.444444453125001 18.917935969504217  8.444444453125001 18.61111111328125  C 8.444444453125001 16.616749515471515  6.827694937653485 14.999999999999998  4.833333339843751 14.999999999999998  C 2.8389717420340186 14.999999999999998  1.222222226562502 16.616749515471515  1.222222226562502 18.61111111328125  C 1.2222222265625016 18.917935974897624  0.9734915315382513 19.16666666992187  0.6666666699218764 19.16666666992187  C 0.3598418083055024 19.16666666992187  0.11111111328125145 18.91793597489762  0.11111111328125123 18.611111113281247  C 0.1106923781679523 16.73923148120347  1.2159871626343537 15.043806906079414  2.928888886718751 14.288888886718752  C 2.287250049713553 13.735261346619627  1.9183684133409251 12.929763321818433  1.9183684133409251 12.082294236653912  C 1.9183684133409251 10.639413708737182  2.9741474855012537 9.413726514111389  4.401111113281251 9.2  C 4.740895784048913 7.755881101335596  5.73839693857754 6.554766301027884  7.095555546875001 5.955555546875  C 6.455315955966059 5.40154101576873  6.0874109753617915 4.59666050330453  6.0874109753617915 3.7499971496366435  Z M 12.4622222265625 9.256666660156249  C 12.0096445910366 7.721467204491917  10.600519739218296 6.667336901067408  9 6.66666666015625  C 7.399376405516691 6.666699127353911  5.98976626370237 7.7204019253969625  5.53666666015625 9.255555546875  C 6.83648990213379 9.577706992786856  7.749504278184011 10.744183695947303  7.75 12.08333333984375  C 7.75 12.965555566406248  7.355555546874999 13.754444453124998  6.736666660156251 14.288888886718748  C 7.704337163008947 14.716673298088267  8.501068218767305 15.455908296150048  9 16.38888888671875  C 9.498844520557867 15.45650700808826  10.295138989678527 14.71770531470529  11.2622222265625 14.290000000000001  C 10.621349029489014 13.736386207471634  10.252977537760847 12.931387345251208  10.252977537760847 12.084506783421599  C 10.252977537760847 10.746525841037348  11.164000128357257 9.580414070825476  12.4622222265625 9.256666660156249  Z M 4.83333333984375 10.83333333984375  C 4.142977402555259 10.83333333984375  3.58333333984375 11.392977402555257  3.58333333984375 12.08333333984375  C 3.58333333984375 12.773689277132242  4.142977402555259 13.33333333984375  4.83333333984375 13.33333333984375  C 5.523689277132242 13.33333333984375  6.083333339843751 12.773689277132242  6.083333339843751 12.08333333984375  C 6.083333339843751 11.392977402555257  5.523689277132242 10.83333333984375  4.83333333984375 10.83333333984375  Z M 13.16666666015625 10.83333333984375  C 12.476310722867758 10.83333333984375  11.91666666015625 11.392977402555257  11.91666666015625 12.08333333984375  C 11.91666666015625 12.773689277132242  12.476310722867758 13.33333333984375  13.16666666015625 13.33333333984375  C 13.857022597444743 13.33333333984375  14.41666666015625 12.773689277132242  14.41666666015625 12.08333333984375  C 14.41666666015625 11.392977402555257  13.857022597444743 10.83333333984375  13.16666666015625 10.83333333984375  Z M 9 2.5  C 8.30964406271151 2.5  7.75 3.0596440627115085  7.75 3.75  C 7.75 4.4403559372884915  8.30964406271151 5  9 5  C 9.69035593728849 5  10.25 4.4403559372884915  10.25 3.75  C 10.25 3.0596440627115085  9.69035593728849 2.5  9 2.5  Z " fill-rule="evenodd" />
    </mask>
  </defs>
  <g transform="matrix(1 0 0 1 -320 -614 )">
    <path d="M 6.0874109753617915 3.7499971496366435  C 6.0874109753617915 2.1407588186939903  7.39076324171357 0.8355831298059985  9 0.8333333398437499  C 10.61083051674421 0.8333333398437501  11.91666666015625 2.13916948325579  11.91666666015625 3.75  C 11.91666666015625 4.6322222265625  11.52222220703125 5.421111113281249  10.903333339843751 5.955555546874999  C 12.260866367312529 6.554851107137097  13.258464699903332 7.756494303415325  13.597777773437501 9.20111111328125  C 15.025831792485906 9.413576314057337  16.08308965182835 10.639560614143038  16.08333333984375 12.083333339843751  C 16.08333333984375 12.96555556640625  15.68888888671875 13.754444453125  15.07 14.288888886718752  C 16.783336337746952 15.043472452769628  17.8891136215441 16.738968566920942  17.88888888671875 18.611111113281247  C 17.88888888671875 18.91793597489762  17.6401581916945 19.16666666992187  17.333333330078126 19.16666666992187  C 17.026508468461753 19.16666666992187  16.777777773437503 18.91793597489762  16.777777773437503 18.61111111328125  C 16.777777773437503 16.616749515471515  15.161028257965985 14.999999999999998  13.16666666015625 14.999999999999998  C 11.172305062346517 14.999999999999998  9.555555546875002 16.616749515471515  9.555555546875002 18.61111111328125  C 9.555555546875002 18.917935969504217  9.306824856222969 19.166666660156245  9.000000000000002 19.166666660156245  C 8.693175143777031 19.166666660156245  8.444444453125001 18.917935969504217  8.444444453125001 18.61111111328125  C 8.444444453125001 16.616749515471515  6.827694937653485 14.999999999999998  4.833333339843751 14.999999999999998  C 2.8389717420340186 14.999999999999998  1.222222226562502 16.616749515471515  1.222222226562502 18.61111111328125  C 1.2222222265625016 18.917935974897624  0.9734915315382513 19.16666666992187  0.6666666699218764 19.16666666992187  C 0.3598418083055024 19.16666666992187  0.11111111328125145 18.91793597489762  0.11111111328125123 18.611111113281247  C 0.1106923781679523 16.73923148120347  1.2159871626343537 15.043806906079414  2.928888886718751 14.288888886718752  C 2.287250049713553 13.735261346619627  1.9183684133409251 12.929763321818433  1.9183684133409251 12.082294236653912  C 1.9183684133409251 10.639413708737182  2.9741474855012537 9.413726514111389  4.401111113281251 9.2  C 4.740895784048913 7.755881101335596  5.73839693857754 6.554766301027884  7.095555546875001 5.955555546875  C 6.455315955966059 5.40154101576873  6.0874109753617915 4.59666050330453  6.0874109753617915 3.7499971496366435  Z M 12.4622222265625 9.256666660156249  C 12.0096445910366 7.721467204491917  10.600519739218296 6.667336901067408  9 6.66666666015625  C 7.399376405516691 6.666699127353911  5.98976626370237 7.7204019253969625  5.53666666015625 9.255555546875  C 6.83648990213379 9.577706992786856  7.749504278184011 10.744183695947303  7.75 12.08333333984375  C 7.75 12.965555566406248  7.355555546874999 13.754444453124998  6.736666660156251 14.288888886718748  C 7.704337163008947 14.716673298088267  8.501068218767305 15.455908296150048  9 16.38888888671875  C 9.498844520557867 15.45650700808826  10.295138989678527 14.71770531470529  11.2622222265625 14.290000000000001  C 10.621349029489014 13.736386207471634  10.252977537760847 12.931387345251208  10.252977537760847 12.084506783421599  C 10.252977537760847 10.746525841037348  11.164000128357257 9.580414070825476  12.4622222265625 9.256666660156249  Z M 4.83333333984375 10.83333333984375  C 4.142977402555259 10.83333333984375  3.58333333984375 11.392977402555257  3.58333333984375 12.08333333984375  C 3.58333333984375 12.773689277132242  4.142977402555259 13.33333333984375  4.83333333984375 13.33333333984375  C 5.523689277132242 13.33333333984375  6.083333339843751 12.773689277132242  6.083333339843751 12.08333333984375  C 6.083333339843751 11.392977402555257  5.523689277132242 10.83333333984375  4.83333333984375 10.83333333984375  Z M 13.16666666015625 10.83333333984375  C 12.476310722867758 10.83333333984375  11.91666666015625 11.392977402555257  11.91666666015625 12.08333333984375  C 11.91666666015625 12.773689277132242  12.476310722867758 13.33333333984375  13.16666666015625 13.33333333984375  C 13.857022597444743 13.33333333984375  14.41666666015625 12.773689277132242  14.41666666015625 12.08333333984375  C 14.41666666015625 11.392977402555257  13.857022597444743 10.83333333984375  13.16666666015625 10.83333333984375  Z M 9 2.5  C 8.30964406271151 2.5  7.75 3.0596440627115085  7.75 3.75  C 7.75 4.4403559372884915  8.30964406271151 5  9 5  C 9.69035593728849 5  10.25 4.4403559372884915  10.25 3.75  C 10.25 3.0596440627115085  9.69035593728849 2.5  9 2.5  Z " fill-rule="nonzero" fill="rgba(255, 255, 255, 1)" stroke="none" transform="matrix(1 0 0 1 320 614 )" class="fill" />
    <path d="M 6.0874109753617915 3.7499971496366435  C 6.0874109753617915 2.1407588186939903  7.39076324171357 0.8355831298059985  9 0.8333333398437499  C 10.61083051674421 0.8333333398437501  11.91666666015625 2.13916948325579  11.91666666015625 3.75  C 11.91666666015625 4.6322222265625  11.52222220703125 5.421111113281249  10.903333339843751 5.955555546874999  C 12.260866367312529 6.554851107137097  13.258464699903332 7.756494303415325  13.597777773437501 9.20111111328125  C 15.025831792485906 9.413576314057337  16.08308965182835 10.639560614143038  16.08333333984375 12.083333339843751  C 16.08333333984375 12.96555556640625  15.68888888671875 13.754444453125  15.07 14.288888886718752  C 16.783336337746952 15.043472452769628  17.8891136215441 16.738968566920942  17.88888888671875 18.611111113281247  C 17.88888888671875 18.91793597489762  17.6401581916945 19.16666666992187  17.333333330078126 19.16666666992187  C 17.026508468461753 19.16666666992187  16.777777773437503 18.91793597489762  16.777777773437503 18.61111111328125  C 16.777777773437503 16.616749515471515  15.161028257965985 14.999999999999998  13.16666666015625 14.999999999999998  C 11.172305062346517 14.999999999999998  9.555555546875002 16.616749515471515  9.555555546875002 18.61111111328125  C 9.555555546875002 18.917935969504217  9.306824856222969 19.166666660156245  9.000000000000002 19.166666660156245  C 8.693175143777031 19.166666660156245  8.444444453125001 18.917935969504217  8.444444453125001 18.61111111328125  C 8.444444453125001 16.616749515471515  6.827694937653485 14.999999999999998  4.833333339843751 14.999999999999998  C 2.8389717420340186 14.999999999999998  1.222222226562502 16.616749515471515  1.222222226562502 18.61111111328125  C 1.2222222265625016 18.917935974897624  0.9734915315382513 19.16666666992187  0.6666666699218764 19.16666666992187  C 0.3598418083055024 19.16666666992187  0.11111111328125145 18.91793597489762  0.11111111328125123 18.611111113281247  C 0.1106923781679523 16.73923148120347  1.2159871626343537 15.043806906079414  2.928888886718751 14.288888886718752  C 2.287250049713553 13.735261346619627  1.9183684133409251 12.929763321818433  1.9183684133409251 12.082294236653912  C 1.9183684133409251 10.639413708737182  2.9741474855012537 9.413726514111389  4.401111113281251 9.2  C 4.740895784048913 7.755881101335596  5.73839693857754 6.554766301027884  7.095555546875001 5.955555546875  C 6.455315955966059 5.40154101576873  6.0874109753617915 4.59666050330453  6.0874109753617915 3.7499971496366435  Z " stroke-width="0" stroke-dasharray="0" stroke="rgba(255, 255, 255, 0)" fill="none" transform="matrix(1 0 0 1 320 614 )" class="stroke" mask="url(#Clip1624)" />
    <path d="M 12.4622222265625 9.256666660156249  C 12.0096445910366 7.721467204491917  10.600519739218296 6.667336901067408  9 6.66666666015625  C 7.399376405516691 6.666699127353911  5.98976626370237 7.7204019253969625  5.53666666015625 9.255555546875  C 6.83648990213379 9.577706992786856  7.749504278184011 10.744183695947303  7.75 12.08333333984375  C 7.75 12.965555566406248  7.355555546874999 13.754444453124998  6.736666660156251 14.288888886718748  C 7.704337163008947 14.716673298088267  8.501068218767305 15.455908296150048  9 16.38888888671875  C 9.498844520557867 15.45650700808826  10.295138989678527 14.71770531470529  11.2622222265625 14.290000000000001  C 10.621349029489014 13.736386207471634  10.252977537760847 12.931387345251208  10.252977537760847 12.084506783421599  C 10.252977537760847 10.746525841037348  11.164000128357257 9.580414070825476  12.4622222265625 9.256666660156249  Z " stroke-width="0" stroke-dasharray="0" stroke="rgba(255, 255, 255, 0)" fill="none" transform="matrix(1 0 0 1 320 614 )" class="stroke" mask="url(#Clip1624)" />
    <path d="M 4.83333333984375 10.83333333984375  C 4.142977402555259 10.83333333984375  3.58333333984375 11.392977402555257  3.58333333984375 12.08333333984375  C 3.58333333984375 12.773689277132242  4.142977402555259 13.33333333984375  4.83333333984375 13.33333333984375  C 5.523689277132242 13.33333333984375  6.083333339843751 12.773689277132242  6.083333339843751 12.08333333984375  C 6.083333339843751 11.392977402555257  5.523689277132242 10.83333333984375  4.83333333984375 10.83333333984375  Z " stroke-width="0" stroke-dasharray="0" stroke="rgba(255, 255, 255, 0)" fill="none" transform="matrix(1 0 0 1 320 614 )" class="stroke" mask="url(#Clip1624)" />
    <path d="M 13.16666666015625 10.83333333984375  C 12.476310722867758 10.83333333984375  11.91666666015625 11.392977402555257  11.91666666015625 12.08333333984375  C 11.91666666015625 12.773689277132242  12.476310722867758 13.33333333984375  13.16666666015625 13.33333333984375  C 13.857022597444743 13.33333333984375  14.41666666015625 12.773689277132242  14.41666666015625 12.08333333984375  C 14.41666666015625 11.392977402555257  13.857022597444743 10.83333333984375  13.16666666015625 10.83333333984375  Z " stroke-width="0" stroke-dasharray="0" stroke="rgba(255, 255, 255, 0)" fill="none" transform="matrix(1 0 0 1 320 614 )" class="stroke" mask="url(#Clip1624)" />
    <path d="M 9 2.5  C 8.30964406271151 2.5  7.75 3.0596440627115085  7.75 3.75  C 7.75 4.4403559372884915  8.30964406271151 5  9 5  C 9.69035593728849 5  10.25 4.4403559372884915  10.25 3.75  C 10.25 3.0596440627115085  9.69035593728849 2.5  9 2.5  Z " stroke-width="0" stroke-dasharray="0" stroke="rgba(255, 255, 255, 0)" fill="none" transform="matrix(1 0 0 1 320 614 )" class="stroke" mask="url(#Clip1624)" />
  </g>
</svg>