<?xml version="1.0" encoding="utf-8"?>
<svg version="1.1" xmlns:xlink="http://www.w3.org/1999/xlink" width="20px" height="20px" xmlns="http://www.w3.org/2000/svg">
  <defs>
    <pattern id="BGPattern" patternUnits="userSpaceOnUse" alignment="0 0" imageRepeat="None" />
    <mask fill="white" id="Clip1317">
      <path d="M 19.359374999999996 1.2578124999999996  C 19.369791674804688 1.307291674804687  19.374999999999996 1.3567708251953126  19.375 1.40625  L 19.375 4.010416674804688  C 19.375 4.442708349609374  19.026041674804688 4.791666674804688  18.59375 4.791666674804688  C 18.161458325195312 4.791666674804688  17.8125 4.442708349609374  17.8125 4.010416674804688  L 17.8125 3.2916666748046874  L 12.374999999999998 8.729166674804688  C 12.223958325195312 8.8828125  12.0234375 8.958333349609376  11.822916674804686 8.958333325195312  C 11.622395849609372 8.958333300781248  11.421875 8.8828125  11.27083332519531 8.729166674804688  L 7.135416674804688 4.59375  L 1.9583333251953128 9.770833325195314  C 1.8072916503906256 9.924479150390626  1.6067708251953128 10  1.40625 10  C 1.2057291748046872 10  1.0052083251953126 9.924479174804688  0.8541666748046872 9.770833325195314  C 0.549527750165309 9.465815049175362  0.549527750165309 8.971684950824638  0.8541666748046872 8.666666674804686  L 6.58333332519531 2.9374999999999996  C 6.888351604019642 2.6328610591048216  7.382481721175668 2.6328610591048216  7.687499999999998 2.9374999999999996  L 11.822916674804686 7.072916674804688  L 16.708333325195312 2.1875  L 15.989583325195314 2.1875  C 15.557291650390626 2.1875  15.208333325195314 1.8385416748046879  15.208333325195314 1.40625  C 15.208333325195314 0.9739583251953121  15.557291650390626 0.625  15.989583325195314 0.625  L 18.59375 0.625  C 18.643229174804684 0.625  18.692708325195312 0.6302083251953128  18.742187500000004 0.6406249999999997  C 18.760416674804688 0.643229174804687  18.778645825195316 0.6458333251953124  18.796875 0.653645825195312  C 18.854166674804688 0.6666666503906249  18.908854174804688 0.6874999999999992  18.958333325195316 0.7161458251953123  C 18.979166650390628 0.7265624999999998  19.002604150390624 0.7395833251953121  19.0234375 0.7552083251953123  C 19.046875 0.7682291503906247  19.067708325195312 0.7838541503906249  19.0859375 0.8020833251953119  C 19.127604174804688 0.8333333251953118  19.166666674804684 0.8723958251953118  19.197916674804688 0.9140624999999991  C 19.216145849609376 0.9322916748046872  19.231770849609372 0.9531249999999991  19.244791674804684 0.9765624999999994  C 19.260416674804688 0.9973958251953119  19.2734375 1.0208333251953117  19.283854174804688 1.0416666748046866  C 19.3125 1.091145849609374  19.333333349609376 1.1458333496093742  19.346354174804684 1.2031249999999993  C 19.354166674804688 1.221354174804687  19.35677084960937 1.2395833251953121  19.359374999999996 1.2578124999999996  Z M 3.75 18.59375  C 3.75 19.02522246080531  3.4002224608053067 19.375  2.96875 19.375  C 2.5372775391946933 19.375  2.1875 19.02522246080531  2.1875 18.59375  L 2.1875 12.864583325195314  C 2.1875 12.433110864390006  2.5372775391946933 12.083333325195314  2.96875 12.083333325195314  C 3.4002224608053067 12.083333325195314  3.75 12.433110864390006  3.75 12.864583325195314  L 3.75 18.59375  Z " fill-rule="evenodd" />
    </mask>
  </defs>
  <g transform="matrix(1 0 0 1 -170 -750 )">
    <path d="M 19.359374999999996 1.2578124999999996  C 19.369791674804688 1.307291674804687  19.374999999999996 1.3567708251953126  19.375 1.40625  L 19.375 4.010416674804688  C 19.375 4.442708349609374  19.026041674804688 4.791666674804688  18.59375 4.791666674804688  C 18.161458325195312 4.791666674804688  17.8125 4.442708349609374  17.8125 4.010416674804688  L 17.8125 3.2916666748046874  L 12.374999999999998 8.729166674804688  C 12.223958325195312 8.8828125  12.0234375 8.958333349609376  11.822916674804686 8.958333325195312  C 11.622395849609372 8.958333300781248  11.421875 8.8828125  11.27083332519531 8.729166674804688  L 7.135416674804688 4.59375  L 1.9583333251953128 9.770833325195314  C 1.8072916503906256 9.924479150390626  1.6067708251953128 10  1.40625 10  C 1.2057291748046872 10  1.0052083251953126 9.924479174804688  0.8541666748046872 9.770833325195314  C 0.549527750165309 9.465815049175362  0.549527750165309 8.971684950824638  0.8541666748046872 8.666666674804686  L 6.58333332519531 2.9374999999999996  C 6.888351604019642 2.6328610591048216  7.382481721175668 2.6328610591048216  7.687499999999998 2.9374999999999996  L 11.822916674804686 7.072916674804688  L 16.708333325195312 2.1875  L 15.989583325195314 2.1875  C 15.557291650390626 2.1875  15.208333325195314 1.8385416748046879  15.208333325195314 1.40625  C 15.208333325195314 0.9739583251953121  15.557291650390626 0.625  15.989583325195314 0.625  L 18.59375 0.625  C 18.643229174804684 0.625  18.692708325195312 0.6302083251953128  18.742187500000004 0.6406249999999997  C 18.760416674804688 0.643229174804687  18.778645825195316 0.6458333251953124  18.796875 0.653645825195312  C 18.854166674804688 0.6666666503906249  18.908854174804688 0.6874999999999992  18.958333325195316 0.7161458251953123  C 18.979166650390628 0.7265624999999998  19.002604150390624 0.7395833251953121  19.0234375 0.7552083251953123  C 19.046875 0.7682291503906247  19.067708325195312 0.7838541503906249  19.0859375 0.8020833251953119  C 19.127604174804688 0.8333333251953118  19.166666674804684 0.8723958251953118  19.197916674804688 0.9140624999999991  C 19.216145849609376 0.9322916748046872  19.231770849609372 0.9531249999999991  19.244791674804684 0.9765624999999994  C 19.260416674804688 0.9973958251953119  19.2734375 1.0208333251953117  19.283854174804688 1.0416666748046866  C 19.3125 1.091145849609374  19.333333349609376 1.1458333496093742  19.346354174804684 1.2031249999999993  C 19.354166674804688 1.221354174804687  19.35677084960937 1.2395833251953121  19.359374999999996 1.2578124999999996  Z M 3.75 18.59375  C 3.75 19.02522246080531  3.4002224608053067 19.375  2.96875 19.375  C 2.5372775391946933 19.375  2.1875 19.02522246080531  2.1875 18.59375  L 2.1875 12.864583325195314  C 2.1875 12.433110864390006  2.5372775391946933 12.083333325195314  2.96875 12.083333325195314  C 3.4002224608053067 12.083333325195314  3.75 12.433110864390006  3.75 12.864583325195314  L 3.75 18.59375  Z " fill-rule="nonzero" fill="rgba(255, 255, 255, 1)" stroke="none" transform="matrix(1 0 0 1 170 750 )" class="fill" />
    <path d="M 19.359374999999996 1.2578124999999996  C 19.369791674804688 1.307291674804687  19.374999999999996 1.3567708251953126  19.375 1.40625  L 19.375 4.010416674804688  C 19.375 4.442708349609374  19.026041674804688 4.791666674804688  18.59375 4.791666674804688  C 18.161458325195312 4.791666674804688  17.8125 4.442708349609374  17.8125 4.010416674804688  L 17.8125 3.2916666748046874  L 12.374999999999998 8.729166674804688  C 12.223958325195312 8.8828125  12.0234375 8.958333349609376  11.822916674804686 8.958333325195312  C 11.622395849609372 8.958333300781248  11.421875 8.8828125  11.27083332519531 8.729166674804688  L 7.135416674804688 4.59375  L 1.9583333251953128 9.770833325195314  C 1.8072916503906256 9.924479150390626  1.6067708251953128 10  1.40625 10  C 1.2057291748046872 10  1.0052083251953126 9.924479174804688  0.8541666748046872 9.770833325195314  C 0.549527750165309 9.465815049175362  0.549527750165309 8.971684950824638  0.8541666748046872 8.666666674804686  L 6.58333332519531 2.9374999999999996  C 6.888351604019642 2.6328610591048216  7.382481721175668 2.6328610591048216  7.687499999999998 2.9374999999999996  L 11.822916674804686 7.072916674804688  L 16.708333325195312 2.1875  L 15.989583325195314 2.1875  C 15.557291650390626 2.1875  15.208333325195314 1.8385416748046879  15.208333325195314 1.40625  C 15.208333325195314 0.9739583251953121  15.557291650390626 0.625  15.989583325195314 0.625  L 18.59375 0.625  C 18.643229174804684 0.625  18.692708325195312 0.6302083251953128  18.742187500000004 0.6406249999999997  C 18.760416674804688 0.643229174804687  18.778645825195316 0.6458333251953124  18.796875 0.653645825195312  C 18.854166674804688 0.6666666503906249  18.908854174804688 0.6874999999999992  18.958333325195316 0.7161458251953123  C 18.979166650390628 0.7265624999999998  19.002604150390624 0.7395833251953121  19.0234375 0.7552083251953123  C 19.046875 0.7682291503906247  19.067708325195312 0.7838541503906249  19.0859375 0.8020833251953119  C 19.127604174804688 0.8333333251953118  19.166666674804684 0.8723958251953118  19.197916674804688 0.9140624999999991  C 19.216145849609376 0.9322916748046872  19.231770849609372 0.9531249999999991  19.244791674804684 0.9765624999999994  C 19.260416674804688 0.9973958251953119  19.2734375 1.0208333251953117  19.283854174804688 1.0416666748046866  C 19.3125 1.091145849609374  19.333333349609376 1.1458333496093742  19.346354174804684 1.2031249999999993  C 19.354166674804688 1.221354174804687  19.35677084960937 1.2395833251953121  19.359374999999996 1.2578124999999996  Z " stroke-width="0" stroke-dasharray="0" stroke="rgba(255, 255, 255, 0)" fill="none" transform="matrix(1 0 0 1 170 750 )" class="stroke" mask="url(#Clip1317)" />
    <path d="M 3.75 18.59375  C 3.75 19.02522246080531  3.4002224608053067 19.375  2.96875 19.375  C 2.5372775391946933 19.375  2.1875 19.02522246080531  2.1875 18.59375  L 2.1875 12.864583325195314  C 2.1875 12.433110864390006  2.5372775391946933 12.083333325195314  2.96875 12.083333325195314  C 3.4002224608053067 12.083333325195314  3.75 12.433110864390006  3.75 12.864583325195314  L 3.75 18.59375  Z " stroke-width="0" stroke-dasharray="0" stroke="rgba(255, 255, 255, 0)" fill="none" transform="matrix(1 0 0 1 170 750 )" class="stroke" mask="url(#Clip1317)" />
  </g>
</svg>