<?xml version="1.0" encoding="utf-8"?>
<svg version="1.1" xmlns:xlink="http://www.w3.org/1999/xlink" width="26px" height="26px" xmlns="http://www.w3.org/2000/svg">
  <g transform="matrix(1 0 0 1 0 -139 )">
    <path d="M 26 7.675986842105264  C 25.961513157894736 7.620394736842105  25.935855263157897 7.573355263157896  25.927302631578947 7.5220394736842096  C 25.918749999999996 7.470723684210526  25.914473684210527 7.423684210526314  25.897368421052626 7.372368421052631  C 25.841776315789474 7.1713815789473685  25.751973684210526 6.983223684210524  25.610855263157887 6.837828947368419  L 20.898355263157896 0.5174342105263156  C 20.67598684210526 0.29934210526315785  20.376644736842103 0.17105263157894735  20.06875 0.17105263157894735  L 5.9312499999999995 0.17105263157894735  C 5.61907894736842 0.17105263157894735  5.319736842105263 0.29506578947368445  5.09736842105263 0.5174342105263156  L 0.3848684210526316 6.837828947368419  C 0.23947368421052606 6.983223684210524  0.1539473684210524 7.1713815789473685  0.09835526315789522 7.372368421052631  C 0.08552631578947367 7.423684210526314  0.0769736842105268 7.470723684210526  0.06842105263157991 7.5220394736842096  C 0.05986842105263304 7.573355263157893  0.03848684210526462 7.616118421052629  0 7.675986842105264  L 0 22.433552631578948  C 0.03848684210526462 24.306578947368422  1.560855263157896 25.828947368421055  3.4338815789473713 25.828947368421055  L 22.566118421052636 25.828947368421055  C 24.434868421052634 25.828947368421055  25.961513157894736 24.302302631578947  26 22.433552631578948  L 26 7.675986842105264  Z M 4.0625 7  L 6.414473684210526 3  L 19.57697368421052 3  L 21.933223684210525 7  L 4.0625 7  Z M 13.059868421052629 11.845394736842106  L 11.46907894736842 19.35032894736842  L 10.06217105263158 19.35032894736842  L 10.767763157894738 16.027631578947364  L 7.560526315789474 16.027631578947364  L 6.8549342105263165 19.35032894736842  L 5.456578947368422 19.35032894736842  L 7.0473684210526315 11.845394736842106  L 8.445723684210527 11.845394736842106  L 7.829934210526317 14.736184210526318  L 11.03717105263158 14.736184210526318  L 11.65296052631579 11.845394736842106  L 13.059868421052629 11.845394736842106  Z M 18.730263157894722 15.984868421052633  C 19.658223684210512 17.374671052631584  20.372368421052613 19.350328947368425  20.37236842105263 19.35032894736842  L 18.811513157894737 19.35032894736842  C 18.811513157894737 19.35032894736842  17.883552631578944 16.92138157894737  17.558552631578948 16.61348684210526  C 17.464473684210525 16.527960526315788  17.353289473684214 16.45953947368421  17.225 16.412499999999998  C 17.096710526315793 16.36118421052631  16.955592105263165 16.33980263157894  16.801644736842107 16.33980263157894  L 15.300657894736844 16.33980263157894  L 14.65921052631579 19.354605263157893  L 13.25657894736842 19.354605263157893  L 14.851644736842104 11.845394736842106  L 18.212828947368422 11.845394736842106  C 18.413815789473688 11.845394736842106  18.601973684210527 11.84967105263158  18.781578947368416 11.858223684210525  C 18.961184210526312 11.866776315789473  19.132236842105264 11.888157894736842  19.290460526315783 11.922368421052632  C 19.448684210526316 11.95657894736842  19.59835526315789 12.007894736842106  19.739473684210523 12.076315789473686  C 19.87631578947368 12.144736842105265  20.00460526315789 12.238815789473687  20.115789473684202 12.354276315789475  C 20.214144736842098 12.461184210526316  20.2953947368421 12.576644736842105  20.363815789473676 12.709210526315792  C 20.42796052631578 12.837500000000002  20.474999999999994 12.978618421052634  20.504934210526308 13.124013157894742  C 20.53486842105262 13.269407894736844  20.54769736842104 13.419078947368424  20.54769736842104 13.577302631578952  C 20.54769736842104 13.73552631578948  20.526315789473674 13.889473684210529  20.496381578947357 14.043421052631581  C 20.398026315789465 14.50098684210527  20.20559210526315 14.894407894736844  19.914802631578937 15.223684210526322  C 19.624013157894726 15.552960526315795  19.15361842105262 15.809539473684218  18.730263157894722 15.984868421052633  Z M 15.989144736842109 13.068421052631576  L 15.570065789473686 15.044078947368419  L 17.43453947368421 15.044078947368419  C 17.68684210526316 15.044078947368419  17.90493421052632 15.026973684210525  18.088815789473685 14.992763157894734  C 18.276973684210525 14.958552631578947  18.43519736842105 14.902960526315786  18.563486842105263 14.821710526315785  C 18.69605263157895 14.740460526315786  18.798684210526318 14.637828947368419  18.879934210526315 14.509539473684208  C 18.961184210526312 14.38125  19.021052631578947 14.223026315789468  19.05953947368421 14.039144736842104  C 19.132236842105264 13.705592105263158  19.076644736842105 13.461842105263157  18.90559210526316 13.303618421052628  C 18.73026315789474 13.1453947368421  18.426644736842107 13.068421052631576  17.99473684210527 13.068421052631576  L 15.989144736842109 13.068421052631576  Z " fill-rule="nonzero" fill="#ff0000" stroke="none" transform="matrix(1 0 0 1 0 139 )" />
  </g>
</svg>