<svg t="1750062873821" class="icon" viewBox="0 0 1024 1024" version="1.1" xmlns="http://www.w3.org/2000/svg" p-id="12331" width="64" height="64"><path d="M758.471484 672.770614c-53.176107 0-96.444563 43.276642-96.444563 96.452749 0 53.193503 43.268456 96.471169 96.444563 96.471169 53.185316 0 96.452749-43.276642 96.452749-96.471169C854.924233 716.047256 811.656801 672.770614 758.471484 672.770614zM758.471484 815.986409c-25.7822 0-46.753837-20.972661-46.753837-46.76407 0-25.77299 20.972661-46.74565 46.753837-46.74565s46.763047 20.972661 46.763047 46.74565C805.234531 795.013749 784.253684 815.986409 758.471484 815.986409z" fill="#f4ea2a" p-id="12332"></path><path d="M1013.490645 718.832695c-3.618411-19.097964-15.874549-31.450293-31.607882-31.450293l-2.180666 0c-30.109762 0-54.613852-24.49488-54.613852-54.595432 0-7.900947 3.451612-17.60803 4.765537-20.657482 7.454786-16.785292 1.717108-37.389562-14.849196-48.865941l-63.85533-35.357276c-5.002944-2.155083-10.407024-3.25923-16.074094-3.25923-11.564383 0-22.997784 4.713348-30.566156 12.56313-7.955182 8.199753-29.085432 25.125237-43.636846 25.125237-14.691607 0-35.95284-17.258059-43.915186-25.580608-7.612375-8.042163-19.141966-12.842493-30.837332-12.842493-5.606695 0-10.933003 1.068332-15.715937 3.136433l-1.192152 0.491187-64.98506 35.68985-1.541099 0.99977c-15.112186 10.512425-20.87647 31.099299-13.474896 47.744397 0.500397 1.191128 4.836145 11.756765 4.836145 20.814048 0 30.101575-24.503067 54.595432-54.621015 54.595432l-2.540869 0c-15.357779 0-27.622104 12.352329-31.240515 31.467689-0.550539 2.944052-5.386684 29.347398-5.386684 50.704822 0 21.358447 4.836145 47.762817 5.386684 50.723242 3.618411 19.097964 15.874549 31.450293 31.617092 31.450293l2.164293 0c30.117948 0 54.621015 24.493857 54.621015 54.595432 0 7.90197-3.451612 17.609053-4.765537 20.657482-7.445576 16.766872-1.725294 37.354769 14.778588 48.865941l62.656015 34.901905c4.993734 2.172479 10.399861 3.294023 16.07614 3.294023 11.783371 0 23.329335-4.924149 30.880311-13.157671 7.709589-8.374738 29.628808-26.719548 44.591591-26.719548 15.119349 0 36.785811 18.379603 44.88835 27.262924 7.594979 8.374738 19.219737 13.369495 31.100322 13.369495 5.580089 0 10.897188-1.069355 17.36346-3.925403l63.34777-35.006282 1.514493-0.998747c15.08558-10.496052 20.840654-31.064506 13.44829-47.728024-0.500397-1.191128-4.836145-11.756765-4.836145-20.815071 0-30.101575 24.503067-54.595432 54.613852-54.595432l2.514263 0c15.382339 0 27.656897-12.352329 31.256888-31.398104 0.053212-0.26299 5.40408-28.313859 5.40408-50.776454C1018.877329 748.198513 1014.041184 721.794144 1013.490645 718.832695zM966.024587 802.916742c-51.441603 6.728238-90.627067 50.652634-90.627067 103.408161 0 12.177344 2.934842 23.740704 5.526877 31.573089l-45.712111 25.26543c-4.108574-4.02978-10.670014-10.057053-18.799158-16.084327-20.202111-14.998599-39.772842-22.620184-58.151421-22.620184-18.222013 0-37.635155 7.481392-57.713446 22.198581-8.016581 5.887081-14.500249 11.721973-18.678408 15.769149l-43.697221-24.441669c2.592035-7.849782 5.553483-19.48375 5.553483-31.661094 0-52.755528-39.177278-96.680946-90.617857-103.408161-1.313925-8.514931-3.163039-22.391986-3.163039-33.360805 0-11.021008 1.839905-24.862247 3.163039-33.359782 51.432393-6.728238 90.617857-50.652634 90.617857-103.409185 0-12.141528-2.934842-23.705911-5.51869-31.537274l47.182602-25.895787c4.092201 3.854794 10.662851 9.653871 18.729573 15.400758 19.809161 14.121626 38.905078 21.287839 56.750515 21.287839 17.661242 0 36.600593-7.02602 56.278771-20.88568 8.007371-5.624091 14.488992-11.248182 18.615986-15.08558l45.175899 25.107841c-2.592035 7.832386-5.544273 19.431561-5.544273 31.607882 0 52.756551 39.177278 96.680946 90.61888 103.409185 1.339508 8.673543 3.171226 22.479991 3.171226 33.359782C969.18865 780.50736 967.366142 794.277992 966.024587 802.916742z" fill="#f4ea2a" p-id="12333"></path><path d="M526.8318 460.003765l0-30.634718 62.36028 0 0 24.189935c50.316989-26.37981 107.536178-41.379433 168.289867-41.379433 3.318582 0 6.599302 0.161682 9.896394 0.249687L767.378341 289.044092 647.650493 289.044092l0-51.232848-58.459437 0 0 51.232848-119.164007 0 0-21.707394L228.357941 267.336698l0 58.458413 31.725562 0 0 324.477093c-9.123798 1.412163-37.768185 5.980201-37.768185 5.980201l14.103206 64.652486 10.305717-2.216481c42.475394-9.093099 84.796268-18.049075 126.953414-26.838252l0 113.957425 22.132066 0c-0.842181-10.091846-1.37737-20.272719-1.37737-30.582529 0-58.768475 14.051017-114.223484 38.84061-163.332972L433.272961 325.795111l36.190247 0 0 202.701608 21.785166 0c25.00858-26.973328 54.073546-50.099025 86.214571-68.492954L526.8318 460.003765zM647.650493 344.740602 710.025099 344.740602l0 30.05655-62.375629 0L647.64947 344.740602zM526.8318 344.740602l62.36028 0 0 30.05655-62.36028 0L526.8318 344.740602zM373.678678 628.959805c-18.47477 3.673669-36.479843 7.14984-54.012148 10.428513l0-73.03234 54.012148 0L373.678678 628.959805zM373.678678 509.004783l-54.012148 0L319.66653 446.082708l54.012148 0L373.678678 509.004783zM373.678678 388.716162l-54.012148 0 0-62.921052 54.012148 0L373.678678 388.716162z" fill="#f4ea2a" p-id="12334"></path><path d="M75.05337 511.645936c0-235.749282 191.802374-427.550633 427.550633-427.550633 216.102826 0 395.158898 161.201425 423.522899 369.647875 24.755824 13.013385 47.798633 28.805046 68.7672 46.953382C989.029534 234.161111 770.537288 19.09387 502.604002 19.09387c-271.603885 0-492.567415 220.962507-492.567415 492.552066 0 262.398222 206.251458 477.480812 465.142809 491.76412-17.46579-21.580504-32.5483-45.164642-44.75225-70.414723C228.945319 898.578476 75.05337 722.8021 75.05337 511.645936z" fill="#f4ea2a" p-id="12335"></path></svg>