<svg t="1750062915944" class="icon" viewBox="0 0 1024 1024" version="1.1" xmlns="http://www.w3.org/2000/svg" p-id="13529" width="26" height="26"><path d="M791.1 757H735V511.9c0-16.5-13.5-30-30-30s-30 13.5-30 30V757h-61V577c0-16.5-13.6-30-30.1-30s-30 13.5-30 30v180h-61V504.2c0-16.5-13.7-30-30.2-30h0.1c-16.5 0-29.9 13.5-29.9 30V757h-61V550.4c0-16.5-13.7-30-30.2-30h0.1c-16.5 0-29.9 13.5-29.9 30V757h-38V247.6c0-16.5-13.6-30-30.1-30s-30 13.5-30 30v533.3c0 9.8 4.7 18.5 12 24 5.5 7.3 14.1 12.1 24 12.1h541.1c16.5 0 30-13.5 30-30 0.2-16.5-13.3-30-29.8-30z" p-id="13530" fill="#d4237a"></path><path d="M330.3 491.4l142.6-97.6 93.2 100.6c5.9 6.4 14 9.6 22 9.6 7.3 0 14.5-2.6 20.3-7.9l176.1-161.7c12.2-11.2 13-30.2 1.8-42.4s-30.2-13-42.4-1.8L589.8 431.8l-90.5-97.7c-10.1-10.9-26.7-12.8-39-4.4l-164 112.2c-13.7 9.4-17.2 28-7.8 41.7 9.5 13.7 28.1 17.2 41.8 7.8z" p-id="13531" fill="#d4237a"></path><path d="M512 0C229.2 0 0 229.2 0 512s229.2 512 512 512 512-229.2 512-512S794.8 0 512 0z m311.1 823.1c-40.4 40.4-87.5 72.2-139.9 94.3C629 940.4 571.4 952 512 952c-59.4 0-117-11.6-171.2-34.5-52.4-22.2-99.4-53.9-139.9-94.3-40.4-40.4-72.2-87.5-94.3-139.9C83.6 629 72 571.4 72 512s11.6-117 34.5-171.2c22.2-52.4 53.9-99.4 94.3-139.9 40.4-40.4 87.5-72.2 139.9-94.3C395 83.6 452.6 72 512 72c59.4 0 117 11.6 171.2 34.5 52.4 22.2 99.4 53.9 139.9 94.3 40.4 40.4 72.2 87.5 94.3 139.9C940.4 395 952 452.6 952 512s-11.6 117-34.5 171.2c-22.2 52.4-53.9 99.5-94.4 139.9z" p-id="13532" fill="#d4237a"></path></svg>