<svg t="1750062962263" class="icon" viewBox="0 0 1024 1024" version="1.1" xmlns="http://www.w3.org/2000/svg" p-id="14660" width="26" height="26"><path d="M257 538.3l126.4-128.6 187.7 90.6c4.8 2.3 10.5 1.6 14.5-1.8l198.7-164.8c5.8-4.8 6.6-13.3 1.8-19.1-4.8-5.8-13.3-6.6-19.1-1.8L575 472.1 386.4 381c-5.2-2.5-11.5-1.4-15.6 2.7L237.7 519.3c-5.2 5.3-5.2 13.9 0.2 19.2 2.6 2.6 6.1 3.9 9.5 3.9 3.5-0.1 7-1.4 9.6-4.1zM804.1 809.5H219c-7.5 0-13.5 6.1-13.5 13.5s6.1 13.5 13.5 13.5h585.2c7.5 0 13.5-6.1 13.5-13.5s-6.1-13.5-13.6-13.5z" fill="#3259CE" p-id="14661"></path><path d="M851.4 187H171.7c-20.2 0-36.6 16.4-36.6 36.6v243.9c0 7.5 6.1 13.5 13.5 13.5s13.5-6.1 13.5-13.5V223.6c0-5.2 4.2-9.5 9.5-9.5h679.7c5.2 0 9.5 4.3 9.5 9.5v445.3c0 5.2-4.2 9.5-9.5 9.5H171.7c-5.2 0-9.5-4.3-9.5-9.5v-93.1-0.7c0-7.5-6.1-13.5-13.5-13.5s-13.5 6.1-13.5 13.5v93.8c0 20.2 16.4 36.6 36.6 36.6h679.7c20.2 0 36.6-16.4 36.6-36.6V223.6c-0.2-20.2-16.5-36.6-36.7-36.6z" fill="#3259CE" p-id="14662"></path></svg>