<?xml version="1.0" encoding="utf-8"?>
<svg version="1.1" xmlns:xlink="http://www.w3.org/1999/xlink" width="26px" height="26px" xmlns="http://www.w3.org/2000/svg">
  <g transform="matrix(1 0 0 1 0 -8 )">
    <path d="M 25.926136363636363 13  C 25.926136363636363 5.867542613636362  20.132457386363637 0.07386363636363637  13 0.07386363636363637  C 5.867542613636363 0.07386363636363637  0.07386363636363637 5.867542613636363  0.07386363636363637 13  C 0.07386363636363637 20.132457386363637  5.867542613636363 25.926136363636363  13 25.926136363636363  C 20.132457386363637 25.926136363636363  25.926136363636363 20.132457386363637  25.926136363636363 13  Z M 24.079545454545453 13  C 24.079545454545453 19.116832386363637  19.116832386363637 24.079545454545453  13 24.079545454545453  C 6.883167613636363 24.079545454545453  1.9204545454545456 19.116832386363637  1.9204545454545456 13  C 1.9204545454545456 6.883167613636363  6.883167613636363 1.9204545454545456  13 1.9204545454545456  C 19.116832386363637 1.9204545454545456  24.079545454545453 6.883167613636363  24.079545454545453 13  Z M 18.285866477272727 6.952414772727272  L 14.038707386363635 11.15340909090909  L 18.539772727272727 11.15340909090909  L 18.539772727272727 13  L 13.946377840909088 13  L 13.946377840909088 14.84659090909091  L 18.539772727272727 14.84659090909091  L 18.539772727272727 16.69318181818182  L 13.946377840909088 16.69318181818182  L 13.946377840909088 22.27911931818182  L 12.09978693181818 22.27911931818182  L 12.09978693181818 16.69318181818182  L 7.4602272727272725 16.69318181818182  L 7.4602272727272725 14.84659090909091  L 12.099786931818182 14.84659090909091  L 12.099786931818182 13  L 7.4602272727272725 13  L 7.4602272727272725 11.15340909090909  L 12.007457386363637 11.15340909090909  L 7.8064630681818175 6.952414772727272  L 9.12215909090909 5.636718749999999  L 13.046164772727273 9.56072443181818  L 16.970170454545453 5.636718749999999  L 18.285866477272727 6.952414772727272  Z " fill-rule="nonzero" fill="#ff4e51" stroke="none" transform="matrix(1 0 0 1 0 8 )" />
  </g>
</svg>