<svg t="1750063075896" class="icon" viewBox="0 0 1024 1024" version="1.1" xmlns="http://www.w3.org/2000/svg" p-id="18038" width="26" height="26"><path d="M183.4 228.8L513 139.4l329.6 89.4v265.8c0 191.3-139.4 355.2-329.6 390-190.2-37.3-329.6-201.2-329.6-390V228.8z m213.4 50.5c-25.1 66.4-65.3 132.9-110.5 176.3 7.5 10.2 20.1 33.2 22.6 43.4 15-15.3 27.6-33.2 42.7-51.1v250.3h40.2V386.6c17.6-30.2 32.7-61.8 45.2-94.5l-40.2-12.8z m308.8 258V499h-123v-51.1h97.9V299.7H447v150.7h92.9v51.1H414.4v38.3h102.9c-30.1 46-72.8 86.8-118 109.8 10 7.7 22.6 23 30.1 33.2 40.2-25.6 80.4-66.4 110.5-112.4v130.3h42.7V568c27.6 46 67.8 89.4 105.4 115 7.5-10.2 20.1-25.5 30.1-33.2-40.2-23-82.9-66.4-110.5-109.8h97.9c0.1-0.1 0.1-2.7 0.1-2.7zM487.2 335.5h153.2v74.1H487.2v-74.1z" fill="#008AD2" p-id="18039"></path></svg>