<svg t="1750063037158" class="icon" viewBox="0 0 1024 1024" version="1.1" xmlns="http://www.w3.org/2000/svg" p-id="16890" width="26" height="26"><path d="M949.76 868.352h-271.36c-24.576 0-49.152-2.56-49.152-27.648v-132.096h233.984c15.36 0 28.16-19.456 28.16-43.008 0-23.552-12.288-43.008-28.16-43.008h-233.984v-70.144h233.984c15.36 0 28.16-19.456 28.16-43.008 0-23.552-12.288-43.008-28.16-43.008h-233.984V379.904h233.984c15.36 0 28.16-19.456 28.16-43.008 0-23.552-12.288-43.008-28.16-43.008h-233.984V179.712c0-24.576 19.968-45.056 44.544-45.056H938.496C963.072 134.656 983.04 154.624 983.04 179.712V840.704c0 25.088-9.216 27.648-33.28 27.648z m-428.544 100.864l-441.856-90.624c-25.088-6.144-43.008-28.16-43.52-54.272l-1.536-637.952c0.512-25.6 18.432-48.128 43.52-53.248l442.88-82.944c24.064-4.608 55.808 9.216 55.808 33.792v852.992c0 25.088-31.232 37.888-55.808 33.792l0.512-1.536z m-259.072-520.192c-16.896-23.552-44.544-37.376-73.216-35.84-29.184-1.024-56.32 12.288-73.216 35.84-16.896 23.552-25.088 52.224-24.064 80.896-1.024 28.672 7.168 57.344 24.064 80.896 16.896 24.064 44.544 37.376 73.216 36.352 29.184 1.024 56.832-12.8 73.216-36.352 16.896-23.552 25.088-52.224 24.064-80.896 1.024-29.184-7.68-57.344-24.064-80.896z m198.656 75.264h-2.56v-1.024h1.536l-44.544-108.544h-31.744l-93.184 229.888h35.328l25.6-62.976h97.792l25.6 62.976h35.328l-49.152-120.32z m-60.928-62.464l36.352 88.064h-71.68l35.328-88.064z m-211.456 153.6c-19.968 0.512-38.4-10.24-48.128-27.648-10.752-17.408-15.872-37.376-15.36-57.856-1.024-20.48 4.096-40.448 14.848-57.856 10.24-17.408 28.672-27.136 48.64-26.624 19.968-0.512 38.4 9.728 48.64 26.624 10.24 17.408 15.36 37.376 14.336 57.856 1.024 20.48-4.608 40.96-14.848 58.368-9.728 17.408-28.16 28.16-48.128 27.136z" fill="#1296db" p-id="16891"></path></svg>