<svg t="1750063183853" class="icon" viewBox="0 0 1024 1024" version="1.1" xmlns="http://www.w3.org/2000/svg" p-id="21402" width="26" height="26"><path d="M511.994732 696.354243a28.262391 28.262391 0 0 1-27.955191-28.501324v-127.283158h-125.269291a28.296524 28.296524 0 0 1-27.989324-28.501324c0-15.701328 12.561062-28.501324 27.989324-28.501324h125.269291v-127.283157c0-15.701328 12.526929-28.501324 27.989324-28.501324 15.394128 0 27.921057 12.799996 27.921058 28.501324v127.146624h125.303425c15.394128 0 27.989324 12.799996 27.989324 28.535457 0 15.701328-12.595196 28.501324-27.989324 28.501324h-125.269292v127.385558c0 15.701328-12.561062 28.501324-27.989324 28.501324zM123.625795 214.903736l25.736525 395.980668a244.223919 244.223919 0 0 0 98.065034 180.906607l213.230862 158.24208c14.950395 11.09333 32.699722 16.964261 51.336516 16.964261s36.386121-5.870931 51.336516-16.964261l213.230863-158.24208a244.258052 244.258052 0 0 0 98.065034-180.906607l25.736524-395.980668L511.994732 56.081389 123.625795 214.903736zM511.994732 1024a140.15142 140.15142 0 0 1-84.172772-27.955191l-213.264995-158.24208a301.294833 301.294833 0 0 1-120.900227-223.129526L68.39808 226.201866a67.379178 67.379178 0 0 1 41.403719-66.969578L487.31634 4.847273a65.331178 65.331178 0 0 1 49.390917 0l377.514541 154.385015a67.140244 67.140244 0 0 1 41.369586 66.969578l-25.258658 388.471337a301.397233 301.397233 0 0 1-120.900226 223.129526l-213.230863 158.24208A140.322087 140.322087 0 0 1 511.994732 1024z" fill="#1296db" p-id="21403"></path></svg>