<?xml version="1.0" encoding="utf-8"?>
<svg version="1.1" xmlns:xlink="http://www.w3.org/1999/xlink" width="11px" height="7px" xmlns="http://www.w3.org/2000/svg">
  <g transform="matrix(1 0 0 1 -30 -77 )">
    <path d="M 1.5812499999999543 6.200290697674404  C 1.5791666666666517 6.586918604651146  1.256249999999909 6.90029069767445  0.8583333333333485 6.898255813953483  C 0.46041666666656056 6.896220930232516  0.1416666666666515 6.580813953488359  0.14374999999995453 6.192151162790651  L 0.16249999999990905 2.1834302325581803  C 0.16458333333343944 1.794767441860472  0.4874999999999545 1.4834302325581348  0.8854166666667425 1.4854651162791015  C 1.283333333333303 1.4874999999999545  1.6020833333334394 1.8029069767442252  1.599999999999909 2.1915697674418197  L 1.5812499999999543 6.200290697674404  Z M 4.685416666666697 6.214534883720944  C 4.681250000000091 6.6011627906976855  4.3583333333333485 6.914534883720876  3.962500000000091 6.912500000000023  C 3.564583333333303 6.910465116279056  3.245833333333394 6.595058139534899  3.247916666666697 6.206395348837191  L 3.2729166666665606 1.2290697674418425  C 3.275000000000091 0.8404069767441342  3.597916666666606 0.5290697674419107  3.995833333333394 0.5311046511627637  C 4.3937499999999545 0.5331395348837304  4.712500000000091 0.8485465116278874  4.710416666666561 1.2372093023255957  L 4.685416666666697 6.214534883720944  Z M 7.787499999999909 6.226744186046517  C 7.785416666666606 6.615406976744225  7.462500000000091 6.928779069767415  7.064583333333303 6.926744186046562  C 6.6666666666667425 6.924709302325596  6.347916666666606 6.609302325581439  6.34999999999991 6.2206395348837304  L 6.3645833333332575 3.4043604651162696  C 6.3666666666665614 3.0156976744185613  6.689583333333303 2.704360465116224  7.087500000000091 2.706395348837191  C 7.4854166666666515 2.7084302325581575  7.804166666666561 3.0238372093023145  7.8020833333332575 3.4125000000000227  L 7.787499999999909 6.226744186046517  Z M 10.889583333333348 6.24302325581391  C 10.887500000000045 6.629651162790651  10.564583333333303 6.943023255813955  10.166666666666742 6.940988372092988  C 9.768749999999955 6.938953488372135  9.450000000000045 6.623546511627865  9.452083333333348 6.23488372093027  L 9.479166666666742 0.7000000000000455  C 9.481250000000045 0.3113372093023372  9.80416666666656 0  10.202083333333348 0.002034883720966718  C 10.599999999999909 0.004069767441819749  10.918750000000045 0.3194767441860904  10.916666666666742 0.708139534883685  L 10.889583333333348 6.24302325581391  Z " fill-rule="nonzero" fill="#fb536c" stroke="none" transform="matrix(1 0 0 1 30 77 )" />
  </g>
</svg>