<?xml version="1.0" encoding="utf-8"?>
<svg version="1.1" xmlns:xlink="http://www.w3.org/1999/xlink" width="13px" height="15px" xmlns="http://www.w3.org/2000/svg">
  <g transform="matrix(1 0 0 1 -239 -20 )">
    <path d="M 13 1.9347509765625002  C 12.93912159090909 1.61115234375  12.674556818181818 1.3488134765625002  12.3482125 1.3488134765625  L 9.169742045454544 1.3488134765625  L 9.169742045454544 0.38173828125  C 9.169742045454544 0.21944824218749998  9.037481818181819 0.087890625  8.874317045454545 0.087890625  L 4.146985227272728 0.087890625  C 3.983820454545454 0.087890625  3.8515602272727274 0.2194482421875  3.8515602272727274 0.38173828125  L 3.8515602272727274 1.3488134765625002  L 0.6730897727272728 1.3488134765625002  C 0.3467454545454547 1.3488134765625002  0.08218068181818186 1.61115234375  0 1.9347509765625002  L 0 14.2883935546875  C 0.08218068181818186 14.6119921875  0.3467454545454547 14.8743310546875  0.6730897727272728 14.8743310546875  L 12.3482125 14.8743310546875  C 12.674556818181818 14.8743310546875  12.93912159090909 14.6119921875  13 14.2883935546875  L 13 1.9347509765625002  Z M 12 2.6764013671875  L 12 13.546743164062502  C 12.167261363636364 13.831494140625  11.934472727272727 14.062324218750001  11.647305681818182 14  L 1.3739965909090908 14  C 1.0868295454545454 14.062324218750001  0.8540409090909089 13.831494140625  1 13.546743164062502  L 1 2.6764013671875  C 0.8540409090909089 2.391650390625  1.0868295454545454 2.1608203125  1.3739965909090908 2.1608203125  L 11.647305681818182 2.1608203125  C 11.934472727272727 2.1608203125  12.167261363636364 2.391650390625  12 2.6764013671875  Z " fill-rule="nonzero" fill="#016fa0" stroke="none" transform="matrix(1 0 0 1 239 20 )" />
  </g>
</svg>