<?xml version="1.0" encoding="utf-8"?>
<svg version="1.1" xmlns:xlink="http://www.w3.org/1999/xlink" width="8px" height="5px" xmlns="http://www.w3.org/2000/svg">
  <g transform="matrix(1 0 0 1 -242 -26 )">
    <path d="M 7.605343750000001 0.2537053571428585  C 7.374734375000001 0.0347470238095252  6.983671875000001 0.05224702380952502  6.7318750000000005 0.29278273809523825  L 3.2295 3.6385119047619052  L 1.03590625 1.799151785714286  C 1.0288726306879132 1.7933241746619917  1.0215573877908426 1.7878122311289162  1.0139843749999997 1.7826339285714288  C 0.907078125 1.6795238095238099  0.758640625 1.6155654761904767  0.5944687499999999 1.6155654761904767  C 0.26884375000000027 1.6155654761904767  0.004875000000000185 1.8669642857142863  0.004875000000000185 2.1770833333333344  C 0.004875000000000185 2.3588392857142875  0.09562500000000007 2.520342261904763  0.23625000000000007 2.6229613095238102  C 0.24275000000000002 2.6295535714285716  0.24946875000000013 2.635997023809524  0.25668749999999996 2.642053571428572  L 2.8921875000000004 4.851949404761905  C 2.9395468750000004 4.891666666666667  2.997625 4.915  3.0613593750000003 4.923288690476191  C 3.2775156250000004 4.991904761904762  3.5368281250000004 4.935580357142858  3.721375 4.759285714285715  L 7.566968750000001 1.085684523809525  C 7.818765625000001 0.8451488095238109  7.835953125000001 0.47266369047619183  7.605343750000001 0.2537053571428585  Z " fill-rule="nonzero" fill="#016fa0" stroke="none" transform="matrix(1 0 0 1 242 26 )" />
  </g>
</svg>