<?xml version="1.0" encoding="utf-8"?>
<svg version="1.1" xmlns:xlink="http://www.w3.org/1999/xlink" width="20px" height="20px" xmlns="http://www.w3.org/2000/svg">
  <defs>
    <pattern id="BGPattern" patternUnits="userSpaceOnUse" alignment="0 0" imageRepeat="None" />
    <mask fill="white" id="Clip1633">
      <path d="M 10 3.7199999999999998  C 11.50666666015625 3.7199999999999998  12.853333339843749 2.78666666015625  13.42666666015625 1.45333333984375  C 14.226666660156251 1.77333333984375  14.98666666015625 2.21333333984375  15.666666660156249 2.74666666015625  C 14.8 3.92  14.666666660156249 5.54666666015625  15.41333333984375 6.853333339843751  C 16.08 8  17.32 8.72  18.64 8.72  C 18.78666666015625 8.72  18.93333333984375 8.70666666015625  19.09333333984375 8.69333333984375  C 19.16 9.12  19.1866666796875 9.559999999999999  19.186666660156252 9.98666666015625  C 19.186666640625 10.4133333203125  19.16 10.8533333203125  19.09333333984375 11.28  C 18.9466666796875 11.266666660156249  18.799999999999997 11.25333333984375  18.64 11.25333333984375  C 17.30666666015625 11.25333333984375  16.066666660156248 11.97333333984375  15.41333333984375 13.120000000000001  C 14.653333339843748 14.42666666015625  14.7866666796875 16.053333339843753  15.666666660156249 17.22666666015625  C 14.98666666015625 17.76  14.226666660156251 18.2  13.42666666015625 18.52  C 12.853333320312501 17.17333333984375  11.50666666015625 16.253333339843753  10 16.253333339843753  C 8.49333333984375 16.253333339843753  7.14666666015625 17.1866666796875  6.5733333398437495 18.52  C 5.7733333398437505 18.2  5.01333333984375 17.76  4.33333333984375 17.22666666015625  C 5.2 16.0533333203125  5.33333333984375 14.42666666015625  4.58666666015625 13.120000000000001  C 3.92 11.97333333984375  2.68 11.25333333984375  1.36 11.25333333984375  C 1.21333333984375 11.25333333984375  1.06666666015625 11.2666666796875  0.9066666601562501 11.28  C 0.8400000000000001 10.853333339843749  0.8133333203125002 10.41333333984375  0.8133333398437501 9.98666666015625  C 0.8133333593750001 9.55999998046875  0.8400000000000001 9.12  0.9066666601562501 8.69333333984375  C 1.0533333203125 8.7066666796875  1.2000000000000002 8.72  1.36 8.72  C 2.6933333398437496 8.72  3.93333333984375 8  4.58666666015625 6.853333339843751  C 5.34666666015625 5.546666679687499  5.2133333203125 3.92  4.33333333984375 2.74666666015625  C 5.013333339843751 2.2133333203125  5.7733333398437505 1.7733333203125001  6.5733333398437495 1.45333333984375  C 7.1466666796875 2.8000000000000003  8.49333333984375 3.7199999999999998  10 3.7199999999999998  Z M 16.84 2.6933333398437513  C 15.720331993364278 1.642764744414987  14.374772226386302 0.8627962028136658  12.90666666015625 0.4133333398437501  C 12.6933333203125 1.8266666796875004  11.479999999999999 2.92  10 2.92  C 8.520000000000001 2.92  7.30666666015625 1.8266666601562498  7.093333339843751 0.41333333984375  C 5.6000000000000005 0.8666666796875  4.2666666796875 1.65333333984375  3.1600000000000006 2.6933333398437496  C 4.28 3.5866666796874997  4.61333333984375 5.17333333984375  3.880000000000001 6.45333333984375  C 3.333333339843751 7.4  2.346666660156251 7.92  1.3466666601562505 7.92  C 0.9866666601562504 7.92  0.6133333203125004 7.85333333984375  0.2666666601562505 7.720000000000001  C -0.0888765679448851 9.219208719235434  -0.0888765679448851 10.780791280764568  0.2666666601562505 12.28  C 0.6133333203125004 12.14666666015625  0.9866666601562504 12.08  1.3466666601562505 12.08  C 2.3600000000000003 12.08  3.3466666601562505 12.6  3.880000000000001 13.54666666015625  C 4.61333333984375 14.82666666015625  4.28 16.4133333203125  3.1600000000000006 17.306666660156253  C 4.26666666015625 18.346666660156252  5.613333339843751 19.133333320312502  7.093333339843751 19.58666666015625  C 7.3066666796875 18.1733333203125  8.520000000000001 17.080000000000002  10 17.080000000000002  C 11.479999999999999 17.080000000000002  12.693333339843749 18.17333333984375  12.90666666015625 19.58666666015625  C 14.399999999999999 19.133333320312502  15.7333333203125 18.346666660156252  16.84 17.306666660156253  C 15.719999999999999 16.413333320312503  15.38666666015625 14.826666660156251  16.119999999999997 13.546666660156252  C 16.66666666015625 12.600000000000001  17.653333339843748 12.080000000000002  18.653333339843748 12.080000000000002  C 19.01333333984375 12.080000000000002  19.386666679687497 12.146666660156251  19.73333333984375 12.280000000000001  C 20.088876567944887 10.78079128076457  20.088876567944887 9.219208719235436  19.73333333984375 7.720000000000002  C 19.3866666796875 7.853333339843752  19.01333333984375 7.920000000000003  18.653333339843748 7.920000000000003  C 17.64 7.920000000000003  16.65333333984375 7.400000000000002  16.119999999999997 6.453333339843752  C 15.38666666015625 5.173333339843752  15.719999999999999 3.586666679687502  16.84 2.6933333398437513  Z " fill-rule="evenodd" />
    </mask>
  </defs>
  <g transform="matrix(1 0 0 1 -21 -1022 )">
    <path d="M 10 3.7199999999999998  C 11.50666666015625 3.7199999999999998  12.853333339843749 2.78666666015625  13.42666666015625 1.45333333984375  C 14.226666660156251 1.77333333984375  14.98666666015625 2.21333333984375  15.666666660156249 2.74666666015625  C 14.8 3.92  14.666666660156249 5.54666666015625  15.41333333984375 6.853333339843751  C 16.08 8  17.32 8.72  18.64 8.72  C 18.78666666015625 8.72  18.93333333984375 8.70666666015625  19.09333333984375 8.69333333984375  C 19.16 9.12  19.1866666796875 9.559999999999999  19.186666660156252 9.98666666015625  C 19.186666640625 10.4133333203125  19.16 10.8533333203125  19.09333333984375 11.28  C 18.9466666796875 11.266666660156249  18.799999999999997 11.25333333984375  18.64 11.25333333984375  C 17.30666666015625 11.25333333984375  16.066666660156248 11.97333333984375  15.41333333984375 13.120000000000001  C 14.653333339843748 14.42666666015625  14.7866666796875 16.053333339843753  15.666666660156249 17.22666666015625  C 14.98666666015625 17.76  14.226666660156251 18.2  13.42666666015625 18.52  C 12.853333320312501 17.17333333984375  11.50666666015625 16.253333339843753  10 16.253333339843753  C 8.49333333984375 16.253333339843753  7.14666666015625 17.1866666796875  6.5733333398437495 18.52  C 5.7733333398437505 18.2  5.01333333984375 17.76  4.33333333984375 17.22666666015625  C 5.2 16.0533333203125  5.33333333984375 14.42666666015625  4.58666666015625 13.120000000000001  C 3.92 11.97333333984375  2.68 11.25333333984375  1.36 11.25333333984375  C 1.21333333984375 11.25333333984375  1.06666666015625 11.2666666796875  0.9066666601562501 11.28  C 0.8400000000000001 10.853333339843749  0.8133333203125002 10.41333333984375  0.8133333398437501 9.98666666015625  C 0.8133333593750001 9.55999998046875  0.8400000000000001 9.12  0.9066666601562501 8.69333333984375  C 1.0533333203125 8.7066666796875  1.2000000000000002 8.72  1.36 8.72  C 2.6933333398437496 8.72  3.93333333984375 8  4.58666666015625 6.853333339843751  C 5.34666666015625 5.546666679687499  5.2133333203125 3.92  4.33333333984375 2.74666666015625  C 5.013333339843751 2.2133333203125  5.7733333398437505 1.7733333203125001  6.5733333398437495 1.45333333984375  C 7.1466666796875 2.8000000000000003  8.49333333984375 3.7199999999999998  10 3.7199999999999998  Z M 16.84 2.6933333398437513  C 15.720331993364278 1.642764744414987  14.374772226386302 0.8627962028136658  12.90666666015625 0.4133333398437501  C 12.6933333203125 1.8266666796875004  11.479999999999999 2.92  10 2.92  C 8.520000000000001 2.92  7.30666666015625 1.8266666601562498  7.093333339843751 0.41333333984375  C 5.6000000000000005 0.8666666796875  4.2666666796875 1.65333333984375  3.1600000000000006 2.6933333398437496  C 4.28 3.5866666796874997  4.61333333984375 5.17333333984375  3.880000000000001 6.45333333984375  C 3.333333339843751 7.4  2.346666660156251 7.92  1.3466666601562505 7.92  C 0.9866666601562504 7.92  0.6133333203125004 7.85333333984375  0.2666666601562505 7.720000000000001  C -0.0888765679448851 9.219208719235434  -0.0888765679448851 10.780791280764568  0.2666666601562505 12.28  C 0.6133333203125004 12.14666666015625  0.9866666601562504 12.08  1.3466666601562505 12.08  C 2.3600000000000003 12.08  3.3466666601562505 12.6  3.880000000000001 13.54666666015625  C 4.61333333984375 14.82666666015625  4.28 16.4133333203125  3.1600000000000006 17.306666660156253  C 4.26666666015625 18.346666660156252  5.613333339843751 19.133333320312502  7.093333339843751 19.58666666015625  C 7.3066666796875 18.1733333203125  8.520000000000001 17.080000000000002  10 17.080000000000002  C 11.479999999999999 17.080000000000002  12.693333339843749 18.17333333984375  12.90666666015625 19.58666666015625  C 14.399999999999999 19.133333320312502  15.7333333203125 18.346666660156252  16.84 17.306666660156253  C 15.719999999999999 16.413333320312503  15.38666666015625 14.826666660156251  16.119999999999997 13.546666660156252  C 16.66666666015625 12.600000000000001  17.653333339843748 12.080000000000002  18.653333339843748 12.080000000000002  C 19.01333333984375 12.080000000000002  19.386666679687497 12.146666660156251  19.73333333984375 12.280000000000001  C 20.088876567944887 10.78079128076457  20.088876567944887 9.219208719235436  19.73333333984375 7.720000000000002  C 19.3866666796875 7.853333339843752  19.01333333984375 7.920000000000003  18.653333339843748 7.920000000000003  C 17.64 7.920000000000003  16.65333333984375 7.400000000000002  16.119999999999997 6.453333339843752  C 15.38666666015625 5.173333339843752  15.719999999999999 3.586666679687502  16.84 2.6933333398437513  Z " fill-rule="nonzero" fill="rgba(255, 255, 255, 1)" stroke="none" transform="matrix(1 0 0 1 21 1022 )" class="fill" />
    <path d="M 10 3.7199999999999998  C 11.50666666015625 3.7199999999999998  12.853333339843749 2.78666666015625  13.42666666015625 1.45333333984375  C 14.226666660156251 1.77333333984375  14.98666666015625 2.21333333984375  15.666666660156249 2.74666666015625  C 14.8 3.92  14.666666660156249 5.54666666015625  15.41333333984375 6.853333339843751  C 16.08 8  17.32 8.72  18.64 8.72  C 18.78666666015625 8.72  18.93333333984375 8.70666666015625  19.09333333984375 8.69333333984375  C 19.16 9.12  19.1866666796875 9.559999999999999  19.186666660156252 9.98666666015625  C 19.186666640625 10.4133333203125  19.16 10.8533333203125  19.09333333984375 11.28  C 18.9466666796875 11.266666660156249  18.799999999999997 11.25333333984375  18.64 11.25333333984375  C 17.30666666015625 11.25333333984375  16.066666660156248 11.97333333984375  15.41333333984375 13.120000000000001  C 14.653333339843748 14.42666666015625  14.7866666796875 16.053333339843753  15.666666660156249 17.22666666015625  C 14.98666666015625 17.76  14.226666660156251 18.2  13.42666666015625 18.52  C 12.853333320312501 17.17333333984375  11.50666666015625 16.253333339843753  10 16.253333339843753  C 8.49333333984375 16.253333339843753  7.14666666015625 17.1866666796875  6.5733333398437495 18.52  C 5.7733333398437505 18.2  5.01333333984375 17.76  4.33333333984375 17.22666666015625  C 5.2 16.0533333203125  5.33333333984375 14.42666666015625  4.58666666015625 13.120000000000001  C 3.92 11.97333333984375  2.68 11.25333333984375  1.36 11.25333333984375  C 1.21333333984375 11.25333333984375  1.06666666015625 11.2666666796875  0.9066666601562501 11.28  C 0.8400000000000001 10.853333339843749  0.8133333203125002 10.41333333984375  0.8133333398437501 9.98666666015625  C 0.8133333593750001 9.55999998046875  0.8400000000000001 9.12  0.9066666601562501 8.69333333984375  C 1.0533333203125 8.7066666796875  1.2000000000000002 8.72  1.36 8.72  C 2.6933333398437496 8.72  3.93333333984375 8  4.58666666015625 6.853333339843751  C 5.34666666015625 5.546666679687499  5.2133333203125 3.92  4.33333333984375 2.74666666015625  C 5.013333339843751 2.2133333203125  5.7733333398437505 1.7733333203125001  6.5733333398437495 1.45333333984375  C 7.1466666796875 2.8000000000000003  8.49333333984375 3.7199999999999998  10 3.7199999999999998  Z " stroke-width="0" stroke-dasharray="0" stroke="rgba(255, 255, 255, 0)" fill="none" transform="matrix(1 0 0 1 21 1022 )" class="stroke" mask="url(#Clip1633)" />
    <path d="M 16.84 2.6933333398437513  C 15.720331993364278 1.642764744414987  14.374772226386302 0.8627962028136658  12.90666666015625 0.4133333398437501  C 12.6933333203125 1.8266666796875004  11.479999999999999 2.92  10 2.92  C 8.520000000000001 2.92  7.30666666015625 1.8266666601562498  7.093333339843751 0.41333333984375  C 5.6000000000000005 0.8666666796875  4.2666666796875 1.65333333984375  3.1600000000000006 2.6933333398437496  C 4.28 3.5866666796874997  4.61333333984375 5.17333333984375  3.880000000000001 6.45333333984375  C 3.333333339843751 7.4  2.346666660156251 7.92  1.3466666601562505 7.92  C 0.9866666601562504 7.92  0.6133333203125004 7.85333333984375  0.2666666601562505 7.720000000000001  C -0.0888765679448851 9.219208719235434  -0.0888765679448851 10.780791280764568  0.2666666601562505 12.28  C 0.6133333203125004 12.14666666015625  0.9866666601562504 12.08  1.3466666601562505 12.08  C 2.3600000000000003 12.08  3.3466666601562505 12.6  3.880000000000001 13.54666666015625  C 4.61333333984375 14.82666666015625  4.28 16.4133333203125  3.1600000000000006 17.306666660156253  C 4.26666666015625 18.346666660156252  5.613333339843751 19.133333320312502  7.093333339843751 19.58666666015625  C 7.3066666796875 18.1733333203125  8.520000000000001 17.080000000000002  10 17.080000000000002  C 11.479999999999999 17.080000000000002  12.693333339843749 18.17333333984375  12.90666666015625 19.58666666015625  C 14.399999999999999 19.133333320312502  15.7333333203125 18.346666660156252  16.84 17.306666660156253  C 15.719999999999999 16.413333320312503  15.38666666015625 14.826666660156251  16.119999999999997 13.546666660156252  C 16.66666666015625 12.600000000000001  17.653333339843748 12.080000000000002  18.653333339843748 12.080000000000002  C 19.01333333984375 12.080000000000002  19.386666679687497 12.146666660156251  19.73333333984375 12.280000000000001  C 20.088876567944887 10.78079128076457  20.088876567944887 9.219208719235436  19.73333333984375 7.720000000000002  C 19.3866666796875 7.853333339843752  19.01333333984375 7.920000000000003  18.653333339843748 7.920000000000003  C 17.64 7.920000000000003  16.65333333984375 7.400000000000002  16.119999999999997 6.453333339843752  C 15.38666666015625 5.173333339843752  15.719999999999999 3.586666679687502  16.84 2.6933333398437513  Z " stroke-width="0" stroke-dasharray="0" stroke="rgba(255, 255, 255, 0)" fill="none" transform="matrix(1 0 0 1 21 1022 )" class="stroke" mask="url(#Clip1633)" />
  </g>
</svg>