<?xml version="1.0" encoding="utf-8"?>
<svg version="1.1" xmlns:xlink="http://www.w3.org/1999/xlink" width="20px" height="15px" xmlns="http://www.w3.org/2000/svg">
  <g transform="matrix(1 0 0 1 -344 -23 )">
    <path d="M 5.29586834733891 11.207386363636369  C 5.5001167133520195 11.406250000000021  5.60224089635854 11.647727272727304  5.60224089635854 11.931818181818151  L 5.60224089635854 13.977272727272739  C 5.60224089635854 14.261363636363653  5.5001167133520195 14.502840909090935  5.29586834733891 14.701704545454522  C 5.091619981325868 14.900568181818175  4.843604108309993 15  4.551820728291352 15  L 1.0504201680672556 15  C 0.7586367880485474 15  0.5106209150326723 14.900568181818175  0.3063725490196301 14.701704545454522  C 0.10212418300652108 14.502840909090935  0 14.261363636363653  0 13.977272727272739  L 0 11.931818181818151  C 0 11.647727272727304  0.10212418300652108 11.406250000000021  0.3063725490196301 11.207386363636369  C 0.5106209150326723 11.008522727272718  0.7586367880485474 10.90909090909089  1.0504201680672556 10.90909090909089  L 4.551820728291352 10.90909090909089  C 4.843604108309993 10.90909090909089  5.091619981325868 11.008522727272718  5.29586834733891 11.207386363636369  Z M 5.29586834733891 5.752840909090891  C 5.5001167133520195 5.951704545454543  5.60224089635854 6.193181818181826  5.60224089635854 6.477272727272739  L 5.60224089635854 8.522727272727261  C 5.60224089635854 8.806818181818175  5.5001167133520195 9.048295454545457  5.29586834733891 9.24715909090911  C 5.091619981325868 9.446022727272696  4.843604108309993 9.545454545454522  4.551820728291352 9.545454545454522  L 1.0504201680672556 9.545454545454522  C 0.7586367880485474 9.545454545454522  0.5106209150326723 9.446022727272696  0.3063725490196301 9.24715909090911  C 0.10212418300652108 9.048295454545457  0 8.806818181818175  0 8.522727272727261  L 0 6.477272727272739  C 0 6.193181818181826  0.10212418300652108 5.951704545454543  0.3063725490196301 5.752840909090891  C 0.5106209150326723 5.5539772727273045  0.7586367880485474 5.454545454545478  1.0504201680672556 5.454545454545478  L 4.551820728291352 5.454545454545478  C 4.843604108309993 5.454545454545478  5.091619981325868 5.5539772727273045  5.29586834733891 5.752840909090891  Z M 12.298669467787102 11.207386363636369  C 12.502917833800211 11.406250000000021  12.605042016806731 11.647727272727304  12.605042016806731 11.931818181818151  L 12.605042016806731 13.977272727272739  C 12.605042016806731 14.261363636363653  12.502917833800211 14.502840909090935  12.298669467787102 14.701704545454522  C 12.09442110177406 14.900568181818175  11.846405228758186 15  11.554621848739476 15  L 8.053221288515447 15  C 7.76143790849674 15  7.513422035480865 14.900568181818175  7.309173669467822 14.701704545454522  C 7.1049253034547135 14.502840909090935  7.002801120448192 14.261363636363653  7.002801120448192 13.977272727272739  L 7.002801120448192 11.931818181818151  C 7.002801120448192 11.647727272727304  7.1049253034547135 11.406250000000021  7.309173669467822 11.207386363636369  C 7.513422035480865 11.008522727272718  7.76143790849674 10.90909090909089  8.053221288515447 10.90909090909089  L 11.554621848739476 10.90909090909089  C 11.846405228758186 10.90909090909089  12.09442110177406 11.008522727272718  12.298669467787102 11.207386363636369  Z M 5.29586834733891 0.2982954545454784  C 5.5001167133520195 0.49715909090906507  5.60224089635854 0.7386363636363478  5.60224089635854 1.0227272727272607  L 5.60224089635854 3.068181818181848  C 5.60224089635854 3.3522727272726955  5.5001167133520195 3.5937499999999782  5.29586834733891 3.79261363636363  C 5.091619981325868 3.991477272727283  4.843604108309993 4.090909090909109  4.551820728291352 4.090909090909109  L 1.0504201680672556 4.090909090909109  C 0.7586367880485474 4.090909090909109  0.5106209150326723 3.991477272727283  0.3063725490196301 3.79261363636363  C 0.10212418300652108 3.5937499999999782  0 3.3522727272726955  0 3.068181818181848  L 0 1.0227272727272607  C 0 0.7386363636363478  0.10212418300652108 0.49715909090906507  0.3063725490196301 0.2982954545454784  C 0.5106209150326723 0.09943181818182613  0.7586367880485474 0  1.0504201680672556 0  L 4.551820728291352 0  C 4.843604108309993 0  5.091619981325868 0.09943181818182613  5.29586834733891 0.2982954545454784  Z M 12.298669467787102 5.752840909090891  C 12.502917833800211 5.951704545454543  12.605042016806731 6.193181818181826  12.605042016806731 6.477272727272739  L 12.605042016806731 8.522727272727261  C 12.605042016806731 8.806818181818175  12.502917833800211 9.048295454545457  12.298669467787102 9.24715909090911  C 12.09442110177406 9.446022727272696  11.846405228758186 9.545454545454522  11.554621848739476 9.545454545454522  L 8.053221288515447 9.545454545454522  C 7.76143790849674 9.545454545454522  7.513422035480865 9.446022727272696  7.309173669467822 9.24715909090911  C 7.1049253034547135 9.048295454545457  7.002801120448192 8.806818181818175  7.002801120448192 8.522727272727261  L 7.002801120448192 6.477272727272739  C 7.002801120448192 6.193181818181826  7.1049253034547135 5.951704545454543  7.309173669467822 5.752840909090891  C 7.513422035480865 5.5539772727273045  7.76143790849674 5.454545454545478  8.053221288515447 5.454545454545478  L 11.554621848739476 5.454545454545478  C 11.846405228758186 5.454545454545478  12.09442110177406 5.5539772727273045  12.298669467787102 5.752840909090891  Z M 19.301470588235293 11.207386363636369  C 19.505718954248405 11.406250000000021  19.607843137254925 11.647727272727304  19.607843137254925 11.931818181818151  L 19.607843137254925 13.977272727272739  C 19.607843137254925 14.261363636363653  19.505718954248405 14.502840909090935  19.301470588235293 14.701704545454522  C 19.097222222222253 14.900568181818175  18.849206349206376 15  18.55742296918767 15  L 15.056022408963571 15  C 14.764239028944932 15  14.516223155929055 14.900568181818175  14.311974789916013 14.701704545454522  C 14.107726423902903 14.502840909090935  14.005602240896383 14.261363636363653  14.005602240896383 13.977272727272739  L 14.005602240896383 11.931818181818151  C 14.005602240896383 11.647727272727304  14.107726423902903 11.406250000000021  14.311974789916013 11.207386363636369  C 14.516223155929055 11.008522727272718  14.764239028944932 10.90909090909089  15.056022408963571 10.90909090909089  L 18.55742296918767 10.90909090909089  C 18.849206349206376 10.90909090909089  19.097222222222253 11.008522727272718  19.301470588235293 11.207386363636369  Z M 12.298669467787102 0.2982954545454784  C 12.502917833800211 0.49715909090906507  12.605042016806731 0.7386363636363478  12.605042016806731 1.0227272727272607  L 12.605042016806731 3.068181818181848  C 12.605042016806731 3.3522727272726955  12.502917833800211 3.5937499999999782  12.298669467787102 3.79261363636363  C 12.09442110177406 3.991477272727283  11.846405228758186 4.090909090909109  11.554621848739476 4.090909090909109  L 8.053221288515447 4.090909090909109  C 7.76143790849674 4.090909090909109  7.513422035480865 3.991477272727283  7.309173669467822 3.79261363636363  C 7.1049253034547135 3.5937499999999782  7.002801120448192 3.3522727272726955  7.002801120448192 3.068181818181848  L 7.002801120448192 1.0227272727272607  C 7.002801120448192 0.7386363636363478  7.1049253034547135 0.49715909090906507  7.309173669467822 0.2982954545454784  C 7.513422035480865 0.09943181818182613  7.76143790849674 0  8.053221288515447 0  L 11.554621848739476 0  C 11.846405228758186 0  12.09442110177406 0.09943181818182613  12.298669467787102 0.2982954545454784  Z M 19.301470588235293 5.752840909090891  C 19.505718954248405 5.951704545454543  19.607843137254925 6.193181818181826  19.607843137254925 6.477272727272739  L 19.607843137254925 8.522727272727261  C 19.607843137254925 8.806818181818175  19.505718954248405 9.048295454545457  19.301470588235293 9.24715909090911  C 19.097222222222253 9.446022727272696  18.849206349206376 9.545454545454522  18.55742296918767 9.545454545454522  L 15.056022408963571 9.545454545454522  C 14.764239028944932 9.545454545454522  14.516223155929055 9.446022727272696  14.311974789916013 9.24715909090911  C 14.107726423902903 9.048295454545457  14.005602240896383 8.806818181818175  14.005602240896383 8.522727272727261  L 14.005602240896383 6.477272727272739  C 14.005602240896383 6.193181818181826  14.107726423902903 5.951704545454543  14.311974789916013 5.752840909090891  C 14.516223155929055 5.5539772727273045  14.764239028944932 5.454545454545478  15.056022408963571 5.454545454545478  L 18.55742296918767 5.454545454545478  C 18.849206349206376 5.454545454545478  19.097222222222253 5.5539772727273045  19.301470588235293 5.752840909090891  Z M 19.301470588235293 0.2982954545454784  C 19.505718954248405 0.49715909090906507  19.607843137254925 0.7386363636363478  19.607843137254925 1.0227272727272607  L 19.607843137254925 3.068181818181848  C 19.607843137254925 3.3522727272726955  19.505718954248405 3.5937499999999782  19.301470588235293 3.79261363636363  C 19.097222222222253 3.991477272727283  18.849206349206376 4.090909090909109  18.55742296918767 4.090909090909109  L 15.056022408963571 4.090909090909109  C 14.764239028944932 4.090909090909109  14.516223155929055 3.991477272727283  14.311974789916013 3.79261363636363  C 14.107726423902903 3.5937499999999782  14.005602240896383 3.3522727272726955  14.005602240896383 3.068181818181848  L 14.005602240896383 1.0227272727272607  C 14.005602240896383 0.7386363636363478  14.107726423902903 0.49715909090906507  14.311974789916013 0.2982954545454784  C 14.516223155929055 0.09943181818182613  14.764239028944932 0  15.056022408963571 0  L 18.55742296918767 0  C 18.849206349206376 0  19.097222222222253 0.09943181818182613  19.301470588235293 0.2982954545454784  Z " fill-rule="nonzero" fill="#409eff" stroke="none" transform="matrix(1 0 0 1 344 23 )" />
  </g>
</svg>