<?xml version="1.0" encoding="utf-8"?>
<svg version="1.1" xmlns:xlink="http://www.w3.org/1999/xlink" width="8px" height="8px" xmlns="http://www.w3.org/2000/svg">
  <defs>
    <pattern id="BGPattern" patternUnits="userSpaceOnUse" alignment="0 0" imageRepeat="None" />
    <mask fill="white" id="Clip1324">
      <path d="M 7.773333339843749 3.986666660156251  C 7.773333339843749 5.9999999804687505  6.13333333984375 7.640000000000001  4.120000000000001 7.640000000000001  C 2.1066666601562503 7.640000000000001  0.4666666601562506 6.000000000000002  0.4666666601562506 3.986666660156251  C 0.4666666601562506 1.9733333203125012  2.1066666601562503 0.3333333203125015  4.120000000000001 0.3333333398437519  C 6.13333333984375 0.3333333398437519  7.773333339843749 1.9733333398437525  7.773333339843749 3.986666660156251  Z M 6.973333339843748 3.986666660156253  C 6.973333339843748 2.4133333203125034  5.693333339843747 1.1333333203125022  4.120000000000001 1.1333333398437517  C 2.5466666601562498 1.1333333398437517  1.2666666601562504 2.413333339843751  1.2666666601562504 3.986666660156251  C 1.2666666601562504 5.559999980468751  2.5466666601562498 6.840000000000003  4.120000000000001 6.840000000000003  C 5.6933333398437505 6.840000000000003  6.973333339843748 5.560000000000002  6.973333339843748 3.986666660156253  Z " fill-rule="evenodd" />
    </mask>
  </defs>
  <g transform="matrix(1 0 0 1 -27 -1028 )">
    <path d="M 7.773333339843749 3.986666660156251  C 7.773333339843749 5.9999999804687505  6.13333333984375 7.640000000000001  4.120000000000001 7.640000000000001  C 2.1066666601562503 7.640000000000001  0.4666666601562506 6.000000000000002  0.4666666601562506 3.986666660156251  C 0.4666666601562506 1.9733333203125012  2.1066666601562503 0.3333333203125015  4.120000000000001 0.3333333398437519  C 6.13333333984375 0.3333333398437519  7.773333339843749 1.9733333398437525  7.773333339843749 3.986666660156251  Z M 6.973333339843748 3.986666660156253  C 6.973333339843748 2.4133333203125034  5.693333339843747 1.1333333203125022  4.120000000000001 1.1333333398437517  C 2.5466666601562498 1.1333333398437517  1.2666666601562504 2.413333339843751  1.2666666601562504 3.986666660156251  C 1.2666666601562504 5.559999980468751  2.5466666601562498 6.840000000000003  4.120000000000001 6.840000000000003  C 5.6933333398437505 6.840000000000003  6.973333339843748 5.560000000000002  6.973333339843748 3.986666660156253  Z " fill-rule="nonzero" fill="rgba(255, 255, 255, 1)" stroke="none" transform="matrix(1 0 0 1 27 1028 )" class="fill" />
    <path d="M 7.773333339843749 3.986666660156251  C 7.773333339843749 5.9999999804687505  6.13333333984375 7.640000000000001  4.120000000000001 7.640000000000001  C 2.1066666601562503 7.640000000000001  0.4666666601562506 6.000000000000002  0.4666666601562506 3.986666660156251  C 0.4666666601562506 1.9733333203125012  2.1066666601562503 0.3333333203125015  4.120000000000001 0.3333333398437519  C 6.13333333984375 0.3333333398437519  7.773333339843749 1.9733333398437525  7.773333339843749 3.986666660156251  Z " stroke-width="0" stroke-dasharray="0" stroke="rgba(255, 255, 255, 0)" fill="none" transform="matrix(1 0 0 1 27 1028 )" class="stroke" mask="url(#Clip1324)" />
    <path d="M 6.973333339843748 3.986666660156253  C 6.973333339843748 2.4133333203125034  5.693333339843747 1.1333333203125022  4.120000000000001 1.1333333398437517  C 2.5466666601562498 1.1333333398437517  1.2666666601562504 2.413333339843751  1.2666666601562504 3.986666660156251  C 1.2666666601562504 5.559999980468751  2.5466666601562498 6.840000000000003  4.120000000000001 6.840000000000003  C 5.6933333398437505 6.840000000000003  6.973333339843748 5.560000000000002  6.973333339843748 3.986666660156253  Z " stroke-width="0" stroke-dasharray="0" stroke="rgba(255, 255, 255, 0)" fill="none" transform="matrix(1 0 0 1 27 1028 )" class="stroke" mask="url(#Clip1324)" />
  </g>
</svg>