<?xml version="1.0" encoding="utf-8"?>
<svg version="1.1" xmlns:xlink="http://www.w3.org/1999/xlink" width="18px" height="18px" xmlns="http://www.w3.org/2000/svg">
  <defs>
    <pattern id="BGPattern" patternUnits="userSpaceOnUse" alignment="0 0" imageRepeat="None" />
    <mask fill="white" id="Clip1635">
      <path d="M 8.375 2.75  C 8.375 1.7144660940672622  7.535533905932738 0.875  6.5 0.875  L 2.75 0.875  C 1.7144660940672622 0.875  0.875 1.7144660940672622  0.875 2.75  L 0.875 6.5  C 0.875 7.535533905932738  1.7144660940672622 8.375  2.75 8.375  L 6.5 8.375  C 7.535533905932738 8.375  8.375 7.535533905932738  8.375 6.5  L 8.375 2.75  Z M 7.125 2.75  L 7.125 6.5  C 7.125 6.845177968644245  6.845177968644245 7.125  6.5 7.125  L 2.75 7.125  C 2.4048220313557542 7.125  2.125 6.845177968644245  2.125 6.5  L 2.125 2.75  C 2.125 2.4048220313557542  2.4048220313557542 2.125  2.75 2.125  L 6.5 2.125  C 6.845177968644245 2.125  7.125 2.4048220313557542  7.125 2.75  Z M 8.375 11.5  C 8.375 10.46446609406726  7.535533905932738 9.625  6.5 9.625  L 2.75 9.625  C 1.7144660940672622 9.625  0.875 10.46446609406726  0.875 11.5  L 0.875 15.25  C 0.875 16.285533905932734  1.7144660940672622 17.125  2.75 17.125  L 6.5 17.125  C 7.535533905932738 17.125  8.375 16.285533905932734  8.375 15.25  L 8.375 11.5  Z M 7.125 11.5  L 7.125 15.25  C 7.125 15.595177968644247  6.845177968644245 15.875  6.5 15.875  L 2.75 15.875  C 2.4048220313557542 15.875  2.125 15.595177968644247  2.125 15.25  L 2.125 11.5  C 2.125 11.154822031355756  2.4048220313557542 10.875  2.75 10.875  L 6.5 10.875  C 6.845177968644245 10.875  7.125 11.154822031355756  7.125 11.5  Z M 17.125 11.5  C 17.125 10.46446609406726  16.285533905932734 9.625  15.25 9.625  L 11.5 9.625  C 10.46446609406726 9.625  9.625 10.46446609406726  9.625 11.5  L 9.625 15.25  C 9.625 16.285533905932734  10.46446609406726 17.125  11.5 17.125  L 15.25 17.125  C 16.285533905932734 17.125  17.125 16.285533905932734  17.125 15.25  L 17.125 11.5  Z M 15.875 11.5  L 15.875 15.25  C 15.875 15.595177968644247  15.595177968644247 15.875  15.25 15.875  L 11.5 15.875  C 11.154822031355756 15.875  10.875 15.595177968644247  10.875 15.25  L 10.875 11.5  C 10.875 11.154822031355756  11.154822031355756 10.875  11.5 10.875  L 15.25 10.875  C 15.595177968644247 10.875  15.875 11.154822031355756  15.875 11.5  Z " fill-rule="evenodd" />
    </mask>
  </defs>
  <g transform="matrix(1 0 0 1 -171 -1023 )">
    <path d="M 8.375 2.75  C 8.375 1.7144660940672622  7.535533905932738 0.875  6.5 0.875  L 2.75 0.875  C 1.7144660940672622 0.875  0.875 1.7144660940672622  0.875 2.75  L 0.875 6.5  C 0.875 7.535533905932738  1.7144660940672622 8.375  2.75 8.375  L 6.5 8.375  C 7.535533905932738 8.375  8.375 7.535533905932738  8.375 6.5  L 8.375 2.75  Z M 7.125 2.75  L 7.125 6.5  C 7.125 6.845177968644245  6.845177968644245 7.125  6.5 7.125  L 2.75 7.125  C 2.4048220313557542 7.125  2.125 6.845177968644245  2.125 6.5  L 2.125 2.75  C 2.125 2.4048220313557542  2.4048220313557542 2.125  2.75 2.125  L 6.5 2.125  C 6.845177968644245 2.125  7.125 2.4048220313557542  7.125 2.75  Z M 8.375 11.5  C 8.375 10.46446609406726  7.535533905932738 9.625  6.5 9.625  L 2.75 9.625  C 1.7144660940672622 9.625  0.875 10.46446609406726  0.875 11.5  L 0.875 15.25  C 0.875 16.285533905932734  1.7144660940672622 17.125  2.75 17.125  L 6.5 17.125  C 7.535533905932738 17.125  8.375 16.285533905932734  8.375 15.25  L 8.375 11.5  Z M 7.125 11.5  L 7.125 15.25  C 7.125 15.595177968644247  6.845177968644245 15.875  6.5 15.875  L 2.75 15.875  C 2.4048220313557542 15.875  2.125 15.595177968644247  2.125 15.25  L 2.125 11.5  C 2.125 11.154822031355756  2.4048220313557542 10.875  2.75 10.875  L 6.5 10.875  C 6.845177968644245 10.875  7.125 11.154822031355756  7.125 11.5  Z M 17.125 11.5  C 17.125 10.46446609406726  16.285533905932734 9.625  15.25 9.625  L 11.5 9.625  C 10.46446609406726 9.625  9.625 10.46446609406726  9.625 11.5  L 9.625 15.25  C 9.625 16.285533905932734  10.46446609406726 17.125  11.5 17.125  L 15.25 17.125  C 16.285533905932734 17.125  17.125 16.285533905932734  17.125 15.25  L 17.125 11.5  Z M 15.875 11.5  L 15.875 15.25  C 15.875 15.595177968644247  15.595177968644247 15.875  15.25 15.875  L 11.5 15.875  C 11.154822031355756 15.875  10.875 15.595177968644247  10.875 15.25  L 10.875 11.5  C 10.875 11.154822031355756  11.154822031355756 10.875  11.5 10.875  L 15.25 10.875  C 15.595177968644247 10.875  15.875 11.154822031355756  15.875 11.5  Z " fill-rule="nonzero" fill="rgba(255, 255, 255, 1)" stroke="none" transform="matrix(1 0 0 1 171 1023 )" class="fill" />
    <path d="M 8.375 2.75  C 8.375 1.7144660940672622  7.535533905932738 0.875  6.5 0.875  L 2.75 0.875  C 1.7144660940672622 0.875  0.875 1.7144660940672622  0.875 2.75  L 0.875 6.5  C 0.875 7.535533905932738  1.7144660940672622 8.375  2.75 8.375  L 6.5 8.375  C 7.535533905932738 8.375  8.375 7.535533905932738  8.375 6.5  L 8.375 2.75  Z " stroke-width="0" stroke-dasharray="0" stroke="rgba(255, 255, 255, 0)" fill="none" transform="matrix(1 0 0 1 171 1023 )" class="stroke" mask="url(#Clip1635)" />
    <path d="M 7.125 2.75  L 7.125 6.5  C 7.125 6.845177968644245  6.845177968644245 7.125  6.5 7.125  L 2.75 7.125  C 2.4048220313557542 7.125  2.125 6.845177968644245  2.125 6.5  L 2.125 2.75  C 2.125 2.4048220313557542  2.4048220313557542 2.125  2.75 2.125  L 6.5 2.125  C 6.845177968644245 2.125  7.125 2.4048220313557542  7.125 2.75  Z " stroke-width="0" stroke-dasharray="0" stroke="rgba(255, 255, 255, 0)" fill="none" transform="matrix(1 0 0 1 171 1023 )" class="stroke" mask="url(#Clip1635)" />
    <path d="M 8.375 11.5  C 8.375 10.46446609406726  7.535533905932738 9.625  6.5 9.625  L 2.75 9.625  C 1.7144660940672622 9.625  0.875 10.46446609406726  0.875 11.5  L 0.875 15.25  C 0.875 16.285533905932734  1.7144660940672622 17.125  2.75 17.125  L 6.5 17.125  C 7.535533905932738 17.125  8.375 16.285533905932734  8.375 15.25  L 8.375 11.5  Z " stroke-width="0" stroke-dasharray="0" stroke="rgba(255, 255, 255, 0)" fill="none" transform="matrix(1 0 0 1 171 1023 )" class="stroke" mask="url(#Clip1635)" />
    <path d="M 7.125 11.5  L 7.125 15.25  C 7.125 15.595177968644247  6.845177968644245 15.875  6.5 15.875  L 2.75 15.875  C 2.4048220313557542 15.875  2.125 15.595177968644247  2.125 15.25  L 2.125 11.5  C 2.125 11.154822031355756  2.4048220313557542 10.875  2.75 10.875  L 6.5 10.875  C 6.845177968644245 10.875  7.125 11.154822031355756  7.125 11.5  Z " stroke-width="0" stroke-dasharray="0" stroke="rgba(255, 255, 255, 0)" fill="none" transform="matrix(1 0 0 1 171 1023 )" class="stroke" mask="url(#Clip1635)" />
    <path d="M 17.125 11.5  C 17.125 10.46446609406726  16.285533905932734 9.625  15.25 9.625  L 11.5 9.625  C 10.46446609406726 9.625  9.625 10.46446609406726  9.625 11.5  L 9.625 15.25  C 9.625 16.285533905932734  10.46446609406726 17.125  11.5 17.125  L 15.25 17.125  C 16.285533905932734 17.125  17.125 16.285533905932734  17.125 15.25  L 17.125 11.5  Z " stroke-width="0" stroke-dasharray="0" stroke="rgba(255, 255, 255, 0)" fill="none" transform="matrix(1 0 0 1 171 1023 )" class="stroke" mask="url(#Clip1635)" />
    <path d="M 15.875 11.5  L 15.875 15.25  C 15.875 15.595177968644247  15.595177968644247 15.875  15.25 15.875  L 11.5 15.875  C 11.154822031355756 15.875  10.875 15.595177968644247  10.875 15.25  L 10.875 11.5  C 10.875 11.154822031355756  11.154822031355756 10.875  11.5 10.875  L 15.25 10.875  C 15.595177968644247 10.875  15.875 11.154822031355756  15.875 11.5  Z " stroke-width="0" stroke-dasharray="0" stroke="rgba(255, 255, 255, 0)" fill="none" transform="matrix(1 0 0 1 171 1023 )" class="stroke" mask="url(#Clip1635)" />
  </g>
</svg>