<?xml version="1.0" encoding="utf-8"?>
<svg version="1.1" xmlns:xlink="http://www.w3.org/1999/xlink" width="20px" height="20px" xmlns="http://www.w3.org/2000/svg">
  <defs>
    <pattern id="BGPattern" patternUnits="userSpaceOnUse" alignment="0 0" imageRepeat="None" />
    <mask fill="white" id="Clip1327">
      <path d="M 17.0375 19.899998408750296  L 16.975 19.999998400754066  C 16.192299844581825 20.000812813135692  15.441359731861068 19.690544168617752  14.8875 19.137498469721546  L 9.5 13.749998900518424  C 8.716327459849975 14.040867267253063  7.887101797953536 14.18979167867194  7.0511908753772135 14.18979167867194  C 3.1644869484430043 14.18979167867194  0.013690875377212633 11.038995857551036  0.013690875377212633 7.152292241406599  C 0.013690875377212633 6.261102754634649  0.18296022278127752 5.378022736049043  0.5125 4.54999963617155  C 0.647875425761496 4.189649829931287  0.9599153763810611 3.9248886808795374  1.3375000000000001 3.849999692145158  C 1.7180038040043928 3.765206564056112  2.1152842992968117 3.883444797248064  2.3875 4.16249966715694  L 5.1375 6.912499447260625  L 6.9 5.149999588194173  L 4.15 2.399999808090488  C 3.877109006208018 2.1240971013114516  3.75988373649985 1.7302202265873066  3.8375000000000004 1.3499998920508995  C 3.923354149879323 0.9737900636394182  4.190294223353966 0.6647015822263107  4.550000000000002 0.5249999580197944  C 5.356348980872843 0.21478473711500232  6.212927123067211 0.05569854824089693  7.076890188033406 0.05569854824089693  C 10.503203211593172 0.05569854824089693  13.431573287276672 2.523293549553833  14.012500000000003 5.899999528222449  C 14.245831836813688 7.106201590808254  14.155255839652057 8.352699737788278  13.75 9.512499239358654  L 19.125 14.899998808561781  C 19.65667330783607 15.450069688240154  19.95386498073312 16.185171161590613  19.95386498073312 16.950190399079816  C 19.95386498073312 18.5663101606917  18.65351484060644 19.88157189372677  17.0375 19.899998408750296  Z M 9.362499999999997 12.074999034455267  L 9.9 11.837499053446315  L 10.275 12.27499901846281  L 10.350000000000001 12.349999012465638  L 15.975 17.987498561678187  C 16.240216489839543 18.252715030310412  16.59992724310393 18.401712090929816  16.975 18.401712090929816  C 17.756048583502537 18.401712090929816  18.389213562373094 17.76854716268859  18.389213562373094 16.987498641640485  C 18.389213562373094 16.6124259147361  18.240216489839543 16.252715190235005  17.975 15.987498721602782  L 12.337499999999999 10.34999917239023  L 12.2625 10.34999917239023  L 11.825 9.96249920337562  L 12.074999999999998 9.437499245355825  C 12.425755342403397 8.700677669700783  12.607760326247153 7.894902025306463  12.607760326247153 7.078853420810449  C 12.607760326247153 4.048191098452711  10.150922890943635 1.5913538596035524  7.120260326247154 1.5913538596035524  C 6.6450344885613655 1.5913538596035524  6.171821813916134 1.6530856846169872  5.712499999999999 1.7749998580669233  L 9.087499999999999 5.149999588194173  L 5.137499999999998 9.0999992723431  L 1.7624999999999982 5.72499954221585  C 1.6487635910630416 6.169492537369266  1.5912218702252787 6.626495012831661  1.5912218702252787 7.08530869112553  C 1.5912218702252787 10.115971013483268  4.048059305528799 12.572808252332425  7.078721870225278 12.572808252332425  C 7.866897805323559 12.572808252332425  8.64582498101561 12.403020687131082  9.362499999999997 12.074999034455267  Z " fill-rule="evenodd" />
    </mask>
  </defs>
  <g transform="matrix(1 0 0 1 -319 -1022 )">
    <path d="M 17.0375 19.899998408750296  L 16.975 19.999998400754066  C 16.192299844581825 20.000812813135692  15.441359731861068 19.690544168617752  14.8875 19.137498469721546  L 9.5 13.749998900518424  C 8.716327459849975 14.040867267253063  7.887101797953536 14.18979167867194  7.0511908753772135 14.18979167867194  C 3.1644869484430043 14.18979167867194  0.013690875377212633 11.038995857551036  0.013690875377212633 7.152292241406599  C 0.013690875377212633 6.261102754634649  0.18296022278127752 5.378022736049043  0.5125 4.54999963617155  C 0.647875425761496 4.189649829931287  0.9599153763810611 3.9248886808795374  1.3375000000000001 3.849999692145158  C 1.7180038040043928 3.765206564056112  2.1152842992968117 3.883444797248064  2.3875 4.16249966715694  L 5.1375 6.912499447260625  L 6.9 5.149999588194173  L 4.15 2.399999808090488  C 3.877109006208018 2.1240971013114516  3.75988373649985 1.7302202265873066  3.8375000000000004 1.3499998920508995  C 3.923354149879323 0.9737900636394182  4.190294223353966 0.6647015822263107  4.550000000000002 0.5249999580197944  C 5.356348980872843 0.21478473711500232  6.212927123067211 0.05569854824089693  7.076890188033406 0.05569854824089693  C 10.503203211593172 0.05569854824089693  13.431573287276672 2.523293549553833  14.012500000000003 5.899999528222449  C 14.245831836813688 7.106201590808254  14.155255839652057 8.352699737788278  13.75 9.512499239358654  L 19.125 14.899998808561781  C 19.65667330783607 15.450069688240154  19.95386498073312 16.185171161590613  19.95386498073312 16.950190399079816  C 19.95386498073312 18.5663101606917  18.65351484060644 19.88157189372677  17.0375 19.899998408750296  Z M 9.362499999999997 12.074999034455267  L 9.9 11.837499053446315  L 10.275 12.27499901846281  L 10.350000000000001 12.349999012465638  L 15.975 17.987498561678187  C 16.240216489839543 18.252715030310412  16.59992724310393 18.401712090929816  16.975 18.401712090929816  C 17.756048583502537 18.401712090929816  18.389213562373094 17.76854716268859  18.389213562373094 16.987498641640485  C 18.389213562373094 16.6124259147361  18.240216489839543 16.252715190235005  17.975 15.987498721602782  L 12.337499999999999 10.34999917239023  L 12.2625 10.34999917239023  L 11.825 9.96249920337562  L 12.074999999999998 9.437499245355825  C 12.425755342403397 8.700677669700783  12.607760326247153 7.894902025306463  12.607760326247153 7.078853420810449  C 12.607760326247153 4.048191098452711  10.150922890943635 1.5913538596035524  7.120260326247154 1.5913538596035524  C 6.6450344885613655 1.5913538596035524  6.171821813916134 1.6530856846169872  5.712499999999999 1.7749998580669233  L 9.087499999999999 5.149999588194173  L 5.137499999999998 9.0999992723431  L 1.7624999999999982 5.72499954221585  C 1.6487635910630416 6.169492537369266  1.5912218702252787 6.626495012831661  1.5912218702252787 7.08530869112553  C 1.5912218702252787 10.115971013483268  4.048059305528799 12.572808252332425  7.078721870225278 12.572808252332425  C 7.866897805323559 12.572808252332425  8.64582498101561 12.403020687131082  9.362499999999997 12.074999034455267  Z " fill-rule="nonzero" fill="rgba(255, 255, 255, 1)" stroke="none" transform="matrix(1 0 0 1 319 1022 )" class="fill" />
    <path d="M 17.0375 19.899998408750296  L 16.975 19.999998400754066  C 16.192299844581825 20.000812813135692  15.441359731861068 19.690544168617752  14.8875 19.137498469721546  L 9.5 13.749998900518424  C 8.716327459849975 14.040867267253063  7.887101797953536 14.18979167867194  7.0511908753772135 14.18979167867194  C 3.1644869484430043 14.18979167867194  0.013690875377212633 11.038995857551036  0.013690875377212633 7.152292241406599  C 0.013690875377212633 6.261102754634649  0.18296022278127752 5.378022736049043  0.5125 4.54999963617155  C 0.647875425761496 4.189649829931287  0.9599153763810611 3.9248886808795374  1.3375000000000001 3.849999692145158  C 1.7180038040043928 3.765206564056112  2.1152842992968117 3.883444797248064  2.3875 4.16249966715694  L 5.1375 6.912499447260625  L 6.9 5.149999588194173  L 4.15 2.399999808090488  C 3.877109006208018 2.1240971013114516  3.75988373649985 1.7302202265873066  3.8375000000000004 1.3499998920508995  C 3.923354149879323 0.9737900636394182  4.190294223353966 0.6647015822263107  4.550000000000002 0.5249999580197944  C 5.356348980872843 0.21478473711500232  6.212927123067211 0.05569854824089693  7.076890188033406 0.05569854824089693  C 10.503203211593172 0.05569854824089693  13.431573287276672 2.523293549553833  14.012500000000003 5.899999528222449  C 14.245831836813688 7.106201590808254  14.155255839652057 8.352699737788278  13.75 9.512499239358654  L 19.125 14.899998808561781  C 19.65667330783607 15.450069688240154  19.95386498073312 16.185171161590613  19.95386498073312 16.950190399079816  C 19.95386498073312 18.5663101606917  18.65351484060644 19.88157189372677  17.0375 19.899998408750296  Z " stroke-width="0" stroke-dasharray="0" stroke="rgba(255, 255, 255, 0)" fill="none" transform="matrix(1 0 0 1 319 1022 )" class="stroke" mask="url(#Clip1327)" />
    <path d="M 9.362499999999997 12.074999034455267  L 9.9 11.837499053446315  L 10.275 12.27499901846281  L 10.350000000000001 12.349999012465638  L 15.975 17.987498561678187  C 16.240216489839543 18.252715030310412  16.59992724310393 18.401712090929816  16.975 18.401712090929816  C 17.756048583502537 18.401712090929816  18.389213562373094 17.76854716268859  18.389213562373094 16.987498641640485  C 18.389213562373094 16.6124259147361  18.240216489839543 16.252715190235005  17.975 15.987498721602782  L 12.337499999999999 10.34999917239023  L 12.2625 10.34999917239023  L 11.825 9.96249920337562  L 12.074999999999998 9.437499245355825  C 12.425755342403397 8.700677669700783  12.607760326247153 7.894902025306463  12.607760326247153 7.078853420810449  C 12.607760326247153 4.048191098452711  10.150922890943635 1.5913538596035524  7.120260326247154 1.5913538596035524  C 6.6450344885613655 1.5913538596035524  6.171821813916134 1.6530856846169872  5.712499999999999 1.7749998580669233  L 9.087499999999999 5.149999588194173  L 5.137499999999998 9.0999992723431  L 1.7624999999999982 5.72499954221585  C 1.6487635910630416 6.169492537369266  1.5912218702252787 6.626495012831661  1.5912218702252787 7.08530869112553  C 1.5912218702252787 10.115971013483268  4.048059305528799 12.572808252332425  7.078721870225278 12.572808252332425  C 7.866897805323559 12.572808252332425  8.64582498101561 12.403020687131082  9.362499999999997 12.074999034455267  Z " stroke-width="0" stroke-dasharray="0" stroke="rgba(255, 255, 255, 0)" fill="none" transform="matrix(1 0 0 1 319 1022 )" class="stroke" mask="url(#Clip1327)" />
  </g>
</svg>