<?xml version="1.0" encoding="utf-8"?>
<svg version="1.1" xmlns:xlink="http://www.w3.org/1999/xlink" width="17px" height="21px" xmlns="http://www.w3.org/2000/svg">
  <defs>
    <pattern id="BGPattern" patternUnits="userSpaceOnUse" alignment="0 0" imageRepeat="None" />
    <mask fill="white" id="Clip1141">
      <path d="M 0.3090325669642847 4.272067751736111  L 0.3090325669642847 0.6560503472222222  L 1.3095025892857137 0.6560503472222222  L 1.3095025892857137 4.272067751736111  L 0.3090325669642847 4.272067751736111  Z M 9.400467991071428 9.559879166666667  C 10.568669464285716 9.559879166666667  11.679313370535715 9.992556445312498  12.527826004464288 10.77816974826389  C 13.378863549107146 11.566158680555557  13.877415267857145 12.628952582465278  13.931660558035714 13.770801410590277  C 13.987589129464286 14.948680273437498  13.568396272321431 16.077225716145833  12.751268839285716 16.948572070312494  C 11.934141383928575 17.819918424479162  10.816900089285715 18.32972374131944  9.605367522321432 18.384125130208332  C 9.534370803571433 18.38731901041666  9.462478147321432 18.38892914496527  9.391617165178575 18.38892914496527  C 8.223279933035718 18.38892914496527  7.1125545758928626 17.956278276909718  6.264069107142861 17.170691341145826  C 5.413031562500003 16.382728797743052  4.914479843750003 15.31990850694444  4.860234531250002 14.178006901041664  C 4.804305959821432 13.000128038194443  5.223498816964288 11.87158259548611  6.040626272321431 11.000236241319444  C 6.857753727678572 10.128889887152777  7.974995022321431 9.619084570312499  9.186527589285715 9.564709570312498  C 9.257730365754906 9.561514182726508  9.328999354823237 9.559912420372642  9.400277946428572 9.559905555555554  Z M 14.931044598214287 13.725955230034721  C 14.793910982142856 10.838430989583333  12.343044464285713 8.587094379340277  9.40025080357143 8.587199956597223  C 9.314104486607144 8.587199956597223  9.227333750000001 8.589126844618054  9.140372946428572 8.5930333984375  C 6.083414375000002 8.730264301215277  3.719671562500003 11.250810004340275  3.8607962053571447 14.222853081597222  C 3.9979298214285746 17.110350911458337  6.448796339285717 19.361608333333333  9.391589999999999 19.361608333333333  C 9.477736316964288 19.361608333333333  9.56453421875 19.359681445312503  9.651467879464287 19.355774913194445  C 12.708426450892855 19.218570399305552  15.07216926339286 16.697998307291662  14.931044598214287 13.725955230034721  Z " fill-rule="evenodd" />
    </mask>
  </defs>
  <g transform="matrix(1 0 0 1 -25 -1087 )">
    <path d="M 0.3090325669642847 4.272067751736111  L 0.3090325669642847 0.6560503472222222  L 1.3095025892857137 0.6560503472222222  L 1.3095025892857137 4.272067751736111  L 0.3090325669642847 4.272067751736111  Z M 9.400467991071428 9.559879166666667  C 10.568669464285716 9.559879166666667  11.679313370535715 9.992556445312498  12.527826004464288 10.77816974826389  C 13.378863549107146 11.566158680555557  13.877415267857145 12.628952582465278  13.931660558035714 13.770801410590277  C 13.987589129464286 14.948680273437498  13.568396272321431 16.077225716145833  12.751268839285716 16.948572070312494  C 11.934141383928575 17.819918424479162  10.816900089285715 18.32972374131944  9.605367522321432 18.384125130208332  C 9.534370803571433 18.38731901041666  9.462478147321432 18.38892914496527  9.391617165178575 18.38892914496527  C 8.223279933035718 18.38892914496527  7.1125545758928626 17.956278276909718  6.264069107142861 17.170691341145826  C 5.413031562500003 16.382728797743052  4.914479843750003 15.31990850694444  4.860234531250002 14.178006901041664  C 4.804305959821432 13.000128038194443  5.223498816964288 11.87158259548611  6.040626272321431 11.000236241319444  C 6.857753727678572 10.128889887152777  7.974995022321431 9.619084570312499  9.186527589285715 9.564709570312498  C 9.257730365754906 9.561514182726508  9.328999354823237 9.559912420372642  9.400277946428572 9.559905555555554  Z M 14.931044598214287 13.725955230034721  C 14.793910982142856 10.838430989583333  12.343044464285713 8.587094379340277  9.40025080357143 8.587199956597223  C 9.314104486607144 8.587199956597223  9.227333750000001 8.589126844618054  9.140372946428572 8.5930333984375  C 6.083414375000002 8.730264301215277  3.719671562500003 11.250810004340275  3.8607962053571447 14.222853081597222  C 3.9979298214285746 17.110350911458337  6.448796339285717 19.361608333333333  9.391589999999999 19.361608333333333  C 9.477736316964288 19.361608333333333  9.56453421875 19.359681445312503  9.651467879464287 19.355774913194445  C 12.708426450892855 19.218570399305552  15.07216926339286 16.697998307291662  14.931044598214287 13.725955230034721  Z " fill-rule="nonzero" fill="rgba(255, 255, 255, 1)" stroke="none" transform="matrix(1 0 0 1 25 1087 )" class="fill" />
    <path d="M 0.3090325669642847 4.272067751736111  L 0.3090325669642847 0.6560503472222222  L 1.3095025892857137 0.6560503472222222  L 1.3095025892857137 4.272067751736111  L 0.3090325669642847 4.272067751736111  Z " stroke-width="0" stroke-dasharray="0" stroke="rgba(255, 255, 255, 0)" fill="none" transform="matrix(1 0 0 1 25 1087 )" class="stroke" mask="url(#Clip1141)" />
    <path d="M 9.400467991071428 9.559879166666667  C 10.568669464285716 9.559879166666667  11.679313370535715 9.992556445312498  12.527826004464288 10.77816974826389  C 13.378863549107146 11.566158680555557  13.877415267857145 12.628952582465278  13.931660558035714 13.770801410590277  C 13.987589129464286 14.948680273437498  13.568396272321431 16.077225716145833  12.751268839285716 16.948572070312494  C 11.934141383928575 17.819918424479162  10.816900089285715 18.32972374131944  9.605367522321432 18.384125130208332  C 9.534370803571433 18.38731901041666  9.462478147321432 18.38892914496527  9.391617165178575 18.38892914496527  C 8.223279933035718 18.38892914496527  7.1125545758928626 17.956278276909718  6.264069107142861 17.170691341145826  C 5.413031562500003 16.382728797743052  4.914479843750003 15.31990850694444  4.860234531250002 14.178006901041664  C 4.804305959821432 13.000128038194443  5.223498816964288 11.87158259548611  6.040626272321431 11.000236241319444  C 6.857753727678572 10.128889887152777  7.974995022321431 9.619084570312499  9.186527589285715 9.564709570312498  C 9.257730365754906 9.561514182726508  9.328999354823237 9.559912420372642  9.400277946428572 9.559905555555554  Z " stroke-width="0" stroke-dasharray="0" stroke="rgba(255, 255, 255, 0)" fill="none" transform="matrix(1 0 0 1 25 1087 )" class="stroke" mask="url(#Clip1141)" />
    <path d="M 14.931044598214287 13.725955230034721  C 14.793910982142856 10.838430989583333  12.343044464285713 8.587094379340277  9.40025080357143 8.587199956597223  C 9.314104486607144 8.587199956597223  9.227333750000001 8.589126844618054  9.140372946428572 8.5930333984375  C 6.083414375000002 8.730264301215277  3.719671562500003 11.250810004340275  3.8607962053571447 14.222853081597222  C 3.9979298214285746 17.110350911458337  6.448796339285717 19.361608333333333  9.391589999999999 19.361608333333333  C 9.477736316964288 19.361608333333333  9.56453421875 19.359681445312503  9.651467879464287 19.355774913194445  C 12.708426450892855 19.218570399305552  15.07216926339286 16.697998307291662  14.931044598214287 13.725955230034721  Z " stroke-width="0" stroke-dasharray="0" stroke="rgba(255, 255, 255, 0)" fill="none" transform="matrix(1 0 0 1 25 1087 )" class="stroke" mask="url(#Clip1141)" />
  </g>
</svg>