<?xml version="1.0" encoding="utf-8"?>
<svg version="1.1" xmlns:xlink="http://www.w3.org/1999/xlink" width="3px" height="3px" xmlns="http://www.w3.org/2000/svg">
  <defs>
    <pattern id="BGPattern" patternUnits="userSpaceOnUse" alignment="0 0" imageRepeat="None" />
    <mask fill="white" id="Clip1335">
      <path d="M 0.7558593749999982 1.3183593749999982  C 0.7558593749999982 1.7498318358053098  1.1056369141946885 2.099609375  1.537109375 2.099609375  C 1.9685818358053098 2.099609375  2.318359375 1.7498318358053062  2.318359375 1.3183593749999982  C 2.318359375 0.8868869141946902  1.9685818358053062 0.5371093749999982  1.537109375 0.5371093749999982  C 1.1056369141946885 0.5371093749999982  0.755859375 0.8868869141946902  0.755859375 1.3183593749999982  Z " fill-rule="evenodd" />
    </mask>
  </defs>
  <g transform="matrix(1 0 0 1 -631 -1032 )">
    <path d="M 0.7558593749999982 1.3183593749999982  C 0.7558593749999982 1.7498318358053098  1.1056369141946885 2.099609375  1.537109375 2.099609375  C 1.9685818358053098 2.099609375  2.318359375 1.7498318358053062  2.318359375 1.3183593749999982  C 2.318359375 0.8868869141946902  1.9685818358053062 0.5371093749999982  1.537109375 0.5371093749999982  C 1.1056369141946885 0.5371093749999982  0.755859375 0.8868869141946902  0.755859375 1.3183593749999982  Z " fill-rule="nonzero" fill="rgba(255, 255, 255, 1)" stroke="none" transform="matrix(1 0 0 1 631 1032 )" class="fill" />
    <path d="M 0.7558593749999982 1.3183593749999982  C 0.7558593749999982 1.7498318358053098  1.1056369141946885 2.099609375  1.537109375 2.099609375  C 1.9685818358053098 2.099609375  2.318359375 1.7498318358053062  2.318359375 1.3183593749999982  C 2.318359375 0.8868869141946902  1.9685818358053062 0.5371093749999982  1.537109375 0.5371093749999982  C 1.1056369141946885 0.5371093749999982  0.755859375 0.8868869141946902  0.755859375 1.3183593749999982  Z " stroke-width="0" stroke-dasharray="0" stroke="rgba(255, 255, 255, 0)" fill="none" transform="matrix(1 0 0 1 631 1032 )" class="stroke" mask="url(#Clip1335)" />
  </g>
</svg>