<svg t="1751266375721" class="icon" viewBox="0 0 1024 1024" version="1.1" xmlns="http://www.w3.org/2000/svg" p-id="30147" width="64" height="64"><path d="M101.034667 512c0-105.856 40.576-202.112 106.581333-274.944l-0.170667 74.197333v0.426667c1.066667 11.477333 9.6 21.461333 22.442667 20.650667a20.949333 20.949333 0 0 0 19.541333-17.152 17.152 17.152 0 0 0 0-3.626667l0.298667-125.226667a22.186667 22.186667 0 0 0-7.936-14.848 22.826667 22.826667 0 0 0-16.213333-6.954666l-123.946667 10.538666c-5.717333-0.042667-20.48 8.533333-19.285333 22.954667 0.938667 11.306667 10.794667 18.773333 22.570666 18.901333l76.757334-6.485333C108.757333 290.133333 63.701333 395.690667 63.701333 512c0 71.68 17.152 139.221333 47.317334 199.253333 4.266667 8.533333 14.506667 12.16 23.381333 8.661334a18.517333 18.517333 0 0 0 9.898667-25.472A405.077333 405.077333 0 0 1 101.034667 512zM328.533333 145.109333A405.077333 405.077333 0 0 1 512 101.077333c131.157333 0 247.509333 62.250667 322.730667 158.250667l-79.189334-3.242667-0.426666-0.085333c-11.52 0.64-21.802667 8.789333-21.504 21.632a20.906667 20.906667 0 0 0 16.384 20.181333 17.066667 17.066667 0 0 0 3.626666 0.128l125.141334 5.162667a22.186667 22.186667 0 0 0 15.189333-7.338667 22.613333 22.613333 0 0 0 7.552-15.914666l-5.717333-124.288c0.256-5.717333-7.722667-20.778667-22.186667-20.138667-11.349333 0.512-19.2 10.069333-19.754667 21.845333l3.157334 69.504C774.741333 127.402667 650.837333 63.701333 512 63.701333c-72.149333 0-140.117333 17.536-200.448 48.128a18.773333 18.773333 0 0 0-6.570667 28.074667c5.504 7.253333 15.402667 9.301333 23.552 5.205333zM609.493333 910.336a390.912 390.912 0 0 1-97.493333 12.629333 408.32 408.32 0 0 1-276.650667-108.202666l77.994667-3.328h0.426667c11.392-1.578667 20.992-10.581333 19.626666-23.338667a20.992 20.992 0 0 0-18.005333-18.773333 17.365333 17.365333 0 0 0-3.626667 0.170666l-125.098666 5.290667a22.058667 22.058667 0 0 0-14.506667 8.576 22.613333 22.613333 0 0 0-6.229333 16.512l16.085333 123.349333c0.213333 5.717333 9.472 20.096 23.808 18.218667 11.264-1.450667 18.304-11.648 17.877333-23.424l-9.344-71.893333A444.970667 444.970667 0 0 0 512 960.298667c36.736 0 72.192-4.949333 106.197333-13.653334a18.816 18.816 0 0 0 13.312-24.192 18.56 18.56 0 0 0-22.016-12.117333zM901.973333 309.717333l-0.213333 0.341334-0.298667-0.256 0.256-0.341334zM850.389333 894.08l-78.848-17.962667c113.877333-81.322667 188.8-213.802667 188.8-364.117333 0-45.397333-7.04-89.130667-19.797333-130.389333a18.602667 18.602667 0 0 0-23.296-11.989334 18.517333 18.517333 0 0 0-12.373333 23.04c11.690667 37.76 18.090667 77.781333 18.090666 119.338667 0 133.290667-64 251.690667-162.688 326.741333l21.12-65.706666 0.128-0.426667c2.474667-11.264-2.645333-23.338667-15.104-26.496a20.992 20.992 0 0 0-23.850666 10.410667 19.2 19.2 0 0 0-1.109334 3.456l-38.314666 119.210666a21.930667 21.930667 0 0 0 3.029333 16.554667 22.698667 22.698667 0 0 0 13.312 11.562667l121.301333 27.605333c5.418667 1.792 22.101333-1.92 25.344-16 2.602667-11.008-4.522667-21.162667-15.744-24.832zM712.149333 692.778667a200.789333 200.789333 0 0 0-133.290666-168.917334 154.154667 154.154667 0 0 0 87.552-138.538666c0-85.162667-69.290667-154.410667-154.410667-154.410667S357.546667 300.16 357.546667 385.322667c0 61.098667 35.968 113.578667 87.594666 138.581333a242.944 242.944 0 0 0-41.728 17.834667c-55.381333 30.464-89.557333 89.258667-91.690666 151.808a18.56 18.56 0 0 0 18.432 19.242666 18.090667 18.090667 0 0 0 18.176-17.109333c2.048-50.346667 28.928-97.408 73.472-122.24 120.874667-67.498667 243.968 12.117333 254.378666 123.989333 0.810667 8.874667 8.746667 15.36 17.664 15.36h0.554667c10.666667 0 18.816-9.344 17.749333-20.010666zM392.021333 385.322667c0-66.176 53.845333-119.978667 119.978667-119.978667s119.978667 53.845333 119.978667 119.978667-53.802667 119.978667-119.978667 119.978666-119.978667-53.802667-119.978667-119.978666z" p-id="30148" fill="#515151"></path></svg>