<?xml version="1.0" encoding="utf-8"?>
<svg version="1.1" xmlns:xlink="http://www.w3.org/1999/xlink" width="13px" height="20px" xmlns="http://www.w3.org/2000/svg">
  <defs>
    <pattern id="BGPattern" patternUnits="userSpaceOnUse" alignment="0 0" imageRepeat="None" />
    <mask fill="white" id="Clip1651">
      <path d="M 4.616588888888888 17.435714285714287  L 2.335377777777777 17.435714285714287  C 2.6010171482063043 14.37464678187612  5.027620477140077 11.931662832951712  8.11748888888889 11.614571428571427  C 8.431921435461325 11.608217789729583  8.683464435330595 11.35430423000569  8.683464435330595 11.043262086676096  C 8.683464435330595 10.771817373768325  8.490380475174835 10.537833404303935  8.221488888888887 10.483428571428568  C 6.349633333333332 10.105285714285714  4.990988888888889 8.457142857142857  4.990988888888889 6.564285714285713  C 4.990988888888889 4.358714285714284  6.805355555555556 2.5642857142857127  9.035433333333334 2.5642857142857127  C 9.862968202229437 2.5625043580576063  10.670887001596327 2.813401899926073  11.348855555555561 3.2827142857142873  C 11.443812124002738 3.3453536902146515  11.555397047379662 3.3787812419851044  11.669537848657516 3.3787812419851044  C 11.988715478579175 3.3787812419851044  12.24746007087974 3.1228799968526784  12.24746007087974 2.807209813413677  C 12.24746007087974 2.6248802175939545  12.1595053616374 2.4534909295007448  12.010700000000002 2.345857142857143  C 11.135511111111112 1.7411428571428569  10.106633333333333 1.4214285714285715  9.035433333333334 1.4214285714285715  C 6.168066666666666 1.4214285714285715  3.8354333333333326 3.7284285714285708  3.8354333333333326 6.564285714285715  C 3.8354333333333326 8.342000000000002  4.768111111111112 9.952142857142857  6.209377777777777 10.880285714285714  C 3.230355555555555 11.93414285714286  1.1546888888888887 14.738000000000003  1.1546888888888887 18.00714285714286  C 1.1546888888888887 18.322734142760456  1.4133688112088758 18.578571428571433  1.7324666666666664 18.578571428571426  L 4.616588888888888 18.578571428571433  C 4.93568674434668 18.578571428571433  5.194366666666669 18.322734142760456  5.194366666666669 18.00714285714286  C 5.194366666666669 17.69155157152526  4.9356867443466825 17.435714285714287  4.616588888888888 17.435714285714287  Z " fill-rule="evenodd" />
    </mask>
  </defs>
  <g transform="matrix(1 0 0 1 -21 -348 )">
    <path d="M 4.616588888888888 17.435714285714287  L 2.335377777777777 17.435714285714287  C 2.6010171482063043 14.37464678187612  5.027620477140077 11.931662832951712  8.11748888888889 11.614571428571427  C 8.431921435461325 11.608217789729583  8.683464435330595 11.35430423000569  8.683464435330595 11.043262086676096  C 8.683464435330595 10.771817373768325  8.490380475174835 10.537833404303935  8.221488888888887 10.483428571428568  C 6.349633333333332 10.105285714285714  4.990988888888889 8.457142857142857  4.990988888888889 6.564285714285713  C 4.990988888888889 4.358714285714284  6.805355555555556 2.5642857142857127  9.035433333333334 2.5642857142857127  C 9.862968202229437 2.5625043580576063  10.670887001596327 2.813401899926073  11.348855555555561 3.2827142857142873  C 11.443812124002738 3.3453536902146515  11.555397047379662 3.3787812419851044  11.669537848657516 3.3787812419851044  C 11.988715478579175 3.3787812419851044  12.24746007087974 3.1228799968526784  12.24746007087974 2.807209813413677  C 12.24746007087974 2.6248802175939545  12.1595053616374 2.4534909295007448  12.010700000000002 2.345857142857143  C 11.135511111111112 1.7411428571428569  10.106633333333333 1.4214285714285715  9.035433333333334 1.4214285714285715  C 6.168066666666666 1.4214285714285715  3.8354333333333326 3.7284285714285708  3.8354333333333326 6.564285714285715  C 3.8354333333333326 8.342000000000002  4.768111111111112 9.952142857142857  6.209377777777777 10.880285714285714  C 3.230355555555555 11.93414285714286  1.1546888888888887 14.738000000000003  1.1546888888888887 18.00714285714286  C 1.1546888888888887 18.322734142760456  1.4133688112088758 18.578571428571433  1.7324666666666664 18.578571428571426  L 4.616588888888888 18.578571428571433  C 4.93568674434668 18.578571428571433  5.194366666666669 18.322734142760456  5.194366666666669 18.00714285714286  C 5.194366666666669 17.69155157152526  4.9356867443466825 17.435714285714287  4.616588888888888 17.435714285714287  Z " fill-rule="nonzero" fill="rgba(255, 255, 255, 1)" stroke="none" transform="matrix(1 0 0 1 21 348 )" class="fill" />
    <path d="M 4.616588888888888 17.435714285714287  L 2.335377777777777 17.435714285714287  C 2.6010171482063043 14.37464678187612  5.027620477140077 11.931662832951712  8.11748888888889 11.614571428571427  C 8.431921435461325 11.608217789729583  8.683464435330595 11.35430423000569  8.683464435330595 11.043262086676096  C 8.683464435330595 10.771817373768325  8.490380475174835 10.537833404303935  8.221488888888887 10.483428571428568  C 6.349633333333332 10.105285714285714  4.990988888888889 8.457142857142857  4.990988888888889 6.564285714285713  C 4.990988888888889 4.358714285714284  6.805355555555556 2.5642857142857127  9.035433333333334 2.5642857142857127  C 9.862968202229437 2.5625043580576063  10.670887001596327 2.813401899926073  11.348855555555561 3.2827142857142873  C 11.443812124002738 3.3453536902146515  11.555397047379662 3.3787812419851044  11.669537848657516 3.3787812419851044  C 11.988715478579175 3.3787812419851044  12.24746007087974 3.1228799968526784  12.24746007087974 2.807209813413677  C 12.24746007087974 2.6248802175939545  12.1595053616374 2.4534909295007448  12.010700000000002 2.345857142857143  C 11.135511111111112 1.7411428571428569  10.106633333333333 1.4214285714285715  9.035433333333334 1.4214285714285715  C 6.168066666666666 1.4214285714285715  3.8354333333333326 3.7284285714285708  3.8354333333333326 6.564285714285715  C 3.8354333333333326 8.342000000000002  4.768111111111112 9.952142857142857  6.209377777777777 10.880285714285714  C 3.230355555555555 11.93414285714286  1.1546888888888887 14.738000000000003  1.1546888888888887 18.00714285714286  C 1.1546888888888887 18.322734142760456  1.4133688112088758 18.578571428571433  1.7324666666666664 18.578571428571426  L 4.616588888888888 18.578571428571433  C 4.93568674434668 18.578571428571433  5.194366666666669 18.322734142760456  5.194366666666669 18.00714285714286  C 5.194366666666669 17.69155157152526  4.9356867443466825 17.435714285714287  4.616588888888888 17.435714285714287  Z " stroke-width="0" stroke-dasharray="0" stroke="rgba(255, 255, 255, 0)" fill="none" transform="matrix(1 0 0 1 21 348 )" class="stroke" mask="url(#Clip1651)" />
  </g>
</svg>