<?xml version="1.0" encoding="utf-8"?>
<svg version="1.1" xmlns:xlink="http://www.w3.org/1999/xlink" width="14px" height="16px" xmlns="http://www.w3.org/2000/svg">
  <defs>
    <pattern id="BGPattern" patternUnits="userSpaceOnUse" alignment="0 0" imageRepeat="None" />
    <mask fill="white" id="Clip1112">
      <path d="M 2.962239583333333 6.4732142857142865  C 4.213975694444445 6.729166666666668  5.559895833333334 6.857142857142858  7 6.857142857142858  C 8.440104166666668 6.857142857142858  9.786024305555557 6.729166666666668  11.037760416666668 6.4732142857142865  C 12.28949652777778 6.217261904761903  13.276909722222223 5.8392857142857135  14 5.3392857142857135  L 14 6.857142857142858  C 14 7.267857142857142  13.68706597222222 7.648809523809524  13.061197916666668 8  C 12.435329861111112 8.351190476190474  11.584635416666668 8.629464285714285  10.509114583333332 8.834821428571429  C 9.43359375 9.040178571428571  8.26388888888889 9.142857142857142  7 9.142857142857142  C 5.736111111111112 9.142857142857142  4.56640625 9.040178571428571  3.490885416666667 8.834821428571429  C 2.415364583333333 8.629464285714285  1.564670138888889 8.351190476190474  0.9388020833333334 8  C 0.31293402777777773 7.648809523809524  0 7.267857142857142  0 6.857142857142858  L 0 5.3392857142857135  C 0.7230902777777778 5.8392857142857135  1.7105034722222225 6.217261904761903  2.962239583333333 6.4732142857142865  Z M 2.962239583333333 13.330357142857142  C 4.213975694444445 13.586309523809526  5.559895833333334 13.714285714285715  7 13.714285714285715  C 8.440104166666668 13.714285714285715  9.786024305555557 13.586309523809526  11.037760416666668 13.330357142857142  C 12.28949652777778 13.074404761904761  13.276909722222223 12.696428571428571  14 12.196428571428571  L 14 13.714285714285715  C 14 14.125  13.68706597222222 14.505952380952381  13.061197916666668 14.857142857142858  C 12.435329861111112 15.208333333333332  11.584635416666668 15.486607142857142  10.509114583333332 15.691964285714286  C 9.43359375 15.897321428571429  8.26388888888889 16  7 16  C 5.736111111111112 16  4.56640625 15.897321428571429  3.490885416666667 15.691964285714286  C 2.415364583333333 15.486607142857142  1.564670138888889 15.208333333333332  0.9388020833333334 14.857142857142858  C 0.31293402777777773 14.505952380952381  0 14.125  0 13.714285714285715  L 0 12.196428571428571  C 0.7230902777777778 12.696428571428571  1.7105034722222225 13.074404761904761  2.962239583333333 13.330357142857142  Z M 2.962239583333333 9.901785714285715  C 4.213975694444445 10.157738095238095  5.559895833333334 10.285714285714285  7 10.285714285714285  C 8.440104166666668 10.285714285714285  9.786024305555557 10.157738095238095  11.037760416666668 9.901785714285715  C 12.28949652777778 9.645833333333332  13.276909722222223 9.267857142857142  14 8.767857142857142  L 14 10.285714285714285  C 14 10.696428571428571  13.68706597222222 11.07738095238095  13.061197916666668 11.428571428571429  C 12.435329861111112 11.779761904761905  11.584635416666668 12.058035714285715  10.509114583333332 12.263392857142858  C 9.43359375 12.46875  8.26388888888889 12.571428571428571  7 12.571428571428571  C 5.736111111111112 12.571428571428571  4.56640625 12.46875  3.490885416666667 12.263392857142858  C 2.415364583333333 12.058035714285715  1.564670138888889 11.779761904761905  0.9388020833333334 11.428571428571429  C 0.31293402777777773 11.07738095238095  0 10.696428571428571  0 10.285714285714285  L 0 8.767857142857142  C 0.7230902777777778 9.267857142857142  1.7105034722222225 9.645833333333332  2.962239583333333 9.901785714285715  Z M 3.490885416666667 0.3080357142857135  C 4.56640625 0.10267857142857117  5.736111111111112 0  7 0  C 8.26388888888889 0  9.43359375 0.10267857142857117  10.509114583333332 0.3080357142857135  C 11.584635416666668 0.5133928571428577  12.435329861111112 0.7916666666666661  13.061197916666668 1.1428571428571423  C 13.68706597222222 1.4940476190476186  14 1.875  14 2.2857142857142865  L 14 3.428571428571429  C 14 3.8392857142857135  13.68706597222222 4.220238095238093  13.061197916666668 4.571428571428571  C 12.435329861111112 4.9226190476190474  11.584635416666668 5.200892857142858  10.509114583333332 5.40625  C 9.43359375 5.611607142857142  8.26388888888889 5.7142857142857135  7 5.7142857142857135  C 5.736111111111112 5.7142857142857135  4.56640625 5.611607142857142  3.490885416666667 5.40625  C 2.415364583333333 5.200892857142858  1.564670138888889 4.9226190476190474  0.9388020833333334 4.571428571428571  C 0.31293402777777773 4.220238095238093  0 3.8392857142857135  0 3.428571428571429  L 0 2.2857142857142865  C 0 1.875  0.31293402777777773 1.4940476190476186  0.9388020833333334 1.1428571428571423  C 1.564670138888889 0.7916666666666661  2.415364583333333 0.5133928571428577  3.490885416666667 0.3080357142857135  Z " fill-rule="evenodd" />
    </mask>
  </defs>
  <g transform="matrix(1 0 0 1 -18 -15 )">
    <path d="M 2.962239583333333 6.4732142857142865  C 4.213975694444445 6.729166666666668  5.559895833333334 6.857142857142858  7 6.857142857142858  C 8.440104166666668 6.857142857142858  9.786024305555557 6.729166666666668  11.037760416666668 6.4732142857142865  C 12.28949652777778 6.217261904761903  13.276909722222223 5.8392857142857135  14 5.3392857142857135  L 14 6.857142857142858  C 14 7.267857142857142  13.68706597222222 7.648809523809524  13.061197916666668 8  C 12.435329861111112 8.351190476190474  11.584635416666668 8.629464285714285  10.509114583333332 8.834821428571429  C 9.43359375 9.040178571428571  8.26388888888889 9.142857142857142  7 9.142857142857142  C 5.736111111111112 9.142857142857142  4.56640625 9.040178571428571  3.490885416666667 8.834821428571429  C 2.415364583333333 8.629464285714285  1.564670138888889 8.351190476190474  0.9388020833333334 8  C 0.31293402777777773 7.648809523809524  0 7.267857142857142  0 6.857142857142858  L 0 5.3392857142857135  C 0.7230902777777778 5.8392857142857135  1.7105034722222225 6.217261904761903  2.962239583333333 6.4732142857142865  Z M 2.962239583333333 13.330357142857142  C 4.213975694444445 13.586309523809526  5.559895833333334 13.714285714285715  7 13.714285714285715  C 8.440104166666668 13.714285714285715  9.786024305555557 13.586309523809526  11.037760416666668 13.330357142857142  C 12.28949652777778 13.074404761904761  13.276909722222223 12.696428571428571  14 12.196428571428571  L 14 13.714285714285715  C 14 14.125  13.68706597222222 14.505952380952381  13.061197916666668 14.857142857142858  C 12.435329861111112 15.208333333333332  11.584635416666668 15.486607142857142  10.509114583333332 15.691964285714286  C 9.43359375 15.897321428571429  8.26388888888889 16  7 16  C 5.736111111111112 16  4.56640625 15.897321428571429  3.490885416666667 15.691964285714286  C 2.415364583333333 15.486607142857142  1.564670138888889 15.208333333333332  0.9388020833333334 14.857142857142858  C 0.31293402777777773 14.505952380952381  0 14.125  0 13.714285714285715  L 0 12.196428571428571  C 0.7230902777777778 12.696428571428571  1.7105034722222225 13.074404761904761  2.962239583333333 13.330357142857142  Z M 2.962239583333333 9.901785714285715  C 4.213975694444445 10.157738095238095  5.559895833333334 10.285714285714285  7 10.285714285714285  C 8.440104166666668 10.285714285714285  9.786024305555557 10.157738095238095  11.037760416666668 9.901785714285715  C 12.28949652777778 9.645833333333332  13.276909722222223 9.267857142857142  14 8.767857142857142  L 14 10.285714285714285  C 14 10.696428571428571  13.68706597222222 11.07738095238095  13.061197916666668 11.428571428571429  C 12.435329861111112 11.779761904761905  11.584635416666668 12.058035714285715  10.509114583333332 12.263392857142858  C 9.43359375 12.46875  8.26388888888889 12.571428571428571  7 12.571428571428571  C 5.736111111111112 12.571428571428571  4.56640625 12.46875  3.490885416666667 12.263392857142858  C 2.415364583333333 12.058035714285715  1.564670138888889 11.779761904761905  0.9388020833333334 11.428571428571429  C 0.31293402777777773 11.07738095238095  0 10.696428571428571  0 10.285714285714285  L 0 8.767857142857142  C 0.7230902777777778 9.267857142857142  1.7105034722222225 9.645833333333332  2.962239583333333 9.901785714285715  Z M 3.490885416666667 0.3080357142857135  C 4.56640625 0.10267857142857117  5.736111111111112 0  7 0  C 8.26388888888889 0  9.43359375 0.10267857142857117  10.509114583333332 0.3080357142857135  C 11.584635416666668 0.5133928571428577  12.435329861111112 0.7916666666666661  13.061197916666668 1.1428571428571423  C 13.68706597222222 1.4940476190476186  14 1.875  14 2.2857142857142865  L 14 3.428571428571429  C 14 3.8392857142857135  13.68706597222222 4.220238095238093  13.061197916666668 4.571428571428571  C 12.435329861111112 4.9226190476190474  11.584635416666668 5.200892857142858  10.509114583333332 5.40625  C 9.43359375 5.611607142857142  8.26388888888889 5.7142857142857135  7 5.7142857142857135  C 5.736111111111112 5.7142857142857135  4.56640625 5.611607142857142  3.490885416666667 5.40625  C 2.415364583333333 5.200892857142858  1.564670138888889 4.9226190476190474  0.9388020833333334 4.571428571428571  C 0.31293402777777773 4.220238095238093  0 3.8392857142857135  0 3.428571428571429  L 0 2.2857142857142865  C 0 1.875  0.31293402777777773 1.4940476190476186  0.9388020833333334 1.1428571428571423  C 1.564670138888889 0.7916666666666661  2.415364583333333 0.5133928571428577  3.490885416666667 0.3080357142857135  Z " fill-rule="nonzero" fill="rgba(85, 85, 85, 1)" stroke="none" transform="matrix(1 0 0 1 18 15 )" class="fill" />
    <path d="M 2.962239583333333 6.4732142857142865  C 4.213975694444445 6.729166666666668  5.559895833333334 6.857142857142858  7 6.857142857142858  C 8.440104166666668 6.857142857142858  9.786024305555557 6.729166666666668  11.037760416666668 6.4732142857142865  C 12.28949652777778 6.217261904761903  13.276909722222223 5.8392857142857135  14 5.3392857142857135  L 14 6.857142857142858  C 14 7.267857142857142  13.68706597222222 7.648809523809524  13.061197916666668 8  C 12.435329861111112 8.351190476190474  11.584635416666668 8.629464285714285  10.509114583333332 8.834821428571429  C 9.43359375 9.040178571428571  8.26388888888889 9.142857142857142  7 9.142857142857142  C 5.736111111111112 9.142857142857142  4.56640625 9.040178571428571  3.490885416666667 8.834821428571429  C 2.415364583333333 8.629464285714285  1.564670138888889 8.351190476190474  0.9388020833333334 8  C 0.31293402777777773 7.648809523809524  0 7.267857142857142  0 6.857142857142858  L 0 5.3392857142857135  C 0.7230902777777778 5.8392857142857135  1.7105034722222225 6.217261904761903  2.962239583333333 6.4732142857142865  Z " stroke-width="0" stroke-dasharray="0" stroke="rgba(255, 255, 255, 0)" fill="none" transform="matrix(1 0 0 1 18 15 )" class="stroke" mask="url(#Clip1112)" />
    <path d="M 2.962239583333333 13.330357142857142  C 4.213975694444445 13.586309523809526  5.559895833333334 13.714285714285715  7 13.714285714285715  C 8.440104166666668 13.714285714285715  9.786024305555557 13.586309523809526  11.037760416666668 13.330357142857142  C 12.28949652777778 13.074404761904761  13.276909722222223 12.696428571428571  14 12.196428571428571  L 14 13.714285714285715  C 14 14.125  13.68706597222222 14.505952380952381  13.061197916666668 14.857142857142858  C 12.435329861111112 15.208333333333332  11.584635416666668 15.486607142857142  10.509114583333332 15.691964285714286  C 9.43359375 15.897321428571429  8.26388888888889 16  7 16  C 5.736111111111112 16  4.56640625 15.897321428571429  3.490885416666667 15.691964285714286  C 2.415364583333333 15.486607142857142  1.564670138888889 15.208333333333332  0.9388020833333334 14.857142857142858  C 0.31293402777777773 14.505952380952381  0 14.125  0 13.714285714285715  L 0 12.196428571428571  C 0.7230902777777778 12.696428571428571  1.7105034722222225 13.074404761904761  2.962239583333333 13.330357142857142  Z " stroke-width="0" stroke-dasharray="0" stroke="rgba(255, 255, 255, 0)" fill="none" transform="matrix(1 0 0 1 18 15 )" class="stroke" mask="url(#Clip1112)" />
    <path d="M 2.962239583333333 9.901785714285715  C 4.213975694444445 10.157738095238095  5.559895833333334 10.285714285714285  7 10.285714285714285  C 8.440104166666668 10.285714285714285  9.786024305555557 10.157738095238095  11.037760416666668 9.901785714285715  C 12.28949652777778 9.645833333333332  13.276909722222223 9.267857142857142  14 8.767857142857142  L 14 10.285714285714285  C 14 10.696428571428571  13.68706597222222 11.07738095238095  13.061197916666668 11.428571428571429  C 12.435329861111112 11.779761904761905  11.584635416666668 12.058035714285715  10.509114583333332 12.263392857142858  C 9.43359375 12.46875  8.26388888888889 12.571428571428571  7 12.571428571428571  C 5.736111111111112 12.571428571428571  4.56640625 12.46875  3.490885416666667 12.263392857142858  C 2.415364583333333 12.058035714285715  1.564670138888889 11.779761904761905  0.9388020833333334 11.428571428571429  C 0.31293402777777773 11.07738095238095  0 10.696428571428571  0 10.285714285714285  L 0 8.767857142857142  C 0.7230902777777778 9.267857142857142  1.7105034722222225 9.645833333333332  2.962239583333333 9.901785714285715  Z " stroke-width="0" stroke-dasharray="0" stroke="rgba(255, 255, 255, 0)" fill="none" transform="matrix(1 0 0 1 18 15 )" class="stroke" mask="url(#Clip1112)" />
    <path d="M 3.490885416666667 0.3080357142857135  C 4.56640625 0.10267857142857117  5.736111111111112 0  7 0  C 8.26388888888889 0  9.43359375 0.10267857142857117  10.509114583333332 0.3080357142857135  C 11.584635416666668 0.5133928571428577  12.435329861111112 0.7916666666666661  13.061197916666668 1.1428571428571423  C 13.68706597222222 1.4940476190476186  14 1.875  14 2.2857142857142865  L 14 3.428571428571429  C 14 3.8392857142857135  13.68706597222222 4.220238095238093  13.061197916666668 4.571428571428571  C 12.435329861111112 4.9226190476190474  11.584635416666668 5.200892857142858  10.509114583333332 5.40625  C 9.43359375 5.611607142857142  8.26388888888889 5.7142857142857135  7 5.7142857142857135  C 5.736111111111112 5.7142857142857135  4.56640625 5.611607142857142  3.490885416666667 5.40625  C 2.415364583333333 5.200892857142858  1.564670138888889 4.9226190476190474  0.9388020833333334 4.571428571428571  C 0.31293402777777773 4.220238095238093  0 3.8392857142857135  0 3.428571428571429  L 0 2.2857142857142865  C 0 1.875  0.31293402777777773 1.4940476190476186  0.9388020833333334 1.1428571428571423  C 1.564670138888889 0.7916666666666661  2.415364583333333 0.5133928571428577  3.490885416666667 0.3080357142857135  Z " stroke-width="0" stroke-dasharray="0" stroke="rgba(255, 255, 255, 0)" fill="none" transform="matrix(1 0 0 1 18 15 )" class="stroke" mask="url(#Clip1112)" />
  </g>
</svg>