<?xml version="1.0" encoding="utf-8"?>
<svg version="1.1" xmlns:xlink="http://www.w3.org/1999/xlink" width="16px" height="7px" xmlns="http://www.w3.org/2000/svg">
  <defs>
    <pattern id="BGPattern" patternUnits="userSpaceOnUse" alignment="0 0" imageRepeat="None" />
    <mask fill="white" id="Clip807">
      <path d="M 11.20734497796361 6.298548917073171  C 11.20734497796361 6.583174181463415  10.972678081362757 6.813658770731706  10.683534955632986 6.813658770731706  L 1.6347168032210608 6.805408764878049  C 1.0648114942315139 6.804377521951219  0.5457157569957413 6.526455383414634  0.24609641749903216 6.061876807804877  C -0.043046708230739444 5.613798259512196  -0.0786657969802555 5.059500846829268  0.14971538087495162 4.578937896585366  C 0.9432875667673248 2.9108894282926823  3.0228133512969415 0.10124612682926859  8.035151473975997 0.024933557073170576  C 13.187346858567558 -0.06787904000000111  15.061539132357725 2.941311328780488  15.719968325574913 4.734141174634146  C 15.892825630723964 5.204907239024392  15.823158902733255 5.71228272390244  15.52773004240031 6.126845627317072  C 15.221301178226868 6.556877283902438  14.714776894339915 6.813658770731706  14.173157327634533 6.813658770731706  L 12.866251317320945 6.813658770731706  C 12.577108191591174 6.813658770731706  12.342441294990321 6.583174181463415  12.342441294990321 6.29803328  C 12.342441294990321 6.012892394146341  12.577108191591174 5.782407789268293  12.866251317320945 5.782407789268293  L 14.173157327634533 5.782407789268293  C 14.373776569136663 5.782407789268293  14.559205311777003 5.689595207804878  14.670253041331785 5.534907551219511  C 14.726824525900117 5.4549856000000005  14.810634125032907 5.291016694634145  14.734681678296553 5.084250880000001  C 14.046395293286876 3.210983461463414  12.311012685404569 0.9870907160975603  8.051913390631048 1.056184538536586  C 3.8310522301200156 1.1206377209756084  1.9411456673945027 3.245014743414634  1.0988591493302362 5.01618831609756  C 1.0213352530855595 5.178094719999999  1.0333828846457607 5.358048015609755  1.130811548989547 5.509126275121952  C 1.2376687993805653 5.674642060487804  1.426764215253581 5.773642161951219  1.6362882210143246 5.774157783414633  L 10.684058761564073 5.782407789268293  C 10.973201887293843 5.782923410731707  11.20734497796361 6.013408015609757  11.20734497796361 6.298548917073171  Z " fill-rule="evenodd" />
    </mask>
  </defs>
  <g transform="matrix(1 0 0 1 -17 -24 )">
    <path d="M 11.20734497796361 6.298548917073171  C 11.20734497796361 6.583174181463415  10.972678081362757 6.813658770731706  10.683534955632986 6.813658770731706  L 1.6347168032210608 6.805408764878049  C 1.0648114942315139 6.804377521951219  0.5457157569957413 6.526455383414634  0.24609641749903216 6.061876807804877  C -0.043046708230739444 5.613798259512196  -0.0786657969802555 5.059500846829268  0.14971538087495162 4.578937896585366  C 0.9432875667673248 2.9108894282926823  3.0228133512969415 0.10124612682926859  8.035151473975997 0.024933557073170576  C 13.187346858567558 -0.06787904000000111  15.061539132357725 2.941311328780488  15.719968325574913 4.734141174634146  C 15.892825630723964 5.204907239024392  15.823158902733255 5.71228272390244  15.52773004240031 6.126845627317072  C 15.221301178226868 6.556877283902438  14.714776894339915 6.813658770731706  14.173157327634533 6.813658770731706  L 12.866251317320945 6.813658770731706  C 12.577108191591174 6.813658770731706  12.342441294990321 6.583174181463415  12.342441294990321 6.29803328  C 12.342441294990321 6.012892394146341  12.577108191591174 5.782407789268293  12.866251317320945 5.782407789268293  L 14.173157327634533 5.782407789268293  C 14.373776569136663 5.782407789268293  14.559205311777003 5.689595207804878  14.670253041331785 5.534907551219511  C 14.726824525900117 5.4549856000000005  14.810634125032907 5.291016694634145  14.734681678296553 5.084250880000001  C 14.046395293286876 3.210983461463414  12.311012685404569 0.9870907160975603  8.051913390631048 1.056184538536586  C 3.8310522301200156 1.1206377209756084  1.9411456673945027 3.245014743414634  1.0988591493302362 5.01618831609756  C 1.0213352530855595 5.178094719999999  1.0333828846457607 5.358048015609755  1.130811548989547 5.509126275121952  C 1.2376687993805653 5.674642060487804  1.426764215253581 5.773642161951219  1.6362882210143246 5.774157783414633  L 10.684058761564073 5.782407789268293  C 10.973201887293843 5.782923410731707  11.20734497796361 6.013408015609757  11.20734497796361 6.298548917073171  Z " fill-rule="nonzero" fill="rgba(85, 85, 85, 1)" stroke="none" transform="matrix(1 0 0 1 17 24 )" class="fill" />
    <path d="M 11.20734497796361 6.298548917073171  C 11.20734497796361 6.583174181463415  10.972678081362757 6.813658770731706  10.683534955632986 6.813658770731706  L 1.6347168032210608 6.805408764878049  C 1.0648114942315139 6.804377521951219  0.5457157569957413 6.526455383414634  0.24609641749903216 6.061876807804877  C -0.043046708230739444 5.613798259512196  -0.0786657969802555 5.059500846829268  0.14971538087495162 4.578937896585366  C 0.9432875667673248 2.9108894282926823  3.0228133512969415 0.10124612682926859  8.035151473975997 0.024933557073170576  C 13.187346858567558 -0.06787904000000111  15.061539132357725 2.941311328780488  15.719968325574913 4.734141174634146  C 15.892825630723964 5.204907239024392  15.823158902733255 5.71228272390244  15.52773004240031 6.126845627317072  C 15.221301178226868 6.556877283902438  14.714776894339915 6.813658770731706  14.173157327634533 6.813658770731706  L 12.866251317320945 6.813658770731706  C 12.577108191591174 6.813658770731706  12.342441294990321 6.583174181463415  12.342441294990321 6.29803328  C 12.342441294990321 6.012892394146341  12.577108191591174 5.782407789268293  12.866251317320945 5.782407789268293  L 14.173157327634533 5.782407789268293  C 14.373776569136663 5.782407789268293  14.559205311777003 5.689595207804878  14.670253041331785 5.534907551219511  C 14.726824525900117 5.4549856000000005  14.810634125032907 5.291016694634145  14.734681678296553 5.084250880000001  C 14.046395293286876 3.210983461463414  12.311012685404569 0.9870907160975603  8.051913390631048 1.056184538536586  C 3.8310522301200156 1.1206377209756084  1.9411456673945027 3.245014743414634  1.0988591493302362 5.01618831609756  C 1.0213352530855595 5.178094719999999  1.0333828846457607 5.358048015609755  1.130811548989547 5.509126275121952  C 1.2376687993805653 5.674642060487804  1.426764215253581 5.773642161951219  1.6362882210143246 5.774157783414633  L 10.684058761564073 5.782407789268293  C 10.973201887293843 5.782923410731707  11.20734497796361 6.013408015609757  11.20734497796361 6.298548917073171  Z " stroke-width="0" stroke-dasharray="0" stroke="rgba(255, 255, 255, 0)" fill="none" transform="matrix(1 0 0 1 17 24 )" class="stroke" mask="url(#Clip807)" />
  </g>
</svg>