<?xml version="1.0" encoding="utf-8"?>
<svg version="1.1" xmlns:xlink="http://www.w3.org/1999/xlink" width="9px" height="8px" xmlns="http://www.w3.org/2000/svg">
  <defs>
    <pattern id="BGPattern" patternUnits="userSpaceOnUse" alignment="0 0" imageRepeat="None" />
    <mask fill="white" id="Clip1113">
      <path d="M 3.519970758335725 7.561425568070954  C 3.432071769985653 7.751925744863267  3.2300679088665705 7.8664258677309675  3.0171449058249644 7.8664258677309675  C 2.9461705659684365 7.8664258677309675  2.8741043218364415 7.85392584750924  2.8047678714490676 7.826925820783444  C 1.1559795236728834 7.188925216733185  0.09081858938307055 5.716923809017  0.09081858938307055 4.077422248396157  C 0.09081858938307055 1.83342011127864  2.084651365738881 0.007418361566888403  4.53490369928264 0.007418361566888403  C 6.9851560493543765 0.007418361566888403  8.978442873572455 1.83342011127864  8.978442873572455 4.077422248396157  C 8.978442873572455 5.666423761832964  7.958596313802009 7.119925145070214  6.38023635374462 7.780425776437546  C 6.105620279827834 7.894925884168515  5.781868133371592 7.784925790983  5.656298150014347 7.533925544774575  C 5.531274135322811 7.282425301995565  5.651930499856528 6.985925019719144  5.9265465737733125 6.871424911988174  C 7.117277491420373 6.372924440975609  7.886530069670014 5.275923397723577  7.886530069670014 4.077422248396157  C 7.886530069670014 2.384420630894309  6.382966130961262 1.0074193132889877  4.53490369928264 1.0074193132889877  C 2.686841284131994 1.0074193132889877  1.1827313932855086 2.384420630894309  1.1827313932855086 4.077422248396157  C 1.1827313932855086 5.314423421256467  1.9863792206599713 6.424424481300813  3.2300679088665705 6.90592494781966  C 3.50741376 7.013425043015521  3.6378973291248204 7.3069253307317075  3.519970758335725 7.561425568070954  Z " fill-rule="evenodd" />
    </mask>
  </defs>
  <g transform="matrix(1 0 0 1 -21 -15 )">
    <path d="M 3.519970758335725 7.561425568070954  C 3.432071769985653 7.751925744863267  3.2300679088665705 7.8664258677309675  3.0171449058249644 7.8664258677309675  C 2.9461705659684365 7.8664258677309675  2.8741043218364415 7.85392584750924  2.8047678714490676 7.826925820783444  C 1.1559795236728834 7.188925216733185  0.09081858938307055 5.716923809017  0.09081858938307055 4.077422248396157  C 0.09081858938307055 1.83342011127864  2.084651365738881 0.007418361566888403  4.53490369928264 0.007418361566888403  C 6.9851560493543765 0.007418361566888403  8.978442873572455 1.83342011127864  8.978442873572455 4.077422248396157  C 8.978442873572455 5.666423761832964  7.958596313802009 7.119925145070214  6.38023635374462 7.780425776437546  C 6.105620279827834 7.894925884168515  5.781868133371592 7.784925790983  5.656298150014347 7.533925544774575  C 5.531274135322811 7.282425301995565  5.651930499856528 6.985925019719144  5.9265465737733125 6.871424911988174  C 7.117277491420373 6.372924440975609  7.886530069670014 5.275923397723577  7.886530069670014 4.077422248396157  C 7.886530069670014 2.384420630894309  6.382966130961262 1.0074193132889877  4.53490369928264 1.0074193132889877  C 2.686841284131994 1.0074193132889877  1.1827313932855086 2.384420630894309  1.1827313932855086 4.077422248396157  C 1.1827313932855086 5.314423421256467  1.9863792206599713 6.424424481300813  3.2300679088665705 6.90592494781966  C 3.50741376 7.013425043015521  3.6378973291248204 7.3069253307317075  3.519970758335725 7.561425568070954  Z " fill-rule="nonzero" fill="rgba(85, 85, 85, 1)" stroke="none" transform="matrix(1 0 0 1 21 15 )" class="fill" />
    <path d="M 3.519970758335725 7.561425568070954  C 3.432071769985653 7.751925744863267  3.2300679088665705 7.8664258677309675  3.0171449058249644 7.8664258677309675  C 2.9461705659684365 7.8664258677309675  2.8741043218364415 7.85392584750924  2.8047678714490676 7.826925820783444  C 1.1559795236728834 7.188925216733185  0.09081858938307055 5.716923809017  0.09081858938307055 4.077422248396157  C 0.09081858938307055 1.83342011127864  2.084651365738881 0.007418361566888403  4.53490369928264 0.007418361566888403  C 6.9851560493543765 0.007418361566888403  8.978442873572455 1.83342011127864  8.978442873572455 4.077422248396157  C 8.978442873572455 5.666423761832964  7.958596313802009 7.119925145070214  6.38023635374462 7.780425776437546  C 6.105620279827834 7.894925884168515  5.781868133371592 7.784925790983  5.656298150014347 7.533925544774575  C 5.531274135322811 7.282425301995565  5.651930499856528 6.985925019719144  5.9265465737733125 6.871424911988174  C 7.117277491420373 6.372924440975609  7.886530069670014 5.275923397723577  7.886530069670014 4.077422248396157  C 7.886530069670014 2.384420630894309  6.382966130961262 1.0074193132889877  4.53490369928264 1.0074193132889877  C 2.686841284131994 1.0074193132889877  1.1827313932855086 2.384420630894309  1.1827313932855086 4.077422248396157  C 1.1827313932855086 5.314423421256467  1.9863792206599713 6.424424481300813  3.2300679088665705 6.90592494781966  C 3.50741376 7.013425043015521  3.6378973291248204 7.3069253307317075  3.519970758335725 7.561425568070954  Z " stroke-width="0" stroke-dasharray="0" stroke="rgba(255, 255, 255, 0)" fill="none" transform="matrix(1 0 0 1 21 15 )" class="stroke" mask="url(#Clip1113)" />
  </g>
</svg>