<?xml version="1.0" encoding="utf-8"?>
<svg version="1.1" xmlns:xlink="http://www.w3.org/1999/xlink" width="6px" height="6px" xmlns="http://www.w3.org/2000/svg">
  <defs>
    <pattern id="BGPattern" patternUnits="userSpaceOnUse" alignment="0 0" imageRepeat="None" />
    <mask fill="white" id="Clip286">
      <path d="M 5.830000004882812 2.9899999951171883  C 5.830000004882812 4.499999985351563  4.600000004882812 5.73  3.0900000000000007 5.73  C 1.5799999951171877 5.73  0.34999999511718793 4.500000000000002  0.34999999511718793 2.9899999951171883  C 0.34999999511718793 1.479999990234376  1.5799999951171877 0.24999999023437613  3.0900000000000007 0.25000000488281393  C 4.600000004882812 0.25000000488281393  5.830000004882812 1.4800000048828144  5.830000004882812 2.9899999951171883  Z M 5.230000004882811 2.9899999951171896  C 5.230000004882811 1.8099999902343775  4.27000000488281 0.8499999902343767  3.0900000000000007 0.8500000048828138  C 1.9099999951171873 0.8500000048828138  0.9499999951171878 1.8100000048828133  0.9499999951171878 2.9899999951171883  C 0.9499999951171878 4.169999985351563  1.9099999951171873 5.130000000000003  3.0900000000000007 5.130000000000003  C 4.270000004882813 5.130000000000003  5.230000004882811 4.170000000000002  5.230000004882811 2.9899999951171896  Z " fill-rule="evenodd" />
    </mask>
  </defs>
  <g transform="matrix(1 0 0 1 -22 -20 )">
    <path d="M 5.830000004882812 2.9899999951171883  C 5.830000004882812 4.499999985351563  4.600000004882812 5.73  3.0900000000000007 5.73  C 1.5799999951171877 5.73  0.34999999511718793 4.500000000000002  0.34999999511718793 2.9899999951171883  C 0.34999999511718793 1.479999990234376  1.5799999951171877 0.24999999023437613  3.0900000000000007 0.25000000488281393  C 4.600000004882812 0.25000000488281393  5.830000004882812 1.4800000048828144  5.830000004882812 2.9899999951171883  Z M 5.230000004882811 2.9899999951171896  C 5.230000004882811 1.8099999902343775  4.27000000488281 0.8499999902343767  3.0900000000000007 0.8500000048828138  C 1.9099999951171873 0.8500000048828138  0.9499999951171878 1.8100000048828133  0.9499999951171878 2.9899999951171883  C 0.9499999951171878 4.169999985351563  1.9099999951171873 5.130000000000003  3.0900000000000007 5.130000000000003  C 4.270000004882813 5.130000000000003  5.230000004882811 4.170000000000002  5.230000004882811 2.9899999951171896  Z " fill-rule="nonzero" fill="rgba(85, 85, 85, 1)" stroke="none" transform="matrix(1 0 0 1 22 20 )" class="fill" />
    <path d="M 5.830000004882812 2.9899999951171883  C 5.830000004882812 4.499999985351563  4.600000004882812 5.73  3.0900000000000007 5.73  C 1.5799999951171877 5.73  0.34999999511718793 4.500000000000002  0.34999999511718793 2.9899999951171883  C 0.34999999511718793 1.479999990234376  1.5799999951171877 0.24999999023437613  3.0900000000000007 0.25000000488281393  C 4.600000004882812 0.25000000488281393  5.830000004882812 1.4800000048828144  5.830000004882812 2.9899999951171883  Z " stroke-width="0" stroke-dasharray="0" stroke="rgba(255, 255, 255, 0)" fill="none" transform="matrix(1 0 0 1 22 20 )" class="stroke" mask="url(#Clip286)" />
    <path d="M 5.230000004882811 2.9899999951171896  C 5.230000004882811 1.8099999902343775  4.27000000488281 0.8499999902343767  3.0900000000000007 0.8500000048828138  C 1.9099999951171873 0.8500000048828138  0.9499999951171878 1.8100000048828133  0.9499999951171878 2.9899999951171883  C 0.9499999951171878 4.169999985351563  1.9099999951171873 5.130000000000003  3.0900000000000007 5.130000000000003  C 4.270000004882813 5.130000000000003  5.230000004882811 4.170000000000002  5.230000004882811 2.9899999951171896  Z " stroke-width="0" stroke-dasharray="0" stroke="rgba(255, 255, 255, 0)" fill="none" transform="matrix(1 0 0 1 22 20 )" class="stroke" mask="url(#Clip286)" />
  </g>
</svg>