<?xml version="1.0" encoding="utf-8"?>
<svg version="1.1" xmlns:xlink="http://www.w3.org/1999/xlink" width="3px" height="2px" xmlns="http://www.w3.org/2000/svg">
  <defs>
    <pattern id="BGPattern" patternUnits="userSpaceOnUse" alignment="0 0" imageRepeat="None" />
    <mask fill="white" id="Clip817">
      <path d="M 0.0703125 0.27499999999997726  C 0.07968750000009095 1.0972222222221717  0.6796875 2.0277777777778283  1.5632812500000455 1.944444444444457  C 2.35546875 1.8666666666666742  2.990624999999909 1.2333333333333485  2.9718749999999545 0.20277777777778283  L 0.07500000000004547 0.2055555555555202  C 0.07500000000004547 0.23055555555561114  0.0703125 0.25  0.0703125 0.27499999999997726  Z " fill-rule="evenodd" />
    </mask>
  </defs>
  <g transform="matrix(1 0 0 1 -34 -74 )">
    <path d="M 0.0703125 0.27499999999997726  C 0.07968750000009095 1.0972222222221717  0.6796875 2.0277777777778283  1.5632812500000455 1.944444444444457  C 2.35546875 1.8666666666666742  2.990624999999909 1.2333333333333485  2.9718749999999545 0.20277777777778283  L 0.07500000000004547 0.2055555555555202  C 0.07500000000004547 0.23055555555561114  0.0703125 0.25  0.0703125 0.27499999999997726  Z " fill-rule="nonzero" fill="rgba(202, 193, 52, 1)" stroke="none" transform="matrix(1 0 0 1 34 74 )" class="fill" />
    <path d="M 0.0703125 0.27499999999997726  C 0.07968750000009095 1.0972222222221717  0.6796875 2.0277777777778283  1.5632812500000455 1.944444444444457  C 2.35546875 1.8666666666666742  2.990624999999909 1.2333333333333485  2.9718749999999545 0.20277777777778283  L 0.07500000000004547 0.2055555555555202  C 0.07500000000004547 0.23055555555561114  0.0703125 0.25  0.0703125 0.27499999999997726  Z " stroke-width="0" stroke-dasharray="0" stroke="rgba(255, 255, 255, 0)" fill="none" transform="matrix(1 0 0 1 34 74 )" class="stroke" mask="url(#Clip817)" />
  </g>
</svg>