<?xml version="1.0" encoding="utf-8"?>
<svg version="1.1" xmlns:xlink="http://www.w3.org/1999/xlink" width="9px" height="7px" xmlns="http://www.w3.org/2000/svg">
  <defs>
    <pattern id="BGPattern" patternUnits="userSpaceOnUse" alignment="0 0" imageRepeat="None" />
    <mask fill="white" id="Clip1121">
      <path d="M 8.597916666666606 6.783333333333303  C 8.916666666666742 6.55833333333328  9 6.1104166666666515  8.777083333333394 5.783333333333303  L 5.091666666666697 0.408333333333303  L 5.0791666666666515 0.39583333333337123  C 5.0437500000000455 0.345833333333303  5 0.2999999999999545  4.9500000000000455 0.26041666666662877  C 4.941666666666606 0.252083333333303  4.933333333333394 0.24374999999997726  4.9229166666666515 0.23749999999995453  C 4.9166666666667425 0.2333333333333485  4.912499999999909 0.22708333333332578  4.90625 0.22291666666671975  C 4.8562500000000455 0.1875  4.8020833333332575 0.16250000000002274  4.747916666666697 0.14374999999995453  C 4.7374999999999545 0.1395833333333485  4.727083333333439 0.13750000000004547  4.716666666666697 0.13333333333332575  C 4.652083333333394 0.11249999999995453  4.585416666666561 0.10000000000002274  4.5208333333332575 0.09791666666671972  L 4.5145833333333485 0.09791666666671972  C 4.443749999999909 0.09583333333330302  4.375 0.10833333333334849  4.308333333333394 0.12708333333330302  C 4.3020833333332575 0.12916666666671972  4.2958333333333485 0.12708333333330302  4.289583333333439 0.12916666666671972  C 4.285416666666606 0.13125000000002274  4.28125 0.13541666666662877  4.275000000000091 0.13541666666662877  C 4.210416666666561 0.15625  4.150000000000091 0.18541666666669698  4.09375 0.22500000000002277  C 4.085416666666561 0.23125000000004547  4.0770833333333485 0.23958333333337123  4.068749999999909 0.24583333333328028  C 4.0208333333332575 0.28125  3.9770833333334394 0.3250000000000455  3.939583333333303 0.372916666666697  C 3.933333333333394 0.38125000000002274  3.9270833333332575 0.3875000000000455  3.9208333333333485 0.39583333333337123  C 3.9166666666667425 0.39999999999997726  3.9145833333334394 0.404166666666697  3.910416666666606 0.408333333333303  L 0.22499999999990905 5.783333333333303  C 0 6.1104166666666515  0.08333333333325754 6.55833333333328  0.41249999999990905 6.783333333333303  C 0.537499999999909 6.868749999999977  0.6791666666665606 6.908333333333303  0.818749999999909 6.908333333333303  C 1.0479166666666515 6.908333333333303  1.2729166666665606 6.7999999999999545  1.412499999999909 6.595833333333303  L 3.787499999999909 3.1333333333333258  L 3.787499999999909 6.189583333333303  C 3.787499999999909 6.587499999999977  4.1083333333333485 6.908333333333303  4.506249999999909 6.908333333333303  C 4.904166666666697 6.908333333333303  5.224999999999909 6.587499999999977  5.224999999999909 6.189583333333303  L 5.224999999999909 3.1333333333333258  L 7.597916666666606 6.595833333333303  C 7.7374999999999545 6.7979166666666515  7.962500000000091 6.908333333333303  8.191666666666606 6.908333333333303  C 8.331249999999955 6.908333333333303  8.472916666666606 6.866666666666674  8.597916666666606 6.783333333333303  Z " fill-rule="evenodd" />
    </mask>
  </defs>
  <g transform="matrix(1 0 0 1 -31 -84 )">
    <path d="M 8.597916666666606 6.783333333333303  C 8.916666666666742 6.55833333333328  9 6.1104166666666515  8.777083333333394 5.783333333333303  L 5.091666666666697 0.408333333333303  L 5.0791666666666515 0.39583333333337123  C 5.0437500000000455 0.345833333333303  5 0.2999999999999545  4.9500000000000455 0.26041666666662877  C 4.941666666666606 0.252083333333303  4.933333333333394 0.24374999999997726  4.9229166666666515 0.23749999999995453  C 4.9166666666667425 0.2333333333333485  4.912499999999909 0.22708333333332578  4.90625 0.22291666666671975  C 4.8562500000000455 0.1875  4.8020833333332575 0.16250000000002274  4.747916666666697 0.14374999999995453  C 4.7374999999999545 0.1395833333333485  4.727083333333439 0.13750000000004547  4.716666666666697 0.13333333333332575  C 4.652083333333394 0.11249999999995453  4.585416666666561 0.10000000000002274  4.5208333333332575 0.09791666666671972  L 4.5145833333333485 0.09791666666671972  C 4.443749999999909 0.09583333333330302  4.375 0.10833333333334849  4.308333333333394 0.12708333333330302  C 4.3020833333332575 0.12916666666671972  4.2958333333333485 0.12708333333330302  4.289583333333439 0.12916666666671972  C 4.285416666666606 0.13125000000002274  4.28125 0.13541666666662877  4.275000000000091 0.13541666666662877  C 4.210416666666561 0.15625  4.150000000000091 0.18541666666669698  4.09375 0.22500000000002277  C 4.085416666666561 0.23125000000004547  4.0770833333333485 0.23958333333337123  4.068749999999909 0.24583333333328028  C 4.0208333333332575 0.28125  3.9770833333334394 0.3250000000000455  3.939583333333303 0.372916666666697  C 3.933333333333394 0.38125000000002274  3.9270833333332575 0.3875000000000455  3.9208333333333485 0.39583333333337123  C 3.9166666666667425 0.39999999999997726  3.9145833333334394 0.404166666666697  3.910416666666606 0.408333333333303  L 0.22499999999990905 5.783333333333303  C 0 6.1104166666666515  0.08333333333325754 6.55833333333328  0.41249999999990905 6.783333333333303  C 0.537499999999909 6.868749999999977  0.6791666666665606 6.908333333333303  0.818749999999909 6.908333333333303  C 1.0479166666666515 6.908333333333303  1.2729166666665606 6.7999999999999545  1.412499999999909 6.595833333333303  L 3.787499999999909 3.1333333333333258  L 3.787499999999909 6.189583333333303  C 3.787499999999909 6.587499999999977  4.1083333333333485 6.908333333333303  4.506249999999909 6.908333333333303  C 4.904166666666697 6.908333333333303  5.224999999999909 6.587499999999977  5.224999999999909 6.189583333333303  L 5.224999999999909 3.1333333333333258  L 7.597916666666606 6.595833333333303  C 7.7374999999999545 6.7979166666666515  7.962500000000091 6.908333333333303  8.191666666666606 6.908333333333303  C 8.331249999999955 6.908333333333303  8.472916666666606 6.866666666666674  8.597916666666606 6.783333333333303  Z " fill-rule="nonzero" fill="rgba(153, 194, 54, 1)" stroke="none" transform="matrix(1 0 0 1 31 84 )" class="fill" />
    <path d="M 8.597916666666606 6.783333333333303  C 8.916666666666742 6.55833333333328  9 6.1104166666666515  8.777083333333394 5.783333333333303  L 5.091666666666697 0.408333333333303  L 5.0791666666666515 0.39583333333337123  C 5.0437500000000455 0.345833333333303  5 0.2999999999999545  4.9500000000000455 0.26041666666662877  C 4.941666666666606 0.252083333333303  4.933333333333394 0.24374999999997726  4.9229166666666515 0.23749999999995453  C 4.9166666666667425 0.2333333333333485  4.912499999999909 0.22708333333332578  4.90625 0.22291666666671975  C 4.8562500000000455 0.1875  4.8020833333332575 0.16250000000002274  4.747916666666697 0.14374999999995453  C 4.7374999999999545 0.1395833333333485  4.727083333333439 0.13750000000004547  4.716666666666697 0.13333333333332575  C 4.652083333333394 0.11249999999995453  4.585416666666561 0.10000000000002274  4.5208333333332575 0.09791666666671972  L 4.5145833333333485 0.09791666666671972  C 4.443749999999909 0.09583333333330302  4.375 0.10833333333334849  4.308333333333394 0.12708333333330302  C 4.3020833333332575 0.12916666666671972  4.2958333333333485 0.12708333333330302  4.289583333333439 0.12916666666671972  C 4.285416666666606 0.13125000000002274  4.28125 0.13541666666662877  4.275000000000091 0.13541666666662877  C 4.210416666666561 0.15625  4.150000000000091 0.18541666666669698  4.09375 0.22500000000002277  C 4.085416666666561 0.23125000000004547  4.0770833333333485 0.23958333333337123  4.068749999999909 0.24583333333328028  C 4.0208333333332575 0.28125  3.9770833333334394 0.3250000000000455  3.939583333333303 0.372916666666697  C 3.933333333333394 0.38125000000002274  3.9270833333332575 0.3875000000000455  3.9208333333333485 0.39583333333337123  C 3.9166666666667425 0.39999999999997726  3.9145833333334394 0.404166666666697  3.910416666666606 0.408333333333303  L 0.22499999999990905 5.783333333333303  C 0 6.1104166666666515  0.08333333333325754 6.55833333333328  0.41249999999990905 6.783333333333303  C 0.537499999999909 6.868749999999977  0.6791666666665606 6.908333333333303  0.818749999999909 6.908333333333303  C 1.0479166666666515 6.908333333333303  1.2729166666665606 6.7999999999999545  1.412499999999909 6.595833333333303  L 3.787499999999909 3.1333333333333258  L 3.787499999999909 6.189583333333303  C 3.787499999999909 6.587499999999977  4.1083333333333485 6.908333333333303  4.506249999999909 6.908333333333303  C 4.904166666666697 6.908333333333303  5.224999999999909 6.587499999999977  5.224999999999909 6.189583333333303  L 5.224999999999909 3.1333333333333258  L 7.597916666666606 6.595833333333303  C 7.7374999999999545 6.7979166666666515  7.962500000000091 6.908333333333303  8.191666666666606 6.908333333333303  C 8.331249999999955 6.908333333333303  8.472916666666606 6.866666666666674  8.597916666666606 6.783333333333303  Z " stroke-width="0" stroke-dasharray="0" stroke="rgba(255, 255, 255, 0)" fill="none" transform="matrix(1 0 0 1 31 84 )" class="stroke" mask="url(#Clip1121)" />
  </g>
</svg>