<?xml version="1.0" encoding="utf-8"?>
<svg version="1.1" xmlns:xlink="http://www.w3.org/1999/xlink" width="3px" height="1px" xmlns="http://www.w3.org/2000/svg">
  <defs>
    <pattern id="BGPattern" patternUnits="userSpaceOnUse" alignment="0 0" imageRepeat="None" />
    <mask fill="white" id="Clip292">
      <path d="M 2.9718749999999545 0.9890625000000455  C 2.9718749999999545 0.9828125000000227  2.974218750000091 0.9781249999999773  2.974218750000091 0.9734375000000455  C 2.9460937500000455 0.43906249999997726  2.388281250000091 0.010937499999954525  1.4812500000000455 0.034374999999954525  C 0.6984374999999545 0.05312500000002274  0.09140625000009095 0.3796875000000455  0.07500000000004547 0.9906250000000227  L 2.9718749999999545 0.9890625000000455  Z " fill-rule="evenodd" />
    </mask>
  </defs>
  <g transform="matrix(1 0 0 1 -34 -73 )">
    <path d="M 2.9718749999999545 0.9890625000000455  C 2.9718749999999545 0.9828125000000227  2.974218750000091 0.9781249999999773  2.974218750000091 0.9734375000000455  C 2.9460937500000455 0.43906249999997726  2.388281250000091 0.010937499999954525  1.4812500000000455 0.034374999999954525  C 0.6984374999999545 0.05312500000002274  0.09140625000009095 0.3796875000000455  0.07500000000004547 0.9906250000000227  L 2.9718749999999545 0.9890625000000455  Z " fill-rule="nonzero" fill="rgba(0, 169, 220, 1)" stroke="none" transform="matrix(1 0 0 1 34 73 )" class="fill" />
    <path d="M 2.9718749999999545 0.9890625000000455  C 2.9718749999999545 0.9828125000000227  2.974218750000091 0.9781249999999773  2.974218750000091 0.9734375000000455  C 2.9460937500000455 0.43906249999997726  2.388281250000091 0.010937499999954525  1.4812500000000455 0.034374999999954525  C 0.6984374999999545 0.05312500000002274  0.09140625000009095 0.3796875000000455  0.07500000000004547 0.9906250000000227  L 2.9718749999999545 0.9890625000000455  Z " stroke-width="0" stroke-dasharray="0" stroke="rgba(255, 255, 255, 0)" fill="none" transform="matrix(1 0 0 1 34 73 )" class="stroke" mask="url(#Clip292)" />
  </g>
</svg>