<?xml version="1.0" encoding="utf-8"?>
<svg version="1.1" xmlns:xlink="http://www.w3.org/1999/xlink" width="18px" height="13px" xmlns="http://www.w3.org/2000/svg">
  <defs>
    <pattern id="BGPattern" patternUnits="userSpaceOnUse" alignment="0 0" imageRepeat="None" />
    <mask fill="white" id="Clip297">
      <path d="M 17.88888889583336 12.188800000000128  C 17.853333333333353 12.595555548333323  17.56888889583331 12.928355548333457  17.17777777083336 13  L 0.8222222291666412 13  C 0.43111112500002946 12.928355548333457  0.11111112499997944 12.595555548333323  0.11111110416663905 12.188800000000128  L 0.11111110416663905 0.35591111833332434  C 0.11111110416663905 0.20800000000008367  0.2888888749999978 0.09706666666670571  0.4311111041666891 0.1710222149999936  L 8.928888895833325 5.0890666666666675  C 9 5.126044451666758  9.071111125000016 5.126044451666758  9.142222229166691 5.0890666666666675  L 17.56888889583331 0.1710222149999936  C 17.711111125000002 0.09706666666670571  17.88888889583336 0.20800000000008367  17.88888889583336 0.35591111833332434  L 17.88888889583336 12.188800000000128  Z " fill-rule="evenodd" />
    </mask>
  </defs>
  <g transform="matrix(1 0 0 1 -26 -128 )">
    <path d="M 17.88888889583336 12.188800000000128  C 17.853333333333353 12.595555548333323  17.56888889583331 12.928355548333457  17.17777777083336 13  L 0.8222222291666412 13  C 0.43111112500002946 12.928355548333457  0.11111112499997944 12.595555548333323  0.11111110416663905 12.188800000000128  L 0.11111110416663905 0.35591111833332434  C 0.11111110416663905 0.20800000000008367  0.2888888749999978 0.09706666666670571  0.4311111041666891 0.1710222149999936  L 8.928888895833325 5.0890666666666675  C 9 5.126044451666758  9.071111125000016 5.126044451666758  9.142222229166691 5.0890666666666675  L 17.56888889583331 0.1710222149999936  C 17.711111125000002 0.09706666666670571  17.88888889583336 0.20800000000008367  17.88888889583336 0.35591111833332434  L 17.88888889583336 12.188800000000128  Z " fill-rule="nonzero" fill="rgba(51, 51, 51, 1)" stroke="none" transform="matrix(1 0 0 1 26 128 )" class="fill" />
    <path d="M 17.88888889583336 12.188800000000128  C 17.853333333333353 12.595555548333323  17.56888889583331 12.928355548333457  17.17777777083336 13  L 0.8222222291666412 13  C 0.43111112500002946 12.928355548333457  0.11111112499997944 12.595555548333323  0.11111110416663905 12.188800000000128  L 0.11111110416663905 0.35591111833332434  C 0.11111110416663905 0.20800000000008367  0.2888888749999978 0.09706666666670571  0.4311111041666891 0.1710222149999936  L 8.928888895833325 5.0890666666666675  C 9 5.126044451666758  9.071111125000016 5.126044451666758  9.142222229166691 5.0890666666666675  L 17.56888889583331 0.1710222149999936  C 17.711111125000002 0.09706666666670571  17.88888889583336 0.20800000000008367  17.88888889583336 0.35591111833332434  L 17.88888889583336 12.188800000000128  Z " stroke-width="0" stroke-dasharray="0" stroke="rgba(255, 255, 255, 0)" fill="none" transform="matrix(1 0 0 1 26 128 )" class="stroke" mask="url(#Clip297)" />
  </g>
</svg>