<?xml version="1.0" encoding="utf-8"?>
<svg version="1.1" xmlns:xlink="http://www.w3.org/1999/xlink" width="17px" height="9px" xmlns="http://www.w3.org/2000/svg">
  <defs>
    <pattern id="BGPattern" patternUnits="userSpaceOnUse" alignment="0 0" imageRepeat="None" />
    <mask fill="white" id="Clip821">
      <path d="M 16.997799345873773 8.330181811363673  C 16.997799345873773 8.609454531818301  16.78653720995146 8.853818175000015  16.469644006067938 8.853818175000015  L 0.6249838118932303 8.853818175000015  C 0.34330097087377 8.853818175000015  0.09682847208739531 8.609454531818301  0.09682847208739531 8.330181811363673  L 0.09682847208739531 0.6501818249998905  C 0.09682847208739531 0.37090910454548975  0.34330097087377 0.12654546136377576  0.6249838118932303 0.12654546136377576  L 16.469644006067938 0.12654546136377576  C 16.751326847087284 0.12654546136377576  16.997799345873773 0.37090910454548975  16.997799345873773 0.6501818249998905  L 16.997799345873773 8.330181811363673  Z " fill-rule="evenodd" />
    </mask>
  </defs>
  <g transform="matrix(1 0 0 1 -26 -125 )">
    <path d="M 16.997799345873773 8.330181811363673  C 16.997799345873773 8.609454531818301  16.78653720995146 8.853818175000015  16.469644006067938 8.853818175000015  L 0.6249838118932303 8.853818175000015  C 0.34330097087377 8.853818175000015  0.09682847208739531 8.609454531818301  0.09682847208739531 8.330181811363673  L 0.09682847208739531 0.6501818249998905  C 0.09682847208739531 0.37090910454548975  0.34330097087377 0.12654546136377576  0.6249838118932303 0.12654546136377576  L 16.469644006067938 0.12654546136377576  C 16.751326847087284 0.12654546136377576  16.997799345873773 0.37090910454548975  16.997799345873773 0.6501818249998905  L 16.997799345873773 8.330181811363673  Z " fill-rule="nonzero" fill="rgba(51, 51, 51, 1)" stroke="none" transform="matrix(1 0 0 1 26 125 )" class="fill" />
    <path d="M 16.997799345873773 8.330181811363673  C 16.997799345873773 8.609454531818301  16.78653720995146 8.853818175000015  16.469644006067938 8.853818175000015  L 0.6249838118932303 8.853818175000015  C 0.34330097087377 8.853818175000015  0.09682847208739531 8.609454531818301  0.09682847208739531 8.330181811363673  L 0.09682847208739531 0.6501818249998905  C 0.09682847208739531 0.37090910454548975  0.34330097087377 0.12654546136377576  0.6249838118932303 0.12654546136377576  L 16.469644006067938 0.12654546136377576  C 16.751326847087284 0.12654546136377576  16.997799345873773 0.37090910454548975  16.997799345873773 0.6501818249998905  L 16.997799345873773 8.330181811363673  Z " stroke-width="0" stroke-dasharray="0" stroke="rgba(255, 255, 255, 0)" fill="none" transform="matrix(1 0 0 1 26 125 )" class="stroke" mask="url(#Clip821)" />
  </g>
</svg>