<?xml version="1.0" encoding="utf-8"?>
<svg version="1.1" xmlns:xlink="http://www.w3.org/1999/xlink" width="16px" height="14px" xmlns="http://www.w3.org/2000/svg">
  <defs>
    <pattern id="BGPattern" patternUnits="userSpaceOnUse" alignment="0 0" imageRepeat="None" />
    <mask fill="white" id="Clip1656">
      <path d="M 6.04 0.27100000000000013  L 9.960333328125001 0.2709999999999999  C 11.15118837793744 0.27103025058615837  12.251572478076957 0.9063559443464498  12.847 1.9376666718750002  L 14.807666671875 5.333333328125  C 15.403109326805625 6.364670253012691  15.403109326805625 7.635329746987308  14.807666671875 8.666666671875  L 12.846666671875003 12.062333328125002  C 12.251239149951958 13.093644055653549  11.150855049812439 13.728969749413842  9.96 13.729  L 6.04 13.729  C 4.849144950187562 13.728969749413842  3.748760850048044 13.093644055653552  3.153333328125 12.062333328125  L 1.1923333281250001 8.666666671875  C 0.5968906731943743 7.635329746987308  0.5968906731943745 6.36467025301269  1.192333328125 5.333333328124999  L 3.153333328125 1.9376666718750004  C 3.748760850048044 0.9063559443464497  4.849144950187561 0.2710302505861586  6.04 0.27100000000000013  Z M 9.960333328125 1.6043333281249996  L 6.04 1.6043333281249996  C 5.325486972046296 1.6043514795930598  4.665256513861572 1.9855468942493664  4.308 2.6043333281249996  L 2.346666671875 6  C 1.9894010819668366 6.618802153517006  1.9894010819668366 7.381197846482995  2.346666671875 8  L 4.307333328125 11.395666671875  C 4.664589841986572 12.014453105750633  5.324820300171296 12.39564852040694  6.039333328125 12.395666671875  L 9.96 12.395666671875  C 10.674513027953706 12.39564852040694  11.334743486138427 12.014453105750635  11.692 11.395666671875  L 13.653333328125 8  C 14.010598918033162 7.381197846482995  14.010598918033162 6.618802153517006  13.653333328125 6  L 11.692666671875 2.604333328125  C 11.335410158013428 1.9855468942493677  10.675179699828703 1.6043514795930602  9.960666671875 1.604333328125  Z M 7.877333328125002 4.666666671875002  L 8.122666671875 4.666666671875  C 8.603000000000002 4.666666671875  8.964666671875001 4.744666671875001  9.299000000000001 4.9233333281250005  C 9.629893793723319 5.099197881213155  9.900610657917888 5.370030836885387  10.076333328125001 5.7010000000000005  C 10.255333328125001 6.035333328125001  10.333333328125 6.397  10.333333328125 6.877333328125  L 10.333333328125 7.122666671875001  C 10.333333328125 7.6030000000000015  10.255333328125001 7.964666671875001  10.076666671875001 8.299000000000001  C 9.900802118786848 8.629893793723319  9.629969163114616 8.900610657917888  9.299000000000001 9.076333328125001  C 8.964666671875001 9.255333328125001  8.603000000000002 9.333333328125  8.122666671875 9.333333328125  L 7.877333328125001 9.333333328125  C 7.397000000000001 9.333333328125  7.0353333281250015 9.255333328125001  6.701000000000001 9.076666671875001  C 6.370106206276683 8.900802118786846  6.099389342082116 8.629969163114616  5.923666671875002 8.299000000000001  C 5.7446666718750015 7.964666671875001  5.666666671875002 7.6030000000000015  5.666666671875002 7.122666671875001  L 5.666666671875002 6.877333328125001  C 5.666666671875002 6.397000000000001  5.744666671875002 6.0353333281250015  5.923333328125002 5.701000000000001  C 6.099197881213158 5.370106206276683  6.3700308368853875 5.099389342082117  6.701000000000002 4.923666671875002  C 7.035333328125002 4.7446666718750015  7.397000000000002 4.666666671875002  7.877333328125002 4.666666671875002  Z M 8.67 6.099333328125001  C 8.544333328125 6.032000000000001  8.396666671875 6.000000000000001  8.122666671875 6  L 7.877333328125001 6  C 7.6036666562500015 6  7.455666656250001 6.032  7.330000000000001 6.099333328125  C 7.228666671875001 6.153333328125  7.153333328125001 6.22866665625  7.099333328125001 6.33  C 7.032000000000001 6.455666671875  7.000000000000001 6.603333328125  7.000000000000001 6.877333328125  L 7.000000000000001 7.122666671875001  C 7.000000000000001 7.396333343750001  7.032000000000001 7.544333343750001  7.099333328125001 7.67  C 7.153333328125001 7.771333328124999  7.228666656250001 7.846666671874999  7.330000000000001 7.900666671874999  C 7.455666671875001 7.968  7.603333328125001 8  7.877333328125001 8  L 8.122666671875 8  C 8.396333343750001 8  8.54433334375 7.968  8.67 7.900666671874999  C 8.771333328125 7.846666671874999  8.846666671874999 7.771333343749999  8.900666671875 7.67  C 8.968 7.544333328124999  9 7.396666671875001  9 7.122666671875001  L 9 6.877333328125001  C 9 6.6036666562500015  8.968 6.455666656250001  8.900666671875 6.330000000000001  C 8.84913194843997 6.231363702337099  8.768636297662901 6.15086805156003  8.67 6.099333328125001  Z " fill-rule="evenodd" />
    </mask>
  </defs>
  <g transform="matrix(1 0 0 1 -16 -17 )">
    <path d="M 6.04 0.27100000000000013  L 9.960333328125001 0.2709999999999999  C 11.15118837793744 0.27103025058615837  12.251572478076957 0.9063559443464498  12.847 1.9376666718750002  L 14.807666671875 5.333333328125  C 15.403109326805625 6.364670253012691  15.403109326805625 7.635329746987308  14.807666671875 8.666666671875  L 12.846666671875003 12.062333328125002  C 12.251239149951958 13.093644055653549  11.150855049812439 13.728969749413842  9.96 13.729  L 6.04 13.729  C 4.849144950187562 13.728969749413842  3.748760850048044 13.093644055653552  3.153333328125 12.062333328125  L 1.1923333281250001 8.666666671875  C 0.5968906731943743 7.635329746987308  0.5968906731943745 6.36467025301269  1.192333328125 5.333333328124999  L 3.153333328125 1.9376666718750004  C 3.748760850048044 0.9063559443464497  4.849144950187561 0.2710302505861586  6.04 0.27100000000000013  Z M 9.960333328125 1.6043333281249996  L 6.04 1.6043333281249996  C 5.325486972046296 1.6043514795930598  4.665256513861572 1.9855468942493664  4.308 2.6043333281249996  L 2.346666671875 6  C 1.9894010819668366 6.618802153517006  1.9894010819668366 7.381197846482995  2.346666671875 8  L 4.307333328125 11.395666671875  C 4.664589841986572 12.014453105750633  5.324820300171296 12.39564852040694  6.039333328125 12.395666671875  L 9.96 12.395666671875  C 10.674513027953706 12.39564852040694  11.334743486138427 12.014453105750635  11.692 11.395666671875  L 13.653333328125 8  C 14.010598918033162 7.381197846482995  14.010598918033162 6.618802153517006  13.653333328125 6  L 11.692666671875 2.604333328125  C 11.335410158013428 1.9855468942493677  10.675179699828703 1.6043514795930602  9.960666671875 1.604333328125  Z M 7.877333328125002 4.666666671875002  L 8.122666671875 4.666666671875  C 8.603000000000002 4.666666671875  8.964666671875001 4.744666671875001  9.299000000000001 4.9233333281250005  C 9.629893793723319 5.099197881213155  9.900610657917888 5.370030836885387  10.076333328125001 5.7010000000000005  C 10.255333328125001 6.035333328125001  10.333333328125 6.397  10.333333328125 6.877333328125  L 10.333333328125 7.122666671875001  C 10.333333328125 7.6030000000000015  10.255333328125001 7.964666671875001  10.076666671875001 8.299000000000001  C 9.900802118786848 8.629893793723319  9.629969163114616 8.900610657917888  9.299000000000001 9.076333328125001  C 8.964666671875001 9.255333328125001  8.603000000000002 9.333333328125  8.122666671875 9.333333328125  L 7.877333328125001 9.333333328125  C 7.397000000000001 9.333333328125  7.0353333281250015 9.255333328125001  6.701000000000001 9.076666671875001  C 6.370106206276683 8.900802118786846  6.099389342082116 8.629969163114616  5.923666671875002 8.299000000000001  C 5.7446666718750015 7.964666671875001  5.666666671875002 7.6030000000000015  5.666666671875002 7.122666671875001  L 5.666666671875002 6.877333328125001  C 5.666666671875002 6.397000000000001  5.744666671875002 6.0353333281250015  5.923333328125002 5.701000000000001  C 6.099197881213158 5.370106206276683  6.3700308368853875 5.099389342082117  6.701000000000002 4.923666671875002  C 7.035333328125002 4.7446666718750015  7.397000000000002 4.666666671875002  7.877333328125002 4.666666671875002  Z M 8.67 6.099333328125001  C 8.544333328125 6.032000000000001  8.396666671875 6.000000000000001  8.122666671875 6  L 7.877333328125001 6  C 7.6036666562500015 6  7.455666656250001 6.032  7.330000000000001 6.099333328125  C 7.228666671875001 6.153333328125  7.153333328125001 6.22866665625  7.099333328125001 6.33  C 7.032000000000001 6.455666671875  7.000000000000001 6.603333328125  7.000000000000001 6.877333328125  L 7.000000000000001 7.122666671875001  C 7.000000000000001 7.396333343750001  7.032000000000001 7.544333343750001  7.099333328125001 7.67  C 7.153333328125001 7.771333328124999  7.228666656250001 7.846666671874999  7.330000000000001 7.900666671874999  C 7.455666671875001 7.968  7.603333328125001 8  7.877333328125001 8  L 8.122666671875 8  C 8.396333343750001 8  8.54433334375 7.968  8.67 7.900666671874999  C 8.771333328125 7.846666671874999  8.846666671874999 7.771333343749999  8.900666671875 7.67  C 8.968 7.544333328124999  9 7.396666671875001  9 7.122666671875001  L 9 6.877333328125001  C 9 6.6036666562500015  8.968 6.455666656250001  8.900666671875 6.330000000000001  C 8.84913194843997 6.231363702337099  8.768636297662901 6.15086805156003  8.67 6.099333328125001  Z " fill-rule="nonzero" fill="rgba(81, 81, 81, 1)" stroke="none" transform="matrix(1 0 0 1 16 17 )" class="fill" />
    <path d="M 6.04 0.27100000000000013  L 9.960333328125001 0.2709999999999999  C 11.15118837793744 0.27103025058615837  12.251572478076957 0.9063559443464498  12.847 1.9376666718750002  L 14.807666671875 5.333333328125  C 15.403109326805625 6.364670253012691  15.403109326805625 7.635329746987308  14.807666671875 8.666666671875  L 12.846666671875003 12.062333328125002  C 12.251239149951958 13.093644055653549  11.150855049812439 13.728969749413842  9.96 13.729  L 6.04 13.729  C 4.849144950187562 13.728969749413842  3.748760850048044 13.093644055653552  3.153333328125 12.062333328125  L 1.1923333281250001 8.666666671875  C 0.5968906731943743 7.635329746987308  0.5968906731943745 6.36467025301269  1.192333328125 5.333333328124999  L 3.153333328125 1.9376666718750004  C 3.748760850048044 0.9063559443464497  4.849144950187561 0.2710302505861586  6.04 0.27100000000000013  Z " stroke-width="0" stroke-dasharray="0" stroke="rgba(255, 255, 255, 0)" fill="none" transform="matrix(1 0 0 1 16 17 )" class="stroke" mask="url(#Clip1656)" />
    <path d="M 9.960333328125 1.6043333281249996  L 6.04 1.6043333281249996  C 5.325486972046296 1.6043514795930598  4.665256513861572 1.9855468942493664  4.308 2.6043333281249996  L 2.346666671875 6  C 1.9894010819668366 6.618802153517006  1.9894010819668366 7.381197846482995  2.346666671875 8  L 4.307333328125 11.395666671875  C 4.664589841986572 12.014453105750633  5.324820300171296 12.39564852040694  6.039333328125 12.395666671875  L 9.96 12.395666671875  C 10.674513027953706 12.39564852040694  11.334743486138427 12.014453105750635  11.692 11.395666671875  L 13.653333328125 8  C 14.010598918033162 7.381197846482995  14.010598918033162 6.618802153517006  13.653333328125 6  L 11.692666671875 2.604333328125  C 11.335410158013428 1.9855468942493677  10.675179699828703 1.6043514795930602  9.960666671875 1.604333328125  Z " stroke-width="0" stroke-dasharray="0" stroke="rgba(255, 255, 255, 0)" fill="none" transform="matrix(1 0 0 1 16 17 )" class="stroke" mask="url(#Clip1656)" />
    <path d="M 7.877333328125002 4.666666671875002  L 8.122666671875 4.666666671875  C 8.603000000000002 4.666666671875  8.964666671875001 4.744666671875001  9.299000000000001 4.9233333281250005  C 9.629893793723319 5.099197881213155  9.900610657917888 5.370030836885387  10.076333328125001 5.7010000000000005  C 10.255333328125001 6.035333328125001  10.333333328125 6.397  10.333333328125 6.877333328125  L 10.333333328125 7.122666671875001  C 10.333333328125 7.6030000000000015  10.255333328125001 7.964666671875001  10.076666671875001 8.299000000000001  C 9.900802118786848 8.629893793723319  9.629969163114616 8.900610657917888  9.299000000000001 9.076333328125001  C 8.964666671875001 9.255333328125001  8.603000000000002 9.333333328125  8.122666671875 9.333333328125  L 7.877333328125001 9.333333328125  C 7.397000000000001 9.333333328125  7.0353333281250015 9.255333328125001  6.701000000000001 9.076666671875001  C 6.370106206276683 8.900802118786846  6.099389342082116 8.629969163114616  5.923666671875002 8.299000000000001  C 5.7446666718750015 7.964666671875001  5.666666671875002 7.6030000000000015  5.666666671875002 7.122666671875001  L 5.666666671875002 6.877333328125001  C 5.666666671875002 6.397000000000001  5.744666671875002 6.0353333281250015  5.923333328125002 5.701000000000001  C 6.099197881213158 5.370106206276683  6.3700308368853875 5.099389342082117  6.701000000000002 4.923666671875002  C 7.035333328125002 4.7446666718750015  7.397000000000002 4.666666671875002  7.877333328125002 4.666666671875002  Z " stroke-width="0" stroke-dasharray="0" stroke="rgba(255, 255, 255, 0)" fill="none" transform="matrix(1 0 0 1 16 17 )" class="stroke" mask="url(#Clip1656)" />
    <path d="M 8.67 6.099333328125001  C 8.544333328125 6.032000000000001  8.396666671875 6.000000000000001  8.122666671875 6  L 7.877333328125001 6  C 7.6036666562500015 6  7.455666656250001 6.032  7.330000000000001 6.099333328125  C 7.228666671875001 6.153333328125  7.153333328125001 6.22866665625  7.099333328125001 6.33  C 7.032000000000001 6.455666671875  7.000000000000001 6.603333328125  7.000000000000001 6.877333328125  L 7.000000000000001 7.122666671875001  C 7.000000000000001 7.396333343750001  7.032000000000001 7.544333343750001  7.099333328125001 7.67  C 7.153333328125001 7.771333328124999  7.228666656250001 7.846666671874999  7.330000000000001 7.900666671874999  C 7.455666671875001 7.968  7.603333328125001 8  7.877333328125001 8  L 8.122666671875 8  C 8.396333343750001 8  8.54433334375 7.968  8.67 7.900666671874999  C 8.771333328125 7.846666671874999  8.846666671874999 7.771333343749999  8.900666671875 7.67  C 8.968 7.544333328124999  9 7.396666671875001  9 7.122666671875001  L 9 6.877333328125001  C 9 6.6036666562500015  8.968 6.455666656250001  8.900666671875 6.330000000000001  C 8.84913194843997 6.231363702337099  8.768636297662901 6.15086805156003  8.67 6.099333328125001  Z " stroke-width="0" stroke-dasharray="0" stroke="rgba(255, 255, 255, 0)" fill="none" transform="matrix(1 0 0 1 16 17 )" class="stroke" mask="url(#Clip1656)" />
  </g>
</svg>