<?xml version="1.0" encoding="utf-8"?>
<svg version="1.1" xmlns:xlink="http://www.w3.org/1999/xlink" width="35px" height="34px" xmlns="http://www.w3.org/2000/svg">
  <defs>
    <pattern id="BGPattern" patternUnits="userSpaceOnUse" alignment="0 0" imageRepeat="None" />
    <mask fill="white" id="Clip1147">
      <path d="M 13.984374999999998 19.239405405405364  L 14.755317982456177 19.104972972972973  C 17.19429824561405 18.67967567567564  19.362088815789434 17.56618918918923  20.909978070175384 15.983081081081082  C 22.437335526315792 14.42100000000005  23.27302631578948 12.49548648648647  23.27302631578948 10.472972972973025  C 23.27302631578948 5.661135135135169  18.50838815789473 1.6486486486486456  12.513706140350905 1.6486486486486456  C 6.519024122806968 1.6486486486486456  1.7543859649123306 5.661135135135169  1.7543859649123306 10.472972972973025  C 1.7543859649123306 12.491243243243275  2.58654057017543 14.412918918918876  4.107976973684231 15.973405405405401  C 5.649588815789457 17.55459459459462  7.80926535087724 18.669189189189183  10.24078947368423 19.099459459459467  L 11.00882675438595 19.235378378378414  L 12.497752192982489 21.876891891891887  L 13.984402412280703 19.239405405405364  Z M 11.29969846491224 23.089702702702652  L 9.950246710526358 20.69559459459458  C 4.329660087719276 19.701000000000022  0.10964912280701355 15.501999999999953  0.10964912280701355 10.472972972973025  C 0.10964912280701355 4.703837837837796  5.663130482456154 0.027027027026974793  12.513706140350905 0.027027027026974793  C 19.364281798245656 0.027027027026974793  24.917763157894683 4.703837837837796  24.917763157894683 10.472972972973025  C 24.917763157894683 15.512567567567544  20.680016447368416 19.718648648648696  15.041748903508733 20.701810810810798  L 13.695805921052626 23.089702702702652  C 13.571535745565368 23.310178728553865  13.387160442886284 23.491962810762857  13.163541666666676 23.6144864864865  C 12.501891447368394 23.97702702702702  11.667406798245565 23.74205405405405  11.29969846491224 23.089702702702652  Z " fill-rule="evenodd" />
    </mask>
  </defs>
  <g transform="matrix(1 0 0 1 -593 -12 )">
    <path d="M 13.984374999999998 19.239405405405364  L 14.755317982456177 19.104972972972973  C 17.19429824561405 18.67967567567564  19.362088815789434 17.56618918918923  20.909978070175384 15.983081081081082  C 22.437335526315792 14.42100000000005  23.27302631578948 12.49548648648647  23.27302631578948 10.472972972973025  C 23.27302631578948 5.661135135135169  18.50838815789473 1.6486486486486456  12.513706140350905 1.6486486486486456  C 6.519024122806968 1.6486486486486456  1.7543859649123306 5.661135135135169  1.7543859649123306 10.472972972973025  C 1.7543859649123306 12.491243243243275  2.58654057017543 14.412918918918876  4.107976973684231 15.973405405405401  C 5.649588815789457 17.55459459459462  7.80926535087724 18.669189189189183  10.24078947368423 19.099459459459467  L 11.00882675438595 19.235378378378414  L 12.497752192982489 21.876891891891887  L 13.984402412280703 19.239405405405364  Z M 11.29969846491224 23.089702702702652  L 9.950246710526358 20.69559459459458  C 4.329660087719276 19.701000000000022  0.10964912280701355 15.501999999999953  0.10964912280701355 10.472972972973025  C 0.10964912280701355 4.703837837837796  5.663130482456154 0.027027027026974793  12.513706140350905 0.027027027026974793  C 19.364281798245656 0.027027027026974793  24.917763157894683 4.703837837837796  24.917763157894683 10.472972972973025  C 24.917763157894683 15.512567567567544  20.680016447368416 19.718648648648696  15.041748903508733 20.701810810810798  L 13.695805921052626 23.089702702702652  C 13.571535745565368 23.310178728553865  13.387160442886284 23.491962810762857  13.163541666666676 23.6144864864865  C 12.501891447368394 23.97702702702702  11.667406798245565 23.74205405405405  11.29969846491224 23.089702702702652  Z " fill-rule="nonzero" fill="rgba(255, 204, 102, 1)" stroke="none" transform="matrix(1 0 0 1 598 17 )" class="fill" />
    <path d="M 13.984374999999998 19.239405405405364  L 14.755317982456177 19.104972972972973  C 17.19429824561405 18.67967567567564  19.362088815789434 17.56618918918923  20.909978070175384 15.983081081081082  C 22.437335526315792 14.42100000000005  23.27302631578948 12.49548648648647  23.27302631578948 10.472972972973025  C 23.27302631578948 5.661135135135169  18.50838815789473 1.6486486486486456  12.513706140350905 1.6486486486486456  C 6.519024122806968 1.6486486486486456  1.7543859649123306 5.661135135135169  1.7543859649123306 10.472972972973025  C 1.7543859649123306 12.491243243243275  2.58654057017543 14.412918918918876  4.107976973684231 15.973405405405401  C 5.649588815789457 17.55459459459462  7.80926535087724 18.669189189189183  10.24078947368423 19.099459459459467  L 11.00882675438595 19.235378378378414  L 12.497752192982489 21.876891891891887  L 13.984402412280703 19.239405405405364  Z " stroke-width="0" stroke-dasharray="0" stroke="rgba(255, 255, 255, 0)" fill="none" transform="matrix(1 0 0 1 598 17 )" class="stroke" mask="url(#Clip1147)" />
    <path d="M 11.29969846491224 23.089702702702652  L 9.950246710526358 20.69559459459458  C 4.329660087719276 19.701000000000022  0.10964912280701355 15.501999999999953  0.10964912280701355 10.472972972973025  C 0.10964912280701355 4.703837837837796  5.663130482456154 0.027027027026974793  12.513706140350905 0.027027027026974793  C 19.364281798245656 0.027027027026974793  24.917763157894683 4.703837837837796  24.917763157894683 10.472972972973025  C 24.917763157894683 15.512567567567544  20.680016447368416 19.718648648648696  15.041748903508733 20.701810810810798  L 13.695805921052626 23.089702702702652  C 13.571535745565368 23.310178728553865  13.387160442886284 23.491962810762857  13.163541666666676 23.6144864864865  C 12.501891447368394 23.97702702702702  11.667406798245565 23.74205405405405  11.29969846491224 23.089702702702652  Z " stroke-width="0" stroke-dasharray="0" stroke="rgba(255, 255, 255, 0)" fill="none" transform="matrix(1 0 0 1 598 17 )" class="stroke" mask="url(#Clip1147)" />
  </g>
  <style>svg { filter: drop-shadow(0px 0px 2.5px rgba(255, 255, 255, 0.3137254901960784)); }</style>
</svg>