<?xml version="1.0" encoding="utf-8"?>
<svg version="1.1" xmlns:xlink="http://www.w3.org/1999/xlink" width="15px" height="12px" xmlns="http://www.w3.org/2000/svg">
  <defs>
    <pattern id="BGPattern" patternUnits="userSpaceOnUse" alignment="0 0" imageRepeat="None" />
    <mask fill="white" id="Clip1143">
      <path d="M 7.608695645380436 5.422222229166667  L 13.434782608695652 1  L 1.7826087024456523 1  L 7.608695645380436 5.422222229166667  Z M 14.130434775815218 10.666666666666666  L 14.130434775815218 1.4222222291666675  L 7.695652173913044 6.488888895833334  L 7.695652173913044 6.577777770833334  L 7.695652173913044 6.488888895833334  L 1.0869565149456524 1.4222222291666662  L 1.0869565149456524 10.666666666666666  L 14.130434775815218 10.666666666666666  Z M 0.21739131114130414 0  L 15 0  L 15 11.555555562499999  L 0.21739131114130414 11.555555562499999  L 0.21739131114130414 0  Z " fill-rule="evenodd" />
    </mask>
  </defs>
  <g transform="matrix(1 0 0 1 -393 -23 )">
    <path d="M 7.608695645380436 5.422222229166667  L 13.434782608695652 1  L 1.7826087024456523 1  L 7.608695645380436 5.422222229166667  Z M 14.130434775815218 10.666666666666666  L 14.130434775815218 1.4222222291666675  L 7.695652173913044 6.488888895833334  L 7.695652173913044 6.577777770833334  L 7.695652173913044 6.488888895833334  L 1.0869565149456524 1.4222222291666662  L 1.0869565149456524 10.666666666666666  L 14.130434775815218 10.666666666666666  Z M 0.21739131114130414 0  L 15 0  L 15 11.555555562499999  L 0.21739131114130414 11.555555562499999  L 0.21739131114130414 0  Z " fill-rule="nonzero" fill="rgba(217, 37, 80, 1)" stroke="none" transform="matrix(1 0 0 1 393 23 )" class="fill" />
    <path d="M 7.608695645380436 5.422222229166667  L 13.434782608695652 1  L 1.7826087024456523 1  L 7.608695645380436 5.422222229166667  Z " stroke-width="0" stroke-dasharray="0" stroke="rgba(255, 255, 255, 0)" fill="none" transform="matrix(1 0 0 1 393 23 )" class="stroke" mask="url(#Clip1143)" />
    <path d="M 14.130434775815218 10.666666666666666  L 14.130434775815218 1.4222222291666675  L 7.695652173913044 6.488888895833334  L 7.695652173913044 6.577777770833334  L 7.695652173913044 6.488888895833334  L 1.0869565149456524 1.4222222291666662  L 1.0869565149456524 10.666666666666666  L 14.130434775815218 10.666666666666666  Z " stroke-width="0" stroke-dasharray="0" stroke="rgba(255, 255, 255, 0)" fill="none" transform="matrix(1 0 0 1 393 23 )" class="stroke" mask="url(#Clip1143)" />
    <path d="M 0.21739131114130414 0  L 15 0  L 15 11.555555562499999  L 0.21739131114130414 11.555555562499999  L 0.21739131114130414 0  Z " stroke-width="0" stroke-dasharray="0" stroke="rgba(255, 255, 255, 0)" fill="none" transform="matrix(1 0 0 1 393 23 )" class="stroke" mask="url(#Clip1143)" />
  </g>
</svg>