<?xml version="1.0" encoding="utf-8"?>
<svg version="1.1" xmlns:xlink="http://www.w3.org/1999/xlink" width="21px" height="20px" xmlns="http://www.w3.org/2000/svg">
  <defs>
    <pattern id="BGPattern" patternUnits="userSpaceOnUse" alignment="0 0" imageRepeat="None" />
    <mask fill="white" id="Clip849">
      <path d="M 19.835824018691586 8.964306093457944  C 20.06094685981308 9.314497177570093  20.06094685981308 9.764742878504673  19.885851308411215 10.114933962616824  C 19.710755757009345 10.465125046728971  19.335551028037383 10.690247906542057  18.910318990654204 10.690247906542057  L 17.984813943925236 10.690247906542057  L 17.984813943925236 17.5690014953271  C 17.984813943925236 18.669602074766352  17.084322560747665 19.57009345794392  15.983722000000002 19.57009345794392  L 4.227306747663555 19.57009345794392  C 3.1267061682243016 19.57009345794392  2.226214785046732 18.669602074766352  2.226214803738321 17.5690014953271  L 2.226214803738321 10.690247906542057  L 1.1006005794392524 10.690247906542057  C 0.5002729906542056 10.690247906542057  0 10.189974915887852  0 9.589647327102805  C 0 9.36452448598131  0.07504095327102803 9.164415289719626  0.17509555140186914 8.989319738317757  L 9.104968392523364 0.9099109719626175  C 9.455159476635513 0.40963798130841195  10.130528018691589 0.2845697383177578  10.630801009345793 0.6097471775700942  C 10.75586925233645 0.6847881308411221  10.855923850467288 0.7848427289719633  10.930964803738316 0.9099109719626175  L 19.835824018691586 8.964306093457944  Z " fill-rule="evenodd" />
    </mask>
  </defs>
  <g transform="matrix(1 0 0 1 -247 -20 )">
    <path d="M 19.835824018691586 8.964306093457944  C 20.06094685981308 9.314497177570093  20.06094685981308 9.764742878504673  19.885851308411215 10.114933962616824  C 19.710755757009345 10.465125046728971  19.335551028037383 10.690247906542057  18.910318990654204 10.690247906542057  L 17.984813943925236 10.690247906542057  L 17.984813943925236 17.5690014953271  C 17.984813943925236 18.669602074766352  17.084322560747665 19.57009345794392  15.983722000000002 19.57009345794392  L 4.227306747663555 19.57009345794392  C 3.1267061682243016 19.57009345794392  2.226214785046732 18.669602074766352  2.226214803738321 17.5690014953271  L 2.226214803738321 10.690247906542057  L 1.1006005794392524 10.690247906542057  C 0.5002729906542056 10.690247906542057  0 10.189974915887852  0 9.589647327102805  C 0 9.36452448598131  0.07504095327102803 9.164415289719626  0.17509555140186914 8.989319738317757  L 9.104968392523364 0.9099109719626175  C 9.455159476635513 0.40963798130841195  10.130528018691589 0.2845697383177578  10.630801009345793 0.6097471775700942  C 10.75586925233645 0.6847881308411221  10.855923850467288 0.7848427289719633  10.930964803738316 0.9099109719626175  L 19.835824018691586 8.964306093457944  Z " fill-rule="nonzero" fill="rgba(251, 67, 49, 1)" stroke="none" transform="matrix(1 0 0 1 247 20 )" class="fill" />
    <path d="M 19.835824018691586 8.964306093457944  C 20.06094685981308 9.314497177570093  20.06094685981308 9.764742878504673  19.885851308411215 10.114933962616824  C 19.710755757009345 10.465125046728971  19.335551028037383 10.690247906542057  18.910318990654204 10.690247906542057  L 17.984813943925236 10.690247906542057  L 17.984813943925236 17.5690014953271  C 17.984813943925236 18.669602074766352  17.084322560747665 19.57009345794392  15.983722000000002 19.57009345794392  L 4.227306747663555 19.57009345794392  C 3.1267061682243016 19.57009345794392  2.226214785046732 18.669602074766352  2.226214803738321 17.5690014953271  L 2.226214803738321 10.690247906542057  L 1.1006005794392524 10.690247906542057  C 0.5002729906542056 10.690247906542057  0 10.189974915887852  0 9.589647327102805  C 0 9.36452448598131  0.07504095327102803 9.164415289719626  0.17509555140186914 8.989319738317757  L 9.104968392523364 0.9099109719626175  C 9.455159476635513 0.40963798130841195  10.130528018691589 0.2845697383177578  10.630801009345793 0.6097471775700942  C 10.75586925233645 0.6847881308411221  10.855923850467288 0.7848427289719633  10.930964803738316 0.9099109719626175  L 19.835824018691586 8.964306093457944  Z " stroke-width="0" stroke-dasharray="0" stroke="rgba(255, 255, 255, 0)" fill="none" transform="matrix(1 0 0 1 247 20 )" class="stroke" mask="url(#Clip849)" />
  </g>
</svg>