<?xml version="1.0" encoding="utf-8"?>
<svg version="1.1" xmlns:xlink="http://www.w3.org/1999/xlink" width="7px" height="9px" xmlns="http://www.w3.org/2000/svg">
  <defs>
    <pattern id="BGPattern" patternUnits="userSpaceOnUse" alignment="0 0" imageRepeat="None" />
    <mask fill="white" id="Clip330">
      <path d="M 6.779296875 4.374755859375  C 6.77734375 2.304931640624993  5.28515625 0.6240234374999929  3.4453125 0.6240234375  C 1.603515625 0.6240234375  0.111328125 2.304931640625  0.111328125 4.374755859375  C 0.111328125 6.44677734375  1.60546875 8.12548828125  3.4453125 8.12548828125  C 5.28515625 8.12548828125  6.779296875 6.44677734375  6.779296875 4.374755859375  Z M 5.474609375 4.379150390625  C 5.474609375 4.647216796875  5.279296875 4.866943359375  5.0390625 4.866943359375  L 3.87890625 4.866943359375  L 3.87890625 6.172119140625  C 3.87890625 6.4423828125  3.68359375 6.662109375  3.443359375 6.662109375  C 3.203125 6.662109375  3.0078125 6.4423828125  3.0078125 6.172119140625  L 3.0078125 4.866943359375  L 1.84765625 4.866943359375  C 1.607421875 4.866943359375  1.412109375 4.647216796875  1.412109375 4.376953125  C 1.412109375 4.106689453125  1.607421875 3.886962890625  1.84765625 3.886962890625  L 3.0078125 3.886962890625  L 3.0078125 2.581787109375  C 3.0078125 2.311523437500007  3.203125 2.091796875000007  3.443359375 2.091796875000007  C 3.68359375 2.091796875000007  3.87890625 2.311523437500007  3.87890625 2.581787109375  L 3.87890625 3.88916015625  L 5.0390625 3.88916015625  C 5.279296875 3.88916015625  5.474609375 4.10888671875  5.474609375 4.379150390625  Z " fill-rule="evenodd" />
    </mask>
  </defs>
  <g transform="matrix(1 0 0 1 -309 -33 )">
    <path d="M 6.779296875 4.374755859375  C 6.77734375 2.304931640624993  5.28515625 0.6240234374999929  3.4453125 0.6240234375  C 1.603515625 0.6240234375  0.111328125 2.304931640625  0.111328125 4.374755859375  C 0.111328125 6.44677734375  1.60546875 8.12548828125  3.4453125 8.12548828125  C 5.28515625 8.12548828125  6.779296875 6.44677734375  6.779296875 4.374755859375  Z M 5.474609375 4.379150390625  C 5.474609375 4.647216796875  5.279296875 4.866943359375  5.0390625 4.866943359375  L 3.87890625 4.866943359375  L 3.87890625 6.172119140625  C 3.87890625 6.4423828125  3.68359375 6.662109375  3.443359375 6.662109375  C 3.203125 6.662109375  3.0078125 6.4423828125  3.0078125 6.172119140625  L 3.0078125 4.866943359375  L 1.84765625 4.866943359375  C 1.607421875 4.866943359375  1.412109375 4.647216796875  1.412109375 4.376953125  C 1.412109375 4.106689453125  1.607421875 3.886962890625  1.84765625 3.886962890625  L 3.0078125 3.886962890625  L 3.0078125 2.581787109375  C 3.0078125 2.311523437500007  3.203125 2.091796875000007  3.443359375 2.091796875000007  C 3.68359375 2.091796875000007  3.87890625 2.311523437500007  3.87890625 2.581787109375  L 3.87890625 3.88916015625  L 5.0390625 3.88916015625  C 5.279296875 3.88916015625  5.474609375 4.10888671875  5.474609375 4.379150390625  Z " fill-rule="nonzero" fill="rgba(250, 173, 30, 1)" stroke="none" transform="matrix(1 0 0 1 309 33 )" class="fill" />
    <path d="M 6.779296875 4.374755859375  C 6.77734375 2.304931640624993  5.28515625 0.6240234374999929  3.4453125 0.6240234375  C 1.603515625 0.6240234375  0.111328125 2.304931640625  0.111328125 4.374755859375  C 0.111328125 6.44677734375  1.60546875 8.12548828125  3.4453125 8.12548828125  C 5.28515625 8.12548828125  6.779296875 6.44677734375  6.779296875 4.374755859375  Z " stroke-width="0" stroke-dasharray="0" stroke="rgba(255, 255, 255, 0)" fill="none" transform="matrix(1 0 0 1 309 33 )" class="stroke" mask="url(#Clip330)" />
    <path d="M 5.474609375 4.379150390625  C 5.474609375 4.647216796875  5.279296875 4.866943359375  5.0390625 4.866943359375  L 3.87890625 4.866943359375  L 3.87890625 6.172119140625  C 3.87890625 6.4423828125  3.68359375 6.662109375  3.443359375 6.662109375  C 3.203125 6.662109375  3.0078125 6.4423828125  3.0078125 6.172119140625  L 3.0078125 4.866943359375  L 1.84765625 4.866943359375  C 1.607421875 4.866943359375  1.412109375 4.647216796875  1.412109375 4.376953125  C 1.412109375 4.106689453125  1.607421875 3.886962890625  1.84765625 3.886962890625  L 3.0078125 3.886962890625  L 3.0078125 2.581787109375  C 3.0078125 2.311523437500007  3.203125 2.091796875000007  3.443359375 2.091796875000007  C 3.68359375 2.091796875000007  3.87890625 2.311523437500007  3.87890625 2.581787109375  L 3.87890625 3.88916015625  L 5.0390625 3.88916015625  C 5.279296875 3.88916015625  5.474609375 4.10888671875  5.474609375 4.379150390625  Z " stroke-width="0" stroke-dasharray="0" stroke="rgba(255, 255, 255, 0)" fill="none" transform="matrix(1 0 0 1 309 33 )" class="stroke" mask="url(#Clip330)" />
  </g>
</svg>