<?xml version="1.0" encoding="utf-8"?>
<svg version="1.1" xmlns:xlink="http://www.w3.org/1999/xlink" width="19px" height="18px" xmlns="http://www.w3.org/2000/svg">
  <defs>
    <pattern id="BGPattern" patternUnits="userSpaceOnUse" alignment="0 0" imageRepeat="None" />
    <mask fill="white" id="Clip852">
      <path d="M 12.965087890625 17.39765625000001  C 11.239501953125 16.692187499999996  10.02880859375 14.990625000000009  10.02880859375 12.996093750000007  C 10.02880859375 10.368750000000006  12.139404296875 8.240624999999998  14.746337890625 8.240624999999998  C 16.0428466796875 8.240624999999998  17.214111328125 8.765625  18.0653076171875 9.614062500000003  L 18.0653076171875 2.254687500000003  C 18.0653076171875 1.4765625000000036  17.4390869140625 0.846093750000005  16.666748046875 0.846093750000005  L 14.570068359375 0.846093750000005  L 14.570068359375 1.9031250000000028  C 14.570068359375 2.875781250000003  13.7884521484375 3.6632812500000043  12.8236083984375 3.6632812500000043  C 11.8587646484375 3.6632812500000043  11.0771484375 2.875781250000003  11.0771484375 1.9031250000000028  L 11.0771484375 0.846093750000005  L 7.5819091796875 0.846093750000005  L 7.5819091796875 1.9031250000000028  C 7.5819091796875 2.875781250000003  6.80029296875 3.6632812500000043  5.83544921875 3.6632812500000043  C 4.87060546875 3.6632812500000043  4.0889892578125 2.875781250000003  4.0889892578125 1.9031250000000028  L 4.0889892578125 0.846093750000005  L 1.9923095703125 0.846093750000005  C 1.219970703125 0.846093750000005  0.59375 1.4765625000000036  0.59375 2.254687500000003  L 0.59375 15.989062499999996  C 0.59375 16.767187500000006  1.219970703125 17.39765625000001  1.9923095703125 17.39765625000001  L 12.965087890625 17.39765625000001  Z M 5.6104736328125 6.731250000000003  C 5.209228515625 6.733593749999997  4.8822021484375 6.435937499999994  4.8822021484375 6.065624999999997  C 4.8822021484375 5.697656249999994  5.209228515625 5.400000000000002  5.6104736328125 5.400000000000002  L 12.8955078125 5.400000000000002  C 13.2967529296875 5.400000000000002  13.623779296875 5.697656249999994  13.623779296875 6.065624999999997  C 13.623779296875 6.43359375  13.2967529296875 6.731250000000003  12.8955078125 6.731250000000003  L 5.6104736328125 6.731250000000003  Z " fill-rule="evenodd" />
    </mask>
  </defs>
  <g transform="matrix(1 0 0 1 -297 -23 )">
    <path d="M 12.965087890625 17.39765625000001  C 11.239501953125 16.692187499999996  10.02880859375 14.990625000000009  10.02880859375 12.996093750000007  C 10.02880859375 10.368750000000006  12.139404296875 8.240624999999998  14.746337890625 8.240624999999998  C 16.0428466796875 8.240624999999998  17.214111328125 8.765625  18.0653076171875 9.614062500000003  L 18.0653076171875 2.254687500000003  C 18.0653076171875 1.4765625000000036  17.4390869140625 0.846093750000005  16.666748046875 0.846093750000005  L 14.570068359375 0.846093750000005  L 14.570068359375 1.9031250000000028  C 14.570068359375 2.875781250000003  13.7884521484375 3.6632812500000043  12.8236083984375 3.6632812500000043  C 11.8587646484375 3.6632812500000043  11.0771484375 2.875781250000003  11.0771484375 1.9031250000000028  L 11.0771484375 0.846093750000005  L 7.5819091796875 0.846093750000005  L 7.5819091796875 1.9031250000000028  C 7.5819091796875 2.875781250000003  6.80029296875 3.6632812500000043  5.83544921875 3.6632812500000043  C 4.87060546875 3.6632812500000043  4.0889892578125 2.875781250000003  4.0889892578125 1.9031250000000028  L 4.0889892578125 0.846093750000005  L 1.9923095703125 0.846093750000005  C 1.219970703125 0.846093750000005  0.59375 1.4765625000000036  0.59375 2.254687500000003  L 0.59375 15.989062499999996  C 0.59375 16.767187500000006  1.219970703125 17.39765625000001  1.9923095703125 17.39765625000001  L 12.965087890625 17.39765625000001  Z M 5.6104736328125 6.731250000000003  C 5.209228515625 6.733593749999997  4.8822021484375 6.435937499999994  4.8822021484375 6.065624999999997  C 4.8822021484375 5.697656249999994  5.209228515625 5.400000000000002  5.6104736328125 5.400000000000002  L 12.8955078125 5.400000000000002  C 13.2967529296875 5.400000000000002  13.623779296875 5.697656249999994  13.623779296875 6.065624999999997  C 13.623779296875 6.43359375  13.2967529296875 6.731250000000003  12.8955078125 6.731250000000003  L 5.6104736328125 6.731250000000003  Z " fill-rule="nonzero" fill="rgba(250, 173, 30, 1)" stroke="none" transform="matrix(1 0 0 1 297 23 )" class="fill" />
    <path d="M 12.965087890625 17.39765625000001  C 11.239501953125 16.692187499999996  10.02880859375 14.990625000000009  10.02880859375 12.996093750000007  C 10.02880859375 10.368750000000006  12.139404296875 8.240624999999998  14.746337890625 8.240624999999998  C 16.0428466796875 8.240624999999998  17.214111328125 8.765625  18.0653076171875 9.614062500000003  L 18.0653076171875 2.254687500000003  C 18.0653076171875 1.4765625000000036  17.4390869140625 0.846093750000005  16.666748046875 0.846093750000005  L 14.570068359375 0.846093750000005  L 14.570068359375 1.9031250000000028  C 14.570068359375 2.875781250000003  13.7884521484375 3.6632812500000043  12.8236083984375 3.6632812500000043  C 11.8587646484375 3.6632812500000043  11.0771484375 2.875781250000003  11.0771484375 1.9031250000000028  L 11.0771484375 0.846093750000005  L 7.5819091796875 0.846093750000005  L 7.5819091796875 1.9031250000000028  C 7.5819091796875 2.875781250000003  6.80029296875 3.6632812500000043  5.83544921875 3.6632812500000043  C 4.87060546875 3.6632812500000043  4.0889892578125 2.875781250000003  4.0889892578125 1.9031250000000028  L 4.0889892578125 0.846093750000005  L 1.9923095703125 0.846093750000005  C 1.219970703125 0.846093750000005  0.59375 1.4765625000000036  0.59375 2.254687500000003  L 0.59375 15.989062499999996  C 0.59375 16.767187500000006  1.219970703125 17.39765625000001  1.9923095703125 17.39765625000001  L 12.965087890625 17.39765625000001  Z " stroke-width="0" stroke-dasharray="0" stroke="rgba(255, 255, 255, 0)" fill="none" transform="matrix(1 0 0 1 297 23 )" class="stroke" mask="url(#Clip852)" />
    <path d="M 5.6104736328125 6.731250000000003  C 5.209228515625 6.733593749999997  4.8822021484375 6.435937499999994  4.8822021484375 6.065624999999997  C 4.8822021484375 5.697656249999994  5.209228515625 5.400000000000002  5.6104736328125 5.400000000000002  L 12.8955078125 5.400000000000002  C 13.2967529296875 5.400000000000002  13.623779296875 5.697656249999994  13.623779296875 6.065624999999997  C 13.623779296875 6.43359375  13.2967529296875 6.731250000000003  12.8955078125 6.731250000000003  L 5.6104736328125 6.731250000000003  Z " stroke-width="0" stroke-dasharray="0" stroke="rgba(255, 255, 255, 0)" fill="none" transform="matrix(1 0 0 1 297 23 )" class="stroke" mask="url(#Clip852)" />
  </g>
</svg>