<?xml version="1.0" encoding="utf-8"?>
<svg version="1.1" xmlns:xlink="http://www.w3.org/1999/xlink" width="9px" height="5px" xmlns="http://www.w3.org/2000/svg">
  <defs>
    <pattern id="BGPattern" patternUnits="userSpaceOnUse" alignment="0 0" imageRepeat="None" />
    <mask fill="white" id="Clip328">
      <path d="M 0.03515625 3.4609375  C 0.03515625 4.015625  0.47900390625 4.466796875  1.0283203125 4.466796875  C 1.575439453125 4.466796875  2.021484375 4.015625  2.021484375 3.4609375  L 2.021484375 1.951171875  C 2.021484375 1.396484375  1.575439453125 0.9453125  1.0283203125 0.9453125  C 0.481201171875 0.9453125  0.03515625 1.396484375  0.03515625 1.951171875  L 0.03515625 3.4609375  Z M 6.655517578125 3.4609375  C 6.655517578125 4.015625  7.1015625 4.466796875  7.648681640625 4.466796875  C 8.19580078125 4.466796875  8.641845703125 4.015625  8.641845703125 3.4609375  L 8.641845703125 1.951171875  C 8.641845703125 1.396484375  8.19580078125 0.9453125  7.648681640625 0.9453125  C 7.1015625 0.9453125  6.655517578125 1.396484375  6.655517578125 1.951171875  L 6.655517578125 3.4609375  Z " fill-rule="evenodd" />
    </mask>
  </defs>
  <g transform="matrix(1 0 0 1 -301 -21 )">
    <path d="M 0.03515625 3.4609375  C 0.03515625 4.015625  0.47900390625 4.466796875  1.0283203125 4.466796875  C 1.575439453125 4.466796875  2.021484375 4.015625  2.021484375 3.4609375  L 2.021484375 1.951171875  C 2.021484375 1.396484375  1.575439453125 0.9453125  1.0283203125 0.9453125  C 0.481201171875 0.9453125  0.03515625 1.396484375  0.03515625 1.951171875  L 0.03515625 3.4609375  Z M 6.655517578125 3.4609375  C 6.655517578125 4.015625  7.1015625 4.466796875  7.648681640625 4.466796875  C 8.19580078125 4.466796875  8.641845703125 4.015625  8.641845703125 3.4609375  L 8.641845703125 1.951171875  C 8.641845703125 1.396484375  8.19580078125 0.9453125  7.648681640625 0.9453125  C 7.1015625 0.9453125  6.655517578125 1.396484375  6.655517578125 1.951171875  L 6.655517578125 3.4609375  Z " fill-rule="nonzero" fill="rgba(250, 173, 30, 1)" stroke="none" transform="matrix(1 0 0 1 301 21 )" class="fill" />
    <path d="M 0.03515625 3.4609375  C 0.03515625 4.015625  0.47900390625 4.466796875  1.0283203125 4.466796875  C 1.575439453125 4.466796875  2.021484375 4.015625  2.021484375 3.4609375  L 2.021484375 1.951171875  C 2.021484375 1.396484375  1.575439453125 0.9453125  1.0283203125 0.9453125  C 0.481201171875 0.9453125  0.03515625 1.396484375  0.03515625 1.951171875  L 0.03515625 3.4609375  Z " stroke-width="0" stroke-dasharray="0" stroke="rgba(255, 255, 255, 0)" fill="none" transform="matrix(1 0 0 1 301 21 )" class="stroke" mask="url(#Clip328)" />
    <path d="M 6.655517578125 3.4609375  C 6.655517578125 4.015625  7.1015625 4.466796875  7.648681640625 4.466796875  C 8.19580078125 4.466796875  8.641845703125 4.015625  8.641845703125 3.4609375  L 8.641845703125 1.951171875  C 8.641845703125 1.396484375  8.19580078125 0.9453125  7.648681640625 0.9453125  C 7.1015625 0.9453125  6.655517578125 1.396484375  6.655517578125 1.951171875  L 6.655517578125 3.4609375  Z " stroke-width="0" stroke-dasharray="0" stroke="rgba(255, 255, 255, 0)" fill="none" transform="matrix(1 0 0 1 301 21 )" class="stroke" mask="url(#Clip328)" />
  </g>
</svg>