<?xml version="1.0" encoding="utf-8"?>
<svg version="1.1" xmlns:xlink="http://www.w3.org/1999/xlink" width="21px" height="21px" xmlns="http://www.w3.org/2000/svg">
  <defs>
    <pattern id="BGPattern" patternUnits="userSpaceOnUse" alignment="0 0" imageRepeat="None" />
    <mask fill="white" id="Clip1161">
      <path d="M 21 2.75  C 21 1.2428571428571331  19.794966442952955 0.02857142857146755  18.315100671140954 0  L 2.6989932885905996 0  C 1.2191275167785989 0.02857142857146755  0.014093959731553696 1.25  0 2.75  L 0 13.7714285714286  C 0.014093959731553696 15.2714285714286  1.2191275167785989 16.485714285714266  2.6989932885905996 16.485714285714266  L 11.634563758389277 16.485714285714266  C 11.831879194630801 16.485714285714266  12.029194630872553 16.571428571428555  12.170134228187862 16.714285714285666  L 16.609731543624093 20.864285714285757  C 16.85637583892617 21.10714285714289  17.265100671141 21.007142857142867  17.265100671141 20.657142857142844  L 17.265100671141 17.0428571428572  C 17.265100671141 16.614285714285757  17.532885906040292 16.4785714285714  17.955704697986675 16.4785714285714  L 18.026174496644217 16.4785714285714  C 19.506040268456445 16.4785714285714  20.992953020134337 15.2714285714286  21 13.764285714285734  L 21 2.75  Z " fill-rule="evenodd" />
    </mask>
  </defs>
  <g transform="matrix(1 0 0 1 -1871 -655 )">
    <path d="M 21 2.75  C 21 1.2428571428571331  19.794966442952955 0.02857142857146755  18.315100671140954 0  L 2.6989932885905996 0  C 1.2191275167785989 0.02857142857146755  0.014093959731553696 1.25  0 2.75  L 0 13.7714285714286  C 0.014093959731553696 15.2714285714286  1.2191275167785989 16.485714285714266  2.6989932885905996 16.485714285714266  L 11.634563758389277 16.485714285714266  C 11.831879194630801 16.485714285714266  12.029194630872553 16.571428571428555  12.170134228187862 16.714285714285666  L 16.609731543624093 20.864285714285757  C 16.85637583892617 21.10714285714289  17.265100671141 21.007142857142867  17.265100671141 20.657142857142844  L 17.265100671141 17.0428571428572  C 17.265100671141 16.614285714285757  17.532885906040292 16.4785714285714  17.955704697986675 16.4785714285714  L 18.026174496644217 16.4785714285714  C 19.506040268456445 16.4785714285714  20.992953020134337 15.2714285714286  21 13.764285714285734  L 21 2.75  Z " fill-rule="nonzero" fill="rgba(64, 158, 255, 1)" stroke="none" transform="matrix(1 0 0 1 1871 655 )" class="fill" />
    <path d="M 21 2.75  C 21 1.2428571428571331  19.794966442952955 0.02857142857146755  18.315100671140954 0  L 2.6989932885905996 0  C 1.2191275167785989 0.02857142857146755  0.014093959731553696 1.25  0 2.75  L 0 13.7714285714286  C 0.014093959731553696 15.2714285714286  1.2191275167785989 16.485714285714266  2.6989932885905996 16.485714285714266  L 11.634563758389277 16.485714285714266  C 11.831879194630801 16.485714285714266  12.029194630872553 16.571428571428555  12.170134228187862 16.714285714285666  L 16.609731543624093 20.864285714285757  C 16.85637583892617 21.10714285714289  17.265100671141 21.007142857142867  17.265100671141 20.657142857142844  L 17.265100671141 17.0428571428572  C 17.265100671141 16.614285714285757  17.532885906040292 16.4785714285714  17.955704697986675 16.4785714285714  L 18.026174496644217 16.4785714285714  C 19.506040268456445 16.4785714285714  20.992953020134337 15.2714285714286  21 13.764285714285734  L 21 2.75  Z " stroke-width="0" stroke-dasharray="0" stroke="rgba(255, 255, 255, 0)" fill="none" transform="matrix(1 0 0 1 1871 655 )" class="stroke" mask="url(#Clip1161)" />
  </g>
</svg>