<?xml version="1.0" encoding="utf-8"?>
<svg version="1.1" xmlns:xlink="http://www.w3.org/1999/xlink" width="32px" height="32px" xmlns="http://www.w3.org/2000/svg">
  <defs>
    <pattern id="BGPattern" patternUnits="userSpaceOnUse" alignment="0 0" imageRepeat="None" />
    <mask fill="white" id="Clip333">
      <path d="M 0 16  C 0 7.039999999999999  7.039999999999999 0  16 0  C 24.96 0  32 7.039999999999999  32 16  C 32 24.96  24.96 32  16 32  C 7.039999999999999 32  0 24.96  0 16  Z " fill-rule="evenodd" />
    </mask>
  </defs>
  <g transform="matrix(1 0 0 1 -20 -60 )">
    <path d="M 0 16  C 0 7.039999999999999  7.039999999999999 0  16 0  C 24.96 0  32 7.039999999999999  32 16  C 32 24.96  24.96 32  16 32  C 7.039999999999999 32  0 24.96  0 16  Z " fill-rule="nonzero" fill="rgba(132, 89, 255, 1)" stroke="none" transform="matrix(1 0 0 1 20 60 )" class="fill" />
    <path d="M 0 16  C 0 7.039999999999999  7.039999999999999 0  16 0  C 24.96 0  32 7.039999999999999  32 16  C 32 24.96  24.96 32  16 32  C 7.039999999999999 32  0 24.96  0 16  Z " stroke-width="0" stroke-dasharray="0" stroke="rgba(240, 246, 255, 1)" fill="none" transform="matrix(1 0 0 1 20 60 )" class="stroke" mask="url(#Clip333)" />
  </g>
</svg>