<?xml version="1.0" encoding="utf-8"?>
<svg version="1.1" xmlns:xlink="http://www.w3.org/1999/xlink" width="12px" height="12px" xmlns="http://www.w3.org/2000/svg">
  <defs>
    <pattern id="BGPattern" patternUnits="userSpaceOnUse" alignment="0 0" imageRepeat="None" />
    <mask fill="white" id="Clip862">
      <path d="M 11.577777777777555 11.577777777777783  C 12.044444444444252 11.118518518518613  12.044444444444252 10.36296296296291  11.577777777777555 9.90370370370374  L 7.6740740740742694 6  L 11.577777777777555 2.0962962962962592  C 12.037037037036953 1.6370370370370892  12.037037037036953 0.8814814814813872  11.577777777777555 0.42222222222221717  C 11.118518518518613 -0.037037037036952825  10.362962962963138 -0.037037037036952825  9.90370370370374 0.42222222222221717  L 6 4.325925925925958  L 2.0962962962962592 0.42222222222221717  C 1.6370370370368619 -0.037037037036952825  0.9407407407406936 -0.10370370370378623  0.42222222222244454 0.42222222222221717  C -0.10370370370355886 0.9481481481482206  -0.022222222222353594 1.6518518518519159  0.42222222222244454 2.0962962962962592  L 4.3259259259257306 6  L 0.42222222222244454 9.90370370370374  C -0.07407407407390565 10.400000000000091  -0.0518518518520068 11.111111111111086  0.42222222222244454 11.577777777777783  C 0.8962962962964411 12.05185185185178  1.6370370370368619 12.037037037036953  2.0962962962962592 11.577777777777783  L 6 7.674074074074042  L 9.90370370370374 11.577777777777783  C 10.362962962963138 12.037037037036953  11.118518518518613 12.037037037036953  11.577777777777555 11.577777777777783  Z " fill-rule="evenodd" />
    </mask>
  </defs>
  <g transform="matrix(1 0 0 1 -469 -14 )">
    <path d="M 11.577777777777555 11.577777777777783  C 12.044444444444252 11.118518518518613  12.044444444444252 10.36296296296291  11.577777777777555 9.90370370370374  L 7.6740740740742694 6  L 11.577777777777555 2.0962962962962592  C 12.037037037036953 1.6370370370370892  12.037037037036953 0.8814814814813872  11.577777777777555 0.42222222222221717  C 11.118518518518613 -0.037037037036952825  10.362962962963138 -0.037037037036952825  9.90370370370374 0.42222222222221717  L 6 4.325925925925958  L 2.0962962962962592 0.42222222222221717  C 1.6370370370368619 -0.037037037036952825  0.9407407407406936 -0.10370370370378623  0.42222222222244454 0.42222222222221717  C -0.10370370370355886 0.9481481481482206  -0.022222222222353594 1.6518518518519159  0.42222222222244454 2.0962962962962592  L 4.3259259259257306 6  L 0.42222222222244454 9.90370370370374  C -0.07407407407390565 10.400000000000091  -0.0518518518520068 11.111111111111086  0.42222222222244454 11.577777777777783  C 0.8962962962964411 12.05185185185178  1.6370370370368619 12.037037037036953  2.0962962962962592 11.577777777777783  L 6 7.674074074074042  L 9.90370370370374 11.577777777777783  C 10.362962962963138 12.037037037036953  11.118518518518613 12.037037037036953  11.577777777777555 11.577777777777783  Z " fill-rule="nonzero" fill="rgba(255, 255, 255, 1)" stroke="none" transform="matrix(1 0 0 1 469 14 )" class="fill" />
    <path d="M 11.577777777777555 11.577777777777783  C 12.044444444444252 11.118518518518613  12.044444444444252 10.36296296296291  11.577777777777555 9.90370370370374  L 7.6740740740742694 6  L 11.577777777777555 2.0962962962962592  C 12.037037037036953 1.6370370370370892  12.037037037036953 0.8814814814813872  11.577777777777555 0.42222222222221717  C 11.118518518518613 -0.037037037036952825  10.362962962963138 -0.037037037036952825  9.90370370370374 0.42222222222221717  L 6 4.325925925925958  L 2.0962962962962592 0.42222222222221717  C 1.6370370370368619 -0.037037037036952825  0.9407407407406936 -0.10370370370378623  0.42222222222244454 0.42222222222221717  C -0.10370370370355886 0.9481481481482206  -0.022222222222353594 1.6518518518519159  0.42222222222244454 2.0962962962962592  L 4.3259259259257306 6  L 0.42222222222244454 9.90370370370374  C -0.07407407407390565 10.400000000000091  -0.0518518518520068 11.111111111111086  0.42222222222244454 11.577777777777783  C 0.8962962962964411 12.05185185185178  1.6370370370368619 12.037037037036953  2.0962962962962592 11.577777777777783  L 6 7.674074074074042  L 9.90370370370374 11.577777777777783  C 10.362962962963138 12.037037037036953  11.118518518518613 12.037037037036953  11.577777777777555 11.577777777777783  Z " stroke-width="0" stroke-dasharray="0" stroke="rgba(255, 255, 255, 0)" fill="none" transform="matrix(1 0 0 1 469 14 )" class="stroke" mask="url(#Clip862)" />
  </g>
</svg>