<?xml version="1.0" encoding="utf-8"?>
<svg version="1.1" xmlns:xlink="http://www.w3.org/1999/xlink" width="9px" height="12px" xmlns="http://www.w3.org/2000/svg">
  <g transform="matrix(1 0 0 1 -176 -80 )">
    <path d="M 8.718749999999998 10.605  C 8.892328382276839 8.81019124153141  7.889025071659327 7.122702929335303  6.29296875 6.5249999999999995  C 7.082441428843092 5.942817032506216  7.55303388760664 4.983754859562405  7.551562499999998 3.959999999999999  C 7.551562499999998 2.1747396142918047  6.194775425463786 0.7275000681198438  4.521093749999999 0.7275000681198438  C 2.8474120994760117 0.7275000681198438  1.490625035270204 2.174739572774415  1.4906249999999992 3.959999999999999  C 1.497483724429543 4.981556894919468  1.9661868532013536 5.936768634449949  2.74921875 6.5249999999999995  C 1.1545572158559725 7.130943518480858  0.141644187070455 8.805472483827327  0.28125 10.605  L 0.28125 11.25  L 8.71875 11.25  L 8.718749999999998 10.605  Z M 2.74921875 3.959999999999999  L 2.77734375 3.959999999999999  C 2.7773076214583776 3.9550048450707376  2.7772895569859735 3.9500095600701624  2.7772895569859735 3.945014256488171  C 2.7772895569859735 2.872201129941855  3.5926210008488026 2.0025142564881717  4.5983833069859745 2.0025142564881717  C 5.604145613123146 2.0025142564881717  6.419477056985975 2.872201129941855  6.419477056985975 3.945014256488171  C 6.419477056985975 5.017827383034486  5.604145613123146 5.887514256488171  4.5983833069859745 5.887514256488171  C 4.596057614923144 5.887514256488171  4.5937319249940005 5.8875095043167285  4.59140625 5.887499999999999  C 4.584357513017589 5.887587314801529  4.577308360154466 5.887630973306173  4.570259147878032 5.887630973306173  C 3.5699363861642075 5.887630973306173  2.7568758032027616 5.026979685878867  2.74921875 3.959999999999999  Z M 7.5796875 10.0125  L 1.6101562500000004 10.0125  C 1.8703124999999996 7.86  3.55078125 7.5375000000000005  4.59140625 7.5375000000000005  C 5.632031250000006 7.5375000000000005  7.277343750000002 7.86  7.5796875 10.0125  Z " fill-rule="nonzero" fill="#ffffff" stroke="none" transform="matrix(1 0 0 1 176 80 )" />
  </g>
</svg>