<?xml version="1.0" encoding="utf-8"?>
<svg version="1.1" xmlns:xlink="http://www.w3.org/1999/xlink" width="14px" height="12px" xmlns="http://www.w3.org/2000/svg">
  <defs>
    <pattern id="BGPattern" patternUnits="userSpaceOnUse" alignment="0 0" imageRepeat="None" />
    <mask fill="white" id="Clip1657">
      <path d="M 13.805555555555557 6.9375  C 13.805555555555557 3.4423828125  10.971983506944447 0.5854980468750001  7.399370659722222 0.38613281249999987  C 3.3716362847222223 0.16142578125000007  0.011089409722222152 3.3675292968750004  0.2021918402777778 7.253466796875003  C 0.2570393279598684 8.390074072832485  0.6191137639411393 9.49310199464098  1.2524956597222228 10.453125000000002  C 1.4366827498234729 10.732421387394567  1.6423916038239423 10.997965134190792  1.867881944444445 11.247509765625  C 2.083320748506173 11.486774838288373  2.3955933143118315 11.624434262350004  2.724197048611112 11.625  L 11.27580295138889 11.625000000000004  C 11.604406685688168 11.624434262350004  11.916679251493825 11.486774838288374  12.132118055555559 11.247509765625  C 12.357608396176062 10.997965134190792  12.563317250176532 10.732421387394563  12.747504340277782 10.453125000000002  C 13.440487903895033 9.402453710570928  13.807590715447926 8.18266793533622  13.805555555555557 6.9375  Z M 12.590277777777779 6.9375  C 12.5922011804109 8.127745655795646  12.183773638083526 9.284843151636604  11.429231770833333 10.226806640625  C 11.314341563473208 10.369788212576214  11.137231614314555 10.45336825612064  10.949652777777779 10.453125  L 3.0503472222222214 10.453124999999998  C 2.8629371713643463 10.45359623450851  2.6859010815714557 10.370214520811286  2.5710720486111107 10.227392578124999  C 1.8261227062342413 9.297790196499555  1.418131131148149 8.158131697059545  1.4097222222222223 6.983349609375001  C 1.3845052083333336 4.050585937499999  3.810959201388888 1.6248046874999997  6.851432291666669 1.5487792968750003  C 10.006749131944442 1.4698242187500001  12.590277777777779 3.9127441406249996  12.590277777777779 6.9375  Z " fill-rule="evenodd" />
    </mask>
  </defs>
  <g transform="matrix(1 0 0 1 -17 -17 )">
    <path d="M 13.805555555555557 6.9375  C 13.805555555555557 3.4423828125  10.971983506944447 0.5854980468750001  7.399370659722222 0.38613281249999987  C 3.3716362847222223 0.16142578125000007  0.011089409722222152 3.3675292968750004  0.2021918402777778 7.253466796875003  C 0.2570393279598684 8.390074072832485  0.6191137639411393 9.49310199464098  1.2524956597222228 10.453125000000002  C 1.4366827498234729 10.732421387394567  1.6423916038239423 10.997965134190792  1.867881944444445 11.247509765625  C 2.083320748506173 11.486774838288373  2.3955933143118315 11.624434262350004  2.724197048611112 11.625  L 11.27580295138889 11.625000000000004  C 11.604406685688168 11.624434262350004  11.916679251493825 11.486774838288374  12.132118055555559 11.247509765625  C 12.357608396176062 10.997965134190792  12.563317250176532 10.732421387394563  12.747504340277782 10.453125000000002  C 13.440487903895033 9.402453710570928  13.807590715447926 8.18266793533622  13.805555555555557 6.9375  Z M 12.590277777777779 6.9375  C 12.5922011804109 8.127745655795646  12.183773638083526 9.284843151636604  11.429231770833333 10.226806640625  C 11.314341563473208 10.369788212576214  11.137231614314555 10.45336825612064  10.949652777777779 10.453125  L 3.0503472222222214 10.453124999999998  C 2.8629371713643463 10.45359623450851  2.6859010815714557 10.370214520811286  2.5710720486111107 10.227392578124999  C 1.8261227062342413 9.297790196499555  1.418131131148149 8.158131697059545  1.4097222222222223 6.983349609375001  C 1.3845052083333336 4.050585937499999  3.810959201388888 1.6248046874999997  6.851432291666669 1.5487792968750003  C 10.006749131944442 1.4698242187500001  12.590277777777779 3.9127441406249996  12.590277777777779 6.9375  Z " fill-rule="nonzero" fill="rgba(85, 85, 85, 1)" stroke="none" transform="matrix(1 0 0 1 17 17 )" class="fill" />
    <path d="M 13.805555555555557 6.9375  C 13.805555555555557 3.4423828125  10.971983506944447 0.5854980468750001  7.399370659722222 0.38613281249999987  C 3.3716362847222223 0.16142578125000007  0.011089409722222152 3.3675292968750004  0.2021918402777778 7.253466796875003  C 0.2570393279598684 8.390074072832485  0.6191137639411393 9.49310199464098  1.2524956597222228 10.453125000000002  C 1.4366827498234729 10.732421387394567  1.6423916038239423 10.997965134190792  1.867881944444445 11.247509765625  C 2.083320748506173 11.486774838288373  2.3955933143118315 11.624434262350004  2.724197048611112 11.625  L 11.27580295138889 11.625000000000004  C 11.604406685688168 11.624434262350004  11.916679251493825 11.486774838288374  12.132118055555559 11.247509765625  C 12.357608396176062 10.997965134190792  12.563317250176532 10.732421387394563  12.747504340277782 10.453125000000002  C 13.440487903895033 9.402453710570928  13.807590715447926 8.18266793533622  13.805555555555557 6.9375  Z " stroke-width="0" stroke-dasharray="0" stroke="rgba(255, 255, 255, 0)" fill="none" transform="matrix(1 0 0 1 17 17 )" class="stroke" mask="url(#Clip1657)" />
    <path d="M 12.590277777777779 6.9375  C 12.5922011804109 8.127745655795646  12.183773638083526 9.284843151636604  11.429231770833333 10.226806640625  C 11.314341563473208 10.369788212576214  11.137231614314555 10.45336825612064  10.949652777777779 10.453125  L 3.0503472222222214 10.453124999999998  C 2.8629371713643463 10.45359623450851  2.6859010815714557 10.370214520811286  2.5710720486111107 10.227392578124999  C 1.8261227062342413 9.297790196499555  1.418131131148149 8.158131697059545  1.4097222222222223 6.983349609375001  C 1.3845052083333336 4.050585937499999  3.810959201388888 1.6248046874999997  6.851432291666669 1.5487792968750003  C 10.006749131944442 1.4698242187500001  12.590277777777779 3.9127441406249996  12.590277777777779 6.9375  Z " stroke-width="0" stroke-dasharray="0" stroke="rgba(255, 255, 255, 0)" fill="none" transform="matrix(1 0 0 1 17 17 )" class="stroke" mask="url(#Clip1657)" />
  </g>
</svg>