<?xml version="1.0" encoding="utf-8"?>
<svg version="1.1" xmlns:xlink="http://www.w3.org/1999/xlink" width="2px" height="2px" xmlns="http://www.w3.org/2000/svg">
  <defs>
    <pattern id="BGPattern" patternUnits="userSpaceOnUse" alignment="0 0" imageRepeat="None" />
    <mask fill="white" id="Clip1660">
      <path d="M 0.45442708333333304 0.8789062499999988  C 0.45442708333333304 1.1665545572035374  0.687612109463128 1.3997395833333321  0.9752604166666661 1.3997395833333321  C 1.2629087238702041 1.3997395833333321  1.4960937499999993 1.1665545572035374  1.4960937499999993 0.8789062499999988  C 1.4960937499999993 0.5912579427964602  1.2629087238702041 0.35807291666666546  0.9752604166666661 0.35807291666666546  C 0.687612109463128 0.35807291666666546  0.45442708333333304 0.5912579427964602  0.45442708333333304 0.8789062499999988  Z " fill-rule="evenodd" />
    </mask>
  </defs>
  <g transform="matrix(1 0 0 1 -18 -23 )">
    <path d="M 0.45442708333333304 0.8789062499999988  C 0.45442708333333304 1.1665545572035374  0.687612109463128 1.3997395833333321  0.9752604166666661 1.3997395833333321  C 1.2629087238702041 1.3997395833333321  1.4960937499999993 1.1665545572035374  1.4960937499999993 0.8789062499999988  C 1.4960937499999993 0.5912579427964602  1.2629087238702041 0.35807291666666546  0.9752604166666661 0.35807291666666546  C 0.687612109463128 0.35807291666666546  0.45442708333333304 0.5912579427964602  0.45442708333333304 0.8789062499999988  Z " fill-rule="nonzero" fill="rgba(85, 85, 85, 1)" stroke="none" transform="matrix(1 0 0 1 18 23 )" class="fill" />
    <path d="M 0.45442708333333304 0.8789062499999988  C 0.45442708333333304 1.1665545572035374  0.687612109463128 1.3997395833333321  0.9752604166666661 1.3997395833333321  C 1.2629087238702041 1.3997395833333321  1.4960937499999993 1.1665545572035374  1.4960937499999993 0.8789062499999988  C 1.4960937499999993 0.5912579427964602  1.2629087238702041 0.35807291666666546  0.9752604166666661 0.35807291666666546  C 0.687612109463128 0.35807291666666546  0.45442708333333304 0.5912579427964602  0.45442708333333304 0.8789062499999988  Z " stroke-width="0" stroke-dasharray="0" stroke="rgba(255, 255, 255, 0)" fill="none" transform="matrix(1 0 0 1 18 23 )" class="stroke" mask="url(#Clip1660)" />
  </g>
</svg>