<?xml version="1.0" encoding="utf-8"?>
<svg version="1.1" xmlns:xlink="http://www.w3.org/1999/xlink" width="2px" height="2px" xmlns="http://www.w3.org/2000/svg">
  <defs>
    <pattern id="BGPattern" patternUnits="userSpaceOnUse" alignment="0 0" imageRepeat="None" />
    <mask fill="white" id="Clip1661">
      <path d="M 0.5039062499999988 0.8789062499999988  C 0.5039062499999988 1.1665545572035398  0.7370912761297923 1.3997395833333333  1.0247395833333333 1.3997395833333333  C 1.312387890536873 1.3997395833333333  1.5455729166666667 1.1665545572035374  1.5455729166666667 0.8789062499999988  C 1.5455729166666667 0.5912579427964602  1.3123878905368709 0.35807291666666546  1.0247395833333333 0.35807291666666546  C 0.7370912761297923 0.35807291666666546  0.50390625 0.5912579427964602  0.50390625 0.8789062499999988  Z " fill-rule="evenodd" />
    </mask>
  </defs>
  <g transform="matrix(1 0 0 1 -27 -23 )">
    <path d="M 0.5039062499999988 0.8789062499999988  C 0.5039062499999988 1.1665545572035398  0.7370912761297923 1.3997395833333333  1.0247395833333333 1.3997395833333333  C 1.312387890536873 1.3997395833333333  1.5455729166666667 1.1665545572035374  1.5455729166666667 0.8789062499999988  C 1.5455729166666667 0.5912579427964602  1.3123878905368709 0.35807291666666546  1.0247395833333333 0.35807291666666546  C 0.7370912761297923 0.35807291666666546  0.50390625 0.5912579427964602  0.50390625 0.8789062499999988  Z " fill-rule="nonzero" fill="rgba(85, 85, 85, 1)" stroke="none" transform="matrix(1 0 0 1 27 23 )" class="fill" />
    <path d="M 0.5039062499999988 0.8789062499999988  C 0.5039062499999988 1.1665545572035398  0.7370912761297923 1.3997395833333333  1.0247395833333333 1.3997395833333333  C 1.312387890536873 1.3997395833333333  1.5455729166666667 1.1665545572035374  1.5455729166666667 0.8789062499999988  C 1.5455729166666667 0.5912579427964602  1.3123878905368709 0.35807291666666546  1.0247395833333333 0.35807291666666546  C 0.7370912761297923 0.35807291666666546  0.50390625 0.5912579427964602  0.50390625 0.8789062499999988  Z " stroke-width="0" stroke-dasharray="0" stroke="rgba(255, 255, 255, 0)" fill="none" transform="matrix(1 0 0 1 27 23 )" class="stroke" mask="url(#Clip1661)" />
  </g>
</svg>