<?xml version="1.0" encoding="utf-8"?>
<svg version="1.1" xmlns:xlink="http://www.w3.org/1999/xlink" width="18px" height="20px" xmlns="http://www.w3.org/2000/svg">
  <g transform="matrix(1 0 0 1 -320 -278 )">
    <path d="M 13.981310933823526 11.605413519736835  C 14.120712628676468 11.46730825657894  14.294964705882352 11.398496217105254  14.46921681617647 11.398496249999999  C 14.643468926470588 11.398496249999999  14.81772100367647 11.467308289473685  14.957606713235293 11.605413519736842  L 17.36325377205882 13.984000000000002  C 17.503139481617644 14.121624046052633  17.572840312499995 14.293894736842105  17.572840345588233 14.466165427631578  C 17.572840345588233 14.63891730263158  17.50313951470588 14.811187993421054  17.36325377205882 14.948812039473685  C 17.25870252573529 15.121563914473686  17.08445041544117 15.190375953947369  16.875347889705882 15.190375953947369  C 16.701095779411762 15.190375953947369  16.49199325367647 15.12156391447368  16.352591591911764 14.983458651315786  L 15.188490761029412 13.811729309210524  L 15.188490761029412 18.556390986842104  C 15.188490761029412 18.734436085526312  15.117337819852942 18.91248121710526  14.974547889705882 19.054917302631576  C 14.867092422794121 19.232962401315785  14.688484014705882 19.30418046052631  14.473573113970588 19.30418046052631  C 14.294964705882352 19.30418046052631  14.116356297794118 19.232962401315785  13.973082352941171 19.090526315789464  C 13.837479364760176 18.95950641559004  13.760262240850391 18.77998243419283  13.758655466911765 18.591999999999995  L 13.758171419117646 13.777563914473676  L 12.586810069852937 14.914646611842098  C 12.41255795955882 15.086917302631573  12.133270588235293 15.190375921052624  11.889317647058819 15.121563914473679  C 11.644880658088232 15.052270690789468  11.435778165441173 14.879999999999995  11.400927716911761 14.638917302631572  C 11.32701585979456 14.38817722547683  11.409034175133568 14.117702871401839  11.610030242647053 13.949353388157888  L 13.981310933823526 11.605413519736835  Z M 6.23580505147059 19.067428585526315  L 2.6021647058823523 19.067428585526315  C 1.3238319374999998 19.067428585526315  0.27493110661764736 18.025142861842106  0.24201681617646997 16.75428572368421  L 0.24201681617646997 4.0129924671052635  C 0.24201681617646997 2.7426165131578943  1.068746227941175 1.6993684210526314  2.3795092389705865 1.6993684210526314  L 3.0300504154411727 1.6993684210526314  C 3.4591060477243407 1.6993684210526314  3.806924360294114 2.045152708402699  3.806924360294114 2.4716992434210527  C 3.806924360294114 2.898245778439406  3.4591060477243407 3.244030065789474  3.0300504154411727 3.244030065789474  L 2.6021647058823523 3.244030065789474  C 2.0116437022058817 3.244030065789474  1.775435294117647 3.699729309210526  2 4.253593980263158  L 2 16.75428572368421  C 1.775435294117647 17.30766917763158  2.234299169117647 17.611308289473683  2.791905882352942 17.611308256578948  L 6.203374775735295 17.611308256578948  C 6.6099630110294125 17.611308256578948  6.942978132352942 17.934676677631582  6.952174775735297 18.33936842105264  C 6.952293506257665 18.3446608404722  6.9523528770540555 18.349954411472424  6.9523528770540555 18.355248147001817  C 6.9523528770540555 18.748574554477972  6.63162321192713 19.067428607528132  6.235983119701114 19.067428607528132  Z M 15.587818477941177 6.9796090131578925  L 15.587818477941173 4.254556381578943  C 15.58490477328596 3.697740578423913  15.131440404251345 3.2471427267275743  14.571347889705883 3.2445112828947336  L 14.390803356617646 3.2445112828947336  C 13.96174772433448 3.244511282894732  13.613929411764705 2.898726995544666  13.613929411764705 2.4721804605263125  C 13.613929411764705 2.045633925507957  13.96174772433448 1.6998496381578911  14.390803356617646 1.6998496381578911  L 14.66041006985294 1.6998496381578911  C 15.972141176470586 1.6998496381578911  17.020557959558825 2.7421353618421023  17.020557992647056 4.01299246710526  L 17.02055799264706 6.979127828947366  C 17.02055799264706 7.372454236423521  16.699828327520134 7.691308289473682  16.304188235294117 7.691308289473682  C 15.908548143068098 7.691308289473682  15.587818477941173 7.372454236423521  15.587818477941173 6.979127828947366  Z M 12.934346227941177 2.1555488815789454  C 12.934346227941177 3.1660751973684182  12.114393286764706 3.9802706907894714  11.098406713235294 3.9802706907894714  L 6.247421834558824 3.9802706907894714  C 5.230951246323529 3.9802706907894714  4.379052077205883 3.165594013157893  4.3790521102941184 2.1555488815789454  C 4.3790521102941184 1.1450225657894726  5.198521003676471 0.330827072368419  6.247421834558824 0.330827072368419  L 11.065976470588234 0.330827072368419  C 12.081963011029412 0.330827072368419  12.934346227941177 1.1455037499999976  12.934346227941177 2.1555488815789454  Z M 6.408121003676469 2.7777443749999975  L 10.617277301470587 2.7777443749999975  C 10.623194649707209 2.777904762288688  10.629113921903102 2.7779849671052608  10.63503346899407 2.7779849671052608  C 10.994852086051393 2.7779849671052608  11.286542707964658 2.488000138302598  11.286542707964658 2.130285723684209  C 11.286542707964658 1.772571309065819  10.994852086051393 1.4825864802631559  10.63503346899407 1.4825864802631559  C 10.629113921903102 1.4825864802631559  10.623194649707209 1.4826666850797285  10.617277301470587 1.4828270723684192  L 6.4086050514705875 1.4828270723684192  C 6.4026877032339655 1.4826666850797285  6.396768431038072 1.4825864802631559  6.390848883947105 1.4825864802631559  C 6.0310302668897835 1.4825864802631559  5.739339644976516 1.772571309065819  5.739339644976516 2.130285723684209  C 5.739339644976516 2.488000138302598  6.0310302668897835 2.7779849671052608  6.390848883947105 2.7779849671052608  C 6.396768431038072 2.7779849671052608  6.4026877032339655 2.777904762288688  6.4086050514705875 2.7777443749999975  Z M 8.673398305147058 9.715729309210522  C 8.508826886029413 9.715729309210522  8.345223529411765 9.650285690789467  8.214050415441175 9.519879703947362  L 5.264349584558822 6.587428585526309  C 5.034917647058823 6.326616546052623  5.067347889705881 5.935398519736835  5.2967798272058815 5.7073082565789415  C 5.526211764705882 5.479217993421046  5.919731073529411 5.4469774342105195  6.182077301470587 5.6423458552631525  L 8.672914290441176 8.118616546052627  L 11.164235294117653 5.642345855263153  C 11.427145841917458 5.414308118718228  11.819052463229607 5.414308118718228  12.081963011029412 5.64234585526315  C 12.207434002810087 5.761306705684018  12.278432475100637 5.926157340052452  12.278432475100637 6.098526315789465  C 12.278432475100637 6.270895291526475  12.207434002810087 6.435745925894917  12.081963011029412 6.554706776315783  L 9.131778165441176 9.4876391118421  C 9.001089099264707 9.617563914473678  8.836517647058821 9.715729342105258  8.672914290441176 9.715729309210522  Z M 11.906258823529413 12.417202993421046  C 11.887886303117234 12.815014632052792  11.558032052414914 13.128101662633945  11.157458823529412 13.127939835526309  L 5.979267231617648 13.127939835526309  C 5.58429546079177 13.127939835526309  5.264107577205882 12.809624395704084  5.264107577205882 12.416962401315786  C 5.264107577205882 12.024300406927484  5.58429546079177 11.705984967105255  5.979267231617648 11.705984967105255  L 11.222803356617646 11.705984967105255  C 11.600772724912895 11.705984925234565  11.906982861025936 12.010404358797238  11.906982861025936 12.38592476076088  C 11.906982861025936 12.396354979142473  11.906741451302985 12.406783816760846  11.906258823529413 12.417202993421046  Z M 11.157458823529412 10.28403006578947  L 5.979267231617648 10.28403006578947  C 5.584429117762146 10.28403006578947  5.264349584558824 9.965822342721841  5.264349584558824 9.573293223684205  C 5.264349584558824 9.180764104646572  5.584429117762146 8.862556381578944  5.979267231617648 8.862556381578944  L 11.222803356617646 8.862556381578942  C 11.600750607397767 8.862556347069287  11.906960743510812 9.16697578063196  11.906960743510812 9.542496182595599  C 11.906960743510812 9.55276581548407  11.906726710137173 9.563034130413236  11.906258823529413 9.573293223684205  C 11.888136982169339 9.971294314822835  11.558211009664554 10.284661448701037  11.157458823529412 10.284511282894734  Z M 8.61362017279412 15.539969901315793  C 8.218648401968238 15.539969901315793  7.898460518382353 15.221654461493568  7.898460518382355 14.828992467105255  L 7.898460518382355 9.875007532894738  C 7.898460518382355 9.32162407894737  8.219858823529414 8.868330855263158  8.613378165441176 8.86833082236842  C 9.00689750735294 8.86833082236842  9.32877986029412 9.321142861842105  9.328779827205883 9.875007532894738  L 9.328779827205883 14.828992467105264  C 9.328779827205883 15.221654461493564  9.008591943619997 15.539969901315793  8.61362017279412 15.539969901315793  Z " fill-rule="nonzero" fill="#ffffff" stroke="none" transform="matrix(1 0 0 1 320 278 )" />
  </g>
</svg>