<?xml version="1.0" encoding="utf-8"?>
<svg version="1.1" xmlns:xlink="http://www.w3.org/1999/xlink" width="20px" height="20px" xmlns="http://www.w3.org/2000/svg">
  <g transform="matrix(1 0 0 1 -21 -413 )">
    <path d="M 16.753125 0.14218750000000002  C 17.5359375 0.15625  18.184375 0.4203125000000002  18.696875 0.9328124999999998  C 19.209375 1.4453125  19.4734375 2.09375  19.4875 2.8765624999999995  L 19.4875 16.8046875  C 19.4734375 17.5875  19.209375 18.235937500000002  18.696875 18.7484375  C 18.184375000000003 19.260937499999997  17.535937500000003 19.525000000000002  16.753125 19.5390625  L 2.8249999999999997 19.5390625  C 2.0421875 19.525000000000002  1.3937500000000003 19.260937499999997  0.8812499999999995 18.7484375  C 0.3687499999999988 18.235937500000002  0.10468749999999971 17.5875  0 16.8046875  L 0 2.8765624999999995  C 0.10468749999999916 2.09375  0.36874999999999936 1.4453125  0.8812499999999995 0.9328124999999998  C 1.3937500000000003 0.4203125000000002  2.0421874999999994 0.15625  2.8249999999999997 0.14218750000000002  L 16.753125 0.14218750000000002  Z M 15.9421875 15.715625  C 16.1546875 15.7015625  16.321875000000002 15.5953125  16.44375 15.3953125  C 16.564062500000002 15.1953125  16.621875000000003 14.985937499999999  16.614062500000003 14.765624999999998  C 16.60625 14.545312499999998  16.525000000000002 14.356249999999998  16.368750000000002 14.2  C 16.212500000000002 14.04375  16.0265625 13.9578125  15.814062500000002 14  L 3.6375 14  C 3.4234374999999995 13.9578125  3.2343750000000004 14.065624999999997  3.0718749999999995 14.264062499999998  C 2.9078125 14.464062499999999  2.8265624999999996 14.673437499999999  2.8265624999999996 14.893749999999999  C 2.8265624999999996 15.1140625  2.9078125 15.306249999999999  3.0718749999999995 15.470312499999999  C 3.2359375000000004 15.634375  3.4250000000000003 15.715625  3.6375 15.715625  L 15.9421875 15.715625  Z M 7.0546874999999964 7.918750000000001  L 9.10625 7.918750000000001  L 9.10625 8.7515625  L 7.054687500000001 8.7515625  C 6.840625 8.7515625  6.673437500000001 8.8125  6.5531250000000005 8.9328125  C 6.43125 9.0546875  6.371875000000001 9.217187500000001  6.371875000000001 9.4234375  C 6.371875000000001 9.6296875  6.432812500000001 9.796875  6.5531250000000005 9.924999999999999  C 6.673437500000001 10.053125000000001  6.8421875 10.1171875  7.054687500000001 10.1171875  L 9.1046875 10.1171875  L 9.1046875 11.206249999999997  C 9.1046875 11.420312499999998  9.165624999999999 11.587499999999997  9.285937500000001 11.707812499999996  C 9.40625 11.829687499999997  9.575 11.889062499999996  9.7875 11.889062499999996  C 10 11.889062499999996  10.168750000000003 11.828124999999998  10.289062500000002 11.707812499999996  C 10.409375 11.587499999999997  10.4703125 11.418749999999998  10.4703125 11.206249999999997  L 10.4703125 10.1171875  L 12.5203125 10.1171875  C 12.734375 10.1171875  12.901562499999999 10.053124999999998  13.021874999999998 9.924999999999999  C 13.142187499999999 9.796874999999998  13.203124999999998 9.6296875  13.203124999999998 9.423437499999999  C 13.203124999999998 9.2171875  13.142187499999999 9.053125  13.021874999999998 8.932812499999997  C 12.9 8.812499999999998  12.732812499999998 8.751562499999999  12.5203125 8.751562499999999  L 10.473437499999998 8.751562499999999  L 10.473437499999998 7.918749999999999  L 12.523437499999996 7.918749999999999  C 12.737499999999997 7.918749999999999  12.904687499999996 7.857812499999999  13.024999999999999 7.737499999999999  C 13.145312499999998 7.6171875  13.206249999999997 7.453124999999998  13.206249999999997 7.246874999999999  C 13.206249999999997 7.040625  13.145312499999998 6.876562499999999  13.024999999999999 6.75625  C 12.903124999999998 6.6359375  12.735937499999997 6.5671874999999975  12.523437499999996 6.553125  L 11.284375 6.553125  L 12.6515625 5.1859375  C 12.793749999999998 5.043749999999999  12.865625000000001 4.8875  12.865625000000001 4.715624999999999  C 12.865625000000001 4.543749999999998  12.79375 4.387499999999999  12.6515625 4.245312499999999  C 12.509375 4.103124999999999  12.353124999999999 4.03125  12.181249999999999 4.03125  C 12.009375 4.03125  11.853124999999999 4.1031249999999995  11.710937499999998 4.245312500000001  L 9.789062499999996 6.1468750000000005  L 7.8671874999999964 4.245312500000001  C 7.724999999999998 4.1031249999999995  7.568749999999998 4.03125  7.396874999999996 4.03125  C 7.224999999999996 4.03125  7.068749999999997 4.1031249999999995  6.926562499999997 4.245312500000001  C 6.784374999999995 4.387500000000001  6.712499999999996 4.543749999999999  6.712499999999996 4.715625000000001  C 6.712499999999996 4.887500000000001  6.784374999999995 5.04375  6.926562499999997 5.1859375000000005  L 8.293749999999998 6.5531250000000005  L 7.0546874999999964 6.5531250000000005  C 6.840624999999997 6.567187500000001  6.673437499999997 6.635937500000001  6.553124999999996 6.7562500000000005  C 6.431249999999996 6.878125000000002  6.371874999999997 7.040625000000001  6.371874999999997 7.246875  C 6.371874999999997 7.453125  6.432812499999997 7.6171875  6.553124999999996 7.737500000000002  C 6.673437499999997 7.859375000000002  6.842187499999996 7.918750000000001  7.0546874999999964 7.918750000000001  Z " fill-rule="nonzero" fill="#ffffff" stroke="none" transform="matrix(1 0 0 1 21 413 )" />
  </g>
</svg>