<?xml version="1.0" encoding="utf-8"?>
<svg version="1.1" xmlns:xlink="http://www.w3.org/1999/xlink" width="20px" height="20px" xmlns="http://www.w3.org/2000/svg">
  <g transform="matrix(1 0 0 1 -170 -685 )">
    <path d="M 3.75 17.63888888888889  L 16.25 17.63888888888889  C 16.6332300683274 17.639313960166106  16.943674180757505 17.95010260208508  16.943674180757505 18.333332906152776  C 16.943674180757505 18.685137809149378  16.680592485084894 18.981365278156066  16.33125 19.022916666666667  L 16.25 19  L 3.75 19  C 3.366769931672601 19.027352706500558  3.056325819242496 18.716564064581583  3.056325819242496 18.33333376051389  C 3.056325819242496 17.98152885751729  3.319407514915105 17.6853013885106  3.66875 17.64375  L 3.75 17.63888888888889  Z M 3.75 1  L 16.25 1  C 17.730139855310277 0.9722210644152709  18.950298562790472 2.132822588426469  19.024305555555554 3.611111111111111  L 19.02777777777778 3.75  L 19.02777777777778 13.472222222222223  C 19.027778935584728 14.952362077532502  17.867177411573532 16.172520785012697  16.38888888888889 16.24652777777778  L 16.25 16  L 3.75 16  C 2.269860144689721 16.25000115780695  1.049701437209527 15.089399633795754  0.9756944444444443 13.61111111111111  L 0.9722222222222222 13.472222222222223  L 0.9722222222222222 3.75  C 0.9722210644152712 2.269860144689721  2.132822588426469 1.049701437209528  3.611111111111111 0.9756944444444443  L 3.75 1  Z M 16.354166666666668 2.364583333333333  L 16.25 2.361111111111111  L 3.75 2.361111111111111  C 3.023177247453643 2.3608810989725315  2.4190950061088365 2.9210576135028026  2.364583333333333 3.645833333333333  L 2.361111111111111 3.75  L 2.361111111111111 13.472222222222223  C 2.3608810989725306 14.19904497476858  2.921057613502802 14.803127216113385  3.645833333333333 14.857638888888891  L 3.75 14.86111111111111  L 16.25 14.86111111111111  C 16.976822752546358 14.86134112324969  17.580904993891163 14.301164608719422  17.635416666666664 13.57638888888889  L 17.63888888888889 13.472222222222223  L 17.63888888888889 3.75  C 17.63911890102747 3.023177247453642  17.078942386497197 2.419095006108836  16.354166666666668 2.364583333333333  Z M 5.693055555555557 5.3930555555555575  C 6.093750000000001 5.200694444444447  6.574305555555556 5.105555555555559  7.133333333333334 5.105555555555555  C 7.672916666666666 5.105555555555555  8.14375 5.200694444444444  8.544444444444444 5.393055555555555  C 8.932414760733533 5.575040083468792  9.272833985981094 5.844617877763998  9.53888888888889 6.180555555555555  C 9.8 6.5125  9.994444444444445 6.902777777777778  10.120833333333334 7.3493055555555555  C 10.24722222222222 7.793750000000001  10.309722222222222 8.272916666666667  10.309722222222222 8.787500000000001  C 10.313345426968315 9.274911498140103  10.249784615036713 9.760497406941086  10.120833333333334 10.230555555555556  C 10.006422416605306 10.656413200286433  9.808618737318767 11.05532515493351  9.53888888888889 11.404166666666669  C 9.275694444444444 11.737500000000002  8.944444444444445 12.000000000000002  8.544444444444444 12.19166666666667  C 8.14375 12.38402777777778  7.6729166666666675 12.47916666666667  7.133333333333334 12.47916666666667  C 6.613194444444444 12.47916666666667  6.154166666666667 12.38680555555556  5.757638888888889 12.202083333333336  C 5.369761014761282 12.024331526840639  5.027698538018055 11.760183280911145  4.75763888888889 11.429861111111117  C 4.480201493642814 11.083037577492764  4.275437895115892 10.683902074020446  4.155555555555556 10.25625  C 4.019355621369412 9.778704412707471  3.9524686714044597 9.284068401603013  3.956944444444445 8.787500000000001  C 3.956944444444445 8.279861111111112  4.0166666666666675 7.802083333333335  4.135416666666668 7.355555555555556  C 4.243584977791214 6.929797915737441  4.4368169647129125 6.530341571135247  4.703472222222223 6.181250000000002  C 4.9625 5.847916666666668  5.29375 5.584027777777781  5.693055555555557 5.3930555555555575  Z M 13.083333333333329 5.345138888888895  C 13.210416666666662 5.249305555555561  13.376388888888886 5.202777777777783  13.579166666666666 5.202777777777778  C 13.781944444444445 5.202777777777778  13.947916666666666 5.249305555555556  14.074999999999998 5.345138888888888  C 14.173611111111109 5.42013888888889  14.246527777777775 5.504861111111112  14.290972222222223 5.599305555555555  L 14.318749999999998 5.6715277777777775  L 16.343749999999996 11.540277777777778  L 16.36875 11.63402777777778  C 16.422916666666666 11.868055555555557  16.386805555555554 12.055555555555557  16.251388888888886 12.183333333333335  C 16.11111111111111 12.315972222222225  15.925 12.381944444444448  15.702083333333333 12.381944444444448  C 15.474999999999998 12.388888888888891  15.299305555555556 12.337500000000002  15.179166666666665 12.221527777777778  C 15.098287064633816 12.143551428391461  15.030518117428942 12.053036502366963  14.978472222222221 11.953472222222224  L 14.931249999999999 11.849305555555558  L 14.490277777777774 10.748611111111114  L 12.659027777777773 10.748611111111114  L 12.256249999999998 11.80277777777778  L 12.215972222222222 11.89652777777778  C 12.161396600714864 12.016472009353226  12.083494452558368 12.124354681194195  11.986805555555552 12.213888888888892  C 11.861805555555554 12.327083333333338  11.684722222222222 12.381944444444448  11.459722222222222 12.381944444444448  C 11.234027777777778 12.381944444444448  11.048611111111109 12.31805555555556  10.908333333333331 12.188888888888895  C 10.768749999999997 12.061111111111115  10.738888888888887 11.865277777777782  10.806249999999999 11.612500000000006  L 10.836111111111109 11.515277777777786  L 12.840277777777775 5.668055555555562  L 12.868055555555554 5.600000000000006  C 12.912499999999996 5.504861111111117  12.985416666666662 5.419444444444451  13.083333333333329 5.345138888888895  Z M 7.922916666666665 6.603472222222225  C 7.7097222222222195 6.482638888888892  7.447222222222219 6.422222222222226  7.133333333333334 6.4222222222222225  C 6.820138888888888 6.4222222222222225  6.557638888888889 6.484722222222223  6.344444444444446 6.607638888888889  C 6.129166666666666 6.732638888888889  5.954861111111112 6.898611111111111  5.820833333333335 7.107638888888891  C 5.678309298334666 7.337832206737124  5.577900434077079 7.5915585873786595  5.524305555555556 7.856944444444447  C 5.459428526897008 8.162838329511585  5.427533307153171 8.474806172261541  5.429166666666667 8.787500000000001  C 5.429166666666667 9.085416666666667  5.457638888888891 9.379861111111113  5.5145833333333325 9.67152777777778  C 5.57013888888889 9.95763888888889  5.667361111111112 10.211805555555555  5.802777777777778 10.434722222222224  C 5.936805555555555 10.654166666666667  6.111805555555555 10.830555555555556  6.3277777777777775 10.96388888888889  C 6.540277777777778 11.095833333333335  6.808333333333333 11.162500000000001  7.133333333333334 11.162500000000001  C 7.459722222222222 11.162500000000001  7.730555555555555 11.102777777777781  7.94375 10.986111111111112  C 8.159027777777778 10.868055555555555  8.332638888888889 10.70625  8.465277777777777 10.5  C 8.600694444444445 10.291666666666668  8.695833333333333 10.044444444444448  8.752083333333333 9.75902777777778  C 8.809027777777777 9.467361111111112  8.837499999999999 9.153472222222224  8.837499999999999 8.81666666666667  C 8.837499999999999 8.480555555555558  8.805555555555554 8.163888888888891  8.742361111111109 7.865972222222225  C 8.689095652184946 7.595811499943524  8.588472081507305 7.337199519229959  8.445138888888888 7.102083333333336  C 8.316033962203594 6.894389575398212  8.136357334257747 6.722836624779701  7.922916666666665 6.603472222222225  Z M 14.186111111111108 9.441666666666666  L 13.579166666666666 7.4861111111111125  L 12.971527777777778 9.441666666666666  L 14.186111111111108 9.441666666666666  Z " fill-rule="nonzero" fill="#ffffff" stroke="none" transform="matrix(1 0 0 1 170 685 )" />
  </g>
</svg>