<?xml version="1.0" encoding="utf-8"?>
<svg version="1.1" xmlns:xlink="http://www.w3.org/1999/xlink" width="3px" height="7px" xmlns="http://www.w3.org/2000/svg">
  <g transform="matrix(1 0 0 1 -180 -822 )">
    <path d="M 0.17720233139050912 4.484113238967527  L 0.4592839300582856 5.184612822647794  C 0.7981805749492921 4.741151067013643  1.0811814954091883 4.257646184072932  1.3018984179850133 3.745012489592008  L 1.3018984179850133 6.387144046627811  L 1.9695753538717753 6.387144046627811  L 1.9695753538717753 3.6943213988343047  C 2.1709408825978365 3.964246461282265  2.34517901748543 4.2070274771024145  2.490857618651125 4.420549542048294  L 2.8628809325562035 3.8549875104079936  C 2.5792779336037377 3.5617218843070404  2.2811343465618155 3.2828754009731433  1.9695753538717753 3.019500416319735  L 1.9695753538717753 2.762431307243964  L 2.7857785179017505 2.762431307243964  L 2.7857785179017505 2.126178184845962  L 1.9695753538717753 2.126178184845962  L 1.9695753538717753 1.277102414654455  C 2.1837968359700266 1.234254787676936  2.451573688592841 1.1728559533721903  2.772905911740219 1.0907243963363866  L 2.541548709408824 0.4737718567860121  C 1.8399450547682665 0.680938519466949  1.1181716025226667 0.8123679906607826  0.3885761865112407 0.8658118234804335  L 0.5235303913405502 1.4706411323896758  C 0.6991951151817943 1.4530224812656125  0.9586455731335022 1.4230308076602833  1.301881765195672 1.3806661115736891  L 1.301881765195672 2.1254621149042467  L 0.3628642797668604 2.1254621149042467  L 0.3628642797668604 2.761715237302248  L 1.2304746044962531 2.7617152373022487  C 1.0035108612762933 3.4030987852639907  0.6447161128015626 3.989829655866549  0.17720233139050912 4.484113238967527  Z " fill-rule="nonzero" fill="#ffffff" stroke="none" transform="matrix(1 0 0 1 180 822 )" />
  </g>
</svg>