<?xml version="1.0" encoding="utf-8"?>
<svg version="1.1" xmlns:xlink="http://www.w3.org/1999/xlink" width="2px" height="2px" xmlns="http://www.w3.org/2000/svg">
  <defs>
    <pattern id="BGPattern" patternUnits="userSpaceOnUse" alignment="0 0" imageRepeat="None" />
    <mask fill="white" id="Clip1161">
      <path d="M 0.3035156249999993 0.9354166666666662  C 0.3035156249999993 1.2230649738702037  0.6532931641946931 1.4562499999999996  1.0847656249999993 1.4562499999999996  C 1.5162380858053073 1.4562499999999996  1.8660156249999993 1.2230649738702037  1.8660156249999993 0.9354166666666662  C 1.8660156249999993 0.6477683594631287  1.5162380858053073 0.41458333333333286  1.0847656249999993 0.41458333333333286  C 0.6532931641946931 0.41458333333333286  0.3035156249999993 0.6477683594631287  0.3035156249999993 0.9354166666666662  Z " fill-rule="evenodd" />
    </mask>
  </defs>
  <g transform="matrix(1 0 0 1 -20 -20 )">
    <path d="M 0.3035156249999993 0.9354166666666662  C 0.3035156249999993 1.2230649738702037  0.6532931641946931 1.4562499999999996  1.0847656249999993 1.4562499999999996  C 1.5162380858053073 1.4562499999999996  1.8660156249999993 1.2230649738702037  1.8660156249999993 0.9354166666666662  C 1.8660156249999993 0.6477683594631287  1.5162380858053073 0.41458333333333286  1.0847656249999993 0.41458333333333286  C 0.6532931641946931 0.41458333333333286  0.3035156249999993 0.6477683594631287  0.3035156249999993 0.9354166666666662  Z " fill-rule="nonzero" fill="rgba(85, 85, 85, 1)" stroke="none" transform="matrix(1 0 0 1 20 20 )" class="fill" />
    <path d="M 0.3035156249999993 0.9354166666666662  C 0.3035156249999993 1.2230649738702037  0.6532931641946931 1.4562499999999996  1.0847656249999993 1.4562499999999996  C 1.5162380858053073 1.4562499999999996  1.8660156249999993 1.2230649738702037  1.8660156249999993 0.9354166666666662  C 1.8660156249999993 0.6477683594631287  1.5162380858053073 0.41458333333333286  1.0847656249999993 0.41458333333333286  C 0.6532931641946931 0.41458333333333286  0.3035156249999993 0.6477683594631287  0.3035156249999993 0.9354166666666662  Z " stroke-width="0" stroke-dasharray="0" stroke="rgba(255, 255, 255, 0)" fill="none" transform="matrix(1 0 0 1 20 20 )" class="stroke" mask="url(#Clip1161)" />
  </g>
</svg>