<?xml version="1.0" encoding="utf-8"?>
<svg version="1.1" xmlns:xlink="http://www.w3.org/1999/xlink" width="18px" height="18px" xmlns="http://www.w3.org/2000/svg">
  <g transform="matrix(1 0 0 1 -171 -1094 )">
    <path d="M 17.023 11.093999999999996  L 17.023 3.407  C 17.022692468158773 3.3762127611211232  17.020354056529083 3.345479351130888  17.016000000000002 3.3150000000000004  C 17.012143195314835 1.5295020849475032  15.564501318998012 0.08364907718343306  13.779 0.0820000000000003  L 4.221 0.0820000000000003  C 2.434329730173886 0.08365296439082548  0.9862050020771602 1.531330326182919  1 3.3180000000000005  L 1 15.218  C 0.9843683394374043 16.036637336518403  1.3812818054255622 16.804376059462633  2.0490000000000004 17.278000000000002  C 2.400459840230596 17.580064159038155  2.8485706489905147 17.746109969410004  3.3120000000000003 17.746  L 13.779 17.746  C 15.565670269826118 17.744347035609174  17.013794997922837 16.29666967381708  17.016000000000002 14.509999999999998  L 17.016000000000002 11.330999999999996  C 17.016000000000002 11.251999999999995  17.023 11.173999999999996  17.023 11.093999999999996  Z M 4.221 1.282  L 4.223 1.282  L 13.780999999999999 1.2819999999999996  C 14.905157181662098 1.283101439962644  15.81634655569487 2.193843494715085  15.817999999999998 3.3179999999999996  L 15.818000000000001 11.290000000000003  C 15.713304478988842 12.729979634641943  14.51577849603245 13.845519133696008  13.072 13.848000000000003  L 3.3120000000000003 13.848000000000003  C 2.907269748315279 13.84792621389364  2.5127255523556618 13.974893893976391  2.184 14.211000000000002  L 2.184 3.3179999999999996  C 2.18565344430513 2.1938434947150833  3.0968428183379 1.2831014399626435  4.221 1.282  Z M 13.778999999999996 16.540999999999997  L 13.780999999999999 16.541  L 3.5119999999999996 16.541  C 3.2539846576300153 16.54123161593694  3.00156700889512 16.465784467485875  2.7860000000000005 16.323999999999998  C 2.6445627294518816 16.183899695136382  2.5649907392743607 15.9930786907113  2.5649907392743607 15.793999317287081  C 2.5649907392743607 15.381994893913308  2.898986315900589 15.04799931728708  3.310990739274361 15.04799931728708  C 3.3113271596311744 15.04799931728708  3.311663579951067 15.047999544858104  3.3119999999999994 15.048000000000002  L 13.07 15.048000000000002  C 14.095464061658841 15.04836265466281  15.080624063309322 14.64870196936105  15.815999999999999 13.934000000000001  L 15.815999999999999 14.504999999999999  C 15.814346555694868 15.629156505284914  14.903157181662097 16.539898560037354  13.778999999999996 16.540999999999997  Z " fill-rule="nonzero" fill="#ffffff" stroke="none" transform="matrix(1 0 0 1 171 1094 )" />
  </g>
</svg>