<?xml version="1.0" encoding="utf-8"?>
<svg version="1.1" xmlns:xlink="http://www.w3.org/1999/xlink" width="18px" height="17px" xmlns="http://www.w3.org/2000/svg">
  <g transform="matrix(1 0 0 1 -26 -176 )">
    <path d="M 18 1.2472826086957411  C 17.900999999999954 0.7298913043478024  17.70074999999997 0.4619565217392392  17.534250000000043 0.3279891304348439  C 17.381250000000023 0.20557065217394666  17.115750000000048 0.08084239130425885  16.717499999999973 0.18016304347816003  L 9.150750000000016 2.125  L 9.148500000000013 2.125  C 9.139499999999998 2.1273097826087906  9.130499999999984 2.1273097826087906  9.123749999999973 2.125  L 1.3274999999999864 0.18016304347816003  C 0.9315000000000282 0.07853260869569567  0.6660000000000537 0.2032608695651561  0.5130000000000337 0.3279891304348439  C 0.3442499999999882 0.4619565217392392  0.1462500000000091 0.7298913043478024  0.1462500000000091 1.2449728260869506  L 0.15975000000003092 9.153668478260897  L 0.1642500000000382 13.452173913043453  C 0.1642500000000382 13.780163043478296  0.29475000000002183 14.04809782608686  0.5512499999999818 14.251358695652243  C 0.74249999999995 14.403804347826053  0.9562499999999545 14.473097826087042  1.0575000000000045 14.507744565217308  L 8.707499999999982 16.780570652173992  C 8.811000000000035 16.810597826086905  8.918999999999983 16.826766304347757  9.02475000000004 16.826766304347757  C 9.130499999999984 16.826766304347757  9.238500000000045 16.810597826086905  9.344249999999988 16.780570652173992  L 16.99649999999997 14.507744565217308  L 17.000999999999976 14.505434782608745  C 17.100000000000023 14.473097826087042  17.30925000000002 14.403804347826053  17.500499999999988 14.251358695652243  C 17.756999999999948 14.04809782608686  17.885250000000042 13.780163043478296  18 13.454483695652243  L 18 1.2472826086957411  Z M 8.477999999999952 3.118206521739239  L 8.477999999999952 15.544836956521749  L 1.3792499999999563 13.4360054347826  C 1.3184999999999718 13.415217391304395  1.27800000000002 13.399048913043544  1.25324999999998 13.387500000000045  L 1.2487499999999727 9.15597826086946  L 1.2352499999999509 1.3119565217391482  L 8.477999999999952 3.118206521739239  Z M 16.809750000000008 1.3096467391303577  L 16.79174999999998 13.387500000000045  C 16.769250000000056 13.399048913043544  16.730999999999995 13.415217391304395  16.674750000000017 13.43369565217381  L 9.567000000000007 15.544836956521749  L 9.567000000000007 3.1713315217391482  L 16.809750000000008 1.3096467391303577  Z " fill-rule="nonzero" fill="#4e30dc" stroke="none" transform="matrix(1 0 0 1 26 176 )" />
  </g>
</svg>