<?xml version="1.0" encoding="utf-8"?>
<svg version="1.1" xmlns:xlink="http://www.w3.org/1999/xlink" width="15px" height="10px" xmlns="http://www.w3.org/2000/svg">
  <g transform="matrix(1 0 0 1 -28 -29 )">
    <path d="M 2.678571428571445 1.6666666666666288  L 6.964285714285666 1.6666666666666288  L 6.964285714285666 0  L 8.035714285714334 0  L 8.035714285714334 1.6666666666666288  L 12.321428571428555 1.6666666666666288  C 12.61729540169506 1.6666666666666288  12.85714285714289 1.9153973612051232  12.85714285714289 2.2222222222221717  L 12.85714285714289 3.42999999999995  C 12.506424379984423 3.3441337222229777  12.145002228686621 3.3150860900631187  11.785714285714334 3.3438888888888414  L 11.785714285714334 2.7777777777778283  L 3.2142857142856656 2.7777777777778283  L 3.2142857142856656 3.3438888888888414  C 2.8549981009969088 3.3157324695268926  2.4936713281101675 3.344772436088533  2.1428571428571104 3.42999999999995  L 2.1428571428571104 2.2222222222221717  C 2.1428571428571104 1.9153973612051232  2.38270459830494 1.6666666666666288  2.678571428571445 1.6666666666666288  Z M 2.946428571428555 3.888888888888914  C 4.573696137894331 3.888888888888914  5.89285714285711 5.256907708850349  5.89285714285711 6.944444444444457  C 5.89285714285711 8.631981180038565  4.573696137894331 10  2.946428571428555 10  C 1.3191610049628935 10  0 8.631981180038565  0 6.944444444444457  C 0 5.256907708850349  1.3191610049628935 3.888888888888914  2.946428571428555 3.888888888888914  Z M 2.9464285155492007 5  C 1.9108946096164345 5  1.0714285155492007 5.87055743088456  1.0714285155492007 6.944444444444457  C 1.0714285155492007 8.018331458004354  1.9108946096164345 8.888888888888914  2.9464285155492007 8.888888888888914  C 3.981962421481967 8.888888888888914  4.821428515549201 8.018331458004354  4.821428515549201 6.944444444444457  C 4.821428515549201 5.87055743088456  3.981962421481967 5  2.9464285155492007 5  Z M 12.053571428571445 3.888888888888914  C 13.680838995037107 3.888888888888914  15 5.256907708850349  15 6.944444444444457  C 15 8.631981180038565  13.680838995037107 10  12.053571428571445 10  C 10.42630386210567 10  9.10714285714289 8.631981180038565  9.10714285714289 6.944444444444457  C 9.10714285714289 5.256907708850349  10.42630386210567 3.888888888888914  12.053571428571445 3.888888888888914  Z M 12.05357137269209 5  C 11.018037466759324 5  10.17857137269209 5.87055743088456  10.17857137269209 6.944444444444457  C 10.17857137269209 8.018331458004354  11.018037466759324 8.888888888888914  12.05357137269209 8.888888888888914  C 13.089105278624857 8.888888888888914  13.92857137269209 8.018331458004354  13.92857137269209 6.944444444444457  C 13.92857137269209 5.87055743088456  13.089105278624857 5  12.05357137269209 5  Z " fill-rule="nonzero" fill="#00a1ff" stroke="none" transform="matrix(1 0 0 1 28 29 )" />
  </g>
</svg>