<?xml version="1.0" encoding="utf-8"?>
<svg version="1.1" xmlns:xlink="http://www.w3.org/1999/xlink" width="20px" height="18px" xmlns="http://www.w3.org/2000/svg">
  <g transform="matrix(1 0 0 1 -319 -1295 )">
    <path d="M 19.72222222222222 10.40625  C 19.72222222222222 5.16357421875  15.67426215277778 0.8782470703125  10.57052951388889 0.5791992187499998  C 4.816623263888889 0.2421386718750001  0.01584201388888879 5.0512939453125005  0.28884548611111116 10.880200195312504  C 0.36719903994266917 12.585111109248729  0.8844482342016274 14.239652991961472  1.7892795138888897 15.679687500000002  C 2.052403928319247 16.09863208109185  2.346273719748489 16.49694770128619  2.6684027777777786 16.871264648437503  C 2.9761724978659614 17.230162257432557  3.422276163302617 17.436651393525004  3.891710069444445 17.4375  L 16.108289930555557 17.437500000000004  C 16.577723836697384 17.436651393525004  17.023827502134036 17.23016225743256  17.331597222222225 16.871264648437503  C 17.653726280251515 16.49694770128619  17.947596071680756 16.098632081091843  18.210720486111114 15.679687500000002  C 19.200697005564333 14.103680565856392  19.725129593497037 12.27400190300433  19.72222222222222 10.40625  Z M 17.98611111111111 10.40625  C 17.988858829158428 12.19161848369347  17.405390911547897 13.927264727454904  16.327473958333336 15.3402099609375  C 16.16334509067601 15.554682318864321  15.91033087759222 15.680052384180962  15.64236111111111 15.6796875  L 4.3576388888888875 15.679687499999998  C 4.089910244806209 15.680394351762766  3.8370015451020794 15.555321781216929  3.6729600694444438 15.3410888671875  C 2.608746723191773 13.946685294749333  2.0259016159259273 12.237197545589318  2.013888888888889 10.475024414062501  C 1.9778645833333335 6.07587890625  5.444227430555555 2.43720703125  9.787760416666668 2.3231689453125  C 14.295355902777775 2.204736328125  17.98611111111111 5.8691162109374995  17.98611111111111 10.40625  Z " fill-rule="nonzero" fill="#ffffff" stroke="none" transform="matrix(1 0 0 1 319 1295 )" />
  </g>
</svg>