<?xml version="1.0" encoding="utf-8"?>
<svg version="1.1" xmlns:xlink="http://www.w3.org/1999/xlink" width="24px" height="24px" xmlns="http://www.w3.org/2000/svg">
  <g transform="matrix(1 0 0 1 -351 -144 )">
    <path d="M 363 148.5  C 367.2 148.5  370.5 151.8  370.5 156  C 370.5 160.2  367.2 163.5  363 163.5  C 358.8 163.5  355.5 160.2  355.5 156  C 355.5 151.8  358.8 148.5  363 148.5  Z " fill-rule="nonzero" fill="#ffffff" stroke="none" />
    <path d="M 363 146.5  C 368.32 146.5  372.5 150.68  372.5 156  C 372.5 161.32  368.32 165.5  363 165.5  C 357.68 165.5  353.5 161.32  353.5 156  C 353.5 150.68  357.68 146.5  363 146.5  Z " stroke-width="5" stroke="#409eff" fill="none" stroke-opacity="0.4980392156862745" />
  </g>
</svg>