<?xml version="1.0" encoding="utf-8"?>
<svg version="1.1" xmlns:xlink="http://www.w3.org/1999/xlink" width="16px" height="12px" xmlns="http://www.w3.org/2000/svg">
  <g transform="matrix(1 0 0 1 -224 -25 )">
    <path d="M 15.915178571428571 7.799107142857142  C 15.971726190476192 7.855654761904761  16 7.9226190476190474  16 8  L 16 9.714285714285715  C 16 9.791666666666668  15.971726190476192 9.858630952380953  15.915178571428571 9.915178571428571  C 15.858630952380954 9.97172619047619  15.79166666666667 10  15.714285714285714 10  L 3.4285714285714284 10  L 3.4285714285714284 11.714285714285714  C 3.4285714285714284 11.791666666666668  3.400297619047619 11.858630952380953  3.34375 11.915178571428573  C 3.287202380952381 11.97172619047619  3.2202380952380953 12  3.142857142857143 12  C 3.0714285714285716 12  3 11.970238095238095  2.9285714285714284 11.910714285714286  L 0.08035714285714286 9.053571428571429  C 0.026785714285714284 9  0 8.934523809523808  0 8.857142857142858  C 0 8.773809523809522  0.026785714285714284 8.705357142857142  0.08035714285714286 8.651785714285714  L 2.9375 5.794642857142858  C 2.9910714285714284 5.741071428571429  3.0595238095238098 5.7142857142857135  3.142857142857143 5.7142857142857135  C 3.2202380952380953 5.7142857142857135  3.287202380952381 5.742559523809524  3.34375 5.799107142857143  C 3.400297619047619 5.855654761904761  3.4285714285714284 5.922619047619047  3.4285714285714284 6  L 3.4285714285714284 7.7142857142857135  L 15.714285714285714 7.7142857142857135  C 15.79166666666667 7.7142857142857135  15.858630952380954 7.742559523809525  15.915178571428571 7.799107142857142  Z M 15.919642857142858 2.9374999999999996  C 15.973214285714286 2.991071428571428  16 3.0595238095238093  16 3.1428571428571423  C 16 3.2261904761904754  15.973214285714286 3.2946428571428568  15.919642857142858 3.348214285714285  L 13.0625 6.205357142857142  C 13.008928571428571 6.258928571428571  12.940476190476192 6.2857142857142865  12.857142857142858 6.2857142857142865  C 12.779761904761907 6.2857142857142865  12.71279761904762 6.257440476190476  12.65625 6.200892857142857  C 12.599702380952381 6.144345238095237  12.571428571428571 6.0773809523809526  12.571428571428571 6  L 12.571428571428571 4.285714285714285  L 0.2857142857142857 4.285714285714285  C 0.20833333333333334 4.285714285714285  0.14136904761904762 4.257440476190476  0.08482142857142858 4.200892857142858  C 0.028273809523809524 4.144345238095237  0 4.0773809523809526  0 4  L 0 2.2857142857142856  C 0 2.208333333333332  0.028273809523809524 2.141369047619047  0.08482142857142858 2.084821428571429  C 0.14136904761904762 2.028273809523808  0.20833333333333334 1.9999999999999996  0.2857142857142857 2  L 12.571428571428571 2  L 12.571428571428571 0.28571428571428603  C 12.571428571428571 0.20238095238095166  12.598214285714286 0.13392857142857162  12.651785714285714 0.08035714285714324  C 12.705357142857142 0.026785714285714857  12.773809523809524 0  12.857142857142858 0  C 12.928571428571429 0  13 0.029761904761904656  13.071428571428571 0.08928571428571397  L 15.919642857142858 2.9374999999999996  Z " fill-rule="nonzero" fill="#ffffff" stroke="none" transform="matrix(1 0 0 1 224 25 )" />
  </g>
</svg>