<?xml version="1.0" encoding="utf-8"?>
<svg version="1.1" xmlns:xlink="http://www.w3.org/1999/xlink" width="17px" height="20px" xmlns="http://www.w3.org/2000/svg">
  <g transform="matrix(1 0 0 1 -28 -356 )">
    <path d="M 14.166666666666668 5.7142857142857135  C 14.166666666666668 6.8080357142857135  13.87521701388889 7.8199404761904745  13.292317708333332 8.75  C 13.639105902777779 8.854166666666664  13.969292534722223 8.995535714285714  14.282877604166668 9.174107142857142  C 14.596462673611112 9.352678571428573  14.9248046875 9.62425595238095  15.267903645833332 9.988839285714286  C 15.611002604166668 10.353422619047619  15.904296875 10.783110119047619  16.147786458333332 11.277901785714286  C 16.391276041666668 11.77269345238095  16.59418402777778 12.412574404761902  16.756510416666668 13.197544642857144  C 16.918836805555554 13.982514880952381  17 14.86235119047619  17 15.837053571428573  C 17 16.982886904761905  16.63107638888889 17.963169642857142  15.893229166666668 18.777901785714285  C 15.155381944444446 19.592633928571427  14.266276041666668 20  13.225911458333332 20  L 3.774088541666667 20  C 2.733723958333333 20  1.8446180555555558 19.592633928571427  1.1067708333333335 18.777901785714285  C 0.36892361111111105 17.963169642857142  0 16.982886904761905  0 15.837053571428573  C 0 14.86235119047619  0.08116319444444443 13.982514880952381  0.24348958333333331 13.197544642857144  C 0.40581597222222227 12.412574404761902  0.6087239583333333 11.77269345238095  0.8522135416666667 11.277901785714286  C 1.095703125 10.783110119047619  1.3889973958333335 10.353422619047619  1.7320963541666665 9.988839285714286  C 2.0751953125 9.62425595238095  2.4035373263888893 9.352678571428573  2.717122395833333 9.174107142857142  C 3.030707465277778 8.995535714285714  3.3608940972222223 8.854166666666664  3.707682291666667 8.75  C 3.1247829861111116 7.8199404761904745  2.833333333333333 6.8080357142857135  2.833333333333333 5.7142857142857135  C 2.833333333333333 4.940476190476188  2.982747395833333 4.202008928571428  3.281575520833333 3.498883928571428  C 3.580403645833333 2.795758928571428  3.984375 2.1875  4.493489583333334 1.674107142857142  C 5.002604166666666 1.160714285714286  5.605794270833334 0.753348214285714  6.303059895833334 0.45200892857142794  C 7.000325520833334 0.1506696428571419  7.732638888888889 0  8.5 0  C 9.267361111111112 0  9.999674479166668 0.1506696428571419  10.696940104166668 0.45200892857142794  C 11.394205729166668 0.753348214285714  11.997395833333332 1.160714285714286  12.506510416666668 1.674107142857142  C 13.015625 2.1875  13.419596354166668 2.795758928571428  13.718424479166668 3.498883928571428  C 14.017252604166668 4.202008928571428  14.166666666666668 4.940476190476188  14.166666666666668 5.7142857142857135  Z M 11.5048828125 2.684151785714286  C 10.674804687500002 1.847098214285714  9.673177083333334 1.428571428571428  8.5 1.428571428571428  C 7.326822916666666 1.428571428571428  6.3251953125 1.847098214285714  5.4951171875 2.684151785714286  C 4.6650390625 3.521205357142858  4.25 4.53125  4.25 5.7142857142857135  C 4.25 6.897321428571428  4.6650390625 7.907366071428572  5.4951171875 8.744419642857142  C 6.3251953125 9.581473214285714  7.326822916666666 10  8.5 10  C 9.673177083333334 10  10.674804687500002 9.581473214285714  11.5048828125 8.744419642857142  C 12.3349609375 7.907366071428572  12.75 6.897321428571428  12.75 5.7142857142857135  C 12.75 4.53125  12.3349609375 3.521205357142858  11.5048828125 2.684151785714286  Z M 3.774088541666667 18.571428571428573  L 13.225911458333332 18.571428571428573  C 13.87521701388889 18.571428571428573  14.430447048611112 18.305431547619047  14.8916015625 17.7734375  C 15.35275607638889 17.241443452380953  15.583333333333332 16.595982142857146  15.583333333333332 15.837053571428573  C 15.583333333333332 14.058779761904761  15.293728298611112 12.65625  14.714518229166668 11.629464285714286  C 14.135308159722223 10.602678571428573  13.303385416666668 10.063244047619047  12.21875 10.011160714285714  C 11.148871527777777 10.95610119047619  9.909288194444445 11.428571428571427  8.5 11.428571428571427  C 7.090711805555556 11.428571428571427  5.851128472222223 10.95610119047619  4.78125 10.011160714285714  C 3.696614583333333 10.063244047619047  2.864691840277778 10.602678571428573  2.285481770833333 11.629464285714286  C 1.706271701388889 12.65625  1.4166666666666665 14.058779761904761  1.4166666666666665 15.837053571428573  C 1.4166666666666665 16.595982142857146  1.6472439236111112 17.241443452380953  2.1083984375 17.7734375  C 2.5695529513888893 18.305431547619047  3.1247829861111116 18.571428571428573  3.774088541666667 18.571428571428573  Z " fill-rule="nonzero" fill="#ffffff" stroke="none" transform="matrix(1 0 0 1 28 356 )" />
  </g>
</svg>