<?xml version="1.0" encoding="utf-8"?>
<svg version="1.1" xmlns:xlink="http://www.w3.org/1999/xlink" width="15px" height="15px" xmlns="http://www.w3.org/2000/svg">
  <g transform="matrix(1 0 0 1 -263 -16 )">
    <path d="M 9.267578125 9.267578125  C 9.755859375 8.779296875  10 8.190104166666629  10 7.5  C 10 6.809895833333371  9.755859375 6.220703125  9.267578125 5.732421875  C 8.779296875 5.244140625  8.190104166666686 5  7.5 5  C 6.809895833333314 5  6.220703125 5.244140625  5.732421875 5.732421875  C 5.244140625 6.220703125  5 6.809895833333371  5 7.5  C 5 8.190104166666629  5.244140625 8.779296875  5.732421875 9.267578125  C 6.220703125 9.755859375  6.809895833333314 10  7.5 10  C 8.190104166666686 10  8.779296875 9.755859375  9.267578125 9.267578125  Z M 14.921875 6.2060546875  C 14.973958333333314 6.2744140625  15 6.350911458333371  15 6.435546875  L 15 8.603515625  C 15 8.681640625  14.973958333333314 8.756510416666629  14.921875 8.828125  C 14.869791666666686 8.899739583333371  14.8046875 8.942057291666629  14.7265625 8.955078125  L 12.919921875 9.228515625  C 12.796223958333314 9.580078125  12.669270833333314 9.876302083333371  12.5390625 10.1171875  C 12.766927083333314 10.442708333333371  13.115234375 10.891927083333371  13.583984375 11.46484375  C 13.649088541666686 11.54296875  13.681640625 11.624348958333371  13.681640625 11.708984375  C 13.681640625 11.793619791666629  13.65234375 11.868489583333371  13.59375 11.93359375  C 13.41796875 12.174479166666629  13.095703125 12.526041666666629  12.626953125 12.98828125  C 12.158203125 13.450520833333371  11.852213541666686 13.681640625  11.708984375 13.681640625  C 11.630859375 13.681640625  11.546223958333314 13.65234375  11.455078125 13.59375  L 10.107421875 12.5390625  C 9.820963541666686 12.688802083333371  9.524739583333314 12.8125  9.21875 12.91015625  C 9.114583333333314 13.795572916666629  9.020182291666686 14.401041666666629  8.935546875 14.7265625  C 8.889973958333314 14.908854166666629  8.772786458333314 15  8.583984375 15  L 6.416015625 15  C 6.324869791666686 15  6.2451171875 14.972330729166629  6.1767578125 14.9169921875  C 6.1083984375 14.861653645833371  6.070963541666686 14.791666666666629  6.064453125 14.70703125  L 5.791015625 12.91015625  C 5.472005208333314 12.805989583333371  5.179036458333314 12.685546875  4.912109375 12.548828125  L 3.53515625 13.59375  C 3.4700520833333144 13.65234375  3.388671875 13.681640625  3.291015625 13.681640625  C 3.1998697916666856 13.681640625  3.1184895833333144 13.645833333333371  3.046875 13.57421875  C 2.2265625 12.83203125  1.689453125 12.28515625  1.435546875 11.93359375  C 1.3899739583333144 11.868489583333371  1.3671875 11.793619791666629  1.3671875 11.708984375  C 1.3671875 11.630859375  1.3932291666666856 11.555989583333371  1.4453125 11.484375  C 1.54296875 11.34765625  1.708984375 11.131184895833371  1.9433593749999998 10.8349609375  C 2.177734375 10.538736979166629  2.353515625 10.309244791666629  2.470703125 10.146484375  C 2.294921875 9.820963541666629  2.1614583333333144 9.498697916666629  2.0703125 9.1796875  L 0.283203125 8.916015625  C 0.19856770833331439 8.902994791666629  0.13020833333331439 8.8623046875  0.078125 8.7939453125  C 0.026041666666685614 8.7255859375  0 8.649088541666629  0 8.564453125  L 0 6.396484375  C 0 6.318359375  0.026041666666685614 6.243489583333371  0.078125 6.171875  C 0.13020833333331439 6.100260416666629  0.19205729166668561 6.057942708333371  0.263671875 6.044921875  L 2.080078125 5.771484375  C 2.1712239583333144 5.472005208333371  2.2981770833333144 5.172526041666629  2.4609375 4.873046875  C 2.2005208333333144 4.501953125  1.8522135416666856 4.052734375  1.416015625 3.525390625  C 1.3509114583333144 3.447265625  1.318359375 3.369140625  1.318359375 3.291015625  C 1.318359375 3.2259114583333712  1.34765625 3.1510416666666288  1.40625 3.06640625  C 1.5755208333333144 2.83203125  1.8961588541666856 2.4820963541666288  2.3681640625 2.0166015625  C 2.8401692708333144 1.5511067708333712  3.1477864583333144 1.318359375  3.291015625 1.318359375  C 3.3756510416666856 1.318359375  3.4602864583333144 1.3509114583333712  3.544921875 1.416015625  L 4.892578125 2.4609375  C 5.179036458333314 2.3111979166666288  5.475260416666686 2.1875  5.78125 2.08984375  C 5.885416666666686 1.2044270833333712  5.979817708333314 0.5989583333333712  6.064453125 0.2734375  C 6.110026041666686 0.09114583333337123  6.227213541666686 0  6.416015625 0  L 8.583984375 0  C 8.675130208333314 0  8.7548828125 0.02766927083337123  8.8232421875 0.0830078125  C 8.8916015625 0.13834635416662877  8.929036458333314 0.20833333333337123  8.935546875 0.29296875  L 9.208984375 2.08984375  C 9.527994791666686 2.1940104166666288  9.820963541666686 2.314453125  10.087890625 2.451171875  L 11.474609375 1.40625  C 11.533203125 1.34765625  11.611328125 1.318359375  11.708984375 1.318359375  C 11.793619791666686 1.318359375  11.875 1.3509114583333712  11.953125 1.416015625  C 12.79296875 2.1907552083333712  13.330078125 2.744140625  13.564453125 3.076171875  C 13.610026041666686 3.1282552083333712  13.6328125 3.1998697916666288  13.6328125 3.291015625  C 13.6328125 3.369140625  13.606770833333314 3.4440104166666288  13.5546875 3.515625  C 13.45703125 3.65234375  13.291015625 3.8688151041666288  13.056640625 4.1650390625  C 12.822265625 4.461263020833371  12.646484375 4.690755208333371  12.529296875 4.853515625  C 12.698567708333314 5.179036458333371  12.83203125 5.498046875  12.9296875 5.810546875  L 14.716796875 6.083984375  C 14.801432291666686 6.097005208333371  14.869791666666686 6.1376953125  14.921875 6.2060546875  Z " fill-rule="nonzero" fill="#f9985e" stroke="none" transform="matrix(1 0 0 1 263 16 )" />
  </g>
</svg>