<?xml version="1.0" encoding="utf-8"?>
<svg version="1.1" xmlns:xlink="http://www.w3.org/1999/xlink" width="230px" height="142px" xmlns="http://www.w3.org/2000/svg">
  <defs>
    <mask fill="white" id="clip262">
      <path d="M 0 142  L 0 7  L 178.9999999431493 7  L 189 0  L 197.0000000000822 7  L 230 7  L 230 142  L 0 142  Z " fill-rule="evenodd" />
    </mask>
  </defs>
  <g transform="matrix(1 0 0 1 -81 -33 )">
    <path d="M 0 142  L 0 7  L 178.9999999431493 7  L 189 0  L 197.0000000000822 7  L 230 7  L 230 142  L 0 142  Z " fill-rule="nonzero" fill="#ffffff" stroke="none" transform="matrix(1 0 0 1 81 33 )" />
    <path d="M 0 142  L 0 7  L 178.9999999431493 7  L 189 0  L 197.0000000000822 7  L 230 7  L 230 142  L 0 142  Z " stroke-width="2" stroke="#fee9d1" fill="none" transform="matrix(1 0 0 1 81 33 )" mask="url(#clip262)" />
  </g>
</svg>