<?xml version="1.0" encoding="utf-8"?>
<svg version="1.1" xmlns:xlink="http://www.w3.org/1999/xlink" width="18px" height="18px" xmlns="http://www.w3.org/2000/svg">
  <g transform="matrix(1 0 0 1 -100 -69 )">
    <path d="M 109 69  C 114.04 69  118 72.96  118 78  C 118 83.04  114.04 87  109 87  C 103.96 87  100 83.04  100 78  C 100 72.96  103.96 69  109 69  Z " fill-rule="nonzero" fill="#ffffff" stroke="none" />
    <path d="M 109 69.5  C 113.76 69.5  117.5 73.24  117.5 78  C 117.5 82.76  113.76 86.5  109 86.5  C 104.24 86.5  100.5 82.76  100.5 78  C 100.5 73.24  104.24 69.5  109 69.5  Z " stroke-width="1" stroke="#f0f6ff" fill="none" />
  </g>
</svg>