<svg t="1750216165604" class="icon" viewBox="0 0 1170 1024" version="1.1" xmlns="http://www.w3.org/2000/svg" p-id="9473" width="16" height="16"><path d="M673.865143 62.171429c28.086857 0 51.273143 20.845714 54.930286 47.908571l0.512 7.533714V208.457143l255.561142 0.073143c28.598857 0 56.246857 9.947429 78.043429 28.013714l8.996571 8.265143c20.114286 20.260571 32.402286 46.957714 34.889143 75.849143l0.365715 11.483428v555.446857a122.148571 122.148571 0 0 1-110.738286 121.782858l-11.556572 0.512H184.466286A122.148571 122.148571 0 0 1 62.171429 887.515429V332.214857A122.148571 122.148571 0 0 1 184.466286 208.457143h255.926857V117.613714c0-28.086857 20.918857-51.2 47.981714-54.930285L495.908571 62.171429h177.956572zM584.850286 395.556571c-71.68 0-131.072-52.150857-142.482286-120.612571H184.466286a55.661714 55.661714 0 0 0-55.881143 57.051429v555.52c0 30.866286 25.014857 55.881143 55.881143 55.881142h800.402285a55.734857 55.734857 0 0 0 55.442286-48.713142l0.438857-7.168V331.849143a55.661714 55.661714 0 0 0-47.616-56.393143l-8.265143-0.585143h-257.462857a144.457143 144.457143 0 0 1-142.555428 120.685714z m-196.754286-21.942857a136.557714 136.557714 0 0 1 135.314286 138.093715 134.582857 134.582857 0 0 1-27.940572 79.652571l-7.899428 9.362286-4.754286 4.608 2.194286 0.877714-1.170286 0.658286 4.461714 2.194285a225.28 225.28 0 0 1 121.051429 173.348572l1.243428 14.994286 0.365715 14.262857c-0.073143 13.750857-1.316571 27.428571-3.730286 40.740571a33.28 33.28 0 0 1-26.770286 27.428572l-5.997714 0.585142H201.581714a33.060571 33.060571 0 0 1-32.548571-27.794285 220.379429 220.379429 0 0 1-3.657143-40.886857 224.987429 224.987429 0 0 1 101.302857-190.317715l13.604572-8.338285 12.507428-6.509715-1.462857-1.097143L292.571429 604.891429l-6.729143-7.094858a135.021714 135.021714 0 0 1-31.085715-64.950857l-1.609142-12.288-0.512-12.434285a135.460571 135.460571 0 0 1 124.342857-134.144l11.117714-0.438858z m0 277.211429l-13.750857 0.731428a157.988571 157.988571 0 0 0-142.116572 146.066286l-0.365714 15.798857h312.685714l0.073143-1.974857a157.988571 157.988571 0 0 0-35.547428-102.473143l-9.289143-10.459428a157.988571 157.988571 0 0 0-97.792-46.957715l-13.897143-0.731428z m468.699429 91.721143h0.804571c13.897143 1.609143 24.576 15.945143 24.576 33.206857 0 15.067429-8.118857 27.940571-20.041143 32.036571l-5.339428 1.170286H712.923429c-14.848-0.146286-26.843429-14.921143-26.916572-33.353143 0-8.777143 2.852571-17.261714 7.899429-23.478857a25.746286 25.746286 0 0 1 13.897143-8.996571l5.193142-0.585143h143.798858z m0-146.285715h0.804571c13.897143 1.609143 24.576 15.945143 24.576 33.206858 0 15.067429-8.118857 27.940571-20.041143 32.036571l-5.339428 1.170286H712.923429c-14.848-0.146286-26.843429-14.921143-26.916572-33.353143 0-8.777143 2.852571-17.261714 7.899429-23.478857a25.746286 25.746286 0 0 1 13.897143-8.996572l5.193142-0.585143h143.798858z m-469.577143-151.332571a68.973714 68.973714 0 0 0 1.243428 137.947429 70.144 70.144 0 0 0 69.12-71.094858 68.973714 68.973714 0 0 0-70.363428-66.852571z m321.097143-4.461714h239.104c10.24-1.170286 20.041143 4.900571 25.453714 15.652571a40.009143 40.009143 0 0 1 0 35.108572 27.209143 27.209143 0 0 1-19.968 15.579428H713.874286c-10.24 1.170286-20.041143-4.900571-25.453715-15.652571a40.009143 40.009143 0 0 1 0-35.108572 27.209143 27.209143 0 0 1 19.968-15.579428z m-45.494858-311.881143H506.806857v122.514286c0 40.228571 30.500571 73.289143 69.558857 77.531428l8.484572 0.512c40.228571 0 73.362286-30.427429 77.531428-69.485714l0.512-8.557714-0.073143-122.514286z" fill="#515151" p-id="9474"></path></svg>