<?xml version="1.0" encoding="utf-8"?>
<svg version="1.1" xmlns:xlink="http://www.w3.org/1999/xlink" width="16px" height="16px" xmlns="http://www.w3.org/2000/svg">
  <defs>
    <pattern id="BGPattern" patternUnits="userSpaceOnUse" alignment="0 0" imageRepeat="None" />
    <mask fill="white" id="Clip1360">
      <path d="M 1.99642857142857 0.6089285714285716  C 6.0232142857142845 0.6107142857142858  10.048214285714284 0.6107142857142858  14.075000000000001 0.6107142857142858  C 14.144642857142857 0.6285714285714287  14.214285714285714 0.6446428571428573  14.282142857142858 0.6642857142857144  C 14.883928571428573 0.8375000000000001  15.339285714285717 1.4410714285714283  15.417857142857144 2.1750000000000003  C 15.426785714285716 2.257142857142857  15.42857142857143 2.341071428571429  15.42857142857143 2.423214285714286  L 15.42857142857143 11.553571428571429  C 15.42857142857143 12.487499999999999  14.871428571428572 13.241071428571429  14.100000000000003 13.353571428571428  C 14.051785714285716 13.360714285714284  14.003571428571432 13.360714285714284  13.953571428571431 13.360714285714284  C 13.508928571428573 13.360714285714284  13.064285714285717 13.355357142857143  12.619642857142859 13.364285714285714  C 12.407142857142858 13.367857142857144  12.19107142857143 13.174999999999999  12.189285714285715 12.869642857142855  C 12.185714285714285 12.585714285714285  12.375 12.367857142857142  12.623214285714285 12.367857142857142  L 13.923214285714284 12.367857142857142  C 14.310714285714285 12.367857142857142  14.599999999999998 12.0125  14.599999999999998 11.548214285714284  C 14.598214285714283 8.52142857142857  14.59642857142857 5.494642857142856  14.601785714285713 2.4678571428571416  C 14.601785714285713 1.9910714285714275  14.341071428571427 1.6999999999999988  14.091071428571427 1.6339285714285705  C 14.037499999999998 1.6196428571428558  13.982142857142856 1.6107142857142844  13.926785714285712 1.6107142857142844  C 9.989285714285712 1.6089285714285704  6.051785714285712 1.6089285714285704  2.112499999999997 1.6107142857142844  C 1.7392857142857114 1.6107142857142844  1.44285714285714 1.9678571428571416  1.44285714285714 2.4160714285714273  L 1.44285714285714 11.571428571428571  C 1.44285714285714 12.014285714285714  1.7392857142857114 12.367857142857144  2.110714285714283 12.367857142857144  C 4.739285714285712 12.367857142857144  7.369642857142854 12.369642857142859  9.998214285714283 12.364285714285714  C 10.21785714285714 12.364285714285714  10.453571428571426 12.557142857142855  10.44642857142857 12.926785714285714  C 10.435714285714283 13.403571428571428  10.44285714285714 13.880357142857141  10.441071428571428 14.358928571428573  C 10.441071428571428 14.380357142857145  10.444642857142856 14.401785714285714  10.44642857142857 14.432142857142859  L 10.530357142857142 14.432142857142859  C 10.780357142857142 14.432142857142859  11.030357142857142 14.430357142857144  11.280357142857142 14.432142857142859  C 11.491071428571427 14.433928571428572  11.664285714285713 14.623214285714287  11.687499999999998 14.867857142857144  C 11.712499999999997 15.125  11.58392857142857 15.351785714285715  11.376785714285713 15.4125  C 11.360714285714284 15.417857142857143  11.344642857142857 15.419642857142858  11.328571428571426 15.421428571428573  C 11.307142857142853 15.423214285714286  11.287499999999998 15.423214285714286  11.266071428571426 15.423214285714286  C 9.528571428571427 15.425  7.791071428571426 15.428571428571429  6.053571428571426 15.430357142857144  C 5.623214285714283 15.430357142857144  5.192857142857141 15.426785714285714  4.760714285714284 15.423214285714286  C 4.526785714285713 15.421428571428573  4.348214285714284 15.205357142857142  4.348214285714284 14.926785714285716  C 4.348214285714284 14.65357142857143  4.532142857142856 14.432142857142859  4.7642857142857125 14.430357142857146  C 5.0142857142857125 14.42857142857143  5.2642857142857125 14.430357142857146  5.5142857142857125 14.430357142857146  L 5.594642857142856 14.430357142857146  L 5.594642857142856 13.36071428571429  L 5.489285714285713 13.36071428571429  C 4.364285714285713 13.36071428571429  3.2374999999999985 13.353571428571431  2.1124999999999985 13.362500000000002  C 1.4267857142857128 13.367857142857146  0.7553571428571415 12.780357142857145  0.626785714285713 11.850000000000003  C 0.6196428571428557 11.79821428571429  0.6142857142857129 11.746428571428575  0.6071428571428559 11.694642857142858  L 0.6071428571428559 2.273214285714286  C 0.6124999999999987 2.2464285714285714  0.6178571428571414 2.2196428571428575  0.6214285714285701 2.192857142857143  C 0.7107142857142844 1.4642857142857142  1.0446428571428559 0.9678571428571432  1.6196428571428558 0.7125000000000001  C 1.7392857142857128 0.6589285714285715  1.8696428571428558 0.6428571428571429  1.99642857142857 0.6089285714285716  Z M 6.439285714285714 14.426785714285714  L 9.6 14.426785714285714  C 9.60357142857143 14.408928571428572  9.605357142857143 14.401785714285714  9.605357142857143 14.392857142857142  C 9.605357142857143 14.071428571428571  9.605357142857143 13.75  9.607142857142858 13.428571428571429  C 9.607142857142858 13.358928571428573  9.571428571428571 13.362499999999999  9.533928571428572 13.362499999999999  C 8.525 13.362499999999999  7.514285714285713 13.362499999999999  6.505357142857142 13.360714285714284  C 6.44642857142857 13.360714285714284  6.430357142857142 13.385714285714284  6.432142857142856 13.453571428571427  C 6.433928571428571 13.75  6.432142857142856 14.046428571428573  6.433928571428571 14.344642857142857  C 6.433928571428571 14.37142857142857  6.437499999999999 14.398214285714285  6.439285714285714 14.426785714285714  Z " fill-rule="evenodd" />
    </mask>
  </defs>
  <g transform="matrix(1 0 0 1 -17 -15 )">
    <path d="M 1.99642857142857 0.6089285714285716  C 6.0232142857142845 0.6107142857142858  10.048214285714284 0.6107142857142858  14.075000000000001 0.6107142857142858  C 14.144642857142857 0.6285714285714287  14.214285714285714 0.6446428571428573  14.282142857142858 0.6642857142857144  C 14.883928571428573 0.8375000000000001  15.339285714285717 1.4410714285714283  15.417857142857144 2.1750000000000003  C 15.426785714285716 2.257142857142857  15.42857142857143 2.341071428571429  15.42857142857143 2.423214285714286  L 15.42857142857143 11.553571428571429  C 15.42857142857143 12.487499999999999  14.871428571428572 13.241071428571429  14.100000000000003 13.353571428571428  C 14.051785714285716 13.360714285714284  14.003571428571432 13.360714285714284  13.953571428571431 13.360714285714284  C 13.508928571428573 13.360714285714284  13.064285714285717 13.355357142857143  12.619642857142859 13.364285714285714  C 12.407142857142858 13.367857142857144  12.19107142857143 13.174999999999999  12.189285714285715 12.869642857142855  C 12.185714285714285 12.585714285714285  12.375 12.367857142857142  12.623214285714285 12.367857142857142  L 13.923214285714284 12.367857142857142  C 14.310714285714285 12.367857142857142  14.599999999999998 12.0125  14.599999999999998 11.548214285714284  C 14.598214285714283 8.52142857142857  14.59642857142857 5.494642857142856  14.601785714285713 2.4678571428571416  C 14.601785714285713 1.9910714285714275  14.341071428571427 1.6999999999999988  14.091071428571427 1.6339285714285705  C 14.037499999999998 1.6196428571428558  13.982142857142856 1.6107142857142844  13.926785714285712 1.6107142857142844  C 9.989285714285712 1.6089285714285704  6.051785714285712 1.6089285714285704  2.112499999999997 1.6107142857142844  C 1.7392857142857114 1.6107142857142844  1.44285714285714 1.9678571428571416  1.44285714285714 2.4160714285714273  L 1.44285714285714 11.571428571428571  C 1.44285714285714 12.014285714285714  1.7392857142857114 12.367857142857144  2.110714285714283 12.367857142857144  C 4.739285714285712 12.367857142857144  7.369642857142854 12.369642857142859  9.998214285714283 12.364285714285714  C 10.21785714285714 12.364285714285714  10.453571428571426 12.557142857142855  10.44642857142857 12.926785714285714  C 10.435714285714283 13.403571428571428  10.44285714285714 13.880357142857141  10.441071428571428 14.358928571428573  C 10.441071428571428 14.380357142857145  10.444642857142856 14.401785714285714  10.44642857142857 14.432142857142859  L 10.530357142857142 14.432142857142859  C 10.780357142857142 14.432142857142859  11.030357142857142 14.430357142857144  11.280357142857142 14.432142857142859  C 11.491071428571427 14.433928571428572  11.664285714285713 14.623214285714287  11.687499999999998 14.867857142857144  C 11.712499999999997 15.125  11.58392857142857 15.351785714285715  11.376785714285713 15.4125  C 11.360714285714284 15.417857142857143  11.344642857142857 15.419642857142858  11.328571428571426 15.421428571428573  C 11.307142857142853 15.423214285714286  11.287499999999998 15.423214285714286  11.266071428571426 15.423214285714286  C 9.528571428571427 15.425  7.791071428571426 15.428571428571429  6.053571428571426 15.430357142857144  C 5.623214285714283 15.430357142857144  5.192857142857141 15.426785714285714  4.760714285714284 15.423214285714286  C 4.526785714285713 15.421428571428573  4.348214285714284 15.205357142857142  4.348214285714284 14.926785714285716  C 4.348214285714284 14.65357142857143  4.532142857142856 14.432142857142859  4.7642857142857125 14.430357142857146  C 5.0142857142857125 14.42857142857143  5.2642857142857125 14.430357142857146  5.5142857142857125 14.430357142857146  L 5.594642857142856 14.430357142857146  L 5.594642857142856 13.36071428571429  L 5.489285714285713 13.36071428571429  C 4.364285714285713 13.36071428571429  3.2374999999999985 13.353571428571431  2.1124999999999985 13.362500000000002  C 1.4267857142857128 13.367857142857146  0.7553571428571415 12.780357142857145  0.626785714285713 11.850000000000003  C 0.6196428571428557 11.79821428571429  0.6142857142857129 11.746428571428575  0.6071428571428559 11.694642857142858  L 0.6071428571428559 2.273214285714286  C 0.6124999999999987 2.2464285714285714  0.6178571428571414 2.2196428571428575  0.6214285714285701 2.192857142857143  C 0.7107142857142844 1.4642857142857142  1.0446428571428559 0.9678571428571432  1.6196428571428558 0.7125000000000001  C 1.7392857142857128 0.6589285714285715  1.8696428571428558 0.6428571428571429  1.99642857142857 0.6089285714285716  Z M 6.439285714285714 14.426785714285714  L 9.6 14.426785714285714  C 9.60357142857143 14.408928571428572  9.605357142857143 14.401785714285714  9.605357142857143 14.392857142857142  C 9.605357142857143 14.071428571428571  9.605357142857143 13.75  9.607142857142858 13.428571428571429  C 9.607142857142858 13.358928571428573  9.571428571428571 13.362499999999999  9.533928571428572 13.362499999999999  C 8.525 13.362499999999999  7.514285714285713 13.362499999999999  6.505357142857142 13.360714285714284  C 6.44642857142857 13.360714285714284  6.430357142857142 13.385714285714284  6.432142857142856 13.453571428571427  C 6.433928571428571 13.75  6.432142857142856 14.046428571428573  6.433928571428571 14.344642857142857  C 6.433928571428571 14.37142857142857  6.437499999999999 14.398214285714285  6.439285714285714 14.426785714285714  Z " fill-rule="nonzero" fill="rgba(81, 81, 81, 1)" stroke="none" transform="matrix(1 0 0 1 17 15 )" class="fill" />
    <path d="M 1.99642857142857 0.6089285714285716  C 6.0232142857142845 0.6107142857142858  10.048214285714284 0.6107142857142858  14.075000000000001 0.6107142857142858  C 14.144642857142857 0.6285714285714287  14.214285714285714 0.6446428571428573  14.282142857142858 0.6642857142857144  C 14.883928571428573 0.8375000000000001  15.339285714285717 1.4410714285714283  15.417857142857144 2.1750000000000003  C 15.426785714285716 2.257142857142857  15.42857142857143 2.341071428571429  15.42857142857143 2.423214285714286  L 15.42857142857143 11.553571428571429  C 15.42857142857143 12.487499999999999  14.871428571428572 13.241071428571429  14.100000000000003 13.353571428571428  C 14.051785714285716 13.360714285714284  14.003571428571432 13.360714285714284  13.953571428571431 13.360714285714284  C 13.508928571428573 13.360714285714284  13.064285714285717 13.355357142857143  12.619642857142859 13.364285714285714  C 12.407142857142858 13.367857142857144  12.19107142857143 13.174999999999999  12.189285714285715 12.869642857142855  C 12.185714285714285 12.585714285714285  12.375 12.367857142857142  12.623214285714285 12.367857142857142  L 13.923214285714284 12.367857142857142  C 14.310714285714285 12.367857142857142  14.599999999999998 12.0125  14.599999999999998 11.548214285714284  C 14.598214285714283 8.52142857142857  14.59642857142857 5.494642857142856  14.601785714285713 2.4678571428571416  C 14.601785714285713 1.9910714285714275  14.341071428571427 1.6999999999999988  14.091071428571427 1.6339285714285705  C 14.037499999999998 1.6196428571428558  13.982142857142856 1.6107142857142844  13.926785714285712 1.6107142857142844  C 9.989285714285712 1.6089285714285704  6.051785714285712 1.6089285714285704  2.112499999999997 1.6107142857142844  C 1.7392857142857114 1.6107142857142844  1.44285714285714 1.9678571428571416  1.44285714285714 2.4160714285714273  L 1.44285714285714 11.571428571428571  C 1.44285714285714 12.014285714285714  1.7392857142857114 12.367857142857144  2.110714285714283 12.367857142857144  C 4.739285714285712 12.367857142857144  7.369642857142854 12.369642857142859  9.998214285714283 12.364285714285714  C 10.21785714285714 12.364285714285714  10.453571428571426 12.557142857142855  10.44642857142857 12.926785714285714  C 10.435714285714283 13.403571428571428  10.44285714285714 13.880357142857141  10.441071428571428 14.358928571428573  C 10.441071428571428 14.380357142857145  10.444642857142856 14.401785714285714  10.44642857142857 14.432142857142859  L 10.530357142857142 14.432142857142859  C 10.780357142857142 14.432142857142859  11.030357142857142 14.430357142857144  11.280357142857142 14.432142857142859  C 11.491071428571427 14.433928571428572  11.664285714285713 14.623214285714287  11.687499999999998 14.867857142857144  C 11.712499999999997 15.125  11.58392857142857 15.351785714285715  11.376785714285713 15.4125  C 11.360714285714284 15.417857142857143  11.344642857142857 15.419642857142858  11.328571428571426 15.421428571428573  C 11.307142857142853 15.423214285714286  11.287499999999998 15.423214285714286  11.266071428571426 15.423214285714286  C 9.528571428571427 15.425  7.791071428571426 15.428571428571429  6.053571428571426 15.430357142857144  C 5.623214285714283 15.430357142857144  5.192857142857141 15.426785714285714  4.760714285714284 15.423214285714286  C 4.526785714285713 15.421428571428573  4.348214285714284 15.205357142857142  4.348214285714284 14.926785714285716  C 4.348214285714284 14.65357142857143  4.532142857142856 14.432142857142859  4.7642857142857125 14.430357142857146  C 5.0142857142857125 14.42857142857143  5.2642857142857125 14.430357142857146  5.5142857142857125 14.430357142857146  L 5.594642857142856 14.430357142857146  L 5.594642857142856 13.36071428571429  L 5.489285714285713 13.36071428571429  C 4.364285714285713 13.36071428571429  3.2374999999999985 13.353571428571431  2.1124999999999985 13.362500000000002  C 1.4267857142857128 13.367857142857146  0.7553571428571415 12.780357142857145  0.626785714285713 11.850000000000003  C 0.6196428571428557 11.79821428571429  0.6142857142857129 11.746428571428575  0.6071428571428559 11.694642857142858  L 0.6071428571428559 2.273214285714286  C 0.6124999999999987 2.2464285714285714  0.6178571428571414 2.2196428571428575  0.6214285714285701 2.192857142857143  C 0.7107142857142844 1.4642857142857142  1.0446428571428559 0.9678571428571432  1.6196428571428558 0.7125000000000001  C 1.7392857142857128 0.6589285714285715  1.8696428571428558 0.6428571428571429  1.99642857142857 0.6089285714285716  Z " stroke-width="0" stroke-dasharray="0" stroke="rgba(255, 255, 255, 0)" fill="none" transform="matrix(1 0 0 1 17 15 )" class="stroke" mask="url(#Clip1360)" />
    <path d="M 6.439285714285714 14.426785714285714  L 9.6 14.426785714285714  C 9.60357142857143 14.408928571428572  9.605357142857143 14.401785714285714  9.605357142857143 14.392857142857142  C 9.605357142857143 14.071428571428571  9.605357142857143 13.75  9.607142857142858 13.428571428571429  C 9.607142857142858 13.358928571428573  9.571428571428571 13.362499999999999  9.533928571428572 13.362499999999999  C 8.525 13.362499999999999  7.514285714285713 13.362499999999999  6.505357142857142 13.360714285714284  C 6.44642857142857 13.360714285714284  6.430357142857142 13.385714285714284  6.432142857142856 13.453571428571427  C 6.433928571428571 13.75  6.432142857142856 14.046428571428573  6.433928571428571 14.344642857142857  C 6.433928571428571 14.37142857142857  6.437499999999999 14.398214285714285  6.439285714285714 14.426785714285714  Z " stroke-width="0" stroke-dasharray="0" stroke="rgba(255, 255, 255, 0)" fill="none" transform="matrix(1 0 0 1 17 15 )" class="stroke" mask="url(#Clip1360)" />
  </g>
</svg>