<?xml version="1.0" encoding="utf-8"?>
<svg version="1.1" xmlns:xlink="http://www.w3.org/1999/xlink" width="5px" height="2px" xmlns="http://www.w3.org/2000/svg">
  <defs>
    <pattern id="BGPattern" patternUnits="userSpaceOnUse" alignment="0 0" imageRepeat="None" />
    <mask fill="white" id="Clip1672">
      <path d="M 4.253906249999999 1.59375  C 4.255859375 1.6015625  4.251953124999998 1.6078124999999996  4.25 1.6234374999999996  L 0.791015625 1.6234374999999996  C 0.7890624999999996 1.5984374999999993  0.7851562499999998 1.5749999999999993  0.7851562499999998 1.5515624999999993  C 0.7851562499999998 1.292187499999999  0.7871093750000002 1.0328124999999986  0.7832031249999993 0.7718749999999996  C 0.7832031249999993 0.7140624999999989  0.7988281249999996 0.6906249999999989  0.8632812499999998 0.6906249999999989  C 1.9667968749999998 0.6921874999999993  3.072265624999999 0.6921874999999993  4.175781249999999 0.6921874999999993  C 4.216796875 0.6921874999999993  4.255859375 0.6875  4.255859375 0.75  C 4.253906249999999 1.03125  4.253906249999999 1.3125  4.253906249999999 1.59375  Z " fill-rule="evenodd" />
    </mask>
  </defs>
  <g transform="matrix(1 0 0 1 -23 -28 )">
    <path d="M 4.253906249999999 1.59375  C 4.255859375 1.6015625  4.251953124999998 1.6078124999999996  4.25 1.6234374999999996  L 0.791015625 1.6234374999999996  C 0.7890624999999996 1.5984374999999993  0.7851562499999998 1.5749999999999993  0.7851562499999998 1.5515624999999993  C 0.7851562499999998 1.292187499999999  0.7871093750000002 1.0328124999999986  0.7832031249999993 0.7718749999999996  C 0.7832031249999993 0.7140624999999989  0.7988281249999996 0.6906249999999989  0.8632812499999998 0.6906249999999989  C 1.9667968749999998 0.6921874999999993  3.072265624999999 0.6921874999999993  4.175781249999999 0.6921874999999993  C 4.216796875 0.6921874999999993  4.255859375 0.6875  4.255859375 0.75  C 4.253906249999999 1.03125  4.253906249999999 1.3125  4.253906249999999 1.59375  Z " fill-rule="nonzero" fill="rgba(81, 81, 81, 1)" stroke="none" transform="matrix(1 0 0 1 23 28 )" class="fill" />
    <path d="M 4.253906249999999 1.59375  C 4.255859375 1.6015625  4.251953124999998 1.6078124999999996  4.25 1.6234374999999996  L 0.791015625 1.6234374999999996  C 0.7890624999999996 1.5984374999999993  0.7851562499999998 1.5749999999999993  0.7851562499999998 1.5515624999999993  C 0.7851562499999998 1.292187499999999  0.7871093750000002 1.0328124999999986  0.7832031249999993 0.7718749999999996  C 0.7832031249999993 0.7140624999999989  0.7988281249999996 0.6906249999999989  0.8632812499999998 0.6906249999999989  C 1.9667968749999998 0.6921874999999993  3.072265624999999 0.6921874999999993  4.175781249999999 0.6921874999999993  C 4.216796875 0.6921874999999993  4.255859375 0.6875  4.255859375 0.75  C 4.253906249999999 1.03125  4.253906249999999 1.3125  4.253906249999999 1.59375  Z " stroke-width="0" stroke-dasharray="0" stroke="rgba(255, 255, 255, 0)" fill="none" transform="matrix(1 0 0 1 23 28 )" class="stroke" mask="url(#Clip1672)" />
  </g>
</svg>