<svg t="1750224191309" class="icon" viewBox="0 0 1024 1024" version="1.1" xmlns="http://www.w3.org/2000/svg" p-id="17258" width="20" height="20"><path d="M512 198.3c12.36 0 22.39-10.02 22.39-22.39V86.36c0-12.36-10.02-22.39-22.39-22.39-12.36 0-22.39 10.02-22.39 22.39v89.56c0 12.36 10.03 22.38 22.39 22.38zM223.67 299.85c4.37 4.37 10.1 6.56 15.83 6.56s11.46-2.19 15.83-6.56c8.75-8.75 8.75-22.91 0-31.66L192 204.86c-8.75-8.75-22.91-8.75-31.66 0s-8.75 22.91 0 31.66l63.33 63.33zM784.51 306.41c5.73 0 11.46-2.19 15.83-6.56l63.32-63.33c8.75-8.75 8.75-22.92 0-31.66-8.75-8.75-22.91-8.75-31.66 0l-63.32 63.33c-8.75 8.75-8.75 22.92 0 31.66a22.356 22.356 0 0 0 15.83 6.56zM847.83 914.74h-49V532.15c0-159.4-129.68-289.08-289.08-289.08S220.68 372.75 220.68 532.15v382.59h-44.52c-12.36 0-22.39 10.01-22.39 22.39s10.02 22.39 22.39 22.39h671.67c12.38 0 22.39-10.01 22.39-22.39 0-12.37-10.01-22.39-22.39-22.39z m-582.37 0V532.15c0-134.71 109.59-244.3 244.3-244.3 134.72 0 244.3 109.59 244.3 244.3v382.59h-488.6z" p-id="17259" fill="#515151"></path><path d="M512 466.97c-44.2 0-111.94 108.07-111.94 201.5 0 61.72 50.22 111.94 111.94 111.94s111.94-50.22 111.94-111.94c0-94.76-73.02-201.5-111.94-201.5z m0 268.66c-37.04 0-67.17-30.13-67.17-67.17 0-71.61 46.65-141.46 66.36-155.14 18.72 14.63 67.98 83.03 67.98 155.14 0 37.04-30.13 67.17-67.17 67.17z" p-id="17260" fill="#515151"></path></svg>