<?xml version="1.0" encoding="utf-8"?>
<svg version="1.1" xmlns:xlink="http://www.w3.org/1999/xlink" width="9px" height="9px" xmlns="http://www.w3.org/2000/svg">
  <defs>
    <pattern id="BGPattern" patternUnits="userSpaceOnUse" alignment="0 0" imageRepeat="None" />
    <mask fill="white" id="Clip1173">
      <path d="M 3.0005859374999986 3.5947265625  C 3.005859374999999 3.5947265625  3.011132812499999 3.59296875  3.0234375 3.59296875  C 3.0603515625 2.956640625  3.2923828125 2.4556640625  3.74765625 2.1251953125  C 4.2046874999999995 1.7947265624999993  4.6828125 1.79296875  5.175 2.0496093749999993  C 5.1837890625 1.9687499999999991  5.1908203125 1.8949218749999992  5.199609375 1.8210937499999993  C 5.283984374999998 1.0968749999999996  5.793749999999998 0.4798828124999992  6.391406249999998 0.3515624999999995  C 7.215820312499998 0.1740234374999996  7.991015624999998 0.8296874999999992  8.129882812499998 1.7982421874999992  C 8.142187499999999 1.8843749999999988  8.14921875 1.9722656249999988  8.14921875 2.0583984374999993  C 8.150976562499999 3.1042968749999993  8.150976562499999 4.150195312499999  8.14921875 5.196093749999999  C 8.14921875 5.4826171875  7.976953125 5.691796875  7.743164062499998 5.691796875  C 7.505859374999998 5.691796875  7.331835937499998 5.4826171875  7.331835937499998 5.192578125  L 7.331835937499998 2.1041015625  C 7.331835937499998 1.6453124999999993  7.004882812499998 1.2726562499999996  6.628710937499998 1.30078125  C 6.2630859375 1.3271484375  5.994140624999998 1.6822265625  5.994140624999998 2.1392578125  C 5.995898437499998 3.99375  5.995898437499998 5.8482421875  5.997656249999999 7.702734375  L 5.997656249999999 7.792382812500001  C 6.032812499999999 7.795898437500002  6.0626953125 7.7994140625  6.094335937499999 7.7994140625  L 7.7220703125 7.7994140625  C 7.941796875 7.7994140625  8.117578125 7.9734375  8.145703124999999 8.2177734375  C 8.173828125 8.4603515625  8.054296874999999 8.687109375  7.860937499999999 8.757421875  C 7.81875 8.773242187500001  7.771289062499998 8.7802734375  7.727343749999998 8.7802734375  C 7.064648437499997 8.782031250000001  6.400195312499998 8.7802734375  5.737499999999997 8.7802734375  L 3.589453125 8.7802734375  C 2.8248046875 8.782031250000001  2.061914062499999 8.785546875  1.2972656249999992 8.785546875  C 1.0494140624999988 8.785546875  0.8753906249999992 8.576367187499999  0.8753906249999992 8.2810546875  L 0.8753906249999992 5.1767578125  C 0.8753906249999992 4.33125  1.4203124999999992 3.5771484375  2.1199218749999993 3.448828125  C 2.41171875 3.3943359374999993  2.6912109374999993 3.434765625  2.961914062499999 3.575390625  C 2.9742187499999986 3.582421874999999  2.9865234374999985 3.5876953124999993  3.0005859374999986 3.5947265625  Z M 3.8408203125 3.6544921875  C 3.842578125 4.3224609375  3.842578125 4.9904296875  3.842578125 5.66015625  C 3.842578125 6.345703125  3.842578125 7.03125  3.8408203125 7.716796875  C 3.8408203125 7.787109375  3.8548828125 7.8099609375  3.91640625 7.8099609375  C 4.3154296875 7.806445312499998  4.714453125 7.806445312499998  5.1134765625 7.8099609375  C 5.1662109375 7.8099609375  5.185546875 7.7923828125  5.1837890625 7.727343749999998  C 5.18203125 6.356249999999998  5.1837890625 4.986914062499999  5.18203125 3.6158203124999986  C 5.18203125 3.4136718749999986  5.115234375 3.2378906249999986  4.99921875 3.093749999999999  C 4.8041015625 2.8494140624999993  4.5140625 2.7808593749999986  4.243359375 2.9109374999999993  C 4.0025390624999995 3.026953125  3.8408203125 3.32578125  3.8408203125 3.6544921875  Z M 1.6998046875 7.8046875  L 3.0304687500000007 7.8046875  L 3.0304687500000007 7.723828125  L 3.0304687500000007 5.143359374999999  C 3.0304687500000007 5.1099609374999995  3.0304687500000007 5.0765625  3.0251953125 5.044921874999999  C 2.9548828125 4.640624999999999  2.6613281250000007 4.3734375  2.334375 4.3998046875  C 1.965234375 4.429687499999999  1.6962890625 4.772460937499999  1.6962890625 5.189062499999999  L 1.6962890625 7.71328125  C 1.6962890625 7.7431640625  1.6980468750000004 7.771289062499998  1.6998046875 7.8046875  Z " fill-rule="evenodd" />
    </mask>
  </defs>
  <g transform="matrix(1 0 0 1 -20 -17 )">
    <path d="M 3.0005859374999986 3.5947265625  C 3.005859374999999 3.5947265625  3.011132812499999 3.59296875  3.0234375 3.59296875  C 3.0603515625 2.956640625  3.2923828125 2.4556640625  3.74765625 2.1251953125  C 4.2046874999999995 1.7947265624999993  4.6828125 1.79296875  5.175 2.0496093749999993  C 5.1837890625 1.9687499999999991  5.1908203125 1.8949218749999992  5.199609375 1.8210937499999993  C 5.283984374999998 1.0968749999999996  5.793749999999998 0.4798828124999992  6.391406249999998 0.3515624999999995  C 7.215820312499998 0.1740234374999996  7.991015624999998 0.8296874999999992  8.129882812499998 1.7982421874999992  C 8.142187499999999 1.8843749999999988  8.14921875 1.9722656249999988  8.14921875 2.0583984374999993  C 8.150976562499999 3.1042968749999993  8.150976562499999 4.150195312499999  8.14921875 5.196093749999999  C 8.14921875 5.4826171875  7.976953125 5.691796875  7.743164062499998 5.691796875  C 7.505859374999998 5.691796875  7.331835937499998 5.4826171875  7.331835937499998 5.192578125  L 7.331835937499998 2.1041015625  C 7.331835937499998 1.6453124999999993  7.004882812499998 1.2726562499999996  6.628710937499998 1.30078125  C 6.2630859375 1.3271484375  5.994140624999998 1.6822265625  5.994140624999998 2.1392578125  C 5.995898437499998 3.99375  5.995898437499998 5.8482421875  5.997656249999999 7.702734375  L 5.997656249999999 7.792382812500001  C 6.032812499999999 7.795898437500002  6.0626953125 7.7994140625  6.094335937499999 7.7994140625  L 7.7220703125 7.7994140625  C 7.941796875 7.7994140625  8.117578125 7.9734375  8.145703124999999 8.2177734375  C 8.173828125 8.4603515625  8.054296874999999 8.687109375  7.860937499999999 8.757421875  C 7.81875 8.773242187500001  7.771289062499998 8.7802734375  7.727343749999998 8.7802734375  C 7.064648437499997 8.782031250000001  6.400195312499998 8.7802734375  5.737499999999997 8.7802734375  L 3.589453125 8.7802734375  C 2.8248046875 8.782031250000001  2.061914062499999 8.785546875  1.2972656249999992 8.785546875  C 1.0494140624999988 8.785546875  0.8753906249999992 8.576367187499999  0.8753906249999992 8.2810546875  L 0.8753906249999992 5.1767578125  C 0.8753906249999992 4.33125  1.4203124999999992 3.5771484375  2.1199218749999993 3.448828125  C 2.41171875 3.3943359374999993  2.6912109374999993 3.434765625  2.961914062499999 3.575390625  C 2.9742187499999986 3.582421874999999  2.9865234374999985 3.5876953124999993  3.0005859374999986 3.5947265625  Z M 3.8408203125 3.6544921875  C 3.842578125 4.3224609375  3.842578125 4.9904296875  3.842578125 5.66015625  C 3.842578125 6.345703125  3.842578125 7.03125  3.8408203125 7.716796875  C 3.8408203125 7.787109375  3.8548828125 7.8099609375  3.91640625 7.8099609375  C 4.3154296875 7.806445312499998  4.714453125 7.806445312499998  5.1134765625 7.8099609375  C 5.1662109375 7.8099609375  5.185546875 7.7923828125  5.1837890625 7.727343749999998  C 5.18203125 6.356249999999998  5.1837890625 4.986914062499999  5.18203125 3.6158203124999986  C 5.18203125 3.4136718749999986  5.115234375 3.2378906249999986  4.99921875 3.093749999999999  C 4.8041015625 2.8494140624999993  4.5140625 2.7808593749999986  4.243359375 2.9109374999999993  C 4.0025390624999995 3.026953125  3.8408203125 3.32578125  3.8408203125 3.6544921875  Z M 1.6998046875 7.8046875  L 3.0304687500000007 7.8046875  L 3.0304687500000007 7.723828125  L 3.0304687500000007 5.143359374999999  C 3.0304687500000007 5.1099609374999995  3.0304687500000007 5.0765625  3.0251953125 5.044921874999999  C 2.9548828125 4.640624999999999  2.6613281250000007 4.3734375  2.334375 4.3998046875  C 1.965234375 4.429687499999999  1.6962890625 4.772460937499999  1.6962890625 5.189062499999999  L 1.6962890625 7.71328125  C 1.6962890625 7.7431640625  1.6980468750000004 7.771289062499998  1.6998046875 7.8046875  Z " fill-rule="nonzero" fill="rgba(81, 81, 81, 1)" stroke="none" transform="matrix(1 0 0 1 20 17 )" class="fill" />
    <path d="M 3.0005859374999986 3.5947265625  C 3.005859374999999 3.5947265625  3.011132812499999 3.59296875  3.0234375 3.59296875  C 3.0603515625 2.956640625  3.2923828125 2.4556640625  3.74765625 2.1251953125  C 4.2046874999999995 1.7947265624999993  4.6828125 1.79296875  5.175 2.0496093749999993  C 5.1837890625 1.9687499999999991  5.1908203125 1.8949218749999992  5.199609375 1.8210937499999993  C 5.283984374999998 1.0968749999999996  5.793749999999998 0.4798828124999992  6.391406249999998 0.3515624999999995  C 7.215820312499998 0.1740234374999996  7.991015624999998 0.8296874999999992  8.129882812499998 1.7982421874999992  C 8.142187499999999 1.8843749999999988  8.14921875 1.9722656249999988  8.14921875 2.0583984374999993  C 8.150976562499999 3.1042968749999993  8.150976562499999 4.150195312499999  8.14921875 5.196093749999999  C 8.14921875 5.4826171875  7.976953125 5.691796875  7.743164062499998 5.691796875  C 7.505859374999998 5.691796875  7.331835937499998 5.4826171875  7.331835937499998 5.192578125  L 7.331835937499998 2.1041015625  C 7.331835937499998 1.6453124999999993  7.004882812499998 1.2726562499999996  6.628710937499998 1.30078125  C 6.2630859375 1.3271484375  5.994140624999998 1.6822265625  5.994140624999998 2.1392578125  C 5.995898437499998 3.99375  5.995898437499998 5.8482421875  5.997656249999999 7.702734375  L 5.997656249999999 7.792382812500001  C 6.032812499999999 7.795898437500002  6.0626953125 7.7994140625  6.094335937499999 7.7994140625  L 7.7220703125 7.7994140625  C 7.941796875 7.7994140625  8.117578125 7.9734375  8.145703124999999 8.2177734375  C 8.173828125 8.4603515625  8.054296874999999 8.687109375  7.860937499999999 8.757421875  C 7.81875 8.773242187500001  7.771289062499998 8.7802734375  7.727343749999998 8.7802734375  C 7.064648437499997 8.782031250000001  6.400195312499998 8.7802734375  5.737499999999997 8.7802734375  L 3.589453125 8.7802734375  C 2.8248046875 8.782031250000001  2.061914062499999 8.785546875  1.2972656249999992 8.785546875  C 1.0494140624999988 8.785546875  0.8753906249999992 8.576367187499999  0.8753906249999992 8.2810546875  L 0.8753906249999992 5.1767578125  C 0.8753906249999992 4.33125  1.4203124999999992 3.5771484375  2.1199218749999993 3.448828125  C 2.41171875 3.3943359374999993  2.6912109374999993 3.434765625  2.961914062499999 3.575390625  C 2.9742187499999986 3.582421874999999  2.9865234374999985 3.5876953124999993  3.0005859374999986 3.5947265625  Z " stroke-width="0" stroke-dasharray="0" stroke="rgba(255, 255, 255, 0)" fill="none" transform="matrix(1 0 0 1 20 17 )" class="stroke" mask="url(#Clip1173)" />
    <path d="M 3.8408203125 3.6544921875  C 3.842578125 4.3224609375  3.842578125 4.9904296875  3.842578125 5.66015625  C 3.842578125 6.345703125  3.842578125 7.03125  3.8408203125 7.716796875  C 3.8408203125 7.787109375  3.8548828125 7.8099609375  3.91640625 7.8099609375  C 4.3154296875 7.806445312499998  4.714453125 7.806445312499998  5.1134765625 7.8099609375  C 5.1662109375 7.8099609375  5.185546875 7.7923828125  5.1837890625 7.727343749999998  C 5.18203125 6.356249999999998  5.1837890625 4.986914062499999  5.18203125 3.6158203124999986  C 5.18203125 3.4136718749999986  5.115234375 3.2378906249999986  4.99921875 3.093749999999999  C 4.8041015625 2.8494140624999993  4.5140625 2.7808593749999986  4.243359375 2.9109374999999993  C 4.0025390624999995 3.026953125  3.8408203125 3.32578125  3.8408203125 3.6544921875  Z " stroke-width="0" stroke-dasharray="0" stroke="rgba(255, 255, 255, 0)" fill="none" transform="matrix(1 0 0 1 20 17 )" class="stroke" mask="url(#Clip1173)" />
    <path d="M 1.6998046875 7.8046875  L 3.0304687500000007 7.8046875  L 3.0304687500000007 7.723828125  L 3.0304687500000007 5.143359374999999  C 3.0304687500000007 5.1099609374999995  3.0304687500000007 5.0765625  3.0251953125 5.044921874999999  C 2.9548828125 4.640624999999999  2.6613281250000007 4.3734375  2.334375 4.3998046875  C 1.965234375 4.429687499999999  1.6962890625 4.772460937499999  1.6962890625 5.189062499999999  L 1.6962890625 7.71328125  C 1.6962890625 7.7431640625  1.6980468750000004 7.771289062499998  1.6998046875 7.8046875  Z " stroke-width="0" stroke-dasharray="0" stroke="rgba(255, 255, 255, 0)" fill="none" transform="matrix(1 0 0 1 20 17 )" class="stroke" mask="url(#Clip1173)" />
  </g>
</svg>