<svg t="1750224324968" class="icon" viewBox="0 0 1024 1024" version="1.1" xmlns="http://www.w3.org/2000/svg" p-id="19472" width="20" height="20"><path d="M485.9 696.6c-6.4 0-12.5-3.6-15.6-9.5-29.8-57.6-66.5-62.7-66.9-62.7-9.7-1-16.7-9.5-15.8-19.2 1-9.7 9.5-16.7 19.2-15.8 1.5 0.1 15.9 1.8 34.6 13.2 13.5 8.2 25.8 19.1 36.8 32.7 4.2-14.2 10-30.7 17.9-47.4 28.9-61.5 71-95.4 121.7-98 9.7-0.5 18 7 18.4 16.7 0.5 9.7-7 18-16.7 18.4-37.6 2-68.5 28.1-91.8 77.9-18.5 39.4-24.7 78.6-24.7 78.9-1.2 7.5-7 13.4-14.5 14.7-0.7 0-1.7 0.1-2.6 0.1z m0 0" fill="#515151" p-id="19473"></path><path d="M758.2 415.2H265.8c-9.7 0-17.5-7.8-17.5-17.5s7.8-17.5 17.5-17.5h492.5c9.7 0 17.5 7.8 17.5 17.5 0 9.6-7.9 17.5-17.6 17.5z m0 0" fill="#515151" p-id="19474"></path><path d="M722.6 214.2h-20.4V169c0-9.7-7.8-17.5-17.5-17.5s-17.5 7.8-17.5 17.5v45.2H356.8V169c0-9.7-7.8-17.5-17.5-17.5s-17.5 7.8-17.5 17.5v45.2h-20.4c-77.3 0-140.2 62.9-140.2 140.3v353.9c0 77.3 62.9 140.2 140.2 140.2h421.2c77.3 0 140.2-62.9 140.2-140.2v-354c0.1-77.3-62.8-140.2-140.2-140.2z m105.2 494.1c0 58-47.1 105.2-105.2 105.2H301.4c-58 0-105.2-47.1-105.2-105.2V354.4c0-58 47.1-105.2 105.2-105.2h20.4v45.2c0 9.7 7.8 17.5 17.5 17.5s17.5-7.8 17.5-17.5v-45.2h310.3v45.2c0 9.7 7.8 17.5 17.5 17.5s17.5-7.8 17.5-17.5v-45.2h20.4c58 0 105.2 47.1 105.2 105.2v353.9z m0 0" fill="#515151" p-id="19475"></path></svg>