<svg t="1750224680986" class="icon" viewBox="0 0 1024 1024" version="1.1" xmlns="http://www.w3.org/2000/svg" p-id="24169" width="20" height="20"><path d="M878.56 412.8V226.56a36.48 36.48 0 0 0-36.32-36.48H182.72a36.32 36.32 0 0 0-36.32 36.48V412.8zM698.24 153.76v-40.8a18.24 18.24 0 0 1 36.48 0v40.8h107.52a72.8 72.8 0 0 1 72.8 72.8v222.56H146.08v385.6a54.56 54.56 0 0 0 54.56 54.56h299.68a18.24 18.24 0 0 1 0 36.32H200.64a90.88 90.88 0 0 1-90.88-90.88V388a19.36 19.36 0 0 1 0-3.04v-158.4a72.8 72.8 0 0 1 72.8-72.8H285.6v-40.8A18.08 18.08 0 0 1 304.8 96a17.92 17.92 0 0 1 17.28 17.28v40.48zM243.52 589.6a18.4 18.4 0 0 1-17.6-18.88 18.24 18.24 0 0 1 17.6-17.6h181.12a18.24 18.24 0 0 1 0 36.48z m0 173.12a18.24 18.24 0 0 1-1.6-36.48h182.72a18.24 18.24 0 0 1 1.28 36.48h-182.4z m614.4-55.04a52.48 52.48 0 0 1 52.32 52.8v21.12a52.48 52.48 0 0 1-52.32 52.8H636.64a52.48 52.48 0 0 1-52.32-52.8v-21.12a52.48 52.48 0 0 1 52.32-52.8h37.6a21.44 21.44 0 0 0 21.28-21.92v-17.6a10.88 10.88 0 0 0-4.16-8.32 85.44 85.44 0 1 1 112 0 10.4 10.4 0 0 0-4.16 8v17.76a21.6 21.6 0 0 0 21.28 21.92zM584.8 925.92a19.2 19.2 0 0 1-19.04-19.04A18.88 18.88 0 0 1 584.8 888h315.36a19.04 19.04 0 0 1 0 37.92zM857.92 745.6h-37.76a59.52 59.52 0 0 1-59.2-59.68V668a48 48 0 0 1 17.12-36.64 48 48 0 1 0-61.76 0 49.12 49.12 0 0 1 17.28 36.8v17.76a59.52 59.52 0 0 1-59.36 59.68h-37.6a14.56 14.56 0 0 0-14.4 14.88v21.12a14.56 14.56 0 0 0 14.4 14.88h221.28a14.72 14.72 0 0 0 14.4-14.88v-21.12a14.56 14.56 0 0 0-14.4-14.88z" fill="#515151" p-id="24170"></path><path d="M857.92 745.6h-37.76a59.52 59.52 0 0 1-59.2-59.68V668a48 48 0 0 1 17.12-36.64 48 48 0 1 0-61.76 0 49.12 49.12 0 0 1 17.28 36.8v17.76a59.52 59.52 0 0 1-59.36 59.68h-37.6a14.56 14.56 0 0 0-14.4 14.88v21.12a14.56 14.56 0 0 0 14.4 14.88h221.28a14.72 14.72 0 0 0 14.4-14.88v-21.12a14.56 14.56 0 0 0-14.4-14.88z" fill="#515151" opacity=".15" p-id="24171"></path></svg>