<?xml version="1.0" encoding="utf-8"?>
<svg version="1.1" xmlns:xlink="http://www.w3.org/1999/xlink" width="14px" height="16px" xmlns="http://www.w3.org/2000/svg">
  <defs>
    <pattern id="BGPattern" patternUnits="userSpaceOnUse" alignment="0 0" imageRepeat="None" />
    <mask fill="white" id="Clip1677">
      <path d="M 6.976916740740739 13.889437851037851  C 6.975187920227919 13.887659635653236  6.971730294396961 13.884103220512822  6.970001473884139 13.88054678974359  C 6.887018256410256 13.780966915750914  6.766001048433049 13.722285933089134  6.638068588793923 13.722285933089134  L 2.772433473884141 13.722285933089134  C 2.3263986476733143 13.722285933089134  1.9650758746438746 13.350639636630039  2 12.891860973870573  L 2 2.7151541919413917  C 1.9650758746438746 2.2563755135531123  2.3263986628679962 1.884729232722833  2.772433473884141 1.884729232722833  L 11.283400235517572 1.884729232722833  C 11.729435061728399 1.884729232722833  12.090757834757834 2.256375529181929  12.090757834757834 2.7151541919413917  L 12.090757834757834 5.848363588766789  C 12.090757834757834 6.027962998778999  12.1944868679962 6.1915584859584865  12.355266856600188 6.2626869606837605  C 12.358724497625829 6.264465176068375  12.360453302943966 6.264465176068375  12.363910943969607 6.266243391452991  C 12.654352227920224 6.392496433699634  12.974183399810062 6.17555457875458  12.974183384615383 5.851920003907205  L 12.974183384615383 2.7151541919413917  C 12.974183384615383 1.7531415443223437  12.216961473884137 0.9742847374847372  11.281671415004748 0.9742847374847372  L 2.772433473884141 0.9742847374847372  C 1.8371433998100655 0.9742847374847372  1.0799215042735044 1.7531415599511604  1 2.7151541919413917  L 1 12.891860973870573  C 1.079921489078823 13.85387362148962  1.837143399810067 14.63273042832723  2.772433473884141 14.63273042832723  L 6.644983855650521 14.63273042832723  C 7.018408357075024 14.63273042832723  7.222408782526116 14.179286396092797  6.976916740740739 13.889437851037851  Z " fill-rule="evenodd" />
    </mask>
  </defs>
  <g transform="matrix(1 0 0 1 -17 -16 )">
    <path d="M 6.976916740740739 13.889437851037851  C 6.975187920227919 13.887659635653236  6.971730294396961 13.884103220512822  6.970001473884139 13.88054678974359  C 6.887018256410256 13.780966915750914  6.766001048433049 13.722285933089134  6.638068588793923 13.722285933089134  L 2.772433473884141 13.722285933089134  C 2.3263986476733143 13.722285933089134  1.9650758746438746 13.350639636630039  2 12.891860973870573  L 2 2.7151541919413917  C 1.9650758746438746 2.2563755135531123  2.3263986628679962 1.884729232722833  2.772433473884141 1.884729232722833  L 11.283400235517572 1.884729232722833  C 11.729435061728399 1.884729232722833  12.090757834757834 2.256375529181929  12.090757834757834 2.7151541919413917  L 12.090757834757834 5.848363588766789  C 12.090757834757834 6.027962998778999  12.1944868679962 6.1915584859584865  12.355266856600188 6.2626869606837605  C 12.358724497625829 6.264465176068375  12.360453302943966 6.264465176068375  12.363910943969607 6.266243391452991  C 12.654352227920224 6.392496433699634  12.974183399810062 6.17555457875458  12.974183384615383 5.851920003907205  L 12.974183384615383 2.7151541919413917  C 12.974183384615383 1.7531415443223437  12.216961473884137 0.9742847374847372  11.281671415004748 0.9742847374847372  L 2.772433473884141 0.9742847374847372  C 1.8371433998100655 0.9742847374847372  1.0799215042735044 1.7531415599511604  1 2.7151541919413917  L 1 12.891860973870573  C 1.079921489078823 13.85387362148962  1.837143399810067 14.63273042832723  2.772433473884141 14.63273042832723  L 6.644983855650521 14.63273042832723  C 7.018408357075024 14.63273042832723  7.222408782526116 14.179286396092797  6.976916740740739 13.889437851037851  Z " fill-rule="nonzero" fill="rgba(81, 81, 81, 1)" stroke="none" transform="matrix(1 0 0 1 17 16 )" class="fill" />
    <path d="M 6.976916740740739 13.889437851037851  C 6.975187920227919 13.887659635653236  6.971730294396961 13.884103220512822  6.970001473884139 13.88054678974359  C 6.887018256410256 13.780966915750914  6.766001048433049 13.722285933089134  6.638068588793923 13.722285933089134  L 2.772433473884141 13.722285933089134  C 2.3263986476733143 13.722285933089134  1.9650758746438746 13.350639636630039  2 12.891860973870573  L 2 2.7151541919413917  C 1.9650758746438746 2.2563755135531123  2.3263986628679962 1.884729232722833  2.772433473884141 1.884729232722833  L 11.283400235517572 1.884729232722833  C 11.729435061728399 1.884729232722833  12.090757834757834 2.256375529181929  12.090757834757834 2.7151541919413917  L 12.090757834757834 5.848363588766789  C 12.090757834757834 6.027962998778999  12.1944868679962 6.1915584859584865  12.355266856600188 6.2626869606837605  C 12.358724497625829 6.264465176068375  12.360453302943966 6.264465176068375  12.363910943969607 6.266243391452991  C 12.654352227920224 6.392496433699634  12.974183399810062 6.17555457875458  12.974183384615383 5.851920003907205  L 12.974183384615383 2.7151541919413917  C 12.974183384615383 1.7531415443223437  12.216961473884137 0.9742847374847372  11.281671415004748 0.9742847374847372  L 2.772433473884141 0.9742847374847372  C 1.8371433998100655 0.9742847374847372  1.0799215042735044 1.7531415599511604  1 2.7151541919413917  L 1 12.891860973870573  C 1.079921489078823 13.85387362148962  1.837143399810067 14.63273042832723  2.772433473884141 14.63273042832723  L 6.644983855650521 14.63273042832723  C 7.018408357075024 14.63273042832723  7.222408782526116 14.179286396092797  6.976916740740739 13.889437851037851  Z " stroke-width="0" stroke-dasharray="0" stroke="rgba(255, 255, 255, 0)" fill="none" transform="matrix(1 0 0 1 17 16 )" class="stroke" mask="url(#Clip1677)" />
  </g>
</svg>