<?xml version="1.0" encoding="utf-8"?>
<svg version="1.1" xmlns:xlink="http://www.w3.org/1999/xlink" width="13px" height="15px" xmlns="http://www.w3.org/2000/svg">
  <defs>
    <pattern id="BGPattern" patternUnits="userSpaceOnUse" alignment="0 0" imageRepeat="None" />
    <mask fill="white" id="Clip1175">
      <path d="M 12.5892 14.25944  C 12.5892 14.467039999999999  12.41624 14.64  12.24328 14.64  C 12.035680000000001 14.64  11.89744 14.46704  11.89744 14.294080000000001  C 11.89744 11.38832  9.51056 9.001520000000001  6.6048800000000005 9.001520000000001  L 6.53576 9.001520000000001  C 3.6300799999999995 9.001520000000001  1.2432799999999995 11.38832  1.2432799999999995 14.294080000000001  C 1.2432799999999995 14.501520000000001  1.0703199999999995 14.64  0.8973599999999994 14.64  C 0.7243999999999995 14.64  0.5514399999999995 14.46704  0.5514399999999995 14.294080000000001  C 0.5514399999999995 11.665120000000002  2.2464799999999996 9.34744  4.73696 8.55192  L 4.9444799999999995 8.48272  L 4.73696 8.378960000000001  C 3.56088 7.652480000000001  2.86904 6.3726400000000005  2.86904 4.9889600000000005  C 2.86904 2.7751200000000007  4.66776 0.9764000000000008  6.881680000000001 0.9764000000000008  C 9.09552 0.9764000000000008  10.89424 2.775120000000001  10.89424 4.9889600000000005  C 10.89424 6.441840000000001  10.09872 7.82552  8.78416 8.51728  L 8.57656 8.62096  L 8.78416 8.69024  C 11.10184 9.589599999999999  12.5892 11.803439999999998  12.5892 14.25944  Z M 10.16784 4.98888  C 10.16784 3.1901599999999997  8.6804 1.7027199999999998  6.881680000000001 1.70272  C 5.08288 1.70272  3.59552 3.19016  3.59552 4.98888  C 3.59552 6.78768  5.08288 8.27496  6.881680000000001 8.27496  C 8.6804 8.27496  10.16784 6.78768  10.16784 4.98888  Z " fill-rule="evenodd" />
    </mask>
  </defs>
  <g transform="matrix(1 0 0 1 -17 -15 )">
    <path d="M 12.5892 14.25944  C 12.5892 14.467039999999999  12.41624 14.64  12.24328 14.64  C 12.035680000000001 14.64  11.89744 14.46704  11.89744 14.294080000000001  C 11.89744 11.38832  9.51056 9.001520000000001  6.6048800000000005 9.001520000000001  L 6.53576 9.001520000000001  C 3.6300799999999995 9.001520000000001  1.2432799999999995 11.38832  1.2432799999999995 14.294080000000001  C 1.2432799999999995 14.501520000000001  1.0703199999999995 14.64  0.8973599999999994 14.64  C 0.7243999999999995 14.64  0.5514399999999995 14.46704  0.5514399999999995 14.294080000000001  C 0.5514399999999995 11.665120000000002  2.2464799999999996 9.34744  4.73696 8.55192  L 4.9444799999999995 8.48272  L 4.73696 8.378960000000001  C 3.56088 7.652480000000001  2.86904 6.3726400000000005  2.86904 4.9889600000000005  C 2.86904 2.7751200000000007  4.66776 0.9764000000000008  6.881680000000001 0.9764000000000008  C 9.09552 0.9764000000000008  10.89424 2.775120000000001  10.89424 4.9889600000000005  C 10.89424 6.441840000000001  10.09872 7.82552  8.78416 8.51728  L 8.57656 8.62096  L 8.78416 8.69024  C 11.10184 9.589599999999999  12.5892 11.803439999999998  12.5892 14.25944  Z M 10.16784 4.98888  C 10.16784 3.1901599999999997  8.6804 1.7027199999999998  6.881680000000001 1.70272  C 5.08288 1.70272  3.59552 3.19016  3.59552 4.98888  C 3.59552 6.78768  5.08288 8.27496  6.881680000000001 8.27496  C 8.6804 8.27496  10.16784 6.78768  10.16784 4.98888  Z " fill-rule="nonzero" fill="rgba(85, 85, 85, 1)" stroke="none" transform="matrix(1 0 0 1 17 15 )" class="fill" />
    <path d="M 12.5892 14.25944  C 12.5892 14.467039999999999  12.41624 14.64  12.24328 14.64  C 12.035680000000001 14.64  11.89744 14.46704  11.89744 14.294080000000001  C 11.89744 11.38832  9.51056 9.001520000000001  6.6048800000000005 9.001520000000001  L 6.53576 9.001520000000001  C 3.6300799999999995 9.001520000000001  1.2432799999999995 11.38832  1.2432799999999995 14.294080000000001  C 1.2432799999999995 14.501520000000001  1.0703199999999995 14.64  0.8973599999999994 14.64  C 0.7243999999999995 14.64  0.5514399999999995 14.46704  0.5514399999999995 14.294080000000001  C 0.5514399999999995 11.665120000000002  2.2464799999999996 9.34744  4.73696 8.55192  L 4.9444799999999995 8.48272  L 4.73696 8.378960000000001  C 3.56088 7.652480000000001  2.86904 6.3726400000000005  2.86904 4.9889600000000005  C 2.86904 2.7751200000000007  4.66776 0.9764000000000008  6.881680000000001 0.9764000000000008  C 9.09552 0.9764000000000008  10.89424 2.775120000000001  10.89424 4.9889600000000005  C 10.89424 6.441840000000001  10.09872 7.82552  8.78416 8.51728  L 8.57656 8.62096  L 8.78416 8.69024  C 11.10184 9.589599999999999  12.5892 11.803439999999998  12.5892 14.25944  Z " stroke-width="0" stroke-dasharray="0" stroke="rgba(255, 255, 255, 0)" fill="none" transform="matrix(1 0 0 1 17 15 )" class="stroke" mask="url(#Clip1175)" />
    <path d="M 10.16784 4.98888  C 10.16784 3.1901599999999997  8.6804 1.7027199999999998  6.881680000000001 1.70272  C 5.08288 1.70272  3.59552 3.19016  3.59552 4.98888  C 3.59552 6.78768  5.08288 8.27496  6.881680000000001 8.27496  C 8.6804 8.27496  10.16784 6.78768  10.16784 4.98888  Z " stroke-width="0" stroke-dasharray="0" stroke="rgba(255, 255, 255, 0)" fill="none" transform="matrix(1 0 0 1 17 15 )" class="stroke" mask="url(#Clip1175)" />
  </g>
</svg>