<?xml version="1.0" encoding="utf-8"?>
<svg version="1.1" xmlns:xlink="http://www.w3.org/1999/xlink" width="10px" height="10px" xmlns="http://www.w3.org/2000/svg">
  <defs>
    <pattern id="BGPattern" patternUnits="userSpaceOnUse" alignment="0 0" imageRepeat="None" />
    <mask fill="white" id="Clip1369">
      <path d="M 8.690155115995116 4.5006919006919  C 8.690155115995116 2.2501424501424516  6.865635604395605 0.42562293854294  4.615086153846155 0.42562293854293853  C 2.3645367032967033 0.42562293854293853  0.5400171916971915 2.2501424501424516  0.5400171916971915 4.5006919006919  C 0.5400171916971915 6.751241351241353  2.3645367032967033 8.575760862840864  4.615086153846155 8.575760862840864  C 6.865635604395605 8.575760862840864  8.690155115995116 6.751241351241353  8.690155115995116 4.5006919006919  Z M 7.8010491493691525 4.5006919006919  C 7.8010491493691525 5.352751778591779  7.469486723646725 6.152947138787139  6.869340203500203 6.753093658933661  C 6.267341375661376 7.355092486772486  5.467146015466016 7.686654912494912  4.615086153846155 7.686654912494912  C 3.763026292226292 7.686654912494912  2.9646832234432248 7.355092486772486  2.3626843956043952 6.753093658933658  C 1.7606855677655688 6.152947138787139  1.4291231420431436 5.352751778591779  1.4291231420431436 4.5006919006919  C 1.4291231420431436 3.650484330484331  1.7606855677655688 2.8502889702889727  2.3626843956043984 2.2482901424501436  C 2.9646832234432248 1.6462913146113145  3.7648785836385823 1.3147288888888888  4.615086153846155 1.3147288888888888  C 5.465293724053728 1.3147288888888888  6.265489084249083 1.6462913146113145  6.867487895807898 2.2482901424501436  C 7.469486707366709 2.85028897028897  7.8010491493691525 3.650484330484331  7.8010491493691525 4.5006919006919  Z " fill-rule="evenodd" />
    </mask>
  </defs>
  <g transform="matrix(1 0 0 1 -23 -22 )">
    <path d="M 8.690155115995116 4.5006919006919  C 8.690155115995116 2.2501424501424516  6.865635604395605 0.42562293854294  4.615086153846155 0.42562293854293853  C 2.3645367032967033 0.42562293854293853  0.5400171916971915 2.2501424501424516  0.5400171916971915 4.5006919006919  C 0.5400171916971915 6.751241351241353  2.3645367032967033 8.575760862840864  4.615086153846155 8.575760862840864  C 6.865635604395605 8.575760862840864  8.690155115995116 6.751241351241353  8.690155115995116 4.5006919006919  Z M 7.8010491493691525 4.5006919006919  C 7.8010491493691525 5.352751778591779  7.469486723646725 6.152947138787139  6.869340203500203 6.753093658933661  C 6.267341375661376 7.355092486772486  5.467146015466016 7.686654912494912  4.615086153846155 7.686654912494912  C 3.763026292226292 7.686654912494912  2.9646832234432248 7.355092486772486  2.3626843956043952 6.753093658933658  C 1.7606855677655688 6.152947138787139  1.4291231420431436 5.352751778591779  1.4291231420431436 4.5006919006919  C 1.4291231420431436 3.650484330484331  1.7606855677655688 2.8502889702889727  2.3626843956043984 2.2482901424501436  C 2.9646832234432248 1.6462913146113145  3.7648785836385823 1.3147288888888888  4.615086153846155 1.3147288888888888  C 5.465293724053728 1.3147288888888888  6.265489084249083 1.6462913146113145  6.867487895807898 2.2482901424501436  C 7.469486707366709 2.85028897028897  7.8010491493691525 3.650484330484331  7.8010491493691525 4.5006919006919  Z " fill-rule="nonzero" fill="rgba(81, 81, 81, 1)" stroke="none" transform="matrix(1 0 0 1 23 22 )" class="fill" />
    <path d="M 8.690155115995116 4.5006919006919  C 8.690155115995116 2.2501424501424516  6.865635604395605 0.42562293854294  4.615086153846155 0.42562293854293853  C 2.3645367032967033 0.42562293854293853  0.5400171916971915 2.2501424501424516  0.5400171916971915 4.5006919006919  C 0.5400171916971915 6.751241351241353  2.3645367032967033 8.575760862840864  4.615086153846155 8.575760862840864  C 6.865635604395605 8.575760862840864  8.690155115995116 6.751241351241353  8.690155115995116 4.5006919006919  Z " stroke-width="0" stroke-dasharray="0" stroke="rgba(255, 255, 255, 0)" fill="none" transform="matrix(1 0 0 1 23 22 )" class="stroke" mask="url(#Clip1369)" />
    <path d="M 7.8010491493691525 4.5006919006919  C 7.8010491493691525 5.352751778591779  7.469486723646725 6.152947138787139  6.869340203500203 6.753093658933661  C 6.267341375661376 7.355092486772486  5.467146015466016 7.686654912494912  4.615086153846155 7.686654912494912  C 3.763026292226292 7.686654912494912  2.9646832234432248 7.355092486772486  2.3626843956043952 6.753093658933658  C 1.7606855677655688 6.152947138787139  1.4291231420431436 5.352751778591779  1.4291231420431436 4.5006919006919  C 1.4291231420431436 3.650484330484331  1.7606855677655688 2.8502889702889727  2.3626843956043984 2.2482901424501436  C 2.9646832234432248 1.6462913146113145  3.7648785836385823 1.3147288888888888  4.615086153846155 1.3147288888888888  C 5.465293724053728 1.3147288888888888  6.265489084249083 1.6462913146113145  6.867487895807898 2.2482901424501436  C 7.469486707366709 2.85028897028897  7.8010491493691525 3.650484330484331  7.8010491493691525 4.5006919006919  Z " stroke-width="0" stroke-dasharray="0" stroke="rgba(255, 255, 255, 0)" fill="none" transform="matrix(1 0 0 1 23 22 )" class="stroke" mask="url(#Clip1369)" />
  </g>
</svg>