<?xml version="1.0" encoding="utf-8"?>
<svg version="1.1" xmlns:xlink="http://www.w3.org/1999/xlink" width="6px" height="6px" xmlns="http://www.w3.org/2000/svg">
  <defs>
    <pattern id="BGPattern" patternUnits="userSpaceOnUse" alignment="0 0" imageRepeat="None" />
    <mask fill="white" id="Clip1177">
      <path d="M 5.4948 4.772000000000002  C 5.52952 4.944960000000002  5.391119999999999 5.0833600000000025  5.1836 5.083360000000001  C 4.976000000000001 5.083360000000001  4.837680000000001 4.9104800000000015  4.837680000000001 4.73752  C 4.8722400000000015 3.6997599999999995  4.491760000000001 2.7311200000000007  3.79992 1.97016  C 3.10816 1.20904  2.139520000000001 0.7593599999999991  1.1017600000000005 0.7248800000000006  L 0.8596800000000009 0.7248800000000006  C 0.6520800000000015 0.7248800000000006  0.5137600000000013 0.5519200000000009  0.5137600000000013 0.3789600000000011  C 0.5137600000000013 0.17136000000000173  0.6867200000000011 0.03304000000000151  0.8596800000000009 0.03304000000000151  L 1.1017600000000005 0.03304000000000151  C 2.3124800000000008 0.06760000000000232  3.45392 0.5864800000000017  4.284079999999999 1.4858400000000014  C 5.1144 2.385200000000001  5.564 3.5612800000000018  5.4948 4.772000000000002  Z " fill-rule="evenodd" />
    </mask>
  </defs>
  <g transform="matrix(1 0 0 1 -27 -23 )">
    <path d="M 5.4948 4.772000000000002  C 5.52952 4.944960000000002  5.391119999999999 5.0833600000000025  5.1836 5.083360000000001  C 4.976000000000001 5.083360000000001  4.837680000000001 4.9104800000000015  4.837680000000001 4.73752  C 4.8722400000000015 3.6997599999999995  4.491760000000001 2.7311200000000007  3.79992 1.97016  C 3.10816 1.20904  2.139520000000001 0.7593599999999991  1.1017600000000005 0.7248800000000006  L 0.8596800000000009 0.7248800000000006  C 0.6520800000000015 0.7248800000000006  0.5137600000000013 0.5519200000000009  0.5137600000000013 0.3789600000000011  C 0.5137600000000013 0.17136000000000173  0.6867200000000011 0.03304000000000151  0.8596800000000009 0.03304000000000151  L 1.1017600000000005 0.03304000000000151  C 2.3124800000000008 0.06760000000000232  3.45392 0.5864800000000017  4.284079999999999 1.4858400000000014  C 5.1144 2.385200000000001  5.564 3.5612800000000018  5.4948 4.772000000000002  Z " fill-rule="nonzero" fill="rgba(85, 85, 85, 1)" stroke="none" transform="matrix(1 0 0 1 27 23 )" class="fill" />
    <path d="M 5.4948 4.772000000000002  C 5.52952 4.944960000000002  5.391119999999999 5.0833600000000025  5.1836 5.083360000000001  C 4.976000000000001 5.083360000000001  4.837680000000001 4.9104800000000015  4.837680000000001 4.73752  C 4.8722400000000015 3.6997599999999995  4.491760000000001 2.7311200000000007  3.79992 1.97016  C 3.10816 1.20904  2.139520000000001 0.7593599999999991  1.1017600000000005 0.7248800000000006  L 0.8596800000000009 0.7248800000000006  C 0.6520800000000015 0.7248800000000006  0.5137600000000013 0.5519200000000009  0.5137600000000013 0.3789600000000011  C 0.5137600000000013 0.17136000000000173  0.6867200000000011 0.03304000000000151  0.8596800000000009 0.03304000000000151  L 1.1017600000000005 0.03304000000000151  C 2.3124800000000008 0.06760000000000232  3.45392 0.5864800000000017  4.284079999999999 1.4858400000000014  C 5.1144 2.385200000000001  5.564 3.5612800000000018  5.4948 4.772000000000002  Z " stroke-width="0" stroke-dasharray="0" stroke="rgba(255, 255, 255, 0)" fill="none" transform="matrix(1 0 0 1 27 23 )" class="stroke" mask="url(#Clip1177)" />
  </g>
</svg>