<?xml version="1.0" encoding="utf-8"?>
<svg version="1.1" xmlns:xlink="http://www.w3.org/1999/xlink" width="16px" height="16px" xmlns="http://www.w3.org/2000/svg">
  <defs>
    <pattern id="BGPattern" patternUnits="userSpaceOnUse" alignment="0 0" imageRepeat="None" />
    <mask fill="white" id="Clip1680">
      <path d="M 14.97352810280066 6.86128500823723  L 14.97352810280066 6.277775576496429  C 14.97352810280066 6.277775576496429  14.609701633827566 5.891081081603514  14.609701633827566 5.6942661588138375  C 14.609701633827566 5.4983884406370125  14.733413879846236 5.41403918198792  14.733413879846236 5.41403916792971  L 2.80924034881933 5.41403916792971  C 1.8159809722130702 5.41403916792971  1.0107267163097198 6.155937753761668  1.0107267022515103 7.071408388358046  L 1.0107267022515103 13.334434555079628  C 1.0107267022515103 14.249905175617792  1.81598095815486 14.990866556836902  2.80924034881933 15  L 14.76040564261395 15  C 14.76040564261395 14.990866556836902  14.614575151235584 14.650095551894562  14.609701633827566 14.462090431191651  C 14.605952773201537 14.265275494343765  14.97352810280066 13.877643794837999  14.97352810280066 13.877643780779788  L 14.97352810280066 13.293197144426136  C 14.97352810280066 13.293197144426136  14.609701633827566 12.90556544492037  14.609701633827566 12.708750508072484  C 14.609701633827566 12.511935571224598  14.97352810280066 12.124303871718832  14.97352810280066 12.124303857660625  L 14.97352810280066 11.541731644590879  C 14.97352810280066 11.541731644590879  14.609701633827566 11.152975288303129  14.609701633827566 10.957285008237227  C 14.609701633827566 10.760657509500271  14.97352810280066 10.372838371883574  14.97352810280066 10.372838371883574  L 14.97352810280066 9.78445542273476  C 14.97352810280066 9.78445542273476  14.609701633827566 9.396823723228994  14.609701633827566 9.200008786381108  C 14.609701633827566 9.003193849533222  14.97352810280066 8.616499354640307  14.97352810280066 8.616499354640307  L 14.97352810280066 8.030178295002745  C 14.97352810280066 8.030178295002745  14.609701633827566 7.6432963619989  14.609701633827566 7.445731644590883  C 14.609701633827566 7.248916707742997  14.97352810280066 6.86128500823723  14.97352810280066 6.86128500823723  Z M 8.097313930783269 11.997599099417375  C 8.096647502552448 11.997599099417375  8.095981076120228 11.997596910125122  8.095314662273475 11.997592531576057  L 8.095314662273475 12.002278596814937  L 6.677872226688632 12.002278596814937  L 6.677872226688632 13.240338275672707  L 6.668312644041737 13.240338275672707  C 6.6993872793719635 13.393575008724776  6.634819524594706 13.550403578059251  6.504862534431631 13.637342119714441  C 6.37492990808701 13.724315686764575  6.205363708167793 13.724315686764575  6.075431081823174 13.637342119714443  C 5.94557290422601 13.550322738682159  5.88103341843038 13.393562845337957  5.911980958154861 13.240338275672707  L 5.902421375507965 13.240338275672707  L 5.902421375507965 12.002278596814937  L 4.442804324656782 12.002278596814937  L 4.442804324656782 11.997592531576055  C 4.273543478967601 11.997592531576055  4.136147913454147 11.86038440417353  4.136147899395937 11.690936120373419  C 4.136147899395937 11.521675274684236  4.27354346490939 11.384279709170784  4.442804324656782 11.384279695112571  L 4.442804324656782 11.380530848544755  L 5.902421375507965 11.380530848544755  L 5.902421375507965 10.520543286545854  L 4.442804324656782 10.520543286545854  L 4.442804324656782 10.513795345853925  C 4.333525178693027 10.513795345853925  4.232306068314114 10.455500631301481  4.177760200329492 10.360654585392641  C 4.1230275742703 10.265963272475512  4.1230275742703 10.149251815498127  4.17776020032949 10.054560502580998  C 4.232493492366831 9.959714442613947  4.333525164634817 9.901607180230641  4.442804324656782 9.901607180230641  L 5.673178844151565 9.901607180230641  L 4.356393190554641 7.445731644590883  L 4.358267613838552 7.443857221306973  C 4.314695964130894 7.379205313161899  4.29141902333574 7.303016828661096  4.29141902333574 7.225053004453672  C 4.29141902333574 7.009344037926408  4.465898706247193 6.834273148449252  4.6816064386600775 6.833543478967599  C 4.852366831411312 6.833543478967599  4.996322899505766 6.943010077100493  5.049181768259198 7.094463852388796  L 5.054055285667216 7.094463852388796  C 5.054055285667216 7.094463852388796  6.230633717737509 9.292230642504117  6.304486175068644 9.480423215376163  L 6.319856493794619 9.480423215376163  C 6.3727153625480515 9.328781987918722  7.517615966611753 7.094463852388794  7.517615966611753 7.094463852388794  L 7.519490389895663 7.094463852388794  C 7.587157234925866 6.916205752443711  7.771975837451952 6.811050343327838  7.959793520043934 6.844227718396482  C 8.147611202635918 6.877217655354198  8.285381658429435 7.039168231960458  8.288193300384407 7.229797542449201  C 8.288193300384407 7.318083099835252  8.259327114332786 7.3986834978583165  8.210404544316313 7.462976386600767  L 6.8879956068094454 9.900669961559583  L 8.093440238989567 9.900669961559583  C 8.263075974958815 9.900669961559583  8.400471540472267 10.038252979242174  8.400471540472267 10.207888701153212  C 8.400471540472267 10.377524423064253  8.263075974958815 10.514920002635915  8.093440238989567 10.514920002635915  L 8.093440238989567 10.519793520043933  L 6.676935022075783 10.519793520043933  L 6.676935022075783 11.379781067984624  L 8.092503020318507 11.379781067984624  L 8.092503020318507 11.384467147281715  C 8.26326341306974 11.384467147281715  8.401596197254255 11.52279993146623  8.401596197254255 11.690561230093357  C 8.401604440872031 11.691475619323409  8.401608562743732 11.692390041067714  8.401608562743732 11.693304467456915  C 8.401608562743732 11.861361752144052  8.265371215470406 11.997599099417375  8.097313930783269 11.997599099417375  Z M 11.43610763316859 12.787289030642503  L 11.43610763316859 13.305568369028006  C 11.43610763316859 13.498447007138935  11.246977855683692 13.653087314662272  11.014736230203187 13.653087314662272  C 10.781557386051622 13.653087314662272  10.593364827237783 13.498447007138935  10.593364813179573 13.305568369028006  L 10.593364813179573 12.787289030642503  C 10.593364813179573 12.596284815815485  10.781557386051622 12.441831960461283  11.014736230203187 12.441831960461283  C 11.246977855683692 12.441831960461283  11.43610763316859 12.596472267984623  11.43610763316859 12.787289030642503  Z M 11.43610763316859 10.87368551609006  L 11.43610763316859 11.392902073146624  C 11.43610763316859 11.583906287973642  11.246977855683692 11.737421938714993  11.014736230203187 11.73742192465678  C 10.781557386051622 11.73742192465678  10.593364827237783 11.583718835804504  10.593364813179573 11.392902073146624  L 10.593364813179573 10.87368551609006  C 10.593364813179573 10.6836185199341  10.781557386051622 10.52916565052169  11.014736230203187 10.529165664579901  C 11.246977855683692 10.529165664579901  11.43610763316859 10.683618533992313  11.43610763316859 10.87368551609006  Z M 11.43610763316859 8.960082001537618  L 11.43610763316859 9.47836133992312  C 11.43610763316859 9.671239978034048  11.246977855683692 9.824755628775398  11.014736230203187 9.824755628775398  C 10.781557386051622 9.824755628775398  10.593364827237783 9.671239978034048  10.593364813179573 9.47836133992312  L 10.593364813179573 8.960082001537618  C 10.593364813179573 8.7690777867106  10.781557386051622 8.613687712685339  11.014736230203187 8.613687712685339  C 11.246977855683692 8.613687712685339  11.43610763316859 8.7690777867106  11.43610763316859 8.960082001537618  Z M 11.43610763316859 7.047415705656235  L 11.43610763316859 7.565695044041736  C 11.43610763316859 7.757636463481605  11.246977855683692 7.913026551565075  11.014736230203187 7.913026537506864  C 10.781557386051622 7.913026537506864  10.593364827237783 7.757636463481605  10.593364813179573 7.565695044041736  L 10.593364813179573 7.047415705656235  C 10.593364813179573 6.855474286216366  10.781557386051622 6.699896760021967  11.014736230203187 6.699896760021967  C 11.246977855683692 6.699896760021967  11.43610763316859 6.855286834047229  11.43610763316859 7.047415705656235  Z M 2.9331400329489297 4.87945232026359  L 10.788117888632621 4.879452320263593  L 5.60288779527732 2.911115499615596  C 4.675795716639209 2.5589104887424496  3.6594808760021964 2.9667860103239976  3.3352048325096106 3.821900054914882  L 2.9331400329489297 4.87945232026359  Z M 5.871680766172432 2.4168288439319054  L 12.441738234376714 4.879452320263593  L 12.995444261394837 4.879452320263593  L 9.033840746842396 1.4878623420098847  C 8.280508141021418 0.8419344588687536  7.186404544316309 0.8812974462383302  6.591461106644699 1.5770851180669965  L 5.871680766172432 2.4168288439319054  Z " fill-rule="evenodd" />
    </mask>
  </defs>
  <g transform="matrix(1 0 0 1 -17 -15 )">
    <path d="M 14.97352810280066 6.86128500823723  L 14.97352810280066 6.277775576496429  C 14.97352810280066 6.277775576496429  14.609701633827566 5.891081081603514  14.609701633827566 5.6942661588138375  C 14.609701633827566 5.4983884406370125  14.733413879846236 5.41403918198792  14.733413879846236 5.41403916792971  L 2.80924034881933 5.41403916792971  C 1.8159809722130702 5.41403916792971  1.0107267163097198 6.155937753761668  1.0107267022515103 7.071408388358046  L 1.0107267022515103 13.334434555079628  C 1.0107267022515103 14.249905175617792  1.81598095815486 14.990866556836902  2.80924034881933 15  L 14.76040564261395 15  C 14.76040564261395 14.990866556836902  14.614575151235584 14.650095551894562  14.609701633827566 14.462090431191651  C 14.605952773201537 14.265275494343765  14.97352810280066 13.877643794837999  14.97352810280066 13.877643780779788  L 14.97352810280066 13.293197144426136  C 14.97352810280066 13.293197144426136  14.609701633827566 12.90556544492037  14.609701633827566 12.708750508072484  C 14.609701633827566 12.511935571224598  14.97352810280066 12.124303871718832  14.97352810280066 12.124303857660625  L 14.97352810280066 11.541731644590879  C 14.97352810280066 11.541731644590879  14.609701633827566 11.152975288303129  14.609701633827566 10.957285008237227  C 14.609701633827566 10.760657509500271  14.97352810280066 10.372838371883574  14.97352810280066 10.372838371883574  L 14.97352810280066 9.78445542273476  C 14.97352810280066 9.78445542273476  14.609701633827566 9.396823723228994  14.609701633827566 9.200008786381108  C 14.609701633827566 9.003193849533222  14.97352810280066 8.616499354640307  14.97352810280066 8.616499354640307  L 14.97352810280066 8.030178295002745  C 14.97352810280066 8.030178295002745  14.609701633827566 7.6432963619989  14.609701633827566 7.445731644590883  C 14.609701633827566 7.248916707742997  14.97352810280066 6.86128500823723  14.97352810280066 6.86128500823723  Z M 8.097313930783269 11.997599099417375  C 8.096647502552448 11.997599099417375  8.095981076120228 11.997596910125122  8.095314662273475 11.997592531576057  L 8.095314662273475 12.002278596814937  L 6.677872226688632 12.002278596814937  L 6.677872226688632 13.240338275672707  L 6.668312644041737 13.240338275672707  C 6.6993872793719635 13.393575008724776  6.634819524594706 13.550403578059251  6.504862534431631 13.637342119714441  C 6.37492990808701 13.724315686764575  6.205363708167793 13.724315686764575  6.075431081823174 13.637342119714443  C 5.94557290422601 13.550322738682159  5.88103341843038 13.393562845337957  5.911980958154861 13.240338275672707  L 5.902421375507965 13.240338275672707  L 5.902421375507965 12.002278596814937  L 4.442804324656782 12.002278596814937  L 4.442804324656782 11.997592531576055  C 4.273543478967601 11.997592531576055  4.136147913454147 11.86038440417353  4.136147899395937 11.690936120373419  C 4.136147899395937 11.521675274684236  4.27354346490939 11.384279709170784  4.442804324656782 11.384279695112571  L 4.442804324656782 11.380530848544755  L 5.902421375507965 11.380530848544755  L 5.902421375507965 10.520543286545854  L 4.442804324656782 10.520543286545854  L 4.442804324656782 10.513795345853925  C 4.333525178693027 10.513795345853925  4.232306068314114 10.455500631301481  4.177760200329492 10.360654585392641  C 4.1230275742703 10.265963272475512  4.1230275742703 10.149251815498127  4.17776020032949 10.054560502580998  C 4.232493492366831 9.959714442613947  4.333525164634817 9.901607180230641  4.442804324656782 9.901607180230641  L 5.673178844151565 9.901607180230641  L 4.356393190554641 7.445731644590883  L 4.358267613838552 7.443857221306973  C 4.314695964130894 7.379205313161899  4.29141902333574 7.303016828661096  4.29141902333574 7.225053004453672  C 4.29141902333574 7.009344037926408  4.465898706247193 6.834273148449252  4.6816064386600775 6.833543478967599  C 4.852366831411312 6.833543478967599  4.996322899505766 6.943010077100493  5.049181768259198 7.094463852388796  L 5.054055285667216 7.094463852388796  C 5.054055285667216 7.094463852388796  6.230633717737509 9.292230642504117  6.304486175068644 9.480423215376163  L 6.319856493794619 9.480423215376163  C 6.3727153625480515 9.328781987918722  7.517615966611753 7.094463852388794  7.517615966611753 7.094463852388794  L 7.519490389895663 7.094463852388794  C 7.587157234925866 6.916205752443711  7.771975837451952 6.811050343327838  7.959793520043934 6.844227718396482  C 8.147611202635918 6.877217655354198  8.285381658429435 7.039168231960458  8.288193300384407 7.229797542449201  C 8.288193300384407 7.318083099835252  8.259327114332786 7.3986834978583165  8.210404544316313 7.462976386600767  L 6.8879956068094454 9.900669961559583  L 8.093440238989567 9.900669961559583  C 8.263075974958815 9.900669961559583  8.400471540472267 10.038252979242174  8.400471540472267 10.207888701153212  C 8.400471540472267 10.377524423064253  8.263075974958815 10.514920002635915  8.093440238989567 10.514920002635915  L 8.093440238989567 10.519793520043933  L 6.676935022075783 10.519793520043933  L 6.676935022075783 11.379781067984624  L 8.092503020318507 11.379781067984624  L 8.092503020318507 11.384467147281715  C 8.26326341306974 11.384467147281715  8.401596197254255 11.52279993146623  8.401596197254255 11.690561230093357  C 8.401604440872031 11.691475619323409  8.401608562743732 11.692390041067714  8.401608562743732 11.693304467456915  C 8.401608562743732 11.861361752144052  8.265371215470406 11.997599099417375  8.097313930783269 11.997599099417375  Z M 11.43610763316859 12.787289030642503  L 11.43610763316859 13.305568369028006  C 11.43610763316859 13.498447007138935  11.246977855683692 13.653087314662272  11.014736230203187 13.653087314662272  C 10.781557386051622 13.653087314662272  10.593364827237783 13.498447007138935  10.593364813179573 13.305568369028006  L 10.593364813179573 12.787289030642503  C 10.593364813179573 12.596284815815485  10.781557386051622 12.441831960461283  11.014736230203187 12.441831960461283  C 11.246977855683692 12.441831960461283  11.43610763316859 12.596472267984623  11.43610763316859 12.787289030642503  Z M 11.43610763316859 10.87368551609006  L 11.43610763316859 11.392902073146624  C 11.43610763316859 11.583906287973642  11.246977855683692 11.737421938714993  11.014736230203187 11.73742192465678  C 10.781557386051622 11.73742192465678  10.593364827237783 11.583718835804504  10.593364813179573 11.392902073146624  L 10.593364813179573 10.87368551609006  C 10.593364813179573 10.6836185199341  10.781557386051622 10.52916565052169  11.014736230203187 10.529165664579901  C 11.246977855683692 10.529165664579901  11.43610763316859 10.683618533992313  11.43610763316859 10.87368551609006  Z M 11.43610763316859 8.960082001537618  L 11.43610763316859 9.47836133992312  C 11.43610763316859 9.671239978034048  11.246977855683692 9.824755628775398  11.014736230203187 9.824755628775398  C 10.781557386051622 9.824755628775398  10.593364827237783 9.671239978034048  10.593364813179573 9.47836133992312  L 10.593364813179573 8.960082001537618  C 10.593364813179573 8.7690777867106  10.781557386051622 8.613687712685339  11.014736230203187 8.613687712685339  C 11.246977855683692 8.613687712685339  11.43610763316859 8.7690777867106  11.43610763316859 8.960082001537618  Z M 11.43610763316859 7.047415705656235  L 11.43610763316859 7.565695044041736  C 11.43610763316859 7.757636463481605  11.246977855683692 7.913026551565075  11.014736230203187 7.913026537506864  C 10.781557386051622 7.913026537506864  10.593364827237783 7.757636463481605  10.593364813179573 7.565695044041736  L 10.593364813179573 7.047415705656235  C 10.593364813179573 6.855474286216366  10.781557386051622 6.699896760021967  11.014736230203187 6.699896760021967  C 11.246977855683692 6.699896760021967  11.43610763316859 6.855286834047229  11.43610763316859 7.047415705656235  Z M 2.9331400329489297 4.87945232026359  L 10.788117888632621 4.879452320263593  L 5.60288779527732 2.911115499615596  C 4.675795716639209 2.5589104887424496  3.6594808760021964 2.9667860103239976  3.3352048325096106 3.821900054914882  L 2.9331400329489297 4.87945232026359  Z M 5.871680766172432 2.4168288439319054  L 12.441738234376714 4.879452320263593  L 12.995444261394837 4.879452320263593  L 9.033840746842396 1.4878623420098847  C 8.280508141021418 0.8419344588687536  7.186404544316309 0.8812974462383302  6.591461106644699 1.5770851180669965  L 5.871680766172432 2.4168288439319054  Z " fill-rule="nonzero" fill="rgba(81, 81, 81, 1)" stroke="none" transform="matrix(1 0 0 1 17 15 )" class="fill" />
    <path d="M 14.97352810280066 6.86128500823723  L 14.97352810280066 6.277775576496429  C 14.97352810280066 6.277775576496429  14.609701633827566 5.891081081603514  14.609701633827566 5.6942661588138375  C 14.609701633827566 5.4983884406370125  14.733413879846236 5.41403918198792  14.733413879846236 5.41403916792971  L 2.80924034881933 5.41403916792971  C 1.8159809722130702 5.41403916792971  1.0107267163097198 6.155937753761668  1.0107267022515103 7.071408388358046  L 1.0107267022515103 13.334434555079628  C 1.0107267022515103 14.249905175617792  1.81598095815486 14.990866556836902  2.80924034881933 15  L 14.76040564261395 15  C 14.76040564261395 14.990866556836902  14.614575151235584 14.650095551894562  14.609701633827566 14.462090431191651  C 14.605952773201537 14.265275494343765  14.97352810280066 13.877643794837999  14.97352810280066 13.877643780779788  L 14.97352810280066 13.293197144426136  C 14.97352810280066 13.293197144426136  14.609701633827566 12.90556544492037  14.609701633827566 12.708750508072484  C 14.609701633827566 12.511935571224598  14.97352810280066 12.124303871718832  14.97352810280066 12.124303857660625  L 14.97352810280066 11.541731644590879  C 14.97352810280066 11.541731644590879  14.609701633827566 11.152975288303129  14.609701633827566 10.957285008237227  C 14.609701633827566 10.760657509500271  14.97352810280066 10.372838371883574  14.97352810280066 10.372838371883574  L 14.97352810280066 9.78445542273476  C 14.97352810280066 9.78445542273476  14.609701633827566 9.396823723228994  14.609701633827566 9.200008786381108  C 14.609701633827566 9.003193849533222  14.97352810280066 8.616499354640307  14.97352810280066 8.616499354640307  L 14.97352810280066 8.030178295002745  C 14.97352810280066 8.030178295002745  14.609701633827566 7.6432963619989  14.609701633827566 7.445731644590883  C 14.609701633827566 7.248916707742997  14.97352810280066 6.86128500823723  14.97352810280066 6.86128500823723  Z " stroke-width="0" stroke-dasharray="0" stroke="rgba(255, 255, 255, 0)" fill="none" transform="matrix(1 0 0 1 17 15 )" class="stroke" mask="url(#Clip1680)" />
    <path d="M 8.097313930783269 11.997599099417375  C 8.096647502552448 11.997599099417375  8.095981076120228 11.997596910125122  8.095314662273475 11.997592531576057  L 8.095314662273475 12.002278596814937  L 6.677872226688632 12.002278596814937  L 6.677872226688632 13.240338275672707  L 6.668312644041737 13.240338275672707  C 6.6993872793719635 13.393575008724776  6.634819524594706 13.550403578059251  6.504862534431631 13.637342119714441  C 6.37492990808701 13.724315686764575  6.205363708167793 13.724315686764575  6.075431081823174 13.637342119714443  C 5.94557290422601 13.550322738682159  5.88103341843038 13.393562845337957  5.911980958154861 13.240338275672707  L 5.902421375507965 13.240338275672707  L 5.902421375507965 12.002278596814937  L 4.442804324656782 12.002278596814937  L 4.442804324656782 11.997592531576055  C 4.273543478967601 11.997592531576055  4.136147913454147 11.86038440417353  4.136147899395937 11.690936120373419  C 4.136147899395937 11.521675274684236  4.27354346490939 11.384279709170784  4.442804324656782 11.384279695112571  L 4.442804324656782 11.380530848544755  L 5.902421375507965 11.380530848544755  L 5.902421375507965 10.520543286545854  L 4.442804324656782 10.520543286545854  L 4.442804324656782 10.513795345853925  C 4.333525178693027 10.513795345853925  4.232306068314114 10.455500631301481  4.177760200329492 10.360654585392641  C 4.1230275742703 10.265963272475512  4.1230275742703 10.149251815498127  4.17776020032949 10.054560502580998  C 4.232493492366831 9.959714442613947  4.333525164634817 9.901607180230641  4.442804324656782 9.901607180230641  L 5.673178844151565 9.901607180230641  L 4.356393190554641 7.445731644590883  L 4.358267613838552 7.443857221306973  C 4.314695964130894 7.379205313161899  4.29141902333574 7.303016828661096  4.29141902333574 7.225053004453672  C 4.29141902333574 7.009344037926408  4.465898706247193 6.834273148449252  4.6816064386600775 6.833543478967599  C 4.852366831411312 6.833543478967599  4.996322899505766 6.943010077100493  5.049181768259198 7.094463852388796  L 5.054055285667216 7.094463852388796  C 5.054055285667216 7.094463852388796  6.230633717737509 9.292230642504117  6.304486175068644 9.480423215376163  L 6.319856493794619 9.480423215376163  C 6.3727153625480515 9.328781987918722  7.517615966611753 7.094463852388794  7.517615966611753 7.094463852388794  L 7.519490389895663 7.094463852388794  C 7.587157234925866 6.916205752443711  7.771975837451952 6.811050343327838  7.959793520043934 6.844227718396482  C 8.147611202635918 6.877217655354198  8.285381658429435 7.039168231960458  8.288193300384407 7.229797542449201  C 8.288193300384407 7.318083099835252  8.259327114332786 7.3986834978583165  8.210404544316313 7.462976386600767  L 6.8879956068094454 9.900669961559583  L 8.093440238989567 9.900669961559583  C 8.263075974958815 9.900669961559583  8.400471540472267 10.038252979242174  8.400471540472267 10.207888701153212  C 8.400471540472267 10.377524423064253  8.263075974958815 10.514920002635915  8.093440238989567 10.514920002635915  L 8.093440238989567 10.519793520043933  L 6.676935022075783 10.519793520043933  L 6.676935022075783 11.379781067984624  L 8.092503020318507 11.379781067984624  L 8.092503020318507 11.384467147281715  C 8.26326341306974 11.384467147281715  8.401596197254255 11.52279993146623  8.401596197254255 11.690561230093357  C 8.401604440872031 11.691475619323409  8.401608562743732 11.692390041067714  8.401608562743732 11.693304467456915  C 8.401608562743732 11.861361752144052  8.265371215470406 11.997599099417375  8.097313930783269 11.997599099417375  Z " stroke-width="0" stroke-dasharray="0" stroke="rgba(255, 255, 255, 0)" fill="none" transform="matrix(1 0 0 1 17 15 )" class="stroke" mask="url(#Clip1680)" />
    <path d="M 11.43610763316859 12.787289030642503  L 11.43610763316859 13.305568369028006  C 11.43610763316859 13.498447007138935  11.246977855683692 13.653087314662272  11.014736230203187 13.653087314662272  C 10.781557386051622 13.653087314662272  10.593364827237783 13.498447007138935  10.593364813179573 13.305568369028006  L 10.593364813179573 12.787289030642503  C 10.593364813179573 12.596284815815485  10.781557386051622 12.441831960461283  11.014736230203187 12.441831960461283  C 11.246977855683692 12.441831960461283  11.43610763316859 12.596472267984623  11.43610763316859 12.787289030642503  Z " stroke-width="0" stroke-dasharray="0" stroke="rgba(255, 255, 255, 0)" fill="none" transform="matrix(1 0 0 1 17 15 )" class="stroke" mask="url(#Clip1680)" />
    <path d="M 11.43610763316859 10.87368551609006  L 11.43610763316859 11.392902073146624  C 11.43610763316859 11.583906287973642  11.246977855683692 11.737421938714993  11.014736230203187 11.73742192465678  C 10.781557386051622 11.73742192465678  10.593364827237783 11.583718835804504  10.593364813179573 11.392902073146624  L 10.593364813179573 10.87368551609006  C 10.593364813179573 10.6836185199341  10.781557386051622 10.52916565052169  11.014736230203187 10.529165664579901  C 11.246977855683692 10.529165664579901  11.43610763316859 10.683618533992313  11.43610763316859 10.87368551609006  Z " stroke-width="0" stroke-dasharray="0" stroke="rgba(255, 255, 255, 0)" fill="none" transform="matrix(1 0 0 1 17 15 )" class="stroke" mask="url(#Clip1680)" />
    <path d="M 11.43610763316859 8.960082001537618  L 11.43610763316859 9.47836133992312  C 11.43610763316859 9.671239978034048  11.246977855683692 9.824755628775398  11.014736230203187 9.824755628775398  C 10.781557386051622 9.824755628775398  10.593364827237783 9.671239978034048  10.593364813179573 9.47836133992312  L 10.593364813179573 8.960082001537618  C 10.593364813179573 8.7690777867106  10.781557386051622 8.613687712685339  11.014736230203187 8.613687712685339  C 11.246977855683692 8.613687712685339  11.43610763316859 8.7690777867106  11.43610763316859 8.960082001537618  Z " stroke-width="0" stroke-dasharray="0" stroke="rgba(255, 255, 255, 0)" fill="none" transform="matrix(1 0 0 1 17 15 )" class="stroke" mask="url(#Clip1680)" />
    <path d="M 11.43610763316859 7.047415705656235  L 11.43610763316859 7.565695044041736  C 11.43610763316859 7.757636463481605  11.246977855683692 7.913026551565075  11.014736230203187 7.913026537506864  C 10.781557386051622 7.913026537506864  10.593364827237783 7.757636463481605  10.593364813179573 7.565695044041736  L 10.593364813179573 7.047415705656235  C 10.593364813179573 6.855474286216366  10.781557386051622 6.699896760021967  11.014736230203187 6.699896760021967  C 11.246977855683692 6.699896760021967  11.43610763316859 6.855286834047229  11.43610763316859 7.047415705656235  Z " stroke-width="0" stroke-dasharray="0" stroke="rgba(255, 255, 255, 0)" fill="none" transform="matrix(1 0 0 1 17 15 )" class="stroke" mask="url(#Clip1680)" />
    <path d="M 2.9331400329489297 4.87945232026359  L 10.788117888632621 4.879452320263593  L 5.60288779527732 2.911115499615596  C 4.675795716639209 2.5589104887424496  3.6594808760021964 2.9667860103239976  3.3352048325096106 3.821900054914882  L 2.9331400329489297 4.87945232026359  Z " stroke-width="0" stroke-dasharray="0" stroke="rgba(255, 255, 255, 0)" fill="none" transform="matrix(1 0 0 1 17 15 )" class="stroke" mask="url(#Clip1680)" />
    <path d="M 5.871680766172432 2.4168288439319054  L 12.441738234376714 4.879452320263593  L 12.995444261394837 4.879452320263593  L 9.033840746842396 1.4878623420098847  C 8.280508141021418 0.8419344588687536  7.186404544316309 0.8812974462383302  6.591461106644699 1.5770851180669965  L 5.871680766172432 2.4168288439319054  Z " stroke-width="0" stroke-dasharray="0" stroke="rgba(255, 255, 255, 0)" fill="none" transform="matrix(1 0 0 1 17 15 )" class="stroke" mask="url(#Clip1680)" />
  </g>
</svg>