<?xml version="1.0" encoding="utf-8"?>
<svg version="1.1" xmlns:xlink="http://www.w3.org/1999/xlink" width="16px" height="14px" xmlns="http://www.w3.org/2000/svg">
  <defs>
    <pattern id="BGPattern" patternUnits="userSpaceOnUse" alignment="0 0" imageRepeat="None" />
    <mask fill="white" id="Clip1183">
      <path d="M 2.8024663414634143 13.429627317073171  C 2.541861463414634 13.429627317073171  2.329802926829268 13.219254634146342  2.329802926829268 12.960679024390243  L 2.329802926829268 11.811285853658536  C 2.329802926829268 10.663203902439024  2.6770887804878045 9.557892682926829  3.3340878048780485 8.614954146341463  C 3.975695609756097 7.694134634146342  4.8664507317073165 6.988417560975609  5.910056585365853 6.5741970731707315  L 6.081826341463414 6.505998048780487  L 5.936140487804877 6.392265365853658  C 5.115004878048779 5.751359999999999  4.644074146341463 4.793701463414633  4.644074146341463 3.764815609756097  C 4.644074146341463 1.9217560975609753  6.153818536585366 0.42228292682926805  8.009568780487804 0.42228292682926805  C 9.865256585365852 0.42228292682926805  11.375016585365854 1.921771707317073  11.375016585365854 3.764815609756097  C 11.375016585365854 4.793670243902438  10.904085853658536 5.751328780487804  10.082950243902438 6.392265365853659  L 9.937264390243902 6.505998048780488  L 10.109018536585367 6.5741970731707315  C 11.152749268292684 6.988433170731707  12.043473170731708 7.694040975609756  12.685034146341463 8.61472  C 13.34201756097561 9.55756487804878  13.689272195121951 10.66296975609756  13.689240975609756 11.81125463414634  L 13.689240975609756 12.96064780487805  C 13.689240975609756 13.219223414634147  13.477213658536586 13.429596097560976  13.21657756097561 13.429596097560976  L 2.8024663414634143 13.429627317073171  Z M 8.010130731707317 7.107379512195122  C 5.399289756097561 7.107379512195122  3.275254634146342 9.217584390243903  3.275254634146342 11.811285853658536  L 3.275254634146342 12.491855609756097  L 12.743867317073171 12.491855609756097  L 12.743867317073171 11.811285853658536  C 12.743867317073171 9.217600000000001  10.620316097560977 7.107379512195122  8.010130731707317 7.107379512195122  Z M 8.009584390243903 1.360070243902439  C 6.675153170731709 1.360070243902439  5.589463414634147 2.438876097560976  5.589463414634147 3.7649248780487814  C 5.589463414634147 5.090926829268294  6.67513756097561 6.169701463414635  8.009584390243903 6.169701463414635  C 9.344015609756097 6.169701463414635  10.429689756097561 5.090942439024391  10.429689756097561 3.7649248780487814  C 10.429705365853659 2.438860487804878  9.344046829268292 1.360070243902439  8.009584390243903 1.360070243902439  Z M 0.48827317073170734 11.705404878048782  C 0.22766829268292685 11.705404878048782  0.015609756097560976 11.49504780487805  0.015609756097560976 11.236519024390244  L 0.015609756097560976 10.347402926829268  C 0.015609756097560976 8.660784390243903  0.947059512195122 7.1338224390243905  2.4464546341463413 6.362403902439024  L 2.5695219512195124 6.299075121951219  L 2.4762224390243905 6.196831219512195  C 2.0087414634146343 5.684628292682927  1.7512741463414634 5.025256585365852  1.7512741463414634 4.3402068292682925  C 1.7512741463414634 2.8298536585365848  2.9753131707317073 1.5981346341463412  4.489662439024391 1.5722692682926827  C 4.48 1.5876917073170729  4.470415609756098 1.603145365853658  4.460909268292683 1.6186614634146337  C 4.227559024390245 1.9238321951219508  4.046891707317074 2.2608780487804876  3.923293658536586 2.62130731707317  C 3.1873560975609765 2.88102243902439  2.6966478048780496 3.5651199999999994  2.6966478048780496 4.340175609756097  C 2.6966478048780496 5.055789268292682  3.121201951219513 5.709681951219511  3.7782321951219524 6.0060331707317065  L 3.781338536585367 6.007438048780487  L 3.784507317073172 6.008639999999999  C 3.980206829268294 6.082255609756096  4.1066614634146354 6.2519960975609745  4.1066614634146354 6.44107707317073  C 4.1066614634146354 6.634825365853657  3.9706848780487816 6.810622439024389  3.7677580487804887 6.879742439024389  L 3.6594419512195135 6.905451707317071  C 2.0700253658536583 7.304124878048781  0.9608741463414634 8.719383414634146  0.9608741463414634 10.347402926829268  L 0.9608741463414634 10.767711219512195  L 1.5131160975609756 10.767711219512195  C 1.4568741463414634 11.076519024390244  1.4256078048780487 11.390930731707316  1.419879024390244 11.705436097560975  L 0.48825756097560974 11.705436097560975  Z M 14.593030243902438 11.705326829268293  C 14.587317073170732 11.390805853658536  14.556035121951219 11.076409756097561  14.499808780487806 10.767695609756096  L 15.05197268292683 10.767695609756096  L 15.05197268292683 10.347387317073169  C 15.05197268292683 8.719336585365852  13.942821463414633 7.304093658536583  12.354669268292684 6.9057639024390225  L 12.245135609756097 6.879758048780485  C 12.042318048780487 6.810653658536583  11.906357073170732 6.634872195121949  11.906357073170732 6.441077073170729  C 11.906357073170732 6.252042926829266  12.03282731707317 6.08228682926829  12.228464390243902 6.008639999999998  L 12.231633170731707 6.007469268292681  L 12.234692682926829 6.006064390243901  C 12.891785365853659 5.709713170731706  13.316355121951219 5.055820487804876  13.316355121951219 4.340206829268292  C 13.316355121951219 3.565073170731706  12.8256 2.880991219512194  12.089553170731707 2.6213385365853643  C 11.966064390243902 2.260831219512194  11.785365853658536 1.9237853658536568  11.552 1.61855219512195  C 11.542509268292683 1.6030204878048768  11.532893658536583 1.587613658536584  11.523231219512194 1.5722224390243893  C 13.03762731707317 1.5980878048780478  14.261650731707316 2.829838048780487  14.261650731707316 4.340238048780487  C 14.261650731707316 5.025412682926828  14.004214634146342 5.684768780487804  13.536718048780486 6.196846829268291  L 13.443387317073169 6.299090731707316  L 13.566532682926827 6.362450731707316  C 15.065943414634145 7.133853658536584  15.997346341463414 8.660815609756098  15.997268292682923 10.347449756097559  L 15.997268292682923 11.236581463414634  C 15.997268292682923 11.495047804878048  15.785272195121948 11.705342439024388  15.52465170731707 11.705342439024388  L 14.593045853658532 11.705342439024388  Z " fill-rule="evenodd" />
    </mask>
  </defs>
  <g transform="matrix(1 0 0 1 -17 -16 )">
    <path d="M 2.8024663414634143 13.429627317073171  C 2.541861463414634 13.429627317073171  2.329802926829268 13.219254634146342  2.329802926829268 12.960679024390243  L 2.329802926829268 11.811285853658536  C 2.329802926829268 10.663203902439024  2.6770887804878045 9.557892682926829  3.3340878048780485 8.614954146341463  C 3.975695609756097 7.694134634146342  4.8664507317073165 6.988417560975609  5.910056585365853 6.5741970731707315  L 6.081826341463414 6.505998048780487  L 5.936140487804877 6.392265365853658  C 5.115004878048779 5.751359999999999  4.644074146341463 4.793701463414633  4.644074146341463 3.764815609756097  C 4.644074146341463 1.9217560975609753  6.153818536585366 0.42228292682926805  8.009568780487804 0.42228292682926805  C 9.865256585365852 0.42228292682926805  11.375016585365854 1.921771707317073  11.375016585365854 3.764815609756097  C 11.375016585365854 4.793670243902438  10.904085853658536 5.751328780487804  10.082950243902438 6.392265365853659  L 9.937264390243902 6.505998048780488  L 10.109018536585367 6.5741970731707315  C 11.152749268292684 6.988433170731707  12.043473170731708 7.694040975609756  12.685034146341463 8.61472  C 13.34201756097561 9.55756487804878  13.689272195121951 10.66296975609756  13.689240975609756 11.81125463414634  L 13.689240975609756 12.96064780487805  C 13.689240975609756 13.219223414634147  13.477213658536586 13.429596097560976  13.21657756097561 13.429596097560976  L 2.8024663414634143 13.429627317073171  Z M 8.010130731707317 7.107379512195122  C 5.399289756097561 7.107379512195122  3.275254634146342 9.217584390243903  3.275254634146342 11.811285853658536  L 3.275254634146342 12.491855609756097  L 12.743867317073171 12.491855609756097  L 12.743867317073171 11.811285853658536  C 12.743867317073171 9.217600000000001  10.620316097560977 7.107379512195122  8.010130731707317 7.107379512195122  Z M 8.009584390243903 1.360070243902439  C 6.675153170731709 1.360070243902439  5.589463414634147 2.438876097560976  5.589463414634147 3.7649248780487814  C 5.589463414634147 5.090926829268294  6.67513756097561 6.169701463414635  8.009584390243903 6.169701463414635  C 9.344015609756097 6.169701463414635  10.429689756097561 5.090942439024391  10.429689756097561 3.7649248780487814  C 10.429705365853659 2.438860487804878  9.344046829268292 1.360070243902439  8.009584390243903 1.360070243902439  Z M 0.48827317073170734 11.705404878048782  C 0.22766829268292685 11.705404878048782  0.015609756097560976 11.49504780487805  0.015609756097560976 11.236519024390244  L 0.015609756097560976 10.347402926829268  C 0.015609756097560976 8.660784390243903  0.947059512195122 7.1338224390243905  2.4464546341463413 6.362403902439024  L 2.5695219512195124 6.299075121951219  L 2.4762224390243905 6.196831219512195  C 2.0087414634146343 5.684628292682927  1.7512741463414634 5.025256585365852  1.7512741463414634 4.3402068292682925  C 1.7512741463414634 2.8298536585365848  2.9753131707317073 1.5981346341463412  4.489662439024391 1.5722692682926827  C 4.48 1.5876917073170729  4.470415609756098 1.603145365853658  4.460909268292683 1.6186614634146337  C 4.227559024390245 1.9238321951219508  4.046891707317074 2.2608780487804876  3.923293658536586 2.62130731707317  C 3.1873560975609765 2.88102243902439  2.6966478048780496 3.5651199999999994  2.6966478048780496 4.340175609756097  C 2.6966478048780496 5.055789268292682  3.121201951219513 5.709681951219511  3.7782321951219524 6.0060331707317065  L 3.781338536585367 6.007438048780487  L 3.784507317073172 6.008639999999999  C 3.980206829268294 6.082255609756096  4.1066614634146354 6.2519960975609745  4.1066614634146354 6.44107707317073  C 4.1066614634146354 6.634825365853657  3.9706848780487816 6.810622439024389  3.7677580487804887 6.879742439024389  L 3.6594419512195135 6.905451707317071  C 2.0700253658536583 7.304124878048781  0.9608741463414634 8.719383414634146  0.9608741463414634 10.347402926829268  L 0.9608741463414634 10.767711219512195  L 1.5131160975609756 10.767711219512195  C 1.4568741463414634 11.076519024390244  1.4256078048780487 11.390930731707316  1.419879024390244 11.705436097560975  L 0.48825756097560974 11.705436097560975  Z M 14.593030243902438 11.705326829268293  C 14.587317073170732 11.390805853658536  14.556035121951219 11.076409756097561  14.499808780487806 10.767695609756096  L 15.05197268292683 10.767695609756096  L 15.05197268292683 10.347387317073169  C 15.05197268292683 8.719336585365852  13.942821463414633 7.304093658536583  12.354669268292684 6.9057639024390225  L 12.245135609756097 6.879758048780485  C 12.042318048780487 6.810653658536583  11.906357073170732 6.634872195121949  11.906357073170732 6.441077073170729  C 11.906357073170732 6.252042926829266  12.03282731707317 6.08228682926829  12.228464390243902 6.008639999999998  L 12.231633170731707 6.007469268292681  L 12.234692682926829 6.006064390243901  C 12.891785365853659 5.709713170731706  13.316355121951219 5.055820487804876  13.316355121951219 4.340206829268292  C 13.316355121951219 3.565073170731706  12.8256 2.880991219512194  12.089553170731707 2.6213385365853643  C 11.966064390243902 2.260831219512194  11.785365853658536 1.9237853658536568  11.552 1.61855219512195  C 11.542509268292683 1.6030204878048768  11.532893658536583 1.587613658536584  11.523231219512194 1.5722224390243893  C 13.03762731707317 1.5980878048780478  14.261650731707316 2.829838048780487  14.261650731707316 4.340238048780487  C 14.261650731707316 5.025412682926828  14.004214634146342 5.684768780487804  13.536718048780486 6.196846829268291  L 13.443387317073169 6.299090731707316  L 13.566532682926827 6.362450731707316  C 15.065943414634145 7.133853658536584  15.997346341463414 8.660815609756098  15.997268292682923 10.347449756097559  L 15.997268292682923 11.236581463414634  C 15.997268292682923 11.495047804878048  15.785272195121948 11.705342439024388  15.52465170731707 11.705342439024388  L 14.593045853658532 11.705342439024388  Z " fill-rule="nonzero" fill="rgba(81, 81, 81, 1)" stroke="none" transform="matrix(1 0 0 1 17 16 )" class="fill" />
    <path d="M 2.8024663414634143 13.429627317073171  C 2.541861463414634 13.429627317073171  2.329802926829268 13.219254634146342  2.329802926829268 12.960679024390243  L 2.329802926829268 11.811285853658536  C 2.329802926829268 10.663203902439024  2.6770887804878045 9.557892682926829  3.3340878048780485 8.614954146341463  C 3.975695609756097 7.694134634146342  4.8664507317073165 6.988417560975609  5.910056585365853 6.5741970731707315  L 6.081826341463414 6.505998048780487  L 5.936140487804877 6.392265365853658  C 5.115004878048779 5.751359999999999  4.644074146341463 4.793701463414633  4.644074146341463 3.764815609756097  C 4.644074146341463 1.9217560975609753  6.153818536585366 0.42228292682926805  8.009568780487804 0.42228292682926805  C 9.865256585365852 0.42228292682926805  11.375016585365854 1.921771707317073  11.375016585365854 3.764815609756097  C 11.375016585365854 4.793670243902438  10.904085853658536 5.751328780487804  10.082950243902438 6.392265365853659  L 9.937264390243902 6.505998048780488  L 10.109018536585367 6.5741970731707315  C 11.152749268292684 6.988433170731707  12.043473170731708 7.694040975609756  12.685034146341463 8.61472  C 13.34201756097561 9.55756487804878  13.689272195121951 10.66296975609756  13.689240975609756 11.81125463414634  L 13.689240975609756 12.96064780487805  C 13.689240975609756 13.219223414634147  13.477213658536586 13.429596097560976  13.21657756097561 13.429596097560976  L 2.8024663414634143 13.429627317073171  Z " stroke-width="0" stroke-dasharray="0" stroke="rgba(255, 255, 255, 0)" fill="none" transform="matrix(1 0 0 1 17 16 )" class="stroke" mask="url(#Clip1183)" />
    <path d="M 8.010130731707317 7.107379512195122  C 5.399289756097561 7.107379512195122  3.275254634146342 9.217584390243903  3.275254634146342 11.811285853658536  L 3.275254634146342 12.491855609756097  L 12.743867317073171 12.491855609756097  L 12.743867317073171 11.811285853658536  C 12.743867317073171 9.217600000000001  10.620316097560977 7.107379512195122  8.010130731707317 7.107379512195122  Z " stroke-width="0" stroke-dasharray="0" stroke="rgba(255, 255, 255, 0)" fill="none" transform="matrix(1 0 0 1 17 16 )" class="stroke" mask="url(#Clip1183)" />
    <path d="M 8.009584390243903 1.360070243902439  C 6.675153170731709 1.360070243902439  5.589463414634147 2.438876097560976  5.589463414634147 3.7649248780487814  C 5.589463414634147 5.090926829268294  6.67513756097561 6.169701463414635  8.009584390243903 6.169701463414635  C 9.344015609756097 6.169701463414635  10.429689756097561 5.090942439024391  10.429689756097561 3.7649248780487814  C 10.429705365853659 2.438860487804878  9.344046829268292 1.360070243902439  8.009584390243903 1.360070243902439  Z " stroke-width="0" stroke-dasharray="0" stroke="rgba(255, 255, 255, 0)" fill="none" transform="matrix(1 0 0 1 17 16 )" class="stroke" mask="url(#Clip1183)" />
    <path d="M 0.48827317073170734 11.705404878048782  C 0.22766829268292685 11.705404878048782  0.015609756097560976 11.49504780487805  0.015609756097560976 11.236519024390244  L 0.015609756097560976 10.347402926829268  C 0.015609756097560976 8.660784390243903  0.947059512195122 7.1338224390243905  2.4464546341463413 6.362403902439024  L 2.5695219512195124 6.299075121951219  L 2.4762224390243905 6.196831219512195  C 2.0087414634146343 5.684628292682927  1.7512741463414634 5.025256585365852  1.7512741463414634 4.3402068292682925  C 1.7512741463414634 2.8298536585365848  2.9753131707317073 1.5981346341463412  4.489662439024391 1.5722692682926827  C 4.48 1.5876917073170729  4.470415609756098 1.603145365853658  4.460909268292683 1.6186614634146337  C 4.227559024390245 1.9238321951219508  4.046891707317074 2.2608780487804876  3.923293658536586 2.62130731707317  C 3.1873560975609765 2.88102243902439  2.6966478048780496 3.5651199999999994  2.6966478048780496 4.340175609756097  C 2.6966478048780496 5.055789268292682  3.121201951219513 5.709681951219511  3.7782321951219524 6.0060331707317065  L 3.781338536585367 6.007438048780487  L 3.784507317073172 6.008639999999999  C 3.980206829268294 6.082255609756096  4.1066614634146354 6.2519960975609745  4.1066614634146354 6.44107707317073  C 4.1066614634146354 6.634825365853657  3.9706848780487816 6.810622439024389  3.7677580487804887 6.879742439024389  L 3.6594419512195135 6.905451707317071  C 2.0700253658536583 7.304124878048781  0.9608741463414634 8.719383414634146  0.9608741463414634 10.347402926829268  L 0.9608741463414634 10.767711219512195  L 1.5131160975609756 10.767711219512195  C 1.4568741463414634 11.076519024390244  1.4256078048780487 11.390930731707316  1.419879024390244 11.705436097560975  L 0.48825756097560974 11.705436097560975  Z " stroke-width="0" stroke-dasharray="0" stroke="rgba(255, 255, 255, 0)" fill="none" transform="matrix(1 0 0 1 17 16 )" class="stroke" mask="url(#Clip1183)" />
    <path d="M 14.593030243902438 11.705326829268293  C 14.587317073170732 11.390805853658536  14.556035121951219 11.076409756097561  14.499808780487806 10.767695609756096  L 15.05197268292683 10.767695609756096  L 15.05197268292683 10.347387317073169  C 15.05197268292683 8.719336585365852  13.942821463414633 7.304093658536583  12.354669268292684 6.9057639024390225  L 12.245135609756097 6.879758048780485  C 12.042318048780487 6.810653658536583  11.906357073170732 6.634872195121949  11.906357073170732 6.441077073170729  C 11.906357073170732 6.252042926829266  12.03282731707317 6.08228682926829  12.228464390243902 6.008639999999998  L 12.231633170731707 6.007469268292681  L 12.234692682926829 6.006064390243901  C 12.891785365853659 5.709713170731706  13.316355121951219 5.055820487804876  13.316355121951219 4.340206829268292  C 13.316355121951219 3.565073170731706  12.8256 2.880991219512194  12.089553170731707 2.6213385365853643  C 11.966064390243902 2.260831219512194  11.785365853658536 1.9237853658536568  11.552 1.61855219512195  C 11.542509268292683 1.6030204878048768  11.532893658536583 1.587613658536584  11.523231219512194 1.5722224390243893  C 13.03762731707317 1.5980878048780478  14.261650731707316 2.829838048780487  14.261650731707316 4.340238048780487  C 14.261650731707316 5.025412682926828  14.004214634146342 5.684768780487804  13.536718048780486 6.196846829268291  L 13.443387317073169 6.299090731707316  L 13.566532682926827 6.362450731707316  C 15.065943414634145 7.133853658536584  15.997346341463414 8.660815609756098  15.997268292682923 10.347449756097559  L 15.997268292682923 11.236581463414634  C 15.997268292682923 11.495047804878048  15.785272195121948 11.705342439024388  15.52465170731707 11.705342439024388  L 14.593045853658532 11.705342439024388  Z " stroke-width="0" stroke-dasharray="0" stroke="rgba(255, 255, 255, 0)" fill="none" transform="matrix(1 0 0 1 17 16 )" class="stroke" mask="url(#Clip1183)" />
  </g>
</svg>