<svg t="1751355086543" class="icon" viewBox="0 0 1024 1024" version="1.1" xmlns="http://www.w3.org/2000/svg" p-id="37001" width="64" height="64"><path d="M651.264 118.784c-108.544-75.776-143.36-118.784-143.36-118.784a327.68 327.68 0 0 1-143.36 118.784A681.984 681.984 0 0 1 122.88 188.416v493.568c0 77.824 129.024 190.464 385.024 342.016 256-149.504 385.024-264.192 385.024-342.016V188.416s-135.168 8.192-241.664-69.632z m190.464 542.72c-2.048 73.728-112.64 169.984-333.824 286.72-223.232-118.784-333.824-215.04-333.824-286.72V237.568a942.08 942.08 0 0 0 239.616-79.872 264.192 264.192 0 0 0 94.208-79.872A1110.016 1110.016 0 0 0 614.4 157.696a516.096 516.096 0 0 0 227.328 79.872zM454.656 280.576v12.288c0 12.288 2.048 26.624 2.048 43.008v57.344c0 8.192-2.048 18.432-2.048 28.672v26.624H552.96v59.392h-88.064a210.944 210.944 0 0 1-63.488-4.096v45.056l65.536-4.096h51.2a307.2 307.2 0 0 1-145.408 139.264 176.128 176.128 0 0 1 47.104 32.768 417.792 417.792 0 0 0 133.12-163.84v118.784a294.912 294.912 0 0 1-4.096 73.728h49.152a36.864 36.864 0 0 0-2.048-12.288c0-8.192-2.048-28.672-2.048-61.44v-122.88a278.528 278.528 0 0 0 129.024 172.032 108.544 108.544 0 0 1 40.96-38.912 268.288 268.288 0 0 1-141.312-139.264H675.84l40.96 4.096 30.72 4.096v-47.104H593.92v-57.344h112.64a83.968 83.968 0 0 1-2.048-18.432 366.592 366.592 0 0 1-2.048-43.008v-40.96a319.488 319.488 0 0 1 4.096-63.488l-65.536 4.096h-131.072z m204.8 40.96v86.016h-159.744v-86.016zM368.64 667.648V391.168c28.672-57.344 45.056-86.016 47.104-90.112l12.288-8.192 8.192-8.192a155.648 155.648 0 0 0-55.296-28.672c-40.96 118.784-83.968 198.656-129.024 241.664a200.704 200.704 0 0 1 26.624 45.056 278.528 278.528 0 0 1 24.576-36.864l26.624-43.008v204.8a315.392 315.392 0 0 1-4.096 75.776h45.056a546.816 546.816 0 0 1-2.048-75.776z" fill="#515151" p-id="37002"></path></svg>