<?xml version="1.0" encoding="utf-8"?>
<svg version="1.1" xmlns:xlink="http://www.w3.org/1999/xlink" width="54px" height="55px" xmlns="http://www.w3.org/2000/svg">
  <defs>
    <pattern id="BGPattern" patternUnits="userSpaceOnUse" alignment="0 0" imageRepeat="None" />
    <mask fill="white" id="Clip1722">
      <path d="M 0 22.5  C 0 9.899999999999999  9.68 0  22 0  C 34.32 0  44 9.899999999999999  44 22.5  C 44 35.1  34.32 45  22 45  C 9.68 45  0 35.1  0 22.5  Z " fill-rule="evenodd" />
    </mask>
  </defs>
  <g transform="matrix(1 0 0 1 -265 -2 )">
    <path d="M 0 22.5  C 0 9.899999999999999  9.68 0  22 0  C 34.32 0  44 9.899999999999999  44 22.5  C 44 35.1  34.32 45  22 45  C 9.68 45  0 35.1  0 22.5  Z " fill-rule="nonzero" fill="rgba(255, 255, 255, 0.6980392156862745)" stroke="none" transform="matrix(1 0 0 1 270 7 )" class="fill" />
    <path d="M 0 22.5  C 0 9.899999999999999  9.68 0  22 0  C 34.32 0  44 9.899999999999999  44 22.5  C 44 35.1  34.32 45  22 45  C 9.68 45  0 35.1  0 22.5  Z " stroke-width="0" stroke-dasharray="0" stroke="rgba(240, 246, 255, 1)" fill="none" transform="matrix(1 0 0 1 270 7 )" class="stroke" mask="url(#Clip1722)" />
  </g>
  <style>svg { filter: drop-shadow(0px 0px 2.5px rgba(255, 255, 255, 0.34901960784313724)); }</style>
</svg>