<?xml version="1.0" encoding="utf-8"?>
<svg version="1.1" xmlns:xlink="http://www.w3.org/1999/xlink" width="54px" height="54px" xmlns="http://www.w3.org/2000/svg">
  <defs>
    <pattern id="BGPattern" patternUnits="userSpaceOnUse" alignment="0 0" imageRepeat="None" />
    <mask fill="white" id="Clip1214">
      <path d="M 0 22  C 0 9.68  9.68 0  22 0  C 34.32 0  44 9.68  44 22  C 44 34.32  34.32 44  22 44  C 9.68 44  0 34.32  0 22  Z " fill-rule="evenodd" />
    </mask>
  </defs>
  <g transform="matrix(1 0 0 1 -373 -2 )">
    <path d="M 0 22  C 0 9.68  9.68 0  22 0  C 34.32 0  44 9.68  44 22  C 44 34.32  34.32 44  22 44  C 9.68 44  0 34.32  0 22  Z " fill-rule="nonzero" fill="rgba(246, 230, 235, 1)" stroke="none" transform="matrix(1 0 0 1 378 7 )" class="fill" />
    <path d="M 0 22  C 0 9.68  9.68 0  22 0  C 34.32 0  44 9.68  44 22  C 44 34.32  34.32 44  22 44  C 9.68 44  0 34.32  0 22  Z " stroke-width="0" stroke-dasharray="0" stroke="rgba(240, 246, 255, 1)" fill="none" transform="matrix(1 0 0 1 378 7 )" class="stroke" mask="url(#Clip1214)" />
  </g>
  <style>svg { filter: drop-shadow(0px 0px 2.5px rgba(255, 255, 255, 0.34901960784313724)); }</style>
</svg>