<?xml version="1.0" encoding="utf-8"?>
<svg version="1.1" xmlns:xlink="http://www.w3.org/1999/xlink" width="24px" height="24px" xmlns="http://www.w3.org/2000/svg">
  <defs>
    <pattern id="BGPattern" patternUnits="userSpaceOnUse" alignment="0 0" imageRepeat="None" />
    <mask fill="white" id="Clip1240">
      <path d="M 3.4869642477876104 15.376458053097346  C 2.2312653451327433 12.212988318584074  2.849185699115045 8.72721132743363  4.902658619469026 6.217960353982303  L 4.882797035044248 7.620406513274338  L 7.706474132389381 7.679992396460179  L 7.8135078244247795 1.4578522194690278  L 1.592497558938053 1.3519230159292044  L 1.5340161642477879 4.175600113274337  L 2.907790819115044 4.1943586215929205  C 0.06436851823008786 7.495960037522126  -0.8206346676106198 12.180008179115045  0.8609278810619467 16.41915366584071  C 2.7014407306194697 21.06026517026549  7.144930712920354 23.979956497699114  11.969087881061945 23.979956497699114  C 12.783415102300886 23.979956497699114  13.608787208495574 23.896094465840708  14.434159314690262 23.725065410973453  L 13.85705701380531 20.959861233982302  C 9.493056305840707 21.869101021592922  5.131032943008849 19.522105340176992  3.4870117040707953 15.376403534867258  Z M 23.137820176991152 7.579503716814159  C 20.986129699115047 2.1573408849557523  15.27815575221239 -0.9146060176991153  9.56673557522124 0.2749083185840703  L 10.14273621238938 3.04011249557522  C 14.506736920353983 2.130872707964601  18.868760283185843 4.47786838938053  20.512781522123895 8.621310371681414  C 21.769582088495575 11.787039929203537  21.15056007079646 15.276206654867252  19.094883823008853 17.785175150442477  L 19.112538690265488 16.370582442477872  L 16.287759929203546 16.31761784070796  L 16.191762647787616 22.53862810619469  L 22.41277291327434 22.634625387610615  L 22.465737515044253 19.810948290265483  L 21.10190608141593 19.793293423008848  C 23.93770147964602 16.49395183008849  24.819314930973448 11.815553246017693  23.137724134513274 7.5795150159292  Z " fill-rule="evenodd" />
    </mask>
  </defs>
  <g transform="matrix(1 0 0 1 -430 -866 )">
    <path d="M 3.4869642477876104 15.376458053097346  C 2.2312653451327433 12.212988318584074  2.849185699115045 8.72721132743363  4.902658619469026 6.217960353982303  L 4.882797035044248 7.620406513274338  L 7.706474132389381 7.679992396460179  L 7.8135078244247795 1.4578522194690278  L 1.592497558938053 1.3519230159292044  L 1.5340161642477879 4.175600113274337  L 2.907790819115044 4.1943586215929205  C 0.06436851823008786 7.495960037522126  -0.8206346676106198 12.180008179115045  0.8609278810619467 16.41915366584071  C 2.7014407306194697 21.06026517026549  7.144930712920354 23.979956497699114  11.969087881061945 23.979956497699114  C 12.783415102300886 23.979956497699114  13.608787208495574 23.896094465840708  14.434159314690262 23.725065410973453  L 13.85705701380531 20.959861233982302  C 9.493056305840707 21.869101021592922  5.131032943008849 19.522105340176992  3.4870117040707953 15.376403534867258  Z M 23.137820176991152 7.579503716814159  C 20.986129699115047 2.1573408849557523  15.27815575221239 -0.9146060176991153  9.56673557522124 0.2749083185840703  L 10.14273621238938 3.04011249557522  C 14.506736920353983 2.130872707964601  18.868760283185843 4.47786838938053  20.512781522123895 8.621310371681414  C 21.769582088495575 11.787039929203537  21.15056007079646 15.276206654867252  19.094883823008853 17.785175150442477  L 19.112538690265488 16.370582442477872  L 16.287759929203546 16.31761784070796  L 16.191762647787616 22.53862810619469  L 22.41277291327434 22.634625387610615  L 22.465737515044253 19.810948290265483  L 21.10190608141593 19.793293423008848  C 23.93770147964602 16.49395183008849  24.819314930973448 11.815553246017693  23.137724134513274 7.5795150159292  Z " fill-rule="nonzero" fill="rgba(64, 158, 255, 1)" stroke="none" transform="matrix(1 0 0 1 430 866 )" class="fill" />
    <path d="M 3.4869642477876104 15.376458053097346  C 2.2312653451327433 12.212988318584074  2.849185699115045 8.72721132743363  4.902658619469026 6.217960353982303  L 4.882797035044248 7.620406513274338  L 7.706474132389381 7.679992396460179  L 7.8135078244247795 1.4578522194690278  L 1.592497558938053 1.3519230159292044  L 1.5340161642477879 4.175600113274337  L 2.907790819115044 4.1943586215929205  C 0.06436851823008786 7.495960037522126  -0.8206346676106198 12.180008179115045  0.8609278810619467 16.41915366584071  C 2.7014407306194697 21.06026517026549  7.144930712920354 23.979956497699114  11.969087881061945 23.979956497699114  C 12.783415102300886 23.979956497699114  13.608787208495574 23.896094465840708  14.434159314690262 23.725065410973453  L 13.85705701380531 20.959861233982302  C 9.493056305840707 21.869101021592922  5.131032943008849 19.522105340176992  3.4870117040707953 15.376403534867258  Z " stroke-width="0" stroke-dasharray="0" stroke="rgba(255, 255, 255, 0)" fill="none" transform="matrix(1 0 0 1 430 866 )" class="stroke" mask="url(#Clip1240)" />
    <path d="M 23.137820176991152 7.579503716814159  C 20.986129699115047 2.1573408849557523  15.27815575221239 -0.9146060176991153  9.56673557522124 0.2749083185840703  L 10.14273621238938 3.04011249557522  C 14.506736920353983 2.130872707964601  18.868760283185843 4.47786838938053  20.512781522123895 8.621310371681414  C 21.769582088495575 11.787039929203537  21.15056007079646 15.276206654867252  19.094883823008853 17.785175150442477  L 19.112538690265488 16.370582442477872  L 16.287759929203546 16.31761784070796  L 16.191762647787616 22.53862810619469  L 22.41277291327434 22.634625387610615  L 22.465737515044253 19.810948290265483  L 21.10190608141593 19.793293423008848  C 23.93770147964602 16.49395183008849  24.819314930973448 11.815553246017693  23.137724134513274 7.5795150159292  Z " stroke-width="0" stroke-dasharray="0" stroke="rgba(255, 255, 255, 0)" fill="none" transform="matrix(1 0 0 1 430 866 )" class="stroke" mask="url(#Clip1240)" />
  </g>
</svg>