<?xml version="1.0" encoding="utf-8"?>
<svg version="1.1" xmlns:xlink="http://www.w3.org/1999/xlink" width="24px" height="24px" xmlns="http://www.w3.org/2000/svg">
  <defs>
    <pattern id="BGPattern" patternUnits="userSpaceOnUse" alignment="0 0" imageRepeat="None" />
    <mask fill="white" id="Clip1739">
      <path d="M 23.887792207792153 0.7480519480521253  C 24.093506493506723 0.299220779220741  23.62597402597421 -0.15584415584417  23.183376623376354 0.05610389610392303  L 0.299220779220741 10.030129870129713  C -0.10597402597377369 10.22337662337668  -0.0935064935067203 10.803116883117035  0.3179220779218668 10.983896103896406  L 6.508051948051797 14.48103896103912  C 6.87584415584406 14.686753246753142  7.330909090908971 14.643116883116818  7.648831168831385 14.368831168831276  L 19.854545454545402 3.8462337662338544  C 19.93558441558453 3.7776623376623317  20.12883116883095 3.64675324675336  20.20363636363654 3.7215584415584093  C 20.28467532467512 3.8025974025975304  20.160000000000217 3.9896103896104247  20.091428571428693 4.070649350649546  L 9.531428571428478 15.964675324675227  C 9.23844155844181 16.29506493506524  9.194805194804939 16.781298701298873  9.43168831168823 17.155324675324664  L 13.47740259740258 23.644675324675333  C 13.676883116883074 24.0374025974028  14.244155844155829 24.031168831169268  14.424935064935198 23.632207792207737  L 23.887792207792153 0.7480519480521253  Z " fill-rule="evenodd" />
    </mask>
  </defs>
  <g>
    <path d="M 23.887792207792153 0.7480519480521253  C 24.093506493506723 0.299220779220741  23.62597402597421 -0.15584415584417  23.183376623376354 0.05610389610392303  L 0.299220779220741 10.030129870129713  C -0.10597402597377369 10.22337662337668  -0.0935064935067203 10.803116883117035  0.3179220779218668 10.983896103896406  L 6.508051948051797 14.48103896103912  C 6.87584415584406 14.686753246753142  7.330909090908971 14.643116883116818  7.648831168831385 14.368831168831276  L 19.854545454545402 3.8462337662338544  C 19.93558441558453 3.7776623376623317  20.12883116883095 3.64675324675336  20.20363636363654 3.7215584415584093  C 20.28467532467512 3.8025974025975304  20.160000000000217 3.9896103896104247  20.091428571428693 4.070649350649546  L 9.531428571428478 15.964675324675227  C 9.23844155844181 16.29506493506524  9.194805194804939 16.781298701298873  9.43168831168823 17.155324675324664  L 13.47740259740258 23.644675324675333  C 13.676883116883074 24.0374025974028  14.244155844155829 24.031168831169268  14.424935064935198 23.632207792207737  L 23.887792207792153 0.7480519480521253  Z " fill-rule="nonzero" fill="rgba(64, 158, 255, 1)" stroke="none" class="fill" />
    <path d="M 23.887792207792153 0.7480519480521253  C 24.093506493506723 0.299220779220741  23.62597402597421 -0.15584415584417  23.183376623376354 0.05610389610392303  L 0.299220779220741 10.030129870129713  C -0.10597402597377369 10.22337662337668  -0.0935064935067203 10.803116883117035  0.3179220779218668 10.983896103896406  L 6.508051948051797 14.48103896103912  C 6.87584415584406 14.686753246753142  7.330909090908971 14.643116883116818  7.648831168831385 14.368831168831276  L 19.854545454545402 3.8462337662338544  C 19.93558441558453 3.7776623376623317  20.12883116883095 3.64675324675336  20.20363636363654 3.7215584415584093  C 20.28467532467512 3.8025974025975304  20.160000000000217 3.9896103896104247  20.091428571428693 4.070649350649546  L 9.531428571428478 15.964675324675227  C 9.23844155844181 16.29506493506524  9.194805194804939 16.781298701298873  9.43168831168823 17.155324675324664  L 13.47740259740258 23.644675324675333  C 13.676883116883074 24.0374025974028  14.244155844155829 24.031168831169268  14.424935064935198 23.632207792207737  L 23.887792207792153 0.7480519480521253  Z " stroke-width="0" stroke-dasharray="0" stroke="rgba(255, 255, 255, 0)" fill="none" class="stroke" mask="url(#Clip1739)" />
  </g>
</svg>