<?xml version="1.0" encoding="utf-8"?>
<svg version="1.1" xmlns:xlink="http://www.w3.org/1999/xlink" width="14px" height="14px" xmlns="http://www.w3.org/2000/svg">
  <defs>
    <pattern id="BGPattern" patternUnits="userSpaceOnUse" alignment="0 0" imageRepeat="None" />
    <mask fill="white" id="Clip159">
      <path d="M 13.985656140350883 7  C 13.985656140350883 10.85751578947368  10.859087719298245 13.985656140350883  7 13.985656140350883  C 3.1409122807017553 13.985656140350883  0.014343859649116554 10.85751578947368  0.014343859649116554 7  C 0.014343859649116554 3.1424842105263195  3.1409122807017553 0.014343859649116554  7 0.014343859649116554  C 10.859087719298245 0.014343859649116554  13.985656140350883 3.1424842105263195  13.985656140350883 7  Z M 9.155115789473683 4.2239719298245575  L 6.995284210526307 6.385375438596498  L 4.8338807017543814 4.2239719298245575  C 4.664112280701758 4.054203508771934  4.387452631578952 4.054203508771934  4.216112280701751 4.2239719298245575  C 4.046343859649127 4.393740350877195  4.046343859649127 4.670400000000001  4.216112280701751 4.841740350877188  L 6.377515789473691 7.003143859649128  L 4.216112280701751 9.164547368421054  C 4.046343859649127 9.334315789473678  4.046343859649127 9.610975438596483  4.216112280701751 9.782315789473685  C 4.385880701754388 9.952084210526309  4.662540350877194 9.952084210526309  4.8338807017543814 9.782315789473685  L 6.995284210526307 7.620912280701759  L 9.156687719298247 9.782315789473685  C 9.32645614035087 9.952084210526323  9.60311578947369 9.952084210526323  9.774456140350878 9.782315789473685  C 9.945796491228066 9.612547368421048  9.944224561403516 9.335887719298242  9.774456140350878 9.164547368421054  L 7.611480701754388 7.003143859649128  L 9.772884210526314 4.841740350877188  C 9.942652631578952 4.671971929824565  9.942652631578952 4.395312280701759  9.772884210526314 4.2239719298245575  C 9.60311578947369 4.054203508771934  9.32645614035087 4.054203508771934  9.155115789473683 4.2239719298245575  Z " fill-rule="evenodd" />
    </mask>
  </defs>
  <g transform="matrix(1 0 0 1 -73 -1 )">
    <path d="M 13.985656140350883 7  C 13.985656140350883 10.85751578947368  10.859087719298245 13.985656140350883  7 13.985656140350883  C 3.1409122807017553 13.985656140350883  0.014343859649116554 10.85751578947368  0.014343859649116554 7  C 0.014343859649116554 3.1424842105263195  3.1409122807017553 0.014343859649116554  7 0.014343859649116554  C 10.859087719298245 0.014343859649116554  13.985656140350883 3.1424842105263195  13.985656140350883 7  Z M 9.155115789473683 4.2239719298245575  L 6.995284210526307 6.385375438596498  L 4.8338807017543814 4.2239719298245575  C 4.664112280701758 4.054203508771934  4.387452631578952 4.054203508771934  4.216112280701751 4.2239719298245575  C 4.046343859649127 4.393740350877195  4.046343859649127 4.670400000000001  4.216112280701751 4.841740350877188  L 6.377515789473691 7.003143859649128  L 4.216112280701751 9.164547368421054  C 4.046343859649127 9.334315789473678  4.046343859649127 9.610975438596483  4.216112280701751 9.782315789473685  C 4.385880701754388 9.952084210526309  4.662540350877194 9.952084210526309  4.8338807017543814 9.782315789473685  L 6.995284210526307 7.620912280701759  L 9.156687719298247 9.782315789473685  C 9.32645614035087 9.952084210526323  9.60311578947369 9.952084210526323  9.774456140350878 9.782315789473685  C 9.945796491228066 9.612547368421048  9.944224561403516 9.335887719298242  9.774456140350878 9.164547368421054  L 7.611480701754388 7.003143859649128  L 9.772884210526314 4.841740350877188  C 9.942652631578952 4.671971929824565  9.942652631578952 4.395312280701759  9.772884210526314 4.2239719298245575  C 9.60311578947369 4.054203508771934  9.32645614035087 4.054203508771934  9.155115789473683 4.2239719298245575  Z " fill-rule="nonzero" fill="rgba(150, 151, 153, 1)" stroke="none" transform="matrix(1 0 0 1 73 1 )" class="fill" />
    <path d="M 13.985656140350883 7  C 13.985656140350883 10.85751578947368  10.859087719298245 13.985656140350883  7 13.985656140350883  C 3.1409122807017553 13.985656140350883  0.014343859649116554 10.85751578947368  0.014343859649116554 7  C 0.014343859649116554 3.1424842105263195  3.1409122807017553 0.014343859649116554  7 0.014343859649116554  C 10.859087719298245 0.014343859649116554  13.985656140350883 3.1424842105263195  13.985656140350883 7  Z " stroke-width="0" stroke-dasharray="0" stroke="rgba(255, 255, 255, 1)" fill="none" transform="matrix(1 0 0 1 73 1 )" class="stroke" mask="url(#Clip159)" />
    <path d="M 9.155115789473683 4.2239719298245575  L 6.995284210526307 6.385375438596498  L 4.8338807017543814 4.2239719298245575  C 4.664112280701758 4.054203508771934  4.387452631578952 4.054203508771934  4.216112280701751 4.2239719298245575  C 4.046343859649127 4.393740350877195  4.046343859649127 4.670400000000001  4.216112280701751 4.841740350877188  L 6.377515789473691 7.003143859649128  L 4.216112280701751 9.164547368421054  C 4.046343859649127 9.334315789473678  4.046343859649127 9.610975438596483  4.216112280701751 9.782315789473685  C 4.385880701754388 9.952084210526309  4.662540350877194 9.952084210526309  4.8338807017543814 9.782315789473685  L 6.995284210526307 7.620912280701759  L 9.156687719298247 9.782315789473685  C 9.32645614035087 9.952084210526323  9.60311578947369 9.952084210526323  9.774456140350878 9.782315789473685  C 9.945796491228066 9.612547368421048  9.944224561403516 9.335887719298242  9.774456140350878 9.164547368421054  L 7.611480701754388 7.003143859649128  L 9.772884210526314 4.841740350877188  C 9.942652631578952 4.671971929824565  9.942652631578952 4.395312280701759  9.772884210526314 4.2239719298245575  C 9.60311578947369 4.054203508771934  9.32645614035087 4.054203508771934  9.155115789473683 4.2239719298245575  Z " stroke-width="0" stroke-dasharray="0" stroke="rgba(255, 255, 255, 1)" fill="none" transform="matrix(1 0 0 1 73 1 )" class="stroke" mask="url(#Clip159)" />
  </g>
</svg>