<?xml version="1.0" encoding="utf-8"?>
<svg version="1.1" xmlns:xlink="http://www.w3.org/1999/xlink" width="53px" height="47px" xmlns="http://www.w3.org/2000/svg">
  <defs>
    <pattern id="BGPattern" patternUnits="userSpaceOnUse" alignment="0 0" imageRepeat="None" />
    <mask fill="white" id="Clip683">
      <path d="M 12.559999999999999 34.3066666875  C 15.546666687500002 39  20.88 41.9866666875  27.280000000000005 41.9866666875  C 33.4666666875 41.9866666875  39.0133333125 39  42.4266666875 34.3066666875  L 47.9733333125 34.3066666875  C 44.1333333125 41.559999999999995  36.45333331250001 46.68  27.4933333125 46.68  C 18.53333331249999 46.68  10.853333312499998 41.56  7.013333312499999 34.3066666875  L 12.559999999999999 34.3066666875  Z M 43.493333312500006 14.4666666875  C 40.080000000000005 8.920000000000002  34.106666625 5.293333375000001  27.280000000000005 5.2933333125  C 20.4533333125 5.2933333125  14.48 9.1333333125  11.280000000000001 14.68  L 5.9466666875000005 14.68  C 9.573333375 6.573333312499999  17.68 0.5999999999999996  27.280000000000005 0.5999999999999996  C 36.88 0.5999999999999996  44.986666687500005 6.359999999999999  48.613333312500004 14.4666666875  L 43.493333312500006 14.4666666875  Z M 8.933333312500002 28.120000000000005  C 9.360000000000001 27.693333312500002  9.786666625000002 27.0533333125  10 26.200000000000003  L 14.053333312500001 27.266666687500003  C 13.839999999999998 28.33333337500001  13.413333312500002 29.186666687500008  12.7733333125 29.826666687500012  C 12.1333333125 30.46666668750001  11.493333312499999 31.10666668750001  10.64 31.32000000000001  C 9.5733333125 31.5333333125  8.506666687500001 31.74666668750001  7.2266666875 31.74666668750001  C 5.52 31.74666668750001  5.093333375 31.533333375000012  4.026666687500001 31.10666668750001  C 2.960000000000001 30.680000000000007  2.1066666875000006 30.040000000000003  1.2533333125000006 28.97333331250001  C 0.3999999375000005 27.906666625000014  0.18666662500000086 26.626666625000013  0.1866666875000007 24.920000000000012  C 0.1866666875000007 22.78666668750001  0.8266666875000004 21.08000000000001  2.1066666875000006 19.800000000000008  C 3.3866666875 18.733333312500008  4.453333375 18.093333312500008  6.800000000000002 18.093333312500008  C 8.72 18.093333312500008  10.213333312500001 18.520000000000007  11.280000000000001 19.160000000000007  C 12.3466666875 19.800000000000008  13.200000000000003 20.866666687500008  13.626666687500002 22.14666668750001  L 9.786666687500002 23.000000000000007  C 9.573333375000002 22.573333312500008  9.573333375000002 22.360000000000007  9.360000000000003 22.14666668750001  C 9.146666687500003 21.933333375000007  8.720000000000002 21.506666687500008  8.506666687500003 21.506666687500008  C 8.293333375000003 21.506666687500008  7.6533333750000025 21.293333375000007  7.226666687500004 21.293333312500007  C 6.160000000000004 21.293333312500007  5.3066666875000035 21.720000000000006  4.880000000000003 22.360000000000007  C 4.240000000000002 23.000000000000007  4.026666687500002 23.853333312500002  4.026666687500002 24.920000000000012  C 4.026666687500002 26.41333331250001  4.240000000000002 27.48000000000001  4.880000000000003 27.906666687500007  C 5.306666687500002 28.54666668750001  6.160000000000002 28.76  7.013333312500002 28.76  C 7.866666625000002 28.76  8.506666625000001 28.54666668750001  8.933333312500002 28.120000000000005  Z M 35 31.533333312499998  L 35 18.52  L 41.36 18.52  L 43.7066666875 26.4133333125  L 46.053333312499994 18.52  L 52 18.52  L 52 31.533333312499998  L 48 31.533333312499998  L 48 21.506666687499997  L 45.4133333125 31.533333312499998  L 42 31.533333312499998  L 39 21.506666687499997  L 39 31.533333312499998  L 35 31.533333312499998  Z M 21.7333333125 31.533333312499998  L 18 31.533333312499998  L 18 18.306666687499998  L 25.146666687499998 18.306666687499998  C 26.64 18.306666687499998  27.706666687499993 18.52  28.346666687499997 18.733333312499997  C 29.199999999999992 18.946666625  29.626666687499995 19.373333312499998  30.2666666875 20.0133333125  C 30.693333375 20.6533333125  30.9066666875 21.2933333125  30.9066666875 22.146666687499998  C 30.9066666875 22.7866666875  30.693333375 23.426666687499996  30.2666666875 24.066666687499993  C 29.839999999999996 24.493333375  29.413333375 24.919999999999995  28.773333312500004 25.3466666875  C 28.346666625 25.55999999999999  27.92 25.773333375  27.0666666875 25.773333312500004  C 27.706666687500007 25.986666625  27.92 26.200000000000003  28.346666687500004 26.200000000000003  L 28.986666687500005 26.840000000000003  C 29.413333375000008 27.266666687500003  29.62666668750001 27.48  29.62666668750001 27.693333312500002  L 31.973333312500003 31.5333333125  L 26.64 31.5333333125  L 24.080000000000002 27.48  C 23.8666666875 27.0533333125  23.44 26.626666687500006  23.226666687500003 26.4133333125  C 22.800000000000004 26.200000000000003  22.586666687500003 26.200000000000003  22.160000000000004 26.200000000000003  L 21.7333333125 26.200000000000003  L 21.7333333125 31.533333312499998  Z M 22.159999999999997 20.8666666875  L 22.159999999999997 23.8533333125  L 24.08 23.8533333125  C 24.2933333125 23.8533333125  24.72 23.8533333125  25.36 23.64  C 25.5733333125 23.64  26 23.426666687500003  26.213333312499998 23.213333312499998  C 26.426666624999996 22.999999999999996  26.426666624999996 22.786666625  26.426666687499996 22.36  C 26.426666749999995 21.933333375  26.213333374999998 21.5066666875  25.999999999999996 21.2933333125  C 25.786666624999995 21.0799999375  25.146666687499998 20.866666625  24.293333312499996 20.8666666875  L 22.159999999999997 20.8666666875  Z " fill-rule="evenodd" />
    </mask>
  </defs>
  <g transform="matrix(1 0 0 1 -450 -249 )">
    <path d="M 12.559999999999999 34.3066666875  C 15.546666687500002 39  20.88 41.9866666875  27.280000000000005 41.9866666875  C 33.4666666875 41.9866666875  39.0133333125 39  42.4266666875 34.3066666875  L 47.9733333125 34.3066666875  C 44.1333333125 41.559999999999995  36.45333331250001 46.68  27.4933333125 46.68  C 18.53333331249999 46.68  10.853333312499998 41.56  7.013333312499999 34.3066666875  L 12.559999999999999 34.3066666875  Z M 43.493333312500006 14.4666666875  C 40.080000000000005 8.920000000000002  34.106666625 5.293333375000001  27.280000000000005 5.2933333125  C 20.4533333125 5.2933333125  14.48 9.1333333125  11.280000000000001 14.68  L 5.9466666875000005 14.68  C 9.573333375 6.573333312499999  17.68 0.5999999999999996  27.280000000000005 0.5999999999999996  C 36.88 0.5999999999999996  44.986666687500005 6.359999999999999  48.613333312500004 14.4666666875  L 43.493333312500006 14.4666666875  Z M 8.933333312500002 28.120000000000005  C 9.360000000000001 27.693333312500002  9.786666625000002 27.0533333125  10 26.200000000000003  L 14.053333312500001 27.266666687500003  C 13.839999999999998 28.33333337500001  13.413333312500002 29.186666687500008  12.7733333125 29.826666687500012  C 12.1333333125 30.46666668750001  11.493333312499999 31.10666668750001  10.64 31.32000000000001  C 9.5733333125 31.5333333125  8.506666687500001 31.74666668750001  7.2266666875 31.74666668750001  C 5.52 31.74666668750001  5.093333375 31.533333375000012  4.026666687500001 31.10666668750001  C 2.960000000000001 30.680000000000007  2.1066666875000006 30.040000000000003  1.2533333125000006 28.97333331250001  C 0.3999999375000005 27.906666625000014  0.18666662500000086 26.626666625000013  0.1866666875000007 24.920000000000012  C 0.1866666875000007 22.78666668750001  0.8266666875000004 21.08000000000001  2.1066666875000006 19.800000000000008  C 3.3866666875 18.733333312500008  4.453333375 18.093333312500008  6.800000000000002 18.093333312500008  C 8.72 18.093333312500008  10.213333312500001 18.520000000000007  11.280000000000001 19.160000000000007  C 12.3466666875 19.800000000000008  13.200000000000003 20.866666687500008  13.626666687500002 22.14666668750001  L 9.786666687500002 23.000000000000007  C 9.573333375000002 22.573333312500008  9.573333375000002 22.360000000000007  9.360000000000003 22.14666668750001  C 9.146666687500003 21.933333375000007  8.720000000000002 21.506666687500008  8.506666687500003 21.506666687500008  C 8.293333375000003 21.506666687500008  7.6533333750000025 21.293333375000007  7.226666687500004 21.293333312500007  C 6.160000000000004 21.293333312500007  5.3066666875000035 21.720000000000006  4.880000000000003 22.360000000000007  C 4.240000000000002 23.000000000000007  4.026666687500002 23.853333312500002  4.026666687500002 24.920000000000012  C 4.026666687500002 26.41333331250001  4.240000000000002 27.48000000000001  4.880000000000003 27.906666687500007  C 5.306666687500002 28.54666668750001  6.160000000000002 28.76  7.013333312500002 28.76  C 7.866666625000002 28.76  8.506666625000001 28.54666668750001  8.933333312500002 28.120000000000005  Z M 35 31.533333312499998  L 35 18.52  L 41.36 18.52  L 43.7066666875 26.4133333125  L 46.053333312499994 18.52  L 52 18.52  L 52 31.533333312499998  L 48 31.533333312499998  L 48 21.506666687499997  L 45.4133333125 31.533333312499998  L 42 31.533333312499998  L 39 21.506666687499997  L 39 31.533333312499998  L 35 31.533333312499998  Z M 21.7333333125 31.533333312499998  L 18 31.533333312499998  L 18 18.306666687499998  L 25.146666687499998 18.306666687499998  C 26.64 18.306666687499998  27.706666687499993 18.52  28.346666687499997 18.733333312499997  C 29.199999999999992 18.946666625  29.626666687499995 19.373333312499998  30.2666666875 20.0133333125  C 30.693333375 20.6533333125  30.9066666875 21.2933333125  30.9066666875 22.146666687499998  C 30.9066666875 22.7866666875  30.693333375 23.426666687499996  30.2666666875 24.066666687499993  C 29.839999999999996 24.493333375  29.413333375 24.919999999999995  28.773333312500004 25.3466666875  C 28.346666625 25.55999999999999  27.92 25.773333375  27.0666666875 25.773333312500004  C 27.706666687500007 25.986666625  27.92 26.200000000000003  28.346666687500004 26.200000000000003  L 28.986666687500005 26.840000000000003  C 29.413333375000008 27.266666687500003  29.62666668750001 27.48  29.62666668750001 27.693333312500002  L 31.973333312500003 31.5333333125  L 26.64 31.5333333125  L 24.080000000000002 27.48  C 23.8666666875 27.0533333125  23.44 26.626666687500006  23.226666687500003 26.4133333125  C 22.800000000000004 26.200000000000003  22.586666687500003 26.200000000000003  22.160000000000004 26.200000000000003  L 21.7333333125 26.200000000000003  L 21.7333333125 31.533333312499998  Z M 22.159999999999997 20.8666666875  L 22.159999999999997 23.8533333125  L 24.08 23.8533333125  C 24.2933333125 23.8533333125  24.72 23.8533333125  25.36 23.64  C 25.5733333125 23.64  26 23.426666687500003  26.213333312499998 23.213333312499998  C 26.426666624999996 22.999999999999996  26.426666624999996 22.786666625  26.426666687499996 22.36  C 26.426666749999995 21.933333375  26.213333374999998 21.5066666875  25.999999999999996 21.2933333125  C 25.786666624999995 21.0799999375  25.146666687499998 20.866666625  24.293333312499996 20.8666666875  L 22.159999999999997 20.8666666875  Z " fill-rule="nonzero" fill="rgba(8, 131, 249, 1)" stroke="none" transform="matrix(1 0 0 1 450 249 )" class="fill" />
    <path d="M 12.559999999999999 34.3066666875  C 15.546666687500002 39  20.88 41.9866666875  27.280000000000005 41.9866666875  C 33.4666666875 41.9866666875  39.0133333125 39  42.4266666875 34.3066666875  L 47.9733333125 34.3066666875  C 44.1333333125 41.559999999999995  36.45333331250001 46.68  27.4933333125 46.68  C 18.53333331249999 46.68  10.853333312499998 41.56  7.013333312499999 34.3066666875  L 12.559999999999999 34.3066666875  Z " stroke-width="0" stroke-dasharray="0" stroke="rgba(255, 255, 255, 0)" fill="none" transform="matrix(1 0 0 1 450 249 )" class="stroke" mask="url(#Clip683)" />
    <path d="M 43.493333312500006 14.4666666875  C 40.080000000000005 8.920000000000002  34.106666625 5.293333375000001  27.280000000000005 5.2933333125  C 20.4533333125 5.2933333125  14.48 9.1333333125  11.280000000000001 14.68  L 5.9466666875000005 14.68  C 9.573333375 6.573333312499999  17.68 0.5999999999999996  27.280000000000005 0.5999999999999996  C 36.88 0.5999999999999996  44.986666687500005 6.359999999999999  48.613333312500004 14.4666666875  L 43.493333312500006 14.4666666875  Z " stroke-width="0" stroke-dasharray="0" stroke="rgba(255, 255, 255, 0)" fill="none" transform="matrix(1 0 0 1 450 249 )" class="stroke" mask="url(#Clip683)" />
    <path d="M 8.933333312500002 28.120000000000005  C 9.360000000000001 27.693333312500002  9.786666625000002 27.0533333125  10 26.200000000000003  L 14.053333312500001 27.266666687500003  C 13.839999999999998 28.33333337500001  13.413333312500002 29.186666687500008  12.7733333125 29.826666687500012  C 12.1333333125 30.46666668750001  11.493333312499999 31.10666668750001  10.64 31.32000000000001  C 9.5733333125 31.5333333125  8.506666687500001 31.74666668750001  7.2266666875 31.74666668750001  C 5.52 31.74666668750001  5.093333375 31.533333375000012  4.026666687500001 31.10666668750001  C 2.960000000000001 30.680000000000007  2.1066666875000006 30.040000000000003  1.2533333125000006 28.97333331250001  C 0.3999999375000005 27.906666625000014  0.18666662500000086 26.626666625000013  0.1866666875000007 24.920000000000012  C 0.1866666875000007 22.78666668750001  0.8266666875000004 21.08000000000001  2.1066666875000006 19.800000000000008  C 3.3866666875 18.733333312500008  4.453333375 18.093333312500008  6.800000000000002 18.093333312500008  C 8.72 18.093333312500008  10.213333312500001 18.520000000000007  11.280000000000001 19.160000000000007  C 12.3466666875 19.800000000000008  13.200000000000003 20.866666687500008  13.626666687500002 22.14666668750001  L 9.786666687500002 23.000000000000007  C 9.573333375000002 22.573333312500008  9.573333375000002 22.360000000000007  9.360000000000003 22.14666668750001  C 9.146666687500003 21.933333375000007  8.720000000000002 21.506666687500008  8.506666687500003 21.506666687500008  C 8.293333375000003 21.506666687500008  7.6533333750000025 21.293333375000007  7.226666687500004 21.293333312500007  C 6.160000000000004 21.293333312500007  5.3066666875000035 21.720000000000006  4.880000000000003 22.360000000000007  C 4.240000000000002 23.000000000000007  4.026666687500002 23.853333312500002  4.026666687500002 24.920000000000012  C 4.026666687500002 26.41333331250001  4.240000000000002 27.48000000000001  4.880000000000003 27.906666687500007  C 5.306666687500002 28.54666668750001  6.160000000000002 28.76  7.013333312500002 28.76  C 7.866666625000002 28.76  8.506666625000001 28.54666668750001  8.933333312500002 28.120000000000005  Z " stroke-width="0" stroke-dasharray="0" stroke="rgba(255, 255, 255, 0)" fill="none" transform="matrix(1 0 0 1 450 249 )" class="stroke" mask="url(#Clip683)" />
    <path d="M 35 31.533333312499998  L 35 18.52  L 41.36 18.52  L 43.7066666875 26.4133333125  L 46.053333312499994 18.52  L 52 18.52  L 52 31.533333312499998  L 48 31.533333312499998  L 48 21.506666687499997  L 45.4133333125 31.533333312499998  L 42 31.533333312499998  L 39 21.506666687499997  L 39 31.533333312499998  L 35 31.533333312499998  Z " stroke-width="0" stroke-dasharray="0" stroke="rgba(255, 255, 255, 0)" fill="none" transform="matrix(1 0 0 1 450 249 )" class="stroke" mask="url(#Clip683)" />
    <path d="M 21.7333333125 31.533333312499998  L 18 31.533333312499998  L 18 18.306666687499998  L 25.146666687499998 18.306666687499998  C 26.64 18.306666687499998  27.706666687499993 18.52  28.346666687499997 18.733333312499997  C 29.199999999999992 18.946666625  29.626666687499995 19.373333312499998  30.2666666875 20.0133333125  C 30.693333375 20.6533333125  30.9066666875 21.2933333125  30.9066666875 22.146666687499998  C 30.9066666875 22.7866666875  30.693333375 23.426666687499996  30.2666666875 24.066666687499993  C 29.839999999999996 24.493333375  29.413333375 24.919999999999995  28.773333312500004 25.3466666875  C 28.346666625 25.55999999999999  27.92 25.773333375  27.0666666875 25.773333312500004  C 27.706666687500007 25.986666625  27.92 26.200000000000003  28.346666687500004 26.200000000000003  L 28.986666687500005 26.840000000000003  C 29.413333375000008 27.266666687500003  29.62666668750001 27.48  29.62666668750001 27.693333312500002  L 31.973333312500003 31.5333333125  L 26.64 31.5333333125  L 24.080000000000002 27.48  C 23.8666666875 27.0533333125  23.44 26.626666687500006  23.226666687500003 26.4133333125  C 22.800000000000004 26.200000000000003  22.586666687500003 26.200000000000003  22.160000000000004 26.200000000000003  L 21.7333333125 26.200000000000003  L 21.7333333125 31.533333312499998  Z " stroke-width="0" stroke-dasharray="0" stroke="rgba(255, 255, 255, 0)" fill="none" transform="matrix(1 0 0 1 450 249 )" class="stroke" mask="url(#Clip683)" />
    <path d="M 22.159999999999997 20.8666666875  L 22.159999999999997 23.8533333125  L 24.08 23.8533333125  C 24.2933333125 23.8533333125  24.72 23.8533333125  25.36 23.64  C 25.5733333125 23.64  26 23.426666687500003  26.213333312499998 23.213333312499998  C 26.426666624999996 22.999999999999996  26.426666624999996 22.786666625  26.426666687499996 22.36  C 26.426666749999995 21.933333375  26.213333374999998 21.5066666875  25.999999999999996 21.2933333125  C 25.786666624999995 21.0799999375  25.146666687499998 20.866666625  24.293333312499996 20.8666666875  L 22.159999999999997 20.8666666875  Z " stroke-width="0" stroke-dasharray="0" stroke="rgba(255, 255, 255, 0)" fill="none" transform="matrix(1 0 0 1 450 249 )" class="stroke" mask="url(#Clip683)" />
  </g>
</svg>