<?xml version="1.0" encoding="utf-8"?>
<svg version="1.1" xmlns:xlink="http://www.w3.org/1999/xlink" width="48px" height="45px" xmlns="http://www.w3.org/2000/svg">
  <g transform="matrix(1 0 0 1 -55 -430 )">
    <path d="M 21.53927419354839 43.834921875  C 21.062822580645165 44.296484375  20.471774193548388 44.544218750000006  19.766129032258064 44.578125  C 19.060483870967744 44.544218750000006  18.469435483870967 44.296484375  17.99298387096774 43.834921875  C 17.516532258064515 43.373359375  17.278306451612902 42.80078125000001  17.278306451612902 42.1171875  C 17.278306451612902 41.43359375000001  17.516532258064515 40.86101562499999  17.99298387096774 40.399453125  C 18.469435483870967 39.937890625  19.060483870967744 39.707109375  19.766129032258064 39.707109375  C 20.471774193548388 39.707109375  21.062822580645165 39.937890625  21.53927419354839 40.399453125  C 22.015725806451613 40.86101562499999  22.25395161290323 41.43359375000001  22.25395161290323 42.1171875  C 22.25395161290323 42.80078125000001  22.015725806451613 43.373359375  21.53927419354839 43.834921875  Z M 38.474758064516124 43.834921875  C 37.998306451612905 44.296484375  37.407258064516135 44.544218750000006  36.70161290322581 44.578125  C 35.99596774193549 44.544218750000006  35.40491935483871 44.296484375  34.928467741935485 43.834921875  C 34.45201612903226 43.373359375  34.213790322580635 42.80078125000001  34.213790322580635 42.1171875  C 34.213790322580635 41.43359375000001  34.45201612903226 40.86101562499999  34.928467741935485 40.399453125  C 35.40491935483871 39.937890625  35.99596774193549 39.707109375  36.70161290322581 39.707109375  C 37.407258064516135 39.707109375  37.998306451612905 39.937890625  38.474758064516124 40.399453125  C 38.951209677419364 40.86101562499999  39.18943548387098 41.43359375000001  39.18943548387097 42.1171875  C 39.18943548387098 42.80078125000001  38.951209677419364 43.373359375  38.474758064516124 43.834921875  Z M 1.9838709677419355 3.564140625000001  L 1.9838709677419355 3.5625  C 1.4893548387096773 3.5625  1.0834677419354846 3.408828125  0.7662096774193552 3.1014843749999996  C 0.44895161290322666 2.794140625  0.290322580645162 2.400937500000001  0.29032258064516125 1.921875  C 0.29032258064516125 1.4428125  0.44895161290322594 1.0496093750000006  0.7662096774193552 0.7422656250000004  C 1.0834677419354846 0.4349218750000001  1.4893548387096782 0.28125  1.9838709677419355 0.28125  L 10.451612903225806 0.28125  C 10.875 0.28125  11.236854838709679 0.40101562499999965  11.537177419354839 0.6405468749999996  C 11.8375 0.8800781249999996  12.022661290322581 1.2049218749999993  12.092661290322578 1.6150781249999993  L 13.892903225806451 11  L 46.01782258064516 11  C 46.547338709677426 10.126640625  46.97975806451614 10.33171875  47.31508064516129 10.741874999999999  C 47.650403225806464 11.152031250000002  47.76500000000001 11.61359375  47.65887096774193 12.126562499999997  L 42.57822580645161 35.0953125  C 42.507096774193556 35.471562500000005  42.32193548387098 35.779453125  42.02274193548388 36.018984374999995  C 41.723548387096784 36.258515624999994  41.36169354838711 36.378281249999986  40.937177419354846 36  L 17.22750000000001 36  C 16.804112903225814 36.37828125000001  16.442258064516142 36.25851562500001  16.141935483870977 36.018984374999995  C 15.841612903225816 35.779453125  15.656451612903236 35.454609375000004  15.586451612903232 35.044453125  L 9.076451612903226 3.564140625000001  L 1.9838709677419355 3.564140625000001  Z M 14.527983870967741 14  L 18.60266129032258 33  L 39.56032258064516 33  L 43.9008870967742 14  L 14.527983870967741 14  Z M 24.211693548387096 10.125  L 33.94959677419355 10.125  L 29.08064516129032 4.484531250000001  L 24.211693548387096 10.125  Z M 17.014112903225804 14  L 26.487822580645165 2.382890625  C 27.15846774193549 1.630390625  28.02274193548387 1.2541406249999998  29.08064516129032 1.2541406249999998  C 30.138548387096776 1.2541406249999998  31.002822580645155 1.630390625  31.673467741935482 2.382890625  L 41.14717741935483 14  L 17.014112903225804 14  Z " fill-rule="nonzero" fill="#505bd2" stroke="none" transform="matrix(1 0 0 1 55 430 )" />
  </g>
</svg>