<?xml version="1.0" encoding="utf-8"?>
<svg version="1.1" xmlns:xlink="http://www.w3.org/1999/xlink" width="23px" height="23px" xmlns="http://www.w3.org/2000/svg">
  <g transform="matrix(1 0 0 1 -1270 -260 )">
    <path d="M 17.183999999999997 6.408  L 20.232 6.408  L 20.232 4.536000000000001  L 17.183999999999997 4.536000000000001  L 17.183999999999997 6.408  Z M 17.183999999999997 9.600000000000001  L 20.232 9.600000000000001  L 20.232 7.68  L 17.183999999999997 7.68  L 17.183999999999997 9.600000000000001  Z M 15.527999999999997 7.68  L 12.432000000000002 7.68  L 12.432000000000002 9.600000000000001  L 15.527999999999997 9.600000000000001  L 15.527999999999997 7.68  Z M 15.527999999999997 4.536000000000001  L 12.432000000000002 4.536000000000001  L 12.432000000000002 6.408  L 15.527999999999997 6.408  L 15.527999999999997 4.536000000000001  Z M 17.183999999999997 3.192  L 21.864000000000004 3.192  L 21.864000000000004 11  L 10.847999999999999 11  L 10.847999999999999 3.192  L 15.527999999999997 3.192  L 15.527999999999997 0.9120000000000008  L 17.183999999999997 0.9120000000000008  L 17.183999999999997 3.192  Z M 4.248000000000001 13.344000000000001  L 4.248000000000001 17.160000000000004  L 7.368000000000002 16.488  L 7.368000000000002 13.344000000000001  L 4.248000000000001 13.344000000000001  Z M 7.368000000000002 6.888000000000006  L 7.368000000000002 3.576000000000004  L 4.248000000000001 3.576000000000004  L 4.248000000000001 6.888000000000006  L 7.368000000000002 6.888000000000006  Z M 7.368000000000002 8.399999999999999  L 4.248000000000001 8.400000000000002  L 4.248000000000001 11.832  L 7.368000000000002 11.832  L 7.368000000000002 8.399999999999999  Z M 9 16.152  L 10.296 15.864  L 10.416 17.424  L 8.976000000000003 17.735999999999997  L 8.976000000000003 22.775999999999996  L 7.368000000000002 22.775999999999996  L 7.368000000000002 18.095999999999997  C 5.160000000000004 18.599999999999994  3.0240000000000022 19.07999999999999  1.3200000000000038 19.46399999999999  L 0.9840000000000035 17.807999999999993  C 1.488000000000003 17.711999999999996  2.0640000000000036 17.592  3 17.471999999999994  L 3 3.5760000000000005  L 1.1760000000000037 3.5760000000000005  L 1.1760000000000037 1.943999999999999  L 10.368000000000002 1.943999999999999  L 10.368000000000002 3.5760000000000005  L 9 3.5760000000000005  L 9 16.152  Z M 22.967999999999996 12.528000000000004  L 22.968000000000004 14.040000000000001  L 14.688000000000002 14.040000000000001  C 14.520000000000003 14.759999999999996  14.304000000000002 15.527999999999997  14.112000000000002 16.200000000000003  L 21.744 16.200000000000003  C 21.744 16.200000000000003  21.720000000000006 16.704  21.672000000000004 16.944  C 21.312000000000012 20.088  20.976000000000006 21.455999999999996  20.352000000000004 22.031999999999996  C 19.896000000000008 22.464  19.440000000000005 22.583999999999996  18.720000000000006 22.631999999999998  C 18.120000000000008 22.679999999999993  16.848000000000006 22.65599999999999  15.552000000000003 22.607999999999997  C 15.504000000000005 22.08  15.312000000000005 21.432000000000002  15.000000000000007 20.976  C 16.296000000000006 21.095999999999997  17.592000000000006 21.119999999999997  18.072000000000003 21.119999999999997  C 18.504000000000005 21.119999999999997  18.768 21.096000000000004  18.96 20.903999999999996  C 19.344 20.592  19.632 19.68  19.896 17.688000000000002  L 11.831999999999999 17.688000000000002  C 12.215999999999998 16.68  12.599999999999998 15.335999999999999  12.936 14.040000000000004  L 9.744 14.040000000000004  L 9.744 12.528000000000004  L 22.967999999999996 12.528000000000004  Z " fill-rule="nonzero" fill="#505bd2" stroke="none" transform="matrix(1 0 0 1 1270 260 )" />
  </g>
</svg>