<?xml version="1.0" encoding="utf-8"?>
<svg version="1.1" xmlns:xlink="http://www.w3.org/1999/xlink" width="48px" height="48px" xmlns="http://www.w3.org/2000/svg">
  <g transform="matrix(1 0 0 1 -1258 -248 )">
    <path d="M 48 24  C 48 37.254999984375  37.254999984375 48  24 48  C 10.745000015625 48  0 37.254999984375  0 24  C 0 10.745000015625001  10.745000015625 0  24 0  C 37.254999984375 0  48 10.745000015625  48 24  Z M 3 24  C 3 35.598  12.402000000000001 45  24 45  C 35.598 45  45 35.598  45 24  C 45 12.402000000000001  35.598 3  24 3  C 12.402000000000001 3  3 12.402000000000001  3 24  Z " fill-rule="nonzero" fill="#d4237a" stroke="none" transform="matrix(1 0 0 1 1258 248 )" />
  </g>
</svg>