<?xml version="1.0" encoding="utf-8"?>
<svg version="1.1" xmlns:xlink="http://www.w3.org/1999/xlink" width="40px" height="31px" xmlns="http://www.w3.org/2000/svg">
  <defs>
    <pattern id="BGPattern" patternUnits="userSpaceOnUse" alignment="0 0" imageRepeat="None" />
    <mask fill="white" id="Clip695">
      <path d="M 39.277419354838685 4.196632996633014  C 39.75913978494623 4.674298540965225  40 5.254320987654324  40 5.936700336700341  C 40 6.619079685746357  39.75913978494623 7.199102132435485  39.277419354838685 7.676767676767696  L 20.593548387096803 26.203367003366992  L 17.083870967741973 29.683501683501703  C 16.60215053763443 30.161167227833857  16.017204301075253 30.400000000000006  15.329032258064444 30.400000000000006  C 14.640860215053863 30.400000000000006  14.055913978494573 30.161167227833857  13.574193548387143 29.683501683501703  L 10.064516129032313 26.203367003366992  L 0.7225806451613153 16.940067340067344  C 0.24086021505377175 16.462401795735133  0 15.882379349046003  0 15.199999999999989  C 0 14.517620650953972  0.24086021505377175 13.937598204264873  0.7225806451613153 13.459932659932662  L 4.232258064516145 9.97979797979798  C 4.713978494623689 9.502132435465768  5.298924731182751 9.263299663299648  5.98709677419356 9.263299663299648  C 6.675268817204369 9.263299663299648  7.260215053763432 9.502132435465768  7.741935483870975 9.97979797979798  L 15.329032258064444 17.528619528619515  L 32.258064516129025 0.7164983164983028  C 32.73978494623657 0.23883277216609144  33.32473118279563 0  34.01290322580644 0  C 34.70107526881725 0  35.28602150537631 0.23883277216609144  35.767741935483855 0.7164983164983028  L 39.277419354838685 4.196632996633014  Z " fill-rule="evenodd" />
    </mask>
  </defs>
  <g transform="matrix(1 0 0 1 -792 -396 )">
    <path d="M 39.277419354838685 4.196632996633014  C 39.75913978494623 4.674298540965225  40 5.254320987654324  40 5.936700336700341  C 40 6.619079685746357  39.75913978494623 7.199102132435485  39.277419354838685 7.676767676767696  L 20.593548387096803 26.203367003366992  L 17.083870967741973 29.683501683501703  C 16.60215053763443 30.161167227833857  16.017204301075253 30.400000000000006  15.329032258064444 30.400000000000006  C 14.640860215053863 30.400000000000006  14.055913978494573 30.161167227833857  13.574193548387143 29.683501683501703  L 10.064516129032313 26.203367003366992  L 0.7225806451613153 16.940067340067344  C 0.24086021505377175 16.462401795735133  0 15.882379349046003  0 15.199999999999989  C 0 14.517620650953972  0.24086021505377175 13.937598204264873  0.7225806451613153 13.459932659932662  L 4.232258064516145 9.97979797979798  C 4.713978494623689 9.502132435465768  5.298924731182751 9.263299663299648  5.98709677419356 9.263299663299648  C 6.675268817204369 9.263299663299648  7.260215053763432 9.502132435465768  7.741935483870975 9.97979797979798  L 15.329032258064444 17.528619528619515  L 32.258064516129025 0.7164983164983028  C 32.73978494623657 0.23883277216609144  33.32473118279563 0  34.01290322580644 0  C 34.70107526881725 0  35.28602150537631 0.23883277216609144  35.767741935483855 0.7164983164983028  L 39.277419354838685 4.196632996633014  Z " fill-rule="nonzero" fill="rgba(64, 158, 255, 1)" stroke="none" transform="matrix(1 0 0 1 792 396 )" class="fill" />
    <path d="M 39.277419354838685 4.196632996633014  C 39.75913978494623 4.674298540965225  40 5.254320987654324  40 5.936700336700341  C 40 6.619079685746357  39.75913978494623 7.199102132435485  39.277419354838685 7.676767676767696  L 20.593548387096803 26.203367003366992  L 17.083870967741973 29.683501683501703  C 16.60215053763443 30.161167227833857  16.017204301075253 30.400000000000006  15.329032258064444 30.400000000000006  C 14.640860215053863 30.400000000000006  14.055913978494573 30.161167227833857  13.574193548387143 29.683501683501703  L 10.064516129032313 26.203367003366992  L 0.7225806451613153 16.940067340067344  C 0.24086021505377175 16.462401795735133  0 15.882379349046003  0 15.199999999999989  C 0 14.517620650953972  0.24086021505377175 13.937598204264873  0.7225806451613153 13.459932659932662  L 4.232258064516145 9.97979797979798  C 4.713978494623689 9.502132435465768  5.298924731182751 9.263299663299648  5.98709677419356 9.263299663299648  C 6.675268817204369 9.263299663299648  7.260215053763432 9.502132435465768  7.741935483870975 9.97979797979798  L 15.329032258064444 17.528619528619515  L 32.258064516129025 0.7164983164983028  C 32.73978494623657 0.23883277216609144  33.32473118279563 0  34.01290322580644 0  C 34.70107526881725 0  35.28602150537631 0.23883277216609144  35.767741935483855 0.7164983164983028  L 39.277419354838685 4.196632996633014  Z " stroke-width="0" stroke-dasharray="0" stroke="rgba(255, 255, 255, 0)" fill="none" transform="matrix(1 0 0 1 792 396 )" class="stroke" mask="url(#Clip695)" />
  </g>
</svg>