<?xml version="1.0" encoding="utf-8"?>
<svg version="1.1" xmlns:xlink="http://www.w3.org/1999/xlink" width="44px" height="44px" xmlns="http://www.w3.org/2000/svg">
  <defs>
    <pattern id="BGPattern" patternUnits="userSpaceOnUse" alignment="0 0" imageRepeat="None" />
    <mask fill="white" id="Clip1844">
      <path d="M 0 22  C 0 9.68  9.68 0  22 0  C 34.32 0  44 9.68  44 22  C 44 34.32  34.32 44  22 44  C 9.68 44  0 34.32  0 22  Z " fill-rule="evenodd" />
    </mask>
  </defs>
  <g transform="matrix(1 0 0 1 -796 -32 )">
    <path d="M 0 22  C 0 9.68  9.68 0  22 0  C 34.32 0  44 9.68  44 22  C 44 34.32  34.32 44  22 44  C 9.68 44  0 34.32  0 22  Z " fill-rule="nonzero" fill="rgba(80, 91, 210, 1)" stroke="none" transform="matrix(1 0 0 1 796 32 )" class="fill" />
    <path d="M 0 22  C 0 9.68  9.68 0  22 0  C 34.32 0  44 9.68  44 22  C 44 34.32  34.32 44  22 44  C 9.68 44  0 34.32  0 22  Z " stroke-width="0" stroke-dasharray="0" stroke="rgba(240, 246, 255, 1)" fill="none" transform="matrix(1 0 0 1 796 32 )" class="stroke" mask="url(#Clip1844)" />
  </g>
</svg>