<?xml version="1.0" encoding="utf-8"?>
<svg version="1.1" xmlns:xlink="http://www.w3.org/1999/xlink" width="20px" height="17px" xmlns="http://www.w3.org/2000/svg">
  <defs>
    <pattern id="BGPattern" patternUnits="userSpaceOnUse" alignment="0 0" imageRepeat="None" />
    <mask fill="white" id="Clip1344">
      <path d="M 6.616769440109408 9.690780300965159  C 6.616769440109408 11.51795072842458  8.097983732704677 12.999165021019863  9.925154160164112 12.999165021019863  C 11.752324587623548 12.999165021019863  13.233538880218816 11.51795072842458  13.233538880218816 9.690780300965159  C 13.233538880218816 7.86360977490817  11.752324587623548 6.382395482312901  9.925154160164112 6.382395482312901  C 8.097983732704677 6.382395482312901  6.616769440109408 7.86360977490817  6.616769440109408 9.690780202367606  Z M 19.85054297513372 4.61521734082325  C 19.84757845837838 3.572294828762182  19.002859375881314 2.727575746265117  17.959936863820246 2.7246112295097618  L 14.888552532065418 2.7246112295097618  C 13.994521338727097 1.8737563404206412  13.79365764323191 0.2095911838800646  12.252451113965634 0.15092772790889342  L 7.567117557724131 0.15092772790889342  C 5.959973289876473 0.3151854209883851  5.713352087271616 1.9432138847242726  4.887605180569665 2.724845884315272  L 1.8906061276737205 2.724845884315272  C 0.84768360922358 2.727810392089424  0.0029645167990111077 3.57252947720427  0 4.615451995628746  L 0 15.012964365114371  C 0.002964507817821982 16.055886889927905  0.8476836028601866 16.900605984970255  1.8906061276737205 17  L 17.959936863820246 17  C 19.002859382244708 16.900605975989066  19.84757846735957 16.055886883564497  19.85054297513372 15.012964365114371  L 19.85054297513372 4.61521734082325  Z M 4.5248035766087895 5.571549139617957  C 4.521292354395456 5.571549139617957  4.517781241101559 5.571510028057432  4.514270890162777 5.571431812215209  L 3.096492281421547 5.571431812215209  C 2.8395248176289414 5.565706194761958  2.634197448935069 5.355752864201165  2.634197448935069 5.098721620685467  C 2.634197448935069 4.841690377169769  2.8395248176289414 4.631737046608976  3.096492281421547 4.626011429155724  L 4.514270890162763 4.626011429155724  C 4.517781241101559 4.625933213313516  4.521292354395456 4.625894101752976  4.5248035766087895 4.625894101752976  C 4.785939004615543 4.625894101752976  4.99763109554128 4.837586192678714  4.99763109554128 5.098721620685467  C 4.99763109554128 5.35985704869222  4.785939004615543 5.571549139617957  4.5248035766087895 5.571549139617957  Z M 14.302152545358098 9.69031094205539  C 14.302152545358098 12.10771496488303  12.342558182991752 14.067778636860368  9.925154160164112 14.067778636860368  C 7.508219446947479 14.067778636860368  5.548155774970127 12.108184274494022  5.548155774970127 9.690780251666382  C 5.548155774970127 7.2733762288387425  7.50798477578175 5.313312556861391  9.925154160164112 5.313312573221623  C 12.342323544546488 5.313312589581855  14.302152545358098 7.272906919227751  14.302152545358098 9.69031094205539  Z " fill-rule="evenodd" />
    </mask>
  </defs>
  <g transform="matrix(1 0 0 1 -30 -32 )">
    <path d="M 6.616769440109408 9.690780300965159  C 6.616769440109408 11.51795072842458  8.097983732704677 12.999165021019863  9.925154160164112 12.999165021019863  C 11.752324587623548 12.999165021019863  13.233538880218816 11.51795072842458  13.233538880218816 9.690780300965159  C 13.233538880218816 7.86360977490817  11.752324587623548 6.382395482312901  9.925154160164112 6.382395482312901  C 8.097983732704677 6.382395482312901  6.616769440109408 7.86360977490817  6.616769440109408 9.690780202367606  Z M 19.85054297513372 4.61521734082325  C 19.84757845837838 3.572294828762182  19.002859375881314 2.727575746265117  17.959936863820246 2.7246112295097618  L 14.888552532065418 2.7246112295097618  C 13.994521338727097 1.8737563404206412  13.79365764323191 0.2095911838800646  12.252451113965634 0.15092772790889342  L 7.567117557724131 0.15092772790889342  C 5.959973289876473 0.3151854209883851  5.713352087271616 1.9432138847242726  4.887605180569665 2.724845884315272  L 1.8906061276737205 2.724845884315272  C 0.84768360922358 2.727810392089424  0.0029645167990111077 3.57252947720427  0 4.615451995628746  L 0 15.012964365114371  C 0.002964507817821982 16.055886889927905  0.8476836028601866 16.900605984970255  1.8906061276737205 17  L 17.959936863820246 17  C 19.002859382244708 16.900605975989066  19.84757846735957 16.055886883564497  19.85054297513372 15.012964365114371  L 19.85054297513372 4.61521734082325  Z M 4.5248035766087895 5.571549139617957  C 4.521292354395456 5.571549139617957  4.517781241101559 5.571510028057432  4.514270890162777 5.571431812215209  L 3.096492281421547 5.571431812215209  C 2.8395248176289414 5.565706194761958  2.634197448935069 5.355752864201165  2.634197448935069 5.098721620685467  C 2.634197448935069 4.841690377169769  2.8395248176289414 4.631737046608976  3.096492281421547 4.626011429155724  L 4.514270890162763 4.626011429155724  C 4.517781241101559 4.625933213313516  4.521292354395456 4.625894101752976  4.5248035766087895 4.625894101752976  C 4.785939004615543 4.625894101752976  4.99763109554128 4.837586192678714  4.99763109554128 5.098721620685467  C 4.99763109554128 5.35985704869222  4.785939004615543 5.571549139617957  4.5248035766087895 5.571549139617957  Z M 14.302152545358098 9.69031094205539  C 14.302152545358098 12.10771496488303  12.342558182991752 14.067778636860368  9.925154160164112 14.067778636860368  C 7.508219446947479 14.067778636860368  5.548155774970127 12.108184274494022  5.548155774970127 9.690780251666382  C 5.548155774970127 7.2733762288387425  7.50798477578175 5.313312556861391  9.925154160164112 5.313312573221623  C 12.342323544546488 5.313312589581855  14.302152545358098 7.272906919227751  14.302152545358098 9.69031094205539  Z " fill-rule="nonzero" fill="rgba(220, 222, 224, 1)" stroke="none" transform="matrix(1 0 0 1 30 32 )" class="fill" />
    <path d="M 6.616769440109408 9.690780300965159  C 6.616769440109408 11.51795072842458  8.097983732704677 12.999165021019863  9.925154160164112 12.999165021019863  C 11.752324587623548 12.999165021019863  13.233538880218816 11.51795072842458  13.233538880218816 9.690780300965159  C 13.233538880218816 7.86360977490817  11.752324587623548 6.382395482312901  9.925154160164112 6.382395482312901  C 8.097983732704677 6.382395482312901  6.616769440109408 7.86360977490817  6.616769440109408 9.690780202367606  Z " stroke-width="0" stroke-dasharray="0" stroke="rgba(255, 255, 255, 0)" fill="none" transform="matrix(1 0 0 1 30 32 )" class="stroke" mask="url(#Clip1344)" />
    <path d="M 19.85054297513372 4.61521734082325  C 19.84757845837838 3.572294828762182  19.002859375881314 2.727575746265117  17.959936863820246 2.7246112295097618  L 14.888552532065418 2.7246112295097618  C 13.994521338727097 1.8737563404206412  13.79365764323191 0.2095911838800646  12.252451113965634 0.15092772790889342  L 7.567117557724131 0.15092772790889342  C 5.959973289876473 0.3151854209883851  5.713352087271616 1.9432138847242726  4.887605180569665 2.724845884315272  L 1.8906061276737205 2.724845884315272  C 0.84768360922358 2.727810392089424  0.0029645167990111077 3.57252947720427  0 4.615451995628746  L 0 15.012964365114371  C 0.002964507817821982 16.055886889927905  0.8476836028601866 16.900605984970255  1.8906061276737205 17  L 17.959936863820246 17  C 19.002859382244708 16.900605975989066  19.84757846735957 16.055886883564497  19.85054297513372 15.012964365114371  L 19.85054297513372 4.61521734082325  Z " stroke-width="0" stroke-dasharray="0" stroke="rgba(255, 255, 255, 0)" fill="none" transform="matrix(1 0 0 1 30 32 )" class="stroke" mask="url(#Clip1344)" />
    <path d="M 4.5248035766087895 5.571549139617957  C 4.521292354395456 5.571549139617957  4.517781241101559 5.571510028057432  4.514270890162777 5.571431812215209  L 3.096492281421547 5.571431812215209  C 2.8395248176289414 5.565706194761958  2.634197448935069 5.355752864201165  2.634197448935069 5.098721620685467  C 2.634197448935069 4.841690377169769  2.8395248176289414 4.631737046608976  3.096492281421547 4.626011429155724  L 4.514270890162763 4.626011429155724  C 4.517781241101559 4.625933213313516  4.521292354395456 4.625894101752976  4.5248035766087895 4.625894101752976  C 4.785939004615543 4.625894101752976  4.99763109554128 4.837586192678714  4.99763109554128 5.098721620685467  C 4.99763109554128 5.35985704869222  4.785939004615543 5.571549139617957  4.5248035766087895 5.571549139617957  Z " stroke-width="0" stroke-dasharray="0" stroke="rgba(255, 255, 255, 0)" fill="none" transform="matrix(1 0 0 1 30 32 )" class="stroke" mask="url(#Clip1344)" />
    <path d="M 14.302152545358098 9.69031094205539  C 14.302152545358098 12.10771496488303  12.342558182991752 14.067778636860368  9.925154160164112 14.067778636860368  C 7.508219446947479 14.067778636860368  5.548155774970127 12.108184274494022  5.548155774970127 9.690780251666382  C 5.548155774970127 7.2733762288387425  7.50798477578175 5.313312556861391  9.925154160164112 5.313312573221623  C 12.342323544546488 5.313312589581855  14.302152545358098 7.272906919227751  14.302152545358098 9.69031094205539  Z " stroke-width="0" stroke-dasharray="0" stroke="rgba(255, 255, 255, 0)" fill="none" transform="matrix(1 0 0 1 30 32 )" class="stroke" mask="url(#Clip1344)" />
  </g>
</svg>