<?xml version="1.0" encoding="utf-8"?>
<svg version="1.1" xmlns:xlink="http://www.w3.org/1999/xlink" width="48px" height="48px" xmlns="http://www.w3.org/2000/svg">
  <defs>
    <pattern id="BGPattern" patternUnits="userSpaceOnUse" alignment="0 0" imageRepeat="None" />
    <mask fill="white" id="Clip1853">
      <path d="M 42.84025862068965 5.161551724137934  L 9.178706896551724 18.625086206896555  L 27.22603448275862 21.058189655172413  L 29.488965517241375 38.59681034482759  L 42.84025862068965 5.161551724137934  Z M 23.998189655172403 24.280603448275873  L 1.8793965517241382 21.28448275862069  C 1.4642241379310348 21.24706896551724  1.1154310344827592 21.086551724137934  0.8330172413793107 20.802931034482757  C 0.5506034482758633 20.51931034482759  0.38103448275862184 20.16086206896552  0.3243103448275867 19.727586206896554  C 0.2675862068965524 19.294310344827586  0.3430172413793108 18.9075  0.5506034482758626 18.567155172413795  C 0.7581896551724143 18.226810344827587  1.0502586206896556 17.981810344827586  1.4268103448275866 17.832155172413792  L 45.44172413793103 0.23741379310344918  C 45.78086206896552 0.08655172413793244  46.12060344827586 0.04853448275862213  46.460948275862066 0.12336206896551824  C 46.80129310344827 0.1981896551724151  47.103017241379305 0.36775862068965665  47.36612068965517 0.6320689655172421  C 47.62922413793103 0.896379310344829  47.798793103448276 1.1981034482758632  47.87482758620689 1.5372413793103454  C 47.95086206896551 1.8763793103448276  47.9128448275862 2.216120689655174  47.76077586206896 2.55646551724138  L 30.222155172413792 46.4573275862069  C 30.071293103448276 46.83508620689656  29.81663793103448 47.1271551724138  29.458189655172408 47.33353448275863  C 29.099741379310338 47.53991379310346  28.712931034482757 47.61534482758621  28.297758620689645 47.5598275862069  C 27.88258620689654 47.504310344827594  27.53379310344827 47.33474137931035  27.251379310344824 47.051120689655185  C 26.96896551724138 46.76750000000003  26.80844827586207 46.41870689655174  26.769827586206887 46.00474137931035  L 23.998189655172403 24.280603448275873  Z " fill-rule="evenodd" />
    </mask>
  </defs>
  <g transform="matrix(1 0 0 1 -453 -429 )">
    <path d="M 42.84025862068965 5.161551724137934  L 9.178706896551724 18.625086206896555  L 27.22603448275862 21.058189655172413  L 29.488965517241375 38.59681034482759  L 42.84025862068965 5.161551724137934  Z M 23.998189655172403 24.280603448275873  L 1.8793965517241382 21.28448275862069  C 1.4642241379310348 21.24706896551724  1.1154310344827592 21.086551724137934  0.8330172413793107 20.802931034482757  C 0.5506034482758633 20.51931034482759  0.38103448275862184 20.16086206896552  0.3243103448275867 19.727586206896554  C 0.2675862068965524 19.294310344827586  0.3430172413793108 18.9075  0.5506034482758626 18.567155172413795  C 0.7581896551724143 18.226810344827587  1.0502586206896556 17.981810344827586  1.4268103448275866 17.832155172413792  L 45.44172413793103 0.23741379310344918  C 45.78086206896552 0.08655172413793244  46.12060344827586 0.04853448275862213  46.460948275862066 0.12336206896551824  C 46.80129310344827 0.1981896551724151  47.103017241379305 0.36775862068965665  47.36612068965517 0.6320689655172421  C 47.62922413793103 0.896379310344829  47.798793103448276 1.1981034482758632  47.87482758620689 1.5372413793103454  C 47.95086206896551 1.8763793103448276  47.9128448275862 2.216120689655174  47.76077586206896 2.55646551724138  L 30.222155172413792 46.4573275862069  C 30.071293103448276 46.83508620689656  29.81663793103448 47.1271551724138  29.458189655172408 47.33353448275863  C 29.099741379310338 47.53991379310346  28.712931034482757 47.61534482758621  28.297758620689645 47.5598275862069  C 27.88258620689654 47.504310344827594  27.53379310344827 47.33474137931035  27.251379310344824 47.051120689655185  C 26.96896551724138 46.76750000000003  26.80844827586207 46.41870689655174  26.769827586206887 46.00474137931035  L 23.998189655172403 24.280603448275873  Z " fill-rule="nonzero" fill="rgba(81, 196, 25, 1)" stroke="none" transform="matrix(1 0 0 1 453 429 )" class="fill" />
    <path d="M 42.84025862068965 5.161551724137934  L 9.178706896551724 18.625086206896555  L 27.22603448275862 21.058189655172413  L 29.488965517241375 38.59681034482759  L 42.84025862068965 5.161551724137934  Z " stroke-width="0" stroke-dasharray="0" stroke="rgba(255, 255, 255, 0)" fill="none" transform="matrix(1 0 0 1 453 429 )" class="stroke" mask="url(#Clip1853)" />
    <path d="M 23.998189655172403 24.280603448275873  L 1.8793965517241382 21.28448275862069  C 1.4642241379310348 21.24706896551724  1.1154310344827592 21.086551724137934  0.8330172413793107 20.802931034482757  C 0.5506034482758633 20.51931034482759  0.38103448275862184 20.16086206896552  0.3243103448275867 19.727586206896554  C 0.2675862068965524 19.294310344827586  0.3430172413793108 18.9075  0.5506034482758626 18.567155172413795  C 0.7581896551724143 18.226810344827587  1.0502586206896556 17.981810344827586  1.4268103448275866 17.832155172413792  L 45.44172413793103 0.23741379310344918  C 45.78086206896552 0.08655172413793244  46.12060344827586 0.04853448275862213  46.460948275862066 0.12336206896551824  C 46.80129310344827 0.1981896551724151  47.103017241379305 0.36775862068965665  47.36612068965517 0.6320689655172421  C 47.62922413793103 0.896379310344829  47.798793103448276 1.1981034482758632  47.87482758620689 1.5372413793103454  C 47.95086206896551 1.8763793103448276  47.9128448275862 2.216120689655174  47.76077586206896 2.55646551724138  L 30.222155172413792 46.4573275862069  C 30.071293103448276 46.83508620689656  29.81663793103448 47.1271551724138  29.458189655172408 47.33353448275863  C 29.099741379310338 47.53991379310346  28.712931034482757 47.61534482758621  28.297758620689645 47.5598275862069  C 27.88258620689654 47.504310344827594  27.53379310344827 47.33474137931035  27.251379310344824 47.051120689655185  C 26.96896551724138 46.76750000000003  26.80844827586207 46.41870689655174  26.769827586206887 46.00474137931035  L 23.998189655172403 24.280603448275873  Z " stroke-width="0" stroke-dasharray="0" stroke="rgba(255, 255, 255, 0)" fill="none" transform="matrix(1 0 0 1 453 429 )" class="stroke" mask="url(#Clip1853)" />
  </g>
</svg>