<?xml version="1.0" encoding="utf-8"?>
<svg version="1.1" xmlns:xlink="http://www.w3.org/1999/xlink" width="42px" height="48px" xmlns="http://www.w3.org/2000/svg">
  <defs>
    <pattern id="BGPattern" patternUnits="userSpaceOnUse" alignment="0 0" imageRepeat="None" />
    <mask fill="white" id="Clip1855">
      <path d="M 38 4  L 4 4  L 4 44  L 38 44  L 38 4  Z M 1.0614236111111102 0.7662096774193552  C 1.3801504629629624 0.44895161290322666  1.7879166666666666 0.290322580645162  2.2847222222222223 1  L 39.71527777777778 1  C 40.21208333333333 0.29032258064516125  40.61984953703704 0.44895161290322594  40.9385763888889 0.7662096774193552  C 41.25730324074075 1.0834677419354846  41.41666666666667 1.4893548387096773  41 1.9838709677419355  L 41 46.016129032258064  C 41.41666666666667 46.51064516129033  41.25730324074075 46.916532258064514  40.9385763888889 47.233790322580646  C 40.61984953703705 47.551048387096785  40.21208333333334 47.709677419354854  39.71527777777778 47  L 2.2847222222222223 47  C 1.7879166666666666 47.709677419354854  1.3801504629629635 47.551048387096785  1.0614236111111102 47.233790322580646  C 0.7426967592592594 46.916532258064514  0.5833333333333333 46.51064516129033  1 46.016129032258064  L 1 1.9838709677419355  C 0.5833333333333333 1.4893548387096773  0.7426967592592594 1.0834677419354846  1.0614236111111102 0.7662096774193552  Z M 10.791666666666666 27  L 10.791666666666666 24  L 31.208333333333336 24  L 31.208333333333336 27  L 10.791666666666666 27  Z M 10.791666666666666 18  L 10.791666666666666 14  L 21 14  L 21 18  L 10.791666666666666 18  Z M 10.791666666666666 37  L 10.791666666666666 34  L 31.208333333333336 34  L 31.208333333333336 37  L 10.791666666666666 37  Z " fill-rule="evenodd" />
    </mask>
  </defs>
  <g transform="matrix(1 0 0 1 -1264 -429 )">
    <path d="M 38 4  L 4 4  L 4 44  L 38 44  L 38 4  Z M 1.0614236111111102 0.7662096774193552  C 1.3801504629629624 0.44895161290322666  1.7879166666666666 0.290322580645162  2.2847222222222223 1  L 39.71527777777778 1  C 40.21208333333333 0.29032258064516125  40.61984953703704 0.44895161290322594  40.9385763888889 0.7662096774193552  C 41.25730324074075 1.0834677419354846  41.41666666666667 1.4893548387096773  41 1.9838709677419355  L 41 46.016129032258064  C 41.41666666666667 46.51064516129033  41.25730324074075 46.916532258064514  40.9385763888889 47.233790322580646  C 40.61984953703705 47.551048387096785  40.21208333333334 47.709677419354854  39.71527777777778 47  L 2.2847222222222223 47  C 1.7879166666666666 47.709677419354854  1.3801504629629635 47.551048387096785  1.0614236111111102 47.233790322580646  C 0.7426967592592594 46.916532258064514  0.5833333333333333 46.51064516129033  1 46.016129032258064  L 1 1.9838709677419355  C 0.5833333333333333 1.4893548387096773  0.7426967592592594 1.0834677419354846  1.0614236111111102 0.7662096774193552  Z M 10.791666666666666 27  L 10.791666666666666 24  L 31.208333333333336 24  L 31.208333333333336 27  L 10.791666666666666 27  Z M 10.791666666666666 18  L 10.791666666666666 14  L 21 14  L 21 18  L 10.791666666666666 18  Z M 10.791666666666666 37  L 10.791666666666666 34  L 31.208333333333336 34  L 31.208333333333336 37  L 10.791666666666666 37  Z " fill-rule="nonzero" fill="rgba(80, 91, 210, 1)" stroke="none" transform="matrix(1 0 0 1 1264 429 )" class="fill" />
    <path d="M 38 4  L 4 4  L 4 44  L 38 44  L 38 4  Z " stroke-width="0" stroke-dasharray="0" stroke="rgba(255, 255, 255, 0)" fill="none" transform="matrix(1 0 0 1 1264 429 )" class="stroke" mask="url(#Clip1855)" />
    <path d="M 1.0614236111111102 0.7662096774193552  C 1.3801504629629624 0.44895161290322666  1.7879166666666666 0.290322580645162  2.2847222222222223 1  L 39.71527777777778 1  C 40.21208333333333 0.29032258064516125  40.61984953703704 0.44895161290322594  40.9385763888889 0.7662096774193552  C 41.25730324074075 1.0834677419354846  41.41666666666667 1.4893548387096773  41 1.9838709677419355  L 41 46.016129032258064  C 41.41666666666667 46.51064516129033  41.25730324074075 46.916532258064514  40.9385763888889 47.233790322580646  C 40.61984953703705 47.551048387096785  40.21208333333334 47.709677419354854  39.71527777777778 47  L 2.2847222222222223 47  C 1.7879166666666666 47.709677419354854  1.3801504629629635 47.551048387096785  1.0614236111111102 47.233790322580646  C 0.7426967592592594 46.916532258064514  0.5833333333333333 46.51064516129033  1 46.016129032258064  L 1 1.9838709677419355  C 0.5833333333333333 1.4893548387096773  0.7426967592592594 1.0834677419354846  1.0614236111111102 0.7662096774193552  Z " stroke-width="0" stroke-dasharray="0" stroke="rgba(255, 255, 255, 0)" fill="none" transform="matrix(1 0 0 1 1264 429 )" class="stroke" mask="url(#Clip1855)" />
    <path d="M 10.791666666666666 27  L 10.791666666666666 24  L 31.208333333333336 24  L 31.208333333333336 27  L 10.791666666666666 27  Z " stroke-width="0" stroke-dasharray="0" stroke="rgba(255, 255, 255, 0)" fill="none" transform="matrix(1 0 0 1 1264 429 )" class="stroke" mask="url(#Clip1855)" />
    <path d="M 10.791666666666666 18  L 10.791666666666666 14  L 21 14  L 21 18  L 10.791666666666666 18  Z " stroke-width="0" stroke-dasharray="0" stroke="rgba(255, 255, 255, 0)" fill="none" transform="matrix(1 0 0 1 1264 429 )" class="stroke" mask="url(#Clip1855)" />
    <path d="M 10.791666666666666 37  L 10.791666666666666 34  L 31.208333333333336 34  L 31.208333333333336 37  L 10.791666666666666 37  Z " stroke-width="0" stroke-dasharray="0" stroke="rgba(255, 255, 255, 0)" fill="none" transform="matrix(1 0 0 1 1264 429 )" class="stroke" mask="url(#Clip1855)" />
  </g>
</svg>