<?xml version="1.0" encoding="utf-8"?>
<svg version="1.1" xmlns:xlink="http://www.w3.org/1999/xlink" width="48px" height="48px" xmlns="http://www.w3.org/2000/svg">
  <defs>
    <pattern id="BGPattern" patternUnits="userSpaceOnUse" alignment="0 0" imageRepeat="None" />
    <mask fill="white" id="Clip1856">
      <path d="M 11 47  L 11 37.54838709677419  L 2.459758064516129 37.54838709677419  C 2.1063709677419356 37.54838709677419  1.8331451612903227 37.530887096774194  1.6400806451612908 37.4958870967742  C 1.4470161290322587 37.4608870967742  1.2793548387096778 37.40782258064517  1.1370967741935485 37.336693548387096  C 0.8548387096774196 37.16056451612903  0.6431451612903228 36.94887096774194  0.502016129032258 36.70161290322581  C 0.43088709677419357 36.560483870967744  0.3778225806451615 36.39282258064516  0.3428225806451617 36.19862903225807  C 0.3078225806451619 36.00443548387097  0.290322580645162 35.73120967741936  1 35.37895161290323  L 1 16.961612903225806  C 0.29032258064516125 15.86758064516129  0.35185483870967715 15.038306451612904  0.47491935483870956 14.473790322580644  C 0.597983870967742 13.909274193548388  0.7656451612903228 13.432822580645162  0.977903225806452 13.04443548387097  C 1.436290322580646 12.232661290322586  2.0713709677419363 11.597580645161292  2.883145161290323 11.139193548387098  C 3.271532258064517 10.926935483870967  3.7479838709677424 10.75927419354839  4.3125 10.636209677419355  C 4.877016129032259 10.513145161290321  5.706290322580645 10.451612903225806  6.800322580645162 10.451612903225806  L 11 10.451612903225806  L 11 1  L 37.54838709677419 1  L 37.54838709677419 10.451612903225806  L 41.199677419354835 10.451612903225806  C 42.29370967741936 10.451612903225806  43.122983870967744 10.513145161290321  43.6875 10.636209677419355  C 44.25201612903226 10.75927419354839  44.728467741935496 10.926935483870967  45.116854838709685 11.139193548387098  C 45.92862903225807 11.597580645161292  46.56370967741936 12.232661290322586  47.02209677419355 13.04443548387097  C 47.23435483870968 13.432822580645162  47.40201612903226 13.909274193548388  47.5250806451613 14.473790322580644  C 47.64814516129033 15.038306451612904  47.709677419354854 15.86758064516129  47 16.961612903225806  L 47 35.37895161290323  C 47.709677419354854 35.73233870967742  47.69217741935485 36.00556451612904  47.65717741935484 36.19862903225807  C 47.62217741935485 36.39169354838711  47.56911290322581 36.55935483870969  47.497983870967744 36.701612903225815  C 47.32185483870968 36.98387096774194  47.11016129032259 37.19556451612904  46.86290322580645 37.3366935483871  C 46.72177419354839 37.40782258064517  46.55411290322581 37.4608870967742  46.35991935483871 37.495887096774204  C 46.16572580645161 37.53088709677421  45.89250000000001 37.548387096774206  45.54024193548388 37.5483870967742  L 37 37.5483870967742  L 37 47  L 11 47  Z M 34 27  L 14 27  L 14 44  L 34 44  L 34 27  Z M 10.44991935483871 34.16129032258064  L 11 34.16129032258064  L 11 24  L 37 24  L 37 34.16129032258064  L 44 34.16129032258064  L 44 16.961612903225806  C 44.32258064516129 16.220967741935485  44.3050806451613 15.691451612903222  44.27008064516129 15.37306451612903  C 44.2350806451613 15.054677419354839  44.15548387096776 14.798951612903227  44.03129032258065 14.605887096774193  C 43.907096774193555 14.412822580645162  43.7484677419355 14.254193548387098  43.55540322580646 14.129999999999999  C 43.36233870967743 14.005806451612901  43.10661290322581 13.926209677419354  42.78822580645162 13.891209677419354  C 42.46983870967743 13.856209677419356  41.94032258064517 13.838709677419356  41.199677419354856 14  L 6.798629032258065 14  C 6.0579838709677425 13.838709677419352  5.528467741935485 13.856209677419354  5.210080645161291 13.891209677419354  C 4.8916935483870985 13.926209677419354  4.635967741935485 14.005806451612901  4.442903225806452 14.129999999999999  C 4.2498387096774195 14.254193548387097  4.091209677419355 14.412822580645159  3.9670161290322588 14.605887096774193  C 3.842822580645162 14.798951612903227  3.763225806451615 15.054677419354839  3.728225806451613 15.37306451612903  C 3.6932258064516126 15.69145161290322  3.675725806451612 16.220967741935485  4 16.961612903225806  L 4 34.16129032258064  L 10.44991935483871 34.16129032258064  Z M 13.838709677419356 4  L 13.838709677419356 11  L 34.16129032258064 11  L 34.16129032258064 4  L 13.838709677419356 4  Z M 10.451612903225806 20.612903225806452  L 10.451612903225806 17.225806451612904  L 13.838709677419356 17.225806451612904  L 13.838709677419356 20.612903225806452  L 10.451612903225806 20.612903225806452  Z M 17.225806451612904 20.612903225806452  L 17.225806451612904 17.225806451612904  L 20.612903225806452 17.225806451612904  L 20.612903225806452 20.612903225806452  L 17.225806451612904 20.612903225806452  Z " fill-rule="evenodd" />
    </mask>
  </defs>
  <g transform="matrix(1 0 0 1 -55 -611 )">
    <path d="M 11 47  L 11 37.54838709677419  L 2.459758064516129 37.54838709677419  C 2.1063709677419356 37.54838709677419  1.8331451612903227 37.530887096774194  1.6400806451612908 37.4958870967742  C 1.4470161290322587 37.4608870967742  1.2793548387096778 37.40782258064517  1.1370967741935485 37.336693548387096  C 0.8548387096774196 37.16056451612903  0.6431451612903228 36.94887096774194  0.502016129032258 36.70161290322581  C 0.43088709677419357 36.560483870967744  0.3778225806451615 36.39282258064516  0.3428225806451617 36.19862903225807  C 0.3078225806451619 36.00443548387097  0.290322580645162 35.73120967741936  1 35.37895161290323  L 1 16.961612903225806  C 0.29032258064516125 15.86758064516129  0.35185483870967715 15.038306451612904  0.47491935483870956 14.473790322580644  C 0.597983870967742 13.909274193548388  0.7656451612903228 13.432822580645162  0.977903225806452 13.04443548387097  C 1.436290322580646 12.232661290322586  2.0713709677419363 11.597580645161292  2.883145161290323 11.139193548387098  C 3.271532258064517 10.926935483870967  3.7479838709677424 10.75927419354839  4.3125 10.636209677419355  C 4.877016129032259 10.513145161290321  5.706290322580645 10.451612903225806  6.800322580645162 10.451612903225806  L 11 10.451612903225806  L 11 1  L 37.54838709677419 1  L 37.54838709677419 10.451612903225806  L 41.199677419354835 10.451612903225806  C 42.29370967741936 10.451612903225806  43.122983870967744 10.513145161290321  43.6875 10.636209677419355  C 44.25201612903226 10.75927419354839  44.728467741935496 10.926935483870967  45.116854838709685 11.139193548387098  C 45.92862903225807 11.597580645161292  46.56370967741936 12.232661290322586  47.02209677419355 13.04443548387097  C 47.23435483870968 13.432822580645162  47.40201612903226 13.909274193548388  47.5250806451613 14.473790322580644  C 47.64814516129033 15.038306451612904  47.709677419354854 15.86758064516129  47 16.961612903225806  L 47 35.37895161290323  C 47.709677419354854 35.73233870967742  47.69217741935485 36.00556451612904  47.65717741935484 36.19862903225807  C 47.62217741935485 36.39169354838711  47.56911290322581 36.55935483870969  47.497983870967744 36.701612903225815  C 47.32185483870968 36.98387096774194  47.11016129032259 37.19556451612904  46.86290322580645 37.3366935483871  C 46.72177419354839 37.40782258064517  46.55411290322581 37.4608870967742  46.35991935483871 37.495887096774204  C 46.16572580645161 37.53088709677421  45.89250000000001 37.548387096774206  45.54024193548388 37.5483870967742  L 37 37.5483870967742  L 37 47  L 11 47  Z M 34 27  L 14 27  L 14 44  L 34 44  L 34 27  Z M 10.44991935483871 34.16129032258064  L 11 34.16129032258064  L 11 24  L 37 24  L 37 34.16129032258064  L 44 34.16129032258064  L 44 16.961612903225806  C 44.32258064516129 16.220967741935485  44.3050806451613 15.691451612903222  44.27008064516129 15.37306451612903  C 44.2350806451613 15.054677419354839  44.15548387096776 14.798951612903227  44.03129032258065 14.605887096774193  C 43.907096774193555 14.412822580645162  43.7484677419355 14.254193548387098  43.55540322580646 14.129999999999999  C 43.36233870967743 14.005806451612901  43.10661290322581 13.926209677419354  42.78822580645162 13.891209677419354  C 42.46983870967743 13.856209677419356  41.94032258064517 13.838709677419356  41.199677419354856 14  L 6.798629032258065 14  C 6.0579838709677425 13.838709677419352  5.528467741935485 13.856209677419354  5.210080645161291 13.891209677419354  C 4.8916935483870985 13.926209677419354  4.635967741935485 14.005806451612901  4.442903225806452 14.129999999999999  C 4.2498387096774195 14.254193548387097  4.091209677419355 14.412822580645159  3.9670161290322588 14.605887096774193  C 3.842822580645162 14.798951612903227  3.763225806451615 15.054677419354839  3.728225806451613 15.37306451612903  C 3.6932258064516126 15.69145161290322  3.675725806451612 16.220967741935485  4 16.961612903225806  L 4 34.16129032258064  L 10.44991935483871 34.16129032258064  Z M 13.838709677419356 4  L 13.838709677419356 11  L 34.16129032258064 11  L 34.16129032258064 4  L 13.838709677419356 4  Z M 10.451612903225806 20.612903225806452  L 10.451612903225806 17.225806451612904  L 13.838709677419356 17.225806451612904  L 13.838709677419356 20.612903225806452  L 10.451612903225806 20.612903225806452  Z M 17.225806451612904 20.612903225806452  L 17.225806451612904 17.225806451612904  L 20.612903225806452 17.225806451612904  L 20.612903225806452 20.612903225806452  L 17.225806451612904 20.612903225806452  Z " fill-rule="nonzero" fill="rgba(81, 196, 25, 1)" stroke="none" transform="matrix(1 0 0 1 55 611 )" class="fill" />
    <path d="M 11 47  L 11 37.54838709677419  L 2.459758064516129 37.54838709677419  C 2.1063709677419356 37.54838709677419  1.8331451612903227 37.530887096774194  1.6400806451612908 37.4958870967742  C 1.4470161290322587 37.4608870967742  1.2793548387096778 37.40782258064517  1.1370967741935485 37.336693548387096  C 0.8548387096774196 37.16056451612903  0.6431451612903228 36.94887096774194  0.502016129032258 36.70161290322581  C 0.43088709677419357 36.560483870967744  0.3778225806451615 36.39282258064516  0.3428225806451617 36.19862903225807  C 0.3078225806451619 36.00443548387097  0.290322580645162 35.73120967741936  1 35.37895161290323  L 1 16.961612903225806  C 0.29032258064516125 15.86758064516129  0.35185483870967715 15.038306451612904  0.47491935483870956 14.473790322580644  C 0.597983870967742 13.909274193548388  0.7656451612903228 13.432822580645162  0.977903225806452 13.04443548387097  C 1.436290322580646 12.232661290322586  2.0713709677419363 11.597580645161292  2.883145161290323 11.139193548387098  C 3.271532258064517 10.926935483870967  3.7479838709677424 10.75927419354839  4.3125 10.636209677419355  C 4.877016129032259 10.513145161290321  5.706290322580645 10.451612903225806  6.800322580645162 10.451612903225806  L 11 10.451612903225806  L 11 1  L 37.54838709677419 1  L 37.54838709677419 10.451612903225806  L 41.199677419354835 10.451612903225806  C 42.29370967741936 10.451612903225806  43.122983870967744 10.513145161290321  43.6875 10.636209677419355  C 44.25201612903226 10.75927419354839  44.728467741935496 10.926935483870967  45.116854838709685 11.139193548387098  C 45.92862903225807 11.597580645161292  46.56370967741936 12.232661290322586  47.02209677419355 13.04443548387097  C 47.23435483870968 13.432822580645162  47.40201612903226 13.909274193548388  47.5250806451613 14.473790322580644  C 47.64814516129033 15.038306451612904  47.709677419354854 15.86758064516129  47 16.961612903225806  L 47 35.37895161290323  C 47.709677419354854 35.73233870967742  47.69217741935485 36.00556451612904  47.65717741935484 36.19862903225807  C 47.62217741935485 36.39169354838711  47.56911290322581 36.55935483870969  47.497983870967744 36.701612903225815  C 47.32185483870968 36.98387096774194  47.11016129032259 37.19556451612904  46.86290322580645 37.3366935483871  C 46.72177419354839 37.40782258064517  46.55411290322581 37.4608870967742  46.35991935483871 37.495887096774204  C 46.16572580645161 37.53088709677421  45.89250000000001 37.548387096774206  45.54024193548388 37.5483870967742  L 37 37.5483870967742  L 37 47  L 11 47  Z " stroke-width="0" stroke-dasharray="0" stroke="rgba(255, 255, 255, 0)" fill="none" transform="matrix(1 0 0 1 55 611 )" class="stroke" mask="url(#Clip1856)" />
    <path d="M 34 27  L 14 27  L 14 44  L 34 44  L 34 27  Z " stroke-width="0" stroke-dasharray="0" stroke="rgba(255, 255, 255, 0)" fill="none" transform="matrix(1 0 0 1 55 611 )" class="stroke" mask="url(#Clip1856)" />
    <path d="M 10.44991935483871 34.16129032258064  L 11 34.16129032258064  L 11 24  L 37 24  L 37 34.16129032258064  L 44 34.16129032258064  L 44 16.961612903225806  C 44.32258064516129 16.220967741935485  44.3050806451613 15.691451612903222  44.27008064516129 15.37306451612903  C 44.2350806451613 15.054677419354839  44.15548387096776 14.798951612903227  44.03129032258065 14.605887096774193  C 43.907096774193555 14.412822580645162  43.7484677419355 14.254193548387098  43.55540322580646 14.129999999999999  C 43.36233870967743 14.005806451612901  43.10661290322581 13.926209677419354  42.78822580645162 13.891209677419354  C 42.46983870967743 13.856209677419356  41.94032258064517 13.838709677419356  41.199677419354856 14  L 6.798629032258065 14  C 6.0579838709677425 13.838709677419352  5.528467741935485 13.856209677419354  5.210080645161291 13.891209677419354  C 4.8916935483870985 13.926209677419354  4.635967741935485 14.005806451612901  4.442903225806452 14.129999999999999  C 4.2498387096774195 14.254193548387097  4.091209677419355 14.412822580645159  3.9670161290322588 14.605887096774193  C 3.842822580645162 14.798951612903227  3.763225806451615 15.054677419354839  3.728225806451613 15.37306451612903  C 3.6932258064516126 15.69145161290322  3.675725806451612 16.220967741935485  4 16.961612903225806  L 4 34.16129032258064  L 10.44991935483871 34.16129032258064  Z " stroke-width="0" stroke-dasharray="0" stroke="rgba(255, 255, 255, 0)" fill="none" transform="matrix(1 0 0 1 55 611 )" class="stroke" mask="url(#Clip1856)" />
    <path d="M 13.838709677419356 4  L 13.838709677419356 11  L 34.16129032258064 11  L 34.16129032258064 4  L 13.838709677419356 4  Z " stroke-width="0" stroke-dasharray="0" stroke="rgba(255, 255, 255, 0)" fill="none" transform="matrix(1 0 0 1 55 611 )" class="stroke" mask="url(#Clip1856)" />
    <path d="M 10.451612903225806 20.612903225806452  L 10.451612903225806 17.225806451612904  L 13.838709677419356 17.225806451612904  L 13.838709677419356 20.612903225806452  L 10.451612903225806 20.612903225806452  Z " stroke-width="0" stroke-dasharray="0" stroke="rgba(255, 255, 255, 0)" fill="none" transform="matrix(1 0 0 1 55 611 )" class="stroke" mask="url(#Clip1856)" />
    <path d="M 17.225806451612904 20.612903225806452  L 17.225806451612904 17.225806451612904  L 20.612903225806452 17.225806451612904  L 20.612903225806452 20.612903225806452  L 17.225806451612904 20.612903225806452  Z " stroke-width="0" stroke-dasharray="0" stroke="rgba(255, 255, 255, 0)" fill="none" transform="matrix(1 0 0 1 55 611 )" class="stroke" mask="url(#Clip1856)" />
  </g>
</svg>