<?xml version="1.0" encoding="utf-8"?>
<svg version="1.1" xmlns:xlink="http://www.w3.org/1999/xlink" width="48px" height="48px" xmlns="http://www.w3.org/2000/svg">
  <defs>
    <pattern id="BGPattern" patternUnits="userSpaceOnUse" alignment="0 0" imageRepeat="None" />
    <mask fill="white" id="Clip1353">
      <path d="M 9.631935483870967 38.36806451612904  C 13.460483870967742 42.19548387096775  18.24983870967742 44.18032258064517  24 44.32258064516129  C 29.751290322580648 44.18145161290323  34.54064516129033 42.19661290322581  38.36806451612904 38.36806451612904  C 42.19548387096775 34.53951612903226  44.18032258064517 29.750161290322588  44.32258064516129 24  C 44.18145161290323 18.248709677419356  42.19661290322581 13.459354838709677  38.36806451612904 9.631935483870967  C 34.53951612903226 5.80451612903226  29.750161290322588 3.819677419354841  24 3.67741935483871  C 18.248709677419356 3.818548387096775  13.459354838709677 5.803387096774194  9.631935483870967 9.631935483870967  C 5.80451612903226 13.460483870967742  3.819677419354841 18.24983870967742  3.67741935483871 24  C 3.818548387096775 29.751290322580648  5.803387096774194 34.54064516129033  9.631935483870967 38.36806451612904  Z M 40.75088709677419 40.75088709677419  C 36.28782258064515 45.21395161290322  30.704193548387096 47.533548387096786  24 47.70967741935483  C 17.295806451612908 47.533548387096786  11.712177419354841 45.21395161290323  7.249112903225807 40.75088709677419  C 2.786048387096773 36.28782258064515  0.46645161290322446 30.704193548387096  0.29032258064516125 24  C 0.4664516129032258 17.295806451612908  2.786048387096775 11.712177419354841  7.249112903225807 7.249112903225807  C 11.71217741935484 2.786048387096773  17.295806451612908 0.46645161290322446  24 0.29032258064516125  C 30.704193548387096 0.4664516129032258  36.28782258064517 2.786048387096775  40.75088709677419 7.249112903225807  C 45.21395161290322 11.71217741935484  47.533548387096786 17.295806451612908  47.70967741935483 24  C 47.533548387096786 30.704193548387096  45.21395161290323 36.28782258064517  40.75088709677419 40.75088709677419  Z M 18.655161290322575 24.79427419354839  C 20.91322580645161 20.912661290322582  25.517419354838708 15.76145161290323  32.46774193548387 9.340645161290324  C 30.385806451612904 18.585161290322585  28.2158064516129 25.14766129032258  25.957741935483867 29.028145161290325  C 23.98193548387097 31.78072580645162  21.918064516129036 32.539435483870975  19.766129032258064 31.304274193548387  C 17.614193548387096 30.069112903225815  17.243870967741934 27.899112903225813  18.655161290322575 24.79427419354839  Z " fill-rule="evenodd" />
    </mask>
  </defs>
  <g transform="matrix(1 0 0 1 -862 -429 )">
    <path d="M 9.631935483870967 38.36806451612904  C 13.460483870967742 42.19548387096775  18.24983870967742 44.18032258064517  24 44.32258064516129  C 29.751290322580648 44.18145161290323  34.54064516129033 42.19661290322581  38.36806451612904 38.36806451612904  C 42.19548387096775 34.53951612903226  44.18032258064517 29.750161290322588  44.32258064516129 24  C 44.18145161290323 18.248709677419356  42.19661290322581 13.459354838709677  38.36806451612904 9.631935483870967  C 34.53951612903226 5.80451612903226  29.750161290322588 3.819677419354841  24 3.67741935483871  C 18.248709677419356 3.818548387096775  13.459354838709677 5.803387096774194  9.631935483870967 9.631935483870967  C 5.80451612903226 13.460483870967742  3.819677419354841 18.24983870967742  3.67741935483871 24  C 3.818548387096775 29.751290322580648  5.803387096774194 34.54064516129033  9.631935483870967 38.36806451612904  Z M 40.75088709677419 40.75088709677419  C 36.28782258064515 45.21395161290322  30.704193548387096 47.533548387096786  24 47.70967741935483  C 17.295806451612908 47.533548387096786  11.712177419354841 45.21395161290323  7.249112903225807 40.75088709677419  C 2.786048387096773 36.28782258064515  0.46645161290322446 30.704193548387096  0.29032258064516125 24  C 0.4664516129032258 17.295806451612908  2.786048387096775 11.712177419354841  7.249112903225807 7.249112903225807  C 11.71217741935484 2.786048387096773  17.295806451612908 0.46645161290322446  24 0.29032258064516125  C 30.704193548387096 0.4664516129032258  36.28782258064517 2.786048387096775  40.75088709677419 7.249112903225807  C 45.21395161290322 11.71217741935484  47.533548387096786 17.295806451612908  47.70967741935483 24  C 47.533548387096786 30.704193548387096  45.21395161290323 36.28782258064517  40.75088709677419 40.75088709677419  Z M 18.655161290322575 24.79427419354839  C 20.91322580645161 20.912661290322582  25.517419354838708 15.76145161290323  32.46774193548387 9.340645161290324  C 30.385806451612904 18.585161290322585  28.2158064516129 25.14766129032258  25.957741935483867 29.028145161290325  C 23.98193548387097 31.78072580645162  21.918064516129036 32.539435483870975  19.766129032258064 31.304274193548387  C 17.614193548387096 30.069112903225815  17.243870967741934 27.899112903225813  18.655161290322575 24.79427419354839  Z " fill-rule="nonzero" fill="rgba(255, 78, 81, 1)" stroke="none" transform="matrix(1 0 0 1 862 429 )" class="fill" />
    <path d="M 9.631935483870967 38.36806451612904  C 13.460483870967742 42.19548387096775  18.24983870967742 44.18032258064517  24 44.32258064516129  C 29.751290322580648 44.18145161290323  34.54064516129033 42.19661290322581  38.36806451612904 38.36806451612904  C 42.19548387096775 34.53951612903226  44.18032258064517 29.750161290322588  44.32258064516129 24  C 44.18145161290323 18.248709677419356  42.19661290322581 13.459354838709677  38.36806451612904 9.631935483870967  C 34.53951612903226 5.80451612903226  29.750161290322588 3.819677419354841  24 3.67741935483871  C 18.248709677419356 3.818548387096775  13.459354838709677 5.803387096774194  9.631935483870967 9.631935483870967  C 5.80451612903226 13.460483870967742  3.819677419354841 18.24983870967742  3.67741935483871 24  C 3.818548387096775 29.751290322580648  5.803387096774194 34.54064516129033  9.631935483870967 38.36806451612904  Z " stroke-width="0" stroke-dasharray="0" stroke="rgba(255, 255, 255, 0)" fill="none" transform="matrix(1 0 0 1 862 429 )" class="stroke" mask="url(#Clip1353)" />
    <path d="M 40.75088709677419 40.75088709677419  C 36.28782258064515 45.21395161290322  30.704193548387096 47.533548387096786  24 47.70967741935483  C 17.295806451612908 47.533548387096786  11.712177419354841 45.21395161290323  7.249112903225807 40.75088709677419  C 2.786048387096773 36.28782258064515  0.46645161290322446 30.704193548387096  0.29032258064516125 24  C 0.4664516129032258 17.295806451612908  2.786048387096775 11.712177419354841  7.249112903225807 7.249112903225807  C 11.71217741935484 2.786048387096773  17.295806451612908 0.46645161290322446  24 0.29032258064516125  C 30.704193548387096 0.4664516129032258  36.28782258064517 2.786048387096775  40.75088709677419 7.249112903225807  C 45.21395161290322 11.71217741935484  47.533548387096786 17.295806451612908  47.70967741935483 24  C 47.533548387096786 30.704193548387096  45.21395161290323 36.28782258064517  40.75088709677419 40.75088709677419  Z " stroke-width="0" stroke-dasharray="0" stroke="rgba(255, 255, 255, 0)" fill="none" transform="matrix(1 0 0 1 862 429 )" class="stroke" mask="url(#Clip1353)" />
    <path d="M 18.655161290322575 24.79427419354839  C 20.91322580645161 20.912661290322582  25.517419354838708 15.76145161290323  32.46774193548387 9.340645161290324  C 30.385806451612904 18.585161290322585  28.2158064516129 25.14766129032258  25.957741935483867 29.028145161290325  C 23.98193548387097 31.78072580645162  21.918064516129036 32.539435483870975  19.766129032258064 31.304274193548387  C 17.614193548387096 30.069112903225815  17.243870967741934 27.899112903225813  18.655161290322575 24.79427419354839  Z " stroke-width="0" stroke-dasharray="0" stroke="rgba(255, 255, 255, 0)" fill="none" transform="matrix(1 0 0 1 862 429 )" class="stroke" mask="url(#Clip1353)" />
  </g>
</svg>