<?xml version="1.0" encoding="utf-8"?>
<svg version="1.1" xmlns:xlink="http://www.w3.org/1999/xlink" width="23px" height="24px" xmlns="http://www.w3.org/2000/svg">
  <defs>
    <pattern id="BGPattern" patternUnits="userSpaceOnUse" alignment="0 0" imageRepeat="None" />
    <mask fill="white" id="Clip150">
      <path d="M 21.584637499882273 3.9544902723735413  C 22.441721739018202 4.3024961135180755  23.000009671907453 5.118553736261797  22.99999999987433 6.023346303501945  C 22.99999999987433 16.355579766536966  16.48649583324424 22.115719844357976  12.384589583267276 23.78091828793774  C 11.818436810122677 24.010788586252836  11.181515273088479 24.010788586252836  10.61536249994388 23.780918287937745  C 5.486218749972682 21.698661478599224  0 15.291221789883268  0 6.023346303501945  C 0 5.118542408872985  0.5583073873981563 4.302481620263228  1.4154104166622092 3.9544902723735413  L 10.615410416610544 0.21908171206225713  C 11.18156318975514 -0.010788586252839814  11.818484726789343 -0.010788586252840343  12.384637499933943 0.21908171206225713  L 21.584637499882273 3.9544902723735413  Z M 11.499999999938911 3.0972607003891053  L 11.499999999938911 20.88621011673152  L 11.503162499938892 20.88779766536965  C 15.99463124991367 18.70776653696498  19.768643749892476 13.589369649805448  19.927727083224916 6.51912840466926  L 11.499999999938911 3.0972607003891053  Z " fill-rule="evenodd" />
    </mask>
  </defs>
  <g transform="matrix(1 0 0 1 -51 -148 )">
    <path d="M 21.584637499882273 3.9544902723735413  C 22.441721739018202 4.3024961135180755  23.000009671907453 5.118553736261797  22.99999999987433 6.023346303501945  C 22.99999999987433 16.355579766536966  16.48649583324424 22.115719844357976  12.384589583267276 23.78091828793774  C 11.818436810122677 24.010788586252836  11.181515273088479 24.010788586252836  10.61536249994388 23.780918287937745  C 5.486218749972682 21.698661478599224  0 15.291221789883268  0 6.023346303501945  C 0 5.118542408872985  0.5583073873981563 4.302481620263228  1.4154104166622092 3.9544902723735413  L 10.615410416610544 0.21908171206225713  C 11.18156318975514 -0.010788586252839814  11.818484726789343 -0.010788586252840343  12.384637499933943 0.21908171206225713  L 21.584637499882273 3.9544902723735413  Z M 11.499999999938911 3.0972607003891053  L 11.499999999938911 20.88621011673152  L 11.503162499938892 20.88779766536965  C 15.99463124991367 18.70776653696498  19.768643749892476 13.589369649805448  19.927727083224916 6.51912840466926  L 11.499999999938911 3.0972607003891053  Z " fill-rule="nonzero" fill="rgba(81, 90, 110, 1)" stroke="none" transform="matrix(1 0 0 1 51 148 )" class="fill" />
    <path d="M 21.584637499882273 3.9544902723735413  C 22.441721739018202 4.3024961135180755  23.000009671907453 5.118553736261797  22.99999999987433 6.023346303501945  C 22.99999999987433 16.355579766536966  16.48649583324424 22.115719844357976  12.384589583267276 23.78091828793774  C 11.818436810122677 24.010788586252836  11.181515273088479 24.010788586252836  10.61536249994388 23.780918287937745  C 5.486218749972682 21.698661478599224  0 15.291221789883268  0 6.023346303501945  C 0 5.118542408872985  0.5583073873981563 4.302481620263228  1.4154104166622092 3.9544902723735413  L 10.615410416610544 0.21908171206225713  C 11.18156318975514 -0.010788586252839814  11.818484726789343 -0.010788586252840343  12.384637499933943 0.21908171206225713  L 21.584637499882273 3.9544902723735413  Z " stroke-width="0" stroke-dasharray="0" stroke="rgba(255, 255, 255, 0)" fill="none" transform="matrix(1 0 0 1 51 148 )" class="stroke" mask="url(#Clip150)" />
    <path d="M 11.499999999938911 3.0972607003891053  L 11.499999999938911 20.88621011673152  L 11.503162499938892 20.88779766536965  C 15.99463124991367 18.70776653696498  19.768643749892476 13.589369649805448  19.927727083224916 6.51912840466926  L 11.499999999938911 3.0972607003891053  Z " stroke-width="0" stroke-dasharray="0" stroke="rgba(255, 255, 255, 0)" fill="none" transform="matrix(1 0 0 1 51 148 )" class="stroke" mask="url(#Clip150)" />
  </g>
</svg>