<?xml version="1.0" encoding="utf-8"?>
<svg version="1.1" xmlns:xlink="http://www.w3.org/1999/xlink" width="20px" height="24px" xmlns="http://www.w3.org/2000/svg">
  <g transform="matrix(1 0 0 1 -51 -26 )">
    <path d="M 4.285714285714286 6  C 4.285714285714286 9.314062499999999  6.843750000000001 12  10 12  C 13.15625 12  15.714285714285714 9.314062499999999  15.714285714285714 6  C 15.714285714285714 2.6859375000000005  13.15625 0  10 0  C 6.843750000000001 0  4.285714285714286 2.6859374999999996  4.285714285714286 6  Z M 20 19.799999999999997  C 20 16.321875  17.3125 13.5  14.000000000000002 13.5  L 13.254464285714286 13.5  C 12.263392857142858 13.978124999999999  11.160714285714286 14.25  10.000000000000002 14.25  C 8.839285714285715 14.25  7.74107142857143 13.978124999999999  6.745535714285715 13.5  L 6.000000000000002 13.5  C 2.6875 13.5  0 16.321875  0 19.799999999999997  L 0 21.75  C 0 22.9921875  0.9598214285714286 24  2.142857142857143 24  L 17.857142857142858 24  C 19.040178571428573 24  20 22.9921875  20 21.75  L 20 19.799999999999997  Z " fill-rule="nonzero" fill="#515a6e" stroke="none" transform="matrix(1 0 0 1 51 26 )" />
  </g>
</svg>