<?xml version="1.0" encoding="utf-8"?>
<svg version="1.1" xmlns:xlink="http://www.w3.org/1999/xlink" width="21px" height="24px" xmlns="http://www.w3.org/2000/svg">
  <g transform="matrix(1 0 0 1 -1205 -431 )">
    <path d="M 21 12.75  C 21 11.5078125  19.9921875 10.5  18.75 10.5  L 17.625 10.5  L 17.625 7.125  C 17.625 3.1968750000000004  14.428125000000001 0  10.5 0  C 6.571875 0  3.3750000000000004 3.1968750000000004  3.3750000000000004 7.125  L 3.3750000000000004 10.5  L 2.25 10.5  C 1.0078125 10.5  0 11.5078125  0 12.75  L 0 21.75  C 0 22.9921875  1.0078125 24  2.25 24  L 18.75 24  C 19.9921875 24  21 22.9921875  21 21.75  L 21 12.75  Z M 13.875 7.125  L 13.875 10.5  L 7.125 10.5  L 7.125 7.125  C 7.125 5.2640625  8.6390625 3.75  10.5 3.75  C 12.3609375 3.75  13.875 5.2640625  13.875 7.125  Z " fill-rule="nonzero" fill="#515a6e" stroke="none" transform="matrix(1 0 0 1 1205 431 )" />
  </g>
</svg>