<?xml version="1.0" encoding="utf-8"?>
<svg version="1.1" xmlns:xlink="http://www.w3.org/1999/xlink" width="21px" height="24px" xmlns="http://www.w3.org/2000/svg">
  <g transform="matrix(1 0 0 1 -1205 -370 )">
    <path d="M 4.5 6  C 4.5 9.314062499999999  7.1859375000000005 12  10.5 12  C 13.8140625 12  16.5 9.314062499999999  16.5 6  C 16.5 2.6859375000000005  13.8140625 0  10.5 0  C 7.1859375000000005 0  4.5 2.6859374999999996  4.5 6  Z M 21 19.799999999999997  C 21 16.321875  18.178124999999998 13.5  14.700000000000001 13.5  L 13.9171875 13.5  C 12.876562500000002 13.978124999999999  11.71875 14.25  10.500000000000002 14.25  C 9.28125 14.25  8.128125 13.978124999999999  7.082812500000001 13.5  L 6.3000000000000025 13.5  C 2.821875 13.5  0 16.321875  0 19.799999999999997  L 0 21.75  C 0 22.9921875  1.0078125 24  2.25 24  L 18.75 24  C 19.9921875 24  21 22.9921875  21 21.75  L 21 19.799999999999997  Z " fill-rule="nonzero" fill="#515a6e" stroke="none" transform="matrix(1 0 0 1 1205 370 )" />
  </g>
</svg>