<?xml version="1.0" encoding="utf-8"?>
<svg version="1.1" xmlns:xlink="http://www.w3.org/1999/xlink" width="45px" height="50px" xmlns="http://www.w3.org/2000/svg">
  <g transform="matrix(1 0 0 1 -55 -30 )">
    <path d="M 7.714285714285714 9.462890625000002  L 23.610389610389607 20.664062500000004  C 21.165584415584412 22.978515625  19.636363636363633 26.259765624999996  19.636363636363633 29.90234375  C 19.636363636363633 32.763671875  20.581168831168824 35.400390625  22.168831168831165 37.51953125  L 17.3474025974026 42.3828125  C 16.91883116883117 42.2265625  16.46103896103896 42.138671875  15.983766233766232 42.138671875  C 14.93181818181818 42.138671875  13.948051948051948 42.548828125  13.207792207792208 43.291015625  C 12.467532467532468 44.033203125  12.058441558441556 45.029296875  12.058441558441556 46.083984375  C 12.058441558441556 47.13867187500001  12.467532467532465 48.125  13.207792207792208 48.8671875  C 13.948051948051948 49.60937500000001  14.941558441558444 50  15.983766233766232 50  C 17.035714285714285 50  18.01948051948052 49.619140625  18.769480519480517 48.8671875  C 19.50974025974026 48.12499999999999  19.91883116883117 47.12890625  19.91883116883117 46.083984375  C 19.91883116883117 45.673828125  19.86038961038961 45.283203125  19.733766233766232 44.90234374999999  L 24.603896103896105 40  C 26.74675324675325 41.65039062499999  29.415584415584412 42.62695312499999  32.32792207792208 42.62695312499999  C 39.33116883116884 42.62695312499999  44.990259740259745 36.93359374999999  44.990259740259745 29.912109374999996  C 44.990259740259745 23.544921874999996  40.34415584415585 18.271484374999996  34.25649350649351 17.343749999999996  L 34.25649350649351 11.328125000000002  C 35.961038961038966 10.60546875  37.003246753246756 9.003906250000002  37.003246753246756 7.138671875000001  C 37.003246753246756 4.589843750000001  34.96753246753247 2.460937500000001  32.42532467532468 2.460937500000001  C 29.883116883116887 2.460937500000001  27.876623376623375 4.589843750000002  27.876623376623375 7.138671875000001  C 27.876623376623375 9.00390625  28.918831168831165 10.60546875  30.623376623376622 11.328125000000002  L 30.623376623376622 17.3046875  C 29.142857142857146 17.509765625  27.740259740259738 17.958984374999996  26.464285714285715 18.6328125  C 23.775974025974023 16.591796874999996  15.019480519480519 10.263671875  10.012987012987011 6.4453125  C 10.129870129870127 6.015625  10.207792207792206 5.56640625  10.207792207792206 5.09765625  C 10.20779220779221 2.2851562500000013  7.9188311688311686 0  5.103896103896105 0  C 2.2987012987012987 0  0.01948051948051941 2.2851562500000013  0.01948051948051941 5.097656250000002  C 0.01948051948051941 7.919921875000001  2.2987012987012982 10.205078125000002  5.103896103896105 10.205078125000002  C 6.058441558441558 10.205078125000002  6.944805194805196 9.921875  7.714285714285714 9.462890625000002  Z M 39.048701298701296 29.90234375  C 39.048701298701296 33.623046875  36.03896103896104 36.640625  32.327922077922075 36.640625  C 28.61688311688311 36.640625  25.607142857142858 33.623046875  25.607142857142858 29.90234375  C 25.607142857142858 26.181640624999996  28.61688311688311 23.1640625  32.327922077922075 23.1640625  C 36.03896103896104 23.1640625  39.048701298701296 26.181640624999996  39.048701298701296 29.90234375  Z " fill-rule="nonzero" fill="#ffffff" stroke="none" transform="matrix(1 0 0 1 55 30 )" />
  </g>
</svg>