<?xml version="1.0" encoding="utf-8"?>
<svg version="1.1" xmlns:xlink="http://www.w3.org/1999/xlink" width="14px" height="14px" xmlns="http://www.w3.org/2000/svg">
  <g transform="matrix(1 0 0 1 -278 -10 )">
    <path d="M 0.6637931034482758 6.4719827586206895  L 6.4719827586206895 6.4719827586206895  L 6.4719827586206895 0.6637931034482758  C 6.471982758620691 0.5096120689655173  6.521440373563218 0.3830639367816092  6.620355603448276 0.28414870689655186  C 6.719270833333333 0.1852334770114945  6.845818965517243 0.13577586206896575  7 0.13577586206896552  C 7.154181034482758 0.13577586206896552  7.280729166666666 0.18523347701149429  7.379644396551725 0.28414870689655186  C 7.478559626436783 0.3830639367816096  7.528017241379312 0.5096120689655177  7.5280172413793105 0.6637931034482758  L 7.5280172413793105 6.4719827586206895  L 13.336206896551724 6.4719827586206895  C 13.490387931034483 6.471982758620691  13.616936063218393 6.521440373563218  13.71585129310345 6.620355603448276  C 13.81476652298851 6.719270833333333  13.864224137931037 6.845818965517243  13.864224137931036 7  C 13.864224137931036 7.154181034482758  13.814766522988506 7.280729166666666  13.71585129310345 7.379644396551725  C 13.616936063218395 7.478559626436783  13.490387931034485 7.528017241379312  13.336206896551724 7.5280172413793105  L 7.5280172413793105 7.5280172413793105  L 7.5280172413793105 13.336206896551724  C 7.5280172413793105 13.490387931034483  7.478559626436783 13.616936063218393  7.379644396551725 13.71585129310345  C 7.280729166666669 13.81476652298851  7.154181034482758 13.864224137931037  7 13.864224137931036  C 6.845818965517241 13.864224137931036  6.719270833333333 13.814766522988506  6.620355603448276 13.71585129310345  C 6.521440373563221 13.616936063218395  6.471982758620691 13.490387931034485  6.4719827586206895 13.336206896551724  L 6.4719827586206895 7.5280172413793105  L 0.6637931034482758 7.5280172413793105  C 0.5096120689655173 7.5280172413793105  0.3830639367816092 7.478559626436783  0.28414870689655186 7.379644396551725  C 0.1852334770114945 7.280729166666669  0.13577586206896575 7.154181034482758  0.13577586206896552 7  C 0.13577586206896552 6.845818965517241  0.18523347701149429 6.719270833333333  0.28414870689655186 6.620355603448276  C 0.3830639367816096 6.521440373563221  0.5096120689655177 6.471982758620691  0.6637931034482758 6.4719827586206895  Z " fill-rule="nonzero" fill="#ffffff" stroke="none" transform="matrix(1 0 0 1 278 10 )" />
  </g>
</svg>