<?xml version="1.0" encoding="utf-8"?>
<svg version="1.1" xmlns:xlink="http://www.w3.org/1999/xlink" width="15px" height="16px" xmlns="http://www.w3.org/2000/svg">
  <g transform="matrix(1 0 0 1 -1621 -74 )">
    <path d="M 5.544203389830507 1.189315254237287  C 4.618372881355931 1.4982508474576284  3.77064406779661 2.024135593220338  3.059593220338982 2.72184406779661  C 3.2597288135593203 3.462942372881355  3.1799999999999997 4.275199999999999  2.802508474576271 4.971172881355934  C 2.4250169491525426 5.668881355932202  1.8050847457627128 6.149640677966102  1.1037966101694927 6.3336135593220355  C 0.9996610169491511 6.831728813559323  0.945966101694914 7.3437288135593235  0.945966101694914 7.864406779661022  C 0.945966101694914 8.385084745762713  0.9996610169491511 8.897084745762717  1.1037966101694927 9.395199999999999  C 1.806711864406779 9.579172881355937  2.4250169491525426 10.059932203389833  2.802508474576271 10.757640677966105  C 3.1799999999999997 11.453613559322033  3.2597288135593203 12.265871186440684  3.059593220338982 13.006969491525426  C 3.77064406779661 13.706413559322035  4.618372881355931 14.230562711864406  5.544203389830507 14.539498305084749  C 6.0453559322033925 13.982372881355937  6.745016949152543 13.650874576271189  7.5 13.650874576271189  C 8.254983050847457 13.650874576271189  8.954644067796607 13.982372881355937  9.455796610169493 14.539498305084749  C 10.381627118644069 14.230562711864406  11.22935593220339 13.706413559322035  11.940406779661018 13.006969491525426  C 11.74027118644068 12.265871186440684  11.82 11.453613559322033  12.197491525423729 10.757640677966105  C 12.574983050847457 10.059932203389833  13.194915254237287 9.579172881355937  13.89620338983051 9.395199999999999  C 14.000338983050845 8.897084745762717  14.054033898305086 8.385084745762713  14.054033898305086 7.864406779661022  C 14.054033898305086 7.3437288135593235  14.000338983050845 6.831728813559323  13.89620338983051 6.3336135593220355  C 13.193288135593221 6.149640677966102  12.574983050847457 5.668881355932202  12.197491525423729 4.971172881355934  C 11.82 4.275199999999999  11.74027118644068 3.462942372881355  11.940406779661018 2.72184406779661  C 11.22935593220339 2.0224000000000006  10.381627118644069 1.4982508474576284  9.455796610169486 1.189315254237287  C 8.954644067796607 1.7464406779661015  8.254983050847457 2.077938983050846  7.5 2.077938983050846  C 6.745016949152539 2.077938983050846  6.045355932203389 1.7464406779661015  5.544203389830507 1.189315254237287  Z M 1.9889491525423715 2.506630508474575  C 3.0107796610169473 1.3108067796610157  4.369423728813558 0.44995254237287935  5.90379661016949 0.09242033898304954  C 6.20806779661017 0.7016135593220345  6.808474576271188 1.1146847457627131  7.5 1.1146847457627131  C 8.191525423728812 1.1146847457627131  8.791932203389834 0.6998779661016935  9.096203389830507 0.09242033898304954  C 10.630576271186442 0.4499525423728831  11.989220338983053 1.3108067796610157  13.011050847457625 2.504894915254238  C 12.669355932203388 3.0897898305084746  12.633559322033896 3.8517152542372894  12.98013559322034 4.4886779661016964  C 13.326711864406775 5.127376271186441  13.962915254237288 5.476230508474577  14.608881355932205 5.45193220338983  C 14.83505084745763 6.212122033898307  14.957084745762714 7.02264406779661  14.957084745762714 7.862671186440677  C 14.957084745762714 8.702698305084747  14.83505084745763 9.513220338983047  14.608881355932205 10.273410169491529  C 13.962915254237288 10.249111864406784  13.325084745762709 10.597966101694919  12.98013559322034 11.236664406779663  C 12.635186440677963 11.875362711864408  12.669355932203388 12.635552542372883  13.011050847457625 13.22044745762712  C 11.989220338983053 14.414535593220338  10.630576271186442 15.275389830508479  9.096203389830507 15.632922033898307  C 8.791932203389827 15.023728813559327  8.191525423728812 14.610657627118645  7.5 14.610657627118645  C 6.808474576271184 14.610657627118645  6.20806779661017 15.025464406779664  5.90379661016949 15.632922033898307  C 4.369423728813558 15.275389830508479  3.0107796610169473 14.414535593220338  1.9889491525423715 13.22044745762712  C 2.3306440677966087 12.635552542372883  2.364813559322034 11.873627118644071  2.0198644067796607 11.236664406779663  C 1.6732881355932179 10.597966101694919  1.0370847457627121 10.249111864406784  0.3911186440677952 10.273410169491529  C 0.1649491525423734 9.51495593220339  0.04291525423728615 8.704433898305085  0.04291525423728615 7.864406779661022  C 0.04291525423728615 7.024379661016951  0.1649491525423734 6.213857627118644  0.3911186440677952 5.453667796610171  C 1.0370847457627121 5.477966101694915  1.6749152542372876 5.129111864406779  2.0198644067796607 4.490413559322034  C 2.364813559322034 3.8517152542372894  2.3306440677966087 3.091525423728812  1.9889491525423715 2.506630508474575  Z M 4.787593220338984 7.864406779661022  C 4.787593220338984 9.461152542372883  6.003050847457626 10.757640677966105  7.5 10.757640677966105  C 8.99694915254237 10.757640677966105  10.212406779661016 9.462888135593222  10.212406779661016 7.864406779661022  C 10.212406779661016 6.265925423728815  8.99694915254237 4.971172881355934  7.5 4.971172881355934  C 6.003050847457629 4.971172881355934  4.787593220338984 6.267661016949152  4.787593220338984 7.864406779661022  Z M 9.307728813559322 7.864406779661022  C 9.307728813559322 8.930061016949155  8.499050847457625 9.792650847457624  7.5 9.792650847457624  C 6.500949152542372 9.792650847457624  5.692271186440678 8.930061016949155  5.692271186440678 7.864406779661022  C 5.692271186440678 6.798752542372881  6.500949152542372 5.936162711864408  7.5 5.936162711864408  C 8.499050847457625 5.936162711864408  9.307728813559322 6.798752542372881  9.307728813559322 7.864406779661022  Z " fill-rule="nonzero" fill="#606266" stroke="none" transform="matrix(1 0 0 1 1621 74 )" />
  </g>
</svg>