<?xml version="1.0" encoding="utf-8"?>
<svg version="1.1" xmlns:xlink="http://www.w3.org/1999/xlink" width="22px" height="24px" xmlns="http://www.w3.org/2000/svg">
  <g transform="matrix(1 0 0 1 -26 -84 )">
    <path d="M 15.323317307692308 18.207589285714285  C 15.693509615384615 17.77455357142857  15.87860576923077 17.232142857142854  15.87860576923077 16.580357142857142  C 15.87860576923077 16.071428571428573  15.854366987179489 15.593749999999998  15.805889423076923 15.147321428571427  C 15.757411858974361 14.700892857142856  15.664863782051283 14.252232142857142  15.528245192307692 13.801339285714286  C 15.391626602564104 13.350446428571427  15.217548076923077 12.966517857142856  15.006009615384615 12.649553571428573  C 14.794471153846155 12.332589285714285  14.512419871794874 12.073660714285714  14.15985576923077 11.872767857142858  C 13.807291666666668 11.671875  13.40625 11.57142857142857  12.95673076923077 11.57142857142857  C 12.903846153846155 11.607142857142856  12.756209935897436 11.698660714285714  12.513822115384615 11.845982142857142  C 12.271434294871796 11.99330357142857  12.084134615384615 12.10267857142857  11.951923076923077 12.174107142857142  C 11.81971153846154 12.245535714285712  11.64122596153846 12.334821428571427  11.416466346153845 12.441964285714286  C 11.19170673076923 12.549107142857142  10.975761217948719 12.625  10.768629807692308 12.669642857142858  C 10.561498397435898 12.714285714285712  10.356570512820515 12.736607142857142  10.153846153846155 12.736607142857142  C 9.951121794871796 12.736607142857142  9.74619391025641 12.714285714285712  9.5390625 12.669642857142858  C 9.33193108974359 12.625  9.115985576923077 12.549107142857142  8.891225961538462 12.441964285714286  C 8.666466346153845 12.334821428571427  8.48798076923077 12.245535714285712  8.35576923076923 12.174107142857142  C 8.223557692307692 12.10267857142857  8.036258012820515 11.99330357142857  7.7938701923076925 11.845982142857142  C 7.551482371794873 11.698660714285714  7.403846153846154 11.607142857142856  7.350961538461538 11.57142857142857  C 6.9014423076923075 11.57142857142857  6.500400641025641 11.671875  6.147836538461538 11.872767857142858  C 5.795272435897437 12.073660714285714  5.513221153846154 12.332589285714285  5.3016826923076925 12.649553571428573  C 5.090144230769231 12.966517857142856  4.916065705128205 13.350446428571427  4.779447115384615 13.801339285714286  C 4.6428285256410255 14.252232142857142  4.550280448717949 14.700892857142856  4.501802884615385 15.147321428571427  C 4.453325320512821 15.593749999999998  4.429086538461538 16.071428571428573  4.429086538461538 16.580357142857142  C 4.429086538461538 17.232142857142854  4.6141826923076925 17.77455357142857  4.984375 18.207589285714285  C 5.3545673076923075 18.640625  5.808493589743589 18.857142857142858  6.346153846153846 18.857142857142858  L 13.96153846153846 18.857142857142858  C 14.499198717948719 18.857142857142858  14.953125 18.640625  15.323317307692308 18.207589285714285  Z M 12.579927884615385 11.075892857142858  C 13.25420673076923 10.397321428571427  13.591346153846155 9.580357142857142  13.591346153846155 8.625  C 13.591346153846155 7.6607142857142865  13.25420673076923 6.839285714285713  12.579927884615385 6.1607142857142865  C 11.90564903846154 5.482142857142855  11.09695512820513 5.142857142857143  10.153846153846155 5.142857142857143  C 9.21073717948718 5.142857142857143  8.40204326923077 5.482142857142855  7.7277644230769225 6.1607142857142865  C 7.0534855769230775 6.839285714285713  6.716346153846154 7.6607142857142865  6.716346153846154 8.625  C 6.716346153846154 9.580357142857142  7.0534855769230775 10.397321428571427  7.7277644230769225 11.075892857142858  C 8.40204326923077 11.754464285714285  9.21073717948718 12.09375  10.153846153846155 12.09375  C 11.09695512820513 12.09375  11.90564903846154 11.754464285714285  12.579927884615385 11.075892857142858  Z M 21.881009615384617 15.549107142857142  C 21.96033653846154 15.629464285714286  22 15.732142857142856  22 15.857142857142858  L 22 18.428571428571427  C 22 18.553571428571427  21.96033653846154 18.65625  21.881009615384617 18.736607142857142  C 21.80168269230769 18.816964285714285  21.700320512820515 18.857142857142858  21.576923076923077 18.857142857142858  L 20.30769230769231 18.857142857142858  L 20.30769230769231 21.857142857142858  C 20.30769230769231 22.44642857142857  20.100560897435898 22.950892857142858  19.686298076923077 23.370535714285715  C 19.27203525641026 23.79017857142857  18.77403846153846 24  18.19230769230769 24  L 2.1153846153846154 24  C 1.5336538461538463 24  1.0356570512820513 23.79017857142857  0.6213942307692307 23.370535714285715  C 0.20713141025641024 22.950892857142858  0 22.44642857142857  0 21.857142857142858  L 0 2.1428571428571432  C 0 1.5535714285714297  0.20713141025641024 1.0491071428571415  0.6213942307692307 0.6294642857142865  C 1.0356570512820513 0.20982142857142883  1.5336538461538463 0  2.1153846153846154 0  L 18.19230769230769 0  C 18.77403846153846 0  19.27203525641026 0.20982142857142883  19.686298076923077 0.6294642857142865  C 20.100560897435898 1.0491071428571415  20.30769230769231 1.5535714285714297  20.30769230769231 2.1428571428571432  L 20.30769230769231 5.142857142857143  L 21.576923076923077 5.142857142857143  C 21.700320512820515 5.142857142857143  21.80168269230769 5.1830357142857135  21.881009615384617 5.263392857142857  C 21.96033653846154 5.34375  22 5.446428571428569  22 5.57142857142857  L 22 8.142857142857142  C 22 8.267857142857142  21.96033653846154 8.370535714285714  21.881009615384617 8.450892857142858  C 21.80168269230769 8.53125  21.700320512820515 8.57142857142857  21.576923076923077 8.57142857142857  L 20.30769230769231 8.57142857142857  L 20.30769230769231 10.285714285714286  L 21.576923076923077 10.285714285714286  C 21.700320512820515 10.285714285714286  21.80168269230769 10.325892857142858  21.881009615384617 10.40625  C 21.96033653846154 10.486607142857142  22 10.589285714285712  22 10.714285714285714  L 22 13.285714285714286  C 22 13.410714285714285  21.96033653846154 13.513392857142858  21.881009615384617 13.59375  C 21.80168269230769 13.674107142857142  21.700320512820515 13.714285714285714  21.576923076923077 13.714285714285714  L 20.30769230769231 13.714285714285714  L 20.30769230769231 15.428571428571427  L 21.576923076923077 15.428571428571427  C 21.700320512820515 15.428571428571427  21.80168269230769 15.46875  21.881009615384617 15.549107142857142  Z " fill-rule="nonzero" fill="#555555" stroke="none" transform="matrix(1 0 0 1 26 84 )" />
  </g>
</svg>