<?xml version="1.0" encoding="utf-8"?>
<svg version="1.1" xmlns:xlink="http://www.w3.org/1999/xlink" width="13px" height="13px" xmlns="http://www.w3.org/2000/svg">
  <defs>
    <pattern id="BGPattern" patternUnits="userSpaceOnUse" alignment="0 0" imageRepeat="None" />
    <mask fill="white" id="Clip2076">
      <path d="M 12.67926162440599 2.016338235294116  C 12.67926162440599 1.8642846784025426  12.610867701804038 1.7184470000132175  12.489099999999999 1.6108529411764696  C 10.967017225287504 0.2676102377634362  8.499317930192664 0.266583413084837  6.9758 1.6085588235294122  L 1.4546999999999997 6.480117647058822  C 0.7232461818470299 7.125518074840854  0.31231970565312167 8.000868903045722  0.31231970565312167 8.913602941176471  C 0.31231970565312167 10.814273183121319  2.0585570591291695 12.355070847953128  4.212649999999999 12.355070847953128  C 5.247081909881512 12.355070847953128  6.239146181847031 11.992488663076147  6.970599999999998 11.347088235294118  L 9.730500000000001 8.910735294117645  C 9.85731667367265 8.802661492566799  9.928937333722828 8.653768736300561  9.928937333722828 8.498202352597504  C 9.928937333722828 8.18145080490043  9.637922421112842 7.9246729408327985  9.278937333722828 7.9246729408327985  C 9.10262876552603 7.9246729408327985  8.933883641757628 7.987867640877075  8.8114 8.099764705882352  L 6.0541 10.533823529411764  C 5.0388 11.428529411764707  3.3995 11.435411764705883  2.3763999999999994 10.533823529411764  C 1.886977695723432 10.104317165833764  1.611799375990925 9.520377189215736  1.611799375990925 8.911308823529408  C 1.611799375990925 8.302240457843082  1.886977695723432 7.718300481225054  2.3764 7.288794117647057  L 7.892299999999998 2.421823529411762  C 8.37902242360706 1.9903327344981288  9.04054194674701 1.7477523649722944  9.7305 1.7477523649722944  C 10.420458053252988 1.7477523649722944  11.081977576392939 1.9903327344981272  11.568699999999998 2.421823529411763  C 11.690692781917592 2.529616469254085  11.856254098980017 2.59018672741705  12.0289 2.59018672741705  C 12.38808480703461 2.59018672741705  12.67926162440599 2.3332660062070083  12.67926162440599 2.016338235294116  Z " fill-rule="evenodd" />
    </mask>
  </defs>
  <g transform="matrix(1 0 0 1 -413 -157 )">
    <path d="M 12.67926162440599 2.016338235294116  C 12.67926162440599 1.8642846784025426  12.610867701804038 1.7184470000132175  12.489099999999999 1.6108529411764696  C 10.967017225287504 0.2676102377634362  8.499317930192664 0.266583413084837  6.9758 1.6085588235294122  L 1.4546999999999997 6.480117647058822  C 0.7232461818470299 7.125518074840854  0.31231970565312167 8.000868903045722  0.31231970565312167 8.913602941176471  C 0.31231970565312167 10.814273183121319  2.0585570591291695 12.355070847953128  4.212649999999999 12.355070847953128  C 5.247081909881512 12.355070847953128  6.239146181847031 11.992488663076147  6.970599999999998 11.347088235294118  L 9.730500000000001 8.910735294117645  C 9.85731667367265 8.802661492566799  9.928937333722828 8.653768736300561  9.928937333722828 8.498202352597504  C 9.928937333722828 8.18145080490043  9.637922421112842 7.9246729408327985  9.278937333722828 7.9246729408327985  C 9.10262876552603 7.9246729408327985  8.933883641757628 7.987867640877075  8.8114 8.099764705882352  L 6.0541 10.533823529411764  C 5.0388 11.428529411764707  3.3995 11.435411764705883  2.3763999999999994 10.533823529411764  C 1.886977695723432 10.104317165833764  1.611799375990925 9.520377189215736  1.611799375990925 8.911308823529408  C 1.611799375990925 8.302240457843082  1.886977695723432 7.718300481225054  2.3764 7.288794117647057  L 7.892299999999998 2.421823529411762  C 8.37902242360706 1.9903327344981288  9.04054194674701 1.7477523649722944  9.7305 1.7477523649722944  C 10.420458053252988 1.7477523649722944  11.081977576392939 1.9903327344981272  11.568699999999998 2.421823529411763  C 11.690692781917592 2.529616469254085  11.856254098980017 2.59018672741705  12.0289 2.59018672741705  C 12.38808480703461 2.59018672741705  12.67926162440599 2.3332660062070083  12.67926162440599 2.016338235294116  Z " fill-rule="nonzero" fill="rgba(102, 102, 102, 1)" stroke="none" transform="matrix(1 0 0 1 413 157 )" class="fill" />
    <path d="M 12.67926162440599 2.016338235294116  C 12.67926162440599 1.8642846784025426  12.610867701804038 1.7184470000132175  12.489099999999999 1.6108529411764696  C 10.967017225287504 0.2676102377634362  8.499317930192664 0.266583413084837  6.9758 1.6085588235294122  L 1.4546999999999997 6.480117647058822  C 0.7232461818470299 7.125518074840854  0.31231970565312167 8.000868903045722  0.31231970565312167 8.913602941176471  C 0.31231970565312167 10.814273183121319  2.0585570591291695 12.355070847953128  4.212649999999999 12.355070847953128  C 5.247081909881512 12.355070847953128  6.239146181847031 11.992488663076147  6.970599999999998 11.347088235294118  L 9.730500000000001 8.910735294117645  C 9.85731667367265 8.802661492566799  9.928937333722828 8.653768736300561  9.928937333722828 8.498202352597504  C 9.928937333722828 8.18145080490043  9.637922421112842 7.9246729408327985  9.278937333722828 7.9246729408327985  C 9.10262876552603 7.9246729408327985  8.933883641757628 7.987867640877075  8.8114 8.099764705882352  L 6.0541 10.533823529411764  C 5.0388 11.428529411764707  3.3995 11.435411764705883  2.3763999999999994 10.533823529411764  C 1.886977695723432 10.104317165833764  1.611799375990925 9.520377189215736  1.611799375990925 8.911308823529408  C 1.611799375990925 8.302240457843082  1.886977695723432 7.718300481225054  2.3764 7.288794117647057  L 7.892299999999998 2.421823529411762  C 8.37902242360706 1.9903327344981288  9.04054194674701 1.7477523649722944  9.7305 1.7477523649722944  C 10.420458053252988 1.7477523649722944  11.081977576392939 1.9903327344981272  11.568699999999998 2.421823529411763  C 11.690692781917592 2.529616469254085  11.856254098980017 2.59018672741705  12.0289 2.59018672741705  C 12.38808480703461 2.59018672741705  12.67926162440599 2.3332660062070083  12.67926162440599 2.016338235294116  Z " stroke-width="0" stroke-dasharray="0" stroke="rgba(255, 255, 255, 0)" fill="none" transform="matrix(1 0 0 1 413 157 )" class="stroke" mask="url(#Clip2076)" />
  </g>
</svg>