<?xml version="1.0" encoding="utf-8"?>
<svg version="1.1" xmlns:xlink="http://www.w3.org/1999/xlink" width="17px" height="17px" xmlns="http://www.w3.org/2000/svg">
  <defs>
    <pattern id="BGPattern" patternUnits="userSpaceOnUse" alignment="0 0" imageRepeat="None" />
    <mask fill="white" id="Clip2071">
      <path d="M 9.972388888888954 2.6239095238095613  L 9.972388888888954 0.28333333333323024  L 0.40134166666663984 0.28333333333323024  L 0.40134166666663984 2.6239095238095613  L 9.972388888888954 2.6239095238095613  Z M 15.448797222222284 7.307409523809593  L 15.448797222222284 5  L 0.3944944444445173 5  L 0.3944944444445173 7.307409523809593  L 15.448797222222284 7.307409523809593  Z M 16.818241666666744 14.374916666666676  L 0.3862777777777228 14.374916666666676  L 0.3862777777777228 16.71784047619053  L 16.818241666666744 16.71784047619053  L 16.818241666666744 14.374916666666676  Z M 0.40134166666663984 12.031992857142823  L 9.972388888888954 12.031992857142823  L 9.972388888888954 9.691416666666647  L 0.40134166666663984 9.691416666666647  L 0.40134166666663984 12.031992857142823  Z " fill-rule="evenodd" />
    </mask>
  </defs>
  <g transform="matrix(1 0 0 1 -273 -152 )">
    <path d="M 9.972388888888954 2.6239095238095613  L 9.972388888888954 0.28333333333323024  L 0.40134166666663984 0.28333333333323024  L 0.40134166666663984 2.6239095238095613  L 9.972388888888954 2.6239095238095613  Z M 15.448797222222284 7.307409523809593  L 15.448797222222284 5  L 0.3944944444445173 5  L 0.3944944444445173 7.307409523809593  L 15.448797222222284 7.307409523809593  Z M 16.818241666666744 14.374916666666676  L 0.3862777777777228 14.374916666666676  L 0.3862777777777228 16.71784047619053  L 16.818241666666744 16.71784047619053  L 16.818241666666744 14.374916666666676  Z M 0.40134166666663984 12.031992857142823  L 9.972388888888954 12.031992857142823  L 9.972388888888954 9.691416666666647  L 0.40134166666663984 9.691416666666647  L 0.40134166666663984 12.031992857142823  Z " fill-rule="nonzero" fill="rgba(102, 102, 102, 1)" stroke="none" transform="matrix(1 0 0 1 273 152 )" class="fill" />
    <path d="M 9.972388888888954 2.6239095238095613  L 9.972388888888954 0.28333333333323024  L 0.40134166666663984 0.28333333333323024  L 0.40134166666663984 2.6239095238095613  L 9.972388888888954 2.6239095238095613  Z " stroke-width="0" stroke-dasharray="0" stroke="rgba(255, 255, 255, 0)" fill="none" transform="matrix(1 0 0 1 273 152 )" class="stroke" mask="url(#Clip2071)" />
    <path d="M 15.448797222222284 7.307409523809593  L 15.448797222222284 5  L 0.3944944444445173 5  L 0.3944944444445173 7.307409523809593  L 15.448797222222284 7.307409523809593  Z " stroke-width="0" stroke-dasharray="0" stroke="rgba(255, 255, 255, 0)" fill="none" transform="matrix(1 0 0 1 273 152 )" class="stroke" mask="url(#Clip2071)" />
    <path d="M 16.818241666666744 14.374916666666676  L 0.3862777777777228 14.374916666666676  L 0.3862777777777228 16.71784047619053  L 16.818241666666744 16.71784047619053  L 16.818241666666744 14.374916666666676  Z " stroke-width="0" stroke-dasharray="0" stroke="rgba(255, 255, 255, 0)" fill="none" transform="matrix(1 0 0 1 273 152 )" class="stroke" mask="url(#Clip2071)" />
    <path d="M 0.40134166666663984 12.031992857142823  L 9.972388888888954 12.031992857142823  L 9.972388888888954 9.691416666666647  L 0.40134166666663984 9.691416666666647  L 0.40134166666663984 12.031992857142823  Z " stroke-width="0" stroke-dasharray="0" stroke="rgba(255, 255, 255, 0)" fill="none" transform="matrix(1 0 0 1 273 152 )" class="stroke" mask="url(#Clip2071)" />
  </g>
</svg>