<?xml version="1.0" encoding="utf-8"?>
<svg version="1.1" xmlns:xlink="http://www.w3.org/1999/xlink" width="21px" height="18px" xmlns="http://www.w3.org/2000/svg">
  <defs>
    <pattern id="BGPattern" patternUnits="userSpaceOnUse" alignment="0 0" imageRepeat="None" />
    <mask fill="white" id="Clip2074">
      <path d="M 4.792270220588235 10.265987890624999  L 6.949016544117646 3.5665900390624996  L 9.111022518382354 10.265987890624999  L 4.79224609375 10.265987890624999  Z M 8.89221622242647 0.9965386718749996  L 5.6054170496323525 0.9965386718749996  L 0.6874023437500005 16.003461328125  L 2.9661822150735295 16.003461328125  L 4.12969898897059 12.4319041015625  L 9.827372472426472 12.4319041015625  L 11.009925321691176 16.003461328125  L 13.86403377757353 16.003461328125  L 8.892240349264707 0.9964921875000001  Z M 14.058471966911764 12.526058203125  L 15.30966567095588 9.325027929687499  L 16.56136603860294 12.526058203125  L 14.05844784007353 12.526058203125  Z M 16.43498965992647 7.8346923828125  L 14.530947840073527 7.8346923828125  L 13.00174057904412 11.809919921874998  L 13.664432444852942 13.813024609374999  L 13.673962545955883 13.784111328124997  L 16.975141314338234 13.784111328124997  L 17.66193589154412 15.850481249999998  L 19.312501148897056 15.850481249999998  L 16.434989659926472 7.834715624999999  Z " fill-rule="evenodd" />
    </mask>
  </defs>
  <g transform="matrix(1 0 0 1 -377 -152 )">
    <path d="M 4.792270220588235 10.265987890624999  L 6.949016544117646 3.5665900390624996  L 9.111022518382354 10.265987890624999  L 4.79224609375 10.265987890624999  Z M 8.89221622242647 0.9965386718749996  L 5.6054170496323525 0.9965386718749996  L 0.6874023437500005 16.003461328125  L 2.9661822150735295 16.003461328125  L 4.12969898897059 12.4319041015625  L 9.827372472426472 12.4319041015625  L 11.009925321691176 16.003461328125  L 13.86403377757353 16.003461328125  L 8.892240349264707 0.9964921875000001  Z M 14.058471966911764 12.526058203125  L 15.30966567095588 9.325027929687499  L 16.56136603860294 12.526058203125  L 14.05844784007353 12.526058203125  Z M 16.43498965992647 7.8346923828125  L 14.530947840073527 7.8346923828125  L 13.00174057904412 11.809919921874998  L 13.664432444852942 13.813024609374999  L 13.673962545955883 13.784111328124997  L 16.975141314338234 13.784111328124997  L 17.66193589154412 15.850481249999998  L 19.312501148897056 15.850481249999998  L 16.434989659926472 7.834715624999999  Z " fill-rule="nonzero" fill="rgba(102, 102, 102, 1)" stroke="none" transform="matrix(1 0 0 1 377 152 )" class="fill" />
    <path d="M 4.792270220588235 10.265987890624999  L 6.949016544117646 3.5665900390624996  L 9.111022518382354 10.265987890624999  L 4.79224609375 10.265987890624999  Z " stroke-width="0" stroke-dasharray="0" stroke="rgba(255, 255, 255, 0)" fill="none" transform="matrix(1 0 0 1 377 152 )" class="stroke" mask="url(#Clip2074)" />
    <path d="M 8.89221622242647 0.9965386718749996  L 5.6054170496323525 0.9965386718749996  L 0.6874023437500005 16.003461328125  L 2.9661822150735295 16.003461328125  L 4.12969898897059 12.4319041015625  L 9.827372472426472 12.4319041015625  L 11.009925321691176 16.003461328125  L 13.86403377757353 16.003461328125  L 8.892240349264707 0.9964921875000001  Z " stroke-width="0" stroke-dasharray="0" stroke="rgba(255, 255, 255, 0)" fill="none" transform="matrix(1 0 0 1 377 152 )" class="stroke" mask="url(#Clip2074)" />
    <path d="M 14.058471966911764 12.526058203125  L 15.30966567095588 9.325027929687499  L 16.56136603860294 12.526058203125  L 14.05844784007353 12.526058203125  Z " stroke-width="0" stroke-dasharray="0" stroke="rgba(255, 255, 255, 0)" fill="none" transform="matrix(1 0 0 1 377 152 )" class="stroke" mask="url(#Clip2074)" />
    <path d="M 16.43498965992647 7.8346923828125  L 14.530947840073527 7.8346923828125  L 13.00174057904412 11.809919921874998  L 13.664432444852942 13.813024609374999  L 13.673962545955883 13.784111328124997  L 16.975141314338234 13.784111328124997  L 17.66193589154412 15.850481249999998  L 19.312501148897056 15.850481249999998  L 16.434989659926472 7.834715624999999  Z " stroke-width="0" stroke-dasharray="0" stroke="rgba(255, 255, 255, 0)" fill="none" transform="matrix(1 0 0 1 377 152 )" class="stroke" mask="url(#Clip2074)" />
  </g>
</svg>