<?xml version="1.0" encoding="utf-8"?>
<svg version="1.1" xmlns:xlink="http://www.w3.org/1999/xlink" width="74px" height="30px" xmlns="http://www.w3.org/2000/svg">
  <g transform="matrix(1 0 0 1 -730 -408 )">
    <path d="M 731 411  A 2 2 0 0 1 733 409 L 801 409  A 2 2 0 0 1 803 411 L 803 435  A 2 2 0 0 1 801 437 L 733 437  A 2 2 0 0 1 731 435 L 731 411  Z " fill-rule="nonzero" fill="#ffffff" stroke="none" />
    <path d="M 730.5 411  A 2.5 2.5 0 0 1 733 408.5 L 801 408.5  A 2.5 2.5 0 0 1 803.5 411 L 803.5 435  A 2.5 2.5 0 0 1 801 437.5 L 733 437.5  A 2.5 2.5 0 0 1 730.5 435 L 730.5 411  Z " stroke-width="1" stroke="#aaaaaa" fill="none" stroke-opacity="0.9921568627450981" />
  </g>
</svg>