<?xml version="1.0" encoding="utf-8"?>
<svg version="1.1" xmlns:xlink="http://www.w3.org/1999/xlink" width="20px" height="17px" xmlns="http://www.w3.org/2000/svg">
  <defs>
    <pattern id="BGPattern" patternUnits="userSpaceOnUse" alignment="0 0" imageRepeat="None" />
    <mask fill="white" id="Clip1369">
      <path d="M 19.09707261029412 1.3145847656249994  C 19.09707261029412 0.8970853515625001  18.743204273897057 0.5561921875  18.305832950367645 0.5561921875  L 7.272485064338237 0.5561921875  C 6.835113740808824 0.5561921875  6.48522633272059 0.8970853515625001  6.48522633272059 1.3145847656249994  L 6.48522633272059 2.0729773437500003  C 6.48522633272059 2.4942884765625006  6.839094669117647 2.831369921875  7.272485064338237 3  L 18.309813878676472 3  C 18.747161075367647 2.831369921875  19.09707261029412 2.4904767578125  19.09707261029412 2.0729773437500003  L 19.09707261029412 1.3145847656249994  Z M 19.093091681985296 5.872493945312501  C 19.097048483455882 5.451182812500001  18.743204273897064 5.114101367187501  18.305832950367645 5.114101367187501  L 3.3283019301470587 5.114101367187501  C 2.8909547334558816 5.114101367187501  2.5410431985294117 5.45499453125  2.5410431985294117 5.872493945312501  L 2.5410431985294117 6.630886523437502  C 2.5410431985294117 7.05219765625  2.8949115349264702 7.389279101562501  3.3283019301470587 7.389279101562501  L 18.30583295036765 7.389279101562501  C 18.743204273897064 7.389279101562501  19.093091681985296 7.048385937500001  19.093091681985296 6.630886523437502  L 19.093091681985296 5.872493945312501  Z M 18.305832950367645 9.668222070312503  L 8.059719669117648 9.668222070312503  C 7.626329273897056 9.668222070312503  7.272460937499998 10.009115234375  7.272460937499998 10.4266146484375  L 7.272460937499998 11.185007226562501  C 7.272460937499998 11.602506640625  7.626329273897056 11.943399804687498  8.059719669117648 12  L 18.309789751838235 12  C 18.743180147058823 11.943399804687498  19.097048483455882 11.602506640625  19.097048483455882 11.185007226562501  L 19.097048483455882 10.4266146484375  C 19.097048483455882 10.009115234375  18.743180147058823 9.668222070312503  18.30580882352941 9.668222070312503  Z M 18.30580882352941 14.22613125  L 18.305832950367645 14  L 1.7538085937499996 14  C 1.3204181985294121 14.22613125  0.9665498621323533 14.567024414062503  0.9665498621323533 14.984523828125003  L 0.9665498621323533 15.742916406250004  C 0.9665498621323533 16.1604158203125  1.3204181985294121 16.501308984375  1.7538085937499996 16.501308984375  L 18.309789751838235 16.501308984375  C 18.743180147058823 16.501308984375  19.097048483455882 16.1604158203125  19.097048483455882 15.742916406250004  L 19.097048483455882 14.984523828125003  C 19.097048483455882 14.567024414062503  18.743180147058823 14.22613125  18.30580882352941 14.22613125  Z " fill-rule="evenodd" />
    </mask>
  </defs>
  <g transform="matrix(1 0 0 1 -341 -152 )">
    <path d="M 19.09707261029412 1.3145847656249994  C 19.09707261029412 0.8970853515625001  18.743204273897057 0.5561921875  18.305832950367645 0.5561921875  L 7.272485064338237 0.5561921875  C 6.835113740808824 0.5561921875  6.48522633272059 0.8970853515625001  6.48522633272059 1.3145847656249994  L 6.48522633272059 2.0729773437500003  C 6.48522633272059 2.4942884765625006  6.839094669117647 2.831369921875  7.272485064338237 3  L 18.309813878676472 3  C 18.747161075367647 2.831369921875  19.09707261029412 2.4904767578125  19.09707261029412 2.0729773437500003  L 19.09707261029412 1.3145847656249994  Z M 19.093091681985296 5.872493945312501  C 19.097048483455882 5.451182812500001  18.743204273897064 5.114101367187501  18.305832950367645 5.114101367187501  L 3.3283019301470587 5.114101367187501  C 2.8909547334558816 5.114101367187501  2.5410431985294117 5.45499453125  2.5410431985294117 5.872493945312501  L 2.5410431985294117 6.630886523437502  C 2.5410431985294117 7.05219765625  2.8949115349264702 7.389279101562501  3.3283019301470587 7.389279101562501  L 18.30583295036765 7.389279101562501  C 18.743204273897064 7.389279101562501  19.093091681985296 7.048385937500001  19.093091681985296 6.630886523437502  L 19.093091681985296 5.872493945312501  Z M 18.305832950367645 9.668222070312503  L 8.059719669117648 9.668222070312503  C 7.626329273897056 9.668222070312503  7.272460937499998 10.009115234375  7.272460937499998 10.4266146484375  L 7.272460937499998 11.185007226562501  C 7.272460937499998 11.602506640625  7.626329273897056 11.943399804687498  8.059719669117648 12  L 18.309789751838235 12  C 18.743180147058823 11.943399804687498  19.097048483455882 11.602506640625  19.097048483455882 11.185007226562501  L 19.097048483455882 10.4266146484375  C 19.097048483455882 10.009115234375  18.743180147058823 9.668222070312503  18.30580882352941 9.668222070312503  Z M 18.30580882352941 14.22613125  L 18.305832950367645 14  L 1.7538085937499996 14  C 1.3204181985294121 14.22613125  0.9665498621323533 14.567024414062503  0.9665498621323533 14.984523828125003  L 0.9665498621323533 15.742916406250004  C 0.9665498621323533 16.1604158203125  1.3204181985294121 16.501308984375  1.7538085937499996 16.501308984375  L 18.309789751838235 16.501308984375  C 18.743180147058823 16.501308984375  19.097048483455882 16.1604158203125  19.097048483455882 15.742916406250004  L 19.097048483455882 14.984523828125003  C 19.097048483455882 14.567024414062503  18.743180147058823 14.22613125  18.30580882352941 14.22613125  Z " fill-rule="nonzero" fill="rgba(102, 102, 102, 1)" stroke="none" transform="matrix(1 0 0 1 341 152 )" class="fill" />
    <path d="M 19.09707261029412 1.3145847656249994  C 19.09707261029412 0.8970853515625001  18.743204273897057 0.5561921875  18.305832950367645 0.5561921875  L 7.272485064338237 0.5561921875  C 6.835113740808824 0.5561921875  6.48522633272059 0.8970853515625001  6.48522633272059 1.3145847656249994  L 6.48522633272059 2.0729773437500003  C 6.48522633272059 2.4942884765625006  6.839094669117647 2.831369921875  7.272485064338237 3  L 18.309813878676472 3  C 18.747161075367647 2.831369921875  19.09707261029412 2.4904767578125  19.09707261029412 2.0729773437500003  L 19.09707261029412 1.3145847656249994  Z " stroke-width="0" stroke-dasharray="0" stroke="rgba(255, 255, 255, 0)" fill="none" transform="matrix(1 0 0 1 341 152 )" class="stroke" mask="url(#Clip1369)" />
    <path d="M 19.093091681985296 5.872493945312501  C 19.097048483455882 5.451182812500001  18.743204273897064 5.114101367187501  18.305832950367645 5.114101367187501  L 3.3283019301470587 5.114101367187501  C 2.8909547334558816 5.114101367187501  2.5410431985294117 5.45499453125  2.5410431985294117 5.872493945312501  L 2.5410431985294117 6.630886523437502  C 2.5410431985294117 7.05219765625  2.8949115349264702 7.389279101562501  3.3283019301470587 7.389279101562501  L 18.30583295036765 7.389279101562501  C 18.743204273897064 7.389279101562501  19.093091681985296 7.048385937500001  19.093091681985296 6.630886523437502  L 19.093091681985296 5.872493945312501  Z " stroke-width="0" stroke-dasharray="0" stroke="rgba(255, 255, 255, 0)" fill="none" transform="matrix(1 0 0 1 341 152 )" class="stroke" mask="url(#Clip1369)" />
    <path d="M 18.305832950367645 9.668222070312503  L 8.059719669117648 9.668222070312503  C 7.626329273897056 9.668222070312503  7.272460937499998 10.009115234375  7.272460937499998 10.4266146484375  L 7.272460937499998 11.185007226562501  C 7.272460937499998 11.602506640625  7.626329273897056 11.943399804687498  8.059719669117648 12  L 18.309789751838235 12  C 18.743180147058823 11.943399804687498  19.097048483455882 11.602506640625  19.097048483455882 11.185007226562501  L 19.097048483455882 10.4266146484375  C 19.097048483455882 10.009115234375  18.743180147058823 9.668222070312503  18.30580882352941 9.668222070312503  Z " stroke-width="0" stroke-dasharray="0" stroke="rgba(255, 255, 255, 0)" fill="none" transform="matrix(1 0 0 1 341 152 )" class="stroke" mask="url(#Clip1369)" />
    <path d="M 18.30580882352941 14.22613125  L 18.305832950367645 14  L 1.7538085937499996 14  C 1.3204181985294121 14.22613125  0.9665498621323533 14.567024414062503  0.9665498621323533 14.984523828125003  L 0.9665498621323533 15.742916406250004  C 0.9665498621323533 16.1604158203125  1.3204181985294121 16.501308984375  1.7538085937499996 16.501308984375  L 18.309789751838235 16.501308984375  C 18.743180147058823 16.501308984375  19.097048483455882 16.1604158203125  19.097048483455882 15.742916406250004  L 19.097048483455882 14.984523828125003  C 19.097048483455882 14.567024414062503  18.743180147058823 14.22613125  18.30580882352941 14.22613125  Z " stroke-width="0" stroke-dasharray="0" stroke="rgba(255, 255, 255, 0)" fill="none" transform="matrix(1 0 0 1 341 152 )" class="stroke" mask="url(#Clip1369)" />
  </g>
</svg>