<?xml version="1.0" encoding="utf-8"?>
<svg version="1.1" xmlns:xlink="http://www.w3.org/1999/xlink" width="13px" height="13px" xmlns="http://www.w3.org/2000/svg">
  <defs>
    <pattern id="BGPattern" patternUnits="userSpaceOnUse" alignment="0 0" imageRepeat="None" />
    <mask fill="white" id="Clip541">
      <path d="M 0.9002500000000004 11.708531250000002  L 0.899031249999999 11.70853125  C 2.3258441928255515 13.13491503439117  4.638373297323317 13.136005850006498  6.06653125 11.71096875  L 11.242562499999996 6.5349375  C 11.928300454518407 5.849199545481589  12.313544025950197 4.91913929051392  12.313544025950197 3.9493593749999993  C 12.313544025950197 1.9298972429335972  10.676446507066398 0.2927997240498024  8.656984375 0.2927997240498024  C 7.687204459486078 0.2927997240498024  6.757144204518408 0.6780432954815906  6.07140625 1.3637812499999997  L 3.4852187500000005 3.9524062499999997  C 3.3754892600755273 4.066017575694855  3.3141600003651503 4.217796592195438  3.3141600003651503 4.375746249634849  C 3.3141600003651503 4.712294769062989  3.5869864809370116 4.985121249634848  3.9235350003651503 4.985121249634848  C 4.08148465780456 4.985121249634848  4.233263674305146 4.923791989924471  4.346875000000001 4.8140624999999995  L 6.933062499999998 2.2278749999999996  C 7.389364772131618 1.7694160304042645  8.00953932507532 1.5116743877830652  8.656374999999997 1.5116743877830652  C 9.303210674924674 1.5116743877830652  9.92338522786838 1.7694160304042634  10.3796875 2.2278749999999996  C 10.838520910259277 2.6842255113016216  11.096500585008503 3.304661736458277  11.096500585008503 3.9517968749999994  C 11.096500585008503 4.598932013541721  10.838520910259277 5.219368238698377  10.3796875 5.67571875  L 5.208531249999999 10.846875  C 4.2579062500000004 11.7975  2.7210624999999986 11.8048125  1.76190625 10.846875  C 1.6470778358522247 10.727984368431894  1.4888792823193495 10.66083999963485  1.32358999963485 10.66083999963485  C 0.9870414802067096 10.66083999963485  0.7142149996348499 10.93366648020671  0.7142149996348499 11.27021499963485  C 0.7142149996348499 11.435504282319352  0.7813593684318936 11.593702835852225  0.9002500000000004 11.708531250000002  Z " fill-rule="evenodd" />
    </mask>
  </defs>
  <g transform="matrix(1 0 0 1 -421 -150 )">
    <path d="M 0.9002500000000004 11.708531250000002  L 0.899031249999999 11.70853125  C 2.3258441928255515 13.13491503439117  4.638373297323317 13.136005850006498  6.06653125 11.71096875  L 11.242562499999996 6.5349375  C 11.928300454518407 5.849199545481589  12.313544025950197 4.91913929051392  12.313544025950197 3.9493593749999993  C 12.313544025950197 1.9298972429335972  10.676446507066398 0.2927997240498024  8.656984375 0.2927997240498024  C 7.687204459486078 0.2927997240498024  6.757144204518408 0.6780432954815906  6.07140625 1.3637812499999997  L 3.4852187500000005 3.9524062499999997  C 3.3754892600755273 4.066017575694855  3.3141600003651503 4.217796592195438  3.3141600003651503 4.375746249634849  C 3.3141600003651503 4.712294769062989  3.5869864809370116 4.985121249634848  3.9235350003651503 4.985121249634848  C 4.08148465780456 4.985121249634848  4.233263674305146 4.923791989924471  4.346875000000001 4.8140624999999995  L 6.933062499999998 2.2278749999999996  C 7.389364772131618 1.7694160304042645  8.00953932507532 1.5116743877830652  8.656374999999997 1.5116743877830652  C 9.303210674924674 1.5116743877830652  9.92338522786838 1.7694160304042634  10.3796875 2.2278749999999996  C 10.838520910259277 2.6842255113016216  11.096500585008503 3.304661736458277  11.096500585008503 3.9517968749999994  C 11.096500585008503 4.598932013541721  10.838520910259277 5.219368238698377  10.3796875 5.67571875  L 5.208531249999999 10.846875  C 4.2579062500000004 11.7975  2.7210624999999986 11.8048125  1.76190625 10.846875  C 1.6470778358522247 10.727984368431894  1.4888792823193495 10.66083999963485  1.32358999963485 10.66083999963485  C 0.9870414802067096 10.66083999963485  0.7142149996348499 10.93366648020671  0.7142149996348499 11.27021499963485  C 0.7142149996348499 11.435504282319352  0.7813593684318936 11.593702835852225  0.9002500000000004 11.708531250000002  Z " fill-rule="nonzero" fill="rgba(102, 102, 102, 1)" stroke="none" transform="matrix(1 0 0 1 421 150 )" class="fill" />
    <path d="M 0.9002500000000004 11.708531250000002  L 0.899031249999999 11.70853125  C 2.3258441928255515 13.13491503439117  4.638373297323317 13.136005850006498  6.06653125 11.71096875  L 11.242562499999996 6.5349375  C 11.928300454518407 5.849199545481589  12.313544025950197 4.91913929051392  12.313544025950197 3.9493593749999993  C 12.313544025950197 1.9298972429335972  10.676446507066398 0.2927997240498024  8.656984375 0.2927997240498024  C 7.687204459486078 0.2927997240498024  6.757144204518408 0.6780432954815906  6.07140625 1.3637812499999997  L 3.4852187500000005 3.9524062499999997  C 3.3754892600755273 4.066017575694855  3.3141600003651503 4.217796592195438  3.3141600003651503 4.375746249634849  C 3.3141600003651503 4.712294769062989  3.5869864809370116 4.985121249634848  3.9235350003651503 4.985121249634848  C 4.08148465780456 4.985121249634848  4.233263674305146 4.923791989924471  4.346875000000001 4.8140624999999995  L 6.933062499999998 2.2278749999999996  C 7.389364772131618 1.7694160304042645  8.00953932507532 1.5116743877830652  8.656374999999997 1.5116743877830652  C 9.303210674924674 1.5116743877830652  9.92338522786838 1.7694160304042634  10.3796875 2.2278749999999996  C 10.838520910259277 2.6842255113016216  11.096500585008503 3.304661736458277  11.096500585008503 3.9517968749999994  C 11.096500585008503 4.598932013541721  10.838520910259277 5.219368238698377  10.3796875 5.67571875  L 5.208531249999999 10.846875  C 4.2579062500000004 11.7975  2.7210624999999986 11.8048125  1.76190625 10.846875  C 1.6470778358522247 10.727984368431894  1.4888792823193495 10.66083999963485  1.32358999963485 10.66083999963485  C 0.9870414802067096 10.66083999963485  0.7142149996348499 10.93366648020671  0.7142149996348499 11.27021499963485  C 0.7142149996348499 11.435504282319352  0.7813593684318936 11.593702835852225  0.9002500000000004 11.708531250000002  Z " stroke-width="0" stroke-dasharray="0" stroke="rgba(255, 255, 255, 0)" fill="none" transform="matrix(1 0 0 1 421 150 )" class="stroke" mask="url(#Clip541)" />
  </g>
</svg>