<?xml version="1.0" encoding="utf-8"?>
<svg version="1.1" xmlns:xlink="http://www.w3.org/1999/xlink" width="12px" height="14px" xmlns="http://www.w3.org/2000/svg">
  <defs>
    <pattern id="BGPattern" patternUnits="userSpaceOnUse" alignment="0 0" imageRepeat="None" />
    <mask fill="white" id="Clip1377">
      <path d="M 0.4243200000000002 5.4740329411764685  C 1.3612799999999994 2.823981176470589  3.884928000000002 1.2396423529411758  6.488448 1.4436141176470572  L 6.488448 0.5470870588235294  C 6.488448 0.19606588235294123  6.867840000000001 -0.01264941176470683  7.151999999999998 0.1818352941176475  L 9.712511999999998 1.9385223529411755  C 9.965951999999998 2.1124517647058827  9.965951999999998 2.4950964705882352  9.712511999999998 2.6690258823529422  L 7.151999999999998 4.427294117647057  C 6.867840000000001 4.621778823529412  6.488448 4.4130635294117635  6.488448 4.062042352941175  L 6.488448 2.472960000000001  C 4.291968 2.2658258823529396  2.150783999999999 3.5908517647058833  1.3597440000000005 5.825054117647056  C 0.4197119999999984 8.483011764705878  1.751424 11.424  4.334976 12.391679999999996  C 6.918528000000004 13.359359999999993  9.775488000000001 11.98848  10.715520000000003 9.328941176470586  C 10.810752 9.060141176470585  10.884480000000002 8.783435294117645  10.935167999999997 8.500404705882353  L 10.944384000000003 8.452969411764705  C 10.948991999999999 8.41185882352941  10.958208 8.372329411764703  10.972032000000002 8.334381176470588  C 11.065728 8.068743529411762  11.351423999999998 7.931181176470586  11.609472 8.027632941176467  C 11.867520000000003 8.12408470588235  12.001152000000001 8.418183529411763  11.907456000000002 8.68382117647059  C 11.853696000000001 9.01903058823529  11.76768 9.351077647058819  11.650943999999999 9.678381176470587  C 10.521983999999998 12.869195294117647  7.095168000000001 14.5152  3.995519999999999 13.353035294117644  C 0.8943360000000014 12.194032941176472  -0.703103999999999 8.66484705882353  0.4243200000000002 5.4740329411764685  Z " fill-rule="evenodd" />
    </mask>
  </defs>
  <g transform="matrix(1 0 0 1 -741 -416 )">
    <path d="M 0.4243200000000002 5.4740329411764685  C 1.3612799999999994 2.823981176470589  3.884928000000002 1.2396423529411758  6.488448 1.4436141176470572  L 6.488448 0.5470870588235294  C 6.488448 0.19606588235294123  6.867840000000001 -0.01264941176470683  7.151999999999998 0.1818352941176475  L 9.712511999999998 1.9385223529411755  C 9.965951999999998 2.1124517647058827  9.965951999999998 2.4950964705882352  9.712511999999998 2.6690258823529422  L 7.151999999999998 4.427294117647057  C 6.867840000000001 4.621778823529412  6.488448 4.4130635294117635  6.488448 4.062042352941175  L 6.488448 2.472960000000001  C 4.291968 2.2658258823529396  2.150783999999999 3.5908517647058833  1.3597440000000005 5.825054117647056  C 0.4197119999999984 8.483011764705878  1.751424 11.424  4.334976 12.391679999999996  C 6.918528000000004 13.359359999999993  9.775488000000001 11.98848  10.715520000000003 9.328941176470586  C 10.810752 9.060141176470585  10.884480000000002 8.783435294117645  10.935167999999997 8.500404705882353  L 10.944384000000003 8.452969411764705  C 10.948991999999999 8.41185882352941  10.958208 8.372329411764703  10.972032000000002 8.334381176470588  C 11.065728 8.068743529411762  11.351423999999998 7.931181176470586  11.609472 8.027632941176467  C 11.867520000000003 8.12408470588235  12.001152000000001 8.418183529411763  11.907456000000002 8.68382117647059  C 11.853696000000001 9.01903058823529  11.76768 9.351077647058819  11.650943999999999 9.678381176470587  C 10.521983999999998 12.869195294117647  7.095168000000001 14.5152  3.995519999999999 13.353035294117644  C 0.8943360000000014 12.194032941176472  -0.703103999999999 8.66484705882353  0.4243200000000002 5.4740329411764685  Z " fill-rule="nonzero" fill="rgba(170, 170, 170, 0.9921568627450981)" stroke="none" transform="matrix(1 0 0 1 741 416 )" class="fill" />
    <path d="M 0.4243200000000002 5.4740329411764685  C 1.3612799999999994 2.823981176470589  3.884928000000002 1.2396423529411758  6.488448 1.4436141176470572  L 6.488448 0.5470870588235294  C 6.488448 0.19606588235294123  6.867840000000001 -0.01264941176470683  7.151999999999998 0.1818352941176475  L 9.712511999999998 1.9385223529411755  C 9.965951999999998 2.1124517647058827  9.965951999999998 2.4950964705882352  9.712511999999998 2.6690258823529422  L 7.151999999999998 4.427294117647057  C 6.867840000000001 4.621778823529412  6.488448 4.4130635294117635  6.488448 4.062042352941175  L 6.488448 2.472960000000001  C 4.291968 2.2658258823529396  2.150783999999999 3.5908517647058833  1.3597440000000005 5.825054117647056  C 0.4197119999999984 8.483011764705878  1.751424 11.424  4.334976 12.391679999999996  C 6.918528000000004 13.359359999999993  9.775488000000001 11.98848  10.715520000000003 9.328941176470586  C 10.810752 9.060141176470585  10.884480000000002 8.783435294117645  10.935167999999997 8.500404705882353  L 10.944384000000003 8.452969411764705  C 10.948991999999999 8.41185882352941  10.958208 8.372329411764703  10.972032000000002 8.334381176470588  C 11.065728 8.068743529411762  11.351423999999998 7.931181176470586  11.609472 8.027632941176467  C 11.867520000000003 8.12408470588235  12.001152000000001 8.418183529411763  11.907456000000002 8.68382117647059  C 11.853696000000001 9.01903058823529  11.76768 9.351077647058819  11.650943999999999 9.678381176470587  C 10.521983999999998 12.869195294117647  7.095168000000001 14.5152  3.995519999999999 13.353035294117644  C 0.8943360000000014 12.194032941176472  -0.703103999999999 8.66484705882353  0.4243200000000002 5.4740329411764685  Z " stroke-width="0" stroke-dasharray="0" stroke="rgba(240, 246, 255, 1)" fill="none" transform="matrix(1 0 0 1 741 416 )" class="stroke" mask="url(#Clip1377)" />
  </g>
</svg>