<?xml version="1.0" encoding="utf-8"?>
<svg version="1.1" xmlns:xlink="http://www.w3.org/1999/xlink" width="20px" height="17px" xmlns="http://www.w3.org/2000/svg">
  <defs>
    <pattern id="BGPattern" patternUnits="userSpaceOnUse" alignment="0 0" imageRepeat="None" />
    <mask fill="white" id="Clip538">
      <path d="M 1.019736842105263 2.59375  L 1.019736842105263 0.625  L 18.980263157894736 0.625  L 18.980263157894736 2.59375  L 1.019736842105263 2.59375  Z M 1.019736842105263 11.78125  L 1.019736842105263 9.8125  L 18.980263157894736 9.8125  L 18.980263157894736 11.78125  L 1.019736842105263 11.78125  Z M 3.7828947368421053 7.1875  L 3.7828947368421053 5.21875  L 16.217105263157894 5.21875  L 16.217105263157894 7.1875  L 3.7828947368421053 7.1875  Z M 3.7828947368421053 16.375  L 3.7828947368421053 14.40625  L 16.217105263157894 14.40625  L 16.217105263157894 16.375  L 3.7828947368421053 16.375  Z " fill-rule="evenodd" />
    </mask>
  </defs>
  <g transform="matrix(1 0 0 1 -305 -152 )">
    <path d="M 1.019736842105263 2.59375  L 1.019736842105263 0.625  L 18.980263157894736 0.625  L 18.980263157894736 2.59375  L 1.019736842105263 2.59375  Z M 1.019736842105263 11.78125  L 1.019736842105263 9.8125  L 18.980263157894736 9.8125  L 18.980263157894736 11.78125  L 1.019736842105263 11.78125  Z M 3.7828947368421053 7.1875  L 3.7828947368421053 5.21875  L 16.217105263157894 5.21875  L 16.217105263157894 7.1875  L 3.7828947368421053 7.1875  Z M 3.7828947368421053 16.375  L 3.7828947368421053 14.40625  L 16.217105263157894 14.40625  L 16.217105263157894 16.375  L 3.7828947368421053 16.375  Z " fill-rule="nonzero" fill="rgba(102, 102, 102, 1)" stroke="none" transform="matrix(1 0 0 1 305 152 )" class="fill" />
    <path d="M 1.019736842105263 2.59375  L 1.019736842105263 0.625  L 18.980263157894736 0.625  L 18.980263157894736 2.59375  L 1.019736842105263 2.59375  Z " stroke-width="0" stroke-dasharray="0" stroke="rgba(255, 255, 255, 0)" fill="none" transform="matrix(1 0 0 1 305 152 )" class="stroke" mask="url(#Clip538)" />
    <path d="M 1.019736842105263 11.78125  L 1.019736842105263 9.8125  L 18.980263157894736 9.8125  L 18.980263157894736 11.78125  L 1.019736842105263 11.78125  Z " stroke-width="0" stroke-dasharray="0" stroke="rgba(255, 255, 255, 0)" fill="none" transform="matrix(1 0 0 1 305 152 )" class="stroke" mask="url(#Clip538)" />
    <path d="M 3.7828947368421053 7.1875  L 3.7828947368421053 5.21875  L 16.217105263157894 5.21875  L 16.217105263157894 7.1875  L 3.7828947368421053 7.1875  Z " stroke-width="0" stroke-dasharray="0" stroke="rgba(255, 255, 255, 0)" fill="none" transform="matrix(1 0 0 1 305 152 )" class="stroke" mask="url(#Clip538)" />
    <path d="M 3.7828947368421053 16.375  L 3.7828947368421053 14.40625  L 16.217105263157894 14.40625  L 16.217105263157894 16.375  L 3.7828947368421053 16.375  Z " stroke-width="0" stroke-dasharray="0" stroke="rgba(255, 255, 255, 0)" fill="none" transform="matrix(1 0 0 1 305 152 )" class="stroke" mask="url(#Clip538)" />
  </g>
</svg>