<?xml version="1.0" encoding="utf-8"?>
<svg version="1.1" xmlns:xlink="http://www.w3.org/1999/xlink" width="6px" height="6px" xmlns="http://www.w3.org/2000/svg">
  <defs>
    <pattern id="BGPattern" patternUnits="userSpaceOnUse" alignment="0 0" imageRepeat="None" />
    <mask fill="white" id="Clip1066">
      <path d="M 2.9402665122918314 0.9067952291831887  C 2.9402665122918314 0.9067952291831887  5.35866394924663 0.8827614655035685  5.35866394924663 3.2771252720063444  C 5.35866394924663 3.2771252720063444  5.582478413957173 5.594881459159398  2.9402665122918314 5.645953192704203  C 2.9402665122918314 5.645953192704203  0.5729406375892125 5.697024945281523  0.5969743822363203 3.2771252720063444  C 0.5969743822363203 3.2756231689135618  0.571438458366373 1.1306096748612218  2.9402665122918314 0.9067952291831887  Z " fill-rule="evenodd" />
    </mask>
  </defs>
  <g transform="matrix(1 0 0 1 -460 -156 )">
    <path d="M 2.9402665122918314 0.9067952291831887  C 2.9402665122918314 0.9067952291831887  5.35866394924663 0.8827614655035685  5.35866394924663 3.2771252720063444  C 5.35866394924663 3.2771252720063444  5.582478413957173 5.594881459159398  2.9402665122918314 5.645953192704203  C 2.9402665122918314 5.645953192704203  0.5729406375892125 5.697024945281523  0.5969743822363203 3.2771252720063444  C 0.5969743822363203 3.2756231689135618  0.571438458366373 1.1306096748612218  2.9402665122918314 0.9067952291831887  Z " fill-rule="nonzero" fill="rgba(102, 102, 102, 1)" stroke="none" transform="matrix(1 0 0 1 460 156 )" class="fill" />
    <path d="M 2.9402665122918314 0.9067952291831887  C 2.9402665122918314 0.9067952291831887  5.35866394924663 0.8827614655035685  5.35866394924663 3.2771252720063444  C 5.35866394924663 3.2771252720063444  5.582478413957173 5.594881459159398  2.9402665122918314 5.645953192704203  C 2.9402665122918314 5.645953192704203  0.5729406375892125 5.697024945281523  0.5969743822363203 3.2771252720063444  C 0.5969743822363203 3.2756231689135618  0.571438458366373 1.1306096748612218  2.9402665122918314 0.9067952291831887  Z " stroke-width="0" stroke-dasharray="0" stroke="rgba(255, 255, 255, 0)" fill="none" transform="matrix(1 0 0 1 460 156 )" class="stroke" mask="url(#Clip1066)" />
  </g>
</svg>