<?xml version="1.0" encoding="utf-8"?>
<svg version="1.1" xmlns:xlink="http://www.w3.org/1999/xlink" width="24px" height="24px" xmlns="http://www.w3.org/2000/svg">
  <defs>
    <pattern id="BGPattern" patternUnits="userSpaceOnUse" alignment="0 0" imageRepeat="None" />
    <mask fill="white" id="Clip1074">
      <path d="M 14.5234375 13.2890625  C 14.966145833333336 12.252604166666668  15.187500000000004 11.192708333333332  15.1875 10.109375  C 15.187500000000004 8.984375  14.908854166666668 8.104166666666664  14.3515625 7.468749999999999  C 13.794270833333332 6.833333333333333  13.026041666666668 6.515625  12.046875 6.515625  C 11.390625 6.515625  10.744791666666668 6.674479166666665  10.109375 6.992187500000001  C 9.473958333333334 7.309895833333331  8.901041666666668 7.749999999999999  8.390625 8.3125  C 7.880208333333334 8.875  7.466145833333334 9.588541666666664  7.1484375 10.453125  C 6.830729166666667 11.317708333333332  6.671875 12.255208333333334  6.671875 13.265625  C 6.671875 14.432291666666668  6.950520833333334 15.333333333333332  7.5078125 15.968749999999998  C 8.065104166666668 16.604166666666664  8.848958333333334 16.921875  9.859375 16.921875  C 10.859375 16.921875  11.776041666666668 16.575520833333332  12.609375 15.882812500000002  C 13.442708333333332 15.190104166666666  14.080729166666668 14.325520833333332  14.5234375 13.2890625  Z M 20.6875 3.312500000000001  C 22.895833333333332 5.520833333333333  24 8.416666666666664  24 12  C 24 13.156249999999998  23.807291666666664 14.182291666666666  23.421875 15.078124999999998  C 23.036458333333336 15.97395833333333  22.5234375 16.67708333333333  21.8828125 17.1875  C 21.2421875 17.697916666666664  20.557291666666668 18.0859375  19.828125 18.3515625  C 19.098958333333336 18.6171875  18.34375 18.760416666666668  17.5625 18.78125  C 17.5 18.78125  17.419270833333336 18.783854166666668  17.3203125 18.7890625  C 17.221354166666668 18.794270833333332  17.135416666666668 18.796875  17.0625 18.796875  C 16.072916666666668 18.796875  15.333333333333336 18.520833333333332  14.84375 17.96875  C 14.552083333333334 17.625  14.380208333333332 17.19270833333333  14.328125 16.671875  C 13.786458333333336 17.359375  13.1015625 17.932291666666664  12.2734375 18.390625  C 11.4453125 18.848958333333332  10.541666666666668 19.078125  9.5625 19.078125  C 7.885416666666667 19.078125  6.5859375 18.580729166666668  5.6640625 17.5859375  C 4.7421875 16.591145833333336  4.28125 15.1875  4.28125 13.375000000000002  C 4.28125 11.739583333333332  4.625 10.229166666666668  5.3125 8.84375  C 6 7.458333333333332  6.932291666666666 6.361979166666664  8.109375 5.5546875  C 9.286458333333334 4.747395833333333  10.567708333333334 4.343750000000001  11.953125 4.343750000000001  C 12.859375000000002 4.343750000000001  13.666666666666668 4.528645833333332  14.375 4.8984375  C 15.083333333333332 5.268229166666665  15.635416666666668 5.786458333333331  16.03125 6.453125000000001  L 16.0625 6.156249999999999  L 16.234375 5.281250000000001  C 16.244791666666668 5.218749999999999  16.2734375 5.15625  16.3203125 5.093750000000001  C 16.3671875 5.031249999999999  16.416666666666668 5.000000000000001  16.46875 5.000000000000001  L 18.3125 5.000000000000001  C 18.364583333333336 5.000000000000001  18.432291666666668 5.057291666666665  18.515625 5.171874999999999  C 18.567708333333336 5.223958333333331  18.583333333333336 5.307291666666664  18.5625 5.421875000000001  L 16.6875 15.015625000000002  C 16.635416666666668 15.265624999999998  16.609375 15.515625  16.609375 15.765625000000002  C 16.609375 16.171875  16.674479166666668 16.44270833333333  16.8046875 16.578125  C 16.934895833333336 16.713541666666664  17.166666666666668 16.78125  17.5 16.78125  C 17.791666666666668 16.77083333333333  18.088541666666668 16.7421875  18.390625 16.6953125  C 18.692708333333336 16.6484375  19.072916666666668 16.5234375  19.53125 16.3203125  C 19.989583333333336 16.1171875  20.390625 15.85677083333333  20.734375 15.5390625  C 21.078125 15.221354166666664  21.375 14.75520833333333  21.625 14.140624999999998  C 21.875 13.526041666666666  22 12.812500000000002  22 12  C 22 8.958333333333332  21.09375 6.531249999999999  19.28125 4.718750000000001  C 17.46875 2.90625  15.041666666666668 2.000000000000001  12 2.000000000000001  C 10.645833333333334 2.000000000000001  9.3515625 2.265624999999999  8.1171875 2.796875000000001  C 6.8828125 3.328125  5.8203125 4.039062500000001  4.9296875 4.929687500000001  C 4.0390625 5.820312500000001  3.328125 6.882812499999999  2.796875 8.1171875  C 2.265625 9.3515625  2 10.645833333333332  2 12  C 2 13.354166666666668  2.265625 14.6484375  2.796875 15.882812500000002  C 3.328125 17.1171875  4.0390625 18.1796875  4.9296875 19.0703125  C 5.8203125 19.9609375  6.8828125 20.671875  8.1171875 21.203125  C 9.3515625 21.734375  10.645833333333334 22  12 22  C 14.375 22  16.484375 21.25  18.328125 19.75  C 18.442708333333336 19.65625  18.567708333333336 19.614583333333332  18.703125 19.625  C 18.838541666666668 19.635416666666668  18.947916666666668 19.697916666666668  19.03125 19.8125  L 19.671875 20.578125  C 19.755208333333336 20.703125  19.791666666666668 20.828125  19.78125 20.953125  C 19.760416666666668 21.088541666666668  19.697916666666668 21.203125  19.59375 21.296875  C 18.53125 22.161458333333332  17.346354166666668 22.828125  16.0390625 23.296875  C 14.731770833333332 23.765625  13.385416666666668 24  12 24  C 10.375 24  8.822916666666668 23.682291666666668  7.34375 23.046875  C 5.864583333333334 22.411458333333332  4.588541666666667 21.557291666666668  3.515625 20.484375  C 2.4427083333333335 19.411458333333332  1.588541666666667 18.135416666666668  0.9531250000000001 16.65625  C 0.3177083333333334 15.17708333333333  0 13.624999999999998  0 12  C 0 10.375  0.3177083333333334 8.822916666666668  0.9531250000000001 7.343750000000001  C 1.588541666666667 5.864583333333332  2.4427083333333335 4.588541666666665  3.515625 3.515625  C 4.588541666666667 2.442708333333332  5.864583333333334 1.5885416666666652  7.34375 0.9531249999999991  C 8.822916666666668 0.31770833333333304  10.375 0  12 0  C 15.583333333333334 0  18.479166666666668 1.1041666666666634  20.6875 3.312500000000001  Z " fill-rule="evenodd" />
    </mask>
  </defs>
  <g transform="matrix(1 0 0 1 -24 -431 )">
    <path d="M 14.5234375 13.2890625  C 14.966145833333336 12.252604166666668  15.187500000000004 11.192708333333332  15.1875 10.109375  C 15.187500000000004 8.984375  14.908854166666668 8.104166666666664  14.3515625 7.468749999999999  C 13.794270833333332 6.833333333333333  13.026041666666668 6.515625  12.046875 6.515625  C 11.390625 6.515625  10.744791666666668 6.674479166666665  10.109375 6.992187500000001  C 9.473958333333334 7.309895833333331  8.901041666666668 7.749999999999999  8.390625 8.3125  C 7.880208333333334 8.875  7.466145833333334 9.588541666666664  7.1484375 10.453125  C 6.830729166666667 11.317708333333332  6.671875 12.255208333333334  6.671875 13.265625  C 6.671875 14.432291666666668  6.950520833333334 15.333333333333332  7.5078125 15.968749999999998  C 8.065104166666668 16.604166666666664  8.848958333333334 16.921875  9.859375 16.921875  C 10.859375 16.921875  11.776041666666668 16.575520833333332  12.609375 15.882812500000002  C 13.442708333333332 15.190104166666666  14.080729166666668 14.325520833333332  14.5234375 13.2890625  Z M 20.6875 3.312500000000001  C 22.895833333333332 5.520833333333333  24 8.416666666666664  24 12  C 24 13.156249999999998  23.807291666666664 14.182291666666666  23.421875 15.078124999999998  C 23.036458333333336 15.97395833333333  22.5234375 16.67708333333333  21.8828125 17.1875  C 21.2421875 17.697916666666664  20.557291666666668 18.0859375  19.828125 18.3515625  C 19.098958333333336 18.6171875  18.34375 18.760416666666668  17.5625 18.78125  C 17.5 18.78125  17.419270833333336 18.783854166666668  17.3203125 18.7890625  C 17.221354166666668 18.794270833333332  17.135416666666668 18.796875  17.0625 18.796875  C 16.072916666666668 18.796875  15.333333333333336 18.520833333333332  14.84375 17.96875  C 14.552083333333334 17.625  14.380208333333332 17.19270833333333  14.328125 16.671875  C 13.786458333333336 17.359375  13.1015625 17.932291666666664  12.2734375 18.390625  C 11.4453125 18.848958333333332  10.541666666666668 19.078125  9.5625 19.078125  C 7.885416666666667 19.078125  6.5859375 18.580729166666668  5.6640625 17.5859375  C 4.7421875 16.591145833333336  4.28125 15.1875  4.28125 13.375000000000002  C 4.28125 11.739583333333332  4.625 10.229166666666668  5.3125 8.84375  C 6 7.458333333333332  6.932291666666666 6.361979166666664  8.109375 5.5546875  C 9.286458333333334 4.747395833333333  10.567708333333334 4.343750000000001  11.953125 4.343750000000001  C 12.859375000000002 4.343750000000001  13.666666666666668 4.528645833333332  14.375 4.8984375  C 15.083333333333332 5.268229166666665  15.635416666666668 5.786458333333331  16.03125 6.453125000000001  L 16.0625 6.156249999999999  L 16.234375 5.281250000000001  C 16.244791666666668 5.218749999999999  16.2734375 5.15625  16.3203125 5.093750000000001  C 16.3671875 5.031249999999999  16.416666666666668 5.000000000000001  16.46875 5.000000000000001  L 18.3125 5.000000000000001  C 18.364583333333336 5.000000000000001  18.432291666666668 5.057291666666665  18.515625 5.171874999999999  C 18.567708333333336 5.223958333333331  18.583333333333336 5.307291666666664  18.5625 5.421875000000001  L 16.6875 15.015625000000002  C 16.635416666666668 15.265624999999998  16.609375 15.515625  16.609375 15.765625000000002  C 16.609375 16.171875  16.674479166666668 16.44270833333333  16.8046875 16.578125  C 16.934895833333336 16.713541666666664  17.166666666666668 16.78125  17.5 16.78125  C 17.791666666666668 16.77083333333333  18.088541666666668 16.7421875  18.390625 16.6953125  C 18.692708333333336 16.6484375  19.072916666666668 16.5234375  19.53125 16.3203125  C 19.989583333333336 16.1171875  20.390625 15.85677083333333  20.734375 15.5390625  C 21.078125 15.221354166666664  21.375 14.75520833333333  21.625 14.140624999999998  C 21.875 13.526041666666666  22 12.812500000000002  22 12  C 22 8.958333333333332  21.09375 6.531249999999999  19.28125 4.718750000000001  C 17.46875 2.90625  15.041666666666668 2.000000000000001  12 2.000000000000001  C 10.645833333333334 2.000000000000001  9.3515625 2.265624999999999  8.1171875 2.796875000000001  C 6.8828125 3.328125  5.8203125 4.039062500000001  4.9296875 4.929687500000001  C 4.0390625 5.820312500000001  3.328125 6.882812499999999  2.796875 8.1171875  C 2.265625 9.3515625  2 10.645833333333332  2 12  C 2 13.354166666666668  2.265625 14.6484375  2.796875 15.882812500000002  C 3.328125 17.1171875  4.0390625 18.1796875  4.9296875 19.0703125  C 5.8203125 19.9609375  6.8828125 20.671875  8.1171875 21.203125  C 9.3515625 21.734375  10.645833333333334 22  12 22  C 14.375 22  16.484375 21.25  18.328125 19.75  C 18.442708333333336 19.65625  18.567708333333336 19.614583333333332  18.703125 19.625  C 18.838541666666668 19.635416666666668  18.947916666666668 19.697916666666668  19.03125 19.8125  L 19.671875 20.578125  C 19.755208333333336 20.703125  19.791666666666668 20.828125  19.78125 20.953125  C 19.760416666666668 21.088541666666668  19.697916666666668 21.203125  19.59375 21.296875  C 18.53125 22.161458333333332  17.346354166666668 22.828125  16.0390625 23.296875  C 14.731770833333332 23.765625  13.385416666666668 24  12 24  C 10.375 24  8.822916666666668 23.682291666666668  7.34375 23.046875  C 5.864583333333334 22.411458333333332  4.588541666666667 21.557291666666668  3.515625 20.484375  C 2.4427083333333335 19.411458333333332  1.588541666666667 18.135416666666668  0.9531250000000001 16.65625  C 0.3177083333333334 15.17708333333333  0 13.624999999999998  0 12  C 0 10.375  0.3177083333333334 8.822916666666668  0.9531250000000001 7.343750000000001  C 1.588541666666667 5.864583333333332  2.4427083333333335 4.588541666666665  3.515625 3.515625  C 4.588541666666667 2.442708333333332  5.864583333333334 1.5885416666666652  7.34375 0.9531249999999991  C 8.822916666666668 0.31770833333333304  10.375 0  12 0  C 15.583333333333334 0  18.479166666666668 1.1041666666666634  20.6875 3.312500000000001  Z " fill-rule="nonzero" fill="rgba(85, 85, 85, 1)" stroke="none" transform="matrix(1 0 0 1 24 431 )" class="fill" />
    <path d="M 14.5234375 13.2890625  C 14.966145833333336 12.252604166666668  15.187500000000004 11.192708333333332  15.1875 10.109375  C 15.187500000000004 8.984375  14.908854166666668 8.104166666666664  14.3515625 7.468749999999999  C 13.794270833333332 6.833333333333333  13.026041666666668 6.515625  12.046875 6.515625  C 11.390625 6.515625  10.744791666666668 6.674479166666665  10.109375 6.992187500000001  C 9.473958333333334 7.309895833333331  8.901041666666668 7.749999999999999  8.390625 8.3125  C 7.880208333333334 8.875  7.466145833333334 9.588541666666664  7.1484375 10.453125  C 6.830729166666667 11.317708333333332  6.671875 12.255208333333334  6.671875 13.265625  C 6.671875 14.432291666666668  6.950520833333334 15.333333333333332  7.5078125 15.968749999999998  C 8.065104166666668 16.604166666666664  8.848958333333334 16.921875  9.859375 16.921875  C 10.859375 16.921875  11.776041666666668 16.575520833333332  12.609375 15.882812500000002  C 13.442708333333332 15.190104166666666  14.080729166666668 14.325520833333332  14.5234375 13.2890625  Z " stroke-width="0" stroke-dasharray="0" stroke="rgba(255, 255, 255, 0)" fill="none" transform="matrix(1 0 0 1 24 431 )" class="stroke" mask="url(#Clip1074)" />
    <path d="M 20.6875 3.312500000000001  C 22.895833333333332 5.520833333333333  24 8.416666666666664  24 12  C 24 13.156249999999998  23.807291666666664 14.182291666666666  23.421875 15.078124999999998  C 23.036458333333336 15.97395833333333  22.5234375 16.67708333333333  21.8828125 17.1875  C 21.2421875 17.697916666666664  20.557291666666668 18.0859375  19.828125 18.3515625  C 19.098958333333336 18.6171875  18.34375 18.760416666666668  17.5625 18.78125  C 17.5 18.78125  17.419270833333336 18.783854166666668  17.3203125 18.7890625  C 17.221354166666668 18.794270833333332  17.135416666666668 18.796875  17.0625 18.796875  C 16.072916666666668 18.796875  15.333333333333336 18.520833333333332  14.84375 17.96875  C 14.552083333333334 17.625  14.380208333333332 17.19270833333333  14.328125 16.671875  C 13.786458333333336 17.359375  13.1015625 17.932291666666664  12.2734375 18.390625  C 11.4453125 18.848958333333332  10.541666666666668 19.078125  9.5625 19.078125  C 7.885416666666667 19.078125  6.5859375 18.580729166666668  5.6640625 17.5859375  C 4.7421875 16.591145833333336  4.28125 15.1875  4.28125 13.375000000000002  C 4.28125 11.739583333333332  4.625 10.229166666666668  5.3125 8.84375  C 6 7.458333333333332  6.932291666666666 6.361979166666664  8.109375 5.5546875  C 9.286458333333334 4.747395833333333  10.567708333333334 4.343750000000001  11.953125 4.343750000000001  C 12.859375000000002 4.343750000000001  13.666666666666668 4.528645833333332  14.375 4.8984375  C 15.083333333333332 5.268229166666665  15.635416666666668 5.786458333333331  16.03125 6.453125000000001  L 16.0625 6.156249999999999  L 16.234375 5.281250000000001  C 16.244791666666668 5.218749999999999  16.2734375 5.15625  16.3203125 5.093750000000001  C 16.3671875 5.031249999999999  16.416666666666668 5.000000000000001  16.46875 5.000000000000001  L 18.3125 5.000000000000001  C 18.364583333333336 5.000000000000001  18.432291666666668 5.057291666666665  18.515625 5.171874999999999  C 18.567708333333336 5.223958333333331  18.583333333333336 5.307291666666664  18.5625 5.421875000000001  L 16.6875 15.015625000000002  C 16.635416666666668 15.265624999999998  16.609375 15.515625  16.609375 15.765625000000002  C 16.609375 16.171875  16.674479166666668 16.44270833333333  16.8046875 16.578125  C 16.934895833333336 16.713541666666664  17.166666666666668 16.78125  17.5 16.78125  C 17.791666666666668 16.77083333333333  18.088541666666668 16.7421875  18.390625 16.6953125  C 18.692708333333336 16.6484375  19.072916666666668 16.5234375  19.53125 16.3203125  C 19.989583333333336 16.1171875  20.390625 15.85677083333333  20.734375 15.5390625  C 21.078125 15.221354166666664  21.375 14.75520833333333  21.625 14.140624999999998  C 21.875 13.526041666666666  22 12.812500000000002  22 12  C 22 8.958333333333332  21.09375 6.531249999999999  19.28125 4.718750000000001  C 17.46875 2.90625  15.041666666666668 2.000000000000001  12 2.000000000000001  C 10.645833333333334 2.000000000000001  9.3515625 2.265624999999999  8.1171875 2.796875000000001  C 6.8828125 3.328125  5.8203125 4.039062500000001  4.9296875 4.929687500000001  C 4.0390625 5.820312500000001  3.328125 6.882812499999999  2.796875 8.1171875  C 2.265625 9.3515625  2 10.645833333333332  2 12  C 2 13.354166666666668  2.265625 14.6484375  2.796875 15.882812500000002  C 3.328125 17.1171875  4.0390625 18.1796875  4.9296875 19.0703125  C 5.8203125 19.9609375  6.8828125 20.671875  8.1171875 21.203125  C 9.3515625 21.734375  10.645833333333334 22  12 22  C 14.375 22  16.484375 21.25  18.328125 19.75  C 18.442708333333336 19.65625  18.567708333333336 19.614583333333332  18.703125 19.625  C 18.838541666666668 19.635416666666668  18.947916666666668 19.697916666666668  19.03125 19.8125  L 19.671875 20.578125  C 19.755208333333336 20.703125  19.791666666666668 20.828125  19.78125 20.953125  C 19.760416666666668 21.088541666666668  19.697916666666668 21.203125  19.59375 21.296875  C 18.53125 22.161458333333332  17.346354166666668 22.828125  16.0390625 23.296875  C 14.731770833333332 23.765625  13.385416666666668 24  12 24  C 10.375 24  8.822916666666668 23.682291666666668  7.34375 23.046875  C 5.864583333333334 22.411458333333332  4.588541666666667 21.557291666666668  3.515625 20.484375  C 2.4427083333333335 19.411458333333332  1.588541666666667 18.135416666666668  0.9531250000000001 16.65625  C 0.3177083333333334 15.17708333333333  0 13.624999999999998  0 12  C 0 10.375  0.3177083333333334 8.822916666666668  0.9531250000000001 7.343750000000001  C 1.588541666666667 5.864583333333332  2.4427083333333335 4.588541666666665  3.515625 3.515625  C 4.588541666666667 2.442708333333332  5.864583333333334 1.5885416666666652  7.34375 0.9531249999999991  C 8.822916666666668 0.31770833333333304  10.375 0  12 0  C 15.583333333333334 0  18.479166666666668 1.1041666666666634  20.6875 3.312500000000001  Z " stroke-width="0" stroke-dasharray="0" stroke="rgba(255, 255, 255, 0)" fill="none" transform="matrix(1 0 0 1 24 431 )" class="stroke" mask="url(#Clip1074)" />
  </g>
</svg>