<?xml version="1.0" encoding="utf-8"?>
<svg version="1.1" xmlns:xlink="http://www.w3.org/1999/xlink" width="24px" height="24px" xmlns="http://www.w3.org/2000/svg">
  <defs>
    <pattern id="BGPattern" patternUnits="userSpaceOnUse" alignment="0 0" imageRepeat="None" />
    <mask fill="white" id="Clip1073">
      <path d="M 23.745535714285715 11.39732142857143  C 23.915178571428573 11.566964285714285  24 11.767857142857142  24 12  C 24 12.232142857142858  23.915178571428573 12.433035714285712  23.745535714285715 12.602678571428573  L 20.316964285714285 16.03125  C 20.14732142857143 16.200892857142854  19.946428571428573 16.285714285714285  19.714285714285715 16.285714285714285  C 19.482142857142858 16.285714285714285  19.28125 16.200892857142854  19.111607142857142 16.03125  C 18.94196428571429 15.861607142857142  18.857142857142858 15.660714285714285  18.857142857142858 15.428571428571427  L 18.857142857142858 13.714285714285714  L 13.714285714285714 13.714285714285714  L 13.714285714285714 18.857142857142858  L 15.42857142857143 18.857142857142858  C 15.660714285714288 18.857142857142858  15.861607142857144 18.941964285714285  16.03125 19.111607142857142  C 16.200892857142858 19.28125  16.285714285714285 19.482142857142858  16.285714285714285 19.714285714285715  C 16.285714285714285 19.94642857142857  16.200892857142858 20.147321428571427  16.03125 20.316964285714285  L 12.60267857142857 23.745535714285715  C 12.433035714285715 23.915178571428573  12.232142857142858 24  12 24  C 11.767857142857144 24  11.566964285714286 23.915178571428573  11.397321428571429 23.745535714285715  L 7.96875 20.316964285714285  C 7.799107142857142 20.147321428571427  7.714285714285715 19.94642857142857  7.714285714285715 19.714285714285715  C 7.714285714285715 19.482142857142858  7.799107142857142 19.28125  7.96875 19.111607142857142  C 8.138392857142858 18.941964285714285  8.339285714285715 18.857142857142858  8.571428571428571 18.857142857142858  L 10.285714285714285 18.857142857142858  L 10.285714285714285 13.714285714285714  L 5.142857142857142 13.714285714285714  L 5.142857142857142 15.428571428571427  C 5.142857142857142 15.660714285714285  5.0580357142857135 15.861607142857142  4.888392857142858 16.03125  C 4.71875 16.200892857142854  4.517857142857143 16.285714285714285  4.285714285714286 16.285714285714285  C 4.053571428571429 16.285714285714285  3.852678571428571 16.200892857142854  3.6830357142857144 16.03125  L 0.2544642857142857 12.602678571428573  C 0.08482142857142858 12.433035714285712  0 12.232142857142858  0 12  C 0 11.767857142857142  0.08482142857142858 11.566964285714285  0.2544642857142857 11.39732142857143  L 3.6830357142857144 7.96875  C 3.852678571428571 7.7991071428571415  4.053571428571429 7.7142857142857135  4.285714285714286 7.7142857142857135  C 4.517857142857143 7.7142857142857135  4.71875 7.7991071428571415  4.888392857142858 7.96875  C 5.0580357142857135 8.138392857142856  5.142857142857142 8.339285714285712  5.142857142857142 8.57142857142857  L 5.142857142857142 10.285714285714286  L 10.285714285714285 10.285714285714286  L 10.285714285714285 5.142857142857143  L 8.571428571428571 5.142857142857143  C 8.339285714285715 5.142857142857143  8.138392857142858 5.058035714285713  7.96875 4.888392857142857  C 7.799107142857142 4.718749999999998  7.714285714285715 4.5178571428571415  7.714285714285715 4.2857142857142865  C 7.714285714285715 4.053571428571426  7.799107142857142 3.8526785714285694  7.96875 3.6830357142857135  L 11.397321428571429 0.2544642857142865  C 11.566964285714286 0.0848214285714306  11.767857142857144 0  12 0  C 12.232142857142858 0  12.433035714285715 0.0848214285714306  12.60267857142857 0.2544642857142865  L 16.03125 3.6830357142857135  C 16.200892857142858 3.8526785714285694  16.285714285714285 4.053571428571426  16.285714285714285 4.2857142857142865  C 16.285714285714285 4.5178571428571415  16.200892857142858 4.718749999999998  16.03125 4.888392857142857  C 15.861607142857144 5.058035714285713  15.660714285714288 5.142857142857143  15.42857142857143 5.142857142857143  L 13.714285714285714 5.142857142857143  L 13.714285714285714 10.285714285714286  L 18.857142857142858 10.285714285714286  L 18.857142857142858 8.57142857142857  C 18.857142857142858 8.339285714285712  18.94196428571429 8.138392857142856  19.111607142857142 7.96875  C 19.28125 7.7991071428571415  19.482142857142858 7.7142857142857135  19.714285714285715 7.7142857142857135  C 19.946428571428573 7.7142857142857135  20.14732142857143 7.7991071428571415  20.316964285714285 7.96875  L 23.745535714285715 11.39732142857143  Z " fill-rule="evenodd" />
    </mask>
  </defs>
  <g transform="matrix(1 0 0 1 -24 -352 )">
    <path d="M 23.745535714285715 11.39732142857143  C 23.915178571428573 11.566964285714285  24 11.767857142857142  24 12  C 24 12.232142857142858  23.915178571428573 12.433035714285712  23.745535714285715 12.602678571428573  L 20.316964285714285 16.03125  C 20.14732142857143 16.200892857142854  19.946428571428573 16.285714285714285  19.714285714285715 16.285714285714285  C 19.482142857142858 16.285714285714285  19.28125 16.200892857142854  19.111607142857142 16.03125  C 18.94196428571429 15.861607142857142  18.857142857142858 15.660714285714285  18.857142857142858 15.428571428571427  L 18.857142857142858 13.714285714285714  L 13.714285714285714 13.714285714285714  L 13.714285714285714 18.857142857142858  L 15.42857142857143 18.857142857142858  C 15.660714285714288 18.857142857142858  15.861607142857144 18.941964285714285  16.03125 19.111607142857142  C 16.200892857142858 19.28125  16.285714285714285 19.482142857142858  16.285714285714285 19.714285714285715  C 16.285714285714285 19.94642857142857  16.200892857142858 20.147321428571427  16.03125 20.316964285714285  L 12.60267857142857 23.745535714285715  C 12.433035714285715 23.915178571428573  12.232142857142858 24  12 24  C 11.767857142857144 24  11.566964285714286 23.915178571428573  11.397321428571429 23.745535714285715  L 7.96875 20.316964285714285  C 7.799107142857142 20.147321428571427  7.714285714285715 19.94642857142857  7.714285714285715 19.714285714285715  C 7.714285714285715 19.482142857142858  7.799107142857142 19.28125  7.96875 19.111607142857142  C 8.138392857142858 18.941964285714285  8.339285714285715 18.857142857142858  8.571428571428571 18.857142857142858  L 10.285714285714285 18.857142857142858  L 10.285714285714285 13.714285714285714  L 5.142857142857142 13.714285714285714  L 5.142857142857142 15.428571428571427  C 5.142857142857142 15.660714285714285  5.0580357142857135 15.861607142857142  4.888392857142858 16.03125  C 4.71875 16.200892857142854  4.517857142857143 16.285714285714285  4.285714285714286 16.285714285714285  C 4.053571428571429 16.285714285714285  3.852678571428571 16.200892857142854  3.6830357142857144 16.03125  L 0.2544642857142857 12.602678571428573  C 0.08482142857142858 12.433035714285712  0 12.232142857142858  0 12  C 0 11.767857142857142  0.08482142857142858 11.566964285714285  0.2544642857142857 11.39732142857143  L 3.6830357142857144 7.96875  C 3.852678571428571 7.7991071428571415  4.053571428571429 7.7142857142857135  4.285714285714286 7.7142857142857135  C 4.517857142857143 7.7142857142857135  4.71875 7.7991071428571415  4.888392857142858 7.96875  C 5.0580357142857135 8.138392857142856  5.142857142857142 8.339285714285712  5.142857142857142 8.57142857142857  L 5.142857142857142 10.285714285714286  L 10.285714285714285 10.285714285714286  L 10.285714285714285 5.142857142857143  L 8.571428571428571 5.142857142857143  C 8.339285714285715 5.142857142857143  8.138392857142858 5.058035714285713  7.96875 4.888392857142857  C 7.799107142857142 4.718749999999998  7.714285714285715 4.5178571428571415  7.714285714285715 4.2857142857142865  C 7.714285714285715 4.053571428571426  7.799107142857142 3.8526785714285694  7.96875 3.6830357142857135  L 11.397321428571429 0.2544642857142865  C 11.566964285714286 0.0848214285714306  11.767857142857144 0  12 0  C 12.232142857142858 0  12.433035714285715 0.0848214285714306  12.60267857142857 0.2544642857142865  L 16.03125 3.6830357142857135  C 16.200892857142858 3.8526785714285694  16.285714285714285 4.053571428571426  16.285714285714285 4.2857142857142865  C 16.285714285714285 4.5178571428571415  16.200892857142858 4.718749999999998  16.03125 4.888392857142857  C 15.861607142857144 5.058035714285713  15.660714285714288 5.142857142857143  15.42857142857143 5.142857142857143  L 13.714285714285714 5.142857142857143  L 13.714285714285714 10.285714285714286  L 18.857142857142858 10.285714285714286  L 18.857142857142858 8.57142857142857  C 18.857142857142858 8.339285714285712  18.94196428571429 8.138392857142856  19.111607142857142 7.96875  C 19.28125 7.7991071428571415  19.482142857142858 7.7142857142857135  19.714285714285715 7.7142857142857135  C 19.946428571428573 7.7142857142857135  20.14732142857143 7.7991071428571415  20.316964285714285 7.96875  L 23.745535714285715 11.39732142857143  Z " fill-rule="nonzero" fill="rgba(85, 85, 85, 1)" stroke="none" transform="matrix(1 0 0 1 24 352 )" class="fill" />
    <path d="M 23.745535714285715 11.39732142857143  C 23.915178571428573 11.566964285714285  24 11.767857142857142  24 12  C 24 12.232142857142858  23.915178571428573 12.433035714285712  23.745535714285715 12.602678571428573  L 20.316964285714285 16.03125  C 20.14732142857143 16.200892857142854  19.946428571428573 16.285714285714285  19.714285714285715 16.285714285714285  C 19.482142857142858 16.285714285714285  19.28125 16.200892857142854  19.111607142857142 16.03125  C 18.94196428571429 15.861607142857142  18.857142857142858 15.660714285714285  18.857142857142858 15.428571428571427  L 18.857142857142858 13.714285714285714  L 13.714285714285714 13.714285714285714  L 13.714285714285714 18.857142857142858  L 15.42857142857143 18.857142857142858  C 15.660714285714288 18.857142857142858  15.861607142857144 18.941964285714285  16.03125 19.111607142857142  C 16.200892857142858 19.28125  16.285714285714285 19.482142857142858  16.285714285714285 19.714285714285715  C 16.285714285714285 19.94642857142857  16.200892857142858 20.147321428571427  16.03125 20.316964285714285  L 12.60267857142857 23.745535714285715  C 12.433035714285715 23.915178571428573  12.232142857142858 24  12 24  C 11.767857142857144 24  11.566964285714286 23.915178571428573  11.397321428571429 23.745535714285715  L 7.96875 20.316964285714285  C 7.799107142857142 20.147321428571427  7.714285714285715 19.94642857142857  7.714285714285715 19.714285714285715  C 7.714285714285715 19.482142857142858  7.799107142857142 19.28125  7.96875 19.111607142857142  C 8.138392857142858 18.941964285714285  8.339285714285715 18.857142857142858  8.571428571428571 18.857142857142858  L 10.285714285714285 18.857142857142858  L 10.285714285714285 13.714285714285714  L 5.142857142857142 13.714285714285714  L 5.142857142857142 15.428571428571427  C 5.142857142857142 15.660714285714285  5.0580357142857135 15.861607142857142  4.888392857142858 16.03125  C 4.71875 16.200892857142854  4.517857142857143 16.285714285714285  4.285714285714286 16.285714285714285  C 4.053571428571429 16.285714285714285  3.852678571428571 16.200892857142854  3.6830357142857144 16.03125  L 0.2544642857142857 12.602678571428573  C 0.08482142857142858 12.433035714285712  0 12.232142857142858  0 12  C 0 11.767857142857142  0.08482142857142858 11.566964285714285  0.2544642857142857 11.39732142857143  L 3.6830357142857144 7.96875  C 3.852678571428571 7.7991071428571415  4.053571428571429 7.7142857142857135  4.285714285714286 7.7142857142857135  C 4.517857142857143 7.7142857142857135  4.71875 7.7991071428571415  4.888392857142858 7.96875  C 5.0580357142857135 8.138392857142856  5.142857142857142 8.339285714285712  5.142857142857142 8.57142857142857  L 5.142857142857142 10.285714285714286  L 10.285714285714285 10.285714285714286  L 10.285714285714285 5.142857142857143  L 8.571428571428571 5.142857142857143  C 8.339285714285715 5.142857142857143  8.138392857142858 5.058035714285713  7.96875 4.888392857142857  C 7.799107142857142 4.718749999999998  7.714285714285715 4.5178571428571415  7.714285714285715 4.2857142857142865  C 7.714285714285715 4.053571428571426  7.799107142857142 3.8526785714285694  7.96875 3.6830357142857135  L 11.397321428571429 0.2544642857142865  C 11.566964285714286 0.0848214285714306  11.767857142857144 0  12 0  C 12.232142857142858 0  12.433035714285715 0.0848214285714306  12.60267857142857 0.2544642857142865  L 16.03125 3.6830357142857135  C 16.200892857142858 3.8526785714285694  16.285714285714285 4.053571428571426  16.285714285714285 4.2857142857142865  C 16.285714285714285 4.5178571428571415  16.200892857142858 4.718749999999998  16.03125 4.888392857142857  C 15.861607142857144 5.058035714285713  15.660714285714288 5.142857142857143  15.42857142857143 5.142857142857143  L 13.714285714285714 5.142857142857143  L 13.714285714285714 10.285714285714286  L 18.857142857142858 10.285714285714286  L 18.857142857142858 8.57142857142857  C 18.857142857142858 8.339285714285712  18.94196428571429 8.138392857142856  19.111607142857142 7.96875  C 19.28125 7.7991071428571415  19.482142857142858 7.7142857142857135  19.714285714285715 7.7142857142857135  C 19.946428571428573 7.7142857142857135  20.14732142857143 7.7991071428571415  20.316964285714285 7.96875  L 23.745535714285715 11.39732142857143  Z " stroke-width="0" stroke-dasharray="0" stroke="rgba(255, 255, 255, 0)" fill="none" transform="matrix(1 0 0 1 24 352 )" class="stroke" mask="url(#Clip1073)" />
  </g>
</svg>