<?xml version="1.0" encoding="utf-8"?>
<svg version="1.1" xmlns:xlink="http://www.w3.org/1999/xlink" width="24px" height="24px" xmlns="http://www.w3.org/2000/svg">
  <defs>
    <pattern id="BGPattern" patternUnits="userSpaceOnUse" alignment="0 0" imageRepeat="None" />
    <mask fill="white" id="Clip1379">
      <path d="M 7.734375 19.359375  C 9.036458333333334 20.119791666666668  10.458333333333334 20.5  12 20.5  L 12 3.500000000000001  C 10.458333333333334 3.500000000000001  9.036458333333334 3.880208333333333  7.734375 4.640625  C 6.432291666666667 5.401041666666664  5.401041666666667 6.432291666666664  4.640625 7.734375  C 3.880208333333334 9.036458333333332  3.5 10.458333333333332  3.5 12  C 3.5 13.541666666666668  3.880208333333334 14.963541666666664  4.640625 16.265625  C 5.401041666666667 17.56770833333333  6.432291666666667 18.598958333333332  7.734375 19.359375  Z M 22.390625 5.9765625  C 23.463541666666664 7.815104166666664  24 9.822916666666664  24 12  C 24 14.177083333333334  23.463541666666664 16.18489583333333  22.390625 18.0234375  C 21.317708333333336 19.861979166666668  19.861979166666668 21.317708333333332  18.0234375 22.390625  C 16.184895833333336 23.463541666666668  14.177083333333334 24  12 24  C 9.822916666666668 24  7.815104166666667 23.463541666666668  5.9765625 22.390625  C 4.138020833333334 21.317708333333332  2.682291666666667 19.861979166666668  1.609375 18.0234375  C 0.5364583333333333 16.18489583333333  0 14.177083333333334  0 12  C 0 9.822916666666664  0.5364583333333333 7.815104166666664  1.609375 5.9765625  C 2.682291666666667 4.138020833333333  4.138020833333334 2.6822916666666643  5.9765625 1.6093749999999991  C 7.815104166666667 0.5364583333333313  9.822916666666668 0  12 0  C 14.177083333333334 0  16.184895833333336 0.5364583333333313  18.0234375 1.6093749999999991  C 19.861979166666668 2.6822916666666643  21.317708333333336 4.138020833333333  22.390625 5.9765625  Z " fill-rule="evenodd" />
    </mask>
  </defs>
  <g transform="matrix(1 0 0 1 -24 -227 )">
    <path d="M 7.734375 19.359375  C 9.036458333333334 20.119791666666668  10.458333333333334 20.5  12 20.5  L 12 3.500000000000001  C 10.458333333333334 3.500000000000001  9.036458333333334 3.880208333333333  7.734375 4.640625  C 6.432291666666667 5.401041666666664  5.401041666666667 6.432291666666664  4.640625 7.734375  C 3.880208333333334 9.036458333333332  3.5 10.458333333333332  3.5 12  C 3.5 13.541666666666668  3.880208333333334 14.963541666666664  4.640625 16.265625  C 5.401041666666667 17.56770833333333  6.432291666666667 18.598958333333332  7.734375 19.359375  Z M 22.390625 5.9765625  C 23.463541666666664 7.815104166666664  24 9.822916666666664  24 12  C 24 14.177083333333334  23.463541666666664 16.18489583333333  22.390625 18.0234375  C 21.317708333333336 19.861979166666668  19.861979166666668 21.317708333333332  18.0234375 22.390625  C 16.184895833333336 23.463541666666668  14.177083333333334 24  12 24  C 9.822916666666668 24  7.815104166666667 23.463541666666668  5.9765625 22.390625  C 4.138020833333334 21.317708333333332  2.682291666666667 19.861979166666668  1.609375 18.0234375  C 0.5364583333333333 16.18489583333333  0 14.177083333333334  0 12  C 0 9.822916666666664  0.5364583333333333 7.815104166666664  1.609375 5.9765625  C 2.682291666666667 4.138020833333333  4.138020833333334 2.6822916666666643  5.9765625 1.6093749999999991  C 7.815104166666667 0.5364583333333313  9.822916666666668 0  12 0  C 14.177083333333334 0  16.184895833333336 0.5364583333333313  18.0234375 1.6093749999999991  C 19.861979166666668 2.6822916666666643  21.317708333333336 4.138020833333333  22.390625 5.9765625  Z " fill-rule="nonzero" fill="rgba(85, 85, 85, 1)" stroke="none" transform="matrix(1 0 0 1 24 227 )" class="fill" />
    <path d="M 7.734375 19.359375  C 9.036458333333334 20.119791666666668  10.458333333333334 20.5  12 20.5  L 12 3.500000000000001  C 10.458333333333334 3.500000000000001  9.036458333333334 3.880208333333333  7.734375 4.640625  C 6.432291666666667 5.401041666666664  5.401041666666667 6.432291666666664  4.640625 7.734375  C 3.880208333333334 9.036458333333332  3.5 10.458333333333332  3.5 12  C 3.5 13.541666666666668  3.880208333333334 14.963541666666664  4.640625 16.265625  C 5.401041666666667 17.56770833333333  6.432291666666667 18.598958333333332  7.734375 19.359375  Z " stroke-width="0" stroke-dasharray="0" stroke="rgba(255, 255, 255, 0)" fill="none" transform="matrix(1 0 0 1 24 227 )" class="stroke" mask="url(#Clip1379)" />
    <path d="M 22.390625 5.9765625  C 23.463541666666664 7.815104166666664  24 9.822916666666664  24 12  C 24 14.177083333333334  23.463541666666664 16.18489583333333  22.390625 18.0234375  C 21.317708333333336 19.861979166666668  19.861979166666668 21.317708333333332  18.0234375 22.390625  C 16.184895833333336 23.463541666666668  14.177083333333334 24  12 24  C 9.822916666666668 24  7.815104166666667 23.463541666666668  5.9765625 22.390625  C 4.138020833333334 21.317708333333332  2.682291666666667 19.861979166666668  1.609375 18.0234375  C 0.5364583333333333 16.18489583333333  0 14.177083333333334  0 12  C 0 9.822916666666664  0.5364583333333333 7.815104166666664  1.609375 5.9765625  C 2.682291666666667 4.138020833333333  4.138020833333334 2.6822916666666643  5.9765625 1.6093749999999991  C 7.815104166666667 0.5364583333333313  9.822916666666668 0  12 0  C 14.177083333333334 0  16.184895833333336 0.5364583333333313  18.0234375 1.6093749999999991  C 19.861979166666668 2.6822916666666643  21.317708333333336 4.138020833333333  22.390625 5.9765625  Z " stroke-width="0" stroke-dasharray="0" stroke="rgba(255, 255, 255, 0)" fill="none" transform="matrix(1 0 0 1 24 227 )" class="stroke" mask="url(#Clip1379)" />
  </g>
</svg>