<?xml version="1.0" encoding="utf-8"?>
<svg version="1.1" xmlns:xlink="http://www.w3.org/1999/xlink" width="18px" height="14px" xmlns="http://www.w3.org/2000/svg">
  <defs>
    <pattern id="BGPattern" patternUnits="userSpaceOnUse" alignment="0 0" imageRepeat="None" />
    <mask fill="white" id="Clip1068">
      <path d="M 0 12.687612052589841  L 0.00866979002172189 12.687612052589841  C 0.00866979002172189 12.687612052589841  0.048638987690928524 13.588561925289037  0.9655793566182808 13.588561925289037  L 17.767923750232736 13.588561925289037  L 17.767923750232736 10.97979167611336  L 15.936394174947418 10.97979167611336  L 12.206327777402338 7.414730577403063  L 9.395552911353997 10.077734948537081  L 5.571441351584318 5.632753434450519  L 1.804932462986587 10.943266657206058  L 1 10.960975732209189  L 1 0.3598719732877004  L 0 0.3598719732877004  L 0 12.687612052589841  Z " fill-rule="evenodd" />
    </mask>
  </defs>
  <g transform="matrix(1 0 0 1 -450 -154 )">
    <path d="M 0 12.687612052589841  L 0.00866979002172189 12.687612052589841  C 0.00866979002172189 12.687612052589841  0.048638987690928524 13.588561925289037  0.9655793566182808 13.588561925289037  L 17.767923750232736 13.588561925289037  L 17.767923750232736 10.97979167611336  L 15.936394174947418 10.97979167611336  L 12.206327777402338 7.414730577403063  L 9.395552911353997 10.077734948537081  L 5.571441351584318 5.632753434450519  L 1.804932462986587 10.943266657206058  L 1 10.960975732209189  L 1 0.3598719732877004  L 0 0.3598719732877004  L 0 12.687612052589841  Z " fill-rule="nonzero" fill="rgba(102, 102, 102, 1)" stroke="none" transform="matrix(1 0 0 1 450 154 )" class="fill" />
    <path d="M 0 12.687612052589841  L 0.00866979002172189 12.687612052589841  C 0.00866979002172189 12.687612052589841  0.048638987690928524 13.588561925289037  0.9655793566182808 13.588561925289037  L 17.767923750232736 13.588561925289037  L 17.767923750232736 10.97979167611336  L 15.936394174947418 10.97979167611336  L 12.206327777402338 7.414730577403063  L 9.395552911353997 10.077734948537081  L 5.571441351584318 5.632753434450519  L 1.804932462986587 10.943266657206058  L 1 10.960975732209189  L 1 0.3598719732877004  L 0 0.3598719732877004  L 0 12.687612052589841  Z " stroke-width="0" stroke-dasharray="0" stroke="rgba(255, 255, 255, 0)" fill="none" transform="matrix(1 0 0 1 450 154 )" class="stroke" mask="url(#Clip1068)" />
  </g>
</svg>