<?xml version="1.0" encoding="utf-8"?>
<svg version="1.1" xmlns:xlink="http://www.w3.org/1999/xlink" width="18px" height="2px" xmlns="http://www.w3.org/2000/svg">
  <defs>
    <pattern id="BGPattern" patternUnits="userSpaceOnUse" alignment="0 0" imageRepeat="None" />
    <mask fill="white" id="Clip1580">
      <path d="M 17.767923750232736 0.26567989849326024  L 0.9655793566182808 0.26567989849326024  C 0.9655793566182808 0.26567989849326024  0.00866979002172189 0.2401440317208574  0.00866979002172189 1.4868955749405242  L 17.767923750232736 1.4868955749405242  L 17.767923750232736 0.26567989849326024  Z " fill-rule="evenodd" />
    </mask>
  </defs>
  <g transform="matrix(1 0 0 1 -450 -153 )">
    <path d="M 17.767923750232736 0.26567989849326024  L 0.9655793566182808 0.26567989849326024  C 0.9655793566182808 0.26567989849326024  0.00866979002172189 0.2401440317208574  0.00866979002172189 1.4868955749405242  L 17.767923750232736 1.4868955749405242  L 17.767923750232736 0.26567989849326024  Z " fill-rule="nonzero" fill="rgba(102, 102, 102, 1)" stroke="none" transform="matrix(1 0 0 1 450 153 )" class="fill" />
    <path d="M 17.767923750232736 0.26567989849326024  L 0.9655793566182808 0.26567989849326024  C 0.9655793566182808 0.26567989849326024  0.00866979002172189 0.2401440317208574  0.00866979002172189 1.4868955749405242  L 17.767923750232736 1.4868955749405242  L 17.767923750232736 0.26567989849326024  Z " stroke-width="0" stroke-dasharray="0" stroke="rgba(255, 255, 255, 0)" fill="none" transform="matrix(1 0 0 1 450 153 )" class="stroke" mask="url(#Clip1580)" />
  </g>
</svg>