<?xml version="1.0" encoding="utf-8"?>
<svg version="1.1" xmlns:xlink="http://www.w3.org/1999/xlink" width="22px" height="21px" xmlns="http://www.w3.org/2000/svg">
  <defs>
    <pattern id="BGPattern" patternUnits="userSpaceOnUse" alignment="0 0" imageRepeat="None" />
    <mask fill="white" id="Clip1648">
      <path d="M 11.445503656914894 0.285950237771739  C 11.212944434901615 0.17654820429216378  10.941925910843063 0.17654820429216378  10.709366688829787 0.285950237771739  L 2.6510804521276596 4.0707116168478255  C 2.418436111540602 4.1800102607137735  2.249459049330965 4.386653585311738  2.191954787234043 4.632179857336956  L 0.2015874335106383 13.13659137228261  C 0.14426529255319168 13.382150135869567  0.20433011968085107 13.63974609375  0.36532579787234076 13.836621093749999  L 5.941755319148937 20.656627887228257  C 6.102690220787302 20.85349921006971  6.346776684830323 20.96819565713511  6.6049368351063835 20.968257472826085  L 15.549110704787235 20.968257472826085  C 15.807197473404255 20.968257472826085  16.051296542553192 20.85350288722826  16.212292220744683 20.656627887228257  L 21.788721742021274 13.836621093749997  C 21.9497581122832 13.639772694102318  22.010033448535676 13.3820778831601  21.95246010638298 13.13659137228261  L 19.96209275265958 4.632179857336958  C 19.904707424302604 4.386597728250947  19.735693723341363 4.179909597847153  19.502967087765956 4.070711616847826  L 11.445503656914894 0.285950237771739  Z " fill-rule="evenodd" />
    </mask>
  </defs>
  <g transform="matrix(1 0 0 1 -1166 -192 )">
    <path d="M 11.445503656914894 0.285950237771739  C 11.212944434901615 0.17654820429216378  10.941925910843063 0.17654820429216378  10.709366688829787 0.285950237771739  L 2.6510804521276596 4.0707116168478255  C 2.418436111540602 4.1800102607137735  2.249459049330965 4.386653585311738  2.191954787234043 4.632179857336956  L 0.2015874335106383 13.13659137228261  C 0.14426529255319168 13.382150135869567  0.20433011968085107 13.63974609375  0.36532579787234076 13.836621093749999  L 5.941755319148937 20.656627887228257  C 6.102690220787302 20.85349921006971  6.346776684830323 20.96819565713511  6.6049368351063835 20.968257472826085  L 15.549110704787235 20.968257472826085  C 15.807197473404255 20.968257472826085  16.051296542553192 20.85350288722826  16.212292220744683 20.656627887228257  L 21.788721742021274 13.836621093749997  C 21.9497581122832 13.639772694102318  22.010033448535676 13.3820778831601  21.95246010638298 13.13659137228261  L 19.96209275265958 4.632179857336958  C 19.904707424302604 4.386597728250947  19.735693723341363 4.179909597847153  19.502967087765956 4.070711616847826  L 11.445503656914894 0.285950237771739  Z " fill-rule="nonzero" fill="rgba(245, 217, 35, 1)" stroke="none" transform="matrix(1 0 0 1 1166 192 )" class="fill" />
    <path d="M 11.445503656914894 0.285950237771739  C 11.212944434901615 0.17654820429216378  10.941925910843063 0.17654820429216378  10.709366688829787 0.285950237771739  L 2.6510804521276596 4.0707116168478255  C 2.418436111540602 4.1800102607137735  2.249459049330965 4.386653585311738  2.191954787234043 4.632179857336956  L 0.2015874335106383 13.13659137228261  C 0.14426529255319168 13.382150135869567  0.20433011968085107 13.63974609375  0.36532579787234076 13.836621093749999  L 5.941755319148937 20.656627887228257  C 6.102690220787302 20.85349921006971  6.346776684830323 20.96819565713511  6.6049368351063835 20.968257472826085  L 15.549110704787235 20.968257472826085  C 15.807197473404255 20.968257472826085  16.051296542553192 20.85350288722826  16.212292220744683 20.656627887228257  L 21.788721742021274 13.836621093749997  C 21.9497581122832 13.639772694102318  22.010033448535676 13.3820778831601  21.95246010638298 13.13659137228261  L 19.96209275265958 4.632179857336958  C 19.904707424302604 4.386597728250947  19.735693723341363 4.179909597847153  19.502967087765956 4.070711616847826  L 11.445503656914894 0.285950237771739  Z " stroke-width="0" stroke-dasharray="0" stroke="rgba(255, 255, 255, 0)" fill="none" transform="matrix(1 0 0 1 1166 192 )" class="stroke" mask="url(#Clip1648)" />
  </g>
</svg>