<?xml version="1.0" encoding="utf-8"?>
<svg version="1.1" xmlns:xlink="http://www.w3.org/1999/xlink" width="36px" height="36px" xmlns="http://www.w3.org/2000/svg">
  <defs>
    <mask fill="white" id="Clip1967">
      <path d="M 18 41.5  C 8.287500000000001 41.5  0.5 33.7125  0.5 24  L 0.5 24  C 0.5 14.287500000000001  8.287500000000001 6.5  18 6.5  L 18 6.5  C 27.7125 6.5  35.5 14.287500000000001  35.5 24  L 35.5 24  C 35.5 33.7125  27.7125 41.5  18 41.5  L 18 41.5  " fill-rule="evenodd" />
    </mask>
  </defs>
  <g transform="matrix(1 0 0 1 0 -6 )">
    <path d="M 0 6  L 36 6  L 36 42  L 0 42  L 0 6  " fill-rule="nonzero" fill="rgba(204, 204, 204, 1)" stroke="none" class="fill" mask="url(#Clip1967)" />
    <path d="M 3 9  L 33 9  L 33 39  L 3 39  L 3 9  " fill-rule="nonzero" fill="rgba(255, 255, 255, 1)" stroke="none" class="fill" mask="url(#Clip1967)" />
    <path d="M 21.419999999999998 16.799999999999997  C 19.907999999999998 16.799999999999997  18.72 15.611999999999998  18.72 14.099999999999998  C 18.72 12.587999999999997  19.907999999999998 11.399999999999999  21.419999999999998 11.399999999999999  C 22.932 11.399999999999999  24.119999999999997 12.587999999999997  24.119999999999997 14.099999999999998  C 24.119999999999997 15.611999999999998  22.932 16.799999999999997  21.419999999999998 16.799999999999997  " fill-rule="nonzero" fill="rgba(204, 204, 204, 1)" stroke="none" class="fill" mask="url(#Clip1967)" />
    <path d="M 4 38  L 4 22.599999999999998  L 11 15.599999999999998  L 20.8 21.2  L 26.400000000000002 19.8  L 32 21.2  L 32 38  L 4 38  " fill-rule="nonzero" fill="rgba(22, 155, 213, 1)" stroke="none" class="fill" mask="url(#Clip1967)" />
    <path d="M 18 41.5  C 8.287500000000001 41.5  0.5 33.7125  0.5 24  L 0.5 24  C 0.5 14.287500000000001  8.287500000000001 6.5  18 6.5  L 18 6.5  C 27.7125 6.5  35.5 14.287500000000001  35.5 24  L 35.5 24  C 35.5 33.7125  27.7125 41.5  18 41.5  L 18 41.5  Z " stroke-width="1" stroke-dasharray="0" stroke="rgba(240, 246, 255, 1)" fill="none" class="stroke" />
  </g>
</svg>