<?xml version="1.0" encoding="utf-8"?>
<svg version="1.1" xmlns:xlink="http://www.w3.org/1999/xlink" width="13px" height="16px" xmlns="http://www.w3.org/2000/svg">
  <defs>
    <pattern id="BGPattern" patternUnits="userSpaceOnUse" alignment="0 0" imageRepeat="None" />
    <mask fill="white" id="Clip1662">
      <path d="M 6.332883522727273 15.604807692307693  C 6.184694602272727 15.870480769230769  5.817130681818181 15.873365384615385  5.665063920454546 15.610000000000001  L 4.864843749999999 11.77259615384615  C 4.7179285412863745 11.518121457936912  4.456034752239875 11.359811643973934  4.170987215909091 11.353173076923076  L 0.5748437499999999 12.534711538461536  C 0.27985085227272716 12.52807692307692  0.09980823863636355 12.194038461538462  0.247997159090909 11.928365384615384  L 6.608764204545453 0.5104807692307689  C 6.838941761363635 0.09711538461538462  7.347492897727273 -0.04365384615384581  7.744417613636363 0.1963461538461528  L 12.391732954545452 3.0042307692307673  C 12.788657670454544 3.243942307692305  12.923828124999996 3.773557692307689  12.693373579545453 4.186923076923075  L 6.332883522727273 15.604807692307693  Z " fill-rule="evenodd" />
    </mask>
  </defs>
  <g transform="matrix(1 0 0 1 -1163 -787 )">
    <path d="M 6.332883522727273 15.604807692307693  C 6.184694602272727 15.870480769230769  5.817130681818181 15.873365384615385  5.665063920454546 15.610000000000001  L 4.864843749999999 11.77259615384615  C 4.7179285412863745 11.518121457936912  4.456034752239875 11.359811643973934  4.170987215909091 11.353173076923076  L 0.5748437499999999 12.534711538461536  C 0.27985085227272716 12.52807692307692  0.09980823863636355 12.194038461538462  0.247997159090909 11.928365384615384  L 6.608764204545453 0.5104807692307689  C 6.838941761363635 0.09711538461538462  7.347492897727273 -0.04365384615384581  7.744417613636363 0.1963461538461528  L 12.391732954545452 3.0042307692307673  C 12.788657670454544 3.243942307692305  12.923828124999996 3.773557692307689  12.693373579545453 4.186923076923075  L 6.332883522727273 15.604807692307693  Z " fill-rule="nonzero" fill="rgba(215, 215, 215, 1)" stroke="none" transform="matrix(1 0 0 1 1163 787 )" class="fill" />
    <path d="M 6.332883522727273 15.604807692307693  C 6.184694602272727 15.870480769230769  5.817130681818181 15.873365384615385  5.665063920454546 15.610000000000001  L 4.864843749999999 11.77259615384615  C 4.7179285412863745 11.518121457936912  4.456034752239875 11.359811643973934  4.170987215909091 11.353173076923076  L 0.5748437499999999 12.534711538461536  C 0.27985085227272716 12.52807692307692  0.09980823863636355 12.194038461538462  0.247997159090909 11.928365384615384  L 6.608764204545453 0.5104807692307689  C 6.838941761363635 0.09711538461538462  7.347492897727273 -0.04365384615384581  7.744417613636363 0.1963461538461528  L 12.391732954545452 3.0042307692307673  C 12.788657670454544 3.243942307692305  12.923828124999996 3.773557692307689  12.693373579545453 4.186923076923075  L 6.332883522727273 15.604807692307693  Z " stroke-width="0" stroke-dasharray="0" stroke="rgba(255, 255, 255, 0)" fill="none" transform="matrix(1 0 0 1 1163 787 )" class="stroke" mask="url(#Clip1662)" />
  </g>
</svg>