<?xml version="1.0" encoding="utf-8"?>
<svg version="1.1" xmlns:xlink="http://www.w3.org/1999/xlink" width="13px" height="16px" xmlns="http://www.w3.org/2000/svg">
  <defs>
    <pattern id="BGPattern" patternUnits="userSpaceOnUse" alignment="0 0" imageRepeat="None" />
    <mask fill="white" id="Clip1663">
      <path d="M 6.6495738636363635 15.604807692307693  C 6.797208806818183 15.870480769230769  7.1647727272727275 15.873365384615385  7.316839488636364 15.610000000000001  L 8.117059659090907 11.77259615384615  C 8.263974867804531 11.518121457936912  8.525868656851033 11.359811643973934  8.81091619318182 11.353173076923076  L 12.407059659090912 12.534423076923076  C 12.702052556818185 12.52778846153846  12.882095170454548 12.19375  12.733906250000002 11.928076923076924  L 6.37341619318182 0.5104807692307689  C 6.143238636363638 0.09711538461538462  5.634687500000003 -0.04365384615384581  5.2377627840909105 0.1963461538461528  L 0.5904474431818199 3.0042307692307673  C 0.1935227272727293 3.243942307692305  0.05835227272727508 3.773557692307689  0.2888068181818192 4.186923076923075  L 6.6495738636363635 15.604807692307693  Z " fill-rule="evenodd" />
    </mask>
  </defs>
  <g transform="matrix(1 0 0 1 -1174 -787 )">
    <path d="M 6.6495738636363635 15.604807692307693  C 6.797208806818183 15.870480769230769  7.1647727272727275 15.873365384615385  7.316839488636364 15.610000000000001  L 8.117059659090907 11.77259615384615  C 8.263974867804531 11.518121457936912  8.525868656851033 11.359811643973934  8.81091619318182 11.353173076923076  L 12.407059659090912 12.534423076923076  C 12.702052556818185 12.52778846153846  12.882095170454548 12.19375  12.733906250000002 11.928076923076924  L 6.37341619318182 0.5104807692307689  C 6.143238636363638 0.09711538461538462  5.634687500000003 -0.04365384615384581  5.2377627840909105 0.1963461538461528  L 0.5904474431818199 3.0042307692307673  C 0.1935227272727293 3.243942307692305  0.05835227272727508 3.773557692307689  0.2888068181818192 4.186923076923075  L 6.6495738636363635 15.604807692307693  Z " fill-rule="nonzero" fill="rgba(215, 215, 215, 1)" stroke="none" transform="matrix(1 0 0 1 1174 787 )" class="fill" />
    <path d="M 6.6495738636363635 15.604807692307693  C 6.797208806818183 15.870480769230769  7.1647727272727275 15.873365384615385  7.316839488636364 15.610000000000001  L 8.117059659090907 11.77259615384615  C 8.263974867804531 11.518121457936912  8.525868656851033 11.359811643973934  8.81091619318182 11.353173076923076  L 12.407059659090912 12.534423076923076  C 12.702052556818185 12.52778846153846  12.882095170454548 12.19375  12.733906250000002 11.928076923076924  L 6.37341619318182 0.5104807692307689  C 6.143238636363638 0.09711538461538462  5.634687500000003 -0.04365384615384581  5.2377627840909105 0.1963461538461528  L 0.5904474431818199 3.0042307692307673  C 0.1935227272727293 3.243942307692305  0.05835227272727508 3.773557692307689  0.2888068181818192 4.186923076923075  L 6.6495738636363635 15.604807692307693  Z " stroke-width="0" stroke-dasharray="0" stroke="rgba(255, 255, 255, 0)" fill="none" transform="matrix(1 0 0 1 1174 787 )" class="stroke" mask="url(#Clip1663)" />
  </g>
</svg>