<?xml version="1.0" encoding="utf-8"?>
<svg version="1.1" xmlns:xlink="http://www.w3.org/1999/xlink" width="14px" height="14px" xmlns="http://www.w3.org/2000/svg">
  <defs>
    <pattern id="BGPattern" patternUnits="userSpaceOnUse" alignment="0 0" imageRepeat="None" />
    <mask fill="white" id="Clip951">
      <path d="M 0.14765625000000016 6.91773097826087  C 0.14765625000000016 10.726732342905704  3.2354619505725566 13.814538043478263  7.044463315217394 13.814538043478263  C 10.853464679862231 13.814538043478263  13.941270380434784 10.726732342905706  13.941270380434784 6.91773097826087  C 13.941270380434784 3.1087296136160334  10.853464679862231 0.02092391304347869  7.044463315217395 0.02092391304347869  C 3.2354619505725584 0.02092391304347869  0.14765625000000376 3.1087296136160334  0.14765625000000376 6.91773097826087  Z " fill-rule="evenodd" />
    </mask>
  </defs>
  <g transform="matrix(1 0 0 1 -1170 -236 )">
    <path d="M 0.14765625000000016 6.91773097826087  C 0.14765625000000016 10.726732342905704  3.2354619505725566 13.814538043478263  7.044463315217394 13.814538043478263  C 10.853464679862231 13.814538043478263  13.941270380434784 10.726732342905706  13.941270380434784 6.91773097826087  C 13.941270380434784 3.1087296136160334  10.853464679862231 0.02092391304347869  7.044463315217395 0.02092391304347869  C 3.2354619505725584 0.02092391304347869  0.14765625000000376 3.1087296136160334  0.14765625000000376 6.91773097826087  Z " fill-rule="nonzero" fill="rgba(255, 255, 255, 1)" stroke="none" transform="matrix(1 0 0 1 1170 236 )" class="fill" />
    <path d="M 0.14765625000000016 6.91773097826087  C 0.14765625000000016 10.726732342905704  3.2354619505725566 13.814538043478263  7.044463315217394 13.814538043478263  C 10.853464679862231 13.814538043478263  13.941270380434784 10.726732342905706  13.941270380434784 6.91773097826087  C 13.941270380434784 3.1087296136160334  10.853464679862231 0.02092391304347869  7.044463315217395 0.02092391304347869  C 3.2354619505725584 0.02092391304347869  0.14765625000000376 3.1087296136160334  0.14765625000000376 6.91773097826087  Z " stroke-width="0" stroke-dasharray="0" stroke="rgba(255, 255, 255, 0)" fill="none" transform="matrix(1 0 0 1 1170 236 )" class="stroke" mask="url(#Clip951)" />
  </g>
</svg>