<?xml version="1.0" encoding="utf-8"?>
<svg version="1.1" xmlns:xlink="http://www.w3.org/1999/xlink" width="27px" height="24px" xmlns="http://www.w3.org/2000/svg">
  <defs>
    <path d="M 0 0  L 1062 0  L 1062 1024  L 0 1024  Z " fill-rule="evenodd" fill="black" id="path1669" />
    <clipPath id="clip1670">
      <use xlink:href="#path1669" />
    </clipPath>
    <filter x="-50.00%" y="-50.00%" width="200.00%" height="200.00%" filterUnits="objectBoundingBox" color-interpolation-filters="sRGB" id="Filter1671">
      <feColorMatrix type="matrix" values="1 0 0 0 0  0 1 0 0 0  0 0 1 0 0  0 0 0 1 0  " in="SourceGraphic" />
    </filter>
  </defs>
  <g transform="matrix(1 0 0 1 -499 -228 )">
    <g transform="matrix(0.0234375 0 0 0.0234375 500.0546875 228 )" clip-path="url(#clip1670)" filter="url(#Filter1671)">
      <path d="M1019.465882 938.043796h-91.130825a42.259405 42.259405 0 0 0 0-5.749579V437.542953a42.834363 42.834363 0 0 0-42.834363-42.834362 42.834363 42.834363 0 0 0-42.834363 42.834362v494.463785a42.259405 42.259405 0 0 0 0 5.749579h-117.578888a42.259405 42.259405 0 0 0 0-5.749579V630.441325a42.834363 42.834363 0 0 0-42.834363-42.834363 42.834363 42.834363 0 0 0-42.834362 42.834363v301.852892a42.259405 42.259405 0 0 0 0 5.749579h-100.042673a42.259405 42.259405 0 0 0 0-5.749579V536.148231a42.834363 42.834363 0 0 0-86.243683 0v395.858507a42.259405 42.259405 0 0 0 0 5.749579H350.789857a42.546884 42.546884 0 0 0 0-6.037058v-169.325098a42.834363 42.834363 0 1 0-86.243683 0v169.325098a42.546884 42.546884 0 0 0 0 6.037058H80.272171V194.623245A42.834363 42.834363 0 0 0 37.437808 151.788883h2.58731A40.534531 40.534531 0 0 0 0.065545 194.623245v829.376755h1019.400337a42.834363 42.834363 0 0 0 42.834363-42.834363 42.834363 42.834363 0 0 0-42.834363-43.121841z" fill="#EDF001" p-id="22055"></path>
      <path d="M316.292384 459.966311l187.436272-187.436272 169.037619 169.03762L961.970093 150.064009v46.859068A42.834363 42.834363 0 0 0 1006.241851 239.75744a42.834363 42.834363 0 0 0 42.834362-42.834363V42.834363A42.834363 42.834363 0 0 0 1006.241851 0h-143.739473a42.834363 42.834363 0 0 0-42.834362 42.834363A42.834363 42.834363 0 0 0 860.490026 86.243683h45.134194l-234.29534 234.29534-169.037619-169.612577-247.80685 247.80685A42.834363 42.834363 0 1 0 316.292384 459.966311z" fill="#EDF001" p-id="22056"></path>
    </g>
  </g>
</svg>