<?xml version="1.0" encoding="utf-8"?>
<svg version="1.1" xmlns:xlink="http://www.w3.org/1999/xlink" width="13px" height="15px" xmlns="http://www.w3.org/2000/svg">
  <defs>
    <pattern id="BGPattern" patternUnits="userSpaceOnUse" alignment="0 0" imageRepeat="None" />
    <mask fill="white" id="Clip948">
      <path d="M 6.332883522727273 14.629507211538462  C 6.184694602272727 14.878575721153846  5.817130681818181 14.881280048076922  5.665063920454546 14.634375  L 4.864843749999999 11.036808894230766  C 4.7179285412863745 10.798238866815856  4.456034752239875 10.649823416225564  4.170987215909091 10.643599759615384  L 0.5748437499999999 11.751292067307691  C 0.27985085227272716 11.745072115384612  0.09980823863636355 11.431911057692307  0.247997159090909 11.182842548076923  L 6.608764204545453 0.47857572115384583  C 6.838941761363635 0.09104567307692307  7.347492897727273 -0.04092548076923044  7.744417613636363 0.18407451923076826  L 12.391732954545452 2.8164663461538444  C 12.788657670454544 3.041195913461536  12.923828124999996 3.537710336538458  12.693373579545453 3.925240384615383  L 6.332883522727273 14.629507211538462  Z " fill-rule="evenodd" />
    </mask>
  </defs>
  <g transform="matrix(1 0 0 1 -1165 -243 )">
    <path d="M 6.332883522727273 14.629507211538462  C 6.184694602272727 14.878575721153846  5.817130681818181 14.881280048076922  5.665063920454546 14.634375  L 4.864843749999999 11.036808894230766  C 4.7179285412863745 10.798238866815856  4.456034752239875 10.649823416225564  4.170987215909091 10.643599759615384  L 0.5748437499999999 11.751292067307691  C 0.27985085227272716 11.745072115384612  0.09980823863636355 11.431911057692307  0.247997159090909 11.182842548076923  L 6.608764204545453 0.47857572115384583  C 6.838941761363635 0.09104567307692307  7.347492897727273 -0.04092548076923044  7.744417613636363 0.18407451923076826  L 12.391732954545452 2.8164663461538444  C 12.788657670454544 3.041195913461536  12.923828124999996 3.537710336538458  12.693373579545453 3.925240384615383  L 6.332883522727273 14.629507211538462  Z " fill-rule="nonzero" fill="rgba(215, 215, 215, 1)" stroke="none" transform="matrix(1 0 0 1 1165 243 )" class="fill" />
    <path d="M 6.332883522727273 14.629507211538462  C 6.184694602272727 14.878575721153846  5.817130681818181 14.881280048076922  5.665063920454546 14.634375  L 4.864843749999999 11.036808894230766  C 4.7179285412863745 10.798238866815856  4.456034752239875 10.649823416225564  4.170987215909091 10.643599759615384  L 0.5748437499999999 11.751292067307691  C 0.27985085227272716 11.745072115384612  0.09980823863636355 11.431911057692307  0.247997159090909 11.182842548076923  L 6.608764204545453 0.47857572115384583  C 6.838941761363635 0.09104567307692307  7.347492897727273 -0.04092548076923044  7.744417613636363 0.18407451923076826  L 12.391732954545452 2.8164663461538444  C 12.788657670454544 3.041195913461536  12.923828124999996 3.537710336538458  12.693373579545453 3.925240384615383  L 6.332883522727273 14.629507211538462  Z " stroke-width="0" stroke-dasharray="0" stroke="rgba(255, 255, 255, 0)" fill="none" transform="matrix(1 0 0 1 1165 243 )" class="stroke" mask="url(#Clip948)" />
  </g>
</svg>