<?xml version="1.0" encoding="utf-8"?>
<svg version="1.1" xmlns:xlink="http://www.w3.org/1999/xlink" width="24px" height="24px" xmlns="http://www.w3.org/2000/svg">
  <defs>
    <pattern id="BGPattern" patternUnits="userSpaceOnUse" alignment="0 0" imageRepeat="None" />
    <mask fill="white" id="Clip394">
      <path d="M 4.655769230769147 4.655769230769147  C 6.617307692307804 2.6942307692308534  9.225000000000001 1.6153846153845732  12 1.6153846153845732  C 14.774999999999999 1.6153846153845732  17.382692307692196 2.6942307692308534  19.344230769230855 4.655769230769147  C 21.305769230769144 6.617307692307622  22.384615384615245 9.225000000000001  22.384615384615245 12  C 22.384615384615245 14.774999999999999  21.305769230769144 17.382692307692377  19.344230769230855 19.344230769230855  C 17.382692307692196 21.305769230769144  14.774999999999999 22.38461538461543  12 22.38461538461543  C 9.225000000000001 22.38461538461543  6.617307692307804 21.305769230769144  4.655769230769147 19.344230769230855  C 2.6942307692308534 17.382692307692377  1.6153846153847553 14.774999999999999  1.6153846153847553 12  C 1.6153846153847553 9.225000000000001  2.6942307692308534 6.617307692307622  4.655769230769147 4.655769230769147  Z M 24 12  C 24 5.371153846153902  18.628846153846098 0  12 0  C 5.371153846153902 0  0 5.371153846153902  0 12  C 0 18.628846153846098  5.371153846153902 24  12 24  C 18.628846153846098 24  24 18.628846153846098  24 12  Z " fill-rule="evenodd" />
    </mask>
  </defs>
  <g transform="matrix(1 0 0 1 -882 -5 )">
    <path d="M 4.655769230769147 4.655769230769147  C 6.617307692307804 2.6942307692308534  9.225000000000001 1.6153846153845732  12 1.6153846153845732  C 14.774999999999999 1.6153846153845732  17.382692307692196 2.6942307692308534  19.344230769230855 4.655769230769147  C 21.305769230769144 6.617307692307622  22.384615384615245 9.225000000000001  22.384615384615245 12  C 22.384615384615245 14.774999999999999  21.305769230769144 17.382692307692377  19.344230769230855 19.344230769230855  C 17.382692307692196 21.305769230769144  14.774999999999999 22.38461538461543  12 22.38461538461543  C 9.225000000000001 22.38461538461543  6.617307692307804 21.305769230769144  4.655769230769147 19.344230769230855  C 2.6942307692308534 17.382692307692377  1.6153846153847553 14.774999999999999  1.6153846153847553 12  C 1.6153846153847553 9.225000000000001  2.6942307692308534 6.617307692307622  4.655769230769147 4.655769230769147  Z M 24 12  C 24 5.371153846153902  18.628846153846098 0  12 0  C 5.371153846153902 0  0 5.371153846153902  0 12  C 0 18.628846153846098  5.371153846153902 24  12 24  C 18.628846153846098 24  24 18.628846153846098  24 12  Z " fill-rule="nonzero" fill="rgba(96, 98, 102, 1)" stroke="none" transform="matrix(1 0 0 1 882 5 )" class="fill" />
    <path d="M 4.655769230769147 4.655769230769147  C 6.617307692307804 2.6942307692308534  9.225000000000001 1.6153846153845732  12 1.6153846153845732  C 14.774999999999999 1.6153846153845732  17.382692307692196 2.6942307692308534  19.344230769230855 4.655769230769147  C 21.305769230769144 6.617307692307622  22.384615384615245 9.225000000000001  22.384615384615245 12  C 22.384615384615245 14.774999999999999  21.305769230769144 17.382692307692377  19.344230769230855 19.344230769230855  C 17.382692307692196 21.305769230769144  14.774999999999999 22.38461538461543  12 22.38461538461543  C 9.225000000000001 22.38461538461543  6.617307692307804 21.305769230769144  4.655769230769147 19.344230769230855  C 2.6942307692308534 17.382692307692377  1.6153846153847553 14.774999999999999  1.6153846153847553 12  C 1.6153846153847553 9.225000000000001  2.6942307692308534 6.617307692307622  4.655769230769147 4.655769230769147  Z " stroke-width="0" stroke-dasharray="0" stroke="rgba(255, 255, 255, 0)" fill="none" transform="matrix(1 0 0 1 882 5 )" class="stroke" mask="url(#Clip394)" />
    <path d="M 24 12  C 24 5.371153846153902  18.628846153846098 0  12 0  C 5.371153846153902 0  0 5.371153846153902  0 12  C 0 18.628846153846098  5.371153846153902 24  12 24  C 18.628846153846098 24  24 18.628846153846098  24 12  Z " stroke-width="0" stroke-dasharray="0" stroke="rgba(255, 255, 255, 0)" fill="none" transform="matrix(1 0 0 1 882 5 )" class="stroke" mask="url(#Clip394)" />
  </g>
</svg>