<?xml version="1.0" encoding="utf-8"?>
<svg version="1.1" xmlns:xlink="http://www.w3.org/1999/xlink" width="14px" height="13px" xmlns="http://www.w3.org/2000/svg">
  <defs>
    <pattern id="BGPattern" patternUnits="userSpaceOnUse" alignment="0 0" imageRepeat="None" />
    <mask fill="white" id="Clip1734">
      <path d="M 0.6637931034482758 6.0096982758620685  L 6.4719827586206895 6.0096982758620685  L 6.4719827586206895 0.6163793103448275  C 6.471982758620691 0.4732112068965518  6.521440373563218 0.35570222701149423  6.620355603448276 0.2638523706896553  C 6.719270833333333 0.17200251436781633  6.845818965517243 0.12607758620689677  7 0.12607758620689655  C 7.154181034482758 0.12607758620689655  7.280729166666666 0.17200251436781613  7.379644396551725 0.2638523706896553  C 7.478559626436783 0.3557022270114947  7.528017241379312 0.4732112068965521  7.5280172413793105 0.6163793103448275  L 7.5280172413793105 6.0096982758620685  L 13.336206896551724 6.0096982758620685  C 13.490387931034483 6.009698275862071  13.616936063218393 6.055623204022988  13.71585129310345 6.1474730603448275  C 13.81476652298851 6.239322916666667  13.864224137931037 6.356831896551726  13.864224137931036 6.5  C 13.864224137931036 6.643168103448276  13.814766522988506 6.7606770833333325  13.71585129310345 6.8525269396551725  C 13.616936063218395 6.944376795977012  13.490387931034485 6.990301724137932  13.336206896551724 6.9903017241379315  L 7.5280172413793105 6.9903017241379315  L 7.5280172413793105 12.383620689655173  C 7.5280172413793105 12.526788793103448  7.478559626436783 12.644297772988509  7.379644396551725 12.736147629310347  C 7.280729166666669 12.827997485632189  7.154181034482758 12.873922413793107  7 12.873922413793103  C 6.845818965517241 12.873922413793103  6.719270833333333 12.827997485632183  6.620355603448276 12.736147629310347  C 6.521440373563221 12.644297772988509  6.471982758620691 12.526788793103451  6.4719827586206895 12.383620689655173  L 6.4719827586206895 6.9903017241379315  L 0.6637931034482758 6.9903017241379315  C 0.5096120689655173 6.9903017241379315  0.3830639367816092 6.944376795977012  0.28414870689655186 6.8525269396551725  C 0.1852334770114945 6.760677083333336  0.13577586206896575 6.643168103448276  0.13577586206896552 6.5  C 0.13577586206896552 6.356831896551723  0.18523347701149429 6.239322916666667  0.28414870689655186 6.1474730603448275  C 0.3830639367816096 6.055623204022991  0.5096120689655177 6.009698275862071  0.6637931034482758 6.0096982758620685  Z " fill-rule="evenodd" />
    </mask>
  </defs>
  <g transform="matrix(1 0 0 1 -835 -265 )">
    <path d="M 0.6637931034482758 6.0096982758620685  L 6.4719827586206895 6.0096982758620685  L 6.4719827586206895 0.6163793103448275  C 6.471982758620691 0.4732112068965518  6.521440373563218 0.35570222701149423  6.620355603448276 0.2638523706896553  C 6.719270833333333 0.17200251436781633  6.845818965517243 0.12607758620689677  7 0.12607758620689655  C 7.154181034482758 0.12607758620689655  7.280729166666666 0.17200251436781613  7.379644396551725 0.2638523706896553  C 7.478559626436783 0.3557022270114947  7.528017241379312 0.4732112068965521  7.5280172413793105 0.6163793103448275  L 7.5280172413793105 6.0096982758620685  L 13.336206896551724 6.0096982758620685  C 13.490387931034483 6.009698275862071  13.616936063218393 6.055623204022988  13.71585129310345 6.1474730603448275  C 13.81476652298851 6.239322916666667  13.864224137931037 6.356831896551726  13.864224137931036 6.5  C 13.864224137931036 6.643168103448276  13.814766522988506 6.7606770833333325  13.71585129310345 6.8525269396551725  C 13.616936063218395 6.944376795977012  13.490387931034485 6.990301724137932  13.336206896551724 6.9903017241379315  L 7.5280172413793105 6.9903017241379315  L 7.5280172413793105 12.383620689655173  C 7.5280172413793105 12.526788793103448  7.478559626436783 12.644297772988509  7.379644396551725 12.736147629310347  C 7.280729166666669 12.827997485632189  7.154181034482758 12.873922413793107  7 12.873922413793103  C 6.845818965517241 12.873922413793103  6.719270833333333 12.827997485632183  6.620355603448276 12.736147629310347  C 6.521440373563221 12.644297772988509  6.471982758620691 12.526788793103451  6.4719827586206895 12.383620689655173  L 6.4719827586206895 6.9903017241379315  L 0.6637931034482758 6.9903017241379315  C 0.5096120689655173 6.9903017241379315  0.3830639367816092 6.944376795977012  0.28414870689655186 6.8525269396551725  C 0.1852334770114945 6.760677083333336  0.13577586206896575 6.643168103448276  0.13577586206896552 6.5  C 0.13577586206896552 6.356831896551723  0.18523347701149429 6.239322916666667  0.28414870689655186 6.1474730603448275  C 0.3830639367816096 6.055623204022991  0.5096120689655177 6.009698275862071  0.6637931034482758 6.0096982758620685  Z " fill-rule="nonzero" fill="rgba(255, 255, 255, 1)" stroke="none" transform="matrix(1 0 0 1 835 265 )" class="fill" />
    <path d="M 0.6637931034482758 6.0096982758620685  L 6.4719827586206895 6.0096982758620685  L 6.4719827586206895 0.6163793103448275  C 6.471982758620691 0.4732112068965518  6.521440373563218 0.35570222701149423  6.620355603448276 0.2638523706896553  C 6.719270833333333 0.17200251436781633  6.845818965517243 0.12607758620689677  7 0.12607758620689655  C 7.154181034482758 0.12607758620689655  7.280729166666666 0.17200251436781613  7.379644396551725 0.2638523706896553  C 7.478559626436783 0.3557022270114947  7.528017241379312 0.4732112068965521  7.5280172413793105 0.6163793103448275  L 7.5280172413793105 6.0096982758620685  L 13.336206896551724 6.0096982758620685  C 13.490387931034483 6.009698275862071  13.616936063218393 6.055623204022988  13.71585129310345 6.1474730603448275  C 13.81476652298851 6.239322916666667  13.864224137931037 6.356831896551726  13.864224137931036 6.5  C 13.864224137931036 6.643168103448276  13.814766522988506 6.7606770833333325  13.71585129310345 6.8525269396551725  C 13.616936063218395 6.944376795977012  13.490387931034485 6.990301724137932  13.336206896551724 6.9903017241379315  L 7.5280172413793105 6.9903017241379315  L 7.5280172413793105 12.383620689655173  C 7.5280172413793105 12.526788793103448  7.478559626436783 12.644297772988509  7.379644396551725 12.736147629310347  C 7.280729166666669 12.827997485632189  7.154181034482758 12.873922413793107  7 12.873922413793103  C 6.845818965517241 12.873922413793103  6.719270833333333 12.827997485632183  6.620355603448276 12.736147629310347  C 6.521440373563221 12.644297772988509  6.471982758620691 12.526788793103451  6.4719827586206895 12.383620689655173  L 6.4719827586206895 6.9903017241379315  L 0.6637931034482758 6.9903017241379315  C 0.5096120689655173 6.9903017241379315  0.3830639367816092 6.944376795977012  0.28414870689655186 6.8525269396551725  C 0.1852334770114945 6.760677083333336  0.13577586206896575 6.643168103448276  0.13577586206896552 6.5  C 0.13577586206896552 6.356831896551723  0.18523347701149429 6.239322916666667  0.28414870689655186 6.1474730603448275  C 0.3830639367816096 6.055623204022991  0.5096120689655177 6.009698275862071  0.6637931034482758 6.0096982758620685  Z " stroke-width="0" stroke-dasharray="0" stroke="rgba(240, 246, 255, 1)" fill="none" transform="matrix(1 0 0 1 835 265 )" class="stroke" mask="url(#Clip1734)" />
  </g>
</svg>