<?xml version="1.0" encoding="utf-8"?>
<svg version="1.1" xmlns:xlink="http://www.w3.org/1999/xlink" width="16px" height="12px" xmlns="http://www.w3.org/2000/svg">
  <defs>
    <pattern id="BGPattern" patternUnits="userSpaceOnUse" alignment="0 0" imageRepeat="None" />
    <mask fill="white" id="Clip1740">
      <path d="M 15.90370370370374 1.8506024096384408  C 16.0074074074073 1.7277108433734156  16.0074074074073 1.5469879518072958  15.896296296296214 1.4385542168674874  L 14.59259259259261 0.1301204819276336  C 14.54074074074083 0.0722891566265389  14.45925925925917 0.043373493975877864  14.385185185185264 0.043373493975877864  C 14.303703703703604 0.043373493975877864  14.229629629629699 0.0722891566265389  14.177777777777692 0.1301204819276336  L 5.140740740740739 9.014457831325217  L 1.8518518518519613 5.804819277108436  C 1.792592592592655 5.746987951807341  1.7185185185185219 5.71807228915668  1.6444444444443889 5.71807228915668  C 1.5703703703702558 5.71807228915668  1.4962962962963502 5.746987951807341  1.4370370370370438 5.804819277108436  L 0.11851851851861284 7.091566265060237  C 0 7.207228915662654  0 7.387951807229001  0.11851851851861284 7.503614457831418  L 4.2666666666666515 11.55180722891555  C 4.533333333333303 11.812048192771044  4.859259259259261 11.96385542168673  5.133333333333439 11.96385542168673  C 5.525925925926003 11.96385542168673  5.866666666666561 11.68192771084341  5.9925925925927 11.566265060240994  L 6 11.566265060240994  L 15.90370370370374 1.8506024096384408  Z " fill-rule="evenodd" />
    </mask>
  </defs>
  <g transform="matrix(1 0 0 1 -21 -29 )">
    <path d="M 15.90370370370374 1.8506024096384408  C 16.0074074074073 1.7277108433734156  16.0074074074073 1.5469879518072958  15.896296296296214 1.4385542168674874  L 14.59259259259261 0.1301204819276336  C 14.54074074074083 0.0722891566265389  14.45925925925917 0.043373493975877864  14.385185185185264 0.043373493975877864  C 14.303703703703604 0.043373493975877864  14.229629629629699 0.0722891566265389  14.177777777777692 0.1301204819276336  L 5.140740740740739 9.014457831325217  L 1.8518518518519613 5.804819277108436  C 1.792592592592655 5.746987951807341  1.7185185185185219 5.71807228915668  1.6444444444443889 5.71807228915668  C 1.5703703703702558 5.71807228915668  1.4962962962963502 5.746987951807341  1.4370370370370438 5.804819277108436  L 0.11851851851861284 7.091566265060237  C 0 7.207228915662654  0 7.387951807229001  0.11851851851861284 7.503614457831418  L 4.2666666666666515 11.55180722891555  C 4.533333333333303 11.812048192771044  4.859259259259261 11.96385542168673  5.133333333333439 11.96385542168673  C 5.525925925926003 11.96385542168673  5.866666666666561 11.68192771084341  5.9925925925927 11.566265060240994  L 6 11.566265060240994  L 15.90370370370374 1.8506024096384408  Z " fill-rule="nonzero" fill="rgba(64, 158, 255, 1)" stroke="none" transform="matrix(1 0 0 1 21 29 )" class="fill" />
    <path d="M 15.90370370370374 1.8506024096384408  C 16.0074074074073 1.7277108433734156  16.0074074074073 1.5469879518072958  15.896296296296214 1.4385542168674874  L 14.59259259259261 0.1301204819276336  C 14.54074074074083 0.0722891566265389  14.45925925925917 0.043373493975877864  14.385185185185264 0.043373493975877864  C 14.303703703703604 0.043373493975877864  14.229629629629699 0.0722891566265389  14.177777777777692 0.1301204819276336  L 5.140740740740739 9.014457831325217  L 1.8518518518519613 5.804819277108436  C 1.792592592592655 5.746987951807341  1.7185185185185219 5.71807228915668  1.6444444444443889 5.71807228915668  C 1.5703703703702558 5.71807228915668  1.4962962962963502 5.746987951807341  1.4370370370370438 5.804819277108436  L 0.11851851851861284 7.091566265060237  C 0 7.207228915662654  0 7.387951807229001  0.11851851851861284 7.503614457831418  L 4.2666666666666515 11.55180722891555  C 4.533333333333303 11.812048192771044  4.859259259259261 11.96385542168673  5.133333333333439 11.96385542168673  C 5.525925925926003 11.96385542168673  5.866666666666561 11.68192771084341  5.9925925925927 11.566265060240994  L 6 11.566265060240994  L 15.90370370370374 1.8506024096384408  Z " stroke-width="0" stroke-dasharray="0" stroke="rgba(255, 255, 255, 0)" fill="none" transform="matrix(1 0 0 1 21 29 )" class="stroke" mask="url(#Clip1740)" />
  </g>
</svg>