<?xml version="1.0" encoding="utf-8"?>
<svg version="1.1" xmlns:xlink="http://www.w3.org/1999/xlink" width="30px" height="30px" xmlns="http://www.w3.org/2000/svg">
  <defs>
    <pattern id="BGPattern" patternUnits="userSpaceOnUse" alignment="0 0" imageRepeat="None" />
    <mask fill="white" id="Clip1346">
      <path d="M 5.8197115384614335 5.8197115384614335  C 8.271634615384528 3.3677884615385665  11.53125 2.0192307692307168  15 2.0192307692307168  C 18.46875 2.0192307692307168  21.728365384615472 3.3677884615385665  24.180288461538566 5.8197115384614335  C 26.632211538461434 8.271634615384528  27.980769230769283 11.53125  27.980769230769283 15  C 27.980769230769283 18.46875  26.632211538461434 21.728365384615472  24.180288461538566 24.180288461538566  C 21.728365384615472 26.632211538461434  18.46875 27.980769230769283  15 27.980769230769283  C 11.53125 27.980769230769283  8.271634615384528 26.632211538461434  5.8197115384614335 24.180288461538566  C 3.3677884615385665 21.728365384615472  2.0192307692307168 18.46875  2.0192307692307168 15  C 2.0192307692307168 11.53125  3.3677884615385665 8.271634615384528  5.8197115384614335 5.8197115384614335  Z M 30 15  C 30 6.713942307692378  23.286057692307622 0  15 0  C 6.713942307692378 0  0 6.713942307692378  0 15  C 0 23.286057692307622  6.713942307692378 30  15 30  C 23.286057692307622 30  30 23.286057692307622  30 15  Z " fill-rule="evenodd" />
    </mask>
  </defs>
  <g transform="matrix(1 0 0 1 -14 -20 )">
    <path d="M 5.8197115384614335 5.8197115384614335  C 8.271634615384528 3.3677884615385665  11.53125 2.0192307692307168  15 2.0192307692307168  C 18.46875 2.0192307692307168  21.728365384615472 3.3677884615385665  24.180288461538566 5.8197115384614335  C 26.632211538461434 8.271634615384528  27.980769230769283 11.53125  27.980769230769283 15  C 27.980769230769283 18.46875  26.632211538461434 21.728365384615472  24.180288461538566 24.180288461538566  C 21.728365384615472 26.632211538461434  18.46875 27.980769230769283  15 27.980769230769283  C 11.53125 27.980769230769283  8.271634615384528 26.632211538461434  5.8197115384614335 24.180288461538566  C 3.3677884615385665 21.728365384615472  2.0192307692307168 18.46875  2.0192307692307168 15  C 2.0192307692307168 11.53125  3.3677884615385665 8.271634615384528  5.8197115384614335 5.8197115384614335  Z M 30 15  C 30 6.713942307692378  23.286057692307622 0  15 0  C 6.713942307692378 0  0 6.713942307692378  0 15  C 0 23.286057692307622  6.713942307692378 30  15 30  C 23.286057692307622 30  30 23.286057692307622  30 15  Z " fill-rule="nonzero" fill="rgba(64, 158, 255, 1)" stroke="none" transform="matrix(1 0 0 1 14 20 )" class="fill" />
    <path d="M 5.8197115384614335 5.8197115384614335  C 8.271634615384528 3.3677884615385665  11.53125 2.0192307692307168  15 2.0192307692307168  C 18.46875 2.0192307692307168  21.728365384615472 3.3677884615385665  24.180288461538566 5.8197115384614335  C 26.632211538461434 8.271634615384528  27.980769230769283 11.53125  27.980769230769283 15  C 27.980769230769283 18.46875  26.632211538461434 21.728365384615472  24.180288461538566 24.180288461538566  C 21.728365384615472 26.632211538461434  18.46875 27.980769230769283  15 27.980769230769283  C 11.53125 27.980769230769283  8.271634615384528 26.632211538461434  5.8197115384614335 24.180288461538566  C 3.3677884615385665 21.728365384615472  2.0192307692307168 18.46875  2.0192307692307168 15  C 2.0192307692307168 11.53125  3.3677884615385665 8.271634615384528  5.8197115384614335 5.8197115384614335  Z " stroke-width="0" stroke-dasharray="0" stroke="rgba(255, 255, 255, 0)" fill="none" transform="matrix(1 0 0 1 14 20 )" class="stroke" mask="url(#Clip1346)" />
    <path d="M 30 15  C 30 6.713942307692378  23.286057692307622 0  15 0  C 6.713942307692378 0  0 6.713942307692378  0 15  C 0 23.286057692307622  6.713942307692378 30  15 30  C 23.286057692307622 30  30 23.286057692307622  30 15  Z " stroke-width="0" stroke-dasharray="0" stroke="rgba(255, 255, 255, 0)" fill="none" transform="matrix(1 0 0 1 14 20 )" class="stroke" mask="url(#Clip1346)" />
  </g>
</svg>