<?xml version="1.0" encoding="utf-8"?>
<svg version="1.1" xmlns:xlink="http://www.w3.org/1999/xlink" width="3px" height="14px" xmlns="http://www.w3.org/2000/svg">
  <defs>
    <pattern id="BGPattern" patternUnits="userSpaceOnUse" alignment="0 0" imageRepeat="None" />
    <mask fill="white" id="Clip1552">
      <path d="M 1.4928571428571331 2.813999999999851  C 0.6928571428571217 2.813999999999851  0.028571428571410706 2.211999999999989  0.028571428571410706 1.4140000000002146  C 0.028571428571410706 0.6159999999999854  0.6928571428571217 0.021000000000185537  1.4928571428571331 0.021000000000185537  C 2.3071428571428783 0.021000000000185537  2.9714285714285893 0.6159999999999854  2.9714285714285893 1.4140000000002146  C 2.9714285714285893 2.211999999999989  2.3071428571428783 2.813999999999851  1.4928571428571331 2.813999999999851  Z M 0.12857142857143344 14  L 0.12857142857143344 3.9130000000000114  L 2.857142857142833 3.9130000000000114  L 2.857142857142833 14  L 0.12857142857143344 14  Z " fill-rule="evenodd" />
    </mask>
  </defs>
  <g transform="matrix(1 0 0 1 -27 -28 )">
    <path d="M 1.4928571428571331 2.813999999999851  C 0.6928571428571217 2.813999999999851  0.028571428571410706 2.211999999999989  0.028571428571410706 1.4140000000002146  C 0.028571428571410706 0.6159999999999854  0.6928571428571217 0.021000000000185537  1.4928571428571331 0.021000000000185537  C 2.3071428571428783 0.021000000000185537  2.9714285714285893 0.6159999999999854  2.9714285714285893 1.4140000000002146  C 2.9714285714285893 2.211999999999989  2.3071428571428783 2.813999999999851  1.4928571428571331 2.813999999999851  Z M 0.12857142857143344 14  L 0.12857142857143344 3.9130000000000114  L 2.857142857142833 3.9130000000000114  L 2.857142857142833 14  L 0.12857142857143344 14  Z " fill-rule="nonzero" fill="rgba(250, 173, 30, 1)" stroke="none" transform="matrix(1 0 0 1 27 28 )" class="fill" />
    <path d="M 1.4928571428571331 2.813999999999851  C 0.6928571428571217 2.813999999999851  0.028571428571410706 2.211999999999989  0.028571428571410706 1.4140000000002146  C 0.028571428571410706 0.6159999999999854  0.6928571428571217 0.021000000000185537  1.4928571428571331 0.021000000000185537  C 2.3071428571428783 0.021000000000185537  2.9714285714285893 0.6159999999999854  2.9714285714285893 1.4140000000002146  C 2.9714285714285893 2.211999999999989  2.3071428571428783 2.813999999999851  1.4928571428571331 2.813999999999851  Z " stroke-width="0" stroke-dasharray="0" stroke="rgba(255, 255, 255, 0)" fill="none" transform="matrix(1 0 0 1 27 28 )" class="stroke" mask="url(#Clip1552)" />
    <path d="M 0.12857142857143344 14  L 0.12857142857143344 3.9130000000000114  L 2.857142857142833 3.9130000000000114  L 2.857142857142833 14  L 0.12857142857143344 14  Z " stroke-width="0" stroke-dasharray="0" stroke="rgba(255, 255, 255, 0)" fill="none" transform="matrix(1 0 0 1 27 28 )" class="stroke" mask="url(#Clip1552)" />
  </g>
</svg>