<?xml version="1.0" encoding="utf-8"?>
<svg version="1.1" xmlns:xlink="http://www.w3.org/1999/xlink" width="30px" height="30px" xmlns="http://www.w3.org/2000/svg">
  <defs>
    <pattern id="BGPattern" patternUnits="userSpaceOnUse" alignment="0 0" imageRepeat="None" />
    <mask fill="white" id="Clip1042">
      <path d="M 5.819711538461547 5.8197115384614335  C 8.271634615384642 3.3677884615385665  11.53125 2.019230769230944  15 2.019230769230944  C 18.46875 2.019230769230944  21.72836538461536 3.3677884615385665  24.180288461538453 5.8197115384614335  C 26.632211538461547 8.271634615384755  27.980769230769226 11.53125  27.980769230769226 15  C 27.980769230769226 18.46875  26.632211538461547 21.728365384615245  24.180288461538453 24.180288461538566  C 21.72836538461536 26.632211538461434  18.46875 27.980769230769056  15 27.980769230769056  C 11.53125 27.980769230769056  8.271634615384642 26.632211538461434  5.819711538461547 24.180288461538566  C 3.367788461538453 21.728365384615245  2.0192307692307736 18.46875  2.0192307692307736 15  C 2.0192307692307736 11.53125  3.367788461538453 8.271634615384755  5.819711538461547 5.8197115384614335  Z M 30 15  C 30 6.713942307692378  23.28605769230768 0  15 0  C 6.713942307692321 0  0 6.713942307692378  0 15  C 0 23.286057692307622  6.713942307692321 30  15 30  C 23.28605769230768 30  30 23.286057692307622  30 15  Z " fill-rule="evenodd" />
    </mask>
  </defs>
  <g transform="matrix(1 0 0 1 -14 -20 )">
    <path d="M 5.819711538461547 5.8197115384614335  C 8.271634615384642 3.3677884615385665  11.53125 2.019230769230944  15 2.019230769230944  C 18.46875 2.019230769230944  21.72836538461536 3.3677884615385665  24.180288461538453 5.8197115384614335  C 26.632211538461547 8.271634615384755  27.980769230769226 11.53125  27.980769230769226 15  C 27.980769230769226 18.46875  26.632211538461547 21.728365384615245  24.180288461538453 24.180288461538566  C 21.72836538461536 26.632211538461434  18.46875 27.980769230769056  15 27.980769230769056  C 11.53125 27.980769230769056  8.271634615384642 26.632211538461434  5.819711538461547 24.180288461538566  C 3.367788461538453 21.728365384615245  2.0192307692307736 18.46875  2.0192307692307736 15  C 2.0192307692307736 11.53125  3.367788461538453 8.271634615384755  5.819711538461547 5.8197115384614335  Z M 30 15  C 30 6.713942307692378  23.28605769230768 0  15 0  C 6.713942307692321 0  0 6.713942307692378  0 15  C 0 23.286057692307622  6.713942307692321 30  15 30  C 23.28605769230768 30  30 23.286057692307622  30 15  Z " fill-rule="nonzero" fill="rgba(250, 173, 30, 1)" stroke="none" transform="matrix(1 0 0 1 14 20 )" class="fill" />
    <path d="M 5.819711538461547 5.8197115384614335  C 8.271634615384642 3.3677884615385665  11.53125 2.019230769230944  15 2.019230769230944  C 18.46875 2.019230769230944  21.72836538461536 3.3677884615385665  24.180288461538453 5.8197115384614335  C 26.632211538461547 8.271634615384755  27.980769230769226 11.53125  27.980769230769226 15  C 27.980769230769226 18.46875  26.632211538461547 21.728365384615245  24.180288461538453 24.180288461538566  C 21.72836538461536 26.632211538461434  18.46875 27.980769230769056  15 27.980769230769056  C 11.53125 27.980769230769056  8.271634615384642 26.632211538461434  5.819711538461547 24.180288461538566  C 3.367788461538453 21.728365384615245  2.0192307692307736 18.46875  2.0192307692307736 15  C 2.0192307692307736 11.53125  3.367788461538453 8.271634615384755  5.819711538461547 5.8197115384614335  Z " stroke-width="0" stroke-dasharray="0" stroke="rgba(255, 255, 255, 0)" fill="none" transform="matrix(1 0 0 1 14 20 )" class="stroke" mask="url(#Clip1042)" />
    <path d="M 30 15  C 30 6.713942307692378  23.28605769230768 0  15 0  C 6.713942307692321 0  0 6.713942307692378  0 15  C 0 23.286057692307622  6.713942307692321 30  15 30  C 23.28605769230768 30  30 23.286057692307622  30 15  Z " stroke-width="0" stroke-dasharray="0" stroke="rgba(255, 255, 255, 0)" fill="none" transform="matrix(1 0 0 1 14 20 )" class="stroke" mask="url(#Clip1042)" />
  </g>
</svg>