<svg t="1750648508920" class="icon" viewBox="0 0 1024 1024" version="1.1" xmlns="http://www.w3.org/2000/svg" p-id="6253" width="24" height="24"><path d="M917.376 729.728a144.256 144.256 0 0 0-162.112-26.24 17.792 17.792 0 0 1-20.352-3.456l-394.88-394.88a17.792 17.792 0 0 1-3.52-20.416 144 144 0 0 0-26.24-162.112 145.152 145.152 0 0 0-204.8-2.56 144 144 0 0 0 163.136 232.448 18.048 18.048 0 0 1 20.48 3.52l394.88 394.88a18.048 18.048 0 0 1 3.52 20.48 144.064 144.064 0 0 0 232.512 163.2c55.68-56.448 54.528-149.76-2.56-204.8zM155.648 273.408a72.064 72.064 0 0 1 101.76-101.76 72.064 72.064 0 0 1-101.76 101.76z m610.88 611.008a72.064 72.064 0 0 1 101.824-101.824 72.064 72.064 0 0 1-101.76 101.76z" fill="#606266" p-id="6254"></path></svg>