<?xml version="1.0" encoding="utf-8"?>
<svg version="1.1" xmlns:xlink="http://www.w3.org/1999/xlink" width="20px" height="20px" xmlns="http://www.w3.org/2000/svg">
  <g transform="matrix(1 0 0 1 -691 -184 )">
    <path d="M 701 184  C 706.6 184  711 188.4  711 194  C 711 199.6  706.6 204  701 204  C 695.4 204  691 199.6  691 194  C 691 188.4  695.4 184  701 184  Z " fill-rule="nonzero" fill="#409eff" stroke="none" />
    <path d="M 701 184.5  C 706.32 184.5  710.5 188.68  710.5 194  C 710.5 199.32  706.32 203.5  701 203.5  C 695.68 203.5  691.5 199.32  691.5 194  C 691.5 188.68  695.68 184.5  701 184.5  Z " stroke-width="1" stroke="#f0f6ff" fill="none" />
  </g>
</svg>