<?xml version="1.0" encoding="utf-8"?>
<svg version="1.1" xmlns:xlink="http://www.w3.org/1999/xlink" width="18px" height="18px" xmlns="http://www.w3.org/2000/svg">
  <g transform="matrix(1 0 0 1 -24 -2 )">
    <path d="M 33 2  C 38.04 2  42 5.959999999999999  42 11  C 42 16.04  38.04 20  33 20  C 27.96 20  24 16.04  24 11  C 24 5.959999999999999  27.96 2  33 2  Z " fill-rule="nonzero" fill="#ffffff" stroke="none" />
    <path d="M 33 2.5  C 37.76 2.5  41.5 6.239999999999999  41.5 11  C 41.5 15.76  37.76 19.5  33 19.5  C 28.24 19.5  24.5 15.76  24.5 11  C 24.5 6.239999999999999  28.24 2.5  33 2.5  Z " stroke-width="1" stroke="#ffffff" fill="none" />
  </g>
</svg>