<?xml version="1.0" encoding="utf-8"?>
<svg version="1.1" xmlns:xlink="http://www.w3.org/1999/xlink" width="20px" height="12px" xmlns="http://www.w3.org/2000/svg">
  <defs>
    <pattern id="BGPattern" patternUnits="userSpaceOnUse" alignment="0 0" imageRepeat="None" />
    <mask fill="white" id="Clip1724">
      <path d="M 0.5005483584739068 11.65552723763119  C 0.1789900421474613 11.323949936281792  0.1789900421474613 10.7858818965517  0.5005483584739068 10.45341860194901  L 9.464475705412724 0.3373579497750825  C 9.635696751331125 0.1605346176911553  9.862886394188308 0.08482224512749781  10.087674404392375 0.09634018365818518  C 10.311653154392388 0.08479537856067054  10.538921113575952 0.1605346176911553  10.710142159494353 0.3373579497750825  L 19.673312465616846 10.45341860194901  C 19.994922975821055 10.785855029984987  19.994922975821055 11.323949936281792  19.673312465616846 11.655500371064477  C 19.35253728704538 11.987856251874064  18.831773639086123 11.987856251874064  18.510894047249394 11.655500371064477  L 10.087674404392375 2.1491123800599325  L 1.6637499145963375 11.65552723763119  C 1.3421915982696646 11.987883118440777  0.8213496339842551 11.987883118440777  0.5005483584739068 11.65552723763119  Z " fill-rule="evenodd" />
    </mask>
  </defs>
  <g transform="matrix(1 0 0 1 -745 -39 )">
    <path d="M 0.5005483584739068 11.65552723763119  C 0.1789900421474613 11.323949936281792  0.1789900421474613 10.7858818965517  0.5005483584739068 10.45341860194901  L 9.464475705412724 0.3373579497750825  C 9.635696751331125 0.1605346176911553  9.862886394188308 0.08482224512749781  10.087674404392375 0.09634018365818518  C 10.311653154392388 0.08479537856067054  10.538921113575952 0.1605346176911553  10.710142159494353 0.3373579497750825  L 19.673312465616846 10.45341860194901  C 19.994922975821055 10.785855029984987  19.994922975821055 11.323949936281792  19.673312465616846 11.655500371064477  C 19.35253728704538 11.987856251874064  18.831773639086123 11.987856251874064  18.510894047249394 11.655500371064477  L 10.087674404392375 2.1491123800599325  L 1.6637499145963375 11.65552723763119  C 1.3421915982696646 11.987883118440777  0.8213496339842551 11.987883118440777  0.5005483584739068 11.65552723763119  Z " fill-rule="nonzero" fill="rgba(215, 215, 215, 1)" stroke="none" transform="matrix(1 0 0 1 745 39 )" class="fill" />
    <path d="M 0.5005483584739068 11.65552723763119  C 0.1789900421474613 11.323949936281792  0.1789900421474613 10.7858818965517  0.5005483584739068 10.45341860194901  L 9.464475705412724 0.3373579497750825  C 9.635696751331125 0.1605346176911553  9.862886394188308 0.08482224512749781  10.087674404392375 0.09634018365818518  C 10.311653154392388 0.08479537856067054  10.538921113575952 0.1605346176911553  10.710142159494353 0.3373579497750825  L 19.673312465616846 10.45341860194901  C 19.994922975821055 10.785855029984987  19.994922975821055 11.323949936281792  19.673312465616846 11.655500371064477  C 19.35253728704538 11.987856251874064  18.831773639086123 11.987856251874064  18.510894047249394 11.655500371064477  L 10.087674404392375 2.1491123800599325  L 1.6637499145963375 11.65552723763119  C 1.3421915982696646 11.987883118440777  0.8213496339842551 11.987883118440777  0.5005483584739068 11.65552723763119  Z " stroke-width="0" stroke-dasharray="0" stroke="rgba(255, 255, 255, 0)" fill="none" transform="matrix(1 0 0 1 745 39 )" class="stroke" mask="url(#Clip1724)" />
  </g>
</svg>