<?xml version="1.0" encoding="utf-8"?>
<svg version="1.1" xmlns:xlink="http://www.w3.org/1999/xlink" width="20px" height="20px" xmlns="http://www.w3.org/2000/svg">
  <defs>
    <pattern id="BGPattern" patternUnits="userSpaceOnUse" alignment="0 0" imageRepeat="None" />
    <mask fill="white" id="Clip1534">
      <path d="M 8.875 13.25  C 8.875 13.375  8.75 13.375  8.500000000000028 13.375  C 8.374999999999972 13.375  8.25 13.375  8.125 13.25  L 5.249999999999972 10.5  C 5 10.25  4.875000000000028 9.875  5.124999999999972 9.625  C 5.375000000000028 9.375  5.749999999999972 9.375  6.000000000000028 9.625  L 8.875 12.375  C 9.125000000000028 12.625  9.125000000000028 13  8.875 13.25  Z M 8.875 13.125  C 8.875 13.375  8.75 13.375  8.500000000000028 13.375  C 8.374999999999972 13.375  8.125 13.25  8 13.125  C 7.749999999999972 12.875  7.749999999999972 12.5  8 12.25  L 13.875 6.75  C 14.125000000000028 6.5  14.5 6.5  14.750000000000028 6.75  C 15 7  15 7.375  14.750000000000028 7.625  L 8.875 13.125  Z M 20 10  C 20 15.5  15.5 20  10 20  C 4.499999999999972 20  0 15.5  0 10  C 0 4.5  4.499999999999972 0  10 0  C 15.5 0  20 4.5  20 10  Z M 18.75 10  C 18.75 5.125  14.875 1.25  10 1.25  C 5.124999999999972 1.25  1.25 5.125  1.25 10  C 1.25 14.875  5.124999999999972 18.75  10 18.75  C 14.875 18.75  18.75 14.875  18.75 10  Z " fill-rule="evenodd" />
    </mask>
  </defs>
  <g transform="matrix(1 0 0 1 -51 -35 )">
    <path d="M 8.875 13.25  C 8.875 13.375  8.75 13.375  8.500000000000028 13.375  C 8.374999999999972 13.375  8.25 13.375  8.125 13.25  L 5.249999999999972 10.5  C 5 10.25  4.875000000000028 9.875  5.124999999999972 9.625  C 5.375000000000028 9.375  5.749999999999972 9.375  6.000000000000028 9.625  L 8.875 12.375  C 9.125000000000028 12.625  9.125000000000028 13  8.875 13.25  Z M 8.875 13.125  C 8.875 13.375  8.75 13.375  8.500000000000028 13.375  C 8.374999999999972 13.375  8.125 13.25  8 13.125  C 7.749999999999972 12.875  7.749999999999972 12.5  8 12.25  L 13.875 6.75  C 14.125000000000028 6.5  14.5 6.5  14.750000000000028 6.75  C 15 7  15 7.375  14.750000000000028 7.625  L 8.875 13.125  Z M 20 10  C 20 15.5  15.5 20  10 20  C 4.499999999999972 20  0 15.5  0 10  C 0 4.5  4.499999999999972 0  10 0  C 15.5 0  20 4.5  20 10  Z M 18.75 10  C 18.75 5.125  14.875 1.25  10 1.25  C 5.124999999999972 1.25  1.25 5.125  1.25 10  C 1.25 14.875  5.124999999999972 18.75  10 18.75  C 14.875 18.75  18.75 14.875  18.75 10  Z " fill-rule="nonzero" fill="rgba(64, 158, 255, 1)" stroke="none" transform="matrix(1 0 0 1 51 35 )" class="fill" />
    <path d="M 8.875 13.25  C 8.875 13.375  8.75 13.375  8.500000000000028 13.375  C 8.374999999999972 13.375  8.25 13.375  8.125 13.25  L 5.249999999999972 10.5  C 5 10.25  4.875000000000028 9.875  5.124999999999972 9.625  C 5.375000000000028 9.375  5.749999999999972 9.375  6.000000000000028 9.625  L 8.875 12.375  C 9.125000000000028 12.625  9.125000000000028 13  8.875 13.25  Z " stroke-width="0" stroke-dasharray="0" stroke="rgba(255, 255, 255, 0)" fill="none" transform="matrix(1 0 0 1 51 35 )" class="stroke" mask="url(#Clip1534)" />
    <path d="M 8.875 13.125  C 8.875 13.375  8.75 13.375  8.500000000000028 13.375  C 8.374999999999972 13.375  8.125 13.25  8 13.125  C 7.749999999999972 12.875  7.749999999999972 12.5  8 12.25  L 13.875 6.75  C 14.125000000000028 6.5  14.5 6.5  14.750000000000028 6.75  C 15 7  15 7.375  14.750000000000028 7.625  L 8.875 13.125  Z " stroke-width="0" stroke-dasharray="0" stroke="rgba(255, 255, 255, 0)" fill="none" transform="matrix(1 0 0 1 51 35 )" class="stroke" mask="url(#Clip1534)" />
    <path d="M 20 10  C 20 15.5  15.5 20  10 20  C 4.499999999999972 20  0 15.5  0 10  C 0 4.5  4.499999999999972 0  10 0  C 15.5 0  20 4.5  20 10  Z " stroke-width="0" stroke-dasharray="0" stroke="rgba(255, 255, 255, 0)" fill="none" transform="matrix(1 0 0 1 51 35 )" class="stroke" mask="url(#Clip1534)" />
    <path d="M 18.75 10  C 18.75 5.125  14.875 1.25  10 1.25  C 5.124999999999972 1.25  1.25 5.125  1.25 10  C 1.25 14.875  5.124999999999972 18.75  10 18.75  C 14.875 18.75  18.75 14.875  18.75 10  Z " stroke-width="0" stroke-dasharray="0" stroke="rgba(255, 255, 255, 0)" fill="none" transform="matrix(1 0 0 1 51 35 )" class="stroke" mask="url(#Clip1534)" />
  </g>
</svg>