<?xml version="1.0" encoding="utf-8"?>
<svg version="1.1" xmlns:xlink="http://www.w3.org/1999/xlink" width="20px" height="20px" xmlns="http://www.w3.org/2000/svg">
  <defs>
    <pattern id="BGPattern" patternUnits="userSpaceOnUse" alignment="0 0" imageRepeat="None" />
    <mask fill="white" id="Clip2046">
      <path d="M 20 10  C 20 4.475961538461509  15.524038461538414 0  10 0  C 4.475961538461585 0  0 4.475961538461509  0 10  C 0 15.52403846153849  4.475961538461585 20  10 20  C 15.524038461538414 20  20 15.52403846153849  20 10  Z M 13.620192307692378 13.620192307692303  C 13.322115384615396 13.923076923076906  12.831730769230793 13.923076923076906  12.533653846153811 13.620192307692303  L 10 11.086538461538492  L 7.466346153846189 13.620192307692303  C 7.168269230769208 13.918269230769207  6.677884615384604 13.918269230769207  6.379807692307622 13.620192307692303  C 6.230769230769208 13.471153846153811  6.153846153846189 13.274038461538492  6.153846153846189 13.076923076923094  C 6.153846153846189 12.879807692307699  6.230769230769208 12.682692307692303  6.379807692307622 12.533653846153811  L 8.913461538461586 10  L 6.379807692307622 7.466346153846189  C 6.230769230769208 7.317307692307699  6.153846153846189 7.120192307692302  6.153846153846189 6.923076923076906  C 6.153846153846189 6.725961538461509  6.230769230769208 6.528846153846189  6.379807692307622 6.379807692307699  C 6.677884615384604 6.081730769230792  7.168269230769208 6.081730769230792  7.466346153846189 6.379807692307699  L 10 8.913461538461508  L 12.533653846153811 6.379807692307699  C 12.831730769230793 6.081730769230792  13.322115384615396 6.081730769230792  13.620192307692378 6.379807692307699  C 13.918269230769207 6.677884615384604  13.918269230769207 7.168269230769208  13.620192307692378 7.466346153846189  L 11.086538461538415 10  L 13.620192307692378 12.533653846153811  C 13.918269230769207 12.831730769230793  13.918269230769207 13.322115384615396  13.620192307692378 13.620192307692303  Z " fill-rule="evenodd" />
    </mask>
  </defs>
  <g transform="matrix(1 0 0 1 -1249 -480 )">
    <path d="M 20 10  C 20 4.475961538461509  15.524038461538414 0  10 0  C 4.475961538461585 0  0 4.475961538461509  0 10  C 0 15.52403846153849  4.475961538461585 20  10 20  C 15.524038461538414 20  20 15.52403846153849  20 10  Z M 13.620192307692378 13.620192307692303  C 13.322115384615396 13.923076923076906  12.831730769230793 13.923076923076906  12.533653846153811 13.620192307692303  L 10 11.086538461538492  L 7.466346153846189 13.620192307692303  C 7.168269230769208 13.918269230769207  6.677884615384604 13.918269230769207  6.379807692307622 13.620192307692303  C 6.230769230769208 13.471153846153811  6.153846153846189 13.274038461538492  6.153846153846189 13.076923076923094  C 6.153846153846189 12.879807692307699  6.230769230769208 12.682692307692303  6.379807692307622 12.533653846153811  L 8.913461538461586 10  L 6.379807692307622 7.466346153846189  C 6.230769230769208 7.317307692307699  6.153846153846189 7.120192307692302  6.153846153846189 6.923076923076906  C 6.153846153846189 6.725961538461509  6.230769230769208 6.528846153846189  6.379807692307622 6.379807692307699  C 6.677884615384604 6.081730769230792  7.168269230769208 6.081730769230792  7.466346153846189 6.379807692307699  L 10 8.913461538461508  L 12.533653846153811 6.379807692307699  C 12.831730769230793 6.081730769230792  13.322115384615396 6.081730769230792  13.620192307692378 6.379807692307699  C 13.918269230769207 6.677884615384604  13.918269230769207 7.168269230769208  13.620192307692378 7.466346153846189  L 11.086538461538415 10  L 13.620192307692378 12.533653846153811  C 13.918269230769207 12.831730769230793  13.918269230769207 13.322115384615396  13.620192307692378 13.620192307692303  Z " fill-rule="nonzero" fill="rgba(237, 64, 20, 1)" stroke="none" transform="matrix(1 0 0 1 1249 480 )" class="fill" />
    <path d="M 20 10  C 20 4.475961538461509  15.524038461538414 0  10 0  C 4.475961538461585 0  0 4.475961538461509  0 10  C 0 15.52403846153849  4.475961538461585 20  10 20  C 15.524038461538414 20  20 15.52403846153849  20 10  Z " stroke-width="0" stroke-dasharray="0" stroke="rgba(255, 255, 255, 0)" fill="none" transform="matrix(1 0 0 1 1249 480 )" class="stroke" mask="url(#Clip2046)" />
    <path d="M 13.620192307692378 13.620192307692303  C 13.322115384615396 13.923076923076906  12.831730769230793 13.923076923076906  12.533653846153811 13.620192307692303  L 10 11.086538461538492  L 7.466346153846189 13.620192307692303  C 7.168269230769208 13.918269230769207  6.677884615384604 13.918269230769207  6.379807692307622 13.620192307692303  C 6.230769230769208 13.471153846153811  6.153846153846189 13.274038461538492  6.153846153846189 13.076923076923094  C 6.153846153846189 12.879807692307699  6.230769230769208 12.682692307692303  6.379807692307622 12.533653846153811  L 8.913461538461586 10  L 6.379807692307622 7.466346153846189  C 6.230769230769208 7.317307692307699  6.153846153846189 7.120192307692302  6.153846153846189 6.923076923076906  C 6.153846153846189 6.725961538461509  6.230769230769208 6.528846153846189  6.379807692307622 6.379807692307699  C 6.677884615384604 6.081730769230792  7.168269230769208 6.081730769230792  7.466346153846189 6.379807692307699  L 10 8.913461538461508  L 12.533653846153811 6.379807692307699  C 12.831730769230793 6.081730769230792  13.322115384615396 6.081730769230792  13.620192307692378 6.379807692307699  C 13.918269230769207 6.677884615384604  13.918269230769207 7.168269230769208  13.620192307692378 7.466346153846189  L 11.086538461538415 10  L 13.620192307692378 12.533653846153811  C 13.918269230769207 12.831730769230793  13.918269230769207 13.322115384615396  13.620192307692378 13.620192307692303  Z " stroke-width="0" stroke-dasharray="0" stroke="rgba(255, 255, 255, 0)" fill="none" transform="matrix(1 0 0 1 1249 480 )" class="stroke" mask="url(#Clip2046)" />
  </g>
</svg>