<?xml version="1.0" encoding="utf-8"?>
<svg version="1.1" xmlns:xlink="http://www.w3.org/1999/xlink" width="24px" height="24px" xmlns="http://www.w3.org/2000/svg">
  <defs>
    <pattern id="BGPattern" patternUnits="userSpaceOnUse" alignment="0 0" imageRepeat="None" />
    <mask fill="white" id="Clip2043">
      <path d="M 24 12  C 24 5.371153846153902  18.628846153846098 0  12 0  C 5.371153846153902 0  0 5.371153846153902  0 12  C 0 18.628846153846098  5.371153846153902 24  12 24  C 18.628846153846098 24  24 18.628846153846098  24 12  Z M 18.14423076923085 12  C 18.14423076923085 12.507692307692196  17.7288461538461 12.923076923076952  17.2211538461539 13  L 6.778846153846098 13  C 6.288461538461707 12.923076923076952  5.8557692307691465 12.576923076923048  5.8557692307691465 12  C 5.8557692307691465 11.42307692307695  6.2711538461539025 11.07692307692305  6.778846153846098 11  L 17.2211538461539 11  C 17.7288461538461 11.07692307692305  18.14423076923085 11.492307692307804  18.14423076923085 12  Z " fill-rule="evenodd" />
    </mask>
  </defs>
  <g transform="matrix(1 0 0 1 -784 -148 )">
    <path d="M 24 12  C 24 5.371153846153902  18.628846153846098 0  12 0  C 5.371153846153902 0  0 5.371153846153902  0 12  C 0 18.628846153846098  5.371153846153902 24  12 24  C 18.628846153846098 24  24 18.628846153846098  24 12  Z M 18.14423076923085 12  C 18.14423076923085 12.507692307692196  17.7288461538461 12.923076923076952  17.2211538461539 13  L 6.778846153846098 13  C 6.288461538461707 12.923076923076952  5.8557692307691465 12.576923076923048  5.8557692307691465 12  C 5.8557692307691465 11.42307692307695  6.2711538461539025 11.07692307692305  6.778846153846098 11  L 17.2211538461539 11  C 17.7288461538461 11.07692307692305  18.14423076923085 11.492307692307804  18.14423076923085 12  Z " fill-rule="nonzero" fill="rgba(237, 64, 20, 1)" stroke="none" transform="matrix(1 0 0 1 784 148 )" class="fill" />
    <path d="M 24 12  C 24 5.371153846153902  18.628846153846098 0  12 0  C 5.371153846153902 0  0 5.371153846153902  0 12  C 0 18.628846153846098  5.371153846153902 24  12 24  C 18.628846153846098 24  24 18.628846153846098  24 12  Z " stroke-width="0" stroke-dasharray="0" stroke="rgba(255, 255, 255, 0)" fill="none" transform="matrix(1 0 0 1 784 148 )" class="stroke" mask="url(#Clip2043)" />
    <path d="M 18.14423076923085 12  C 18.14423076923085 12.507692307692196  17.7288461538461 12.923076923076952  17.2211538461539 13  L 6.778846153846098 13  C 6.288461538461707 12.923076923076952  5.8557692307691465 12.576923076923048  5.8557692307691465 12  C 5.8557692307691465 11.42307692307695  6.2711538461539025 11.07692307692305  6.778846153846098 11  L 17.2211538461539 11  C 17.7288461538461 11.07692307692305  18.14423076923085 11.492307692307804  18.14423076923085 12  Z " stroke-width="0" stroke-dasharray="0" stroke="rgba(255, 255, 255, 0)" fill="none" transform="matrix(1 0 0 1 784 148 )" class="stroke" mask="url(#Clip2043)" />
  </g>
</svg>