<?xml version="1.0" encoding="utf-8"?>
<svg version="1.1" xmlns:xlink="http://www.w3.org/1999/xlink" width="20px" height="20px" xmlns="http://www.w3.org/2000/svg">
  <defs>
    <pattern id="BGPattern" patternUnits="userSpaceOnUse" alignment="0 0" imageRepeat="None" />
    <mask fill="white" id="Clip1735">
      <path d="M 20 10  C 20 4.475961538461585  15.524038461538453 0  10 0  C 4.475961538461547 0  0 4.475961538461585  0 10  C 0 15.524038461538414  4.475961538461547 20  10 20  C 15.524038461538453 20  20 15.524038461538414  20 10  Z M 15.110576923076945 6.956730769230792  C 15.197115384615396 7.038461538461585  15.197115384615396 7.158653846153811  15.120192307692301 7.235576923076982  L 8.692307692307699 13.692307692307622  L 8.6875 13.692307692307622  C 8.605769230769246 13.774038461538415  8.384615384615396 13.956730769230791  8.129807692307697 13.956730769230791  C 7.947115384615397 13.956730769230791  7.740384615384603 13.855769230769209  7.567307692307698 13.682692307692378  L 4.875 10.990384615384603  C 4.798076923076924 10.913461538461585  4.798076923076924 10.793269230769207  4.875 10.716346153846189  L 5.730769230769226 9.860576923076982  C 5.769230769230774 9.822115384615396  5.817307692307699 9.802884615384604  5.865384615384622 9.802884615384604  C 5.913461538461547 9.802884615384604  5.9615384615384714 9.822115384615396  6 9.860576923076982  L 8.134615384615397 11.995192307692378  L 14 6.086538461538415  C 14.038461538461547 6.048076923076982  14.086538461538453 6.028846153846189  14.134615384615397 6.028846153846189  C 14.1875 6.028846153846189  14.235576923076943 6.048076923076982  14.269230769230754 6.086538461538415  L 15.110576923076945 6.956730769230792  Z " fill-rule="evenodd" />
    </mask>
  </defs>
  <g transform="matrix(1 0 0 1 -1252 -366 )">
    <path d="M 20 10  C 20 4.475961538461585  15.524038461538453 0  10 0  C 4.475961538461547 0  0 4.475961538461585  0 10  C 0 15.524038461538414  4.475961538461547 20  10 20  C 15.524038461538453 20  20 15.524038461538414  20 10  Z M 15.110576923076945 6.956730769230792  C 15.197115384615396 7.038461538461585  15.197115384615396 7.158653846153811  15.120192307692301 7.235576923076982  L 8.692307692307699 13.692307692307622  L 8.6875 13.692307692307622  C 8.605769230769246 13.774038461538415  8.384615384615396 13.956730769230791  8.129807692307697 13.956730769230791  C 7.947115384615397 13.956730769230791  7.740384615384603 13.855769230769209  7.567307692307698 13.682692307692378  L 4.875 10.990384615384603  C 4.798076923076924 10.913461538461585  4.798076923076924 10.793269230769207  4.875 10.716346153846189  L 5.730769230769226 9.860576923076982  C 5.769230769230774 9.822115384615396  5.817307692307699 9.802884615384604  5.865384615384622 9.802884615384604  C 5.913461538461547 9.802884615384604  5.9615384615384714 9.822115384615396  6 9.860576923076982  L 8.134615384615397 11.995192307692378  L 14 6.086538461538415  C 14.038461538461547 6.048076923076982  14.086538461538453 6.028846153846189  14.134615384615397 6.028846153846189  C 14.1875 6.028846153846189  14.235576923076943 6.048076923076982  14.269230769230754 6.086538461538415  L 15.110576923076945 6.956730769230792  Z " fill-rule="nonzero" fill="rgba(64, 158, 255, 1)" stroke="none" transform="matrix(1 0 0 1 1252 366 )" class="fill" />
    <path d="M 20 10  C 20 4.475961538461585  15.524038461538453 0  10 0  C 4.475961538461547 0  0 4.475961538461585  0 10  C 0 15.524038461538414  4.475961538461547 20  10 20  C 15.524038461538453 20  20 15.524038461538414  20 10  Z " stroke-width="0" stroke-dasharray="0" stroke="rgba(255, 255, 255, 0)" fill="none" transform="matrix(1 0 0 1 1252 366 )" class="stroke" mask="url(#Clip1735)" />
    <path d="M 15.110576923076945 6.956730769230792  C 15.197115384615396 7.038461538461585  15.197115384615396 7.158653846153811  15.120192307692301 7.235576923076982  L 8.692307692307699 13.692307692307622  L 8.6875 13.692307692307622  C 8.605769230769246 13.774038461538415  8.384615384615396 13.956730769230791  8.129807692307697 13.956730769230791  C 7.947115384615397 13.956730769230791  7.740384615384603 13.855769230769209  7.567307692307698 13.682692307692378  L 4.875 10.990384615384603  C 4.798076923076924 10.913461538461585  4.798076923076924 10.793269230769207  4.875 10.716346153846189  L 5.730769230769226 9.860576923076982  C 5.769230769230774 9.822115384615396  5.817307692307699 9.802884615384604  5.865384615384622 9.802884615384604  C 5.913461538461547 9.802884615384604  5.9615384615384714 9.822115384615396  6 9.860576923076982  L 8.134615384615397 11.995192307692378  L 14 6.086538461538415  C 14.038461538461547 6.048076923076982  14.086538461538453 6.028846153846189  14.134615384615397 6.028846153846189  C 14.1875 6.028846153846189  14.235576923076943 6.048076923076982  14.269230769230754 6.086538461538415  L 15.110576923076945 6.956730769230792  Z " stroke-width="0" stroke-dasharray="0" stroke="rgba(255, 255, 255, 0)" fill="none" transform="matrix(1 0 0 1 1252 366 )" class="stroke" mask="url(#Clip1735)" />
  </g>
</svg>