<?xml version="1.0" encoding="utf-8"?>
<svg version="1.1" xmlns:xlink="http://www.w3.org/1999/xlink" width="24px" height="24px" xmlns="http://www.w3.org/2000/svg">
  <g transform="matrix(1 0 0 1 -735 -93 )">
    <path d="M 24 12  C 24 5.371153846153822  18.628846153846098 0  12 0  C 5.371153846153902 0  0 5.371153846153822  0 12  C 0 18.628846153846176  5.371153846153902 24  12 24  C 18.628846153846098 24  24 18.628846153846176  24 12  Z M 18.14423076923067 12  C 18.14423076923067 12.507692307692366  17.7288461538461 12.923076923076882  17.22115384615372 12.923076923076882  L 12.923076923076952 12.923076923076882  L 12.923076923076952 17.22115384615389  C 12.923076923076952 17.72884615384613  12.507692307692377 18.144230769230788  12 18.144230769230788  C 11.746153846153902 18.144230769230788  11.515384615384756 18.04038461538464  11.34807692307695 17.873076923076905  C 11.180769230769329 17.705769230769295  11.07692307692305 17.474999999999955  11.07692307692305 17.22115384615389  L 11.07692307692305 12.923076923076882  L 6.77884615384628 12.923076923076882  C 6.5249999999999995 12.923076923076882  6.294230769230671 12.81923076923075  6.126923076923049 12.651923076923016  C 5.959615384615427 12.484615384615404  5.8557692307693285 12.253846153846176  5.8557692307693285 12  C 5.8557692307693285 11.492307692307644  6.2711538461539025 11.076923076923118  6.77884615384628 11.076923076923118  L 11.07692307692305 11.076923076923118  L 11.07692307692305 6.77884615384611  C 11.07692307692305 6.271153846153868  11.492307692307623 5.855769230769226  12 5.855769230769226  C 12.507692307692377 5.855769230769226  12.923076923076952 6.271153846153868  12.923076923076952 6.77884615384611  L 12.923076923076952 11.076923076923118  L 17.22115384615372 11.076923076923118  C 17.7288461538461 11.076923076923118  18.14423076923067 11.492307692307644  18.14423076923067 12  Z " fill-rule="nonzero" fill="#409eff" stroke="none" transform="matrix(1 0 0 1 735 93 )" />
  </g>
</svg>