<?xml version="1.0" encoding="utf-8"?>
<svg version="1.1" xmlns:xlink="http://www.w3.org/1999/xlink" width="16px" height="16px" xmlns="http://www.w3.org/2000/svg">
  <defs>
    <pattern id="BGPattern" patternUnits="userSpaceOnUse" alignment="0 0" imageRepeat="None" />
    <mask fill="white" id="Clip502">
      <path d="M 16 8  C 16 3.580769230769215  12.419230769230731 0  8 0  C 3.5807692307692682 0  0 3.580769230769215  0 8  C 0 12.419230769230785  3.5807692307692682 16  8 16  C 12.419230769230731 16  16 12.419230769230785  16 8  Z M 8 3.5384615384615548  C 8.369230769230732 3.5384615384615548  8.669230769230731 3.8423076923076755  8.661538461538415 4.215384615384619  L 8.542307692307682 8.642307692307691  C 8.534615384615366 8.957692307692302  8.315384615384634 9.211538461538446  8 9.211538461538446  C 7.684615384615366 9.211538461538446  7.465384615384634 8.957692307692302  7.457692307692317 8.642307692307691  L 7.338461538461585 4.215384615384619  C 7.330769230769268 3.846153846153849  7.626923076923049 3.5384615384615548  8 3.5384615384615548  Z M 8.734615384615365 11.061538461538476  C 8.734615384615365 11.457692307692302  8.411538461538415 11.769230769230777  8 11.769230769230777  C 7.588461538461585 11.769230769230777  7.265384615384634 11.457692307692302  7.265384615384634 11.061538461538476  C 7.265384615384634 10.665384615384603  7.588461538461585 10.353846153846174  8 10.353846153846174  C 8.411538461538415 10.353846153846174  8.734615384615365 10.665384615384603  8.734615384615365 11.061538461538476  Z " fill-rule="evenodd" />
    </mask>
  </defs>
  <g transform="matrix(1 0 0 1 -258 -297 )">
    <path d="M 16 8  C 16 3.580769230769215  12.419230769230731 0  8 0  C 3.5807692307692682 0  0 3.580769230769215  0 8  C 0 12.419230769230785  3.5807692307692682 16  8 16  C 12.419230769230731 16  16 12.419230769230785  16 8  Z M 8 3.5384615384615548  C 8.369230769230732 3.5384615384615548  8.669230769230731 3.8423076923076755  8.661538461538415 4.215384615384619  L 8.542307692307682 8.642307692307691  C 8.534615384615366 8.957692307692302  8.315384615384634 9.211538461538446  8 9.211538461538446  C 7.684615384615366 9.211538461538446  7.465384615384634 8.957692307692302  7.457692307692317 8.642307692307691  L 7.338461538461585 4.215384615384619  C 7.330769230769268 3.846153846153849  7.626923076923049 3.5384615384615548  8 3.5384615384615548  Z M 8.734615384615365 11.061538461538476  C 8.734615384615365 11.457692307692302  8.411538461538415 11.769230769230777  8 11.769230769230777  C 7.588461538461585 11.769230769230777  7.265384615384634 11.457692307692302  7.265384615384634 11.061538461538476  C 7.265384615384634 10.665384615384603  7.588461538461585 10.353846153846174  8 10.353846153846174  C 8.411538461538415 10.353846153846174  8.734615384615365 10.665384615384603  8.734615384615365 11.061538461538476  Z " fill-rule="nonzero" fill="rgba(127, 127, 127, 1)" stroke="none" transform="matrix(1 0 0 1 258 297 )" class="fill" />
    <path d="M 16 8  C 16 3.580769230769215  12.419230769230731 0  8 0  C 3.5807692307692682 0  0 3.580769230769215  0 8  C 0 12.419230769230785  3.5807692307692682 16  8 16  C 12.419230769230731 16  16 12.419230769230785  16 8  Z " stroke-width="0" stroke-dasharray="0" stroke="rgba(255, 255, 255, 0)" fill="none" transform="matrix(1 0 0 1 258 297 )" class="stroke" mask="url(#Clip502)" />
    <path d="M 8 3.5384615384615548  C 8.369230769230732 3.5384615384615548  8.669230769230731 3.8423076923076755  8.661538461538415 4.215384615384619  L 8.542307692307682 8.642307692307691  C 8.534615384615366 8.957692307692302  8.315384615384634 9.211538461538446  8 9.211538461538446  C 7.684615384615366 9.211538461538446  7.465384615384634 8.957692307692302  7.457692307692317 8.642307692307691  L 7.338461538461585 4.215384615384619  C 7.330769230769268 3.846153846153849  7.626923076923049 3.5384615384615548  8 3.5384615384615548  Z " stroke-width="0" stroke-dasharray="0" stroke="rgba(255, 255, 255, 0)" fill="none" transform="matrix(1 0 0 1 258 297 )" class="stroke" mask="url(#Clip502)" />
    <path d="M 8.734615384615365 11.061538461538476  C 8.734615384615365 11.457692307692302  8.411538461538415 11.769230769230777  8 11.769230769230777  C 7.588461538461585 11.769230769230777  7.265384615384634 11.457692307692302  7.265384615384634 11.061538461538476  C 7.265384615384634 10.665384615384603  7.588461538461585 10.353846153846174  8 10.353846153846174  C 8.411538461538415 10.353846153846174  8.734615384615365 10.665384615384603  8.734615384615365 11.061538461538476  Z " stroke-width="0" stroke-dasharray="0" stroke="rgba(255, 255, 255, 0)" fill="none" transform="matrix(1 0 0 1 258 297 )" class="stroke" mask="url(#Clip502)" />
  </g>
</svg>