<?xml version="1.0" encoding="utf-8"?>
<svg version="1.1" xmlns:xlink="http://www.w3.org/1999/xlink" width="30px" height="30px" xmlns="http://www.w3.org/2000/svg">
  <defs>
    <pattern id="BGPattern" patternUnits="userSpaceOnUse" alignment="0 0" imageRepeat="None" />
    <mask fill="white" id="Clip1040">
      <path d="M 30 15  C 30 6.713942307692278  23.286057692307622 0  15 0  C 6.713942307692378 0  0 6.713942307692278  0 15  C 0 23.286057692307722  6.713942307692378 30  15 30  C 23.286057692307622 30  30 23.286057692307722  30 15  Z M 15 6.634615384615415  C 15.692307692307622 6.634615384615415  16.254807692307622 7.204326923076891  16.240384615384528 7.90384615384616  L 16.016826923076906 16.20432692307692  C 16.00240384615381 16.795673076923066  15.591346153846189 17.271634615384585  15 17.271634615384585  C 14.408653846153811 17.271634615384585  13.997596153846189 16.795673076923066  13.983173076923094 16.20432692307692  L 13.759615384615472 7.90384615384616  C 13.745192307692378 7.211538461538467  14.300480769230717 6.634615384615415  15 6.634615384615415  Z M 16.37740384615381 20.74038461538464  C 16.37740384615381 21.483173076923066  15.771634615384528 22.067307692307708  15 22.067307692307708  C 14.228365384615472 22.067307692307708  13.622596153846189 21.483173076923066  13.622596153846189 20.74038461538464  C 13.622596153846189 19.997596153846132  14.228365384615472 19.413461538461576  15 19.413461538461576  C 15.771634615384528 19.413461538461576  16.37740384615381 19.997596153846132  16.37740384615381 20.74038461538464  Z " fill-rule="evenodd" />
    </mask>
  </defs>
  <g transform="matrix(1 0 0 1 -14 -20 )">
    <path d="M 30 15  C 30 6.713942307692278  23.286057692307622 0  15 0  C 6.713942307692378 0  0 6.713942307692278  0 15  C 0 23.286057692307722  6.713942307692378 30  15 30  C 23.286057692307622 30  30 23.286057692307722  30 15  Z M 15 6.634615384615415  C 15.692307692307622 6.634615384615415  16.254807692307622 7.204326923076891  16.240384615384528 7.90384615384616  L 16.016826923076906 16.20432692307692  C 16.00240384615381 16.795673076923066  15.591346153846189 17.271634615384585  15 17.271634615384585  C 14.408653846153811 17.271634615384585  13.997596153846189 16.795673076923066  13.983173076923094 16.20432692307692  L 13.759615384615472 7.90384615384616  C 13.745192307692378 7.211538461538467  14.300480769230717 6.634615384615415  15 6.634615384615415  Z M 16.37740384615381 20.74038461538464  C 16.37740384615381 21.483173076923066  15.771634615384528 22.067307692307708  15 22.067307692307708  C 14.228365384615472 22.067307692307708  13.622596153846189 21.483173076923066  13.622596153846189 20.74038461538464  C 13.622596153846189 19.997596153846132  14.228365384615472 19.413461538461576  15 19.413461538461576  C 15.771634615384528 19.413461538461576  16.37740384615381 19.997596153846132  16.37740384615381 20.74038461538464  Z " fill-rule="nonzero" fill="rgba(251, 67, 49, 1)" stroke="none" transform="matrix(1 0 0 1 14 20 )" class="fill" />
    <path d="M 30 15  C 30 6.713942307692278  23.286057692307622 0  15 0  C 6.713942307692378 0  0 6.713942307692278  0 15  C 0 23.286057692307722  6.713942307692378 30  15 30  C 23.286057692307622 30  30 23.286057692307722  30 15  Z " stroke-width="0" stroke-dasharray="0" stroke="rgba(255, 255, 255, 0)" fill="none" transform="matrix(1 0 0 1 14 20 )" class="stroke" mask="url(#Clip1040)" />
    <path d="M 15 6.634615384615415  C 15.692307692307622 6.634615384615415  16.254807692307622 7.204326923076891  16.240384615384528 7.90384615384616  L 16.016826923076906 16.20432692307692  C 16.00240384615381 16.795673076923066  15.591346153846189 17.271634615384585  15 17.271634615384585  C 14.408653846153811 17.271634615384585  13.997596153846189 16.795673076923066  13.983173076923094 16.20432692307692  L 13.759615384615472 7.90384615384616  C 13.745192307692378 7.211538461538467  14.300480769230717 6.634615384615415  15 6.634615384615415  Z " stroke-width="0" stroke-dasharray="0" stroke="rgba(255, 255, 255, 0)" fill="none" transform="matrix(1 0 0 1 14 20 )" class="stroke" mask="url(#Clip1040)" />
    <path d="M 16.37740384615381 20.74038461538464  C 16.37740384615381 21.483173076923066  15.771634615384528 22.067307692307708  15 22.067307692307708  C 14.228365384615472 22.067307692307708  13.622596153846189 21.483173076923066  13.622596153846189 20.74038461538464  C 13.622596153846189 19.997596153846132  14.228365384615472 19.413461538461576  15 19.413461538461576  C 15.771634615384528 19.413461538461576  16.37740384615381 19.997596153846132  16.37740384615381 20.74038461538464  Z " stroke-width="0" stroke-dasharray="0" stroke="rgba(255, 255, 255, 0)" fill="none" transform="matrix(1 0 0 1 14 20 )" class="stroke" mask="url(#Clip1040)" />
  </g>
</svg>