<?xml version="1.0" encoding="utf-8"?>
<svg version="1.1" xmlns:xlink="http://www.w3.org/1999/xlink" width="13px" height="15px" xmlns="http://www.w3.org/2000/svg">
  <defs>
    <pattern id="BGPattern" patternUnits="userSpaceOnUse" alignment="0 0" imageRepeat="None" />
    <mask fill="white" id="Clip1915">
      <path d="M 6.6495738636363635 14.629507211538462  C 6.797208806818183 14.878575721153846  7.1647727272727275 14.881280048076922  7.316839488636364 14.634375  L 8.117059659090907 11.036808894230766  C 8.263974867804531 10.798238866815856  8.525868656851033 10.649823416225564  8.81091619318182 10.643599759615384  L 12.407059659090912 11.751021634615384  C 12.702052556818185 11.744801682692307  12.882095170454548 11.431640625  12.733906250000002 11.182572115384616  L 6.37341619318182 0.47857572115384583  C 6.143238636363638 0.09104567307692307  5.634687500000003 -0.04092548076923044  5.2377627840909105 0.18407451923076826  L 0.5904474431818199 2.8164663461538444  C 0.1935227272727293 3.041195913461536  0.05835227272727508 3.537710336538458  0.2888068181818192 3.925240384615383  L 6.6495738636363635 14.629507211538462  Z " fill-rule="evenodd" />
    </mask>
  </defs>
  <g transform="matrix(1 0 0 1 -1176 -203 )">
    <path d="M 6.6495738636363635 14.629507211538462  C 6.797208806818183 14.878575721153846  7.1647727272727275 14.881280048076922  7.316839488636364 14.634375  L 8.117059659090907 11.036808894230766  C 8.263974867804531 10.798238866815856  8.525868656851033 10.649823416225564  8.81091619318182 10.643599759615384  L 12.407059659090912 11.751021634615384  C 12.702052556818185 11.744801682692307  12.882095170454548 11.431640625  12.733906250000002 11.182572115384616  L 6.37341619318182 0.47857572115384583  C 6.143238636363638 0.09104567307692307  5.634687500000003 -0.04092548076923044  5.2377627840909105 0.18407451923076826  L 0.5904474431818199 2.8164663461538444  C 0.1935227272727293 3.041195913461536  0.05835227272727508 3.537710336538458  0.2888068181818192 3.925240384615383  L 6.6495738636363635 14.629507211538462  Z " fill-rule="nonzero" fill="rgba(245, 217, 35, 1)" stroke="none" transform="matrix(1 0 0 1 1176 203 )" class="fill" />
    <path d="M 6.6495738636363635 14.629507211538462  C 6.797208806818183 14.878575721153846  7.1647727272727275 14.881280048076922  7.316839488636364 14.634375  L 8.117059659090907 11.036808894230766  C 8.263974867804531 10.798238866815856  8.525868656851033 10.649823416225564  8.81091619318182 10.643599759615384  L 12.407059659090912 11.751021634615384  C 12.702052556818185 11.744801682692307  12.882095170454548 11.431640625  12.733906250000002 11.182572115384616  L 6.37341619318182 0.47857572115384583  C 6.143238636363638 0.09104567307692307  5.634687500000003 -0.04092548076923044  5.2377627840909105 0.18407451923076826  L 0.5904474431818199 2.8164663461538444  C 0.1935227272727293 3.041195913461536  0.05835227272727508 3.537710336538458  0.2888068181818192 3.925240384615383  L 6.6495738636363635 14.629507211538462  Z " stroke-width="0" stroke-dasharray="0" stroke="rgba(255, 255, 255, 0)" fill="none" transform="matrix(1 0 0 1 1176 203 )" class="stroke" mask="url(#Clip1915)" />
  </g>
</svg>