<?xml version="1.0" encoding="utf-8"?>
<svg version="1.1" xmlns:xlink="http://www.w3.org/1999/xlink" width="22px" height="22px" xmlns="http://www.w3.org/2000/svg">
  <defs>
    <pattern id="BGPattern" patternUnits="userSpaceOnUse" alignment="0 0" imageRepeat="None" />
    <mask fill="white" id="Clip1924">
      <path d="M 11.445503656914894 0.2995669157608694  C 11.212944434901615 0.18495526163940967  10.941925910843063 0.18495526163940967  10.709366688829787 0.2995669157608694  L 2.6510804521276596 4.2645550271739125  C 2.418436111540602 4.3790583683668105  2.249459049330965 4.595541851278963  2.191954787234043 4.852759850543478  L 0.2015874335106383 13.762143342391305  C 0.14426529255319168 14.019395380434784  0.20433011968085107 14.2892578125  0.36532579787234076 14.495507812499998  L 5.941755319148937 21.640276834239128  C 6.102690220787302 21.84652298197779  6.346776684830323 21.966681164617732  6.6049368351063835 21.96674592391304  L 15.549110704787235 21.96674592391304  C 15.807197473404255 21.96674592391304  16.051296542553192 21.84652683423913  16.212292220744683 21.640276834239128  L 21.788721742021274 14.495507812499996  C 21.9497581122832 14.289285679535762  22.010033448535676 14.019319687120104  21.95246010638298 13.762143342391305  L 19.96209275265958 4.85275985054348  C 19.904707424302604 4.595483334358135  19.735693723341363 4.378952912030352  19.502967087765956 4.264555027173913  L 11.445503656914894 0.2995669157608694  Z " fill-rule="evenodd" />
    </mask>
  </defs>
  <g transform="matrix(1 0 0 1 -1166 -275 )">
    <path d="M 11.445503656914894 0.2995669157608694  C 11.212944434901615 0.18495526163940967  10.941925910843063 0.18495526163940967  10.709366688829787 0.2995669157608694  L 2.6510804521276596 4.2645550271739125  C 2.418436111540602 4.3790583683668105  2.249459049330965 4.595541851278963  2.191954787234043 4.852759850543478  L 0.2015874335106383 13.762143342391305  C 0.14426529255319168 14.019395380434784  0.20433011968085107 14.2892578125  0.36532579787234076 14.495507812499998  L 5.941755319148937 21.640276834239128  C 6.102690220787302 21.84652298197779  6.346776684830323 21.966681164617732  6.6049368351063835 21.96674592391304  L 15.549110704787235 21.96674592391304  C 15.807197473404255 21.96674592391304  16.051296542553192 21.84652683423913  16.212292220744683 21.640276834239128  L 21.788721742021274 14.495507812499996  C 21.9497581122832 14.289285679535762  22.010033448535676 14.019319687120104  21.95246010638298 13.762143342391305  L 19.96209275265958 4.85275985054348  C 19.904707424302604 4.595483334358135  19.735693723341363 4.378952912030352  19.502967087765956 4.264555027173913  L 11.445503656914894 0.2995669157608694  Z " fill-rule="nonzero" fill="rgba(163, 103, 23, 1)" stroke="none" transform="matrix(1 0 0 1 1166 275 )" class="fill" />
    <path d="M 11.445503656914894 0.2995669157608694  C 11.212944434901615 0.18495526163940967  10.941925910843063 0.18495526163940967  10.709366688829787 0.2995669157608694  L 2.6510804521276596 4.2645550271739125  C 2.418436111540602 4.3790583683668105  2.249459049330965 4.595541851278963  2.191954787234043 4.852759850543478  L 0.2015874335106383 13.762143342391305  C 0.14426529255319168 14.019395380434784  0.20433011968085107 14.2892578125  0.36532579787234076 14.495507812499998  L 5.941755319148937 21.640276834239128  C 6.102690220787302 21.84652298197779  6.346776684830323 21.966681164617732  6.6049368351063835 21.96674592391304  L 15.549110704787235 21.96674592391304  C 15.807197473404255 21.96674592391304  16.051296542553192 21.84652683423913  16.212292220744683 21.640276834239128  L 21.788721742021274 14.495507812499996  C 21.9497581122832 14.289285679535762  22.010033448535676 14.019319687120104  21.95246010638298 13.762143342391305  L 19.96209275265958 4.85275985054348  C 19.904707424302604 4.595483334358135  19.735693723341363 4.378952912030352  19.502967087765956 4.264555027173913  L 11.445503656914894 0.2995669157608694  Z " stroke-width="0" stroke-dasharray="0" stroke="rgba(255, 255, 255, 0)" fill="none" transform="matrix(1 0 0 1 1166 275 )" class="stroke" mask="url(#Clip1924)" />
  </g>
</svg>