<?xml version="1.0" encoding="utf-8"?>
<svg version="1.1" xmlns:xlink="http://www.w3.org/1999/xlink" width="45px" height="32px" xmlns="http://www.w3.org/2000/svg">
  <g transform="matrix(1 0 0 1 -63 -144 )">
    <path d="M 32.428 26.5  C 32.428 26.225  32.204 26  31.928 26  L 11.468999999999998 26  C 11.193 26  10.969 26.225  10.969 26.5  C 10.969 26.775  11.193 27  11.468999999999998 27  L 31.928 27  C 32.204 27  32.428 26.775  32.428 26.5  Z M 31.083 18.5  C 31.083 17.673  30.411 17  29.583 17  C 28.755 17  28.083 17.672  28.083 18.5  C 28.083 19.328  28.755 20  29.583 20  C 30.411 20  31.083 19.328  31.083 18.5  Z M 44.083 20  C 44.083 13.823  39.415 8.741  33.415 8.078  C 31.787999999999997 3.3789999999999996  27.335 0  22.083 0  C 16.830999999999996 0  12.378999999999998 3.3789999999999996  10.751999999999999 8.078  C 4.752 8.741  0.08300000000000018 13.823  0.08300000000000018 20  C 0.08300000000000018 26.627000000000002  5.456 32  12.082999999999998 32  L 32.083 32  C 38.71 32  44.083 26.627000000000002  44.083 20  Z M 42.083 19.998999999999995  C 42.083 25.514000000000003  37.598 30  32.083 30  L 12.082999999999998 30  C 6.568999999999999 30  2.0829999999999984 25.514000000000003  2.0829999999999984 20  C 2.0829999999999984 14.896  5.903999999999998 10.625999999999998  10.971999999999998 10.066000000000003  C 11.738999999999995 9.981000000000002  12.388999999999998 9.462000000000003  12.641999999999996 8.733000000000004  C 14.036999999999997 4.7059999999999995  17.831 2  22.083 2  C 26.334999999999997 2  30.129999999999995 4.705  31.522999999999993 8.732  C 31.776999999999994 9.462  32.425999999999995 9.980999999999998  33.193 10.064999999999998  C 38.260999999999996 10.624999999999996  42.083 14.895999999999997  42.083 19.998999999999995  Z M 34.083 18.5  C 34.083 16.015  32.068 14  29.583 14  L 14.582999999999998 14  C 12.097999999999999 14  10.082999999999998 16.015  10.082999999999998 18.5  C 10.082999999999998 20.984  12.097999999999999 23  14.582999999999998 23  L 29.583 23  C 32.068 23  34.083 20.984  34.083 18.5  Z M 33.083 18.5  C 33.083 20.43  31.514000000000006 22  29.583 22  L 14.582999999999998 22  C 12.652999999999999 22  11.082999999999998 20.43  11.082999999999998 18.5  C 11.082999999999998 16.57  12.652999999999999 15  14.582999999999998 15  L 29.583 15  C 31.513999999999996 15  33.083 16.57  33.083 18.5  Z " fill-rule="nonzero" fill="#ffffff" stroke="none" transform="matrix(1 0 0 1 63 144 )" />
  </g>
</svg>