<?xml version="1.0" encoding="utf-8"?>
<svg version="1.1" xmlns:xlink="http://www.w3.org/1999/xlink" width="42px" height="42px" xmlns="http://www.w3.org/2000/svg">
  <g transform="matrix(1 0 0 1 -67 -507 )">
    <path d="M 9.14516129032258 41  L 9.14516129032258 32.854838709677416  L 2.1522883064516134 32.854838709677416  C 1.8430745967741937 32.854838709677416  1.6040020161290323 32.839526209677416  1.4350705645161295 32.80890120967742  C 1.2661391129032264 32.77827620967743  1.1194354838709681 32.73184475806452  0.9949596774193549 32.66960685483871  C 0.7479838709677421 32.5154939516129  0.5627520161290325 32.33026209677419  0.43926411290322576 32.113911290322584  C 0.3770262096774194 31.990423387096776  0.33059475806451627 31.843719758064516  0.2999697580645165 31.67380040322581  C 0.26934475806451663 31.503881048387097  0.25403225806451674 31.264808467741936  1 30.956582661290327  L 1 14.84141129032258  C 0.2540322580645161 13.884133064516128  0.3078729838709675 13.15851814516129  0.4155544354838709 12.664566532258064  C 0.5232358870967743 12.17061491935484  0.6699395161290325 11.753719758064516  0.8556653225806455 11.413881048387099  C 1.2567540322580653 10.703578629032261  1.8124495967741943 10.147883064516131  2.5227520161290324 9.74679435483871  C 2.8625907258064522 9.561068548387096  3.2794858870967745 9.41436491935484  3.7734375 9.306683467741935  C 4.267389112903227 9.19900201612903  4.993004032258065 9.14516129032258  5.950282258064517 9.14516129032258  L 9.14516129032258 9.14516129032258  L 9.14516129032258 1  L 32.854838709677416 1  L 32.854838709677416 9.14516129032258  L 36.04971774193548 9.14516129032258  C 37.006995967741936 9.14516129032258  37.732610887096776 9.19900201612903  38.2265625 9.306683467741935  C 38.72051411290323 9.41436491935484  39.13740927419356 9.561068548387096  39.477247983870974 9.74679435483871  C 40.18755040322581 10.147883064516131  40.74324596774194 10.703578629032261  41.14433467741935 11.413881048387099  C 41.33006048387097 11.753719758064516  41.476764112903226 12.17061491935484  41.58444556451614 12.664566532258064  C 41.692127016129035 13.15851814516129  41.745967741935495 13.884133064516128  41 14.84141129032258  L 41 30.956582661290327  C 41.745967741935495 31.265796370967745  41.730655241935494 31.50486895161291  41.70003024193548 31.673800403225812  C 41.66940524193549 31.84273185483872  41.62297379032258 31.989435483870974  41.560735887096776 32.113911290322584  C 41.406622983870975 32.3608870967742  41.22139112903226 32.54611895161291  41.00504032258065 32.66960685483871  C 40.88155241935485 32.73184475806452  40.73484879032258 32.77827620967743  40.56492943548387 32.80890120967743  C 40.395010080645164 32.83952620967743  40.15593750000001 32.85483870967743  39.84771169354839 32.85483870967742  L 32.854838709677416 32.85483870967742  L 32.854838709677416 41  L 9.14516129032258 41  Z M 29.891129032258064 24  L 12.108870967741936 24  L 12.108870967741936 38  L 29.891129032258064 38  L 29.891129032258064 24  Z M 9.143679435483872 29.891129032258064  L 9.14516129032258 29.891129032258064  L 9.14516129032258 21  L 32.854838709677416 21  L 32.854838709677416 29.891129032258064  L 38 29.891129032258064  L 38 14.84141129032258  C 38.78225806451613 14.193346774193548  38.766945564516135 13.73002016129032  38.736320564516134 13.451431451612903  C 38.705695564516134 13.172842741935485  38.636048387096785 12.949082661290324  38.52737903225807 12.780151209677419  C 38.418709677419365 12.611219758064518  38.279909274193564 12.472419354838712  38.11097782258065 12.36375  C 37.94204637096775 12.25508064516129  37.71828629032259 12.185433467741934  37.439697580645166 12.154808467741935  C 37.16110887096775 12.124183467741936  36.69778225806453 12.108870967741936  36.049717741935495 12.108870967741934  L 5.948800403225806 12.108870967741934  C 5.300735887096774 12.108870967741934  4.83740927419355 12.124183467741934  4.55882056451613 12.154808467741935  C 4.280231854838711 12.185433467741934  4.056471774193549 12.25508064516129  3.8875403225806453 12.36375  C 3.718608870967742 12.472419354838708  3.579808467741936 12.611219758064514  3.4711391129032263 12.780151209677419  C 3.362469758064517 12.949082661290324  3.292822580645163 13.172842741935485  3.2621975806451617 13.451431451612903  C 3.231572580645161 13.730020161290318  3.2162600806451604 14.193346774193548  4 14.84141129032258  L 4 29.891129032258064  L 9.143679435483872 29.891129032258064  Z M 12.108870967741936 4  L 12.108870967741936 9.14516129032258  L 29.891129032258064 9.14516129032258  L 29.891129032258064 4  L 12.108870967741936 4  Z M 9.14516129032258 18.036290322580644  L 9.14516129032258 15.072580645161292  L 12.108870967741936 15.072580645161292  L 12.108870967741936 18.036290322580644  L 9.14516129032258 18.036290322580644  Z M 15.072580645161292 18.036290322580644  L 15.072580645161292 15.072580645161292  L 18.036290322580644 15.072580645161292  L 18.036290322580644 18.036290322580644  L 15.072580645161292 18.036290322580644  Z " fill-rule="nonzero" fill="#ffffff" stroke="none" transform="matrix(1 0 0 1 67 507 )" />
  </g>
</svg>