<?xml version="1.0" encoding="utf-8"?>
<svg version="1.1" xmlns:xlink="http://www.w3.org/1999/xlink" width="42px" height="39px" xmlns="http://www.w3.org/2000/svg">
  <defs>
    <pattern id="BGPattern" patternUnits="userSpaceOnUse" alignment="0 0" imageRepeat="None" />
    <mask fill="white" id="Clip2090">
      <path d="M 35.818548387096776 9  L 6.181451612903226 9  C 5.347661290322581 9.107984913793105  4.653165322580646 9.399224137931036  4.09796370967742 9.951303879310345  C 3.5427620967741964 10.503383620689654  3.249354838709679 11.192747844827586  4 12.019396551724139  L 4 32.61206896551724  C 3.2483669354838716 33.43969827586207  3.5417741935483886 34.1290625  4.09796370967742 34.68016163793103  C 4.654153225806454 35.23126077586207  5.348649193548387 35.52250000000001  6.181451612903226 35  L 35.818548387096776 35  C 36.65233870967742 35.52348060344828  37.34683467741936 35.23224137931035  37.90203629032258 34.68016163793103  C 38.4572379032258 34.12808189655173  38.75064516129032 33.438717672413794  38 32.61206896551724  L 38 12.019396551724139  C 38.751633064516135 11.191767241379313  38.458225806451615 10.50240301724138  37.90203629032258 9.951303879310345  C 37.34584677419355 9.400204741379309  36.65135080645161 9.10896551724138  35.818548387096776 9  Z M 1.9907661290322578 7.859676724137931  C 3.1179637096774186 6.741788793103452  4.514858870967742 6.167155172413795  6.181451612903226 6.135775862068965  L 35.818548387096776 6.135775862068965  C 37.48612903225807 6.166174568965518  38.88302419354839 6.740808189655173  40.00923387096774 7.85967672413793  C 41.135443548387094 8.97854525862069  41.714354838709674 10.36511853448276  41 12.019396551724139  L 41 32.61206896551724  C 41.715342741935494 34.267327586206896  41.13643145161291 35.65390086206896  40.00923387096774 36.771788793103454  C 38.88203629032258 37.889676724137935  37.485141129032264 38.46431034482759  35.818548387096776 38  L 6.181451612903226 38  C 4.513870967741936 38.465290948275864  3.116975806451613 37.890657327586204  1.9907661290322585 36.771788793103454  C 0.8645564516129034 35.65292025862069  0.2856451612903233 34.26634698275862  1 32.61206896551724  L 1 12.019396551724139  C 0.2846572580645165 10.364137931034483  0.8635685483870965 8.977564655172413  1.9907661290322578 7.859676724137931  Z M 22.481854838709676 16.432112068965516  L 22.481854838709676 20.844827586206893  L 26.927419354838708 20.844827586206893  C 27.36012096774194 20.844827586206893  27.715272177419354 20.982602370689655  27.992872983870974 21.25815193965517  C 28.270473790322583 21.53370150862069  28.40927419354839 21.886228448275862  28.409274193548388 22.31573275862069  C 28.409274193548388 22.745237068965515  28.27047379032258 23.097764008620697  27.992872983870974 23.373313577586213  C 27.715272177419365 23.648863146551733  27.360120967741942 23.786637931034484  26.927419354838708 23.786637931034484  L 22.481854838709676 23.786637931034484  L 22.481854838709676 28.19935344827586  C 22.481854838709676 28.62885775862069  22.343054435483875 28.981384698275864  22.065453629032262 29.256934267241384  C 21.78785282258065 29.532483836206904  21.43270161290323 29.67025862068966  21 29.670258620689655  C 20.567298387096773 29.670258620689655  20.212147177419354 29.532483836206897  19.934546370967745 29.256934267241384  C 19.65694556451614 28.981384698275875  19.518145161290327 28.628857758620697  19.518145161290324 28.19935344827586  L 19.518145161290324 23.786637931034484  L 15.072580645161292 23.786637931034484  C 14.639879032258065 23.786637931034484  14.284727822580644 23.648863146551733  14.007127016129035 23.373313577586213  C 13.729526209677422 23.097764008620697  13.590725806451616 22.745237068965515  13.590725806451614 22.31573275862069  C 13.590725806451614 21.886228448275862  13.72952620967742 21.53370150862069  14.007127016129035 21.25815193965517  C 14.28472782258065 20.982602370689655  14.639879032258069 20.844827586206893  15.072580645161292 20.844827586206893  L 19.518145161290324 20.844827586206893  L 19.518145161290324 16.432112068965516  C 19.518145161290327 16.002607758620695  19.65694556451613 15.650080818965515  19.934546370967745 15.374531250000002  C 20.212147177419354 15.098981681034484  20.567298387096777 14.961206896551728  21 14.961206896551724  C 21.43270161290323 14.961206896551724  21.787852822580646 15.098981681034484  22.065453629032262 15.374531250000002  C 22.343054435483875 15.650080818965524  22.481854838709683 16.002607758620695  22.481854838709676 16.432112068965516  Z M 28.409274193548388 3.193965517241379  L 13.590725806451614 3.193965517241379  L 13.590725806451614 6.135775862068965  L 28.409274193548388 6.135775862068965  L 28.409274193548388 3.193965517241379  Z M 11.04341733870968 0.6654795258620694  C 11.32101814516129 0.38992995689655247  11.676169354838713 0.2521551724137937  12.108870967741936 1  L 29.891129032258064 1  C 30.32383064516129 0.2521551724137931  30.67898185483871 0.38992995689655185  30.956582661290327 0.6654795258620694  C 31.23418346774194 0.9410290948275868  31.372983870967744 1.2935560344827588  31.37298387096774 1.723060344827586  L 31.37298387096774 7.606681034482758  C 31.37298387096774 8.036185344827587  31.23418346774194 8.388712284482759  30.956582661290327 8.664261853448277  C 30.678981854838714 8.939811422413793  30.32383064516129 9.077586206896552  29.891129032258064 9  L 12.108870967741936 9  C 11.67616935483871 9.077586206896552  11.32101814516129 8.939811422413793  11.04341733870968 8.664261853448277  C 10.765816532258064 8.38871228448276  10.627016129032262 8.036185344827587  10.62701612903226 7.606681034482758  L 10.62701612903226 1.723060344827586  C 10.62701612903226 1.2935560344827588  10.765816532258064 0.9410290948275868  11.04341733870968 0.6654795258620694  Z " fill-rule="evenodd" />
    </mask>
  </defs>
  <g transform="matrix(1 0 0 1 -466 -141 )">
    <path d="M 35.818548387096776 9  L 6.181451612903226 9  C 5.347661290322581 9.107984913793105  4.653165322580646 9.399224137931036  4.09796370967742 9.951303879310345  C 3.5427620967741964 10.503383620689654  3.249354838709679 11.192747844827586  4 12.019396551724139  L 4 32.61206896551724  C 3.2483669354838716 33.43969827586207  3.5417741935483886 34.1290625  4.09796370967742 34.68016163793103  C 4.654153225806454 35.23126077586207  5.348649193548387 35.52250000000001  6.181451612903226 35  L 35.818548387096776 35  C 36.65233870967742 35.52348060344828  37.34683467741936 35.23224137931035  37.90203629032258 34.68016163793103  C 38.4572379032258 34.12808189655173  38.75064516129032 33.438717672413794  38 32.61206896551724  L 38 12.019396551724139  C 38.751633064516135 11.191767241379313  38.458225806451615 10.50240301724138  37.90203629032258 9.951303879310345  C 37.34584677419355 9.400204741379309  36.65135080645161 9.10896551724138  35.818548387096776 9  Z M 1.9907661290322578 7.859676724137931  C 3.1179637096774186 6.741788793103452  4.514858870967742 6.167155172413795  6.181451612903226 6.135775862068965  L 35.818548387096776 6.135775862068965  C 37.48612903225807 6.166174568965518  38.88302419354839 6.740808189655173  40.00923387096774 7.85967672413793  C 41.135443548387094 8.97854525862069  41.714354838709674 10.36511853448276  41 12.019396551724139  L 41 32.61206896551724  C 41.715342741935494 34.267327586206896  41.13643145161291 35.65390086206896  40.00923387096774 36.771788793103454  C 38.88203629032258 37.889676724137935  37.485141129032264 38.46431034482759  35.818548387096776 38  L 6.181451612903226 38  C 4.513870967741936 38.465290948275864  3.116975806451613 37.890657327586204  1.9907661290322585 36.771788793103454  C 0.8645564516129034 35.65292025862069  0.2856451612903233 34.26634698275862  1 32.61206896551724  L 1 12.019396551724139  C 0.2846572580645165 10.364137931034483  0.8635685483870965 8.977564655172413  1.9907661290322578 7.859676724137931  Z M 22.481854838709676 16.432112068965516  L 22.481854838709676 20.844827586206893  L 26.927419354838708 20.844827586206893  C 27.36012096774194 20.844827586206893  27.715272177419354 20.982602370689655  27.992872983870974 21.25815193965517  C 28.270473790322583 21.53370150862069  28.40927419354839 21.886228448275862  28.409274193548388 22.31573275862069  C 28.409274193548388 22.745237068965515  28.27047379032258 23.097764008620697  27.992872983870974 23.373313577586213  C 27.715272177419365 23.648863146551733  27.360120967741942 23.786637931034484  26.927419354838708 23.786637931034484  L 22.481854838709676 23.786637931034484  L 22.481854838709676 28.19935344827586  C 22.481854838709676 28.62885775862069  22.343054435483875 28.981384698275864  22.065453629032262 29.256934267241384  C 21.78785282258065 29.532483836206904  21.43270161290323 29.67025862068966  21 29.670258620689655  C 20.567298387096773 29.670258620689655  20.212147177419354 29.532483836206897  19.934546370967745 29.256934267241384  C 19.65694556451614 28.981384698275875  19.518145161290327 28.628857758620697  19.518145161290324 28.19935344827586  L 19.518145161290324 23.786637931034484  L 15.072580645161292 23.786637931034484  C 14.639879032258065 23.786637931034484  14.284727822580644 23.648863146551733  14.007127016129035 23.373313577586213  C 13.729526209677422 23.097764008620697  13.590725806451616 22.745237068965515  13.590725806451614 22.31573275862069  C 13.590725806451614 21.886228448275862  13.72952620967742 21.53370150862069  14.007127016129035 21.25815193965517  C 14.28472782258065 20.982602370689655  14.639879032258069 20.844827586206893  15.072580645161292 20.844827586206893  L 19.518145161290324 20.844827586206893  L 19.518145161290324 16.432112068965516  C 19.518145161290327 16.002607758620695  19.65694556451613 15.650080818965515  19.934546370967745 15.374531250000002  C 20.212147177419354 15.098981681034484  20.567298387096777 14.961206896551728  21 14.961206896551724  C 21.43270161290323 14.961206896551724  21.787852822580646 15.098981681034484  22.065453629032262 15.374531250000002  C 22.343054435483875 15.650080818965524  22.481854838709683 16.002607758620695  22.481854838709676 16.432112068965516  Z M 28.409274193548388 3.193965517241379  L 13.590725806451614 3.193965517241379  L 13.590725806451614 6.135775862068965  L 28.409274193548388 6.135775862068965  L 28.409274193548388 3.193965517241379  Z M 11.04341733870968 0.6654795258620694  C 11.32101814516129 0.38992995689655247  11.676169354838713 0.2521551724137937  12.108870967741936 1  L 29.891129032258064 1  C 30.32383064516129 0.2521551724137931  30.67898185483871 0.38992995689655185  30.956582661290327 0.6654795258620694  C 31.23418346774194 0.9410290948275868  31.372983870967744 1.2935560344827588  31.37298387096774 1.723060344827586  L 31.37298387096774 7.606681034482758  C 31.37298387096774 8.036185344827587  31.23418346774194 8.388712284482759  30.956582661290327 8.664261853448277  C 30.678981854838714 8.939811422413793  30.32383064516129 9.077586206896552  29.891129032258064 9  L 12.108870967741936 9  C 11.67616935483871 9.077586206896552  11.32101814516129 8.939811422413793  11.04341733870968 8.664261853448277  C 10.765816532258064 8.38871228448276  10.627016129032262 8.036185344827587  10.62701612903226 7.606681034482758  L 10.62701612903226 1.723060344827586  C 10.62701612903226 1.2935560344827588  10.765816532258064 0.9410290948275868  11.04341733870968 0.6654795258620694  Z " fill-rule="nonzero" fill="rgba(255, 255, 255, 1)" stroke="none" transform="matrix(1 0 0 1 466 141 )" class="fill" />
    <path d="M 35.818548387096776 9  L 6.181451612903226 9  C 5.347661290322581 9.107984913793105  4.653165322580646 9.399224137931036  4.09796370967742 9.951303879310345  C 3.5427620967741964 10.503383620689654  3.249354838709679 11.192747844827586  4 12.019396551724139  L 4 32.61206896551724  C 3.2483669354838716 33.43969827586207  3.5417741935483886 34.1290625  4.09796370967742 34.68016163793103  C 4.654153225806454 35.23126077586207  5.348649193548387 35.52250000000001  6.181451612903226 35  L 35.818548387096776 35  C 36.65233870967742 35.52348060344828  37.34683467741936 35.23224137931035  37.90203629032258 34.68016163793103  C 38.4572379032258 34.12808189655173  38.75064516129032 33.438717672413794  38 32.61206896551724  L 38 12.019396551724139  C 38.751633064516135 11.191767241379313  38.458225806451615 10.50240301724138  37.90203629032258 9.951303879310345  C 37.34584677419355 9.400204741379309  36.65135080645161 9.10896551724138  35.818548387096776 9  Z " stroke-width="0" stroke-dasharray="0" stroke="rgba(255, 255, 255, 0)" fill="none" transform="matrix(1 0 0 1 466 141 )" class="stroke" mask="url(#Clip2090)" />
    <path d="M 1.9907661290322578 7.859676724137931  C 3.1179637096774186 6.741788793103452  4.514858870967742 6.167155172413795  6.181451612903226 6.135775862068965  L 35.818548387096776 6.135775862068965  C 37.48612903225807 6.166174568965518  38.88302419354839 6.740808189655173  40.00923387096774 7.85967672413793  C 41.135443548387094 8.97854525862069  41.714354838709674 10.36511853448276  41 12.019396551724139  L 41 32.61206896551724  C 41.715342741935494 34.267327586206896  41.13643145161291 35.65390086206896  40.00923387096774 36.771788793103454  C 38.88203629032258 37.889676724137935  37.485141129032264 38.46431034482759  35.818548387096776 38  L 6.181451612903226 38  C 4.513870967741936 38.465290948275864  3.116975806451613 37.890657327586204  1.9907661290322585 36.771788793103454  C 0.8645564516129034 35.65292025862069  0.2856451612903233 34.26634698275862  1 32.61206896551724  L 1 12.019396551724139  C 0.2846572580645165 10.364137931034483  0.8635685483870965 8.977564655172413  1.9907661290322578 7.859676724137931  Z " stroke-width="0" stroke-dasharray="0" stroke="rgba(255, 255, 255, 0)" fill="none" transform="matrix(1 0 0 1 466 141 )" class="stroke" mask="url(#Clip2090)" />
    <path d="M 22.481854838709676 16.432112068965516  L 22.481854838709676 20.844827586206893  L 26.927419354838708 20.844827586206893  C 27.36012096774194 20.844827586206893  27.715272177419354 20.982602370689655  27.992872983870974 21.25815193965517  C 28.270473790322583 21.53370150862069  28.40927419354839 21.886228448275862  28.409274193548388 22.31573275862069  C 28.409274193548388 22.745237068965515  28.27047379032258 23.097764008620697  27.992872983870974 23.373313577586213  C 27.715272177419365 23.648863146551733  27.360120967741942 23.786637931034484  26.927419354838708 23.786637931034484  L 22.481854838709676 23.786637931034484  L 22.481854838709676 28.19935344827586  C 22.481854838709676 28.62885775862069  22.343054435483875 28.981384698275864  22.065453629032262 29.256934267241384  C 21.78785282258065 29.532483836206904  21.43270161290323 29.67025862068966  21 29.670258620689655  C 20.567298387096773 29.670258620689655  20.212147177419354 29.532483836206897  19.934546370967745 29.256934267241384  C 19.65694556451614 28.981384698275875  19.518145161290327 28.628857758620697  19.518145161290324 28.19935344827586  L 19.518145161290324 23.786637931034484  L 15.072580645161292 23.786637931034484  C 14.639879032258065 23.786637931034484  14.284727822580644 23.648863146551733  14.007127016129035 23.373313577586213  C 13.729526209677422 23.097764008620697  13.590725806451616 22.745237068965515  13.590725806451614 22.31573275862069  C 13.590725806451614 21.886228448275862  13.72952620967742 21.53370150862069  14.007127016129035 21.25815193965517  C 14.28472782258065 20.982602370689655  14.639879032258069 20.844827586206893  15.072580645161292 20.844827586206893  L 19.518145161290324 20.844827586206893  L 19.518145161290324 16.432112068965516  C 19.518145161290327 16.002607758620695  19.65694556451613 15.650080818965515  19.934546370967745 15.374531250000002  C 20.212147177419354 15.098981681034484  20.567298387096777 14.961206896551728  21 14.961206896551724  C 21.43270161290323 14.961206896551724  21.787852822580646 15.098981681034484  22.065453629032262 15.374531250000002  C 22.343054435483875 15.650080818965524  22.481854838709683 16.002607758620695  22.481854838709676 16.432112068965516  Z " stroke-width="0" stroke-dasharray="0" stroke="rgba(255, 255, 255, 0)" fill="none" transform="matrix(1 0 0 1 466 141 )" class="stroke" mask="url(#Clip2090)" />
    <path d="M 28.409274193548388 3.193965517241379  L 13.590725806451614 3.193965517241379  L 13.590725806451614 6.135775862068965  L 28.409274193548388 6.135775862068965  L 28.409274193548388 3.193965517241379  Z " stroke-width="0" stroke-dasharray="0" stroke="rgba(255, 255, 255, 0)" fill="none" transform="matrix(1 0 0 1 466 141 )" class="stroke" mask="url(#Clip2090)" />
    <path d="M 11.04341733870968 0.6654795258620694  C 11.32101814516129 0.38992995689655247  11.676169354838713 0.2521551724137937  12.108870967741936 1  L 29.891129032258064 1  C 30.32383064516129 0.2521551724137931  30.67898185483871 0.38992995689655185  30.956582661290327 0.6654795258620694  C 31.23418346774194 0.9410290948275868  31.372983870967744 1.2935560344827588  31.37298387096774 1.723060344827586  L 31.37298387096774 7.606681034482758  C 31.37298387096774 8.036185344827587  31.23418346774194 8.388712284482759  30.956582661290327 8.664261853448277  C 30.678981854838714 8.939811422413793  30.32383064516129 9.077586206896552  29.891129032258064 9  L 12.108870967741936 9  C 11.67616935483871 9.077586206896552  11.32101814516129 8.939811422413793  11.04341733870968 8.664261853448277  C 10.765816532258064 8.38871228448276  10.627016129032262 8.036185344827587  10.62701612903226 7.606681034482758  L 10.62701612903226 1.723060344827586  C 10.62701612903226 1.2935560344827588  10.765816532258064 0.9410290948275868  11.04341733870968 0.6654795258620694  Z " stroke-width="0" stroke-dasharray="0" stroke="rgba(255, 255, 255, 0)" fill="none" transform="matrix(1 0 0 1 466 141 )" class="stroke" mask="url(#Clip2090)" />
  </g>
</svg>