<?xml version="1.0" encoding="utf-8"?>
<svg version="1.1" xmlns:xlink="http://www.w3.org/1999/xlink" width="42px" height="48px" xmlns="http://www.w3.org/2000/svg">
  <defs>
    <pattern id="BGPattern" patternUnits="userSpaceOnUse" alignment="0 0" imageRepeat="None" />
    <mask fill="white" id="Clip1592">
      <path d="M 21 4.683387096774195  L 4 18.81435483870968  L 4 44  L 38 44  L 38 18.81435483870968  L 21 4.683387096774195  Z M 1 18.020080645161286  C 0.5833333333333333 17.490564516129034  0.7960069444444445 17.049677419354836  1.2213541666666667 16.69741935483871  L 19.936631944444443 1.1912903225806453  C 20.2553587962963 0.9440322580645164  20.609814814814815 0.8204032258064522  21 0.8204032258064522  C 21.390185185185192 0.8204032258064522  21.744641203703708 0.9440322580645164  22.063368055555557 1.1912903225806453  L 40.77864583333333 16.69741935483871  C 41.20399305555556 17.050806451612907  41.41666666666667 17.491693548387104  41 18.02008064516129  L 41 46.016129032258064  C 41.41666666666667 46.51064516129033  41.25730324074075 46.916532258064514  40.9385763888889 47.233790322580646  C 40.61984953703705 47.551048387096785  40.21208333333334 47.709677419354854  39.71527777777778 47  L 2.2847222222222223 47  C 1.7879166666666666 47.709677419354854  1.3801504629629635 47.551048387096785  1.0614236111111102 47.233790322580646  C 0.7426967592592594 46.916532258064514  0.5833333333333333 46.51064516129033  1 46.016129032258064  L 1 18.020080645161286  Z " fill-rule="evenodd" />
    </mask>
  </defs>
  <g transform="matrix(1 0 0 1 -1270 -136 )">
    <path d="M 21 4.683387096774195  L 4 18.81435483870968  L 4 44  L 38 44  L 38 18.81435483870968  L 21 4.683387096774195  Z M 1 18.020080645161286  C 0.5833333333333333 17.490564516129034  0.7960069444444445 17.049677419354836  1.2213541666666667 16.69741935483871  L 19.936631944444443 1.1912903225806453  C 20.2553587962963 0.9440322580645164  20.609814814814815 0.8204032258064522  21 0.8204032258064522  C 21.390185185185192 0.8204032258064522  21.744641203703708 0.9440322580645164  22.063368055555557 1.1912903225806453  L 40.77864583333333 16.69741935483871  C 41.20399305555556 17.050806451612907  41.41666666666667 17.491693548387104  41 18.02008064516129  L 41 46.016129032258064  C 41.41666666666667 46.51064516129033  41.25730324074075 46.916532258064514  40.9385763888889 47.233790322580646  C 40.61984953703705 47.551048387096785  40.21208333333334 47.709677419354854  39.71527777777778 47  L 2.2847222222222223 47  C 1.7879166666666666 47.709677419354854  1.3801504629629635 47.551048387096785  1.0614236111111102 47.233790322580646  C 0.7426967592592594 46.916532258064514  0.5833333333333333 46.51064516129033  1 46.016129032258064  L 1 18.020080645161286  Z " fill-rule="nonzero" fill="rgba(255, 255, 255, 1)" stroke="none" transform="matrix(1 0 0 1 1270 136 )" class="fill" />
    <path d="M 21 4.683387096774195  L 4 18.81435483870968  L 4 44  L 38 44  L 38 18.81435483870968  L 21 4.683387096774195  Z " stroke-width="0" stroke-dasharray="0" stroke="rgba(255, 255, 255, 0)" fill="none" transform="matrix(1 0 0 1 1270 136 )" class="stroke" mask="url(#Clip1592)" />
    <path d="M 1 18.020080645161286  C 0.5833333333333333 17.490564516129034  0.7960069444444445 17.049677419354836  1.2213541666666667 16.69741935483871  L 19.936631944444443 1.1912903225806453  C 20.2553587962963 0.9440322580645164  20.609814814814815 0.8204032258064522  21 0.8204032258064522  C 21.390185185185192 0.8204032258064522  21.744641203703708 0.9440322580645164  22.063368055555557 1.1912903225806453  L 40.77864583333333 16.69741935483871  C 41.20399305555556 17.050806451612907  41.41666666666667 17.491693548387104  41 18.02008064516129  L 41 46.016129032258064  C 41.41666666666667 46.51064516129033  41.25730324074075 46.916532258064514  40.9385763888889 47.233790322580646  C 40.61984953703705 47.551048387096785  40.21208333333334 47.709677419354854  39.71527777777778 47  L 2.2847222222222223 47  C 1.7879166666666666 47.709677419354854  1.3801504629629635 47.551048387096785  1.0614236111111102 47.233790322580646  C 0.7426967592592594 46.916532258064514  0.5833333333333333 46.51064516129033  1 46.016129032258064  L 1 18.020080645161286  Z " stroke-width="0" stroke-dasharray="0" stroke="rgba(255, 255, 255, 0)" fill="none" transform="matrix(1 0 0 1 1270 136 )" class="stroke" mask="url(#Clip1592)" />
  </g>
</svg>