<?xml version="1.0" encoding="utf-8"?>
<svg version="1.1" xmlns:xlink="http://www.w3.org/1999/xlink" width="37px" height="42px" xmlns="http://www.w3.org/2000/svg">
  <defs>
    <pattern id="BGPattern" patternUnits="userSpaceOnUse" alignment="0 0" imageRepeat="None" />
    <mask fill="white" id="Clip1387">
      <path d="M 33 4  L 4 4  L 4 38  L 33 38  L 33 4  Z M 0.9350636574074065 0.6704334677419358  C 1.2158468364197526 0.39283266129032335  1.5750694444444444 0.25403225806451674  2.0127314814814814 1  L 34.98726851851852 1  C 35.424930555555555 0.2540322580645161  35.78415316358025 0.3928326612903227  36.064936342592596 0.6704334677419358  C 36.34571952160494 0.9480342741935489  36.486111111111114 1.3031854838709678  36 1.7358870967741935  L 36 40.26411290322581  C 36.486111111111114 40.69681451612903  36.34571952160494 41.051965725806454  36.064936342592596 41.32956653225806  C 35.78415316358026 41.60716733870969  35.42493055555556 41.745967741935495  34.98726851851852 41  L 2.0127314814814814 41  C 1.5750694444444444 41.745967741935495  1.2158468364197534 41.60716733870969  0.9350636574074065 41.32956653225806  C 0.6542804783950618 41.051965725806454  0.5138888888888888 40.69681451612903  1 40.26411290322581  L 1 1.7358870967741935  C 0.5138888888888888 1.3031854838709678  0.6542804783950618 0.9480342741935489  0.9350636574074065 0.6704334677419358  Z M 9.506944444444443 24  L 9.506944444444443 21  L 27.493055555555557 21  L 27.493055555555557 24  L 9.506944444444443 24  Z M 9.506944444444443 15.072580645161292  L 9.506944444444443 12.108870967741936  L 18.5 12.108870967741936  L 18.5 15.072580645161292  L 9.506944444444443 15.072580645161292  Z M 9.506944444444443 32.854838709677416  L 9.506944444444443 29.891129032258064  L 27.493055555555557 29.891129032258064  L 27.493055555555557 32.854838709677416  L 9.506944444444443 32.854838709677416  Z " fill-rule="evenodd" />
    </mask>
  </defs>
  <g transform="matrix(1 0 0 1 -871 -139 )">
    <path d="M 33 4  L 4 4  L 4 38  L 33 38  L 33 4  Z M 0.9350636574074065 0.6704334677419358  C 1.2158468364197526 0.39283266129032335  1.5750694444444444 0.25403225806451674  2.0127314814814814 1  L 34.98726851851852 1  C 35.424930555555555 0.2540322580645161  35.78415316358025 0.3928326612903227  36.064936342592596 0.6704334677419358  C 36.34571952160494 0.9480342741935489  36.486111111111114 1.3031854838709678  36 1.7358870967741935  L 36 40.26411290322581  C 36.486111111111114 40.69681451612903  36.34571952160494 41.051965725806454  36.064936342592596 41.32956653225806  C 35.78415316358026 41.60716733870969  35.42493055555556 41.745967741935495  34.98726851851852 41  L 2.0127314814814814 41  C 1.5750694444444444 41.745967741935495  1.2158468364197534 41.60716733870969  0.9350636574074065 41.32956653225806  C 0.6542804783950618 41.051965725806454  0.5138888888888888 40.69681451612903  1 40.26411290322581  L 1 1.7358870967741935  C 0.5138888888888888 1.3031854838709678  0.6542804783950618 0.9480342741935489  0.9350636574074065 0.6704334677419358  Z M 9.506944444444443 24  L 9.506944444444443 21  L 27.493055555555557 21  L 27.493055555555557 24  L 9.506944444444443 24  Z M 9.506944444444443 15.072580645161292  L 9.506944444444443 12.108870967741936  L 18.5 12.108870967741936  L 18.5 15.072580645161292  L 9.506944444444443 15.072580645161292  Z M 9.506944444444443 32.854838709677416  L 9.506944444444443 29.891129032258064  L 27.493055555555557 29.891129032258064  L 27.493055555555557 32.854838709677416  L 9.506944444444443 32.854838709677416  Z " fill-rule="nonzero" fill="rgba(255, 255, 255, 1)" stroke="none" transform="matrix(1 0 0 1 871 139 )" class="fill" />
    <path d="M 33 4  L 4 4  L 4 38  L 33 38  L 33 4  Z " stroke-width="0" stroke-dasharray="0" stroke="rgba(255, 255, 255, 0)" fill="none" transform="matrix(1 0 0 1 871 139 )" class="stroke" mask="url(#Clip1387)" />
    <path d="M 0.9350636574074065 0.6704334677419358  C 1.2158468364197526 0.39283266129032335  1.5750694444444444 0.25403225806451674  2.0127314814814814 1  L 34.98726851851852 1  C 35.424930555555555 0.2540322580645161  35.78415316358025 0.3928326612903227  36.064936342592596 0.6704334677419358  C 36.34571952160494 0.9480342741935489  36.486111111111114 1.3031854838709678  36 1.7358870967741935  L 36 40.26411290322581  C 36.486111111111114 40.69681451612903  36.34571952160494 41.051965725806454  36.064936342592596 41.32956653225806  C 35.78415316358026 41.60716733870969  35.42493055555556 41.745967741935495  34.98726851851852 41  L 2.0127314814814814 41  C 1.5750694444444444 41.745967741935495  1.2158468364197534 41.60716733870969  0.9350636574074065 41.32956653225806  C 0.6542804783950618 41.051965725806454  0.5138888888888888 40.69681451612903  1 40.26411290322581  L 1 1.7358870967741935  C 0.5138888888888888 1.3031854838709678  0.6542804783950618 0.9480342741935489  0.9350636574074065 0.6704334677419358  Z " stroke-width="0" stroke-dasharray="0" stroke="rgba(255, 255, 255, 0)" fill="none" transform="matrix(1 0 0 1 871 139 )" class="stroke" mask="url(#Clip1387)" />
    <path d="M 9.506944444444443 24  L 9.506944444444443 21  L 27.493055555555557 21  L 27.493055555555557 24  L 9.506944444444443 24  Z " stroke-width="0" stroke-dasharray="0" stroke="rgba(255, 255, 255, 0)" fill="none" transform="matrix(1 0 0 1 871 139 )" class="stroke" mask="url(#Clip1387)" />
    <path d="M 9.506944444444443 15.072580645161292  L 9.506944444444443 12.108870967741936  L 18.5 12.108870967741936  L 18.5 15.072580645161292  L 9.506944444444443 15.072580645161292  Z " stroke-width="0" stroke-dasharray="0" stroke="rgba(255, 255, 255, 0)" fill="none" transform="matrix(1 0 0 1 871 139 )" class="stroke" mask="url(#Clip1387)" />
    <path d="M 9.506944444444443 32.854838709677416  L 9.506944444444443 29.891129032258064  L 27.493055555555557 29.891129032258064  L 27.493055555555557 32.854838709677416  L 9.506944444444443 32.854838709677416  Z " stroke-width="0" stroke-dasharray="0" stroke="rgba(255, 255, 255, 0)" fill="none" transform="matrix(1 0 0 1 871 139 )" class="stroke" mask="url(#Clip1387)" />
  </g>
</svg>