<?xml version="1.0" encoding="utf-8"?>
<svg version="1.1" xmlns:xlink="http://www.w3.org/1999/xlink" width="42px" height="39px" xmlns="http://www.w3.org/2000/svg">
  <defs>
    <pattern id="BGPattern" patternUnits="userSpaceOnUse" alignment="0 0" imageRepeat="None" />
    <mask fill="white" id="Clip559">
      <path d="M 18.84686491935484 37.990265625  C 18.42996975806452 38.390286458333335  17.91280241935484 38.604989583333335  17.295362903225808 38.634375  C 16.677923387096776 38.604989583333335  16.160756048387096 38.390286458333335  15.743860887096773 37.990265625  C 15.326965725806451 37.59024479166667  15.11851814516129 37.09401041666668  15.11851814516129 36.5015625  C 15.11851814516129 35.909114583333334  15.326965725806451 35.412880208333334  15.743860887096773 35.012859375  C 16.160756048387096 34.61283854166667  16.677923387096776 34.412828125000004  17.295362903225808 34.412828125  C 17.91280241935484 34.412828125000004  18.42996975806452 34.61283854166667  18.84686491935484 35.012859375  C 19.263760080645163 35.412880208333334  19.472207661290327 35.909114583333334  19.472207661290327 36.5015625  C 19.472207661290327 37.09401041666668  19.263760080645163 37.59024479166667  18.84686491935484 37.990265625  Z M 33.66541330645161 37.990265625  C 33.24851814516129 38.390286458333335  32.731350806451616 38.604989583333335  32.113911290322584 38.634375  C 31.49647177419355 38.604989583333335  30.979304435483872 38.390286458333335  30.56240927419355 37.990265625  C 30.14551411290323 37.59024479166667  29.937066532258058 37.09401041666668  29.937066532258058 36.5015625  C 29.937066532258058 35.909114583333334  30.14551411290323 35.412880208333334  30.56240927419355 35.012859375  C 30.979304435483872 34.61283854166667  31.49647177419355 34.412828125000004  32.113911290322584 34.412828125  C 32.731350806451616 34.412828125000004  33.24851814516129 34.61283854166667  33.66541330645161 35.012859375  C 34.08230846774194 35.412880208333334  34.2907560483871 35.909114583333334  34.2907560483871 36.5015625  C 34.2907560483871 37.09401041666668  34.08230846774194 37.59024479166667  33.66541330645161 37.990265625  Z M 1.7358870967741935 3.088921875000001  L 1.7358870967741935 3.0875  C 1.3031854838709678 3.0875  0.9480342741935489 2.954317708333333  0.6704334677419358 2.687953125  C 0.39283266129032335 2.4215885416666665  0.25403225806451674 2.0808125000000004  0.2540322580645161 1.6656250000000001  C 0.2540322580645161 1.2504375  0.3928326612903227 0.9096614583333339  0.6704334677419358 0.6432968750000003  C 0.9480342741935489 0.3769322916666668  1.3031854838709684 0.24375000000000002  1.7358870967741935 0.24375000000000002  L 9.14516129032258 0.24375000000000002  C 9.515625 0.24375000000000002  9.83224798387097 0.3475468749999997  10.095030241935484 0.5551406249999997  C 10.3578125 0.7627343749999996  10.519828629032258 1.0442656249999993  10.581078629032257 1.3997343749999993  L 12.156290322580645 9  L 40.265594758064516 9  C 40.72892137096775 8.776421875  41.10728830645162 8.95415625  41.40069556451613 9.309624999999999  C 41.69410282258066 9.66509375  41.794375 10.065114583333333  41.701512096774195 10.509687499999998  L 37.25594758064516 30.415937499999995  C 37.19370967741936 30.742020833333335  37.0316935483871 31.008859375000004  36.76989919354839 31.216453124999997  C 36.508104838709684 31.424046874999995  36.19148185483872 31.52784374999999  35.82003024193549 31  L 15.074062500000009 31  C 14.703598790322587 31.527843750000002  14.386975806451623 31.424046875000005  14.124193548387105 31.216453124999997  C 13.86141129032259 31.008859375000004  13.699395161290331 30.727328125000003  13.638145161290328 30.371859374999996  L 7.941895161290322 3.088921875000001  L 1.7358870967741935 3.088921875000001  Z M 12.711985887096775 12  L 16.277328629032258 28  L 34.61528225806452 28  L 38.41327620967742 12  L 12.711985887096775 12  Z M 21.185231854838708 8.775  L 29.705897177419356 8.775  L 25.445564516129032 3.8865937500000007  L 21.185231854838708 8.775  Z M 14.88734879032258 12  L 23.17684475806452 2.065171875  C 23.763659274193554 1.4130052083333333  24.51989919354839 1.0869218749999998  25.445564516129032 1.0869218749999998  C 26.37122983870968 1.0869218749999998  27.12746975806451 1.4130052083333333  27.714284274193545 2.065171875  L 36.00378024193548 12  L 14.88734879032258 12  Z " fill-rule="evenodd" />
    </mask>
  </defs>
  <g transform="matrix(1 0 0 1 -64 -322 )">
    <path d="M 18.84686491935484 37.990265625  C 18.42996975806452 38.390286458333335  17.91280241935484 38.604989583333335  17.295362903225808 38.634375  C 16.677923387096776 38.604989583333335  16.160756048387096 38.390286458333335  15.743860887096773 37.990265625  C 15.326965725806451 37.59024479166667  15.11851814516129 37.09401041666668  15.11851814516129 36.5015625  C 15.11851814516129 35.909114583333334  15.326965725806451 35.412880208333334  15.743860887096773 35.012859375  C 16.160756048387096 34.61283854166667  16.677923387096776 34.412828125000004  17.295362903225808 34.412828125  C 17.91280241935484 34.412828125000004  18.42996975806452 34.61283854166667  18.84686491935484 35.012859375  C 19.263760080645163 35.412880208333334  19.472207661290327 35.909114583333334  19.472207661290327 36.5015625  C 19.472207661290327 37.09401041666668  19.263760080645163 37.59024479166667  18.84686491935484 37.990265625  Z M 33.66541330645161 37.990265625  C 33.24851814516129 38.390286458333335  32.731350806451616 38.604989583333335  32.113911290322584 38.634375  C 31.49647177419355 38.604989583333335  30.979304435483872 38.390286458333335  30.56240927419355 37.990265625  C 30.14551411290323 37.59024479166667  29.937066532258058 37.09401041666668  29.937066532258058 36.5015625  C 29.937066532258058 35.909114583333334  30.14551411290323 35.412880208333334  30.56240927419355 35.012859375  C 30.979304435483872 34.61283854166667  31.49647177419355 34.412828125000004  32.113911290322584 34.412828125  C 32.731350806451616 34.412828125000004  33.24851814516129 34.61283854166667  33.66541330645161 35.012859375  C 34.08230846774194 35.412880208333334  34.2907560483871 35.909114583333334  34.2907560483871 36.5015625  C 34.2907560483871 37.09401041666668  34.08230846774194 37.59024479166667  33.66541330645161 37.990265625  Z M 1.7358870967741935 3.088921875000001  L 1.7358870967741935 3.0875  C 1.3031854838709678 3.0875  0.9480342741935489 2.954317708333333  0.6704334677419358 2.687953125  C 0.39283266129032335 2.4215885416666665  0.25403225806451674 2.0808125000000004  0.2540322580645161 1.6656250000000001  C 0.2540322580645161 1.2504375  0.3928326612903227 0.9096614583333339  0.6704334677419358 0.6432968750000003  C 0.9480342741935489 0.3769322916666668  1.3031854838709684 0.24375000000000002  1.7358870967741935 0.24375000000000002  L 9.14516129032258 0.24375000000000002  C 9.515625 0.24375000000000002  9.83224798387097 0.3475468749999997  10.095030241935484 0.5551406249999997  C 10.3578125 0.7627343749999996  10.519828629032258 1.0442656249999993  10.581078629032257 1.3997343749999993  L 12.156290322580645 9  L 40.265594758064516 9  C 40.72892137096775 8.776421875  41.10728830645162 8.95415625  41.40069556451613 9.309624999999999  C 41.69410282258066 9.66509375  41.794375 10.065114583333333  41.701512096774195 10.509687499999998  L 37.25594758064516 30.415937499999995  C 37.19370967741936 30.742020833333335  37.0316935483871 31.008859375000004  36.76989919354839 31.216453124999997  C 36.508104838709684 31.424046874999995  36.19148185483872 31.52784374999999  35.82003024193549 31  L 15.074062500000009 31  C 14.703598790322587 31.527843750000002  14.386975806451623 31.424046875000005  14.124193548387105 31.216453124999997  C 13.86141129032259 31.008859375000004  13.699395161290331 30.727328125000003  13.638145161290328 30.371859374999996  L 7.941895161290322 3.088921875000001  L 1.7358870967741935 3.088921875000001  Z M 12.711985887096775 12  L 16.277328629032258 28  L 34.61528225806452 28  L 38.41327620967742 12  L 12.711985887096775 12  Z M 21.185231854838708 8.775  L 29.705897177419356 8.775  L 25.445564516129032 3.8865937500000007  L 21.185231854838708 8.775  Z M 14.88734879032258 12  L 23.17684475806452 2.065171875  C 23.763659274193554 1.4130052083333333  24.51989919354839 1.0869218749999998  25.445564516129032 1.0869218749999998  C 26.37122983870968 1.0869218749999998  27.12746975806451 1.4130052083333333  27.714284274193545 2.065171875  L 36.00378024193548 12  L 14.88734879032258 12  Z " fill-rule="nonzero" fill="rgba(255, 255, 255, 1)" stroke="none" transform="matrix(1 0 0 1 64 322 )" class="fill" />
    <path d="M 18.84686491935484 37.990265625  C 18.42996975806452 38.390286458333335  17.91280241935484 38.604989583333335  17.295362903225808 38.634375  C 16.677923387096776 38.604989583333335  16.160756048387096 38.390286458333335  15.743860887096773 37.990265625  C 15.326965725806451 37.59024479166667  15.11851814516129 37.09401041666668  15.11851814516129 36.5015625  C 15.11851814516129 35.909114583333334  15.326965725806451 35.412880208333334  15.743860887096773 35.012859375  C 16.160756048387096 34.61283854166667  16.677923387096776 34.412828125000004  17.295362903225808 34.412828125  C 17.91280241935484 34.412828125000004  18.42996975806452 34.61283854166667  18.84686491935484 35.012859375  C 19.263760080645163 35.412880208333334  19.472207661290327 35.909114583333334  19.472207661290327 36.5015625  C 19.472207661290327 37.09401041666668  19.263760080645163 37.59024479166667  18.84686491935484 37.990265625  Z " stroke-width="0" stroke-dasharray="0" stroke="rgba(255, 255, 255, 0)" fill="none" transform="matrix(1 0 0 1 64 322 )" class="stroke" mask="url(#Clip559)" />
    <path d="M 33.66541330645161 37.990265625  C 33.24851814516129 38.390286458333335  32.731350806451616 38.604989583333335  32.113911290322584 38.634375  C 31.49647177419355 38.604989583333335  30.979304435483872 38.390286458333335  30.56240927419355 37.990265625  C 30.14551411290323 37.59024479166667  29.937066532258058 37.09401041666668  29.937066532258058 36.5015625  C 29.937066532258058 35.909114583333334  30.14551411290323 35.412880208333334  30.56240927419355 35.012859375  C 30.979304435483872 34.61283854166667  31.49647177419355 34.412828125000004  32.113911290322584 34.412828125  C 32.731350806451616 34.412828125000004  33.24851814516129 34.61283854166667  33.66541330645161 35.012859375  C 34.08230846774194 35.412880208333334  34.2907560483871 35.909114583333334  34.2907560483871 36.5015625  C 34.2907560483871 37.09401041666668  34.08230846774194 37.59024479166667  33.66541330645161 37.990265625  Z " stroke-width="0" stroke-dasharray="0" stroke="rgba(255, 255, 255, 0)" fill="none" transform="matrix(1 0 0 1 64 322 )" class="stroke" mask="url(#Clip559)" />
    <path d="M 1.7358870967741935 3.088921875000001  L 1.7358870967741935 3.0875  C 1.3031854838709678 3.0875  0.9480342741935489 2.954317708333333  0.6704334677419358 2.687953125  C 0.39283266129032335 2.4215885416666665  0.25403225806451674 2.0808125000000004  0.2540322580645161 1.6656250000000001  C 0.2540322580645161 1.2504375  0.3928326612903227 0.9096614583333339  0.6704334677419358 0.6432968750000003  C 0.9480342741935489 0.3769322916666668  1.3031854838709684 0.24375000000000002  1.7358870967741935 0.24375000000000002  L 9.14516129032258 0.24375000000000002  C 9.515625 0.24375000000000002  9.83224798387097 0.3475468749999997  10.095030241935484 0.5551406249999997  C 10.3578125 0.7627343749999996  10.519828629032258 1.0442656249999993  10.581078629032257 1.3997343749999993  L 12.156290322580645 9  L 40.265594758064516 9  C 40.72892137096775 8.776421875  41.10728830645162 8.95415625  41.40069556451613 9.309624999999999  C 41.69410282258066 9.66509375  41.794375 10.065114583333333  41.701512096774195 10.509687499999998  L 37.25594758064516 30.415937499999995  C 37.19370967741936 30.742020833333335  37.0316935483871 31.008859375000004  36.76989919354839 31.216453124999997  C 36.508104838709684 31.424046874999995  36.19148185483872 31.52784374999999  35.82003024193549 31  L 15.074062500000009 31  C 14.703598790322587 31.527843750000002  14.386975806451623 31.424046875000005  14.124193548387105 31.216453124999997  C 13.86141129032259 31.008859375000004  13.699395161290331 30.727328125000003  13.638145161290328 30.371859374999996  L 7.941895161290322 3.088921875000001  L 1.7358870967741935 3.088921875000001  Z " stroke-width="0" stroke-dasharray="0" stroke="rgba(255, 255, 255, 0)" fill="none" transform="matrix(1 0 0 1 64 322 )" class="stroke" mask="url(#Clip559)" />
    <path d="M 12.711985887096775 12  L 16.277328629032258 28  L 34.61528225806452 28  L 38.41327620967742 12  L 12.711985887096775 12  Z " stroke-width="0" stroke-dasharray="0" stroke="rgba(255, 255, 255, 0)" fill="none" transform="matrix(1 0 0 1 64 322 )" class="stroke" mask="url(#Clip559)" />
    <path d="M 21.185231854838708 8.775  L 29.705897177419356 8.775  L 25.445564516129032 3.8865937500000007  L 21.185231854838708 8.775  Z " stroke-width="0" stroke-dasharray="0" stroke="rgba(255, 255, 255, 0)" fill="none" transform="matrix(1 0 0 1 64 322 )" class="stroke" mask="url(#Clip559)" />
    <path d="M 14.88734879032258 12  L 23.17684475806452 2.065171875  C 23.763659274193554 1.4130052083333333  24.51989919354839 1.0869218749999998  25.445564516129032 1.0869218749999998  C 26.37122983870968 1.0869218749999998  27.12746975806451 1.4130052083333333  27.714284274193545 2.065171875  L 36.00378024193548 12  L 14.88734879032258 12  Z " stroke-width="0" stroke-dasharray="0" stroke="rgba(255, 255, 255, 0)" fill="none" transform="matrix(1 0 0 1 64 322 )" class="stroke" mask="url(#Clip559)" />
  </g>
</svg>