<?xml version="1.0" encoding="utf-8"?>
<svg version="1.1" xmlns:xlink="http://www.w3.org/1999/xlink" width="42px" height="42px" xmlns="http://www.w3.org/2000/svg">
  <defs>
    <pattern id="BGPattern" patternUnits="userSpaceOnUse" alignment="0 0" imageRepeat="None" />
    <mask fill="white" id="Clip1390">
      <path d="M 37.48522629310345 4.516357758620692  L 8.031368534482757 16.296950431034485  L 23.822780172413793 18.42591594827586  L 25.802844827586206 33.77220905172414  L 37.48522629310345 4.516357758620692  Z M 20.998415948275852 21.245528017241387  L 1.644471982758621 18.623922413793103  C 1.2811961206896554 18.591185344827583  0.9760021551724143 18.450732758620692  0.7288900862068968 18.202564655172413  C 0.4817780172413804 17.954396551724145  0.3334051724137941 17.640754310344832  0.28377155172413837 17.261637931034485  C 0.23413793103448335 16.88252155172414  0.3001400862068969 16.5440625  0.48177801724137975 16.246260775862073  C 0.6634159482758626 15.94845905172414  0.9189762931034486 15.734084051724139  1.2484590517241383 15.603135775862068  L 39.76150862068965 0.20773706896551805  C 40.05825431034483 0.07573275862069088  40.355528017241376 0.04246767241379436  40.6533297413793 0.10794181034482846  C 40.951131465517236 0.1734159482758632  41.215140086206894 0.32178879310344954  41.44535560344827 0.5530603448275868  C 41.67557112068965 0.7843318965517253  41.823943965517245 1.0483405172413802  41.89047413793103 1.3450862068965523  C 41.95700431034482 1.6418318965517242  41.923739224137925 1.9391056034482772  41.79067887931034 2.2369073275862075  L 26.444385775862067 40.650161637931035  C 26.31238146551724 40.98070043103449  26.089558189655172 41.23626077586208  25.775915948275856 41.4168426724138  C 25.462273706896546 41.59742456896553  25.12381465517241 41.66342672413794  24.76053879310344 41.61484913793104  C 24.397262931034472 41.56627155172414  24.09206896551724 41.41789870689656  23.844956896551718 41.169730603448286  C 23.597844827586204 40.92156250000002  23.45739224137931 40.616368534482774  23.423599137931028 40.25414870689656  L 20.998415948275852 21.245528017241387  Z " fill-rule="evenodd" />
    </mask>
  </defs>
  <g transform="matrix(1 0 0 1 -466 -320 )">
    <path d="M 37.48522629310345 4.516357758620692  L 8.031368534482757 16.296950431034485  L 23.822780172413793 18.42591594827586  L 25.802844827586206 33.77220905172414  L 37.48522629310345 4.516357758620692  Z M 20.998415948275852 21.245528017241387  L 1.644471982758621 18.623922413793103  C 1.2811961206896554 18.591185344827583  0.9760021551724143 18.450732758620692  0.7288900862068968 18.202564655172413  C 0.4817780172413804 17.954396551724145  0.3334051724137941 17.640754310344832  0.28377155172413837 17.261637931034485  C 0.23413793103448335 16.88252155172414  0.3001400862068969 16.5440625  0.48177801724137975 16.246260775862073  C 0.6634159482758626 15.94845905172414  0.9189762931034486 15.734084051724139  1.2484590517241383 15.603135775862068  L 39.76150862068965 0.20773706896551805  C 40.05825431034483 0.07573275862069088  40.355528017241376 0.04246767241379436  40.6533297413793 0.10794181034482846  C 40.951131465517236 0.1734159482758632  41.215140086206894 0.32178879310344954  41.44535560344827 0.5530603448275868  C 41.67557112068965 0.7843318965517253  41.823943965517245 1.0483405172413802  41.89047413793103 1.3450862068965523  C 41.95700431034482 1.6418318965517242  41.923739224137925 1.9391056034482772  41.79067887931034 2.2369073275862075  L 26.444385775862067 40.650161637931035  C 26.31238146551724 40.98070043103449  26.089558189655172 41.23626077586208  25.775915948275856 41.4168426724138  C 25.462273706896546 41.59742456896553  25.12381465517241 41.66342672413794  24.76053879310344 41.61484913793104  C 24.397262931034472 41.56627155172414  24.09206896551724 41.41789870689656  23.844956896551718 41.169730603448286  C 23.597844827586204 40.92156250000002  23.45739224137931 40.616368534482774  23.423599137931028 40.25414870689656  L 20.998415948275852 21.245528017241387  Z " fill-rule="nonzero" fill="rgba(255, 255, 255, 1)" stroke="none" transform="matrix(1 0 0 1 466 320 )" class="fill" />
    <path d="M 37.48522629310345 4.516357758620692  L 8.031368534482757 16.296950431034485  L 23.822780172413793 18.42591594827586  L 25.802844827586206 33.77220905172414  L 37.48522629310345 4.516357758620692  Z " stroke-width="0" stroke-dasharray="0" stroke="rgba(255, 255, 255, 0)" fill="none" transform="matrix(1 0 0 1 466 320 )" class="stroke" mask="url(#Clip1390)" />
    <path d="M 20.998415948275852 21.245528017241387  L 1.644471982758621 18.623922413793103  C 1.2811961206896554 18.591185344827583  0.9760021551724143 18.450732758620692  0.7288900862068968 18.202564655172413  C 0.4817780172413804 17.954396551724145  0.3334051724137941 17.640754310344832  0.28377155172413837 17.261637931034485  C 0.23413793103448335 16.88252155172414  0.3001400862068969 16.5440625  0.48177801724137975 16.246260775862073  C 0.6634159482758626 15.94845905172414  0.9189762931034486 15.734084051724139  1.2484590517241383 15.603135775862068  L 39.76150862068965 0.20773706896551805  C 40.05825431034483 0.07573275862069088  40.355528017241376 0.04246767241379436  40.6533297413793 0.10794181034482846  C 40.951131465517236 0.1734159482758632  41.215140086206894 0.32178879310344954  41.44535560344827 0.5530603448275868  C 41.67557112068965 0.7843318965517253  41.823943965517245 1.0483405172413802  41.89047413793103 1.3450862068965523  C 41.95700431034482 1.6418318965517242  41.923739224137925 1.9391056034482772  41.79067887931034 2.2369073275862075  L 26.444385775862067 40.650161637931035  C 26.31238146551724 40.98070043103449  26.089558189655172 41.23626077586208  25.775915948275856 41.4168426724138  C 25.462273706896546 41.59742456896553  25.12381465517241 41.66342672413794  24.76053879310344 41.61484913793104  C 24.397262931034472 41.56627155172414  24.09206896551724 41.41789870689656  23.844956896551718 41.169730603448286  C 23.597844827586204 40.92156250000002  23.45739224137931 40.616368534482774  23.423599137931028 40.25414870689656  L 20.998415948275852 21.245528017241387  Z " stroke-width="0" stroke-dasharray="0" stroke="rgba(255, 255, 255, 0)" fill="none" transform="matrix(1 0 0 1 466 320 )" class="stroke" mask="url(#Clip1390)" />
  </g>
</svg>