<?xml version="1.0" encoding="utf-8"?>
<svg version="1.1" xmlns:xlink="http://www.w3.org/1999/xlink" width="19px" height="28px" xmlns="http://www.w3.org/2000/svg">
  <defs>
    <pattern id="BGPattern" patternUnits="userSpaceOnUse" alignment="0 0" imageRepeat="None" />
    <mask fill="white" id="Clip3302">
      <path d="M 17.161221567251467 13.790643274853807  C 18.119350222222216 11.874385964912282  18.43872645614035 9.958128654970768  17.374139040935667 8.574165052631578  C 14.925588023391809 5.806237847953216  12.477037005847947 3.1447693567251456  10 0.3768421052631581  L 10 10.490422362573103  L 5.663677707602339 10.490422362573103  C 5.557218947368419 7.190201450292402  5.024925286549703 4.10289801169591  4.066796631578946 1.3349707602339222  L 0.6601169590643252 1.3349707602339222  C 0.1278232514619866 5.912696561403511  0.2342820116959068 10.490422362573103  0.553658198830405 15.174606877192984  C 0.766575672514616 19.326497730994156  0.8730344327485362 23.4783885380117  1.0859519064327472 27.63027939181287  L 11.093073403508775 27.63027939181287  C 13.11578947368421 23.052553590643278  15.138505497076018 18.36836907602339  17.161221567251467 13.790643274853807  Z " fill-rule="evenodd" />
    </mask>
  </defs>
  <g transform="matrix(1 0 0 1 -599 -45 )">
    <path d="M 17.161221567251467 13.790643274853807  C 18.119350222222216 11.874385964912282  18.43872645614035 9.958128654970768  17.374139040935667 8.574165052631578  C 14.925588023391809 5.806237847953216  12.477037005847947 3.1447693567251456  10 0.3768421052631581  L 10 10.490422362573103  L 5.663677707602339 10.490422362573103  C 5.557218947368419 7.190201450292402  5.024925286549703 4.10289801169591  4.066796631578946 1.3349707602339222  L 0.6601169590643252 1.3349707602339222  C 0.1278232514619866 5.912696561403511  0.2342820116959068 10.490422362573103  0.553658198830405 15.174606877192984  C 0.766575672514616 19.326497730994156  0.8730344327485362 23.4783885380117  1.0859519064327472 27.63027939181287  L 11.093073403508775 27.63027939181287  C 13.11578947368421 23.052553590643278  15.138505497076018 18.36836907602339  17.161221567251467 13.790643274853807  Z " fill-rule="nonzero" fill="rgba(64, 158, 255, 1)" stroke="none" transform="matrix(1 0 0 1 599 45 )" class="fill" />
    <path d="M 17.161221567251467 13.790643274853807  C 18.119350222222216 11.874385964912282  18.43872645614035 9.958128654970768  17.374139040935667 8.574165052631578  C 14.925588023391809 5.806237847953216  12.477037005847947 3.1447693567251456  10 0.3768421052631581  L 10 10.490422362573103  L 5.663677707602339 10.490422362573103  C 5.557218947368419 7.190201450292402  5.024925286549703 4.10289801169591  4.066796631578946 1.3349707602339222  L 0.6601169590643252 1.3349707602339222  C 0.1278232514619866 5.912696561403511  0.2342820116959068 10.490422362573103  0.553658198830405 15.174606877192984  C 0.766575672514616 19.326497730994156  0.8730344327485362 23.4783885380117  1.0859519064327472 27.63027939181287  L 11.093073403508775 27.63027939181287  C 13.11578947368421 23.052553590643278  15.138505497076018 18.36836907602339  17.161221567251467 13.790643274853807  Z " stroke-width="0" stroke-dasharray="0" stroke="rgba(255, 255, 255, 0)" fill="none" transform="matrix(1 0 0 1 599 45 )" class="stroke" mask="url(#Clip3302)" />
  </g>
</svg>