<?xml version="1.0" encoding="utf-8"?>
<svg version="1.1" xmlns:xlink="http://www.w3.org/1999/xlink" width="20px" height="20px" xmlns="http://www.w3.org/2000/svg">
  <defs>
    <pattern id="BGPattern" patternUnits="userSpaceOnUse" alignment="0 0" imageRepeat="None" />
    <mask fill="white" id="Clip1477">
      <path d="M 7.754860117102073 6.9098300562505255  L 10 0  L 12.245139882897929 6.9098300562505255  L 19.510565162951536 6.9098300562505255  L 13.632712640026805 11.180339887498949  L 15.877852522924734 18.090169943749473  L 10 13.819660112501051  L 4.12214747707527 18.090169943749473  L 6.367287359973195 11.180339887498949  L 0.4894348370484636 6.909830056250527  L 7.754860117102073 6.9098300562505255  Z " fill-rule="evenodd" />
    </mask>
  </defs>
  <g>
    <path d="M 7.754860117102073 6.9098300562505255  L 10 0  L 12.245139882897929 6.9098300562505255  L 19.510565162951536 6.9098300562505255  L 13.632712640026805 11.180339887498949  L 15.877852522924734 18.090169943749473  L 10 13.819660112501051  L 4.12214747707527 18.090169943749473  L 6.367287359973195 11.180339887498949  L 0.4894348370484636 6.909830056250527  L 7.754860117102073 6.9098300562505255  Z " fill-rule="nonzero" fill="rgba(255, 255, 255, 1)" stroke="none" class="fill" />
    <path d="M 7.754860117102073 6.9098300562505255  L 10 0  L 12.245139882897929 6.9098300562505255  L 19.510565162951536 6.9098300562505255  L 13.632712640026805 11.180339887498949  L 15.877852522924734 18.090169943749473  L 10 13.819660112501051  L 4.12214747707527 18.090169943749473  L 6.367287359973195 11.180339887498949  L 0.4894348370484636 6.909830056250527  L 7.754860117102073 6.9098300562505255  Z " stroke-width="2" stroke-dasharray="0" stroke="rgba(174, 174, 174, 1)" fill="none" class="stroke" mask="url(#Clip1477)" />
  </g>
</svg>