<?xml version="1.0" encoding="utf-8"?>
<svg version="1.1" xmlns:xlink="http://www.w3.org/1999/xlink" width="20px" height="20px" xmlns="http://www.w3.org/2000/svg">
  <g>
    <path d="M 8.118131381104751 7.4098300562505255  L 10 1.618033988749894  L 11.881868618895249 7.4098300562505255  L 17.97172339436391 7.4098300562505255  L 13.044927387734331 10.989356881873896  L 14.92679600662958 16.781152949374526  L 10 13.201626123751156  L 5.073203993370422 16.781152949374526  L 6.955072612265669 10.989356881873897  L 2.0282766056360897 7.409830056250527  L 8.118131381104751 7.4098300562505255  Z " fill-rule="nonzero" fill="#ff9900" stroke="none" />
    <path d="M 7.754860117102073 6.9098300562505255  L 10 0  L 12.245139882897929 6.9098300562505255  L 19.510565162951536 6.9098300562505255  L 13.632712640026805 11.180339887498949  L 15.877852522924734 18.090169943749473  L 10 13.819660112501051  L 4.12214747707527 18.090169943749473  L 6.367287359973195 11.180339887498949  L 0.4894348370484636 6.909830056250527  L 7.754860117102073 6.9098300562505255  Z M 10 3.236067977499789  L 8.481402645107432 7.9098300562505255  L 3.567118374223715 7.909830056250526  L 7.542857864558141 10.798373876248842  L 6.0242605096655755 15.47213595499958  L 10 12.583592135001263  L 13.975739490334425 15.47213595499958  L 12.45714213544186 10.798373876248846  L 16.432881625776282 7.9098300562505255  L 11.518597354892567 7.9098300562505255  L 10 3.236067977499789  Z " fill-rule="nonzero" fill="#ff9900" stroke="none" />
  </g>
</svg>