<?xml version="1.0" encoding="utf-8"?>
<svg version="1.1" xmlns:xlink="http://www.w3.org/1999/xlink" width="10px" height="5px" xmlns="http://www.w3.org/2000/svg">
  <defs>
    <pattern id="BGPattern" patternUnits="userSpaceOnUse" alignment="0 0" imageRepeat="None" />
    <mask fill="white" id="Clip106">
      <path d="M 7.9599999999999795 4.933333333333337  L 7.9599999999999795 2.9599999999999937  L 9.933333333333337 2.9599999999999937  L 9.933333333333337 4.933333333333337  L 7.9599999999999795 4.933333333333337  Z M 4.013333333333321 1.9733333333333292  L 4.013333333333321 0  L 5.986666666666679 0  L 5.986666666666679 1.9733333333333292  L 4.013333333333321 1.9733333333333292  Z M 7.9599999999999795 1.9733333333333292  L 7.9599999999999795 0  L 9.933333333333337 0  L 9.933333333333337 1.9733333333333292  L 7.9599999999999795 1.9733333333333292  Z M 0.0577777777777726 4.933333333333337  L 0.0577777777777726 2.9599999999999937  L 2.031111111111116 2.9599999999999937  L 2.031111111111116 4.933333333333337  L 0.0577777777777726 4.933333333333337  Z M 4.013333333333321 4.933333333333337  L 4.013333333333321 2.9599999999999937  L 5.986666666666679 2.9599999999999937  L 5.986666666666679 4.933333333333337  L 4.013333333333321 4.933333333333337  Z M 0.0577777777777726 1.9733333333333292  L 0.0577777777777726 0  L 2.031111111111116 0  L 2.031111111111116 1.9733333333333292  L 0.0577777777777726 1.9733333333333292  Z " fill-rule="evenodd" />
    </mask>
  </defs>
  <g transform="matrix(1 0 0 1 -139 -3734 )">
    <path d="M 7.9599999999999795 4.933333333333337  L 7.9599999999999795 2.9599999999999937  L 9.933333333333337 2.9599999999999937  L 9.933333333333337 4.933333333333337  L 7.9599999999999795 4.933333333333337  Z M 4.013333333333321 1.9733333333333292  L 4.013333333333321 0  L 5.986666666666679 0  L 5.986666666666679 1.9733333333333292  L 4.013333333333321 1.9733333333333292  Z M 7.9599999999999795 1.9733333333333292  L 7.9599999999999795 0  L 9.933333333333337 0  L 9.933333333333337 1.9733333333333292  L 7.9599999999999795 1.9733333333333292  Z M 0.0577777777777726 4.933333333333337  L 0.0577777777777726 2.9599999999999937  L 2.031111111111116 2.9599999999999937  L 2.031111111111116 4.933333333333337  L 0.0577777777777726 4.933333333333337  Z M 4.013333333333321 4.933333333333337  L 4.013333333333321 2.9599999999999937  L 5.986666666666679 2.9599999999999937  L 5.986666666666679 4.933333333333337  L 4.013333333333321 4.933333333333337  Z M 0.0577777777777726 1.9733333333333292  L 0.0577777777777726 0  L 2.031111111111116 0  L 2.031111111111116 1.9733333333333292  L 0.0577777777777726 1.9733333333333292  Z " fill-rule="nonzero" fill="rgba(215, 215, 215, 1)" stroke="none" transform="matrix(1 0 0 1 139 3734 )" class="fill" />
    <path d="M 7.9599999999999795 4.933333333333337  L 7.9599999999999795 2.9599999999999937  L 9.933333333333337 2.9599999999999937  L 9.933333333333337 4.933333333333337  L 7.9599999999999795 4.933333333333337  Z " stroke-width="0" stroke-dasharray="0" stroke="rgba(255, 255, 255, 0)" fill="none" transform="matrix(1 0 0 1 139 3734 )" class="stroke" mask="url(#Clip106)" />
    <path d="M 4.013333333333321 1.9733333333333292  L 4.013333333333321 0  L 5.986666666666679 0  L 5.986666666666679 1.9733333333333292  L 4.013333333333321 1.9733333333333292  Z " stroke-width="0" stroke-dasharray="0" stroke="rgba(255, 255, 255, 0)" fill="none" transform="matrix(1 0 0 1 139 3734 )" class="stroke" mask="url(#Clip106)" />
    <path d="M 7.9599999999999795 1.9733333333333292  L 7.9599999999999795 0  L 9.933333333333337 0  L 9.933333333333337 1.9733333333333292  L 7.9599999999999795 1.9733333333333292  Z " stroke-width="0" stroke-dasharray="0" stroke="rgba(255, 255, 255, 0)" fill="none" transform="matrix(1 0 0 1 139 3734 )" class="stroke" mask="url(#Clip106)" />
    <path d="M 0.0577777777777726 4.933333333333337  L 0.0577777777777726 2.9599999999999937  L 2.031111111111116 2.9599999999999937  L 2.031111111111116 4.933333333333337  L 0.0577777777777726 4.933333333333337  Z " stroke-width="0" stroke-dasharray="0" stroke="rgba(255, 255, 255, 0)" fill="none" transform="matrix(1 0 0 1 139 3734 )" class="stroke" mask="url(#Clip106)" />
    <path d="M 4.013333333333321 4.933333333333337  L 4.013333333333321 2.9599999999999937  L 5.986666666666679 2.9599999999999937  L 5.986666666666679 4.933333333333337  L 4.013333333333321 4.933333333333337  Z " stroke-width="0" stroke-dasharray="0" stroke="rgba(255, 255, 255, 0)" fill="none" transform="matrix(1 0 0 1 139 3734 )" class="stroke" mask="url(#Clip106)" />
    <path d="M 0.0577777777777726 1.9733333333333292  L 0.0577777777777726 0  L 2.031111111111116 0  L 2.031111111111116 1.9733333333333292  L 0.0577777777777726 1.9733333333333292  Z " stroke-width="0" stroke-dasharray="0" stroke="rgba(255, 255, 255, 0)" fill="none" transform="matrix(1 0 0 1 139 3734 )" class="stroke" mask="url(#Clip106)" />
  </g>
</svg>