<?xml version="1.0" encoding="utf-8"?>
<svg version="1.1" xmlns:xlink="http://www.w3.org/1999/xlink" width="16px" height="14px" xmlns="http://www.w3.org/2000/svg">
  <g transform="matrix(1 0 0 1 -136 -3727 )">
    <path d="M 16 1.023680000000006  L 11.988210526315811 1.023680000000006  L 11.988210526315811 0.029120000000006033  L 10.99115789473683 0.029120000000006033  L 10.99115789473683 1.023680000000006  L 5.008842105263142 1.023680000000006  L 5.008842105263142 0.029120000000006033  L 4.0117894736842175 0.029120000000006033  L 4.0117894736842175 1.023680000000006  L 0 1.023680000000006  L 0 14  L 16 14  L 16 1.023680000000006  Z M 14.988350877193 6  L 14.988350877193 13  L 1.0116491228070004 13  L 1.0116491228070004 6  L 14.988350877193 6  Z M 14.97936842105264 5.010880000000014  L 14.988350877193 5  L 1.0116491228070004 5  L 1.0116491228070004 1.919680000000007  L 4.002807017543844 1.919680000000007  L 4.002807017543844 3.0127999999999844  L 4.999859649122811 3.0127999999999844  L 4.999859649122811 1.919680000000007  L 10.99115789473683 1.919680000000007  L 10.99115789473683 3.0127999999999844  L 11.988210526315811 3.0127999999999844  L 11.988210526315811 1.919680000000007  L 14.97936842105264 1.919680000000007  L 14.97936842105264 5.010880000000014  Z " fill-rule="nonzero" fill="#d7d7d7" stroke="none" transform="matrix(1 0 0 1 136 3727 )" />
  </g>
</svg>