<?xml version="1.0" encoding="utf-8"?>
<svg version="1.1" xmlns:xlink="http://www.w3.org/1999/xlink" width="12px" height="12px" xmlns="http://www.w3.org/2000/svg">
  <g transform="matrix(1 0 0 1 -127 -3930 )">
    <path d="M 133 3930  C 136.36 3930  139 3932.64  139 3936  C 139 3939.36  136.36 3942  133 3942  C 129.64 3942  127 3939.36  127 3936  C 127 3932.64  129.64 3930  133 3930  Z " fill-rule="nonzero" fill="#ffffff" stroke="none" />
    <path d="M 133 3930.5  C 136.08 3930.5  138.5 3932.92  138.5 3936  C 138.5 3939.08  136.08 3941.5  133 3941.5  C 129.92 3941.5  127.5 3939.08  127.5 3936  C 127.5 3932.92  129.92 3930.5  133 3930.5  Z " stroke-width="1" stroke="#909399" fill="none" />
  </g>
</svg>