<?xml version="1.0" encoding="utf-8"?>
<svg version="1.1" xmlns:xlink="http://www.w3.org/1999/xlink" width="130px" height="130px" xmlns="http://www.w3.org/2000/svg">
  <defs>
    <pattern id="BGPattern" patternUnits="userSpaceOnUse" alignment="0 0" imageRepeat="None" />
    <mask fill="white" id="Clip634">
      <path d="M 0 65  C 0 28.599999999999998  28.599999999999998 0  65 0  C 101.4 0  130 28.599999999999998  130 65  C 130 101.4  101.4 130  65 130  C 28.599999999999998 130  0 101.4  0 65  Z " fill-rule="evenodd" />
    </mask>
  </defs>
  <g transform="matrix(1 0 0 1 -533 -4520 )">
    <path d="M 0 65  C 0 28.599999999999998  28.599999999999998 0  65 0  C 101.4 0  130 28.599999999999998  130 65  C 130 101.4  101.4 130  65 130  C 28.599999999999998 130  0 101.4  0 65  Z " fill-rule="nonzero" fill="rgba(229, 233, 242, 1)" stroke="none" transform="matrix(1 0 0 1 533 4520 )" class="fill" />
    <path d="M 0 65  C 0 28.599999999999998  28.599999999999998 0  65 0  C 101.4 0  130 28.599999999999998  130 65  C 130 101.4  101.4 130  65 130  C 28.599999999999998 130  0 101.4  0 65  Z " stroke-width="2" stroke-dasharray="0" stroke="rgba(255, 255, 255, 0)" fill="none" transform="matrix(1 0 0 1 533 4520 )" class="stroke" mask="url(#Clip634)" />
  </g>
</svg>