<?xml version="1.0" encoding="utf-8"?>
<svg version="1.1" xmlns:xlink="http://www.w3.org/1999/xlink" width="10px" height="6px" xmlns="http://www.w3.org/2000/svg">
  <defs>
    <pattern id="BGPattern" patternUnits="userSpaceOnUse" alignment="0 0" imageRepeat="None" />
    <mask fill="white" id="Clip114">
      <path d="M 0.7197969595782041 0.061938397656717825  L 4.991141300527239 0.04859988283538996  L 9.284831775043934 0.0874272273696306  C 9.545836186291737 0.0874272273696306  9.775274036321036 0.10189006059755457  9.851507937902753 0.16165783320445826  C 10.035567229056824 0.3059539623667433  10.015454458113652 0.6006788709080411  9.851507937902753 0.7678191083304  L 5.306819519625073 5.8636035239367175  C 5.220192349150558 5.952693041640316  5.104568863503225 5.9907793449091855  4.9907919449326315 5.985055544838872  C 4.876990070298774 5.990792122413609  4.761728412419451 5.952693041640316  4.674726930287051 5.8636035239367175  L 0.1300510017574723 0.7678318978324796  C -0.03352124780316501 0.600691642413608  -0.051375700058585494 0.30866255934387254  0.1300510017574723 0.16206667735207247  C 0.21445727006444315 0.09390483421208273  0.3613603690685423 0.061938397656717825  0.7197969595782041 0.061938397656717825  Z " fill-rule="evenodd" />
    </mask>
  </defs>
  <g transform="matrix(1 0 0 1 -30 -4707 )">
    <path d="M 0.7197969595782041 0.061938397656717825  L 4.991141300527239 0.04859988283538996  L 9.284831775043934 0.0874272273696306  C 9.545836186291737 0.0874272273696306  9.775274036321036 0.10189006059755457  9.851507937902753 0.16165783320445826  C 10.035567229056824 0.3059539623667433  10.015454458113652 0.6006788709080411  9.851507937902753 0.7678191083304  L 5.306819519625073 5.8636035239367175  C 5.220192349150558 5.952693041640316  5.104568863503225 5.9907793449091855  4.9907919449326315 5.985055544838872  C 4.876990070298774 5.990792122413609  4.761728412419451 5.952693041640316  4.674726930287051 5.8636035239367175  L 0.1300510017574723 0.7678318978324796  C -0.03352124780316501 0.600691642413608  -0.051375700058585494 0.30866255934387254  0.1300510017574723 0.16206667735207247  C 0.21445727006444315 0.09390483421208273  0.3613603690685423 0.061938397656717825  0.7197969595782041 0.061938397656717825  Z " fill-rule="nonzero" fill="rgba(134, 134, 134, 1)" stroke="none" transform="matrix(1 0 0 1 30 4707 )" class="fill" />
    <path d="M 0.7197969595782041 0.061938397656717825  L 4.991141300527239 0.04859988283538996  L 9.284831775043934 0.0874272273696306  C 9.545836186291737 0.0874272273696306  9.775274036321036 0.10189006059755457  9.851507937902753 0.16165783320445826  C 10.035567229056824 0.3059539623667433  10.015454458113652 0.6006788709080411  9.851507937902753 0.7678191083304  L 5.306819519625073 5.8636035239367175  C 5.220192349150558 5.952693041640316  5.104568863503225 5.9907793449091855  4.9907919449326315 5.985055544838872  C 4.876990070298774 5.990792122413609  4.761728412419451 5.952693041640316  4.674726930287051 5.8636035239367175  L 0.1300510017574723 0.7678318978324796  C -0.03352124780316501 0.600691642413608  -0.051375700058585494 0.30866255934387254  0.1300510017574723 0.16206667735207247  C 0.21445727006444315 0.09390483421208273  0.3613603690685423 0.061938397656717825  0.7197969595782041 0.061938397656717825  Z " stroke-width="0" stroke-dasharray="0" stroke="rgba(255, 255, 255, 0)" fill="none" transform="matrix(1 0 0 1 30 4707 )" class="stroke" mask="url(#Clip114)" />
  </g>
</svg>