<?xml version="1.0" encoding="utf-8"?>
<svg version="1.1" xmlns:xlink="http://www.w3.org/1999/xlink" width="12px" height="12px" xmlns="http://www.w3.org/2000/svg">
  <g transform="matrix(1 0 0 1 -127 -3930 )">
    <path d="M 133 3934  C 134.12 3934  135 3934.88  135 3936  C 135 3937.12  134.12 3938  133 3938  C 131.88 3938  131 3937.12  131 3936  C 131 3934.88  131.88 3934  133 3934  Z " fill-rule="nonzero" fill="#ffffff" stroke="none" />
    <path d="M 133 3932.5  C 134.96 3932.5  136.5 3934.04  136.5 3936  C 136.5 3937.96  134.96 3939.5  133 3939.5  C 131.04 3939.5  129.5 3937.96  129.5 3936  C 129.5 3934.04  131.04 3932.5  133 3932.5  Z " stroke-width="5" stroke="#409eff" fill="none" />
  </g>
</svg>