<?xml version="1.0" encoding="utf-8"?>
<svg version="1.1" xmlns:xlink="http://www.w3.org/1999/xlink" width="14px" height="14px" xmlns="http://www.w3.org/2000/svg">
  <g transform="matrix(1 0 0 1 -370 -4646 )">
    <path d="M 14 7.0000800000000245  C 14 3.1340640000000235  10.866048000000035 8.000000002539309E-05  6.999968000000024 8.000000002539309E-05  C 3.1341919999999845 8.000000002539309E-05  0 3.1340640000000235  0 7.0000800000000245  C 0 10.865999999999985  3.1341919999999845 13.999904000000015  6.999968000000024 13.999904000000015  C 10.866048000000035 13.999904000000015  14 10.865984000000026  14 7.0000800000000245  Z M 10.217104000000006 9.722127999999998  C 10.353791999999999 9.858848000000023  10.353791999999999 10.080416000000014  10.217104000000006 10.217088000000047  C 10.08044799999999 10.353776000000039  9.858832000000007 10.353776000000039  9.722032000000013 10.217088000000047  L 6.999968000000024 7.494943999999975  L 4.277935999999954 10.217088000000047  C 4.141264000000035 10.353776000000039  3.9196640000000116 10.353776000000039  3.782976000000019 10.217088000000047  C 3.6462080000000014 10.080416000000014  3.6462080000000014 9.858848000000023  3.782976000000019 9.722127999999998  L 6.505071999999984 7.0000160000000164  L 3.782976000000019 4.277839999999969  C 3.6462080000000014 4.141279999999995  3.6462080000000014 3.919647999999995  3.782976000000019 3.7829119999999534  C 3.919679999999971 3.646320000000003  4.141279999999995 3.646320000000003  4.277935999999954 3.7829119999999534  L 7.000031999999975 6.505040000000008  L 9.474703999999974 4.03035200000005  C 9.61135999999999 3.893760000000043  9.83297600000003 3.893760000000043  9.969487999999956 4.03035200000005  C 10.106192000000021 4.167087999999978  10.106192000000021 4.388719999999978  9.969487999999956 4.525311999999985  L 7.494943999999975 6.999951999999951  L 10.217104000000006 9.722127999999998  Z " fill-rule="nonzero" fill="#f56c6c" stroke="none" transform="matrix(1 0 0 1 370 4646 )" />
  </g>
</svg>