<?xml version="1.0" encoding="utf-8"?>
<svg version="1.1" xmlns:xlink="http://www.w3.org/1999/xlink" width="30px" height="30px" xmlns="http://www.w3.org/2000/svg">
  <defs>
    <pattern id="BGPattern" patternUnits="userSpaceOnUse" alignment="0 0" imageRepeat="None" />
    <mask fill="white" id="Clip1747">
      <path d="M 28.254742560975615 16  L 16 16  L 16 28.29539296747967  C 16.229448943089437 29.061681666666658  15.608203780487797 29.682926829268297  14.841915081300812 29.682926829268297  C 14.075626382113825 29.682926829268297  13.454381219512193 29.061681666666658  14 28.29539296747967  L 14 16  L 1.4290876422764214 16  C 0.6627989430894274 16.270099349593494  0.04155378048780278 15.648854186991871  0.041553739837397075 14.882565487804882  C 0.041553699186991366 14.116276788617895  0.6627989024390217 13.495031626016264  1.4290876422764214 14  L 14 14  L 14 1.469738048780492  C 13.454381219512193 0.7034493495934981  14.075626382113825 0.08220418699187348  14.841915081300812 0.08220414634146778  C 15.608203780487797 0.08220410569106207  16.229448943089437 0.7034493089430924  16 1.469738048780492  L 16 14  L 28.254742560975615 14  C 29.0210312601626 13.495031626016264  29.642276422764226 14.116276788617895  29.642276422764226 14.882565487804882  C 29.642276422764226 15.648854186991871  29.0210312601626 16.270099349593494  28.254742560975615 16  Z " fill-rule="evenodd" />
    </mask>
  </defs>
  <g transform="matrix(1 0 0 1 -111 -1293 )">
    <path d="M 28.254742560975615 16  L 16 16  L 16 28.29539296747967  C 16.229448943089437 29.061681666666658  15.608203780487797 29.682926829268297  14.841915081300812 29.682926829268297  C 14.075626382113825 29.682926829268297  13.454381219512193 29.061681666666658  14 28.29539296747967  L 14 16  L 1.4290876422764214 16  C 0.6627989430894274 16.270099349593494  0.04155378048780278 15.648854186991871  0.041553739837397075 14.882565487804882  C 0.041553699186991366 14.116276788617895  0.6627989024390217 13.495031626016264  1.4290876422764214 14  L 14 14  L 14 1.469738048780492  C 13.454381219512193 0.7034493495934981  14.075626382113825 0.08220418699187348  14.841915081300812 0.08220414634146778  C 15.608203780487797 0.08220410569106207  16.229448943089437 0.7034493089430924  16 1.469738048780492  L 16 14  L 28.254742560975615 14  C 29.0210312601626 13.495031626016264  29.642276422764226 14.116276788617895  29.642276422764226 14.882565487804882  C 29.642276422764226 15.648854186991871  29.0210312601626 16.270099349593494  28.254742560975615 16  Z " fill-rule="nonzero" fill="rgba(50, 50, 51, 1)" stroke="none" transform="matrix(1 0 0 1 111 1293 )" class="fill" />
    <path d="M 28.254742560975615 16  L 16 16  L 16 28.29539296747967  C 16.229448943089437 29.061681666666658  15.608203780487797 29.682926829268297  14.841915081300812 29.682926829268297  C 14.075626382113825 29.682926829268297  13.454381219512193 29.061681666666658  14 28.29539296747967  L 14 16  L 1.4290876422764214 16  C 0.6627989430894274 16.270099349593494  0.04155378048780278 15.648854186991871  0.041553739837397075 14.882565487804882  C 0.041553699186991366 14.116276788617895  0.6627989024390217 13.495031626016264  1.4290876422764214 14  L 14 14  L 14 1.469738048780492  C 13.454381219512193 0.7034493495934981  14.075626382113825 0.08220418699187348  14.841915081300812 0.08220414634146778  C 15.608203780487797 0.08220410569106207  16.229448943089437 0.7034493089430924  16 1.469738048780492  L 16 14  L 28.254742560975615 14  C 29.0210312601626 13.495031626016264  29.642276422764226 14.116276788617895  29.642276422764226 14.882565487804882  C 29.642276422764226 15.648854186991871  29.0210312601626 16.270099349593494  28.254742560975615 16  Z " stroke-width="0" stroke-dasharray="0" stroke="rgba(255, 255, 255, 0)" fill="none" transform="matrix(1 0 0 1 111 1293 )" class="stroke" mask="url(#Clip1747)" />
  </g>
</svg>