<?xml version="1.0" encoding="utf-8"?>
<svg version="1.1" xmlns:xlink="http://www.w3.org/1999/xlink" width="30px" height="22px" xmlns="http://www.w3.org/2000/svg">
  <defs>
    <pattern id="BGPattern" patternUnits="userSpaceOnUse" alignment="0 0" imageRepeat="None" />
    <mask fill="white" id="Clip1746">
      <path d="M 8.6064 20.999039999999994  L 0.3849599999999995 12.789119999999997  C 0.0124800000000036 12.416639999999996  -0.048960000000001 11.836799999999998  0.2812800000000024 11.422079999999994  L 1.049280000000003 10.454399999999993  C 1.3641599999999983 10.058880000000002  1.951680000000003 9.959039999999995  2.3702400000000026 10.235519999999994  L 9.021120000000003 14.674559999999998  C 9.370560000000005 14.9088  9.97728 14.878079999999995  10.30368 14.613119999999995  L 27.875519999999995 0.3552000000000035  C 28.27104 0.0364799999999974  28.88928 0.06336000000000297  29.234880000000004 0.40896000000000043  L 29.668800000000005 0.842880000000001  C 30.045119999999997 1.2192000000000007  30.01823999999999 1.8143999999999993  29.62272 2.209920000000004  L 10.760640000000002 21.04128  C 10.173119999999997 21.6288  9.20928 21.601919999999993  8.6064 20.999039999999994  Z " fill-rule="evenodd" />
    </mask>
  </defs>
  <g transform="matrix(1 0 0 1 -56 -1297 )">
    <path d="M 8.6064 20.999039999999994  L 0.3849599999999995 12.789119999999997  C 0.0124800000000036 12.416639999999996  -0.048960000000001 11.836799999999998  0.2812800000000024 11.422079999999994  L 1.049280000000003 10.454399999999993  C 1.3641599999999983 10.058880000000002  1.951680000000003 9.959039999999995  2.3702400000000026 10.235519999999994  L 9.021120000000003 14.674559999999998  C 9.370560000000005 14.9088  9.97728 14.878079999999995  10.30368 14.613119999999995  L 27.875519999999995 0.3552000000000035  C 28.27104 0.0364799999999974  28.88928 0.06336000000000297  29.234880000000004 0.40896000000000043  L 29.668800000000005 0.842880000000001  C 30.045119999999997 1.2192000000000007  30.01823999999999 1.8143999999999993  29.62272 2.209920000000004  L 10.760640000000002 21.04128  C 10.173119999999997 21.6288  9.20928 21.601919999999993  8.6064 20.999039999999994  Z " fill-rule="nonzero" fill="rgba(50, 50, 51, 1)" stroke="none" transform="matrix(1 0 0 1 56 1297 )" class="fill" />
    <path d="M 8.6064 20.999039999999994  L 0.3849599999999995 12.789119999999997  C 0.0124800000000036 12.416639999999996  -0.048960000000001 11.836799999999998  0.2812800000000024 11.422079999999994  L 1.049280000000003 10.454399999999993  C 1.3641599999999983 10.058880000000002  1.951680000000003 9.959039999999995  2.3702400000000026 10.235519999999994  L 9.021120000000003 14.674559999999998  C 9.370560000000005 14.9088  9.97728 14.878079999999995  10.30368 14.613119999999995  L 27.875519999999995 0.3552000000000035  C 28.27104 0.0364799999999974  28.88928 0.06336000000000297  29.234880000000004 0.40896000000000043  L 29.668800000000005 0.842880000000001  C 30.045119999999997 1.2192000000000007  30.01823999999999 1.8143999999999993  29.62272 2.209920000000004  L 10.760640000000002 21.04128  C 10.173119999999997 21.6288  9.20928 21.601919999999993  8.6064 20.999039999999994  Z " stroke-width="0" stroke-dasharray="0" stroke="rgba(255, 255, 255, 0)" fill="none" transform="matrix(1 0 0 1 56 1297 )" class="stroke" mask="url(#Clip1746)" />
  </g>
</svg>