<?xml version="1.0" encoding="utf-8"?>
<svg version="1.1" xmlns:xlink="http://www.w3.org/1999/xlink" width="17px" height="30px" xmlns="http://www.w3.org/2000/svg">
  <defs>
    <pattern id="BGPattern" patternUnits="userSpaceOnUse" alignment="0 0" imageRepeat="None" />
    <mask fill="white" id="Clip1441">
      <path d="M 0.5696326530612268 16.15983673469387  C 0.3541224489795951 15.944326530612244  0.20130612244898316 15.670040816326535  0.13469387755102247 15.372244897959177  C 0.00930612244898299 14.839346938775506  0.15428571428571303 14.25551020408163  0.5696326530612268 13.840163265306117  L 13.65306122448979 0.7567346938775472  C 14.29175510204081 0.11804081632652696  15.326204081632639 0.11804081632652696  15.960979591836718 0.7567346938775472  C 16.595755102040812 1.3954285714285675  16.59967346938774 2.429877551020404  15.960979591836718 3.06465306122449  L 4.029551020408164 15  L 15.964897959183673 26.93534693877551  C 16.603591836734694 27.57404081632653  16.603591836734694 28.60848979591836  15.964897959183673 29.243265306122453  C 15.326204081632653 29.878040816326532  14.29175510204081 29.881959183673473  13.65697959183673 29.243265306122453  L 0.5696326530612268 16.15983673469387  Z " fill-rule="evenodd" />
    </mask>
  </defs>
  <g transform="matrix(1 0 0 1 -294 -1293 )">
    <path d="M 0.5696326530612268 16.15983673469387  C 0.3541224489795951 15.944326530612244  0.20130612244898316 15.670040816326535  0.13469387755102247 15.372244897959177  C 0.00930612244898299 14.839346938775506  0.15428571428571303 14.25551020408163  0.5696326530612268 13.840163265306117  L 13.65306122448979 0.7567346938775472  C 14.29175510204081 0.11804081632652696  15.326204081632639 0.11804081632652696  15.960979591836718 0.7567346938775472  C 16.595755102040812 1.3954285714285675  16.59967346938774 2.429877551020404  15.960979591836718 3.06465306122449  L 4.029551020408164 15  L 15.964897959183673 26.93534693877551  C 16.603591836734694 27.57404081632653  16.603591836734694 28.60848979591836  15.964897959183673 29.243265306122453  C 15.326204081632653 29.878040816326532  14.29175510204081 29.881959183673473  13.65697959183673 29.243265306122453  L 0.5696326530612268 16.15983673469387  Z " fill-rule="nonzero" fill="rgba(50, 50, 51, 1)" stroke="none" transform="matrix(1 0 0 1 294 1293 )" class="fill" />
    <path d="M 0.5696326530612268 16.15983673469387  C 0.3541224489795951 15.944326530612244  0.20130612244898316 15.670040816326535  0.13469387755102247 15.372244897959177  C 0.00930612244898299 14.839346938775506  0.15428571428571303 14.25551020408163  0.5696326530612268 13.840163265306117  L 13.65306122448979 0.7567346938775472  C 14.29175510204081 0.11804081632652696  15.326204081632639 0.11804081632652696  15.960979591836718 0.7567346938775472  C 16.595755102040812 1.3954285714285675  16.59967346938774 2.429877551020404  15.960979591836718 3.06465306122449  L 4.029551020408164 15  L 15.964897959183673 26.93534693877551  C 16.603591836734694 27.57404081632653  16.603591836734694 28.60848979591836  15.964897959183673 29.243265306122453  C 15.326204081632653 29.878040816326532  14.29175510204081 29.881959183673473  13.65697959183673 29.243265306122453  L 0.5696326530612268 16.15983673469387  Z " stroke-width="0" stroke-dasharray="0" stroke="rgba(255, 255, 255, 0)" fill="none" transform="matrix(1 0 0 1 294 1293 )" class="stroke" mask="url(#Clip1441)" />
  </g>
</svg>