<?xml version="1.0" encoding="utf-8"?>
<svg version="1.1" xmlns:xlink="http://www.w3.org/1999/xlink" width="30px" height="17px" xmlns="http://www.w3.org/2000/svg">
  <defs>
    <pattern id="BGPattern" patternUnits="userSpaceOnUse" alignment="0 0" imageRepeat="None" />
    <mask fill="white" id="Clip1442">
      <path d="M 13.844081632653058 0.5696326530612268  C 14.25551020408163 0.15428571428572013  14.839346938775506 0.00930612244898299  15.372244897959177 0.13469387755102247  C 15.670040816326535 0.205224489795917  15.940408163265303 0.354122448979588  16.155918367346942 0.5696326530612268  L 29.239346938775512 13.65306122448979  C 29.878040816326532 14.29175510204081  29.878040816326532 15.326204081632639  29.239346938775512 15.960979591836718  C 28.60065306122449 16.595755102040812  27.566204081632648 16.59967346938774  26.93142857142857 15.960979591836718  L 15 4.029551020408164  L 3.068571428571431 15.960979591836733  C 2.429877551020411 16.599673469387753  1.3954285714285675 16.599673469387753  0.7606530612244882 15.960979591836733  C 0.12195918367346792 15.322285714285712  0.12195918367346792 14.287836734693869  0.7606530612244882 13.65306122448979  L 13.844081632653058 0.5696326530612268  Z " fill-rule="evenodd" />
    </mask>
  </defs>
  <g transform="matrix(1 0 0 1 -337 -1299 )">
    <path d="M 13.844081632653058 0.5696326530612268  C 14.25551020408163 0.15428571428572013  14.839346938775506 0.00930612244898299  15.372244897959177 0.13469387755102247  C 15.670040816326535 0.205224489795917  15.940408163265303 0.354122448979588  16.155918367346942 0.5696326530612268  L 29.239346938775512 13.65306122448979  C 29.878040816326532 14.29175510204081  29.878040816326532 15.326204081632639  29.239346938775512 15.960979591836718  C 28.60065306122449 16.595755102040812  27.566204081632648 16.59967346938774  26.93142857142857 15.960979591836718  L 15 4.029551020408164  L 3.068571428571431 15.960979591836733  C 2.429877551020411 16.599673469387753  1.3954285714285675 16.599673469387753  0.7606530612244882 15.960979591836733  C 0.12195918367346792 15.322285714285712  0.12195918367346792 14.287836734693869  0.7606530612244882 13.65306122448979  L 13.844081632653058 0.5696326530612268  Z " fill-rule="nonzero" fill="rgba(50, 50, 51, 1)" stroke="none" transform="matrix(1 0 0 1 337 1299 )" class="fill" />
    <path d="M 13.844081632653058 0.5696326530612268  C 14.25551020408163 0.15428571428572013  14.839346938775506 0.00930612244898299  15.372244897959177 0.13469387755102247  C 15.670040816326535 0.205224489795917  15.940408163265303 0.354122448979588  16.155918367346942 0.5696326530612268  L 29.239346938775512 13.65306122448979  C 29.878040816326532 14.29175510204081  29.878040816326532 15.326204081632639  29.239346938775512 15.960979591836718  C 28.60065306122449 16.595755102040812  27.566204081632648 16.59967346938774  26.93142857142857 15.960979591836718  L 15 4.029551020408164  L 3.068571428571431 15.960979591836733  C 2.429877551020411 16.599673469387753  1.3954285714285675 16.599673469387753  0.7606530612244882 15.960979591836733  C 0.12195918367346792 15.322285714285712  0.12195918367346792 14.287836734693869  0.7606530612244882 13.65306122448979  L 13.844081632653058 0.5696326530612268  Z " stroke-width="0" stroke-dasharray="0" stroke="rgba(255, 255, 255, 0)" fill="none" transform="matrix(1 0 0 1 337 1299 )" class="stroke" mask="url(#Clip1442)" />
  </g>
</svg>