<?xml version="1.0" encoding="utf-8"?>
<svg version="1.1" xmlns:xlink="http://www.w3.org/1999/xlink" width="30px" height="31px" xmlns="http://www.w3.org/2000/svg">
  <defs>
    <pattern id="BGPattern" patternUnits="userSpaceOnUse" alignment="0 0" imageRepeat="None" />
    <mask fill="white" id="Clip1448">
      <path d="M 11.088406779661014 2.3042983050847434  C 9.236745762711863 2.902861016949155  7.54128813559322 3.921762711864405  6.119186440677964 5.273572881355932  C 6.519457627118641 6.709450847457625  6.359999999999999 8.283199999999997  5.605016949152542 9.631647457627123  C 4.850033898305085 10.983457627118641  3.6101694915254257 11.914928813559323  2.2075932203389854 12.271376271186444  C 1.9993220338983022 13.236474576271188  1.891932203389828 14.22847457627119  1.891932203389828 15.23728813559323  C 1.891932203389828 16.246101694915257  1.9993220338983022 17.238101694915265  2.2075932203389854 18.2032  C 3.613423728813558 18.55964745762713  4.850033898305085 19.4911186440678  5.605016949152542 20.84292881355933  C 6.359999999999999 22.19137627118644  6.519457627118641 23.765125423728826  6.119186440677964 25.201003389830515  C 7.54128813559322 26.556176271186445  9.236745762711863 27.571715254237287  11.088406779661014 28.1702779661017  C 12.090711864406785 27.090847457627127  13.490033898305086 26.44856949152543  15 26.44856949152543  C 16.509966101694914 26.44856949152543  17.909288135593215 27.090847457627127  18.911593220338986 28.1702779661017  C 20.763254237288137 27.571715254237287  22.45871186440678 26.556176271186445  23.880813559322036 25.201003389830515  C 23.48054237288136 23.765125423728826  23.64 22.19137627118644  24.394983050847458 20.84292881355933  C 25.149966101694915 19.4911186440678  26.389830508474574 18.55964745762713  27.79240677966102 18.2032  C 28.00067796610169 17.238101694915265  28.10806779661017 16.246101694915257  28.10806779661017 15.23728813559323  C 28.10806779661017 14.22847457627119  28.00067796610169 13.236474576271188  27.79240677966102 12.271376271186444  C 26.386576271186442 11.914928813559323  25.149966101694915 10.983457627118641  24.394983050847458 9.631647457627123  C 23.64 8.283199999999997  23.48054237288136 6.709450847457625  23.880813559322036 5.273572881355932  C 22.45871186440678 3.9184000000000014  20.763254237288137 2.902861016949155  18.911593220338972 2.3042983050847434  C 17.909288135593215 3.3837288135593218  16.509966101694914 4.026006779661015  15 4.026006779661015  C 13.490033898305079 4.026006779661015  12.090711864406778 3.3837288135593218  11.088406779661014 2.3042983050847434  Z M 3.977898305084743 4.856596610169489  C 6.0215593220338945 2.539688135593218  8.738847457627116 0.8717830508474538  11.80759322033898 0.17906440677965849  C 12.41613559322034 1.3593762711864419  13.616949152542375 2.1597016949152565  15 2.1597016949152565  C 16.383050847457625 2.1597016949152565  17.583864406779668 1.3560135593220313  18.192406779661013 0.17906440677965849  C 21.261152542372884 0.8717830508474611  23.978440677966105 2.539688135593218  26.02210169491525 4.853233898305086  C 25.338711864406775 5.986467796610169  25.267118644067793 7.462698305084748  25.96027118644068 8.696813559322036  C 26.65342372881355 9.93429152542373  27.925830508474576 10.610196610169494  29.21776271186441 10.563118644067796  C 29.67010169491526 12.03598644067797  29.914169491525428 13.60637288135593  29.914169491525428 15.233925423728811  C 29.914169491525428 16.861477966101695  29.67010169491526 18.431864406779653  29.21776271186441 19.904732203389838  C 27.925830508474576 19.857654237288145  26.650169491525418 20.533559322033906  25.96027118644068 21.7710372881356  C 25.270372881355925 23.00851525423729  25.338711864406775 24.481383050847462  26.02210169491525 25.614616949152545  C 23.978440677966105 27.928162711864402  21.261152542372884 29.59606779661018  18.192406779661013 30.28878644067797  C 17.583864406779654 29.108474576271195  16.383050847457625 28.308149152542374  15 28.308149152542374  C 13.616949152542368 28.308149152542374  12.41613559322034 29.111837288135597  11.80759322033898 30.28878644067797  C 8.738847457627116 29.59606779661018  6.0215593220338945 27.928162711864402  3.977898305084743 25.614616949152545  C 4.661288135593217 24.481383050847462  4.729627118644068 23.005152542372887  4.0397288135593215 21.7710372881356  C 3.3465762711864357 20.533559322033906  2.0741694915254243 19.857654237288145  0.7822372881355903 19.904732203389838  C 0.3298983050847468 18.435227118644068  0.0858305084745723 16.864840677966104  0.0858305084745723 15.23728813559323  C 0.0858305084745723 13.609735593220343  0.3298983050847468 12.039349152542373  0.7822372881355903 10.566481355932206  C 2.0741694915254243 10.613559322033899  3.349830508474575 9.937654237288134  4.0397288135593215 8.700176271186441  C 4.729627118644068 7.462698305084748  4.661288135593217 5.989830508474573  3.977898305084743 4.856596610169489  Z M 9.575186440677967 15.23728813559323  C 9.575186440677967 18.33098305084746  12.006101694915252 20.84292881355933  15 20.84292881355933  C 17.99389830508474 20.84292881355933  20.424813559322033 18.334345762711866  20.424813559322033 15.23728813559323  C 20.424813559322033 12.140230508474579  17.99389830508474 9.631647457627123  15 9.631647457627123  C 12.006101694915259 9.631647457627123  9.575186440677967 12.143593220338982  9.575186440677967 15.23728813559323  Z M 18.615457627118644 15.23728813559323  C 18.615457627118644 17.30199322033899  16.99810169491525 18.973261016949145  15 18.973261016949145  C 13.001898305084744 18.973261016949145  11.384542372881356 17.30199322033899  11.384542372881356 15.23728813559323  C 11.384542372881356 13.172583050847457  13.001898305084744 11.50131525423729  15 11.50131525423729  C 16.99810169491525 11.50131525423729  18.615457627118644 13.172583050847457  18.615457627118644 15.23728813559323  Z " fill-rule="evenodd" />
    </mask>
  </defs>
  <g transform="matrix(1 0 0 1 -248 -1349 )">
    <path d="M 11.088406779661014 2.3042983050847434  C 9.236745762711863 2.902861016949155  7.54128813559322 3.921762711864405  6.119186440677964 5.273572881355932  C 6.519457627118641 6.709450847457625  6.359999999999999 8.283199999999997  5.605016949152542 9.631647457627123  C 4.850033898305085 10.983457627118641  3.6101694915254257 11.914928813559323  2.2075932203389854 12.271376271186444  C 1.9993220338983022 13.236474576271188  1.891932203389828 14.22847457627119  1.891932203389828 15.23728813559323  C 1.891932203389828 16.246101694915257  1.9993220338983022 17.238101694915265  2.2075932203389854 18.2032  C 3.613423728813558 18.55964745762713  4.850033898305085 19.4911186440678  5.605016949152542 20.84292881355933  C 6.359999999999999 22.19137627118644  6.519457627118641 23.765125423728826  6.119186440677964 25.201003389830515  C 7.54128813559322 26.556176271186445  9.236745762711863 27.571715254237287  11.088406779661014 28.1702779661017  C 12.090711864406785 27.090847457627127  13.490033898305086 26.44856949152543  15 26.44856949152543  C 16.509966101694914 26.44856949152543  17.909288135593215 27.090847457627127  18.911593220338986 28.1702779661017  C 20.763254237288137 27.571715254237287  22.45871186440678 26.556176271186445  23.880813559322036 25.201003389830515  C 23.48054237288136 23.765125423728826  23.64 22.19137627118644  24.394983050847458 20.84292881355933  C 25.149966101694915 19.4911186440678  26.389830508474574 18.55964745762713  27.79240677966102 18.2032  C 28.00067796610169 17.238101694915265  28.10806779661017 16.246101694915257  28.10806779661017 15.23728813559323  C 28.10806779661017 14.22847457627119  28.00067796610169 13.236474576271188  27.79240677966102 12.271376271186444  C 26.386576271186442 11.914928813559323  25.149966101694915 10.983457627118641  24.394983050847458 9.631647457627123  C 23.64 8.283199999999997  23.48054237288136 6.709450847457625  23.880813559322036 5.273572881355932  C 22.45871186440678 3.9184000000000014  20.763254237288137 2.902861016949155  18.911593220338972 2.3042983050847434  C 17.909288135593215 3.3837288135593218  16.509966101694914 4.026006779661015  15 4.026006779661015  C 13.490033898305079 4.026006779661015  12.090711864406778 3.3837288135593218  11.088406779661014 2.3042983050847434  Z M 3.977898305084743 4.856596610169489  C 6.0215593220338945 2.539688135593218  8.738847457627116 0.8717830508474538  11.80759322033898 0.17906440677965849  C 12.41613559322034 1.3593762711864419  13.616949152542375 2.1597016949152565  15 2.1597016949152565  C 16.383050847457625 2.1597016949152565  17.583864406779668 1.3560135593220313  18.192406779661013 0.17906440677965849  C 21.261152542372884 0.8717830508474611  23.978440677966105 2.539688135593218  26.02210169491525 4.853233898305086  C 25.338711864406775 5.986467796610169  25.267118644067793 7.462698305084748  25.96027118644068 8.696813559322036  C 26.65342372881355 9.93429152542373  27.925830508474576 10.610196610169494  29.21776271186441 10.563118644067796  C 29.67010169491526 12.03598644067797  29.914169491525428 13.60637288135593  29.914169491525428 15.233925423728811  C 29.914169491525428 16.861477966101695  29.67010169491526 18.431864406779653  29.21776271186441 19.904732203389838  C 27.925830508474576 19.857654237288145  26.650169491525418 20.533559322033906  25.96027118644068 21.7710372881356  C 25.270372881355925 23.00851525423729  25.338711864406775 24.481383050847462  26.02210169491525 25.614616949152545  C 23.978440677966105 27.928162711864402  21.261152542372884 29.59606779661018  18.192406779661013 30.28878644067797  C 17.583864406779654 29.108474576271195  16.383050847457625 28.308149152542374  15 28.308149152542374  C 13.616949152542368 28.308149152542374  12.41613559322034 29.111837288135597  11.80759322033898 30.28878644067797  C 8.738847457627116 29.59606779661018  6.0215593220338945 27.928162711864402  3.977898305084743 25.614616949152545  C 4.661288135593217 24.481383050847462  4.729627118644068 23.005152542372887  4.0397288135593215 21.7710372881356  C 3.3465762711864357 20.533559322033906  2.0741694915254243 19.857654237288145  0.7822372881355903 19.904732203389838  C 0.3298983050847468 18.435227118644068  0.0858305084745723 16.864840677966104  0.0858305084745723 15.23728813559323  C 0.0858305084745723 13.609735593220343  0.3298983050847468 12.039349152542373  0.7822372881355903 10.566481355932206  C 2.0741694915254243 10.613559322033899  3.349830508474575 9.937654237288134  4.0397288135593215 8.700176271186441  C 4.729627118644068 7.462698305084748  4.661288135593217 5.989830508474573  3.977898305084743 4.856596610169489  Z M 9.575186440677967 15.23728813559323  C 9.575186440677967 18.33098305084746  12.006101694915252 20.84292881355933  15 20.84292881355933  C 17.99389830508474 20.84292881355933  20.424813559322033 18.334345762711866  20.424813559322033 15.23728813559323  C 20.424813559322033 12.140230508474579  17.99389830508474 9.631647457627123  15 9.631647457627123  C 12.006101694915259 9.631647457627123  9.575186440677967 12.143593220338982  9.575186440677967 15.23728813559323  Z M 18.615457627118644 15.23728813559323  C 18.615457627118644 17.30199322033899  16.99810169491525 18.973261016949145  15 18.973261016949145  C 13.001898305084744 18.973261016949145  11.384542372881356 17.30199322033899  11.384542372881356 15.23728813559323  C 11.384542372881356 13.172583050847457  13.001898305084744 11.50131525423729  15 11.50131525423729  C 16.99810169491525 11.50131525423729  18.615457627118644 13.172583050847457  18.615457627118644 15.23728813559323  Z " fill-rule="nonzero" fill="rgba(50, 50, 51, 1)" stroke="none" transform="matrix(1 0 0 1 248 1349 )" class="fill" />
    <path d="M 11.088406779661014 2.3042983050847434  C 9.236745762711863 2.902861016949155  7.54128813559322 3.921762711864405  6.119186440677964 5.273572881355932  C 6.519457627118641 6.709450847457625  6.359999999999999 8.283199999999997  5.605016949152542 9.631647457627123  C 4.850033898305085 10.983457627118641  3.6101694915254257 11.914928813559323  2.2075932203389854 12.271376271186444  C 1.9993220338983022 13.236474576271188  1.891932203389828 14.22847457627119  1.891932203389828 15.23728813559323  C 1.891932203389828 16.246101694915257  1.9993220338983022 17.238101694915265  2.2075932203389854 18.2032  C 3.613423728813558 18.55964745762713  4.850033898305085 19.4911186440678  5.605016949152542 20.84292881355933  C 6.359999999999999 22.19137627118644  6.519457627118641 23.765125423728826  6.119186440677964 25.201003389830515  C 7.54128813559322 26.556176271186445  9.236745762711863 27.571715254237287  11.088406779661014 28.1702779661017  C 12.090711864406785 27.090847457627127  13.490033898305086 26.44856949152543  15 26.44856949152543  C 16.509966101694914 26.44856949152543  17.909288135593215 27.090847457627127  18.911593220338986 28.1702779661017  C 20.763254237288137 27.571715254237287  22.45871186440678 26.556176271186445  23.880813559322036 25.201003389830515  C 23.48054237288136 23.765125423728826  23.64 22.19137627118644  24.394983050847458 20.84292881355933  C 25.149966101694915 19.4911186440678  26.389830508474574 18.55964745762713  27.79240677966102 18.2032  C 28.00067796610169 17.238101694915265  28.10806779661017 16.246101694915257  28.10806779661017 15.23728813559323  C 28.10806779661017 14.22847457627119  28.00067796610169 13.236474576271188  27.79240677966102 12.271376271186444  C 26.386576271186442 11.914928813559323  25.149966101694915 10.983457627118641  24.394983050847458 9.631647457627123  C 23.64 8.283199999999997  23.48054237288136 6.709450847457625  23.880813559322036 5.273572881355932  C 22.45871186440678 3.9184000000000014  20.763254237288137 2.902861016949155  18.911593220338972 2.3042983050847434  C 17.909288135593215 3.3837288135593218  16.509966101694914 4.026006779661015  15 4.026006779661015  C 13.490033898305079 4.026006779661015  12.090711864406778 3.3837288135593218  11.088406779661014 2.3042983050847434  Z " stroke-width="0" stroke-dasharray="0" stroke="rgba(255, 255, 255, 0)" fill="none" transform="matrix(1 0 0 1 248 1349 )" class="stroke" mask="url(#Clip1448)" />
    <path d="M 3.977898305084743 4.856596610169489  C 6.0215593220338945 2.539688135593218  8.738847457627116 0.8717830508474538  11.80759322033898 0.17906440677965849  C 12.41613559322034 1.3593762711864419  13.616949152542375 2.1597016949152565  15 2.1597016949152565  C 16.383050847457625 2.1597016949152565  17.583864406779668 1.3560135593220313  18.192406779661013 0.17906440677965849  C 21.261152542372884 0.8717830508474611  23.978440677966105 2.539688135593218  26.02210169491525 4.853233898305086  C 25.338711864406775 5.986467796610169  25.267118644067793 7.462698305084748  25.96027118644068 8.696813559322036  C 26.65342372881355 9.93429152542373  27.925830508474576 10.610196610169494  29.21776271186441 10.563118644067796  C 29.67010169491526 12.03598644067797  29.914169491525428 13.60637288135593  29.914169491525428 15.233925423728811  C 29.914169491525428 16.861477966101695  29.67010169491526 18.431864406779653  29.21776271186441 19.904732203389838  C 27.925830508474576 19.857654237288145  26.650169491525418 20.533559322033906  25.96027118644068 21.7710372881356  C 25.270372881355925 23.00851525423729  25.338711864406775 24.481383050847462  26.02210169491525 25.614616949152545  C 23.978440677966105 27.928162711864402  21.261152542372884 29.59606779661018  18.192406779661013 30.28878644067797  C 17.583864406779654 29.108474576271195  16.383050847457625 28.308149152542374  15 28.308149152542374  C 13.616949152542368 28.308149152542374  12.41613559322034 29.111837288135597  11.80759322033898 30.28878644067797  C 8.738847457627116 29.59606779661018  6.0215593220338945 27.928162711864402  3.977898305084743 25.614616949152545  C 4.661288135593217 24.481383050847462  4.729627118644068 23.005152542372887  4.0397288135593215 21.7710372881356  C 3.3465762711864357 20.533559322033906  2.0741694915254243 19.857654237288145  0.7822372881355903 19.904732203389838  C 0.3298983050847468 18.435227118644068  0.0858305084745723 16.864840677966104  0.0858305084745723 15.23728813559323  C 0.0858305084745723 13.609735593220343  0.3298983050847468 12.039349152542373  0.7822372881355903 10.566481355932206  C 2.0741694915254243 10.613559322033899  3.349830508474575 9.937654237288134  4.0397288135593215 8.700176271186441  C 4.729627118644068 7.462698305084748  4.661288135593217 5.989830508474573  3.977898305084743 4.856596610169489  Z " stroke-width="0" stroke-dasharray="0" stroke="rgba(255, 255, 255, 0)" fill="none" transform="matrix(1 0 0 1 248 1349 )" class="stroke" mask="url(#Clip1448)" />
    <path d="M 9.575186440677967 15.23728813559323  C 9.575186440677967 18.33098305084746  12.006101694915252 20.84292881355933  15 20.84292881355933  C 17.99389830508474 20.84292881355933  20.424813559322033 18.334345762711866  20.424813559322033 15.23728813559323  C 20.424813559322033 12.140230508474579  17.99389830508474 9.631647457627123  15 9.631647457627123  C 12.006101694915259 9.631647457627123  9.575186440677967 12.143593220338982  9.575186440677967 15.23728813559323  Z " stroke-width="0" stroke-dasharray="0" stroke="rgba(255, 255, 255, 0)" fill="none" transform="matrix(1 0 0 1 248 1349 )" class="stroke" mask="url(#Clip1448)" />
    <path d="M 18.615457627118644 15.23728813559323  C 18.615457627118644 17.30199322033899  16.99810169491525 18.973261016949145  15 18.973261016949145  C 13.001898305084744 18.973261016949145  11.384542372881356 17.30199322033899  11.384542372881356 15.23728813559323  C 11.384542372881356 13.172583050847457  13.001898305084744 11.50131525423729  15 11.50131525423729  C 16.99810169491525 11.50131525423729  18.615457627118644 13.172583050847457  18.615457627118644 15.23728813559323  Z " stroke-width="0" stroke-dasharray="0" stroke="rgba(255, 255, 255, 0)" fill="none" transform="matrix(1 0 0 1 248 1349 )" class="stroke" mask="url(#Clip1448)" />
  </g>
</svg>