<?xml version="1.0" encoding="utf-8"?>
<svg version="1.1" xmlns:xlink="http://www.w3.org/1999/xlink" width="23px" height="30px" xmlns="http://www.w3.org/2000/svg">
  <defs>
    <pattern id="BGPattern" patternUnits="userSpaceOnUse" alignment="0 0" imageRepeat="None" />
    <mask fill="white" id="Clip1754">
      <path d="M 11.315789473684205 28.113263157894735  C 17.60126315789472 21.679578947368412  20.673263157894723 15.95326315789474  20.673263157894723 10.994947368421052  C 20.673263157894723 5.972631578947372  16.493052631578934 1.8867368421052646  11.315789473684205 1.8867368421052646  C 6.13852631578947 1.8867368421052646  1.9583157894736871 5.972631578947372  1.9583157894736871 10.994947368421052  C 1.9583157894736871 15.929684210526316  5.03368421052631 21.656000000000006  11.315789473684205 28.113263157894735  Z M 22.542736842105256 10.994947368421052  C 22.542736842105256 16.529263157894732  19.24842105263157 22.66989473684211  12.656421052631572 29.4202105263158  L 12.622736842105262 29.453894736842102  C 11.88168421052631 30.174736842105258  10.695999999999998 30.157894736842113  9.975157894736839 29.416842105263157  C 3.3831578947368404 22.64631578947369  0.08884210526316139 16.502315789473684  0.08884210526316139 10.994947368421052  C 0.08884210526316139 4.931789473684212  5.114526315789476 0.013894736842104294  11.315789473684205 0.013894736842104294  C 17.517052631578935 0.013894736842104294  22.542736842105256 4.9284210526315775  22.542736842105256 10.994947368421052  Z M 15.994526315789473 12.177263157894735  C 15.994526315789473 14.760842105263166  13.899368421052628 16.855999999999995  11.315789473684205 16.855999999999995  C 8.732210526315782 16.855999999999995  6.637052631578946 14.760842105263166  6.637052631578946 12.177263157894735  C 6.637052631578946 9.59368421052632  8.732210526315782 7.498526315789476  11.315789473684205 7.498526315789476  C 13.899368421052628 7.498526315789476  15.994526315789473 9.59368421052632  15.994526315789473 12.177263157894735  Z M 8.5098947368421 12.177263157894735  C 8.5098947368421 13.726736842105261  9.76631578947368 14.986526315789476  11.315789473684205 14.986526315789476  C 12.865263157894729 14.986526315789476  14.121684210526311 13.730105263157895  14.121684210526311 12.18063157894737  C 14.121684210526311 10.631157894736845  12.865263157894729 9.37136842105263  11.315789473684205 9.37136842105263  C 9.76631578947368 9.37136842105263  8.5098947368421 10.62778947368421  8.5098947368421 12.177263157894735  Z " fill-rule="evenodd" />
    </mask>
  </defs>
  <g transform="matrix(1 0 0 1 -60 -1349 )">
    <path d="M 11.315789473684205 28.113263157894735  C 17.60126315789472 21.679578947368412  20.673263157894723 15.95326315789474  20.673263157894723 10.994947368421052  C 20.673263157894723 5.972631578947372  16.493052631578934 1.8867368421052646  11.315789473684205 1.8867368421052646  C 6.13852631578947 1.8867368421052646  1.9583157894736871 5.972631578947372  1.9583157894736871 10.994947368421052  C 1.9583157894736871 15.929684210526316  5.03368421052631 21.656000000000006  11.315789473684205 28.113263157894735  Z M 22.542736842105256 10.994947368421052  C 22.542736842105256 16.529263157894732  19.24842105263157 22.66989473684211  12.656421052631572 29.4202105263158  L 12.622736842105262 29.453894736842102  C 11.88168421052631 30.174736842105258  10.695999999999998 30.157894736842113  9.975157894736839 29.416842105263157  C 3.3831578947368404 22.64631578947369  0.08884210526316139 16.502315789473684  0.08884210526316139 10.994947368421052  C 0.08884210526316139 4.931789473684212  5.114526315789476 0.013894736842104294  11.315789473684205 0.013894736842104294  C 17.517052631578935 0.013894736842104294  22.542736842105256 4.9284210526315775  22.542736842105256 10.994947368421052  Z M 15.994526315789473 12.177263157894735  C 15.994526315789473 14.760842105263166  13.899368421052628 16.855999999999995  11.315789473684205 16.855999999999995  C 8.732210526315782 16.855999999999995  6.637052631578946 14.760842105263166  6.637052631578946 12.177263157894735  C 6.637052631578946 9.59368421052632  8.732210526315782 7.498526315789476  11.315789473684205 7.498526315789476  C 13.899368421052628 7.498526315789476  15.994526315789473 9.59368421052632  15.994526315789473 12.177263157894735  Z M 8.5098947368421 12.177263157894735  C 8.5098947368421 13.726736842105261  9.76631578947368 14.986526315789476  11.315789473684205 14.986526315789476  C 12.865263157894729 14.986526315789476  14.121684210526311 13.730105263157895  14.121684210526311 12.18063157894737  C 14.121684210526311 10.631157894736845  12.865263157894729 9.37136842105263  11.315789473684205 9.37136842105263  C 9.76631578947368 9.37136842105263  8.5098947368421 10.62778947368421  8.5098947368421 12.177263157894735  Z " fill-rule="nonzero" fill="rgba(0, 0, 0, 1)" stroke="none" transform="matrix(1 0 0 1 60 1349 )" class="fill" />
    <path d="M 11.315789473684205 28.113263157894735  C 17.60126315789472 21.679578947368412  20.673263157894723 15.95326315789474  20.673263157894723 10.994947368421052  C 20.673263157894723 5.972631578947372  16.493052631578934 1.8867368421052646  11.315789473684205 1.8867368421052646  C 6.13852631578947 1.8867368421052646  1.9583157894736871 5.972631578947372  1.9583157894736871 10.994947368421052  C 1.9583157894736871 15.929684210526316  5.03368421052631 21.656000000000006  11.315789473684205 28.113263157894735  Z " stroke-width="0" stroke-dasharray="0" stroke="rgba(255, 255, 255, 0)" fill="none" transform="matrix(1 0 0 1 60 1349 )" class="stroke" mask="url(#Clip1754)" />
    <path d="M 22.542736842105256 10.994947368421052  C 22.542736842105256 16.529263157894732  19.24842105263157 22.66989473684211  12.656421052631572 29.4202105263158  L 12.622736842105262 29.453894736842102  C 11.88168421052631 30.174736842105258  10.695999999999998 30.157894736842113  9.975157894736839 29.416842105263157  C 3.3831578947368404 22.64631578947369  0.08884210526316139 16.502315789473684  0.08884210526316139 10.994947368421052  C 0.08884210526316139 4.931789473684212  5.114526315789476 0.013894736842104294  11.315789473684205 0.013894736842104294  C 17.517052631578935 0.013894736842104294  22.542736842105256 4.9284210526315775  22.542736842105256 10.994947368421052  Z " stroke-width="0" stroke-dasharray="0" stroke="rgba(255, 255, 255, 0)" fill="none" transform="matrix(1 0 0 1 60 1349 )" class="stroke" mask="url(#Clip1754)" />
    <path d="M 15.994526315789473 12.177263157894735  C 15.994526315789473 14.760842105263166  13.899368421052628 16.855999999999995  11.315789473684205 16.855999999999995  C 8.732210526315782 16.855999999999995  6.637052631578946 14.760842105263166  6.637052631578946 12.177263157894735  C 6.637052631578946 9.59368421052632  8.732210526315782 7.498526315789476  11.315789473684205 7.498526315789476  C 13.899368421052628 7.498526315789476  15.994526315789473 9.59368421052632  15.994526315789473 12.177263157894735  Z " stroke-width="0" stroke-dasharray="0" stroke="rgba(255, 255, 255, 0)" fill="none" transform="matrix(1 0 0 1 60 1349 )" class="stroke" mask="url(#Clip1754)" />
    <path d="M 8.5098947368421 12.177263157894735  C 8.5098947368421 13.726736842105261  9.76631578947368 14.986526315789476  11.315789473684205 14.986526315789476  C 12.865263157894729 14.986526315789476  14.121684210526311 13.730105263157895  14.121684210526311 12.18063157894737  C 14.121684210526311 10.631157894736845  12.865263157894729 9.37136842105263  11.315789473684205 9.37136842105263  C 9.76631578947368 9.37136842105263  8.5098947368421 10.62778947368421  8.5098947368421 12.177263157894735  Z " stroke-width="0" stroke-dasharray="0" stroke="rgba(255, 255, 255, 0)" fill="none" transform="matrix(1 0 0 1 60 1349 )" class="stroke" mask="url(#Clip1754)" />
  </g>
</svg>