<?xml version="1.0" encoding="utf-8"?>
<svg version="1.1" xmlns:xlink="http://www.w3.org/1999/xlink" width="4px" height="4px" xmlns="http://www.w3.org/2000/svg">
  <defs>
    <pattern id="BGPattern" patternUnits="userSpaceOnUse" alignment="0 0" imageRepeat="None" />
    <mask fill="white" id="Clip1452">
      <path d="M 0.09301333333333162 2.043682133333334  C 0.09301333333333162 3.0918154953588726  0.942693304641125 3.941495466666666  1.9908266666666705 3.941495466666666  C 3.038960028692209 3.941495466666666  3.8886400000000023 3.0918154953588726  3.8886400000000023 2.043682133333334  C 3.8886400000000023 0.9955487713077957  3.038960028692216 0.14586880000000235  1.9908266666666705 0.14586880000000235  C 0.942693304641125 0.14586880000000235  0.09301333333333872 0.9955487713077957  0.09301333333333872 2.043682133333334  Z " fill-rule="evenodd" />
    </mask>
  </defs>
  <g transform="matrix(1 0 0 1 -400 -1373 )">
    <path d="M 0.09301333333333162 2.043682133333334  C 0.09301333333333162 3.0918154953588726  0.942693304641125 3.941495466666666  1.9908266666666705 3.941495466666666  C 3.038960028692209 3.941495466666666  3.8886400000000023 3.0918154953588726  3.8886400000000023 2.043682133333334  C 3.8886400000000023 0.9955487713077957  3.038960028692216 0.14586880000000235  1.9908266666666705 0.14586880000000235  C 0.942693304641125 0.14586880000000235  0.09301333333333872 0.9955487713077957  0.09301333333333872 2.043682133333334  Z " fill-rule="nonzero" fill="rgba(50, 50, 51, 1)" stroke="none" transform="matrix(1 0 0 1 400 1373 )" class="fill" />
    <path d="M 0.09301333333333162 2.043682133333334  C 0.09301333333333162 3.0918154953588726  0.942693304641125 3.941495466666666  1.9908266666666705 3.941495466666666  C 3.038960028692209 3.941495466666666  3.8886400000000023 3.0918154953588726  3.8886400000000023 2.043682133333334  C 3.8886400000000023 0.9955487713077957  3.038960028692216 0.14586880000000235  1.9908266666666705 0.14586880000000235  C 0.942693304641125 0.14586880000000235  0.09301333333333872 0.9955487713077957  0.09301333333333872 2.043682133333334  Z " stroke-width="0" stroke-dasharray="0" stroke="rgba(255, 255, 255, 0)" fill="none" transform="matrix(1 0 0 1 400 1373 )" class="stroke" mask="url(#Clip1452)" />
  </g>
</svg>