<?xml version="1.0" encoding="utf-8"?>
<svg version="1.1" xmlns:xlink="http://www.w3.org/1999/xlink" width="30px" height="34px" xmlns="http://www.w3.org/2000/svg">
  <defs>
    <pattern id="BGPattern" patternUnits="userSpaceOnUse" alignment="0 0" imageRepeat="None" />
    <mask fill="white" id="Clip1258">
      <path d="M 19.536888888888882 31.12044444444443  C 25.129777777777775 28.439555555555543  27.83911111111111 25.392444444444436  27.83911111111111 22.01466666666667  C 27.83911111111111 19.64311111111111  26.932444444444442 17.37466666666667  25.403555555555556 15.294666666666672  C 24.898182977470924 14.608072769297962  24.340682639321685 13.96141992504809  23.736000000000004 13.36044444444444  C 23.02488888888888 14.295555555555552  22.349333333333334 14.953333333333333  21.840888888888884 15.344444444444434  C 21.104888888888894 15.906222222222212  20.070222222222228 15.24133333333333  20.27644444444445 14.338222222222214  C 21.289777777777772 9.939999999999998  19.821333333333328 6.665333333333329  16.695999999999998 4.244  C 15.824888888888895 3.568444444444445  14.882666666666665 3.0137777777777757  13.943999999999996 2.5764444444444408  C 13.915555555555557 2.5622222222222177  13.88711111111111 2.5515555555555522  13.862222222222215 2.537333333333329  C 13.300444444444437 6.2208888888888865  11.597333333333331 8.275999999999996  7.728888888888889 11.291111111111107  L 7.6328888888888855 11.36577777777778  C 3.4693333333333314 14.611999999999995  2.160888888888884 16.492888888888885  2.160888888888884 20.894666666666666  C 2.160888888888884 25.147111111111116  5.005333333333333 28.585333333333324  9.812444444444445 30.811111111111103  C 8.25866666666667 28.297333333333327  7.778666666666665 25.883111111111106  8.269333333333336 23.603999999999985  C 8.695999999999998 21.612888888888875  9.830222222222218 19.870666666666665  11.43022222222222 18.373777777777775  C 12.141333333333336 17.70888888888888  12.898666666666664 17.136444444444436  13.659555555555556 16.656444444444446  C 14.118222222222215 16.364888888888885  14.48444444444445 16.165777777777777  14.704888888888888 16.055555555555543  C 15.615111111111105 15.614666666666665  16.525333333333336 16.667111111111097  15.949333333333328 17.502666666666656  C 15.938666666666665 17.516888888888886  15.892444444444436 17.60222222222221  15.839111111111109 17.75155555555554  C 15.309333333333328 19.20222222222222  15.824888888888895 21.179111111111098  18.46666666666667 23.710666666666654  C 20.471999999999994 25.76222222222222  20.802666666666653 28.283111111111097  19.536888888888882 31.12044444444443  Z M 22.569777777777773 11.596888888888891  C 22.630222222222216 11.511555555555553  22.690666666666658 11.426222222222222  22.74755555555555 11.337333333333333  C 23.063999999999993 10.850222222222222  23.73244444444444 10.739999999999995  24.187555555555548 11.102666666666664  C 24.376000000000005 11.255555555555553  24.692444444444448 11.529333333333334  25.087111111111113 11.916888888888884  C 25.78044444444444 12.599555555555554  26.420444444444442 13.339111111111109  26.99644444444445 14.12488888888889  C 28.75288888888889 16.51777777777778  29.812444444444452 19.170222222222222  29.812444444444452 22.01466666666667  C 29.812444444444452 26.675999999999988  26.03288888888889 30.537333333333322  18.70488888888889 33.65555555555555  L 18.317333333333323 33.733777777777775  L 17.46755555555555 33.733777777777775  C 16.671111111111117 33.733777777777775  16.201777777777778 32.841333333333324  16.653333333333336 32.18355555555556  C 18.744 29.16133333333333  18.822222222222223 26.89644444444444  17.072888888888883 25.108000000000004  C 14.790222222222212 22.921333333333337  13.776888888888884 20.855555555555554  13.691555555555553 19.04222222222222  C 13.37511111111111 19.287555555555556  13.072888888888883 19.543555555555557  12.781333333333329 19.817333333333337  C 11.45155555555555 21.061777777777777  10.534222222222212 22.46977777777778  10.203555555555553 24.019999999999996  C 9.691555555555553 26.409333333333336  10.566222222222216 29.079555555555558  13.25066666666666 32.091111111111104  C 13.819555555555553 32.727555555555554  13.367999999999995 33.73733333333334  12.514666666666663 33.73733333333334  L 12.041777777777774 33.73733333333334  L 11.72888888888889 33.68755555555555  C 4.674666666666667 31.33377777777777  0.1839999999999975 26.853777777777765  0.1839999999999975 20.894666666666666  C 0.1839999999999975 15.746222222222215  1.8231111111111105 13.392444444444443  6.4168888888888915 9.80844444444444  L 6.512888888888888 9.733777777777775  C 10.424 6.686666666666667  11.743111111111112 4.926666666666662  12.038222222222217 1.065333333333335  C 12.088000000000001 0.4324444444444424  12.710222222222221 0.009333333333330529  13.314666666666668 0.19777777777778027  C 13.620444444444445 0.2937777777777768  14.12888888888888 0.485777777777777  14.775999999999996 0.7844444444444463  C 15.84266666666666 1.2786666666666662  16.90577777777777 1.9080000000000013  17.904888888888877 2.6795555555555524  C 20.806222222222218 4.926666666666662  22.54488888888889 7.895555555555553  22.569777777777773 11.596888888888891  Z " fill-rule="evenodd" />
    </mask>
  </defs>
  <g transform="matrix(1 0 0 1 -296 -1347 )">
    <path d="M 19.536888888888882 31.12044444444443  C 25.129777777777775 28.439555555555543  27.83911111111111 25.392444444444436  27.83911111111111 22.01466666666667  C 27.83911111111111 19.64311111111111  26.932444444444442 17.37466666666667  25.403555555555556 15.294666666666672  C 24.898182977470924 14.608072769297962  24.340682639321685 13.96141992504809  23.736000000000004 13.36044444444444  C 23.02488888888888 14.295555555555552  22.349333333333334 14.953333333333333  21.840888888888884 15.344444444444434  C 21.104888888888894 15.906222222222212  20.070222222222228 15.24133333333333  20.27644444444445 14.338222222222214  C 21.289777777777772 9.939999999999998  19.821333333333328 6.665333333333329  16.695999999999998 4.244  C 15.824888888888895 3.568444444444445  14.882666666666665 3.0137777777777757  13.943999999999996 2.5764444444444408  C 13.915555555555557 2.5622222222222177  13.88711111111111 2.5515555555555522  13.862222222222215 2.537333333333329  C 13.300444444444437 6.2208888888888865  11.597333333333331 8.275999999999996  7.728888888888889 11.291111111111107  L 7.6328888888888855 11.36577777777778  C 3.4693333333333314 14.611999999999995  2.160888888888884 16.492888888888885  2.160888888888884 20.894666666666666  C 2.160888888888884 25.147111111111116  5.005333333333333 28.585333333333324  9.812444444444445 30.811111111111103  C 8.25866666666667 28.297333333333327  7.778666666666665 25.883111111111106  8.269333333333336 23.603999999999985  C 8.695999999999998 21.612888888888875  9.830222222222218 19.870666666666665  11.43022222222222 18.373777777777775  C 12.141333333333336 17.70888888888888  12.898666666666664 17.136444444444436  13.659555555555556 16.656444444444446  C 14.118222222222215 16.364888888888885  14.48444444444445 16.165777777777777  14.704888888888888 16.055555555555543  C 15.615111111111105 15.614666666666665  16.525333333333336 16.667111111111097  15.949333333333328 17.502666666666656  C 15.938666666666665 17.516888888888886  15.892444444444436 17.60222222222221  15.839111111111109 17.75155555555554  C 15.309333333333328 19.20222222222222  15.824888888888895 21.179111111111098  18.46666666666667 23.710666666666654  C 20.471999999999994 25.76222222222222  20.802666666666653 28.283111111111097  19.536888888888882 31.12044444444443  Z M 22.569777777777773 11.596888888888891  C 22.630222222222216 11.511555555555553  22.690666666666658 11.426222222222222  22.74755555555555 11.337333333333333  C 23.063999999999993 10.850222222222222  23.73244444444444 10.739999999999995  24.187555555555548 11.102666666666664  C 24.376000000000005 11.255555555555553  24.692444444444448 11.529333333333334  25.087111111111113 11.916888888888884  C 25.78044444444444 12.599555555555554  26.420444444444442 13.339111111111109  26.99644444444445 14.12488888888889  C 28.75288888888889 16.51777777777778  29.812444444444452 19.170222222222222  29.812444444444452 22.01466666666667  C 29.812444444444452 26.675999999999988  26.03288888888889 30.537333333333322  18.70488888888889 33.65555555555555  L 18.317333333333323 33.733777777777775  L 17.46755555555555 33.733777777777775  C 16.671111111111117 33.733777777777775  16.201777777777778 32.841333333333324  16.653333333333336 32.18355555555556  C 18.744 29.16133333333333  18.822222222222223 26.89644444444444  17.072888888888883 25.108000000000004  C 14.790222222222212 22.921333333333337  13.776888888888884 20.855555555555554  13.691555555555553 19.04222222222222  C 13.37511111111111 19.287555555555556  13.072888888888883 19.543555555555557  12.781333333333329 19.817333333333337  C 11.45155555555555 21.061777777777777  10.534222222222212 22.46977777777778  10.203555555555553 24.019999999999996  C 9.691555555555553 26.409333333333336  10.566222222222216 29.079555555555558  13.25066666666666 32.091111111111104  C 13.819555555555553 32.727555555555554  13.367999999999995 33.73733333333334  12.514666666666663 33.73733333333334  L 12.041777777777774 33.73733333333334  L 11.72888888888889 33.68755555555555  C 4.674666666666667 31.33377777777777  0.1839999999999975 26.853777777777765  0.1839999999999975 20.894666666666666  C 0.1839999999999975 15.746222222222215  1.8231111111111105 13.392444444444443  6.4168888888888915 9.80844444444444  L 6.512888888888888 9.733777777777775  C 10.424 6.686666666666667  11.743111111111112 4.926666666666662  12.038222222222217 1.065333333333335  C 12.088000000000001 0.4324444444444424  12.710222222222221 0.009333333333330529  13.314666666666668 0.19777777777778027  C 13.620444444444445 0.2937777777777768  14.12888888888888 0.485777777777777  14.775999999999996 0.7844444444444463  C 15.84266666666666 1.2786666666666662  16.90577777777777 1.9080000000000013  17.904888888888877 2.6795555555555524  C 20.806222222222218 4.926666666666662  22.54488888888889 7.895555555555553  22.569777777777773 11.596888888888891  Z " fill-rule="nonzero" fill="rgba(50, 50, 51, 1)" stroke="none" transform="matrix(1 0 0 1 296 1347 )" class="fill" />
    <path d="M 19.536888888888882 31.12044444444443  C 25.129777777777775 28.439555555555543  27.83911111111111 25.392444444444436  27.83911111111111 22.01466666666667  C 27.83911111111111 19.64311111111111  26.932444444444442 17.37466666666667  25.403555555555556 15.294666666666672  C 24.898182977470924 14.608072769297962  24.340682639321685 13.96141992504809  23.736000000000004 13.36044444444444  C 23.02488888888888 14.295555555555552  22.349333333333334 14.953333333333333  21.840888888888884 15.344444444444434  C 21.104888888888894 15.906222222222212  20.070222222222228 15.24133333333333  20.27644444444445 14.338222222222214  C 21.289777777777772 9.939999999999998  19.821333333333328 6.665333333333329  16.695999999999998 4.244  C 15.824888888888895 3.568444444444445  14.882666666666665 3.0137777777777757  13.943999999999996 2.5764444444444408  C 13.915555555555557 2.5622222222222177  13.88711111111111 2.5515555555555522  13.862222222222215 2.537333333333329  C 13.300444444444437 6.2208888888888865  11.597333333333331 8.275999999999996  7.728888888888889 11.291111111111107  L 7.6328888888888855 11.36577777777778  C 3.4693333333333314 14.611999999999995  2.160888888888884 16.492888888888885  2.160888888888884 20.894666666666666  C 2.160888888888884 25.147111111111116  5.005333333333333 28.585333333333324  9.812444444444445 30.811111111111103  C 8.25866666666667 28.297333333333327  7.778666666666665 25.883111111111106  8.269333333333336 23.603999999999985  C 8.695999999999998 21.612888888888875  9.830222222222218 19.870666666666665  11.43022222222222 18.373777777777775  C 12.141333333333336 17.70888888888888  12.898666666666664 17.136444444444436  13.659555555555556 16.656444444444446  C 14.118222222222215 16.364888888888885  14.48444444444445 16.165777777777777  14.704888888888888 16.055555555555543  C 15.615111111111105 15.614666666666665  16.525333333333336 16.667111111111097  15.949333333333328 17.502666666666656  C 15.938666666666665 17.516888888888886  15.892444444444436 17.60222222222221  15.839111111111109 17.75155555555554  C 15.309333333333328 19.20222222222222  15.824888888888895 21.179111111111098  18.46666666666667 23.710666666666654  C 20.471999999999994 25.76222222222222  20.802666666666653 28.283111111111097  19.536888888888882 31.12044444444443  Z " stroke-width="0" stroke-dasharray="0" stroke="rgba(255, 255, 255, 0)" fill="none" transform="matrix(1 0 0 1 296 1347 )" class="stroke" mask="url(#Clip1258)" />
    <path d="M 22.569777777777773 11.596888888888891  C 22.630222222222216 11.511555555555553  22.690666666666658 11.426222222222222  22.74755555555555 11.337333333333333  C 23.063999999999993 10.850222222222222  23.73244444444444 10.739999999999995  24.187555555555548 11.102666666666664  C 24.376000000000005 11.255555555555553  24.692444444444448 11.529333333333334  25.087111111111113 11.916888888888884  C 25.78044444444444 12.599555555555554  26.420444444444442 13.339111111111109  26.99644444444445 14.12488888888889  C 28.75288888888889 16.51777777777778  29.812444444444452 19.170222222222222  29.812444444444452 22.01466666666667  C 29.812444444444452 26.675999999999988  26.03288888888889 30.537333333333322  18.70488888888889 33.65555555555555  L 18.317333333333323 33.733777777777775  L 17.46755555555555 33.733777777777775  C 16.671111111111117 33.733777777777775  16.201777777777778 32.841333333333324  16.653333333333336 32.18355555555556  C 18.744 29.16133333333333  18.822222222222223 26.89644444444444  17.072888888888883 25.108000000000004  C 14.790222222222212 22.921333333333337  13.776888888888884 20.855555555555554  13.691555555555553 19.04222222222222  C 13.37511111111111 19.287555555555556  13.072888888888883 19.543555555555557  12.781333333333329 19.817333333333337  C 11.45155555555555 21.061777777777777  10.534222222222212 22.46977777777778  10.203555555555553 24.019999999999996  C 9.691555555555553 26.409333333333336  10.566222222222216 29.079555555555558  13.25066666666666 32.091111111111104  C 13.819555555555553 32.727555555555554  13.367999999999995 33.73733333333334  12.514666666666663 33.73733333333334  L 12.041777777777774 33.73733333333334  L 11.72888888888889 33.68755555555555  C 4.674666666666667 31.33377777777777  0.1839999999999975 26.853777777777765  0.1839999999999975 20.894666666666666  C 0.1839999999999975 15.746222222222215  1.8231111111111105 13.392444444444443  6.4168888888888915 9.80844444444444  L 6.512888888888888 9.733777777777775  C 10.424 6.686666666666667  11.743111111111112 4.926666666666662  12.038222222222217 1.065333333333335  C 12.088000000000001 0.4324444444444424  12.710222222222221 0.009333333333330529  13.314666666666668 0.19777777777778027  C 13.620444444444445 0.2937777777777768  14.12888888888888 0.485777777777777  14.775999999999996 0.7844444444444463  C 15.84266666666666 1.2786666666666662  16.90577777777777 1.9080000000000013  17.904888888888877 2.6795555555555524  C 20.806222222222218 4.926666666666662  22.54488888888889 7.895555555555553  22.569777777777773 11.596888888888891  Z " stroke-width="0" stroke-dasharray="0" stroke="rgba(255, 255, 255, 0)" fill="none" transform="matrix(1 0 0 1 296 1347 )" class="stroke" mask="url(#Clip1258)" />
  </g>
</svg>