<?xml version="1.0" encoding="utf-8"?>
<svg version="1.1" xmlns:xlink="http://www.w3.org/1999/xlink" width="18px" height="18px" xmlns="http://www.w3.org/2000/svg">
  <defs>
    <pattern id="BGPattern" patternUnits="userSpaceOnUse" alignment="0 0" imageRepeat="None" />
    <mask fill="white" id="Clip1784">
      <path d="M 17.85552353289461 2.5044120472098257  C 17.85552353289461 2.1808453700891732  17.584239671052615 1.9185235643973328  17.249618546052602 1.9185235643973328  L 15.330980013157955 2  L 2.669019986842045 2  L 0.7503612631578562 1.9185235643973328  C 0.41574013815784383 1.9185235643973328  0.14445627631573643 2.1808453700891732  0.14445627631573643 2.5044120472098257  C 0.14445627631573643 2.8279787243303645  0.41574013815784383 3.0903005300223185  0.7503612631578562 3.0903005300223185  L 2 3.0903005300223185  L 2 16.486972672098318  C 2.063115000000039 16.810539349218743  2.3343988618421463 17.072861154910925  2.669019986842045 17  L 15.330980013157955 17  C 15.665601138157854 17.072861154910925  15.936884999999961 16.810539349218743  16 16.486972672098318  L 16 3.0903005300223185  L 17.249618546052602 3.0903005300223185  C 17.584239671052615 3.0903005300223185  17.85552353289461 2.8279787243303645  17.85552353289461 2.5044120472098257  Z M 14.725075026315949 3  L 14.725075026315949 16  L 3.274924973684051 16  L 3.274924973684051 3  L 14.725075026315949 3  Z M 6.046334368421185 0.6000596688616042  C 6.046334368421185 0.923626345982143  6.317598039473751 1.1859481325892602  6.652239355263191 1.1859481325892602  L 11.347760625000092 1.1859481325892602  C 11.68238174999999 1.1859481325892602  11.953665611842098 0.9236263268974199  11.953665611842098 0.6000596497767674  C 11.953665611842098 0.27649297265622863  11.68238174999999 0.014171166964274562  11.347760625000092 0.014171166964274562  L 6.652239355263191 0.014171186049111384  C 6.317618230263179 0.014171186049111384  6.046334368421185 0.27649299174095177  6.046334368421185 0.6000596688616042  Z M 5.898372375000008 12.631826452901805  C 5.898372375000008 12.95539314910718  6.1696562368421155 13.217714954799135  6.504277361842014 13.217714954799135  C 6.83889848684214 13.217714954799135  7.110182348684248 12.95539314910718  7.110182348684248 12.631826471986642  L 7.110182348684248 6.632640876897312  C 7.110182348684248 6.309074199776774  6.83889848684214 6.046752394084706  6.504277361842014 6.046752394084706  C 6.1696562368421155 6.046752394084706  5.898372375000008 6.309074199776774  5.898372375000008 6.632640876897312  L 5.898372375000008 12.631826452901805  Z M 10.916578460526353 12.631826452901805  C 10.916578460526353 12.95539314910718  11.18786232236846 13.217714954799135  11.522483447368359 13.217714954799135  C 11.857104572368371 13.217714954799135  12.128388434210592 12.95539314910718  12.128388434210592 12.631826471986642  L 12.128388434210592 6.632640876897312  C 12.128388434210592 6.309074199776774  11.857104572368371 6.046752394084706  11.522483447368359 6.046752394084706  C 11.18786232236846 6.046752394084706  10.916578460526353 6.309074199776774  10.916578460526353 6.632640876897312  L 10.916578460526353 12.631826452901805  Z " fill-rule="evenodd" />
    </mask>
  </defs>
  <g transform="matrix(1 0 0 1 -83 -56 )">
    <path d="M 17.85552353289461 2.5044120472098257  C 17.85552353289461 2.1808453700891732  17.584239671052615 1.9185235643973328  17.249618546052602 1.9185235643973328  L 15.330980013157955 2  L 2.669019986842045 2  L 0.7503612631578562 1.9185235643973328  C 0.41574013815784383 1.9185235643973328  0.14445627631573643 2.1808453700891732  0.14445627631573643 2.5044120472098257  C 0.14445627631573643 2.8279787243303645  0.41574013815784383 3.0903005300223185  0.7503612631578562 3.0903005300223185  L 2 3.0903005300223185  L 2 16.486972672098318  C 2.063115000000039 16.810539349218743  2.3343988618421463 17.072861154910925  2.669019986842045 17  L 15.330980013157955 17  C 15.665601138157854 17.072861154910925  15.936884999999961 16.810539349218743  16 16.486972672098318  L 16 3.0903005300223185  L 17.249618546052602 3.0903005300223185  C 17.584239671052615 3.0903005300223185  17.85552353289461 2.8279787243303645  17.85552353289461 2.5044120472098257  Z M 14.725075026315949 3  L 14.725075026315949 16  L 3.274924973684051 16  L 3.274924973684051 3  L 14.725075026315949 3  Z M 6.046334368421185 0.6000596688616042  C 6.046334368421185 0.923626345982143  6.317598039473751 1.1859481325892602  6.652239355263191 1.1859481325892602  L 11.347760625000092 1.1859481325892602  C 11.68238174999999 1.1859481325892602  11.953665611842098 0.9236263268974199  11.953665611842098 0.6000596497767674  C 11.953665611842098 0.27649297265622863  11.68238174999999 0.014171166964274562  11.347760625000092 0.014171166964274562  L 6.652239355263191 0.014171186049111384  C 6.317618230263179 0.014171186049111384  6.046334368421185 0.27649299174095177  6.046334368421185 0.6000596688616042  Z M 5.898372375000008 12.631826452901805  C 5.898372375000008 12.95539314910718  6.1696562368421155 13.217714954799135  6.504277361842014 13.217714954799135  C 6.83889848684214 13.217714954799135  7.110182348684248 12.95539314910718  7.110182348684248 12.631826471986642  L 7.110182348684248 6.632640876897312  C 7.110182348684248 6.309074199776774  6.83889848684214 6.046752394084706  6.504277361842014 6.046752394084706  C 6.1696562368421155 6.046752394084706  5.898372375000008 6.309074199776774  5.898372375000008 6.632640876897312  L 5.898372375000008 12.631826452901805  Z M 10.916578460526353 12.631826452901805  C 10.916578460526353 12.95539314910718  11.18786232236846 13.217714954799135  11.522483447368359 13.217714954799135  C 11.857104572368371 13.217714954799135  12.128388434210592 12.95539314910718  12.128388434210592 12.631826471986642  L 12.128388434210592 6.632640876897312  C 12.128388434210592 6.309074199776774  11.857104572368371 6.046752394084706  11.522483447368359 6.046752394084706  C 11.18786232236846 6.046752394084706  10.916578460526353 6.309074199776774  10.916578460526353 6.632640876897312  L 10.916578460526353 12.631826452901805  Z " fill-rule="nonzero" fill="rgba(255, 255, 255, 1)" stroke="none" transform="matrix(1 0 0 1 83 56 )" class="fill" />
    <path d="M 17.85552353289461 2.5044120472098257  C 17.85552353289461 2.1808453700891732  17.584239671052615 1.9185235643973328  17.249618546052602 1.9185235643973328  L 15.330980013157955 2  L 2.669019986842045 2  L 0.7503612631578562 1.9185235643973328  C 0.41574013815784383 1.9185235643973328  0.14445627631573643 2.1808453700891732  0.14445627631573643 2.5044120472098257  C 0.14445627631573643 2.8279787243303645  0.41574013815784383 3.0903005300223185  0.7503612631578562 3.0903005300223185  L 2 3.0903005300223185  L 2 16.486972672098318  C 2.063115000000039 16.810539349218743  2.3343988618421463 17.072861154910925  2.669019986842045 17  L 15.330980013157955 17  C 15.665601138157854 17.072861154910925  15.936884999999961 16.810539349218743  16 16.486972672098318  L 16 3.0903005300223185  L 17.249618546052602 3.0903005300223185  C 17.584239671052615 3.0903005300223185  17.85552353289461 2.8279787243303645  17.85552353289461 2.5044120472098257  Z " stroke-width="0" stroke-dasharray="0" stroke="rgba(255, 255, 255, 0)" fill="none" transform="matrix(1 0 0 1 83 56 )" class="stroke" mask="url(#Clip1784)" />
    <path d="M 14.725075026315949 3  L 14.725075026315949 16  L 3.274924973684051 16  L 3.274924973684051 3  L 14.725075026315949 3  Z " stroke-width="0" stroke-dasharray="0" stroke="rgba(255, 255, 255, 0)" fill="none" transform="matrix(1 0 0 1 83 56 )" class="stroke" mask="url(#Clip1784)" />
    <path d="M 6.046334368421185 0.6000596688616042  C 6.046334368421185 0.923626345982143  6.317598039473751 1.1859481325892602  6.652239355263191 1.1859481325892602  L 11.347760625000092 1.1859481325892602  C 11.68238174999999 1.1859481325892602  11.953665611842098 0.9236263268974199  11.953665611842098 0.6000596497767674  C 11.953665611842098 0.27649297265622863  11.68238174999999 0.014171166964274562  11.347760625000092 0.014171166964274562  L 6.652239355263191 0.014171186049111384  C 6.317618230263179 0.014171186049111384  6.046334368421185 0.27649299174095177  6.046334368421185 0.6000596688616042  Z " stroke-width="0" stroke-dasharray="0" stroke="rgba(255, 255, 255, 0)" fill="none" transform="matrix(1 0 0 1 83 56 )" class="stroke" mask="url(#Clip1784)" />
    <path d="M 5.898372375000008 12.631826452901805  C 5.898372375000008 12.95539314910718  6.1696562368421155 13.217714954799135  6.504277361842014 13.217714954799135  C 6.83889848684214 13.217714954799135  7.110182348684248 12.95539314910718  7.110182348684248 12.631826471986642  L 7.110182348684248 6.632640876897312  C 7.110182348684248 6.309074199776774  6.83889848684214 6.046752394084706  6.504277361842014 6.046752394084706  C 6.1696562368421155 6.046752394084706  5.898372375000008 6.309074199776774  5.898372375000008 6.632640876897312  L 5.898372375000008 12.631826452901805  Z " stroke-width="0" stroke-dasharray="0" stroke="rgba(255, 255, 255, 0)" fill="none" transform="matrix(1 0 0 1 83 56 )" class="stroke" mask="url(#Clip1784)" />
    <path d="M 10.916578460526353 12.631826452901805  C 10.916578460526353 12.95539314910718  11.18786232236846 13.217714954799135  11.522483447368359 13.217714954799135  C 11.857104572368371 13.217714954799135  12.128388434210592 12.95539314910718  12.128388434210592 12.631826471986642  L 12.128388434210592 6.632640876897312  C 12.128388434210592 6.309074199776774  11.857104572368371 6.046752394084706  11.522483447368359 6.046752394084706  C 11.18786232236846 6.046752394084706  10.916578460526353 6.309074199776774  10.916578460526353 6.632640876897312  L 10.916578460526353 12.631826452901805  Z " stroke-width="0" stroke-dasharray="0" stroke="rgba(255, 255, 255, 0)" fill="none" transform="matrix(1 0 0 1 83 56 )" class="stroke" mask="url(#Clip1784)" />
  </g>
</svg>