<?xml version="1.0" encoding="utf-8"?>
<svg version="1.1" xmlns:xlink="http://www.w3.org/1999/xlink" width="10px" height="10px" xmlns="http://www.w3.org/2000/svg">
  <defs>
    <pattern id="BGPattern" patternUnits="userSpaceOnUse" alignment="0 0" imageRepeat="None" />
    <mask fill="white" id="Clip1281">
      <path d="M 10 5.000057142857145  C 10 2.2386171428571515  7.761485714285698 4.571428570443459E-05  5.00001142857144 4.571428570443459E-05  C 2.2387200000000007 4.571428570443459E-05  0 2.2386171428571515  0 5.000057142857145  C 0 7.761428571428581  2.2387200000000007 9.999942857142855  5.00001142857144 9.999942857142855  C 7.761485714285698 9.999942857142855  10 7.761428571428581  10 5.000057142857145  Z M 7.918788571428593 3.3230057142857277  C 8.015234285714314 3.41909714285714  8.015234285714314 3.575028571428561  7.918799999999976 3.671051428571417  L 4.396457142857116 7.1818057142857015  C 4.347302857142836 7.230788571428576  4.2825942857143104 7.254662857142847  4.218171428571452 7.253714285714295  C 4.1537485714285936 7.254662857142847  4.08900571428569 7.230777142857136  4.039817142857146 7.1818057142857015  L 2.3184800000000223 5.46612571428571  C 2.2219428571428352 5.3700114285714164  2.2219428571428352 5.214171428571433  2.3184800000000223 5.117999999999995  C 2.4148457142857183 5.021931428571435  2.571257142857121 5.021931428571435  2.667725714285723 5.117999999999995  L 4.218137142857131 6.663302857142867  L 7.569645714285741 3.3230057142857277  C 7.666114285714286 3.2268914285714345  7.822502857142865 3.2268914285714345  7.918788571428593 3.3230057142857277  Z " fill-rule="evenodd" />
    </mask>
  </defs>
  <g transform="matrix(1 0 0 1 -334 -9 )">
    <path d="M 10 5.000057142857145  C 10 2.2386171428571515  7.761485714285698 4.571428570443459E-05  5.00001142857144 4.571428570443459E-05  C 2.2387200000000007 4.571428570443459E-05  0 2.2386171428571515  0 5.000057142857145  C 0 7.761428571428581  2.2387200000000007 9.999942857142855  5.00001142857144 9.999942857142855  C 7.761485714285698 9.999942857142855  10 7.761428571428581  10 5.000057142857145  Z M 7.918788571428593 3.3230057142857277  C 8.015234285714314 3.41909714285714  8.015234285714314 3.575028571428561  7.918799999999976 3.671051428571417  L 4.396457142857116 7.1818057142857015  C 4.347302857142836 7.230788571428576  4.2825942857143104 7.254662857142847  4.218171428571452 7.253714285714295  C 4.1537485714285936 7.254662857142847  4.08900571428569 7.230777142857136  4.039817142857146 7.1818057142857015  L 2.3184800000000223 5.46612571428571  C 2.2219428571428352 5.3700114285714164  2.2219428571428352 5.214171428571433  2.3184800000000223 5.117999999999995  C 2.4148457142857183 5.021931428571435  2.571257142857121 5.021931428571435  2.667725714285723 5.117999999999995  L 4.218137142857131 6.663302857142867  L 7.569645714285741 3.3230057142857277  C 7.666114285714286 3.2268914285714345  7.822502857142865 3.2268914285714345  7.918788571428593 3.3230057142857277  Z " fill-rule="nonzero" fill="rgba(103, 194, 58, 1)" stroke="none" transform="matrix(1 0 0 1 334 9 )" class="fill" />
    <path d="M 10 5.000057142857145  C 10 2.2386171428571515  7.761485714285698 4.571428570443459E-05  5.00001142857144 4.571428570443459E-05  C 2.2387200000000007 4.571428570443459E-05  0 2.2386171428571515  0 5.000057142857145  C 0 7.761428571428581  2.2387200000000007 9.999942857142855  5.00001142857144 9.999942857142855  C 7.761485714285698 9.999942857142855  10 7.761428571428581  10 5.000057142857145  Z " stroke-width="0" stroke-dasharray="0" stroke="rgba(255, 255, 255, 0)" fill="none" transform="matrix(1 0 0 1 334 9 )" class="stroke" mask="url(#Clip1281)" />
    <path d="M 7.918788571428593 3.3230057142857277  C 8.015234285714314 3.41909714285714  8.015234285714314 3.575028571428561  7.918799999999976 3.671051428571417  L 4.396457142857116 7.1818057142857015  C 4.347302857142836 7.230788571428576  4.2825942857143104 7.254662857142847  4.218171428571452 7.253714285714295  C 4.1537485714285936 7.254662857142847  4.08900571428569 7.230777142857136  4.039817142857146 7.1818057142857015  L 2.3184800000000223 5.46612571428571  C 2.2219428571428352 5.3700114285714164  2.2219428571428352 5.214171428571433  2.3184800000000223 5.117999999999995  C 2.4148457142857183 5.021931428571435  2.571257142857121 5.021931428571435  2.667725714285723 5.117999999999995  L 4.218137142857131 6.663302857142867  L 7.569645714285741 3.3230057142857277  C 7.666114285714286 3.2268914285714345  7.822502857142865 3.2268914285714345  7.918788571428593 3.3230057142857277  Z " stroke-width="0" stroke-dasharray="0" stroke="rgba(255, 255, 255, 0)" fill="none" transform="matrix(1 0 0 1 334 9 )" class="stroke" mask="url(#Clip1281)" />
  </g>
</svg>