<?xml version="1.0" encoding="utf-8"?>
<svg version="1.1" xmlns:xlink="http://www.w3.org/1999/xlink" width="8px" height="4px" xmlns="http://www.w3.org/2000/svg">
  <defs>
    <pattern id="BGPattern" patternUnits="userSpaceOnUse" alignment="0 0" imageRepeat="None" />
    <mask fill="white" id="Clip1279">
      <path d="M 0.07662068965517221 3.923379310344842  L 0.07662068965517221 2.9425344827586173  L 7.923379310344828 2.9425344827586173  L 7.923379310344828 3.923379310344842  L 0.07662068965517221 3.923379310344842  Z M 0.07662068965517221 0.9808448275861963  L 0.07662068965517221 0  L 7.923379310344828 0  L 7.923379310344828 0.9808448275861963  L 0.07662068965517221 0.9808448275861963  Z " fill-rule="evenodd" />
    </mask>
  </defs>
  <g transform="matrix(1 0 0 1 -14 -14 )">
    <path d="M 0.07662068965517221 3.923379310344842  L 0.07662068965517221 2.9425344827586173  L 7.923379310344828 2.9425344827586173  L 7.923379310344828 3.923379310344842  L 0.07662068965517221 3.923379310344842  Z M 0.07662068965517221 0.9808448275861963  L 0.07662068965517221 0  L 7.923379310344828 0  L 7.923379310344828 0.9808448275861963  L 0.07662068965517221 0.9808448275861963  Z " fill-rule="nonzero" fill="rgba(161, 161, 161, 1)" stroke="none" transform="matrix(1 0 0 1 14 14 )" class="fill" />
    <path d="M 0.07662068965517221 3.923379310344842  L 0.07662068965517221 2.9425344827586173  L 7.923379310344828 2.9425344827586173  L 7.923379310344828 3.923379310344842  L 0.07662068965517221 3.923379310344842  Z " stroke-width="0" stroke-dasharray="0" stroke="rgba(255, 255, 255, 0)" fill="none" transform="matrix(1 0 0 1 14 14 )" class="stroke" mask="url(#Clip1279)" />
    <path d="M 0.07662068965517221 0.9808448275861963  L 0.07662068965517221 0  L 7.923379310344828 0  L 7.923379310344828 0.9808448275861963  L 0.07662068965517221 0.9808448275861963  Z " stroke-width="0" stroke-dasharray="0" stroke="rgba(255, 255, 255, 0)" fill="none" transform="matrix(1 0 0 1 14 14 )" class="stroke" mask="url(#Clip1279)" />
  </g>
</svg>