<?xml version="1.0" encoding="utf-8"?>
<svg version="1.1" xmlns:xlink="http://www.w3.org/1999/xlink" width="14px" height="14px" xmlns="http://www.w3.org/2000/svg">
  <defs>
    <pattern id="BGPattern" patternUnits="userSpaceOnUse" alignment="0 0" imageRepeat="None" />
    <mask fill="white" id="Clip1488">
      <path d="M 13.956409681285436 7.000031802645593  C 13.956409696821652 3.158061652166168  10.841930393288408 0.04358236416908312  7.000039741654859 0.04358236416908312  C 3.158053697620744 0.04358236416908312  0.04357440962360215 3.158045758611536  0.04357440962360215 7.000031802645593  C 0.04357440962360215 10.841938347833832  3.158037804065998 13.95641765136719  7.000039741654859 13.95641765136719  C 10.841930393288408 13.95641765136719  13.956409681285436 10.84195425692468  13.956409681285436 7.000031802645593  Z M 7.579628602183902 9.898325841175392  C 7.579628602183902 10.21845425470525  7.3202635475852285 10.478184969815345  7.000166936701021 10.478184969815345  C 6.6800862193714465 10.478184969815345  6.420355504261352 10.218438345614345  6.420355504261352 9.898325841175392  C 6.420355504261352 9.57832462269181  6.6800862193714465 9.318514408735837  7.000166936701021 9.318514408735837  C 7.3202794411399745 9.318514408735837  7.579628602183902 9.57832462269181  7.579628602183902 9.898325841175392  Z M 7.579628602183902 4.101260802112904  L 7.579628602183902 7.869558174272072  C 7.579628602183902 8.189607088955938  7.3202794411399745 8.44895624999998  7.000166936701021 8.44895624999998  C 6.6800862193714465 8.44895624999998  6.420355504261352 8.189607088955938  6.420355504261352 7.869558174272072  L 6.420355504261352 4.101260802112904  C 6.420355504261352 3.781132388583103  6.6800862193714465 3.5217991366299657  7.000166936701021 3.5217991366299657  C 7.3202794411399745 3.5217991366299657  7.579628602183902 3.781148297674008  7.579628602183902 4.101260802112904  Z " fill-rule="evenodd" />
    </mask>
  </defs>
  <g transform="matrix(1 0 0 1 -367 -4560 )">
    <path d="M 13.956409681285436 7.000031802645593  C 13.956409696821652 3.158061652166168  10.841930393288408 0.04358236416908312  7.000039741654859 0.04358236416908312  C 3.158053697620744 0.04358236416908312  0.04357440962360215 3.158045758611536  0.04357440962360215 7.000031802645593  C 0.04357440962360215 10.841938347833832  3.158037804065998 13.95641765136719  7.000039741654859 13.95641765136719  C 10.841930393288408 13.95641765136719  13.956409681285436 10.84195425692468  13.956409681285436 7.000031802645593  Z M 7.579628602183902 9.898325841175392  C 7.579628602183902 10.21845425470525  7.3202635475852285 10.478184969815345  7.000166936701021 10.478184969815345  C 6.6800862193714465 10.478184969815345  6.420355504261352 10.218438345614345  6.420355504261352 9.898325841175392  C 6.420355504261352 9.57832462269181  6.6800862193714465 9.318514408735837  7.000166936701021 9.318514408735837  C 7.3202794411399745 9.318514408735837  7.579628602183902 9.57832462269181  7.579628602183902 9.898325841175392  Z M 7.579628602183902 4.101260802112904  L 7.579628602183902 7.869558174272072  C 7.579628602183902 8.189607088955938  7.3202794411399745 8.44895624999998  7.000166936701021 8.44895624999998  C 6.6800862193714465 8.44895624999998  6.420355504261352 8.189607088955938  6.420355504261352 7.869558174272072  L 6.420355504261352 4.101260802112904  C 6.420355504261352 3.781132388583103  6.6800862193714465 3.5217991366299657  7.000166936701021 3.5217991366299657  C 7.3202794411399745 3.5217991366299657  7.579628602183902 3.781148297674008  7.579628602183902 4.101260802112904  Z " fill-rule="nonzero" fill="rgba(230, 162, 60, 1)" stroke="none" transform="matrix(1 0 0 1 367 4560 )" class="fill" />
    <path d="M 13.956409681285436 7.000031802645593  C 13.956409696821652 3.158061652166168  10.841930393288408 0.04358236416908312  7.000039741654859 0.04358236416908312  C 3.158053697620744 0.04358236416908312  0.04357440962360215 3.158045758611536  0.04357440962360215 7.000031802645593  C 0.04357440962360215 10.841938347833832  3.158037804065998 13.95641765136719  7.000039741654859 13.95641765136719  C 10.841930393288408 13.95641765136719  13.956409681285436 10.84195425692468  13.956409681285436 7.000031802645593  Z " stroke-width="0" stroke-dasharray="0" stroke="rgba(255, 255, 255, 0)" fill="none" transform="matrix(1 0 0 1 367 4560 )" class="stroke" mask="url(#Clip1488)" />
    <path d="M 7.579628602183902 9.898325841175392  C 7.579628602183902 10.21845425470525  7.3202635475852285 10.478184969815345  7.000166936701021 10.478184969815345  C 6.6800862193714465 10.478184969815345  6.420355504261352 10.218438345614345  6.420355504261352 9.898325841175392  C 6.420355504261352 9.57832462269181  6.6800862193714465 9.318514408735837  7.000166936701021 9.318514408735837  C 7.3202794411399745 9.318514408735837  7.579628602183902 9.57832462269181  7.579628602183902 9.898325841175392  Z " stroke-width="0" stroke-dasharray="0" stroke="rgba(255, 255, 255, 0)" fill="none" transform="matrix(1 0 0 1 367 4560 )" class="stroke" mask="url(#Clip1488)" />
    <path d="M 7.579628602183902 4.101260802112904  L 7.579628602183902 7.869558174272072  C 7.579628602183902 8.189607088955938  7.3202794411399745 8.44895624999998  7.000166936701021 8.44895624999998  C 6.6800862193714465 8.44895624999998  6.420355504261352 8.189607088955938  6.420355504261352 7.869558174272072  L 6.420355504261352 4.101260802112904  C 6.420355504261352 3.781132388583103  6.6800862193714465 3.5217991366299657  7.000166936701021 3.5217991366299657  C 7.3202794411399745 3.5217991366299657  7.579628602183902 3.781148297674008  7.579628602183902 4.101260802112904  Z " stroke-width="0" stroke-dasharray="0" stroke="rgba(255, 255, 255, 0)" fill="none" transform="matrix(1 0 0 1 367 4560 )" class="stroke" mask="url(#Clip1488)" />
  </g>
</svg>