<?xml version="1.0" encoding="utf-8"?>
<svg version="1.1" xmlns:xlink="http://www.w3.org/1999/xlink" width="130px" height="130px" xmlns="http://www.w3.org/2000/svg">
  <defs>
    <pattern id="BGPattern" patternUnits="userSpaceOnUse" alignment="0 0" imageRepeat="None" />
    <mask fill="white" id="Clip1490">
      <path d="M 3.9453164098789877 42.699201545455644  L 65 65  L 22.62118325177245 114.28525023797839  C 8.260600494787703 101.93704256697323  0 83.93949761230424  0 65  C 0 57.3928051186604  1.3353699505990517 49.84466118374145  3.9453164098789877 42.699201545455644  Z " fill-rule="evenodd" />
    </mask>
  </defs>
  <g transform="matrix(1 0 0 1 -533 -4520 )">
    <path d="M 3.9453164098789877 42.699201545455644  L 65 65  L 22.62118325177245 114.28525023797839  C 8.260600494787703 101.93704256697323  0 83.93949761230424  0 65  C 0 57.3928051186604  1.3353699505990517 49.84466118374145  3.9453164098789877 42.699201545455644  Z " fill-rule="nonzero" fill="rgba(32, 160, 255, 1)" stroke="none" transform="matrix(1 0 0 1 533 4520 )" class="fill" />
    <path d="M 3.9453164098789877 42.699201545455644  L 65 65  L 22.62118325177245 114.28525023797839  C 8.260600494787703 101.93704256697323  0 83.93949761230424  0 65  C 0 57.3928051186604  1.3353699505990517 49.84466118374145  3.9453164098789877 42.699201545455644  Z " stroke-width="2" stroke-dasharray="0" stroke="rgba(255, 255, 255, 0)" fill="none" transform="matrix(1 0 0 1 533 4520 )" class="stroke" mask="url(#Clip1490)" />
  </g>
</svg>