<?xml version="1.0" encoding="utf-8"?>
<svg version="1.1" xmlns:xlink="http://www.w3.org/1999/xlink" width="14px" height="14px" xmlns="http://www.w3.org/2000/svg">
  <defs>
    <pattern id="BGPattern" patternUnits="userSpaceOnUse" alignment="0 0" imageRepeat="None" />
    <mask fill="white" id="Clip1295">
      <path d="M 13.890129393805296 7.056558699115044  C 13.890129393805296 3.2229774778761  10.78243449778762 0.1152825818583949  6.948853276548675 0.1152825818583949  C 3.115272055309731 0.1152825818583949  0.007577159292054603 3.2229774778761  0.007577159292054603 7.056558699115044  C 0.007577159292054603 10.890139920353988  3.115272055309731 13.997834816371693  6.948853276548675 13.997834816371693  C 10.78243449778762 13.997834816371693  13.890129393805296 10.890139920353988  13.890129393805296 7.056558699115044  Z M 11.129545851769933 4.423374522123879  C 11.317657595132744 4.614576548672574  11.317657595132744 4.924414203539811  11.129545851769933 5.115647946902641  L 6.326483880530986 10.022765661504422  C 6.310113249999972 10.047329544247788  6.291888440265495 10.07078408185842  6.270414856194691 10.092527073008853  C 6.082160480088476 10.283729115044252  5.776982037610594 10.283729115044252  5.588600871681422 10.092527073008853  L 3.2028303938053 7.670037553097359  C 3.0147186349557273 7.478819652654863  3.0147186349557273 7.168966170353968  3.2028303938053 6.978033535398225  C 3.3910689269911245 6.786815634955758  3.6962473539823013 6.786815634955758  3.8845017455752213 6.978033535398225  L 5.922305103982296 9.04693001106196  L 10.447731867256664 4.423374522123879  C 10.63612887610617 4.232172480088508  10.941164685840704 4.232172480088508  11.129545851769933 4.423374522123879  Z " fill-rule="evenodd" />
    </mask>
  </defs>
  <g transform="matrix(1 0 0 1 -368 -4606 )">
    <path d="M 13.890129393805296 7.056558699115044  C 13.890129393805296 3.2229774778761  10.78243449778762 0.1152825818583949  6.948853276548675 0.1152825818583949  C 3.115272055309731 0.1152825818583949  0.007577159292054603 3.2229774778761  0.007577159292054603 7.056558699115044  C 0.007577159292054603 10.890139920353988  3.115272055309731 13.997834816371693  6.948853276548675 13.997834816371693  C 10.78243449778762 13.997834816371693  13.890129393805296 10.890139920353988  13.890129393805296 7.056558699115044  Z M 11.129545851769933 4.423374522123879  C 11.317657595132744 4.614576548672574  11.317657595132744 4.924414203539811  11.129545851769933 5.115647946902641  L 6.326483880530986 10.022765661504422  C 6.310113249999972 10.047329544247788  6.291888440265495 10.07078408185842  6.270414856194691 10.092527073008853  C 6.082160480088476 10.283729115044252  5.776982037610594 10.283729115044252  5.588600871681422 10.092527073008853  L 3.2028303938053 7.670037553097359  C 3.0147186349557273 7.478819652654863  3.0147186349557273 7.168966170353968  3.2028303938053 6.978033535398225  C 3.3910689269911245 6.786815634955758  3.6962473539823013 6.786815634955758  3.8845017455752213 6.978033535398225  L 5.922305103982296 9.04693001106196  L 10.447731867256664 4.423374522123879  C 10.63612887610617 4.232172480088508  10.941164685840704 4.232172480088508  11.129545851769933 4.423374522123879  Z " fill-rule="nonzero" fill="rgba(103, 194, 58, 1)" stroke="none" transform="matrix(1 0 0 1 368 4606 )" class="fill" />
    <path d="M 13.890129393805296 7.056558699115044  C 13.890129393805296 3.2229774778761  10.78243449778762 0.1152825818583949  6.948853276548675 0.1152825818583949  C 3.115272055309731 0.1152825818583949  0.007577159292054603 3.2229774778761  0.007577159292054603 7.056558699115044  C 0.007577159292054603 10.890139920353988  3.115272055309731 13.997834816371693  6.948853276548675 13.997834816371693  C 10.78243449778762 13.997834816371693  13.890129393805296 10.890139920353988  13.890129393805296 7.056558699115044  Z " stroke-width="0" stroke-dasharray="0" stroke="rgba(255, 255, 255, 0)" fill="none" transform="matrix(1 0 0 1 368 4606 )" class="stroke" mask="url(#Clip1295)" />
    <path d="M 11.129545851769933 4.423374522123879  C 11.317657595132744 4.614576548672574  11.317657595132744 4.924414203539811  11.129545851769933 5.115647946902641  L 6.326483880530986 10.022765661504422  C 6.310113249999972 10.047329544247788  6.291888440265495 10.07078408185842  6.270414856194691 10.092527073008853  C 6.082160480088476 10.283729115044252  5.776982037610594 10.283729115044252  5.588600871681422 10.092527073008853  L 3.2028303938053 7.670037553097359  C 3.0147186349557273 7.478819652654863  3.0147186349557273 7.168966170353968  3.2028303938053 6.978033535398225  C 3.3910689269911245 6.786815634955758  3.6962473539823013 6.786815634955758  3.8845017455752213 6.978033535398225  L 5.922305103982296 9.04693001106196  L 10.447731867256664 4.423374522123879  C 10.63612887610617 4.232172480088508  10.941164685840704 4.232172480088508  11.129545851769933 4.423374522123879  Z " stroke-width="0" stroke-dasharray="0" stroke="rgba(255, 255, 255, 0)" fill="none" transform="matrix(1 0 0 1 368 4606 )" class="stroke" mask="url(#Clip1295)" />
  </g>
</svg>