<?xml version="1.0" encoding="utf-8"?>
<svg version="1.1" xmlns:xlink="http://www.w3.org/1999/xlink" width="30px" height="30px" xmlns="http://www.w3.org/2000/svg">
  <defs>
    <pattern id="BGPattern" patternUnits="userSpaceOnUse" alignment="0 0" imageRepeat="None" />
    <mask fill="white" id="Clip60">
      <path d="M 29.36342857142857 3.3291428571428554  L 17.692571428571426 15  L 29.36342857142857 26.670857142857145  C 30.108571428571423 27.415999999999997  30.108571428571423 28.622857142857143  29.36342857142857 29.36342857142857  C 28.61828571428572 30.104000000000003  27.411428571428573 30.108571428571423  26.670857142857145 29.36342857142857  L 15 17.692571428571426  L 3.3291428571428554 29.367999999999995  C 2.584000000000003 30.11314285714286  1.3771428571428572 30.11314285714286  0.636571428571429 29.367999999999995  C -0.10857142857143032 28.622857142857143  -0.10857142857143032 27.415999999999997  0.636571428571429 26.67542857142857  L 12.307428571428574 15  L 0.6319999999999979 3.3291428571428554  C -0.11314285714285433 2.584000000000003  -0.11314285714285433 1.3771428571428572  0.6319999999999979 0.636571428571429  C 1.3771428571428572 -0.10857142857143032  2.584000000000003 -0.10857142857143032  3.3245714285714314 0.636571428571429  L 15 12.307428571428574  L 26.670857142857145 0.636571428571429  C 27.415999999999997 -0.10857142857143032  28.622857142857143 -0.10857142857143032  29.36342857142857 0.636571428571429  C 30.108571428571423 1.3817142857142812  30.108571428571423 2.588571428571427  29.36342857142857 3.3291428571428554  Z " fill-rule="evenodd" />
    </mask>
  </defs>
  <g transform="matrix(1 0 0 1 -167 -1293 )">
    <path d="M 29.36342857142857 3.3291428571428554  L 17.692571428571426 15  L 29.36342857142857 26.670857142857145  C 30.108571428571423 27.415999999999997  30.108571428571423 28.622857142857143  29.36342857142857 29.36342857142857  C 28.61828571428572 30.104000000000003  27.411428571428573 30.108571428571423  26.670857142857145 29.36342857142857  L 15 17.692571428571426  L 3.3291428571428554 29.367999999999995  C 2.584000000000003 30.11314285714286  1.3771428571428572 30.11314285714286  0.636571428571429 29.367999999999995  C -0.10857142857143032 28.622857142857143  -0.10857142857143032 27.415999999999997  0.636571428571429 26.67542857142857  L 12.307428571428574 15  L 0.6319999999999979 3.3291428571428554  C -0.11314285714285433 2.584000000000003  -0.11314285714285433 1.3771428571428572  0.6319999999999979 0.636571428571429  C 1.3771428571428572 -0.10857142857143032  2.584000000000003 -0.10857142857143032  3.3245714285714314 0.636571428571429  L 15 12.307428571428574  L 26.670857142857145 0.636571428571429  C 27.415999999999997 -0.10857142857143032  28.622857142857143 -0.10857142857143032  29.36342857142857 0.636571428571429  C 30.108571428571423 1.3817142857142812  30.108571428571423 2.588571428571427  29.36342857142857 3.3291428571428554  Z " fill-rule="nonzero" fill="rgba(50, 50, 51, 1)" stroke="none" transform="matrix(1 0 0 1 167 1293 )" class="fill" />
    <path d="M 29.36342857142857 3.3291428571428554  L 17.692571428571426 15  L 29.36342857142857 26.670857142857145  C 30.108571428571423 27.415999999999997  30.108571428571423 28.622857142857143  29.36342857142857 29.36342857142857  C 28.61828571428572 30.104000000000003  27.411428571428573 30.108571428571423  26.670857142857145 29.36342857142857  L 15 17.692571428571426  L 3.3291428571428554 29.367999999999995  C 2.584000000000003 30.11314285714286  1.3771428571428572 30.11314285714286  0.636571428571429 29.367999999999995  C -0.10857142857143032 28.622857142857143  -0.10857142857143032 27.415999999999997  0.636571428571429 26.67542857142857  L 12.307428571428574 15  L 0.6319999999999979 3.3291428571428554  C -0.11314285714285433 2.584000000000003  -0.11314285714285433 1.3771428571428572  0.6319999999999979 0.636571428571429  C 1.3771428571428572 -0.10857142857143032  2.584000000000003 -0.10857142857143032  3.3245714285714314 0.636571428571429  L 15 12.307428571428574  L 26.670857142857145 0.636571428571429  C 27.415999999999997 -0.10857142857143032  28.622857142857143 -0.10857142857143032  29.36342857142857 0.636571428571429  C 30.108571428571423 1.3817142857142812  30.108571428571423 2.588571428571427  29.36342857142857 3.3291428571428554  Z " stroke-width="0" stroke-dasharray="0" stroke="rgba(255, 255, 255, 0)" fill="none" transform="matrix(1 0 0 1 167 1293 )" class="stroke" mask="url(#Clip60)" />
  </g>
</svg>