<?xml version="1.0" encoding="utf-8"?>
<svg version="1.1" xmlns:xlink="http://www.w3.org/1999/xlink" width="30px" height="17px" xmlns="http://www.w3.org/2000/svg">
  <defs>
    <pattern id="BGPattern" patternUnits="userSpaceOnUse" alignment="0 0" imageRepeat="None" />
    <mask fill="white" id="Clip588">
      <path d="M 16.15983673469387 15.960979591836733  C 15.74448979591837 16.376326530612232  15.160653061224494 16.521306122448976  14.627755102040823 16.395918367346937  C 14.329959183673466 16.325387755102028  14.059591836734697 16.176489795918357  13.844081632653058 15.960979591836733  L 0.7567346938775472 2.8775510204081627  C 0.11804081632652696 2.2388571428571424  0.11804081632652696 1.204408163265306  0.7567346938775472 0.5696326530612268  C 1.3954285714285675 -0.06906122448979346  2.429877551020404 -0.06906122448979346  3.06465306122449 0.5696326530612268  L 15 12.501061224489789  L 26.93142857142857 0.5696326530612268  C 27.57012244897959 -0.06906122448979346  28.604571428571433 -0.06906122448979346  29.239346938775512 0.5696326530612268  C 29.87412244897959 1.20832653061224  29.878040816326532 2.2427755102040834  29.239346938775512 2.8775510204081627  L 16.15983673469387 15.960979591836733  Z " fill-rule="evenodd" />
    </mask>
  </defs>
  <g transform="matrix(1 0 0 1 -392 -1299 )">
    <path d="M 16.15983673469387 15.960979591836733  C 15.74448979591837 16.376326530612232  15.160653061224494 16.521306122448976  14.627755102040823 16.395918367346937  C 14.329959183673466 16.325387755102028  14.059591836734697 16.176489795918357  13.844081632653058 15.960979591836733  L 0.7567346938775472 2.8775510204081627  C 0.11804081632652696 2.2388571428571424  0.11804081632652696 1.204408163265306  0.7567346938775472 0.5696326530612268  C 1.3954285714285675 -0.06906122448979346  2.429877551020404 -0.06906122448979346  3.06465306122449 0.5696326530612268  L 15 12.501061224489789  L 26.93142857142857 0.5696326530612268  C 27.57012244897959 -0.06906122448979346  28.604571428571433 -0.06906122448979346  29.239346938775512 0.5696326530612268  C 29.87412244897959 1.20832653061224  29.878040816326532 2.2427755102040834  29.239346938775512 2.8775510204081627  L 16.15983673469387 15.960979591836733  Z " fill-rule="nonzero" fill="rgba(50, 50, 51, 1)" stroke="none" transform="matrix(1 0 0 1 392 1299 )" class="fill" />
    <path d="M 16.15983673469387 15.960979591836733  C 15.74448979591837 16.376326530612232  15.160653061224494 16.521306122448976  14.627755102040823 16.395918367346937  C 14.329959183673466 16.325387755102028  14.059591836734697 16.176489795918357  13.844081632653058 15.960979591836733  L 0.7567346938775472 2.8775510204081627  C 0.11804081632652696 2.2388571428571424  0.11804081632652696 1.204408163265306  0.7567346938775472 0.5696326530612268  C 1.3954285714285675 -0.06906122448979346  2.429877551020404 -0.06906122448979346  3.06465306122449 0.5696326530612268  L 15 12.501061224489789  L 26.93142857142857 0.5696326530612268  C 27.57012244897959 -0.06906122448979346  28.604571428571433 -0.06906122448979346  29.239346938775512 0.5696326530612268  C 29.87412244897959 1.20832653061224  29.878040816326532 2.2427755102040834  29.239346938775512 2.8775510204081627  L 16.15983673469387 15.960979591836733  Z " stroke-width="0" stroke-dasharray="0" stroke="rgba(255, 255, 255, 0)" fill="none" transform="matrix(1 0 0 1 392 1299 )" class="stroke" mask="url(#Clip588)" />
  </g>
</svg>