<?xml version="1.0" encoding="utf-8"?>
<svg version="1.1" xmlns:xlink="http://www.w3.org/1999/xlink" width="30px" height="30px" xmlns="http://www.w3.org/2000/svg">
  <defs>
    <pattern id="BGPattern" patternUnits="userSpaceOnUse" alignment="0 0" imageRepeat="None" />
    <mask fill="white" id="Clip592">
      <path d="M 10.088640000000005 3.99456  C 9.009600000000006 2.9193599999999975  8.164800000000007 2.43168  7.366080000000004 2.43168  C 7.339200000000005 2.43168  7.31232 2.435519999999997  7.285440000000001 2.435519999999997  C 6.390720000000002 2.4739199999999997  5.300160000000005 3.14208  3.9561600000000037 4.486080000000001  C -1.4083200000000033 9.854399999999998  9.197760000000002 20.587199999999996  9.305279999999996 20.694720000000004  C 9.412800000000004 20.7984  20.141760000000005 31.415999999999997  25.51392 26.043840000000003  C 26.857920000000007 24.699839999999995  27.526080000000007 23.613119999999995  27.564480000000003 22.718400000000003  C 27.595200000000006 21.892799999999994  27.1152 21.03264  26.001599999999996 19.9152  C 24.89568 18.80928  23.97408 18.287040000000005  23.20608 18.356160000000003  C 22.50336 18.42528  21.754560000000012 19.04352  20.98272 20.195520000000002  C 20.283839999999998 21.362880000000004  19.320000000000007 21.72  18.64416 21.804479999999998  C 16.87776000000001 22.031040000000004  14.788800000000009 20.813760000000002  11.989440000000009 18.014399999999995  C 9.190080000000009 15.211200000000005  7.984320000000011 13.09536  8.199360000000006 11.363520000000001  C 8.283840000000005 10.683840000000004  8.63712000000001 9.719999999999999  9.854400000000012 8.990400000000001  C 10.964160000000007 8.245440000000002  11.582400000000007 7.496639999999999  11.651520000000005 6.79392  C 11.724480000000007 6.045119999999997  11.198400000000007 5.104320000000001  10.088640000000005 3.99456  Z M 27.02304000000001 27.55680000000001  C 25.475520000000017 29.096640000000008  23.674560000000014 29.699520000000007  21.80832000000001 29.699520000000007  C 15.391680000000008 29.699520000000007  8.184000000000012 22.58784  7.796160000000008 22.19999999999999  C 7.296960000000006 21.7008  -4.411199999999994 9.835199999999993  2.4470400000000083 2.976959999999991  C 4.209600000000009 1.2143999999999977  5.718720000000005 0.3619199999999978  7.197120000000012 0.3004799999999932  C 9.170880000000011 0.22751999999999128  10.622400000000006 1.510079999999995  11.593920000000011 2.485439999999997  C 13.19904000000001 4.086719999999993  13.90944000000001 5.565119999999993  13.771200000000007 7.001279999999994  C 13.632960000000011 8.387519999999995  12.726720000000007 9.627839999999992  10.994880000000009 10.791359999999997  C 10.438080000000006 11.125439999999998  10.345920000000007 11.409599999999998  10.315200000000004 11.62464  C 10.246080000000006 12.189119999999996  10.568640000000002 13.575359999999996  13.498560000000005 16.509119999999996  C 16.428480000000008 19.435199999999995  17.81472000000001 19.74624  18.38304000000001 19.69247999999999  C 18.59808000000001 19.665599999999998  18.878400000000013 19.569599999999994  19.185600000000008 19.058880000000002  C 20.37984 17.280959999999993  21.61632 16.37088  23.002560000000017 16.23648  C 24.41568000000001 16.075199999999995  25.909440000000018 16.8048  27.514560000000017 18.40992  C 28.489920000000012 19.385279999999995  29.78016000000001 20.902079999999998  29.699520000000007 22.810559999999995  C 29.638080000000002 24.285120000000006  28.789440000000013 25.794240000000002  27.02304000000001 27.55680000000001  Z " fill-rule="evenodd" />
    </mask>
  </defs>
  <g transform="matrix(1 0 0 1 -200 -1349 )">
    <path d="M 10.088640000000005 3.99456  C 9.009600000000006 2.9193599999999975  8.164800000000007 2.43168  7.366080000000004 2.43168  C 7.339200000000005 2.43168  7.31232 2.435519999999997  7.285440000000001 2.435519999999997  C 6.390720000000002 2.4739199999999997  5.300160000000005 3.14208  3.9561600000000037 4.486080000000001  C -1.4083200000000033 9.854399999999998  9.197760000000002 20.587199999999996  9.305279999999996 20.694720000000004  C 9.412800000000004 20.7984  20.141760000000005 31.415999999999997  25.51392 26.043840000000003  C 26.857920000000007 24.699839999999995  27.526080000000007 23.613119999999995  27.564480000000003 22.718400000000003  C 27.595200000000006 21.892799999999994  27.1152 21.03264  26.001599999999996 19.9152  C 24.89568 18.80928  23.97408 18.287040000000005  23.20608 18.356160000000003  C 22.50336 18.42528  21.754560000000012 19.04352  20.98272 20.195520000000002  C 20.283839999999998 21.362880000000004  19.320000000000007 21.72  18.64416 21.804479999999998  C 16.87776000000001 22.031040000000004  14.788800000000009 20.813760000000002  11.989440000000009 18.014399999999995  C 9.190080000000009 15.211200000000005  7.984320000000011 13.09536  8.199360000000006 11.363520000000001  C 8.283840000000005 10.683840000000004  8.63712000000001 9.719999999999999  9.854400000000012 8.990400000000001  C 10.964160000000007 8.245440000000002  11.582400000000007 7.496639999999999  11.651520000000005 6.79392  C 11.724480000000007 6.045119999999997  11.198400000000007 5.104320000000001  10.088640000000005 3.99456  Z M 27.02304000000001 27.55680000000001  C 25.475520000000017 29.096640000000008  23.674560000000014 29.699520000000007  21.80832000000001 29.699520000000007  C 15.391680000000008 29.699520000000007  8.184000000000012 22.58784  7.796160000000008 22.19999999999999  C 7.296960000000006 21.7008  -4.411199999999994 9.835199999999993  2.4470400000000083 2.976959999999991  C 4.209600000000009 1.2143999999999977  5.718720000000005 0.3619199999999978  7.197120000000012 0.3004799999999932  C 9.170880000000011 0.22751999999999128  10.622400000000006 1.510079999999995  11.593920000000011 2.485439999999997  C 13.19904000000001 4.086719999999993  13.90944000000001 5.565119999999993  13.771200000000007 7.001279999999994  C 13.632960000000011 8.387519999999995  12.726720000000007 9.627839999999992  10.994880000000009 10.791359999999997  C 10.438080000000006 11.125439999999998  10.345920000000007 11.409599999999998  10.315200000000004 11.62464  C 10.246080000000006 12.189119999999996  10.568640000000002 13.575359999999996  13.498560000000005 16.509119999999996  C 16.428480000000008 19.435199999999995  17.81472000000001 19.74624  18.38304000000001 19.69247999999999  C 18.59808000000001 19.665599999999998  18.878400000000013 19.569599999999994  19.185600000000008 19.058880000000002  C 20.37984 17.280959999999993  21.61632 16.37088  23.002560000000017 16.23648  C 24.41568000000001 16.075199999999995  25.909440000000018 16.8048  27.514560000000017 18.40992  C 28.489920000000012 19.385279999999995  29.78016000000001 20.902079999999998  29.699520000000007 22.810559999999995  C 29.638080000000002 24.285120000000006  28.789440000000013 25.794240000000002  27.02304000000001 27.55680000000001  Z " fill-rule="nonzero" fill="rgba(50, 50, 51, 1)" stroke="none" transform="matrix(1 0 0 1 200 1349 )" class="fill" />
    <path d="M 10.088640000000005 3.99456  C 9.009600000000006 2.9193599999999975  8.164800000000007 2.43168  7.366080000000004 2.43168  C 7.339200000000005 2.43168  7.31232 2.435519999999997  7.285440000000001 2.435519999999997  C 6.390720000000002 2.4739199999999997  5.300160000000005 3.14208  3.9561600000000037 4.486080000000001  C -1.4083200000000033 9.854399999999998  9.197760000000002 20.587199999999996  9.305279999999996 20.694720000000004  C 9.412800000000004 20.7984  20.141760000000005 31.415999999999997  25.51392 26.043840000000003  C 26.857920000000007 24.699839999999995  27.526080000000007 23.613119999999995  27.564480000000003 22.718400000000003  C 27.595200000000006 21.892799999999994  27.1152 21.03264  26.001599999999996 19.9152  C 24.89568 18.80928  23.97408 18.287040000000005  23.20608 18.356160000000003  C 22.50336 18.42528  21.754560000000012 19.04352  20.98272 20.195520000000002  C 20.283839999999998 21.362880000000004  19.320000000000007 21.72  18.64416 21.804479999999998  C 16.87776000000001 22.031040000000004  14.788800000000009 20.813760000000002  11.989440000000009 18.014399999999995  C 9.190080000000009 15.211200000000005  7.984320000000011 13.09536  8.199360000000006 11.363520000000001  C 8.283840000000005 10.683840000000004  8.63712000000001 9.719999999999999  9.854400000000012 8.990400000000001  C 10.964160000000007 8.245440000000002  11.582400000000007 7.496639999999999  11.651520000000005 6.79392  C 11.724480000000007 6.045119999999997  11.198400000000007 5.104320000000001  10.088640000000005 3.99456  Z " stroke-width="0" stroke-dasharray="0" stroke="rgba(255, 255, 255, 0)" fill="none" transform="matrix(1 0 0 1 200 1349 )" class="stroke" mask="url(#Clip592)" />
    <path d="M 27.02304000000001 27.55680000000001  C 25.475520000000017 29.096640000000008  23.674560000000014 29.699520000000007  21.80832000000001 29.699520000000007  C 15.391680000000008 29.699520000000007  8.184000000000012 22.58784  7.796160000000008 22.19999999999999  C 7.296960000000006 21.7008  -4.411199999999994 9.835199999999993  2.4470400000000083 2.976959999999991  C 4.209600000000009 1.2143999999999977  5.718720000000005 0.3619199999999978  7.197120000000012 0.3004799999999932  C 9.170880000000011 0.22751999999999128  10.622400000000006 1.510079999999995  11.593920000000011 2.485439999999997  C 13.19904000000001 4.086719999999993  13.90944000000001 5.565119999999993  13.771200000000007 7.001279999999994  C 13.632960000000011 8.387519999999995  12.726720000000007 9.627839999999992  10.994880000000009 10.791359999999997  C 10.438080000000006 11.125439999999998  10.345920000000007 11.409599999999998  10.315200000000004 11.62464  C 10.246080000000006 12.189119999999996  10.568640000000002 13.575359999999996  13.498560000000005 16.509119999999996  C 16.428480000000008 19.435199999999995  17.81472000000001 19.74624  18.38304000000001 19.69247999999999  C 18.59808000000001 19.665599999999998  18.878400000000013 19.569599999999994  19.185600000000008 19.058880000000002  C 20.37984 17.280959999999993  21.61632 16.37088  23.002560000000017 16.23648  C 24.41568000000001 16.075199999999995  25.909440000000018 16.8048  27.514560000000017 18.40992  C 28.489920000000012 19.385279999999995  29.78016000000001 20.902079999999998  29.699520000000007 22.810559999999995  C 29.638080000000002 24.285120000000006  28.789440000000013 25.794240000000002  27.02304000000001 27.55680000000001  Z " stroke-width="0" stroke-dasharray="0" stroke="rgba(255, 255, 255, 0)" fill="none" transform="matrix(1 0 0 1 200 1349 )" class="stroke" mask="url(#Clip592)" />
  </g>
</svg>