<?xml version="1.0" encoding="utf-8"?>
<svg version="1.1" xmlns:xlink="http://www.w3.org/1999/xlink" width="17px" height="30px" xmlns="http://www.w3.org/2000/svg">
  <g transform="matrix(1 0 0 1 -252 -1293 )">
    <path d="M 15.960979591836718 13.840163265306117  C 16.376326530612232 14.25551020408163  16.521306122448976 14.839346938775506  16.395918367346937 15.372244897959177  C 16.325387755102028 15.670040816326535  16.176489795918357 15.940408163265303  15.960979591836733 16.155918367346942  L 2.8775510204081627 29.243265306122453  C 2.2388571428571424 29.881959183673473  1.204408163265306 29.881959183673473  0.5696326530612268 29.243265306122453  C -0.0651428571428525 28.604571428571433  -0.06906122448979346 27.57012244897959  0.5696326530612268 26.93534693877551  L 12.501061224489789 15  L 0.5696326530612268 3.06465306122449  C -0.06906122448979346 2.42595918367347  -0.06906122448979346 1.3915102040816336  0.5696326530612268 0.7567346938775472  C 1.20832653061224 0.11804081632652696  2.2427755102040834 0.11804081632652696  2.8775510204081627 0.7567346938775472  L 15.960979591836718 13.840163265306117  Z " fill-rule="nonzero" fill="#323233" stroke="none" transform="matrix(1 0 0 1 252 1293 )" />
  </g>
</svg>