<?xml version="1.0" encoding="utf-8"?>
<svg version="1.1" xmlns:xlink="http://www.w3.org/1999/xlink" width="30px" height="23px" xmlns="http://www.w3.org/2000/svg">
  <defs>
    <pattern id="BGPattern" patternUnits="userSpaceOnUse" alignment="0 0" imageRepeat="None" />
    <mask fill="white" id="Clip595">
      <path d="M 0.03073684210526295 8.648427906976742  L 0.03073684210526295 9.12426046511628  L 0.03073684210526295 8.648427906976742  Z M 0.03073684210526295 14.35157209302325  L 0.03073684210526295 13.87573953488372  L 0.03073684210526295 14.35157209302325  Z M 29.969263157894744 14.35157209302325  L 29.969263157894744 13.87573953488372  L 29.969263157894744 14.35157209302325  Z M 29.969263157894744 8.648427906976742  L 29.969263157894744 9.12426046511628  L 29.969263157894744 8.648427906976742  Z M 29.976 9.59666976744186  L 29.969263157894744 9.12426046511628  L 29.969263157894744 9.600093023255816  C 28.935157894736847 9.600093023255816  28.096421052631584 10.452483720930232  28.096421052631584 11.50342325581395  C 28.096421052631584 12.554362790697674  28.935157894736847 13.40675348837209  29.969263157894744 13.40675348837209  L 29.969263157894744 21.013227906976738  C 29.969263157894744 22.064167441860462  29.130526315789467 22.916558139534885  28.096421052631584 23  L 1.900210526315789 23  C 0.8661052631578912 22.916558139534885  0.027368421052628378 22.064167441860462  0.027368421052628378 21.013227906976738  L 0.027368421052628378 13.40333023255814  C 1.061473684210526 13.40333023255814  1.900210526315789 12.550939534883724  1.900210526315789 11.5  C 1.900210526315789 10.449060465116283  1.061473684210526 9.59666976744186  0.027368421052628378 9.59666976744186  L 0.027368421052628378 1.9901953488372115  C 0.027368421052628378 0.9392558139534871  0.8661052631578912 0.08686511627907123  1.900210526315789 0  L 28.09978947368421 0  C 29.13389473684211 0.08686511627907123  29.97263157894737 0.9392558139534871  29.97263157894737 1.9901953488372115  L 29.97263157894737 9.59666976744186  L 28.09978947368421 9.59666976744186  L 28.09978947368421 2  L 1.900210526315789 2  L 1.900210526315789 9.59666976744186  L 0.03073684210526295 9.59666976744186  L 0.03073684210526295 9.120837209302323  L 0.03073684210526295 9.59666976744186  C 1.0648421052631605 9.59666976744186  1.9035789473684233 10.449060465116276  1.9035789473684233 11.5  C 1.9035789473684233 12.550939534883724  1.0648421052631605 13.40333023255814  0.03073684210526295 13.40333023255814  L 0.03073684210526295 13.879162790697677  L 0.03073684210526295 13.40333023255814  L 1.9035789473684233 13.40333023255814  L 1.9035789473684233 21  L 28.10315789473684 21  L 28.10315789473684 13.40333023255814  L 29.976 13.40333023255814  L 29.976 13.879162790697677  L 29.976 13.40333023255814  C 28.9418947368421 13.40333023255814  28.10315789473684 12.550939534883724  28.10315789473684 11.5  C 28.10315789473684 10.449060465116283  28.9418947368421 9.59666976744186  29.976 9.59666976744186  Z M 9.38484210526316 8.648427906976742  C 9.38484210526316 8.121246511627902  9.805894736842106 7.696762790697676  10.321263157894734 7.696762790697676  L 19.678736842105266 7.696762790697676  C 20.194105263157894 7.696762790697676  20.61515789473684 8.121246511627902  20.61515789473684 8.648427906976742  C 20.61515789473684 9.172186046511627  20.197473684210536 9.600093023255809  19.678736842105266 9.600093023255809  L 10.321263157894734 9.600093023255809  C 9.805894736842106 9.600093023255809  9.38484210526316 9.175609302325583  9.38484210526316 8.648427906976742  Z M 9.38484210526316 14.354995348837205  C 9.38484210526316 13.827813953488373  9.805894736842106 13.40333023255814  10.321263157894734 13.40333023255814  L 19.678736842105266 13.40333023255814  C 20.194105263157894 13.40333023255814  20.61515789473684 13.827813953488373  20.61515789473684 14.354995348837205  C 20.61515789473684 14.878753488372098  20.197473684210536 15.30666046511628  19.678736842105266 15.30666046511628  L 10.321263157894734 15.30666046511628  C 9.805894736842106 15.30666046511628  9.38484210526316 14.882176744186053  9.38484210526316 14.354995348837205  Z " fill-rule="evenodd" />
    </mask>
  </defs>
  <g transform="matrix(1 0 0 1 -344 -1353 )">
    <path d="M 0.03073684210526295 8.648427906976742  L 0.03073684210526295 9.12426046511628  L 0.03073684210526295 8.648427906976742  Z M 0.03073684210526295 14.35157209302325  L 0.03073684210526295 13.87573953488372  L 0.03073684210526295 14.35157209302325  Z M 29.969263157894744 14.35157209302325  L 29.969263157894744 13.87573953488372  L 29.969263157894744 14.35157209302325  Z M 29.969263157894744 8.648427906976742  L 29.969263157894744 9.12426046511628  L 29.969263157894744 8.648427906976742  Z M 29.976 9.59666976744186  L 29.969263157894744 9.12426046511628  L 29.969263157894744 9.600093023255816  C 28.935157894736847 9.600093023255816  28.096421052631584 10.452483720930232  28.096421052631584 11.50342325581395  C 28.096421052631584 12.554362790697674  28.935157894736847 13.40675348837209  29.969263157894744 13.40675348837209  L 29.969263157894744 21.013227906976738  C 29.969263157894744 22.064167441860462  29.130526315789467 22.916558139534885  28.096421052631584 23  L 1.900210526315789 23  C 0.8661052631578912 22.916558139534885  0.027368421052628378 22.064167441860462  0.027368421052628378 21.013227906976738  L 0.027368421052628378 13.40333023255814  C 1.061473684210526 13.40333023255814  1.900210526315789 12.550939534883724  1.900210526315789 11.5  C 1.900210526315789 10.449060465116283  1.061473684210526 9.59666976744186  0.027368421052628378 9.59666976744186  L 0.027368421052628378 1.9901953488372115  C 0.027368421052628378 0.9392558139534871  0.8661052631578912 0.08686511627907123  1.900210526315789 0  L 28.09978947368421 0  C 29.13389473684211 0.08686511627907123  29.97263157894737 0.9392558139534871  29.97263157894737 1.9901953488372115  L 29.97263157894737 9.59666976744186  L 28.09978947368421 9.59666976744186  L 28.09978947368421 2  L 1.900210526315789 2  L 1.900210526315789 9.59666976744186  L 0.03073684210526295 9.59666976744186  L 0.03073684210526295 9.120837209302323  L 0.03073684210526295 9.59666976744186  C 1.0648421052631605 9.59666976744186  1.9035789473684233 10.449060465116276  1.9035789473684233 11.5  C 1.9035789473684233 12.550939534883724  1.0648421052631605 13.40333023255814  0.03073684210526295 13.40333023255814  L 0.03073684210526295 13.879162790697677  L 0.03073684210526295 13.40333023255814  L 1.9035789473684233 13.40333023255814  L 1.9035789473684233 21  L 28.10315789473684 21  L 28.10315789473684 13.40333023255814  L 29.976 13.40333023255814  L 29.976 13.879162790697677  L 29.976 13.40333023255814  C 28.9418947368421 13.40333023255814  28.10315789473684 12.550939534883724  28.10315789473684 11.5  C 28.10315789473684 10.449060465116283  28.9418947368421 9.59666976744186  29.976 9.59666976744186  Z M 9.38484210526316 8.648427906976742  C 9.38484210526316 8.121246511627902  9.805894736842106 7.696762790697676  10.321263157894734 7.696762790697676  L 19.678736842105266 7.696762790697676  C 20.194105263157894 7.696762790697676  20.61515789473684 8.121246511627902  20.61515789473684 8.648427906976742  C 20.61515789473684 9.172186046511627  20.197473684210536 9.600093023255809  19.678736842105266 9.600093023255809  L 10.321263157894734 9.600093023255809  C 9.805894736842106 9.600093023255809  9.38484210526316 9.175609302325583  9.38484210526316 8.648427906976742  Z M 9.38484210526316 14.354995348837205  C 9.38484210526316 13.827813953488373  9.805894736842106 13.40333023255814  10.321263157894734 13.40333023255814  L 19.678736842105266 13.40333023255814  C 20.194105263157894 13.40333023255814  20.61515789473684 13.827813953488373  20.61515789473684 14.354995348837205  C 20.61515789473684 14.878753488372098  20.197473684210536 15.30666046511628  19.678736842105266 15.30666046511628  L 10.321263157894734 15.30666046511628  C 9.805894736842106 15.30666046511628  9.38484210526316 14.882176744186053  9.38484210526316 14.354995348837205  Z " fill-rule="nonzero" fill="rgba(50, 50, 51, 1)" stroke="none" transform="matrix(1 0 0 1 344 1353 )" class="fill" />
    <path d="M 0.03073684210526295 8.648427906976742  L 0.03073684210526295 9.12426046511628  L 0.03073684210526295 8.648427906976742  Z " stroke-width="0" stroke-dasharray="0" stroke="rgba(255, 255, 255, 0)" fill="none" transform="matrix(1 0 0 1 344 1353 )" class="stroke" mask="url(#Clip595)" />
    <path d="M 0.03073684210526295 14.35157209302325  L 0.03073684210526295 13.87573953488372  L 0.03073684210526295 14.35157209302325  Z " stroke-width="0" stroke-dasharray="0" stroke="rgba(255, 255, 255, 0)" fill="none" transform="matrix(1 0 0 1 344 1353 )" class="stroke" mask="url(#Clip595)" />
    <path d="M 29.969263157894744 14.35157209302325  L 29.969263157894744 13.87573953488372  L 29.969263157894744 14.35157209302325  Z " stroke-width="0" stroke-dasharray="0" stroke="rgba(255, 255, 255, 0)" fill="none" transform="matrix(1 0 0 1 344 1353 )" class="stroke" mask="url(#Clip595)" />
    <path d="M 29.969263157894744 8.648427906976742  L 29.969263157894744 9.12426046511628  L 29.969263157894744 8.648427906976742  Z " stroke-width="0" stroke-dasharray="0" stroke="rgba(255, 255, 255, 0)" fill="none" transform="matrix(1 0 0 1 344 1353 )" class="stroke" mask="url(#Clip595)" />
    <path d="M 29.976 9.59666976744186  L 29.969263157894744 9.12426046511628  L 29.969263157894744 9.600093023255816  C 28.935157894736847 9.600093023255816  28.096421052631584 10.452483720930232  28.096421052631584 11.50342325581395  C 28.096421052631584 12.554362790697674  28.935157894736847 13.40675348837209  29.969263157894744 13.40675348837209  L 29.969263157894744 21.013227906976738  C 29.969263157894744 22.064167441860462  29.130526315789467 22.916558139534885  28.096421052631584 23  L 1.900210526315789 23  C 0.8661052631578912 22.916558139534885  0.027368421052628378 22.064167441860462  0.027368421052628378 21.013227906976738  L 0.027368421052628378 13.40333023255814  C 1.061473684210526 13.40333023255814  1.900210526315789 12.550939534883724  1.900210526315789 11.5  C 1.900210526315789 10.449060465116283  1.061473684210526 9.59666976744186  0.027368421052628378 9.59666976744186  L 0.027368421052628378 1.9901953488372115  C 0.027368421052628378 0.9392558139534871  0.8661052631578912 0.08686511627907123  1.900210526315789 0  L 28.09978947368421 0  C 29.13389473684211 0.08686511627907123  29.97263157894737 0.9392558139534871  29.97263157894737 1.9901953488372115  L 29.97263157894737 9.59666976744186  L 28.09978947368421 9.59666976744186  L 28.09978947368421 2  L 1.900210526315789 2  L 1.900210526315789 9.59666976744186  L 0.03073684210526295 9.59666976744186  L 0.03073684210526295 9.120837209302323  L 0.03073684210526295 9.59666976744186  C 1.0648421052631605 9.59666976744186  1.9035789473684233 10.449060465116276  1.9035789473684233 11.5  C 1.9035789473684233 12.550939534883724  1.0648421052631605 13.40333023255814  0.03073684210526295 13.40333023255814  L 0.03073684210526295 13.879162790697677  L 0.03073684210526295 13.40333023255814  L 1.9035789473684233 13.40333023255814  L 1.9035789473684233 21  L 28.10315789473684 21  L 28.10315789473684 13.40333023255814  L 29.976 13.40333023255814  L 29.976 13.879162790697677  L 29.976 13.40333023255814  C 28.9418947368421 13.40333023255814  28.10315789473684 12.550939534883724  28.10315789473684 11.5  C 28.10315789473684 10.449060465116283  28.9418947368421 9.59666976744186  29.976 9.59666976744186  Z " stroke-width="0" stroke-dasharray="0" stroke="rgba(255, 255, 255, 0)" fill="none" transform="matrix(1 0 0 1 344 1353 )" class="stroke" mask="url(#Clip595)" />
    <path d="M 9.38484210526316 8.648427906976742  C 9.38484210526316 8.121246511627902  9.805894736842106 7.696762790697676  10.321263157894734 7.696762790697676  L 19.678736842105266 7.696762790697676  C 20.194105263157894 7.696762790697676  20.61515789473684 8.121246511627902  20.61515789473684 8.648427906976742  C 20.61515789473684 9.172186046511627  20.197473684210536 9.600093023255809  19.678736842105266 9.600093023255809  L 10.321263157894734 9.600093023255809  C 9.805894736842106 9.600093023255809  9.38484210526316 9.175609302325583  9.38484210526316 8.648427906976742  Z " stroke-width="0" stroke-dasharray="0" stroke="rgba(255, 255, 255, 0)" fill="none" transform="matrix(1 0 0 1 344 1353 )" class="stroke" mask="url(#Clip595)" />
    <path d="M 9.38484210526316 14.354995348837205  C 9.38484210526316 13.827813953488373  9.805894736842106 13.40333023255814  10.321263157894734 13.40333023255814  L 19.678736842105266 13.40333023255814  C 20.194105263157894 13.40333023255814  20.61515789473684 13.827813953488373  20.61515789473684 14.354995348837205  C 20.61515789473684 14.878753488372098  20.197473684210536 15.30666046511628  19.678736842105266 15.30666046511628  L 10.321263157894734 15.30666046511628  C 9.805894736842106 15.30666046511628  9.38484210526316 14.882176744186053  9.38484210526316 14.354995348837205  Z " stroke-width="0" stroke-dasharray="0" stroke="rgba(255, 255, 255, 0)" fill="none" transform="matrix(1 0 0 1 344 1353 )" class="stroke" mask="url(#Clip595)" />
  </g>
</svg>