<?xml version="1.0" encoding="utf-8"?>
<svg version="1.1" xmlns:xlink="http://www.w3.org/1999/xlink" width="30px" height="8px" xmlns="http://www.w3.org/2000/svg">
  <g transform="matrix(1 0 0 1 -344 -1360 )">
    <path d="M 0.03073684210526295 2.098773333333334  L 0.03073684210526295 0.20778666666667078  C 2.098947368421051 0.20778666666667078  3.773052631578949 1.9042133333333382  3.773052631578949 4  C 3.773052631578949 6.095786666666662  2.0955789473684234 7.792213333333336  0.03073684210526295 7.792213333333336  L 0.03073684210526295 5.894399999999997  C 1.0648421052631605 5.894399999999997  1.9035789473684233 5.04448  1.9035789473684233 3.9965866666666656  C 1.9035789473684233 2.9486933333333383  1.0648421052631605 2.098773333333334  0.03073684210526295 2.098773333333334  Z M 26.22694736842105 4.006826666666669  C 26.22694736842105 1.9110399999999998  27.904421052631577 0.20778666666666368  29.969263157894744 0.20778666666667078  L 29.969263157894744 2.1056000000000026  C 28.935157894736847 2.1056000000000026  28.096421052631584 2.95552  28.096421052631584 4.003413333333334  C 28.096421052631584 5.051306666666662  28.935157894736847 5.901226666666666  29.969263157894744 5.901226666666666  L 29.969263157894744 7.799040000000005  C 27.90105263157895 7.799040000000005  26.22694736842105 6.102613333333331  26.22694736842105 4.006826666666669  Z " fill-rule="nonzero" fill="#323233" stroke="none" transform="matrix(1 0 0 1 344 1360 )" />
  </g>
</svg>