<?xml version="1.0" encoding="utf-8"?>
<svg version="1.1" xmlns:xlink="http://www.w3.org/1999/xlink" width="12px" height="12px" xmlns="http://www.w3.org/2000/svg">
  <g transform="matrix(1 0 0 1 -50 -1463 )">
    <path d="M 56 1463  C 59.36 1463  62 1465.64  62 1469  C 62 1472.36  59.36 1475  56 1475  C 52.64 1475  50 1472.36  50 1469  C 50 1465.64  52.64 1463  56 1463  Z " fill-rule="nonzero" fill="#f5f7fa" stroke="none" />
    <path d="M 56 1463.5  C 59.08 1463.5  61.5 1465.92  61.5 1469  C 61.5 1472.08  59.08 1474.5  56 1474.5  C 52.92 1474.5  50.5 1472.08  50.5 1469  C 50.5 1465.92  52.92 1463.5  56 1463.5  Z " stroke-width="1" stroke="#e4e7ed" fill="none" />
  </g>
</svg>