<?xml version="1.0" encoding="utf-8"?>
<svg version="1.1" xmlns:xlink="http://www.w3.org/1999/xlink" width="12px" height="12px" xmlns="http://www.w3.org/2000/svg">
  <defs>
    <pattern id="BGPattern" patternUnits="userSpaceOnUse" alignment="0 0" imageRepeat="None" />
    <mask fill="white" id="Clip602">
      <path d="M 10.998749999999973 1.125  L 9.375 1.125  L 9.375 0.375  C 9.375 0.16789321881344677  9.207106781186553 0  9 0  C 8.792893218813447 0  8.625 0.16789321881344677  8.625 0.375  L 8.625 1.125  L 6.375 1.125  L 6.375 0.375  C 6.375 0.16789321881344677  6.207106781186553 0  6 0  C 5.792893218813447 0  5.625 0.16789321881344677  5.625 0.375  L 5.625 1.125  L 3.375 1.125  L 3.375 0.375  C 3.375 0.16789321881344677  3.2071067811865532 0  3 0  C 2.7928932188134468 0  2.625 0.16789321881344677  2.625 0.375  L 2.625 1.125  L 1.0012500000000273 1.125  C 0.44827489423187217 1.125  0 1.5732748942318722  0 2.1262500000000273  L 0 10.998749999999973  C 0 11.551725105768128  0.44827489423187217 12  1.0012500000000273 12  L 10.998749999999973 12  C 11.551725105768128 12  12 11.551725105768128  12 10.998749999999973  L 12 2.1262500000000273  C 12 1.5732748942318722  11.551725105768128 1.125  10.998749999999973 1.125  Z M 11.25 2.1262500000000273  L 11.25 10.998749999999973  C 11.25 11.137511543394908  11.137511543395021 11.25  10.998749999999973 11.25  L 1.0012500000000273 11.25  C 0.8624884566049786 11.25  0.75 11.137511543394908  0.75 10.998749999999973  L 0.75 2.1262500000000273  C 0.75 1.9874884566050923  0.8624884566049786 1.875  1.0012500000000273 1.875  L 2.625 1.875  L 2.625 2.625  C 2.625 2.8321067811865532  2.7928932188134468 3  3 3  C 3.2071067811865532 3  3.375 2.8321067811865532  3.375 2.625  L 3.375 1.875  L 5.625 1.875  L 5.625 2.625  C 5.625 2.8321067811865532  5.792893218813447 3  6 3  C 6.207106781186553 3  6.375 2.8321067811865532  6.375 2.625  L 6.375 1.875  L 8.625 1.875  L 8.625 2.625  C 8.625 2.8321067811865532  8.792893218813447 3  9 3  C 9.207106781186553 3  9.375 2.8321067811865532  9.375 2.625  L 9.375 1.875  L 10.998749999999973 1.875  C 11.137511543395021 1.875  11.25 1.9874884566050923  11.25 2.1262500000000273  Z M 2.625 5.625  L 2.625 4.5  L 4.125 4.5  L 4.125 5.625  L 2.625 5.625  Z M 2.625 7.5  L 2.625 6.375  L 4.125 6.375  L 4.125 7.5  L 2.625 7.5  Z M 2.625 9.375  L 2.625 8.25  L 4.125 8.25  L 4.125 9.375  L 2.625 9.375  Z M 5.25 9.375  L 5.25 8.25  L 6.75 8.25  L 6.75 9.375  L 5.25 9.375  Z M 5.25 7.5  L 5.25 6.375  L 6.75 6.375  L 6.75 7.5  L 5.25 7.5  Z M 5.25 5.625  L 5.25 4.5  L 6.75 4.5  L 6.75 5.625  L 5.25 5.625  Z M 7.875 9.375  L 7.875 8.25  L 9.375 8.25  L 9.375 9.375  L 7.875 9.375  Z M 7.875 7.5  L 7.875 6.375  L 9.375 6.375  L 9.375 7.5  L 7.875 7.5  Z M 7.875 5.625  L 7.875 4.5  L 9.375 4.5  L 9.375 5.625  L 7.875 5.625  Z " fill-rule="evenodd" />
    </mask>
  </defs>
  <g transform="matrix(1 0 0 1 -207 -1630 )">
    <path d="M 10.998749999999973 1.125  L 9.375 1.125  L 9.375 0.375  C 9.375 0.16789321881344677  9.207106781186553 0  9 0  C 8.792893218813447 0  8.625 0.16789321881344677  8.625 0.375  L 8.625 1.125  L 6.375 1.125  L 6.375 0.375  C 6.375 0.16789321881344677  6.207106781186553 0  6 0  C 5.792893218813447 0  5.625 0.16789321881344677  5.625 0.375  L 5.625 1.125  L 3.375 1.125  L 3.375 0.375  C 3.375 0.16789321881344677  3.2071067811865532 0  3 0  C 2.7928932188134468 0  2.625 0.16789321881344677  2.625 0.375  L 2.625 1.125  L 1.0012500000000273 1.125  C 0.44827489423187217 1.125  0 1.5732748942318722  0 2.1262500000000273  L 0 10.998749999999973  C 0 11.551725105768128  0.44827489423187217 12  1.0012500000000273 12  L 10.998749999999973 12  C 11.551725105768128 12  12 11.551725105768128  12 10.998749999999973  L 12 2.1262500000000273  C 12 1.5732748942318722  11.551725105768128 1.125  10.998749999999973 1.125  Z M 11.25 2.1262500000000273  L 11.25 10.998749999999973  C 11.25 11.137511543394908  11.137511543395021 11.25  10.998749999999973 11.25  L 1.0012500000000273 11.25  C 0.8624884566049786 11.25  0.75 11.137511543394908  0.75 10.998749999999973  L 0.75 2.1262500000000273  C 0.75 1.9874884566050923  0.8624884566049786 1.875  1.0012500000000273 1.875  L 2.625 1.875  L 2.625 2.625  C 2.625 2.8321067811865532  2.7928932188134468 3  3 3  C 3.2071067811865532 3  3.375 2.8321067811865532  3.375 2.625  L 3.375 1.875  L 5.625 1.875  L 5.625 2.625  C 5.625 2.8321067811865532  5.792893218813447 3  6 3  C 6.207106781186553 3  6.375 2.8321067811865532  6.375 2.625  L 6.375 1.875  L 8.625 1.875  L 8.625 2.625  C 8.625 2.8321067811865532  8.792893218813447 3  9 3  C 9.207106781186553 3  9.375 2.8321067811865532  9.375 2.625  L 9.375 1.875  L 10.998749999999973 1.875  C 11.137511543395021 1.875  11.25 1.9874884566050923  11.25 2.1262500000000273  Z M 2.625 5.625  L 2.625 4.5  L 4.125 4.5  L 4.125 5.625  L 2.625 5.625  Z M 2.625 7.5  L 2.625 6.375  L 4.125 6.375  L 4.125 7.5  L 2.625 7.5  Z M 2.625 9.375  L 2.625 8.25  L 4.125 8.25  L 4.125 9.375  L 2.625 9.375  Z M 5.25 9.375  L 5.25 8.25  L 6.75 8.25  L 6.75 9.375  L 5.25 9.375  Z M 5.25 7.5  L 5.25 6.375  L 6.75 6.375  L 6.75 7.5  L 5.25 7.5  Z M 5.25 5.625  L 5.25 4.5  L 6.75 4.5  L 6.75 5.625  L 5.25 5.625  Z M 7.875 9.375  L 7.875 8.25  L 9.375 8.25  L 9.375 9.375  L 7.875 9.375  Z M 7.875 7.5  L 7.875 6.375  L 9.375 6.375  L 9.375 7.5  L 7.875 7.5  Z M 7.875 5.625  L 7.875 4.5  L 9.375 4.5  L 9.375 5.625  L 7.875 5.625  Z " fill-rule="nonzero" fill="rgba(192, 196, 204, 1)" stroke="none" transform="matrix(1 0 0 1 207 1630 )" class="fill" />
    <path d="M 10.998749999999973 1.125  L 9.375 1.125  L 9.375 0.375  C 9.375 0.16789321881344677  9.207106781186553 0  9 0  C 8.792893218813447 0  8.625 0.16789321881344677  8.625 0.375  L 8.625 1.125  L 6.375 1.125  L 6.375 0.375  C 6.375 0.16789321881344677  6.207106781186553 0  6 0  C 5.792893218813447 0  5.625 0.16789321881344677  5.625 0.375  L 5.625 1.125  L 3.375 1.125  L 3.375 0.375  C 3.375 0.16789321881344677  3.2071067811865532 0  3 0  C 2.7928932188134468 0  2.625 0.16789321881344677  2.625 0.375  L 2.625 1.125  L 1.0012500000000273 1.125  C 0.44827489423187217 1.125  0 1.5732748942318722  0 2.1262500000000273  L 0 10.998749999999973  C 0 11.551725105768128  0.44827489423187217 12  1.0012500000000273 12  L 10.998749999999973 12  C 11.551725105768128 12  12 11.551725105768128  12 10.998749999999973  L 12 2.1262500000000273  C 12 1.5732748942318722  11.551725105768128 1.125  10.998749999999973 1.125  Z " stroke-width="0" stroke-dasharray="0" stroke="rgba(255, 255, 255, 0)" fill="none" transform="matrix(1 0 0 1 207 1630 )" class="stroke" mask="url(#Clip602)" />
    <path d="M 11.25 2.1262500000000273  L 11.25 10.998749999999973  C 11.25 11.137511543394908  11.137511543395021 11.25  10.998749999999973 11.25  L 1.0012500000000273 11.25  C 0.8624884566049786 11.25  0.75 11.137511543394908  0.75 10.998749999999973  L 0.75 2.1262500000000273  C 0.75 1.9874884566050923  0.8624884566049786 1.875  1.0012500000000273 1.875  L 2.625 1.875  L 2.625 2.625  C 2.625 2.8321067811865532  2.7928932188134468 3  3 3  C 3.2071067811865532 3  3.375 2.8321067811865532  3.375 2.625  L 3.375 1.875  L 5.625 1.875  L 5.625 2.625  C 5.625 2.8321067811865532  5.792893218813447 3  6 3  C 6.207106781186553 3  6.375 2.8321067811865532  6.375 2.625  L 6.375 1.875  L 8.625 1.875  L 8.625 2.625  C 8.625 2.8321067811865532  8.792893218813447 3  9 3  C 9.207106781186553 3  9.375 2.8321067811865532  9.375 2.625  L 9.375 1.875  L 10.998749999999973 1.875  C 11.137511543395021 1.875  11.25 1.9874884566050923  11.25 2.1262500000000273  Z " stroke-width="0" stroke-dasharray="0" stroke="rgba(255, 255, 255, 0)" fill="none" transform="matrix(1 0 0 1 207 1630 )" class="stroke" mask="url(#Clip602)" />
    <path d="M 2.625 5.625  L 2.625 4.5  L 4.125 4.5  L 4.125 5.625  L 2.625 5.625  Z " stroke-width="0" stroke-dasharray="0" stroke="rgba(255, 255, 255, 0)" fill="none" transform="matrix(1 0 0 1 207 1630 )" class="stroke" mask="url(#Clip602)" />
    <path d="M 2.625 7.5  L 2.625 6.375  L 4.125 6.375  L 4.125 7.5  L 2.625 7.5  Z " stroke-width="0" stroke-dasharray="0" stroke="rgba(255, 255, 255, 0)" fill="none" transform="matrix(1 0 0 1 207 1630 )" class="stroke" mask="url(#Clip602)" />
    <path d="M 2.625 9.375  L 2.625 8.25  L 4.125 8.25  L 4.125 9.375  L 2.625 9.375  Z " stroke-width="0" stroke-dasharray="0" stroke="rgba(255, 255, 255, 0)" fill="none" transform="matrix(1 0 0 1 207 1630 )" class="stroke" mask="url(#Clip602)" />
    <path d="M 5.25 9.375  L 5.25 8.25  L 6.75 8.25  L 6.75 9.375  L 5.25 9.375  Z " stroke-width="0" stroke-dasharray="0" stroke="rgba(255, 255, 255, 0)" fill="none" transform="matrix(1 0 0 1 207 1630 )" class="stroke" mask="url(#Clip602)" />
    <path d="M 5.25 7.5  L 5.25 6.375  L 6.75 6.375  L 6.75 7.5  L 5.25 7.5  Z " stroke-width="0" stroke-dasharray="0" stroke="rgba(255, 255, 255, 0)" fill="none" transform="matrix(1 0 0 1 207 1630 )" class="stroke" mask="url(#Clip602)" />
    <path d="M 5.25 5.625  L 5.25 4.5  L 6.75 4.5  L 6.75 5.625  L 5.25 5.625  Z " stroke-width="0" stroke-dasharray="0" stroke="rgba(255, 255, 255, 0)" fill="none" transform="matrix(1 0 0 1 207 1630 )" class="stroke" mask="url(#Clip602)" />
    <path d="M 7.875 9.375  L 7.875 8.25  L 9.375 8.25  L 9.375 9.375  L 7.875 9.375  Z " stroke-width="0" stroke-dasharray="0" stroke="rgba(255, 255, 255, 0)" fill="none" transform="matrix(1 0 0 1 207 1630 )" class="stroke" mask="url(#Clip602)" />
    <path d="M 7.875 7.5  L 7.875 6.375  L 9.375 6.375  L 9.375 7.5  L 7.875 7.5  Z " stroke-width="0" stroke-dasharray="0" stroke="rgba(255, 255, 255, 0)" fill="none" transform="matrix(1 0 0 1 207 1630 )" class="stroke" mask="url(#Clip602)" />
    <path d="M 7.875 5.625  L 7.875 4.5  L 9.375 4.5  L 9.375 5.625  L 7.875 5.625  Z " stroke-width="0" stroke-dasharray="0" stroke="rgba(255, 255, 255, 0)" fill="none" transform="matrix(1 0 0 1 207 1630 )" class="stroke" mask="url(#Clip602)" />
  </g>
</svg>