<?xml version="1.0" encoding="utf-8"?>
<svg version="1.1" xmlns:xlink="http://www.w3.org/1999/xlink" width="14px" height="14px" xmlns="http://www.w3.org/2000/svg">
  <g transform="matrix(1 0 0 1 -491 -2365 )">
    <path d="M 498 2366  C 501.36 2366  504 2368.64  504 2372  C 504 2375.36  501.36 2378  498 2378  C 494.64 2378  492 2375.36  492 2372  C 492 2368.64  494.64 2366  498 2366  Z " fill-rule="nonzero" fill="#ffffff" stroke="none" />
    <path d="M 498 2366  C 501.36 2366  504 2368.64  504 2372  C 504 2375.36  501.36 2378  498 2378  C 494.64 2378  492 2375.36  492 2372  C 492 2368.64  494.64 2366  498 2366  Z " stroke-width="2" stroke="#bcbcbc" fill="none" />
  </g>
</svg>