<?xml version="1.0" encoding="utf-8"?>
<svg version="1.1" xmlns:xlink="http://www.w3.org/1999/xlink" width="130px" height="130px" xmlns="http://www.w3.org/2000/svg">
  <g transform="matrix(1 0 0 1 -632 -2776 )">
    <path d="M 633 2780  A 3 3 0 0 1 636 2777 L 758 2777  A 3 3 0 0 1 761 2780 L 761 2902  A 3 3 0 0 1 758 2905 L 636 2905  A 3 3 0 0 1 633 2902 L 633 2780  Z " fill-rule="nonzero" fill="#ffffff" stroke="none" />
    <path d="M 632.5 2780  A 3.5 3.5 0 0 1 636 2776.5 L 758 2776.5  A 3.5 3.5 0 0 1 761.5 2780 L 761.5 2902  A 3.5 3.5 0 0 1 758 2905.5 L 636 2905.5  A 3.5 3.5 0 0 1 632.5 2902 L 632.5 2780  Z " stroke-width="1" stroke-dasharray="3,1" stroke="#40a9ff" fill="none" stroke-dashoffset="0.5" />
  </g>
</svg>