<?xml version="1.0" encoding="utf-8"?>
<svg version="1.1" xmlns:xlink="http://www.w3.org/1999/xlink" width="130px" height="130px" xmlns="http://www.w3.org/2000/svg">
  <defs>
    <pattern id="BGPattern" patternUnits="userSpaceOnUse" alignment="0 0" imageRepeat="None" />
    <mask fill="white" id="Clip98">
      <path d="M 0 126  L 0 4  C 0 1.7599999999999998  1.7599999999999998 0  4 0  L 126 0  C 128.24 0  130 1.7599999999999998  130 4  L 130 126  C 130 128.24  128.24 130  126 130  L 4 130  C 1.7599999999999998 130  0 128.24  0 126  Z " fill-rule="evenodd" />
    </mask>
  </defs>
  <g transform="matrix(1 0 0 1 -632 -2776 )">
    <path d="M 0 126  L 0 4  C 0 1.7599999999999998  1.7599999999999998 0  4 0  L 126 0  C 128.24 0  130 1.7599999999999998  130 4  L 130 126  C 130 128.24  128.24 130  126 130  L 4 130  C 1.7599999999999998 130  0 128.24  0 126  Z " fill-rule="nonzero" fill="rgba(255, 255, 255, 1)" stroke="none" transform="matrix(1 0 0 1 632 2776 )" class="fill" />
    <path d="M 0 126  L 0 4  C 0 1.7599999999999998  1.7599999999999998 0  4 0  L 126 0  C 128.24 0  130 1.7599999999999998  130 4  L 130 126  C 130 128.24  128.24 130  126 130  L 4 130  C 1.7599999999999998 130  0 128.24  0 126  Z " stroke-width="2" stroke-dasharray="3,1" stroke="rgba(0, 0, 0, 0.14901960784313725)" fill="none" transform="matrix(1 0 0 1 632 2776 )" class="stroke" mask="url(#Clip98)" />
  </g>
</svg>