<?xml version="1.0" encoding="utf-8"?>
<svg version="1.1" xmlns:xlink="http://www.w3.org/1999/xlink" width="18px" height="18px" xmlns="http://www.w3.org/2000/svg">
  <g transform="matrix(1 0 0 1 -31 -56 )">
    <path d="M 10.938461538461539 7.5317647058823525  C 10.938461538461539 7.249411764705883  10.71692307692308 6.967058823529413  10.384615384615387 6.967058823529413  L 8.169230769230772 6.967058823529413  L 8.169230769230772 4.708235294117642  C 8.169230769230772 4.369411764705887  7.947692307692307 4.143529411764703  7.615384615384613 4.143529411764703  C 7.283076923076919 4.143529411764703  7.061538461538461 4.369411764705887  7.061538461538461 4.708235294117642  L 7.061538461538461 6.967058823529413  L 4.846153846153847 6.967058823529413  C 4.513846153846153 6.967058823529413  4.292307692307691 7.079999999999998  4.292307692307691 7.362352941176468  C 4.292307692307691 7.701176470588237  4.513846153846153 8.096470588235292  4.846153846153847 8.096470588235292  L 7.061538461538461 8.096470588235292  L 7.061538461538461 10.355294117647063  C 7.061538461538461 10.694117647058818  7.283076923076919 10.920000000000002  7.615384615384613 10.920000000000002  C 7.947692307692307 10.920000000000002  8.169230769230772 10.694117647058818  8.169230769230772 10.355294117647063  L 8.169230769230772 8.096470588235292  L 10.384615384615387 8.096470588235292  C 10.71692307692308 8.096470588235292  10.938461538461539 7.870588235294122  10.938461538461539 7.5317647058823525  Z M 17.75076923076923 17.809411764705885  C 17.916923076923077 17.64  17.916923076923077 17.301176470588246  17.69538461538462 17.07529411764706  L 13.098461538461535 12.501176470588234  C 14.316923076923075 11.145882352941172  15.036923076923081 9.395294117647055  15.036923076923081 7.475294117647053  C 15.036923076923081 3.35294117647058  11.713846153846156 0.021176470588230245  7.560000000000002 0.021176470588230245  C 3.46153846153846 -0.035294117647055145  0.13846153846153797 3.2964705882352945  0.13846153846153797 7.4188235294117675  C 0.13846153846153797 11.54117647058824  3.46153846153846 14.87294117647059  7.615384615384613 14.87294117647059  C 9.387692307692305 14.87294117647059  11.049230769230775 14.251764705882351  12.323076923076925 13.178823529411773  L 16.92 17.809411764705885  C 17.14153846153846 18.035294117647055  17.529230769230765 18.035294117647055  17.75076923076923 17.809411764705885  Z M 13.92923076923077 7.4188235294117675  C 13.92923076923077 10.920000000000002  11.104615384615386 13.799999999999997  7.615384615384613 13.799999999999997  C 4.126153846153848 13.799999999999997  1.3015384615384633 10.976470588235287  1.3015384615384633 7.475294117647053  C 1.3015384615384633 3.9741176470588186  4.126153846153848 1.0941176470588232  7.615384615384613 1.0941176470588232  C 11.104615384615386 1.0941176470588232  13.92923076923077 3.9176470588235333  13.92923076923077 7.4188235294117675  Z " fill-rule="nonzero" fill="#ffffff" stroke="none" transform="matrix(1 0 0 1 31 56 )" />
  </g>
</svg>