<?xml version="1.0" encoding="utf-8"?>
<svg version="1.1" xmlns:xlink="http://www.w3.org/1999/xlink" width="5px" height="30px" xmlns="http://www.w3.org/2000/svg">
  <g transform="matrix(1 0 0 1 -222 -1293 )">
    <path d="M 0.763914893617013 22.336851063829783  L 0.28595744680851 0.8573617021276618  C 0.277787234042556 0.5223829787234067  0.5188085106382943 0.2486808510638312  0.8701276595744645 0.2486808510638312  L 4.240340425531912 0.2486808510638312  C 4.571234042553186 0.2486808510638312  4.832680851063827 0.5019574468085111  4.824510638297873 0.8573617021276618  L 4.342468085106383 22.336851063829783  C 4.3342978723404215 22.671829787234046  4.0483404255319115 22.94553191489362  3.741957446808506 22.94553191489362  L 1.3644255319148897 22.94553191489362  C 1.041702127659569 22.94553191489362  0.7720851063829741 22.69225531914894  0.763914893617013 22.336851063829783  Z M 4.824510638297873 27.480000000000004  C 4.824510638297873 28.738212765957456  3.807319148936166 29.751319148936176  2.5531914893617014 29.751319148936176  C 1.2990638297872366 29.751319148936176  0.28187234042552944 28.73412765957447  0.28187234042552944 27.480000000000004  C 0.28187234042552944 26.22587234042554  1.2990638297872366 25.208680851063832  2.5531914893617014 25.208680851063832  C 3.807319148936166 25.208680851063832  4.824510638297873 26.22587234042554  4.824510638297873 27.480000000000004  Z " fill-rule="nonzero" fill="#323233" stroke="none" transform="matrix(1 0 0 1 222 1293 )" />
  </g>
</svg>