<?xml version="1.0" encoding="utf-8"?>
<svg version="1.1" xmlns:xlink="http://www.w3.org/1999/xlink" width="33px" height="30px" xmlns="http://www.w3.org/2000/svg">
  <g transform="matrix(1 0 0 1 -101 -1349 )">
    <path d="M 4.132153846153841 14.830153846153848  L 13.030615384615388 24.23815384615385  L 16.457076923076926 27.88984615384615  L 28.759846153846155 14.848615384615385  C 31.58076923076922 11.857846153846154  31.514307692307682 7.164923076923074  28.60476923076922 4.259076923076918  C 25.743230769230763 1.3975384615384598  21.105692307692294 1.3975384615384598  18.247846153846154 4.259076923076918  L 16.43861538461539 6.068307692307691  L 14.629384615384609 4.259076923076918  C 11.771538461538455 1.4012307692307644  7.137692307692305 1.4012307692307644  4.279846153846151 4.259076923076918  C 1.3776923076923069 7.1612307692307695  1.311230769230768 11.850461538461538  4.132153846153841 14.830153846153848  Z M 2.8213846153846163 2.808  C 6.484153846153845 -0.8547692307692287  12.417692307692306 -0.8547692307692287  16.07676923076923 2.804307692307688  L 16.43861538461539 3.166153846153847  L 16.800461538461548 2.804307692307688  C 20.463230769230762 -0.8584615384615404  26.396769230769223 -0.8584615384615404  30.059538461538466 2.804307692307688  C 33.751846153846145 6.496615384615382  33.83676923076922 12.456000000000003  30.255230769230764 16.25169230769231  L 17.94876923076923 29.29661538461538  L 17.86015384615385 29.38523076923076  C 17.03307692307692 30.160615384615383  15.737076923076927 30.120000000000008  14.961692307692303 29.292923076923074  L 11.542615384615381 25.648615384615383  L 2.6367692307692323 16.24061538461538  C -0.9484615384615367 12.452307692307691  -0.8672307692307726 6.496615384615382  2.8213846153846163 2.808  Z " fill-rule="nonzero" fill="#323233" stroke="none" transform="matrix(1 0 0 1 101 1349 )" />
  </g>
</svg>