<?xml version="1.0" encoding="utf-8"?>
<svg version="1.1" xmlns:xlink="http://www.w3.org/1999/xlink" width="30px" height="29px" xmlns="http://www.w3.org/2000/svg">
  <g transform="matrix(1 0 0 1 -152 -1350 )">
    <path d="M 22.577379310344824 26.323862068965525  L 21.746482758620687 18.08110344827587  L 27.26482758620689 11.904000000000003  L 19.16772413793103 10.149517241379314  L 15 2.9925517241379325  L 10.828965517241379 10.149517241379314  L 2.731862068965519 11.904000000000003  L 8.250206896551724 18.08110344827587  L 7.415999999999997 26.323862068965525  L 14.996689655172418 22.983724137931034  L 22.577379310344824 26.323862068965525  Z M 23.282482758620688 28.644413793103453  L 15 24.99310344827586  L 6.7142068965517225 28.644413793103453  C 6.250758620689652 28.849655172413804  5.707862068965518 28.637793103448274  5.502620689655174 28.17434482758621  C 5.439724137931037 28.02868965517243  5.413241379310342 27.869793103448274  5.429793103448276 27.710896551724147  L 6.340137931034484 18.703448275862073  L 0.3086896551724152 11.950344827586207  C -0.028965517241381633 11.572965517241379  0.0041379310344851206 10.990344827586206  0.38151724137931353 10.652689655172416  C 0.5006896551724154 10.546758620689658  0.6430344827586225 10.47393103448276  0.7986206896551735 10.440827586206893  L 9.65048275862069 8.524137931034488  L 14.205517241379312 0.7017931034482743  C 14.460413793103442 0.261517241379309  15.023172413793107 0.11586206896551941  15.463448275862063 0.3707586206896565  C 15.602482758620695 0.45020689655172674  15.715034482758627 0.5660689655172391  15.794482758620688 0.7017931034482743  L 20.349517241379303 8.524137931034488  L 29.198068965517237 10.4408275862069  C 29.694620689655167 10.546758620689658  30.00910344827585 11.036689655172417  29.9031724137931 11.533241379310347  C 29.870068965517234 11.688827586206898  29.79724137931035 11.831172413793105  29.691310344827585 11.950344827586214  L 23.656551724137927 18.703448275862073  L 24.56689655172414 27.710896551724147  C 24.616551724137935 28.217379310344825  24.24910344827586 28.66758620689656  23.745931034482766 28.71724137931035  C 23.58703448275861 28.733793103448278  23.428137931034485 28.70731034482759  23.282482758620688 28.644413793103453  Z " fill-rule="nonzero" fill="#323233" stroke="none" transform="matrix(1 0 0 1 152 1350 )" />
  </g>
</svg>