<?xml version="1.0" encoding="utf-8"?>
<svg version="1.1" xmlns:xlink="http://www.w3.org/1999/xlink" width="16px" height="15px" xmlns="http://www.w3.org/2000/svg">
  <defs>
    <pattern id="BGPattern" patternUnits="userSpaceOnUse" alignment="0 0" imageRepeat="None" />
    <mask fill="white" id="Clip102">
      <path d="M 7.9930793650793674 0.04619877049179877  L 7.254920634920637 1.3636475409836066  L 5.368000000000009 4.731516393442632  L 1.5351111111111209 5.456188524590175  L 0.060158730158732965 5.735071721311471  L 1.0785079365079326 6.805112704918031  L 3.7537142857142953 9.616137295081955  L 3.2677460317460287 13.440584016393444  L 3.0808253968253894 14.911598360655717  L 4.462539682539671 14.273760245901656  L 7.993015873015878 12.644016393442627  L 11.523492063492057 14.273760245901656  L 12.905206349206352 14.911598360655717  L 12.718285714285713 13.440584016393444  L 12.23238095238095 9.616168032786902  L 14.90761904761905 6.805112704918031  L 15.925936507936498 5.735102459016389  L 14.451015873015862 5.456219262295065  L 10.61800000000001 4.7315471311475505  L 8.731174603174594 1.3636782786885249  L 7.9930793650793674 0.04619877049179877  Z " fill-rule="evenodd" />
    </mask>
  </defs>
  <g transform="matrix(1 0 0 1 -34 -3053 )">
    <path d="M 7.9930793650793674 0.04619877049179877  L 7.254920634920637 1.3636475409836066  L 5.368000000000009 4.731516393442632  L 1.5351111111111209 5.456188524590175  L 0.060158730158732965 5.735071721311471  L 1.0785079365079326 6.805112704918031  L 3.7537142857142953 9.616137295081955  L 3.2677460317460287 13.440584016393444  L 3.0808253968253894 14.911598360655717  L 4.462539682539671 14.273760245901656  L 7.993015873015878 12.644016393442627  L 11.523492063492057 14.273760245901656  L 12.905206349206352 14.911598360655717  L 12.718285714285713 13.440584016393444  L 12.23238095238095 9.616168032786902  L 14.90761904761905 6.805112704918031  L 15.925936507936498 5.735102459016389  L 14.451015873015862 5.456219262295065  L 10.61800000000001 4.7315471311475505  L 8.731174603174594 1.3636782786885249  L 7.9930793650793674 0.04619877049179877  Z " fill-rule="nonzero" fill="rgba(247, 186, 42, 1)" stroke="none" transform="matrix(1 0 0 1 34 3053 )" class="fill" />
    <path d="M 7.9930793650793674 0.04619877049179877  L 7.254920634920637 1.3636475409836066  L 5.368000000000009 4.731516393442632  L 1.5351111111111209 5.456188524590175  L 0.060158730158732965 5.735071721311471  L 1.0785079365079326 6.805112704918031  L 3.7537142857142953 9.616137295081955  L 3.2677460317460287 13.440584016393444  L 3.0808253968253894 14.911598360655717  L 4.462539682539671 14.273760245901656  L 7.993015873015878 12.644016393442627  L 11.523492063492057 14.273760245901656  L 12.905206349206352 14.911598360655717  L 12.718285714285713 13.440584016393444  L 12.23238095238095 9.616168032786902  L 14.90761904761905 6.805112704918031  L 15.925936507936498 5.735102459016389  L 14.451015873015862 5.456219262295065  L 10.61800000000001 4.7315471311475505  L 8.731174603174594 1.3636782786885249  L 7.9930793650793674 0.04619877049179877  Z " stroke-width="0" stroke-dasharray="0" stroke="rgba(255, 255, 255, 0)" fill="none" transform="matrix(1 0 0 1 34 3053 )" class="stroke" mask="url(#Clip102)" />
  </g>
</svg>