<?xml version="1.0" encoding="utf-8"?>
<svg version="1.1" xmlns:xlink="http://www.w3.org/1999/xlink" width="30px" height="20px" xmlns="http://www.w3.org/2000/svg">
  <g transform="matrix(1 0 0 1 -392 -1351 )">
    <path d="M 27.14896551724138 5.46466025316456  L 6.684413793103445 5.4679007594936735  L 8.068137931034485 17.26982481012658  C 8.12110344827586 17.723495696202534  8.515034482758622 18.06698936708861  8.981793103448275 18  L 25.162758620689658 18  C 25.606344827586213 18.06698936708861  25.990344827586213 17.75590075949367  26.066482758620694 17.32491341772152  L 28.052689655172415 6.524305822784811  C 28.14206896551724 6.034989367088606  27.81103448275863 5.568356455696204  27.311172413793116 5.4776222784810145  C 27.258206896551727 5.4679007594936735  27.20193103448277 5.46466025316456  27.14896551724138 5.46466025316456  Z M 6.330206896551722 2.4477488607594964  C 6.330206896551722 2.45098936708861  6.472551724137929 3.666179240506331  6.472551724137929 4  L 27.14896551724138 4  C 27.314482758620684 3.666179240506331  27.476689655172407 3.6791412658227856  27.638896551724145 3.7083058227848085  C 29.138482758620682 3.9740273417721497  30.13489655172414 5.377166582278484  29.86344827586207 6.845115949367084  L 27.877241379310348 17.64572354430379  C 27.642206896551727 18.93220455696202  26.496827586206905 19.868710886075945  25.162758620689658 19.868710886075945  L 8.978482758620686 19.868710886075945  C 7.574896551724138 19.868710886075945  6.396413793103449 18.838229873417717  6.237517241379308 17.477217215189867  L 4.502896551724135 2.6551412658227846  C 4.449931034482759 2.201470379746837  4.055999999999997 1.857976708860761  3.5892413793103444 1.857976708860761  L 1.0104827586206895 1.857976708860761  C 0.5039999999999978 1.857976708860761  0.09020689655172731 1.456153924050632  0.09020689655172731 0.9571159493670862  C 0.09020689655172731 0.4580779746835475  0.5006896551724154 0.05625518987341849  1.0104827586206895 0.05625518987341849  L 3.5892413793103444 0.05625518987341849  C 4.9928275862069 0.05625518987341849  6.171310344827589 1.0867362025316467  6.330206896551722 2.4477488607594964  Z " fill-rule="nonzero" fill="#323233" stroke="none" transform="matrix(1 0 0 1 392 1351 )" />
  </g>
</svg>