<?xml version="1.0" encoding="utf-8"?>
<svg version="1.1" xmlns:xlink="http://www.w3.org/1999/xlink" width="12px" height="12px" xmlns="http://www.w3.org/2000/svg">
  <g transform="matrix(1 0 0 1 -50 -1463 )">
    <path d="M 56 1465  C 58.24 1465  60 1466.76  60 1469  C 60 1471.24  58.24 1473  56 1473  C 53.76 1473  52 1471.24  52 1469  C 52 1466.76  53.76 1465  56 1465  Z " fill-rule="nonzero" fill="#ffffff" stroke="none" />
    <path d="M 56 1464.5  C 58.52 1464.5  60.5 1466.48  60.5 1469  C 60.5 1471.52  58.52 1473.5  56 1473.5  C 53.48 1473.5  51.5 1471.52  51.5 1469  C 51.5 1466.48  53.48 1464.5  56 1464.5  Z " stroke-width="3" stroke="#409eff" fill="none" />
  </g>
</svg>