<?xml version="1.0" encoding="utf-8"?>
<svg version="1.1" xmlns:xlink="http://www.w3.org/1999/xlink" width="8px" height="5px" xmlns="http://www.w3.org/2000/svg">
  <defs>
    <pattern id="BGPattern" patternUnits="userSpaceOnUse" alignment="0 0" imageRepeat="None" />
    <mask fill="white" id="Clip1268">
      <path d="M 7.783414634146311 0.05717073170725939  L 7.9215609756097365 0.19512195121950526  C 7.997733061138092 0.2713170441924433  7.997733061138092 0.3948292972710874  7.9215609756097365 0.4710243902440254  L 4.127414634146362 4.265365853658494  C 4.090815949825924 4.302005276688959  4.041153024019309 4.322592518325109  3.989365853658569 4.322592518325109  C 3.9375786832977155 4.322592518325109  3.887915757491214 4.302005276688959  3.851317073170776 4.265365853658494  L 0.057170731707287814 0.4710243902440254  C -0.019001353821067823 0.3948292972710874  -0.019001353821067823 0.2713170441924433  0.057170731707287814 0.19512195121950526  L 0.1951219512195621 0.05717073170725939  C 0.2713170441923012 -0.019001353820925715  0.39482929727103055 -0.019001353820925715  0.4710243902438833 0.05717073170725939  L 3.9892682926829366 3.5754146341463695  L 7.507707317073141 0.05717073170725939  C 7.583902410045994 -0.019001353820925715  7.707414663124723 -0.019001353820925715  7.783609756097576 0.05717073170725939  Z " fill-rule="evenodd" />
    </mask>
  </defs>
  <g transform="matrix(1 0 0 1 -211 -1803 )">
    <path d="M 7.783414634146311 0.05717073170725939  L 7.9215609756097365 0.19512195121950526  C 7.997733061138092 0.2713170441924433  7.997733061138092 0.3948292972710874  7.9215609756097365 0.4710243902440254  L 4.127414634146362 4.265365853658494  C 4.090815949825924 4.302005276688959  4.041153024019309 4.322592518325109  3.989365853658569 4.322592518325109  C 3.9375786832977155 4.322592518325109  3.887915757491214 4.302005276688959  3.851317073170776 4.265365853658494  L 0.057170731707287814 0.4710243902440254  C -0.019001353821067823 0.3948292972710874  -0.019001353821067823 0.2713170441924433  0.057170731707287814 0.19512195121950526  L 0.1951219512195621 0.05717073170725939  C 0.2713170441923012 -0.019001353820925715  0.39482929727103055 -0.019001353820925715  0.4710243902438833 0.05717073170725939  L 3.9892682926829366 3.5754146341463695  L 7.507707317073141 0.05717073170725939  C 7.583902410045994 -0.019001353820925715  7.707414663124723 -0.019001353820925715  7.783609756097576 0.05717073170725939  Z " fill-rule="nonzero" fill="rgba(144, 147, 153, 0.6470588235294118)" stroke="none" transform="matrix(1 0 0 1 211 1803 )" class="fill" />
    <path d="M 7.783414634146311 0.05717073170725939  L 7.9215609756097365 0.19512195121950526  C 7.997733061138092 0.2713170441924433  7.997733061138092 0.3948292972710874  7.9215609756097365 0.4710243902440254  L 4.127414634146362 4.265365853658494  C 4.090815949825924 4.302005276688959  4.041153024019309 4.322592518325109  3.989365853658569 4.322592518325109  C 3.9375786832977155 4.322592518325109  3.887915757491214 4.302005276688959  3.851317073170776 4.265365853658494  L 0.057170731707287814 0.4710243902440254  C -0.019001353821067823 0.3948292972710874  -0.019001353821067823 0.2713170441924433  0.057170731707287814 0.19512195121950526  L 0.1951219512195621 0.05717073170725939  C 0.2713170441923012 -0.019001353820925715  0.39482929727103055 -0.019001353820925715  0.4710243902438833 0.05717073170725939  L 3.9892682926829366 3.5754146341463695  L 7.507707317073141 0.05717073170725939  C 7.583902410045994 -0.019001353820925715  7.707414663124723 -0.019001353820925715  7.783609756097576 0.05717073170725939  Z " stroke-width="0" stroke-dasharray="0" stroke="rgba(255, 255, 255, 0)" fill="none" transform="matrix(1 0 0 1 211 1803 )" class="stroke" mask="url(#Clip1268)" />
  </g>
</svg>