<?xml version="1.0" encoding="utf-8"?>
<svg version="1.1" xmlns:xlink="http://www.w3.org/1999/xlink" width="6px" height="6px" xmlns="http://www.w3.org/2000/svg">
  <defs>
    <pattern id="BGPattern" patternUnits="userSpaceOnUse" alignment="0 0" imageRepeat="None" />
    <mask fill="white" id="Clip1781">
      <path d="M 5.87091033673471 5.796962104591842  C 5.962953076530596 5.704919372448984  5.962953076530596 5.555503614795924  5.87091033673471 5.4634687040816345  L 3.3711508086734625 2.963709176020444  L 5.822488637755043 0.5123243571428588  C 5.914977765306105 0.4198195637755191  5.914977765306105 0.2699495816326305  5.822488637755043 0.1774526250000008  C 5.729991673469442 0.08496349744896747  5.580004224489812 0.08496349744896747  5.487616905612242 0.1774526250000008  L 3.0362790765305476 2.628829614795933  L 0.5364882168367444 0.12903092602041966  C 0.4444533137754547 0.0369960229591868  0.29514719387753985 0.0369960229591868  0.20311228316325014 0.12903092602041966  C 0.1109677346938156 0.2210658290816241  0.1109677346938156 0.370473757653059  0.20311228316325014 0.4625164974490019  L 2.702856153061191 2.9622603673469428  L 0.1293794234694019 5.535760591836748  C 0.03693728571425936 5.628257556122435  0.03693728571425936 5.778119701530613  0.1293794234694019 5.870616658163243  C 0.22187638775511687 5.963121451530611  0.3718090178571174 5.963121451530611  0.46430597448983235 5.870616658163243  L 3.037735721938759 3.2971477576530503  L 5.537550068877522 5.796962104591842  C 5.629584971938755 5.888997007653046  5.778765788265275 5.888997007653046  5.87091033673471 5.796962104591842  Z " fill-rule="evenodd" />
    </mask>
  </defs>
  <g transform="matrix(1 0 0 1 -336 -11 )">
    <path d="M 5.87091033673471 5.796962104591842  C 5.962953076530596 5.704919372448984  5.962953076530596 5.555503614795924  5.87091033673471 5.4634687040816345  L 3.3711508086734625 2.963709176020444  L 5.822488637755043 0.5123243571428588  C 5.914977765306105 0.4198195637755191  5.914977765306105 0.2699495816326305  5.822488637755043 0.1774526250000008  C 5.729991673469442 0.08496349744896747  5.580004224489812 0.08496349744896747  5.487616905612242 0.1774526250000008  L 3.0362790765305476 2.628829614795933  L 0.5364882168367444 0.12903092602041966  C 0.4444533137754547 0.0369960229591868  0.29514719387753985 0.0369960229591868  0.20311228316325014 0.12903092602041966  C 0.1109677346938156 0.2210658290816241  0.1109677346938156 0.370473757653059  0.20311228316325014 0.4625164974490019  L 2.702856153061191 2.9622603673469428  L 0.1293794234694019 5.535760591836748  C 0.03693728571425936 5.628257556122435  0.03693728571425936 5.778119701530613  0.1293794234694019 5.870616658163243  C 0.22187638775511687 5.963121451530611  0.3718090178571174 5.963121451530611  0.46430597448983235 5.870616658163243  L 3.037735721938759 3.2971477576530503  L 5.537550068877522 5.796962104591842  C 5.629584971938755 5.888997007653046  5.778765788265275 5.888997007653046  5.87091033673471 5.796962104591842  Z " fill-rule="nonzero" fill="rgba(134, 134, 134, 1)" stroke="none" transform="matrix(1 0 0 1 336 11 )" class="fill" />
    <path d="M 5.87091033673471 5.796962104591842  C 5.962953076530596 5.704919372448984  5.962953076530596 5.555503614795924  5.87091033673471 5.4634687040816345  L 3.3711508086734625 2.963709176020444  L 5.822488637755043 0.5123243571428588  C 5.914977765306105 0.4198195637755191  5.914977765306105 0.2699495816326305  5.822488637755043 0.1774526250000008  C 5.729991673469442 0.08496349744896747  5.580004224489812 0.08496349744896747  5.487616905612242 0.1774526250000008  L 3.0362790765305476 2.628829614795933  L 0.5364882168367444 0.12903092602041966  C 0.4444533137754547 0.0369960229591868  0.29514719387753985 0.0369960229591868  0.20311228316325014 0.12903092602041966  C 0.1109677346938156 0.2210658290816241  0.1109677346938156 0.370473757653059  0.20311228316325014 0.4625164974490019  L 2.702856153061191 2.9622603673469428  L 0.1293794234694019 5.535760591836748  C 0.03693728571425936 5.628257556122435  0.03693728571425936 5.778119701530613  0.1293794234694019 5.870616658163243  C 0.22187638775511687 5.963121451530611  0.3718090178571174 5.963121451530611  0.46430597448983235 5.870616658163243  L 3.037735721938759 3.2971477576530503  L 5.537550068877522 5.796962104591842  C 5.629584971938755 5.888997007653046  5.778765788265275 5.888997007653046  5.87091033673471 5.796962104591842  Z " stroke-width="0" stroke-dasharray="0" stroke="rgba(119, 119, 119, 1)" fill="none" transform="matrix(1 0 0 1 336 11 )" class="stroke" mask="url(#Clip1781)" />
  </g>
</svg>