<?xml version="1.0" encoding="utf-8"?>
<svg version="1.1" xmlns:xlink="http://www.w3.org/1999/xlink" width="90px" height="40px" xmlns="http://www.w3.org/2000/svg">
  <defs>
    <filter x="35px" y="1996px" width="90px" height="40px" filterUnits="userSpaceOnUse" id="filter185">
      <feOffset dx="1" dy="1" in="SourceAlpha" result="shadowOffsetInner" />
      <feGaussianBlur stdDeviation="2.5" in="shadowOffsetInner" result="shadowGaussian" />
      <feComposite in2="shadowGaussian" operator="atop" in="SourceAlpha" result="shadowComposite" />
      <feColorMatrix type="matrix" values="0 0 0 0 0.5254901960784314  0 0 0 0 0.5254901960784314  0 0 0 0 0.5254901960784314  0 0 0 0.34901960784313724 0  " in="shadowComposite" />
    </filter>
    <g id="widget186">
      <path d="M 39 2020.8464392632907  C 39 2020.8464392632907  39 2006  39 2006  C 39 2002.6862915010151  41.68629150101524 2000  45 2000  C 45 2000  113 2000  113 2000  C 116.31370849898477 2000  119 2002.6862915010151  119 2006  C 119 2006  119 2020.8464392632907  119 2020.8464392632907  C 119 2024.1601477622755  116.31370849898477 2026.8464392632907  113 2026.8464392632907  C 113 2026.8464392632907  86.28925364758699 2026.8464392632907  86.28925364758699 2026.8464392632907  C 86.28925364758699 2026.8464392632907  78.75454545454545 2029.940082644628  78.75454545454545 2029.940082644628  C 78.75454545454545 2029.940082644628  71.28925364758699 2026.8464392632907  71.28925364758699 2026.8464392632907  C 71.28925364758699 2026.8464392632907  45 2026.8464392632907  45 2026.8464392632907  C 41.68629150101524 2026.8464392632907  39 2024.1601477622755  39 2020.8464392632907  Z " fill-rule="nonzero" fill="#515151" stroke="none" />
    </g>
  </defs>
  <g transform="matrix(1 0 0 1 -35 -1996 )">
    <use xlink:href="#widget186" filter="url(#filter185)" />
    <use xlink:href="#widget186" />
  </g>
</svg>