<?xml version="1.0" encoding="utf-8"?>
<svg version="1.1" xmlns:xlink="http://www.w3.org/1999/xlink" width="90px" height="40px" xmlns="http://www.w3.org/2000/svg">
  <defs>
    <pattern id="BGPattern" patternUnits="userSpaceOnUse" alignment="0 0" imageRepeat="None" />
    <mask fill="white" id="Clip1772">
      <path d="M 6 26.846439263290698  C 2.6862915010152397 26.846439263290698  0 24.160147762275457  0 20.846439263290698  L 0 6  C 0 2.6862915010152397  2.6862915010152397 0  6 0  L 74 0  C 77.31370849898477 0  80 2.6862915010152397  80 6  L 80 20.846439263290698  C 80 24.160147762275457  77.31370849898477 26.846439263290698  74 26.846439263290698  L 47.28925364758699 26.846439263290698  L 39.75454545454546 29.9400826446281  L 32.28925364758699 26.846439263290698  L 6 26.846439263290698  Z " fill-rule="evenodd" />
    </mask>
  </defs>
  <g transform="matrix(1 0 0 1 -35 -1996 )">
    <path d="M 6 26.846439263290698  C 2.6862915010152397 26.846439263290698  0 24.160147762275457  0 20.846439263290698  L 0 6  C 0 2.6862915010152397  2.6862915010152397 0  6 0  L 74 0  C 77.31370849898477 0  80 2.6862915010152397  80 6  L 80 20.846439263290698  C 80 24.160147762275457  77.31370849898477 26.846439263290698  74 26.846439263290698  L 47.28925364758699 26.846439263290698  L 39.75454545454546 29.9400826446281  L 32.28925364758699 26.846439263290698  L 6 26.846439263290698  Z " fill-rule="nonzero" fill="rgba(81, 81, 81, 1)" stroke="none" transform="matrix(1 0 0 1 39 2000 )" class="fill" />
    <path d="M 6 26.846439263290698  C 2.6862915010152397 26.846439263290698  0 24.160147762275457  0 20.846439263290698  L 0 6  C 0 2.6862915010152397  2.6862915010152397 0  6 0  L 74 0  C 77.31370849898477 0  80 2.6862915010152397  80 6  L 80 20.846439263290698  C 80 24.160147762275457  77.31370849898477 26.846439263290698  74 26.846439263290698  L 47.28925364758699 26.846439263290698  L 39.75454545454546 29.9400826446281  L 32.28925364758699 26.846439263290698  L 6 26.846439263290698  Z " stroke-width="0" stroke-dasharray="0" stroke="rgba(240, 246, 255, 1)" fill="none" transform="matrix(1 0 0 1 39 2000 )" class="stroke" mask="url(#Clip1772)" />
  </g>
  <style>svg { filter: drop-shadow(1px 1px 2.5px rgba(134, 134, 134, 0.34901960784313724)); }</style>
</svg>