<?xml version="1.0" encoding="utf-8"?>
<svg version="1.1" xmlns:xlink="http://www.w3.org/1999/xlink" width="27px" height="20px" xmlns="http://www.w3.org/2000/svg">
  <g transform="matrix(1 0 0 1 -238 -2086 )">
    <path d="M 238 2099.8823529411766  C 238 2099.8823529411766  238 2088  238 2088  C 238 2086.8954305003385  238.89543050033842 2086  240 2086  C 240 2086  263 2086  263 2086  C 264.1045694996616 2086  265 2086.8954305003385  265 2088  C 265 2088  265 2099.8823529411766  265 2099.8823529411766  C 265 2100.986922440838  264.1045694996616 2101.8823529411766  263 2101.8823529411766  C 263 2101.8823529411766  256.22434287834744 2101.8823529411766  256.22434287834744 2101.8823529411766  C 256.22434287834744 2101.8823529411766  251.87326762853078 2105.408163265306  251.87326762853078 2105.408163265306  C 251.87326762853078 2105.408163265306  246.22434287834747 2101.8823529411766  246.22434287834747 2101.8823529411766  C 246.22434287834747 2101.8823529411766  240 2101.8823529411766  240 2101.8823529411766  C 238.89543050033842 2101.8823529411766  238 2100.986922440838  238 2099.8823529411766  Z " fill-rule="nonzero" fill="#495060" stroke="none" />
  </g>
</svg>