<?xml version="1.0" encoding="utf-8"?>
<svg version="1.1" xmlns:xlink="http://www.w3.org/1999/xlink" width="27px" height="20px" xmlns="http://www.w3.org/2000/svg">
  <defs>
    <pattern id="BGPattern" patternUnits="userSpaceOnUse" alignment="0 0" imageRepeat="None" />
    <mask fill="white" id="Clip1775">
      <path d="M 2 15.88235294117647  C 0.8954305003384132 15.88235294117647  0 14.986922440838056  0 13.882352941176471  L 0 2  C 0 0.8954305003384131  0.8954305003384132 0  2 0  L 25 0  C 26.104569499661586 0  27 0.8954305003384131  27 2  L 27 13.882352941176471  C 27 14.986922440838056  26.104569499661586 15.88235294117647  25 15.88235294117647  L 18.22434287834746 15.88235294117647  L 13.87326762853078 19.40816326530612  L 8.22434287834746 15.88235294117647  L 2 15.88235294117647  Z " fill-rule="evenodd" />
    </mask>
  </defs>
  <g transform="matrix(1 0 0 1 -238 -2086 )">
    <path d="M 2 15.88235294117647  C 0.8954305003384132 15.88235294117647  0 14.986922440838056  0 13.882352941176471  L 0 2  C 0 0.8954305003384131  0.8954305003384132 0  2 0  L 25 0  C 26.104569499661586 0  27 0.8954305003384131  27 2  L 27 13.882352941176471  C 27 14.986922440838056  26.104569499661586 15.88235294117647  25 15.88235294117647  L 18.22434287834746 15.88235294117647  L 13.87326762853078 19.40816326530612  L 8.22434287834746 15.88235294117647  L 2 15.88235294117647  Z " fill-rule="nonzero" fill="rgba(73, 80, 96, 1)" stroke="none" transform="matrix(1 0 0 1 238 2086 )" class="fill" />
    <path d="M 2 15.88235294117647  C 0.8954305003384132 15.88235294117647  0 14.986922440838056  0 13.882352941176471  L 0 2  C 0 0.8954305003384131  0.8954305003384132 0  2 0  L 25 0  C 26.104569499661586 0  27 0.8954305003384131  27 2  L 27 13.882352941176471  C 27 14.986922440838056  26.104569499661586 15.88235294117647  25 15.88235294117647  L 18.22434287834746 15.88235294117647  L 13.87326762853078 19.40816326530612  L 8.22434287834746 15.88235294117647  L 2 15.88235294117647  Z " stroke-width="0" stroke-dasharray="0" stroke="rgba(240, 246, 255, 1)" fill="none" transform="matrix(1 0 0 1 238 2086 )" class="stroke" mask="url(#Clip1775)" />
  </g>
</svg>