<?xml version="1.0" encoding="utf-8"?>
<svg version="1.1" xmlns:xlink="http://www.w3.org/1999/xlink" width="33px" height="20px" xmlns="http://www.w3.org/2000/svg">
  <g transform="matrix(1 0 0 1 -235 -2276 )">
    <path d="M 235 2289.8823529411766  C 235 2289.8823529411766  235 2278  235 2278  C 235 2276.8954305003385  235.89543050033842 2276  237 2276  C 237 2276  266 2276  266 2276  C 267.1045694996616 2276  268 2276.8954305003385  268 2278  C 268 2278  268 2289.8823529411766  268 2289.8823529411766  C 268 2290.986922440838  267.1045694996616 2291.8823529411766  266 2291.8823529411766  C 266 2291.8823529411766  256.16308574020246 2291.8823529411766  256.16308574020246 2291.8823529411766  C 256.16308574020246 2291.8823529411766  251.9562159904265 2295.408163265306  251.9562159904265 2295.408163265306  C 251.9562159904265 2295.408163265306  246.16308574020246 2291.8823529411766  246.16308574020246 2291.8823529411766  C 246.16308574020246 2291.8823529411766  237 2291.8823529411766  237 2291.8823529411766  C 235.89543050033842 2291.8823529411766  235 2290.986922440838  235 2289.8823529411766  Z " fill-rule="nonzero" fill="#495060" stroke="none" />
  </g>
</svg>