<?xml version="1.0" encoding="utf-8"?>
<svg version="1.1" xmlns:xlink="http://www.w3.org/1999/xlink" width="33px" height="20px" xmlns="http://www.w3.org/2000/svg">
  <defs>
    <pattern id="BGPattern" patternUnits="userSpaceOnUse" alignment="0 0" imageRepeat="None" />
    <mask fill="white" id="Clip1776">
      <path d="M 2 15.88235294117647  C 0.8954305003384131 15.88235294117647  0 14.986922440838056  0 13.882352941176471  L 0 2  C 0 0.8954305003384131  0.8954305003384131 0  2 0  L 31 0  C 32.10456949966159 0  33 0.8954305003384131  33 2  L 33 13.882352941176471  C 33 14.986922440838056  32.10456949966159 15.88235294117647  31 15.88235294117647  L 21.16308574020245 15.88235294117647  L 16.95621599042651 19.40816326530612  L 11.163085740202451 15.88235294117647  L 2 15.88235294117647  Z " fill-rule="evenodd" />
    </mask>
  </defs>
  <g transform="matrix(1 0 0 1 -235 -2276 )">
    <path d="M 2 15.88235294117647  C 0.8954305003384131 15.88235294117647  0 14.986922440838056  0 13.882352941176471  L 0 2  C 0 0.8954305003384131  0.8954305003384131 0  2 0  L 31 0  C 32.10456949966159 0  33 0.8954305003384131  33 2  L 33 13.882352941176471  C 33 14.986922440838056  32.10456949966159 15.88235294117647  31 15.88235294117647  L 21.16308574020245 15.88235294117647  L 16.95621599042651 19.40816326530612  L 11.163085740202451 15.88235294117647  L 2 15.88235294117647  Z " fill-rule="nonzero" fill="rgba(73, 80, 96, 1)" stroke="none" transform="matrix(1 0 0 1 235 2276 )" class="fill" />
    <path d="M 2 15.88235294117647  C 0.8954305003384131 15.88235294117647  0 14.986922440838056  0 13.882352941176471  L 0 2  C 0 0.8954305003384131  0.8954305003384131 0  2 0  L 31 0  C 32.10456949966159 0  33 0.8954305003384131  33 2  L 33 13.882352941176471  C 33 14.986922440838056  32.10456949966159 15.88235294117647  31 15.88235294117647  L 21.16308574020245 15.88235294117647  L 16.95621599042651 19.40816326530612  L 11.163085740202451 15.88235294117647  L 2 15.88235294117647  Z " stroke-width="0" stroke-dasharray="0" stroke="rgba(240, 246, 255, 1)" fill="none" transform="matrix(1 0 0 1 235 2276 )" class="stroke" mask="url(#Clip1776)" />
  </g>
</svg>