<svg t="1641654821168" class="icon" viewBox="0 0 1024 1024" version="1.1" xmlns="http://www.w3.org/2000/svg" p-id="4605" width="48" height="48"><path d="M591.422439 697.818537m-214.290732 0a214.290732 214.290732 0 1 0 428.581464 0 214.290732 214.290732 0 1 0-428.581464 0Z" fill="#d81e06" p-id="4606"></path><path d="M380.037869 221.783415c43.539481 0 67.516066 23.237307 68.583025 61.819629l0.037963 2.716347v96.096156c9.976258-1.906139 21.251247-2.983087 33.82197-2.983087 28.544125 0 47.258849 12.795504 57.724629 34.985835 10.648601-3.185889 23.004535-4.457647 36.960905-3.132941 32.837932 3.116956 50.354825 20.913577 56.792539 52.352874 47.93319-1.955091 71.377296 27.949705 74.840913 82.516418l1.128897 18.461971c2.254798 38.703204 2.875192 63.711781 2.875192 110.902696 0 63.65184-15.08327 120.324496-40.237705 169.270697-8.836371 17.19321-18.325104 32.218537-27.856796 45.009046-5.830306 7.82336-10.478767 13.259052-13.341971 16.237143-6.305842 6.557596-16.76263 6.78937-23.355192 0.516496-6.180964-5.880258-6.771387-15.388972-1.625413-21.958556l3.763325-4.267833c2.391664-2.797268 5.08903-6.166978 8.01817-10.09614 8.481717-11.381885 17.004394-24.878704 24.980605-40.398548 22.879657-44.518525 36.617241-96.136117 36.617241-154.312305l-0.079922-25.573026c-0.267739-37.188683-1.263766-60.842583-3.858232-101.720664l-0.424586-5.543586c-2.997073-33.052722-13.272039-46.794302-38.526376-46.2848l0.000999 0.237768v94.470743c0 9.100113-7.378794 16.476909-16.480906 16.47691-8.566634 0-15.606759-6.534619-16.405978-14.890459l-0.074927-1.586451V496.635005c0-37.138732-7.610568-50.43175-29.864835-52.543688-10.000234-0.949073-18.298131-0.031969-25.029557 2.091957 0.94208 6.934228 1.456578 14.319017 1.56647 22.106412l0.022978 3.209865v87.337709c0 9.075138-7.342829 16.431953-16.399985 16.431954-8.524675 0-15.529834-6.516636-16.324058-14.849499l-0.075926-1.582455V471.499551c0-40.277666-10.613635-59.203184-35.330498-59.203184-13.356956 0-24.611965 1.422611-33.82197 3.761327v132.205892c0 9.071141-7.387785 16.425959-16.501885 16.425959-8.577623 0-15.62674-6.513639-16.426958-14.843504l-0.074927-1.582455-0.000999-136.902306a16.43495 16.43495 0 0 1 0-12.839461V286.319391c0-22.174345-9.406814-31.685058-35.616219-31.685057-25.36423 0-34.992827 8.906302-35.588246 29.578115l-0.02997 2.106942v388.068028c0 9.071141-7.387785 16.425959-16.501885 16.425959-8.577623 0-15.62674-6.513639-16.425959-14.843505l-0.075926-1.582454 0.000999-148.098373c-6.077065-0.726291-14.536804-1.3307-21.11538-1.330701-16.777616 0-29.26542 13.458857-32.897873 40.290654l-0.88014 7.161007-0.379629 3.318759a755.11758 755.11758 0 0 0-2.049999 21.213284 871.426997 871.426997 0 0 0-2.883184 57.684667c-0.929093 57.048289 6.98318 83.530427 33.437346 121.810045 3.500581 5.065054 7.522654 10.378864 12.028254 15.907465 8.844363 10.855399 19.403052 22.366158 31.305428 34.286517 13.666654 13.684636 28.35431 27.175461 43.044964 39.859076l5.986154 5.120999a765.554388 765.554388 0 0 0 8.20299 6.858302l5.263859 4.28082c7.109058 5.647485 8.303891 16.000375 2.667395 23.123418-5.634498 7.124043-15.967407 8.321873-23.077463 2.674388l-5.720414-4.650458a842.988769 842.988769 0 0 1-14.767578-12.467825c-15.265093-13.177132-30.532183-27.202435-44.825226-41.515457-12.634661-12.652644-23.922638-24.958626-33.531254-36.75111-5.029089-6.171973-9.570654-12.171114-13.58873-17.985436-30.388324-43.973058-40.317627-77.203606-39.276644-141.088219a904.184008 904.184008 0 0 1 2.993077-59.878525l0.836184-9.445776c0.284722-3.022049 0.57344-5.915223 0.865155-8.671531l1.382649-11.88839c4.698412-43.695329 29.89081-72.166525 65.864679-72.166525 6.561592 0 14.20313 0.42958 21.11538 1.141885V286.319391c0-40.205737 24.068496-64.535977 68.620987-64.535976z" fill="#d81e06" p-id="4607"></path><path d="M655.36 119.882927c57.657694 0 104.398049 46.740355 104.398049 104.398049S713.017694 328.679024 655.36 328.679024 550.961951 281.938669 550.961951 224.280976 597.702306 119.882927 655.36 119.882927z m0 34.148652c-39.250669 0-71.068597 31.452285-71.068597 70.249397 0 38.797112 31.818927 70.249397 71.068597 70.249397 39.250669 0 71.068597-31.452285 71.068597-70.249397 0-38.797112-31.818927-70.249397-71.068597-70.249397zM375.633171 113.88878c75.313452 0 136.366829 61.463977 136.366829 137.283934 0 9.149065-7.367805 16.565822-16.45593 16.565823-9.088125 0-16.454931-7.416757-16.45493-16.565823 0-57.521826-46.318767-104.15129-103.455969-104.15129-57.137202 0-103.455969 46.629463-103.455969 104.15129 0 9.149065-7.366806 16.565822-16.454931 16.565823-9.088125 0-16.45593-7.416757-16.45593-16.565823C239.266341 175.352757 300.319719 113.88878 375.633171 113.88878z m281.621978 56.944391c8.515684 0 15.512851 6.404745 16.307075 14.595746l0.074927 1.554482-0.00999 21.477026 21.796714 0.002997c8.514685 0 15.511852 6.405744 16.306076 14.595747l0.074927 1.555481c0 8.394802-6.496656 15.294064-14.803543 16.0763l-1.578459 0.073928h-38.167727c-8.514685 0-15.511852-6.404745-16.306076-14.595746l-0.074927-1.554482v-37.631251c0-8.91929 7.333838-16.150228 16.381003-16.150228z" fill="#d81e06" p-id="4608"></path></svg>