<svg t="1641655207175" class="icon" viewBox="0 0 1024 1024" version="1.1" xmlns="http://www.w3.org/2000/svg" p-id="1598" width="48" height="48"><path d="M677.056 612.896a127.68 127.68 0 0 0-68.032-19.648c-32.736 0-65.44 12.48-90.4 37.44L496 653.344v-304.48c0-35.2-28.8-64-64-64s-64 28.8-64 64v140.8a63.36 63.36 0 0 0-49.216-23.68 63.36 63.36 0 0 0-37.088 12.064l-137.824 79.776A63.728 63.728 0 0 0 112 612.96v105.248c0 114.432 92.736 207.168 207.168 207.168 55.424 0 105.632-21.888 142.784-57.344l0.032 0.288 219.2-219.232c10.912-10.848 8.256-28.96-4.128-36.192zM439.872 844.864a174.304 174.304 0 0 1-120.704 48.48C222.56 893.344 144 814.784 144 718.176v-105.248c0-11.264 5.984-21.472 16.032-27.328l140.288-81.568a31.68 31.68 0 0 1 18.432-6.08c12.8 0 20.8 7.456 24.448 11.904l28.416 34.816A16 16 0 0 0 400 534.56V348.864c0-17.632 14.368-32 32-32s32 14.368 32 32v319.904c0 12.704 7.488 23.52 18.24 28.608a15.968 15.968 0 0 0 18.144-3.168l40.864-40.864a95.2 95.2 0 0 1 67.776-28.064c14.432 0 28.544 3.2 41.408 9.344l-210.56 210.24zM838.624 406.624h73.408L912 374.656h-128l0.032 128H816V429.28l96 96 22.656-22.624zM656.032 150.656v73.376L560 128l-22.624 22.656 96 96H560v32h128v-128z" p-id="1599" fill="#d81e06"></path></svg>