<svg t="1641655475451" class="icon" viewBox="0 0 1238 1024" version="1.1" xmlns="http://www.w3.org/2000/svg" p-id="1137" width="48" height="48"><path d="M655.12186 243.926326v47.627907H119.069767v-47.627907zM106.877023 356.566326L23.075721 272.788837a7.144186 7.144186 0 0 1 0-10.097116l83.801302-83.801302A7.144186 7.144186 0 0 1 119.069767 183.938977v167.57879a7.144186 7.144186 0 0 1-12.192744 5.048559z" fill="#d81e06" p-id="1138"></path><path d="M95.255814 119.069767V71.44186h500.093023v47.627907z" fill="#d81e06" p-id="1139"></path><path d="M607.541581 6.429767l83.801303 83.777489a7.144186 7.144186 0 0 1 0 10.097116l-83.801303 83.801302A7.144186 7.144186 0 0 1 595.348837 179.033302V11.478326a7.144186 7.144186 0 0 1 12.192744-5.072373z" fill="#d81e06" p-id="1140"></path><path d="M879.758884 214.087442V129.92893a71.44186 71.44186 0 0 1 71.44186-71.44186h9.216a71.44186 71.44186 0 0 1 71.441861 71.44186v296.197954c18.67014-7.072744 54.676837-40.531349 98.542139 33.815814 7.334698-2.333767 14.955163-3.595907 22.575628-3.595907 46.341953 0 83.991814 43.817674 83.991814 97.637209V813.722791c0 57.46307-25.433302 120.998698-64.726326 161.887256-21.908837 22.789953-45.508465 35.411349-66.631441 35.411348H848.991256c-48.104186 0-69.703442-35.673302-87.15907-64.345302l-0.476279-0.809674c-0.642977-1.119256-1.762233-2.524279-2.762419-3.810233l-0.333395-0.547721c-0.476279-0.714419-1.071628-1.476465-1.452651-2.16707l-2.452837-3.572093-0.285768-0.333395-120.165209-184.939163a99.399442 99.399442 0 0 1-14.288372-73.370791 97.018047 97.018047 0 0 1 39.959814-62.321116 92.207628 92.207628 0 0 1 93.350697-6.786977V298.936558c-0.190512-53.748093 40.340837-97.589581 90.088186-97.589581 16.193488 0 28.076651 4.643721 36.744931 12.764279z m277.242046 707.131535c20.337116-31.077209 32.005953-68.274605 32.005954-101.923721v-267.192558c0-21.861209-13.478698-40.817116-28.814884-40.817117a20.48 20.48 0 0 0-9.716093 2.500466V607.255814c-1.190698 15.669581-13.764465 27.814698-28.933954 27.909953-15.217116 0-27.88614-12.383256-28.910139-27.909953l-0.047628-81.062698-1.714605-22.766139c-1.524093-20.265674-14.502698-36.840186-29.005395-36.840186-6.405953 0-13.026233 3.572093-18.217674 9.525581v101.066419c-0.071442 16.526884-13.026233 29.910326-29.005396 29.934139-15.955349-0.071442-23.266233-13.43107-23.337674-29.934139V122.284651c-5.048558-17.28893-24.552186-24.147349-36.792558-24.147349-8.334884 0-27.457488 10.716279-27.457489 24.147349V601.016558c0 14.645581-6.167814 26.647814-20.313302 26.647814h-6.26307c-14.193116 0-25.766698-12.002233-25.766697-26.647814V300.103442l-0.142884-10.597209c0-22.528-15.812465-40.745674-35.363721-40.745675-19.527442 0-35.363721 18.265302-35.363721 40.721861l1.26214 292.435348c0.095256 0.881116 0.11907 1.80986 0.095255 2.714791v115.997768c-0.214326 14.931349-11.002047 27.433674-25.338046 29.33879a29.053023 29.053023 0 0 1-31.672558-21.765953l-10.859163-32.791814a39.364465 39.364465 0 0 0-25.123721-17.384186 38.340465 38.340465 0 0 0-29.648372 6.144c-18.074791 12.573767-22.861395 37.911814-10.763907 56.629581l123.880186 190.34493 0.404837 0.523907 1.500279 2.357582 1.905117 2.905302c1.190698 1.905116 2.452837 3.714977 3.572093 5.12l0.78586 1.047814 0.619163 1.309768c19.289302 31.86307 26.719256 38.769116 41.364837 38.769116h265.049302c7.787163-0.166698 27.124093-13.169116 46.127628-41.960186z" fill="#d81e06" p-id="1141"></path></svg>