<svg t="1641655515013" class="icon" viewBox="0 0 1024 1024" version="1.1" xmlns="http://www.w3.org/2000/svg" p-id="1399" width="48" height="48"><path d="M316.094745 49.995294h40.156863V501.960784h-40.156863zM411.065725 512.240941l-70.635921 70.656a6.023529 6.023529 0 0 1-8.513255 0l-70.656-70.656A6.023529 6.023529 0 0 1 265.517176 501.960784h141.291922a6.023529 6.023529 0 0 1 4.256627 10.280157z" fill="#d81e06" p-id="1400"></path><path d="M210.823529 522.039216H170.666667V100.392157h40.156862z" fill="#d81e06" p-id="1401"></path><path d="M115.852549 90.112L186.468392 19.456a6.023529 6.023529 0 0 1 8.513255 0l70.656 70.656A6.023529 6.023529 0 0 1 261.38102 100.392157H120.109176a6.023529 6.023529 0 0 1-4.276705-10.280157z" fill="#d81e06" p-id="1402"></path><path d="M611.247686 341.132549v-70.977255a60.235294 60.235294 0 0 1 60.235294-60.235294h7.770353a60.235294 60.235294 0 0 1 60.235294 60.235294v249.73553c15.74149-5.963294 46.100078-34.17349 83.084549 28.511372 6.184157-1.967686 12.609255-3.031843 19.034353-3.031843 39.072627 0 70.816627 36.944314 70.816628 82.321569V846.707451c0 48.449255-21.443765 102.01851-54.573177 136.493176-18.472157 19.215059-38.369882 29.856627-56.179451 29.856628H585.306353c-40.558431 0-58.769569-30.07749-73.487059-54.251922l-0.401569-0.682666c-0.542118-0.943686-1.485804-2.128314-2.329098-3.212549l-0.281098-0.461804c-0.401569-0.602353-0.903529-1.244863-1.224784-1.827138l-2.068078-3.011764-0.240942-0.281098-101.315764-155.929098a83.807373 83.807373 0 0 1-12.047059-61.861647 81.799529 81.799529 0 0 1 33.691608-52.545255 77.743686 77.743686 0 0 1 78.707451-5.722353V412.672c-0.160627-45.31702 34.012863-82.281412 75.956706-82.281412 13.653333 0 23.672471 3.915294 30.981019 10.762039z m233.753098 596.208941c17.14698-26.202353 26.985412-57.564863 26.985412-85.935686v-225.28c0-18.432-11.364392-34.414431-24.294902-34.414431a17.267451 17.267451 0 0 0-8.192 2.108235V672.627451c-1.003922 13.211608-11.605333 23.451608-24.395294 23.531922-12.830118 0-23.511843-10.440784-24.375216-23.531922l-0.040157-68.34698-1.445647-19.194981c-1.28502-17.086745-12.227765-31.061333-24.455529-31.061333-5.401098 0-10.982902 3.011765-15.36 8.031372v85.212863c-0.060235 13.934431-10.982902 25.21851-24.455529 25.238588-13.452549-0.060235-19.616627-11.324235-19.676863-25.238588V263.730196c-4.256627-14.576941-20.700863-20.359529-31.021177-20.359529-7.027451 0-23.150431 9.035294-23.150431 20.359529V667.366902c0 12.348235-5.200314 22.467765-17.126902 22.467765h-5.280627c-11.966745 0-21.724863-10.119529-21.724863-22.467765V413.655843l-0.120471-8.934902c0-18.994196-13.332078-34.354196-29.81647-34.354196-16.464314 0-29.816471 15.400157-29.816471 34.334118l1.064157 246.563137c0.080314 0.742902 0.100392 1.525961 0.080314 2.288941v97.802039c-0.180706 12.589176-9.276235 23.130353-21.363451 24.736628a24.495686 24.495686 0 0 1-26.704314-18.351686l-9.155765-27.648a33.189647 33.189647 0 0 0-21.182745-14.657255 32.326275 32.326275 0 0 0-24.997647 5.180235c-15.239529 10.601412-19.275294 31.964863-9.075451 47.74651l104.448 160.486902 0.341333 0.441725 1.264942 1.987765 1.606274 2.449569c1.003922 1.606275 2.068078 3.132235 3.011765 4.316862l0.662588 0.883451 0.522039 1.104314c16.263529 26.864941 22.528 32.687686 34.876236 32.687686h223.472941c6.565647-0.140549 22.869333-11.103373 38.891921-35.378196z" fill="#d81e06" p-id="1403"></path></svg>