<svg t="1641655692458" class="icon" viewBox="0 0 1024 1024" version="1.1" xmlns="http://www.w3.org/2000/svg" p-id="1661" width="48" height="48"><path d="M474.902674 412.086857V347.428571a54.857143 54.857143 0 0 1 54.857143-54.857142h7.076572a54.857143 54.857143 0 0 1 54.857142 54.857142v65.828572c13.129143-10.788571 52.516571-27.209143 76.105143 28.544 5.632-1.792 2.432 164.297143 8.301715 164.297143 35.565714 0 73.088 25.6 73.088 66.925714v199.478857c0 44.123429-19.529143 92.891429-49.700572 124.306286-16.822857 17.499429-34.944 27.190857-51.163428 27.190857H451.277531c-36.937143 0-53.522286-27.392-66.925714-49.408l-0.365714-0.621714c-0.493714-0.859429-1.353143-1.956571-2.121143-2.925715l-0.256-0.420571c-0.365714-0.548571-0.822857-1.133714-1.115429-1.682286l-1.883428-2.724571-0.219429-0.256L286.12096 823.954286a76.324571 76.324571 0 0 1-10.971429-56.338286 74.496 74.496 0 0 1 30.683429-47.853714 70.802286 70.802286 0 0 1 71.68-5.211429v-237.348571C377.38496 435.931429 408.48896 402.285714 446.687817 402.285714c12.434286 0 21.558857 3.565714 28.214857 9.801143z m212.882286 542.957714c15.616-23.862857 24.576-52.425143 24.576-78.262857V671.616c0-16.768-10.349714-31.323429-22.125714-31.323429-2.541714 0-10.971429 0.64-13.385143 1.92v71.753143c-0.914286 12.032-4.644571 21.357714-16.292572 21.412572-11.684571 0-21.412571-9.508571-22.198857-21.394286l-0.036571-229.814857-1.316572-17.499429c-1.170286-15.542857-11.136-28.269714-22.272-28.269714-4.918857 0-10.002286 2.724571-13.988571 7.296v245.174857c-0.054857 12.690286-10.002286 22.948571-22.272 22.985143-12.251429-0.054857-17.865143-10.313143-17.92-22.985143V341.558857c-3.876571-13.275429-18.852571-18.523429-28.251429-18.523428-6.4 0-21.083429 8.210286-21.083428 18.523428v367.616c0 11.227429-4.736 20.461714-15.597714 20.461714h-4.809143c-10.898286 0-19.785143-9.234286-19.785143-20.461714V478.116571l-0.109714-8.155428c0-17.28-12.141714-31.268571-27.154286-31.268572-14.994286 0-27.154286 14.025143-27.154286 31.268572l0.969143 224.548571c0.073143 0.676571 0.091429 1.371429 0.073143 2.066286v89.088c-0.164571 11.465143-8.448 21.065143-19.456 22.528a22.308571 22.308571 0 0 1-24.32-16.713143l-8.338286-25.179428a30.226286 30.226286 0 0 0-19.291428-13.348572 29.44 29.44 0 0 0-22.765715 4.717714c-13.878857 9.654857-17.554286 29.110857-8.265143 43.483429l95.122286 146.157714 0.310857 0.402286 1.152 1.792 1.462857 2.249143c0.914286 1.462857 1.883429 2.852571 2.742858 3.931428l0.603428 0.804572 0.475429 1.005714c14.811429 24.466286 20.516571 29.750857 31.762285 29.750857h203.52c5.979429-0.109714 20.827429-10.093714 35.419429-32.182857z" fill="#d81e06" p-id="1662"></path><path d="M402.802103 97.536H366.230674V201.142857h36.571429z" fill="#d81e06" p-id="1663"></path><path d="M316.310674 210.505143l64.329143 64.347428a5.485714 5.485714 0 0 0 7.753143 0l64.347429-64.347428A5.485714 5.485714 0 0 0 448.845531 201.142857H320.187246a5.485714 5.485714 0 0 0-3.894857 9.362286zM658.802103 97.536h-36.571429V201.142857h36.571429z" fill="#d81e06" p-id="1664"></path><path d="M572.310674 210.505143l64.329143 64.347428a5.485714 5.485714 0 0 0 7.753143 0l64.347429-64.347428a5.485714 5.485714 0 0 0-3.894858-9.362286h-128.658285a5.485714 5.485714 0 0 0-3.894857 9.362286z" fill="#d81e06" p-id="1665"></path><path d="M530.802103 6.107429h-36.571429V109.714286h36.571429z" fill="#d81e06" p-id="1666"></path><path d="M444.310674 119.076571l64.329143 64.347429a5.485714 5.485714 0 0 0 7.753143 0l64.347429-64.347429A5.485714 5.485714 0 0 0 576.845531 109.714286H448.187246a5.485714 5.485714 0 0 0-3.894857 9.362285z" fill="#d81e06" p-id="1667"></path></svg>