<svg t="1641656306483" class="icon" viewBox="0 0 1024 1024" version="1.1" xmlns="http://www.w3.org/2000/svg" p-id="2145" width="48" height="48"><path d="M213.192348 835.82887l-0.155826-0.890435c-0.222609-1.179826-0.734609-2.782609-1.202087-4.207305l-0.111305-0.601043c-0.222609-0.77913-0.467478-1.625043-0.601043-2.381913l-1.001739-3.895652-0.155826-0.400696-46.413913-200.859826a92.91687 92.91687 0 0 1 10.907826-69.008696 90.690783 90.690783 0 0 1 55.028869-41.984 86.194087 86.194087 0 0 1 84.168348 23.885913l98.838261-271.493565c17.007304-47.282087 66.604522-72.815304 110.32487-56.921043 43.653565 15.894261 65.29113 67.361391 48.083478 114.643478L539.158261 408.932174c7.212522 0.222609 14.336 1.558261 21.103304 4.006956 20.658087 7.524174 36.552348 24.598261 44.076522 46.792348a71.346087 71.346087 0 0 1 40.247652 1.958957 70.121739 70.121739 0 0 1 35.550609 29.250782c6.500174 10.440348 10.796522 22.438957 12.443826 35.127653 7.190261 0.311652 14.291478 1.625043 20.992 4.073739 40.69287 14.803478 59.748174 65.335652 42.540522 112.595478l-83.033044 228.196174c-18.387478 50.465391-61.017043 98.170435-108.633043 121.499826-26.512696 13.04487-51.289043 16.562087-69.832348 9.817043L269.178435 920.197565c-42.25113-15.36-49.819826-53.604174-55.986087-84.368695z m301.389913 125.929739c6.834087 2.493217 27.981913-2.760348 53.871304-21.949218 27.826087-20.791652 49.953391-49.730783 60.705392-79.293217l85.437217-234.74087c6.989913-19.166609 1.202087-40.136348-12.288-45.056a19.144348 19.144348 0 0 0-9.327304-0.890434l-29.874087 82.075826-0.089044-0.022261c-5.965913 13.401043-20.880696 20.034783-34.237217 15.270956-13.356522-4.85287-20.546783-19.789913-16.473044-33.747478h-0.044521l25.911652-71.234783 5.787826-20.546782c5.12-18.276174-0.979478-36.953043-13.712696-41.627826-5.632-2.025739-12.577391-1.024-19.055304 2.537739l-32.300522 88.798609c-5.342609 14.469565-20.992 22.105043-35.038609 17.007304-14.024348-5.142261-21.103304-21.014261-15.872-35.550609l28.427131-78.09113 1.424695-9.817044c2.381913-16.339478-3.984696-31.610435-14.714434-35.506087-7.346087-2.671304-16.539826-0.133565-24.576 6.500174l-32.857044 87.752348-12.04313 33.124174c-4.674783 12.866783-18.743652 19.70087-31.165218 15.181913l-5.498434-2.003478c-12.466087-4.541217-18.788174-18.788174-14.113392-31.654957l96.211479-264.325565 3.272347-9.349565c7.190261-19.789913-0.890435-40.848696-18.031304-47.104-17.185391-6.255304-36.930783 4.741565-44.098783 24.486956l-92.382608 257.246609a25.377391 25.377391 0 0 1-0.779131 2.426435L329.97287 633.544348c-4.964174 13.04487-18.454261 20.569043-31.632696 17.652869a27.158261 27.158261 0 0 1-20.880696-29.228521l0.934957-32.278261c-2.226087-9.794783-8.147478-18.16487-16.517565-23.307131a35.84 35.84 0 0 0-27.981913-4.073739c-19.901217 5.253565-32.233739 25.978435-27.558957 46.302609l47.949913 206.803478 0.178087 0.578783 0.578783 2.537739 0.756869 3.183304c0.422957 2.025739 0.934957 4.029217 1.469218 5.632l0.378434 1.179826 0.111305 1.335653c6.767304 34.148174 11.085913 42.585043 23.952695 47.282086l232.826435 84.72487 0.066783-0.178087-0.022261 0.044522z" fill="#d81e06" p-id="2146"></path><path d="M771.33913 152.798609l-23.552 58.368a4.452174 4.452174 0 0 0 5.854609 5.765565l108.966957-46.258087a4.452174 4.452174 0 0 0 2.359652-5.832348l-46.258087-108.944696a4.452174 4.452174 0 0 0-8.236522 0.066783L788.123826 111.304348A853.348174 853.348174 0 0 0 391.902609 14.425043c-33.881043 0-67.294609 1.981217-100.173913 5.787827V20.257391c-12.288 0-22.26087 11.842783-22.26087 23.151305 0 11.286261 9.46087 23.195826 22.26087 21.77113a34.281739 34.281739 0 0 0 2.982956-0.445217 820.891826 820.891826 0 0 1 97.190957-5.765566 808.96 808.96 0 0 1 379.458782 93.851827z" fill="#d81e06" opacity=".9" p-id="2147"></path></svg>