<svg t="1641656195192" class="icon" viewBox="0 0 1024 1024" version="1.1" xmlns="http://www.w3.org/2000/svg" p-id="1925" width="48" height="48"><path d="M595.376356 976.122311l-0.750934-0.500622c-1.001244-0.705422-2.548622-1.479111-3.913955-2.184533l-0.523378-0.341334c-0.682667-0.432356-1.524622-0.841956-2.139022-1.297066l-3.549867-2.093512-0.386844-0.182044-178.744889-111.638756a94.981689 94.981689 0 0 1-41.984-57.776355 92.706133 92.706133 0 0 1 9.4208-70.087111 88.109511 88.109511 0 0 1 78.097066-43.599645L326.087111 418.747733c-21.868089-46.466844-4.482844-100.807111 38.616178-120.877511 43.053511-20.0704 95.891911 1.501867 117.623467 48.082489l40.095288 86.016a69.176889 69.176889 0 0 1 18.158934-12.356267c20.343467-9.511822 44.191289-8.647111 65.695289 1.934223 7.350044-12.014933 17.908622-21.617778 30.492444-27.670756a71.68 71.68 0 0 1 46.830933-4.551111c12.242489 2.844444 24.007111 8.419556 34.383645 16.406756 5.415822-4.983467 11.514311-9.147733 18.113422-12.242489 40.118044-18.705067 90.430578 4.050489 112.162133 50.653866l104.903112 224.961423c23.210667 49.7664 26.851556 115.052089 9.329777 166.343111-9.784889 28.580978-25.122133 49.038222-43.394844 57.571555l-222.253511 103.6288c-41.642667 19.433244-74.774756-2.730667-101.467022-20.525511z m308.883911-126.793955c6.735644-3.163022 18.2272-22.232178 23.051377-54.840889 5.074489-35.111822 0.159289-72.044089-13.425777-101.1712l-107.906845-231.424c-8.8064-18.909867-28.148622-29.9008-41.460622-23.688534a19.569778 19.569778 0 0 0-7.3728 6.075734l37.728711 80.941511-0.091022 0.045511c5.370311 13.994667-0.6144 29.582222-13.7216 35.794489-13.152711 6.144-29.127111 0.546133-36.272356-12.4928l-0.045511 0.022755-32.745244-70.200889-10.695111-19.023644c-9.489067-16.952889-27.420444-26.055111-39.958756-20.184178-5.575111 2.571378-9.853156 8.328533-11.969422 15.587556l40.823467 87.540622c6.621867 14.336 0.796444 31.152356-13.016178 37.614933-13.858133 6.394311-30.446933 0.045511-37.159822-14.222222l-35.908267-77.0048-6.075733-8.123733c-10.080711-13.5168-25.713778-19.933867-36.295112-15.018667-7.213511 3.367822-12.060444 11.832889-13.061688 22.459733l39.685688 87.176534 15.246223 32.654222c5.893689 12.674844 0.682667 27.761778-11.559823 33.473422l-5.438577 2.548622c-12.288 5.7344-27.147378 0-33.063823-12.674844l-121.514666-260.619378-4.414578-9.102222c-9.102222-19.501511-30.151111-28.899556-47.104-21.026133-16.907378 7.896178-23.210667 30.128356-14.153956 49.584355l119.1936 252.7232c0.432356 0.750933 0.8192 1.524622 1.183289 2.298311l46.830934 100.488534c5.848178 13.016178 1.547378 28.194133-10.080711 35.6352a27.761778 27.761778 0 0 1-36.2496-6.052978l-22.641778-24.029867a37.614933 37.614933 0 0 0-28.785778-4.892444 36.636444 36.636444 0 0 0-23.165156 17.294222c-10.581333 18.181689-4.528356 42.052267 13.539556 53.361778l184.137956 114.824533 0.568888 0.295822 2.2528 1.4336 2.844445 1.752178c1.752178 1.137778 3.595378 2.230044 5.12 3.003733l1.137778 0.568889 1.046755 0.910223c29.582222 19.797333 38.798222 22.755556 51.473067 16.839111L904.305778 849.464889l-0.068267-0.182045v0.045512z" fill="#d81e06" opacity=".9" p-id="1926"></path><path d="M161.268622 238.159644l29.036089 57.025423a4.551111 4.551111 0 0 1-5.461333 6.371555L69.768533 264.192a4.551111 4.551111 0 0 1-2.912711-5.7344L104.220444 143.36a4.551111 4.551111 0 0 1 8.374045-0.682667l27.534222 54.044445A872.334222 872.334222 0 0 1 516.778667 23.893333c33.9968-6.599111 67.925333-11.150222 101.649066-13.7216v0.022756c12.333511-2.389333 24.644267 7.509333 26.851556 18.887111 2.207289 11.309511-4.937956 25.099378-18.090667 26.191644a35.043556 35.043556 0 0 1-3.072 0.113778 839.133867 839.133867 0 0 0-98.645333 13.198222 826.936889 826.936889 0 0 0-364.202667 169.597156z" fill="#d81e06" p-id="1927"></path></svg>