<?xml version="1.0" encoding="utf-8"?>
<svg version="1.1" xmlns:xlink="http://www.w3.org/1999/xlink" width="9px" height="9px" xmlns="http://www.w3.org/2000/svg">
  <defs>
    <pattern id="BGPattern" patternUnits="userSpaceOnUse" alignment="0 0" imageRepeat="None" />
    <mask fill="white" id="Clip37">
      <path d="M 8.91482257579787 4.5  C 8.91482257579787 2.062023331117018  6.937970541223393 0.08517129654256905  4.49999387234044 0.08517129654256905  C 2.062017203457458 0.08517129654256905  0.08516516888298042 2.062023331117018  0.08516516888298042 4.5  C 0.08516516888298042 6.937976668882982  2.062017203457458 8.914816460106408  4.49999387234044 8.914816460106408  C 6.937970541223393 8.914816460106408  8.91482257579787 6.937976668882982  8.91482257579787 4.5  Z M 4.847331482712775 4.5  L 6.592494482712766 6.245358941489371  C 6.681909949468093 6.33457845478722  6.681909949468093 6.480783323138326  6.592494482712766 6.570027335106374  L 6.569996708776586 6.592610824468068  C 6.480777195478709 6.681928308510635  6.3345600837766085 6.681928308510635  6.2453405704787315 6.592610824468068  L 4.49999387234044 4.847349853723415  L 2.7546349308510685 6.592598581117045  C 2.6654154175531914 6.681916065159555  2.519198305851063 6.681916065159555  2.429978792553186 6.592598581117045  L 2.407297320478733 6.570015079787254  C 2.3180655638297765 6.480771079787246  2.3180655638297765 6.3345661994680995  2.407297320478733 6.245346698138292  L 4.1537707420212655 4.49998775664892  L 2.407297320478733 2.7546410585106287  C 2.3180655638297765 2.6654093018617004  2.3180655638297765 2.5192044335106516  2.407297320478733 2.4299726648936257  L 2.429978792553186 2.407291192819173  C 2.519198305851063 2.3180716795212675  2.6654154175531914 2.3180716795212675  2.7546349308510685 2.407291192819173  L 4.49999387234044 4.153678886968066  L 6.24535282579788 2.4083321888297746  C 6.334572339095757 2.3190147047872074  6.480789450797886 2.3190147047872074  6.570008964095734 2.4083321888297746  L 6.592506726063846 2.4309156901595657  C 6.681922192819144 2.520147446808494  6.681922192819144 2.6663523151595996  6.592506726063846 2.755584071808528  L 4.847331482712775 4.5  Z " fill-rule="evenodd" />
    </mask>
  </defs>
  <g transform="matrix(1 0 0 1 -49 -8 )">
    <path d="M 8.91482257579787 4.5  C 8.91482257579787 2.062023331117018  6.937970541223393 0.08517129654256905  4.49999387234044 0.08517129654256905  C 2.062017203457458 0.08517129654256905  0.08516516888298042 2.062023331117018  0.08516516888298042 4.5  C 0.08516516888298042 6.937976668882982  2.062017203457458 8.914816460106408  4.49999387234044 8.914816460106408  C 6.937970541223393 8.914816460106408  8.91482257579787 6.937976668882982  8.91482257579787 4.5  Z M 4.847331482712775 4.5  L 6.592494482712766 6.245358941489371  C 6.681909949468093 6.33457845478722  6.681909949468093 6.480783323138326  6.592494482712766 6.570027335106374  L 6.569996708776586 6.592610824468068  C 6.480777195478709 6.681928308510635  6.3345600837766085 6.681928308510635  6.2453405704787315 6.592610824468068  L 4.49999387234044 4.847349853723415  L 2.7546349308510685 6.592598581117045  C 2.6654154175531914 6.681916065159555  2.519198305851063 6.681916065159555  2.429978792553186 6.592598581117045  L 2.407297320478733 6.570015079787254  C 2.3180655638297765 6.480771079787246  2.3180655638297765 6.3345661994680995  2.407297320478733 6.245346698138292  L 4.1537707420212655 4.49998775664892  L 2.407297320478733 2.7546410585106287  C 2.3180655638297765 2.6654093018617004  2.3180655638297765 2.5192044335106516  2.407297320478733 2.4299726648936257  L 2.429978792553186 2.407291192819173  C 2.519198305851063 2.3180716795212675  2.6654154175531914 2.3180716795212675  2.7546349308510685 2.407291192819173  L 4.49999387234044 4.153678886968066  L 6.24535282579788 2.4083321888297746  C 6.334572339095757 2.3190147047872074  6.480789450797886 2.3190147047872074  6.570008964095734 2.4083321888297746  L 6.592506726063846 2.4309156901595657  C 6.681922192819144 2.520147446808494  6.681922192819144 2.6663523151595996  6.592506726063846 2.755584071808528  L 4.847331482712775 4.5  Z " fill-rule="nonzero" fill="rgba(192, 196, 204, 1)" stroke="none" transform="matrix(1 0 0 1 49 8 )" class="fill" />
    <path d="M 8.91482257579787 4.5  C 8.91482257579787 2.062023331117018  6.937970541223393 0.08517129654256905  4.49999387234044 0.08517129654256905  C 2.062017203457458 0.08517129654256905  0.08516516888298042 2.062023331117018  0.08516516888298042 4.5  C 0.08516516888298042 6.937976668882982  2.062017203457458 8.914816460106408  4.49999387234044 8.914816460106408  C 6.937970541223393 8.914816460106408  8.91482257579787 6.937976668882982  8.91482257579787 4.5  Z " stroke-width="0" stroke-dasharray="0" stroke="rgba(255, 255, 255, 0)" fill="none" transform="matrix(1 0 0 1 49 8 )" class="stroke" mask="url(#Clip37)" />
    <path d="M 4.847331482712775 4.5  L 6.592494482712766 6.245358941489371  C 6.681909949468093 6.33457845478722  6.681909949468093 6.480783323138326  6.592494482712766 6.570027335106374  L 6.569996708776586 6.592610824468068  C 6.480777195478709 6.681928308510635  6.3345600837766085 6.681928308510635  6.2453405704787315 6.592610824468068  L 4.49999387234044 4.847349853723415  L 2.7546349308510685 6.592598581117045  C 2.6654154175531914 6.681916065159555  2.519198305851063 6.681916065159555  2.429978792553186 6.592598581117045  L 2.407297320478733 6.570015079787254  C 2.3180655638297765 6.480771079787246  2.3180655638297765 6.3345661994680995  2.407297320478733 6.245346698138292  L 4.1537707420212655 4.49998775664892  L 2.407297320478733 2.7546410585106287  C 2.3180655638297765 2.6654093018617004  2.3180655638297765 2.5192044335106516  2.407297320478733 2.4299726648936257  L 2.429978792553186 2.407291192819173  C 2.519198305851063 2.3180716795212675  2.6654154175531914 2.3180716795212675  2.7546349308510685 2.407291192819173  L 4.49999387234044 4.153678886968066  L 6.24535282579788 2.4083321888297746  C 6.334572339095757 2.3190147047872074  6.480789450797886 2.3190147047872074  6.570008964095734 2.4083321888297746  L 6.592506726063846 2.4309156901595657  C 6.681922192819144 2.520147446808494  6.681922192819144 2.6663523151595996  6.592506726063846 2.755584071808528  L 4.847331482712775 4.5  Z " stroke-width="0" stroke-dasharray="0" stroke="rgba(255, 255, 255, 0)" fill="none" transform="matrix(1 0 0 1 49 8 )" class="stroke" mask="url(#Clip37)" />
  </g>
</svg>