<svg width="640" height="300" viewBox="0 0 640 300" fill="none" xmlns="http://www.w3.org/2000/svg">
<path d="M271.112 109.936H273.776V130.096H271.112V109.936ZM278.528 105.94H281.264V135.352C281.264 137.044 280.832 137.836 279.752 138.268C278.708 138.664 276.98 138.736 274.208 138.736C274.1 138.016 273.668 136.864 273.308 136.108C275.288 136.18 277.16 136.18 277.736 136.144C278.312 136.144 278.528 135.964 278.528 135.388V105.94ZM254.516 125.128L256.064 123.148C257.828 124.264 260.024 125.884 261.428 127.108C262.796 124.588 263.84 121.6 264.524 118.216H256.352C255.128 121.276 253.688 123.94 251.996 126.064C251.564 125.56 250.52 124.66 249.908 124.264C252.788 120.916 254.804 115.804 256.064 110.296H250.196V107.704H268.556V110.296H258.764C258.332 112.168 257.828 114.004 257.252 115.732H265.352L265.82 115.624L267.476 116.128C265.676 128.62 260.096 135.64 252.464 139.06C252.14 138.376 251.42 137.332 250.844 136.792C254.408 135.388 257.54 132.94 259.988 129.484C258.584 128.152 256.352 126.388 254.516 125.128ZM293.072 138.844C292.892 138.196 292.316 136.972 291.884 136.396C292.496 136.072 293.288 135.46 293.288 134.02V128.692C291.236 129.88 289.112 130.888 287.096 131.608C286.664 130.96 285.872 129.952 285.296 129.412C289.76 127.972 294.872 125.2 298.292 122.14H286.34V119.8H300.56V116.596H289.616V114.364H300.56V111.304H287.78V108.964H300.56V105.76H303.296V108.964H316.472V111.304H303.296V114.364H314.888V116.596H303.296V119.8H317.624V122.14H304.376C305.312 124.516 306.608 126.676 308.192 128.548C310.352 127.036 312.872 125.092 314.456 123.544L316.688 125.128C314.6 126.892 311.972 128.764 309.704 130.168C312.188 132.508 315.248 134.272 318.812 135.316C318.2 135.892 317.408 136.936 317.012 137.656C309.56 135.172 304.52 129.7 301.712 122.14C300.164 123.868 298.22 125.488 296.06 126.964V134.884L304.844 132.256C304.916 133.012 305.132 134.056 305.276 134.632C295.232 137.836 293.9 138.304 293.072 138.844ZM329.072 138.844C328.892 138.196 328.316 136.972 327.884 136.396C328.496 136.072 329.288 135.46 329.288 134.02V128.692C327.236 129.88 325.112 130.888 323.096 131.608C322.664 130.96 321.872 129.952 321.296 129.412C325.76 127.972 330.872 125.2 334.292 122.14H322.34V119.8H336.56V116.596H325.616V114.364H336.56V111.304H323.78V108.964H336.56V105.76H339.296V108.964H352.472V111.304H339.296V114.364H350.888V116.596H339.296V119.8H353.624V122.14H340.376C341.312 124.516 342.608 126.676 344.192 128.548C346.352 127.036 348.872 125.092 350.456 123.544L352.688 125.128C350.6 126.892 347.972 128.764 345.704 130.168C348.188 132.508 351.248 134.272 354.812 135.316C354.2 135.892 353.408 136.936 353.012 137.656C345.56 135.172 340.52 129.7 337.712 122.14C336.164 123.868 334.22 125.488 332.06 126.964V134.884L340.844 132.256C340.916 133.012 341.132 134.056 341.276 134.632C331.232 137.836 329.9 138.304 329.072 138.844ZM363.956 120.268V124.156H372.524V120.268H363.956ZM375.296 120.268V124.156H384.26V120.268H375.296ZM363.956 114.292V118.108H372.524V114.292H363.956ZM375.296 114.292V118.108H384.26V114.292H375.296ZM381.524 105.904L384.44 106.876C383.36 108.604 382.1 110.476 380.948 111.988H386.996V126.46H375.296V129.88H390.164V132.4H375.296V138.844H372.524V132.4H357.944V129.88H372.524V126.46H361.328V111.988H367.988C367.196 110.548 365.792 108.496 364.496 106.984L366.764 105.904C368.24 107.524 369.932 109.756 370.652 111.268L369.176 111.988H377.924C379.22 110.26 380.696 107.74 381.524 105.904Z" fill="#999999"/>
<path d="M277.276 170L280.776 159.752H282.05L285.564 170H284.332L283.31 166.78H279.474L278.438 170H277.276ZM279.782 165.856H283.016L282.484 164.19C282.092 163.028 281.77 161.922 281.42 160.718H281.364C281.028 161.922 280.692 163.028 280.314 164.19L279.782 165.856ZM285.783 170L288.289 166.052L285.979 162.44H287.225L288.275 164.162C288.513 164.582 288.779 164.988 289.045 165.422H289.101C289.339 164.988 289.563 164.582 289.801 164.162L290.781 162.44H291.971L289.661 166.164L292.167 170H290.921L289.759 168.166C289.507 167.704 289.213 167.242 288.919 166.808H288.849C288.583 167.242 288.331 167.704 288.065 168.166L286.987 170H285.783ZM293.698 170V158.856H294.846V161.95L294.804 163.532C295.518 162.818 296.302 162.244 297.338 162.244C298.92 162.244 299.648 163.266 299.648 165.198V170H298.5V165.338C298.5 163.882 298.052 163.238 297.002 163.238C296.204 163.238 295.63 163.658 294.846 164.456V170H293.698ZM304.318 170.182C302.736 170.182 302.008 169.174 302.008 167.242V162.44H303.156V167.102C303.156 168.558 303.604 169.188 304.654 169.188C305.452 169.188 306.026 168.782 306.782 167.858V162.44H307.916V170H306.978L306.88 168.796H306.838C306.124 169.622 305.368 170.182 304.318 170.182ZM313.79 170.182C313.09 170.182 312.278 169.818 311.62 169.216H311.564L311.452 170H310.542V158.856H311.69V161.95L311.634 163.336C312.348 162.734 313.202 162.244 314.07 162.244C316.044 162.244 317.08 163.77 317.08 166.094C317.08 168.684 315.526 170.182 313.79 170.182ZM313.622 169.216C314.938 169.216 315.904 168.026 315.904 166.122C315.904 164.386 315.316 163.21 313.804 163.21C313.146 163.21 312.446 163.588 311.69 164.288V168.39C312.376 169.006 313.104 169.216 313.622 169.216ZM324.512 170V160.732H321.39V159.752H328.824V160.732H325.688V170H324.512ZM332.457 170.182C330.609 170.182 328.985 168.726 328.985 166.234C328.985 163.7 330.609 162.244 332.457 162.244C334.305 162.244 335.929 163.7 335.929 166.234C335.929 168.726 334.305 170.182 332.457 170.182ZM332.457 169.23C333.829 169.23 334.767 168.026 334.767 166.234C334.767 164.428 333.829 163.21 332.457 163.21C331.099 163.21 330.161 164.428 330.161 166.234C330.161 168.026 331.099 169.23 332.457 169.23ZM340.879 170.182C339.031 170.182 337.407 168.726 337.407 166.234C337.407 163.7 339.031 162.244 340.879 162.244C342.727 162.244 344.351 163.7 344.351 166.234C344.351 168.726 342.727 170.182 340.879 170.182ZM340.879 169.23C342.251 169.23 343.189 168.026 343.189 166.234C343.189 164.428 342.251 163.21 340.879 163.21C339.521 163.21 338.583 164.428 338.583 166.234C338.583 168.026 339.521 169.23 340.879 169.23ZM346.376 173.304C346.04 173.304 345.746 173.248 345.522 173.15L345.746 172.226C345.9 172.282 346.124 172.352 346.334 172.352C347.202 172.352 347.762 171.61 348.098 170.63L348.266 170.042L345.214 162.44H346.404L348.014 166.766C348.252 167.424 348.504 168.194 348.77 168.894H348.84C349.05 168.208 349.274 167.438 349.484 166.766L350.898 162.44H352.018L349.134 170.714C348.63 172.142 347.846 173.304 346.376 173.304ZM355.458 170.182C354.38 170.182 353.358 169.734 352.658 169.146L353.218 168.376C353.876 168.908 354.548 169.286 355.5 169.286C356.55 169.286 357.068 168.726 357.068 168.026C357.068 167.214 356.144 166.85 355.304 166.542C354.24 166.136 353.064 165.646 353.064 164.358C353.064 163.182 354.002 162.244 355.64 162.244C356.536 162.244 357.362 162.622 357.936 163.084L357.376 163.826C356.872 163.448 356.34 163.154 355.64 163.154C354.632 163.154 354.17 163.686 354.17 164.302C354.17 165.058 354.954 165.338 355.822 165.66C356.942 166.094 358.16 166.528 358.16 167.97C358.16 169.174 357.208 170.182 355.458 170.182ZM202.088 184.028H202.984V186.87C202.984 188.62 202.564 190.72 198.994 192.022C198.868 191.84 198.63 191.518 198.42 191.35C201.766 190.244 202.088 188.326 202.088 186.87V184.028ZM202.802 189.712L203.432 189.138C204.328 189.81 205.476 190.79 206.05 191.406L205.392 192.064C204.846 191.42 203.712 190.426 202.802 189.712ZM193.926 182.418L194.458 181.83L195.732 182.684C196.306 182.18 196.908 181.466 197.37 180.794H193.506V179.954H197.986L198.154 179.912L198.742 180.29C198.126 181.312 197.216 182.39 196.376 183.132C196.894 183.482 197.37 183.832 197.692 184.098L197.426 184.434H198.434L198.588 184.392L199.176 184.56C198.798 185.638 198.35 186.842 197.958 187.598L197.23 187.402C197.51 186.856 197.804 186.058 198.07 185.288H196.46V190.958C196.46 191.49 196.348 191.756 195.97 191.91C195.592 192.05 194.99 192.064 194.024 192.064C193.982 191.812 193.842 191.434 193.716 191.168C194.458 191.182 195.102 191.182 195.298 191.182C195.508 191.168 195.564 191.112 195.564 190.944V185.288H193.212V184.434H196.712C195.942 183.832 194.822 183.02 193.926 182.418ZM199.68 182.236H201.794C201.934 181.788 202.088 181.242 202.2 180.752H199.162V179.898H206.05V180.752H203.222L202.704 182.236H205.49V188.858H204.58V183.09H200.548V188.872H199.68V182.236ZM215.626 182.194L216.424 181.83C217.208 182.502 218.034 183.44 218.426 184.084L217.586 184.504C217.222 183.832 216.382 182.88 215.626 182.194ZM208.304 180.038H209.214V183.972H208.304V180.038ZM211.216 179.394H212.14V184.42H211.216V179.394ZM214.072 188.424H215.01V190.692C215.01 191.028 215.122 191.084 215.794 191.084C216.116 191.084 217.754 191.084 218.174 191.084C218.734 191.084 218.846 190.902 218.888 189.6C219.098 189.74 219.476 189.88 219.728 189.936C219.616 191.518 219.336 191.896 218.258 191.896C217.978 191.896 216.004 191.896 215.724 191.896C214.408 191.896 214.072 191.658 214.072 190.692V188.424ZM213.106 186.38H214.086V187.486C214.086 188.956 213.512 190.86 208.192 192.134C208.08 191.91 207.814 191.574 207.604 191.378C212.756 190.258 213.106 188.62 213.106 187.472V186.38ZM209.452 184.868H218.062V189.25H217.096V185.722H210.39V189.32H209.452V184.868ZM214.898 179.254L215.794 179.436C215.682 179.87 215.542 180.304 215.402 180.724H219.714V181.578H215.08C214.702 182.488 214.268 183.3 213.792 183.93C213.624 183.79 213.232 183.552 212.994 183.44C213.848 182.404 214.506 180.822 214.898 179.254ZM224.414 187.542V186.646H227.956V187.542H224.414ZM245.653 185.638H242.909C242.573 186.394 242.237 187.108 241.915 187.724C242.657 188.102 243.455 188.522 244.239 188.956C244.953 188.102 245.415 187.024 245.653 185.638ZM240.669 188.032C241.061 187.388 241.495 186.534 241.901 185.638H239.787V184.784H242.265C242.587 184 242.867 183.216 243.063 182.502L244.015 182.656C243.819 183.328 243.553 184.056 243.259 184.784H248.215V185.638H246.661C246.353 187.22 245.835 188.438 245.051 189.404C246.255 190.118 247.375 190.818 248.117 191.406L247.445 192.134C246.731 191.546 245.625 190.818 244.407 190.076C243.385 191.014 242.041 191.644 240.305 192.106C240.221 191.896 239.997 191.49 239.829 191.294C241.425 190.93 242.671 190.398 243.595 189.6C242.615 189.04 241.593 188.48 240.669 188.032ZM240.165 181.088H243.679C243.553 180.556 243.343 179.912 243.147 179.394L244.071 179.198C244.309 179.786 244.561 180.528 244.701 181.088H248.019V183.748H247.109V181.928H241.061V183.776H240.165V181.088ZM237.323 179.268H238.247V182.11H239.787V182.992H238.247V186.296L239.941 185.778L240.081 186.618L238.247 187.22V190.972C238.247 191.518 238.107 191.784 237.757 191.924C237.421 192.078 236.861 192.106 235.937 192.092C235.923 191.868 235.783 191.49 235.657 191.238C236.301 191.252 236.889 191.252 237.071 191.252C237.253 191.252 237.323 191.182 237.323 190.986V187.514L235.475 188.102L235.251 187.192L237.323 186.576V182.992H235.405V182.11H237.323V179.268ZM256.475 179.52L257.329 179.212C257.819 179.926 258.365 180.878 258.575 181.494L257.679 181.872C257.469 181.242 256.965 180.262 256.475 179.52ZM252.877 179.31L253.773 179.59C253.367 180.626 252.877 181.648 252.317 182.614V192.064H251.379V184.084C250.903 184.756 250.399 185.372 249.895 185.89C249.811 185.666 249.517 185.176 249.335 184.952C250.749 183.594 252.079 181.466 252.877 179.31ZM253.171 190.706H257.301V187.024H254.011V186.128H257.301V182.922H253.535V182.026H262.047V182.922H258.239V186.128H261.627V187.024H258.239V190.706H262.257V191.602H253.171V190.706ZM265.99 191L269.49 180.752H270.764L274.278 191H273.046L272.024 187.78H268.188L267.152 191H265.99ZM268.496 186.856H271.73L271.198 185.19C270.806 184.028 270.484 182.922 270.134 181.718H270.078C269.742 182.922 269.406 184.028 269.028 185.19L268.496 186.856ZM276.904 191.182C276.036 191.182 275.658 190.622 275.658 189.614V179.856H276.806V189.698C276.806 190.076 276.96 190.23 277.156 190.23C277.212 190.23 277.268 190.23 277.422 190.202L277.59 191.084C277.408 191.14 277.226 191.182 276.904 191.182ZM281.878 191.182C280.296 191.182 279.792 190.202 279.792 188.718V184.364H278.644V183.51L279.834 183.44L279.974 181.298H280.926V183.44H283.012V184.364H280.926V188.76C280.926 189.684 281.206 190.244 282.116 190.244C282.396 190.244 282.746 190.146 282.998 190.034L283.236 190.902C282.802 191.042 282.298 191.182 281.878 191.182ZM296.211 179.898L296.757 179.324C297.639 179.702 298.703 180.318 299.235 180.794L298.661 181.466C298.143 180.976 297.093 180.318 296.211 179.898ZM287.447 190.132C288.973 189.852 291.353 189.362 293.635 188.872L293.705 189.768C291.549 190.244 289.253 190.748 287.643 191.098L287.447 190.132ZM289.239 184.588V187.178H292.235V184.588H289.239ZM288.357 183.762H293.159V187.99H288.357V183.762ZM287.531 181.536H294.405C294.363 180.808 294.349 180.052 294.335 179.296H295.329C295.329 180.066 295.343 180.808 295.385 181.536H299.627V182.46H295.427C295.567 184.406 295.833 186.156 296.197 187.556C297.009 186.38 297.653 185.036 298.115 183.524L299.053 183.748C298.437 185.638 297.583 187.29 296.533 188.676C297.065 190.216 297.737 191.126 298.493 191.126C298.913 191.126 299.081 190.398 299.165 188.508C299.375 188.718 299.725 188.942 299.991 189.026C299.823 191.392 299.445 192.106 298.423 192.106C297.317 192.106 296.449 191.14 295.805 189.544C294.909 190.552 293.873 191.392 292.697 192.078C292.557 191.896 292.193 191.518 291.983 191.35C293.327 190.636 294.489 189.684 295.455 188.536C294.951 186.884 294.629 184.77 294.461 182.46H287.531V181.536ZM308.834 191.182C306.286 191.182 304.494 189.11 304.494 185.834C304.494 182.572 306.286 180.57 308.834 180.57C311.368 180.57 313.16 182.572 313.16 185.834C313.16 189.11 311.368 191.182 308.834 191.182ZM308.834 190.16C310.724 190.16 311.97 188.466 311.97 185.834C311.97 183.216 310.724 181.592 308.834 181.592C306.93 181.592 305.684 183.216 305.684 185.834C305.684 188.466 306.93 190.16 308.834 190.16ZM315.306 194.234V183.44H316.244L316.356 184.322H316.398C317.098 183.762 317.938 183.244 318.834 183.244C320.808 183.244 321.844 184.77 321.844 187.108C321.844 189.684 320.29 191.182 318.554 191.182C317.854 191.182 317.126 190.86 316.426 190.3L316.454 191.63V194.234H315.306ZM318.386 190.216C319.702 190.216 320.668 189.026 320.668 187.122C320.668 185.386 320.08 184.21 318.568 184.21C317.91 184.21 317.224 184.588 316.454 185.288V189.39C317.168 190.006 317.868 190.216 318.386 190.216ZM325.983 191.182C324.401 191.182 323.897 190.202 323.897 188.718V184.364H322.749V183.51L323.939 183.44L324.079 181.298H325.031V183.44H327.117V184.364H325.031V188.76C325.031 189.684 325.311 190.244 326.221 190.244C326.501 190.244 326.851 190.146 327.103 190.034L327.341 190.902C326.907 191.042 326.403 191.182 325.983 191.182ZM328.855 191V183.44H330.003V191H328.855ZM329.443 181.816C328.967 181.816 328.659 181.508 328.659 181.018C328.659 180.556 328.967 180.248 329.443 180.248C329.891 180.248 330.227 180.556 330.227 181.018C330.227 181.508 329.891 181.816 329.443 181.816ZM335.513 191.182C333.665 191.182 332.041 189.726 332.041 187.234C332.041 184.7 333.665 183.244 335.513 183.244C337.361 183.244 338.985 184.7 338.985 187.234C338.985 189.726 337.361 191.182 335.513 191.182ZM335.513 190.23C336.885 190.23 337.823 189.026 337.823 187.234C337.823 185.428 336.885 184.21 335.513 184.21C334.155 184.21 333.217 185.428 333.217 187.234C333.217 189.026 334.155 190.23 335.513 190.23ZM341.037 191V183.44H341.975L342.087 184.546H342.129C342.857 183.818 343.641 183.244 344.677 183.244C346.259 183.244 346.987 184.266 346.987 186.198V191H345.839V186.338C345.839 184.882 345.391 184.238 344.341 184.238C343.543 184.238 342.969 184.658 342.185 185.456V191H341.037ZM354.338 184.84V186.45H357.796V184.84H354.338ZM358.762 184.84V186.45H362.388V184.84H358.762ZM354.338 182.502V184.084H357.796V182.502H354.338ZM358.762 182.502V184.084H362.388V182.502H358.762ZM361.31 179.324L362.318 179.66C361.884 180.332 361.38 181.088 360.918 181.69H363.34V187.262H358.762V188.662H364.586V189.544H358.762V192.078H357.796V189.544H352.084V188.662H357.796V187.262H353.414V181.69H356.074C355.752 181.13 355.192 180.29 354.66 179.702L355.458 179.324C356.032 179.954 356.69 180.822 356.97 181.41L356.424 181.69H359.882C360.386 181.004 360.974 180.024 361.31 179.324ZM367.428 186.772H368.408V190.356H371.852V185.652H366.266V184.714H371.852V182.404H367.316V181.48H371.852V179.268H372.832V181.48H377.424V182.404H372.832V184.714H378.404V185.652H372.832V190.356H376.248V186.772H377.186V192.106H376.248V191.28H367.428V186.772ZM381.372 180.374H391.312V181.27H381.372V180.374ZM380.168 184.322H392.488V185.232H388.484V190.37C388.484 190.86 388.596 190.944 389.156 190.944C389.422 190.944 390.724 190.944 391.074 190.944C391.676 190.944 391.76 190.58 391.816 188.396C392.04 188.578 392.432 188.746 392.698 188.816C392.586 191.196 392.334 191.84 391.144 191.84C390.864 191.84 389.324 191.84 389.058 191.84C387.854 191.84 387.532 191.518 387.532 190.384V185.232H384.788C384.536 188.27 383.864 190.776 380.616 192.064C380.518 191.84 380.238 191.504 380.028 191.336C383.024 190.202 383.57 187.92 383.794 185.232H380.168V184.322ZM397.752 186.282H401.812V183.076H399.502C399.208 183.916 398.858 184.658 398.466 185.26C398.284 185.134 397.892 184.896 397.668 184.798C398.48 183.608 399.068 181.802 399.39 179.954L400.3 180.136C400.16 180.822 399.992 181.508 399.81 182.152H401.812V179.436H402.75V182.152H406.012V183.076H402.75V186.282H406.614V187.206H402.75V192.092H401.812V187.206H397.752V186.282ZM397.122 179.31L398.018 179.59C397.626 180.626 397.15 181.676 396.604 182.656V192.064H395.708V184.112C395.274 184.77 394.812 185.358 394.336 185.876C394.252 185.652 393.972 185.176 393.79 184.952C395.12 183.58 396.366 181.452 397.122 179.31ZM411.076 187.542V186.646H414.618V187.542H411.076ZM418.936 190.286C419.972 189.936 421.498 189.348 423.024 188.774L423.192 189.544C421.778 190.118 420.308 190.692 419.174 191.154L418.936 190.286ZM419.202 185.064C419.16 184.868 419.02 184.42 418.908 184.182C419.146 184.126 419.37 183.79 419.664 183.3C419.958 182.824 420.91 180.976 421.428 179.268L422.338 179.59C421.736 181.144 420.952 182.768 420.154 184L421.806 183.818C422.1 183.3 422.394 182.754 422.632 182.208L423.416 182.642C422.59 184.224 421.596 185.848 420.574 187.15L423.024 186.632C423.01 186.884 423.052 187.22 423.08 187.402C419.972 188.13 419.552 188.256 419.3 188.424C419.258 188.228 419.118 187.808 419.006 187.57C419.286 187.528 419.594 187.15 420 186.632C420.224 186.338 420.756 185.596 421.316 184.672C419.72 184.882 419.398 184.966 419.202 185.064ZM427.07 186.044H425.824V188.214H427.07V186.044ZM427.728 186.044V188.214H428.806V186.044H427.728ZM425.068 185.26H430.584L431.34 185.246V191.154C431.34 191.518 431.284 191.728 431.046 191.854C430.794 191.98 430.472 191.994 429.968 191.994C429.94 191.784 429.842 191.476 429.744 191.28C430.066 191.294 430.346 191.294 430.444 191.294C430.542 191.28 430.584 191.252 430.584 191.14V188.97H429.464V191.616H428.806V188.97H427.728V191.63H427.07V188.97H425.824V191.98H425.068V185.26ZM429.464 186.044V188.214H430.584V186.044H429.464ZM426.86 179.436L427.728 179.184C428.036 179.674 428.344 180.332 428.484 180.794H431.214V183.986H425.04C425.026 186.254 424.802 189.558 423.514 191.854C423.36 191.686 422.982 191.42 422.786 191.322C424.046 189.068 424.172 185.974 424.172 183.832V180.794H427.49C427.336 180.36 427.084 179.856 426.86 179.436ZM425.04 181.592V183.202H430.332V181.592H425.04ZM440.006 180.444V181.956H443.898V180.444H440.006ZM439.138 179.716H444.808V182.684H439.138V179.716ZM433.496 186.31C433.454 186.114 433.314 185.694 433.216 185.456C433.44 185.4 433.622 184.938 433.86 184.322C434 183.972 434.322 183.006 434.616 181.844H433.034V180.948H434.826C434.952 180.402 435.05 179.828 435.134 179.268L436.058 179.464C435.96 179.954 435.862 180.458 435.736 180.948H438.116V181.844H435.498C435.162 183.076 434.77 184.252 434.364 185.246H435.806V183.076H436.674V185.246H438.032V186.114H436.674V188.046L438.284 187.738L438.34 188.564L436.674 188.914V192.036H435.806V189.082L433.146 189.628L432.936 188.704C433.706 188.578 434.714 188.41 435.806 188.2V186.114H434.504C434.028 186.114 433.622 186.198 433.496 186.31ZM443.856 184.35H440.146V185.624H443.856V184.35ZM437.948 189.992L439.264 189.908V184.35H438.298V183.538H445.69V184.35H444.724V189.516L445.774 189.446L445.76 190.244L444.724 190.328V192.092H443.856V190.398L438.102 190.846L437.948 189.992ZM443.856 186.352H440.146V187.654H443.856V186.352ZM443.856 188.382H440.146V189.852L443.856 189.586V188.382Z" fill="#999999"/>
</svg>
