<?xml version="1.0" encoding="utf-8"?>
<svg version="1.1" xmlns:xlink="http://www.w3.org/1999/xlink" width="12px" height="12px" xmlns="http://www.w3.org/2000/svg">
  <defs>
    <pattern id="BGPattern" patternUnits="userSpaceOnUse" alignment="0 0" imageRepeat="None" />
    <mask fill="white" id="Clip224">
      <path d="M 9.483241058107524 6.528880670674994  C 8.808741190104627 8.413251459475191  7.004983300755157 9.765750000000025  4.891500000000008 9.765750000000025  C 2.2004823919138516 9.762444077822124  0.019805922177908997 7.581767608086011  0.01650000000000773 4.8907500000000255  C 0.01650000000000773 2.2027499999999236  2.2035000000000196 0.015750000000025466  4.891500000000008 0.015750000000025466  C 7.579499999999996 0.015750000000025466  9.766500000000008 2.2027499999999236  9.766500000000008 4.8907500000000255  C 9.766500000000008 5.465106398826379  9.666593080651353 6.016644550641217  9.483241058107524 6.528880670674994  Z M 9.016500000000008 4.8907500000000255  C 9.016500000000008 2.6159999999999854  7.166249999999991 0.7657500000000255  4.891500000000008 0.7657500000000255  C 2.6167500000000246 0.7657500000000255  0.7665000000000077 2.6159999999999854  0.7665000000000077 4.8907500000000255  C 0.7665000000000077 7.1655000000000655  2.6167500000000246 9.015750000000025  4.891500000000008 9.015750000000025  C 7.165500000000009 9.015750000000025  9.016500000000008 7.1655000000000655  9.016500000000008 4.8907500000000255  Z M 11.608499999999992 11.984249999999975  C 11.511065464562876 11.984245800272106  11.417457996418307 11.94631863645509  11.347499999999968 11.878499999999917  L 7.843500000000006 8.487749999999892  C 7.771017215748543 8.417160152800193  7.730133851434914 8.320276658433954  7.730133851434914 8.219100176282609  C 7.730133851434914 8.011993395096056  7.898027070248361 7.844100176282609  8.105133851434914 7.844100176282609  C 8.201901192913226 7.844100176282609  8.294922640900154 7.881507027996122  8.364750000000015 7.948499999999967  L 11.868749999999977 11.339250000000106  C 11.94208195215839 11.409931212127162  11.98350972653742 11.507400066620448  11.98350972653742 11.609250000126053  C 11.98350972653742 11.816356781312606  11.815616507723973 11.984250000126053  11.60850972653742 11.984250000126053  Z " fill-rule="evenodd" />
    </mask>
  </defs>
  <g transform="matrix(1 0 0 1 -38 -80 )">
    <path d="M 9.483241058107524 6.528880670674994  C 8.808741190104627 8.413251459475191  7.004983300755157 9.765750000000025  4.891500000000008 9.765750000000025  C 2.2004823919138516 9.762444077822124  0.019805922177908997 7.581767608086011  0.01650000000000773 4.8907500000000255  C 0.01650000000000773 2.2027499999999236  2.2035000000000196 0.015750000000025466  4.891500000000008 0.015750000000025466  C 7.579499999999996 0.015750000000025466  9.766500000000008 2.2027499999999236  9.766500000000008 4.8907500000000255  C 9.766500000000008 5.465106398826379  9.666593080651353 6.016644550641217  9.483241058107524 6.528880670674994  Z M 9.016500000000008 4.8907500000000255  C 9.016500000000008 2.6159999999999854  7.166249999999991 0.7657500000000255  4.891500000000008 0.7657500000000255  C 2.6167500000000246 0.7657500000000255  0.7665000000000077 2.6159999999999854  0.7665000000000077 4.8907500000000255  C 0.7665000000000077 7.1655000000000655  2.6167500000000246 9.015750000000025  4.891500000000008 9.015750000000025  C 7.165500000000009 9.015750000000025  9.016500000000008 7.1655000000000655  9.016500000000008 4.8907500000000255  Z M 11.608499999999992 11.984249999999975  C 11.511065464562876 11.984245800272106  11.417457996418307 11.94631863645509  11.347499999999968 11.878499999999917  L 7.843500000000006 8.487749999999892  C 7.771017215748543 8.417160152800193  7.730133851434914 8.320276658433954  7.730133851434914 8.219100176282609  C 7.730133851434914 8.011993395096056  7.898027070248361 7.844100176282609  8.105133851434914 7.844100176282609  C 8.201901192913226 7.844100176282609  8.294922640900154 7.881507027996122  8.364750000000015 7.948499999999967  L 11.868749999999977 11.339250000000106  C 11.94208195215839 11.409931212127162  11.98350972653742 11.507400066620448  11.98350972653742 11.609250000126053  C 11.98350972653742 11.816356781312606  11.815616507723973 11.984250000126053  11.60850972653742 11.984250000126053  Z " fill-rule="nonzero" fill="rgba(192, 196, 204, 0.6470588235294118)" stroke="none" transform="matrix(1 0 0 1 38 80 )" class="fill" />
    <path d="M 9.483241058107524 6.528880670674994  C 8.808741190104627 8.413251459475191  7.004983300755157 9.765750000000025  4.891500000000008 9.765750000000025  C 2.2004823919138516 9.762444077822124  0.019805922177908997 7.581767608086011  0.01650000000000773 4.8907500000000255  C 0.01650000000000773 2.2027499999999236  2.2035000000000196 0.015750000000025466  4.891500000000008 0.015750000000025466  C 7.579499999999996 0.015750000000025466  9.766500000000008 2.2027499999999236  9.766500000000008 4.8907500000000255  C 9.766500000000008 5.465106398826379  9.666593080651353 6.016644550641217  9.483241058107524 6.528880670674994  Z " stroke-width="0" stroke-dasharray="0" stroke="rgba(255, 255, 255, 0)" fill="none" transform="matrix(1 0 0 1 38 80 )" class="stroke" mask="url(#Clip224)" />
    <path d="M 9.016500000000008 4.8907500000000255  C 9.016500000000008 2.6159999999999854  7.166249999999991 0.7657500000000255  4.891500000000008 0.7657500000000255  C 2.6167500000000246 0.7657500000000255  0.7665000000000077 2.6159999999999854  0.7665000000000077 4.8907500000000255  C 0.7665000000000077 7.1655000000000655  2.6167500000000246 9.015750000000025  4.891500000000008 9.015750000000025  C 7.165500000000009 9.015750000000025  9.016500000000008 7.1655000000000655  9.016500000000008 4.8907500000000255  Z " stroke-width="0" stroke-dasharray="0" stroke="rgba(255, 255, 255, 0)" fill="none" transform="matrix(1 0 0 1 38 80 )" class="stroke" mask="url(#Clip224)" />
    <path d="M 11.608499999999992 11.984249999999975  C 11.511065464562876 11.984245800272106  11.417457996418307 11.94631863645509  11.347499999999968 11.878499999999917  L 7.843500000000006 8.487749999999892  C 7.771017215748543 8.417160152800193  7.730133851434914 8.320276658433954  7.730133851434914 8.219100176282609  C 7.730133851434914 8.011993395096056  7.898027070248361 7.844100176282609  8.105133851434914 7.844100176282609  C 8.201901192913226 7.844100176282609  8.294922640900154 7.881507027996122  8.364750000000015 7.948499999999967  L 11.868749999999977 11.339250000000106  C 11.94208195215839 11.409931212127162  11.98350972653742 11.507400066620448  11.98350972653742 11.609250000126053  C 11.98350972653742 11.816356781312606  11.815616507723973 11.984250000126053  11.60850972653742 11.984250000126053  Z " stroke-width="0" stroke-dasharray="0" stroke="rgba(255, 255, 255, 0)" fill="none" transform="matrix(1 0 0 1 38 80 )" class="stroke" mask="url(#Clip224)" />
  </g>
</svg>