<?xml version="1.0" encoding="utf-8"?>
<svg version="1.1" xmlns:xlink="http://www.w3.org/1999/xlink" width="19px" height="23px" xmlns="http://www.w3.org/2000/svg">
  <g transform="matrix(1 0 0 1 -1369 -129 )">
    <path d="M 10.473170731707318 13.799999999999999  L 13.45060975609756 13.130125  L 13.470884146341463 13.1675  C 14.609146341463415 12.618374999999999  15.570731707317075 11.767375  16.25426829268293 10.7065  C 16.955182926829274 9.616875  17.328810975609755 8.357625  17.328810975609755 7.0638749999999995  C 17.328810975609755 5.246875  16.616310975609757 3.542  15.321646341463419 2.25975  C 14.026981707317075 0.9803749999999999  12.309451219512198 0.273125  10.484756097560979 0.273125  C 8.654268292682929 0.273125  6.9338414634146375 0.9775  5.639176829268296 2.25975  C 4.344512195121955 3.542  3.6320121951219537 5.246875  3.6320121951219537 7.0638749999999995  C 3.6320121951219537 8.363375  4.002743902439027 9.622625  4.703658536585368 10.712250000000001  C 5.366920731707319 11.738625000000003  6.293750000000002 12.569500000000001  7.388567073170735 13.121500000000001  C 5.476981707317077 13.722375  3.797103658536589 14.860874999999998  2.525609756097565 16.419125  C 1.2164634146341464 18.026249999999997  0.4373475609756104 19.964  0.27515243902439024 22.0225  C 0.2519817073170728 22.094375  0.2259146341463418 22.16625  0.2259146341463418 22.243875  C 0.2259146341463418 22.580250000000003  0.5010670731707321 22.853375000000003  0.8399390243902438 22.853375000000003  C 1.1643292682926827 22.853375000000003  1.427896341463415 22.60325  1.4510670731707325 22.287000000000003  L 1.4742378048780498 22.287000000000003  L 1.477134146341465 22.246750000000002  C 1.6190548780487815 19.972625  2.61829268292683 17.856625000000005  4.289481707317074 16.286875  C 5.966463414634147 14.711375000000002  8.164786585365857 13.843125  10.473170731707318 13.843125  L 10.473170731707318 13.799999999999999  Z M 4.845579268292684 7.0638749999999995  C 4.8513719512195115 5.571750000000001  5.439329268292684 4.16875  6.502286585365853 3.1136250000000008  C 7.5652439024390254 2.0585000000000004  8.981554878048781 1.4777500000000001  10.48185975609756 1.4777500000000001  C 13.578048780487805 1.4777500000000001  16.097865853658536 3.9847500000000005  16.097865853658536 7.063875000000001  C 16.097865853658536 10.143  13.575152439024393 12.65  10.473170731707318 12.65  C 7.371189024390244 12.65  4.845579268292684 10.143  4.845579268292684 7.0638749999999995  Z M 18.96234756097561 18.615624999999998  C 18.96234756097561 18.417250000000003  18.80015243902439 18.256249999999998  18.597408536585366 18.256249999999998  L 15.866158536585369 18.256249999999998  L 15.866158536585369 15.545125  C 15.866158536585369 15.346750000000004  15.70396341463415 15.182875000000001  15.501219512195123 15.182875000000001  L 15.09862804878049 15.182875000000001  C 14.898780487804881 15.182875000000001  14.733689024390245 15.343875000000002  14.733689024390245 15.545125  L 14.733689024390245 18.256249999999998  L 12.002439024390245 18.256249999999998  C 11.802591463414636 18.256249999999998  11.637500000000003 18.417250000000003  11.637500000000003 18.6185  L 11.637500000000003 19.018125  C 11.637500000000003 19.2165  11.799695121951222 19.380375  12.002439024390245 19.380375  L 14.733689024390245 19.380375  L 14.733689024390245 22.0915  C 14.733689024390245 22.289875  14.895884146341464 22.45375  15.09862804878049 22.45375  L 15.501219512195123 22.45375  C 15.701067073170732 22.45375  15.866158536585369 22.292749999999998  15.866158536585369 22.0915  L 15.866158536585369 19.3775  L 18.597408536585366 19.3775  C 18.797256097560975 19.3775  18.96234756097561 19.2165  18.96234756097561 19.015249999999998  L 18.96234756097561 18.615624999999998  Z " fill-rule="nonzero" fill="#409eff" stroke="none" transform="matrix(1 0 0 1 1369 129 )" />
  </g>
</svg>