<?xml version="1.0" encoding="utf-8"?>
<svg version="1.1" xmlns:xlink="http://www.w3.org/1999/xlink" width="24px" height="24px" xmlns="http://www.w3.org/2000/svg">
  <defs>
    <pattern id="BGPattern" patternUnits="userSpaceOnUse" alignment="0 0" imageRepeat="None" />
    <mask fill="white" id="Clip1987">
      <path d="M 11.999999999999998 21.900082704545454  C 14.817795085170944 21.90309827804491  17.502698557598112 20.70235289206686  19.378954772727273 18.600058704545454  L 17.774017602272725 18.600058704545454  C 17.31837936053988 18.600058704545454  16.94901158522727 18.23069092923285  16.94901158522727 17.775052687500004  C 16.94901158522727 17.319414445767155  17.31837936053988 16.95004667045455  17.774017602272725 16.95004667045455  L 21.07404160227273 16.950046670454544  C 21.52983279500952 16.95004659972104  21.899047673020352 17.319261477731878  21.899047673020352 17.77471111108468  L 21.899047602272727 21.075076704545456  C 21.899047602272727 21.53071498603855  21.529679834591633 21.900082753719648  21.074041602272725 21.900082753719648  C 20.618403369953825 21.900082753719648  20.249035602272727 21.53071498603855  20.249035602272727 21.075076753719646  L 20.249035602272723 20.084796306818184  C 18.07873717635186 22.30518672422627  15.103861184047833 23.555225682842465  11.99897556818182 23.551460625  C 5.620203988636365 23.551460625  0.44923302272727483 18.380148170454547  0.44923302272727483 12.001376590909093  C 0.44923302272727483 5.622605011363637  5.621228420454547 0.44992663636363706  12 0.44992663636363706  C 18.378771579545454 0.44992663636363706  23.550084034090908 5.620897636363638  23.550084034090908 12.000010670454547  C 23.550084034090908 12.45564890277345  23.180716266409814 12.825016670454545  22.725078034090906 12.825016670454545  C 22.269439801772002 12.825016670454545  21.900072034090908 12.45564890277345  21.900072034090908 12.000010670454547  C 21.900072034090908 6.532638511363635  17.46737215909091 2.0995971477272732  12 2.0995971818181824  C 6.53262784090909 2.099597215909091  2.100269454545454 6.532638511363635  2.100269454545454 12.000010670454547  C 2.100269454545454 17.467382829545457  6.532969329545454 21.900082704545454  11.999999999999998 21.900082704545454  Z " fill-rule="evenodd" />
    </mask>
  </defs>
  <g transform="matrix(1 0 0 1 -705 -129 )">
    <path d="M 11.999999999999998 21.900082704545454  C 14.817795085170944 21.90309827804491  17.502698557598112 20.70235289206686  19.378954772727273 18.600058704545454  L 17.774017602272725 18.600058704545454  C 17.31837936053988 18.600058704545454  16.94901158522727 18.23069092923285  16.94901158522727 17.775052687500004  C 16.94901158522727 17.319414445767155  17.31837936053988 16.95004667045455  17.774017602272725 16.95004667045455  L 21.07404160227273 16.950046670454544  C 21.52983279500952 16.95004659972104  21.899047673020352 17.319261477731878  21.899047673020352 17.77471111108468  L 21.899047602272727 21.075076704545456  C 21.899047602272727 21.53071498603855  21.529679834591633 21.900082753719648  21.074041602272725 21.900082753719648  C 20.618403369953825 21.900082753719648  20.249035602272727 21.53071498603855  20.249035602272727 21.075076753719646  L 20.249035602272723 20.084796306818184  C 18.07873717635186 22.30518672422627  15.103861184047833 23.555225682842465  11.99897556818182 23.551460625  C 5.620203988636365 23.551460625  0.44923302272727483 18.380148170454547  0.44923302272727483 12.001376590909093  C 0.44923302272727483 5.622605011363637  5.621228420454547 0.44992663636363706  12 0.44992663636363706  C 18.378771579545454 0.44992663636363706  23.550084034090908 5.620897636363638  23.550084034090908 12.000010670454547  C 23.550084034090908 12.45564890277345  23.180716266409814 12.825016670454545  22.725078034090906 12.825016670454545  C 22.269439801772002 12.825016670454545  21.900072034090908 12.45564890277345  21.900072034090908 12.000010670454547  C 21.900072034090908 6.532638511363635  17.46737215909091 2.0995971477272732  12 2.0995971818181824  C 6.53262784090909 2.099597215909091  2.100269454545454 6.532638511363635  2.100269454545454 12.000010670454547  C 2.100269454545454 17.467382829545457  6.532969329545454 21.900082704545454  11.999999999999998 21.900082704545454  Z " fill-rule="nonzero" fill="rgba(250, 173, 30, 1)" stroke="none" transform="matrix(1 0 0 1 705 129 )" class="fill" />
    <path d="M 11.999999999999998 21.900082704545454  C 14.817795085170944 21.90309827804491  17.502698557598112 20.70235289206686  19.378954772727273 18.600058704545454  L 17.774017602272725 18.600058704545454  C 17.31837936053988 18.600058704545454  16.94901158522727 18.23069092923285  16.94901158522727 17.775052687500004  C 16.94901158522727 17.319414445767155  17.31837936053988 16.95004667045455  17.774017602272725 16.95004667045455  L 21.07404160227273 16.950046670454544  C 21.52983279500952 16.95004659972104  21.899047673020352 17.319261477731878  21.899047673020352 17.77471111108468  L 21.899047602272727 21.075076704545456  C 21.899047602272727 21.53071498603855  21.529679834591633 21.900082753719648  21.074041602272725 21.900082753719648  C 20.618403369953825 21.900082753719648  20.249035602272727 21.53071498603855  20.249035602272727 21.075076753719646  L 20.249035602272723 20.084796306818184  C 18.07873717635186 22.30518672422627  15.103861184047833 23.555225682842465  11.99897556818182 23.551460625  C 5.620203988636365 23.551460625  0.44923302272727483 18.380148170454547  0.44923302272727483 12.001376590909093  C 0.44923302272727483 5.622605011363637  5.621228420454547 0.44992663636363706  12 0.44992663636363706  C 18.378771579545454 0.44992663636363706  23.550084034090908 5.620897636363638  23.550084034090908 12.000010670454547  C 23.550084034090908 12.45564890277345  23.180716266409814 12.825016670454545  22.725078034090906 12.825016670454545  C 22.269439801772002 12.825016670454545  21.900072034090908 12.45564890277345  21.900072034090908 12.000010670454547  C 21.900072034090908 6.532638511363635  17.46737215909091 2.0995971477272732  12 2.0995971818181824  C 6.53262784090909 2.099597215909091  2.100269454545454 6.532638511363635  2.100269454545454 12.000010670454547  C 2.100269454545454 17.467382829545457  6.532969329545454 21.900082704545454  11.999999999999998 21.900082704545454  Z " stroke-width="0" stroke-dasharray="0" stroke="rgba(255, 255, 255, 0)" fill="none" transform="matrix(1 0 0 1 705 129 )" class="stroke" mask="url(#Clip1987)" />
  </g>
</svg>