<?xml version="1.0" encoding="utf-8"?>
<svg version="1.1" xmlns:xlink="http://www.w3.org/1999/xlink" width="12px" height="23px" xmlns="http://www.w3.org/2000/svg">
  <defs>
    <pattern id="BGPattern" patternUnits="userSpaceOnUse" alignment="0 0" imageRepeat="None" />
    <mask fill="white" id="Clip1683">
      <path d="M 6.011999999999999 15.15125  C 6.8759999999999994 14.651  7.8149999999999995 14.288749999999999  8.799000000000001 14.078875  L 8.808000000000002 14.076  L 8.817000000000002 14.07025  C 9.306000000000001 13.687875  9.840000000000002 13.36875  10.299000000000001 13.107125  L 10.32 13.095624999999998  L 10.32 13.06975  C 10.32 13.043875000000002  10.311 13.023750000000001  10.305 13.003625000000001  C 10.299000000000001 12.989250000000002  10.296 12.974875000000003  10.296 12.963375000000003  C 10.296 12.871375  10.316999999999998 12.77075  10.356 12.673000000000002  L 10.376999999999999 12.621250000000003  L 10.316999999999998 12.615500000000003  C 8.870999999999999 12.491875000000004  7.5329999999999995 11.859375000000002  6.548999999999998 10.835875000000003  C 5.558999999999998 9.806625000000002  5.012999999999999 8.466875000000003  5.012999999999999 7.066750000000002  C 5.012999999999999 5.6608750000000025  5.564999999999999 4.315375000000002  6.563999999999999 3.2832500000000024  C 7.556999999999999 2.2568750000000017  8.903999999999998 1.6243750000000017  10.355999999999998 1.5065000000000026  L 10.370999999999999 1.5065000000000026  L 10.382999999999997 1.4950000000000025  C 10.769999999999996 1.1241250000000023  11.237999999999998 0.7733750000000026  11.813999999999997 0.41687500000000244  L 11.918999999999997 0.35075000000000256  L 11.795999999999996 0.33637500000000253  C 11.519999999999996 0.3047500000000027  11.177999999999995 0.26450000000000257  10.844999999999997 0.26450000000000257  C 8.951999999999996 0.27025000000000265  7.172999999999997 0.9803750000000023  5.837999999999997 2.262625000000003  C 4.496999999999998 3.5477500000000024  3.758999999999997 5.252625000000003  3.758999999999997 7.069625000000003  C 3.758999999999997 8.369125000000002  4.142999999999997 9.628375000000004  4.868999999999996 10.718000000000002  C 5.5559999999999965 11.744375000000002  6.5159999999999965 12.575250000000002  7.649999999999997 13.12725  C 5.669999999999996 13.728125  3.929999999999997 14.866625  2.6129999999999964 16.424875000000004  C 1.2540000000000002 18.026249999999997  0.44999999999999996 19.964  0.2789999999999999 22.0225  C 0.255 22.094375  0.22799999999999981 22.16625  0.22799999999999981 22.243875  C 0.22799999999999981 22.580250000000003  0.5129999999999998 22.853375000000003  0.8639999999999999 22.853375000000003  C 1.2000000000000002 22.853375000000003  1.4729999999999999 22.60325  1.497 22.287000000000003  L 1.5210000000000004 22.287000000000003  L 1.5240000000000005 22.246750000000002  C 1.6500000000000001 20.286  2.4210000000000003 18.463250000000002  3.7590000000000003 16.976875  C 4.407 16.25525  5.163000000000001 15.642875  6.011999999999999 15.15125  Z " fill-rule="evenodd" />
    </mask>
  </defs>
  <g transform="matrix(1 0 0 1 -1364 -129 )">
    <path d="M 6.011999999999999 15.15125  C 6.8759999999999994 14.651  7.8149999999999995 14.288749999999999  8.799000000000001 14.078875  L 8.808000000000002 14.076  L 8.817000000000002 14.07025  C 9.306000000000001 13.687875  9.840000000000002 13.36875  10.299000000000001 13.107125  L 10.32 13.095624999999998  L 10.32 13.06975  C 10.32 13.043875000000002  10.311 13.023750000000001  10.305 13.003625000000001  C 10.299000000000001 12.989250000000002  10.296 12.974875000000003  10.296 12.963375000000003  C 10.296 12.871375  10.316999999999998 12.77075  10.356 12.673000000000002  L 10.376999999999999 12.621250000000003  L 10.316999999999998 12.615500000000003  C 8.870999999999999 12.491875000000004  7.5329999999999995 11.859375000000002  6.548999999999998 10.835875000000003  C 5.558999999999998 9.806625000000002  5.012999999999999 8.466875000000003  5.012999999999999 7.066750000000002  C 5.012999999999999 5.6608750000000025  5.564999999999999 4.315375000000002  6.563999999999999 3.2832500000000024  C 7.556999999999999 2.2568750000000017  8.903999999999998 1.6243750000000017  10.355999999999998 1.5065000000000026  L 10.370999999999999 1.5065000000000026  L 10.382999999999997 1.4950000000000025  C 10.769999999999996 1.1241250000000023  11.237999999999998 0.7733750000000026  11.813999999999997 0.41687500000000244  L 11.918999999999997 0.35075000000000256  L 11.795999999999996 0.33637500000000253  C 11.519999999999996 0.3047500000000027  11.177999999999995 0.26450000000000257  10.844999999999997 0.26450000000000257  C 8.951999999999996 0.27025000000000265  7.172999999999997 0.9803750000000023  5.837999999999997 2.262625000000003  C 4.496999999999998 3.5477500000000024  3.758999999999997 5.252625000000003  3.758999999999997 7.069625000000003  C 3.758999999999997 8.369125000000002  4.142999999999997 9.628375000000004  4.868999999999996 10.718000000000002  C 5.5559999999999965 11.744375000000002  6.5159999999999965 12.575250000000002  7.649999999999997 13.12725  C 5.669999999999996 13.728125  3.929999999999997 14.866625  2.6129999999999964 16.424875000000004  C 1.2540000000000002 18.026249999999997  0.44999999999999996 19.964  0.2789999999999999 22.0225  C 0.255 22.094375  0.22799999999999981 22.16625  0.22799999999999981 22.243875  C 0.22799999999999981 22.580250000000003  0.5129999999999998 22.853375000000003  0.8639999999999999 22.853375000000003  C 1.2000000000000002 22.853375000000003  1.4729999999999999 22.60325  1.497 22.287000000000003  L 1.5210000000000004 22.287000000000003  L 1.5240000000000005 22.246750000000002  C 1.6500000000000001 20.286  2.4210000000000003 18.463250000000002  3.7590000000000003 16.976875  C 4.407 16.25525  5.163000000000001 15.642875  6.011999999999999 15.15125  Z " fill-rule="nonzero" fill="rgba(64, 158, 255, 1)" stroke="none" transform="matrix(1 0 0 1 1364 129 )" class="fill" />
    <path d="M 6.011999999999999 15.15125  C 6.8759999999999994 14.651  7.8149999999999995 14.288749999999999  8.799000000000001 14.078875  L 8.808000000000002 14.076  L 8.817000000000002 14.07025  C 9.306000000000001 13.687875  9.840000000000002 13.36875  10.299000000000001 13.107125  L 10.32 13.095624999999998  L 10.32 13.06975  C 10.32 13.043875000000002  10.311 13.023750000000001  10.305 13.003625000000001  C 10.299000000000001 12.989250000000002  10.296 12.974875000000003  10.296 12.963375000000003  C 10.296 12.871375  10.316999999999998 12.77075  10.356 12.673000000000002  L 10.376999999999999 12.621250000000003  L 10.316999999999998 12.615500000000003  C 8.870999999999999 12.491875000000004  7.5329999999999995 11.859375000000002  6.548999999999998 10.835875000000003  C 5.558999999999998 9.806625000000002  5.012999999999999 8.466875000000003  5.012999999999999 7.066750000000002  C 5.012999999999999 5.6608750000000025  5.564999999999999 4.315375000000002  6.563999999999999 3.2832500000000024  C 7.556999999999999 2.2568750000000017  8.903999999999998 1.6243750000000017  10.355999999999998 1.5065000000000026  L 10.370999999999999 1.5065000000000026  L 10.382999999999997 1.4950000000000025  C 10.769999999999996 1.1241250000000023  11.237999999999998 0.7733750000000026  11.813999999999997 0.41687500000000244  L 11.918999999999997 0.35075000000000256  L 11.795999999999996 0.33637500000000253  C 11.519999999999996 0.3047500000000027  11.177999999999995 0.26450000000000257  10.844999999999997 0.26450000000000257  C 8.951999999999996 0.27025000000000265  7.172999999999997 0.9803750000000023  5.837999999999997 2.262625000000003  C 4.496999999999998 3.5477500000000024  3.758999999999997 5.252625000000003  3.758999999999997 7.069625000000003  C 3.758999999999997 8.369125000000002  4.142999999999997 9.628375000000004  4.868999999999996 10.718000000000002  C 5.5559999999999965 11.744375000000002  6.5159999999999965 12.575250000000002  7.649999999999997 13.12725  C 5.669999999999996 13.728125  3.929999999999997 14.866625  2.6129999999999964 16.424875000000004  C 1.2540000000000002 18.026249999999997  0.44999999999999996 19.964  0.2789999999999999 22.0225  C 0.255 22.094375  0.22799999999999981 22.16625  0.22799999999999981 22.243875  C 0.22799999999999981 22.580250000000003  0.5129999999999998 22.853375000000003  0.8639999999999999 22.853375000000003  C 1.2000000000000002 22.853375000000003  1.4729999999999999 22.60325  1.497 22.287000000000003  L 1.5210000000000004 22.287000000000003  L 1.5240000000000005 22.246750000000002  C 1.6500000000000001 20.286  2.4210000000000003 18.463250000000002  3.7590000000000003 16.976875  C 4.407 16.25525  5.163000000000001 15.642875  6.011999999999999 15.15125  Z " stroke-width="0" stroke-dasharray="0" stroke="rgba(255, 255, 255, 0)" fill="none" transform="matrix(1 0 0 1 1364 129 )" class="stroke" mask="url(#Clip1683)" />
  </g>
</svg>