<?xml version="1.0" encoding="utf-8"?>
<svg version="1.1" xmlns:xlink="http://www.w3.org/1999/xlink" width="16px" height="21px" xmlns="http://www.w3.org/2000/svg">
  <defs>
    <pattern id="BGPattern" patternUnits="userSpaceOnUse" alignment="0 0" imageRepeat="None" />
    <mask fill="white" id="Clip1995">
      <path d="M 9.947352941176469 11.823183139534882  C 13.027647058823527 11.823183139534882  15.548235294117644 9.207340116279067  15.548235294117646 6.013386627906976  C 15.548235294117646 2.8166860465116272  13.027647058823527 0.20328488372093012  9.94970588235294 0.20328488372093012  C 6.871764705882352 0.20328488372093012  4.351176470588234 2.8188226744186053  4.351176470588234 6.013386627906976  C 4.351176470588234 8.045625  5.331470588235292 9.862063953488374  6.8717647058823506 10.879404069767439  C 2.950588235294116 12.186104651162792  0.15117647058823322 16.034781976744185  0.15117647058823322 20.53818313953488  L 1.5497058823529395 20.53818313953488  C 1.5497058823529395 15.745421511627903  5.329117647058822 11.823183139534882  9.947352941176469 11.823183139534882  Z M 14.149999999999997 6.013386627906976  C 14.147352941176466 8.408241279069767  12.259999999999998 10.369665697674419  9.95 10.369665697674419  C 7.639705882352939 10.369665697674419  5.7523529411764684 8.408546511627907  5.7523529411764684 6.013386627906976  C 5.7523529411764684 3.6157848837209294  7.64205882352941 1.654665697674418  9.95 1.654665697674418  C 12.260294117647057 1.654665697674418  14.149999999999997 3.6157848837209294  14.149999999999997 6.013386627906976  Z " fill-rule="evenodd" />
    </mask>
  </defs>
  <g transform="matrix(1 0 0 1 -50 -270 )">
    <path d="M 9.947352941176469 11.823183139534882  C 13.027647058823527 11.823183139534882  15.548235294117644 9.207340116279067  15.548235294117646 6.013386627906976  C 15.548235294117646 2.8166860465116272  13.027647058823527 0.20328488372093012  9.94970588235294 0.20328488372093012  C 6.871764705882352 0.20328488372093012  4.351176470588234 2.8188226744186053  4.351176470588234 6.013386627906976  C 4.351176470588234 8.045625  5.331470588235292 9.862063953488374  6.8717647058823506 10.879404069767439  C 2.950588235294116 12.186104651162792  0.15117647058823322 16.034781976744185  0.15117647058823322 20.53818313953488  L 1.5497058823529395 20.53818313953488  C 1.5497058823529395 15.745421511627903  5.329117647058822 11.823183139534882  9.947352941176469 11.823183139534882  Z M 14.149999999999997 6.013386627906976  C 14.147352941176466 8.408241279069767  12.259999999999998 10.369665697674419  9.95 10.369665697674419  C 7.639705882352939 10.369665697674419  5.7523529411764684 8.408546511627907  5.7523529411764684 6.013386627906976  C 5.7523529411764684 3.6157848837209294  7.64205882352941 1.654665697674418  9.95 1.654665697674418  C 12.260294117647057 1.654665697674418  14.149999999999997 3.6157848837209294  14.149999999999997 6.013386627906976  Z " fill-rule="nonzero" fill="rgba(250, 173, 30, 1)" stroke="none" transform="matrix(1 0 0 1 50 270 )" class="fill" />
    <path d="M 9.947352941176469 11.823183139534882  C 13.027647058823527 11.823183139534882  15.548235294117644 9.207340116279067  15.548235294117646 6.013386627906976  C 15.548235294117646 2.8166860465116272  13.027647058823527 0.20328488372093012  9.94970588235294 0.20328488372093012  C 6.871764705882352 0.20328488372093012  4.351176470588234 2.8188226744186053  4.351176470588234 6.013386627906976  C 4.351176470588234 8.045625  5.331470588235292 9.862063953488374  6.8717647058823506 10.879404069767439  C 2.950588235294116 12.186104651162792  0.15117647058823322 16.034781976744185  0.15117647058823322 20.53818313953488  L 1.5497058823529395 20.53818313953488  C 1.5497058823529395 15.745421511627903  5.329117647058822 11.823183139534882  9.947352941176469 11.823183139534882  Z " stroke-width="0" stroke-dasharray="0" stroke="rgba(255, 255, 255, 0)" fill="none" transform="matrix(1 0 0 1 50 270 )" class="stroke" mask="url(#Clip1995)" />
    <path d="M 14.149999999999997 6.013386627906976  C 14.147352941176466 8.408241279069767  12.259999999999998 10.369665697674419  9.95 10.369665697674419  C 7.639705882352939 10.369665697674419  5.7523529411764684 8.408546511627907  5.7523529411764684 6.013386627906976  C 5.7523529411764684 3.6157848837209294  7.64205882352941 1.654665697674418  9.95 1.654665697674418  C 12.260294117647057 1.654665697674418  14.149999999999997 3.6157848837209294  14.149999999999997 6.013386627906976  Z " stroke-width="0" stroke-dasharray="0" stroke="rgba(255, 255, 255, 0)" fill="none" transform="matrix(1 0 0 1 50 270 )" class="stroke" mask="url(#Clip1995)" />
  </g>
</svg>