<?xml version="1.0" encoding="utf-8"?>
<svg version="1.1" xmlns:xlink="http://www.w3.org/1999/xlink" width="24px" height="24px" xmlns="http://www.w3.org/2000/svg">
  <defs>
    <pattern id="BGPattern" patternUnits="userSpaceOnUse" alignment="0 0" imageRepeat="None" />
    <mask fill="white" id="Clip1277">
      <path d="M 11.9433046875 0.07361718749999913  C 18.521460937500002 0.07361718749999913  23.8540078125 5.406187499999999  23.8540078125 11.9843203125  C 23.8540078125 18.5624296875  18.521437499999998 23.895046875  11.94328125 23.895046875  C 5.365125000000001 23.895046875  0.03257812499999968 18.5624296875  0.03257812499999968 11.9843203125  C 0.03257812499999968 5.406234374999999  5.365148437499999 0.07361718749999913  11.9433046875 0.07361718749999913  Z M 4.58315625 10.6153828125  L 5.3890078125 10.6153828125  L 5.3890078125 11.951015625  L 4.4787187500000005 12.10771875  L 4.5831796875 13.189640625000001  L 5.38903125 12.988171875  L 5.38903125 14.308875  C 5.3865234375 14.4407578125  5.36165625 14.533382812500001  5.31440625 14.586820312500002  C 5.267156250000001 14.640351562500001  5.177578125 14.667000000000003  5.0457890625 14.667000000000003  C 4.906499999999999 14.667000000000003  4.739859375 14.659546875000004  4.5458671875 14.644617187500003  C 4.665234375 15.077390625000003  4.7497968749999995 15.415593750000003  4.799578125 15.659414062500002  C 5.481046875 15.659414062500002  5.910046874999999 15.582281250000001  6.086695312499999 15.428085937500002  C 6.263273437499999 15.273843750000001  6.351562499999998 15.030117187500002  6.351562499999998 14.696835937500001  L 6.351562499999998 12.7568203125  L 7.0977187499999985 12.585187500000002  C 7.092703124999999 12.361335937500002  7.102664062499999 12.030562500000002  7.127578124999999 11.592796875000001  C 6.881343749999998 11.650054687500003  6.622664062499998 11.706000000000001  6.351562499999998 11.760679687500001  L 6.351562499999998 10.615335937500003  L 7.090265624999998 10.615335937500003  L 7.090265624999998 9.645328125000002  L 6.351562499999997 9.645328125000002  L 6.351562499999997 8.332078125000002  L 5.389031249999998 8.332078125000002  L 5.389031249999998 9.645328125000002  L 4.583179687499998 9.645328125000002  L 4.583179687499998 10.615406250000003  Z M 8.269171875 11.294390625  L 8.269171875 9.496125  L 10.4106796875 9.496125  C 10.4106796875 9.7398984375  10.370859374999998 9.8990390625  10.291312499999998 9.9736640625  C 10.211695312499998 10.0482890625  10.077351562499999 10.085625  9.8883984375 10.085625  C 9.612328125 10.085625  9.259125 10.0706953125  8.828859375 10.040859375  C 8.923359374999999 10.394062499999999  8.990507812499999 10.6999921875  9.030328125 10.958625  C 9.5252578125 10.963640625  9.939375 10.964226562499999  10.2726796875 10.9605  C 10.6059609375 10.956773437499999  10.870828125 10.865367187499999  11.0673515625 10.68628125  C 11.2638046875 10.507171875  11.375718749999999 10.2435703125  11.403117187500001 9.895359375  C 11.4304453125 9.5471953125  11.447882812500001 9.120609375  11.455359375 8.6156953125  L 7.284304687500001 8.6156953125  L 7.284304687500001 15.681843749999999  L 8.26921875 15.681843749999999  L 8.26921875 15.0774609375  C 8.433375000000002 15.316242187499999  8.5602421875 15.5226328125  8.649750000000001 15.696749999999998  C 9.119835937500001 15.415640624999998  9.538898437500002 15.103546875  9.907031250000001 14.760328125000001  C 10.324898437500002 15.1358671875  10.78378125 15.4480078125  11.283703125 15.696749999999998  C 11.517445312500001 15.3037265625  11.726367187500001 14.967984374999997  11.9104453125 14.689453125  C 11.4105234375 14.525296874999999  10.9603359375 14.310210937499999  10.5599296875 14.04403125  C 11.000179687500001 13.4769609375  11.33090625 12.8389921875  11.552320312500001 12.130101562499998  L 11.552320312500001 11.294390624999998  L 8.269242187500002 11.294390624999998  Z M 8.328843749999999 12.697171874999999  C 8.594953125 13.19709375  8.893382812499999 13.647281249999999  9.224273437499999 14.047687499999999  C 8.9431640625 14.2616484375  8.624812499999999 14.451914062499998  8.269171875 14.618507812499999  L 8.269171875 12.174843749999997  L 10.530046875 12.174843749999997  C 10.3808203125 12.652382812499997  10.1519765625 13.077703125  9.8435859375 13.4508046875  C 9.497859375 13.100085937499998  9.20934375 12.6922265625  8.978039062499999 12.227109374999998  L 8.3288671875 12.6971953125  Z M 12.104414062500002 11.6823984375  C 12.283523437500001 12.2445234375  12.407835937500002 12.679828125  12.477515625 12.988171875  C 12.676476562500001 12.724570312500003  12.865523437499998 12.453421875  13.044585937500003 12.17484375  L 13.044585937500003 15.637007812500002  L 14.066835937500002 15.637007812500002  L 14.066835937500002 10.309429687500002  C 14.300578125000001 9.787101562500002  14.507085937500001 9.247429687500002  14.686125 8.690250000000002  L 13.663875 8.384320312500002  C 13.216195312500002 9.762281250000003  12.696328125 10.861570312500003  12.104390625 11.682351562500003  Z M 17.402156249999997 15.59971875  L 18.484078125 15.59971875  L 18.484078125 11.540601562500001  C 18.6581484375 11.6998125  18.844710937499997 11.851546875  19.0436953125 11.99578125  L 19.5436171875 10.928765625  C 18.6929765625 10.3616953125  18.011484375000002 9.630445312500001  17.499140625 8.7350390625  L 17.663296875 8.4962578125  L 16.439601562500002 8.4962578125  C 15.817781250000001 9.530976562500001  15.064148437499998 10.389046875  14.178726562500001 11.0705390625  C 14.382656250000002 11.448609375  14.554265625000003 11.781890625  14.693578125000002 12.070406250000001  C 14.887570312500003 11.916234375000002  15.074109375 11.757023437500001  15.2531953125 11.592867187500001  C 15.2531953125 12.140062499999999  15.248179687499999 12.53803125  15.238265625 12.78675  C 15.21834375 13.6672265625  14.909976562500002 14.388515625  14.313046875000001 14.9506171875  C 14.661210937500002 15.2341640625  14.927367187500002 15.485367187500001  15.111445312500003 15.70425  C 15.9123046875 15.057539062500002  16.312734375 14.0403046875  16.312734375 12.652476562499999  C 16.322625000000002 12.383859374999998  16.327664062500002 11.995828125  16.327664062500002 11.488476562499999  L 15.35765625 11.488476562499999  C 15.994359375000002 10.891546875  16.5191484375 10.249828124999999  16.932046874999997 9.563367187499999  C 17.315015625 10.279687499999998  17.812523437499998 10.918945312499998  18.424406249999997 11.480999999999998  L 17.402156249999997 11.480999999999998  L 17.402156249999997 15.5998359375  Z " fill-rule="evenodd" />
    </mask>
  </defs>
  <g transform="matrix(1 0 0 1 -46 -129 )">
    <path d="M 11.9433046875 0.07361718749999913  C 18.521460937500002 0.07361718749999913  23.8540078125 5.406187499999999  23.8540078125 11.9843203125  C 23.8540078125 18.5624296875  18.521437499999998 23.895046875  11.94328125 23.895046875  C 5.365125000000001 23.895046875  0.03257812499999968 18.5624296875  0.03257812499999968 11.9843203125  C 0.03257812499999968 5.406234374999999  5.365148437499999 0.07361718749999913  11.9433046875 0.07361718749999913  Z M 4.58315625 10.6153828125  L 5.3890078125 10.6153828125  L 5.3890078125 11.951015625  L 4.4787187500000005 12.10771875  L 4.5831796875 13.189640625000001  L 5.38903125 12.988171875  L 5.38903125 14.308875  C 5.3865234375 14.4407578125  5.36165625 14.533382812500001  5.31440625 14.586820312500002  C 5.267156250000001 14.640351562500001  5.177578125 14.667000000000003  5.0457890625 14.667000000000003  C 4.906499999999999 14.667000000000003  4.739859375 14.659546875000004  4.5458671875 14.644617187500003  C 4.665234375 15.077390625000003  4.7497968749999995 15.415593750000003  4.799578125 15.659414062500002  C 5.481046875 15.659414062500002  5.910046874999999 15.582281250000001  6.086695312499999 15.428085937500002  C 6.263273437499999 15.273843750000001  6.351562499999998 15.030117187500002  6.351562499999998 14.696835937500001  L 6.351562499999998 12.7568203125  L 7.0977187499999985 12.585187500000002  C 7.092703124999999 12.361335937500002  7.102664062499999 12.030562500000002  7.127578124999999 11.592796875000001  C 6.881343749999998 11.650054687500003  6.622664062499998 11.706000000000001  6.351562499999998 11.760679687500001  L 6.351562499999998 10.615335937500003  L 7.090265624999998 10.615335937500003  L 7.090265624999998 9.645328125000002  L 6.351562499999997 9.645328125000002  L 6.351562499999997 8.332078125000002  L 5.389031249999998 8.332078125000002  L 5.389031249999998 9.645328125000002  L 4.583179687499998 9.645328125000002  L 4.583179687499998 10.615406250000003  Z M 8.269171875 11.294390625  L 8.269171875 9.496125  L 10.4106796875 9.496125  C 10.4106796875 9.7398984375  10.370859374999998 9.8990390625  10.291312499999998 9.9736640625  C 10.211695312499998 10.0482890625  10.077351562499999 10.085625  9.8883984375 10.085625  C 9.612328125 10.085625  9.259125 10.0706953125  8.828859375 10.040859375  C 8.923359374999999 10.394062499999999  8.990507812499999 10.6999921875  9.030328125 10.958625  C 9.5252578125 10.963640625  9.939375 10.964226562499999  10.2726796875 10.9605  C 10.6059609375 10.956773437499999  10.870828125 10.865367187499999  11.0673515625 10.68628125  C 11.2638046875 10.507171875  11.375718749999999 10.2435703125  11.403117187500001 9.895359375  C 11.4304453125 9.5471953125  11.447882812500001 9.120609375  11.455359375 8.6156953125  L 7.284304687500001 8.6156953125  L 7.284304687500001 15.681843749999999  L 8.26921875 15.681843749999999  L 8.26921875 15.0774609375  C 8.433375000000002 15.316242187499999  8.5602421875 15.5226328125  8.649750000000001 15.696749999999998  C 9.119835937500001 15.415640624999998  9.538898437500002 15.103546875  9.907031250000001 14.760328125000001  C 10.324898437500002 15.1358671875  10.78378125 15.4480078125  11.283703125 15.696749999999998  C 11.517445312500001 15.3037265625  11.726367187500001 14.967984374999997  11.9104453125 14.689453125  C 11.4105234375 14.525296874999999  10.9603359375 14.310210937499999  10.5599296875 14.04403125  C 11.000179687500001 13.4769609375  11.33090625 12.8389921875  11.552320312500001 12.130101562499998  L 11.552320312500001 11.294390624999998  L 8.269242187500002 11.294390624999998  Z M 8.328843749999999 12.697171874999999  C 8.594953125 13.19709375  8.893382812499999 13.647281249999999  9.224273437499999 14.047687499999999  C 8.9431640625 14.2616484375  8.624812499999999 14.451914062499998  8.269171875 14.618507812499999  L 8.269171875 12.174843749999997  L 10.530046875 12.174843749999997  C 10.3808203125 12.652382812499997  10.1519765625 13.077703125  9.8435859375 13.4508046875  C 9.497859375 13.100085937499998  9.20934375 12.6922265625  8.978039062499999 12.227109374999998  L 8.3288671875 12.6971953125  Z M 12.104414062500002 11.6823984375  C 12.283523437500001 12.2445234375  12.407835937500002 12.679828125  12.477515625 12.988171875  C 12.676476562500001 12.724570312500003  12.865523437499998 12.453421875  13.044585937500003 12.17484375  L 13.044585937500003 15.637007812500002  L 14.066835937500002 15.637007812500002  L 14.066835937500002 10.309429687500002  C 14.300578125000001 9.787101562500002  14.507085937500001 9.247429687500002  14.686125 8.690250000000002  L 13.663875 8.384320312500002  C 13.216195312500002 9.762281250000003  12.696328125 10.861570312500003  12.104390625 11.682351562500003  Z M 17.402156249999997 15.59971875  L 18.484078125 15.59971875  L 18.484078125 11.540601562500001  C 18.6581484375 11.6998125  18.844710937499997 11.851546875  19.0436953125 11.99578125  L 19.5436171875 10.928765625  C 18.6929765625 10.3616953125  18.011484375000002 9.630445312500001  17.499140625 8.7350390625  L 17.663296875 8.4962578125  L 16.439601562500002 8.4962578125  C 15.817781250000001 9.530976562500001  15.064148437499998 10.389046875  14.178726562500001 11.0705390625  C 14.382656250000002 11.448609375  14.554265625000003 11.781890625  14.693578125000002 12.070406250000001  C 14.887570312500003 11.916234375000002  15.074109375 11.757023437500001  15.2531953125 11.592867187500001  C 15.2531953125 12.140062499999999  15.248179687499999 12.53803125  15.238265625 12.78675  C 15.21834375 13.6672265625  14.909976562500002 14.388515625  14.313046875000001 14.9506171875  C 14.661210937500002 15.2341640625  14.927367187500002 15.485367187500001  15.111445312500003 15.70425  C 15.9123046875 15.057539062500002  16.312734375 14.0403046875  16.312734375 12.652476562499999  C 16.322625000000002 12.383859374999998  16.327664062500002 11.995828125  16.327664062500002 11.488476562499999  L 15.35765625 11.488476562499999  C 15.994359375000002 10.891546875  16.5191484375 10.249828124999999  16.932046874999997 9.563367187499999  C 17.315015625 10.279687499999998  17.812523437499998 10.918945312499998  18.424406249999997 11.480999999999998  L 17.402156249999997 11.480999999999998  L 17.402156249999997 15.5998359375  Z " fill-rule="nonzero" fill="rgba(64, 158, 255, 1)" stroke="none" transform="matrix(1 0 0 1 46 129 )" class="fill" />
    <path d="M 11.9433046875 0.07361718749999913  C 18.521460937500002 0.07361718749999913  23.8540078125 5.406187499999999  23.8540078125 11.9843203125  C 23.8540078125 18.5624296875  18.521437499999998 23.895046875  11.94328125 23.895046875  C 5.365125000000001 23.895046875  0.03257812499999968 18.5624296875  0.03257812499999968 11.9843203125  C 0.03257812499999968 5.406234374999999  5.365148437499999 0.07361718749999913  11.9433046875 0.07361718749999913  Z " stroke-width="0" stroke-dasharray="0" stroke="rgba(255, 255, 255, 0)" fill="none" transform="matrix(1 0 0 1 46 129 )" class="stroke" mask="url(#Clip1277)" />
    <path d="M 4.58315625 10.6153828125  L 5.3890078125 10.6153828125  L 5.3890078125 11.951015625  L 4.4787187500000005 12.10771875  L 4.5831796875 13.189640625000001  L 5.38903125 12.988171875  L 5.38903125 14.308875  C 5.3865234375 14.4407578125  5.36165625 14.533382812500001  5.31440625 14.586820312500002  C 5.267156250000001 14.640351562500001  5.177578125 14.667000000000003  5.0457890625 14.667000000000003  C 4.906499999999999 14.667000000000003  4.739859375 14.659546875000004  4.5458671875 14.644617187500003  C 4.665234375 15.077390625000003  4.7497968749999995 15.415593750000003  4.799578125 15.659414062500002  C 5.481046875 15.659414062500002  5.910046874999999 15.582281250000001  6.086695312499999 15.428085937500002  C 6.263273437499999 15.273843750000001  6.351562499999998 15.030117187500002  6.351562499999998 14.696835937500001  L 6.351562499999998 12.7568203125  L 7.0977187499999985 12.585187500000002  C 7.092703124999999 12.361335937500002  7.102664062499999 12.030562500000002  7.127578124999999 11.592796875000001  C 6.881343749999998 11.650054687500003  6.622664062499998 11.706000000000001  6.351562499999998 11.760679687500001  L 6.351562499999998 10.615335937500003  L 7.090265624999998 10.615335937500003  L 7.090265624999998 9.645328125000002  L 6.351562499999997 9.645328125000002  L 6.351562499999997 8.332078125000002  L 5.389031249999998 8.332078125000002  L 5.389031249999998 9.645328125000002  L 4.583179687499998 9.645328125000002  L 4.583179687499998 10.615406250000003  Z " stroke-width="0" stroke-dasharray="0" stroke="rgba(255, 255, 255, 0)" fill="none" transform="matrix(1 0 0 1 46 129 )" class="stroke" mask="url(#Clip1277)" />
    <path d="M 8.269171875 11.294390625  L 8.269171875 9.496125  L 10.4106796875 9.496125  C 10.4106796875 9.7398984375  10.370859374999998 9.8990390625  10.291312499999998 9.9736640625  C 10.211695312499998 10.0482890625  10.077351562499999 10.085625  9.8883984375 10.085625  C 9.612328125 10.085625  9.259125 10.0706953125  8.828859375 10.040859375  C 8.923359374999999 10.394062499999999  8.990507812499999 10.6999921875  9.030328125 10.958625  C 9.5252578125 10.963640625  9.939375 10.964226562499999  10.2726796875 10.9605  C 10.6059609375 10.956773437499999  10.870828125 10.865367187499999  11.0673515625 10.68628125  C 11.2638046875 10.507171875  11.375718749999999 10.2435703125  11.403117187500001 9.895359375  C 11.4304453125 9.5471953125  11.447882812500001 9.120609375  11.455359375 8.6156953125  L 7.284304687500001 8.6156953125  L 7.284304687500001 15.681843749999999  L 8.26921875 15.681843749999999  L 8.26921875 15.0774609375  C 8.433375000000002 15.316242187499999  8.5602421875 15.5226328125  8.649750000000001 15.696749999999998  C 9.119835937500001 15.415640624999998  9.538898437500002 15.103546875  9.907031250000001 14.760328125000001  C 10.324898437500002 15.1358671875  10.78378125 15.4480078125  11.283703125 15.696749999999998  C 11.517445312500001 15.3037265625  11.726367187500001 14.967984374999997  11.9104453125 14.689453125  C 11.4105234375 14.525296874999999  10.9603359375 14.310210937499999  10.5599296875 14.04403125  C 11.000179687500001 13.4769609375  11.33090625 12.8389921875  11.552320312500001 12.130101562499998  L 11.552320312500001 11.294390624999998  L 8.269242187500002 11.294390624999998  Z " stroke-width="0" stroke-dasharray="0" stroke="rgba(255, 255, 255, 0)" fill="none" transform="matrix(1 0 0 1 46 129 )" class="stroke" mask="url(#Clip1277)" />
    <path d="M 8.328843749999999 12.697171874999999  C 8.594953125 13.19709375  8.893382812499999 13.647281249999999  9.224273437499999 14.047687499999999  C 8.9431640625 14.2616484375  8.624812499999999 14.451914062499998  8.269171875 14.618507812499999  L 8.269171875 12.174843749999997  L 10.530046875 12.174843749999997  C 10.3808203125 12.652382812499997  10.1519765625 13.077703125  9.8435859375 13.4508046875  C 9.497859375 13.100085937499998  9.20934375 12.6922265625  8.978039062499999 12.227109374999998  L 8.3288671875 12.6971953125  Z " stroke-width="0" stroke-dasharray="0" stroke="rgba(255, 255, 255, 0)" fill="none" transform="matrix(1 0 0 1 46 129 )" class="stroke" mask="url(#Clip1277)" />
    <path d="M 12.104414062500002 11.6823984375  C 12.283523437500001 12.2445234375  12.407835937500002 12.679828125  12.477515625 12.988171875  C 12.676476562500001 12.724570312500003  12.865523437499998 12.453421875  13.044585937500003 12.17484375  L 13.044585937500003 15.637007812500002  L 14.066835937500002 15.637007812500002  L 14.066835937500002 10.309429687500002  C 14.300578125000001 9.787101562500002  14.507085937500001 9.247429687500002  14.686125 8.690250000000002  L 13.663875 8.384320312500002  C 13.216195312500002 9.762281250000003  12.696328125 10.861570312500003  12.104390625 11.682351562500003  Z " stroke-width="0" stroke-dasharray="0" stroke="rgba(255, 255, 255, 0)" fill="none" transform="matrix(1 0 0 1 46 129 )" class="stroke" mask="url(#Clip1277)" />
    <path d="M 17.402156249999997 15.59971875  L 18.484078125 15.59971875  L 18.484078125 11.540601562500001  C 18.6581484375 11.6998125  18.844710937499997 11.851546875  19.0436953125 11.99578125  L 19.5436171875 10.928765625  C 18.6929765625 10.3616953125  18.011484375000002 9.630445312500001  17.499140625 8.7350390625  L 17.663296875 8.4962578125  L 16.439601562500002 8.4962578125  C 15.817781250000001 9.530976562500001  15.064148437499998 10.389046875  14.178726562500001 11.0705390625  C 14.382656250000002 11.448609375  14.554265625000003 11.781890625  14.693578125000002 12.070406250000001  C 14.887570312500003 11.916234375000002  15.074109375 11.757023437500001  15.2531953125 11.592867187500001  C 15.2531953125 12.140062499999999  15.248179687499999 12.53803125  15.238265625 12.78675  C 15.21834375 13.6672265625  14.909976562500002 14.388515625  14.313046875000001 14.9506171875  C 14.661210937500002 15.2341640625  14.927367187500002 15.485367187500001  15.111445312500003 15.70425  C 15.9123046875 15.057539062500002  16.312734375 14.0403046875  16.312734375 12.652476562499999  C 16.322625000000002 12.383859374999998  16.327664062500002 11.995828125  16.327664062500002 11.488476562499999  L 15.35765625 11.488476562499999  C 15.994359375000002 10.891546875  16.5191484375 10.249828124999999  16.932046874999997 9.563367187499999  C 17.315015625 10.279687499999998  17.812523437499998 10.918945312499998  18.424406249999997 11.480999999999998  L 17.402156249999997 11.480999999999998  L 17.402156249999997 15.5998359375  Z " stroke-width="0" stroke-dasharray="0" stroke="rgba(255, 255, 255, 0)" fill="none" transform="matrix(1 0 0 1 46 129 )" class="stroke" mask="url(#Clip1277)" />
  </g>
</svg>