<?xml version="1.0" encoding="utf-8"?>
<svg version="1.1" xmlns:xlink="http://www.w3.org/1999/xlink" width="19px" height="19px" xmlns="http://www.w3.org/2000/svg">
  <defs>
    <pattern id="BGPattern" patternUnits="userSpaceOnUse" alignment="0 0" imageRepeat="None" />
    <mask fill="white" id="Clip1484">
      <path d="M 13.480952380952377 0.37295609756097403  L 0.7419047619047622 0.37295609756097403  C 0.5020553848353893 0.37295609756097403  0.30761904761904746 0.5721347844655192  0.30761904761904746 0.8178341463414622  C 0.30761904761904746 1.0635335082174053  0.5020553848353893 1.2627121951219504  0.7419047619047622 1.2627121951219504  L 13.480952380952377 1.262712195121952  C 13.720801758021754 1.2627121951219504  13.91523809523809 1.0635335082174053  13.91523809523809 0.8178341463414622  C 13.91523809523809 0.5721347844655192  13.720801758021754 0.37295609756097403  13.480952380952377 0.37295609756097403  Z M 9.42761904761905 5.05900487804878  L 0.7419047619047622 5.05900487804878  C 0.5020554107208344 5.059004878048778  0.30761907350449347 5.258183564953321  0.30761907350449347 5.503882926829265  C 0.30761907350449347 5.749582288705209  0.5020554107208344 5.948760975609753  0.7419047877902073 5.948760975609753  L 9.42761904761905 5.948760975609753  C 9.667468424688426 5.948760975609753  9.861904761904764 5.749582288705209  9.861904761904764 5.503882926829265  C 9.861904761904764 5.258183564953321  9.667468424688426 5.059004878048778  9.42761904761905 5.059004878048778  Z M 0.7419047619047622 10.64074146341463  L 4.887885714285714 10.64074146341463  C 5.127735091355087 10.64074146341463  5.322171428571427 10.441562776510088  5.322171428571427 10.195863414634141  C 5.322171428571427 9.950164052758197  5.127735091355087 9.750985365853655  4.887885714285714 9.750985365853655  L 0.7419047619047622 9.750985365853655  C 0.5020553848353893 9.750985365853655  0.30761904761904746 9.950164052758197  0.30761904761904746 10.195863414634141  C 0.30761904761904746 10.441562776510088  0.5020553848353893 10.64074146341463  0.7419047619047622 10.64074146341463  Z M 18.935580952380956 11.921990243902433  C 18.932431875274993 11.520387084589466  18.615393560281714 11.195616127767082  18.22335238095238 11.192390243902441  L 17.893295238095238 11.192390243902436  C 17.522139387852512 11.186194283165552  17.154450082442658 11.118075403024754  16.80468571428572 10.990712195121954  C 16.36352460779978 10.812471998261827  15.945409064743462 10.57938977720922  15.559733333333334 10.29670243902439  L 15.362857142857145 10.154341463414635  C 15.114552246373853 9.968390965007094  14.777333467911864 9.968390965007094  14.529028571428569 10.154341463414635  L 14.332152380952378 10.30263414634146  C 13.963704010341013 10.583382409294506  13.558176523161135 10.809066444725522  13.127733333333335 10.97291707317073  C 12.788178055094729 11.109037541375876  12.426913755232002 11.179432361205969  12.062285714285714 11.180526829268292  L 11.709066666666669 11.180526829268292  C 11.315713688272897 11.180526829268292  10.996838095238097 11.507179875791742  10.996838095238097 11.91012682926829  L 10.996838095238097 14.875980487804874  C 11.00318052704484 17.118301290924716  12.774393654505857 18.935363517323385  14.96331428571429 18.945131707317067  C 17.154496570243886 18.938616061667595  18.92922044115171 17.12060624268885  18.935580952380956 14.875980487804874  L 18.935580952380956 11.921990243902433  Z M 18.061219047619044 12.076214634146337  L 18.061219047619044 14.846321951219512  C 18.06314898123155 14.892060901057386  18.064114285714286 14.937837217450538  18.064114285714286 14.983618874057633  C 18.064114285714286 16.73955031359771  16.674542595741496 18.163013996008853  14.960419047619043 18.163013996008853  C 13.246295499496593 18.163013996008853  11.856723809523807 16.739550313597704  11.856723809523807 14.983618874057633  C 11.856723809523807 14.937837217450538  11.857689114006542 14.892060901057386  11.859619047619045 14.846321951219512  L 11.859619047619045 12.07621463414634  L 12.05070476190476 12.076214634146337  C 12.52368667266326 12.076361388545486  12.99270816071185 11.987908310689194  13.434628571428568 11.81521951219512  C 13.941835686086202 11.620337664014738  14.419484784667686 11.35272102620323  14.853295238095237 11.020370731707313  L 14.95752380952381 10.94325853658536  L 15.055961904761906 11.014439024390237  C 15.499770655988428 11.34569702078154  15.984635170130108 11.614987038920763  16.497790476190474 11.815219512195116  C 16.941536063921827 11.981143018400136  17.409378825558047 12.069373799449602  17.88171428571428 12.076214634146337  L 18.061219047619044 12.076214634146337  Z " fill-rule="evenodd" />
    </mask>
  </defs>
  <g transform="matrix(1 0 0 1 -381 -134 )">
    <path d="M 13.480952380952377 0.37295609756097403  L 0.7419047619047622 0.37295609756097403  C 0.5020553848353893 0.37295609756097403  0.30761904761904746 0.5721347844655192  0.30761904761904746 0.8178341463414622  C 0.30761904761904746 1.0635335082174053  0.5020553848353893 1.2627121951219504  0.7419047619047622 1.2627121951219504  L 13.480952380952377 1.262712195121952  C 13.720801758021754 1.2627121951219504  13.91523809523809 1.0635335082174053  13.91523809523809 0.8178341463414622  C 13.91523809523809 0.5721347844655192  13.720801758021754 0.37295609756097403  13.480952380952377 0.37295609756097403  Z M 9.42761904761905 5.05900487804878  L 0.7419047619047622 5.05900487804878  C 0.5020554107208344 5.059004878048778  0.30761907350449347 5.258183564953321  0.30761907350449347 5.503882926829265  C 0.30761907350449347 5.749582288705209  0.5020554107208344 5.948760975609753  0.7419047877902073 5.948760975609753  L 9.42761904761905 5.948760975609753  C 9.667468424688426 5.948760975609753  9.861904761904764 5.749582288705209  9.861904761904764 5.503882926829265  C 9.861904761904764 5.258183564953321  9.667468424688426 5.059004878048778  9.42761904761905 5.059004878048778  Z M 0.7419047619047622 10.64074146341463  L 4.887885714285714 10.64074146341463  C 5.127735091355087 10.64074146341463  5.322171428571427 10.441562776510088  5.322171428571427 10.195863414634141  C 5.322171428571427 9.950164052758197  5.127735091355087 9.750985365853655  4.887885714285714 9.750985365853655  L 0.7419047619047622 9.750985365853655  C 0.5020553848353893 9.750985365853655  0.30761904761904746 9.950164052758197  0.30761904761904746 10.195863414634141  C 0.30761904761904746 10.441562776510088  0.5020553848353893 10.64074146341463  0.7419047619047622 10.64074146341463  Z M 18.935580952380956 11.921990243902433  C 18.932431875274993 11.520387084589466  18.615393560281714 11.195616127767082  18.22335238095238 11.192390243902441  L 17.893295238095238 11.192390243902436  C 17.522139387852512 11.186194283165552  17.154450082442658 11.118075403024754  16.80468571428572 10.990712195121954  C 16.36352460779978 10.812471998261827  15.945409064743462 10.57938977720922  15.559733333333334 10.29670243902439  L 15.362857142857145 10.154341463414635  C 15.114552246373853 9.968390965007094  14.777333467911864 9.968390965007094  14.529028571428569 10.154341463414635  L 14.332152380952378 10.30263414634146  C 13.963704010341013 10.583382409294506  13.558176523161135 10.809066444725522  13.127733333333335 10.97291707317073  C 12.788178055094729 11.109037541375876  12.426913755232002 11.179432361205969  12.062285714285714 11.180526829268292  L 11.709066666666669 11.180526829268292  C 11.315713688272897 11.180526829268292  10.996838095238097 11.507179875791742  10.996838095238097 11.91012682926829  L 10.996838095238097 14.875980487804874  C 11.00318052704484 17.118301290924716  12.774393654505857 18.935363517323385  14.96331428571429 18.945131707317067  C 17.154496570243886 18.938616061667595  18.92922044115171 17.12060624268885  18.935580952380956 14.875980487804874  L 18.935580952380956 11.921990243902433  Z M 18.061219047619044 12.076214634146337  L 18.061219047619044 14.846321951219512  C 18.06314898123155 14.892060901057386  18.064114285714286 14.937837217450538  18.064114285714286 14.983618874057633  C 18.064114285714286 16.73955031359771  16.674542595741496 18.163013996008853  14.960419047619043 18.163013996008853  C 13.246295499496593 18.163013996008853  11.856723809523807 16.739550313597704  11.856723809523807 14.983618874057633  C 11.856723809523807 14.937837217450538  11.857689114006542 14.892060901057386  11.859619047619045 14.846321951219512  L 11.859619047619045 12.07621463414634  L 12.05070476190476 12.076214634146337  C 12.52368667266326 12.076361388545486  12.99270816071185 11.987908310689194  13.434628571428568 11.81521951219512  C 13.941835686086202 11.620337664014738  14.419484784667686 11.35272102620323  14.853295238095237 11.020370731707313  L 14.95752380952381 10.94325853658536  L 15.055961904761906 11.014439024390237  C 15.499770655988428 11.34569702078154  15.984635170130108 11.614987038920763  16.497790476190474 11.815219512195116  C 16.941536063921827 11.981143018400136  17.409378825558047 12.069373799449602  17.88171428571428 12.076214634146337  L 18.061219047619044 12.076214634146337  Z " fill-rule="nonzero" fill="rgba(237, 64, 20, 1)" stroke="none" transform="matrix(1 0 0 1 381 134 )" class="fill" />
    <path d="M 13.480952380952377 0.37295609756097403  L 0.7419047619047622 0.37295609756097403  C 0.5020553848353893 0.37295609756097403  0.30761904761904746 0.5721347844655192  0.30761904761904746 0.8178341463414622  C 0.30761904761904746 1.0635335082174053  0.5020553848353893 1.2627121951219504  0.7419047619047622 1.2627121951219504  L 13.480952380952377 1.262712195121952  C 13.720801758021754 1.2627121951219504  13.91523809523809 1.0635335082174053  13.91523809523809 0.8178341463414622  C 13.91523809523809 0.5721347844655192  13.720801758021754 0.37295609756097403  13.480952380952377 0.37295609756097403  Z " stroke-width="0" stroke-dasharray="0" stroke="rgba(255, 255, 255, 0)" fill="none" transform="matrix(1 0 0 1 381 134 )" class="stroke" mask="url(#Clip1484)" />
    <path d="M 9.42761904761905 5.05900487804878  L 0.7419047619047622 5.05900487804878  C 0.5020554107208344 5.059004878048778  0.30761907350449347 5.258183564953321  0.30761907350449347 5.503882926829265  C 0.30761907350449347 5.749582288705209  0.5020554107208344 5.948760975609753  0.7419047877902073 5.948760975609753  L 9.42761904761905 5.948760975609753  C 9.667468424688426 5.948760975609753  9.861904761904764 5.749582288705209  9.861904761904764 5.503882926829265  C 9.861904761904764 5.258183564953321  9.667468424688426 5.059004878048778  9.42761904761905 5.059004878048778  Z " stroke-width="0" stroke-dasharray="0" stroke="rgba(255, 255, 255, 0)" fill="none" transform="matrix(1 0 0 1 381 134 )" class="stroke" mask="url(#Clip1484)" />
    <path d="M 0.7419047619047622 10.64074146341463  L 4.887885714285714 10.64074146341463  C 5.127735091355087 10.64074146341463  5.322171428571427 10.441562776510088  5.322171428571427 10.195863414634141  C 5.322171428571427 9.950164052758197  5.127735091355087 9.750985365853655  4.887885714285714 9.750985365853655  L 0.7419047619047622 9.750985365853655  C 0.5020553848353893 9.750985365853655  0.30761904761904746 9.950164052758197  0.30761904761904746 10.195863414634141  C 0.30761904761904746 10.441562776510088  0.5020553848353893 10.64074146341463  0.7419047619047622 10.64074146341463  Z " stroke-width="0" stroke-dasharray="0" stroke="rgba(255, 255, 255, 0)" fill="none" transform="matrix(1 0 0 1 381 134 )" class="stroke" mask="url(#Clip1484)" />
    <path d="M 18.935580952380956 11.921990243902433  C 18.932431875274993 11.520387084589466  18.615393560281714 11.195616127767082  18.22335238095238 11.192390243902441  L 17.893295238095238 11.192390243902436  C 17.522139387852512 11.186194283165552  17.154450082442658 11.118075403024754  16.80468571428572 10.990712195121954  C 16.36352460779978 10.812471998261827  15.945409064743462 10.57938977720922  15.559733333333334 10.29670243902439  L 15.362857142857145 10.154341463414635  C 15.114552246373853 9.968390965007094  14.777333467911864 9.968390965007094  14.529028571428569 10.154341463414635  L 14.332152380952378 10.30263414634146  C 13.963704010341013 10.583382409294506  13.558176523161135 10.809066444725522  13.127733333333335 10.97291707317073  C 12.788178055094729 11.109037541375876  12.426913755232002 11.179432361205969  12.062285714285714 11.180526829268292  L 11.709066666666669 11.180526829268292  C 11.315713688272897 11.180526829268292  10.996838095238097 11.507179875791742  10.996838095238097 11.91012682926829  L 10.996838095238097 14.875980487804874  C 11.00318052704484 17.118301290924716  12.774393654505857 18.935363517323385  14.96331428571429 18.945131707317067  C 17.154496570243886 18.938616061667595  18.92922044115171 17.12060624268885  18.935580952380956 14.875980487804874  L 18.935580952380956 11.921990243902433  Z " stroke-width="0" stroke-dasharray="0" stroke="rgba(255, 255, 255, 0)" fill="none" transform="matrix(1 0 0 1 381 134 )" class="stroke" mask="url(#Clip1484)" />
    <path d="M 18.061219047619044 12.076214634146337  L 18.061219047619044 14.846321951219512  C 18.06314898123155 14.892060901057386  18.064114285714286 14.937837217450538  18.064114285714286 14.983618874057633  C 18.064114285714286 16.73955031359771  16.674542595741496 18.163013996008853  14.960419047619043 18.163013996008853  C 13.246295499496593 18.163013996008853  11.856723809523807 16.739550313597704  11.856723809523807 14.983618874057633  C 11.856723809523807 14.937837217450538  11.857689114006542 14.892060901057386  11.859619047619045 14.846321951219512  L 11.859619047619045 12.07621463414634  L 12.05070476190476 12.076214634146337  C 12.52368667266326 12.076361388545486  12.99270816071185 11.987908310689194  13.434628571428568 11.81521951219512  C 13.941835686086202 11.620337664014738  14.419484784667686 11.35272102620323  14.853295238095237 11.020370731707313  L 14.95752380952381 10.94325853658536  L 15.055961904761906 11.014439024390237  C 15.499770655988428 11.34569702078154  15.984635170130108 11.614987038920763  16.497790476190474 11.815219512195116  C 16.941536063921827 11.981143018400136  17.409378825558047 12.069373799449602  17.88171428571428 12.076214634146337  L 18.061219047619044 12.076214634146337  Z " stroke-width="0" stroke-dasharray="0" stroke="rgba(255, 255, 255, 0)" fill="none" transform="matrix(1 0 0 1 381 134 )" class="stroke" mask="url(#Clip1484)" />
  </g>
</svg>