<?xml version="1.0" encoding="utf-8"?>
<svg version="1.1" xmlns:xlink="http://www.w3.org/1999/xlink" width="22px" height="24px" xmlns="http://www.w3.org/2000/svg">
  <defs>
    <pattern id="BGPattern" patternUnits="userSpaceOnUse" alignment="0 0" imageRepeat="None" />
    <mask fill="white" id="Clip1483">
      <path d="M 12.531933333333333 23.02966153846154  L 3.450333333333334 23.02966153846154  C 2.0733033570885544 23.02966153846154  0.9570000000000004 21.905551864190542  1 20.518892307692308  L 1 3.4811076923076927  C 0.9570000000000004 2.094448135809454  2.073303357088557 0.9703384615384614  3.4503333333333344 1  L 18.293000000000003 1  C 19.668691694299692 0.973586568509833  20.78310778266038 2.0957957763695467  20.786333333333335 3.4811076923076927  L 20.78633333333333 12.437169230769232  C 20.78633333333333 12.68187385838657  20.983328043407784 12.880246153846155  21.226333333333336 12.880246153846155  C 21.469338623258885 12.880246153846155  21.666333333333334 12.681873858386567  21.666333333333334 12.437169230769232  L 21.666333333333334 3.4811076923076927  C 21.663104008989425 1.606387516718214  20.15470128548122 0.08743652241624361  18.293000000000003 0  L 3.450333333333335 0  C 1.5886320478521168 0.08743652241624321  0.08022932434391053 1.606387516718213  0 3.4811076923076927  L 0 20.518892307692308  C 0.08022932434391095 22.393612483281785  1.5886320478521174 23.912563477583753  3.450333333333336 23.915815384615385  L 12.531933333333335 23.91581538461538  C 12.774938623258885 23.91581538461538  12.971933333333334 23.717443089155797  12.971933333333334 23.472738461538455  C 12.971933333333334 23.22803383392112  12.774938623258885 23.029661538461536  12.531933333333335 23.029661538461536  Z " fill-rule="evenodd" />
    </mask>
  </defs>
  <g transform="matrix(1 0 0 1 -377 -129 )">
    <path d="M 12.531933333333333 23.02966153846154  L 3.450333333333334 23.02966153846154  C 2.0733033570885544 23.02966153846154  0.9570000000000004 21.905551864190542  1 20.518892307692308  L 1 3.4811076923076927  C 0.9570000000000004 2.094448135809454  2.073303357088557 0.9703384615384614  3.4503333333333344 1  L 18.293000000000003 1  C 19.668691694299692 0.973586568509833  20.78310778266038 2.0957957763695467  20.786333333333335 3.4811076923076927  L 20.78633333333333 12.437169230769232  C 20.78633333333333 12.68187385838657  20.983328043407784 12.880246153846155  21.226333333333336 12.880246153846155  C 21.469338623258885 12.880246153846155  21.666333333333334 12.681873858386567  21.666333333333334 12.437169230769232  L 21.666333333333334 3.4811076923076927  C 21.663104008989425 1.606387516718214  20.15470128548122 0.08743652241624361  18.293000000000003 0  L 3.450333333333335 0  C 1.5886320478521168 0.08743652241624321  0.08022932434391053 1.606387516718213  0 3.4811076923076927  L 0 20.518892307692308  C 0.08022932434391095 22.393612483281785  1.5886320478521174 23.912563477583753  3.450333333333336 23.915815384615385  L 12.531933333333335 23.91581538461538  C 12.774938623258885 23.91581538461538  12.971933333333334 23.717443089155797  12.971933333333334 23.472738461538455  C 12.971933333333334 23.22803383392112  12.774938623258885 23.029661538461536  12.531933333333335 23.029661538461536  Z " fill-rule="nonzero" fill="rgba(237, 64, 20, 1)" stroke="none" transform="matrix(1 0 0 1 377 129 )" class="fill" />
    <path d="M 12.531933333333333 23.02966153846154  L 3.450333333333334 23.02966153846154  C 2.0733033570885544 23.02966153846154  0.9570000000000004 21.905551864190542  1 20.518892307692308  L 1 3.4811076923076927  C 0.9570000000000004 2.094448135809454  2.073303357088557 0.9703384615384614  3.4503333333333344 1  L 18.293000000000003 1  C 19.668691694299692 0.973586568509833  20.78310778266038 2.0957957763695467  20.786333333333335 3.4811076923076927  L 20.78633333333333 12.437169230769232  C 20.78633333333333 12.68187385838657  20.983328043407784 12.880246153846155  21.226333333333336 12.880246153846155  C 21.469338623258885 12.880246153846155  21.666333333333334 12.681873858386567  21.666333333333334 12.437169230769232  L 21.666333333333334 3.4811076923076927  C 21.663104008989425 1.606387516718214  20.15470128548122 0.08743652241624361  18.293000000000003 0  L 3.450333333333335 0  C 1.5886320478521168 0.08743652241624321  0.08022932434391053 1.606387516718213  0 3.4811076923076927  L 0 20.518892307692308  C 0.08022932434391095 22.393612483281785  1.5886320478521174 23.912563477583753  3.450333333333336 23.915815384615385  L 12.531933333333335 23.91581538461538  C 12.774938623258885 23.91581538461538  12.971933333333334 23.717443089155797  12.971933333333334 23.472738461538455  C 12.971933333333334 23.22803383392112  12.774938623258885 23.029661538461536  12.531933333333335 23.029661538461536  Z " stroke-width="0" stroke-dasharray="0" stroke="rgba(255, 255, 255, 0)" fill="none" transform="matrix(1 0 0 1 377 129 )" class="stroke" mask="url(#Clip1483)" />
  </g>
</svg>