<?xml version="1.0" encoding="utf-8"?>
<svg version="1.1" xmlns:xlink="http://www.w3.org/1999/xlink" width="11px" height="13px" xmlns="http://www.w3.org/2000/svg">
  <defs>
    <pattern id="BGPattern" patternUnits="userSpaceOnUse" alignment="0 0" imageRepeat="None" />
    <mask fill="white" id="Clip1487">
      <path d="M 1.3409390500000042 7.695916075520833  L 4.66811895 7.695916075520833  L 4.66811895 6.057362492187499  L 1.3409390500000005 6.057362492187499  C 0.8815038324117728 6.057362492187499  0.5090580000000005 5.690559778448633  0.5090580000000005 5.238085700520832  C 0.5090580000000005 4.7856116225930325  0.8815038324117728 4.418808908854166  1.3409390500000005 4.418808908854166  L 4.153358103125001 4.418808908854166  L 1.3133933312500021 1.6218738723958321  C 1.1686244688471426 1.4699840679865457  1.0880442775606434 1.2694853257828305  1.0880442775606434 1.0611628452791317  C 1.0880442775606434 0.6086887673513318  1.4604901099724157 0.24188605361246518  1.9199253275606436 0.24188605361246518  C 2.1312844724407154 0.24188605361246518  2.3347188157594365 0.3211194021129238  2.4889073687500005 0.4634924531249981  L 5.637728662500001 3.563587015624998  L 8.785516987500003 0.4634924531250001  C 8.942677803899702 0.299502381746954  9.161521961769264 0.20655847987632397  9.390489426487473 0.20655847987632397  C 9.8499246440757 0.20655847987632397  10.222370476487471 0.5733611936151926  10.222370476487471 1.0258352715429906  C 10.222370476487471 1.2415162570895462  10.136012380646413 1.4484973569203687  9.982034631250002 1.601866703124999  C 9.97549251875 1.6086488098958323  9.968606071875 1.6150917994791654  9.961719659375 1.6218738723958321  L 7.121754853124999 4.418808908854166  L 9.658716615625002 4.418808908854166  C 10.118151833213231 4.418808908854166  10.490597665625003 4.7856116225930325  10.490597665625003 5.238085700520832  C 10.490597665625003 5.690559778448633  10.118151833213231 6.057362492187499  9.658716615625002 6.057362492187499  L 6.331881050000002 6.057362492187499  L 6.331881050000002 7.695916075520833  L 9.659405250000002 7.695916075520833  C 10.118840467588232 7.695916075520833  10.491286300000004 8.0627187892597  10.491286300000004 8.515192867187498  C 10.491286300000004 8.9676669451153  10.118840467588232 9.334469658854166  9.659405250000002 9.334469658854166  L 6.331881050000002 9.334469658854166  L 6.331881050000002 11.7933173515625  C 6.331881050000002 12.245791429490302  5.959435217588229 12.612594143229169  5.5000000000000036 12.612594143229169  C 5.040564782411776 12.612594143229169  4.668118950000004 12.245791429490302  4.668118950000002 11.7933173515625  L 4.668118950000002 9.334469658854166  L 1.3409390500000042 9.334469658854166  C 0.8815038324117768 9.334469658854166  0.5090580000000043 8.9676669451153  0.5090580000000043 8.515192867187498  C 0.5090580000000043 8.0627187892597  0.8815038324117768 7.695916075520833  1.3409390500000042 7.695916075520833  Z " fill-rule="evenodd" />
    </mask>
  </defs>
  <g transform="matrix(1 0 0 1 -712 -135 )">
    <path d="M 1.3409390500000042 7.695916075520833  L 4.66811895 7.695916075520833  L 4.66811895 6.057362492187499  L 1.3409390500000005 6.057362492187499  C 0.8815038324117728 6.057362492187499  0.5090580000000005 5.690559778448633  0.5090580000000005 5.238085700520832  C 0.5090580000000005 4.7856116225930325  0.8815038324117728 4.418808908854166  1.3409390500000005 4.418808908854166  L 4.153358103125001 4.418808908854166  L 1.3133933312500021 1.6218738723958321  C 1.1686244688471426 1.4699840679865457  1.0880442775606434 1.2694853257828305  1.0880442775606434 1.0611628452791317  C 1.0880442775606434 0.6086887673513318  1.4604901099724157 0.24188605361246518  1.9199253275606436 0.24188605361246518  C 2.1312844724407154 0.24188605361246518  2.3347188157594365 0.3211194021129238  2.4889073687500005 0.4634924531249981  L 5.637728662500001 3.563587015624998  L 8.785516987500003 0.4634924531250001  C 8.942677803899702 0.299502381746954  9.161521961769264 0.20655847987632397  9.390489426487473 0.20655847987632397  C 9.8499246440757 0.20655847987632397  10.222370476487471 0.5733611936151926  10.222370476487471 1.0258352715429906  C 10.222370476487471 1.2415162570895462  10.136012380646413 1.4484973569203687  9.982034631250002 1.601866703124999  C 9.97549251875 1.6086488098958323  9.968606071875 1.6150917994791654  9.961719659375 1.6218738723958321  L 7.121754853124999 4.418808908854166  L 9.658716615625002 4.418808908854166  C 10.118151833213231 4.418808908854166  10.490597665625003 4.7856116225930325  10.490597665625003 5.238085700520832  C 10.490597665625003 5.690559778448633  10.118151833213231 6.057362492187499  9.658716615625002 6.057362492187499  L 6.331881050000002 6.057362492187499  L 6.331881050000002 7.695916075520833  L 9.659405250000002 7.695916075520833  C 10.118840467588232 7.695916075520833  10.491286300000004 8.0627187892597  10.491286300000004 8.515192867187498  C 10.491286300000004 8.9676669451153  10.118840467588232 9.334469658854166  9.659405250000002 9.334469658854166  L 6.331881050000002 9.334469658854166  L 6.331881050000002 11.7933173515625  C 6.331881050000002 12.245791429490302  5.959435217588229 12.612594143229169  5.5000000000000036 12.612594143229169  C 5.040564782411776 12.612594143229169  4.668118950000004 12.245791429490302  4.668118950000002 11.7933173515625  L 4.668118950000002 9.334469658854166  L 1.3409390500000042 9.334469658854166  C 0.8815038324117768 9.334469658854166  0.5090580000000043 8.9676669451153  0.5090580000000043 8.515192867187498  C 0.5090580000000043 8.0627187892597  0.8815038324117768 7.695916075520833  1.3409390500000042 7.695916075520833  Z " fill-rule="nonzero" fill="rgba(250, 173, 30, 1)" stroke="none" transform="matrix(1 0 0 1 712 135 )" class="fill" />
    <path d="M 1.3409390500000042 7.695916075520833  L 4.66811895 7.695916075520833  L 4.66811895 6.057362492187499  L 1.3409390500000005 6.057362492187499  C 0.8815038324117728 6.057362492187499  0.5090580000000005 5.690559778448633  0.5090580000000005 5.238085700520832  C 0.5090580000000005 4.7856116225930325  0.8815038324117728 4.418808908854166  1.3409390500000005 4.418808908854166  L 4.153358103125001 4.418808908854166  L 1.3133933312500021 1.6218738723958321  C 1.1686244688471426 1.4699840679865457  1.0880442775606434 1.2694853257828305  1.0880442775606434 1.0611628452791317  C 1.0880442775606434 0.6086887673513318  1.4604901099724157 0.24188605361246518  1.9199253275606436 0.24188605361246518  C 2.1312844724407154 0.24188605361246518  2.3347188157594365 0.3211194021129238  2.4889073687500005 0.4634924531249981  L 5.637728662500001 3.563587015624998  L 8.785516987500003 0.4634924531250001  C 8.942677803899702 0.299502381746954  9.161521961769264 0.20655847987632397  9.390489426487473 0.20655847987632397  C 9.8499246440757 0.20655847987632397  10.222370476487471 0.5733611936151926  10.222370476487471 1.0258352715429906  C 10.222370476487471 1.2415162570895462  10.136012380646413 1.4484973569203687  9.982034631250002 1.601866703124999  C 9.97549251875 1.6086488098958323  9.968606071875 1.6150917994791654  9.961719659375 1.6218738723958321  L 7.121754853124999 4.418808908854166  L 9.658716615625002 4.418808908854166  C 10.118151833213231 4.418808908854166  10.490597665625003 4.7856116225930325  10.490597665625003 5.238085700520832  C 10.490597665625003 5.690559778448633  10.118151833213231 6.057362492187499  9.658716615625002 6.057362492187499  L 6.331881050000002 6.057362492187499  L 6.331881050000002 7.695916075520833  L 9.659405250000002 7.695916075520833  C 10.118840467588232 7.695916075520833  10.491286300000004 8.0627187892597  10.491286300000004 8.515192867187498  C 10.491286300000004 8.9676669451153  10.118840467588232 9.334469658854166  9.659405250000002 9.334469658854166  L 6.331881050000002 9.334469658854166  L 6.331881050000002 11.7933173515625  C 6.331881050000002 12.245791429490302  5.959435217588229 12.612594143229169  5.5000000000000036 12.612594143229169  C 5.040564782411776 12.612594143229169  4.668118950000004 12.245791429490302  4.668118950000002 11.7933173515625  L 4.668118950000002 9.334469658854166  L 1.3409390500000042 9.334469658854166  C 0.8815038324117768 9.334469658854166  0.5090580000000043 8.9676669451153  0.5090580000000043 8.515192867187498  C 0.5090580000000043 8.0627187892597  0.8815038324117768 7.695916075520833  1.3409390500000042 7.695916075520833  Z " stroke-width="0" stroke-dasharray="0" stroke="rgba(255, 255, 255, 0)" fill="none" transform="matrix(1 0 0 1 712 135 )" class="stroke" mask="url(#Clip1487)" />
  </g>
</svg>