<?xml version="1.0" encoding="utf-8"?>
<svg version="1.1" xmlns:xlink="http://www.w3.org/1999/xlink" width="21px" height="24px" xmlns="http://www.w3.org/2000/svg">
  <defs>
    <pattern id="BGPattern" patternUnits="userSpaceOnUse" alignment="0 0" imageRepeat="None" />
    <mask fill="white" id="Clip455">
      <path d="M 11.10834375 23.686304347826088  C 11.01793893922276 23.72116646825193  10.921816086207976 23.7390775588758  10.824843749999998 23.73913043478261  C 10.744237763876026 23.73916711630026  10.664108302933345 23.72684839062087  10.58728125 23.702608695652174  C 7.666968749999999 22.785326086956523  5.6207812499999985 21.948260869565217  4.326984375 21.14445652173913  C 3.0253124999999996 20.33510869565217  1.7108437499999996 19.057499999999997  0.4200000000000004 17.35010869565217  C 0.3178249618668994 17.214486670520593  0.2625707778786655 17.04963930172754  0.2625 16.88021739130435  L 0.26249999999999907 4.4563043478260855  C 0.26251768387994945 4.082178524284405  0.5289831578350357 3.7603887859158602  0.8984062499999999 3.68836956521739  C 3.035484375 3.270652173913044  4.662984375000001 2.8695652173913047  5.735953125000001 2.4945652173913047  C 6.808921874999999 2.1195652173913047  8.4 1.397282608695652  10.4671875 0.34695652173913  C 10.708035611002591 0.2248247846254704  10.995024624505396 0.23368365695477733  11.22778125 0.37043478260869517  C 13.012124999999997 1.4217391304347824  14.414859374999999 2.1378260869565215  15.394968749999997 2.499130434782608  C 16.381968750000002 2.8623913043478253  18.012421874999998 3.262173913043478  20.241703125 3.6870652173913046  C 20.612673119536968 3.757762396876485  20.88088237843657 4.0802689196238715  20.880890625 4.455652173913043  L 20.880890625 16.879565217391303  C 20.880679045728545 17.076407129872624  20.80608149465208 17.265990539221292  20.671875 17.410760869565216  C 19.040765625 19.169021739130432  17.694468750000002 20.38728260869565  16.555218749999998 21.134021739130432  C 15.421218750000001 21.87684782608695  13.6395 22.711956521739125  11.10834375 23.686304347826088  Z M 2 5.0967391304347816  L 2 16.616739130434784  C 2.9587031250000004 18.065217391304348  4.076296875000001 19.141304347826086  5.162062499999999 19.817608695652176  C 6.28753125 20.517065217391306  8.183109375 21.293478260869563  10.798265625000003 22.12728260869565  C 13.056750000000003 21.246847826086956  14.702953125000002 20.474347826086962  15.687328125000002 19.82771739130435  C 16.656937499999998 19.191521739130437  17.872968750000002 18.0975  19 16.57304347826087  L 19 5.099673913043477  C 17.2921875 4.7002173913043475  15.82940625 4.328152173913044  14.84765625 3.9668478260869557  C 13.835062500000001 3.594130434782608  12.507796875000002 2.9285869565217384  10.797281249999997 1.9356521739130428  C 8.832468749999999 2.925  7.344749999999998 3.5918478260869557  6.257999999999997 3.9714130434782597  C 5.226046874999998 4.330108695652173  3.7412812499999974 4.709673913043477  2 5.0967391304347816  Z " fill-rule="evenodd" />
    </mask>
  </defs>
  <g transform="matrix(1 0 0 1 -1037 -128 )">
    <path d="M 11.10834375 23.686304347826088  C 11.01793893922276 23.72116646825193  10.921816086207976 23.7390775588758  10.824843749999998 23.73913043478261  C 10.744237763876026 23.73916711630026  10.664108302933345 23.72684839062087  10.58728125 23.702608695652174  C 7.666968749999999 22.785326086956523  5.6207812499999985 21.948260869565217  4.326984375 21.14445652173913  C 3.0253124999999996 20.33510869565217  1.7108437499999996 19.057499999999997  0.4200000000000004 17.35010869565217  C 0.3178249618668994 17.214486670520593  0.2625707778786655 17.04963930172754  0.2625 16.88021739130435  L 0.26249999999999907 4.4563043478260855  C 0.26251768387994945 4.082178524284405  0.5289831578350357 3.7603887859158602  0.8984062499999999 3.68836956521739  C 3.035484375 3.270652173913044  4.662984375000001 2.8695652173913047  5.735953125000001 2.4945652173913047  C 6.808921874999999 2.1195652173913047  8.4 1.397282608695652  10.4671875 0.34695652173913  C 10.708035611002591 0.2248247846254704  10.995024624505396 0.23368365695477733  11.22778125 0.37043478260869517  C 13.012124999999997 1.4217391304347824  14.414859374999999 2.1378260869565215  15.394968749999997 2.499130434782608  C 16.381968750000002 2.8623913043478253  18.012421874999998 3.262173913043478  20.241703125 3.6870652173913046  C 20.612673119536968 3.757762396876485  20.88088237843657 4.0802689196238715  20.880890625 4.455652173913043  L 20.880890625 16.879565217391303  C 20.880679045728545 17.076407129872624  20.80608149465208 17.265990539221292  20.671875 17.410760869565216  C 19.040765625 19.169021739130432  17.694468750000002 20.38728260869565  16.555218749999998 21.134021739130432  C 15.421218750000001 21.87684782608695  13.6395 22.711956521739125  11.10834375 23.686304347826088  Z M 2 5.0967391304347816  L 2 16.616739130434784  C 2.9587031250000004 18.065217391304348  4.076296875000001 19.141304347826086  5.162062499999999 19.817608695652176  C 6.28753125 20.517065217391306  8.183109375 21.293478260869563  10.798265625000003 22.12728260869565  C 13.056750000000003 21.246847826086956  14.702953125000002 20.474347826086962  15.687328125000002 19.82771739130435  C 16.656937499999998 19.191521739130437  17.872968750000002 18.0975  19 16.57304347826087  L 19 5.099673913043477  C 17.2921875 4.7002173913043475  15.82940625 4.328152173913044  14.84765625 3.9668478260869557  C 13.835062500000001 3.594130434782608  12.507796875000002 2.9285869565217384  10.797281249999997 1.9356521739130428  C 8.832468749999999 2.925  7.344749999999998 3.5918478260869557  6.257999999999997 3.9714130434782597  C 5.226046874999998 4.330108695652173  3.7412812499999974 4.709673913043477  2 5.0967391304347816  Z " fill-rule="nonzero" fill="rgba(132, 0, 255, 1)" stroke="none" transform="matrix(1 0 0 1 1037 128 )" class="fill" />
    <path d="M 11.10834375 23.686304347826088  C 11.01793893922276 23.72116646825193  10.921816086207976 23.7390775588758  10.824843749999998 23.73913043478261  C 10.744237763876026 23.73916711630026  10.664108302933345 23.72684839062087  10.58728125 23.702608695652174  C 7.666968749999999 22.785326086956523  5.6207812499999985 21.948260869565217  4.326984375 21.14445652173913  C 3.0253124999999996 20.33510869565217  1.7108437499999996 19.057499999999997  0.4200000000000004 17.35010869565217  C 0.3178249618668994 17.214486670520593  0.2625707778786655 17.04963930172754  0.2625 16.88021739130435  L 0.26249999999999907 4.4563043478260855  C 0.26251768387994945 4.082178524284405  0.5289831578350357 3.7603887859158602  0.8984062499999999 3.68836956521739  C 3.035484375 3.270652173913044  4.662984375000001 2.8695652173913047  5.735953125000001 2.4945652173913047  C 6.808921874999999 2.1195652173913047  8.4 1.397282608695652  10.4671875 0.34695652173913  C 10.708035611002591 0.2248247846254704  10.995024624505396 0.23368365695477733  11.22778125 0.37043478260869517  C 13.012124999999997 1.4217391304347824  14.414859374999999 2.1378260869565215  15.394968749999997 2.499130434782608  C 16.381968750000002 2.8623913043478253  18.012421874999998 3.262173913043478  20.241703125 3.6870652173913046  C 20.612673119536968 3.757762396876485  20.88088237843657 4.0802689196238715  20.880890625 4.455652173913043  L 20.880890625 16.879565217391303  C 20.880679045728545 17.076407129872624  20.80608149465208 17.265990539221292  20.671875 17.410760869565216  C 19.040765625 19.169021739130432  17.694468750000002 20.38728260869565  16.555218749999998 21.134021739130432  C 15.421218750000001 21.87684782608695  13.6395 22.711956521739125  11.10834375 23.686304347826088  Z " stroke-width="0" stroke-dasharray="0" stroke="rgba(255, 255, 255, 0)" fill="none" transform="matrix(1 0 0 1 1037 128 )" class="stroke" mask="url(#Clip455)" />
    <path d="M 2 5.0967391304347816  L 2 16.616739130434784  C 2.9587031250000004 18.065217391304348  4.076296875000001 19.141304347826086  5.162062499999999 19.817608695652176  C 6.28753125 20.517065217391306  8.183109375 21.293478260869563  10.798265625000003 22.12728260869565  C 13.056750000000003 21.246847826086956  14.702953125000002 20.474347826086962  15.687328125000002 19.82771739130435  C 16.656937499999998 19.191521739130437  17.872968750000002 18.0975  19 16.57304347826087  L 19 5.099673913043477  C 17.2921875 4.7002173913043475  15.82940625 4.328152173913044  14.84765625 3.9668478260869557  C 13.835062500000001 3.594130434782608  12.507796875000002 2.9285869565217384  10.797281249999997 1.9356521739130428  C 8.832468749999999 2.925  7.344749999999998 3.5918478260869557  6.257999999999997 3.9714130434782597  C 5.226046874999998 4.330108695652173  3.7412812499999974 4.709673913043477  2 5.0967391304347816  Z " stroke-width="0" stroke-dasharray="0" stroke="rgba(255, 255, 255, 0)" fill="none" transform="matrix(1 0 0 1 1037 128 )" class="stroke" mask="url(#Clip455)" />
  </g>
</svg>