<?xml version="1.0" encoding="utf-8"?>
<svg version="1.1" xmlns:xlink="http://www.w3.org/1999/xlink" width="9px" height="11px" xmlns="http://www.w3.org/2000/svg">
  <defs>
    <pattern id="BGPattern" patternUnits="userSpaceOnUse" alignment="0 0" imageRepeat="None" />
    <mask fill="white" id="Clip1286">
      <path d="M 0.7279411764705901 6.578065476190478  L 3.639705882352941 6.578065476190474  L 3.639705882352941 5.137589285714284  L 0.7279411764705901 5.137589285714286  C 0.3259103659319987 5.137589285714286  0 4.815127706723368  0 4.417351190476191  C 0 4.019574674229011  0.3259103659319987 3.697113095238095  0.7279411764705901 3.697113095238095  L 3.1890441176470588 3.6971130952380933  L 0.7037867647058818 1.23815476190476  C 0.5742658032092486 1.1041290125403784  0.5019808050144752 0.9258406569088106  0.5019808050144752 0.740407599857611  C 0.5019808050144752 0.3426310836104314  0.827891170946472 0.020169504619515756  1.2299219814850635 0.020169504619515756  C 1.4174191987009206 0.020169504619515756  1.5976857638717008 0.09175120030355544  1.7331617647058823 0.21999999999999717  L 4.488419117647058 2.946428571428571  L 7.243014705882352 0.22130952380952537  C 7.37968611526686 0.08505027050729654  7.56568073935679 0.00841308781017907  7.759703748853593 0.00841308781017907  C 8.161734559392183 0.00841308781017907  8.487644925324183 0.33087466680109656  8.487644925324183 0.7286511830482744  C 8.487644925324183 0.9118878067839251  8.417058097786732 1.0882352925399008  8.290257352941175 1.221785714285714  C 8.284301470588236 1.2281150793650808  8.278345588235297 1.2340079365079382  8.272389705882352 1.2394642857142861  L 5.787132352941176 3.697113095238095  L 8.007352941176471 3.697113095238095  C 8.409383751715064 3.697113095238095  8.735294117647058 4.019574674229011  8.735294117647058 4.417351190476191  C 8.735294117647058 4.815127706723368  8.409383751715064 5.137589285714286  8.007352941176471 5.137589285714286  L 5.095588235294118 5.137589285714286  L 5.095588235294118 6.578065476190478  L 8.007352941176471 6.578065476190478  C 8.409383751715064 6.578065476190478  8.735294117647058 6.900527055181393  8.735294117647058 7.2983035714285736  C 8.735294117647058 7.696080087675753  8.409383751715064 8.018541666666668  8.007352941176471 8.018541666666668  L 5.095588235294118 8.018541666666668  L 5.095588235294118 10.179255952380956  C 5.095588235294118 10.577032468628133  4.769677869362123 10.89949404761905  4.367647058823529 10.89949404761905  C 3.96561624828494 10.89949404761905  3.6397058823529433 10.577032468628133  3.639705882352941 10.179255952380956  L 3.639705882352941 8.018541666666668  L 0.7279411764705901 8.018541666666668  C 0.3259103659319987 8.018541666666668  0 7.696080087675753  0 7.2983035714285736  C 0 6.900527055181393  0.3259103659319987 6.578065476190478  0.7279411764705901 6.578065476190478  Z " fill-rule="evenodd" />
    </mask>
  </defs>
  <g transform="matrix(1 0 0 1 -1043 -135 )">
    <path d="M 0.7279411764705901 6.578065476190478  L 3.639705882352941 6.578065476190474  L 3.639705882352941 5.137589285714284  L 0.7279411764705901 5.137589285714286  C 0.3259103659319987 5.137589285714286  0 4.815127706723368  0 4.417351190476191  C 0 4.019574674229011  0.3259103659319987 3.697113095238095  0.7279411764705901 3.697113095238095  L 3.1890441176470588 3.6971130952380933  L 0.7037867647058818 1.23815476190476  C 0.5742658032092486 1.1041290125403784  0.5019808050144752 0.9258406569088106  0.5019808050144752 0.740407599857611  C 0.5019808050144752 0.3426310836104314  0.827891170946472 0.020169504619515756  1.2299219814850635 0.020169504619515756  C 1.4174191987009206 0.020169504619515756  1.5976857638717008 0.09175120030355544  1.7331617647058823 0.21999999999999717  L 4.488419117647058 2.946428571428571  L 7.243014705882352 0.22130952380952537  C 7.37968611526686 0.08505027050729654  7.56568073935679 0.00841308781017907  7.759703748853593 0.00841308781017907  C 8.161734559392183 0.00841308781017907  8.487644925324183 0.33087466680109656  8.487644925324183 0.7286511830482744  C 8.487644925324183 0.9118878067839251  8.417058097786732 1.0882352925399008  8.290257352941175 1.221785714285714  C 8.284301470588236 1.2281150793650808  8.278345588235297 1.2340079365079382  8.272389705882352 1.2394642857142861  L 5.787132352941176 3.697113095238095  L 8.007352941176471 3.697113095238095  C 8.409383751715064 3.697113095238095  8.735294117647058 4.019574674229011  8.735294117647058 4.417351190476191  C 8.735294117647058 4.815127706723368  8.409383751715064 5.137589285714286  8.007352941176471 5.137589285714286  L 5.095588235294118 5.137589285714286  L 5.095588235294118 6.578065476190478  L 8.007352941176471 6.578065476190478  C 8.409383751715064 6.578065476190478  8.735294117647058 6.900527055181393  8.735294117647058 7.2983035714285736  C 8.735294117647058 7.696080087675753  8.409383751715064 8.018541666666668  8.007352941176471 8.018541666666668  L 5.095588235294118 8.018541666666668  L 5.095588235294118 10.179255952380956  C 5.095588235294118 10.577032468628133  4.769677869362123 10.89949404761905  4.367647058823529 10.89949404761905  C 3.96561624828494 10.89949404761905  3.6397058823529433 10.577032468628133  3.639705882352941 10.179255952380956  L 3.639705882352941 8.018541666666668  L 0.7279411764705901 8.018541666666668  C 0.3259103659319987 8.018541666666668  0 7.696080087675753  0 7.2983035714285736  C 0 6.900527055181393  0.3259103659319987 6.578065476190478  0.7279411764705901 6.578065476190478  Z " fill-rule="nonzero" fill="rgba(132, 0, 255, 1)" stroke="none" transform="matrix(1 0 0 1 1043 135 )" class="fill" />
    <path d="M 0.7279411764705901 6.578065476190478  L 3.639705882352941 6.578065476190474  L 3.639705882352941 5.137589285714284  L 0.7279411764705901 5.137589285714286  C 0.3259103659319987 5.137589285714286  0 4.815127706723368  0 4.417351190476191  C 0 4.019574674229011  0.3259103659319987 3.697113095238095  0.7279411764705901 3.697113095238095  L 3.1890441176470588 3.6971130952380933  L 0.7037867647058818 1.23815476190476  C 0.5742658032092486 1.1041290125403784  0.5019808050144752 0.9258406569088106  0.5019808050144752 0.740407599857611  C 0.5019808050144752 0.3426310836104314  0.827891170946472 0.020169504619515756  1.2299219814850635 0.020169504619515756  C 1.4174191987009206 0.020169504619515756  1.5976857638717008 0.09175120030355544  1.7331617647058823 0.21999999999999717  L 4.488419117647058 2.946428571428571  L 7.243014705882352 0.22130952380952537  C 7.37968611526686 0.08505027050729654  7.56568073935679 0.00841308781017907  7.759703748853593 0.00841308781017907  C 8.161734559392183 0.00841308781017907  8.487644925324183 0.33087466680109656  8.487644925324183 0.7286511830482744  C 8.487644925324183 0.9118878067839251  8.417058097786732 1.0882352925399008  8.290257352941175 1.221785714285714  C 8.284301470588236 1.2281150793650808  8.278345588235297 1.2340079365079382  8.272389705882352 1.2394642857142861  L 5.787132352941176 3.697113095238095  L 8.007352941176471 3.697113095238095  C 8.409383751715064 3.697113095238095  8.735294117647058 4.019574674229011  8.735294117647058 4.417351190476191  C 8.735294117647058 4.815127706723368  8.409383751715064 5.137589285714286  8.007352941176471 5.137589285714286  L 5.095588235294118 5.137589285714286  L 5.095588235294118 6.578065476190478  L 8.007352941176471 6.578065476190478  C 8.409383751715064 6.578065476190478  8.735294117647058 6.900527055181393  8.735294117647058 7.2983035714285736  C 8.735294117647058 7.696080087675753  8.409383751715064 8.018541666666668  8.007352941176471 8.018541666666668  L 5.095588235294118 8.018541666666668  L 5.095588235294118 10.179255952380956  C 5.095588235294118 10.577032468628133  4.769677869362123 10.89949404761905  4.367647058823529 10.89949404761905  C 3.96561624828494 10.89949404761905  3.6397058823529433 10.577032468628133  3.639705882352941 10.179255952380956  L 3.639705882352941 8.018541666666668  L 0.7279411764705901 8.018541666666668  C 0.3259103659319987 8.018541666666668  0 7.696080087675753  0 7.2983035714285736  C 0 6.900527055181393  0.3259103659319987 6.578065476190478  0.7279411764705901 6.578065476190478  Z " stroke-width="0" stroke-dasharray="0" stroke="rgba(255, 255, 255, 0)" fill="none" transform="matrix(1 0 0 1 1043 135 )" class="stroke" mask="url(#Clip1286)" />
  </g>
</svg>