<?xml version="1.0" encoding="utf-8"?>
<svg version="1.1" xmlns:xlink="http://www.w3.org/1999/xlink" width="24px" height="21px" xmlns="http://www.w3.org/2000/svg">
  <defs>
    <pattern id="BGPattern" patternUnits="userSpaceOnUse" alignment="0 0" imageRepeat="None" />
    <mask fill="white" id="Clip982">
      <path d="M 24 17.651904069767443  C 24 18.049011627906978  23.6844 18.37011627906977  23.2941 18.37011627906977  L 16.1331 18.37011627906977  C 15.7428 18.37011627906977  15.427200000000001 18.049011627906978  15.427200000000001 17.651904069767443  C 15.427200000000001 17.25479651162791  15.7428 16.933691860465117  16.1331 16.933691860465117  L 23.2941 16.933691860465117  C 23.6844 16.933691860465117  24 17.25479651162791  24 17.651904069767443  Z M 9.1242 12.12658430232558  C 8.612433448458926 11.524261517690777  8.210156130407738 10.834043365616962  7.936200000000001 10.088241279069766  C 6.613200000000001 9.34469476744186  5.7129 7.909796511627906  5.7129 6.271918604651163  C 5.7129 3.8743168604651164  7.6404000000000005 1.9131976744186048  9.994499999999999 1.9131976744186048  C 10.246199999999998 1.9131976744186048  10.4931 1.9357848837209308  10.733400000000001 1.9788226744186048  C 11.351465496400555 1.601860291041711  12.026432214443194 1.3312484622131109  12.731100000000001 1.1778924418604653  C 11.9172 0.7221802325581393  10.9842 0.4621220930232563  9.994499999999999 0.4621220930232563  C 6.855 0.4621220930232563  4.284 3.0776598837209304  4.284 6.272223837209303  C 4.284 8.304462209302326  5.283899999999999 10.120901162790698  6.855 11.138241279069767  C 2.8550999999999997 12.444636627906979  0 16.293313953488372  0 20.79671511627907  L 1.4265000000000003 20.79671511627907  C 1.4265000000000003 16.30186046511628  4.8171 12.572834302325584  9.1242 12.12658430232558  Z " fill-rule="evenodd" />
    </mask>
  </defs>
  <g transform="matrix(1 0 0 1 -46 -269 )">
    <path d="M 24 17.651904069767443  C 24 18.049011627906978  23.6844 18.37011627906977  23.2941 18.37011627906977  L 16.1331 18.37011627906977  C 15.7428 18.37011627906977  15.427200000000001 18.049011627906978  15.427200000000001 17.651904069767443  C 15.427200000000001 17.25479651162791  15.7428 16.933691860465117  16.1331 16.933691860465117  L 23.2941 16.933691860465117  C 23.6844 16.933691860465117  24 17.25479651162791  24 17.651904069767443  Z M 9.1242 12.12658430232558  C 8.612433448458926 11.524261517690777  8.210156130407738 10.834043365616962  7.936200000000001 10.088241279069766  C 6.613200000000001 9.34469476744186  5.7129 7.909796511627906  5.7129 6.271918604651163  C 5.7129 3.8743168604651164  7.6404000000000005 1.9131976744186048  9.994499999999999 1.9131976744186048  C 10.246199999999998 1.9131976744186048  10.4931 1.9357848837209308  10.733400000000001 1.9788226744186048  C 11.351465496400555 1.601860291041711  12.026432214443194 1.3312484622131109  12.731100000000001 1.1778924418604653  C 11.9172 0.7221802325581393  10.9842 0.4621220930232563  9.994499999999999 0.4621220930232563  C 6.855 0.4621220930232563  4.284 3.0776598837209304  4.284 6.272223837209303  C 4.284 8.304462209302326  5.283899999999999 10.120901162790698  6.855 11.138241279069767  C 2.8550999999999997 12.444636627906979  0 16.293313953488372  0 20.79671511627907  L 1.4265000000000003 20.79671511627907  C 1.4265000000000003 16.30186046511628  4.8171 12.572834302325584  9.1242 12.12658430232558  Z " fill-rule="nonzero" fill="rgba(250, 173, 30, 1)" stroke="none" transform="matrix(1 0 0 1 46 269 )" class="fill" />
    <path d="M 24 17.651904069767443  C 24 18.049011627906978  23.6844 18.37011627906977  23.2941 18.37011627906977  L 16.1331 18.37011627906977  C 15.7428 18.37011627906977  15.427200000000001 18.049011627906978  15.427200000000001 17.651904069767443  C 15.427200000000001 17.25479651162791  15.7428 16.933691860465117  16.1331 16.933691860465117  L 23.2941 16.933691860465117  C 23.6844 16.933691860465117  24 17.25479651162791  24 17.651904069767443  Z " stroke-width="0" stroke-dasharray="0" stroke="rgba(255, 255, 255, 0)" fill="none" transform="matrix(1 0 0 1 46 269 )" class="stroke" mask="url(#Clip982)" />
    <path d="M 9.1242 12.12658430232558  C 8.612433448458926 11.524261517690777  8.210156130407738 10.834043365616962  7.936200000000001 10.088241279069766  C 6.613200000000001 9.34469476744186  5.7129 7.909796511627906  5.7129 6.271918604651163  C 5.7129 3.8743168604651164  7.6404000000000005 1.9131976744186048  9.994499999999999 1.9131976744186048  C 10.246199999999998 1.9131976744186048  10.4931 1.9357848837209308  10.733400000000001 1.9788226744186048  C 11.351465496400555 1.601860291041711  12.026432214443194 1.3312484622131109  12.731100000000001 1.1778924418604653  C 11.9172 0.7221802325581393  10.9842 0.4621220930232563  9.994499999999999 0.4621220930232563  C 6.855 0.4621220930232563  4.284 3.0776598837209304  4.284 6.272223837209303  C 4.284 8.304462209302326  5.283899999999999 10.120901162790698  6.855 11.138241279069767  C 2.8550999999999997 12.444636627906979  0 16.293313953488372  0 20.79671511627907  L 1.4265000000000003 20.79671511627907  C 1.4265000000000003 16.30186046511628  4.8171 12.572834302325584  9.1242 12.12658430232558  Z " stroke-width="0" stroke-dasharray="0" stroke="rgba(255, 255, 255, 0)" fill="none" transform="matrix(1 0 0 1 46 269 )" class="stroke" mask="url(#Clip982)" />
  </g>
</svg>