<?xml version="1.0" encoding="utf-8"?>
<svg version="1.1" xmlns:xlink="http://www.w3.org/1999/xlink" width="21px" height="24px" xmlns="http://www.w3.org/2000/svg">
  <defs>
    <pattern id="BGPattern" patternUnits="userSpaceOnUse" alignment="0 0" imageRepeat="None" />
    <mask fill="white" id="Clip984">
      <path d="M 4.658476242187501 12.501321140625002  L 4.656762328125001 12.501321140625002  L 16.3422582890625 12.501321140625002  C 16.7296038515625 12.501321140625002  17.043250921875 12.1653931171875  17.0432509453125 11.750624859375002  C 17.04325096875 11.3358566015625  16.729603875 10.999928578125001  16.340544375 11  L 4.658476242187501 11  C 4.269416765625 10.999928578125001  3.9557696718750006 11.335856601562499  3.9557696718750006 11.750624859375002  C 3.9557696718750006 12.1653931171875  4.27284459375 12.501321140625002  4.658476242187501 12.501321140625002  Z M 4.658476242187501 7.003070765625003  L 4.656762328125001 7  L 16.3422582890625 7  C 16.7296038515625 7.003070765625001  17.043250921875 6.668856679687502  17.0432509453125 6.254088398437502  C 17.0432509453125 5.837606226562502  16.729603875 5.503392117187502  16.340544375 5.503392140625002  L 4.658476242187501 5.503392140625002  C 4.269416765625 5.503392140625002  3.9557696718750006 5.837606226562502  3.9557696718750006 6.254088398437502  C 3.9557696718750006 6.668856656250002  4.27284459375 7.003070765625003  4.658476242187501 7.003070765625003  Z M 9.796803750000002 16.5016068046875  L 9.798517664062501 16.5016068046875  L 4.656762328125001 16.5016068046875  C 4.2677028515625 16.5016068046875  3.9540557578125006 16.835820890625  3.9540557578125006 17.250589148437502  C 3.9540557578125006 17.667071320312502  4.2677028281250005 18.001285429687503  4.656762328125001 18.001285429687503  L 9.798517664062501 18.001285429687503  C 10.185863226562502 18.001285429687503  10.499510296875002 17.667071343750003  10.4995103203125 17.250589148437502  C 10.4995103203125 16.835820890625  10.18586325 16.50160678125  9.796803750000002 16.5016068046875  Z M 17.5111506796875 17.749339429687502  C 17.5111506796875 16.23252159375  16.359397476562503 15.0002142421875  14.940273000000003 15.0002142421875  C 13.521148523437503 15.0002142421875  12.369395320312503 16.2308076796875  12.369395343750002 17.749339429687502  C 12.369395343750002 19.269585093750003  13.521148546875004 20.4984646171875  14.940273000000003 20.4984646171875  C 16.3628253046875 20.4984646171875  17.5111506796875 19.269585093750003  17.5111506796875 17.749339429687502  Z M 14.941986914062502 19.0004998828125  L 14.940273000000003 19.0004998828125  C 14.294125734375003 19.0004998828125  13.774808460937503 18.4400485546875  13.774808460937503 17.7527672578125  C 13.774808460937503 17.060344195312503  14.297553585937504 16.50332071875  14.940273000000003 16.50332071875  C 15.588134179687502 16.50332071875  16.109165390625 17.063772046875002  16.109165390625 17.7527672578125  C 16.109165390625 18.4400485546875  15.584706351562502 19.0004998828125  14.941986914062502 19.0004998828125  Z M 18.446950148437498 0.0051417656249999055  L 18.4486640625 0  L 2.55207046875 0  C 1.2597759609374999 0.005141765625  0.21428571093750015 1.126044421875  0.21428571093750015 2.5057487578125  L 0.21428571093750015 21.5011068984375  C 0.21428571093750015 22.8808112578125  1.261489875 24  2.55207046875 24  L 18.443522296875 24  C 19.734102890624996 24  20.7813070546875 22.8808112578125  20.781307078125 21.5011068984375  L 20.781307078125 2.5057487578125  C 20.7830209921875 1.1260443984375  19.735816828125 0.005141742187499965  18.446950148437498 0.0051417656249999055  Z M 19.381035703125 21.5011068984375  L 19.3827496171875 21.5011068984375  C 19.3827496171875 22.0529886328125  18.964553507812504 22.500321351562498  18.4486640625 22.500321351562498  L 2.55207046875 22.500321351562498  C 2.0361810234375 22.500321351562498  1.6179849140624998 22.0529886328125  2 21.5011068984375  L 2 2.5057487578125  C 1.6179849140624998 1.9538670234375  2.0361810234374995 1.5065343046875  2.55207046875 1.5065343046875  L 18.443522296875 1.5065343046875  C 18.9594117421875 1.5065343046875  19.377607851562498 1.952153109375  19 2.5057487578125  L 19 21.5011068984375  L 19.381035703125 21.5011068984375  Z " fill-rule="evenodd" />
    </mask>
  </defs>
  <g transform="matrix(1 0 0 1 -884 -284 )">
    <path d="M 4.658476242187501 12.501321140625002  L 4.656762328125001 12.501321140625002  L 16.3422582890625 12.501321140625002  C 16.7296038515625 12.501321140625002  17.043250921875 12.1653931171875  17.0432509453125 11.750624859375002  C 17.04325096875 11.3358566015625  16.729603875 10.999928578125001  16.340544375 11  L 4.658476242187501 11  C 4.269416765625 10.999928578125001  3.9557696718750006 11.335856601562499  3.9557696718750006 11.750624859375002  C 3.9557696718750006 12.1653931171875  4.27284459375 12.501321140625002  4.658476242187501 12.501321140625002  Z M 4.658476242187501 7.003070765625003  L 4.656762328125001 7  L 16.3422582890625 7  C 16.7296038515625 7.003070765625001  17.043250921875 6.668856679687502  17.0432509453125 6.254088398437502  C 17.0432509453125 5.837606226562502  16.729603875 5.503392117187502  16.340544375 5.503392140625002  L 4.658476242187501 5.503392140625002  C 4.269416765625 5.503392140625002  3.9557696718750006 5.837606226562502  3.9557696718750006 6.254088398437502  C 3.9557696718750006 6.668856656250002  4.27284459375 7.003070765625003  4.658476242187501 7.003070765625003  Z M 9.796803750000002 16.5016068046875  L 9.798517664062501 16.5016068046875  L 4.656762328125001 16.5016068046875  C 4.2677028515625 16.5016068046875  3.9540557578125006 16.835820890625  3.9540557578125006 17.250589148437502  C 3.9540557578125006 17.667071320312502  4.2677028281250005 18.001285429687503  4.656762328125001 18.001285429687503  L 9.798517664062501 18.001285429687503  C 10.185863226562502 18.001285429687503  10.499510296875002 17.667071343750003  10.4995103203125 17.250589148437502  C 10.4995103203125 16.835820890625  10.18586325 16.50160678125  9.796803750000002 16.5016068046875  Z M 17.5111506796875 17.749339429687502  C 17.5111506796875 16.23252159375  16.359397476562503 15.0002142421875  14.940273000000003 15.0002142421875  C 13.521148523437503 15.0002142421875  12.369395320312503 16.2308076796875  12.369395343750002 17.749339429687502  C 12.369395343750002 19.269585093750003  13.521148546875004 20.4984646171875  14.940273000000003 20.4984646171875  C 16.3628253046875 20.4984646171875  17.5111506796875 19.269585093750003  17.5111506796875 17.749339429687502  Z M 14.941986914062502 19.0004998828125  L 14.940273000000003 19.0004998828125  C 14.294125734375003 19.0004998828125  13.774808460937503 18.4400485546875  13.774808460937503 17.7527672578125  C 13.774808460937503 17.060344195312503  14.297553585937504 16.50332071875  14.940273000000003 16.50332071875  C 15.588134179687502 16.50332071875  16.109165390625 17.063772046875002  16.109165390625 17.7527672578125  C 16.109165390625 18.4400485546875  15.584706351562502 19.0004998828125  14.941986914062502 19.0004998828125  Z M 18.446950148437498 0.0051417656249999055  L 18.4486640625 0  L 2.55207046875 0  C 1.2597759609374999 0.005141765625  0.21428571093750015 1.126044421875  0.21428571093750015 2.5057487578125  L 0.21428571093750015 21.5011068984375  C 0.21428571093750015 22.8808112578125  1.261489875 24  2.55207046875 24  L 18.443522296875 24  C 19.734102890624996 24  20.7813070546875 22.8808112578125  20.781307078125 21.5011068984375  L 20.781307078125 2.5057487578125  C 20.7830209921875 1.1260443984375  19.735816828125 0.005141742187499965  18.446950148437498 0.0051417656249999055  Z M 19.381035703125 21.5011068984375  L 19.3827496171875 21.5011068984375  C 19.3827496171875 22.0529886328125  18.964553507812504 22.500321351562498  18.4486640625 22.500321351562498  L 2.55207046875 22.500321351562498  C 2.0361810234375 22.500321351562498  1.6179849140624998 22.0529886328125  2 21.5011068984375  L 2 2.5057487578125  C 1.6179849140624998 1.9538670234375  2.0361810234374995 1.5065343046875  2.55207046875 1.5065343046875  L 18.443522296875 1.5065343046875  C 18.9594117421875 1.5065343046875  19.377607851562498 1.952153109375  19 2.5057487578125  L 19 21.5011068984375  L 19.381035703125 21.5011068984375  Z " fill-rule="nonzero" fill="rgba(132, 0, 255, 1)" stroke="none" transform="matrix(1 0 0 1 884 284 )" class="fill" />
    <path d="M 4.658476242187501 12.501321140625002  L 4.656762328125001 12.501321140625002  L 16.3422582890625 12.501321140625002  C 16.7296038515625 12.501321140625002  17.043250921875 12.1653931171875  17.0432509453125 11.750624859375002  C 17.04325096875 11.3358566015625  16.729603875 10.999928578125001  16.340544375 11  L 4.658476242187501 11  C 4.269416765625 10.999928578125001  3.9557696718750006 11.335856601562499  3.9557696718750006 11.750624859375002  C 3.9557696718750006 12.1653931171875  4.27284459375 12.501321140625002  4.658476242187501 12.501321140625002  Z " stroke-width="0" stroke-dasharray="0" stroke="rgba(255, 255, 255, 0)" fill="none" transform="matrix(1 0 0 1 884 284 )" class="stroke" mask="url(#Clip984)" />
    <path d="M 4.658476242187501 7.003070765625003  L 4.656762328125001 7  L 16.3422582890625 7  C 16.7296038515625 7.003070765625001  17.043250921875 6.668856679687502  17.0432509453125 6.254088398437502  C 17.0432509453125 5.837606226562502  16.729603875 5.503392117187502  16.340544375 5.503392140625002  L 4.658476242187501 5.503392140625002  C 4.269416765625 5.503392140625002  3.9557696718750006 5.837606226562502  3.9557696718750006 6.254088398437502  C 3.9557696718750006 6.668856656250002  4.27284459375 7.003070765625003  4.658476242187501 7.003070765625003  Z " stroke-width="0" stroke-dasharray="0" stroke="rgba(255, 255, 255, 0)" fill="none" transform="matrix(1 0 0 1 884 284 )" class="stroke" mask="url(#Clip984)" />
    <path d="M 9.796803750000002 16.5016068046875  L 9.798517664062501 16.5016068046875  L 4.656762328125001 16.5016068046875  C 4.2677028515625 16.5016068046875  3.9540557578125006 16.835820890625  3.9540557578125006 17.250589148437502  C 3.9540557578125006 17.667071320312502  4.2677028281250005 18.001285429687503  4.656762328125001 18.001285429687503  L 9.798517664062501 18.001285429687503  C 10.185863226562502 18.001285429687503  10.499510296875002 17.667071343750003  10.4995103203125 17.250589148437502  C 10.4995103203125 16.835820890625  10.18586325 16.50160678125  9.796803750000002 16.5016068046875  Z " stroke-width="0" stroke-dasharray="0" stroke="rgba(255, 255, 255, 0)" fill="none" transform="matrix(1 0 0 1 884 284 )" class="stroke" mask="url(#Clip984)" />
    <path d="M 17.5111506796875 17.749339429687502  C 17.5111506796875 16.23252159375  16.359397476562503 15.0002142421875  14.940273000000003 15.0002142421875  C 13.521148523437503 15.0002142421875  12.369395320312503 16.2308076796875  12.369395343750002 17.749339429687502  C 12.369395343750002 19.269585093750003  13.521148546875004 20.4984646171875  14.940273000000003 20.4984646171875  C 16.3628253046875 20.4984646171875  17.5111506796875 19.269585093750003  17.5111506796875 17.749339429687502  Z " stroke-width="0" stroke-dasharray="0" stroke="rgba(255, 255, 255, 0)" fill="none" transform="matrix(1 0 0 1 884 284 )" class="stroke" mask="url(#Clip984)" />
    <path d="M 14.941986914062502 19.0004998828125  L 14.940273000000003 19.0004998828125  C 14.294125734375003 19.0004998828125  13.774808460937503 18.4400485546875  13.774808460937503 17.7527672578125  C 13.774808460937503 17.060344195312503  14.297553585937504 16.50332071875  14.940273000000003 16.50332071875  C 15.588134179687502 16.50332071875  16.109165390625 17.063772046875002  16.109165390625 17.7527672578125  C 16.109165390625 18.4400485546875  15.584706351562502 19.0004998828125  14.941986914062502 19.0004998828125  Z " stroke-width="0" stroke-dasharray="0" stroke="rgba(255, 255, 255, 0)" fill="none" transform="matrix(1 0 0 1 884 284 )" class="stroke" mask="url(#Clip984)" />
    <path d="M 18.446950148437498 0.0051417656249999055  L 18.4486640625 0  L 2.55207046875 0  C 1.2597759609374999 0.005141765625  0.21428571093750015 1.126044421875  0.21428571093750015 2.5057487578125  L 0.21428571093750015 21.5011068984375  C 0.21428571093750015 22.8808112578125  1.261489875 24  2.55207046875 24  L 18.443522296875 24  C 19.734102890624996 24  20.7813070546875 22.8808112578125  20.781307078125 21.5011068984375  L 20.781307078125 2.5057487578125  C 20.7830209921875 1.1260443984375  19.735816828125 0.005141742187499965  18.446950148437498 0.0051417656249999055  Z " stroke-width="0" stroke-dasharray="0" stroke="rgba(255, 255, 255, 0)" fill="none" transform="matrix(1 0 0 1 884 284 )" class="stroke" mask="url(#Clip984)" />
    <path d="M 19.381035703125 21.5011068984375  L 19.3827496171875 21.5011068984375  C 19.3827496171875 22.0529886328125  18.964553507812504 22.500321351562498  18.4486640625 22.500321351562498  L 2.55207046875 22.500321351562498  C 2.0361810234375 22.500321351562498  1.6179849140624998 22.0529886328125  2 21.5011068984375  L 2 2.5057487578125  C 1.6179849140624998 1.9538670234375  2.0361810234374995 1.5065343046875  2.55207046875 1.5065343046875  L 18.443522296875 1.5065343046875  C 18.9594117421875 1.5065343046875  19.377607851562498 1.952153109375  19 2.5057487578125  L 19 21.5011068984375  L 19.381035703125 21.5011068984375  Z " stroke-width="0" stroke-dasharray="0" stroke="rgba(255, 255, 255, 0)" fill="none" transform="matrix(1 0 0 1 884 284 )" class="stroke" mask="url(#Clip984)" />
  </g>
</svg>