<?xml version="1.0" encoding="utf-8"?>
<svg version="1.1" xmlns:xlink="http://www.w3.org/1999/xlink" width="15px" height="15px" xmlns="http://www.w3.org/2000/svg">
  <defs>
    <pattern id="BGPattern" patternUnits="userSpaceOnUse" alignment="0 0" imageRepeat="None" />
    <mask fill="white" id="Clip985">
      <path d="M 0.06656646634615353 7.318062379807692  C 0.06656646634615353 11.359716630485924  3.342974595475614 14.636124759615385  7.384628846153847 14.636124759615385  C 11.426283096832078 14.636124759615385  14.70269122596154 11.359716630485924  14.70269122596154 7.318062379807692  C 14.70269122596154 3.2764081291294604  11.426283096832078 0  7.384628846153847 0  C 3.342974595475614 0  0.06656646634615353 3.2764081291294604  0.06656646634615353 7.318062379807692  Z " fill-rule="evenodd" />
    </mask>
  </defs>
  <g transform="matrix(1 0 0 1 -1051 -282 )">
    <path d="M 0.06656646634615353 7.318062379807692  C 0.06656646634615353 11.359716630485924  3.342974595475614 14.636124759615385  7.384628846153847 14.636124759615385  C 11.426283096832078 14.636124759615385  14.70269122596154 11.359716630485924  14.70269122596154 7.318062379807692  C 14.70269122596154 3.2764081291294604  11.426283096832078 0  7.384628846153847 0  C 3.342974595475614 0  0.06656646634615353 3.2764081291294604  0.06656646634615353 7.318062379807692  Z " fill-rule="nonzero" fill="rgba(64, 158, 255, 1)" stroke="none" transform="matrix(1 0 0 1 1051 282 )" class="fill" />
    <path d="M 0.06656646634615353 7.318062379807692  C 0.06656646634615353 11.359716630485924  3.342974595475614 14.636124759615385  7.384628846153847 14.636124759615385  C 11.426283096832078 14.636124759615385  14.70269122596154 11.359716630485924  14.70269122596154 7.318062379807692  C 14.70269122596154 3.2764081291294604  11.426283096832078 0  7.384628846153847 0  C 3.342974595475614 0  0.06656646634615353 3.2764081291294604  0.06656646634615353 7.318062379807692  Z " stroke-width="0" stroke-dasharray="0" stroke="rgba(255, 255, 255, 0)" fill="none" transform="matrix(1 0 0 1 1051 282 )" class="stroke" mask="url(#Clip985)" />
  </g>
</svg>