<?xml version="1.0" encoding="utf-8"?>
<svg version="1.1" xmlns:xlink="http://www.w3.org/1999/xlink" width="11px" height="8px" xmlns="http://www.w3.org/2000/svg">
  <defs>
    <pattern id="BGPattern" patternUnits="userSpaceOnUse" alignment="0 0" imageRepeat="None" />
    <mask fill="white" id="Clip464">
      <path d="M 10.921287142857143 5.630429625  C 10.921287142857143 2.625667174999998  8.52928847767857 0.19049762500000042  5.578496785714286 0.19049762500000042  C 2.6277050937500004 0.19049762500000042  0.23570642857142943 2.625667175000001  0.23570642857142943 5.630429624999996  C 0.23642220556384785 6.451735997269696  0.4208560002005355 7.2620878443840295  0.7750139620535719 8  L 10.381979609375001 7.999999999999997  C 10.736137571228035 7.2620878443840295  10.920571365864724 6.451735997269696  10.921287142857143 5.630429625  Z M 7.984009564732139 6.472339100000002  L 7.984009564732141 6.623697200000004  C 7.983490583171563 6.782076668502822  7.857336563213782 6.910238330384198  7.701784529017857 6.910413625000001  L 3.455209042410713 6.910413625000001  C 3.299657008214794 6.910238330384198  3.173502988257008 6.782076668502822  3.172984006696429 6.6236972000000005  L 3.172984006696429 6.472339100000002  C 3.172984006696429 6.398100025000002  3.2015836383928584 6.330580875000001  3.245897383928572 6.282261475000001  C 3.298206482909207 6.22012765367154  3.3748382401774233 6.184746915121218  3.455209042410713 6.185622675000002  L 3.601035796874999 6.185622675000002  C 3.756290999999999 6.185622675000002  3.9115462031249995 6.150423125000003  4.051087316964285 6.07618405  C 4.730863296190772 5.721517355592718  5.116941018820544 4.968796900966654  5.014360975446428 4.198127525000001  C 5.011304612835155 4.17704899570524  4.996638284538681 4.159627173805442  4.976647156249999 4.153328075000002  C 4.418482700892856 3.940530725000002  4.0130592120535695 3.409017375000002  3.9844595803571425 2.7744653250000026  L 3.9844595803571425 2.700546250000005  C 3.9847907683155497 1.8441797921914087  4.666709000991529 1.1501363919611323  5.507783265830548 1.1501363919611323  C 5.545115893201429 1.1501363919611323  5.582435903741303 1.15153372983209  5.619667698660715 1.1543255750000014  C 6.443714529017858 1.2154448000000002  7.0744780758928565 1.9498356250000028  7.029850069196428 2.787585150000001  C 7.029850069196428 2.790785100000002  7.029850069196428 2.7939850750000006  7.026707261160712 2.797185025000002  C 6.991128503289221 3.389723787983911  6.625440605302521 3.9091795966712994  6.085747593749998 4.133808325000001  C 6.0665764107142826 4.140208250000001  6.050548035714283 4.159408000000002  6.050548035714283 4.178607774999998  C 5.93887246556795 4.955061684624877  6.324865338675051 5.7177987639169485  7.010678886160712 6.075864050000002  C 7.150219999999998 6.150103125000001  7.305789488839284 6.185622675000002  7.461044691964283 6.185622675000002  L 7.701784529017853 6.185622674999999  C 7.702519325965501 6.185616785122681  7.703254142836756 6.185613840149804  7.703988962554132 6.185613840149804  C 7.85864253291052 6.185613840149804  7.984014022821991 6.31326481169603  7.984014022821991 6.470730265149802  C 7.984014022821991 6.471266546634581  7.9840125367861265 6.471802827052997  7.984009564732139 6.472339100000002  Z " fill-rule="evenodd" />
    </mask>
  </defs>
  <g transform="matrix(1 0 0 1 -1060 -299 )">
    <path d="M 10.921287142857143 5.630429625  C 10.921287142857143 2.625667174999998  8.52928847767857 0.19049762500000042  5.578496785714286 0.19049762500000042  C 2.6277050937500004 0.19049762500000042  0.23570642857142943 2.625667175000001  0.23570642857142943 5.630429624999996  C 0.23642220556384785 6.451735997269696  0.4208560002005355 7.2620878443840295  0.7750139620535719 8  L 10.381979609375001 7.999999999999997  C 10.736137571228035 7.2620878443840295  10.920571365864724 6.451735997269696  10.921287142857143 5.630429625  Z M 7.984009564732139 6.472339100000002  L 7.984009564732141 6.623697200000004  C 7.983490583171563 6.782076668502822  7.857336563213782 6.910238330384198  7.701784529017857 6.910413625000001  L 3.455209042410713 6.910413625000001  C 3.299657008214794 6.910238330384198  3.173502988257008 6.782076668502822  3.172984006696429 6.6236972000000005  L 3.172984006696429 6.472339100000002  C 3.172984006696429 6.398100025000002  3.2015836383928584 6.330580875000001  3.245897383928572 6.282261475000001  C 3.298206482909207 6.22012765367154  3.3748382401774233 6.184746915121218  3.455209042410713 6.185622675000002  L 3.601035796874999 6.185622675000002  C 3.756290999999999 6.185622675000002  3.9115462031249995 6.150423125000003  4.051087316964285 6.07618405  C 4.730863296190772 5.721517355592718  5.116941018820544 4.968796900966654  5.014360975446428 4.198127525000001  C 5.011304612835155 4.17704899570524  4.996638284538681 4.159627173805442  4.976647156249999 4.153328075000002  C 4.418482700892856 3.940530725000002  4.0130592120535695 3.409017375000002  3.9844595803571425 2.7744653250000026  L 3.9844595803571425 2.700546250000005  C 3.9847907683155497 1.8441797921914087  4.666709000991529 1.1501363919611323  5.507783265830548 1.1501363919611323  C 5.545115893201429 1.1501363919611323  5.582435903741303 1.15153372983209  5.619667698660715 1.1543255750000014  C 6.443714529017858 1.2154448000000002  7.0744780758928565 1.9498356250000028  7.029850069196428 2.787585150000001  C 7.029850069196428 2.790785100000002  7.029850069196428 2.7939850750000006  7.026707261160712 2.797185025000002  C 6.991128503289221 3.389723787983911  6.625440605302521 3.9091795966712994  6.085747593749998 4.133808325000001  C 6.0665764107142826 4.140208250000001  6.050548035714283 4.159408000000002  6.050548035714283 4.178607774999998  C 5.93887246556795 4.955061684624877  6.324865338675051 5.7177987639169485  7.010678886160712 6.075864050000002  C 7.150219999999998 6.150103125000001  7.305789488839284 6.185622675000002  7.461044691964283 6.185622675000002  L 7.701784529017853 6.185622674999999  C 7.702519325965501 6.185616785122681  7.703254142836756 6.185613840149804  7.703988962554132 6.185613840149804  C 7.85864253291052 6.185613840149804  7.984014022821991 6.31326481169603  7.984014022821991 6.470730265149802  C 7.984014022821991 6.471266546634581  7.9840125367861265 6.471802827052997  7.984009564732139 6.472339100000002  Z " fill-rule="nonzero" fill="rgba(64, 158, 255, 1)" stroke="none" transform="matrix(1 0 0 1 1060 299 )" class="fill" />
    <path d="M 10.921287142857143 5.630429625  C 10.921287142857143 2.625667174999998  8.52928847767857 0.19049762500000042  5.578496785714286 0.19049762500000042  C 2.6277050937500004 0.19049762500000042  0.23570642857142943 2.625667175000001  0.23570642857142943 5.630429624999996  C 0.23642220556384785 6.451735997269696  0.4208560002005355 7.2620878443840295  0.7750139620535719 8  L 10.381979609375001 7.999999999999997  C 10.736137571228035 7.2620878443840295  10.920571365864724 6.451735997269696  10.921287142857143 5.630429625  Z " stroke-width="0" stroke-dasharray="0" stroke="rgba(255, 255, 255, 0)" fill="none" transform="matrix(1 0 0 1 1060 299 )" class="stroke" mask="url(#Clip464)" />
    <path d="M 7.984009564732139 6.472339100000002  L 7.984009564732141 6.623697200000004  C 7.983490583171563 6.782076668502822  7.857336563213782 6.910238330384198  7.701784529017857 6.910413625000001  L 3.455209042410713 6.910413625000001  C 3.299657008214794 6.910238330384198  3.173502988257008 6.782076668502822  3.172984006696429 6.6236972000000005  L 3.172984006696429 6.472339100000002  C 3.172984006696429 6.398100025000002  3.2015836383928584 6.330580875000001  3.245897383928572 6.282261475000001  C 3.298206482909207 6.22012765367154  3.3748382401774233 6.184746915121218  3.455209042410713 6.185622675000002  L 3.601035796874999 6.185622675000002  C 3.756290999999999 6.185622675000002  3.9115462031249995 6.150423125000003  4.051087316964285 6.07618405  C 4.730863296190772 5.721517355592718  5.116941018820544 4.968796900966654  5.014360975446428 4.198127525000001  C 5.011304612835155 4.17704899570524  4.996638284538681 4.159627173805442  4.976647156249999 4.153328075000002  C 4.418482700892856 3.940530725000002  4.0130592120535695 3.409017375000002  3.9844595803571425 2.7744653250000026  L 3.9844595803571425 2.700546250000005  C 3.9847907683155497 1.8441797921914087  4.666709000991529 1.1501363919611323  5.507783265830548 1.1501363919611323  C 5.545115893201429 1.1501363919611323  5.582435903741303 1.15153372983209  5.619667698660715 1.1543255750000014  C 6.443714529017858 1.2154448000000002  7.0744780758928565 1.9498356250000028  7.029850069196428 2.787585150000001  C 7.029850069196428 2.790785100000002  7.029850069196428 2.7939850750000006  7.026707261160712 2.797185025000002  C 6.991128503289221 3.389723787983911  6.625440605302521 3.9091795966712994  6.085747593749998 4.133808325000001  C 6.0665764107142826 4.140208250000001  6.050548035714283 4.159408000000002  6.050548035714283 4.178607774999998  C 5.93887246556795 4.955061684624877  6.324865338675051 5.7177987639169485  7.010678886160712 6.075864050000002  C 7.150219999999998 6.150103125000001  7.305789488839284 6.185622675000002  7.461044691964283 6.185622675000002  L 7.701784529017853 6.185622674999999  C 7.702519325965501 6.185616785122681  7.703254142836756 6.185613840149804  7.703988962554132 6.185613840149804  C 7.85864253291052 6.185613840149804  7.984014022821991 6.31326481169603  7.984014022821991 6.470730265149802  C 7.984014022821991 6.471266546634581  7.9840125367861265 6.471802827052997  7.984009564732139 6.472339100000002  Z " stroke-width="0" stroke-dasharray="0" stroke="rgba(255, 255, 255, 0)" fill="none" transform="matrix(1 0 0 1 1060 299 )" class="stroke" mask="url(#Clip464)" />
  </g>
</svg>