<?xml version="1.0" encoding="utf-8"?>
<svg version="1.1" xmlns:xlink="http://www.w3.org/1999/xlink" width="17px" height="10px" xmlns="http://www.w3.org/2000/svg">
  <defs>
    <pattern id="BGPattern" patternUnits="userSpaceOnUse" alignment="0 0" imageRepeat="None" />
    <mask fill="white" id="Clip986">
      <path d="M 11.13686504971591 10  C 10.874387616235657 9.268400114197277  10.740446580498276 8.497846825444846  10.740924545454545 7.721566947115384  C 10.740924545454545 4.276994615384614  13.325510417613637 1.4357993509615377  16.669214072443182 1.0093431490384601  C 15.10461545028409 0.34012074519230634  13.177766798295455 0.02012473557692227  10.895468068181817 0.020124759615383757  C 3.882901178977273 0.020124759615383757  0.2026017258522721 3.018548822115385  0.2026017258522721 10  L 11.13686504971591 10  Z " fill-rule="evenodd" />
    </mask>
  </defs>
  <g transform="matrix(1 0 0 1 -1048 -296 )">
    <path d="M 11.13686504971591 10  C 10.874387616235657 9.268400114197277  10.740446580498276 8.497846825444846  10.740924545454545 7.721566947115384  C 10.740924545454545 4.276994615384614  13.325510417613637 1.4357993509615377  16.669214072443182 1.0093431490384601  C 15.10461545028409 0.34012074519230634  13.177766798295455 0.02012473557692227  10.895468068181817 0.020124759615383757  C 3.882901178977273 0.020124759615383757  0.2026017258522721 3.018548822115385  0.2026017258522721 10  L 11.13686504971591 10  Z " fill-rule="nonzero" fill="rgba(64, 158, 255, 1)" stroke="none" transform="matrix(1 0 0 1 1048 296 )" class="fill" />
    <path d="M 11.13686504971591 10  C 10.874387616235657 9.268400114197277  10.740446580498276 8.497846825444846  10.740924545454545 7.721566947115384  C 10.740924545454545 4.276994615384614  13.325510417613637 1.4357993509615377  16.669214072443182 1.0093431490384601  C 15.10461545028409 0.34012074519230634  13.177766798295455 0.02012473557692227  10.895468068181817 0.020124759615383757  C 3.882901178977273 0.020124759615383757  0.2026017258522721 3.018548822115385  0.2026017258522721 10  L 11.13686504971591 10  Z " stroke-width="0" stroke-dasharray="0" stroke="rgba(255, 255, 255, 0)" fill="none" transform="matrix(1 0 0 1 1048 296 )" class="stroke" mask="url(#Clip986)" />
  </g>
</svg>