<?xml version="1.0" encoding="utf-8"?>
<svg version="1.1" xmlns:xlink="http://www.w3.org/1999/xlink" width="14px" height="16px" xmlns="http://www.w3.org/2000/svg">
  <defs>
    <pattern id="BGPattern" patternUnits="userSpaceOnUse" alignment="0 0" imageRepeat="None" />
    <mask fill="white" id="Clip25">
      <path d="M 0.49504000000000026 6.256037647058821  C 1.5881599999999991 3.2274070588235304  4.532416000000003 1.416734117647058  7.569856 1.649844705882351  L 7.569856 0.6252423529411765  C 7.569856 0.22407529411764712  8.01248 -0.014456470588236377  8.343999999999998 0.20781176470588286  L 11.331263999999997 2.2154541176470577  C 11.626943999999998 2.4142305882352946  11.626943999999998 2.8515388235294115  11.331263999999997 3.0503152941176483  L 8.343999999999998 5.059764705882351  C 8.01248 5.28203294117647  7.569856 5.043501176470587  7.569856 4.642334117647057  L 7.569856 2.826240000000001  C 5.007296 2.5895152941176454  2.5092479999999986 4.1038305882352955  1.5863680000000007 6.65720470588235  C 0.48966399999999816 9.69487058823529  2.043328 13.056  5.057472000000001 14.161919999999995  C 8.071616000000004 15.267839999999993  11.404736000000002 13.70112  12.501440000000004 10.661647058823526  C 12.612544000000002 10.354447058823526  12.698560000000002 10.03821176470588  12.757695999999997 9.714748235294117  L 12.768448000000003 9.660536470588234  C 12.773823999999998 9.613552941176469  12.784576000000001 9.568376470588232  12.800704000000001 9.52500705882353  C 12.910016 9.221421176470585  13.243327999999996 9.064207058823527  13.544383999999999 9.17443764705882  C 13.845440000000002 9.284668235294115  14.001344000000001 9.620781176470587  13.892032000000002 9.924367058823531  C 13.829312000000002 10.307463529411761  13.72896 10.686945882352935  13.592767999999998 11.061007058823527  C 12.275647999999997 14.707651764705883  8.277696000000002 16.5888  4.661439999999999 15.26061176470588  C 1.0433920000000014 13.936037647058825  -0.8202879999999988 9.902682352941175  0.49504000000000026 6.256037647058821  Z " fill-rule="evenodd" />
    </mask>
  </defs>
  <g transform="matrix(1 0 0 1 -1574 -111 )">
    <path d="M 0.49504000000000026 6.256037647058821  C 1.5881599999999991 3.2274070588235304  4.532416000000003 1.416734117647058  7.569856 1.649844705882351  L 7.569856 0.6252423529411765  C 7.569856 0.22407529411764712  8.01248 -0.014456470588236377  8.343999999999998 0.20781176470588286  L 11.331263999999997 2.2154541176470577  C 11.626943999999998 2.4142305882352946  11.626943999999998 2.8515388235294115  11.331263999999997 3.0503152941176483  L 8.343999999999998 5.059764705882351  C 8.01248 5.28203294117647  7.569856 5.043501176470587  7.569856 4.642334117647057  L 7.569856 2.826240000000001  C 5.007296 2.5895152941176454  2.5092479999999986 4.1038305882352955  1.5863680000000007 6.65720470588235  C 0.48966399999999816 9.69487058823529  2.043328 13.056  5.057472000000001 14.161919999999995  C 8.071616000000004 15.267839999999993  11.404736000000002 13.70112  12.501440000000004 10.661647058823526  C 12.612544000000002 10.354447058823526  12.698560000000002 10.03821176470588  12.757695999999997 9.714748235294117  L 12.768448000000003 9.660536470588234  C 12.773823999999998 9.613552941176469  12.784576000000001 9.568376470588232  12.800704000000001 9.52500705882353  C 12.910016 9.221421176470585  13.243327999999996 9.064207058823527  13.544383999999999 9.17443764705882  C 13.845440000000002 9.284668235294115  14.001344000000001 9.620781176470587  13.892032000000002 9.924367058823531  C 13.829312000000002 10.307463529411761  13.72896 10.686945882352935  13.592767999999998 11.061007058823527  C 12.275647999999997 14.707651764705883  8.277696000000002 16.5888  4.661439999999999 15.26061176470588  C 1.0433920000000014 13.936037647058825  -0.8202879999999988 9.902682352941175  0.49504000000000026 6.256037647058821  Z " fill-rule="nonzero" fill="rgba(96, 98, 102, 1)" stroke="none" transform="matrix(1 0 0 1 1574 111 )" class="fill" />
    <path d="M 0.49504000000000026 6.256037647058821  C 1.5881599999999991 3.2274070588235304  4.532416000000003 1.416734117647058  7.569856 1.649844705882351  L 7.569856 0.6252423529411765  C 7.569856 0.22407529411764712  8.01248 -0.014456470588236377  8.343999999999998 0.20781176470588286  L 11.331263999999997 2.2154541176470577  C 11.626943999999998 2.4142305882352946  11.626943999999998 2.8515388235294115  11.331263999999997 3.0503152941176483  L 8.343999999999998 5.059764705882351  C 8.01248 5.28203294117647  7.569856 5.043501176470587  7.569856 4.642334117647057  L 7.569856 2.826240000000001  C 5.007296 2.5895152941176454  2.5092479999999986 4.1038305882352955  1.5863680000000007 6.65720470588235  C 0.48966399999999816 9.69487058823529  2.043328 13.056  5.057472000000001 14.161919999999995  C 8.071616000000004 15.267839999999993  11.404736000000002 13.70112  12.501440000000004 10.661647058823526  C 12.612544000000002 10.354447058823526  12.698560000000002 10.03821176470588  12.757695999999997 9.714748235294117  L 12.768448000000003 9.660536470588234  C 12.773823999999998 9.613552941176469  12.784576000000001 9.568376470588232  12.800704000000001 9.52500705882353  C 12.910016 9.221421176470585  13.243327999999996 9.064207058823527  13.544383999999999 9.17443764705882  C 13.845440000000002 9.284668235294115  14.001344000000001 9.620781176470587  13.892032000000002 9.924367058823531  C 13.829312000000002 10.307463529411761  13.72896 10.686945882352935  13.592767999999998 11.061007058823527  C 12.275647999999997 14.707651764705883  8.277696000000002 16.5888  4.661439999999999 15.26061176470588  C 1.0433920000000014 13.936037647058825  -0.8202879999999988 9.902682352941175  0.49504000000000026 6.256037647058821  Z " stroke-width="0" stroke-dasharray="0" stroke="rgba(240, 246, 255, 1)" fill="none" transform="matrix(1 0 0 1 1574 111 )" class="stroke" mask="url(#Clip25)" />
  </g>
</svg>