<?xml version="1.0" encoding="utf-8"?>
<svg version="1.1" xmlns:xlink="http://www.w3.org/1999/xlink" width="14px" height="13px" xmlns="http://www.w3.org/2000/svg">
  <defs>
    <mask fill="white" id="clip121">
      <path d="M 13.44 10.784244791666666  C 13.44 10.711458333333336  13.37875 10.653906250000002  13.30525 10.653906250000002  L 12.363750000000001 10.653906250000002  C 12.29025 10.653906250000002  12.229 10.713151041666668  12.229 10.784244791666666  L 12.229 11.830338541666668  L 1.2092500000000004 11.830338541666668  L 1.2092500000000004 1.1696614583333338  L 12.23075 1.1696614583333338  L 12.23075 2.215755208333333  C 12.23075 2.286848958333332  12.292000000000002 2.3460937499999983  12.365499999999997 2.3460937499999983  L 13.307000000000002 2.3460937499999983  C 13.380499999999998 2.3460937499999983  13.441749999999999 2.2885416666666676  13.441749999999999 2.215755208333333  L 13.441749999999999 0.5196614583333341  C 13.441749999999999 0.23190104166666742  13.202000000000002 0  12.9045 0  L 0.5372500000000008 0  C 0.2397500000000008 0  0 0.23190104166666742  0 0.5196614583333341  L 0 12.480338541666665  C 0 12.768098958333333  0.2397500000000008 13  0.5372500000000008 13  L 12.90275 13  C 13.200249999999999 13  13.44 12.768098958333333  13.44 12.480338541666665  L 13.44 10.784244791666666  Z M 13.63075 6.606640625  C 13.7025 6.552473958333332  13.7025 6.447526041666666  13.63075 6.393359375000001  L 11.1475 4.497526041666667  C 11.05475 4.426432291666667  10.92 4.490755208333333  10.92 4.604166666666667  L 10.92 5.890625  L 5.425 5.890625  C 5.348 5.890625  5.285 5.9515625000000005  5.285 6.026041666666667  L 5.285 6.973958333333334  C 5.285 7.048437500000002  5.348 7.109375  5.425 7.109375  L 10.92 7.109375  L 10.92 8.395833333333334  C 10.92 8.509244791666667  11.0565 8.573567708333334  11.1475 8.502473958333333  L 13.63075 6.606640625  Z " fill-rule="evenodd" />
    </mask>
  </defs>
  <g transform="matrix(1 0 0 1 -50 -89 )">
    <path d="M 13.44 10.784244791666666  C 13.44 10.711458333333336  13.37875 10.653906250000002  13.30525 10.653906250000002  L 12.363750000000001 10.653906250000002  C 12.29025 10.653906250000002  12.229 10.713151041666668  12.229 10.784244791666666  L 12.229 11.830338541666668  L 1.2092500000000004 11.830338541666668  L 1.2092500000000004 1.1696614583333338  L 12.23075 1.1696614583333338  L 12.23075 2.215755208333333  C 12.23075 2.286848958333332  12.292000000000002 2.3460937499999983  12.365499999999997 2.3460937499999983  L 13.307000000000002 2.3460937499999983  C 13.380499999999998 2.3460937499999983  13.441749999999999 2.2885416666666676  13.441749999999999 2.215755208333333  L 13.441749999999999 0.5196614583333341  C 13.441749999999999 0.23190104166666742  13.202000000000002 0  12.9045 0  L 0.5372500000000008 0  C 0.2397500000000008 0  0 0.23190104166666742  0 0.5196614583333341  L 0 12.480338541666665  C 0 12.768098958333333  0.2397500000000008 13  0.5372500000000008 13  L 12.90275 13  C 13.200249999999999 13  13.44 12.768098958333333  13.44 12.480338541666665  L 13.44 10.784244791666666  Z M 13.63075 6.606640625  C 13.7025 6.552473958333332  13.7025 6.447526041666666  13.63075 6.393359375000001  L 11.1475 4.497526041666667  C 11.05475 4.426432291666667  10.92 4.490755208333333  10.92 4.604166666666667  L 10.92 5.890625  L 5.425 5.890625  C 5.348 5.890625  5.285 5.9515625000000005  5.285 6.026041666666667  L 5.285 6.973958333333334  C 5.285 7.048437500000002  5.348 7.109375  5.425 7.109375  L 10.92 7.109375  L 10.92 8.395833333333334  C 10.92 8.509244791666667  11.0565 8.573567708333334  11.1475 8.502473958333333  L 13.63075 6.606640625  Z " fill-rule="nonzero" fill="#ffffff" stroke="none" transform="matrix(1 0 0 1 50 89 )" />
    <path d="M 13.44 10.784244791666666  C 13.44 10.711458333333336  13.37875 10.653906250000002  13.30525 10.653906250000002  L 12.363750000000001 10.653906250000002  C 12.29025 10.653906250000002  12.229 10.713151041666668  12.229 10.784244791666666  L 12.229 11.830338541666668  L 1.2092500000000004 11.830338541666668  L 1.2092500000000004 1.1696614583333338  L 12.23075 1.1696614583333338  L 12.23075 2.215755208333333  C 12.23075 2.286848958333332  12.292000000000002 2.3460937499999983  12.365499999999997 2.3460937499999983  L 13.307000000000002 2.3460937499999983  C 13.380499999999998 2.3460937499999983  13.441749999999999 2.2885416666666676  13.441749999999999 2.215755208333333  L 13.441749999999999 0.5196614583333341  C 13.441749999999999 0.23190104166666742  13.202000000000002 0  12.9045 0  L 0.5372500000000008 0  C 0.2397500000000008 0  0 0.23190104166666742  0 0.5196614583333341  L 0 12.480338541666665  C 0 12.768098958333333  0.2397500000000008 13  0.5372500000000008 13  L 12.90275 13  C 13.200249999999999 13  13.44 12.768098958333333  13.44 12.480338541666665  L 13.44 10.784244791666666  Z " stroke-width="2" stroke="#f0f6ff" fill="none" transform="matrix(1 0 0 1 50 89 )" mask="url(#clip121)" />
    <path d="M 13.63075 6.606640625  C 13.7025 6.552473958333332  13.7025 6.447526041666666  13.63075 6.393359375000001  L 11.1475 4.497526041666667  C 11.05475 4.426432291666667  10.92 4.490755208333333  10.92 4.604166666666667  L 10.92 5.890625  L 5.425 5.890625  C 5.348 5.890625  5.285 5.9515625000000005  5.285 6.026041666666667  L 5.285 6.973958333333334  C 5.285 7.048437500000002  5.348 7.109375  5.425 7.109375  L 10.92 7.109375  L 10.92 8.395833333333334  C 10.92 8.509244791666667  11.0565 8.573567708333334  11.1475 8.502473958333333  L 13.63075 6.606640625  Z " stroke-width="2" stroke="#f0f6ff" fill="none" transform="matrix(1 0 0 1 50 89 )" mask="url(#clip121)" />
  </g>
</svg>