<?xml version="1.0" encoding="utf-8"?>
<svg version="1.1" xmlns:xlink="http://www.w3.org/1999/xlink" width="22px" height="22px" xmlns="http://www.w3.org/2000/svg">
  <g transform="matrix(1 0 0 1 -1049 -872 )">
    <path d="M 21.81453488372093 10.469374999999998  C 21.813255813953493 9.481562499999997  20.99433139534884 8.681249999999999  19.98354651162791 8.6796875  L 19.913197674418605 8.6796875  C 19.657383720930234 8.675625  19.433226744186047 8.5115625  19.357761627906978 8.2728125  C 19.220637945324476 7.871727995239899  19.054361772758437 7.480732237268532  18.860203488372097 7.102812500000001  C 18.73967101116252 6.880923787522361  18.779607285708344 6.608354895185991  18.95901162790698 6.428437500000001  L 19.00889534883721 6.379375000000001  C 19.35251741553324 6.043798142450322  19.54554651411978 5.588493971916594  19.545465116279072 5.113750000000001  C 19.545465116279072 4.639062500000001  19.35264534883721 4.183750000000002  19.00889534883721 3.8481250000000014  L 18.249767441860467 3.106250000000001  C 17.533808139534884 2.4087500000000013  16.375610465116278 2.4087500000000013  15.659651162790697 3.106250000000001  L 15.609767441860466 3.155312500000001  C 15.42558139534884 3.3306250000000013  15.146744186046512 3.3693750000000016  14.919389534883724 3.2515625000000004  C 14.532810527501923 3.0614530143202963  14.13270246467461 2.898843536644795  13.72218023255814 2.7650000000000006  C 13.477975153588655 2.6909697194424087  13.310046119139674 2.4720270523563013  13.305843023255816 2.2221875000000004  L 13.305843023255816 2.153437500000001  C 13.303924418604653 1.165937500000001  12.485319767441862 0.36562500000000053  11.474854651162794 0.36406250000000107  L 10.401395348837212 0.36406250000000107  C 9.390610465116282 0.3656250000000014  8.572005813953492 1.165937500000001  8.57008720930233 2.153437500000001  L 8.57008720930233 2.2221875000000004  C 8.565930232558143 2.4721875000000004  8.398052325581398 2.69125  8.153750000000004 2.7650000000000006  C 7.743176002369026 2.8987083035774424  7.343058082097688 3.061321787455201  6.956540697674423 3.2515625000000026  C 6.7295333715469665 3.3692928333222287  6.450724981746074 3.330404360046016  6.266482558139538 3.155312500000001  L 6.216279069767444 3.106250000000001  C 5.500319767441864 2.4087500000000013  4.341802325581398 2.4087500000000013  3.6261627906976774 3.106250000000001  L 2.867034883720933 3.8481250000000014  C 2.5235379571956233 4.183783598887855  2.330531344555402 4.6390347310703  2.330465116279073 5.113750000000001  C 2.330465116279073 5.588437500000001  2.523604651162794 6.043750000000001  2.867034883720933 6.379375000000001  L 2.917238372093026 6.428437500000003  C 3.0965551033035315 6.608419134243043  3.136362880953481 6.880993139500539  3.0157267441860487 7.102812500000001  C 2.8213861656168793 7.480690813340976  2.6550008408201418 7.871691954954748  2.517848837209305 8.272812499999999  C 2.442096922220142 8.51146746353836  2.2180625652017993 8.675579929022593  1.9624127906976772 8.6796875  L 1.892063953488375 8.6796875  C 0.8815988372093051 8.68125  0.06267441860465392 9.4815625  0.06107558139535168 10.469375  L 0.06107558139535168 11.5184375  C 0.06267441860465402 12.5059375  0.8815988372093051 13.306250000000002  1.892063953488375 13.3078125  L 1.9624127906976772 13.3078125  C 2.2182267441860493 13.311875  2.4423837209302355 13.4759375  2.5178488372093053 13.7146875  C 2.655029069767445 14.115937500000001  2.8213081395348865 14.506875  3.0157267441860496 14.884687499999998  C 3.1362790697674443 15.106562499999999  3.096308139534886 15.379062500000002  2.917238372093026 15.559374999999998  L 2.867034883720933 15.608124999999998  C 2.5235379571956242 15.943783598887851  2.330531344555402 16.399034731070298  2.330465116279073 16.873749999999998  C 2.330465116279073 17.3484375  2.523604651162794 17.803749999999997  2.867034883720933 18.139374999999998  L 3.6261627906976774 18.881249999999998  C 3.969543761213628 19.217062474271113  4.435436400829539 19.40570454788978  4.921220930232561 19.405624999999997  C 5.406947674418608 19.405624999999997  5.872848837209306 19.217187499999998  6.216279069767444 18.881249999999998  L 6.266482558139537 18.832499999999996  C 6.450659306426074 18.65732246927179  6.729462489270864 18.618308463348182  6.956540697674421 18.7359375  C 7.343151743949038 18.92589105343211  7.74325592117775 19.0883945152742  8.153750000000002 19.222187499999993  C 8.397955078969487 19.296217780557583  8.565884113418468 19.51516044764369  8.570087209302327 19.764999999999997  L 8.570087209302327 19.83375  C 8.57168604651163 20.82125  9.390610465116282 21.6215625  10.40139534883721 21.623124999999998  L 11.47485465116279 21.623124999999998  C 12.485319767441862 21.6215625  13.304244186046512 20.82125  13.305843023255816 19.83375  L 13.305843023255816 19.764999999999997  C 13.309673938659989 19.51553288326822  13.476917260919102 19.296643646167652  13.72058139534884 19.222187499999997  C 14.131802325581397 19.088749999999997  14.53247093023256 18.926249999999996  14.919389534883724 18.735937500000002  C 15.146721249710794 18.619131774115882  15.425087759229047 18.6580666325517  15.609767441860466 18.8325  L 15.659651162790697 18.881249999999998  C 16.003032133306647 19.217062474271113  16.46892477292256 19.40570454788978  16.954709302325583 19.405624999999997  C 17.440436046511632 19.405624999999997  17.906337209302325 19.217187499999998  18.249767441860467 18.881249999999998  L 19.00889534883721 18.139374999999998  C 19.352517415533235 17.80379814245032  19.54554651411978 17.34849397191659  19.545465116279072 16.873749999999998  C 19.545465116279072 16.399062499999996  19.35264534883721 15.943749999999998  19.00889534883721 15.608124999999998  L 18.95901162790698 15.559374999999998  C 18.77962209302326 15.379375000000001  18.73997093023256 15.106874999999999  18.860203488372097 14.884687500000002  C 19.05457456630263 14.506863068413445  19.220857178420115 14.115852167939932  19.357761627906978 13.714687499999995  C 19.43351354289614 13.476032536461634  19.65754789991448 13.311920070977404  19.913197674418605 13.307812499999997  L 19.98354651162791 13.307812499999997  C 20.99401162790698 13.305937499999999  21.81293604651163 12.505937499999998  21.81453488372093 11.518437499999997  L 21.81453488372093 10.469374999999998  Z M 20.56552325581396 10.46875  L 20.56264534883721 11.5184375  C 20.56264534883721 11.6684375  20.501569767441865 11.812500000000002  20.393168604651166 11.9184375  C 20.284447674418608 12.024687499999999  20.137354651162795 12.084062499999998  19.983866279069773 12.084062499999998  L 19.913517441860467 12.084062499999998  C 19.11761627906977 12.0865625  18.413488372093028 12.58875  18.16854651162791 13.3290625  C 18.05309143919701 13.673756973869027  17.911797871772038 14.009666835856109  17.745813953488373 14.334062499999998  C 17.380319767441865 15.026249999999997  17.512383720930234 15.869374999999998  18.07293604651163 16.423125  L 18.123139534883723 16.47375  C 18.2325 16.579375  18.293895348837214 16.7234375  18.293895348837214 16.873749999999998  C 18.293895348837214 17.024062499999996  18.232500000000005 17.168124999999996  18.123139534883723 17.273749999999996  L 17.36401162790698 18.015624999999996  C 17.135058139534888 18.229687499999997  16.77436046511628 18.229687499999997  16.54540697674419 18.015624999999996  L 16.495203488372095 17.966562499999995  C 15.927936046511629 17.419062499999995  15.064563953488372 17.290312499999995  14.355959302325584 17.646874999999998  C 14.024104477961574 17.810053148773882  13.680380431734307 17.949076486189963  13.327587209302328 18.062812499999993  C 12.570377906976747 18.30218749999999  12.05619186046512 18.99031249999999  12.053633720930232 19.768124999999994  L 12.053633720930232 19.836874999999996  C 12.053633720930232 19.986874999999994  11.992558139534884 20.130937499999995  11.884156976744187 20.236874999999994  C 11.77543604651163 20.343124999999993  11.628343023255814 20.402499999999993  11.47485465116279 20.402499999999993  L 10.40139534883721 20.402499999999993  C 10.247906976744186 20.402499999999993  10.100494186046513 20.342812499999994  9.991773255813955 20.236874999999994  C 9.883052325581398 20.130937499999995  9.822296511627908 19.986874999999994  9.822296511627908 19.836874999999996  L 9.822296511627908 19.766562499999996  C 9.819098837209301 18.989374999999995  9.305232558139535 18.302187499999995  8.548343023255816 18.062812499999996  C 8.195778023189986 17.948748614596752  7.8521845201539975 17.809734851276673  7.52029069767442 17.646874999999998  C 7.257923799749786 17.516576671425362  6.967846945175712 17.44848907685234  6.673546511627909 17.448124999999997  C 6.18979071239614 17.446612959295187  5.725267439571108 17.633123477066807  5.38232558139535 17.9665625  L 5.332122093023258 18.015625  C 5.103488372093024 18.2296875  4.74247093023256 18.2296875  4.513837209302327 18.015625  L 3.7547093023255824 17.27375  C 3.6454295354641273 17.16804140998537  3.5839423834310753 17.024015500444804  3.5839423834310753 16.873749999999998  C 3.5839423834310753 16.723484499555187  3.645429535464129 16.579458590014628  3.7547093023255833 16.47375  L 3.804912790697676 16.423125  C 4.36482558139535 15.869062499999998  4.496250000000002 15.025624999999998  4.13043604651163 14.334062499999998  C 3.963463057068583 14.009749830735174  3.821206618782359 13.673837694649434  3.70482558139535 13.3290625  C 3.4598837209302338 12.5890625  2.7557558139534892 12.0865625  1.9598546511627921 12.084062499999998  L 1.8923837209302339 12.084062499999998  C 1.7388953488372108 12.084062499999998  1.591482558139536 12.024375  1.4830813953488384 11.9184375  C 1.3743604651162804 11.812187500000002  1.3136046511627921 11.6684375  1.3136046511627921 11.5184375  L 1.3136046511627921 10.469375000000001  C 1.3136046511627921 10.319375  1.3746802325581406 10.1753125  1.4830813953488384 10.069062500000001  C 1.5918023255813964 9.962812500000002  1.7388953488372108 9.9034375  1.8923837209302339 9.9034375  L 1.962732558139536 9.9034375  C 2.7586337209302334 9.900937500000001  3.4627616279069775 9.398750000000001  3.7077034883720943 8.658437500000002  C 3.8231395348837225 8.313750000000002  3.9644767441860482 7.977812500000002  4.130116279069769 7.653750000000002  C 4.495610465116281 6.961562500000003  4.363546511627909 6.118125000000004  3.8029941860465133 5.564375000000001  L 3.7527906976744196 5.513750000000002  C 3.6434607204746263 5.408075367026205  3.5819677597096993 5.264026483790692  3.582034883720932 5.113750000000001  C 3.582034883720932 4.963437500000001  3.643430232558141 4.819375000000001  3.7527906976744205 4.713750000000001  L 4.511918604651164 3.9718750000000007  C 4.737994186046513 3.7512500000000006  5.104447674418606 3.7512500000000006  5.330523255813955 3.9718750000000007  L 5.380726744186048 4.0209375000000005  C 5.948313953488373 4.5684375  6.811366279069769 4.6975  7.52029069767442 4.340625000000003  C 7.852061487880739 4.177502372182795  8.195674990403658 4.038480517312907  8.548343023255816 3.924687500000001  C 9.305552325581397 3.6853124999999998  9.819738372093024 2.9971875000000003  9.82229651162791 2.219375000000001  L 9.82229651162791 2.153437500000001  C 9.82229651162791 1.840937500000001  10.081627906976747 1.5875000000000004  10.401395348837212 1.5875000000000004  L 11.474854651162794 1.5875000000000004  C 11.628343023255818 1.5875000000000004  11.775755813953491 1.6471875000000002  11.88415697674419 1.7531250000000007  C 11.992877906976748 1.8593750000000009  12.053633720930236 2.0031250000000007  12.053633720930236 2.153125000000001  L 12.053633720930236 2.2218750000000007  C 12.05619186046512 2.9996875000000003  12.570058139534886 3.6878124999999997  13.327587209302328 3.9271875000000005  C 13.680239867140449 4.040047483975387  14.023951737653732 4.178021430865694  14.355959302325584 4.34  C 15.064244186046512 4.695937499999999  15.926656976744187 4.567187499999999  16.493604651162794 4.020312499999999  L 16.54380813953489 3.9712499999999995  C 16.770203488372097 3.7512499999999984  17.13569767441861 3.7512499999999984  17.36209302325582 3.9712499999999995  L 18.121220930232564 4.713125  C 18.23058139534884 4.81875  18.29197674418605 4.9628125  18.29197674418605 5.113125  C 18.29197674418605 5.2634375  18.230581395348846 5.407500000000001  18.121220930232564 5.5131250000000005  L 18.07101744186047 5.563750000000001  C 17.511104651162793 6.117812500000001  17.379680232558144 6.96125  17.745494186046518 7.653124999999999  C 17.911816901483956 7.977620749668404  18.054053670340753 8.31338200420376  18.171104651162793 8.6578125  C 18.416046511627908 9.3978125  19.120174418604652 9.9003125  19.916075581395354 9.9028125  L 19.986424418604656 9.9028125  C 20.306191860465123 9.9028125  20.56552325581396 10.15625  20.56552325581396 10.46875  Z " fill-rule="nonzero" fill="#0fc6c2" stroke="none" transform="matrix(1 0 0 1 1049 872 )" />
  </g>
</svg>