<?xml version="1.0" encoding="utf-8"?>
<svg version="1.1" xmlns:xlink="http://www.w3.org/1999/xlink" width="32px" height="24px" xmlns="http://www.w3.org/2000/svg">
  <g transform="matrix(1 0 0 1 -1499 -871 )">
    <path d="M 6 12  L 10 12  L 10 20  L 6 20  L 6 12  Z M 12 3.999999999999999  L 16 3.999999999999999  L 16 20  L 12 20  L 12 3.999999999999999  Z M 2 22  L 32 22  L 32 24  L 0 24  L 0 0  L 2 0  L 2 22  Z M 18 8  L 22 8  L 22 20  L 18 20  L 18 8  Z M 24 2.000000000000001  L 28 2.000000000000001  L 28 20  L 24 20  L 24 2.000000000000001  Z " fill-rule="nonzero" fill="#f53f3f" stroke="none" transform="matrix(1 0 0 1 1499 871 )" />
  </g>
</svg>