<?xml version="1.0" encoding="utf-8"?>
<svg version="1.1" xmlns:xlink="http://www.w3.org/1999/xlink" width="16px" height="16px" xmlns="http://www.w3.org/2000/svg">
  <defs>
    <pattern id="BGPattern" patternUnits="userSpaceOnUse" alignment="0 0" imageRepeat="None" />
    <mask fill="white" id="Clip2017">
      <path d="M 0.499999994140625 8  C 0.499999994140625 3.8579375058593746  3.8579375058593746 0.499999994140625  8 0.499999994140625  C 12.142062494140625 0.499999994140625  15.500000005859373 3.85793748828125  15.500000005859373 8  C 15.500000005859373 12.14206251171875  12.142062494140625 15.500000005859373  8 15.500000005859373  C 3.8579375058593746 15.500000005859373  0.499999994140625 12.142062494140625  0.499999994140625 8  Z M 8 10.062499994140628  C 7.585786434390862 10.062499994140628  7.249999994140623 10.398286434390865  7.249999994140623 10.812500000000002  C 7.249999994140623 11.226713565609144  7.58578643439086 11.562500005859377  8 11.562500005859377  C 8.414213565609138 11.562500005859377  8.750000005859377 11.22671356560914  8.750000005859377 10.812500000000002  C 8.750000005859377 10.398286434390862  8.41421356560914 10.062499994140628  8 10.062499994140628  Z M 8.750000005859373 4.437499994140625  C 8.749999996151244 4.023286435396171  8.414213558744454 3.6875000058593743  8 3.687500005859375  C 7.5857864412555465 3.687500005859375  7.250000003848756 4.023286435396173  7.249999994140625 4.437499994140626  L 7.249999994140627 8.5625  C 7.249999994140627 8.976713565609138  7.585786434390862 9.312500005859373  8 9.312500005859373  C 8.414213565609138 9.312500005859373  8.750000005859373 8.976713565609138  8.750000005859373 8.5625  L 8.750000005859373 4.437499994140625  Z " fill-rule="evenodd" />
    </mask>
  </defs>
  <g transform="matrix(1 0 0 1 -1170 -69 )">
    <path d="M 0.499999994140625 8  C 0.499999994140625 3.8579375058593746  3.8579375058593746 0.499999994140625  8 0.499999994140625  C 12.142062494140625 0.499999994140625  15.500000005859373 3.85793748828125  15.500000005859373 8  C 15.500000005859373 12.14206251171875  12.142062494140625 15.500000005859373  8 15.500000005859373  C 3.8579375058593746 15.500000005859373  0.499999994140625 12.142062494140625  0.499999994140625 8  Z M 8 10.062499994140628  C 7.585786434390862 10.062499994140628  7.249999994140623 10.398286434390865  7.249999994140623 10.812500000000002  C 7.249999994140623 11.226713565609144  7.58578643439086 11.562500005859377  8 11.562500005859377  C 8.414213565609138 11.562500005859377  8.750000005859377 11.22671356560914  8.750000005859377 10.812500000000002  C 8.750000005859377 10.398286434390862  8.41421356560914 10.062499994140628  8 10.062499994140628  Z M 8.750000005859373 4.437499994140625  C 8.749999996151244 4.023286435396171  8.414213558744454 3.6875000058593743  8 3.687500005859375  C 7.5857864412555465 3.687500005859375  7.250000003848756 4.023286435396173  7.249999994140625 4.437499994140626  L 7.249999994140627 8.5625  C 7.249999994140627 8.976713565609138  7.585786434390862 9.312500005859373  8 9.312500005859373  C 8.414213565609138 9.312500005859373  8.750000005859373 8.976713565609138  8.750000005859373 8.5625  L 8.750000005859373 4.437499994140625  Z " fill-rule="nonzero" fill="rgba(255, 125, 0, 1)" stroke="none" transform="matrix(1 0 0 1 1170 69 )" class="fill" />
    <path d="M 0.499999994140625 8  C 0.499999994140625 3.8579375058593746  3.8579375058593746 0.499999994140625  8 0.499999994140625  C 12.142062494140625 0.499999994140625  15.500000005859373 3.85793748828125  15.500000005859373 8  C 15.500000005859373 12.14206251171875  12.142062494140625 15.500000005859373  8 15.500000005859373  C 3.8579375058593746 15.500000005859373  0.499999994140625 12.142062494140625  0.499999994140625 8  Z " stroke-width="0" stroke-dasharray="0" stroke="rgba(255, 255, 255, 0)" fill="none" transform="matrix(1 0 0 1 1170 69 )" class="stroke" mask="url(#Clip2017)" />
    <path d="M 8 10.062499994140628  C 7.585786434390862 10.062499994140628  7.249999994140623 10.398286434390865  7.249999994140623 10.812500000000002  C 7.249999994140623 11.226713565609144  7.58578643439086 11.562500005859377  8 11.562500005859377  C 8.414213565609138 11.562500005859377  8.750000005859377 11.22671356560914  8.750000005859377 10.812500000000002  C 8.750000005859377 10.398286434390862  8.41421356560914 10.062499994140628  8 10.062499994140628  Z " stroke-width="0" stroke-dasharray="0" stroke="rgba(255, 255, 255, 0)" fill="none" transform="matrix(1 0 0 1 1170 69 )" class="stroke" mask="url(#Clip2017)" />
    <path d="M 8.750000005859373 4.437499994140625  C 8.749999996151244 4.023286435396171  8.414213558744454 3.6875000058593743  8 3.687500005859375  C 7.5857864412555465 3.687500005859375  7.250000003848756 4.023286435396173  7.249999994140625 4.437499994140626  L 7.249999994140627 8.5625  C 7.249999994140627 8.976713565609138  7.585786434390862 9.312500005859373  8 9.312500005859373  C 8.414213565609138 9.312500005859373  8.750000005859373 8.976713565609138  8.750000005859373 8.5625  L 8.750000005859373 4.437499994140625  Z " stroke-width="0" stroke-dasharray="0" stroke="rgba(255, 255, 255, 0)" fill="none" transform="matrix(1 0 0 1 1170 69 )" class="stroke" mask="url(#Clip2017)" />
  </g>
</svg>