<?xml version="1.0" encoding="utf-8"?>
<svg version="1.1" xmlns:xlink="http://www.w3.org/1999/xlink" width="18px" height="16px" xmlns="http://www.w3.org/2000/svg">
  <defs>
    <pattern id="BGPattern" patternUnits="userSpaceOnUse" alignment="0 0" imageRepeat="None" />
    <mask fill="white" id="Clip2020">
      <path d="M 17.99998366911548 15.20000000020651  C 17.99998366911548 15.087656535517736  17.970279641900195 14.977292294348711  17.913857142857143 14.88  L 9.556714285714285 0.4800000000000006  C 9.443066926887518 0.28081267079986616  9.230095102643784 0.15839622576369208  8.999999999999998 0.15999999999999973  C 8.769759778853624 0.15784808323585167  8.556528797603166 0.280413492012097  8.443285714285715 0.48  L 0.08614285714285735 14.88  C 0.029720358099806665 14.977292294348711  1.6330884521258732E-05 15.087656535517736  1.6330884521258732E-05 15.20000000020651  C 1.6330884521258732E-05 15.553455890852728  0.28782332424224166 15.839991020948592  0.6428571428571432 15.84  L 17.357142857142858 15.84  C 17.712176675757757 15.839991020948592  17.99998366911548 15.553455890852728  17.99998366911548 15.20000000020651  Z M 8.357142857142858 9.76  L 8.357142857142858 6.08  C 8.357142857142858 5.99168  8.429142857142857 5.92  8.517857142857142 5.92  L 9.482142857142858 5.92  C 9.570857142857145 5.92  9.642857142857142 5.99168  9.642857142857142 6.08  L 9.642857142857142 9.76  C 9.642857142857142 9.848365559972926  9.570902906222805 9.92  9.482142857142858 9.92  L 8.517857142857142 9.92  C 8.429097093777193 9.92  8.357142857142858 9.848365559972926  8.357142857142858 9.76  Z M 9 13.12  C 8.467439705520306 13.12  8.035714285714286 12.690193359837563  8.035714285714286 12.16  C 8.035714285714286 11.629806640162437  8.467439705520306 11.2  9 11.2  C 9.532560294479692 11.2  9.964285714285715 11.629806640162437  9.964285714285715 12.16  C 9.964285714285715 12.690193359837563  9.532560294479692 13.12  9 13.12  Z " fill-rule="evenodd" />
    </mask>
  </defs>
  <g transform="matrix(1 0 0 1 -98 -860 )">
    <path d="M 17.99998366911548 15.20000000020651  C 17.99998366911548 15.087656535517736  17.970279641900195 14.977292294348711  17.913857142857143 14.88  L 9.556714285714285 0.4800000000000006  C 9.443066926887518 0.28081267079986616  9.230095102643784 0.15839622576369208  8.999999999999998 0.15999999999999973  C 8.769759778853624 0.15784808323585167  8.556528797603166 0.280413492012097  8.443285714285715 0.48  L 0.08614285714285735 14.88  C 0.029720358099806665 14.977292294348711  1.6330884521258732E-05 15.087656535517736  1.6330884521258732E-05 15.20000000020651  C 1.6330884521258732E-05 15.553455890852728  0.28782332424224166 15.839991020948592  0.6428571428571432 15.84  L 17.357142857142858 15.84  C 17.712176675757757 15.839991020948592  17.99998366911548 15.553455890852728  17.99998366911548 15.20000000020651  Z M 8.357142857142858 9.76  L 8.357142857142858 6.08  C 8.357142857142858 5.99168  8.429142857142857 5.92  8.517857142857142 5.92  L 9.482142857142858 5.92  C 9.570857142857145 5.92  9.642857142857142 5.99168  9.642857142857142 6.08  L 9.642857142857142 9.76  C 9.642857142857142 9.848365559972926  9.570902906222805 9.92  9.482142857142858 9.92  L 8.517857142857142 9.92  C 8.429097093777193 9.92  8.357142857142858 9.848365559972926  8.357142857142858 9.76  Z M 9 13.12  C 8.467439705520306 13.12  8.035714285714286 12.690193359837563  8.035714285714286 12.16  C 8.035714285714286 11.629806640162437  8.467439705520306 11.2  9 11.2  C 9.532560294479692 11.2  9.964285714285715 11.629806640162437  9.964285714285715 12.16  C 9.964285714285715 12.690193359837563  9.532560294479692 13.12  9 13.12  Z " fill-rule="nonzero" fill="rgba(237, 64, 20, 1)" stroke="none" transform="matrix(1 0 0 1 98 860 )" class="fill" />
    <path d="M 17.99998366911548 15.20000000020651  C 17.99998366911548 15.087656535517736  17.970279641900195 14.977292294348711  17.913857142857143 14.88  L 9.556714285714285 0.4800000000000006  C 9.443066926887518 0.28081267079986616  9.230095102643784 0.15839622576369208  8.999999999999998 0.15999999999999973  C 8.769759778853624 0.15784808323585167  8.556528797603166 0.280413492012097  8.443285714285715 0.48  L 0.08614285714285735 14.88  C 0.029720358099806665 14.977292294348711  1.6330884521258732E-05 15.087656535517736  1.6330884521258732E-05 15.20000000020651  C 1.6330884521258732E-05 15.553455890852728  0.28782332424224166 15.839991020948592  0.6428571428571432 15.84  L 17.357142857142858 15.84  C 17.712176675757757 15.839991020948592  17.99998366911548 15.553455890852728  17.99998366911548 15.20000000020651  Z " stroke-width="0" stroke-dasharray="0" stroke="rgba(255, 255, 255, 0)" fill="none" transform="matrix(1 0 0 1 98 860 )" class="stroke" mask="url(#Clip2020)" />
    <path d="M 8.357142857142858 9.76  L 8.357142857142858 6.08  C 8.357142857142858 5.99168  8.429142857142857 5.92  8.517857142857142 5.92  L 9.482142857142858 5.92  C 9.570857142857145 5.92  9.642857142857142 5.99168  9.642857142857142 6.08  L 9.642857142857142 9.76  C 9.642857142857142 9.848365559972926  9.570902906222805 9.92  9.482142857142858 9.92  L 8.517857142857142 9.92  C 8.429097093777193 9.92  8.357142857142858 9.848365559972926  8.357142857142858 9.76  Z " stroke-width="0" stroke-dasharray="0" stroke="rgba(255, 255, 255, 0)" fill="none" transform="matrix(1 0 0 1 98 860 )" class="stroke" mask="url(#Clip2020)" />
    <path d="M 9 13.12  C 8.467439705520306 13.12  8.035714285714286 12.690193359837563  8.035714285714286 12.16  C 8.035714285714286 11.629806640162437  8.467439705520306 11.2  9 11.2  C 9.532560294479692 11.2  9.964285714285715 11.629806640162437  9.964285714285715 12.16  C 9.964285714285715 12.690193359837563  9.532560294479692 13.12  9 13.12  Z " stroke-width="0" stroke-dasharray="0" stroke="rgba(255, 255, 255, 0)" fill="none" transform="matrix(1 0 0 1 98 860 )" class="stroke" mask="url(#Clip2020)" />
  </g>
</svg>