<?xml version="1.0" encoding="utf-8"?>
<svg version="1.1" xmlns:xlink="http://www.w3.org/1999/xlink" width="5px" height="5px" xmlns="http://www.w3.org/2000/svg">
  <defs>
    <pattern id="BGPattern" patternUnits="userSpaceOnUse" alignment="0 0" imageRepeat="None" />
    <mask fill="white" id="Clip2024">
      <path d="M 4.820937499999999 2.503819444444445  C 4.820937499999999 1.164930555555556  3.8443749999999994 0.07986111111111151  2.639375000000001 0.07986111111111151  C 1.4343750000000028 0.07986111111111151  0.45781250000000284 1.164930555555556  0.45781250000000284 2.503819444444445  C 0.45781250000000284 3.842708333333334  1.4343750000000028 4.927777777777778  2.639375000000001 4.927777777777778  C 3.8443749999999994 4.927777777777778  4.820937499999999 3.842708333333334  4.820937499999999 2.503819444444445  Z M 4.09375 2.503819444444445  C 4.09375 3.3965277777777776  3.4428124999999987 4.119791666666668  2.639375000000001 4.119791666666666  C 1.8362499999999997 4.119791666666666  1.1850000000000023 3.3961805555555555  1.1850000000000023 2.503819444444444  C 1.1850000000000023 1.611458333333332  1.8362500000000033 0.887847222222222  2.639375000000001 0.887847222222222  C 3.442499999999999 0.887847222222222  4.09375 1.6114583333333332  4.09375 2.503819444444445  Z " fill-rule="evenodd" />
    </mask>
  </defs>
  <g transform="matrix(1 0 0 1 -1072 -873 )">
    <path d="M 4.820937499999999 2.503819444444445  C 4.820937499999999 1.164930555555556  3.8443749999999994 0.07986111111111151  2.639375000000001 0.07986111111111151  C 1.4343750000000028 0.07986111111111151  0.45781250000000284 1.164930555555556  0.45781250000000284 2.503819444444445  C 0.45781250000000284 3.842708333333334  1.4343750000000028 4.927777777777778  2.639375000000001 4.927777777777778  C 3.8443749999999994 4.927777777777778  4.820937499999999 3.842708333333334  4.820937499999999 2.503819444444445  Z M 4.09375 2.503819444444445  C 4.09375 3.3965277777777776  3.4428124999999987 4.119791666666668  2.639375000000001 4.119791666666666  C 1.8362499999999997 4.119791666666666  1.1850000000000023 3.3961805555555555  1.1850000000000023 2.503819444444444  C 1.1850000000000023 1.611458333333332  1.8362500000000033 0.887847222222222  2.639375000000001 0.887847222222222  C 3.442499999999999 0.887847222222222  4.09375 1.6114583333333332  4.09375 2.503819444444445  Z " fill-rule="nonzero" fill="rgba(15, 198, 194, 1)" stroke="none" transform="matrix(1 0 0 1 1072 873 )" class="fill" />
    <path d="M 4.820937499999999 2.503819444444445  C 4.820937499999999 1.164930555555556  3.8443749999999994 0.07986111111111151  2.639375000000001 0.07986111111111151  C 1.4343750000000028 0.07986111111111151  0.45781250000000284 1.164930555555556  0.45781250000000284 2.503819444444445  C 0.45781250000000284 3.842708333333334  1.4343750000000028 4.927777777777778  2.639375000000001 4.927777777777778  C 3.8443749999999994 4.927777777777778  4.820937499999999 3.842708333333334  4.820937499999999 2.503819444444445  Z " stroke-width="0" stroke-dasharray="0" stroke="rgba(255, 255, 255, 0)" fill="none" transform="matrix(1 0 0 1 1072 873 )" class="stroke" mask="url(#Clip2024)" />
    <path d="M 4.09375 2.503819444444445  C 4.09375 3.3965277777777776  3.4428124999999987 4.119791666666668  2.639375000000001 4.119791666666666  C 1.8362499999999997 4.119791666666666  1.1850000000000023 3.3961805555555555  1.1850000000000023 2.503819444444444  C 1.1850000000000023 1.611458333333332  1.8362500000000033 0.887847222222222  2.639375000000001 0.887847222222222  C 3.442499999999999 0.887847222222222  4.09375 1.6114583333333332  4.09375 2.503819444444445  Z " stroke-width="0" stroke-dasharray="0" stroke="rgba(255, 255, 255, 0)" fill="none" transform="matrix(1 0 0 1 1072 873 )" class="stroke" mask="url(#Clip2024)" />
  </g>
</svg>