<?xml version="1.0" encoding="utf-8"?>
<svg version="1.1" xmlns:xlink="http://www.w3.org/1999/xlink" width="5px" height="5px" xmlns="http://www.w3.org/2000/svg">
  <defs>
    <pattern id="BGPattern" patternUnits="userSpaceOnUse" alignment="0 0" imageRepeat="None" />
    <mask fill="white" id="Clip2026">
      <path d="M 4.820937499999999 2.369374999999998  C 4.820937499999999 1.1646874999999994  3.8443749999999994 0.18781249999999972  2.639375000000001 0.18781249999999972  C 1.4343750000000028 0.18781249999999972  0.45781250000000284 1.1643749999999997  0.45781250000000284 2.369374999999998  C 0.45781250000000284 3.5743749999999963  1.4343750000000028 4.550937499999996  2.639375000000001 4.550937499999996  C 3.8443749999999994 4.550937499999996  4.820937499999999 3.5743749999999963  4.820937499999999 2.369374999999998  Z M 4.09375 2.3693750000000016  C 4.09375 3.1728125000000027  3.4428124999999987 3.8237500000000004  2.639375000000001 3.8237500000000004  C 1.8362499999999997 3.8237500000000004  1.1850000000000023 3.1724999999999994  1.1850000000000023 2.3693750000000016  C 1.1850000000000023 1.5662500000000037  1.8362500000000033 0.9150000000000027  2.639375000000001 0.9150000000000027  C 3.442499999999999 0.9150000000000027  4.09375 1.5662500000000001  4.09375 2.3693750000000016  Z " fill-rule="evenodd" />
    </mask>
  </defs>
  <g transform="matrix(1 0 0 1 -1072 -889 )">
    <path d="M 4.820937499999999 2.369374999999998  C 4.820937499999999 1.1646874999999994  3.8443749999999994 0.18781249999999972  2.639375000000001 0.18781249999999972  C 1.4343750000000028 0.18781249999999972  0.45781250000000284 1.1643749999999997  0.45781250000000284 2.369374999999998  C 0.45781250000000284 3.5743749999999963  1.4343750000000028 4.550937499999996  2.639375000000001 4.550937499999996  C 3.8443749999999994 4.550937499999996  4.820937499999999 3.5743749999999963  4.820937499999999 2.369374999999998  Z M 4.09375 2.3693750000000016  C 4.09375 3.1728125000000027  3.4428124999999987 3.8237500000000004  2.639375000000001 3.8237500000000004  C 1.8362499999999997 3.8237500000000004  1.1850000000000023 3.1724999999999994  1.1850000000000023 2.3693750000000016  C 1.1850000000000023 1.5662500000000037  1.8362500000000033 0.9150000000000027  2.639375000000001 0.9150000000000027  C 3.442499999999999 0.9150000000000027  4.09375 1.5662500000000001  4.09375 2.3693750000000016  Z " fill-rule="nonzero" fill="rgba(15, 198, 194, 1)" stroke="none" transform="matrix(1 0 0 1 1072 889 )" class="fill" />
    <path d="M 4.820937499999999 2.369374999999998  C 4.820937499999999 1.1646874999999994  3.8443749999999994 0.18781249999999972  2.639375000000001 0.18781249999999972  C 1.4343750000000028 0.18781249999999972  0.45781250000000284 1.1643749999999997  0.45781250000000284 2.369374999999998  C 0.45781250000000284 3.5743749999999963  1.4343750000000028 4.550937499999996  2.639375000000001 4.550937499999996  C 3.8443749999999994 4.550937499999996  4.820937499999999 3.5743749999999963  4.820937499999999 2.369374999999998  Z " stroke-width="0" stroke-dasharray="0" stroke="rgba(255, 255, 255, 0)" fill="none" transform="matrix(1 0 0 1 1072 889 )" class="stroke" mask="url(#Clip2026)" />
    <path d="M 4.09375 2.3693750000000016  C 4.09375 3.1728125000000027  3.4428124999999987 3.8237500000000004  2.639375000000001 3.8237500000000004  C 1.8362499999999997 3.8237500000000004  1.1850000000000023 3.1724999999999994  1.1850000000000023 2.3693750000000016  C 1.1850000000000023 1.5662500000000037  1.8362500000000033 0.9150000000000027  2.639375000000001 0.9150000000000027  C 3.442499999999999 0.9150000000000027  4.09375 1.5662500000000001  4.09375 2.3693750000000016  Z " stroke-width="0" stroke-dasharray="0" stroke="rgba(255, 255, 255, 0)" fill="none" transform="matrix(1 0 0 1 1072 889 )" class="stroke" mask="url(#Clip2026)" />
  </g>
</svg>