<?xml version="1.0" encoding="utf-8"?>
<svg version="1.1" xmlns:xlink="http://www.w3.org/1999/xlink" width="32px" height="24px" xmlns="http://www.w3.org/2000/svg">
  <defs>
    <pattern id="BGPattern" patternUnits="userSpaceOnUse" alignment="0 0" imageRepeat="None" />
    <mask fill="white" id="Clip1719">
      <path d="M 6 12  L 10 12  L 10 20  L 6 20  L 6 12  Z M 12 3.999999999999999  L 16 3.999999999999999  L 16 20  L 12 20  L 12 3.999999999999999  Z M 2 22  L 32 22  L 32 24  L 0 24  L 0 0  L 2 0  L 2 22  Z M 18 8  L 22 8  L 22 20  L 18 20  L 18 8  Z M 24 2.000000000000001  L 28 2.000000000000001  L 28 20  L 24 20  L 24 2.000000000000001  Z " fill-rule="evenodd" />
    </mask>
  </defs>
  <g transform="matrix(1 0 0 1 -1499 -871 )">
    <path d="M 6 12  L 10 12  L 10 20  L 6 20  L 6 12  Z M 12 3.999999999999999  L 16 3.999999999999999  L 16 20  L 12 20  L 12 3.999999999999999  Z M 2 22  L 32 22  L 32 24  L 0 24  L 0 0  L 2 0  L 2 22  Z M 18 8  L 22 8  L 22 20  L 18 20  L 18 8  Z M 24 2.000000000000001  L 28 2.000000000000001  L 28 20  L 24 20  L 24 2.000000000000001  Z " fill-rule="nonzero" fill="rgba(245, 63, 63, 1)" stroke="none" transform="matrix(1 0 0 1 1499 871 )" class="fill" />
    <path d="M 6 12  L 10 12  L 10 20  L 6 20  L 6 12  Z " stroke-width="0" stroke-dasharray="0" stroke="rgba(255, 255, 255, 0)" fill="none" transform="matrix(1 0 0 1 1499 871 )" class="stroke" mask="url(#Clip1719)" />
    <path d="M 12 3.999999999999999  L 16 3.999999999999999  L 16 20  L 12 20  L 12 3.999999999999999  Z " stroke-width="0" stroke-dasharray="0" stroke="rgba(255, 255, 255, 0)" fill="none" transform="matrix(1 0 0 1 1499 871 )" class="stroke" mask="url(#Clip1719)" />
    <path d="M 2 22  L 32 22  L 32 24  L 0 24  L 0 0  L 2 0  L 2 22  Z " stroke-width="0" stroke-dasharray="0" stroke="rgba(255, 255, 255, 0)" fill="none" transform="matrix(1 0 0 1 1499 871 )" class="stroke" mask="url(#Clip1719)" />
    <path d="M 18 8  L 22 8  L 22 20  L 18 20  L 18 8  Z " stroke-width="0" stroke-dasharray="0" stroke="rgba(255, 255, 255, 0)" fill="none" transform="matrix(1 0 0 1 1499 871 )" class="stroke" mask="url(#Clip1719)" />
    <path d="M 24 2.000000000000001  L 28 2.000000000000001  L 28 20  L 24 20  L 24 2.000000000000001  Z " stroke-width="0" stroke-dasharray="0" stroke="rgba(255, 255, 255, 0)" fill="none" transform="matrix(1 0 0 1 1499 871 )" class="stroke" mask="url(#Clip1719)" />
  </g>
</svg>