<?xml version="1.0" encoding="utf-8"?>
<svg version="1.1" xmlns:xlink="http://www.w3.org/1999/xlink" width="15px" height="18px" xmlns="http://www.w3.org/2000/svg">
  <defs>
    <pattern id="BGPattern" patternUnits="userSpaceOnUse" alignment="0 0" imageRepeat="None" />
    <mask fill="white" id="Clip1003">
      <path d="M 14.654876376201923 16.809709816406247  C 14.720123635817307 16.873325882812498  14.752747259615385 16.948660705078122  14.752747247596155 17.03571428320312  L 14.752747247596155 17.678571433593746  C 14.752747247596155 17.765624999999996  14.720123623798075 17.84095982226562  14.654876376201923 17.904575900390622  C 14.589629128605768 17.96819197851562  14.512362644230768 18.000000011718747  14.423076923076923 18  L 0.576923076923077 18  C 0.4876373677884615 17.999999999999996  0.4103708834134615 17.968191966796873  0.34512362379807676 17.904575900390622  C 0.2798763641826923 17.84095983398437  0.24725274038461542 17.765625011718747  0.24725275240384617 17.678571433593746  L 0.24725275240384617 17.03571428320312  C 0.24725275240384617 16.948660716796873  0.279876376201923 16.87332589453125  0.34512362379807704 16.809709816406247  C 0.41037087139423106 16.746093738281253  0.4876373557692313 16.714285705078126  0.576923076923077 16.714285716796873  L 14.423076923076923 16.714285716796873  C 14.51236263221154 16.714285716796873  14.58962911658654 16.746093749999996  14.654876376201923 16.809709816406247  Z M 11.832074170673076 4.580357150390624  C 12.02094777644231 5.156250017578124  12.115384591346157 5.772321445312499  12.115384615384615 6.428571433593749  C 12.115384615384615 6.950892867187499  12.031249999999998 7.433035722656249  11.862980769230768 7.874999999999998  C 11.69471153846154 8.316964277343748  11.474931316105769 8.693638382812498  11.203640102163462 9.005022316406247  C 10.932348888221155 9.316406249999998  10.631868118990386 9.611049111328121  10.302197794471155 9.888950900390622  C 9.972527469951924 10.166852689453123  9.642857145432693 10.426339294921874  9.313186820913463 10.667410716796873  C 8.983516496394234 10.908482138671872  8.683035727163464 11.149553566406247  8.411744513221155 11.390624999999998  C 8.140453299278846 11.631696433593751  7.92067307692308 11.904575900390626  7.7524038461538485 12.209263400390622  C 7.58413461538462 12.513950900390624  7.5000000000000036 12.837053578124998  7.5 13.17857143359375  C 7.5 13.821428578124998  7.730082415865383 14.571428578124998  8.190247247596155 15.428571433593746  L 8.149038461538462 15.418526783203122  L 8.159340667067307 15.428571433593746  C 7.541208804086538 15.154017867187497  6.991758251201923 14.876116078124996  6.5109890084134605 14.594866066406246  C 6.030219765624999 14.313616054687495  5.554601634615382 13.97879462695312  5.084134615384614 13.59040178320312  C 4.613667596153847 13.202008939453123  4.223901111778847 12.791852689453123  3.914835162259615 12.359933033203124  C 3.6057692127403844 11.928013376953126  3.356799435096154 11.424107126953126  3.1679258293269235 10.848214283203124  C 2.979052223557693 10.272321439453123  2.8846154086538474 9.656250011718747  2.8846153846153846 8.999999999999998  C 2.8846153846153846 8.477678566406247  2.9687500000000004 7.9955357109374985  3.137019230769231 7.553571433593748  C 3.305288461538462 7.111607156249999  3.525068683894231 6.734933044921876  3.796359897836539 6.4235490996093745  C 4.067651111778847 6.112165154296874  4.368131881009617 5.817522298828125  4.697802205528847 5.5396205332031245  C 5.027472530048077 5.261718767578126  5.357142854567307 5.002232162109375  5.686813179086539 4.7611607167968755  C 6.0164835036057704 4.520089271484375  6.3169642728365405 4.27901784375  6.588255486778847 4.03794643359375  C 6.859546700721154 3.796875023437501  7.079326923076923 3.523995556640626  7.247596153846155 3.219308033203126  C 7.415865384615387 2.914620509765626  7.500000000000002 2.59151783203125  7.5 2.2499999999999996  C 7.5 1.6205357109374998  7.273351646634616 0.8705357109374998  6.820054939903846 0  L 6.850961538461538 0.010044650390624998  L 6.840659332932692 0  C 7.458791195913461 0.27455356640625  8.008241748798078 0.5524553496093749  8.489010991586538 0.8337053496093748  C 8.969780234375 1.1149553496093747  9.445398365384616 1.4497767832031248  9.915865384615385 1.8381696503906244  C 10.386332403846156 2.2265625175781247  10.776098888221155 2.6367187675781247  11.085164837740384 3.0686384003906246  C 11.394230787259614 3.5005580332031236  11.643200564903845 4.004464283203124  11.832074170673076 4.580357150390624  Z " fill-rule="evenodd" />
    </mask>
  </defs>
  <g transform="matrix(1 0 0 1 -740 -68 )">
    <path d="M 14.654876376201923 16.809709816406247  C 14.720123635817307 16.873325882812498  14.752747259615385 16.948660705078122  14.752747247596155 17.03571428320312  L 14.752747247596155 17.678571433593746  C 14.752747247596155 17.765624999999996  14.720123623798075 17.84095982226562  14.654876376201923 17.904575900390622  C 14.589629128605768 17.96819197851562  14.512362644230768 18.000000011718747  14.423076923076923 18  L 0.576923076923077 18  C 0.4876373677884615 17.999999999999996  0.4103708834134615 17.968191966796873  0.34512362379807676 17.904575900390622  C 0.2798763641826923 17.84095983398437  0.24725274038461542 17.765625011718747  0.24725275240384617 17.678571433593746  L 0.24725275240384617 17.03571428320312  C 0.24725275240384617 16.948660716796873  0.279876376201923 16.87332589453125  0.34512362379807704 16.809709816406247  C 0.41037087139423106 16.746093738281253  0.4876373557692313 16.714285705078126  0.576923076923077 16.714285716796873  L 14.423076923076923 16.714285716796873  C 14.51236263221154 16.714285716796873  14.58962911658654 16.746093749999996  14.654876376201923 16.809709816406247  Z M 11.832074170673076 4.580357150390624  C 12.02094777644231 5.156250017578124  12.115384591346157 5.772321445312499  12.115384615384615 6.428571433593749  C 12.115384615384615 6.950892867187499  12.031249999999998 7.433035722656249  11.862980769230768 7.874999999999998  C 11.69471153846154 8.316964277343748  11.474931316105769 8.693638382812498  11.203640102163462 9.005022316406247  C 10.932348888221155 9.316406249999998  10.631868118990386 9.611049111328121  10.302197794471155 9.888950900390622  C 9.972527469951924 10.166852689453123  9.642857145432693 10.426339294921874  9.313186820913463 10.667410716796873  C 8.983516496394234 10.908482138671872  8.683035727163464 11.149553566406247  8.411744513221155 11.390624999999998  C 8.140453299278846 11.631696433593751  7.92067307692308 11.904575900390626  7.7524038461538485 12.209263400390622  C 7.58413461538462 12.513950900390624  7.5000000000000036 12.837053578124998  7.5 13.17857143359375  C 7.5 13.821428578124998  7.730082415865383 14.571428578124998  8.190247247596155 15.428571433593746  L 8.149038461538462 15.418526783203122  L 8.159340667067307 15.428571433593746  C 7.541208804086538 15.154017867187497  6.991758251201923 14.876116078124996  6.5109890084134605 14.594866066406246  C 6.030219765624999 14.313616054687495  5.554601634615382 13.97879462695312  5.084134615384614 13.59040178320312  C 4.613667596153847 13.202008939453123  4.223901111778847 12.791852689453123  3.914835162259615 12.359933033203124  C 3.6057692127403844 11.928013376953126  3.356799435096154 11.424107126953126  3.1679258293269235 10.848214283203124  C 2.979052223557693 10.272321439453123  2.8846154086538474 9.656250011718747  2.8846153846153846 8.999999999999998  C 2.8846153846153846 8.477678566406247  2.9687500000000004 7.9955357109374985  3.137019230769231 7.553571433593748  C 3.305288461538462 7.111607156249999  3.525068683894231 6.734933044921876  3.796359897836539 6.4235490996093745  C 4.067651111778847 6.112165154296874  4.368131881009617 5.817522298828125  4.697802205528847 5.5396205332031245  C 5.027472530048077 5.261718767578126  5.357142854567307 5.002232162109375  5.686813179086539 4.7611607167968755  C 6.0164835036057704 4.520089271484375  6.3169642728365405 4.27901784375  6.588255486778847 4.03794643359375  C 6.859546700721154 3.796875023437501  7.079326923076923 3.523995556640626  7.247596153846155 3.219308033203126  C 7.415865384615387 2.914620509765626  7.500000000000002 2.59151783203125  7.5 2.2499999999999996  C 7.5 1.6205357109374998  7.273351646634616 0.8705357109374998  6.820054939903846 0  L 6.850961538461538 0.010044650390624998  L 6.840659332932692 0  C 7.458791195913461 0.27455356640625  8.008241748798078 0.5524553496093749  8.489010991586538 0.8337053496093748  C 8.969780234375 1.1149553496093747  9.445398365384616 1.4497767832031248  9.915865384615385 1.8381696503906244  C 10.386332403846156 2.2265625175781247  10.776098888221155 2.6367187675781247  11.085164837740384 3.0686384003906246  C 11.394230787259614 3.5005580332031236  11.643200564903845 4.004464283203124  11.832074170673076 4.580357150390624  Z " fill-rule="nonzero" fill="rgba(245, 63, 63, 1)" stroke="none" transform="matrix(1 0 0 1 740 68 )" class="fill" />
    <path d="M 14.654876376201923 16.809709816406247  C 14.720123635817307 16.873325882812498  14.752747259615385 16.948660705078122  14.752747247596155 17.03571428320312  L 14.752747247596155 17.678571433593746  C 14.752747247596155 17.765624999999996  14.720123623798075 17.84095982226562  14.654876376201923 17.904575900390622  C 14.589629128605768 17.96819197851562  14.512362644230768 18.000000011718747  14.423076923076923 18  L 0.576923076923077 18  C 0.4876373677884615 17.999999999999996  0.4103708834134615 17.968191966796873  0.34512362379807676 17.904575900390622  C 0.2798763641826923 17.84095983398437  0.24725274038461542 17.765625011718747  0.24725275240384617 17.678571433593746  L 0.24725275240384617 17.03571428320312  C 0.24725275240384617 16.948660716796873  0.279876376201923 16.87332589453125  0.34512362379807704 16.809709816406247  C 0.41037087139423106 16.746093738281253  0.4876373557692313 16.714285705078126  0.576923076923077 16.714285716796873  L 14.423076923076923 16.714285716796873  C 14.51236263221154 16.714285716796873  14.58962911658654 16.746093749999996  14.654876376201923 16.809709816406247  Z " stroke-width="0" stroke-dasharray="0" stroke="rgba(255, 255, 255, 0)" fill="none" transform="matrix(1 0 0 1 740 68 )" class="stroke" mask="url(#Clip1003)" />
    <path d="M 11.832074170673076 4.580357150390624  C 12.02094777644231 5.156250017578124  12.115384591346157 5.772321445312499  12.115384615384615 6.428571433593749  C 12.115384615384615 6.950892867187499  12.031249999999998 7.433035722656249  11.862980769230768 7.874999999999998  C 11.69471153846154 8.316964277343748  11.474931316105769 8.693638382812498  11.203640102163462 9.005022316406247  C 10.932348888221155 9.316406249999998  10.631868118990386 9.611049111328121  10.302197794471155 9.888950900390622  C 9.972527469951924 10.166852689453123  9.642857145432693 10.426339294921874  9.313186820913463 10.667410716796873  C 8.983516496394234 10.908482138671872  8.683035727163464 11.149553566406247  8.411744513221155 11.390624999999998  C 8.140453299278846 11.631696433593751  7.92067307692308 11.904575900390626  7.7524038461538485 12.209263400390622  C 7.58413461538462 12.513950900390624  7.5000000000000036 12.837053578124998  7.5 13.17857143359375  C 7.5 13.821428578124998  7.730082415865383 14.571428578124998  8.190247247596155 15.428571433593746  L 8.149038461538462 15.418526783203122  L 8.159340667067307 15.428571433593746  C 7.541208804086538 15.154017867187497  6.991758251201923 14.876116078124996  6.5109890084134605 14.594866066406246  C 6.030219765624999 14.313616054687495  5.554601634615382 13.97879462695312  5.084134615384614 13.59040178320312  C 4.613667596153847 13.202008939453123  4.223901111778847 12.791852689453123  3.914835162259615 12.359933033203124  C 3.6057692127403844 11.928013376953126  3.356799435096154 11.424107126953126  3.1679258293269235 10.848214283203124  C 2.979052223557693 10.272321439453123  2.8846154086538474 9.656250011718747  2.8846153846153846 8.999999999999998  C 2.8846153846153846 8.477678566406247  2.9687500000000004 7.9955357109374985  3.137019230769231 7.553571433593748  C 3.305288461538462 7.111607156249999  3.525068683894231 6.734933044921876  3.796359897836539 6.4235490996093745  C 4.067651111778847 6.112165154296874  4.368131881009617 5.817522298828125  4.697802205528847 5.5396205332031245  C 5.027472530048077 5.261718767578126  5.357142854567307 5.002232162109375  5.686813179086539 4.7611607167968755  C 6.0164835036057704 4.520089271484375  6.3169642728365405 4.27901784375  6.588255486778847 4.03794643359375  C 6.859546700721154 3.796875023437501  7.079326923076923 3.523995556640626  7.247596153846155 3.219308033203126  C 7.415865384615387 2.914620509765626  7.500000000000002 2.59151783203125  7.5 2.2499999999999996  C 7.5 1.6205357109374998  7.273351646634616 0.8705357109374998  6.820054939903846 0  L 6.850961538461538 0.010044650390624998  L 6.840659332932692 0  C 7.458791195913461 0.27455356640625  8.008241748798078 0.5524553496093749  8.489010991586538 0.8337053496093748  C 8.969780234375 1.1149553496093747  9.445398365384616 1.4497767832031248  9.915865384615385 1.8381696503906244  C 10.386332403846156 2.2265625175781247  10.776098888221155 2.6367187675781247  11.085164837740384 3.0686384003906246  C 11.394230787259614 3.5005580332031236  11.643200564903845 4.004464283203124  11.832074170673076 4.580357150390624  Z " stroke-width="0" stroke-dasharray="0" stroke="rgba(255, 255, 255, 0)" fill="none" transform="matrix(1 0 0 1 740 68 )" class="stroke" mask="url(#Clip1003)" />
  </g>
</svg>