<?xml version="1.0" encoding="utf-8"?>
<svg version="1.1" xmlns:xlink="http://www.w3.org/1999/xlink" width="18px" height="18px" xmlns="http://www.w3.org/2000/svg">
  <defs>
    <pattern id="BGPattern" patternUnits="userSpaceOnUse" alignment="0 0" imageRepeat="None" />
    <mask fill="white" id="Clip1006">
      <path d="M 9 18  C 4.029437251522859 18  0 13.97056274847714  0 9  C 0 4.029437251522859  4.029437251522859 0  9 0  C 13.97056274847714 0  18 4.029437251522859  18 9  C 18 13.97056274847714  13.97056274847714 18  9 18  Z M 10.125 7.875  L 7.875 7.875  L 7.875 14.625  L 10.125 14.625  L 10.125 7.875  Z M 10.125 3.375  L 7.875 3.375  L 7.875 5.625  L 10.125 5.625  L 10.125 3.375  Z " fill-rule="evenodd" />
    </mask>
  </defs>
  <g transform="matrix(1 0 0 1 -1598 -68 )">
    <path d="M 9 18  C 4.029437251522859 18  0 13.97056274847714  0 9  C 0 4.029437251522859  4.029437251522859 0  9 0  C 13.97056274847714 0  18 4.029437251522859  18 9  C 18 13.97056274847714  13.97056274847714 18  9 18  Z M 10.125 7.875  L 7.875 7.875  L 7.875 14.625  L 10.125 14.625  L 10.125 7.875  Z M 10.125 3.375  L 7.875 3.375  L 7.875 5.625  L 10.125 5.625  L 10.125 3.375  Z " fill-rule="nonzero" fill="rgba(42, 205, 201, 1)" stroke="none" transform="matrix(1 0 0 1 1598 68 )" class="fill" />
    <path d="M 9 18  C 4.029437251522859 18  0 13.97056274847714  0 9  C 0 4.029437251522859  4.029437251522859 0  9 0  C 13.97056274847714 0  18 4.029437251522859  18 9  C 18 13.97056274847714  13.97056274847714 18  9 18  Z " stroke-width="0" stroke-dasharray="0" stroke="rgba(255, 255, 255, 0)" fill="none" transform="matrix(1 0 0 1 1598 68 )" class="stroke" mask="url(#Clip1006)" />
    <path d="M 10.125 7.875  L 7.875 7.875  L 7.875 14.625  L 10.125 14.625  L 10.125 7.875  Z " stroke-width="0" stroke-dasharray="0" stroke="rgba(255, 255, 255, 0)" fill="none" transform="matrix(1 0 0 1 1598 68 )" class="stroke" mask="url(#Clip1006)" />
    <path d="M 10.125 3.375  L 7.875 3.375  L 7.875 5.625  L 10.125 5.625  L 10.125 3.375  Z " stroke-width="0" stroke-dasharray="0" stroke="rgba(255, 255, 255, 0)" fill="none" transform="matrix(1 0 0 1 1598 68 )" class="stroke" mask="url(#Clip1006)" />
  </g>
</svg>