<?xml version="1.0" encoding="utf-8"?>
<svg version="1.1" xmlns:xlink="http://www.w3.org/1999/xlink" width="27px" height="32px" xmlns="http://www.w3.org/2000/svg">
  <defs>
    <pattern id="BGPattern" patternUnits="userSpaceOnUse" alignment="0 0" imageRepeat="None" />
    <mask fill="white" id="Clip486">
      <path d="M 5.712890625 12.946428571428573  C 8.126953125 13.458333333333336  10.72265625 13.714285714285715  13.5 13.714285714285715  C 16.27734375 13.714285714285715  18.873046875 13.458333333333336  21.287109375 12.946428571428573  C 23.701171875000004 12.434523809523807  25.605468750000004 11.678571428571427  27 10.678571428571427  L 27 13.714285714285715  C 27 14.535714285714285  26.396484374999996 15.297619047619047  25.189453125 16  C 23.982421875000004 16.70238095238095  22.341796875 17.25892857142857  20.267578125 17.669642857142858  C 18.193359375 18.080357142857142  15.9375 18.285714285714285  13.5 18.285714285714285  C 11.062500000000002 18.285714285714285  8.806640625 18.080357142857142  6.732421875 17.669642857142858  C 4.658203125 17.25892857142857  3.0175781250000004 16.70238095238095  1.8105468750000002 16  C 0.6035156249999999 15.297619047619047  0 14.535714285714285  0 13.714285714285715  L 0 10.678571428571427  C 1.39453125 11.678571428571427  3.2988281250000004 12.434523809523807  5.712890625 12.946428571428573  Z M 5.712890625 26.660714285714285  C 8.126953125 27.17261904761905  10.72265625 27.42857142857143  13.5 27.42857142857143  C 16.27734375 27.42857142857143  18.873046875 27.17261904761905  21.287109375 26.660714285714285  C 23.701171875000004 26.148809523809522  25.605468750000004 25.392857142857142  27 24.392857142857142  L 27 27.42857142857143  C 27 28.25  26.396484374999996 29.011904761904763  25.189453125 29.714285714285715  C 23.982421875000004 30.416666666666664  22.341796875 30.973214285714285  20.267578125 31.383928571428573  C 18.193359375 31.794642857142858  15.9375 32  13.5 32  C 11.062500000000002 32  8.806640625 31.794642857142858  6.732421875 31.383928571428573  C 4.658203125 30.973214285714285  3.0175781250000004 30.416666666666664  1.8105468750000002 29.714285714285715  C 0.6035156249999999 29.011904761904763  0 28.25  0 27.42857142857143  L 0 24.392857142857142  C 1.39453125 25.392857142857142  3.2988281250000004 26.148809523809522  5.712890625 26.660714285714285  Z M 5.712890625 19.80357142857143  C 8.126953125 20.31547619047619  10.72265625 20.57142857142857  13.5 20.57142857142857  C 16.27734375 20.57142857142857  18.873046875 20.31547619047619  21.287109375 19.80357142857143  C 23.701171875000004 19.291666666666664  25.605468750000004 18.535714285714285  27 17.535714285714285  L 27 20.57142857142857  C 27 21.392857142857142  26.396484374999996 22.1547619047619  25.189453125 22.857142857142858  C 23.982421875000004 23.55952380952381  22.341796875 24.11607142857143  20.267578125 24.526785714285715  C 18.193359375 24.9375  15.9375 25.142857142857142  13.5 25.142857142857142  C 11.062500000000002 25.142857142857142  8.806640625 24.9375  6.732421875 24.526785714285715  C 4.658203125 24.11607142857143  3.0175781250000004 23.55952380952381  1.8105468750000002 22.857142857142858  C 0.6035156249999999 22.1547619047619  0 21.392857142857142  0 20.57142857142857  L 0 17.535714285714285  C 1.39453125 18.535714285714285  3.2988281250000004 19.291666666666664  5.712890625 19.80357142857143  Z M 6.732421875 0.616071428571427  C 8.806640625 0.20535714285714235  11.062500000000002 0  13.5 0  C 15.9375 0  18.193359375 0.20535714285714235  20.267578125 0.616071428571427  C 22.341796875 1.0267857142857153  23.982421875000004 1.5833333333333321  25.189453125 2.2857142857142847  C 26.396484374999996 2.9880952380952372  27 3.75  27 4.571428571428573  L 27 6.857142857142858  C 27 7.678571428571427  26.396484374999996 8.440476190476186  25.189453125 9.142857142857142  C 23.982421875000004 9.845238095238095  22.341796875 10.401785714285715  20.267578125 10.8125  C 18.193359375 11.223214285714285  15.9375 11.428571428571427  13.5 11.428571428571427  C 11.062500000000002 11.428571428571427  8.806640625 11.223214285714285  6.732421875 10.8125  C 4.658203125 10.401785714285715  3.0175781250000004 9.845238095238095  1.8105468750000002 9.142857142857142  C 0.6035156249999999 8.440476190476186  0 7.678571428571427  0 6.857142857142858  L 0 4.571428571428573  C 0 3.75  0.6035156249999999 2.9880952380952372  1.8105468750000002 2.2857142857142847  C 3.0175781250000004 1.5833333333333321  4.658203125 1.0267857142857153  6.732421875 0.616071428571427  Z " fill-rule="evenodd" />
    </mask>
  </defs>
  <g transform="matrix(1 0 0 1 -826 -867 )">
    <path d="M 5.712890625 12.946428571428573  C 8.126953125 13.458333333333336  10.72265625 13.714285714285715  13.5 13.714285714285715  C 16.27734375 13.714285714285715  18.873046875 13.458333333333336  21.287109375 12.946428571428573  C 23.701171875000004 12.434523809523807  25.605468750000004 11.678571428571427  27 10.678571428571427  L 27 13.714285714285715  C 27 14.535714285714285  26.396484374999996 15.297619047619047  25.189453125 16  C 23.982421875000004 16.70238095238095  22.341796875 17.25892857142857  20.267578125 17.669642857142858  C 18.193359375 18.080357142857142  15.9375 18.285714285714285  13.5 18.285714285714285  C 11.062500000000002 18.285714285714285  8.806640625 18.080357142857142  6.732421875 17.669642857142858  C 4.658203125 17.25892857142857  3.0175781250000004 16.70238095238095  1.8105468750000002 16  C 0.6035156249999999 15.297619047619047  0 14.535714285714285  0 13.714285714285715  L 0 10.678571428571427  C 1.39453125 11.678571428571427  3.2988281250000004 12.434523809523807  5.712890625 12.946428571428573  Z M 5.712890625 26.660714285714285  C 8.126953125 27.17261904761905  10.72265625 27.42857142857143  13.5 27.42857142857143  C 16.27734375 27.42857142857143  18.873046875 27.17261904761905  21.287109375 26.660714285714285  C 23.701171875000004 26.148809523809522  25.605468750000004 25.392857142857142  27 24.392857142857142  L 27 27.42857142857143  C 27 28.25  26.396484374999996 29.011904761904763  25.189453125 29.714285714285715  C 23.982421875000004 30.416666666666664  22.341796875 30.973214285714285  20.267578125 31.383928571428573  C 18.193359375 31.794642857142858  15.9375 32  13.5 32  C 11.062500000000002 32  8.806640625 31.794642857142858  6.732421875 31.383928571428573  C 4.658203125 30.973214285714285  3.0175781250000004 30.416666666666664  1.8105468750000002 29.714285714285715  C 0.6035156249999999 29.011904761904763  0 28.25  0 27.42857142857143  L 0 24.392857142857142  C 1.39453125 25.392857142857142  3.2988281250000004 26.148809523809522  5.712890625 26.660714285714285  Z M 5.712890625 19.80357142857143  C 8.126953125 20.31547619047619  10.72265625 20.57142857142857  13.5 20.57142857142857  C 16.27734375 20.57142857142857  18.873046875 20.31547619047619  21.287109375 19.80357142857143  C 23.701171875000004 19.291666666666664  25.605468750000004 18.535714285714285  27 17.535714285714285  L 27 20.57142857142857  C 27 21.392857142857142  26.396484374999996 22.1547619047619  25.189453125 22.857142857142858  C 23.982421875000004 23.55952380952381  22.341796875 24.11607142857143  20.267578125 24.526785714285715  C 18.193359375 24.9375  15.9375 25.142857142857142  13.5 25.142857142857142  C 11.062500000000002 25.142857142857142  8.806640625 24.9375  6.732421875 24.526785714285715  C 4.658203125 24.11607142857143  3.0175781250000004 23.55952380952381  1.8105468750000002 22.857142857142858  C 0.6035156249999999 22.1547619047619  0 21.392857142857142  0 20.57142857142857  L 0 17.535714285714285  C 1.39453125 18.535714285714285  3.2988281250000004 19.291666666666664  5.712890625 19.80357142857143  Z M 6.732421875 0.616071428571427  C 8.806640625 0.20535714285714235  11.062500000000002 0  13.5 0  C 15.9375 0  18.193359375 0.20535714285714235  20.267578125 0.616071428571427  C 22.341796875 1.0267857142857153  23.982421875000004 1.5833333333333321  25.189453125 2.2857142857142847  C 26.396484374999996 2.9880952380952372  27 3.75  27 4.571428571428573  L 27 6.857142857142858  C 27 7.678571428571427  26.396484374999996 8.440476190476186  25.189453125 9.142857142857142  C 23.982421875000004 9.845238095238095  22.341796875 10.401785714285715  20.267578125 10.8125  C 18.193359375 11.223214285714285  15.9375 11.428571428571427  13.5 11.428571428571427  C 11.062500000000002 11.428571428571427  8.806640625 11.223214285714285  6.732421875 10.8125  C 4.658203125 10.401785714285715  3.0175781250000004 9.845238095238095  1.8105468750000002 9.142857142857142  C 0.6035156249999999 8.440476190476186  0 7.678571428571427  0 6.857142857142858  L 0 4.571428571428573  C 0 3.75  0.6035156249999999 2.9880952380952372  1.8105468750000002 2.2857142857142847  C 3.0175781250000004 1.5833333333333321  4.658203125 1.0267857142857153  6.732421875 0.616071428571427  Z " fill-rule="nonzero" fill="rgba(22, 93, 255, 1)" stroke="none" transform="matrix(1 0 0 1 826 867 )" class="fill" />
    <path d="M 5.712890625 12.946428571428573  C 8.126953125 13.458333333333336  10.72265625 13.714285714285715  13.5 13.714285714285715  C 16.27734375 13.714285714285715  18.873046875 13.458333333333336  21.287109375 12.946428571428573  C 23.701171875000004 12.434523809523807  25.605468750000004 11.678571428571427  27 10.678571428571427  L 27 13.714285714285715  C 27 14.535714285714285  26.396484374999996 15.297619047619047  25.189453125 16  C 23.982421875000004 16.70238095238095  22.341796875 17.25892857142857  20.267578125 17.669642857142858  C 18.193359375 18.080357142857142  15.9375 18.285714285714285  13.5 18.285714285714285  C 11.062500000000002 18.285714285714285  8.806640625 18.080357142857142  6.732421875 17.669642857142858  C 4.658203125 17.25892857142857  3.0175781250000004 16.70238095238095  1.8105468750000002 16  C 0.6035156249999999 15.297619047619047  0 14.535714285714285  0 13.714285714285715  L 0 10.678571428571427  C 1.39453125 11.678571428571427  3.2988281250000004 12.434523809523807  5.712890625 12.946428571428573  Z " stroke-width="0" stroke-dasharray="0" stroke="rgba(255, 255, 255, 0)" fill="none" transform="matrix(1 0 0 1 826 867 )" class="stroke" mask="url(#Clip486)" />
    <path d="M 5.712890625 26.660714285714285  C 8.126953125 27.17261904761905  10.72265625 27.42857142857143  13.5 27.42857142857143  C 16.27734375 27.42857142857143  18.873046875 27.17261904761905  21.287109375 26.660714285714285  C 23.701171875000004 26.148809523809522  25.605468750000004 25.392857142857142  27 24.392857142857142  L 27 27.42857142857143  C 27 28.25  26.396484374999996 29.011904761904763  25.189453125 29.714285714285715  C 23.982421875000004 30.416666666666664  22.341796875 30.973214285714285  20.267578125 31.383928571428573  C 18.193359375 31.794642857142858  15.9375 32  13.5 32  C 11.062500000000002 32  8.806640625 31.794642857142858  6.732421875 31.383928571428573  C 4.658203125 30.973214285714285  3.0175781250000004 30.416666666666664  1.8105468750000002 29.714285714285715  C 0.6035156249999999 29.011904761904763  0 28.25  0 27.42857142857143  L 0 24.392857142857142  C 1.39453125 25.392857142857142  3.2988281250000004 26.148809523809522  5.712890625 26.660714285714285  Z " stroke-width="0" stroke-dasharray="0" stroke="rgba(255, 255, 255, 0)" fill="none" transform="matrix(1 0 0 1 826 867 )" class="stroke" mask="url(#Clip486)" />
    <path d="M 5.712890625 19.80357142857143  C 8.126953125 20.31547619047619  10.72265625 20.57142857142857  13.5 20.57142857142857  C 16.27734375 20.57142857142857  18.873046875 20.31547619047619  21.287109375 19.80357142857143  C 23.701171875000004 19.291666666666664  25.605468750000004 18.535714285714285  27 17.535714285714285  L 27 20.57142857142857  C 27 21.392857142857142  26.396484374999996 22.1547619047619  25.189453125 22.857142857142858  C 23.982421875000004 23.55952380952381  22.341796875 24.11607142857143  20.267578125 24.526785714285715  C 18.193359375 24.9375  15.9375 25.142857142857142  13.5 25.142857142857142  C 11.062500000000002 25.142857142857142  8.806640625 24.9375  6.732421875 24.526785714285715  C 4.658203125 24.11607142857143  3.0175781250000004 23.55952380952381  1.8105468750000002 22.857142857142858  C 0.6035156249999999 22.1547619047619  0 21.392857142857142  0 20.57142857142857  L 0 17.535714285714285  C 1.39453125 18.535714285714285  3.2988281250000004 19.291666666666664  5.712890625 19.80357142857143  Z " stroke-width="0" stroke-dasharray="0" stroke="rgba(255, 255, 255, 0)" fill="none" transform="matrix(1 0 0 1 826 867 )" class="stroke" mask="url(#Clip486)" />
    <path d="M 6.732421875 0.616071428571427  C 8.806640625 0.20535714285714235  11.062500000000002 0  13.5 0  C 15.9375 0  18.193359375 0.20535714285714235  20.267578125 0.616071428571427  C 22.341796875 1.0267857142857153  23.982421875000004 1.5833333333333321  25.189453125 2.2857142857142847  C 26.396484374999996 2.9880952380952372  27 3.75  27 4.571428571428573  L 27 6.857142857142858  C 27 7.678571428571427  26.396484374999996 8.440476190476186  25.189453125 9.142857142857142  C 23.982421875000004 9.845238095238095  22.341796875 10.401785714285715  20.267578125 10.8125  C 18.193359375 11.223214285714285  15.9375 11.428571428571427  13.5 11.428571428571427  C 11.062500000000002 11.428571428571427  8.806640625 11.223214285714285  6.732421875 10.8125  C 4.658203125 10.401785714285715  3.0175781250000004 9.845238095238095  1.8105468750000002 9.142857142857142  C 0.6035156249999999 8.440476190476186  0 7.678571428571427  0 6.857142857142858  L 0 4.571428571428573  C 0 3.75  0.6035156249999999 2.9880952380952372  1.8105468750000002 2.2857142857142847  C 3.0175781250000004 1.5833333333333321  4.658203125 1.0267857142857153  6.732421875 0.616071428571427  Z " stroke-width="0" stroke-dasharray="0" stroke="rgba(255, 255, 255, 0)" fill="none" transform="matrix(1 0 0 1 826 867 )" class="stroke" mask="url(#Clip486)" />
  </g>
</svg>