<?xml version="1.0" encoding="utf-8"?>
<svg version="1.1" xmlns:xlink="http://www.w3.org/1999/xlink" width="13px" height="14px" xmlns="http://www.w3.org/2000/svg">
  <defs>
    <pattern id="BGPattern" patternUnits="userSpaceOnUse" alignment="0 0" imageRepeat="None" />
    <mask fill="white" id="Clip1013">
      <path d="M 12.9571875 6.680138888888891  C 12.955937500000001 6.07152777777778  12.4803125 5.578287037037039  11.893437500000001 5.577314814814815  L 11.852500000000003 5.577314814814815  C 11.704062500000003 5.5747222222222215  11.573750000000004 5.473611111111111  11.529687500000001 5.326481481481482  C 11.450071175978053 5.079272523372199  11.35346945259549 4.838300056235711  11.240625000000001 4.605416666666666  C 11.170625000000001 4.468657407407407  11.193750000000001 4.300787037037036  11.297812500000003 4.1896296296296285  L 11.326875000000005 4.15949074074074  C 11.526471392152253 3.9526819039849563  11.63856265355464 3.6720435944832954  11.638437500000002 3.3794444444444434  C 11.638437500000002 3.0868055555555545  11.526250000000001 2.8061574074074067  11.326875000000001 2.5993981481481474  L 10.88625 2.142129629629629  C 10.470312500000002 1.7120833333333327  9.7978125 1.7120833333333327  9.381875 2.142129629629629  L 9.352812500000006 2.172268518518518  C 9.245756373268652 2.2802110276994787  9.083762814839552 2.3041726625654055  8.951875000000001 2.2315740740740737  C 8.7271875 2.1142592592592586  8.495000000000001 2.01412037037037  8.256562500000001 1.9318055555555556  C 8.114659318497157 1.8861313951758227  8.017097722017514 1.7511006928800446  8.0146875 1.5970370370370368  L 8.0146875 1.554583333333333  C 8.013750000000002 0.9459722222222217  7.538125000000001 0.452731481481481  6.951250000000002 0.45175925925925875  L 6.3278125 0.45175925925925875  C 5.740937500000001 0.452731481481481  5.2653125 0.9459722222222217  5.264375000000001 1.554583333333333  L 5.264375000000001 1.5970370370370368  C 5.261875 1.750972222222222  5.164375 1.8861111111111106  5.022500000000001 1.931805555555555  C 4.784062500000001 2.01412037037037  4.551562499999999 2.114583333333333  4.327187500000001 2.2315740740740737  C 4.1953125 2.304166666666666  4.033437500000002 2.280185185185185  3.92625 2.172268518518518  L 3.8971875000000007 2.142129629629629  C 3.481250000000003 1.7120833333333327  2.8084375 1.7120833333333327  2.3928125000000016 2.142129629629629  L 1.9518750000000011 2.599398148148148  C 1.7522786078477528 2.80620698490393  1.640187346445366 3.086845294405592  1.6403125000000005 3.3794444444444434  C 1.6403125000000005 3.6720833333333323  1.7525000000000013 3.9527314814814805  1.9518750000000011 4.15949074074074  L 1.9809374999999996 4.1896296296296285  C 2.085000000000001 4.300462962962962  2.108125000000001 4.468657407407407  2.038125000000001 4.605416666666666  C 1.9253349681076024 4.838325922694527  1.8287348882613195 5.079294290038806  1.7490625000000006 5.326481481481482  C 1.7050195596338327 5.4736403363733235  1.5748113824200445 5.574815325315177  1.4262499999999996 5.577314814814815  L 1.3853125000000013 5.577314814814815  C 0.7984375000000021 5.578287037037036  0.3228125000000013 6.071527777777778  0.32187500000000213 6.680138888888889  L 0.32187500000000213 7.326666666666666  C 0.3228125000000013 7.935277777777777  0.7984375000000021 8.42851851851852  1.3853125000000013 8.429490740740741  L 1.4262499999999996 8.429490740740741  C 1.5746874999999996 8.432083333333333  1.704999999999998 8.533194444444444  1.7490625000000006 8.680324074074075  C 1.8286788240219496 8.927533032183355  1.9252805474045118 9.168505499319844  2.038125000000001 9.40138888888889  C 2.108125000000001 9.53814814814815  2.085000000000001 9.706018518518519  1.9809374999999996 9.817175925925927  L 1.9518750000000011 9.847314814814816  C 1.7522786078477528 10.054123651570599  1.640187346445366 10.33476196107226  1.6403125000000005 10.62736111111111  C 1.6403125000000005 10.919999999999998  1.7525000000000013 11.200648148148149  1.9518750000000011 11.407407407407407  L 2.3928125000000016 11.864675925925926  C 2.5921875000000014 12.07175925925926  2.8628125000000004 12.187777777777779  3.145000000000003 12.187777777777779  C 3.427187500000006 12.187777777777779  3.697812500000005 12.071435185185187  3.8971875000000042 11.864675925925926  L 3.9262500000000027 11.834537037037038  C 4.033125000000002 11.72662037037037  4.1953125000000036 11.702638888888888  4.327187500000004 11.775231481481484  C 4.551875000000006 11.892222222222223  4.7840625000000045 11.992361111111112  5.022500000000004 12.075000000000001  C 5.164375000000003 12.120694444444446  5.261875000000003 12.25550925925926  5.264375000000005 12.409768518518518  L 5.264375000000005 12.452222222222222  C 5.265312500000004 13.060833333333333  5.740937500000005 13.554074074074075  6.327812500000004 13.555046296296295  L 6.951250000000005 13.555046296296295  C 7.538125000000004 13.554074074074075  8.013750000000005 13.060833333333333  8.014687500000004 12.452222222222222  L 8.014687500000004 12.409768518518518  C 8.016875000000006 12.255833333333335  8.114062500000003 12.121018518518518  8.255625000000006 12.075000000000001  C 8.49441098689994 11.992718678424021  8.727108471635919 11.892531417724141  8.951875000000005 11.775231481481484  C 9.083750000000006 11.703287037037036  9.245312500000004 11.727268518518517  9.352812500000006 11.834537037037038  L 9.381875000000004 11.864675925925926  C 9.581250000000004 12.07175925925926  9.851875000000003 12.187777777777779  10.134062500000006 12.187777777777779  C 10.416250000000009 12.187777777777779  10.686875000000008 12.071435185185187  10.886250000000008 11.864675925925926  L 11.3271875 11.407407407407407  C 11.526783892152249 11.200598570651625  11.63887515355464 10.919960261149964  11.638750000000002 10.62736111111111  C 11.638750000000002 10.334722222222222  11.5265625 10.054074074074075  11.3271875 9.847314814814816  L 11.298125000000002 9.817175925925927  C 11.194037580432653 9.706154757463787  11.170931718240503 9.53816143761138  11.240937500000001 9.40138888888889  C 11.353750000000002 9.16837962962963  11.450312500000003 8.927592592592593  11.530000000000001 8.680324074074075  C 11.5740625 8.533194444444444  11.704062500000003 8.432083333333333  11.852812500000002 8.429490740740741  L 11.89375 8.429490740740741  C 12.480625 8.42851851851852  12.95625 7.935277777777777  12.9571875 7.326666666666668  L 12.9571875 6.680138888888891  Z M 12.231562499999995 6.680462962962967  L 12.2296875 7.326990740740739  C 12.2296875 7.419351851851851  12.194375 7.5081481481481465  12.131250000000005 7.573611111111111  C 12.068165505052587 7.63899065002402  11.982624209987627 7.675710084611694  11.893437500000001 7.675694444444443  L 11.852500000000003 7.675694444444443  C 11.390312500000004 7.677314814814815  10.981250000000003 7.986805555555556  10.839062500000004 8.44310185185185  C 10.771976334843771 8.655469255489887  10.689986316347817 8.862457786260425  10.593750000000004 9.062407407407408  C 10.381562500000005 9.488888888888889  10.458125000000003 10.008703703703702  10.783750000000005 10.349953703703704  L 10.812812500000003 10.381064814814815  C 10.876250000000002 10.446203703703702  10.911875000000002 10.535  10.911875000000002 10.627685185185186  C 10.911875000000002 10.72037037037037  10.876250000000002 10.809166666666666  10.812812500000003 10.874305555555557  L 10.371875000000003 11.331574074074076  C 10.239062500000003 11.463472222222222  10.029375000000002 11.463472222222222  9.896562500000002 11.331574074074076  L 9.867500000000003 11.301435185185184  C 9.537812500000005 10.964074074074073  9.036562500000002 10.884675925925926  8.625000000000004 11.10439814814815  C 8.432187500000005 11.204861111111112  8.232812500000005 11.290740740740741  8.027812500000003 11.360740740740741  C 7.587812500000002 11.508194444444447  7.289375000000003 11.93240740740741  7.287812500000006 12.411712962962966  L 7.287812500000006 12.45416666666667  C 7.287812500000006 12.546851851851855  7.252500000000005 12.635324074074076  7.189375000000009 12.70078703703704  C 7.12629050505259 12.766166575949947  7.040749209987631 12.802886010537625  6.951562500000005 12.802870370370373  L 6.328125 12.802870370370373  C 6.23875 12.802870370370373  6.153437499999999 12.766250000000001  6.090312500000003 12.700787037037042  C 6.027218395009552 12.635400404908923  5.99180147089254 12.546668621359814  5.991875 12.45416666666667  L 5.991875 12.410740740740742  C 5.990000000000002 11.931759259259263  5.6915625 11.508194444444447  5.251875000000002 11.360740740740745  C 5.047187500000003 11.29041666666667  4.8475 11.204861111111114  4.654687500000001 11.10439814814815  C 4.50226465571086 11.02411859756807  4.333766720828276 10.98215469002425  4.162812499999998 10.98189814814815  C 3.8818369122364587 10.981018322085006  3.612040317780043 11.095964994612054  3.412812500000001 11.30143518518519  L 3.3837500000000027 11.331574074074078  C 3.2509375000000027 11.463472222222226  3.0412500000000016 11.463472222222226  2.9084375000000016 11.331574074074078  L 2.467500000000001 10.87430555555556  C 2.404059310280598 10.809107141779846  2.3683909254166196 10.72030915782358  2.3684375000000024 10.62768518518519  C 2.3684375000000024 10.535000000000004  2.404062500000002 10.446203703703707  2.467500000000001 10.381064814814817  L 2.4965624999999996 10.349953703703708  C 2.8218749999999986 10.008379629629633  2.8981250000000003 9.488564814814819  2.685624999999998 9.06240740740741  C 2.5887499999999974 8.862453703703707  2.505937499999998 8.655694444444446  2.438437499999999 8.443101851851853  C 2.2962500000000006 7.986805555555559  1.8871874999999996 7.677314814814817  1.4250000000000007 7.6756944444444475  L 1.3859375000000007 7.6756944444444475  C 1.296875 7.6756944444444475  1.2112499999999997 7.639074074074077  1.1481250000000003 7.573611111111114  C 1.0850804446196953 7.508190153387869  1.0496724184101538 7.4194806622093905  1.049687500000001 7.326990740740744  L 1.049687500000001 6.680462962962967  C 1.049687500000001 6.587777777777781  1.0850000000000009 6.4993055555555586  1.1481250000000003 6.433842592592596  C 1.2112499999999997 6.368379629629633  1.296875 6.331759259259261  1.3859375000000007 6.331759259259261  L 1.426874999999999 6.331759259259261  C 1.8890624999999979 6.330138888888891  2.298124999999999 6.020648148148151  2.4403124999999974 5.564351851851854  C 2.5074999999999967 5.3520833333333355  2.589374999999997 5.145000000000002  2.685624999999998 4.945046296296299  C 2.897812499999997 4.518564814814818  2.821249999999999 3.9987500000000034  2.495624999999997 3.6571759259259284  L 2.4665624999999984 3.626064814814816  C 2.403121810280595 3.5608664010391045  2.367453425416617 3.4720684170828395  2.3674999999999997 3.379444444444446  C 2.3674999999999997 3.2867592592592607  2.4031249999999993 3.197962962962965  2.4665624999999984 3.1328240740740756  L 2.907499999999999 2.675555555555557  C 3.0387500000000003 2.5394444444444457  3.251562499999999 2.5394444444444457  3.3828125 2.675555555555557  L 3.4118749999999984 2.705694444444446  C 3.7415624999999966 3.043055555555557  4.242812499999999 3.122777777777779  4.654687499999998 2.9027314814814833  C 4.847499999999997 2.8022685185185203  5.0468749999999964 2.7163888888888903  5.251874999999998 2.6463888888888905  C 5.691875 2.498935185185187  5.990312499999998 2.074722222222224  5.991874999999997 1.5954166666666683  L 5.991874999999997 1.554907407407409  C 5.991874999999997 1.3624074074074088  6.142499999999998 1.206203703703705  6.3281249999999964 1.206203703703705  L 6.951562499999997 1.206203703703705  C 7.040624999999999 1.206203703703705  7.126249999999999 1.2428240740740755  7.189374999999999 1.3082870370370385  C 7.252499999999998 1.3737500000000014  7.2878124999999985 1.4625462962962978  7.2878124999999985 1.554907407407409  L 7.2878124999999985 1.5973611111111128  C 7.289374999999995 2.076666666666668  7.587812499999998 2.500879629629631  8.027812499999996 2.648333333333335  C 8.232595353508103 2.7179041712731307  8.432191436751118 2.802930857120785  8.624999999999996 2.9027314814814833  C 9.036430651473328 3.1221765801899624  9.537245420098625 3.042696845489279  9.866562499999997 2.705694444444446  L 9.895624999999995 2.675555555555557  C 10.027187499999997 2.540092592592594  10.239374999999995 2.540092592592594  10.370937499999997 2.675555555555557  L 10.811874999999997 3.1328240740740756  C 10.875312499999996 3.197962962962964  10.910937499999996 3.2867592592592607  10.910937499999996 3.379444444444446  C 10.910937499999996 3.472129629629632  10.875312499999996 3.560925925925928  10.811874999999997 3.626064814814817  L 10.782812499999999 3.6571759259259284  C 10.457536781725683 3.99872561731089  10.38121960043992 4.518588818781917  10.59375 4.945046296296299  C 10.690312500000001 5.145000000000002  10.773125 5.352083333333336  10.840937499999999 5.564351851851855  C 10.983124999999998 6.020648148148151  11.392187499999999 6.330138888888892  11.854374999999997 6.331759259259263  L 11.895312499999996 6.331759259259263  C 12.080937499999997 6.331759259259263  12.231562499999995 6.487962962962967  12.231562499999995 6.680462962962967  Z " fill-rule="evenodd" />
    </mask>
  </defs>
  <g transform="matrix(1 0 0 1 -1068 -868 )">
    <path d="M 12.9571875 6.680138888888891  C 12.955937500000001 6.07152777777778  12.4803125 5.578287037037039  11.893437500000001 5.577314814814815  L 11.852500000000003 5.577314814814815  C 11.704062500000003 5.5747222222222215  11.573750000000004 5.473611111111111  11.529687500000001 5.326481481481482  C 11.450071175978053 5.079272523372199  11.35346945259549 4.838300056235711  11.240625000000001 4.605416666666666  C 11.170625000000001 4.468657407407407  11.193750000000001 4.300787037037036  11.297812500000003 4.1896296296296285  L 11.326875000000005 4.15949074074074  C 11.526471392152253 3.9526819039849563  11.63856265355464 3.6720435944832954  11.638437500000002 3.3794444444444434  C 11.638437500000002 3.0868055555555545  11.526250000000001 2.8061574074074067  11.326875000000001 2.5993981481481474  L 10.88625 2.142129629629629  C 10.470312500000002 1.7120833333333327  9.7978125 1.7120833333333327  9.381875 2.142129629629629  L 9.352812500000006 2.172268518518518  C 9.245756373268652 2.2802110276994787  9.083762814839552 2.3041726625654055  8.951875000000001 2.2315740740740737  C 8.7271875 2.1142592592592586  8.495000000000001 2.01412037037037  8.256562500000001 1.9318055555555556  C 8.114659318497157 1.8861313951758227  8.017097722017514 1.7511006928800446  8.0146875 1.5970370370370368  L 8.0146875 1.554583333333333  C 8.013750000000002 0.9459722222222217  7.538125000000001 0.452731481481481  6.951250000000002 0.45175925925925875  L 6.3278125 0.45175925925925875  C 5.740937500000001 0.452731481481481  5.2653125 0.9459722222222217  5.264375000000001 1.554583333333333  L 5.264375000000001 1.5970370370370368  C 5.261875 1.750972222222222  5.164375 1.8861111111111106  5.022500000000001 1.931805555555555  C 4.784062500000001 2.01412037037037  4.551562499999999 2.114583333333333  4.327187500000001 2.2315740740740737  C 4.1953125 2.304166666666666  4.033437500000002 2.280185185185185  3.92625 2.172268518518518  L 3.8971875000000007 2.142129629629629  C 3.481250000000003 1.7120833333333327  2.8084375 1.7120833333333327  2.3928125000000016 2.142129629629629  L 1.9518750000000011 2.599398148148148  C 1.7522786078477528 2.80620698490393  1.640187346445366 3.086845294405592  1.6403125000000005 3.3794444444444434  C 1.6403125000000005 3.6720833333333323  1.7525000000000013 3.9527314814814805  1.9518750000000011 4.15949074074074  L 1.9809374999999996 4.1896296296296285  C 2.085000000000001 4.300462962962962  2.108125000000001 4.468657407407407  2.038125000000001 4.605416666666666  C 1.9253349681076024 4.838325922694527  1.8287348882613195 5.079294290038806  1.7490625000000006 5.326481481481482  C 1.7050195596338327 5.4736403363733235  1.5748113824200445 5.574815325315177  1.4262499999999996 5.577314814814815  L 1.3853125000000013 5.577314814814815  C 0.7984375000000021 5.578287037037036  0.3228125000000013 6.071527777777778  0.32187500000000213 6.680138888888889  L 0.32187500000000213 7.326666666666666  C 0.3228125000000013 7.935277777777777  0.7984375000000021 8.42851851851852  1.3853125000000013 8.429490740740741  L 1.4262499999999996 8.429490740740741  C 1.5746874999999996 8.432083333333333  1.704999999999998 8.533194444444444  1.7490625000000006 8.680324074074075  C 1.8286788240219496 8.927533032183355  1.9252805474045118 9.168505499319844  2.038125000000001 9.40138888888889  C 2.108125000000001 9.53814814814815  2.085000000000001 9.706018518518519  1.9809374999999996 9.817175925925927  L 1.9518750000000011 9.847314814814816  C 1.7522786078477528 10.054123651570599  1.640187346445366 10.33476196107226  1.6403125000000005 10.62736111111111  C 1.6403125000000005 10.919999999999998  1.7525000000000013 11.200648148148149  1.9518750000000011 11.407407407407407  L 2.3928125000000016 11.864675925925926  C 2.5921875000000014 12.07175925925926  2.8628125000000004 12.187777777777779  3.145000000000003 12.187777777777779  C 3.427187500000006 12.187777777777779  3.697812500000005 12.071435185185187  3.8971875000000042 11.864675925925926  L 3.9262500000000027 11.834537037037038  C 4.033125000000002 11.72662037037037  4.1953125000000036 11.702638888888888  4.327187500000004 11.775231481481484  C 4.551875000000006 11.892222222222223  4.7840625000000045 11.992361111111112  5.022500000000004 12.075000000000001  C 5.164375000000003 12.120694444444446  5.261875000000003 12.25550925925926  5.264375000000005 12.409768518518518  L 5.264375000000005 12.452222222222222  C 5.265312500000004 13.060833333333333  5.740937500000005 13.554074074074075  6.327812500000004 13.555046296296295  L 6.951250000000005 13.555046296296295  C 7.538125000000004 13.554074074074075  8.013750000000005 13.060833333333333  8.014687500000004 12.452222222222222  L 8.014687500000004 12.409768518518518  C 8.016875000000006 12.255833333333335  8.114062500000003 12.121018518518518  8.255625000000006 12.075000000000001  C 8.49441098689994 11.992718678424021  8.727108471635919 11.892531417724141  8.951875000000005 11.775231481481484  C 9.083750000000006 11.703287037037036  9.245312500000004 11.727268518518517  9.352812500000006 11.834537037037038  L 9.381875000000004 11.864675925925926  C 9.581250000000004 12.07175925925926  9.851875000000003 12.187777777777779  10.134062500000006 12.187777777777779  C 10.416250000000009 12.187777777777779  10.686875000000008 12.071435185185187  10.886250000000008 11.864675925925926  L 11.3271875 11.407407407407407  C 11.526783892152249 11.200598570651625  11.63887515355464 10.919960261149964  11.638750000000002 10.62736111111111  C 11.638750000000002 10.334722222222222  11.5265625 10.054074074074075  11.3271875 9.847314814814816  L 11.298125000000002 9.817175925925927  C 11.194037580432653 9.706154757463787  11.170931718240503 9.53816143761138  11.240937500000001 9.40138888888889  C 11.353750000000002 9.16837962962963  11.450312500000003 8.927592592592593  11.530000000000001 8.680324074074075  C 11.5740625 8.533194444444444  11.704062500000003 8.432083333333333  11.852812500000002 8.429490740740741  L 11.89375 8.429490740740741  C 12.480625 8.42851851851852  12.95625 7.935277777777777  12.9571875 7.326666666666668  L 12.9571875 6.680138888888891  Z M 12.231562499999995 6.680462962962967  L 12.2296875 7.326990740740739  C 12.2296875 7.419351851851851  12.194375 7.5081481481481465  12.131250000000005 7.573611111111111  C 12.068165505052587 7.63899065002402  11.982624209987627 7.675710084611694  11.893437500000001 7.675694444444443  L 11.852500000000003 7.675694444444443  C 11.390312500000004 7.677314814814815  10.981250000000003 7.986805555555556  10.839062500000004 8.44310185185185  C 10.771976334843771 8.655469255489887  10.689986316347817 8.862457786260425  10.593750000000004 9.062407407407408  C 10.381562500000005 9.488888888888889  10.458125000000003 10.008703703703702  10.783750000000005 10.349953703703704  L 10.812812500000003 10.381064814814815  C 10.876250000000002 10.446203703703702  10.911875000000002 10.535  10.911875000000002 10.627685185185186  C 10.911875000000002 10.72037037037037  10.876250000000002 10.809166666666666  10.812812500000003 10.874305555555557  L 10.371875000000003 11.331574074074076  C 10.239062500000003 11.463472222222222  10.029375000000002 11.463472222222222  9.896562500000002 11.331574074074076  L 9.867500000000003 11.301435185185184  C 9.537812500000005 10.964074074074073  9.036562500000002 10.884675925925926  8.625000000000004 11.10439814814815  C 8.432187500000005 11.204861111111112  8.232812500000005 11.290740740740741  8.027812500000003 11.360740740740741  C 7.587812500000002 11.508194444444447  7.289375000000003 11.93240740740741  7.287812500000006 12.411712962962966  L 7.287812500000006 12.45416666666667  C 7.287812500000006 12.546851851851855  7.252500000000005 12.635324074074076  7.189375000000009 12.70078703703704  C 7.12629050505259 12.766166575949947  7.040749209987631 12.802886010537625  6.951562500000005 12.802870370370373  L 6.328125 12.802870370370373  C 6.23875 12.802870370370373  6.153437499999999 12.766250000000001  6.090312500000003 12.700787037037042  C 6.027218395009552 12.635400404908923  5.99180147089254 12.546668621359814  5.991875 12.45416666666667  L 5.991875 12.410740740740742  C 5.990000000000002 11.931759259259263  5.6915625 11.508194444444447  5.251875000000002 11.360740740740745  C 5.047187500000003 11.29041666666667  4.8475 11.204861111111114  4.654687500000001 11.10439814814815  C 4.50226465571086 11.02411859756807  4.333766720828276 10.98215469002425  4.162812499999998 10.98189814814815  C 3.8818369122364587 10.981018322085006  3.612040317780043 11.095964994612054  3.412812500000001 11.30143518518519  L 3.3837500000000027 11.331574074074078  C 3.2509375000000027 11.463472222222226  3.0412500000000016 11.463472222222226  2.9084375000000016 11.331574074074078  L 2.467500000000001 10.87430555555556  C 2.404059310280598 10.809107141779846  2.3683909254166196 10.72030915782358  2.3684375000000024 10.62768518518519  C 2.3684375000000024 10.535000000000004  2.404062500000002 10.446203703703707  2.467500000000001 10.381064814814817  L 2.4965624999999996 10.349953703703708  C 2.8218749999999986 10.008379629629633  2.8981250000000003 9.488564814814819  2.685624999999998 9.06240740740741  C 2.5887499999999974 8.862453703703707  2.505937499999998 8.655694444444446  2.438437499999999 8.443101851851853  C 2.2962500000000006 7.986805555555559  1.8871874999999996 7.677314814814817  1.4250000000000007 7.6756944444444475  L 1.3859375000000007 7.6756944444444475  C 1.296875 7.6756944444444475  1.2112499999999997 7.639074074074077  1.1481250000000003 7.573611111111114  C 1.0850804446196953 7.508190153387869  1.0496724184101538 7.4194806622093905  1.049687500000001 7.326990740740744  L 1.049687500000001 6.680462962962967  C 1.049687500000001 6.587777777777781  1.0850000000000009 6.4993055555555586  1.1481250000000003 6.433842592592596  C 1.2112499999999997 6.368379629629633  1.296875 6.331759259259261  1.3859375000000007 6.331759259259261  L 1.426874999999999 6.331759259259261  C 1.8890624999999979 6.330138888888891  2.298124999999999 6.020648148148151  2.4403124999999974 5.564351851851854  C 2.5074999999999967 5.3520833333333355  2.589374999999997 5.145000000000002  2.685624999999998 4.945046296296299  C 2.897812499999997 4.518564814814818  2.821249999999999 3.9987500000000034  2.495624999999997 3.6571759259259284  L 2.4665624999999984 3.626064814814816  C 2.403121810280595 3.5608664010391045  2.367453425416617 3.4720684170828395  2.3674999999999997 3.379444444444446  C 2.3674999999999997 3.2867592592592607  2.4031249999999993 3.197962962962965  2.4665624999999984 3.1328240740740756  L 2.907499999999999 2.675555555555557  C 3.0387500000000003 2.5394444444444457  3.251562499999999 2.5394444444444457  3.3828125 2.675555555555557  L 3.4118749999999984 2.705694444444446  C 3.7415624999999966 3.043055555555557  4.242812499999999 3.122777777777779  4.654687499999998 2.9027314814814833  C 4.847499999999997 2.8022685185185203  5.0468749999999964 2.7163888888888903  5.251874999999998 2.6463888888888905  C 5.691875 2.498935185185187  5.990312499999998 2.074722222222224  5.991874999999997 1.5954166666666683  L 5.991874999999997 1.554907407407409  C 5.991874999999997 1.3624074074074088  6.142499999999998 1.206203703703705  6.3281249999999964 1.206203703703705  L 6.951562499999997 1.206203703703705  C 7.040624999999999 1.206203703703705  7.126249999999999 1.2428240740740755  7.189374999999999 1.3082870370370385  C 7.252499999999998 1.3737500000000014  7.2878124999999985 1.4625462962962978  7.2878124999999985 1.554907407407409  L 7.2878124999999985 1.5973611111111128  C 7.289374999999995 2.076666666666668  7.587812499999998 2.500879629629631  8.027812499999996 2.648333333333335  C 8.232595353508103 2.7179041712731307  8.432191436751118 2.802930857120785  8.624999999999996 2.9027314814814833  C 9.036430651473328 3.1221765801899624  9.537245420098625 3.042696845489279  9.866562499999997 2.705694444444446  L 9.895624999999995 2.675555555555557  C 10.027187499999997 2.540092592592594  10.239374999999995 2.540092592592594  10.370937499999997 2.675555555555557  L 10.811874999999997 3.1328240740740756  C 10.875312499999996 3.197962962962964  10.910937499999996 3.2867592592592607  10.910937499999996 3.379444444444446  C 10.910937499999996 3.472129629629632  10.875312499999996 3.560925925925928  10.811874999999997 3.626064814814817  L 10.782812499999999 3.6571759259259284  C 10.457536781725683 3.99872561731089  10.38121960043992 4.518588818781917  10.59375 4.945046296296299  C 10.690312500000001 5.145000000000002  10.773125 5.352083333333336  10.840937499999999 5.564351851851855  C 10.983124999999998 6.020648148148151  11.392187499999999 6.330138888888892  11.854374999999997 6.331759259259263  L 11.895312499999996 6.331759259259263  C 12.080937499999997 6.331759259259263  12.231562499999995 6.487962962962967  12.231562499999995 6.680462962962967  Z " fill-rule="nonzero" fill="rgba(15, 198, 194, 1)" stroke="none" transform="matrix(1 0 0 1 1068 868 )" class="fill" />
    <path d="M 12.9571875 6.680138888888891  C 12.955937500000001 6.07152777777778  12.4803125 5.578287037037039  11.893437500000001 5.577314814814815  L 11.852500000000003 5.577314814814815  C 11.704062500000003 5.5747222222222215  11.573750000000004 5.473611111111111  11.529687500000001 5.326481481481482  C 11.450071175978053 5.079272523372199  11.35346945259549 4.838300056235711  11.240625000000001 4.605416666666666  C 11.170625000000001 4.468657407407407  11.193750000000001 4.300787037037036  11.297812500000003 4.1896296296296285  L 11.326875000000005 4.15949074074074  C 11.526471392152253 3.9526819039849563  11.63856265355464 3.6720435944832954  11.638437500000002 3.3794444444444434  C 11.638437500000002 3.0868055555555545  11.526250000000001 2.8061574074074067  11.326875000000001 2.5993981481481474  L 10.88625 2.142129629629629  C 10.470312500000002 1.7120833333333327  9.7978125 1.7120833333333327  9.381875 2.142129629629629  L 9.352812500000006 2.172268518518518  C 9.245756373268652 2.2802110276994787  9.083762814839552 2.3041726625654055  8.951875000000001 2.2315740740740737  C 8.7271875 2.1142592592592586  8.495000000000001 2.01412037037037  8.256562500000001 1.9318055555555556  C 8.114659318497157 1.8861313951758227  8.017097722017514 1.7511006928800446  8.0146875 1.5970370370370368  L 8.0146875 1.554583333333333  C 8.013750000000002 0.9459722222222217  7.538125000000001 0.452731481481481  6.951250000000002 0.45175925925925875  L 6.3278125 0.45175925925925875  C 5.740937500000001 0.452731481481481  5.2653125 0.9459722222222217  5.264375000000001 1.554583333333333  L 5.264375000000001 1.5970370370370368  C 5.261875 1.750972222222222  5.164375 1.8861111111111106  5.022500000000001 1.931805555555555  C 4.784062500000001 2.01412037037037  4.551562499999999 2.114583333333333  4.327187500000001 2.2315740740740737  C 4.1953125 2.304166666666666  4.033437500000002 2.280185185185185  3.92625 2.172268518518518  L 3.8971875000000007 2.142129629629629  C 3.481250000000003 1.7120833333333327  2.8084375 1.7120833333333327  2.3928125000000016 2.142129629629629  L 1.9518750000000011 2.599398148148148  C 1.7522786078477528 2.80620698490393  1.640187346445366 3.086845294405592  1.6403125000000005 3.3794444444444434  C 1.6403125000000005 3.6720833333333323  1.7525000000000013 3.9527314814814805  1.9518750000000011 4.15949074074074  L 1.9809374999999996 4.1896296296296285  C 2.085000000000001 4.300462962962962  2.108125000000001 4.468657407407407  2.038125000000001 4.605416666666666  C 1.9253349681076024 4.838325922694527  1.8287348882613195 5.079294290038806  1.7490625000000006 5.326481481481482  C 1.7050195596338327 5.4736403363733235  1.5748113824200445 5.574815325315177  1.4262499999999996 5.577314814814815  L 1.3853125000000013 5.577314814814815  C 0.7984375000000021 5.578287037037036  0.3228125000000013 6.071527777777778  0.32187500000000213 6.680138888888889  L 0.32187500000000213 7.326666666666666  C 0.3228125000000013 7.935277777777777  0.7984375000000021 8.42851851851852  1.3853125000000013 8.429490740740741  L 1.4262499999999996 8.429490740740741  C 1.5746874999999996 8.432083333333333  1.704999999999998 8.533194444444444  1.7490625000000006 8.680324074074075  C 1.8286788240219496 8.927533032183355  1.9252805474045118 9.168505499319844  2.038125000000001 9.40138888888889  C 2.108125000000001 9.53814814814815  2.085000000000001 9.706018518518519  1.9809374999999996 9.817175925925927  L 1.9518750000000011 9.847314814814816  C 1.7522786078477528 10.054123651570599  1.640187346445366 10.33476196107226  1.6403125000000005 10.62736111111111  C 1.6403125000000005 10.919999999999998  1.7525000000000013 11.200648148148149  1.9518750000000011 11.407407407407407  L 2.3928125000000016 11.864675925925926  C 2.5921875000000014 12.07175925925926  2.8628125000000004 12.187777777777779  3.145000000000003 12.187777777777779  C 3.427187500000006 12.187777777777779  3.697812500000005 12.071435185185187  3.8971875000000042 11.864675925925926  L 3.9262500000000027 11.834537037037038  C 4.033125000000002 11.72662037037037  4.1953125000000036 11.702638888888888  4.327187500000004 11.775231481481484  C 4.551875000000006 11.892222222222223  4.7840625000000045 11.992361111111112  5.022500000000004 12.075000000000001  C 5.164375000000003 12.120694444444446  5.261875000000003 12.25550925925926  5.264375000000005 12.409768518518518  L 5.264375000000005 12.452222222222222  C 5.265312500000004 13.060833333333333  5.740937500000005 13.554074074074075  6.327812500000004 13.555046296296295  L 6.951250000000005 13.555046296296295  C 7.538125000000004 13.554074074074075  8.013750000000005 13.060833333333333  8.014687500000004 12.452222222222222  L 8.014687500000004 12.409768518518518  C 8.016875000000006 12.255833333333335  8.114062500000003 12.121018518518518  8.255625000000006 12.075000000000001  C 8.49441098689994 11.992718678424021  8.727108471635919 11.892531417724141  8.951875000000005 11.775231481481484  C 9.083750000000006 11.703287037037036  9.245312500000004 11.727268518518517  9.352812500000006 11.834537037037038  L 9.381875000000004 11.864675925925926  C 9.581250000000004 12.07175925925926  9.851875000000003 12.187777777777779  10.134062500000006 12.187777777777779  C 10.416250000000009 12.187777777777779  10.686875000000008 12.071435185185187  10.886250000000008 11.864675925925926  L 11.3271875 11.407407407407407  C 11.526783892152249 11.200598570651625  11.63887515355464 10.919960261149964  11.638750000000002 10.62736111111111  C 11.638750000000002 10.334722222222222  11.5265625 10.054074074074075  11.3271875 9.847314814814816  L 11.298125000000002 9.817175925925927  C 11.194037580432653 9.706154757463787  11.170931718240503 9.53816143761138  11.240937500000001 9.40138888888889  C 11.353750000000002 9.16837962962963  11.450312500000003 8.927592592592593  11.530000000000001 8.680324074074075  C 11.5740625 8.533194444444444  11.704062500000003 8.432083333333333  11.852812500000002 8.429490740740741  L 11.89375 8.429490740740741  C 12.480625 8.42851851851852  12.95625 7.935277777777777  12.9571875 7.326666666666668  L 12.9571875 6.680138888888891  Z " stroke-width="0" stroke-dasharray="0" stroke="rgba(255, 255, 255, 0)" fill="none" transform="matrix(1 0 0 1 1068 868 )" class="stroke" mask="url(#Clip1013)" />
    <path d="M 12.231562499999995 6.680462962962967  L 12.2296875 7.326990740740739  C 12.2296875 7.419351851851851  12.194375 7.5081481481481465  12.131250000000005 7.573611111111111  C 12.068165505052587 7.63899065002402  11.982624209987627 7.675710084611694  11.893437500000001 7.675694444444443  L 11.852500000000003 7.675694444444443  C 11.390312500000004 7.677314814814815  10.981250000000003 7.986805555555556  10.839062500000004 8.44310185185185  C 10.771976334843771 8.655469255489887  10.689986316347817 8.862457786260425  10.593750000000004 9.062407407407408  C 10.381562500000005 9.488888888888889  10.458125000000003 10.008703703703702  10.783750000000005 10.349953703703704  L 10.812812500000003 10.381064814814815  C 10.876250000000002 10.446203703703702  10.911875000000002 10.535  10.911875000000002 10.627685185185186  C 10.911875000000002 10.72037037037037  10.876250000000002 10.809166666666666  10.812812500000003 10.874305555555557  L 10.371875000000003 11.331574074074076  C 10.239062500000003 11.463472222222222  10.029375000000002 11.463472222222222  9.896562500000002 11.331574074074076  L 9.867500000000003 11.301435185185184  C 9.537812500000005 10.964074074074073  9.036562500000002 10.884675925925926  8.625000000000004 11.10439814814815  C 8.432187500000005 11.204861111111112  8.232812500000005 11.290740740740741  8.027812500000003 11.360740740740741  C 7.587812500000002 11.508194444444447  7.289375000000003 11.93240740740741  7.287812500000006 12.411712962962966  L 7.287812500000006 12.45416666666667  C 7.287812500000006 12.546851851851855  7.252500000000005 12.635324074074076  7.189375000000009 12.70078703703704  C 7.12629050505259 12.766166575949947  7.040749209987631 12.802886010537625  6.951562500000005 12.802870370370373  L 6.328125 12.802870370370373  C 6.23875 12.802870370370373  6.153437499999999 12.766250000000001  6.090312500000003 12.700787037037042  C 6.027218395009552 12.635400404908923  5.99180147089254 12.546668621359814  5.991875 12.45416666666667  L 5.991875 12.410740740740742  C 5.990000000000002 11.931759259259263  5.6915625 11.508194444444447  5.251875000000002 11.360740740740745  C 5.047187500000003 11.29041666666667  4.8475 11.204861111111114  4.654687500000001 11.10439814814815  C 4.50226465571086 11.02411859756807  4.333766720828276 10.98215469002425  4.162812499999998 10.98189814814815  C 3.8818369122364587 10.981018322085006  3.612040317780043 11.095964994612054  3.412812500000001 11.30143518518519  L 3.3837500000000027 11.331574074074078  C 3.2509375000000027 11.463472222222226  3.0412500000000016 11.463472222222226  2.9084375000000016 11.331574074074078  L 2.467500000000001 10.87430555555556  C 2.404059310280598 10.809107141779846  2.3683909254166196 10.72030915782358  2.3684375000000024 10.62768518518519  C 2.3684375000000024 10.535000000000004  2.404062500000002 10.446203703703707  2.467500000000001 10.381064814814817  L 2.4965624999999996 10.349953703703708  C 2.8218749999999986 10.008379629629633  2.8981250000000003 9.488564814814819  2.685624999999998 9.06240740740741  C 2.5887499999999974 8.862453703703707  2.505937499999998 8.655694444444446  2.438437499999999 8.443101851851853  C 2.2962500000000006 7.986805555555559  1.8871874999999996 7.677314814814817  1.4250000000000007 7.6756944444444475  L 1.3859375000000007 7.6756944444444475  C 1.296875 7.6756944444444475  1.2112499999999997 7.639074074074077  1.1481250000000003 7.573611111111114  C 1.0850804446196953 7.508190153387869  1.0496724184101538 7.4194806622093905  1.049687500000001 7.326990740740744  L 1.049687500000001 6.680462962962967  C 1.049687500000001 6.587777777777781  1.0850000000000009 6.4993055555555586  1.1481250000000003 6.433842592592596  C 1.2112499999999997 6.368379629629633  1.296875 6.331759259259261  1.3859375000000007 6.331759259259261  L 1.426874999999999 6.331759259259261  C 1.8890624999999979 6.330138888888891  2.298124999999999 6.020648148148151  2.4403124999999974 5.564351851851854  C 2.5074999999999967 5.3520833333333355  2.589374999999997 5.145000000000002  2.685624999999998 4.945046296296299  C 2.897812499999997 4.518564814814818  2.821249999999999 3.9987500000000034  2.495624999999997 3.6571759259259284  L 2.4665624999999984 3.626064814814816  C 2.403121810280595 3.5608664010391045  2.367453425416617 3.4720684170828395  2.3674999999999997 3.379444444444446  C 2.3674999999999997 3.2867592592592607  2.4031249999999993 3.197962962962965  2.4665624999999984 3.1328240740740756  L 2.907499999999999 2.675555555555557  C 3.0387500000000003 2.5394444444444457  3.251562499999999 2.5394444444444457  3.3828125 2.675555555555557  L 3.4118749999999984 2.705694444444446  C 3.7415624999999966 3.043055555555557  4.242812499999999 3.122777777777779  4.654687499999998 2.9027314814814833  C 4.847499999999997 2.8022685185185203  5.0468749999999964 2.7163888888888903  5.251874999999998 2.6463888888888905  C 5.691875 2.498935185185187  5.990312499999998 2.074722222222224  5.991874999999997 1.5954166666666683  L 5.991874999999997 1.554907407407409  C 5.991874999999997 1.3624074074074088  6.142499999999998 1.206203703703705  6.3281249999999964 1.206203703703705  L 6.951562499999997 1.206203703703705  C 7.040624999999999 1.206203703703705  7.126249999999999 1.2428240740740755  7.189374999999999 1.3082870370370385  C 7.252499999999998 1.3737500000000014  7.2878124999999985 1.4625462962962978  7.2878124999999985 1.554907407407409  L 7.2878124999999985 1.5973611111111128  C 7.289374999999995 2.076666666666668  7.587812499999998 2.500879629629631  8.027812499999996 2.648333333333335  C 8.232595353508103 2.7179041712731307  8.432191436751118 2.802930857120785  8.624999999999996 2.9027314814814833  C 9.036430651473328 3.1221765801899624  9.537245420098625 3.042696845489279  9.866562499999997 2.705694444444446  L 9.895624999999995 2.675555555555557  C 10.027187499999997 2.540092592592594  10.239374999999995 2.540092592592594  10.370937499999997 2.675555555555557  L 10.811874999999997 3.1328240740740756  C 10.875312499999996 3.197962962962964  10.910937499999996 3.2867592592592607  10.910937499999996 3.379444444444446  C 10.910937499999996 3.472129629629632  10.875312499999996 3.560925925925928  10.811874999999997 3.626064814814817  L 10.782812499999999 3.6571759259259284  C 10.457536781725683 3.99872561731089  10.38121960043992 4.518588818781917  10.59375 4.945046296296299  C 10.690312500000001 5.145000000000002  10.773125 5.352083333333336  10.840937499999999 5.564351851851855  C 10.983124999999998 6.020648148148151  11.392187499999999 6.330138888888892  11.854374999999997 6.331759259259263  L 11.895312499999996 6.331759259259263  C 12.080937499999997 6.331759259259263  12.231562499999995 6.487962962962967  12.231562499999995 6.680462962962967  Z " stroke-width="0" stroke-dasharray="0" stroke="rgba(255, 255, 255, 0)" fill="none" transform="matrix(1 0 0 1 1068 868 )" class="stroke" mask="url(#Clip1013)" />
  </g>
</svg>