<?xml version="1.0" encoding="utf-8"?>
<svg version="1.1" xmlns:xlink="http://www.w3.org/1999/xlink" width="13px" height="13px" xmlns="http://www.w3.org/2000/svg">
  <defs>
    <pattern id="BGPattern" patternUnits="userSpaceOnUse" alignment="0 0" imageRepeat="None" />
    <mask fill="white" id="Clip1526">
      <path d="M 12.956875000000007 6.057812500000004  C 12.955937500000008 5.470625000000005  12.480312500000007 4.995312500000004  11.893437500000001 4.994062499999998  L 11.852500000000003 4.994062499999998  C 11.704062500000003 4.991562499999997  11.573750000000004 4.894062499999997  11.529687500000001 4.752187499999998  C 11.450071175978053 4.513807433251763  11.35346945259549 4.2814411256558635  11.240625000000001 4.056874999999998  C 11.170625000000001 3.9249999999999967  11.193750000000001 3.7631249999999987  11.297812500000003 3.6559374999999967  L 11.326875000000005 3.6268749999999983  C 11.526471392152253 3.427452193128353  11.63856265355464 3.156836680394605  11.638437500000002 2.8746874999999967  C 11.638437500000002 2.5924999999999976  11.526250000000001 2.321874999999995  11.326875000000001 2.122499999999995  L 10.8859375 1.6815624999999945  C 10.470000000000002 1.2668749999999953  9.7975 1.2668749999999953  9.381562500000001 1.6815624999999945  L 9.352500000000003 1.7106249999999934  C 9.245443873268648 1.8147124195673463  9.08345031483955 1.8378182817594926  8.951562500000001 1.7678124999999945  C 8.726875 1.6546874999999945  8.494687500000001 1.5581249999999933  8.256250000000005 1.4787499999999945  C 8.114346818497154 1.4347070596338298  8.01678522201751 1.3044988824200416  8.014375000000001 1.1559374999999932  L 8.014375000000001 1.1149999999999949  C 8.013437500000002 0.5281249999999957  7.537812500000001 0.052499999999994884  6.950937500000003 0.05156249999999574  L 6.327500000000001 0.05156249999999574  C 5.740625000000001 0.052499999999994884  5.265000000000001 0.5281249999999957  5.264062500000001 1.1149999999999949  L 5.264062500000001 1.15625  C 5.2615625 1.3046875  5.1640625 1.4349999999999987  5.022187500000001 1.4790625000000013  C 4.783750000000001 1.5584375000000001  4.55125 1.6553125000000006  4.326875000000001 1.7681250000000013  C 4.195 1.8381250000000016  4.033125000000002 1.8150000000000015  3.9259375 1.7109375  L 3.8968750000000014 1.6818750000000016  C 3.480937500000003 1.2671875000000021  2.8081250000000004 1.2671875000000021  2.392500000000002 1.6818750000000016  L 1.9515625000000014 2.122812500000002  C 1.7519661078477462 2.3222353068716544  1.6398748464453696 2.592850819605392  1.6400000000000006 2.8750000000000036  C 1.6400000000000006 3.1571875000000027  1.7521875000000013 3.427812500000005  1.9515625000000014 3.627187500000005  L 1.9806249999999999 3.6562500000000036  C 2.084687500000001 3.7631250000000023  2.1078125000000014 3.9253125000000044  2.037812500000001 4.057187500000001  C 1.9250224681076098 4.281778568312571  1.8284223882613164 4.514140922537436  1.748750000000005 4.752500000000008  C 1.7047070596338332 4.894403181502849  1.5744988824200448 4.991964777982496  1.4259374999999999 4.994375000000005  L 1.3850000000000016 4.994375000000005  C 0.7981250000000024 4.995312500000004  0.32250000000000156 5.470937500000005  0.3215625000000024 6.057812500000004  L 0.3215625000000024 6.681250000000005  C 0.32250000000000156 7.268125000000006  0.7981250000000024 7.743750000000006  1.3850000000000016 7.744687500000004  L 1.4259374999999999 7.744687500000004  C 1.5743749999999999 7.747187500000006  1.7046874999999986 7.844687500000006  1.7487500000000011 7.986562500000002  C 1.8283663240219532 8.22494256674825  1.924968047404512 8.457308874344132  2.037812500000001 8.681875000000005  C 2.1078125000000014 8.813750000000006  2.084687500000001 8.975625000000004  1.9806249999999999 9.082812500000006  L 1.9515625000000014 9.111875000000005  C 1.7518750000000018 9.311250000000005  1.6400000000000006 9.581875000000004  1.6400000000000006 9.864062500000006  C 1.6400000000000006 10.146250000000009  1.7521875000000013 10.416875000000008  1.9515625000000014 10.616250000000008  L 2.392500000000002 11.057187500000008  C 2.5918750000000017 11.256875000000008  2.8625000000000007 11.36875000000001  3.1446875000000034 11.36875000000001  C 3.4268750000000066 11.36875000000001  3.697500000000005 11.256562500000008  3.896875000000005 11.057187500000008  L 3.9259375000000034 11.02812500000001  C 4.032812500000002 10.924062500000009  4.195000000000004 10.900937500000008  4.326875000000005 10.970937500000009  C 4.551562500000006 11.083750000000009  4.783750000000005 11.18031250000001  5.022187500000005 11.260000000000009  C 5.1640625000000036 11.304062500000008  5.261562500000004 11.43406250000001  5.264062500000005 11.58281250000001  L 5.264062500000005 11.623750000000008  C 5.265000000000004 12.210625000000007  5.740625000000005 12.686250000000008  6.327500000000004 12.687187500000007  L 6.9509375000000055 12.687187500000007  C 7.537812500000005 12.686250000000008  8.013437500000006 12.210625000000007  8.014375000000005 11.623750000000008  L 8.014375000000005 11.58281250000001  C 8.016562500000006 11.43437500000001  8.113750000000003 11.304375000000011  8.255312500000006 11.260000000000009  C 8.49409848689994 11.180657297051745  8.726795971635916 11.08404815280543  8.951562500000005 10.970937500000009  C 9.083437500000006 10.901562500000008  9.245000000000005 10.924687500000008  9.352500000000006 11.02812500000001  L 9.381562500000005 11.057187500000008  C 9.580937500000005 11.256875000000008  9.851562500000004 11.36875000000001  10.133750000000006 11.36875000000001  C 10.415937500000009 11.36875000000001  10.686562500000008 11.256562500000008  10.885937500000008 11.057187500000008  L 11.326875000000008 10.616250000000008  C 11.526562500000008 10.416875000000008  11.638437500000009 10.146250000000009  11.638437500000009 9.864062500000006  C 11.638437500000009 9.581875000000004  11.526250000000008 9.311250000000005  11.326875000000008 9.111875000000005  L 11.297812500000013 9.082812500000006  C 11.193725080432664 8.97575637326866  11.170619218240514 8.81376281483955  11.240625000000009 8.681875000000005  C 11.353437500000009 8.457187500000003  11.45000000000001 8.225000000000005  11.529687500000009 7.986562500000005  C 11.573750000000008 7.844687500000006  11.70375000000001 7.747187500000006  11.85250000000001 7.744687500000004  L 11.893437500000008 7.744687500000004  C 12.480312500000007 7.743750000000006  12.955937500000008 7.268125000000006  12.956875000000007 6.681250000000005  L 12.956875000000007 6.057812500000004  Z M 12.231562499999995 6.057812499999997  L 12.2296875 6.681249999999998  C 12.2296875 6.770312499999999  12.194375 6.8559375  12.131250000000005 6.919062499999999  C 12.068165505052587 6.9821070553803075  11.982624209987627 7.01751508158985  11.893437500000001 7.017499999999998  L 11.852500000000003 7.017499999999998  C 11.390312500000004 7.019062499999996  10.981250000000003 7.317499999999999  10.839062500000004 7.757499999999997  C 10.771976334843771 7.962282853508108  10.689986316347817 8.161878936751116  10.593750000000004 8.354687499999997  C 10.381562500000005 8.765937499999996  10.458125000000003 9.267187499999999  10.783750000000005 9.596249999999998  L 10.812812500000003 9.626249999999999  C 10.876250000000002 9.689062499999999  10.911875000000002 9.774687499999999  10.911875000000002 9.8640625  C 10.911875000000002 9.9534375  10.876250000000002 10.0390625  10.812812500000003 10.101875  L 10.371875000000003 10.5428125  C 10.239062500000003 10.670000000000002  10.029375000000002 10.670000000000002  9.896562500000002 10.5428125  L 9.867500000000003 10.513750000000002  C 9.537812500000005 10.188437500000003  9.036562500000002 10.111875000000001  8.625000000000004 10.32375  C 8.432187500000005 10.420625000000001  8.232812500000005 10.5034375  8.027812500000003 10.5709375  C 7.587812500000002 10.713124999999998  7.289375000000003 11.122187499999999  7.287812500000006 11.584374999999998  L 7.287812500000006 11.625312499999996  C 7.287812500000006 11.714687499999997  7.252500000000005 11.799999999999997  7.189375000000009 11.863124999999997  C 7.12629050505259 11.926169555380302  7.040749209987631 11.96157758158985  6.951562500000005 11.961562499999996  L 6.328125 11.961562499999996  C 6.23875 11.961562499999996  6.153437499999999 11.926249999999996  6.090312500000003 11.863125  C 6.027218395009552 11.800073604733601  5.99180147089254 11.714510813454101  5.991875 11.625312499999996  L 5.991875 11.583437499999995  C 5.990000000000002 11.121562499999996  5.6915625 10.713124999999994  5.251875000000002 10.570937499999996  C 5.047187500000003 10.503124999999997  4.8475 10.420624999999998  4.654687500000001 10.323749999999997  C 4.50226465571086 10.246337576226345  4.333766720828276 10.205872379666232  4.162812499999998 10.205624999999994  C 3.8818369122364587 10.204776596296249  3.612040317780043 10.315618030518756  3.412812500000001 10.513749999999998  L 3.3837500000000027 10.542812499999997  C 3.2509375000000027 10.669999999999998  3.0412500000000016 10.669999999999998  2.9084375000000016 10.542812499999997  L 2.467500000000001 10.101874999999996  C 2.404062500000002 10.039062499999996  2.3684375000000024 9.953437499999996  2.3684375000000024 9.864062499999996  C 2.3684375000000024 9.774687499999995  2.404062500000002 9.689062499999995  2.467500000000001 9.626249999999995  L 2.4965624999999996 9.596249999999994  C 2.8218749999999986 9.266874999999995  2.8981250000000003 8.765624999999993  2.685624999999998 8.354687499999994  C 2.5887499999999974 8.161874999999995  2.505937499999998 7.962499999999995  2.438437499999999 7.757499999999993  C 2.2962500000000006 7.317499999999992  1.8871874999999996 7.019062499999993  1.4250000000000007 7.017499999999995  L 1.3859375000000007 7.017499999999995  C 1.296875 7.017499999999995  1.2112499999999997 6.982187499999995  1.1481250000000003 6.9190624999999955  C 1.0850804446196953 6.855978005052581  1.0496724184101502 6.770436709987621  1.049687500000001 6.681249999999995  L 1.049687500000001 6.057812499999994  C 1.049687500000001 5.968437499999993  1.0850000000000009 5.883124999999993  1.1481250000000003 5.819999999999993  C 1.2112499999999997 5.756874999999994  1.296875 5.721562499999994  1.3859375000000007 5.721562499999994  L 1.426874999999999 5.721562499999994  C 1.8890624999999979 5.719999999999995  2.298124999999999 5.421562499999993  2.4403124999999974 4.9815624999999955  C 2.5074999999999967 4.776874999999997  2.589374999999997 4.577187499999994  2.685624999999998 4.384374999999995  C 2.897812499999997 3.973124999999996  2.821249999999999 3.4718749999999936  2.495624999999997 3.1424999999999947  L 2.4665624999999984 3.11249999999999  C 2.403121810280595 3.049630101001984  2.367453425416617 2.964003473615584  2.3674999999999997 2.874687499999993  C 2.3674999999999997 2.7853124999999928  2.4031249999999993 2.6996874999999925  2.4665624999999984 2.6368749999999928  L 2.907499999999999 2.1959374999999923  C 3.0387500000000003 2.064687499999991  3.251562499999999 2.064687499999991  3.3828125 2.1959374999999923  L 3.4118749999999984 2.2249999999999908  C 3.7415624999999966 2.5503124999999898  4.242812499999999 2.627187499999991  4.654687499999998 2.414999999999992  C 4.847499999999997 2.3181249999999913  5.0468749999999964 2.235312499999992  5.251874999999998 2.167812499999993  C 5.691875 2.0256249999999945  5.990312499999998 1.6165624999999935  5.991874999999997 1.1543749999999946  L 5.991874999999997 1.1153124999999946  C 5.991874999999997 0.9296874999999929  6.142499999999998 0.7790624999999949  6.3281249999999964 0.7790624999999949  L 6.951562499999997 0.7790624999999949  C 7.040624999999999 0.7790624999999949  7.126249999999999 0.8143749999999947  7.189374999999999 0.8774999999999941  C 7.252499999999998 0.9406249999999936  7.2878124999999985 1.026249999999994  7.2878124999999985 1.1153124999999946  L 7.2878124999999985 1.15625  C 7.289374999999995 1.6184374999999989  7.587812499999998 2.0275  8.027812499999996 2.169687499999995  C 8.232595353508103 2.236773665156228  8.432191436751122 2.3187636836521826  8.624999999999996 2.414999999999999  C 9.036430651473328 2.626607773754607  9.537245420098618 2.549966601007519  9.866562499999997 2.224999999999998  L 9.895624999999995 2.1959374999999994  C 10.027187499999997 2.065312500000001  10.239374999999995 2.065312500000001  10.370937499999997 2.1959374999999994  L 10.811874999999997 2.636875  C 10.875312499999996 2.6996874999999996  10.910937499999996 2.7853125  10.910937499999996 2.8746875000000003  C 10.910937499999996 2.9640625000000007  10.875312499999996 3.049687500000001  10.811874999999997 3.1125000000000007  L 10.782812499999999 3.142500000000002  C 10.457536781725683 3.4718514881212172  10.38121960043992 3.9731481466825613  10.59375 4.384374999999999  C 10.690312500000001 4.577187499999997  10.773125 4.776874999999997  10.840937499999999 4.981562499999999  C 10.983124999999998 5.4215625  11.392187499999999 5.719999999999999  11.854374999999997 5.721562499999997  L 11.895312499999996 5.721562499999997  C 12.080937499999997 5.721562499999997  12.231562499999995 5.872187499999999  12.231562499999995 6.057812499999997  Z " fill-rule="evenodd" />
    </mask>
  </defs>
  <g transform="matrix(1 0 0 1 -1068 -885 )">
    <path d="M 12.956875000000007 6.057812500000004  C 12.955937500000008 5.470625000000005  12.480312500000007 4.995312500000004  11.893437500000001 4.994062499999998  L 11.852500000000003 4.994062499999998  C 11.704062500000003 4.991562499999997  11.573750000000004 4.894062499999997  11.529687500000001 4.752187499999998  C 11.450071175978053 4.513807433251763  11.35346945259549 4.2814411256558635  11.240625000000001 4.056874999999998  C 11.170625000000001 3.9249999999999967  11.193750000000001 3.7631249999999987  11.297812500000003 3.6559374999999967  L 11.326875000000005 3.6268749999999983  C 11.526471392152253 3.427452193128353  11.63856265355464 3.156836680394605  11.638437500000002 2.8746874999999967  C 11.638437500000002 2.5924999999999976  11.526250000000001 2.321874999999995  11.326875000000001 2.122499999999995  L 10.8859375 1.6815624999999945  C 10.470000000000002 1.2668749999999953  9.7975 1.2668749999999953  9.381562500000001 1.6815624999999945  L 9.352500000000003 1.7106249999999934  C 9.245443873268648 1.8147124195673463  9.08345031483955 1.8378182817594926  8.951562500000001 1.7678124999999945  C 8.726875 1.6546874999999945  8.494687500000001 1.5581249999999933  8.256250000000005 1.4787499999999945  C 8.114346818497154 1.4347070596338298  8.01678522201751 1.3044988824200416  8.014375000000001 1.1559374999999932  L 8.014375000000001 1.1149999999999949  C 8.013437500000002 0.5281249999999957  7.537812500000001 0.052499999999994884  6.950937500000003 0.05156249999999574  L 6.327500000000001 0.05156249999999574  C 5.740625000000001 0.052499999999994884  5.265000000000001 0.5281249999999957  5.264062500000001 1.1149999999999949  L 5.264062500000001 1.15625  C 5.2615625 1.3046875  5.1640625 1.4349999999999987  5.022187500000001 1.4790625000000013  C 4.783750000000001 1.5584375000000001  4.55125 1.6553125000000006  4.326875000000001 1.7681250000000013  C 4.195 1.8381250000000016  4.033125000000002 1.8150000000000015  3.9259375 1.7109375  L 3.8968750000000014 1.6818750000000016  C 3.480937500000003 1.2671875000000021  2.8081250000000004 1.2671875000000021  2.392500000000002 1.6818750000000016  L 1.9515625000000014 2.122812500000002  C 1.7519661078477462 2.3222353068716544  1.6398748464453696 2.592850819605392  1.6400000000000006 2.8750000000000036  C 1.6400000000000006 3.1571875000000027  1.7521875000000013 3.427812500000005  1.9515625000000014 3.627187500000005  L 1.9806249999999999 3.6562500000000036  C 2.084687500000001 3.7631250000000023  2.1078125000000014 3.9253125000000044  2.037812500000001 4.057187500000001  C 1.9250224681076098 4.281778568312571  1.8284223882613164 4.514140922537436  1.748750000000005 4.752500000000008  C 1.7047070596338332 4.894403181502849  1.5744988824200448 4.991964777982496  1.4259374999999999 4.994375000000005  L 1.3850000000000016 4.994375000000005  C 0.7981250000000024 4.995312500000004  0.32250000000000156 5.470937500000005  0.3215625000000024 6.057812500000004  L 0.3215625000000024 6.681250000000005  C 0.32250000000000156 7.268125000000006  0.7981250000000024 7.743750000000006  1.3850000000000016 7.744687500000004  L 1.4259374999999999 7.744687500000004  C 1.5743749999999999 7.747187500000006  1.7046874999999986 7.844687500000006  1.7487500000000011 7.986562500000002  C 1.8283663240219532 8.22494256674825  1.924968047404512 8.457308874344132  2.037812500000001 8.681875000000005  C 2.1078125000000014 8.813750000000006  2.084687500000001 8.975625000000004  1.9806249999999999 9.082812500000006  L 1.9515625000000014 9.111875000000005  C 1.7518750000000018 9.311250000000005  1.6400000000000006 9.581875000000004  1.6400000000000006 9.864062500000006  C 1.6400000000000006 10.146250000000009  1.7521875000000013 10.416875000000008  1.9515625000000014 10.616250000000008  L 2.392500000000002 11.057187500000008  C 2.5918750000000017 11.256875000000008  2.8625000000000007 11.36875000000001  3.1446875000000034 11.36875000000001  C 3.4268750000000066 11.36875000000001  3.697500000000005 11.256562500000008  3.896875000000005 11.057187500000008  L 3.9259375000000034 11.02812500000001  C 4.032812500000002 10.924062500000009  4.195000000000004 10.900937500000008  4.326875000000005 10.970937500000009  C 4.551562500000006 11.083750000000009  4.783750000000005 11.18031250000001  5.022187500000005 11.260000000000009  C 5.1640625000000036 11.304062500000008  5.261562500000004 11.43406250000001  5.264062500000005 11.58281250000001  L 5.264062500000005 11.623750000000008  C 5.265000000000004 12.210625000000007  5.740625000000005 12.686250000000008  6.327500000000004 12.687187500000007  L 6.9509375000000055 12.687187500000007  C 7.537812500000005 12.686250000000008  8.013437500000006 12.210625000000007  8.014375000000005 11.623750000000008  L 8.014375000000005 11.58281250000001  C 8.016562500000006 11.43437500000001  8.113750000000003 11.304375000000011  8.255312500000006 11.260000000000009  C 8.49409848689994 11.180657297051745  8.726795971635916 11.08404815280543  8.951562500000005 10.970937500000009  C 9.083437500000006 10.901562500000008  9.245000000000005 10.924687500000008  9.352500000000006 11.02812500000001  L 9.381562500000005 11.057187500000008  C 9.580937500000005 11.256875000000008  9.851562500000004 11.36875000000001  10.133750000000006 11.36875000000001  C 10.415937500000009 11.36875000000001  10.686562500000008 11.256562500000008  10.885937500000008 11.057187500000008  L 11.326875000000008 10.616250000000008  C 11.526562500000008 10.416875000000008  11.638437500000009 10.146250000000009  11.638437500000009 9.864062500000006  C 11.638437500000009 9.581875000000004  11.526250000000008 9.311250000000005  11.326875000000008 9.111875000000005  L 11.297812500000013 9.082812500000006  C 11.193725080432664 8.97575637326866  11.170619218240514 8.81376281483955  11.240625000000009 8.681875000000005  C 11.353437500000009 8.457187500000003  11.45000000000001 8.225000000000005  11.529687500000009 7.986562500000005  C 11.573750000000008 7.844687500000006  11.70375000000001 7.747187500000006  11.85250000000001 7.744687500000004  L 11.893437500000008 7.744687500000004  C 12.480312500000007 7.743750000000006  12.955937500000008 7.268125000000006  12.956875000000007 6.681250000000005  L 12.956875000000007 6.057812500000004  Z M 12.231562499999995 6.057812499999997  L 12.2296875 6.681249999999998  C 12.2296875 6.770312499999999  12.194375 6.8559375  12.131250000000005 6.919062499999999  C 12.068165505052587 6.9821070553803075  11.982624209987627 7.01751508158985  11.893437500000001 7.017499999999998  L 11.852500000000003 7.017499999999998  C 11.390312500000004 7.019062499999996  10.981250000000003 7.317499999999999  10.839062500000004 7.757499999999997  C 10.771976334843771 7.962282853508108  10.689986316347817 8.161878936751116  10.593750000000004 8.354687499999997  C 10.381562500000005 8.765937499999996  10.458125000000003 9.267187499999999  10.783750000000005 9.596249999999998  L 10.812812500000003 9.626249999999999  C 10.876250000000002 9.689062499999999  10.911875000000002 9.774687499999999  10.911875000000002 9.8640625  C 10.911875000000002 9.9534375  10.876250000000002 10.0390625  10.812812500000003 10.101875  L 10.371875000000003 10.5428125  C 10.239062500000003 10.670000000000002  10.029375000000002 10.670000000000002  9.896562500000002 10.5428125  L 9.867500000000003 10.513750000000002  C 9.537812500000005 10.188437500000003  9.036562500000002 10.111875000000001  8.625000000000004 10.32375  C 8.432187500000005 10.420625000000001  8.232812500000005 10.5034375  8.027812500000003 10.5709375  C 7.587812500000002 10.713124999999998  7.289375000000003 11.122187499999999  7.287812500000006 11.584374999999998  L 7.287812500000006 11.625312499999996  C 7.287812500000006 11.714687499999997  7.252500000000005 11.799999999999997  7.189375000000009 11.863124999999997  C 7.12629050505259 11.926169555380302  7.040749209987631 11.96157758158985  6.951562500000005 11.961562499999996  L 6.328125 11.961562499999996  C 6.23875 11.961562499999996  6.153437499999999 11.926249999999996  6.090312500000003 11.863125  C 6.027218395009552 11.800073604733601  5.99180147089254 11.714510813454101  5.991875 11.625312499999996  L 5.991875 11.583437499999995  C 5.990000000000002 11.121562499999996  5.6915625 10.713124999999994  5.251875000000002 10.570937499999996  C 5.047187500000003 10.503124999999997  4.8475 10.420624999999998  4.654687500000001 10.323749999999997  C 4.50226465571086 10.246337576226345  4.333766720828276 10.205872379666232  4.162812499999998 10.205624999999994  C 3.8818369122364587 10.204776596296249  3.612040317780043 10.315618030518756  3.412812500000001 10.513749999999998  L 3.3837500000000027 10.542812499999997  C 3.2509375000000027 10.669999999999998  3.0412500000000016 10.669999999999998  2.9084375000000016 10.542812499999997  L 2.467500000000001 10.101874999999996  C 2.404062500000002 10.039062499999996  2.3684375000000024 9.953437499999996  2.3684375000000024 9.864062499999996  C 2.3684375000000024 9.774687499999995  2.404062500000002 9.689062499999995  2.467500000000001 9.626249999999995  L 2.4965624999999996 9.596249999999994  C 2.8218749999999986 9.266874999999995  2.8981250000000003 8.765624999999993  2.685624999999998 8.354687499999994  C 2.5887499999999974 8.161874999999995  2.505937499999998 7.962499999999995  2.438437499999999 7.757499999999993  C 2.2962500000000006 7.317499999999992  1.8871874999999996 7.019062499999993  1.4250000000000007 7.017499999999995  L 1.3859375000000007 7.017499999999995  C 1.296875 7.017499999999995  1.2112499999999997 6.982187499999995  1.1481250000000003 6.9190624999999955  C 1.0850804446196953 6.855978005052581  1.0496724184101502 6.770436709987621  1.049687500000001 6.681249999999995  L 1.049687500000001 6.057812499999994  C 1.049687500000001 5.968437499999993  1.0850000000000009 5.883124999999993  1.1481250000000003 5.819999999999993  C 1.2112499999999997 5.756874999999994  1.296875 5.721562499999994  1.3859375000000007 5.721562499999994  L 1.426874999999999 5.721562499999994  C 1.8890624999999979 5.719999999999995  2.298124999999999 5.421562499999993  2.4403124999999974 4.9815624999999955  C 2.5074999999999967 4.776874999999997  2.589374999999997 4.577187499999994  2.685624999999998 4.384374999999995  C 2.897812499999997 3.973124999999996  2.821249999999999 3.4718749999999936  2.495624999999997 3.1424999999999947  L 2.4665624999999984 3.11249999999999  C 2.403121810280595 3.049630101001984  2.367453425416617 2.964003473615584  2.3674999999999997 2.874687499999993  C 2.3674999999999997 2.7853124999999928  2.4031249999999993 2.6996874999999925  2.4665624999999984 2.6368749999999928  L 2.907499999999999 2.1959374999999923  C 3.0387500000000003 2.064687499999991  3.251562499999999 2.064687499999991  3.3828125 2.1959374999999923  L 3.4118749999999984 2.2249999999999908  C 3.7415624999999966 2.5503124999999898  4.242812499999999 2.627187499999991  4.654687499999998 2.414999999999992  C 4.847499999999997 2.3181249999999913  5.0468749999999964 2.235312499999992  5.251874999999998 2.167812499999993  C 5.691875 2.0256249999999945  5.990312499999998 1.6165624999999935  5.991874999999997 1.1543749999999946  L 5.991874999999997 1.1153124999999946  C 5.991874999999997 0.9296874999999929  6.142499999999998 0.7790624999999949  6.3281249999999964 0.7790624999999949  L 6.951562499999997 0.7790624999999949  C 7.040624999999999 0.7790624999999949  7.126249999999999 0.8143749999999947  7.189374999999999 0.8774999999999941  C 7.252499999999998 0.9406249999999936  7.2878124999999985 1.026249999999994  7.2878124999999985 1.1153124999999946  L 7.2878124999999985 1.15625  C 7.289374999999995 1.6184374999999989  7.587812499999998 2.0275  8.027812499999996 2.169687499999995  C 8.232595353508103 2.236773665156228  8.432191436751122 2.3187636836521826  8.624999999999996 2.414999999999999  C 9.036430651473328 2.626607773754607  9.537245420098618 2.549966601007519  9.866562499999997 2.224999999999998  L 9.895624999999995 2.1959374999999994  C 10.027187499999997 2.065312500000001  10.239374999999995 2.065312500000001  10.370937499999997 2.1959374999999994  L 10.811874999999997 2.636875  C 10.875312499999996 2.6996874999999996  10.910937499999996 2.7853125  10.910937499999996 2.8746875000000003  C 10.910937499999996 2.9640625000000007  10.875312499999996 3.049687500000001  10.811874999999997 3.1125000000000007  L 10.782812499999999 3.142500000000002  C 10.457536781725683 3.4718514881212172  10.38121960043992 3.9731481466825613  10.59375 4.384374999999999  C 10.690312500000001 4.577187499999997  10.773125 4.776874999999997  10.840937499999999 4.981562499999999  C 10.983124999999998 5.4215625  11.392187499999999 5.719999999999999  11.854374999999997 5.721562499999997  L 11.895312499999996 5.721562499999997  C 12.080937499999997 5.721562499999997  12.231562499999995 5.872187499999999  12.231562499999995 6.057812499999997  Z " fill-rule="nonzero" fill="rgba(15, 198, 194, 1)" stroke="none" transform="matrix(1 0 0 1 1068 885 )" class="fill" />
    <path d="M 12.956875000000007 6.057812500000004  C 12.955937500000008 5.470625000000005  12.480312500000007 4.995312500000004  11.893437500000001 4.994062499999998  L 11.852500000000003 4.994062499999998  C 11.704062500000003 4.991562499999997  11.573750000000004 4.894062499999997  11.529687500000001 4.752187499999998  C 11.450071175978053 4.513807433251763  11.35346945259549 4.2814411256558635  11.240625000000001 4.056874999999998  C 11.170625000000001 3.9249999999999967  11.193750000000001 3.7631249999999987  11.297812500000003 3.6559374999999967  L 11.326875000000005 3.6268749999999983  C 11.526471392152253 3.427452193128353  11.63856265355464 3.156836680394605  11.638437500000002 2.8746874999999967  C 11.638437500000002 2.5924999999999976  11.526250000000001 2.321874999999995  11.326875000000001 2.122499999999995  L 10.8859375 1.6815624999999945  C 10.470000000000002 1.2668749999999953  9.7975 1.2668749999999953  9.381562500000001 1.6815624999999945  L 9.352500000000003 1.7106249999999934  C 9.245443873268648 1.8147124195673463  9.08345031483955 1.8378182817594926  8.951562500000001 1.7678124999999945  C 8.726875 1.6546874999999945  8.494687500000001 1.5581249999999933  8.256250000000005 1.4787499999999945  C 8.114346818497154 1.4347070596338298  8.01678522201751 1.3044988824200416  8.014375000000001 1.1559374999999932  L 8.014375000000001 1.1149999999999949  C 8.013437500000002 0.5281249999999957  7.537812500000001 0.052499999999994884  6.950937500000003 0.05156249999999574  L 6.327500000000001 0.05156249999999574  C 5.740625000000001 0.052499999999994884  5.265000000000001 0.5281249999999957  5.264062500000001 1.1149999999999949  L 5.264062500000001 1.15625  C 5.2615625 1.3046875  5.1640625 1.4349999999999987  5.022187500000001 1.4790625000000013  C 4.783750000000001 1.5584375000000001  4.55125 1.6553125000000006  4.326875000000001 1.7681250000000013  C 4.195 1.8381250000000016  4.033125000000002 1.8150000000000015  3.9259375 1.7109375  L 3.8968750000000014 1.6818750000000016  C 3.480937500000003 1.2671875000000021  2.8081250000000004 1.2671875000000021  2.392500000000002 1.6818750000000016  L 1.9515625000000014 2.122812500000002  C 1.7519661078477462 2.3222353068716544  1.6398748464453696 2.592850819605392  1.6400000000000006 2.8750000000000036  C 1.6400000000000006 3.1571875000000027  1.7521875000000013 3.427812500000005  1.9515625000000014 3.627187500000005  L 1.9806249999999999 3.6562500000000036  C 2.084687500000001 3.7631250000000023  2.1078125000000014 3.9253125000000044  2.037812500000001 4.057187500000001  C 1.9250224681076098 4.281778568312571  1.8284223882613164 4.514140922537436  1.748750000000005 4.752500000000008  C 1.7047070596338332 4.894403181502849  1.5744988824200448 4.991964777982496  1.4259374999999999 4.994375000000005  L 1.3850000000000016 4.994375000000005  C 0.7981250000000024 4.995312500000004  0.32250000000000156 5.470937500000005  0.3215625000000024 6.057812500000004  L 0.3215625000000024 6.681250000000005  C 0.32250000000000156 7.268125000000006  0.7981250000000024 7.743750000000006  1.3850000000000016 7.744687500000004  L 1.4259374999999999 7.744687500000004  C 1.5743749999999999 7.747187500000006  1.7046874999999986 7.844687500000006  1.7487500000000011 7.986562500000002  C 1.8283663240219532 8.22494256674825  1.924968047404512 8.457308874344132  2.037812500000001 8.681875000000005  C 2.1078125000000014 8.813750000000006  2.084687500000001 8.975625000000004  1.9806249999999999 9.082812500000006  L 1.9515625000000014 9.111875000000005  C 1.7518750000000018 9.311250000000005  1.6400000000000006 9.581875000000004  1.6400000000000006 9.864062500000006  C 1.6400000000000006 10.146250000000009  1.7521875000000013 10.416875000000008  1.9515625000000014 10.616250000000008  L 2.392500000000002 11.057187500000008  C 2.5918750000000017 11.256875000000008  2.8625000000000007 11.36875000000001  3.1446875000000034 11.36875000000001  C 3.4268750000000066 11.36875000000001  3.697500000000005 11.256562500000008  3.896875000000005 11.057187500000008  L 3.9259375000000034 11.02812500000001  C 4.032812500000002 10.924062500000009  4.195000000000004 10.900937500000008  4.326875000000005 10.970937500000009  C 4.551562500000006 11.083750000000009  4.783750000000005 11.18031250000001  5.022187500000005 11.260000000000009  C 5.1640625000000036 11.304062500000008  5.261562500000004 11.43406250000001  5.264062500000005 11.58281250000001  L 5.264062500000005 11.623750000000008  C 5.265000000000004 12.210625000000007  5.740625000000005 12.686250000000008  6.327500000000004 12.687187500000007  L 6.9509375000000055 12.687187500000007  C 7.537812500000005 12.686250000000008  8.013437500000006 12.210625000000007  8.014375000000005 11.623750000000008  L 8.014375000000005 11.58281250000001  C 8.016562500000006 11.43437500000001  8.113750000000003 11.304375000000011  8.255312500000006 11.260000000000009  C 8.49409848689994 11.180657297051745  8.726795971635916 11.08404815280543  8.951562500000005 10.970937500000009  C 9.083437500000006 10.901562500000008  9.245000000000005 10.924687500000008  9.352500000000006 11.02812500000001  L 9.381562500000005 11.057187500000008  C 9.580937500000005 11.256875000000008  9.851562500000004 11.36875000000001  10.133750000000006 11.36875000000001  C 10.415937500000009 11.36875000000001  10.686562500000008 11.256562500000008  10.885937500000008 11.057187500000008  L 11.326875000000008 10.616250000000008  C 11.526562500000008 10.416875000000008  11.638437500000009 10.146250000000009  11.638437500000009 9.864062500000006  C 11.638437500000009 9.581875000000004  11.526250000000008 9.311250000000005  11.326875000000008 9.111875000000005  L 11.297812500000013 9.082812500000006  C 11.193725080432664 8.97575637326866  11.170619218240514 8.81376281483955  11.240625000000009 8.681875000000005  C 11.353437500000009 8.457187500000003  11.45000000000001 8.225000000000005  11.529687500000009 7.986562500000005  C 11.573750000000008 7.844687500000006  11.70375000000001 7.747187500000006  11.85250000000001 7.744687500000004  L 11.893437500000008 7.744687500000004  C 12.480312500000007 7.743750000000006  12.955937500000008 7.268125000000006  12.956875000000007 6.681250000000005  L 12.956875000000007 6.057812500000004  Z " stroke-width="0" stroke-dasharray="0" stroke="rgba(255, 255, 255, 0)" fill="none" transform="matrix(1 0 0 1 1068 885 )" class="stroke" mask="url(#Clip1526)" />
    <path d="M 12.231562499999995 6.057812499999997  L 12.2296875 6.681249999999998  C 12.2296875 6.770312499999999  12.194375 6.8559375  12.131250000000005 6.919062499999999  C 12.068165505052587 6.9821070553803075  11.982624209987627 7.01751508158985  11.893437500000001 7.017499999999998  L 11.852500000000003 7.017499999999998  C 11.390312500000004 7.019062499999996  10.981250000000003 7.317499999999999  10.839062500000004 7.757499999999997  C 10.771976334843771 7.962282853508108  10.689986316347817 8.161878936751116  10.593750000000004 8.354687499999997  C 10.381562500000005 8.765937499999996  10.458125000000003 9.267187499999999  10.783750000000005 9.596249999999998  L 10.812812500000003 9.626249999999999  C 10.876250000000002 9.689062499999999  10.911875000000002 9.774687499999999  10.911875000000002 9.8640625  C 10.911875000000002 9.9534375  10.876250000000002 10.0390625  10.812812500000003 10.101875  L 10.371875000000003 10.5428125  C 10.239062500000003 10.670000000000002  10.029375000000002 10.670000000000002  9.896562500000002 10.5428125  L 9.867500000000003 10.513750000000002  C 9.537812500000005 10.188437500000003  9.036562500000002 10.111875000000001  8.625000000000004 10.32375  C 8.432187500000005 10.420625000000001  8.232812500000005 10.5034375  8.027812500000003 10.5709375  C 7.587812500000002 10.713124999999998  7.289375000000003 11.122187499999999  7.287812500000006 11.584374999999998  L 7.287812500000006 11.625312499999996  C 7.287812500000006 11.714687499999997  7.252500000000005 11.799999999999997  7.189375000000009 11.863124999999997  C 7.12629050505259 11.926169555380302  7.040749209987631 11.96157758158985  6.951562500000005 11.961562499999996  L 6.328125 11.961562499999996  C 6.23875 11.961562499999996  6.153437499999999 11.926249999999996  6.090312500000003 11.863125  C 6.027218395009552 11.800073604733601  5.99180147089254 11.714510813454101  5.991875 11.625312499999996  L 5.991875 11.583437499999995  C 5.990000000000002 11.121562499999996  5.6915625 10.713124999999994  5.251875000000002 10.570937499999996  C 5.047187500000003 10.503124999999997  4.8475 10.420624999999998  4.654687500000001 10.323749999999997  C 4.50226465571086 10.246337576226345  4.333766720828276 10.205872379666232  4.162812499999998 10.205624999999994  C 3.8818369122364587 10.204776596296249  3.612040317780043 10.315618030518756  3.412812500000001 10.513749999999998  L 3.3837500000000027 10.542812499999997  C 3.2509375000000027 10.669999999999998  3.0412500000000016 10.669999999999998  2.9084375000000016 10.542812499999997  L 2.467500000000001 10.101874999999996  C 2.404062500000002 10.039062499999996  2.3684375000000024 9.953437499999996  2.3684375000000024 9.864062499999996  C 2.3684375000000024 9.774687499999995  2.404062500000002 9.689062499999995  2.467500000000001 9.626249999999995  L 2.4965624999999996 9.596249999999994  C 2.8218749999999986 9.266874999999995  2.8981250000000003 8.765624999999993  2.685624999999998 8.354687499999994  C 2.5887499999999974 8.161874999999995  2.505937499999998 7.962499999999995  2.438437499999999 7.757499999999993  C 2.2962500000000006 7.317499999999992  1.8871874999999996 7.019062499999993  1.4250000000000007 7.017499999999995  L 1.3859375000000007 7.017499999999995  C 1.296875 7.017499999999995  1.2112499999999997 6.982187499999995  1.1481250000000003 6.9190624999999955  C 1.0850804446196953 6.855978005052581  1.0496724184101502 6.770436709987621  1.049687500000001 6.681249999999995  L 1.049687500000001 6.057812499999994  C 1.049687500000001 5.968437499999993  1.0850000000000009 5.883124999999993  1.1481250000000003 5.819999999999993  C 1.2112499999999997 5.756874999999994  1.296875 5.721562499999994  1.3859375000000007 5.721562499999994  L 1.426874999999999 5.721562499999994  C 1.8890624999999979 5.719999999999995  2.298124999999999 5.421562499999993  2.4403124999999974 4.9815624999999955  C 2.5074999999999967 4.776874999999997  2.589374999999997 4.577187499999994  2.685624999999998 4.384374999999995  C 2.897812499999997 3.973124999999996  2.821249999999999 3.4718749999999936  2.495624999999997 3.1424999999999947  L 2.4665624999999984 3.11249999999999  C 2.403121810280595 3.049630101001984  2.367453425416617 2.964003473615584  2.3674999999999997 2.874687499999993  C 2.3674999999999997 2.7853124999999928  2.4031249999999993 2.6996874999999925  2.4665624999999984 2.6368749999999928  L 2.907499999999999 2.1959374999999923  C 3.0387500000000003 2.064687499999991  3.251562499999999 2.064687499999991  3.3828125 2.1959374999999923  L 3.4118749999999984 2.2249999999999908  C 3.7415624999999966 2.5503124999999898  4.242812499999999 2.627187499999991  4.654687499999998 2.414999999999992  C 4.847499999999997 2.3181249999999913  5.0468749999999964 2.235312499999992  5.251874999999998 2.167812499999993  C 5.691875 2.0256249999999945  5.990312499999998 1.6165624999999935  5.991874999999997 1.1543749999999946  L 5.991874999999997 1.1153124999999946  C 5.991874999999997 0.9296874999999929  6.142499999999998 0.7790624999999949  6.3281249999999964 0.7790624999999949  L 6.951562499999997 0.7790624999999949  C 7.040624999999999 0.7790624999999949  7.126249999999999 0.8143749999999947  7.189374999999999 0.8774999999999941  C 7.252499999999998 0.9406249999999936  7.2878124999999985 1.026249999999994  7.2878124999999985 1.1153124999999946  L 7.2878124999999985 1.15625  C 7.289374999999995 1.6184374999999989  7.587812499999998 2.0275  8.027812499999996 2.169687499999995  C 8.232595353508103 2.236773665156228  8.432191436751122 2.3187636836521826  8.624999999999996 2.414999999999999  C 9.036430651473328 2.626607773754607  9.537245420098618 2.549966601007519  9.866562499999997 2.224999999999998  L 9.895624999999995 2.1959374999999994  C 10.027187499999997 2.065312500000001  10.239374999999995 2.065312500000001  10.370937499999997 2.1959374999999994  L 10.811874999999997 2.636875  C 10.875312499999996 2.6996874999999996  10.910937499999996 2.7853125  10.910937499999996 2.8746875000000003  C 10.910937499999996 2.9640625000000007  10.875312499999996 3.049687500000001  10.811874999999997 3.1125000000000007  L 10.782812499999999 3.142500000000002  C 10.457536781725683 3.4718514881212172  10.38121960043992 3.9731481466825613  10.59375 4.384374999999999  C 10.690312500000001 4.577187499999997  10.773125 4.776874999999997  10.840937499999999 4.981562499999999  C 10.983124999999998 5.4215625  11.392187499999999 5.719999999999999  11.854374999999997 5.721562499999997  L 11.895312499999996 5.721562499999997  C 12.080937499999997 5.721562499999997  12.231562499999995 5.872187499999999  12.231562499999995 6.057812499999997  Z " stroke-width="0" stroke-dasharray="0" stroke="rgba(255, 255, 255, 0)" fill="none" transform="matrix(1 0 0 1 1068 885 )" class="stroke" mask="url(#Clip1526)" />
  </g>
</svg>