<?xml version="1.0" encoding="utf-8"?>
<svg version="1.1" xmlns:xlink="http://www.w3.org/1999/xlink" width="27px" height="32px" xmlns="http://www.w3.org/2000/svg">
  <defs>
    <pattern id="BGPattern" patternUnits="userSpaceOnUse" alignment="0 0" imageRepeat="None" />
    <mask fill="white" id="Clip1527">
      <path d="M 22.79128137384412 20.57142857142857  L 22.79128137384412 29  L 2.8533685601056806 29  L 2.8533685601056806 20.57142857142857  L 0 20.57142857142857  L 0 32  L 25.644649933949804 32  L 25.644649933949804 20.57142857142857  L 22.79128137384412 20.57142857142857  Z M 19.9557463672391 22.714285714285715  L 5.992073976221929 19.785714285714285  L 6.580581241743725 16.982142857142858  L 20.5442536327609 19.92857142857143  L 19.9557463672391 22.714285714285715  Z M 20.758256274768826 19.142857142857142  L 7.8289299867899595 13.107142857142858  L 9.023778071334213 10.5  L 21.953104359313077 16.55357142857143  L 20.758256274768826 19.142857142857142  Z M 22.36327608982827 15.910714285714285  L 11.413474240422723 6.75  L 13.232496697490092 4.553571428571427  L 24.18229854689564 13.714285714285715  L 22.36327608982827 15.910714285714285  Z M 16.210700132100396 1.7142857142857153  L 18.49339498018494 0  L 27 11.446428571428573  L 24.717305151915458 13.160714285714285  L 16.210700132100396 1.7142857142857153  Z M 19.9557463672391 26  L 5.6889035667107 26  L 5.6889035667107 23  L 19.9557463672391 23  L 19.9557463672391 26  Z " fill-rule="evenodd" />
    </mask>
  </defs>
  <g transform="matrix(1 0 0 1 -1276 -867 )">
    <path d="M 22.79128137384412 20.57142857142857  L 22.79128137384412 29  L 2.8533685601056806 29  L 2.8533685601056806 20.57142857142857  L 0 20.57142857142857  L 0 32  L 25.644649933949804 32  L 25.644649933949804 20.57142857142857  L 22.79128137384412 20.57142857142857  Z M 19.9557463672391 22.714285714285715  L 5.992073976221929 19.785714285714285  L 6.580581241743725 16.982142857142858  L 20.5442536327609 19.92857142857143  L 19.9557463672391 22.714285714285715  Z M 20.758256274768826 19.142857142857142  L 7.8289299867899595 13.107142857142858  L 9.023778071334213 10.5  L 21.953104359313077 16.55357142857143  L 20.758256274768826 19.142857142857142  Z M 22.36327608982827 15.910714285714285  L 11.413474240422723 6.75  L 13.232496697490092 4.553571428571427  L 24.18229854689564 13.714285714285715  L 22.36327608982827 15.910714285714285  Z M 16.210700132100396 1.7142857142857153  L 18.49339498018494 0  L 27 11.446428571428573  L 24.717305151915458 13.160714285714285  L 16.210700132100396 1.7142857142857153  Z M 19.9557463672391 26  L 5.6889035667107 26  L 5.6889035667107 23  L 19.9557463672391 23  L 19.9557463672391 26  Z " fill-rule="nonzero" fill="rgba(255, 125, 0, 1)" stroke="none" transform="matrix(1 0 0 1 1276 867 )" class="fill" />
    <path d="M 22.79128137384412 20.57142857142857  L 22.79128137384412 29  L 2.8533685601056806 29  L 2.8533685601056806 20.57142857142857  L 0 20.57142857142857  L 0 32  L 25.644649933949804 32  L 25.644649933949804 20.57142857142857  L 22.79128137384412 20.57142857142857  Z " stroke-width="0" stroke-dasharray="0" stroke="rgba(255, 255, 255, 0)" fill="none" transform="matrix(1 0 0 1 1276 867 )" class="stroke" mask="url(#Clip1527)" />
    <path d="M 19.9557463672391 22.714285714285715  L 5.992073976221929 19.785714285714285  L 6.580581241743725 16.982142857142858  L 20.5442536327609 19.92857142857143  L 19.9557463672391 22.714285714285715  Z " stroke-width="0" stroke-dasharray="0" stroke="rgba(255, 255, 255, 0)" fill="none" transform="matrix(1 0 0 1 1276 867 )" class="stroke" mask="url(#Clip1527)" />
    <path d="M 20.758256274768826 19.142857142857142  L 7.8289299867899595 13.107142857142858  L 9.023778071334213 10.5  L 21.953104359313077 16.55357142857143  L 20.758256274768826 19.142857142857142  Z " stroke-width="0" stroke-dasharray="0" stroke="rgba(255, 255, 255, 0)" fill="none" transform="matrix(1 0 0 1 1276 867 )" class="stroke" mask="url(#Clip1527)" />
    <path d="M 22.36327608982827 15.910714285714285  L 11.413474240422723 6.75  L 13.232496697490092 4.553571428571427  L 24.18229854689564 13.714285714285715  L 22.36327608982827 15.910714285714285  Z " stroke-width="0" stroke-dasharray="0" stroke="rgba(255, 255, 255, 0)" fill="none" transform="matrix(1 0 0 1 1276 867 )" class="stroke" mask="url(#Clip1527)" />
    <path d="M 16.210700132100396 1.7142857142857153  L 18.49339498018494 0  L 27 11.446428571428573  L 24.717305151915458 13.160714285714285  L 16.210700132100396 1.7142857142857153  Z " stroke-width="0" stroke-dasharray="0" stroke="rgba(255, 255, 255, 0)" fill="none" transform="matrix(1 0 0 1 1276 867 )" class="stroke" mask="url(#Clip1527)" />
    <path d="M 19.9557463672391 26  L 5.6889035667107 26  L 5.6889035667107 23  L 19.9557463672391 23  L 19.9557463672391 26  Z " stroke-width="0" stroke-dasharray="0" stroke="rgba(255, 255, 255, 0)" fill="none" transform="matrix(1 0 0 1 1276 867 )" class="stroke" mask="url(#Clip1527)" />
  </g>
</svg>