<?xml version="1.0" encoding="utf-8"?>
<svg version="1.1" xmlns:xlink="http://www.w3.org/1999/xlink" width="14px" height="14px" xmlns="http://www.w3.org/2000/svg">
  <g transform="matrix(1 0 0 1 -574 -855 )">
    <path d="M 581 855  C 584.92 855  588 858.08  588 862  C 588 865.92  584.92 869  581 869  C 577.08 869  574 865.92  574 862  C 574 858.08  577.08 855  581 855  Z " fill-rule="nonzero" fill="#f3f3f3" stroke="none" />
    <path d="M 581 855.5  C 584.64 855.5  587.5 858.36  587.5 862  C 587.5 865.64  584.64 868.5  581 868.5  C 577.36 868.5  574.5 865.64  574.5 862  C 574.5 858.36  577.36 855.5  581 855.5  Z " stroke-width="1" stroke="#dcdee2" fill="none" />
  </g>
</svg>