<?xml version="1.0" encoding="utf-8"?>
<svg version="1.1" xmlns:xlink="http://www.w3.org/1999/xlink" width="8px" height="8px" xmlns="http://www.w3.org/2000/svg">
  <g transform="matrix(1 0 0 1 -577 -858 )">
    <path d="M 581 858  C 583.24 858  585 859.76  585 862  C 585 864.24  583.24 866  581 866  C 578.76 866  577 864.24  577 862  C 577 859.76  578.76 858  581 858  Z " fill-rule="nonzero" fill="#ffffff" stroke="none" />
    <path d="M 581 858.5  C 582.96 858.5  584.5 860.04  584.5 862  C 584.5 863.96  582.96 865.5  581 865.5  C 579.04 865.5  577.5 863.96  577.5 862  C 577.5 860.04  579.04 858.5  581 858.5  Z " stroke-width="1" stroke="#ffffff" fill="none" />
  </g>
</svg>