<?xml version="1.0" encoding="utf-8"?>
<svg version="1.1" xmlns:xlink="http://www.w3.org/1999/xlink" width="8px" height="8px" xmlns="http://www.w3.org/2000/svg">
  <g transform="matrix(1 0 0 1 -1056 -879 )">
    <path d="M 7.850666666666666 3.9937500000000004  C 7.850666666666666 1.9665625000000002  6.097666666666665 0.323125000000001  3.9353333333333333 0.3231249999999992  C 1.7726666666666668 0.3231249999999992  0.020000000000000757 1.9665624999999984  0.020000000000000757 3.9937499999999986  C 0.020000000000000757 6.020937499999999  1.773000000000002 7.664375  3.9353333333333333 7.664375  C 6.097666666666667 7.664375  7.850666666666666 6.020937499999999  7.850666666666666 3.9937500000000004  Z M 6.5456666666666665 3.9937500000000004  C 6.545333333333334 5.345312499999999  5.376666666666667 6.4409375  3.9353333333333333 6.4409375  C 2.493666666666667 6.4409375  1.325 5.345312499999999  1.325 3.9937500000000004  C 1.325 2.642187500000002  2.493666666666667 1.5465625000000003  3.9353333333333333 1.5465625000000003  C 5.377 1.5465625000000003  6.5456666666666665 2.6421875000000004  6.5456666666666665 3.9937500000000004  Z " fill-rule="nonzero" fill="#0fc6c2" stroke="none" transform="matrix(1 0 0 1 1056 879 )" />
  </g>
</svg>