<?xml version="1.0" encoding="utf-8"?>
<svg version="1.1" xmlns:xlink="http://www.w3.org/1999/xlink" width="8px" height="3px" xmlns="http://www.w3.org/2000/svg">
  <defs>
    <pattern id="BGPattern" patternUnits="userSpaceOnUse" alignment="0 0" imageRepeat="None" />
    <mask fill="white" id="Clip1599">
      <path d="M 7.887186274509787 0.0643636363636162  C 7.831254901960762 0.025261363636396084  7.753823529411761 0.0010636363636464807  7.6682549019608075 0.0010636363636464807  C 7.582686274509797 0.0010636363636464807  7.505264705882354 0.025261363636396084  7.449333333333328 0.06435681818179972  L 4.021411764705903 2.448320454545467  L 0.5934999999999775 0.0643636363636162  C 0.5375686274510088 0.025261363636396084  0.46013725490195156 0.0010636363636464807  0.37456862745099784 0.0010636363636464807  C 0.2890000000000157 0.0010636363636464807  0.21157843137254417 0.025261363636396084  0.1556470588235186 0.06435681818179972  C 0.09940196078431995 0.10326136363636351  0.06461764705883866 0.1571113636363819  0.06461764705883866 0.21662727272729398  C 0.06461764705883866 0.27612272727271403  0.0994117647058772 0.32997954545452757  0.1556274509804041 0.3688772727272749  L 3.802480392156866 2.9050977272727394  C 3.92384313725492 2.989500000000014  4.118980392156885 2.989500000000014  4.240333333333325 2.9050977272727394  L 7.88717647058823 0.36888409090909136  C 8.008539215686284 0.28448181818179563  8.008539215686284 0.1487727272727284  7.88717647058823 0.06437727272724914  Z " fill-rule="evenodd" />
    </mask>
  </defs>
  <g transform="matrix(1 0 0 1 -1468 -70 )">
    <path d="M 7.887186274509787 0.0643636363636162  C 7.831254901960762 0.025261363636396084  7.753823529411761 0.0010636363636464807  7.6682549019608075 0.0010636363636464807  C 7.582686274509797 0.0010636363636464807  7.505264705882354 0.025261363636396084  7.449333333333328 0.06435681818179972  L 4.021411764705903 2.448320454545467  L 0.5934999999999775 0.0643636363636162  C 0.5375686274510088 0.025261363636396084  0.46013725490195156 0.0010636363636464807  0.37456862745099784 0.0010636363636464807  C 0.2890000000000157 0.0010636363636464807  0.21157843137254417 0.025261363636396084  0.1556470588235186 0.06435681818179972  C 0.09940196078431995 0.10326136363636351  0.06461764705883866 0.1571113636363819  0.06461764705883866 0.21662727272729398  C 0.06461764705883866 0.27612272727271403  0.0994117647058772 0.32997954545452757  0.1556274509804041 0.3688772727272749  L 3.802480392156866 2.9050977272727394  C 3.92384313725492 2.989500000000014  4.118980392156885 2.989500000000014  4.240333333333325 2.9050977272727394  L 7.88717647058823 0.36888409090909136  C 8.008539215686284 0.28448181818179563  8.008539215686284 0.1487727272727284  7.88717647058823 0.06437727272724914  Z " fill-rule="nonzero" fill="rgba(255, 255, 255, 1)" stroke="none" transform="matrix(1 0 0 1 1468 70 )" class="fill" />
    <path d="M 7.887186274509787 0.0643636363636162  C 7.831254901960762 0.025261363636396084  7.753823529411761 0.0010636363636464807  7.6682549019608075 0.0010636363636464807  C 7.582686274509797 0.0010636363636464807  7.505264705882354 0.025261363636396084  7.449333333333328 0.06435681818179972  L 4.021411764705903 2.448320454545467  L 0.5934999999999775 0.0643636363636162  C 0.5375686274510088 0.025261363636396084  0.46013725490195156 0.0010636363636464807  0.37456862745099784 0.0010636363636464807  C 0.2890000000000157 0.0010636363636464807  0.21157843137254417 0.025261363636396084  0.1556470588235186 0.06435681818179972  C 0.09940196078431995 0.10326136363636351  0.06461764705883866 0.1571113636363819  0.06461764705883866 0.21662727272729398  C 0.06461764705883866 0.27612272727271403  0.0994117647058772 0.32997954545452757  0.1556274509804041 0.3688772727272749  L 3.802480392156866 2.9050977272727394  C 3.92384313725492 2.989500000000014  4.118980392156885 2.989500000000014  4.240333333333325 2.9050977272727394  L 7.88717647058823 0.36888409090909136  C 8.008539215686284 0.28448181818179563  8.008539215686284 0.1487727272727284  7.88717647058823 0.06437727272724914  Z " stroke-width="0" stroke-dasharray="0" stroke="rgba(255, 255, 255, 0)" fill="none" transform="matrix(1 0 0 1 1468 70 )" class="stroke" mask="url(#Clip1599)" />
  </g>
</svg>