<?xml version="1.0" encoding="utf-8"?>
<svg version="1.1" xmlns:xlink="http://www.w3.org/1999/xlink" width="13px" height="13px" viewBox="217 182  13 13" xmlns="http://www.w3.org/2000/svg">
  <path d="M 223.5 182  C 227.14 182  230 184.86  230 188.5  C 230 192.14  227.14 195  223.5 195  C 219.86 195  217 192.14  217 188.5  C 217 184.86  219.86 182  223.5 182  Z " fill-rule="nonzero" fill="#ffffff" stroke="none" />
  <path d="M 223.5 182.5  C 226.86 182.5  229.5 185.14  229.5 188.5  C 229.5 191.86  226.86 194.5  223.5 194.5  C 220.14 194.5  217.5 191.86  217.5 188.5  C 217.5 185.14  220.14 182.5  223.5 182.5  Z " stroke-width="1" stroke="#aaaaaa" fill="none" />
  <path d="M 223.5 191.75  C 221.68 191.75  220.25 190.32  220.25 188.5  C 220.25 186.68  221.68 185.25  223.5 185.25  C 225.32 185.25  226.75 186.68  226.75 188.5  C 226.75 190.32  225.32 191.75  223.5 191.75  " fill-rule="nonzero" fill="#aaaaaa" stroke="none" />
</svg>