<?xml version="1.0" encoding="utf-8"?>
<svg version="1.1" xmlns:xlink="http://www.w3.org/1999/xlink" width="13px" height="13px" viewBox="139 182  13 13" xmlns="http://www.w3.org/2000/svg">
  <path d="M 145.5 182  C 149.14 182  152 184.86  152 188.5  C 152 192.14  149.14 195  145.5 195  C 141.86 195  139 192.14  139 188.5  C 139 184.86  141.86 182  145.5 182  Z " fill-rule="nonzero" fill="#f0f0f0" stroke="none" />
  <path d="M 145.5 182.5  C 148.86 182.5  151.5 185.14  151.5 188.5  C 151.5 191.86  148.86 194.5  145.5 194.5  C 142.14 194.5  139.5 191.86  139.5 188.5  C 139.5 185.14  142.14 182.5  145.5 182.5  Z " stroke-width="1" stroke="#aaaaaa" fill="none" />
  <path d="M 145.5 191.75  C 143.68 191.75  142.25 190.32  142.25 188.5  C 142.25 186.68  143.68 185.25  145.5 185.25  C 147.32 185.25  148.75 186.68  148.75 188.5  C 148.75 190.32  147.32 191.75  145.5 191.75  " fill-rule="nonzero" fill="#aaaaaa" stroke="none" />
</svg>