<?xml version="1.0" encoding="utf-8"?>
<svg version="1.1" xmlns:xlink="http://www.w3.org/1999/xlink" width="11px" height="11px" xmlns="http://www.w3.org/2000/svg">
  <defs>
    <pattern id="BGPattern" patternUnits="userSpaceOnUse" alignment="0 0" imageRepeat="None" />
    <mask fill="white" id="Clip2056">
      <path d="M 2.1859375000000103 8.81406249999999  C 3.069010416666661 9.696875000000002  4.173697916666672 10.154687499999998  5.5 10.187499999999979  C 6.826562500000011 10.154947916666682  7.931250000000023 9.697135416666685  8.81406249999999 8.81406249999999  C 9.696875000000002 7.930989583333339  10.154687499999998 6.826302083333328  10.187499999999979 5.5  C 10.154947916666682 4.17343749999999  9.697135416666685 3.0687499999999783  8.81406249999999 2.1859375000000103  C 7.930989583333339 1.3031249999999983  6.826302083333328 0.8453125000000017  5.5 0.8125000000000203  C 4.17343749999999 0.8450520833333184  3.0687499999999783 1.3028645833333152  2.1859375000000103 2.1859375000000103  C 1.3031249999999983 3.069010416666661  0.8453125000000017 4.173697916666672  0.8125000000000203 5.5  C 0.8450520833333184 6.826562500000011  1.3028645833333152 7.931250000000023  2.1859375000000103 8.81406249999999  Z M 9.363671874999978 9.363671874999978  C 8.33424479166667 10.39309895833333  7.046354166666678 10.928124999999998  5.5 10.968750000000028  C 3.9536458333333218 10.928124999999998  2.665755208333329 10.39309895833333  1.636328125000022 9.363671874999978  C 0.6069010416666702 8.33424479166667  0.07187500000000163 7.046354166666678  0.03124999999997158 5.5  C 0.07187500000000163 3.9536458333333218  0.6069010416666702 2.665755208333329  1.636328125000022 1.636328125000022  C 2.665755208333329 0.6069010416666702  3.9536458333333218 0.07187500000000163  5.5 0.03124999999997158  C 7.046354166666678 0.07187500000000163  8.33424479166667 0.6069010416666702  9.363671874999978 1.636328125000022  C 10.39309895833333 2.665755208333329  10.928124999999998 3.9536458333333218  10.968750000000028 5.5  C 10.928124999999998 7.046354166666678  10.39309895833333 8.33424479166667  9.363671874999978 9.363671874999978  Z M 4.82851562500001 2.4847656249999983  C 4.901692708333339 2.4115885416666702  4.995312500000024 2.3750000000000284  5.10937500000002 2.3750000000000284  C 5.223437500000017 2.3750000000000284  5.317057291666657 2.4115885416666702  5.390234374999985 2.4847656249999983  C 5.463411458333313 2.557942708333327  5.5 2.6515625000000114  5.5 2.7656250000000084  L 5.5 5.89062499999998  C 5.5 6.004687499999977  5.463411458333313 6.098307291666661  5.390234374999985 6.171484374999989  C 5.317057291666657 6.244661458333362  5.223437500000017 6.2812500000000036  5.10937500000002 6.2812500000000036  C 4.995312500000024 6.2812500000000036  4.901692708333339 6.244661458333362  4.82851562500001 6.171484374999989  C 4.755338541666638 6.098307291666661  4.7187499999999964 6.004687499999977  4.7187499999999964 5.89062499999998  L 4.7187499999999964 2.7656250000000084  C 4.7187499999999964 2.6515625000000114  4.755338541666638 2.557942708333327  4.82851562500001 2.4847656249999983  Z M 4.7187499999999964 5.89062499999998  C 4.7187499999999964 5.630208333333326  4.848958333333322 5.5  5.10937500000002 5.5  L 8.234374999999993 5.5  C 8.49479166666669 5.5  8.624999999999972 5.630208333333326  8.624999999999972 5.89062499999998  C 8.624999999999972 6.151041666666678  8.49479166666669 6.2812500000000036  8.234374999999993 6.2812500000000036  L 5.10937500000002 6.2812500000000036  C 4.848958333333322 6.2812500000000036  4.7187499999999964 6.151041666666678  4.7187499999999964 5.89062499999998  Z " fill-rule="evenodd" />
    </mask>
  </defs>
  <g transform="matrix(1 0 0 1 -101 -9 )">
    <path d="M 2.1859375000000103 8.81406249999999  C 3.069010416666661 9.696875000000002  4.173697916666672 10.154687499999998  5.5 10.187499999999979  C 6.826562500000011 10.154947916666682  7.931250000000023 9.697135416666685  8.81406249999999 8.81406249999999  C 9.696875000000002 7.930989583333339  10.154687499999998 6.826302083333328  10.187499999999979 5.5  C 10.154947916666682 4.17343749999999  9.697135416666685 3.0687499999999783  8.81406249999999 2.1859375000000103  C 7.930989583333339 1.3031249999999983  6.826302083333328 0.8453125000000017  5.5 0.8125000000000203  C 4.17343749999999 0.8450520833333184  3.0687499999999783 1.3028645833333152  2.1859375000000103 2.1859375000000103  C 1.3031249999999983 3.069010416666661  0.8453125000000017 4.173697916666672  0.8125000000000203 5.5  C 0.8450520833333184 6.826562500000011  1.3028645833333152 7.931250000000023  2.1859375000000103 8.81406249999999  Z M 9.363671874999978 9.363671874999978  C 8.33424479166667 10.39309895833333  7.046354166666678 10.928124999999998  5.5 10.968750000000028  C 3.9536458333333218 10.928124999999998  2.665755208333329 10.39309895833333  1.636328125000022 9.363671874999978  C 0.6069010416666702 8.33424479166667  0.07187500000000163 7.046354166666678  0.03124999999997158 5.5  C 0.07187500000000163 3.9536458333333218  0.6069010416666702 2.665755208333329  1.636328125000022 1.636328125000022  C 2.665755208333329 0.6069010416666702  3.9536458333333218 0.07187500000000163  5.5 0.03124999999997158  C 7.046354166666678 0.07187500000000163  8.33424479166667 0.6069010416666702  9.363671874999978 1.636328125000022  C 10.39309895833333 2.665755208333329  10.928124999999998 3.9536458333333218  10.968750000000028 5.5  C 10.928124999999998 7.046354166666678  10.39309895833333 8.33424479166667  9.363671874999978 9.363671874999978  Z M 4.82851562500001 2.4847656249999983  C 4.901692708333339 2.4115885416666702  4.995312500000024 2.3750000000000284  5.10937500000002 2.3750000000000284  C 5.223437500000017 2.3750000000000284  5.317057291666657 2.4115885416666702  5.390234374999985 2.4847656249999983  C 5.463411458333313 2.557942708333327  5.5 2.6515625000000114  5.5 2.7656250000000084  L 5.5 5.89062499999998  C 5.5 6.004687499999977  5.463411458333313 6.098307291666661  5.390234374999985 6.171484374999989  C 5.317057291666657 6.244661458333362  5.223437500000017 6.2812500000000036  5.10937500000002 6.2812500000000036  C 4.995312500000024 6.2812500000000036  4.901692708333339 6.244661458333362  4.82851562500001 6.171484374999989  C 4.755338541666638 6.098307291666661  4.7187499999999964 6.004687499999977  4.7187499999999964 5.89062499999998  L 4.7187499999999964 2.7656250000000084  C 4.7187499999999964 2.6515625000000114  4.755338541666638 2.557942708333327  4.82851562500001 2.4847656249999983  Z M 4.7187499999999964 5.89062499999998  C 4.7187499999999964 5.630208333333326  4.848958333333322 5.5  5.10937500000002 5.5  L 8.234374999999993 5.5  C 8.49479166666669 5.5  8.624999999999972 5.630208333333326  8.624999999999972 5.89062499999998  C 8.624999999999972 6.151041666666678  8.49479166666669 6.2812500000000036  8.234374999999993 6.2812500000000036  L 5.10937500000002 6.2812500000000036  C 4.848958333333322 6.2812500000000036  4.7187499999999964 6.151041666666678  4.7187499999999964 5.89062499999998  Z " fill-rule="nonzero" fill="rgba(192, 196, 204, 1)" stroke="none" transform="matrix(1 0 0 1 101 9 )" class="fill" />
    <path d="M 2.1859375000000103 8.81406249999999  C 3.069010416666661 9.696875000000002  4.173697916666672 10.154687499999998  5.5 10.187499999999979  C 6.826562500000011 10.154947916666682  7.931250000000023 9.697135416666685  8.81406249999999 8.81406249999999  C 9.696875000000002 7.930989583333339  10.154687499999998 6.826302083333328  10.187499999999979 5.5  C 10.154947916666682 4.17343749999999  9.697135416666685 3.0687499999999783  8.81406249999999 2.1859375000000103  C 7.930989583333339 1.3031249999999983  6.826302083333328 0.8453125000000017  5.5 0.8125000000000203  C 4.17343749999999 0.8450520833333184  3.0687499999999783 1.3028645833333152  2.1859375000000103 2.1859375000000103  C 1.3031249999999983 3.069010416666661  0.8453125000000017 4.173697916666672  0.8125000000000203 5.5  C 0.8450520833333184 6.826562500000011  1.3028645833333152 7.931250000000023  2.1859375000000103 8.81406249999999  Z " stroke-width="0" stroke-dasharray="0" stroke="rgba(255, 255, 255, 0)" fill="none" transform="matrix(1 0 0 1 101 9 )" class="stroke" mask="url(#Clip2056)" />
    <path d="M 9.363671874999978 9.363671874999978  C 8.33424479166667 10.39309895833333  7.046354166666678 10.928124999999998  5.5 10.968750000000028  C 3.9536458333333218 10.928124999999998  2.665755208333329 10.39309895833333  1.636328125000022 9.363671874999978  C 0.6069010416666702 8.33424479166667  0.07187500000000163 7.046354166666678  0.03124999999997158 5.5  C 0.07187500000000163 3.9536458333333218  0.6069010416666702 2.665755208333329  1.636328125000022 1.636328125000022  C 2.665755208333329 0.6069010416666702  3.9536458333333218 0.07187500000000163  5.5 0.03124999999997158  C 7.046354166666678 0.07187500000000163  8.33424479166667 0.6069010416666702  9.363671874999978 1.636328125000022  C 10.39309895833333 2.665755208333329  10.928124999999998 3.9536458333333218  10.968750000000028 5.5  C 10.928124999999998 7.046354166666678  10.39309895833333 8.33424479166667  9.363671874999978 9.363671874999978  Z " stroke-width="0" stroke-dasharray="0" stroke="rgba(255, 255, 255, 0)" fill="none" transform="matrix(1 0 0 1 101 9 )" class="stroke" mask="url(#Clip2056)" />
    <path d="M 4.82851562500001 2.4847656249999983  C 4.901692708333339 2.4115885416666702  4.995312500000024 2.3750000000000284  5.10937500000002 2.3750000000000284  C 5.223437500000017 2.3750000000000284  5.317057291666657 2.4115885416666702  5.390234374999985 2.4847656249999983  C 5.463411458333313 2.557942708333327  5.5 2.6515625000000114  5.5 2.7656250000000084  L 5.5 5.89062499999998  C 5.5 6.004687499999977  5.463411458333313 6.098307291666661  5.390234374999985 6.171484374999989  C 5.317057291666657 6.244661458333362  5.223437500000017 6.2812500000000036  5.10937500000002 6.2812500000000036  C 4.995312500000024 6.2812500000000036  4.901692708333339 6.244661458333362  4.82851562500001 6.171484374999989  C 4.755338541666638 6.098307291666661  4.7187499999999964 6.004687499999977  4.7187499999999964 5.89062499999998  L 4.7187499999999964 2.7656250000000084  C 4.7187499999999964 2.6515625000000114  4.755338541666638 2.557942708333327  4.82851562500001 2.4847656249999983  Z " stroke-width="0" stroke-dasharray="0" stroke="rgba(255, 255, 255, 0)" fill="none" transform="matrix(1 0 0 1 101 9 )" class="stroke" mask="url(#Clip2056)" />
    <path d="M 4.7187499999999964 5.89062499999998  C 4.7187499999999964 5.630208333333326  4.848958333333322 5.5  5.10937500000002 5.5  L 8.234374999999993 5.5  C 8.49479166666669 5.5  8.624999999999972 5.630208333333326  8.624999999999972 5.89062499999998  C 8.624999999999972 6.151041666666678  8.49479166666669 6.2812500000000036  8.234374999999993 6.2812500000000036  L 5.10937500000002 6.2812500000000036  C 4.848958333333322 6.2812500000000036  4.7187499999999964 6.151041666666678  4.7187499999999964 5.89062499999998  Z " stroke-width="0" stroke-dasharray="0" stroke="rgba(255, 255, 255, 0)" fill="none" transform="matrix(1 0 0 1 101 9 )" class="stroke" mask="url(#Clip2056)" />
  </g>
</svg>