<?xml version="1.0" encoding="utf-8"?>
<svg version="1.1" xmlns:xlink="http://www.w3.org/1999/xlink" width="7px" height="8px" xmlns="http://www.w3.org/2000/svg">
  <defs>
    <pattern id="BGPattern" patternUnits="userSpaceOnUse" alignment="0 0" imageRepeat="None" />
    <mask fill="white" id="Clip1748">
      <path d="M 2.8753424657534197 0.11506849315065892  C 2.939497716894948 0.05799086757991745  3.0143835616438537 0.02945205479454671  3.1000000000000227 0.02945205479454671  C 3.185616438356192 0.02945205479454671  3.2605022831049837 0.05799086757991745  3.324657534246626 0.11506849315065892  L 6.867123287671234 3.7643835616438537  C 6.931278538812762 3.828538812785382  6.96335616438364 3.907077625570764  6.96335616438364 4  C 6.96335616438364 4.092922374429236  6.931278538812762 4.171461187214618  6.867123287671234 4.235616438356146  L 3.324657534246626 7.884931506849341  C 3.2605022831049837 7.9420091324200826  3.185616438356192 7.970547945205453  3.1000000000000227 7.970547945205453  C 3.0143835616438537 7.970547945205453  2.939497716894948 7.938470319634689  2.8753424657534197 7.874315068493161  C 2.8111872146118912 7.810159817351575  2.779109589041127 7.735273972602727  2.779109589041127 7.649657534246558  C 2.779109589041127 7.5640410958903885  2.8111872146118912 7.48915525114154  2.8753424657534197 7.425000000000011  L 6.214383561643899 4.00034246575342  L 2.8753424657534197 0.575684931506828  C 2.8111872146118912 0.5115296803652996  2.779109589041127 0.4366438356164508  2.779109589041127 0.35102739726028176  C 2.779109589041127 0.2654109589041127  2.8111872146118912 0.1868721461187306  2.8753424657534197 0.11541095890413544  Z M 0.13561643835612358 0.11506849315065892  C 0.1997716894977657 0.05799086757991745  0.2746575342465576 0.02945205479454671  0.36027397260272664 0.02945205479454671  C 0.4458904109588957 0.02945205479454671  0.5207762557078013 0.05799086757991745  0.5849315068493297 0.11506849315065892  L 4.127397260273938 3.7643835616438537  C 4.19155251141558 3.828538812785382  4.223630136986344 3.907077625570764  4.223630136986344 4  C 4.223630136986344 4.092922374429236  4.19155251141558 4.171461187214618  4.127397260273938 4.235616438356146  L 0.5849315068493297 7.884931506849341  C 0.5207762557078013 7.9420091324200826  0.4458904109588957 7.970547945205453  0.36027397260272664 7.970547945205453  C 0.2746575342465576 7.970547945205453  0.1997716894977657 7.938470319634689  0.13561643835612358 7.874315068493161  C 0.07146118721459516 7.810159817351575  0.039383561643830944 7.735273972602727  0.039383561643830944 7.649657534246558  C 0.039383561643830944 7.5640410958903885  0.07146118721459516 7.48915525114154  0.13561643835612358 7.425000000000011  L 3.474657534246603 4.00034246575342  L 0.13561643835612358 0.575684931506828  C 0.07146118721459516 0.5115296803652996  0.039383561643830944 0.4366438356164508  0.039383561643830944 0.35102739726028176  C 0.039383561643830944 0.2654109589041127  0.07146118721459516 0.1868721461187306  0.13561643835612358 0.11541095890413544  Z " fill-rule="evenodd" />
    </mask>
  </defs>
  <g transform="matrix(1 0 0 1 -295 -71 )">
    <path d="M 2.8753424657534197 0.11506849315065892  C 2.939497716894948 0.05799086757991745  3.0143835616438537 0.02945205479454671  3.1000000000000227 0.02945205479454671  C 3.185616438356192 0.02945205479454671  3.2605022831049837 0.05799086757991745  3.324657534246626 0.11506849315065892  L 6.867123287671234 3.7643835616438537  C 6.931278538812762 3.828538812785382  6.96335616438364 3.907077625570764  6.96335616438364 4  C 6.96335616438364 4.092922374429236  6.931278538812762 4.171461187214618  6.867123287671234 4.235616438356146  L 3.324657534246626 7.884931506849341  C 3.2605022831049837 7.9420091324200826  3.185616438356192 7.970547945205453  3.1000000000000227 7.970547945205453  C 3.0143835616438537 7.970547945205453  2.939497716894948 7.938470319634689  2.8753424657534197 7.874315068493161  C 2.8111872146118912 7.810159817351575  2.779109589041127 7.735273972602727  2.779109589041127 7.649657534246558  C 2.779109589041127 7.5640410958903885  2.8111872146118912 7.48915525114154  2.8753424657534197 7.425000000000011  L 6.214383561643899 4.00034246575342  L 2.8753424657534197 0.575684931506828  C 2.8111872146118912 0.5115296803652996  2.779109589041127 0.4366438356164508  2.779109589041127 0.35102739726028176  C 2.779109589041127 0.2654109589041127  2.8111872146118912 0.1868721461187306  2.8753424657534197 0.11541095890413544  Z M 0.13561643835612358 0.11506849315065892  C 0.1997716894977657 0.05799086757991745  0.2746575342465576 0.02945205479454671  0.36027397260272664 0.02945205479454671  C 0.4458904109588957 0.02945205479454671  0.5207762557078013 0.05799086757991745  0.5849315068493297 0.11506849315065892  L 4.127397260273938 3.7643835616438537  C 4.19155251141558 3.828538812785382  4.223630136986344 3.907077625570764  4.223630136986344 4  C 4.223630136986344 4.092922374429236  4.19155251141558 4.171461187214618  4.127397260273938 4.235616438356146  L 0.5849315068493297 7.884931506849341  C 0.5207762557078013 7.9420091324200826  0.4458904109588957 7.970547945205453  0.36027397260272664 7.970547945205453  C 0.2746575342465576 7.970547945205453  0.1997716894977657 7.938470319634689  0.13561643835612358 7.874315068493161  C 0.07146118721459516 7.810159817351575  0.039383561643830944 7.735273972602727  0.039383561643830944 7.649657534246558  C 0.039383561643830944 7.5640410958903885  0.07146118721459516 7.48915525114154  0.13561643835612358 7.425000000000011  L 3.474657534246603 4.00034246575342  L 0.13561643835612358 0.575684931506828  C 0.07146118721459516 0.5115296803652996  0.039383561643830944 0.4366438356164508  0.039383561643830944 0.35102739726028176  C 0.039383561643830944 0.2654109589041127  0.07146118721459516 0.1868721461187306  0.13561643835612358 0.11541095890413544  Z " fill-rule="nonzero" fill="rgba(96, 98, 102, 1)" stroke="none" transform="matrix(1 0 0 1 295 71 )" class="fill" />
    <path d="M 2.8753424657534197 0.11506849315065892  C 2.939497716894948 0.05799086757991745  3.0143835616438537 0.02945205479454671  3.1000000000000227 0.02945205479454671  C 3.185616438356192 0.02945205479454671  3.2605022831049837 0.05799086757991745  3.324657534246626 0.11506849315065892  L 6.867123287671234 3.7643835616438537  C 6.931278538812762 3.828538812785382  6.96335616438364 3.907077625570764  6.96335616438364 4  C 6.96335616438364 4.092922374429236  6.931278538812762 4.171461187214618  6.867123287671234 4.235616438356146  L 3.324657534246626 7.884931506849341  C 3.2605022831049837 7.9420091324200826  3.185616438356192 7.970547945205453  3.1000000000000227 7.970547945205453  C 3.0143835616438537 7.970547945205453  2.939497716894948 7.938470319634689  2.8753424657534197 7.874315068493161  C 2.8111872146118912 7.810159817351575  2.779109589041127 7.735273972602727  2.779109589041127 7.649657534246558  C 2.779109589041127 7.5640410958903885  2.8111872146118912 7.48915525114154  2.8753424657534197 7.425000000000011  L 6.214383561643899 4.00034246575342  L 2.8753424657534197 0.575684931506828  C 2.8111872146118912 0.5115296803652996  2.779109589041127 0.4366438356164508  2.779109589041127 0.35102739726028176  C 2.779109589041127 0.2654109589041127  2.8111872146118912 0.1868721461187306  2.8753424657534197 0.11541095890413544  Z " stroke-width="0" stroke-dasharray="0" stroke="rgba(255, 255, 255, 0)" fill="none" transform="matrix(1 0 0 1 295 71 )" class="stroke" mask="url(#Clip1748)" />
    <path d="M 0.13561643835612358 0.11506849315065892  C 0.1997716894977657 0.05799086757991745  0.2746575342465576 0.02945205479454671  0.36027397260272664 0.02945205479454671  C 0.4458904109588957 0.02945205479454671  0.5207762557078013 0.05799086757991745  0.5849315068493297 0.11506849315065892  L 4.127397260273938 3.7643835616438537  C 4.19155251141558 3.828538812785382  4.223630136986344 3.907077625570764  4.223630136986344 4  C 4.223630136986344 4.092922374429236  4.19155251141558 4.171461187214618  4.127397260273938 4.235616438356146  L 0.5849315068493297 7.884931506849341  C 0.5207762557078013 7.9420091324200826  0.4458904109588957 7.970547945205453  0.36027397260272664 7.970547945205453  C 0.2746575342465576 7.970547945205453  0.1997716894977657 7.938470319634689  0.13561643835612358 7.874315068493161  C 0.07146118721459516 7.810159817351575  0.039383561643830944 7.735273972602727  0.039383561643830944 7.649657534246558  C 0.039383561643830944 7.5640410958903885  0.07146118721459516 7.48915525114154  0.13561643835612358 7.425000000000011  L 3.474657534246603 4.00034246575342  L 0.13561643835612358 0.575684931506828  C 0.07146118721459516 0.5115296803652996  0.039383561643830944 0.4366438356164508  0.039383561643830944 0.35102739726028176  C 0.039383561643830944 0.2654109589041127  0.07146118721459516 0.1868721461187306  0.13561643835612358 0.11541095890413544  Z " stroke-width="0" stroke-dasharray="0" stroke="rgba(255, 255, 255, 0)" fill="none" transform="matrix(1 0 0 1 295 71 )" class="stroke" mask="url(#Clip1748)" />
  </g>
</svg>