<?xml version="1.0" encoding="utf-8"?>
<svg version="1.1" xmlns:xlink="http://www.w3.org/1999/xlink" width="5px" height="8px" xmlns="http://www.w3.org/2000/svg">
  <defs>
    <pattern id="BGPattern" patternUnits="userSpaceOnUse" alignment="0 0" imageRepeat="None" />
    <mask fill="white" id="Clip1559">
      <path d="M 3.668150684931504 0.11506849315068735  L 0.12568493150683935 3.7643835616438395  C 0.0615296803652825 3.828538812785382  0.02945205479451829 3.9052511415525117  0.02945205479451829 3.9945205479452  C 0.02945205479451829 4.083789954337902  0.0615296803652825 4.164041095890411  0.12568493150683935 4.235273972602741  L 3.668150684931504 7.884589041095893  C 3.732305936073061 7.941666666666663  3.80719178082191 7.970205479452062  3.892808219178079 7.970205479452062  C 3.978424657534248 7.970205479452062  4.053310502283097 7.938127853881284  4.1174657534246535 7.873972602739727  C 4.18162100456621 7.809817351598184  4.2136986301369745 7.734931506849321  4.2136986301369745 7.649315068493152  C 4.2136986301369745 7.563698630136983  4.18162100456621 7.488812785388134  4.1174657534246535 7.4246575342465775  L 0.7784246575342308 4  L 4.1174657534246535 0.5753424657534225  C 4.18162100456621 0.5111872146118799  4.2136986301369745 0.43630136986301693  4.2136986301369745 0.3506849315068479  C 4.2136986301369745 0.26506849315069303  4.18162100456621 0.19018264840183008  4.1174657534246535 0.12602739726027323  C 4.053310502283097 0.0618721461187306  3.978424657534248 0.029794520547952175  3.892808219178079 0.029794520547952175  C 3.80719178082191 0.029794520547952175  3.732305936073061 0.05833333333333712  3.668150684931504 0.11541095890410702  Z " fill-rule="evenodd" />
    </mask>
  </defs>
  <g transform="matrix(1 0 0 1 -46 -71 )">
    <path d="M 3.668150684931504 0.11506849315068735  L 0.12568493150683935 3.7643835616438395  C 0.0615296803652825 3.828538812785382  0.02945205479451829 3.9052511415525117  0.02945205479451829 3.9945205479452  C 0.02945205479451829 4.083789954337902  0.0615296803652825 4.164041095890411  0.12568493150683935 4.235273972602741  L 3.668150684931504 7.884589041095893  C 3.732305936073061 7.941666666666663  3.80719178082191 7.970205479452062  3.892808219178079 7.970205479452062  C 3.978424657534248 7.970205479452062  4.053310502283097 7.938127853881284  4.1174657534246535 7.873972602739727  C 4.18162100456621 7.809817351598184  4.2136986301369745 7.734931506849321  4.2136986301369745 7.649315068493152  C 4.2136986301369745 7.563698630136983  4.18162100456621 7.488812785388134  4.1174657534246535 7.4246575342465775  L 0.7784246575342308 4  L 4.1174657534246535 0.5753424657534225  C 4.18162100456621 0.5111872146118799  4.2136986301369745 0.43630136986301693  4.2136986301369745 0.3506849315068479  C 4.2136986301369745 0.26506849315069303  4.18162100456621 0.19018264840183008  4.1174657534246535 0.12602739726027323  C 4.053310502283097 0.0618721461187306  3.978424657534248 0.029794520547952175  3.892808219178079 0.029794520547952175  C 3.80719178082191 0.029794520547952175  3.732305936073061 0.05833333333333712  3.668150684931504 0.11541095890410702  Z " fill-rule="nonzero" fill="rgba(96, 98, 102, 1)" stroke="none" transform="matrix(1 0 0 1 46 71 )" class="fill" />
    <path d="M 3.668150684931504 0.11506849315068735  L 0.12568493150683935 3.7643835616438395  C 0.0615296803652825 3.828538812785382  0.02945205479451829 3.9052511415525117  0.02945205479451829 3.9945205479452  C 0.02945205479451829 4.083789954337902  0.0615296803652825 4.164041095890411  0.12568493150683935 4.235273972602741  L 3.668150684931504 7.884589041095893  C 3.732305936073061 7.941666666666663  3.80719178082191 7.970205479452062  3.892808219178079 7.970205479452062  C 3.978424657534248 7.970205479452062  4.053310502283097 7.938127853881284  4.1174657534246535 7.873972602739727  C 4.18162100456621 7.809817351598184  4.2136986301369745 7.734931506849321  4.2136986301369745 7.649315068493152  C 4.2136986301369745 7.563698630136983  4.18162100456621 7.488812785388134  4.1174657534246535 7.4246575342465775  L 0.7784246575342308 4  L 4.1174657534246535 0.5753424657534225  C 4.18162100456621 0.5111872146118799  4.2136986301369745 0.43630136986301693  4.2136986301369745 0.3506849315068479  C 4.2136986301369745 0.26506849315069303  4.18162100456621 0.19018264840183008  4.1174657534246535 0.12602739726027323  C 4.053310502283097 0.0618721461187306  3.978424657534248 0.029794520547952175  3.892808219178079 0.029794520547952175  C 3.80719178082191 0.029794520547952175  3.732305936073061 0.05833333333333712  3.668150684931504 0.11541095890410702  Z " stroke-width="0" stroke-dasharray="0" stroke="rgba(255, 255, 255, 0)" fill="none" transform="matrix(1 0 0 1 46 71 )" class="stroke" mask="url(#Clip1559)" />
  </g>
</svg>