<?xml version="1.0" encoding="utf-8"?>
<svg version="1.1" xmlns:xlink="http://www.w3.org/1999/xlink" width="24px" height="35px" xmlns="http://www.w3.org/2000/svg">
  <defs>
    <filter x="1017px" y="82px" width="24px" height="35px" filterUnits="userSpaceOnUse" id="filter754">
      <feOffset dx="0" dy="0" in="SourceAlpha" result="shadowOffsetInner" />
      <feGaussianBlur stdDeviation="2.5" in="shadowOffsetInner" result="shadowGaussian" />
      <feComposite in2="shadowGaussian" operator="atop" in="SourceAlpha" result="shadowComposite" />
      <feColorMatrix type="matrix" values="0 0 0 0 0.8431372549019608  0 0 0 0 0.8431372549019608  0 0 0 0 0.8431372549019608  0 0 0 0.34901960784313724 0  " in="shadowComposite" />
    </filter>
    <g id="widget755">
      <path d="M 1022.5 91  A 3.5 3.5 0 0 1 1026 87.5 L 1032 87.5  A 3.5 3.5 0 0 1 1035.5 91 L 1035.5 108  A 3.5 3.5 0 0 1 1032 111.5 L 1026 111.5  A 3.5 3.5 0 0 1 1022.5 108 L 1022.5 91  Z " fill-rule="nonzero" fill="#409eff" stroke="none" fill-opacity="0.09803921568627451" />
      <path d="M 1022.5 91  A 3.5 3.5 0 0 1 1026 87.5 L 1032 87.5  A 3.5 3.5 0 0 1 1035.5 91 L 1035.5 108  A 3.5 3.5 0 0 1 1032 111.5 L 1026 111.5  A 3.5 3.5 0 0 1 1022.5 108 L 1022.5 91  Z " stroke-width="1" stroke="#f0f6ff" fill="none" />
    </g>
  </defs>
  <g transform="matrix(1 0 0 1 -1017 -82 )">
    <use xlink:href="#widget755" filter="url(#filter754)" />
    <use xlink:href="#widget755" />
  </g>
</svg>