<?xml version="1.0" encoding="utf-8"?>
<svg version="1.1" xmlns:xlink="http://www.w3.org/1999/xlink" width="11px" height="14px" xmlns="http://www.w3.org/2000/svg">
  <defs>
    <pattern id="BGPattern" patternUnits="userSpaceOnUse" alignment="0 0" imageRepeat="None" />
    <mask fill="white" id="Clip1563">
      <path d="M 2.8875 12.25  C 2.2824999999999873 12.25  1.7875 11.765384615384566  2 11.173076923076923  L 2 0  L 1.1 0  C 0.49499999999998745 0  0 0.48461538461543363  0 1.076923076923077  L 0 12.923076923076923  C 0 13.515384615384566  0.49499999999998745 14  1.1 14  L 9.9 14  C 10.505000000000013 14  11 13.515384615384566  11 12.923076923076923  L 11 12.25  L 2.8875 12.25  Z " fill-rule="evenodd" />
    </mask>
  </defs>
  <g transform="matrix(1 0 0 1 -210 -85 )">
    <path d="M 2.8875 12.25  C 2.2824999999999873 12.25  1.7875 11.765384615384566  2 11.173076923076923  L 2 0  L 1.1 0  C 0.49499999999998745 0  0 0.48461538461543363  0 1.076923076923077  L 0 12.923076923076923  C 0 13.515384615384566  0.49499999999998745 14  1.1 14  L 9.9 14  C 10.505000000000013 14  11 13.515384615384566  11 12.923076923076923  L 11 12.25  L 2.8875 12.25  Z " fill-rule="nonzero" fill="rgba(170, 170, 170, 0.9921568627450981)" stroke="none" transform="matrix(1 0 0 1 210 85 )" class="fill" />
    <path d="M 2.8875 12.25  C 2.2824999999999873 12.25  1.7875 11.765384615384566  2 11.173076923076923  L 2 0  L 1.1 0  C 0.49499999999998745 0  0 0.48461538461543363  0 1.076923076923077  L 0 12.923076923076923  C 0 13.515384615384566  0.49499999999998745 14  1.1 14  L 9.9 14  C 10.505000000000013 14  11 13.515384615384566  11 12.923076923076923  L 11 12.25  L 2.8875 12.25  Z " stroke-width="0" stroke-dasharray="0" stroke="rgba(255, 255, 255, 0)" fill="none" transform="matrix(1 0 0 1 210 85 )" class="stroke" mask="url(#Clip1563)" />
  </g>
</svg>