<?xml version="1.0" encoding="utf-8"?>
<svg version="1.1" xmlns:xlink="http://www.w3.org/1999/xlink" width="85px" height="35px" xmlns="http://www.w3.org/2000/svg">
  <defs>
    <filter x="1193px" y="82px" width="85px" height="35px" filterUnits="userSpaceOnUse" id="filter969">
      <feOffset dx="0" dy="0" in="SourceAlpha" result="shadowOffsetInner" />
      <feGaussianBlur stdDeviation="2.5" in="shadowOffsetInner" result="shadowGaussian" />
      <feComposite in2="shadowGaussian" operator="atop" in="SourceAlpha" result="shadowComposite" />
      <feColorMatrix type="matrix" values="0 0 0 0 0.8431372549019608  0 0 0 0 0.8431372549019608  0 0 0 0 0.8431372549019608  0 0 0 0.34901960784313724 0  " in="shadowComposite" />
    </filter>
    <g id="widget970">
      <path d="M 1198.5 91  A 3.5 3.5 0 0 1 1202 87.5 L 1269 87.5  A 3.5 3.5 0 0 1 1272.5 91 L 1272.5 108  A 3.5 3.5 0 0 1 1269 111.5 L 1202 111.5  A 3.5 3.5 0 0 1 1198.5 108 L 1198.5 91  Z " fill-rule="nonzero" fill="#409eff" stroke="none" fill-opacity="0.09803921568627451" />
      <path d="M 1198.5 91  A 3.5 3.5 0 0 1 1202 87.5 L 1269 87.5  A 3.5 3.5 0 0 1 1272.5 91 L 1272.5 108  A 3.5 3.5 0 0 1 1269 111.5 L 1202 111.5  A 3.5 3.5 0 0 1 1198.5 108 L 1198.5 91  Z " stroke-width="1" stroke="#f0f6ff" fill="none" />
    </g>
  </defs>
  <g transform="matrix(1 0 0 1 -1193 -82 )">
    <use xlink:href="#widget970" filter="url(#filter969)" />
    <use xlink:href="#widget970" />
  </g>
</svg>