<?xml version="1.0" encoding="utf-8"?>
<svg version="1.1" xmlns:xlink="http://www.w3.org/1999/xlink" width="10px" height="13px" xmlns="http://www.w3.org/2000/svg">
  <defs>
    <pattern id="BGPattern" patternUnits="userSpaceOnUse" alignment="0 0" imageRepeat="None" />
    <mask fill="white" id="Clip1362">
      <path d="M 6.842105263157895 4.0625  C 6.026315789473679 4.0625  5.361842105263158 3.405999999999976  5.361842105263158 2.6  L 5.361842105263158 0  L 1.0526315789473684 0  C 0.47368421052630383 0  0 0.4680000000000473  0 1.04  L 0 11.96  C 0 12.531999999999954  0.47368421052630383 13  1.0526315789473684 13  L 8.947368421052632 13  C 9.526315789473696 13  10 12.531999999999954  10 11.96  L 10 4.0625  L 6.842105263157895 4.0625  Z " fill-rule="evenodd" />
    </mask>
  </defs>
  <g transform="matrix(1 0 0 1 -213 -316 )">
    <path d="M 6.842105263157895 4.0625  C 6.026315789473679 4.0625  5.361842105263158 3.405999999999976  5.361842105263158 2.6  L 5.361842105263158 0  L 1.0526315789473684 0  C 0.47368421052630383 0  0 0.4680000000000473  0 1.04  L 0 11.96  C 0 12.531999999999954  0.47368421052630383 13  1.0526315789473684 13  L 8.947368421052632 13  C 9.526315789473696 13  10 12.531999999999954  10 11.96  L 10 4.0625  L 6.842105263157895 4.0625  Z " fill-rule="nonzero" fill="rgba(170, 170, 170, 0.9921568627450981)" stroke="none" transform="matrix(1 0 0 1 213 316 )" class="fill" />
    <path d="M 6.842105263157895 4.0625  C 6.026315789473679 4.0625  5.361842105263158 3.405999999999976  5.361842105263158 2.6  L 5.361842105263158 0  L 1.0526315789473684 0  C 0.47368421052630383 0  0 0.4680000000000473  0 1.04  L 0 11.96  C 0 12.531999999999954  0.47368421052630383 13  1.0526315789473684 13  L 8.947368421052632 13  C 9.526315789473696 13  10 12.531999999999954  10 11.96  L 10 4.0625  L 6.842105263157895 4.0625  Z " stroke-width="0" stroke-dasharray="0" stroke="rgba(255, 255, 255, 0)" fill="none" transform="matrix(1 0 0 1 213 316 )" class="stroke" mask="url(#Clip1362)" />
  </g>
</svg>