<?xml version="1.0" encoding="utf-8"?>
<svg version="1.1" xmlns:xlink="http://www.w3.org/1999/xlink" width="20px" height="20px" xmlns="http://www.w3.org/2000/svg">
  <defs>
    <pattern id="BGPattern" patternUnits="userSpaceOnUse" alignment="0 0" imageRepeat="None" />
    <mask fill="white" id="Clip534">
      <path d="M 19.773333333333312 10.435555555555766  C 20.01777777777776 10.195555555555378  20.01777777777776 9.804444444444622  19.773333333333312 9.564444444444234  L 16.24444444444445 6.035555555555523  C 16.00444444444444 5.795555555555741  15.613333333333305 5.795555555555741  15.373333333333296 6.035555555555523  L 15.364444444444416 6.044444444444404  C 15.124444444444482 6.284444444444186  15.124444444444482 6.6755555555555475  15.364444444444416 6.915555555555329  L 17.80444444444447 9.355555555555839  L 10.613333333333305 9.377777777777737  L 10.635555555555584 2.186666666666497  L 13.075555555555562 4.6266666666664  C 13.315555555555571 4.866666666666788  13.70666666666663 4.866666666666788  13.946666666666639 4.6266666666664  L 13.95555555555552 4.617777777777519  C 14.19555555555553 4.377777777777737  14.19555555555553 3.986666666666376  13.95555555555552 3.7466666666665938  L 10.426666666666657 0.21777777777788287  C 10.186666666666648 -0.022222222222505177  9.79555555555559 -0.022222222222505177  9.55555555555558 0.21777777777788287  L 6.026666666666642 3.7466666666665938  C 5.786666666666633 3.986666666666376  5.786666666666633 4.377777777777737  6.026666666666642 4.617777777777519  L 6.035555555555523 4.6266666666664  C 6.275555555555532 4.866666666666788  6.666666666666666 4.866666666666788  6.906666666666675 4.6266666666664  L 9.346666666666653 2.186666666666497  L 9.368888888888856 9.377777777777737  L 2.177777777777768 9.355555555555839  L 4.6177777777777465 6.915555555555329  C 4.8577777777777555 6.6755555555555475  4.8577777777777555 6.284444444444186  4.6177777777777465 6.044444444444404  L 4.608888888888866 6.035555555555523  C 4.368888888888857 5.795555555555741  3.977777777777798 5.795555555555741  3.7377777777777887 6.035555555555523  L 0.2088888888888505 9.564444444444234  C -0.031111111111082817 9.804444444444622  -0.031111111111082817 10.195555555555378  0.2088888888888505 10.435555555555766  L 3.7377777777777887 13.964444444444478  C 3.977777777777798 14.204444444444258  4.368888888888857 14.204444444444258  4.608888888888866 13.964444444444478  L 4.6177777777777465 13.955555555555597  C 4.8577777777777555 13.715555555555813  4.8577777777777555 13.324444444444453  4.6177777777777465 13.08444444444467  L 2.177777777777768 10.644444444444161  L 9.368888888888856 10.622222222222263  L 9.346666666666653 17.813333333333503  L 6.906666666666675 15.373333333333601  C 6.666666666666666 15.133333333333212  6.275555555555532 15.133333333333212  6.035555555555523 15.373333333333601  L 6.026666666666642 15.382222222222481  C 5.786666666666633 15.622222222222263  5.786666666666633 16.013333333333623  6.026666666666642 16.253333333333405  L 9.55555555555558 19.782222222222117  C 9.79555555555559 20.022222222222506  10.186666666666648 20.022222222222506  10.426666666666657 19.782222222222117  L 13.95555555555552 16.253333333333405  C 14.19555555555553 16.013333333333623  14.19555555555553 15.622222222222263  13.95555555555552 15.382222222222481  L 13.946666666666639 15.373333333333601  C 13.70666666666663 15.133333333333212  13.315555555555571 15.133333333333212  13.075555555555562 15.373333333333601  L 10.635555555555584 17.813333333333503  L 10.613333333333305 10.622222222222263  L 17.80444444444447 10.644444444444161  L 15.364444444444416 13.08444444444467  C 15.124444444444482 13.324444444444453  15.124444444444482 13.715555555555813  15.364444444444416 13.955555555555597  L 15.373333333333296 13.964444444444478  C 15.613333333333305 14.204444444444258  16.00444444444444 14.204444444444258  16.24444444444445 13.964444444444478  L 19.773333333333312 10.435555555555766  Z " fill-rule="evenodd" />
    </mask>
  </defs>
  <g transform="matrix(1 0 0 1 -252 -160 )">
    <path d="M 19.773333333333312 10.435555555555766  C 20.01777777777776 10.195555555555378  20.01777777777776 9.804444444444622  19.773333333333312 9.564444444444234  L 16.24444444444445 6.035555555555523  C 16.00444444444444 5.795555555555741  15.613333333333305 5.795555555555741  15.373333333333296 6.035555555555523  L 15.364444444444416 6.044444444444404  C 15.124444444444482 6.284444444444186  15.124444444444482 6.6755555555555475  15.364444444444416 6.915555555555329  L 17.80444444444447 9.355555555555839  L 10.613333333333305 9.377777777777737  L 10.635555555555584 2.186666666666497  L 13.075555555555562 4.6266666666664  C 13.315555555555571 4.866666666666788  13.70666666666663 4.866666666666788  13.946666666666639 4.6266666666664  L 13.95555555555552 4.617777777777519  C 14.19555555555553 4.377777777777737  14.19555555555553 3.986666666666376  13.95555555555552 3.7466666666665938  L 10.426666666666657 0.21777777777788287  C 10.186666666666648 -0.022222222222505177  9.79555555555559 -0.022222222222505177  9.55555555555558 0.21777777777788287  L 6.026666666666642 3.7466666666665938  C 5.786666666666633 3.986666666666376  5.786666666666633 4.377777777777737  6.026666666666642 4.617777777777519  L 6.035555555555523 4.6266666666664  C 6.275555555555532 4.866666666666788  6.666666666666666 4.866666666666788  6.906666666666675 4.6266666666664  L 9.346666666666653 2.186666666666497  L 9.368888888888856 9.377777777777737  L 2.177777777777768 9.355555555555839  L 4.6177777777777465 6.915555555555329  C 4.8577777777777555 6.6755555555555475  4.8577777777777555 6.284444444444186  4.6177777777777465 6.044444444444404  L 4.608888888888866 6.035555555555523  C 4.368888888888857 5.795555555555741  3.977777777777798 5.795555555555741  3.7377777777777887 6.035555555555523  L 0.2088888888888505 9.564444444444234  C -0.031111111111082817 9.804444444444622  -0.031111111111082817 10.195555555555378  0.2088888888888505 10.435555555555766  L 3.7377777777777887 13.964444444444478  C 3.977777777777798 14.204444444444258  4.368888888888857 14.204444444444258  4.608888888888866 13.964444444444478  L 4.6177777777777465 13.955555555555597  C 4.8577777777777555 13.715555555555813  4.8577777777777555 13.324444444444453  4.6177777777777465 13.08444444444467  L 2.177777777777768 10.644444444444161  L 9.368888888888856 10.622222222222263  L 9.346666666666653 17.813333333333503  L 6.906666666666675 15.373333333333601  C 6.666666666666666 15.133333333333212  6.275555555555532 15.133333333333212  6.035555555555523 15.373333333333601  L 6.026666666666642 15.382222222222481  C 5.786666666666633 15.622222222222263  5.786666666666633 16.013333333333623  6.026666666666642 16.253333333333405  L 9.55555555555558 19.782222222222117  C 9.79555555555559 20.022222222222506  10.186666666666648 20.022222222222506  10.426666666666657 19.782222222222117  L 13.95555555555552 16.253333333333405  C 14.19555555555553 16.013333333333623  14.19555555555553 15.622222222222263  13.95555555555552 15.382222222222481  L 13.946666666666639 15.373333333333601  C 13.70666666666663 15.133333333333212  13.315555555555571 15.133333333333212  13.075555555555562 15.373333333333601  L 10.635555555555584 17.813333333333503  L 10.613333333333305 10.622222222222263  L 17.80444444444447 10.644444444444161  L 15.364444444444416 13.08444444444467  C 15.124444444444482 13.324444444444453  15.124444444444482 13.715555555555813  15.364444444444416 13.955555555555597  L 15.373333333333296 13.964444444444478  C 15.613333333333305 14.204444444444258  16.00444444444444 14.204444444444258  16.24444444444445 13.964444444444478  L 19.773333333333312 10.435555555555766  Z " fill-rule="nonzero" fill="rgba(96, 98, 102, 1)" stroke="none" transform="matrix(1 0 0 1 252 160 )" class="fill" />
    <path d="M 19.773333333333312 10.435555555555766  C 20.01777777777776 10.195555555555378  20.01777777777776 9.804444444444622  19.773333333333312 9.564444444444234  L 16.24444444444445 6.035555555555523  C 16.00444444444444 5.795555555555741  15.613333333333305 5.795555555555741  15.373333333333296 6.035555555555523  L 15.364444444444416 6.044444444444404  C 15.124444444444482 6.284444444444186  15.124444444444482 6.6755555555555475  15.364444444444416 6.915555555555329  L 17.80444444444447 9.355555555555839  L 10.613333333333305 9.377777777777737  L 10.635555555555584 2.186666666666497  L 13.075555555555562 4.6266666666664  C 13.315555555555571 4.866666666666788  13.70666666666663 4.866666666666788  13.946666666666639 4.6266666666664  L 13.95555555555552 4.617777777777519  C 14.19555555555553 4.377777777777737  14.19555555555553 3.986666666666376  13.95555555555552 3.7466666666665938  L 10.426666666666657 0.21777777777788287  C 10.186666666666648 -0.022222222222505177  9.79555555555559 -0.022222222222505177  9.55555555555558 0.21777777777788287  L 6.026666666666642 3.7466666666665938  C 5.786666666666633 3.986666666666376  5.786666666666633 4.377777777777737  6.026666666666642 4.617777777777519  L 6.035555555555523 4.6266666666664  C 6.275555555555532 4.866666666666788  6.666666666666666 4.866666666666788  6.906666666666675 4.6266666666664  L 9.346666666666653 2.186666666666497  L 9.368888888888856 9.377777777777737  L 2.177777777777768 9.355555555555839  L 4.6177777777777465 6.915555555555329  C 4.8577777777777555 6.6755555555555475  4.8577777777777555 6.284444444444186  4.6177777777777465 6.044444444444404  L 4.608888888888866 6.035555555555523  C 4.368888888888857 5.795555555555741  3.977777777777798 5.795555555555741  3.7377777777777887 6.035555555555523  L 0.2088888888888505 9.564444444444234  C -0.031111111111082817 9.804444444444622  -0.031111111111082817 10.195555555555378  0.2088888888888505 10.435555555555766  L 3.7377777777777887 13.964444444444478  C 3.977777777777798 14.204444444444258  4.368888888888857 14.204444444444258  4.608888888888866 13.964444444444478  L 4.6177777777777465 13.955555555555597  C 4.8577777777777555 13.715555555555813  4.8577777777777555 13.324444444444453  4.6177777777777465 13.08444444444467  L 2.177777777777768 10.644444444444161  L 9.368888888888856 10.622222222222263  L 9.346666666666653 17.813333333333503  L 6.906666666666675 15.373333333333601  C 6.666666666666666 15.133333333333212  6.275555555555532 15.133333333333212  6.035555555555523 15.373333333333601  L 6.026666666666642 15.382222222222481  C 5.786666666666633 15.622222222222263  5.786666666666633 16.013333333333623  6.026666666666642 16.253333333333405  L 9.55555555555558 19.782222222222117  C 9.79555555555559 20.022222222222506  10.186666666666648 20.022222222222506  10.426666666666657 19.782222222222117  L 13.95555555555552 16.253333333333405  C 14.19555555555553 16.013333333333623  14.19555555555553 15.622222222222263  13.95555555555552 15.382222222222481  L 13.946666666666639 15.373333333333601  C 13.70666666666663 15.133333333333212  13.315555555555571 15.133333333333212  13.075555555555562 15.373333333333601  L 10.635555555555584 17.813333333333503  L 10.613333333333305 10.622222222222263  L 17.80444444444447 10.644444444444161  L 15.364444444444416 13.08444444444467  C 15.124444444444482 13.324444444444453  15.124444444444482 13.715555555555813  15.364444444444416 13.955555555555597  L 15.373333333333296 13.964444444444478  C 15.613333333333305 14.204444444444258  16.00444444444444 14.204444444444258  16.24444444444445 13.964444444444478  L 19.773333333333312 10.435555555555766  Z " stroke-width="0" stroke-dasharray="0" stroke="rgba(255, 255, 255, 0)" fill="none" transform="matrix(1 0 0 1 252 160 )" class="stroke" mask="url(#Clip534)" />
  </g>
</svg>