<?xml version="1.0" encoding="utf-8"?>
<svg version="1.1" xmlns:xlink="http://www.w3.org/1999/xlink" width="69px" height="35px" xmlns="http://www.w3.org/2000/svg">
  <defs>
    <filter x="672px" y="82px" width="69px" height="35px" filterUnits="userSpaceOnUse" id="filter584">
      <feOffset dx="0" dy="0" in="SourceAlpha" result="shadowOffsetInner" />
      <feGaussianBlur stdDeviation="2.5" in="shadowOffsetInner" result="shadowGaussian" />
      <feComposite in2="shadowGaussian" operator="atop" in="SourceAlpha" result="shadowComposite" />
      <feColorMatrix type="matrix" values="0 0 0 0 0.8431372549019608  0 0 0 0 0.8431372549019608  0 0 0 0 0.8431372549019608  0 0 0 0.34901960784313724 0  " in="shadowComposite" />
    </filter>
    <g id="widget585">
      <path d="M 677.5 91  A 3.5 3.5 0 0 1 681 87.5 L 732 87.5  A 3.5 3.5 0 0 1 735.5 91 L 735.5 108  A 3.5 3.5 0 0 1 732 111.5 L 681 111.5  A 3.5 3.5 0 0 1 677.5 108 L 677.5 91  Z " fill-rule="nonzero" fill="#409eff" stroke="none" fill-opacity="0.09803921568627451" />
      <path d="M 677.5 91  A 3.5 3.5 0 0 1 681 87.5 L 732 87.5  A 3.5 3.5 0 0 1 735.5 91 L 735.5 108  A 3.5 3.5 0 0 1 732 111.5 L 681 111.5  A 3.5 3.5 0 0 1 677.5 108 L 677.5 91  Z " stroke-width="1" stroke="#f0f6ff" fill="none" />
    </g>
  </defs>
  <g transform="matrix(1 0 0 1 -672 -82 )">
    <use xlink:href="#widget585" filter="url(#filter584)" />
    <use xlink:href="#widget585" />
  </g>
</svg>