<?xml version="1.0" encoding="utf-8"?>
<svg version="1.1" xmlns:xlink="http://www.w3.org/1999/xlink" width="38px" height="35px" xmlns="http://www.w3.org/2000/svg">
  <defs>
    <filter x="942px" y="82px" width="38px" height="35px" filterUnits="userSpaceOnUse" id="filter594">
      <feOffset dx="0" dy="0" in="SourceAlpha" result="shadowOffsetInner" />
      <feGaussianBlur stdDeviation="2.5" in="shadowOffsetInner" result="shadowGaussian" />
      <feComposite in2="shadowGaussian" operator="atop" in="SourceAlpha" result="shadowComposite" />
      <feColorMatrix type="matrix" values="0 0 0 0 0.8431372549019608  0 0 0 0 0.8431372549019608  0 0 0 0 0.8431372549019608  0 0 0 0.34901960784313724 0  " in="shadowComposite" />
    </filter>
    <g id="widget595">
      <path d="M 947.5 91  A 3.5 3.5 0 0 1 951 87.5 L 971 87.5  A 3.5 3.5 0 0 1 974.5 91 L 974.5 108  A 3.5 3.5 0 0 1 971 111.5 L 951 111.5  A 3.5 3.5 0 0 1 947.5 108 L 947.5 91  Z " fill-rule="nonzero" fill="#409eff" stroke="none" fill-opacity="0.09803921568627451" />
      <path d="M 947.5 91  A 3.5 3.5 0 0 1 951 87.5 L 971 87.5  A 3.5 3.5 0 0 1 974.5 91 L 974.5 108  A 3.5 3.5 0 0 1 971 111.5 L 951 111.5  A 3.5 3.5 0 0 1 947.5 108 L 947.5 91  Z " stroke-width="1" stroke="#f0f6ff" fill="none" />
    </g>
  </defs>
  <g transform="matrix(1 0 0 1 -942 -82 )">
    <use xlink:href="#widget595" filter="url(#filter594)" />
    <use xlink:href="#widget595" />
  </g>
</svg>