<?xml version="1.0" encoding="utf-8"?>
<svg version="1.1" xmlns:xlink="http://www.w3.org/1999/xlink" width="92px" height="35px" xmlns="http://www.w3.org/2000/svg">
  <defs>
    <filter x="1103px" y="82px" width="92px" height="35px" filterUnits="userSpaceOnUse" id="filter1311">
      <feOffset dx="0" dy="0" in="SourceAlpha" result="shadowOffsetInner" />
      <feGaussianBlur stdDeviation="2.5" in="shadowOffsetInner" result="shadowGaussian" />
      <feComposite in2="shadowGaussian" operator="atop" in="SourceAlpha" result="shadowComposite" />
      <feColorMatrix type="matrix" values="0 0 0 0 0.8431372549019608  0 0 0 0 0.8431372549019608  0 0 0 0 0.8431372549019608  0 0 0 0.34901960784313724 0  " in="shadowComposite" />
    </filter>
    <g id="widget1312">
      <path d="M 1108.5 91  A 3.5 3.5 0 0 1 1112 87.5 L 1186 87.5  A 3.5 3.5 0 0 1 1189.5 91 L 1189.5 108  A 3.5 3.5 0 0 1 1186 111.5 L 1112 111.5  A 3.5 3.5 0 0 1 1108.5 108 L 1108.5 91  Z " fill-rule="nonzero" fill="#409eff" stroke="none" fill-opacity="0.09803921568627451" />
      <path d="M 1108.5 91  A 3.5 3.5 0 0 1 1112 87.5 L 1186 87.5  A 3.5 3.5 0 0 1 1189.5 91 L 1189.5 108  A 3.5 3.5 0 0 1 1186 111.5 L 1112 111.5  A 3.5 3.5 0 0 1 1108.5 108 L 1108.5 91  Z " stroke-width="1" stroke="#f0f6ff" fill="none" />
    </g>
  </defs>
  <g transform="matrix(1 0 0 1 -1103 -82 )">
    <use xlink:href="#widget1312" filter="url(#filter1311)" />
    <use xlink:href="#widget1312" />
  </g>
</svg>