<?xml version="1.0" encoding="utf-8"?>
<svg version="1.1" xmlns:xlink="http://www.w3.org/1999/xlink" width="70px" height="35px" xmlns="http://www.w3.org/2000/svg">
  <defs>
    <filter x="824px" y="82px" width="70px" height="35px" filterUnits="userSpaceOnUse" id="filter1299">
      <feOffset dx="0" dy="0" in="SourceAlpha" result="shadowOffsetInner" />
      <feGaussianBlur stdDeviation="2.5" in="shadowOffsetInner" result="shadowGaussian" />
      <feComposite in2="shadowGaussian" operator="atop" in="SourceAlpha" result="shadowComposite" />
      <feColorMatrix type="matrix" values="0 0 0 0 0.8431372549019608  0 0 0 0 0.8431372549019608  0 0 0 0 0.8431372549019608  0 0 0 0.34901960784313724 0  " in="shadowComposite" />
    </filter>
    <g id="widget1300">
      <path d="M 829.5 91  A 3.5 3.5 0 0 1 833 87.5 L 885 87.5  A 3.5 3.5 0 0 1 888.5 91 L 888.5 108  A 3.5 3.5 0 0 1 885 111.5 L 833 111.5  A 3.5 3.5 0 0 1 829.5 108 L 829.5 91  Z " fill-rule="nonzero" fill="#409eff" stroke="none" fill-opacity="0.09803921568627451" />
      <path d="M 829.5 91  A 3.5 3.5 0 0 1 833 87.5 L 885 87.5  A 3.5 3.5 0 0 1 888.5 91 L 888.5 108  A 3.5 3.5 0 0 1 885 111.5 L 833 111.5  A 3.5 3.5 0 0 1 829.5 108 L 829.5 91  Z " stroke-width="1" stroke="#f0f6ff" fill="none" />
    </g>
  </defs>
  <g transform="matrix(1 0 0 1 -824 -82 )">
    <use xlink:href="#widget1300" filter="url(#filter1299)" />
    <use xlink:href="#widget1300" />
  </g>
</svg>