<?xml version="1.0" encoding="utf-8"?>
<svg version="1.1" xmlns:xlink="http://www.w3.org/1999/xlink" width="62px" height="35px" xmlns="http://www.w3.org/2000/svg">
  <defs>
    <filter x="764px" y="82px" width="62px" height="35px" filterUnits="userSpaceOnUse" id="filter256">
      <feOffset dx="0" dy="0" in="SourceAlpha" result="shadowOffsetInner" />
      <feGaussianBlur stdDeviation="2.5" in="shadowOffsetInner" result="shadowGaussian" />
      <feComposite in2="shadowGaussian" operator="atop" in="SourceAlpha" result="shadowComposite" />
      <feColorMatrix type="matrix" values="0 0 0 0 0.8431372549019608  0 0 0 0 0.8431372549019608  0 0 0 0 0.8431372549019608  0 0 0 0.34901960784313724 0  " in="shadowComposite" />
    </filter>
    <g id="widget257">
      <path d="M 769.5 91  A 3.5 3.5 0 0 1 773 87.5 L 817 87.5  A 3.5 3.5 0 0 1 820.5 91 L 820.5 108  A 3.5 3.5 0 0 1 817 111.5 L 773 111.5  A 3.5 3.5 0 0 1 769.5 108 L 769.5 91  Z " fill-rule="nonzero" fill="#409eff" stroke="none" fill-opacity="0.09803921568627451" />
      <path d="M 769.5 91  A 3.5 3.5 0 0 1 773 87.5 L 817 87.5  A 3.5 3.5 0 0 1 820.5 91 L 820.5 108  A 3.5 3.5 0 0 1 817 111.5 L 773 111.5  A 3.5 3.5 0 0 1 769.5 108 L 769.5 91  Z " stroke-width="1" stroke="#f0f6ff" fill="none" />
    </g>
  </defs>
  <g transform="matrix(1 0 0 1 -764 -82 )">
    <use xlink:href="#widget257" filter="url(#filter256)" />
    <use xlink:href="#widget257" />
  </g>
</svg>