<?xml version="1.0" encoding="utf-8"?>
<svg version="1.1" xmlns:xlink="http://www.w3.org/1999/xlink" width="8px" height="9px" xmlns="http://www.w3.org/2000/svg">
  <g transform="matrix(1 0 0 1 -21 -71 )">
    <path d="M 0.1667968749999993 4.234931506849314  L 4.207421875000001 0.1294520547945197  C 4.280598958333336 0.06523972602740002  4.366015624999996 0.03313356164383663  4.463671874999996 0.03313356164383663  C 4.561328124999996 0.03313356164383663  4.646744791666663 0.06922089041096058  4.719921874999997 0.14139554794520848  C 4.793098958333331 0.21357020547944927  4.829687499999999 0.2978167808219183  4.829687499999999 0.3941352739726014  C 4.829687499999999 0.4904537671232845  4.793098958333331 0.5747003424657535  4.719921874999997 0.6468750000000014  L 0.9113281249999972 4.499614726027396  L 4.719921874999997 8.352354452054797  C 4.793098958333331 8.424529109589045  4.829687499999999 8.510830479452054  4.829687499999999 8.611258561643837  C 4.829687499999999 8.71168664383562  4.793098958333331 8.795933219178082  4.719921874999997 8.863998287671237  C 4.646744791666663 8.932063356164385  4.561328124999996 8.966224315068487  4.463671874999996 8.96648116438356  C 4.366015624999996 8.966738013698631  4.280598958333336 8.934631849315068  4.207421875000001 8.870162671232876  L 0.1667968749999993 4.764683219178082  C 0.09361979166666856 4.684289383561648  0.05703125000000142 4.594006849315072  0.05703125000000142 4.4938356164383535  C 0.05703125000000142 4.393664383561642  0.09361979166666856 4.307363013698634  0.1667968749999993 4.234931506849314  Z M 3.291796875000003 4.234931506849314  L 7.332421874999994 0.1294520547945197  C 7.405598958333336 0.06523972602740002  7.491015625000003 0.03313356164383663  7.588671875000003 0.03313356164383663  C 7.686328125000003 0.03313356164383663  7.771744791666663 0.06922089041096058  7.844921874999997 0.14139554794520848  C 7.918098958333331 0.21357020547944927  7.954687500000006 0.2978167808219183  7.954687499999999 0.3941352739726014  C 7.954687500000006 0.4904537671232845  7.918098958333331 0.5747003424657535  7.844921874999997 0.6468750000000014  L 4.036328124999997 4.499614726027396  L 7.844921874999997 8.352354452054797  C 7.918098958333331 8.424529109589045  7.954687500000006 8.510830479452054  7.954687499999999 8.611258561643837  C 7.954687500000006 8.71168664383562  7.918098958333331 8.795933219178082  7.844921874999997 8.863998287671237  C 7.771744791666663 8.932063356164385  7.686328125000003 8.966224315068487  7.588671875000003 8.96648116438356  C 7.491015625000003 8.966738013698631  7.405598958333336 8.934631849315068  7.332421874999994 8.870162671232876  L 3.291796875000003 4.764683219178082  C 3.2186197916666686 4.684289383561648  3.1820312500000014 4.594006849315072  3.1820312500000014 4.4938356164383535  C 3.1820312500000014 4.393664383561642  3.2186197916666686 4.307363013698634  3.291796875000003 4.234931506849314  Z " fill-rule="nonzero" fill="#606266" stroke="none" transform="matrix(1 0 0 1 21 71 )" />
  </g>
</svg>