<?xml version="1.0" encoding="utf-8"?>
<svg version="1.1" xmlns:xlink="http://www.w3.org/1999/xlink" width="5px" height="8px" xmlns="http://www.w3.org/2000/svg">
  <g transform="matrix(1 0 0 1 -272 -71 )">
    <path d="M 0.14246575342465917 0.11506849315068735  C 0.07831050228310232 0.1865296803652967  0.04623287671233811 0.2650684931506788  0.04623287671233811 0.3506849315068479  C 0.04623287671233811 0.43630136986301693  0.07831050228310232 0.5111872146118657  0.14246575342465917 0.5753424657534225  L 3.4815068493150534 4  L 0.14246575342465917 7.4246575342465775  C 0.07831050228310232 7.488812785388134  0.04623287671233811 7.563698630136983  0.04623287671233811 7.649315068493152  C 0.04623287671233811 7.734931506849321  0.07831050228310232 7.80981735159817  0.14246575342465917 7.873972602739727  C 0.20662100456621602 7.938127853881284  0.28150684931506476 7.970205479452048  0.3671232876712338 7.970205479452048  C 0.45273972602740287 7.970205479452048  0.5276255707762516 7.941666666666663  0.5917808219178085 7.884589041095893  L 4.134246575342445 4.235273972602741  C 4.198401826484002 4.171118721461184  4.230479452054794 4.092579908675802  4.230479452054794 3.9996575342465803  C 4.230479452054794 3.9067351598173445  4.198401826484002 3.8281963470319624  4.134246575342445 3.7640410958904056  L 0.5917808219178085 0.11472602739725346  C 0.5276255707762516 0.057648401826483564  0.45273972602740287 0.029109589041098616  0.3671232876712338 0.029109589041098616  C 0.28150684931506476 0.029109589041098616  0.20662100456621602 0.057648401826483564  0.14246575342465917 0.11472602739725346  Z " fill-rule="nonzero" fill="#606266" stroke="none" transform="matrix(1 0 0 1 272 71 )" />
  </g>
</svg>