<?xml version="1.0" encoding="utf-8"?>
<svg version="1.1" xmlns:xlink="http://www.w3.org/1999/xlink" width="39px" height="30px" xmlns="http://www.w3.org/2000/svg">
  <defs>
    <filter x="217px" y="1px" width="39px" height="30px" filterUnits="userSpaceOnUse" id="filter984">
      <feOffset dx="0" dy="0" in="SourceAlpha" result="shadowOffsetInner" />
      <feGaussianBlur stdDeviation="2.5" in="shadowOffsetInner" result="shadowGaussian" />
      <feComposite in2="shadowGaussian" operator="atop" in="SourceAlpha" result="shadowComposite" />
      <feColorMatrix type="matrix" values="0 0 0 0 0.8431372549019608  0 0 0 0 0.8431372549019608  0 0 0 0 0.8431372549019608  0 0 0 0.34901960784313724 0  " in="shadowComposite" />
    </filter>
    <g id="widget985">
      <path d="M 222.5 10  A 3.5 3.5 0 0 1 226 6.5 L 247 6.5  A 3.5 3.5 0 0 1 250.5 10 L 250.5 22  A 3.5 3.5 0 0 1 247 25.5 L 226 25.5  A 3.5 3.5 0 0 1 222.5 22 L 222.5 10  Z " fill-rule="nonzero" fill="#409eff" stroke="none" fill-opacity="0.09803921568627451" />
      <path d="M 222.5 10  A 3.5 3.5 0 0 1 226 6.5 L 247 6.5  A 3.5 3.5 0 0 1 250.5 10 L 250.5 22  A 3.5 3.5 0 0 1 247 25.5 L 226 25.5  A 3.5 3.5 0 0 1 222.5 22 L 222.5 10  Z " stroke-width="1" stroke="#f0f6ff" fill="none" />
    </g>
  </defs>
  <g transform="matrix(1 0 0 1 -217 -1 )">
    <use xlink:href="#widget985" filter="url(#filter984)" />
    <use xlink:href="#widget985" />
  </g>
</svg>