<?xml version="1.0" encoding="utf-8"?>
<svg version="1.1" xmlns:xlink="http://www.w3.org/1999/xlink" width="18px" height="16px" xmlns="http://www.w3.org/2000/svg">
  <defs>
    <pattern id="BGPattern" patternUnits="userSpaceOnUse" alignment="0 0" imageRepeat="None" />
    <mask fill="white" id="Clip530">
      <path d="M 12.612500000000024 0.31746031746037523  C 12.306250000000011 -0.09523809523809523  11.79375 -0.10317460317466091  11.475 0.2936507936508514  C 11.15625 0.6904761904761905  11.15625 1.3492063492062916  11.468749999999988 1.7539682539681962  L 15.268750000000011 6.587301587301529  L 0.80625 6.587301587301529  C 0.36250000000001137 6.587301587301529  0 7.0476190476190474  0 7.619047619047619  C 0 8.19047619047619  0.36250000000001137 8.650793650793709  0.80625 8.650793650793709  L 15.2625 8.650793650793709  L 11.462500000000011 13.484126984127041  C 11.149999999999988 13.888888888888946  11.15625 14.539682539682655  11.468749999999988 14.94444444444456  C 11.787499999999987 15.341269841269899  12.293749999999989 15.341269841269899  12.612500000000024 14.936507936507994  L 17.76250000000001 8.349206349206291  C 17.83125 8.253968253968196  17.8875 8.150793650793709  17.931250000000013 8.023809523809524  C 17.974999999999987 7.8968253968253395  17.993749999999988 7.761904761904762  17.993749999999988 7.626984126984185  C 17.993749999999988 7.357142857142857  17.912500000000012 7.1031746031746605  17.76250000000001 6.904761904761905  L 12.612500000000024 0.31746031746037523  Z " fill-rule="evenodd" />
    </mask>
  </defs>
  <g transform="matrix(1 0 0 1 -233 -83 )">
    <path d="M 12.612500000000024 0.31746031746037523  C 12.306250000000011 -0.09523809523809523  11.79375 -0.10317460317466091  11.475 0.2936507936508514  C 11.15625 0.6904761904761905  11.15625 1.3492063492062916  11.468749999999988 1.7539682539681962  L 15.268750000000011 6.587301587301529  L 0.80625 6.587301587301529  C 0.36250000000001137 6.587301587301529  0 7.0476190476190474  0 7.619047619047619  C 0 8.19047619047619  0.36250000000001137 8.650793650793709  0.80625 8.650793650793709  L 15.2625 8.650793650793709  L 11.462500000000011 13.484126984127041  C 11.149999999999988 13.888888888888946  11.15625 14.539682539682655  11.468749999999988 14.94444444444456  C 11.787499999999987 15.341269841269899  12.293749999999989 15.341269841269899  12.612500000000024 14.936507936507994  L 17.76250000000001 8.349206349206291  C 17.83125 8.253968253968196  17.8875 8.150793650793709  17.931250000000013 8.023809523809524  C 17.974999999999987 7.8968253968253395  17.993749999999988 7.761904761904762  17.993749999999988 7.626984126984185  C 17.993749999999988 7.357142857142857  17.912500000000012 7.1031746031746605  17.76250000000001 6.904761904761905  L 12.612500000000024 0.31746031746037523  Z " fill-rule="nonzero" fill="rgba(170, 170, 170, 0.9921568627450981)" stroke="none" transform="matrix(1 0 0 1 233 83 )" class="fill" />
    <path d="M 12.612500000000024 0.31746031746037523  C 12.306250000000011 -0.09523809523809523  11.79375 -0.10317460317466091  11.475 0.2936507936508514  C 11.15625 0.6904761904761905  11.15625 1.3492063492062916  11.468749999999988 1.7539682539681962  L 15.268750000000011 6.587301587301529  L 0.80625 6.587301587301529  C 0.36250000000001137 6.587301587301529  0 7.0476190476190474  0 7.619047619047619  C 0 8.19047619047619  0.36250000000001137 8.650793650793709  0.80625 8.650793650793709  L 15.2625 8.650793650793709  L 11.462500000000011 13.484126984127041  C 11.149999999999988 13.888888888888946  11.15625 14.539682539682655  11.468749999999988 14.94444444444456  C 11.787499999999987 15.341269841269899  12.293749999999989 15.341269841269899  12.612500000000024 14.936507936507994  L 17.76250000000001 8.349206349206291  C 17.83125 8.253968253968196  17.8875 8.150793650793709  17.931250000000013 8.023809523809524  C 17.974999999999987 7.8968253968253395  17.993749999999988 7.761904761904762  17.993749999999988 7.626984126984185  C 17.993749999999988 7.357142857142857  17.912500000000012 7.1031746031746605  17.76250000000001 6.904761904761905  L 12.612500000000024 0.31746031746037523  Z " stroke-width="0" stroke-dasharray="0" stroke="rgba(255, 255, 255, 0)" fill="none" transform="matrix(1 0 0 1 233 83 )" class="stroke" mask="url(#Clip530)" />
  </g>
</svg>