<?xml version="1.0" encoding="utf-8"?>
<svg version="1.1" xmlns:xlink="http://www.w3.org/1999/xlink" width="11px" height="11px" xmlns="http://www.w3.org/2000/svg">
  <defs>
    <pattern id="BGPattern" patternUnits="userSpaceOnUse" alignment="0 0" imageRepeat="None" />
    <mask fill="white" id="Clip1043">
      <path d="M 3.8398437500000084 6.5980468749999694  L 4.950781249999969 5.5  L 3.8398437500000084 4.401171874999981  C 3.7666666666666355 4.319661458333327  3.7300781249999932 4.226041666666687  3.7300781249999932 4.1203124999999705  C 3.7300781249999932 4.014583333333345  3.7687500000000114 3.923046875000036  3.8460937499999575 3.845703125  C 3.9234374999999932 3.768359374999964  4.014973958333346 3.729687500000036  4.120703125000018 3.729687500000036  C 4.226432291666689 3.729687500000036  4.320052083333329 3.7662760416666328  4.4015624999999385 3.8394531250000057  L 5.500390624999958 4.950390625000011  L 6.599218749999977 3.8394531250000057  C 6.713281249999974 3.7337239583333797  6.841406249999969 3.7011718749999916  6.9835937499999625 3.7417968749999773  C 7.125781249999957 3.7824218750000074  7.217317708333309 3.873958333333361  7.258203125000023 4.016406249999992  C 7.299088541666737 4.15885416666667  7.2665364583333485 4.286979166666665  7.16054687500004 4.400781250000023  L 6.049609374999989 5.499609375000042  L 7.16054687500004 6.598437500000017  C 7.266276041666621 6.712499999999969  7.298828125000008 6.840624999999964  7.258203125000023 6.982812499999958  C 7.2175781250000375 7.1249999999999964  7.1260416666666835 7.216536458333349  6.9835937499999625 7.257421875000017  C 6.841145833333331 7.298307291666686  6.713020833333335 7.265755208333343  6.599218749999977 7.159765624999989  L 5.500390624999958 6.048828124999983  L 4.4015624999999385 7.159765624999989  C 4.320052083333329 7.232942708333318  4.226432291666689 7.2695312500000036  4.120703125000018 7.2695312500000036  C 4.014973958333346 7.2695312500000036  3.9234374999999932 7.230859375000031  3.8460937499999575 7.1535156249999945  C 3.7687500000000114 7.0761718750000036  3.7300781249999932 6.984635416666651  3.7300781249999932 6.878906250000025  C 3.7300781249999932 6.773177083333309  3.7666666666666355 6.679557291666669  3.8398437500000084 6.5980468749999694  Z M 2.185937500000055 8.81406249999999  C 3.069010416666661 9.696875000000002  4.173697916666672 10.154687499999998  5.5 10.187500000000025  C 6.826562500000055 10.154947916666682  7.931249999999977 9.69713541666664  8.814062499999945 8.81406249999999  C 9.696875000000002 7.930989583333339  10.154687499999998 6.826302083333328  10.187500000000025 5.5  C 10.154947916666636 4.17343749999999  9.69713541666664 3.0687500000000227  8.814062499999945 2.1859375000000103  C 7.930989583333339 1.3031249999999983  6.826302083333328 0.8453125000000017  5.5 0.8124999999999756  C 4.173437499999945 0.8450520833333184  3.0687500000000227 1.3028645833333152  2.185937500000055 2.1859375000000103  C 1.3031249999999983 3.069010416666661  0.8453125000000017 4.173697916666672  0.8124999999999756 5.5  C 0.8450520833333631 6.826562500000011  1.3028645833332706 7.931249999999977  2.185937500000055 8.81406249999999  Z M 9.363671875000023 9.363671875000023  C 8.33424479166667 10.39309895833333  7.046354166666634 10.928124999999998  5.5 10.968749999999984  C 3.9536458333333666 10.928124999999998  2.665755208333329 10.39309895833333  1.6363281249999773 9.363671875000023  C 0.6069010416666255 8.33424479166667  0.07187500000000163 7.046354166666634  0.03125000000001624 5.5  C 0.07187500000000163 3.9536458333333666  0.6069010416666255 2.665755208333329  1.6363281249999773 1.6363281249999773  C 2.665755208333329 0.6069010416666702  3.9536458333333666 0.07187500000000163  5.5 0.03125000000001624  C 7.046354166666634 0.07187500000000163  8.33424479166667 0.6069010416666702  9.363671875000023 1.6363281249999773  C 10.393098958333375 2.665755208333329  10.928124999999998 3.9536458333333666  10.968749999999984 5.5  C 10.928124999999998 7.046354166666634  10.393098958333375 8.33424479166667  9.363671875000023 9.363671875000023  Z " fill-rule="evenodd" />
    </mask>
  </defs>
  <g transform="matrix(1 0 0 1 -236 -9 )">
    <path d="M 3.8398437500000084 6.5980468749999694  L 4.950781249999969 5.5  L 3.8398437500000084 4.401171874999981  C 3.7666666666666355 4.319661458333327  3.7300781249999932 4.226041666666687  3.7300781249999932 4.1203124999999705  C 3.7300781249999932 4.014583333333345  3.7687500000000114 3.923046875000036  3.8460937499999575 3.845703125  C 3.9234374999999932 3.768359374999964  4.014973958333346 3.729687500000036  4.120703125000018 3.729687500000036  C 4.226432291666689 3.729687500000036  4.320052083333329 3.7662760416666328  4.4015624999999385 3.8394531250000057  L 5.500390624999958 4.950390625000011  L 6.599218749999977 3.8394531250000057  C 6.713281249999974 3.7337239583333797  6.841406249999969 3.7011718749999916  6.9835937499999625 3.7417968749999773  C 7.125781249999957 3.7824218750000074  7.217317708333309 3.873958333333361  7.258203125000023 4.016406249999992  C 7.299088541666737 4.15885416666667  7.2665364583333485 4.286979166666665  7.16054687500004 4.400781250000023  L 6.049609374999989 5.499609375000042  L 7.16054687500004 6.598437500000017  C 7.266276041666621 6.712499999999969  7.298828125000008 6.840624999999964  7.258203125000023 6.982812499999958  C 7.2175781250000375 7.1249999999999964  7.1260416666666835 7.216536458333349  6.9835937499999625 7.257421875000017  C 6.841145833333331 7.298307291666686  6.713020833333335 7.265755208333343  6.599218749999977 7.159765624999989  L 5.500390624999958 6.048828124999983  L 4.4015624999999385 7.159765624999989  C 4.320052083333329 7.232942708333318  4.226432291666689 7.2695312500000036  4.120703125000018 7.2695312500000036  C 4.014973958333346 7.2695312500000036  3.9234374999999932 7.230859375000031  3.8460937499999575 7.1535156249999945  C 3.7687500000000114 7.0761718750000036  3.7300781249999932 6.984635416666651  3.7300781249999932 6.878906250000025  C 3.7300781249999932 6.773177083333309  3.7666666666666355 6.679557291666669  3.8398437500000084 6.5980468749999694  Z M 2.185937500000055 8.81406249999999  C 3.069010416666661 9.696875000000002  4.173697916666672 10.154687499999998  5.5 10.187500000000025  C 6.826562500000055 10.154947916666682  7.931249999999977 9.69713541666664  8.814062499999945 8.81406249999999  C 9.696875000000002 7.930989583333339  10.154687499999998 6.826302083333328  10.187500000000025 5.5  C 10.154947916666636 4.17343749999999  9.69713541666664 3.0687500000000227  8.814062499999945 2.1859375000000103  C 7.930989583333339 1.3031249999999983  6.826302083333328 0.8453125000000017  5.5 0.8124999999999756  C 4.173437499999945 0.8450520833333184  3.0687500000000227 1.3028645833333152  2.185937500000055 2.1859375000000103  C 1.3031249999999983 3.069010416666661  0.8453125000000017 4.173697916666672  0.8124999999999756 5.5  C 0.8450520833333631 6.826562500000011  1.3028645833332706 7.931249999999977  2.185937500000055 8.81406249999999  Z M 9.363671875000023 9.363671875000023  C 8.33424479166667 10.39309895833333  7.046354166666634 10.928124999999998  5.5 10.968749999999984  C 3.9536458333333666 10.928124999999998  2.665755208333329 10.39309895833333  1.6363281249999773 9.363671875000023  C 0.6069010416666255 8.33424479166667  0.07187500000000163 7.046354166666634  0.03125000000001624 5.5  C 0.07187500000000163 3.9536458333333666  0.6069010416666255 2.665755208333329  1.6363281249999773 1.6363281249999773  C 2.665755208333329 0.6069010416666702  3.9536458333333666 0.07187500000000163  5.5 0.03125000000001624  C 7.046354166666634 0.07187500000000163  8.33424479166667 0.6069010416666702  9.363671875000023 1.6363281249999773  C 10.393098958333375 2.665755208333329  10.928124999999998 3.9536458333333666  10.968749999999984 5.5  C 10.928124999999998 7.046354166666634  10.393098958333375 8.33424479166667  9.363671875000023 9.363671875000023  Z " fill-rule="nonzero" fill="rgba(192, 196, 204, 1)" stroke="none" transform="matrix(1 0 0 1 236 9 )" class="fill" />
    <path d="M 3.8398437500000084 6.5980468749999694  L 4.950781249999969 5.5  L 3.8398437500000084 4.401171874999981  C 3.7666666666666355 4.319661458333327  3.7300781249999932 4.226041666666687  3.7300781249999932 4.1203124999999705  C 3.7300781249999932 4.014583333333345  3.7687500000000114 3.923046875000036  3.8460937499999575 3.845703125  C 3.9234374999999932 3.768359374999964  4.014973958333346 3.729687500000036  4.120703125000018 3.729687500000036  C 4.226432291666689 3.729687500000036  4.320052083333329 3.7662760416666328  4.4015624999999385 3.8394531250000057  L 5.500390624999958 4.950390625000011  L 6.599218749999977 3.8394531250000057  C 6.713281249999974 3.7337239583333797  6.841406249999969 3.7011718749999916  6.9835937499999625 3.7417968749999773  C 7.125781249999957 3.7824218750000074  7.217317708333309 3.873958333333361  7.258203125000023 4.016406249999992  C 7.299088541666737 4.15885416666667  7.2665364583333485 4.286979166666665  7.16054687500004 4.400781250000023  L 6.049609374999989 5.499609375000042  L 7.16054687500004 6.598437500000017  C 7.266276041666621 6.712499999999969  7.298828125000008 6.840624999999964  7.258203125000023 6.982812499999958  C 7.2175781250000375 7.1249999999999964  7.1260416666666835 7.216536458333349  6.9835937499999625 7.257421875000017  C 6.841145833333331 7.298307291666686  6.713020833333335 7.265755208333343  6.599218749999977 7.159765624999989  L 5.500390624999958 6.048828124999983  L 4.4015624999999385 7.159765624999989  C 4.320052083333329 7.232942708333318  4.226432291666689 7.2695312500000036  4.120703125000018 7.2695312500000036  C 4.014973958333346 7.2695312500000036  3.9234374999999932 7.230859375000031  3.8460937499999575 7.1535156249999945  C 3.7687500000000114 7.0761718750000036  3.7300781249999932 6.984635416666651  3.7300781249999932 6.878906250000025  C 3.7300781249999932 6.773177083333309  3.7666666666666355 6.679557291666669  3.8398437500000084 6.5980468749999694  Z " stroke-width="0" stroke-dasharray="0" stroke="rgba(255, 255, 255, 0)" fill="none" transform="matrix(1 0 0 1 236 9 )" class="stroke" mask="url(#Clip1043)" />
    <path d="M 2.185937500000055 8.81406249999999  C 3.069010416666661 9.696875000000002  4.173697916666672 10.154687499999998  5.5 10.187500000000025  C 6.826562500000055 10.154947916666682  7.931249999999977 9.69713541666664  8.814062499999945 8.81406249999999  C 9.696875000000002 7.930989583333339  10.154687499999998 6.826302083333328  10.187500000000025 5.5  C 10.154947916666636 4.17343749999999  9.69713541666664 3.0687500000000227  8.814062499999945 2.1859375000000103  C 7.930989583333339 1.3031249999999983  6.826302083333328 0.8453125000000017  5.5 0.8124999999999756  C 4.173437499999945 0.8450520833333184  3.0687500000000227 1.3028645833333152  2.185937500000055 2.1859375000000103  C 1.3031249999999983 3.069010416666661  0.8453125000000017 4.173697916666672  0.8124999999999756 5.5  C 0.8450520833333631 6.826562500000011  1.3028645833332706 7.931249999999977  2.185937500000055 8.81406249999999  Z " stroke-width="0" stroke-dasharray="0" stroke="rgba(255, 255, 255, 0)" fill="none" transform="matrix(1 0 0 1 236 9 )" class="stroke" mask="url(#Clip1043)" />
    <path d="M 9.363671875000023 9.363671875000023  C 8.33424479166667 10.39309895833333  7.046354166666634 10.928124999999998  5.5 10.968749999999984  C 3.9536458333333666 10.928124999999998  2.665755208333329 10.39309895833333  1.6363281249999773 9.363671875000023  C 0.6069010416666255 8.33424479166667  0.07187500000000163 7.046354166666634  0.03125000000001624 5.5  C 0.07187500000000163 3.9536458333333666  0.6069010416666255 2.665755208333329  1.6363281249999773 1.6363281249999773  C 2.665755208333329 0.6069010416666702  3.9536458333333666 0.07187500000000163  5.5 0.03125000000001624  C 7.046354166666634 0.07187500000000163  8.33424479166667 0.6069010416666702  9.363671875000023 1.6363281249999773  C 10.393098958333375 2.665755208333329  10.928124999999998 3.9536458333333666  10.968749999999984 5.5  C 10.928124999999998 7.046354166666634  10.393098958333375 8.33424479166667  9.363671875000023 9.363671875000023  Z " stroke-width="0" stroke-dasharray="0" stroke="rgba(255, 255, 255, 0)" fill="none" transform="matrix(1 0 0 1 236 9 )" class="stroke" mask="url(#Clip1043)" />
  </g>
</svg>