<?xml version="1.0" encoding="utf-8"?>
<svg version="1.1" xmlns:xlink="http://www.w3.org/1999/xlink" width="20px" height="20px" xmlns="http://www.w3.org/2000/svg">
  <defs>
    <mask fill="white" id="clip457">
      <path d="M 19.849099099099092 10.073008849557539  C 19.849099099099092 4.5973451327433725  15.418918918918914 0.15929203539822573  9.954954954954951 0.15929203539822573  C 4.490990990990988 0.15929203539822573  0.060810810810814075 4.5973451327433725  0.060810810810814075 10.073008849557539  C 0.060810810810814075 15.548672566371664  4.490990990990988 19.98672566371681  9.954954954954951 19.98672566371681  C 15.418918918918914 19.98672566371681  19.849099099099092 15.548672566371664  19.849099099099092 10.073008849557539  Z M 11.099099099099092 13.353982300884969  L 11.099099099099092 15.741150442477863  L 8.513513513513509 15.741150442477863  L 8.513513513513509 13.353982300884969  L 11.099099099099092 13.353982300884969  Z M 14.054054054054054 7.081858407079652  C 14.126126126126124 8.188053097345147  13.49324324324325 9.190265486725663  12.15540540540541 10.08849557522122  C 11.168918918918926 10.745575221238926  10.729729729729733 11.384955752212381  10.835585585585576 12.006637168141584  L 10.835585585585576 12.422566371681398  L 8.722972972972975 12.422566371681398  L 8.722972972972975 11.85176991150442  C 8.686936936936931 10.78097345132743  9.146396396396403 9.915929203539845  10.094594594594604 9.258849557522138  C 10.972972972972974 8.56858407079646  11.396396396396398 7.9446902654867255  11.362612612612608 7.3915929203539985  C 11.29279279279279 6.665929203539816  10.887387387387387 6.267699115044252  10.148648648648653 6.199115044247776  C 9.162162162162168 6.199115044247776  8.547297297297298 6.838495575221231  8.301801801801806 8.11725663716814  L 5.92567567567567 7.599557522123876  C 6.349099099099098 5.249999999999976  7.878378378378379 4.108407079646018  10.518018018018012 4.176991150442474  C 12.700450450450447 4.280973451327453  13.878378378378377 5.2477876106194445  14.054054054054054 7.081858407079652  Z " fill-rule="evenodd" />
    </mask>
  </defs>
  <g transform="matrix(1 0 0 1 -9 -32 )">
    <path d="M 19.849099099099092 10.073008849557539  C 19.849099099099092 4.5973451327433725  15.418918918918914 0.15929203539822573  9.954954954954951 0.15929203539822573  C 4.490990990990988 0.15929203539822573  0.060810810810814075 4.5973451327433725  0.060810810810814075 10.073008849557539  C 0.060810810810814075 15.548672566371664  4.490990990990988 19.98672566371681  9.954954954954951 19.98672566371681  C 15.418918918918914 19.98672566371681  19.849099099099092 15.548672566371664  19.849099099099092 10.073008849557539  Z M 11.099099099099092 13.353982300884969  L 11.099099099099092 15.741150442477863  L 8.513513513513509 15.741150442477863  L 8.513513513513509 13.353982300884969  L 11.099099099099092 13.353982300884969  Z M 14.054054054054054 7.081858407079652  C 14.126126126126124 8.188053097345147  13.49324324324325 9.190265486725663  12.15540540540541 10.08849557522122  C 11.168918918918926 10.745575221238926  10.729729729729733 11.384955752212381  10.835585585585576 12.006637168141584  L 10.835585585585576 12.422566371681398  L 8.722972972972975 12.422566371681398  L 8.722972972972975 11.85176991150442  C 8.686936936936931 10.78097345132743  9.146396396396403 9.915929203539845  10.094594594594604 9.258849557522138  C 10.972972972972974 8.56858407079646  11.396396396396398 7.9446902654867255  11.362612612612608 7.3915929203539985  C 11.29279279279279 6.665929203539816  10.887387387387387 6.267699115044252  10.148648648648653 6.199115044247776  C 9.162162162162168 6.199115044247776  8.547297297297298 6.838495575221231  8.301801801801806 8.11725663716814  L 5.92567567567567 7.599557522123876  C 6.349099099099098 5.249999999999976  7.878378378378379 4.108407079646018  10.518018018018012 4.176991150442474  C 12.700450450450447 4.280973451327453  13.878378378378377 5.2477876106194445  14.054054054054054 7.081858407079652  Z " fill-rule="nonzero" fill="#ff9900" stroke="none" transform="matrix(1 0 0 1 9 32 )" />
    <path d="M 19.849099099099092 10.073008849557539  C 19.849099099099092 4.5973451327433725  15.418918918918914 0.15929203539822573  9.954954954954951 0.15929203539822573  C 4.490990990990988 0.15929203539822573  0.060810810810814075 4.5973451327433725  0.060810810810814075 10.073008849557539  C 0.060810810810814075 15.548672566371664  4.490990990990988 19.98672566371681  9.954954954954951 19.98672566371681  C 15.418918918918914 19.98672566371681  19.849099099099092 15.548672566371664  19.849099099099092 10.073008849557539  Z " stroke-width="2" stroke="#f0f6ff" fill="none" transform="matrix(1 0 0 1 9 32 )" mask="url(#clip457)" />
    <path d="M 11.099099099099092 13.353982300884969  L 11.099099099099092 15.741150442477863  L 8.513513513513509 15.741150442477863  L 8.513513513513509 13.353982300884969  L 11.099099099099092 13.353982300884969  Z " stroke-width="2" stroke="#f0f6ff" fill="none" transform="matrix(1 0 0 1 9 32 )" mask="url(#clip457)" />
    <path d="M 14.054054054054054 7.081858407079652  C 14.126126126126124 8.188053097345147  13.49324324324325 9.190265486725663  12.15540540540541 10.08849557522122  C 11.168918918918926 10.745575221238926  10.729729729729733 11.384955752212381  10.835585585585576 12.006637168141584  L 10.835585585585576 12.422566371681398  L 8.722972972972975 12.422566371681398  L 8.722972972972975 11.85176991150442  C 8.686936936936931 10.78097345132743  9.146396396396403 9.915929203539845  10.094594594594604 9.258849557522138  C 10.972972972972974 8.56858407079646  11.396396396396398 7.9446902654867255  11.362612612612608 7.3915929203539985  C 11.29279279279279 6.665929203539816  10.887387387387387 6.267699115044252  10.148648648648653 6.199115044247776  C 9.162162162162168 6.199115044247776  8.547297297297298 6.838495575221231  8.301801801801806 8.11725663716814  L 5.92567567567567 7.599557522123876  C 6.349099099099098 5.249999999999976  7.878378378378379 4.108407079646018  10.518018018018012 4.176991150442474  C 12.700450450450447 4.280973451327453  13.878378378378377 5.2477876106194445  14.054054054054054 7.081858407079652  Z " stroke-width="2" stroke="#f0f6ff" fill="none" transform="matrix(1 0 0 1 9 32 )" mask="url(#clip457)" />
  </g>
</svg>