<?xml version="1.0" encoding="utf-8"?>
<svg version="1.1" xmlns:xlink="http://www.w3.org/1999/xlink" width="64px" height="127px" xmlns="http://www.w3.org/2000/svg">
  <defs>
    <pattern id="BGPattern" patternUnits="userSpaceOnUse" alignment="0 0" imageRepeat="None" />
    <mask fill="white" id="Clip1422">
      <path d="M 63.62352941176471 13.447067696397198  C 63.749138774907465 13.447067696397198  63.87462934681503 13.447499861670849  64 13.448392592368236  L 64 0  C 28.159999999999968 0  0 27.940018435847378  0 63.500041899653304  C 0 99.02450543102873  28.103708304034967 126.94419628552168  64 126.99999836908978  L 63.99999972943863 114.29878031068165  C 63.87462934681503 114.29964325410197  63.749138774907465 114.30007541937562  63.62352941176471 114.30007541937562  C 35.16235294117655 114.30007541937562  12.799999999999955 92.11241372032055  12.799999999999955 63.87357155788663  C 12.799999999999955 35.63472939545227  35.16235294117655 13.447067696397198  63.62352941176471 13.447067696397198  Z M 63.89250333561313 127  C 63.928327863461504 127.00005585943107  63.9641600917505 127.00008379930638  63.89250333561313 127  Z " fill-rule="evenodd" />
    </mask>
  </defs>
  <g transform="matrix(1 0 0 1 -947 -285 )">
    <path d="M 63.62352941176471 13.447067696397198  C 63.749138774907465 13.447067696397198  63.87462934681503 13.447499861670849  64 13.448392592368236  L 64 0  C 28.159999999999968 0  0 27.940018435847378  0 63.500041899653304  C 0 99.02450543102873  28.103708304034967 126.94419628552168  64 126.99999836908978  L 63.99999972943863 114.29878031068165  C 63.87462934681503 114.29964325410197  63.749138774907465 114.30007541937562  63.62352941176471 114.30007541937562  C 35.16235294117655 114.30007541937562  12.799999999999955 92.11241372032055  12.799999999999955 63.87357155788663  C 12.799999999999955 35.63472939545227  35.16235294117655 13.447067696397198  63.62352941176471 13.447067696397198  Z M 63.89250333561313 127  C 63.928327863461504 127.00005585943107  63.9641600917505 127.00008379930638  63.89250333561313 127  Z " fill-rule="nonzero" fill="rgba(244, 174, 149, 1)" stroke="none" transform="matrix(1 0 0 1 947 285 )" class="fill" />
    <path d="M 63.62352941176471 13.447067696397198  C 63.749138774907465 13.447067696397198  63.87462934681503 13.447499861670849  64 13.448392592368236  L 64 0  C 28.159999999999968 0  0 27.940018435847378  0 63.500041899653304  C 0 99.02450543102873  28.103708304034967 126.94419628552168  64 126.99999836908978  L 63.99999972943863 114.29878031068165  C 63.87462934681503 114.29964325410197  63.749138774907465 114.30007541937562  63.62352941176471 114.30007541937562  C 35.16235294117655 114.30007541937562  12.799999999999955 92.11241372032055  12.799999999999955 63.87357155788663  C 12.799999999999955 35.63472939545227  35.16235294117655 13.447067696397198  63.62352941176471 13.447067696397198  Z " stroke-width="0" stroke-dasharray="0" stroke="rgba(13, 13, 13, 1)" fill="none" transform="matrix(1 0 0 1 947 285 )" class="stroke" mask="url(#Clip1422)" />
    <path d="M 63.89250333561313 127  C 63.928327863461504 127.00005585943107  63.9641600917505 127.00008379930638  63.89250333561313 127  Z " stroke-width="0" stroke-dasharray="0" stroke="rgba(13, 13, 13, 1)" fill="none" transform="matrix(1 0 0 1 947 285 )" class="stroke" mask="url(#Clip1422)" />
  </g>
</svg>