<?xml version="1.0" encoding="utf-8"?>
<svg version="1.1" xmlns:xlink="http://www.w3.org/1999/xlink" width="64px" height="127px" xmlns="http://www.w3.org/2000/svg">
  <defs>
    <pattern id="BGPattern" patternUnits="userSpaceOnUse" alignment="0 0" imageRepeat="None" />
    <mask fill="white" id="Clip1421">
      <path d="M 0.3764705882352928 13.44706769639697  C 0.2508612250925353 13.44706769639697  0.12537065318497298 13.447499861670849  0 13.448392592368009  L 0 0  C 35.84000000000003 0  64 27.940018435847378  64 63.500041899653304  C 64 99.02450543102873  35.89629169596503 126.94419628552146  0 126.99999836908978  L 0 114.29878031068165  C 0.12537065318497298 114.29964325410197  0.2508612250925353 114.30007541937562  0.3764705882352928 114.30007541937562  C 28.83764705882345 114.30007541937562  51.200000000000045 92.11241372032055  51.200000000000045 63.87357155788641  C 51.200000000000045 35.634729395452496  28.83764705882345 13.44706769639697  0.3764705882352928 13.44706769639697  Z M 0.107496664386872 127  C 0.07167213653849558 127.00005585943107  0.035839908249499786 127.00008379930638  0.107496664386872 127  Z " fill-rule="evenodd" />
    </mask>
  </defs>
  <g transform="matrix(1 0 0 1 -1381 -285 )">
    <path d="M 0.3764705882352928 13.44706769639697  C 0.2508612250925353 13.44706769639697  0.12537065318497298 13.447499861670849  0 13.448392592368009  L 0 0  C 35.84000000000003 0  64 27.940018435847378  64 63.500041899653304  C 64 99.02450543102873  35.89629169596503 126.94419628552146  0 126.99999836908978  L 0 114.29878031068165  C 0.12537065318497298 114.29964325410197  0.2508612250925353 114.30007541937562  0.3764705882352928 114.30007541937562  C 28.83764705882345 114.30007541937562  51.200000000000045 92.11241372032055  51.200000000000045 63.87357155788641  C 51.200000000000045 35.634729395452496  28.83764705882345 13.44706769639697  0.3764705882352928 13.44706769639697  Z M 0.107496664386872 127  C 0.07167213653849558 127.00005585943107  0.035839908249499786 127.00008379930638  0.107496664386872 127  Z " fill-rule="nonzero" fill="rgba(255, 152, 0, 1)" stroke="none" transform="matrix(1 0 0 1 1381 285 )" class="fill" />
    <path d="M 0.3764705882352928 13.44706769639697  C 0.2508612250925353 13.44706769639697  0.12537065318497298 13.447499861670849  0 13.448392592368009  L 0 0  C 35.84000000000003 0  64 27.940018435847378  64 63.500041899653304  C 64 99.02450543102873  35.89629169596503 126.94419628552146  0 126.99999836908978  L 0 114.29878031068165  C 0.12537065318497298 114.29964325410197  0.2508612250925353 114.30007541937562  0.3764705882352928 114.30007541937562  C 28.83764705882345 114.30007541937562  51.200000000000045 92.11241372032055  51.200000000000045 63.87357155788641  C 51.200000000000045 35.634729395452496  28.83764705882345 13.44706769639697  0.3764705882352928 13.44706769639697  Z " stroke-width="0" stroke-dasharray="0" stroke="rgba(13, 13, 13, 1)" fill="none" transform="matrix(1 0 0 1 1381 285 )" class="stroke" mask="url(#Clip1421)" />
    <path d="M 0.107496664386872 127  C 0.07167213653849558 127.00005585943107  0.035839908249499786 127.00008379930638  0.107496664386872 127  Z " stroke-width="0" stroke-dasharray="0" stroke="rgba(13, 13, 13, 1)" fill="none" transform="matrix(1 0 0 1 1381 285 )" class="stroke" mask="url(#Clip1421)" />
  </g>
</svg>