<?xml version="1.0" encoding="utf-8"?>
<svg version="1.1" xmlns:xlink="http://www.w3.org/1999/xlink" width="101px" height="101px" xmlns="http://www.w3.org/2000/svg">
  <defs>
    <pattern id="BGPattern" patternUnits="userSpaceOnUse" alignment="0 0" imageRepeat="None" />
    <mask fill="white" id="Clip1920">
      <path d="M 0 50.5  C 0 22.22  22.22 0  50.5 0  C 78.78 0  101 22.22  101 50.5  C 101 78.78  78.78 101  50.5 101  C 22.22 101  0 78.78  0 50.5  Z " fill-rule="evenodd" />
    </mask>
  </defs>
  <g transform="matrix(1 0 0 1 -1148 -298 )">
    <path d="M 0 50.5  C 0 22.22  22.22 0  50.5 0  C 78.78 0  101 22.22  101 50.5  C 101 78.78  78.78 101  50.5 101  C 22.22 101  0 78.78  0 50.5  Z " fill-rule="nonzero" fill="rgba(255, 255, 255, 1)" stroke="none" transform="matrix(1 0 0 1 1148 298 )" class="fill" />
    <path d="M 0 50.5  C 0 22.22  22.22 0  50.5 0  C 78.78 0  101 22.22  101 50.5  C 101 78.78  78.78 101  50.5 101  C 22.22 101  0 78.78  0 50.5  Z " stroke-width="0" stroke-dasharray="0" stroke="rgba(240, 246, 255, 1)" fill="none" transform="matrix(1 0 0 1 1148 298 )" class="stroke" mask="url(#Clip1920)" />
  </g>
</svg>