<?xml version="1.0" encoding="utf-8"?>
<svg version="1.1" xmlns:xlink="http://www.w3.org/1999/xlink" width="15px" height="14px" xmlns="http://www.w3.org/2000/svg">
  <defs>
    <linearGradient gradientUnits="userSpaceOnUse" x1="7.5" y1="0" x2="7.5" y2="14" id="LinearGradient372">
      <stop id="Stop373" stop-color="#1ac3ae" offset="0" />
      <stop id="Stop374" stop-color="#1ec695" offset="1" />
    </linearGradient>
    <pattern id="BGPattern" patternUnits="userSpaceOnUse" alignment="0 0" imageRepeat="None" />
    <mask fill="white" id="Clip375">
      <path d="M 0 14  L 0 3  C 0 1.3199999999999996  1.3199999999999998 0  3 0  L 12 0  C 13.68 0  15 1.3199999999999996  15 3  L 15 14  L 0 14  Z " fill-rule="evenodd" />
    </mask>
  </defs>
  <g transform="matrix(1 0 0 1 -238 -449 )">
    <path d="M 0 14  L 0 3  C 0 1.3199999999999996  1.3199999999999998 0  3 0  L 12 0  C 13.68 0  15 1.3199999999999996  15 3  L 15 14  L 0 14  Z " fill-rule="nonzero" fill="url(#LinearGradient372)" stroke="none" transform="matrix(1 0 0 1 238 449 )" class="fill" />
    <path d="M 0 14  L 0 3  C 0 1.3199999999999996  1.3199999999999998 0  3 0  L 12 0  C 13.68 0  15 1.3199999999999996  15 3  L 15 14  L 0 14  Z " stroke-width="0" stroke-dasharray="0" stroke="rgba(240, 246, 255, 1)" fill="none" transform="matrix(1 0 0 1 238 449 )" class="stroke" mask="url(#Clip375)" />
  </g>
</svg>