<?xml version="1.0" encoding="utf-8"?>
<svg version="1.1" xmlns:xlink="http://www.w3.org/1999/xlink" width="15px" height="30px" xmlns="http://www.w3.org/2000/svg">
  <defs>
    <linearGradient gradientUnits="userSpaceOnUse" x1="7.5" y1="0" x2="7.5" y2="30" id="LinearGradient360">
      <stop id="Stop361" stop-color="#1ac3ae" offset="0" />
      <stop id="Stop362" stop-color="#1ec695" offset="1" />
    </linearGradient>
    <pattern id="BGPattern" patternUnits="userSpaceOnUse" alignment="0 0" imageRepeat="None" />
    <mask fill="white" id="Clip363">
      <path d="M 0 30  L 0 3  C 0 1.3199999999999998  1.3199999999999998 0  3 0  L 12 0  C 13.68 0  15 1.3199999999999998  15 3  L 15 30  L 0 30  Z " fill-rule="evenodd" />
    </mask>
  </defs>
  <g transform="matrix(1 0 0 1 -123 -433 )">
    <path d="M 0 30  L 0 3  C 0 1.3199999999999998  1.3199999999999998 0  3 0  L 12 0  C 13.68 0  15 1.3199999999999998  15 3  L 15 30  L 0 30  Z " fill-rule="nonzero" fill="url(#LinearGradient360)" stroke="none" transform="matrix(1 0 0 1 123 433 )" class="fill" />
    <path d="M 0 30  L 0 3  C 0 1.3199999999999998  1.3199999999999998 0  3 0  L 12 0  C 13.68 0  15 1.3199999999999998  15 3  L 15 30  L 0 30  Z " stroke-width="0" stroke-dasharray="0" stroke="rgba(240, 246, 255, 1)" fill="none" transform="matrix(1 0 0 1 123 433 )" class="stroke" mask="url(#Clip363)" />
  </g>
</svg>