<?xml version="1.0" encoding="utf-8"?>
<svg version="1.1" xmlns:xlink="http://www.w3.org/1999/xlink" width="24px" height="24px" xmlns="http://www.w3.org/2000/svg">
  <defs>
    <mask fill="white" id="clip239">
      <path d="M 8.40120967741935 14.380282258064511  L 10.809435483870967 12  L 8.401209677419354 9.618024193548386  C 8.24258064516129 9.441330645161289  8.163266129032259 9.238387096774193  8.163266129032257 9.009193548387096  C 8.163266129032259 8.780000000000001  8.24709677419355 8.581572580645163  8.41475806451613 8.413911290322583  C 8.582419354838711 8.24625  8.780846774193549 8.16241935483871  9.010040322580643 8.16241935483871  C 9.239233870967741 8.16241935483871  9.442177419354838 8.241733870967742  9.618870967741934 8.400362903225806  L 12.000846774193548 10.80858870967742  L 14.382822580645158 8.400362903225806  C 14.63008064516129 8.17116935483871  14.90782258064516 8.100604838709678  15.21604838709677 8.18866935483871  C 15.524274193548385 8.276733870967744  15.722701612903224 8.475161290322582  15.811330645161284 8.783951612903225  C 15.899959677419353 9.09274193548387  15.82939516129032 9.370483870967742  15.599637096774186 9.617177419354839  L 13.191411290322577 11.999153225806452  L 15.599637096774186 14.381129032258066  C 15.828830645161286 14.628387096774194  15.89939516129032 14.906129032258068  15.811330645161284 15.214354838709678  C 15.723266129032258 15.522580645161291  15.524838709677416 15.721008064516129  15.21604838709677 15.809637096774193  C 14.907258064516125 15.898266129032258  14.629516129032254 15.827701612903226  14.382822580645154 15.597943548387093  L 12.000846774193542 13.189717741935484  L 9.61887096774193 15.597943548387093  C 9.442177419354834 15.75657258064516  9.239233870967738 15.835887096774195  9.01004032258064 15.835887096774194  C 8.780846774193543 15.835887096774195  8.582419354838706 15.752056451612901  8.414758064516125 15.584395161290319  C 8.247096774193544 15.41673387096774  8.163266129032253 15.218306451612902  8.163266129032253 14.989112903225806  C 8.163266129032253 14.75991935483871  8.242580645161286 14.55697580645161  8.40120967741935 14.380282258064511  Z M 4.815967741935483 19.18403225806452  C 6.730241935483871 21.097741935483874  9.12491935483871 22.090161290322584  12 22.161290322580644  C 14.875645161290324 22.090725806451616  17.270322580645164 21.098306451612906  19.18403225806452 19.18403225806452  C 21.097741935483874 17.26975806451613  22.090161290322584 14.875080645161294  22.161290322580644 12  C 22.090725806451616 9.124354838709678  21.098306451612906 6.7296774193548385  19.18403225806452 4.815967741935483  C 17.26975806451613 2.90225806451613  14.875080645161294 1.9098387096774205  12 1.838709677419355  C 9.124354838709678 1.9092741935483875  6.7296774193548385 2.901693548387097  4.815967741935483 4.815967741935483  C 2.90225806451613 6.730241935483871  1.9098387096774205 9.12491935483871  1.838709677419355 12  C 1.9092741935483875 14.875645161290324  2.901693548387097 17.270322580645164  4.815967741935483 19.18403225806452  Z M 20.375443548387096 20.375443548387096  C 18.143911290322574 22.60697580645161  15.352096774193548 23.766774193548393  12 23.854838709677416  C 8.647903225806454 23.766774193548393  5.856088709677421 22.606975806451615  3.6245564516129036 20.375443548387096  C 1.3930241935483865 18.143911290322574  0.23322580645161223 15.352096774193548  0.14516129032258063 12  C 0.2332258064516129 8.647903225806454  1.3930241935483876 5.856088709677421  3.6245564516129036 3.6245564516129036  C 5.85608870967742 1.3930241935483865  8.647903225806454 0.23322580645161223  12 0.14516129032258063  C 15.352096774193548 0.2332258064516129  18.143911290322585 1.3930241935483876  20.375443548387096 3.6245564516129036  C 22.60697580645161 5.85608870967742  23.766774193548393 8.647903225806454  23.854838709677416 12  C 23.766774193548393 15.352096774193548  22.606975806451615 18.143911290322585  20.375443548387096 20.375443548387096  Z " fill-rule="evenodd" />
    </mask>
  </defs>
  <g transform="matrix(1 0 0 1 -956 -12 )">
    <path d="M 8.40120967741935 14.380282258064511  L 10.809435483870967 12  L 8.401209677419354 9.618024193548386  C 8.24258064516129 9.441330645161289  8.163266129032259 9.238387096774193  8.163266129032257 9.009193548387096  C 8.163266129032259 8.780000000000001  8.24709677419355 8.581572580645163  8.41475806451613 8.413911290322583  C 8.582419354838711 8.24625  8.780846774193549 8.16241935483871  9.010040322580643 8.16241935483871  C 9.239233870967741 8.16241935483871  9.442177419354838 8.241733870967742  9.618870967741934 8.400362903225806  L 12.000846774193548 10.80858870967742  L 14.382822580645158 8.400362903225806  C 14.63008064516129 8.17116935483871  14.90782258064516 8.100604838709678  15.21604838709677 8.18866935483871  C 15.524274193548385 8.276733870967744  15.722701612903224 8.475161290322582  15.811330645161284 8.783951612903225  C 15.899959677419353 9.09274193548387  15.82939516129032 9.370483870967742  15.599637096774186 9.617177419354839  L 13.191411290322577 11.999153225806452  L 15.599637096774186 14.381129032258066  C 15.828830645161286 14.628387096774194  15.89939516129032 14.906129032258068  15.811330645161284 15.214354838709678  C 15.723266129032258 15.522580645161291  15.524838709677416 15.721008064516129  15.21604838709677 15.809637096774193  C 14.907258064516125 15.898266129032258  14.629516129032254 15.827701612903226  14.382822580645154 15.597943548387093  L 12.000846774193542 13.189717741935484  L 9.61887096774193 15.597943548387093  C 9.442177419354834 15.75657258064516  9.239233870967738 15.835887096774195  9.01004032258064 15.835887096774194  C 8.780846774193543 15.835887096774195  8.582419354838706 15.752056451612901  8.414758064516125 15.584395161290319  C 8.247096774193544 15.41673387096774  8.163266129032253 15.218306451612902  8.163266129032253 14.989112903225806  C 8.163266129032253 14.75991935483871  8.242580645161286 14.55697580645161  8.40120967741935 14.380282258064511  Z M 4.815967741935483 19.18403225806452  C 6.730241935483871 21.097741935483874  9.12491935483871 22.090161290322584  12 22.161290322580644  C 14.875645161290324 22.090725806451616  17.270322580645164 21.098306451612906  19.18403225806452 19.18403225806452  C 21.097741935483874 17.26975806451613  22.090161290322584 14.875080645161294  22.161290322580644 12  C 22.090725806451616 9.124354838709678  21.098306451612906 6.7296774193548385  19.18403225806452 4.815967741935483  C 17.26975806451613 2.90225806451613  14.875080645161294 1.9098387096774205  12 1.838709677419355  C 9.124354838709678 1.9092741935483875  6.7296774193548385 2.901693548387097  4.815967741935483 4.815967741935483  C 2.90225806451613 6.730241935483871  1.9098387096774205 9.12491935483871  1.838709677419355 12  C 1.9092741935483875 14.875645161290324  2.901693548387097 17.270322580645164  4.815967741935483 19.18403225806452  Z M 20.375443548387096 20.375443548387096  C 18.143911290322574 22.60697580645161  15.352096774193548 23.766774193548393  12 23.854838709677416  C 8.647903225806454 23.766774193548393  5.856088709677421 22.606975806451615  3.6245564516129036 20.375443548387096  C 1.3930241935483865 18.143911290322574  0.23322580645161223 15.352096774193548  0.14516129032258063 12  C 0.2332258064516129 8.647903225806454  1.3930241935483876 5.856088709677421  3.6245564516129036 3.6245564516129036  C 5.85608870967742 1.3930241935483865  8.647903225806454 0.23322580645161223  12 0.14516129032258063  C 15.352096774193548 0.2332258064516129  18.143911290322585 1.3930241935483876  20.375443548387096 3.6245564516129036  C 22.60697580645161 5.85608870967742  23.766774193548393 8.647903225806454  23.854838709677416 12  C 23.766774193548393 15.352096774193548  22.606975806451615 18.143911290322585  20.375443548387096 20.375443548387096  Z " fill-rule="nonzero" fill="#333333" stroke="none" transform="matrix(1 0 0 1 956 12 )" />
    <path d="M 8.40120967741935 14.380282258064511  L 10.809435483870967 12  L 8.401209677419354 9.618024193548386  C 8.24258064516129 9.441330645161289  8.163266129032259 9.238387096774193  8.163266129032257 9.009193548387096  C 8.163266129032259 8.780000000000001  8.24709677419355 8.581572580645163  8.41475806451613 8.413911290322583  C 8.582419354838711 8.24625  8.780846774193549 8.16241935483871  9.010040322580643 8.16241935483871  C 9.239233870967741 8.16241935483871  9.442177419354838 8.241733870967742  9.618870967741934 8.400362903225806  L 12.000846774193548 10.80858870967742  L 14.382822580645158 8.400362903225806  C 14.63008064516129 8.17116935483871  14.90782258064516 8.100604838709678  15.21604838709677 8.18866935483871  C 15.524274193548385 8.276733870967744  15.722701612903224 8.475161290322582  15.811330645161284 8.783951612903225  C 15.899959677419353 9.09274193548387  15.82939516129032 9.370483870967742  15.599637096774186 9.617177419354839  L 13.191411290322577 11.999153225806452  L 15.599637096774186 14.381129032258066  C 15.828830645161286 14.628387096774194  15.89939516129032 14.906129032258068  15.811330645161284 15.214354838709678  C 15.723266129032258 15.522580645161291  15.524838709677416 15.721008064516129  15.21604838709677 15.809637096774193  C 14.907258064516125 15.898266129032258  14.629516129032254 15.827701612903226  14.382822580645154 15.597943548387093  L 12.000846774193542 13.189717741935484  L 9.61887096774193 15.597943548387093  C 9.442177419354834 15.75657258064516  9.239233870967738 15.835887096774195  9.01004032258064 15.835887096774194  C 8.780846774193543 15.835887096774195  8.582419354838706 15.752056451612901  8.414758064516125 15.584395161290319  C 8.247096774193544 15.41673387096774  8.163266129032253 15.218306451612902  8.163266129032253 14.989112903225806  C 8.163266129032253 14.75991935483871  8.242580645161286 14.55697580645161  8.40120967741935 14.380282258064511  Z " stroke-width="2" stroke="#666666" fill="none" transform="matrix(1 0 0 1 956 12 )" mask="url(#clip239)" />
    <path d="M 4.815967741935483 19.18403225806452  C 6.730241935483871 21.097741935483874  9.12491935483871 22.090161290322584  12 22.161290322580644  C 14.875645161290324 22.090725806451616  17.270322580645164 21.098306451612906  19.18403225806452 19.18403225806452  C 21.097741935483874 17.26975806451613  22.090161290322584 14.875080645161294  22.161290322580644 12  C 22.090725806451616 9.124354838709678  21.098306451612906 6.7296774193548385  19.18403225806452 4.815967741935483  C 17.26975806451613 2.90225806451613  14.875080645161294 1.9098387096774205  12 1.838709677419355  C 9.124354838709678 1.9092741935483875  6.7296774193548385 2.901693548387097  4.815967741935483 4.815967741935483  C 2.90225806451613 6.730241935483871  1.9098387096774205 9.12491935483871  1.838709677419355 12  C 1.9092741935483875 14.875645161290324  2.901693548387097 17.270322580645164  4.815967741935483 19.18403225806452  Z " stroke-width="2" stroke="#666666" fill="none" transform="matrix(1 0 0 1 956 12 )" mask="url(#clip239)" />
    <path d="M 20.375443548387096 20.375443548387096  C 18.143911290322574 22.60697580645161  15.352096774193548 23.766774193548393  12 23.854838709677416  C 8.647903225806454 23.766774193548393  5.856088709677421 22.606975806451615  3.6245564516129036 20.375443548387096  C 1.3930241935483865 18.143911290322574  0.23322580645161223 15.352096774193548  0.14516129032258063 12  C 0.2332258064516129 8.647903225806454  1.3930241935483876 5.856088709677421  3.6245564516129036 3.6245564516129036  C 5.85608870967742 1.3930241935483865  8.647903225806454 0.23322580645161223  12 0.14516129032258063  C 15.352096774193548 0.2332258064516129  18.143911290322585 1.3930241935483876  20.375443548387096 3.6245564516129036  C 22.60697580645161 5.85608870967742  23.766774193548393 8.647903225806454  23.854838709677416 12  C 23.766774193548393 15.352096774193548  22.606975806451615 18.143911290322585  20.375443548387096 20.375443548387096  Z " stroke-width="2" stroke="#666666" fill="none" transform="matrix(1 0 0 1 956 12 )" mask="url(#clip239)" />
  </g>
</svg>