<?xml version="1.0" encoding="utf-8"?>
<svg version="1.1" xmlns:xlink="http://www.w3.org/1999/xlink" width="9px" height="4px" xmlns="http://www.w3.org/2000/svg">
  <defs>
    <pattern id="BGPattern" patternUnits="userSpaceOnUse" alignment="0 0" imageRepeat="None" />
    <mask fill="white" id="Clip2012">
      <path d="M 7.163999999999981 3.94666666666667  L 7.163999999999981 2.367999999999995  L 8.940000000000003 2.367999999999995  L 8.940000000000003 3.94666666666667  L 7.163999999999981 3.94666666666667  Z M 3.611999999999989 1.5786666666666633  L 3.611999999999989 0  L 5.3880000000000114 0  L 5.3880000000000114 1.5786666666666633  L 3.611999999999989 1.5786666666666633  Z M 7.163999999999981 1.5786666666666633  L 7.163999999999981 0  L 8.940000000000003 0  L 8.940000000000003 1.5786666666666633  L 7.163999999999981 1.5786666666666633  Z M 0.051999999999995335 3.94666666666667  L 0.051999999999995335 2.367999999999995  L 1.8280000000000045 2.367999999999995  L 1.8280000000000045 3.94666666666667  L 0.051999999999995335 3.94666666666667  Z M 3.611999999999989 3.94666666666667  L 3.611999999999989 2.367999999999995  L 5.3880000000000114 2.367999999999995  L 5.3880000000000114 3.94666666666667  L 3.611999999999989 3.94666666666667  Z M 0.051999999999995335 1.5786666666666633  L 0.051999999999995335 0  L 1.8280000000000045 0  L 1.8280000000000045 1.5786666666666633  L 0.051999999999995335 1.5786666666666633  Z " fill-rule="evenodd" />
    </mask>
  </defs>
  <g transform="matrix(1 0 0 1 -115 -74 )">
    <path d="M 7.163999999999981 3.94666666666667  L 7.163999999999981 2.367999999999995  L 8.940000000000003 2.367999999999995  L 8.940000000000003 3.94666666666667  L 7.163999999999981 3.94666666666667  Z M 3.611999999999989 1.5786666666666633  L 3.611999999999989 0  L 5.3880000000000114 0  L 5.3880000000000114 1.5786666666666633  L 3.611999999999989 1.5786666666666633  Z M 7.163999999999981 1.5786666666666633  L 7.163999999999981 0  L 8.940000000000003 0  L 8.940000000000003 1.5786666666666633  L 7.163999999999981 1.5786666666666633  Z M 0.051999999999995335 3.94666666666667  L 0.051999999999995335 2.367999999999995  L 1.8280000000000045 2.367999999999995  L 1.8280000000000045 3.94666666666667  L 0.051999999999995335 3.94666666666667  Z M 3.611999999999989 3.94666666666667  L 3.611999999999989 2.367999999999995  L 5.3880000000000114 2.367999999999995  L 5.3880000000000114 3.94666666666667  L 3.611999999999989 3.94666666666667  Z M 0.051999999999995335 1.5786666666666633  L 0.051999999999995335 0  L 1.8280000000000045 0  L 1.8280000000000045 1.5786666666666633  L 0.051999999999995335 1.5786666666666633  Z " fill-rule="nonzero" fill="rgba(215, 215, 215, 1)" stroke="none" transform="matrix(1 0 0 1 115 74 )" class="fill" />
    <path d="M 7.163999999999981 3.94666666666667  L 7.163999999999981 2.367999999999995  L 8.940000000000003 2.367999999999995  L 8.940000000000003 3.94666666666667  L 7.163999999999981 3.94666666666667  Z " stroke-width="2" stroke-dasharray="0" stroke="rgba(240, 246, 255, 1)" fill="none" transform="matrix(1 0 0 1 115 74 )" class="stroke" mask="url(#Clip2012)" />
    <path d="M 3.611999999999989 1.5786666666666633  L 3.611999999999989 0  L 5.3880000000000114 0  L 5.3880000000000114 1.5786666666666633  L 3.611999999999989 1.5786666666666633  Z " stroke-width="2" stroke-dasharray="0" stroke="rgba(240, 246, 255, 1)" fill="none" transform="matrix(1 0 0 1 115 74 )" class="stroke" mask="url(#Clip2012)" />
    <path d="M 7.163999999999981 1.5786666666666633  L 7.163999999999981 0  L 8.940000000000003 0  L 8.940000000000003 1.5786666666666633  L 7.163999999999981 1.5786666666666633  Z " stroke-width="2" stroke-dasharray="0" stroke="rgba(240, 246, 255, 1)" fill="none" transform="matrix(1 0 0 1 115 74 )" class="stroke" mask="url(#Clip2012)" />
    <path d="M 0.051999999999995335 3.94666666666667  L 0.051999999999995335 2.367999999999995  L 1.8280000000000045 2.367999999999995  L 1.8280000000000045 3.94666666666667  L 0.051999999999995335 3.94666666666667  Z " stroke-width="2" stroke-dasharray="0" stroke="rgba(240, 246, 255, 1)" fill="none" transform="matrix(1 0 0 1 115 74 )" class="stroke" mask="url(#Clip2012)" />
    <path d="M 3.611999999999989 3.94666666666667  L 3.611999999999989 2.367999999999995  L 5.3880000000000114 2.367999999999995  L 5.3880000000000114 3.94666666666667  L 3.611999999999989 3.94666666666667  Z " stroke-width="2" stroke-dasharray="0" stroke="rgba(240, 246, 255, 1)" fill="none" transform="matrix(1 0 0 1 115 74 )" class="stroke" mask="url(#Clip2012)" />
    <path d="M 0.051999999999995335 1.5786666666666633  L 0.051999999999995335 0  L 1.8280000000000045 0  L 1.8280000000000045 1.5786666666666633  L 0.051999999999995335 1.5786666666666633  Z " stroke-width="2" stroke-dasharray="0" stroke="rgba(240, 246, 255, 1)" fill="none" transform="matrix(1 0 0 1 115 74 )" class="stroke" mask="url(#Clip2012)" />
  </g>
</svg>