<?xml version="1.0" encoding="utf-8"?>
<svg version="1.1" xmlns:xlink="http://www.w3.org/1999/xlink" width="10px" height="6px" xmlns="http://www.w3.org/2000/svg">
  <defs>
    <pattern id="BGPattern" patternUnits="userSpaceOnUse" alignment="0 0" imageRepeat="None" />
    <mask fill="white" id="Clip471">
      <path d="M 9.729268292682946 0.07146341463408135  L 9.901951219512199 0.2439024390243958  C 9.997166326422672 0.339146305240547  9.997166326422672 0.49353662158887346  9.901951219512199 0.5887804878050247  L 5.159268292682924 5.331707317073096  C 5.113519937282348 5.377506595861178  5.051441280024164 5.403240647906387  4.986707317073154 5.403240647906387  C 4.921973354122201 5.403240647906387  4.859894696863961 5.377506595861178  4.814146341463413 5.331707317073096  L 0.07146341463416661 0.5887804878050247  C -0.023751692276306358 0.49353662158887346  -0.023751692276306358 0.339146305240547  0.07146341463416661 0.2439024390243958  L 0.2439024390243958 0.07146341463408135  C 0.3391463052404333 -0.02375169227616425  0.49353662158884504 -0.02375169227616425  0.5887804878048826 0.07146341463408135  L 4.986585365853642 4.469268292682955  L 9.384634146341483 0.07146341463408135  C 9.47987801255752 -0.02375169227616425  9.634268328905904 -0.02375169227616425  9.729512195121941 0.07146341463408135  Z " fill-rule="evenodd" />
    </mask>
  </defs>
  <g transform="matrix(1 0 0 1 -796 -57 )">
    <path d="M 9.729268292682946 0.07146341463408135  L 9.901951219512199 0.2439024390243958  C 9.997166326422672 0.339146305240547  9.997166326422672 0.49353662158887346  9.901951219512199 0.5887804878050247  L 5.159268292682924 5.331707317073096  C 5.113519937282348 5.377506595861178  5.051441280024164 5.403240647906387  4.986707317073154 5.403240647906387  C 4.921973354122201 5.403240647906387  4.859894696863961 5.377506595861178  4.814146341463413 5.331707317073096  L 0.07146341463416661 0.5887804878050247  C -0.023751692276306358 0.49353662158887346  -0.023751692276306358 0.339146305240547  0.07146341463416661 0.2439024390243958  L 0.2439024390243958 0.07146341463408135  C 0.3391463052404333 -0.02375169227616425  0.49353662158884504 -0.02375169227616425  0.5887804878048826 0.07146341463408135  L 4.986585365853642 4.469268292682955  L 9.384634146341483 0.07146341463408135  C 9.47987801255752 -0.02375169227616425  9.634268328905904 -0.02375169227616425  9.729512195121941 0.07146341463408135  Z " fill-rule="nonzero" fill="rgba(144, 147, 153, 0.6470588235294118)" stroke="none" transform="matrix(1 0 0 1 796 57 )" class="fill" />
    <path d="M 9.729268292682946 0.07146341463408135  L 9.901951219512199 0.2439024390243958  C 9.997166326422672 0.339146305240547  9.997166326422672 0.49353662158887346  9.901951219512199 0.5887804878050247  L 5.159268292682924 5.331707317073096  C 5.113519937282348 5.377506595861178  5.051441280024164 5.403240647906387  4.986707317073154 5.403240647906387  C 4.921973354122201 5.403240647906387  4.859894696863961 5.377506595861178  4.814146341463413 5.331707317073096  L 0.07146341463416661 0.5887804878050247  C -0.023751692276306358 0.49353662158887346  -0.023751692276306358 0.339146305240547  0.07146341463416661 0.2439024390243958  L 0.2439024390243958 0.07146341463408135  C 0.3391463052404333 -0.02375169227616425  0.49353662158884504 -0.02375169227616425  0.5887804878048826 0.07146341463408135  L 4.986585365853642 4.469268292682955  L 9.384634146341483 0.07146341463408135  C 9.47987801255752 -0.02375169227616425  9.634268328905904 -0.02375169227616425  9.729512195121941 0.07146341463408135  Z " stroke-width="0" stroke-dasharray="0" stroke="rgba(255, 255, 255, 0)" fill="none" transform="matrix(1 0 0 1 796 57 )" class="stroke" mask="url(#Clip471)" />
  </g>
</svg>