<?xml version="1.0" encoding="utf-8"?>
<svg version="1.1" xmlns:xlink="http://www.w3.org/1999/xlink" width="10px" height="10px" xmlns="http://www.w3.org/2000/svg">
  <defs>
    <pattern id="BGPattern" patternUnits="userSpaceOnUse" alignment="0 0" imageRepeat="None" />
    <mask fill="white" id="Clip250">
      <path d="M 9.648148148147962 9.648148148148152  C 10.037037037036878 9.26543209876551  10.037037037036878 8.63580246913576  9.648148148147962 8.253086419753117  L 6.395061728395225 5  L 9.648148148147962 1.7469135802468827  C 10.030864197530793 1.364197530864241  10.030864197530793 0.7345679012344892  9.648148148147962 0.35185185185184764  C 9.26543209876551 -0.030864197530794023  8.635802469135948 -0.030864197530794023  8.253086419753117 0.35185185185184764  L 5 3.604938271604965  L 1.7469135802468827 0.35185185185184764  C 1.3641975308640517 -0.030864197530794023  0.7839506172839112 -0.08641975308648853  0.35185185185203716 0.35185185185184764  C -0.08641975308629904 0.7901234567901838  -0.018518518518627996 1.3765432098765964  0.35185185185203716 1.7469135802468827  L 3.6049382716047758 5  L 0.35185185185203716 8.253086419753117  C -0.061728395061588046 8.666666666666742  -0.04320987654333901 9.259259259259238  0.35185185185203716 9.648148148148152  C 0.7469135802470344 10.043209876543148  1.3641975308640517 10.030864197530793  1.7469135802468827 9.648148148148152  L 5 6.395061728395035  L 8.253086419753117 9.648148148148152  C 8.635802469135948 10.030864197530793  9.26543209876551 10.030864197530793  9.648148148147962 9.648148148148152  Z " fill-rule="evenodd" />
    </mask>
  </defs>
  <g transform="matrix(1 0 0 1 -889 -12 )">
    <path d="M 9.648148148147962 9.648148148148152  C 10.037037037036878 9.26543209876551  10.037037037036878 8.63580246913576  9.648148148147962 8.253086419753117  L 6.395061728395225 5  L 9.648148148147962 1.7469135802468827  C 10.030864197530793 1.364197530864241  10.030864197530793 0.7345679012344892  9.648148148147962 0.35185185185184764  C 9.26543209876551 -0.030864197530794023  8.635802469135948 -0.030864197530794023  8.253086419753117 0.35185185185184764  L 5 3.604938271604965  L 1.7469135802468827 0.35185185185184764  C 1.3641975308640517 -0.030864197530794023  0.7839506172839112 -0.08641975308648853  0.35185185185203716 0.35185185185184764  C -0.08641975308629904 0.7901234567901838  -0.018518518518627996 1.3765432098765964  0.35185185185203716 1.7469135802468827  L 3.6049382716047758 5  L 0.35185185185203716 8.253086419753117  C -0.061728395061588046 8.666666666666742  -0.04320987654333901 9.259259259259238  0.35185185185203716 9.648148148148152  C 0.7469135802470344 10.043209876543148  1.3641975308640517 10.030864197530793  1.7469135802468827 9.648148148148152  L 5 6.395061728395035  L 8.253086419753117 9.648148148148152  C 8.635802469135948 10.030864197530793  9.26543209876551 10.030864197530793  9.648148148147962 9.648148148148152  Z " fill-rule="nonzero" fill="rgba(96, 98, 102, 1)" stroke="none" transform="matrix(1 0 0 1 889 12 )" class="fill" />
    <path d="M 9.648148148147962 9.648148148148152  C 10.037037037036878 9.26543209876551  10.037037037036878 8.63580246913576  9.648148148147962 8.253086419753117  L 6.395061728395225 5  L 9.648148148147962 1.7469135802468827  C 10.030864197530793 1.364197530864241  10.030864197530793 0.7345679012344892  9.648148148147962 0.35185185185184764  C 9.26543209876551 -0.030864197530794023  8.635802469135948 -0.030864197530794023  8.253086419753117 0.35185185185184764  L 5 3.604938271604965  L 1.7469135802468827 0.35185185185184764  C 1.3641975308640517 -0.030864197530794023  0.7839506172839112 -0.08641975308648853  0.35185185185203716 0.35185185185184764  C -0.08641975308629904 0.7901234567901838  -0.018518518518627996 1.3765432098765964  0.35185185185203716 1.7469135802468827  L 3.6049382716047758 5  L 0.35185185185203716 8.253086419753117  C -0.061728395061588046 8.666666666666742  -0.04320987654333901 9.259259259259238  0.35185185185203716 9.648148148148152  C 0.7469135802470344 10.043209876543148  1.3641975308640517 10.030864197530793  1.7469135802468827 9.648148148148152  L 5 6.395061728395035  L 8.253086419753117 9.648148148148152  C 8.635802469135948 10.030864197530793  9.26543209876551 10.030864197530793  9.648148148147962 9.648148148148152  Z " stroke-width="0" stroke-dasharray="0" stroke="rgba(255, 255, 255, 0)" fill="none" transform="matrix(1 0 0 1 889 12 )" class="stroke" mask="url(#Clip250)" />
  </g>
</svg>