<?xml version="1.0" encoding="utf-8"?>
<svg version="1.1" xmlns:xlink="http://www.w3.org/1999/xlink" width="14px" height="14px" xmlns="http://www.w3.org/2000/svg">
  <defs>
    <pattern id="BGPattern" patternUnits="userSpaceOnUse" alignment="0 0" imageRepeat="None" />
    <mask fill="white" id="Clip242">
      <path d="M 1.0691692307692302 5.268092307692308  C 1.0691692307692302 7.647661538461539  2.9972923076923057 9.575784615384615  5.376861538461539 9.575784615384615  C 7.756430769230769 9.575784615384615  9.684553846153845 7.647661538461539  9.684553846153845 5.268092307692308  C 9.684553846153845 2.888523076923075  7.756430769230769 0.9603999999999999  5.376861538461539 0.9603999999999999  C 2.9972923076923057 0.9603999999999999  1.0691692307692302 2.888523076923075  1.0691692307692302 5.268092307692308  Z M 10.642584615384616 5.268092307692308  C 10.64086153846154 6.53627692307692  10.192861538461536 7.699353846153849  9.446769230769233 8.60913846153846  L 13.749292307692304 12.911661538461532  C 13.935384615384613 13.097753846153841  13.935384615384613 13.40101538461538  13.749292307692304 13.588830769230766  C 13.563199999999997 13.774923076923073  13.259938461538464 13.774923076923073  13.072123076923079 13.588830769230766  L 8.774769230769234 9.289753846153843  C 7.858092307692307 10.065138461538464  6.672615384615384 10.53209230769231  5.376861538461539 10.53209230769231  C 2.4683076923076928 10.53209230769231  0.11113846153846318 8.174923076923074  0.11113846153846318 5.268092307692308  C 0.11113846153846318 2.361261538461541  2.4683076923076928 0.0023692307692295836  5.376861538461539 0.0023692307692295836  C 8.285415384615387 0.0023692307692295836  10.642584615384616 2.3595384615384623  10.642584615384616 5.268092307692308  Z " fill-rule="evenodd" />
    </mask>
  </defs>
  <g transform="matrix(1 0 0 1 -510 -69 )">
    <path d="M 1.0691692307692302 5.268092307692308  C 1.0691692307692302 7.647661538461539  2.9972923076923057 9.575784615384615  5.376861538461539 9.575784615384615  C 7.756430769230769 9.575784615384615  9.684553846153845 7.647661538461539  9.684553846153845 5.268092307692308  C 9.684553846153845 2.888523076923075  7.756430769230769 0.9603999999999999  5.376861538461539 0.9603999999999999  C 2.9972923076923057 0.9603999999999999  1.0691692307692302 2.888523076923075  1.0691692307692302 5.268092307692308  Z M 10.642584615384616 5.268092307692308  C 10.64086153846154 6.53627692307692  10.192861538461536 7.699353846153849  9.446769230769233 8.60913846153846  L 13.749292307692304 12.911661538461532  C 13.935384615384613 13.097753846153841  13.935384615384613 13.40101538461538  13.749292307692304 13.588830769230766  C 13.563199999999997 13.774923076923073  13.259938461538464 13.774923076923073  13.072123076923079 13.588830769230766  L 8.774769230769234 9.289753846153843  C 7.858092307692307 10.065138461538464  6.672615384615384 10.53209230769231  5.376861538461539 10.53209230769231  C 2.4683076923076928 10.53209230769231  0.11113846153846318 8.174923076923074  0.11113846153846318 5.268092307692308  C 0.11113846153846318 2.361261538461541  2.4683076923076928 0.0023692307692295836  5.376861538461539 0.0023692307692295836  C 8.285415384615387 0.0023692307692295836  10.642584615384616 2.3595384615384623  10.642584615384616 5.268092307692308  Z " fill-rule="nonzero" fill="rgba(255, 255, 255, 1)" stroke="none" transform="matrix(1 0 0 1 510 69 )" class="fill" />
    <path d="M 1.0691692307692302 5.268092307692308  C 1.0691692307692302 7.647661538461539  2.9972923076923057 9.575784615384615  5.376861538461539 9.575784615384615  C 7.756430769230769 9.575784615384615  9.684553846153845 7.647661538461539  9.684553846153845 5.268092307692308  C 9.684553846153845 2.888523076923075  7.756430769230769 0.9603999999999999  5.376861538461539 0.9603999999999999  C 2.9972923076923057 0.9603999999999999  1.0691692307692302 2.888523076923075  1.0691692307692302 5.268092307692308  Z " stroke-width="0" stroke-dasharray="0" stroke="rgba(240, 246, 255, 1)" fill="none" transform="matrix(1 0 0 1 510 69 )" class="stroke" mask="url(#Clip242)" />
    <path d="M 10.642584615384616 5.268092307692308  C 10.64086153846154 6.53627692307692  10.192861538461536 7.699353846153849  9.446769230769233 8.60913846153846  L 13.749292307692304 12.911661538461532  C 13.935384615384613 13.097753846153841  13.935384615384613 13.40101538461538  13.749292307692304 13.588830769230766  C 13.563199999999997 13.774923076923073  13.259938461538464 13.774923076923073  13.072123076923079 13.588830769230766  L 8.774769230769234 9.289753846153843  C 7.858092307692307 10.065138461538464  6.672615384615384 10.53209230769231  5.376861538461539 10.53209230769231  C 2.4683076923076928 10.53209230769231  0.11113846153846318 8.174923076923074  0.11113846153846318 5.268092307692308  C 0.11113846153846318 2.361261538461541  2.4683076923076928 0.0023692307692295836  5.376861538461539 0.0023692307692295836  C 8.285415384615387 0.0023692307692295836  10.642584615384616 2.3595384615384623  10.642584615384616 5.268092307692308  Z " stroke-width="0" stroke-dasharray="0" stroke="rgba(240, 246, 255, 1)" fill="none" transform="matrix(1 0 0 1 510 69 )" class="stroke" mask="url(#Clip242)" />
  </g>
</svg>