<?xml version="1.0" encoding="utf-8"?>
<svg version="1.1" xmlns:xlink="http://www.w3.org/1999/xlink" width="12px" height="9px" xmlns="http://www.w3.org/2000/svg">
  <defs>
    <pattern id="BGPattern" patternUnits="userSpaceOnUse" alignment="0 0" imageRepeat="None" />
    <mask fill="white" id="Clip305">
      <path d="M 11.890909090909076 0.7433198380566708  C 12.02181818181819 0.5684210526315709  12.02181818181819 0.30607287449393183  11.847272727272724 0.131174089068832  C 11.672727272727286 -0.043724696356267856  11.410909090909115 -0.043724696356267856  11.236363636363649 0.131174089068832  L 4.167272727272717 7.2582995951417  L 0.7636363636363512 3.8477732793522215  C 0.5890909090908849 3.672874493927118  0.32727272727271384 3.672874493927118  0.15272727272727593 3.8477732793522215  C -0.021818181818190396 4.022672064777321  -0.021818181818190396 4.285020242914985  0.15272727272727593 4.459919028340089  L 3.861818181818194 8.176518218623475  C 4.036363636363632 8.351417004048574  4.298181818181831 8.351417004048574  4.472727272727269 8.176518218623475  L 11.890909090909076 0.7433198380566708  Z " fill-rule="evenodd" />
    </mask>
  </defs>
  <g transform="matrix(1 0 0 1 -213 -11 )">
    <path d="M 11.890909090909076 0.7433198380566708  C 12.02181818181819 0.5684210526315709  12.02181818181819 0.30607287449393183  11.847272727272724 0.131174089068832  C 11.672727272727286 -0.043724696356267856  11.410909090909115 -0.043724696356267856  11.236363636363649 0.131174089068832  L 4.167272727272717 7.2582995951417  L 0.7636363636363512 3.8477732793522215  C 0.5890909090908849 3.672874493927118  0.32727272727271384 3.672874493927118  0.15272727272727593 3.8477732793522215  C -0.021818181818190396 4.022672064777321  -0.021818181818190396 4.285020242914985  0.15272727272727593 4.459919028340089  L 3.861818181818194 8.176518218623475  C 4.036363636363632 8.351417004048574  4.298181818181831 8.351417004048574  4.472727272727269 8.176518218623475  L 11.890909090909076 0.7433198380566708  Z " fill-rule="nonzero" fill="rgba(255, 255, 255, 1)" stroke="none" transform="matrix(1 0 0 1 213 11 )" class="fill" />
    <path d="M 11.890909090909076 0.7433198380566708  C 12.02181818181819 0.5684210526315709  12.02181818181819 0.30607287449393183  11.847272727272724 0.131174089068832  C 11.672727272727286 -0.043724696356267856  11.410909090909115 -0.043724696356267856  11.236363636363649 0.131174089068832  L 4.167272727272717 7.2582995951417  L 0.7636363636363512 3.8477732793522215  C 0.5890909090908849 3.672874493927118  0.32727272727271384 3.672874493927118  0.15272727272727593 3.8477732793522215  C -0.021818181818190396 4.022672064777321  -0.021818181818190396 4.285020242914985  0.15272727272727593 4.459919028340089  L 3.861818181818194 8.176518218623475  C 4.036363636363632 8.351417004048574  4.298181818181831 8.351417004048574  4.472727272727269 8.176518218623475  L 11.890909090909076 0.7433198380566708  Z " stroke-width="0" stroke-dasharray="0" stroke="rgba(255, 255, 255, 0)" fill="none" transform="matrix(1 0 0 1 213 11 )" class="stroke" mask="url(#Clip305)" />
  </g>
</svg>