<?xml version="1.0" encoding="utf-8"?>
<svg version="1.1" xmlns:xlink="http://www.w3.org/1999/xlink" width="14px" height="14px" xmlns="http://www.w3.org/2000/svg">
  <g transform="matrix(1 0 0 1 -993 -999 )">
    <path d="M 1000 999  C 1003.92 999  1007 1002.08  1007 1006  C 1007 1009.92  1003.92 1013  1000 1013  C 996.08 1013  993 1009.92  993 1006  C 993 1002.08  996.08 999  1000 999  Z " fill-rule="nonzero" fill="#f3f3f3" stroke="none" />
    <path d="M 1000 999.5  C 1003.64 999.5  1006.5 1002.36  1006.5 1006  C 1006.5 1009.64  1003.64 1012.5  1000 1012.5  C 996.36 1012.5  993.5 1009.64  993.5 1006  C 993.5 1002.36  996.36 999.5  1000 999.5  Z " stroke-width="1" stroke="#2c8cf0" fill="none" />
  </g>
</svg>