<?xml version="1.0" encoding="utf-8"?>
<svg version="1.1" xmlns:xlink="http://www.w3.org/1999/xlink" width="8px" height="8px" xmlns="http://www.w3.org/2000/svg">
  <g transform="matrix(1 0 0 1 -996 -1002 )">
    <path d="M 1000 1002  C 1002.24 1002  1004 1003.76  1004 1006  C 1004 1008.24  1002.24 1010  1000 1010  C 997.76 1010  996 1008.24  996 1006  C 996 1003.76  997.76 1002  1000 1002  Z " fill-rule="nonzero" fill="#2c8cf0" stroke="none" />
    <path d="M 1000 1002.5  C 1001.96 1002.5  1003.5 1004.04  1003.5 1006  C 1003.5 1007.96  1001.96 1009.5  1000 1009.5  C 998.04 1009.5  996.5 1007.96  996.5 1006  C 996.5 1004.04  998.04 1002.5  1000 1002.5  Z " stroke-width="1" stroke="#2c8cf0" fill="none" />
  </g>
</svg>