<?xml version="1.0" encoding="utf-8"?>
<svg version="1.1" xmlns:xlink="http://www.w3.org/1999/xlink" width="10px" height="10px" xmlns="http://www.w3.org/2000/svg">
  <defs>
    <pattern id="BGPattern" patternUnits="userSpaceOnUse" alignment="0 0" imageRepeat="None" />
    <mask fill="white" id="Clip706">
      <path d="M 9.080145717213128 3.139555560000005  C 9.371584692622946 3.111111120000004  10.187613842213125 3.0826666699999947  9.954462663934436 4.362666669999996  L 8.876138432377047 8.913777780000004  C 8.81785063524589 9.511111110000002  8.351548268442627 9.937777780000005  7.76867030737705 9.937777780000005  L 0.7158469979508197 9.937777780000005  C 0.4244080225409732 9.937777780000005  0.07468123975408503 9.966222219999992  0.045537336065564205 9.624888889999994  L 0.045537336065564205 4.419555560000006  C 0.016393442622955945 4.021333339999998  0.4535519057376973 3.964444450000002  0.6284152971311414 3.964444439999994  L 1.5027322438524493 3.964444439999994  C 2.0273224077868974 3.964444439999994  2.639344262295083 3.708444439999994  2.8433515471311352 3.480888890000003  C 3.1930783196721393 3.0542222199999998  3.48451730532787 2.485333330000003  3.659380696721314 1.8311111099999948  C 3.7176684938524716 1.6604444400000062  3.74681238729508 1.4897777799999972  3.7759562807377165 1.3191111099999944  L 3.8342440778688456 1.0631111099999941  C 3.8633879713114823 0.8640000000000043  3.9216757684426113 0.6364444400000053  4.067395266393447 0.4373333300000013  C 4.21311475409837 0.2097777700000023  4.47540983606558 0.06755554999999447  4.73770491803279 0.010666670000006206  C 4.9417122028688425 -0.01777776999999503  5.174863391393444 0.010666670000006206  5.349726772540976 0.09600000000000364  C 5.641165747950822 0.23822221999999726  5.874316936475424 0.5226666700000067  5.99089253073771 0.9208888900000005  C 6.020036424180319 1.0631111099999941  6.049180327868839 1.233777779999997  6.049180327868839 1.404444440000006  C 6.049180327868839 1.6035555499999958  6.020036434426231 1.7742222199999986  5.99089253073771 1.9448888900000014  L 5.99089253073771 2.0017777799999976  C 5.961748637295074 2.2293333399999966  5.903460840163945 2.456888890000002  5.903460840163945 2.656000000000006  C 5.903460840163945 2.940444439999993  6.194899815573763 3.139555560000005  6.4571948975409725 3.139555560000005  L 9.080145717213128 3.139555560000005  Z M 8.788706741803281 3.680000000000007  L 6.165755922131154 3.680000000000007  C 5.5537340676229405 3.680000000000007  5.320582879098367 3.2817777799999988  5.2914389754098465 2.656000000000006  C 5.2914389754098465 2.3715555600000044  5.320582868852455 2.115555560000004  5.378870676229496 1.859555560000004  L 5.378870676229496 1.8026666699999936  C 5.408014569672133 1.66044445  5.437158473360654 1.5182222300000063  5.437158473360654 1.404444440000006  C 5.437158473360654 1.2906666599999994  5.408014579918046 1.176888880000007  5.378870676229496 1.0631111099999941  C 5.349726782786888 0.9493333300000018  5.26229508196721 0.7502222199999977  5.087431690573766 0.6648888900000003  C 5 0.636444449999999  4.912568299180322 0.6080000000000041  4.825136608606556 0.6364444400000053  C 4.708561014344269 0.6364444400000053  4.621129323770504 0.6933333300000015  4.533697633196709 0.7786666700000069  C 4.47540983606558 0.8640000000000043  4.446265942622944 1.0346666700000071  4.417122038934423 1.1768888900000007  L 4.358834241803265 1.432888890000001  C 4.329690348360657 1.632000000000005  4.2714025512294995 1.8026666699999936  4.21311475409837 2.0017777799999976  C 4.00910746926229 2.741333339999997  3.6885245901639223 3.367111109999996  3.280510020491789 3.8791111099999966  C 2.8724954508196845 4.391111109999997  1.8816029200819742 4.533333330000005  1.5027322438524493 4.533333330000005  L 1.2112932581967186 4.533333330000005  C 0.9198542827868721 4.533333330000005  0.6284152971311414 4.533333330000005  0.6284152971311414 4.81777778  L 0.6284152971311414 9.084444439999999  C 0.6284152971311414 9.36888888  0.9489981762295088 9.36888888  1.2112932581967186 9.368888889999994  L 7.622950819672127 9.368888889999994  C 7.885245901639337 9.368888889999994  8.234972674180312 9.112888889999994  8.264116577868862 8.856888889999993  L 9.371584702868859 4.2488888900000035  C 9.429872499999988 3.8791111099999966  9.313296905737701 3.6515555600000056  8.788706741803281 3.680000000000007  Z M 2.377049180327873 9.368888889999994  C 2.377049180327873 9.454222220000005  2.23132969262295 9.454222220000005  2.1730418954917923 9.511111110000002  C 2.114754098360663 9.567999999999998  2.0273224077868974 9.596444439999999  1.96903461065574 9.596444439999999  C 1.8816029200819742 9.596444439999999  1.8233151229508167 9.567999999999998  1.7650273258196592 9.511111110000002  C 1.6775956352458934 9.454222220000005  1.7941712192622958 9.454222220000005  1.7941712192622958 9.368888889999994  L 1.7941712192622958 4.533333330000005  C 1.7941712192622958 4.362666660000002  1.7941712192622958 4.163555549999998  1.96903461065574 4.163555560000006  C 2.143898002049184 4.16355557  2.377049180327873 4.192000000000007  2.377049180327873 4.362666669999996  L 2.377049180327873 9.368888889999994  Z " fill-rule="evenodd" />
    </mask>
  </defs>
  <g transform="matrix(1 0 0 1 -73 -72 )">
    <path d="M 9.080145717213128 3.139555560000005  C 9.371584692622946 3.111111120000004  10.187613842213125 3.0826666699999947  9.954462663934436 4.362666669999996  L 8.876138432377047 8.913777780000004  C 8.81785063524589 9.511111110000002  8.351548268442627 9.937777780000005  7.76867030737705 9.937777780000005  L 0.7158469979508197 9.937777780000005  C 0.4244080225409732 9.937777780000005  0.07468123975408503 9.966222219999992  0.045537336065564205 9.624888889999994  L 0.045537336065564205 4.419555560000006  C 0.016393442622955945 4.021333339999998  0.4535519057376973 3.964444450000002  0.6284152971311414 3.964444439999994  L 1.5027322438524493 3.964444439999994  C 2.0273224077868974 3.964444439999994  2.639344262295083 3.708444439999994  2.8433515471311352 3.480888890000003  C 3.1930783196721393 3.0542222199999998  3.48451730532787 2.485333330000003  3.659380696721314 1.8311111099999948  C 3.7176684938524716 1.6604444400000062  3.74681238729508 1.4897777799999972  3.7759562807377165 1.3191111099999944  L 3.8342440778688456 1.0631111099999941  C 3.8633879713114823 0.8640000000000043  3.9216757684426113 0.6364444400000053  4.067395266393447 0.4373333300000013  C 4.21311475409837 0.2097777700000023  4.47540983606558 0.06755554999999447  4.73770491803279 0.010666670000006206  C 4.9417122028688425 -0.01777776999999503  5.174863391393444 0.010666670000006206  5.349726772540976 0.09600000000000364  C 5.641165747950822 0.23822221999999726  5.874316936475424 0.5226666700000067  5.99089253073771 0.9208888900000005  C 6.020036424180319 1.0631111099999941  6.049180327868839 1.233777779999997  6.049180327868839 1.404444440000006  C 6.049180327868839 1.6035555499999958  6.020036434426231 1.7742222199999986  5.99089253073771 1.9448888900000014  L 5.99089253073771 2.0017777799999976  C 5.961748637295074 2.2293333399999966  5.903460840163945 2.456888890000002  5.903460840163945 2.656000000000006  C 5.903460840163945 2.940444439999993  6.194899815573763 3.139555560000005  6.4571948975409725 3.139555560000005  L 9.080145717213128 3.139555560000005  Z M 8.788706741803281 3.680000000000007  L 6.165755922131154 3.680000000000007  C 5.5537340676229405 3.680000000000007  5.320582879098367 3.2817777799999988  5.2914389754098465 2.656000000000006  C 5.2914389754098465 2.3715555600000044  5.320582868852455 2.115555560000004  5.378870676229496 1.859555560000004  L 5.378870676229496 1.8026666699999936  C 5.408014569672133 1.66044445  5.437158473360654 1.5182222300000063  5.437158473360654 1.404444440000006  C 5.437158473360654 1.2906666599999994  5.408014579918046 1.176888880000007  5.378870676229496 1.0631111099999941  C 5.349726782786888 0.9493333300000018  5.26229508196721 0.7502222199999977  5.087431690573766 0.6648888900000003  C 5 0.636444449999999  4.912568299180322 0.6080000000000041  4.825136608606556 0.6364444400000053  C 4.708561014344269 0.6364444400000053  4.621129323770504 0.6933333300000015  4.533697633196709 0.7786666700000069  C 4.47540983606558 0.8640000000000043  4.446265942622944 1.0346666700000071  4.417122038934423 1.1768888900000007  L 4.358834241803265 1.432888890000001  C 4.329690348360657 1.632000000000005  4.2714025512294995 1.8026666699999936  4.21311475409837 2.0017777799999976  C 4.00910746926229 2.741333339999997  3.6885245901639223 3.367111109999996  3.280510020491789 3.8791111099999966  C 2.8724954508196845 4.391111109999997  1.8816029200819742 4.533333330000005  1.5027322438524493 4.533333330000005  L 1.2112932581967186 4.533333330000005  C 0.9198542827868721 4.533333330000005  0.6284152971311414 4.533333330000005  0.6284152971311414 4.81777778  L 0.6284152971311414 9.084444439999999  C 0.6284152971311414 9.36888888  0.9489981762295088 9.36888888  1.2112932581967186 9.368888889999994  L 7.622950819672127 9.368888889999994  C 7.885245901639337 9.368888889999994  8.234972674180312 9.112888889999994  8.264116577868862 8.856888889999993  L 9.371584702868859 4.2488888900000035  C 9.429872499999988 3.8791111099999966  9.313296905737701 3.6515555600000056  8.788706741803281 3.680000000000007  Z M 2.377049180327873 9.368888889999994  C 2.377049180327873 9.454222220000005  2.23132969262295 9.454222220000005  2.1730418954917923 9.511111110000002  C 2.114754098360663 9.567999999999998  2.0273224077868974 9.596444439999999  1.96903461065574 9.596444439999999  C 1.8816029200819742 9.596444439999999  1.8233151229508167 9.567999999999998  1.7650273258196592 9.511111110000002  C 1.6775956352458934 9.454222220000005  1.7941712192622958 9.454222220000005  1.7941712192622958 9.368888889999994  L 1.7941712192622958 4.533333330000005  C 1.7941712192622958 4.362666660000002  1.7941712192622958 4.163555549999998  1.96903461065574 4.163555560000006  C 2.143898002049184 4.16355557  2.377049180327873 4.192000000000007  2.377049180327873 4.362666669999996  L 2.377049180327873 9.368888889999994  Z " fill-rule="nonzero" fill="rgba(0, 0, 0, 0.4470588235294118)" stroke="none" transform="matrix(1 0 0 1 73 72 )" class="fill" />
    <path d="M 9.080145717213128 3.139555560000005  C 9.371584692622946 3.111111120000004  10.187613842213125 3.0826666699999947  9.954462663934436 4.362666669999996  L 8.876138432377047 8.913777780000004  C 8.81785063524589 9.511111110000002  8.351548268442627 9.937777780000005  7.76867030737705 9.937777780000005  L 0.7158469979508197 9.937777780000005  C 0.4244080225409732 9.937777780000005  0.07468123975408503 9.966222219999992  0.045537336065564205 9.624888889999994  L 0.045537336065564205 4.419555560000006  C 0.016393442622955945 4.021333339999998  0.4535519057376973 3.964444450000002  0.6284152971311414 3.964444439999994  L 1.5027322438524493 3.964444439999994  C 2.0273224077868974 3.964444439999994  2.639344262295083 3.708444439999994  2.8433515471311352 3.480888890000003  C 3.1930783196721393 3.0542222199999998  3.48451730532787 2.485333330000003  3.659380696721314 1.8311111099999948  C 3.7176684938524716 1.6604444400000062  3.74681238729508 1.4897777799999972  3.7759562807377165 1.3191111099999944  L 3.8342440778688456 1.0631111099999941  C 3.8633879713114823 0.8640000000000043  3.9216757684426113 0.6364444400000053  4.067395266393447 0.4373333300000013  C 4.21311475409837 0.2097777700000023  4.47540983606558 0.06755554999999447  4.73770491803279 0.010666670000006206  C 4.9417122028688425 -0.01777776999999503  5.174863391393444 0.010666670000006206  5.349726772540976 0.09600000000000364  C 5.641165747950822 0.23822221999999726  5.874316936475424 0.5226666700000067  5.99089253073771 0.9208888900000005  C 6.020036424180319 1.0631111099999941  6.049180327868839 1.233777779999997  6.049180327868839 1.404444440000006  C 6.049180327868839 1.6035555499999958  6.020036434426231 1.7742222199999986  5.99089253073771 1.9448888900000014  L 5.99089253073771 2.0017777799999976  C 5.961748637295074 2.2293333399999966  5.903460840163945 2.456888890000002  5.903460840163945 2.656000000000006  C 5.903460840163945 2.940444439999993  6.194899815573763 3.139555560000005  6.4571948975409725 3.139555560000005  L 9.080145717213128 3.139555560000005  Z " stroke-width="0" stroke-dasharray="0" stroke="rgba(255, 255, 255, 0)" fill="none" transform="matrix(1 0 0 1 73 72 )" class="stroke" mask="url(#Clip706)" />
    <path d="M 8.788706741803281 3.680000000000007  L 6.165755922131154 3.680000000000007  C 5.5537340676229405 3.680000000000007  5.320582879098367 3.2817777799999988  5.2914389754098465 2.656000000000006  C 5.2914389754098465 2.3715555600000044  5.320582868852455 2.115555560000004  5.378870676229496 1.859555560000004  L 5.378870676229496 1.8026666699999936  C 5.408014569672133 1.66044445  5.437158473360654 1.5182222300000063  5.437158473360654 1.404444440000006  C 5.437158473360654 1.2906666599999994  5.408014579918046 1.176888880000007  5.378870676229496 1.0631111099999941  C 5.349726782786888 0.9493333300000018  5.26229508196721 0.7502222199999977  5.087431690573766 0.6648888900000003  C 5 0.636444449999999  4.912568299180322 0.6080000000000041  4.825136608606556 0.6364444400000053  C 4.708561014344269 0.6364444400000053  4.621129323770504 0.6933333300000015  4.533697633196709 0.7786666700000069  C 4.47540983606558 0.8640000000000043  4.446265942622944 1.0346666700000071  4.417122038934423 1.1768888900000007  L 4.358834241803265 1.432888890000001  C 4.329690348360657 1.632000000000005  4.2714025512294995 1.8026666699999936  4.21311475409837 2.0017777799999976  C 4.00910746926229 2.741333339999997  3.6885245901639223 3.367111109999996  3.280510020491789 3.8791111099999966  C 2.8724954508196845 4.391111109999997  1.8816029200819742 4.533333330000005  1.5027322438524493 4.533333330000005  L 1.2112932581967186 4.533333330000005  C 0.9198542827868721 4.533333330000005  0.6284152971311414 4.533333330000005  0.6284152971311414 4.81777778  L 0.6284152971311414 9.084444439999999  C 0.6284152971311414 9.36888888  0.9489981762295088 9.36888888  1.2112932581967186 9.368888889999994  L 7.622950819672127 9.368888889999994  C 7.885245901639337 9.368888889999994  8.234972674180312 9.112888889999994  8.264116577868862 8.856888889999993  L 9.371584702868859 4.2488888900000035  C 9.429872499999988 3.8791111099999966  9.313296905737701 3.6515555600000056  8.788706741803281 3.680000000000007  Z " stroke-width="0" stroke-dasharray="0" stroke="rgba(255, 255, 255, 0)" fill="none" transform="matrix(1 0 0 1 73 72 )" class="stroke" mask="url(#Clip706)" />
    <path d="M 2.377049180327873 9.368888889999994  C 2.377049180327873 9.454222220000005  2.23132969262295 9.454222220000005  2.1730418954917923 9.511111110000002  C 2.114754098360663 9.567999999999998  2.0273224077868974 9.596444439999999  1.96903461065574 9.596444439999999  C 1.8816029200819742 9.596444439999999  1.8233151229508167 9.567999999999998  1.7650273258196592 9.511111110000002  C 1.6775956352458934 9.454222220000005  1.7941712192622958 9.454222220000005  1.7941712192622958 9.368888889999994  L 1.7941712192622958 4.533333330000005  C 1.7941712192622958 4.362666660000002  1.7941712192622958 4.163555549999998  1.96903461065574 4.163555560000006  C 2.143898002049184 4.16355557  2.377049180327873 4.192000000000007  2.377049180327873 4.362666669999996  L 2.377049180327873 9.368888889999994  Z " stroke-width="0" stroke-dasharray="0" stroke="rgba(255, 255, 255, 0)" fill="none" transform="matrix(1 0 0 1 73 72 )" class="stroke" mask="url(#Clip706)" />
  </g>
</svg>