<?xml version="1.0" encoding="utf-8"?>
<svg version="1.1" xmlns:xlink="http://www.w3.org/1999/xlink" width="10px" height="9px" xmlns="http://www.w3.org/2000/svg">
  <defs>
    <pattern id="BGPattern" patternUnits="userSpaceOnUse" alignment="0 0" imageRepeat="None" />
    <mask fill="white" id="Clip1863">
      <path d="M 4.995674603174605 0.02771926229507926  L 4.534325396825398 0.818188524590164  L 3.3550000000000058 2.8389098360655796  L 0.9594444444444505 3.273713114754105  L 0.0375992063492081 3.441043032786882  L 0.6740674603174579 4.083067622950819  L 2.3460714285714346 5.769682377049173  L 2.042341269841268 8.064350409836067  L 1.9255158730158684 8.94695901639343  L 2.789087301587294 8.564256147540993  L 4.995634920634924 7.586409836065576  L 7.202182539682536 8.564256147540993  L 8.06575396825397 8.94695901639343  L 7.948928571428571 8.064350409836067  L 7.645238095238094 5.769700819672141  L 9.317261904761907 4.083067622950819  L 9.953710317460311 3.4410614754098336  L 9.031884920634914 3.273731557377039  L 6.636250000000006 2.8389282786885306  L 5.456984126984121 0.8182069672131149  L 4.995674603174605 0.02771926229507926  Z " fill-rule="evenodd" />
    </mask>
  </defs>
  <g transform="matrix(1 0 0 1 -280 -122 )">
    <path d="M 4.995674603174605 0.02771926229507926  L 4.534325396825398 0.818188524590164  L 3.3550000000000058 2.8389098360655796  L 0.9594444444444505 3.273713114754105  L 0.0375992063492081 3.441043032786882  L 0.6740674603174579 4.083067622950819  L 2.3460714285714346 5.769682377049173  L 2.042341269841268 8.064350409836067  L 1.9255158730158684 8.94695901639343  L 2.789087301587294 8.564256147540993  L 4.995634920634924 7.586409836065576  L 7.202182539682536 8.564256147540993  L 8.06575396825397 8.94695901639343  L 7.948928571428571 8.064350409836067  L 7.645238095238094 5.769700819672141  L 9.317261904761907 4.083067622950819  L 9.953710317460311 3.4410614754098336  L 9.031884920634914 3.273731557377039  L 6.636250000000006 2.8389282786885306  L 5.456984126984121 0.8182069672131149  L 4.995674603174605 0.02771926229507926  Z " fill-rule="nonzero" fill="rgba(255, 153, 0, 1)" stroke="none" transform="matrix(1 0 0 1 280 122 )" class="fill" />
    <path d="M 4.995674603174605 0.02771926229507926  L 4.534325396825398 0.818188524590164  L 3.3550000000000058 2.8389098360655796  L 0.9594444444444505 3.273713114754105  L 0.0375992063492081 3.441043032786882  L 0.6740674603174579 4.083067622950819  L 2.3460714285714346 5.769682377049173  L 2.042341269841268 8.064350409836067  L 1.9255158730158684 8.94695901639343  L 2.789087301587294 8.564256147540993  L 4.995634920634924 7.586409836065576  L 7.202182539682536 8.564256147540993  L 8.06575396825397 8.94695901639343  L 7.948928571428571 8.064350409836067  L 7.645238095238094 5.769700819672141  L 9.317261904761907 4.083067622950819  L 9.953710317460311 3.4410614754098336  L 9.031884920634914 3.273731557377039  L 6.636250000000006 2.8389282786885306  L 5.456984126984121 0.8182069672131149  L 4.995674603174605 0.02771926229507926  Z " stroke-width="0" stroke-dasharray="0" stroke="rgba(255, 255, 255, 0)" fill="none" transform="matrix(1 0 0 1 280 122 )" class="stroke" mask="url(#Clip1863)" />
  </g>
</svg>