<?xml version="1.0" encoding="utf-8"?>
<svg version="1.1" xmlns:xlink="http://www.w3.org/1999/xlink" width="10px" height="10px" xmlns="http://www.w3.org/2000/svg">
  <defs>
    <pattern id="BGPattern" patternUnits="userSpaceOnUse" alignment="0 0" imageRepeat="None" />
    <mask fill="white" id="Clip1862">
      <path d="M 9.854943849557522 4.062703622685184  C 9.915266825221252 4.001163136574064  9.936978130530964 3.909148483796283  9.910942676991146 3.8253060763888946  C 9.88489590707965 3.74147550925926  9.815641626106192 3.6803613888888798  9.732248960176983 3.6676766550925777  L 6.574466393805314 3.187611030092601  L 5.162303849557524 0.19369423611109937  C 5.12501655973451 0.11464856481481434  5.048064845132755 0.06460842592593607  4.963811880530968 0.06460842592593607  C 4.879558915929198 0.06460842592593607  4.802607190265496 0.11466041666668758  4.765319911504411 0.19369423611109937  L 3.3531233960176827 3.187611018518517  L 0.1953521570796531 3.6676766435185115  C 0.11198213495574424 3.6803613773148314  0.04270521017698523 3.741475497685176  0.016669767699113436 3.8253060648148107  C -0.009365674778758363 3.9091366319444454  0.012345619469041433 4.001163124999998  0.07267993362832466 4.062703622685184  L 2.3576638163716854 6.393141365740753  L 1.818254668141589 9.683745891203692  C 1.8040144137168235 9.770632164351873  1.8381434845132691 9.858430416666657  1.9062997566371778 9.910247141203712  C 1.9744560287610533 9.962087546296292  2.0648103429203455 9.968862210648162  2.1393962278761043 9.927882592592603  L 4.963811891592915 8.374269270833334  L 7.788204922566388 9.927882592592603  C 7.820579435840718 9.945683854166667  7.855942356194686 9.954483819444455  7.891180763274322 9.954483819444455  C 7.937071061946915 9.954483819444455  7.982746294247784 9.939560601851873  8.021301393805299 9.910247141203712  C 8.089457665929206 9.858430416666657  8.123609369469023 9.770644016203711  8.10935779867258 9.683745891203692  L 7.569959966814144 6.393141365740753  L 9.854943849557522 4.062703622685184  Z M 9.224795497787618 4.058581990740748  L 7.17761711283184 6.146446412037054  C 7.125455663716811 6.199660706018513  7.101661526548673 6.276302071759261  7.113966106194695 6.351439282407405  L 7.5972405752212495 9.299556018518533  L 5.066810365044252 7.907646388888878  C 5.034560376106202 7.889916192129611  4.999197444690253 7.881045162037026  4.963811880530968 7.881045162037026  C 4.961853561946909 7.881045162037026  4.959895243362833 7.881175439814818  4.957936924778758 7.881234664351862  L 4.957936924778758 0.8319222569444307  L 4.963811880530968 0.8194743981481523  L 6.228998683628319 3.5017802430555456  C 6.261248672566387 3.5701190972222285  6.323563949115045 3.617506226851841  6.395670807522118 3.6284735995370454  L 9.224795497787618 4.058581990740748  Z " fill-rule="evenodd" />
    </mask>
  </defs>
  <g transform="matrix(1 0 0 1 -304 -121 )">
    <path d="M 9.854943849557522 4.062703622685184  C 9.915266825221252 4.001163136574064  9.936978130530964 3.909148483796283  9.910942676991146 3.8253060763888946  C 9.88489590707965 3.74147550925926  9.815641626106192 3.6803613888888798  9.732248960176983 3.6676766550925777  L 6.574466393805314 3.187611030092601  L 5.162303849557524 0.19369423611109937  C 5.12501655973451 0.11464856481481434  5.048064845132755 0.06460842592593607  4.963811880530968 0.06460842592593607  C 4.879558915929198 0.06460842592593607  4.802607190265496 0.11466041666668758  4.765319911504411 0.19369423611109937  L 3.3531233960176827 3.187611018518517  L 0.1953521570796531 3.6676766435185115  C 0.11198213495574424 3.6803613773148314  0.04270521017698523 3.741475497685176  0.016669767699113436 3.8253060648148107  C -0.009365674778758363 3.9091366319444454  0.012345619469041433 4.001163124999998  0.07267993362832466 4.062703622685184  L 2.3576638163716854 6.393141365740753  L 1.818254668141589 9.683745891203692  C 1.8040144137168235 9.770632164351873  1.8381434845132691 9.858430416666657  1.9062997566371778 9.910247141203712  C 1.9744560287610533 9.962087546296292  2.0648103429203455 9.968862210648162  2.1393962278761043 9.927882592592603  L 4.963811891592915 8.374269270833334  L 7.788204922566388 9.927882592592603  C 7.820579435840718 9.945683854166667  7.855942356194686 9.954483819444455  7.891180763274322 9.954483819444455  C 7.937071061946915 9.954483819444455  7.982746294247784 9.939560601851873  8.021301393805299 9.910247141203712  C 8.089457665929206 9.858430416666657  8.123609369469023 9.770644016203711  8.10935779867258 9.683745891203692  L 7.569959966814144 6.393141365740753  L 9.854943849557522 4.062703622685184  Z M 9.224795497787618 4.058581990740748  L 7.17761711283184 6.146446412037054  C 7.125455663716811 6.199660706018513  7.101661526548673 6.276302071759261  7.113966106194695 6.351439282407405  L 7.5972405752212495 9.299556018518533  L 5.066810365044252 7.907646388888878  C 5.034560376106202 7.889916192129611  4.999197444690253 7.881045162037026  4.963811880530968 7.881045162037026  C 4.961853561946909 7.881045162037026  4.959895243362833 7.881175439814818  4.957936924778758 7.881234664351862  L 4.957936924778758 0.8319222569444307  L 4.963811880530968 0.8194743981481523  L 6.228998683628319 3.5017802430555456  C 6.261248672566387 3.5701190972222285  6.323563949115045 3.617506226851841  6.395670807522118 3.6284735995370454  L 9.224795497787618 4.058581990740748  Z " fill-rule="nonzero" fill="rgba(255, 153, 0, 1)" stroke="none" transform="matrix(1 0 0 1 304 121 )" class="fill" />
    <path d="M 9.854943849557522 4.062703622685184  C 9.915266825221252 4.001163136574064  9.936978130530964 3.909148483796283  9.910942676991146 3.8253060763888946  C 9.88489590707965 3.74147550925926  9.815641626106192 3.6803613888888798  9.732248960176983 3.6676766550925777  L 6.574466393805314 3.187611030092601  L 5.162303849557524 0.19369423611109937  C 5.12501655973451 0.11464856481481434  5.048064845132755 0.06460842592593607  4.963811880530968 0.06460842592593607  C 4.879558915929198 0.06460842592593607  4.802607190265496 0.11466041666668758  4.765319911504411 0.19369423611109937  L 3.3531233960176827 3.187611018518517  L 0.1953521570796531 3.6676766435185115  C 0.11198213495574424 3.6803613773148314  0.04270521017698523 3.741475497685176  0.016669767699113436 3.8253060648148107  C -0.009365674778758363 3.9091366319444454  0.012345619469041433 4.001163124999998  0.07267993362832466 4.062703622685184  L 2.3576638163716854 6.393141365740753  L 1.818254668141589 9.683745891203692  C 1.8040144137168235 9.770632164351873  1.8381434845132691 9.858430416666657  1.9062997566371778 9.910247141203712  C 1.9744560287610533 9.962087546296292  2.0648103429203455 9.968862210648162  2.1393962278761043 9.927882592592603  L 4.963811891592915 8.374269270833334  L 7.788204922566388 9.927882592592603  C 7.820579435840718 9.945683854166667  7.855942356194686 9.954483819444455  7.891180763274322 9.954483819444455  C 7.937071061946915 9.954483819444455  7.982746294247784 9.939560601851873  8.021301393805299 9.910247141203712  C 8.089457665929206 9.858430416666657  8.123609369469023 9.770644016203711  8.10935779867258 9.683745891203692  L 7.569959966814144 6.393141365740753  L 9.854943849557522 4.062703622685184  Z " stroke-width="0" stroke-dasharray="0" stroke="rgba(255, 255, 255, 0)" fill="none" transform="matrix(1 0 0 1 304 121 )" class="stroke" mask="url(#Clip1862)" />
    <path d="M 9.224795497787618 4.058581990740748  L 7.17761711283184 6.146446412037054  C 7.125455663716811 6.199660706018513  7.101661526548673 6.276302071759261  7.113966106194695 6.351439282407405  L 7.5972405752212495 9.299556018518533  L 5.066810365044252 7.907646388888878  C 5.034560376106202 7.889916192129611  4.999197444690253 7.881045162037026  4.963811880530968 7.881045162037026  C 4.961853561946909 7.881045162037026  4.959895243362833 7.881175439814818  4.957936924778758 7.881234664351862  L 4.957936924778758 0.8319222569444307  L 4.963811880530968 0.8194743981481523  L 6.228998683628319 3.5017802430555456  C 6.261248672566387 3.5701190972222285  6.323563949115045 3.617506226851841  6.395670807522118 3.6284735995370454  L 9.224795497787618 4.058581990740748  Z " stroke-width="0" stroke-dasharray="0" stroke="rgba(255, 255, 255, 0)" fill="none" transform="matrix(1 0 0 1 304 121 )" class="stroke" mask="url(#Clip1862)" />
  </g>
</svg>