<?xml version="1.0" encoding="utf-8"?>
<svg version="1.1" xmlns:xlink="http://www.w3.org/1999/xlink" width="31px" height="31px" xmlns="http://www.w3.org/2000/svg">
  <defs>
    <pattern id="BGPattern" patternUnits="userSpaceOnUse" alignment="0 0" imageRepeat="None" />
    <mask fill="white" id="Clip1364">
      <path d="M 30.550325933628315 12.594381230324071  C 30.73732715818588 12.403605723379599  30.80463220464599 12.118360299768478  30.72392229867255 11.858448836805573  C 30.643177311946918 11.598574078703706  30.428489040929193 11.409120305555527  30.16997177654865 11.36979763078699  L 20.380845820796473 9.881594193287063  L 16.003141933628328 0.600452131944408  C 15.88755133517698 0.35541055092592444  15.64900101991154 0.20028612037040183  15.387816829646 0.20028612037040183  C 15.126632639380512 0.20028612037040183  14.888082289823036 0.3554472916667315  14.772491725663674 0.600452131944408  L 10.394682527654815 9.881594157407402  L 0.6055916869469246 11.369797594907386  C 0.34714461836280713 11.409120269675977  0.1323861515486542 11.598574042824046  0.05167627986725165 11.858448800925913  C -0.029033591814150925 12.11832355902778  0.038271420354028446 12.403605687499994  0.22530779424780645 12.594381230324071  L 7.308757830752224 19.818738233796335  L 5.636589471238926 30.019612262731446  C 5.592444682522153 30.288959709490808  5.698244801991134 30.561134291666637  5.909529245575251 30.721766137731507  C 6.120813689159265 30.882471393518507  6.400912063053071 30.9034728530093  6.6321283064159235 30.77643603703707  L 15.387816863938035 25.960234739583335  L 24.143435259955805 30.77643603703707  C 24.243796251106225 30.831619947916668  24.353421304203525 30.85889984027781  24.4626603661504 30.85889984027781  C 24.604920292035434 30.85889984027781  24.746513512168132 30.812637865740808  24.866034320796423 30.721766137731507  C 25.077318764380543 30.561134291666637  25.18318904535397 30.288996450231505  25.139009175885 30.019612262731446  L 23.466875897123845 19.818738233796335  L 30.550325933628315 12.594381230324071  Z M 28.596866043141617 12.58160417129632  L 22.250613049778703 19.05398387731487  C 22.088912557522114 19.21894818865739  22.015150732300885 19.45653642245371  22.053294929203556 19.689461775462956  L 23.551445783185873 28.828623657407455  L 15.707112131637182 24.513703805555522  C 15.607137165929226 24.458740195601795  15.497512078539785 24.43124000231478  15.387816829646 24.43124000231478  C 15.381746042035418 24.43124000231478  15.375675254424785 24.431643863425936  15 24.43182745949077  L 15 2.578958996527735  L 15.387816829646 2.540370634259272  L 19.30989591924779 10.855518753472191  C 19.409870884955797 11.067369201388908  19.60304824225664 11.214269303240707  19.826579503318566 11.24826815856484  L 28.596866043141617 12.58160417129632  Z " fill-rule="evenodd" />
    </mask>
  </defs>
  <g transform="matrix(1 0 0 1 -200 -733 )">
    <path d="M 30.550325933628315 12.594381230324071  C 30.73732715818588 12.403605723379599  30.80463220464599 12.118360299768478  30.72392229867255 11.858448836805573  C 30.643177311946918 11.598574078703706  30.428489040929193 11.409120305555527  30.16997177654865 11.36979763078699  L 20.380845820796473 9.881594193287063  L 16.003141933628328 0.600452131944408  C 15.88755133517698 0.35541055092592444  15.64900101991154 0.20028612037040183  15.387816829646 0.20028612037040183  C 15.126632639380512 0.20028612037040183  14.888082289823036 0.3554472916667315  14.772491725663674 0.600452131944408  L 10.394682527654815 9.881594157407402  L 0.6055916869469246 11.369797594907386  C 0.34714461836280713 11.409120269675977  0.1323861515486542 11.598574042824046  0.05167627986725165 11.858448800925913  C -0.029033591814150925 12.11832355902778  0.038271420354028446 12.403605687499994  0.22530779424780645 12.594381230324071  L 7.308757830752224 19.818738233796335  L 5.636589471238926 30.019612262731446  C 5.592444682522153 30.288959709490808  5.698244801991134 30.561134291666637  5.909529245575251 30.721766137731507  C 6.120813689159265 30.882471393518507  6.400912063053071 30.9034728530093  6.6321283064159235 30.77643603703707  L 15.387816863938035 25.960234739583335  L 24.143435259955805 30.77643603703707  C 24.243796251106225 30.831619947916668  24.353421304203525 30.85889984027781  24.4626603661504 30.85889984027781  C 24.604920292035434 30.85889984027781  24.746513512168132 30.812637865740808  24.866034320796423 30.721766137731507  C 25.077318764380543 30.561134291666637  25.18318904535397 30.288996450231505  25.139009175885 30.019612262731446  L 23.466875897123845 19.818738233796335  L 30.550325933628315 12.594381230324071  Z M 28.596866043141617 12.58160417129632  L 22.250613049778703 19.05398387731487  C 22.088912557522114 19.21894818865739  22.015150732300885 19.45653642245371  22.053294929203556 19.689461775462956  L 23.551445783185873 28.828623657407455  L 15.707112131637182 24.513703805555522  C 15.607137165929226 24.458740195601795  15.497512078539785 24.43124000231478  15.387816829646 24.43124000231478  C 15.381746042035418 24.43124000231478  15.375675254424785 24.431643863425936  15 24.43182745949077  L 15 2.578958996527735  L 15.387816829646 2.540370634259272  L 19.30989591924779 10.855518753472191  C 19.409870884955797 11.067369201388908  19.60304824225664 11.214269303240707  19.826579503318566 11.24826815856484  L 28.596866043141617 12.58160417129632  Z " fill-rule="nonzero" fill="rgba(255, 153, 0, 1)" stroke="none" transform="matrix(1 0 0 1 200 733 )" class="fill" />
    <path d="M 30.550325933628315 12.594381230324071  C 30.73732715818588 12.403605723379599  30.80463220464599 12.118360299768478  30.72392229867255 11.858448836805573  C 30.643177311946918 11.598574078703706  30.428489040929193 11.409120305555527  30.16997177654865 11.36979763078699  L 20.380845820796473 9.881594193287063  L 16.003141933628328 0.600452131944408  C 15.88755133517698 0.35541055092592444  15.64900101991154 0.20028612037040183  15.387816829646 0.20028612037040183  C 15.126632639380512 0.20028612037040183  14.888082289823036 0.3554472916667315  14.772491725663674 0.600452131944408  L 10.394682527654815 9.881594157407402  L 0.6055916869469246 11.369797594907386  C 0.34714461836280713 11.409120269675977  0.1323861515486542 11.598574042824046  0.05167627986725165 11.858448800925913  C -0.029033591814150925 12.11832355902778  0.038271420354028446 12.403605687499994  0.22530779424780645 12.594381230324071  L 7.308757830752224 19.818738233796335  L 5.636589471238926 30.019612262731446  C 5.592444682522153 30.288959709490808  5.698244801991134 30.561134291666637  5.909529245575251 30.721766137731507  C 6.120813689159265 30.882471393518507  6.400912063053071 30.9034728530093  6.6321283064159235 30.77643603703707  L 15.387816863938035 25.960234739583335  L 24.143435259955805 30.77643603703707  C 24.243796251106225 30.831619947916668  24.353421304203525 30.85889984027781  24.4626603661504 30.85889984027781  C 24.604920292035434 30.85889984027781  24.746513512168132 30.812637865740808  24.866034320796423 30.721766137731507  C 25.077318764380543 30.561134291666637  25.18318904535397 30.288996450231505  25.139009175885 30.019612262731446  L 23.466875897123845 19.818738233796335  L 30.550325933628315 12.594381230324071  Z " stroke-width="0" stroke-dasharray="0" stroke="rgba(255, 255, 255, 0)" fill="none" transform="matrix(1 0 0 1 200 733 )" class="stroke" mask="url(#Clip1364)" />
    <path d="M 28.596866043141617 12.58160417129632  L 22.250613049778703 19.05398387731487  C 22.088912557522114 19.21894818865739  22.015150732300885 19.45653642245371  22.053294929203556 19.689461775462956  L 23.551445783185873 28.828623657407455  L 15.707112131637182 24.513703805555522  C 15.607137165929226 24.458740195601795  15.497512078539785 24.43124000231478  15.387816829646 24.43124000231478  C 15.381746042035418 24.43124000231478  15.375675254424785 24.431643863425936  15 24.43182745949077  L 15 2.578958996527735  L 15.387816829646 2.540370634259272  L 19.30989591924779 10.855518753472191  C 19.409870884955797 11.067369201388908  19.60304824225664 11.214269303240707  19.826579503318566 11.24826815856484  L 28.596866043141617 12.58160417129632  Z " stroke-width="0" stroke-dasharray="0" stroke="rgba(255, 255, 255, 0)" fill="none" transform="matrix(1 0 0 1 200 733 )" class="stroke" mask="url(#Clip1364)" />
  </g>
</svg>