<?xml version="1.0" encoding="utf-8"?>
<svg version="1.1" xmlns:xlink="http://www.w3.org/1999/xlink" width="18px" height="18px" xmlns="http://www.w3.org/2000/svg">
  <g transform="matrix(1 0 0 1 -2 -2 )">
    <path d="M 11 2  C 16.04 2  20 5.959999999999999  20 11  C 20 16.04  16.04 20  11 20  C 5.959999999999999 20  2 16.04  2 11  C 2 5.959999999999999  5.959999999999999 2  11 2  Z " fill-rule="nonzero" fill="#ffffff" stroke="none" />
    <path d="M 11 2.5  C 15.76 2.5  19.5 6.239999999999999  19.5 11  C 19.5 15.76  15.76 19.5  11 19.5  C 6.239999999999999 19.5  2.5 15.76  2.5 11  C 2.5 6.239999999999999  6.239999999999999 2.5  11 2.5  Z " stroke-width="1" stroke="#ffffff" fill="none" />
  </g>
</svg>