<?xml version="1.0" encoding="utf-8"?>
<svg version="1.1" xmlns:xlink="http://www.w3.org/1999/xlink" width="13px" height="13px" viewBox="100 182  13 13" xmlns="http://www.w3.org/2000/svg">
  <path d="M 106.5 182  C 110.14 182  113 184.86  113 188.5  C 113 192.14  110.14 195  106.5 195  C 102.86 195  100 192.14  100 188.5  C 100 184.86  102.86 182  106.5 182  Z " fill-rule="nonzero" fill="#f0f0f0" stroke="none" />
  <path d="M 106.5 182.5  C 109.86 182.5  112.5 185.14  112.5 188.5  C 112.5 191.86  109.86 194.5  106.5 194.5  C 103.14 194.5  100.5 191.86  100.5 188.5  C 100.5 185.14  103.14 182.5  106.5 182.5  Z " stroke-width="1" stroke="#aaaaaa" fill="none" />
  <path d="M 106.5 191.75  C 104.68 191.75  103.25 190.32  103.25 188.5  C 103.25 186.68  104.68 185.25  106.5 185.25  C 108.32 185.25  109.75 186.68  109.75 188.5  C 109.75 190.32  108.32 191.75  106.5 191.75  " fill-rule="nonzero" fill="#aaaaaa" stroke="none" />
</svg>