<?xml version="1.0" encoding="utf-8"?>
<svg version="1.1" xmlns:xlink="http://www.w3.org/1999/xlink" width="115px" height="105px" xmlns="http://www.w3.org/2000/svg">
  <defs>
    <linearGradient gradientUnits="userSpaceOnUse" x1="67.03704160050619" y1="-7.579561252214746" x2="47.962958399493814" y2="112.57956125221467" id="LinearGradient127">
      <stop id="Stop128" stop-color="#f6f8fa" offset="0" />
      <stop id="Stop129" stop-color="#f6f8fa" offset="0.08" />
      <stop id="Stop130" stop-color="#e9edf3" offset="0.86" />
      <stop id="Stop131" stop-color="#e9edf3" offset="1" />
    </linearGradient>
    <pattern id="BGPattern" patternUnits="userSpaceOnUse" alignment="0 0" imageRepeat="None" />
    <mask fill="white" id="Clip132">
      <path d="M 11 32.51211578374367  L 11 0  L 115 0  L 115 78.60667849964416  L 112.84654538221604 74.79319820035542  L 110.86286788179395 81.69053634219316  L 107.7207377267438 78.3122204788038  L 105.00504822379861 79.69041569243562  L 96.95628224653932 78.3122204788038  L 95.46709141695344 104.58063910437549  L 92.02074376809773 104.63863090294112  L 89.50904472469523 103.74411277316531  L 84.51038464518992 104.58063910437549  L 81.0607030044661 103.17086730531445  L 75.84968135383863 104.58063910437549  L 73.13955615539258 72.06360992043949  L 70.25136283165477 104.58063910437549  L 65.87000993157812 103.71442036132075  L 61.80441004007774 105  L 56.47260981921032 103.49690191158403  L 48.29721484257453 104.58063910437549  L 45.88693581358614 102.91769551952213  L 43.315055776955234 104.58063910437549  L 38 104.58063910437549  L 38 32.51211578374367  C 38 32.51211578374367  35.46544649780542 63.930097021493104  31.371734921776536 72.06360992043949  C 29.622204011966414 75.53963209683566  26.80368655780468 76.48309291386676  24.959380081794666 77.29021367041848  C 22.4882104903332 78.3716674830966  20.62076157664203 78.60667849964416  14.463708572484746 78.60667849964416  C 3.7114659998169395 78.60667849964416  0 67.20744960761891  0 67.20744960761891  C 0 67.20744960761891  4.143797935645631 64.31857631510712  6.736762713790546 58.44312130168975  C 9.329727491935452 52.56766628827237  11 32.51211578374367  11 32.51211578374367  Z " fill-rule="evenodd" />
    </mask>
  </defs>
  <g transform="matrix(1 0 0 1 -80 -774 )">
    <path d="M 11 32.51211578374367  L 11 0  L 115 0  L 115 78.60667849964416  L 112.84654538221604 74.79319820035542  L 110.86286788179395 81.69053634219316  L 107.7207377267438 78.3122204788038  L 105.00504822379861 79.69041569243562  L 96.95628224653932 78.3122204788038  L 95.46709141695344 104.58063910437549  L 92.02074376809773 104.63863090294112  L 89.50904472469523 103.74411277316531  L 84.51038464518992 104.58063910437549  L 81.0607030044661 103.17086730531445  L 75.84968135383863 104.58063910437549  L 73.13955615539258 72.06360992043949  L 70.25136283165477 104.58063910437549  L 65.87000993157812 103.71442036132075  L 61.80441004007774 105  L 56.47260981921032 103.49690191158403  L 48.29721484257453 104.58063910437549  L 45.88693581358614 102.91769551952213  L 43.315055776955234 104.58063910437549  L 38 104.58063910437549  L 38 32.51211578374367  C 38 32.51211578374367  35.46544649780542 63.930097021493104  31.371734921776536 72.06360992043949  C 29.622204011966414 75.53963209683566  26.80368655780468 76.48309291386676  24.959380081794666 77.29021367041848  C 22.4882104903332 78.3716674830966  20.62076157664203 78.60667849964416  14.463708572484746 78.60667849964416  C 3.7114659998169395 78.60667849964416  0 67.20744960761891  0 67.20744960761891  C 0 67.20744960761891  4.143797935645631 64.31857631510712  6.736762713790546 58.44312130168975  C 9.329727491935452 52.56766628827237  11 32.51211578374367  11 32.51211578374367  Z " fill-rule="nonzero" fill="url(#LinearGradient127)" stroke="none" transform="matrix(1 0 0 1 80 774 )" class="fill" />
    <path d="M 11 32.51211578374367  L 11 0  L 115 0  L 115 78.60667849964416  L 112.84654538221604 74.79319820035542  L 110.86286788179395 81.69053634219316  L 107.7207377267438 78.3122204788038  L 105.00504822379861 79.69041569243562  L 96.95628224653932 78.3122204788038  L 95.46709141695344 104.58063910437549  L 92.02074376809773 104.63863090294112  L 89.50904472469523 103.74411277316531  L 84.51038464518992 104.58063910437549  L 81.0607030044661 103.17086730531445  L 75.84968135383863 104.58063910437549  L 73.13955615539258 72.06360992043949  L 70.25136283165477 104.58063910437549  L 65.87000993157812 103.71442036132075  L 61.80441004007774 105  L 56.47260981921032 103.49690191158403  L 48.29721484257453 104.58063910437549  L 45.88693581358614 102.91769551952213  L 43.315055776955234 104.58063910437549  L 38 104.58063910437549  L 38 32.51211578374367  C 38 32.51211578374367  35.46544649780542 63.930097021493104  31.371734921776536 72.06360992043949  C 29.622204011966414 75.53963209683566  26.80368655780468 76.48309291386676  24.959380081794666 77.29021367041848  C 22.4882104903332 78.3716674830966  20.62076157664203 78.60667849964416  14.463708572484746 78.60667849964416  C 3.7114659998169395 78.60667849964416  0 67.20744960761891  0 67.20744960761891  C 0 67.20744960761891  4.143797935645631 64.31857631510712  6.736762713790546 58.44312130168975  C 9.329727491935452 52.56766628827237  11 32.51211578374367  11 32.51211578374367  Z " stroke-width="0" stroke-dasharray="0" stroke="rgba(255, 255, 255, 0)" fill="none" transform="matrix(1 0 0 1 80 774 )" class="stroke" mask="url(#Clip132)" />
  </g>
</svg>