<?xml version="1.0" encoding="utf-8"?>
<svg version="1.1" xmlns:xlink="http://www.w3.org/1999/xlink" width="35px" height="17px" xmlns="http://www.w3.org/2000/svg">
  <defs>
    <linearGradient gradientUnits="userSpaceOnUse" x1="16.428691135228664" y1="-1.7336395960068622" x2="18.57130886477134" y2="18.733639596006867" id="LinearGradient1821">
      <stop id="Stop1822" stop-color="#dfe2ea" offset="0" />
      <stop id="Stop1823" stop-color="#dfe2ea" offset="0.08" />
      <stop id="Stop1824" stop-color="#cbd0de" offset="1" />
    </linearGradient>
    <pattern id="BGPattern" patternUnits="userSpaceOnUse" alignment="0 0" imageRepeat="None" />
    <mask fill="white" id="Clip1825">
      <path d="M 4.079283309038207 11.001001625366072  C 1.7998055051159674 8.532020780978295  0 0  0 0  L 28.089713813911505 0  C 28.089713813911505 0  30.214549345892127 10.693816991112064  35 9.457589747123277  C 32.92311805864473 13.699376544377614  28.592707390281326 16.999999999999993  19.382665561912518 17  C 10.172623733543713 17  6.358761112960448 13.469982469753848  4.079283309038207 11.001001625366072  Z " fill-rule="evenodd" />
    </mask>
  </defs>
  <g transform="matrix(1 0 0 1 -77 -836 )">
    <path d="M 4.079283309038207 11.001001625366072  C 1.7998055051159674 8.532020780978295  0 0  0 0  L 28.089713813911505 0  C 28.089713813911505 0  30.214549345892127 10.693816991112064  35 9.457589747123277  C 32.92311805864473 13.699376544377614  28.592707390281326 16.999999999999993  19.382665561912518 17  C 10.172623733543713 17  6.358761112960448 13.469982469753848  4.079283309038207 11.001001625366072  Z " fill-rule="nonzero" fill="url(#LinearGradient1821)" stroke="none" transform="matrix(1 0 0 1 77 836 )" class="fill" />
    <path d="M 4.079283309038207 11.001001625366072  C 1.7998055051159674 8.532020780978295  0 0  0 0  L 28.089713813911505 0  C 28.089713813911505 0  30.214549345892127 10.693816991112064  35 9.457589747123277  C 32.92311805864473 13.699376544377614  28.592707390281326 16.999999999999993  19.382665561912518 17  C 10.172623733543713 17  6.358761112960448 13.469982469753848  4.079283309038207 11.001001625366072  Z " stroke-width="0" stroke-dasharray="0" stroke="rgba(255, 255, 255, 0)" fill="none" transform="matrix(1 0 0 1 77 836 )" class="stroke" mask="url(#Clip1825)" />
  </g>
</svg>