<?xml version="1.0" encoding="utf-8"?>
<svg version="1.1" xmlns:xlink="http://www.w3.org/1999/xlink" width="29px" height="24px" xmlns="http://www.w3.org/2000/svg">
  <defs>
    <pattern id="BGPattern" patternUnits="userSpaceOnUse" alignment="0 0" imageRepeat="None" />
    <mask fill="white" id="Clip1808">
      <path d="M 28.535287564337523 3.3348161211386884  C 28.5899722239227 3.2673462534104427  28.604733969640534 3.175920027804458  28.5740619819953 3.094668411699309  C 28.52640285878107 2.968417035786545  28.385420544963466 2.9047054288235437  28.259169164677587 2.9523645496137316  L 28.247818832746248 2.9566504979591546  L 0.5537807543573763 0.1461385991236419  C 0.34184544111801074 0.12462830319182672  0.15260038889135785 0.27899828478999567  0.1310900929595391 0.4909335980293612  C 0.12204231258061783 0.5800791413940587  0.14431334045173116 0.6695935988498061  0.19407894903667966 0.7441064931596646  L 5.48838879036262 8.671149226184529  C 5.516839740724663 8.713748191353652  5.568844875474582 8.734074385108336  5.618641942572538 8.722058645324433  L 26.005973800636554 3.802883386710884  L 5.993701376927049 11.357442461998309  C 5.9927081715030965 11.357817407192107  5.9917199464829025 11.358205231752283  5.990736905780892 11.358605877207333  C 5.926005626557441 11.386932877959069  5.897866481757632 11.458988276872581  5.92495313243117 11.520786414263707  L 11.176176713290772 23.501425570379926  C 11.21077892404665 23.58037032098711  11.263776459372764 23.649884950578876  11.330738974798095 23.704158449433987  C 11.562428438427304 23.89194387152828  11.902480015909191 23.856352661311142  12.090265481734463 23.624663221922408  L 28.535287564337523 3.3348161211386884  Z " fill-rule="evenodd" />
    </mask>
  </defs>
  <g transform="matrix(1 0 0 1 -524 -260 )">
    <path d="M 28.535287564337523 3.3348161211386884  C 28.5899722239227 3.2673462534104427  28.604733969640534 3.175920027804458  28.5740619819953 3.094668411699309  C 28.52640285878107 2.968417035786545  28.385420544963466 2.9047054288235437  28.259169164677587 2.9523645496137316  L 28.247818832746248 2.9566504979591546  L 0.5537807543573763 0.1461385991236419  C 0.34184544111801074 0.12462830319182672  0.15260038889135785 0.27899828478999567  0.1310900929595391 0.4909335980293612  C 0.12204231258061783 0.5800791413940587  0.14431334045173116 0.6695935988498061  0.19407894903667966 0.7441064931596646  L 5.48838879036262 8.671149226184529  C 5.516839740724663 8.713748191353652  5.568844875474582 8.734074385108336  5.618641942572538 8.722058645324433  L 26.005973800636554 3.802883386710884  L 5.993701376927049 11.357442461998309  C 5.9927081715030965 11.357817407192107  5.9917199464829025 11.358205231752283  5.990736905780892 11.358605877207333  C 5.926005626557441 11.386932877959069  5.897866481757632 11.458988276872581  5.92495313243117 11.520786414263707  L 11.176176713290772 23.501425570379926  C 11.21077892404665 23.58037032098711  11.263776459372764 23.649884950578876  11.330738974798095 23.704158449433987  C 11.562428438427304 23.89194387152828  11.902480015909191 23.856352661311142  12.090265481734463 23.624663221922408  L 28.535287564337523 3.3348161211386884  Z " fill-rule="nonzero" fill="rgba(180, 184, 191, 0.20784313725490197)" stroke="none" transform="matrix(1 0 0 1 524 260 )" class="fill" />
    <path d="M 28.535287564337523 3.3348161211386884  C 28.5899722239227 3.2673462534104427  28.604733969640534 3.175920027804458  28.5740619819953 3.094668411699309  C 28.52640285878107 2.968417035786545  28.385420544963466 2.9047054288235437  28.259169164677587 2.9523645496137316  L 28.247818832746248 2.9566504979591546  L 0.5537807543573763 0.1461385991236419  C 0.34184544111801074 0.12462830319182672  0.15260038889135785 0.27899828478999567  0.1310900929595391 0.4909335980293612  C 0.12204231258061783 0.5800791413940587  0.14431334045173116 0.6695935988498061  0.19407894903667966 0.7441064931596646  L 5.48838879036262 8.671149226184529  C 5.516839740724663 8.713748191353652  5.568844875474582 8.734074385108336  5.618641942572538 8.722058645324433  L 26.005973800636554 3.802883386710884  L 5.993701376927049 11.357442461998309  C 5.9927081715030965 11.357817407192107  5.9917199464829025 11.358205231752283  5.990736905780892 11.358605877207333  C 5.926005626557441 11.386932877959069  5.897866481757632 11.458988276872581  5.92495313243117 11.520786414263707  L 11.176176713290772 23.501425570379926  C 11.21077892404665 23.58037032098711  11.263776459372764 23.649884950578876  11.330738974798095 23.704158449433987  C 11.562428438427304 23.89194387152828  11.902480015909191 23.856352661311142  12.090265481734463 23.624663221922408  L 28.535287564337523 3.3348161211386884  Z " stroke-width="0" stroke-dasharray="0" stroke="rgba(255, 255, 255, 0)" fill="none" transform="matrix(1 0 0 1 524 260 )" class="stroke" mask="url(#Clip1808)" />
  </g>
</svg>