<?xml version="1.0" encoding="utf-8"?>
<svg version="1.1" xmlns:xlink="http://www.w3.org/1999/xlink" width="36px" height="36px" xmlns="http://www.w3.org/2000/svg">
  <defs>
    <pattern id="BGPattern" patternUnits="userSpaceOnUse" alignment="0 0" imageRepeat="None" />
    <mask fill="white" id="Clip1827">
      <path d="M 21.002162510923938 0.5181504754804465  C 22.238136166321 0.19087790430099716  23.554960146043953 0.5437198262416914  24.461708444436397 1.4451330145434795  L 34.899617667725295 11.82162562427613  C 35.8144389596323 12.731064060750803  36.17275297934981 14.060460953847063  35.838888860363625 15.306458808727719  L 32.06004505511714 29.40929588377437  C 31.726180987894793 30.655293545469853  30.751173445975382 31.62742820992974  29.504195723141777 31.957614449733875  L 15.276454868511365 35.7249660402994  C 14.040481226055263 36.05223856318256  12.723657246332309 35.699396641241854  11.81690893499892 34.79798350123637  L 1.378999228747091 24.421490762094173  C 0.46417844568490807 23.512052358436456  0.10586447773123098 22.182655272155024  0.4397285449536099 20.936657610459555  L 4.2185723502000485 6.833820535412897  C 4.552436469186233 5.587822680532248  5.527443959341824 4.61568820925752  6.774421173330595 4.285501936636443  L 21.002162510923938 0.5181504754804465  Z M 26.712831771040157 20.38437621718341  C 27.962551617167065 15.720358256210552  25.19471610600641 10.926326594597604  20.53069785525581 9.67660667082496  C 15.866680087468112 8.426886876461836  11.072648390499822 11.194722326385254  9.8229285443729 15.85874028735811  C 8.573208711186922 20.522758200034666  11.341044235288535 25.316789813351342  16.00506200307622 26.56650960771446  C 20.669080253826834 27.816229531487103  25.463111937854165 25.048394129859965  26.712831771040157 20.38437621718341  Z " fill-rule="evenodd" />
    </mask>
  </defs>
  <g transform="matrix(1 0 0 1 -510 -768 )">
    <path d="M 21.002162510923938 0.5181504754804465  C 22.238136166321 0.19087790430099716  23.554960146043953 0.5437198262416914  24.461708444436397 1.4451330145434795  L 34.899617667725295 11.82162562427613  C 35.8144389596323 12.731064060750803  36.17275297934981 14.060460953847063  35.838888860363625 15.306458808727719  L 32.06004505511714 29.40929588377437  C 31.726180987894793 30.655293545469853  30.751173445975382 31.62742820992974  29.504195723141777 31.957614449733875  L 15.276454868511365 35.7249660402994  C 14.040481226055263 36.05223856318256  12.723657246332309 35.699396641241854  11.81690893499892 34.79798350123637  L 1.378999228747091 24.421490762094173  C 0.46417844568490807 23.512052358436456  0.10586447773123098 22.182655272155024  0.4397285449536099 20.936657610459555  L 4.2185723502000485 6.833820535412897  C 4.552436469186233 5.587822680532248  5.527443959341824 4.61568820925752  6.774421173330595 4.285501936636443  L 21.002162510923938 0.5181504754804465  Z M 26.712831771040157 20.38437621718341  C 27.962551617167065 15.720358256210552  25.19471610600641 10.926326594597604  20.53069785525581 9.67660667082496  C 15.866680087468112 8.426886876461836  11.072648390499822 11.194722326385254  9.8229285443729 15.85874028735811  C 8.573208711186922 20.522758200034666  11.341044235288535 25.316789813351342  16.00506200307622 26.56650960771446  C 20.669080253826834 27.816229531487103  25.463111937854165 25.048394129859965  26.712831771040157 20.38437621718341  Z " fill-rule="nonzero" fill="rgba(180, 184, 191, 0.35294117647058826)" stroke="none" transform="matrix(1 0 0 1 510 768 )" class="fill" />
    <path d="M 21.002162510923938 0.5181504754804465  C 22.238136166321 0.19087790430099716  23.554960146043953 0.5437198262416914  24.461708444436397 1.4451330145434795  L 34.899617667725295 11.82162562427613  C 35.8144389596323 12.731064060750803  36.17275297934981 14.060460953847063  35.838888860363625 15.306458808727719  L 32.06004505511714 29.40929588377437  C 31.726180987894793 30.655293545469853  30.751173445975382 31.62742820992974  29.504195723141777 31.957614449733875  L 15.276454868511365 35.7249660402994  C 14.040481226055263 36.05223856318256  12.723657246332309 35.699396641241854  11.81690893499892 34.79798350123637  L 1.378999228747091 24.421490762094173  C 0.46417844568490807 23.512052358436456  0.10586447773123098 22.182655272155024  0.4397285449536099 20.936657610459555  L 4.2185723502000485 6.833820535412897  C 4.552436469186233 5.587822680532248  5.527443959341824 4.61568820925752  6.774421173330595 4.285501936636443  L 21.002162510923938 0.5181504754804465  Z " stroke-width="0" stroke-dasharray="0" stroke="rgba(255, 255, 255, 0)" fill="none" transform="matrix(1 0 0 1 510 768 )" class="stroke" mask="url(#Clip1827)" />
    <path d="M 26.712831771040157 20.38437621718341  C 27.962551617167065 15.720358256210552  25.19471610600641 10.926326594597604  20.53069785525581 9.67660667082496  C 15.866680087468112 8.426886876461836  11.072648390499822 11.194722326385254  9.8229285443729 15.85874028735811  C 8.573208711186922 20.522758200034666  11.341044235288535 25.316789813351342  16.00506200307622 26.56650960771446  C 20.669080253826834 27.816229531487103  25.463111937854165 25.048394129859965  26.712831771040157 20.38437621718341  Z " stroke-width="0" stroke-dasharray="0" stroke="rgba(255, 255, 255, 0)" fill="none" transform="matrix(1 0 0 1 510 768 )" class="stroke" mask="url(#Clip1827)" />
  </g>
</svg>