<?xml version="1.0" encoding="utf-8"?>
<svg version="1.1" xmlns:xlink="http://www.w3.org/1999/xlink" width="70px" height="71px" xmlns="http://www.w3.org/2000/svg">
  <defs>
    <pattern id="BGPattern" patternUnits="userSpaceOnUse" alignment="0 0" imageRepeat="None" />
    <mask fill="white" id="Clip138">
      <path d="M 24.28108613811431 1.9097279681463064  C 25.19053588075146 1.0002782567404225  26.516087724759323 0.6450977106129301  27.758419112754964 0.9779794057772264  L 58.88904182131964 9.319404635162499  C 60.131373341263185 9.65228624320764  61.10174457782131 10.622657795193218  61.43462624559419 11.86498909222987  L 69.77605154525148 42.99561211809129  C 70.10893321302436 44.23794341512793  69.75375284705609 45.56349544853623  68.8443029948854 46.47294513752773  L 46.055105482450394 69.26214254763356  C 45.145655775168585 70.1715921978022  43.82010393116072 70.52677274392968  42.57777250780975 70.19389111000264  L 11.447149680238105 61.85246601603281  C 10.204818305183414 61.51958436916479  9.234446923736407 60.549212856002086  8.901565255963533 59.30688155896544  L 0.5601399563062515 28.176258533104026  C 0.2272582885333705 26.933927236067376  0.5824387993905233 25.608375163836218  1.4918885066723286 24.698925513667575  L 24.28108613811431 1.9097279681463064  Z M 51.437046564793626 31.2266828344617  C 49.02949808984058 22.241589604252  39.793937064671404 16.909435960253347  30.80884359298023 19.316984499911143  C 21.82375021788166 21.724533013687036  16.491596573883008 30.960094038856234  18.899145048836054 39.94518726906594  C 21.306693653198614 48.93028098223856  30.54225467836779 54.262434626237194  39.52734805346637 51.8548861124613  C 48.512441525157534 49.447337572803505  53.84459516915618 40.211776547634315  51.437046564793626 31.2266828344617  Z " fill-rule="evenodd" />
    </mask>
  </defs>
  <g transform="matrix(1 0 0 1 -414 -790 )">
    <path d="M 24.28108613811431 1.9097279681463064  C 25.19053588075146 1.0002782567404225  26.516087724759323 0.6450977106129301  27.758419112754964 0.9779794057772264  L 58.88904182131964 9.319404635162499  C 60.131373341263185 9.65228624320764  61.10174457782131 10.622657795193218  61.43462624559419 11.86498909222987  L 69.77605154525148 42.99561211809129  C 70.10893321302436 44.23794341512793  69.75375284705609 45.56349544853623  68.8443029948854 46.47294513752773  L 46.055105482450394 69.26214254763356  C 45.145655775168585 70.1715921978022  43.82010393116072 70.52677274392968  42.57777250780975 70.19389111000264  L 11.447149680238105 61.85246601603281  C 10.204818305183414 61.51958436916479  9.234446923736407 60.549212856002086  8.901565255963533 59.30688155896544  L 0.5601399563062515 28.176258533104026  C 0.2272582885333705 26.933927236067376  0.5824387993905233 25.608375163836218  1.4918885066723286 24.698925513667575  L 24.28108613811431 1.9097279681463064  Z M 51.437046564793626 31.2266828344617  C 49.02949808984058 22.241589604252  39.793937064671404 16.909435960253347  30.80884359298023 19.316984499911143  C 21.82375021788166 21.724533013687036  16.491596573883008 30.960094038856234  18.899145048836054 39.94518726906594  C 21.306693653198614 48.93028098223856  30.54225467836779 54.262434626237194  39.52734805346637 51.8548861124613  C 48.512441525157534 49.447337572803505  53.84459516915618 40.211776547634315  51.437046564793626 31.2266828344617  Z " fill-rule="nonzero" fill="rgba(180, 184, 191, 0.35294117647058826)" stroke="none" transform="matrix(1 0 0 1 414 790 )" class="fill" />
    <path d="M 24.28108613811431 1.9097279681463064  C 25.19053588075146 1.0002782567404225  26.516087724759323 0.6450977106129301  27.758419112754964 0.9779794057772264  L 58.88904182131964 9.319404635162499  C 60.131373341263185 9.65228624320764  61.10174457782131 10.622657795193218  61.43462624559419 11.86498909222987  L 69.77605154525148 42.99561211809129  C 70.10893321302436 44.23794341512793  69.75375284705609 45.56349544853623  68.8443029948854 46.47294513752773  L 46.055105482450394 69.26214254763356  C 45.145655775168585 70.1715921978022  43.82010393116072 70.52677274392968  42.57777250780975 70.19389111000264  L 11.447149680238105 61.85246601603281  C 10.204818305183414 61.51958436916479  9.234446923736407 60.549212856002086  8.901565255963533 59.30688155896544  L 0.5601399563062515 28.176258533104026  C 0.2272582885333705 26.933927236067376  0.5824387993905233 25.608375163836218  1.4918885066723286 24.698925513667575  L 24.28108613811431 1.9097279681463064  Z " stroke-width="0" stroke-dasharray="0" stroke="rgba(255, 255, 255, 0)" fill="none" transform="matrix(1 0 0 1 414 790 )" class="stroke" mask="url(#Clip138)" />
    <path d="M 51.437046564793626 31.2266828344617  C 49.02949808984058 22.241589604252  39.793937064671404 16.909435960253347  30.80884359298023 19.316984499911143  C 21.82375021788166 21.724533013687036  16.491596573883008 30.960094038856234  18.899145048836054 39.94518726906594  C 21.306693653198614 48.93028098223856  30.54225467836779 54.262434626237194  39.52734805346637 51.8548861124613  C 48.512441525157534 49.447337572803505  53.84459516915618 40.211776547634315  51.437046564793626 31.2266828344617  Z " stroke-width="0" stroke-dasharray="0" stroke="rgba(255, 255, 255, 0)" fill="none" transform="matrix(1 0 0 1 414 790 )" class="stroke" mask="url(#Clip138)" />
  </g>
</svg>