<?xml version="1.0" encoding="utf-8"?>
<svg version="1.1" xmlns:xlink="http://www.w3.org/1999/xlink" width="28px" height="27px" xmlns="http://www.w3.org/2000/svg">
  <defs>
    <pattern id="BGPattern" patternUnits="userSpaceOnUse" alignment="0 0" imageRepeat="None" />
    <mask fill="white" id="Clip1518">
      <path d="M 15.713953683903071 0.4167739050058543  C 16.947857152460244 0.09131591023714236  18.26184855469762 0.44339884532807616  19.16771130690148 1.3422054709411242  L 26.33153984101699 8.450233410162255  C 27.248108844155496 9.359663503296545  27.60744375502867 10.69030989820881  27.273260227458934 11.937499802151663  L 24.693572758522464 21.56502450387127  C 24.35938923095273 22.81221440781418  23.382872872213795 23.78492053382577  22.13438591401689 24.11422511291393  L 12.37631444550641 26.68804361203125  C 11.142410847539736 27.01350208976287  9.828419445302359 26.661419154671947  8.922556822508 25.76261204609601  L 1.7587282883925042 18.65458410687485  C 0.8421591558444987 17.745154496703478  0.4828242449712974 16.414508101791213  0.8170077725410323 15.167318197848331  L 3.396695241477488 5.539793496128723  C 3.7308787690472367 4.292603592185841  4.707395127786171 3.319897466174254  5.95588221539262 2.990592404123163  L 15.713953683903071 0.4167739050058543  Z M 20.37884752326994 15.120950957167068  C 21.316137401394656 11.622937510585544  19.24026068934154 8.027413575060521  15.742247242760042 7.090123696935806  C 12.244233796178548 6.152833818811089  8.648710343616415 8.228710660273734  7.711420465491698 11.72672410685523  C 6.774130587366983 15.224737553436727  8.85000694586671 18.82026087658933  12.348020392448234 19.757550754714046  C 15.846033839029701 20.694840632838762  19.441557645145224 18.618964403748535  20.37884752326994 15.120950957167068  Z " fill-rule="evenodd" />
    </mask>
  </defs>
  <g transform="matrix(1 0 0 1 -525 -833 )">
    <path d="M 15.713953683903071 0.4167739050058543  C 16.947857152460244 0.09131591023714236  18.26184855469762 0.44339884532807616  19.16771130690148 1.3422054709411242  L 26.33153984101699 8.450233410162255  C 27.248108844155496 9.359663503296545  27.60744375502867 10.69030989820881  27.273260227458934 11.937499802151663  L 24.693572758522464 21.56502450387127  C 24.35938923095273 22.81221440781418  23.382872872213795 23.78492053382577  22.13438591401689 24.11422511291393  L 12.37631444550641 26.68804361203125  C 11.142410847539736 27.01350208976287  9.828419445302359 26.661419154671947  8.922556822508 25.76261204609601  L 1.7587282883925042 18.65458410687485  C 0.8421591558444987 17.745154496703478  0.4828242449712974 16.414508101791213  0.8170077725410323 15.167318197848331  L 3.396695241477488 5.539793496128723  C 3.7308787690472367 4.292603592185841  4.707395127786171 3.319897466174254  5.95588221539262 2.990592404123163  L 15.713953683903071 0.4167739050058543  Z M 20.37884752326994 15.120950957167068  C 21.316137401394656 11.622937510585544  19.24026068934154 8.027413575060521  15.742247242760042 7.090123696935806  C 12.244233796178548 6.152833818811089  8.648710343616415 8.228710660273734  7.711420465491698 11.72672410685523  C 6.774130587366983 15.224737553436727  8.85000694586671 18.82026087658933  12.348020392448234 19.757550754714046  C 15.846033839029701 20.694840632838762  19.441557645145224 18.618964403748535  20.37884752326994 15.120950957167068  Z " fill-rule="nonzero" fill="rgba(180, 184, 191, 0.35294117647058826)" stroke="none" transform="matrix(1 0 0 1 525 833 )" class="fill" />
    <path d="M 15.713953683903071 0.4167739050058543  C 16.947857152460244 0.09131591023714236  18.26184855469762 0.44339884532807616  19.16771130690148 1.3422054709411242  L 26.33153984101699 8.450233410162255  C 27.248108844155496 9.359663503296545  27.60744375502867 10.69030989820881  27.273260227458934 11.937499802151663  L 24.693572758522464 21.56502450387127  C 24.35938923095273 22.81221440781418  23.382872872213795 23.78492053382577  22.13438591401689 24.11422511291393  L 12.37631444550641 26.68804361203125  C 11.142410847539736 27.01350208976287  9.828419445302359 26.661419154671947  8.922556822508 25.76261204609601  L 1.7587282883925042 18.65458410687485  C 0.8421591558444987 17.745154496703478  0.4828242449712974 16.414508101791213  0.8170077725410323 15.167318197848331  L 3.396695241477488 5.539793496128723  C 3.7308787690472367 4.292603592185841  4.707395127786171 3.319897466174254  5.95588221539262 2.990592404123163  L 15.713953683903071 0.4167739050058543  Z " stroke-width="0" stroke-dasharray="0" stroke="rgba(255, 255, 255, 0)" fill="none" transform="matrix(1 0 0 1 525 833 )" class="stroke" mask="url(#Clip1518)" />
    <path d="M 20.37884752326994 15.120950957167068  C 21.316137401394656 11.622937510585544  19.24026068934154 8.027413575060521  15.742247242760042 7.090123696935806  C 12.244233796178548 6.152833818811089  8.648710343616415 8.228710660273734  7.711420465491698 11.72672410685523  C 6.774130587366983 15.224737553436727  8.85000694586671 18.82026087658933  12.348020392448234 19.757550754714046  C 15.846033839029701 20.694840632838762  19.441557645145224 18.618964403748535  20.37884752326994 15.120950957167068  Z " stroke-width="0" stroke-dasharray="0" stroke="rgba(255, 255, 255, 0)" fill="none" transform="matrix(1 0 0 1 525 833 )" class="stroke" mask="url(#Clip1518)" />
  </g>
</svg>