<?xml version="1.0" encoding="utf-8"?>
<svg version="1.1" xmlns:xlink="http://www.w3.org/1999/xlink" width="12px" height="17px" xmlns="http://www.w3.org/2000/svg">
  <defs>
    <pattern id="BGPattern" patternUnits="userSpaceOnUse" alignment="0 0" imageRepeat="None" />
    <mask fill="white" id="Clip1523">
      <path d="M 0.7142859500000043 5.871428499999993  C 0.7142859500000043 2.8890904999999947  3.131948300000005 0.4714285000000018  6.11428595000001 0.4714285000000018  C 9.096623600000001 0.4714285000000018  11.514285999999998 2.8890904999999947  11.514285999999998 5.871428499999993  C 11.514285999999998 8.222634999999997  10.011616000000004 10.222874000000004  7.914252000000005 10.964169999999996  L 7.914285949999993 14.614285500000008  C 7.914285949999993 15.608398000000008  7.108398499999993 16.414285500000005  6.11428595000001 16.414285500000005  C 5.120173399999999 16.414285500000005  4.314285949999999 15.608398000000008  4.314285949999999 14.614285500000008  L 4.313818999999995 10.963993000000002  C 2.216716649999995 10.222555499999999  0.7142859500000043 8.222448  0.7142859500000043 5.871428499999993  Z " fill-rule="evenodd" />
    </mask>
  </defs>
  <g transform="matrix(1 0 0 1 -482 -824 )">
    <path d="M 0.7142859500000043 5.871428499999993  C 0.7142859500000043 2.8890904999999947  3.131948300000005 0.4714285000000018  6.11428595000001 0.4714285000000018  C 9.096623600000001 0.4714285000000018  11.514285999999998 2.8890904999999947  11.514285999999998 5.871428499999993  C 11.514285999999998 8.222634999999997  10.011616000000004 10.222874000000004  7.914252000000005 10.964169999999996  L 7.914285949999993 14.614285500000008  C 7.914285949999993 15.608398000000008  7.108398499999993 16.414285500000005  6.11428595000001 16.414285500000005  C 5.120173399999999 16.414285500000005  4.314285949999999 15.608398000000008  4.314285949999999 14.614285500000008  L 4.313818999999995 10.963993000000002  C 2.216716649999995 10.222555499999999  0.7142859500000043 8.222448  0.7142859500000043 5.871428499999993  Z " fill-rule="nonzero" fill="rgba(180, 184, 191, 0.35294117647058826)" stroke="none" transform="matrix(1 0 0 1 482 824 )" class="fill" />
    <path d="M 0.7142859500000043 5.871428499999993  C 0.7142859500000043 2.8890904999999947  3.131948300000005 0.4714285000000018  6.11428595000001 0.4714285000000018  C 9.096623600000001 0.4714285000000018  11.514285999999998 2.8890904999999947  11.514285999999998 5.871428499999993  C 11.514285999999998 8.222634999999997  10.011616000000004 10.222874000000004  7.914252000000005 10.964169999999996  L 7.914285949999993 14.614285500000008  C 7.914285949999993 15.608398000000008  7.108398499999993 16.414285500000005  6.11428595000001 16.414285500000005  C 5.120173399999999 16.414285500000005  4.314285949999999 15.608398000000008  4.314285949999999 14.614285500000008  L 4.313818999999995 10.963993000000002  C 2.216716649999995 10.222555499999999  0.7142859500000043 8.222448  0.7142859500000043 5.871428499999993  Z " stroke-width="0" stroke-dasharray="0" stroke="rgba(255, 255, 255, 0)" fill="none" transform="matrix(1 0 0 1 482 824 )" class="stroke" mask="url(#Clip1523)" />
  </g>
</svg>