<?xml version="1.0" encoding="utf-8"?>
<svg version="1.1" xmlns:xlink="http://www.w3.org/1999/xlink" width="12px" height="18px" xmlns="http://www.w3.org/2000/svg">
  <defs>
    <pattern id="BGPattern" patternUnits="userSpaceOnUse" alignment="0 0" imageRepeat="None" />
    <mask fill="white" id="Clip1834">
      <path d="M 5 1.5999999999999943  C 5 0.9609274999999968  5.518070499999993 0.4428570000000036  6.157142999999991 0.4428570000000036  C 6.796215499999988 0.4428570000000036  7.31428600000001 0.9609274999999968  7.31428600000001 1.5999999999999943  L 7.314540999999991 2.911205499999994  C 9.6760175 3.488099500000004  11.428571500000004 5.617955499999994  11.428571500000004 8.157142499999992  C 11.428571500000004 10.696329500000004  9.6760175 12.826185500000008  7.314540999999991 13.403079500000004  L 7.31428600000001 16  C 7.31428600000001 16.639072  6.796215499999988 17.157142500000006  6.157142999999991 17.157142500000006  C 5.518070499999993 17.157142500000006  5 16.639072  5 16  L 4.999590500000011 13.459222499999996  C 2.5093965000000082 12.978790500000002  0.6285714999999925 10.787611499999997  0.6285714999999925 8.157142499999992  C 0.6285714999999925 5.526673500000001  2.5093965000000082 3.3354949999999945  4.999590500000011 2.8550630000000012  L 5 1.5999999999999943  Z M 9.371429000000006 8.157142499999992  C 9.371429000000006 6.310933500000004  7.874780500000014 4.814285499999997  6.028571499999998 4.814285499999997  C 4.182362500000011 4.814285499999997  2.685714499999989 6.310933500000004  2.685714499999989 8.157142499999992  C 2.685714499999989 10.003351499999994  4.182362500000011 11.5  6.028571499999998 11.5  C 7.874780500000014 11.5  9.371429000000006 10.003351499999994  9.371429000000006 8.157142499999992  Z " fill-rule="evenodd" />
    </mask>
  </defs>
  <g transform="matrix(1 0 0 1 -515 -823 )">
    <path d="M 5 1.5999999999999943  C 5 0.9609274999999968  5.518070499999993 0.4428570000000036  6.157142999999991 0.4428570000000036  C 6.796215499999988 0.4428570000000036  7.31428600000001 0.9609274999999968  7.31428600000001 1.5999999999999943  L 7.314540999999991 2.911205499999994  C 9.6760175 3.488099500000004  11.428571500000004 5.617955499999994  11.428571500000004 8.157142499999992  C 11.428571500000004 10.696329500000004  9.6760175 12.826185500000008  7.314540999999991 13.403079500000004  L 7.31428600000001 16  C 7.31428600000001 16.639072  6.796215499999988 17.157142500000006  6.157142999999991 17.157142500000006  C 5.518070499999993 17.157142500000006  5 16.639072  5 16  L 4.999590500000011 13.459222499999996  C 2.5093965000000082 12.978790500000002  0.6285714999999925 10.787611499999997  0.6285714999999925 8.157142499999992  C 0.6285714999999925 5.526673500000001  2.5093965000000082 3.3354949999999945  4.999590500000011 2.8550630000000012  L 5 1.5999999999999943  Z M 9.371429000000006 8.157142499999992  C 9.371429000000006 6.310933500000004  7.874780500000014 4.814285499999997  6.028571499999998 4.814285499999997  C 4.182362500000011 4.814285499999997  2.685714499999989 6.310933500000004  2.685714499999989 8.157142499999992  C 2.685714499999989 10.003351499999994  4.182362500000011 11.5  6.028571499999998 11.5  C 7.874780500000014 11.5  9.371429000000006 10.003351499999994  9.371429000000006 8.157142499999992  Z " fill-rule="nonzero" fill="rgba(180, 184, 191, 0.35294117647058826)" stroke="none" transform="matrix(1 0 0 1 515 823 )" class="fill" />
    <path d="M 5 1.5999999999999943  C 5 0.9609274999999968  5.518070499999993 0.4428570000000036  6.157142999999991 0.4428570000000036  C 6.796215499999988 0.4428570000000036  7.31428600000001 0.9609274999999968  7.31428600000001 1.5999999999999943  L 7.314540999999991 2.911205499999994  C 9.6760175 3.488099500000004  11.428571500000004 5.617955499999994  11.428571500000004 8.157142499999992  C 11.428571500000004 10.696329500000004  9.6760175 12.826185500000008  7.314540999999991 13.403079500000004  L 7.31428600000001 16  C 7.31428600000001 16.639072  6.796215499999988 17.157142500000006  6.157142999999991 17.157142500000006  C 5.518070499999993 17.157142500000006  5 16.639072  5 16  L 4.999590500000011 13.459222499999996  C 2.5093965000000082 12.978790500000002  0.6285714999999925 10.787611499999997  0.6285714999999925 8.157142499999992  C 0.6285714999999925 5.526673500000001  2.5093965000000082 3.3354949999999945  4.999590500000011 2.8550630000000012  L 5 1.5999999999999943  Z " stroke-width="0" stroke-dasharray="0" stroke="rgba(255, 255, 255, 0)" fill="none" transform="matrix(1 0 0 1 515 823 )" class="stroke" mask="url(#Clip1834)" />
    <path d="M 9.371429000000006 8.157142499999992  C 9.371429000000006 6.310933500000004  7.874780500000014 4.814285499999997  6.028571499999998 4.814285499999997  C 4.182362500000011 4.814285499999997  2.685714499999989 6.310933500000004  2.685714499999989 8.157142499999992  C 2.685714499999989 10.003351499999994  4.182362500000011 11.5  6.028571499999998 11.5  C 7.874780500000014 11.5  9.371429000000006 10.003351499999994  9.371429000000006 8.157142499999992  Z " stroke-width="0" stroke-dasharray="0" stroke="rgba(255, 255, 255, 0)" fill="none" transform="matrix(1 0 0 1 515 823 )" class="stroke" mask="url(#Clip1834)" />
  </g>
</svg>