<?xml version="1.0" encoding="utf-8"?>
<svg version="1.1" xmlns:xlink="http://www.w3.org/1999/xlink" width="77px" height="4px" xmlns="http://www.w3.org/2000/svg">
  <defs>
    <pattern id="BGPattern" patternUnits="userSpaceOnUse" alignment="0 0" imageRepeat="None" />
    <mask fill="white" id="Clip1493">
      <path d="M 0 2  C 0 0.8799999999999999  16.939999999999998 0  38.5 0  C 60.06 0  77 0.8799999999999999  77 2  C 77 3.12  60.06 4  38.5 4  C 16.939999999999998 4  0 3.12  0 2  Z " fill-rule="evenodd" />
    </mask>
  </defs>
  <g transform="matrix(1 0 0 1 -442 -358 )">
    <path d="M 0 2  C 0 0.8799999999999999  16.939999999999998 0  38.5 0  C 60.06 0  77 0.8799999999999999  77 2  C 77 3.12  60.06 4  38.5 4  C 16.939999999999998 4  0 3.12  0 2  Z " fill-rule="nonzero" fill="rgba(180, 184, 191, 0.20784313725490197)" stroke="none" transform="matrix(1 0 0 1 442 358 )" class="fill" />
    <path d="M 0 2  C 0 0.8799999999999999  16.939999999999998 0  38.5 0  C 60.06 0  77 0.8799999999999999  77 2  C 77 3.12  60.06 4  38.5 4  C 16.939999999999998 4  0 3.12  0 2  Z " stroke-width="0" stroke-dasharray="0" stroke="rgba(255, 255, 255, 0)" fill="none" transform="matrix(1 0 0 1 442 358 )" class="stroke" mask="url(#Clip1493)" />
  </g>
</svg>