<?xml version="1.0" encoding="utf-8"?>
<svg version="1.1" xmlns:xlink="http://www.w3.org/1999/xlink" width="42px" height="4px" xmlns="http://www.w3.org/2000/svg">
  <defs>
    <pattern id="BGPattern" patternUnits="userSpaceOnUse" alignment="0 0" imageRepeat="None" />
    <mask fill="white" id="Clip1329">
      <path d="M 0 2  C 0 0.8799999999999999  9.239999999999998 0  21 0  C 32.76 0  42 0.8799999999999999  42 2  C 42 3.12  32.76 4  21 4  C 9.239999999999998 4  0 3.12  0 2  Z " fill-rule="evenodd" />
    </mask>
  </defs>
  <g transform="matrix(1 0 0 1 -503 -862 )">
    <path d="M 0 2  C 0 0.8799999999999999  9.239999999999998 0  21 0  C 32.76 0  42 0.8799999999999999  42 2  C 42 3.12  32.76 4  21 4  C 9.239999999999998 4  0 3.12  0 2  Z " fill-rule="nonzero" fill="rgba(180, 184, 191, 0.35294117647058826)" stroke="none" transform="matrix(1 0 0 1 503 862 )" class="fill" />
    <path d="M 0 2  C 0 0.8799999999999999  9.239999999999998 0  21 0  C 32.76 0  42 0.8799999999999999  42 2  C 42 3.12  32.76 4  21 4  C 9.239999999999998 4  0 3.12  0 2  Z " stroke-width="0" stroke-dasharray="0" stroke="rgba(255, 255, 255, 0)" fill="none" transform="matrix(1 0 0 1 503 862 )" class="stroke" mask="url(#Clip1329)" />
  </g>
</svg>