<?xml version="1.0" encoding="utf-8"?>
<svg version="1.1" xmlns:xlink="http://www.w3.org/1999/xlink" width="72px" height="44px" xmlns="http://www.w3.org/2000/svg">
  <defs>
    <pattern id="BGPattern" patternUnits="userSpaceOnUse" alignment="0 0" imageRepeat="None" />
    <mask fill="white" id="Clip117">
      <path d="M 0 0.3714284999999933  L 69.52666300171761 31.477094000000008  C 71.03135550067266 32.15028100000001  72 33.6448125  72 35.29323000000001  L 72 39.390783  C 72 41.699690000000004  70.12826150129983 43.571428499999996  67.81935500290322 43  L 4.180645147096778 43  C 1.8717385487001852 43.571428499999996  0 41.699690000000004  0 39.390783  L 0 0.3714284999999933  Z " fill-rule="evenodd" />
    </mask>
  </defs>
  <g transform="matrix(1 0 0 1 -445 -315 )">
    <path d="M 0 0.3714284999999933  L 69.52666300171761 31.477094000000008  C 71.03135550067266 32.15028100000001  72 33.6448125  72 35.29323000000001  L 72 39.390783  C 72 41.699690000000004  70.12826150129983 43.571428499999996  67.81935500290322 43  L 4.180645147096778 43  C 1.8717385487001852 43.571428499999996  0 41.699690000000004  0 39.390783  L 0 0.3714284999999933  Z " fill-rule="nonzero" fill="rgba(180, 184, 191, 0.20784313725490197)" stroke="none" transform="matrix(1 0 0 1 445 315 )" class="fill" />
    <path d="M 0 0.3714284999999933  L 69.52666300171761 31.477094000000008  C 71.03135550067266 32.15028100000001  72 33.6448125  72 35.29323000000001  L 72 39.390783  C 72 41.699690000000004  70.12826150129983 43.571428499999996  67.81935500290322 43  L 4.180645147096778 43  C 1.8717385487001852 43.571428499999996  0 41.699690000000004  0 39.390783  L 0 0.3714284999999933  Z " stroke-width="0" stroke-dasharray="0" stroke="rgba(255, 255, 255, 0)" fill="none" transform="matrix(1 0 0 1 445 315 )" class="stroke" mask="url(#Clip117)" />
  </g>
</svg>