<?xml version="1.0" encoding="utf-8"?>
<svg version="1.1" xmlns:xlink="http://www.w3.org/1999/xlink" width="126px" height="81px" xmlns="http://www.w3.org/2000/svg">
  <defs>
    <pattern id="BGPattern" patternUnits="userSpaceOnUse" alignment="0 0" imageRepeat="None" />
  </defs>
  <g transform="matrix(1 0 0 1 -410.5 -274.5 )">
    <path d="M 117.57930503735687 0.5482903502701753  L 31.030623111109648 78.77618046725205  C 9.500250097017634 79.33029165411244  -0.6640695580776708 77.51779560197271  0.537664095945523 73.33869231432068  C 2.340264594419427 67.07003763223366  107.06364665444207 59.23000134681526  120.90379708382042 48.090741579838465  C 134.743948046859 36.951482276765475  79.63373117994706 30.742192655235012  79.02681546843162 22.062893618897768  C 78.62220500571406 16.276694427600276  91.47303502130751 9.105159893341927  117.57930503735687 0.5482903502701753  Z " fill-rule="nonzero" fill="rgba(180, 184, 191, 0.20784313725490197)" stroke="none" transform="matrix(1 0 0 1 411 275 )" class="fill" />
    <path d="M 31.030623111109648 78.77618046725205  C 9.500250097017634 79.33029165411244  -0.6640695580776708 77.51779560197271  0.537664095945523 73.33869231432068  C 2.340264594419427 67.07003763223366  107.06364665444207 59.23000134681526  120.90379708382042 48.090741579838465  C 134.743948046859 36.951482276765475  79.63373117994706 30.742192655235012  79.02681546843162 22.062893618897768  C 78.62220500571406 16.276694427600276  91.47303502130751 9.105159893341927  117.57930503735687 0.5482903502701753  " stroke-width="1.7999999999999998" stroke-dasharray="5.3999999999999995,1.7999999999999998" stroke="rgba(230, 232, 237, 1)" fill="none" transform="matrix(1 0 0 1 411 275 )" class="stroke" />
  </g>
</svg>