<?xml version="1.0" encoding="utf-8"?>
<svg version="1.1" xmlns:xlink="http://www.w3.org/1999/xlink" width="26px" height="15px" xmlns="http://www.w3.org/2000/svg">
  <defs>
    <pattern id="BGPattern" patternUnits="userSpaceOnUse" alignment="0 0" imageRepeat="None" />
    <mask fill="white" id="Clip1806">
      <path d="M 0.287006236117719 14.048126900084455  L 2.535748824678194 5.742060217264564  L 25.22738060296558 0.2667152579546812  C 25.292971873344243 0.2508885037628268  25.358974217466653 0.29123061599896616  25.374800971658516 0.35682188637762646  C 25.387794472409837 0.41067122658853794  25.362931136789427 0.46652387923408556  25.314221972931335 0.4929056981881992  L 0.287006236117719 14.048126900084455  Z " fill-rule="evenodd" />
    </mask>
  </defs>
  <g transform="matrix(1 0 0 1 -527 -263 )">
    <path d="M 0.287006236117719 14.048126900084455  L 2.535748824678194 5.742060217264564  L 25.22738060296558 0.2667152579546812  C 25.292971873344243 0.2508885037628268  25.358974217466653 0.29123061599896616  25.374800971658516 0.35682188637762646  C 25.387794472409837 0.41067122658853794  25.362931136789427 0.46652387923408556  25.314221972931335 0.4929056981881992  L 0.287006236117719 14.048126900084455  Z " fill-rule="nonzero" fill="rgba(180, 184, 191, 0.20784313725490197)" stroke="none" transform="matrix(1 0 0 1 527 263 )" class="fill" />
    <path d="M 0.287006236117719 14.048126900084455  L 2.535748824678194 5.742060217264564  L 25.22738060296558 0.2667152579546812  C 25.292971873344243 0.2508885037628268  25.358974217466653 0.29123061599896616  25.374800971658516 0.35682188637762646  C 25.387794472409837 0.41067122658853794  25.362931136789427 0.46652387923408556  25.314221972931335 0.4929056981881992  L 0.287006236117719 14.048126900084455  Z " stroke-width="0" stroke-dasharray="0" stroke="rgba(255, 255, 255, 0)" fill="none" transform="matrix(1 0 0 1 527 263 )" class="stroke" mask="url(#Clip1806)" />
  </g>
</svg>