<?xml version="1.0" encoding="utf-8"?>
<svg version="1.1" xmlns:xlink="http://www.w3.org/1999/xlink" width="12px" height="12px" xmlns="http://www.w3.org/2000/svg">
  <defs>
    <pattern id="BGPattern" patternUnits="userSpaceOnUse" alignment="0 0" imageRepeat="None" />
    <mask fill="white" id="Clip1641">
      <path d="M 10.661859375 11.273765625  C 10.5084140625 11.273765625  10.354968750000001 11.21521875  10.237886718750001 11.09813671875  L 0.8666953125000001 1.72696875  C 0.6325546874999999 1.492828125  0.6325546874999999 1.1131640624999999  0.8666953125000001 0.87901171875  C 1.10087109375 0.64487109375  1.4805234375 0.64487109375  1.7146640624999998 0.87901171875  L 11.085820312500001 10.25019140625  C 11.31997265625 10.48434375  11.31997265625 10.86399609375  11.085820312500001 11.09816015625  C 10.96875 11.21523046875  10.815304687500001 11.273765625  10.66184765625 11.273765625  Z " fill-rule="evenodd" />
    </mask>
  </defs>
  <g transform="matrix(1 0 0 1 -430 -19 )">
    <path d="M 10.661859375 11.273765625  C 10.5084140625 11.273765625  10.354968750000001 11.21521875  10.237886718750001 11.09813671875  L 0.8666953125000001 1.72696875  C 0.6325546874999999 1.492828125  0.6325546874999999 1.1131640624999999  0.8666953125000001 0.87901171875  C 1.10087109375 0.64487109375  1.4805234375 0.64487109375  1.7146640624999998 0.87901171875  L 11.085820312500001 10.25019140625  C 11.31997265625 10.48434375  11.31997265625 10.86399609375  11.085820312500001 11.09816015625  C 10.96875 11.21523046875  10.815304687500001 11.273765625  10.66184765625 11.273765625  Z " fill-rule="nonzero" fill="rgba(153, 153, 153, 1)" stroke="none" transform="matrix(1 0 0 1 430 19 )" class="fill" />
    <path d="M 10.661859375 11.273765625  C 10.5084140625 11.273765625  10.354968750000001 11.21521875  10.237886718750001 11.09813671875  L 0.8666953125000001 1.72696875  C 0.6325546874999999 1.492828125  0.6325546874999999 1.1131640624999999  0.8666953125000001 0.87901171875  C 1.10087109375 0.64487109375  1.4805234375 0.64487109375  1.7146640624999998 0.87901171875  L 11.085820312500001 10.25019140625  C 11.31997265625 10.48434375  11.31997265625 10.86399609375  11.085820312500001 11.09816015625  C 10.96875 11.21523046875  10.815304687500001 11.273765625  10.66184765625 11.273765625  Z " stroke-width="0" stroke-dasharray="0" stroke="rgba(255, 255, 255, 0)" fill="none" transform="matrix(1 0 0 1 430 19 )" class="stroke" mask="url(#Clip1641)" />
  </g>
</svg>