<?xml version="1.0" encoding="utf-8"?>
<svg version="1.1" xmlns:xlink="http://www.w3.org/1999/xlink" width="13px" height="13px" xmlns="http://www.w3.org/2000/svg">
  <defs>
    <pattern id="BGPattern" patternUnits="userSpaceOnUse" alignment="0 0" imageRepeat="None" />
    <mask fill="white" id="Clip1643">
      <path d="M 0 6.5  C 0 2.8599999999999994  2.8599999999999994 0  6.5 0  C 10.14 0  13 2.8599999999999994  13 6.5  C 13 10.14  10.14 13  6.5 13  C 2.8599999999999994 13  0 10.14  0 6.5  Z " fill-rule="evenodd" />
    </mask>
  </defs>
  <g transform="matrix(1 0 0 1 -12 -61 )">
    <path d="M 0 6.5  C 0 2.8599999999999994  2.8599999999999994 0  6.5 0  C 10.14 0  13 2.8599999999999994  13 6.5  C 13 10.14  10.14 13  6.5 13  C 2.8599999999999994 13  0 10.14  0 6.5  Z " fill-rule="nonzero" fill="rgba(255, 255, 255, 1)" stroke="none" transform="matrix(1 0 0 1 12 61 )" class="fill" />
    <path d="M 0 6.5  C 0 2.8599999999999994  2.8599999999999994 0  6.5 0  C 10.14 0  13 2.8599999999999994  13 6.5  C 13 10.14  10.14 13  6.5 13  C 2.8599999999999994 13  0 10.14  0 6.5  Z " stroke-width="2" stroke-dasharray="0" stroke="rgba(44, 140, 240, 1)" fill="none" transform="matrix(1 0 0 1 12 61 )" class="stroke" mask="url(#Clip1643)" />
  </g>
</svg>