<?xml version="1.0" encoding="utf-8"?>
<svg version="1.1" xmlns:xlink="http://www.w3.org/1999/xlink" width="13px" height="13px" xmlns="http://www.w3.org/2000/svg">
  <g transform="matrix(1 0 0 1 -12 -61 )">
    <path d="M 18.5 61  C 22.14 61  25 63.86  25 67.5  C 25 71.14  22.14 74  18.5 74  C 14.86 74  12 71.14  12 67.5  C 12 63.86  14.86 61  18.5 61  Z " fill-rule="nonzero" fill="#ffffff" stroke="none" />
    <path d="M 18.5 61.5  C 21.86 61.5  24.5 64.14  24.5 67.5  C 24.5 70.86  21.86 73.5  18.5 73.5  C 15.14 73.5  12.5 70.86  12.5 67.5  C 12.5 64.14  15.14 61.5  18.5 61.5  Z " stroke-width="1" stroke="#2c8cf0" fill="none" />
  </g>
</svg>