<?xml version="1.0" encoding="utf-8"?>
<svg version="1.1" xmlns:xlink="http://www.w3.org/1999/xlink" width="16px" height="16px" xmlns="http://www.w3.org/2000/svg">
  <defs>
    <mask fill="white" id="clip238">
      <path d="M 5.913816949152541 1.189315254237287  C 4.92626440677966 1.4982508474576284  4.022020338983051 2.024135593220338  3.2635661016949142 2.72184406779661  C 3.477044067796608 3.462942372881355  3.392 4.275199999999999  2.9893423728813557 4.971172881355934  C 2.586684745762712 5.668881355932202  1.9254237288135603 6.149640677966102  1.177383050847459 6.3336135593220355  C 1.0663050847457611 6.831728813559323  1.009030508474575 7.3437288135593235  1.009030508474575 7.864406779661022  C 1.009030508474575 8.385084745762713  1.0663050847457611 8.897084745762717  1.177383050847459 9.395199999999999  C 1.9271593220338976 9.579172881355937  2.586684745762712 10.059932203389833  2.9893423728813557 10.757640677966105  C 3.392 11.453613559322033  3.477044067796608 12.265871186440684  3.2635661016949142 13.006969491525426  C 4.022020338983051 13.706413559322035  4.92626440677966 14.230562711864406  5.913816949152541 14.539498305084749  C 6.448379661016952 13.982372881355937  7.1946847457627126 13.650874576271189  8 13.650874576271189  C 8.805315254237287 13.650874576271189  9.551620338983048 13.982372881355937  10.08618305084746 14.539498305084749  C 11.07373559322034 14.230562711864406  11.977979661016949 13.706413559322035  12.736433898305085 13.006969491525426  C 12.522955932203391 12.265871186440684  12.608 11.453613559322033  13.010657627118643 10.757640677966105  C 13.413315254237288 10.059932203389833  14.074576271186439 9.579172881355937  14.822616949152545 9.395199999999999  C 14.933694915254234 8.897084745762717  14.990969491525425 8.385084745762713  14.990969491525425 7.864406779661022  C 14.990969491525425 7.3437288135593235  14.933694915254234 6.831728813559323  14.822616949152545 6.3336135593220355  C 14.072840677966102 6.149640677966102  13.413315254237288 5.668881355932202  13.010657627118643 4.971172881355934  C 12.608 4.275199999999999  12.522955932203391 3.462942372881355  12.736433898305085 2.72184406779661  C 11.977979661016949 2.0224000000000006  11.07373559322034 1.4982508474576284  10.08618305084745 1.189315254237287  C 9.551620338983048 1.7464406779661015  8.805315254237287 2.077938983050846  8 2.077938983050846  C 7.194684745762709 2.077938983050846  6.448379661016948 1.7464406779661015  5.913816949152541 1.189315254237287  Z M 2.121545762711863 2.506630508474575  C 3.211498305084744 1.3108067796610157  4.660718644067796 0.44995254237287935  6.297383050847456 0.09242033898304954  C 6.621938983050848 0.7016135593220345  7.262372881355933 1.1146847457627131  8 1.1146847457627131  C 8.737627118644067 1.1146847457627131  9.378061016949156 0.6998779661016935  9.70261694915254 0.09242033898304954  C 11.339281355932204 0.4499525423728831  12.788501694915256 1.3108067796610157  13.878454237288134 2.504894915254238  C 13.513979661016947 3.0897898305084746  13.475796610169489 3.8517152542372894  13.845477966101695 4.4886779661016964  C 14.215159322033893 5.127376271186441  14.893776271186441 5.476230508474577  15.582806779661018 5.45193220338983  C 15.82405423728814 6.212122033898307  15.954223728813561 7.02264406779661  15.954223728813561 7.862671186440677  C 15.954223728813561 8.702698305084747  15.82405423728814 9.513220338983047  15.582806779661018 10.273410169491529  C 14.893776271186441 10.249111864406784  14.213423728813556 10.597966101694919  13.845477966101695 11.236664406779663  C 13.477532203389826 11.875362711864408  13.513979661016947 12.635552542372883  13.878454237288134 13.22044745762712  C 12.788501694915256 14.414535593220338  11.339281355932204 15.275389830508479  9.70261694915254 15.632922033898307  C 9.378061016949149 15.023728813559327  8.737627118644067 14.610657627118645  8 14.610657627118645  C 7.26237288135593 14.610657627118645  6.621938983050848 15.025464406779664  6.297383050847456 15.632922033898307  C 4.660718644067796 15.275389830508479  3.211498305084744 14.414535593220338  2.121545762711863 13.22044745762712  C 2.486020338983049 12.635552542372883  2.5224677966101696 11.873627118644071  2.1545220338983047 11.236664406779663  C 1.784840677966099 10.597966101694919  1.1062237288135597 10.249111864406784  0.41719322033898154 10.273410169491529  C 0.17594576271186496 9.51495593220339  0.04577627118643856 8.704433898305085  0.04577627118643856 7.864406779661022  C 0.04577627118643856 7.024379661016951  0.17594576271186496 6.213857627118644  0.41719322033898154 5.453667796610171  C 1.1062237288135597 5.477966101694915  1.7865762711864401 5.129111864406779  2.1545220338983047 4.490413559322034  C 2.5224677966101696 3.8517152542372894  2.486020338983049 3.091525423728812  2.121545762711863 2.506630508474575  Z M 5.106766101694916 7.864406779661022  C 5.106766101694916 9.461152542372883  6.4032542372881345 10.757640677966105  8 10.757640677966105  C 9.596745762711862 10.757640677966105  10.893233898305084 9.462888135593222  10.893233898305084 7.864406779661022  C 10.893233898305084 6.265925423728815  9.596745762711862 4.971172881355934  8 4.971172881355934  C 6.403254237288138 4.971172881355934  5.106766101694916 6.267661016949152  5.106766101694916 7.864406779661022  Z M 9.92824406779661 7.864406779661022  C 9.92824406779661 8.930061016949155  9.065654237288133 9.792650847457624  8 9.792650847457624  C 6.934345762711863 9.792650847457624  6.07175593220339 8.930061016949155  6.07175593220339 7.864406779661022  C 6.07175593220339 6.798752542372881  6.934345762711863 5.936162711864408  8 5.936162711864408  C 9.065654237288133 5.936162711864408  9.92824406779661 6.798752542372881  9.92824406779661 7.864406779661022  Z " fill-rule="evenodd" />
    </mask>
  </defs>
  <g transform="matrix(1 0 0 1 -25 -5 )">
    <path d="M 5.913816949152541 1.189315254237287  C 4.92626440677966 1.4982508474576284  4.022020338983051 2.024135593220338  3.2635661016949142 2.72184406779661  C 3.477044067796608 3.462942372881355  3.392 4.275199999999999  2.9893423728813557 4.971172881355934  C 2.586684745762712 5.668881355932202  1.9254237288135603 6.149640677966102  1.177383050847459 6.3336135593220355  C 1.0663050847457611 6.831728813559323  1.009030508474575 7.3437288135593235  1.009030508474575 7.864406779661022  C 1.009030508474575 8.385084745762713  1.0663050847457611 8.897084745762717  1.177383050847459 9.395199999999999  C 1.9271593220338976 9.579172881355937  2.586684745762712 10.059932203389833  2.9893423728813557 10.757640677966105  C 3.392 11.453613559322033  3.477044067796608 12.265871186440684  3.2635661016949142 13.006969491525426  C 4.022020338983051 13.706413559322035  4.92626440677966 14.230562711864406  5.913816949152541 14.539498305084749  C 6.448379661016952 13.982372881355937  7.1946847457627126 13.650874576271189  8 13.650874576271189  C 8.805315254237287 13.650874576271189  9.551620338983048 13.982372881355937  10.08618305084746 14.539498305084749  C 11.07373559322034 14.230562711864406  11.977979661016949 13.706413559322035  12.736433898305085 13.006969491525426  C 12.522955932203391 12.265871186440684  12.608 11.453613559322033  13.010657627118643 10.757640677966105  C 13.413315254237288 10.059932203389833  14.074576271186439 9.579172881355937  14.822616949152545 9.395199999999999  C 14.933694915254234 8.897084745762717  14.990969491525425 8.385084745762713  14.990969491525425 7.864406779661022  C 14.990969491525425 7.3437288135593235  14.933694915254234 6.831728813559323  14.822616949152545 6.3336135593220355  C 14.072840677966102 6.149640677966102  13.413315254237288 5.668881355932202  13.010657627118643 4.971172881355934  C 12.608 4.275199999999999  12.522955932203391 3.462942372881355  12.736433898305085 2.72184406779661  C 11.977979661016949 2.0224000000000006  11.07373559322034 1.4982508474576284  10.08618305084745 1.189315254237287  C 9.551620338983048 1.7464406779661015  8.805315254237287 2.077938983050846  8 2.077938983050846  C 7.194684745762709 2.077938983050846  6.448379661016948 1.7464406779661015  5.913816949152541 1.189315254237287  Z M 2.121545762711863 2.506630508474575  C 3.211498305084744 1.3108067796610157  4.660718644067796 0.44995254237287935  6.297383050847456 0.09242033898304954  C 6.621938983050848 0.7016135593220345  7.262372881355933 1.1146847457627131  8 1.1146847457627131  C 8.737627118644067 1.1146847457627131  9.378061016949156 0.6998779661016935  9.70261694915254 0.09242033898304954  C 11.339281355932204 0.4499525423728831  12.788501694915256 1.3108067796610157  13.878454237288134 2.504894915254238  C 13.513979661016947 3.0897898305084746  13.475796610169489 3.8517152542372894  13.845477966101695 4.4886779661016964  C 14.215159322033893 5.127376271186441  14.893776271186441 5.476230508474577  15.582806779661018 5.45193220338983  C 15.82405423728814 6.212122033898307  15.954223728813561 7.02264406779661  15.954223728813561 7.862671186440677  C 15.954223728813561 8.702698305084747  15.82405423728814 9.513220338983047  15.582806779661018 10.273410169491529  C 14.893776271186441 10.249111864406784  14.213423728813556 10.597966101694919  13.845477966101695 11.236664406779663  C 13.477532203389826 11.875362711864408  13.513979661016947 12.635552542372883  13.878454237288134 13.22044745762712  C 12.788501694915256 14.414535593220338  11.339281355932204 15.275389830508479  9.70261694915254 15.632922033898307  C 9.378061016949149 15.023728813559327  8.737627118644067 14.610657627118645  8 14.610657627118645  C 7.26237288135593 14.610657627118645  6.621938983050848 15.025464406779664  6.297383050847456 15.632922033898307  C 4.660718644067796 15.275389830508479  3.211498305084744 14.414535593220338  2.121545762711863 13.22044745762712  C 2.486020338983049 12.635552542372883  2.5224677966101696 11.873627118644071  2.1545220338983047 11.236664406779663  C 1.784840677966099 10.597966101694919  1.1062237288135597 10.249111864406784  0.41719322033898154 10.273410169491529  C 0.17594576271186496 9.51495593220339  0.04577627118643856 8.704433898305085  0.04577627118643856 7.864406779661022  C 0.04577627118643856 7.024379661016951  0.17594576271186496 6.213857627118644  0.41719322033898154 5.453667796610171  C 1.1062237288135597 5.477966101694915  1.7865762711864401 5.129111864406779  2.1545220338983047 4.490413559322034  C 2.5224677966101696 3.8517152542372894  2.486020338983049 3.091525423728812  2.121545762711863 2.506630508474575  Z M 5.106766101694916 7.864406779661022  C 5.106766101694916 9.461152542372883  6.4032542372881345 10.757640677966105  8 10.757640677966105  C 9.596745762711862 10.757640677966105  10.893233898305084 9.462888135593222  10.893233898305084 7.864406779661022  C 10.893233898305084 6.265925423728815  9.596745762711862 4.971172881355934  8 4.971172881355934  C 6.403254237288138 4.971172881355934  5.106766101694916 6.267661016949152  5.106766101694916 7.864406779661022  Z M 9.92824406779661 7.864406779661022  C 9.92824406779661 8.930061016949155  9.065654237288133 9.792650847457624  8 9.792650847457624  C 6.934345762711863 9.792650847457624  6.07175593220339 8.930061016949155  6.07175593220339 7.864406779661022  C 6.07175593220339 6.798752542372881  6.934345762711863 5.936162711864408  8 5.936162711864408  C 9.065654237288133 5.936162711864408  9.92824406779661 6.798752542372881  9.92824406779661 7.864406779661022  Z " fill-rule="nonzero" fill="#ff976a" stroke="none" transform="matrix(1 0 0 1 25 5 )" />
    <path d="M 5.913816949152541 1.189315254237287  C 4.92626440677966 1.4982508474576284  4.022020338983051 2.024135593220338  3.2635661016949142 2.72184406779661  C 3.477044067796608 3.462942372881355  3.392 4.275199999999999  2.9893423728813557 4.971172881355934  C 2.586684745762712 5.668881355932202  1.9254237288135603 6.149640677966102  1.177383050847459 6.3336135593220355  C 1.0663050847457611 6.831728813559323  1.009030508474575 7.3437288135593235  1.009030508474575 7.864406779661022  C 1.009030508474575 8.385084745762713  1.0663050847457611 8.897084745762717  1.177383050847459 9.395199999999999  C 1.9271593220338976 9.579172881355937  2.586684745762712 10.059932203389833  2.9893423728813557 10.757640677966105  C 3.392 11.453613559322033  3.477044067796608 12.265871186440684  3.2635661016949142 13.006969491525426  C 4.022020338983051 13.706413559322035  4.92626440677966 14.230562711864406  5.913816949152541 14.539498305084749  C 6.448379661016952 13.982372881355937  7.1946847457627126 13.650874576271189  8 13.650874576271189  C 8.805315254237287 13.650874576271189  9.551620338983048 13.982372881355937  10.08618305084746 14.539498305084749  C 11.07373559322034 14.230562711864406  11.977979661016949 13.706413559322035  12.736433898305085 13.006969491525426  C 12.522955932203391 12.265871186440684  12.608 11.453613559322033  13.010657627118643 10.757640677966105  C 13.413315254237288 10.059932203389833  14.074576271186439 9.579172881355937  14.822616949152545 9.395199999999999  C 14.933694915254234 8.897084745762717  14.990969491525425 8.385084745762713  14.990969491525425 7.864406779661022  C 14.990969491525425 7.3437288135593235  14.933694915254234 6.831728813559323  14.822616949152545 6.3336135593220355  C 14.072840677966102 6.149640677966102  13.413315254237288 5.668881355932202  13.010657627118643 4.971172881355934  C 12.608 4.275199999999999  12.522955932203391 3.462942372881355  12.736433898305085 2.72184406779661  C 11.977979661016949 2.0224000000000006  11.07373559322034 1.4982508474576284  10.08618305084745 1.189315254237287  C 9.551620338983048 1.7464406779661015  8.805315254237287 2.077938983050846  8 2.077938983050846  C 7.194684745762709 2.077938983050846  6.448379661016948 1.7464406779661015  5.913816949152541 1.189315254237287  Z " stroke-width="2" stroke="#ff976a" fill="none" transform="matrix(1 0 0 1 25 5 )" mask="url(#clip238)" />
    <path d="M 2.121545762711863 2.506630508474575  C 3.211498305084744 1.3108067796610157  4.660718644067796 0.44995254237287935  6.297383050847456 0.09242033898304954  C 6.621938983050848 0.7016135593220345  7.262372881355933 1.1146847457627131  8 1.1146847457627131  C 8.737627118644067 1.1146847457627131  9.378061016949156 0.6998779661016935  9.70261694915254 0.09242033898304954  C 11.339281355932204 0.4499525423728831  12.788501694915256 1.3108067796610157  13.878454237288134 2.504894915254238  C 13.513979661016947 3.0897898305084746  13.475796610169489 3.8517152542372894  13.845477966101695 4.4886779661016964  C 14.215159322033893 5.127376271186441  14.893776271186441 5.476230508474577  15.582806779661018 5.45193220338983  C 15.82405423728814 6.212122033898307  15.954223728813561 7.02264406779661  15.954223728813561 7.862671186440677  C 15.954223728813561 8.702698305084747  15.82405423728814 9.513220338983047  15.582806779661018 10.273410169491529  C 14.893776271186441 10.249111864406784  14.213423728813556 10.597966101694919  13.845477966101695 11.236664406779663  C 13.477532203389826 11.875362711864408  13.513979661016947 12.635552542372883  13.878454237288134 13.22044745762712  C 12.788501694915256 14.414535593220338  11.339281355932204 15.275389830508479  9.70261694915254 15.632922033898307  C 9.378061016949149 15.023728813559327  8.737627118644067 14.610657627118645  8 14.610657627118645  C 7.26237288135593 14.610657627118645  6.621938983050848 15.025464406779664  6.297383050847456 15.632922033898307  C 4.660718644067796 15.275389830508479  3.211498305084744 14.414535593220338  2.121545762711863 13.22044745762712  C 2.486020338983049 12.635552542372883  2.5224677966101696 11.873627118644071  2.1545220338983047 11.236664406779663  C 1.784840677966099 10.597966101694919  1.1062237288135597 10.249111864406784  0.41719322033898154 10.273410169491529  C 0.17594576271186496 9.51495593220339  0.04577627118643856 8.704433898305085  0.04577627118643856 7.864406779661022  C 0.04577627118643856 7.024379661016951  0.17594576271186496 6.213857627118644  0.41719322033898154 5.453667796610171  C 1.1062237288135597 5.477966101694915  1.7865762711864401 5.129111864406779  2.1545220338983047 4.490413559322034  C 2.5224677966101696 3.8517152542372894  2.486020338983049 3.091525423728812  2.121545762711863 2.506630508474575  Z " stroke-width="2" stroke="#ff976a" fill="none" transform="matrix(1 0 0 1 25 5 )" mask="url(#clip238)" />
    <path d="M 5.106766101694916 7.864406779661022  C 5.106766101694916 9.461152542372883  6.4032542372881345 10.757640677966105  8 10.757640677966105  C 9.596745762711862 10.757640677966105  10.893233898305084 9.462888135593222  10.893233898305084 7.864406779661022  C 10.893233898305084 6.265925423728815  9.596745762711862 4.971172881355934  8 4.971172881355934  C 6.403254237288138 4.971172881355934  5.106766101694916 6.267661016949152  5.106766101694916 7.864406779661022  Z " stroke-width="2" stroke="#ff976a" fill="none" transform="matrix(1 0 0 1 25 5 )" mask="url(#clip238)" />
    <path d="M 9.92824406779661 7.864406779661022  C 9.92824406779661 8.930061016949155  9.065654237288133 9.792650847457624  8 9.792650847457624  C 6.934345762711863 9.792650847457624  6.07175593220339 8.930061016949155  6.07175593220339 7.864406779661022  C 6.07175593220339 6.798752542372881  6.934345762711863 5.936162711864408  8 5.936162711864408  C 9.065654237288133 5.936162711864408  9.92824406779661 6.798752542372881  9.92824406779661 7.864406779661022  Z " stroke-width="2" stroke="#ff976a" fill="none" transform="matrix(1 0 0 1 25 5 )" mask="url(#clip238)" />
  </g>
</svg>