<?xml version="1.0" encoding="utf-8"?>
<svg version="1.1" xmlns:xlink="http://www.w3.org/1999/xlink" width="17px" height="14px" xmlns="http://www.w3.org/2000/svg">
  <g transform="matrix(1 0 0 1 -3 -6 )">
    <path d="M 16.006193047133046 6.301646789317266  C 16.006193047133046 6.379367310748827  15.978737149516038 6.454589407646205  15.928671438377538 6.514036056162246  L 14.054369335413416 8.379818620904835  C 13.895887713634057 8.524624997145914  13.653116180281696 8.524624997145915  13.49463455850234 8.379818620904835  L 11.629703962558501 6.514036056162246  C 11.40819553198128 6.258449410296412  11.556435794071762 6.164734302652106  11.71489950702028 6.019901865834633  L 13.418810521060841 6.019901865834633  C 12.894344902680581 3.4423804438265275  10.627644436162461 1.5904528104181135  7.997305890314479 1.5904528104181135  C 5.998906091109404 1.5904528104181135  4.155822280141094 2.668137977031867  3.1757494664586585 4.409705959438378  L 2.2437101404056166 4.043365092043682  C 3.3843176522393903 1.9311738293287382  5.591437081353713 0.614671693895769  7.991923995781903 0.614671693895769  C 11.164870945196267 0.614671693895769  13.879021170752655 2.8945748671251534  14.426673884555383 6.019901865834634  L 15.847735675507021 6.019901865834633  C 15.94612712409312 6.079705880974342  16.006193047133046 6.18650601729579  16.006193047133046 6.301646789317266  Z M 1.9744922059282373 6.11361697347894  C 2.1340690820167416 5.964080580177565  2.3823176886540853 5.964080580177565  2.5418945647425897 6.11361697347894  L 4.416196680187208 7.979399525741031  C 4.465993639519146 8.038888649424827  4.493280426699436 8.113997300492304  4.493280426699436 8.191577536347662  C 4.493280426699436 8.306662385266904  4.4334246682839815 8.413463765615933  4.335260917316693 8.473533728549143  L 2.7088778533541342 8.473533728549143  C 3.41520235991519 10.810386358389017  5.56847714396051 12.409033806673024  8.009742087009146 12.409033806673024  C 9.844903824656473 12.409033806673024  11.560870739280796 11.499880533968906  12.591561722308894 9.981494976599063  L 13.532972555382216 10.347835843993758  C 12.336362538561811 12.24157275549802  10.25258754788516 13.389794287543577  8.012472590489306 13.389794287543577  C 5.027550623308764 13.389794287543577  2.422564434171969 11.365851677646129  1.6848273322932923 8.473533728549143  L 0.19475715444617786 8.473533728549143  C 0.040553210608424345 8.328701291731669  -0.10768705148205929 8.234986184087363  0.10956159750390015 7.979399525741031  L 1.9744922059282373 6.11361697347894  Z " fill-rule="nonzero" fill="#ff976a" stroke="none" transform="matrix(1 0 0 1 3 6 )" />
  </g>
</svg>