<svg width="500" height="300" viewBox="0 0 500 300" fill="none" xmlns="http://www.w3.org/2000/svg">
<path d="M138.48 111.72H161.52V113.88H138.48V111.72ZM141.36 118.28V121.32H158.36V118.28H141.36ZM138.6 116.08H161.28V123.48H138.6V116.08ZM148.36 128.08H138.76V131.24H148.36V128.08ZM151.28 128.08V131.24H161.48V128.08H151.28ZM148.36 133.32H138.76V136.56H148.36V133.32ZM151.28 133.32V136.56H161.48V133.32H151.28ZM135.92 125.76H164.44V140.08H161.48V138.88H138.76V140.28H135.92V125.76ZM147 103.72L150.16 103C150.88 104.12 151.72 105.56 152.2 106.64H166.88V114.24H163.88V109.24H136.16V114.24H133.24V106.64H148.56C148.08 105.68 147.52 104.6 147 103.72ZM186.92 104.08L190.04 103.12C191.24 105.04 192.64 107.64 193.2 109.28L189.88 110.36C189.4 108.72 188.12 106.04 186.92 104.08ZM172 110.44H208.16V113.4H201.84C199.52 119.72 196.44 124.84 192.4 128.96C196.84 132.72 202.28 135.56 208.68 137.16C208 137.8 207.12 139.08 206.6 139.92C200.04 138.12 194.6 135.16 190.08 131.16C185.56 135.08 180 137.96 173.32 140.12C173 139.4 172.04 138 171.44 137.28C178.08 135.4 183.48 132.68 187.88 129C183.76 124.72 180.6 119.48 178.24 113.4H172V110.44ZM190.16 126.88C193.68 123.24 196.44 118.8 198.44 113.4H181.36C183.44 118.52 186.4 123.08 190.16 126.88ZM228.4 103.44H231.56V111.84H247.48V114.88H235.12C238 121.64 243.04 127.96 248.6 131.16C247.84 131.76 246.8 132.92 246.24 133.76C240.32 129.92 235.16 122.72 232.12 114.88H231.56V129.68H240.88V132.72H231.56V140.2H228.4V132.72H219.04V129.68H228.4V114.88H227.76C224.64 122.72 219.48 129.88 213.68 133.84C213.2 133.08 212.2 132 211.48 131.4C216.8 128.16 221.76 121.68 224.68 114.88H212.6V111.84H228.4V103.44ZM251.6 134.84C254.56 133.84 258.92 132.16 263.28 130.48L263.84 132.88C259.8 134.56 255.6 136.28 252.32 137.6L251.6 134.84ZM252.44 120.08C252.28 119.48 251.84 118.08 251.52 117.36C252.2 117.16 252.84 116.2 253.64 114.84C254.48 113.52 257.16 108.24 258.6 103.4L261.48 104.4C259.84 108.76 257.6 113.28 255.32 116.8L259.8 116.32C260.6 114.84 261.44 113.28 262.12 111.72L264.56 113.12C262.28 117.56 259.52 122.04 256.68 125.72L263.36 124.32C263.32 125.08 263.44 126.16 263.56 126.8C254.72 128.84 253.48 129.24 252.72 129.72C252.56 129.16 252.12 127.8 251.8 127.08C252.64 126.92 253.48 125.88 254.64 124.36C255.28 123.6 256.68 121.56 258.2 119C253.92 119.6 253 119.8 252.44 120.08ZM274.96 123H271.64V128.92H274.96V123ZM277 123V128.92H279.84V123H277ZM269.24 120.52H284.84L287.2 120.48V137.32C287.2 138.4 287.04 139.08 286.32 139.48C285.6 139.84 284.68 139.92 283.24 139.92C283.16 139.24 282.88 138.28 282.56 137.64C283.44 137.68 284.16 137.68 284.44 137.68C284.72 137.64 284.84 137.56 284.84 137.28V131.28H281.88V138.84H279.84V131.28H277V138.88H274.96V131.28H271.64V139.88H269.24V120.52ZM281.88 123V128.92H284.84V123H281.88ZM274.2 103.96L277 103.16C277.88 104.56 278.68 106.4 279.16 107.72H286.8V117.08H269.32C269.28 123.6 268.6 133.04 264.88 139.52C264.4 139 263.16 138.12 262.56 137.84C266.2 131.44 266.56 122.56 266.56 116.4V107.72H275.92C275.48 106.52 274.84 105.08 274.2 103.96ZM269.32 110.28V114.56H284V110.28H269.32ZM312.04 106.96V111H322.76V106.96H312.04ZM309.28 104.68H325.68V113.24H309.28V104.68ZM293.24 123.72C293.08 123.16 292.64 121.8 292.32 121.08C293 120.88 293.52 119.6 294.2 117.84C294.6 116.84 295.44 114.2 296.28 111H291.88V108.12H296.96C297.32 106.56 297.64 104.96 297.84 103.4L300.76 104C300.52 105.36 300.2 106.76 299.88 108.12H306.48V111H299.12C298.16 114.4 297.04 117.68 295.92 120.44H299.76V114.28H302.52V120.44H306.2V123.16H302.52V128.44L306.92 127.64L307.08 130.24L302.52 131.16V140.04H299.76V131.72L292.24 133.24L291.6 130.32L299.76 128.92V123.16H296.12C294.76 123.16 293.56 123.4 293.24 123.72ZM322.6 118.12H312.4V121.56H322.6V118.12ZM306 133.96L309.64 133.72V118.12H306.92V115.6H328.12V118.12H325.4V132.6L328.4 132.4L328.36 134.92L325.4 135.16V140.2H322.6V135.4L306.48 136.68L306 133.96ZM322.6 123.84H312.4V127.32H322.6V123.84ZM322.6 129.6H312.4V133.56L322.6 132.8V129.6ZM337.84 107.8V113.44H344.64V107.8H337.84ZM354.88 107.8V113.44H362.08V107.8H354.88ZM354.56 117.64L356.12 116.04C358.16 116.76 360.72 118 362.04 119.04L360.96 120.2H367.96V122.88H357C360.04 125.48 364.52 127.64 368.88 128.68C368.2 129.24 367.36 130.36 366.96 131.08L365 130.44V139.96H362.08V139.04H354.96V140.2H352.2V127.84H359.56C357.16 126.44 354.96 124.72 353.28 122.88H345.84C344.2 124.64 342.2 126.32 339.84 127.84H347.48V139.96H344.6V139.04H337.92V140.2H335.12V130.4L332.88 131.36C332.56 130.68 331.8 129.64 331.2 129.08C335.64 127.44 339.2 125.28 341.92 122.88H332.08V120.2H344.56C345.68 118.84 346.6 117.44 347.24 116.04H335.12V105.2H347.48V115.72L350.44 116.28C349.8 117.6 349 118.92 348.08 120.2H359.6C358.24 119.28 356.24 118.28 354.56 117.64ZM352.12 105.2H365V116.04H352.12V105.2ZM337.92 136.4H344.6V130.48H337.92V136.4ZM354.96 136.4H362.08V130.48H354.96V136.4Z" fill="#999999"/>
<path d="M212.958 169L216.458 158.752H217.732L221.246 169H220.014L218.992 165.78H215.156L214.12 169H212.958ZM215.464 164.856H218.698L218.166 163.19C217.774 162.028 217.452 160.922 217.102 159.718H217.046C216.71 160.922 216.374 162.028 215.996 163.19L215.464 164.856ZM221.465 169L223.971 165.052L221.661 161.44H222.907L223.957 163.162C224.195 163.582 224.461 163.988 224.727 164.422H224.783C225.021 163.988 225.245 163.582 225.483 163.162L226.463 161.44H227.653L225.343 165.164L227.849 169H226.603L225.441 167.166C225.189 166.704 224.895 166.242 224.601 165.808H224.531C224.265 166.242 224.013 166.704 223.747 167.166L222.669 169H221.465ZM229.379 169V157.856H230.527V160.95L230.485 162.532C231.199 161.818 231.983 161.244 233.019 161.244C234.601 161.244 235.329 162.266 235.329 164.198V169H234.181V164.338C234.181 162.882 233.733 162.238 232.683 162.238C231.885 162.238 231.311 162.658 230.527 163.456V169H229.379ZM239.999 169.182C238.417 169.182 237.689 168.174 237.689 166.242V161.44H238.837V166.102C238.837 167.558 239.285 168.188 240.335 168.188C241.133 168.188 241.707 167.782 242.463 166.858V161.44H243.597V169H242.659L242.561 167.796H242.519C241.805 168.622 241.049 169.182 239.999 169.182ZM249.471 169.182C248.771 169.182 247.959 168.818 247.301 168.216H247.245L247.133 169H246.223V157.856H247.371V160.95L247.315 162.336C248.029 161.734 248.883 161.244 249.751 161.244C251.725 161.244 252.761 162.77 252.761 165.094C252.761 167.684 251.207 169.182 249.471 169.182ZM249.303 168.216C250.619 168.216 251.585 167.026 251.585 165.122C251.585 163.386 250.997 162.21 249.485 162.21C248.827 162.21 248.127 162.588 247.371 163.288V167.39C248.057 168.006 248.785 168.216 249.303 168.216ZM256.694 169L260.194 158.752H261.468L264.982 169H263.75L262.728 165.78H258.892L257.856 169H256.694ZM259.2 164.856H262.434L261.902 163.19C261.51 162.028 261.188 160.922 260.838 159.718H260.782C260.446 160.922 260.11 162.028 259.732 163.19L259.2 164.856ZM266.362 169V161.44H267.3L267.412 162.546H267.454C268.182 161.818 268.966 161.244 270.002 161.244C271.584 161.244 272.312 162.266 272.312 164.198V169H271.164V164.338C271.164 162.882 270.716 162.238 269.666 162.238C268.868 162.238 268.294 162.658 267.51 163.456V169H266.362ZM277.148 169.182C275.566 169.182 275.062 168.202 275.062 166.718V162.364H273.914V161.51L275.104 161.44L275.244 159.298H276.196V161.44H278.282V162.364H276.196V166.76C276.196 167.684 276.476 168.244 277.386 168.244C277.666 168.244 278.016 168.146 278.268 168.034L278.506 168.902C278.072 169.042 277.568 169.182 277.148 169.182ZM282.377 169.182C280.473 169.182 279.255 167.754 279.255 165.234C279.255 162.784 280.809 161.244 282.559 161.244C283.441 161.244 284.029 161.58 284.715 162.14L284.659 160.81V157.856H285.793V169H284.855L284.757 168.09H284.715C284.113 168.692 283.315 169.182 282.377 169.182ZM282.615 168.216C283.343 168.216 283.987 167.852 284.659 167.138V163.05C283.987 162.448 283.385 162.21 282.727 162.21C281.439 162.21 280.431 163.456 280.431 165.22C280.431 167.082 281.229 168.216 282.615 168.216ZM132.588 183.028H133.484V185.87C133.484 187.62 133.064 189.72 129.494 191.022C129.368 190.84 129.13 190.518 128.92 190.35C132.266 189.244 132.588 187.326 132.588 185.87V183.028ZM133.302 188.712L133.932 188.138C134.828 188.81 135.976 189.79 136.55 190.406L135.892 191.064C135.346 190.42 134.212 189.426 133.302 188.712ZM124.426 181.418L124.958 180.83L126.232 181.684C126.806 181.18 127.408 180.466 127.87 179.794H124.006V178.954H128.486L128.654 178.912L129.242 179.29C128.626 180.312 127.716 181.39 126.876 182.132C127.394 182.482 127.87 182.832 128.192 183.098L127.926 183.434H128.934L129.088 183.392L129.676 183.56C129.298 184.638 128.85 185.842 128.458 186.598L127.73 186.402C128.01 185.856 128.304 185.058 128.57 184.288H126.96V189.958C126.96 190.49 126.848 190.756 126.47 190.91C126.092 191.05 125.49 191.064 124.524 191.064C124.482 190.812 124.342 190.434 124.216 190.168C124.958 190.182 125.602 190.182 125.798 190.182C126.008 190.168 126.064 190.112 126.064 189.944V184.288H123.712V183.434H127.212C126.442 182.832 125.322 182.02 124.426 181.418ZM130.18 181.236H132.294C132.434 180.788 132.588 180.242 132.7 179.752H129.662V178.898H136.55V179.752H133.722L133.204 181.236H135.99V187.858H135.08V182.09H131.048V187.872H130.18V181.236ZM146.126 181.194L146.924 180.83C147.708 181.502 148.534 182.44 148.926 183.084L148.086 183.504C147.722 182.832 146.882 181.88 146.126 181.194ZM138.804 179.038H139.714V182.972H138.804V179.038ZM141.716 178.394H142.64V183.42H141.716V178.394ZM144.572 187.424H145.51V189.692C145.51 190.028 145.622 190.084 146.294 190.084C146.616 190.084 148.254 190.084 148.674 190.084C149.234 190.084 149.346 189.902 149.388 188.6C149.598 188.74 149.976 188.88 150.228 188.936C150.116 190.518 149.836 190.896 148.758 190.896C148.478 190.896 146.504 190.896 146.224 190.896C144.908 190.896 144.572 190.658 144.572 189.692V187.424ZM143.606 185.38H144.586V186.486C144.586 187.956 144.012 189.86 138.692 191.134C138.58 190.91 138.314 190.574 138.104 190.378C143.256 189.258 143.606 187.62 143.606 186.472V185.38ZM139.952 183.868H148.562V188.25H147.596V184.722H140.89V188.32H139.952V183.868ZM145.398 178.254L146.294 178.436C146.182 178.87 146.042 179.304 145.902 179.724H150.214V180.578H145.58C145.202 181.488 144.768 182.3 144.292 182.93C144.124 182.79 143.732 182.552 143.494 182.44C144.348 181.404 145.006 179.822 145.398 178.254ZM154.914 186.542V185.646H158.456V186.542H154.914ZM176.153 184.638H173.409C173.073 185.394 172.737 186.108 172.415 186.724C173.157 187.102 173.955 187.522 174.739 187.956C175.453 187.102 175.915 186.024 176.153 184.638ZM171.169 187.032C171.561 186.388 171.995 185.534 172.401 184.638H170.287V183.784H172.765C173.087 183 173.367 182.216 173.563 181.502L174.515 181.656C174.319 182.328 174.053 183.056 173.759 183.784H178.715V184.638H177.161C176.853 186.22 176.335 187.438 175.551 188.404C176.755 189.118 177.875 189.818 178.617 190.406L177.945 191.134C177.231 190.546 176.125 189.818 174.907 189.076C173.885 190.014 172.541 190.644 170.805 191.106C170.721 190.896 170.497 190.49 170.329 190.294C171.925 189.93 173.171 189.398 174.095 188.6C173.115 188.04 172.093 187.48 171.169 187.032ZM170.665 180.088H174.179C174.053 179.556 173.843 178.912 173.647 178.394L174.571 178.198C174.809 178.786 175.061 179.528 175.201 180.088H178.519V182.748H177.609V180.928H171.561V182.776H170.665V180.088ZM167.823 178.268H168.747V181.11H170.287V181.992H168.747V185.296L170.441 184.778L170.581 185.618L168.747 186.22V189.972C168.747 190.518 168.607 190.784 168.257 190.924C167.921 191.078 167.361 191.106 166.437 191.092C166.423 190.868 166.283 190.49 166.157 190.238C166.801 190.252 167.389 190.252 167.571 190.252C167.753 190.252 167.823 190.182 167.823 189.986V186.514L165.975 187.102L165.751 186.192L167.823 185.576V181.992H165.905V181.11H167.823V178.268ZM186.975 178.52L187.829 178.212C188.319 178.926 188.865 179.878 189.075 180.494L188.179 180.872C187.969 180.242 187.465 179.262 186.975 178.52ZM183.377 178.31L184.273 178.59C183.867 179.626 183.377 180.648 182.817 181.614V191.064H181.879V183.084C181.403 183.756 180.899 184.372 180.395 184.89C180.311 184.666 180.017 184.176 179.835 183.952C181.249 182.594 182.579 180.466 183.377 178.31ZM183.671 189.706H187.801V186.024H184.511V185.128H187.801V181.922H184.035V181.026H192.547V181.922H188.739V185.128H192.127V186.024H188.739V189.706H192.757V190.602H183.671V189.706ZM196.49 190L199.99 179.752H201.264L204.778 190H203.546L202.524 186.78H198.688L197.652 190H196.49ZM198.996 185.856H202.23L201.698 184.19C201.306 183.028 200.984 181.922 200.634 180.718H200.578C200.242 181.922 199.906 183.028 199.528 184.19L198.996 185.856ZM207.404 190.182C206.536 190.182 206.158 189.622 206.158 188.614V178.856H207.306V188.698C207.306 189.076 207.46 189.23 207.656 189.23C207.712 189.23 207.768 189.23 207.922 189.202L208.09 190.084C207.908 190.14 207.726 190.182 207.404 190.182ZM212.378 190.182C210.796 190.182 210.292 189.202 210.292 187.718V183.364H209.144V182.51L210.334 182.44L210.474 180.298H211.426V182.44H213.512V183.364H211.426V187.76C211.426 188.684 211.706 189.244 212.616 189.244C212.896 189.244 213.246 189.146 213.498 189.034L213.736 189.902C213.302 190.042 212.798 190.182 212.378 190.182ZM226.711 178.898L227.257 178.324C228.139 178.702 229.203 179.318 229.735 179.794L229.161 180.466C228.643 179.976 227.593 179.318 226.711 178.898ZM217.947 189.132C219.473 188.852 221.853 188.362 224.135 187.872L224.205 188.768C222.049 189.244 219.753 189.748 218.143 190.098L217.947 189.132ZM219.739 183.588V186.178H222.735V183.588H219.739ZM218.857 182.762H223.659V186.99H218.857V182.762ZM218.031 180.536H224.905C224.863 179.808 224.849 179.052 224.835 178.296H225.829C225.829 179.066 225.843 179.808 225.885 180.536H230.127V181.46H225.927C226.067 183.406 226.333 185.156 226.697 186.556C227.509 185.38 228.153 184.036 228.615 182.524L229.553 182.748C228.937 184.638 228.083 186.29 227.033 187.676C227.565 189.216 228.237 190.126 228.993 190.126C229.413 190.126 229.581 189.398 229.665 187.508C229.875 187.718 230.225 187.942 230.491 188.026C230.323 190.392 229.945 191.106 228.923 191.106C227.817 191.106 226.949 190.14 226.305 188.544C225.409 189.552 224.373 190.392 223.197 191.078C223.057 190.896 222.693 190.518 222.483 190.35C223.827 189.636 224.989 188.684 225.955 187.536C225.451 185.884 225.129 183.77 224.961 181.46H218.031V180.536ZM239.334 190.182C236.786 190.182 234.994 188.11 234.994 184.834C234.994 181.572 236.786 179.57 239.334 179.57C241.868 179.57 243.66 181.572 243.66 184.834C243.66 188.11 241.868 190.182 239.334 190.182ZM239.334 189.16C241.224 189.16 242.47 187.466 242.47 184.834C242.47 182.216 241.224 180.592 239.334 180.592C237.43 180.592 236.184 182.216 236.184 184.834C236.184 187.466 237.43 189.16 239.334 189.16ZM245.806 193.234V182.44H246.744L246.856 183.322H246.898C247.598 182.762 248.438 182.244 249.334 182.244C251.308 182.244 252.344 183.77 252.344 186.108C252.344 188.684 250.79 190.182 249.054 190.182C248.354 190.182 247.626 189.86 246.926 189.3L246.954 190.63V193.234H245.806ZM248.886 189.216C250.202 189.216 251.168 188.026 251.168 186.122C251.168 184.386 250.58 183.21 249.068 183.21C248.41 183.21 247.724 183.588 246.954 184.288V188.39C247.668 189.006 248.368 189.216 248.886 189.216ZM256.483 190.182C254.901 190.182 254.397 189.202 254.397 187.718V183.364H253.249V182.51L254.439 182.44L254.579 180.298H255.531V182.44H257.617V183.364H255.531V187.76C255.531 188.684 255.811 189.244 256.721 189.244C257.001 189.244 257.351 189.146 257.603 189.034L257.841 189.902C257.407 190.042 256.903 190.182 256.483 190.182ZM259.355 190V182.44H260.503V190H259.355ZM259.943 180.816C259.467 180.816 259.159 180.508 259.159 180.018C259.159 179.556 259.467 179.248 259.943 179.248C260.391 179.248 260.727 179.556 260.727 180.018C260.727 180.508 260.391 180.816 259.943 180.816ZM266.013 190.182C264.165 190.182 262.541 188.726 262.541 186.234C262.541 183.7 264.165 182.244 266.013 182.244C267.861 182.244 269.485 183.7 269.485 186.234C269.485 188.726 267.861 190.182 266.013 190.182ZM266.013 189.23C267.385 189.23 268.323 188.026 268.323 186.234C268.323 184.428 267.385 183.21 266.013 183.21C264.655 183.21 263.717 184.428 263.717 186.234C263.717 188.026 264.655 189.23 266.013 189.23ZM271.537 190V182.44H272.475L272.587 183.546H272.629C273.357 182.818 274.141 182.244 275.177 182.244C276.759 182.244 277.487 183.266 277.487 185.198V190H276.339V185.338C276.339 183.882 275.891 183.238 274.841 183.238C274.043 183.238 273.469 183.658 272.685 184.456V190H271.537ZM284.838 183.84V185.45H288.296V183.84H284.838ZM289.262 183.84V185.45H292.888V183.84H289.262ZM284.838 181.502V183.084H288.296V181.502H284.838ZM289.262 181.502V183.084H292.888V181.502H289.262ZM291.81 178.324L292.818 178.66C292.384 179.332 291.88 180.088 291.418 180.69H293.84V186.262H289.262V187.662H295.086V188.544H289.262V191.078H288.296V188.544H282.584V187.662H288.296V186.262H283.914V180.69H286.574C286.252 180.13 285.692 179.29 285.16 178.702L285.958 178.324C286.532 178.954 287.19 179.822 287.47 180.41L286.924 180.69H290.382C290.886 180.004 291.474 179.024 291.81 178.324ZM297.928 185.772H298.908V189.356H302.352V184.652H296.766V183.714H302.352V181.404H297.816V180.48H302.352V178.268H303.332V180.48H307.924V181.404H303.332V183.714H308.904V184.652H303.332V189.356H306.748V185.772H307.686V191.106H306.748V190.28H297.928V185.772ZM311.872 179.374H321.812V180.27H311.872V179.374ZM310.668 183.322H322.988V184.232H318.984V189.37C318.984 189.86 319.096 189.944 319.656 189.944C319.922 189.944 321.224 189.944 321.574 189.944C322.176 189.944 322.26 189.58 322.316 187.396C322.54 187.578 322.932 187.746 323.198 187.816C323.086 190.196 322.834 190.84 321.644 190.84C321.364 190.84 319.824 190.84 319.558 190.84C318.354 190.84 318.032 190.518 318.032 189.384V184.232H315.288C315.036 187.27 314.364 189.776 311.116 191.064C311.018 190.84 310.738 190.504 310.528 190.336C313.524 189.202 314.07 186.92 314.294 184.232H310.668V183.322ZM328.252 185.282H332.312V182.076H330.002C329.708 182.916 329.358 183.658 328.966 184.26C328.784 184.134 328.392 183.896 328.168 183.798C328.98 182.608 329.568 180.802 329.89 178.954L330.8 179.136C330.66 179.822 330.492 180.508 330.31 181.152H332.312V178.436H333.25V181.152H336.512V182.076H333.25V185.282H337.114V186.206H333.25V191.092H332.312V186.206H328.252V185.282ZM327.622 178.31L328.518 178.59C328.126 179.626 327.65 180.676 327.104 181.656V191.064H326.208V183.112C325.774 183.77 325.312 184.358 324.836 184.876C324.752 184.652 324.472 184.176 324.29 183.952C325.62 182.58 326.866 180.452 327.622 178.31ZM341.576 186.542V185.646H345.118V186.542H341.576ZM349.436 189.286C350.472 188.936 351.998 188.348 353.524 187.774L353.692 188.544C352.278 189.118 350.808 189.692 349.674 190.154L349.436 189.286ZM349.702 184.064C349.66 183.868 349.52 183.42 349.408 183.182C349.646 183.126 349.87 182.79 350.164 182.3C350.458 181.824 351.41 179.976 351.928 178.268L352.838 178.59C352.236 180.144 351.452 181.768 350.654 183L352.306 182.818C352.6 182.3 352.894 181.754 353.132 181.208L353.916 181.642C353.09 183.224 352.096 184.848 351.074 186.15L353.524 185.632C353.51 185.884 353.552 186.22 353.58 186.402C350.472 187.13 350.052 187.256 349.8 187.424C349.758 187.228 349.618 186.808 349.506 186.57C349.786 186.528 350.094 186.15 350.5 185.632C350.724 185.338 351.256 184.596 351.816 183.672C350.22 183.882 349.898 183.966 349.702 184.064ZM357.57 185.044H356.324V187.214H357.57V185.044ZM358.228 185.044V187.214H359.306V185.044H358.228ZM355.568 184.26H361.084L361.84 184.246V190.154C361.84 190.518 361.784 190.728 361.546 190.854C361.294 190.98 360.972 190.994 360.468 190.994C360.44 190.784 360.342 190.476 360.244 190.28C360.566 190.294 360.846 190.294 360.944 190.294C361.042 190.28 361.084 190.252 361.084 190.14V187.97H359.964V190.616H359.306V187.97H358.228V190.63H357.57V187.97H356.324V190.98H355.568V184.26ZM359.964 185.044V187.214H361.084V185.044H359.964ZM357.36 178.436L358.228 178.184C358.536 178.674 358.844 179.332 358.984 179.794H361.714V182.986H355.54C355.526 185.254 355.302 188.558 354.014 190.854C353.86 190.686 353.482 190.42 353.286 190.322C354.546 188.068 354.672 184.974 354.672 182.832V179.794H357.99C357.836 179.36 357.584 178.856 357.36 178.436ZM355.54 180.592V182.202H360.832V180.592H355.54ZM370.506 179.444V180.956H374.398V179.444H370.506ZM369.638 178.716H375.308V181.684H369.638V178.716ZM363.996 185.31C363.954 185.114 363.814 184.694 363.716 184.456C363.94 184.4 364.122 183.938 364.36 183.322C364.5 182.972 364.822 182.006 365.116 180.844H363.534V179.948H365.326C365.452 179.402 365.55 178.828 365.634 178.268L366.558 178.464C366.46 178.954 366.362 179.458 366.236 179.948H368.616V180.844H365.998C365.662 182.076 365.27 183.252 364.864 184.246H366.306V182.076H367.174V184.246H368.532V185.114H367.174V187.046L368.784 186.738L368.84 187.564L367.174 187.914V191.036H366.306V188.082L363.646 188.628L363.436 187.704C364.206 187.578 365.214 187.41 366.306 187.2V185.114H365.004C364.528 185.114 364.122 185.198 363.996 185.31ZM374.356 183.35H370.646V184.624H374.356V183.35ZM368.448 188.992L369.764 188.908V183.35H368.798V182.538H376.19V183.35H375.224V188.516L376.274 188.446L376.26 189.244L375.224 189.328V191.092H374.356V189.398L368.602 189.846L368.448 188.992ZM374.356 185.352H370.646V186.654H374.356V185.352ZM374.356 187.382H370.646V188.852L374.356 188.586V187.382Z" fill="#999999"/>
</svg>
